o convex_0
v 0.003065 -0.083822 0.016109
v -0.001051 -0.084065 0.002301
v -0.001051 -0.083822 0.002301
v -0.006621 -0.084065 0.012476
v -0.005411 -0.078978 0.008602
v 0.005005 -0.078978 0.006906
v -0.001051 -0.078978 0.014898
v 0.006701 -0.084065 0.006664
v 0.005005 -0.079220 0.012476
v 0.000644 -0.078978 0.003997
v -0.006380 -0.083822 0.005694
v -0.002987 -0.084065 0.016109
v 0.003794 -0.083822 0.003029
v 0.006459 -0.084065 0.013202
v -0.002987 -0.079220 0.004484
v -0.004925 -0.079462 0.012717
v 0.007186 -0.083337 0.009810
v 0.002823 -0.078978 0.014413
v -0.007350 -0.084065 0.009811
v 0.000160 -0.084065 0.016837
v -0.003715 -0.084065 0.003029
v 0.003065 -0.078978 0.004725
v -0.003715 -0.083095 0.015625
v 0.005732 -0.079220 0.009329
v -0.004925 -0.078978 0.006662
v 0.006215 -0.083337 0.005694
v -0.002746 -0.078978 0.014413
v -0.006138 -0.080189 0.009327
v -0.006380 -0.083580 0.013203
v 0.000160 -0.080916 0.015865
v 0.000160 -0.079705 0.003514
v 0.003794 -0.083822 0.015865
v 0.000400 -0.083337 0.002301
v -0.005411 -0.078978 0.010537
v 0.003794 -0.084065 0.003029
v 0.007186 -0.083822 0.008602
v 0.005005 -0.079705 0.006179
v -0.000324 -0.083822 0.016837
v -0.003231 -0.080431 0.014898
v 0.005490 -0.078978 0.010052
v -0.007350 -0.083822 0.009086
v -0.005652 -0.081158 0.006179
v -0.003715 -0.082611 0.003514
v 0.006459 -0.083822 0.013202
v 0.003550 -0.082126 0.015383
f 44 9 45 
f 6 5 7 
f 4 2 8 
f 5 6 10 
f 4 8 12 
f 12 8 14 
f 6 7 18 
f 2 4 19 
f 12 14 20 
f 3 2 21 
f 2 19 21 
f 19 11 21 
f 10 6 22 
f 5 10 25 
f 10 15 25 
f 7 5 27 
f 5 25 28 
f 4 12 29 
f 19 4 29 
f 12 23 29 
f 28 19 29 
f 18 7 30 
f 20 1 30 
f 3 15 31 
f 15 10 31 
f 10 22 31 
f 22 13 31 
f 1 20 32 
f 20 14 32 
f 2 3 33 
f 3 31 33 
f 31 13 33 
f 27 5 34 
f 16 27 34 
f 5 28 34 
f 29 16 34 
f 28 29 34 
f 8 2 35 
f 26 8 35 
f 13 26 35 
f 2 33 35 
f 33 13 35 
f 14 8 36 
f 17 14 36 
f 6 24 36 
f 24 17 36 
f 8 26 36 
f 26 6 36 
f 22 6 37 
f 13 22 37 
f 26 13 37 
f 6 26 37 
f 12 20 38 
f 23 12 38 
f 30 7 38 
f 20 30 38 
f 7 27 39 
f 27 16 39 
f 29 23 39 
f 16 29 39 
f 23 38 39 
f 38 7 39 
f 9 17 40 
f 6 18 40 
f 18 9 40 
f 24 6 40 
f 17 24 40 
f 11 19 41 
f 19 28 41 
f 41 28 42 
f 25 15 42 
f 28 25 42 
f 11 41 42 
f 15 3 43 
f 3 21 43 
f 21 11 43 
f 42 15 43 
f 11 42 43 
f 17 9 44 
f 14 17 44 
f 32 14 44 
f 32 44 45 
f 9 18 45 
f 18 30 45 
f 30 1 45 
f 1 32 45 
o convex_1
v -0.002989 -0.078486 0.004726
v 0.000402 0.025174 0.015141
v 0.000159 0.025916 0.015140
v 0.001856 0.042634 0.005210
v 0.005732 -0.077516 0.009810
v -0.004926 -0.077756 0.012475
v -0.005654 0.025425 0.009086
v 0.005732 0.024216 0.009810
v 0.003067 -0.077756 0.014414
v 0.002824 -0.078007 0.004483
v -0.002989 0.024695 0.004483
v -0.002504 0.043113 0.013444
v 0.004036 0.042862 0.011990
v -0.004926 -0.077756 0.006421
v 0.005004 0.025425 0.006663
v -0.002989 -0.077756 0.014414
v 0.005004 0.024455 0.012476
v 0.000159 0.024934 0.003755
v -0.004926 0.025425 0.012475
v -0.003958 0.043113 0.006906
v -0.000324 -0.077756 0.003755
v -0.002989 0.025425 0.014414
v 0.004763 -0.078977 0.006664
v -0.000324 -0.078007 0.015140
v -0.005654 -0.077756 0.010053
v 0.002824 0.025665 0.004483
v -0.004926 0.024695 0.006421
v 0.003067 0.024455 0.014414
v 0.005004 -0.077756 0.012475
v 0.004036 0.043113 0.007148
v -0.004443 0.043113 0.010537
v 0.001856 0.043113 0.013687
v -0.000808 0.043113 0.004967
v -0.002989 -0.078977 0.014171
v 0.005004 -0.077756 0.006664
v -0.002989 -0.077756 0.004483
v -0.005654 -0.077516 0.008843
v 0.005732 0.024695 0.009328
v -0.005654 0.024455 0.010053
v -0.000566 0.024455 0.015140
v 0.004763 -0.078977 0.012233
v -0.005411 -0.078977 0.008843
v 0.004763 0.041425 0.009328
v 0.000402 -0.077756 0.015140
v -0.000324 0.042395 0.014172
v -0.000324 0.024695 0.003755
v 0.005732 -0.077756 0.009328
v -0.000324 -0.078977 0.003998
v 0.002098 -0.077756 0.004240
v -0.002504 0.043113 0.005453
v 0.003309 0.043365 0.011264
v -0.004684 0.042874 0.009328
v -0.004200 0.040694 0.011990
v 0.005247 0.024695 0.007390
v 0.002340 0.024455 0.014655
v 0.000159 -0.077756 0.003755
v -0.005169 0.024946 0.007148
v 0.002340 -0.078977 0.014414
v 0.002582 0.042143 0.005451
v -0.000566 -0.077756 0.015140
v -0.001778 0.043365 0.006179
v -0.002020 0.043365 0.012717
v -0.005169 0.025186 0.011749
v 0.004521 0.043113 0.010295
f 75 96 109 
f 50 53 62 
f 51 61 64 
f 64 61 67 
f 60 55 71 
f 63 49 71 
f 56 59 72 
f 65 56 72 
f 54 62 73 
f 62 58 73 
f 50 62 74 
f 62 54 74 
f 73 58 77 
f 49 63 78 
f 75 49 78 
f 61 51 79 
f 55 60 80 
f 68 55 80 
f 46 59 81 
f 59 56 81 
f 56 66 81 
f 70 52 82 
f 53 50 83 
f 52 70 84 
f 47 48 85 
f 67 61 85 
f 50 74 86 
f 74 54 86 
f 79 68 86 
f 59 46 87 
f 51 70 87 
f 79 51 87 
f 68 79 87 
f 82 59 87 
f 70 82 87 
f 60 75 88 
f 53 83 88 
f 47 69 89 
f 48 47 90 
f 57 67 90 
f 47 77 90 
f 77 57 90 
f 85 48 90 
f 67 85 90 
f 66 56 91 
f 63 66 91 
f 56 78 91 
f 78 63 91 
f 68 80 92 
f 83 50 92 
f 50 86 92 
f 86 68 92 
f 55 68 93 
f 46 81 93 
f 81 66 93 
f 87 46 93 
f 68 87 93 
f 71 55 94 
f 63 71 94 
f 56 65 95 
f 78 56 95 
f 77 58 96 
f 76 65 97 
f 52 84 97 
f 84 76 97 
f 67 57 98 
f 64 67 98 
f 57 76 98 
f 80 60 99 
f 60 88 99 
f 88 83 99 
f 92 80 99 
f 83 92 99 
f 54 73 100 
f 77 47 100 
f 73 77 100 
f 47 89 100 
f 89 54 100 
f 66 63 101 
f 55 93 101 
f 93 66 101 
f 63 94 101 
f 94 55 101 
f 72 59 102 
f 65 72 102 
f 59 82 102 
f 82 52 102 
f 52 97 102 
f 97 65 102 
f 69 79 103 
f 86 54 103 
f 79 86 103 
f 54 89 103 
f 89 69 103 
f 71 49 104 
f 60 71 104 
f 75 60 104 
f 49 75 104 
f 69 47 105 
f 61 79 105 
f 79 69 105 
f 47 85 105 
f 85 61 105 
f 65 76 106 
f 75 78 106 
f 95 65 106 
f 78 95 106 
f 96 75 106 
f 96 106 107 
f 76 57 107 
f 57 77 107 
f 77 96 107 
f 106 76 107 
f 51 64 108 
f 70 51 108 
f 84 70 108 
f 76 84 108 
f 64 98 108 
f 98 76 108 
f 62 53 109 
f 58 62 109 
f 53 88 109 
f 88 75 109 
f 96 58 109 
o convex_2
v 0.001372 0.087210 0.010538
v -0.002020 0.043365 0.009328
v -0.001778 0.043365 0.008358
v 0.001856 0.043365 0.010296
v 0.000887 0.080666 0.007631
v -0.001535 0.085759 0.010780
v -0.000325 0.043365 0.011507
v -0.001535 0.085759 0.008116
v 0.000887 0.043365 0.007631
v 0.001856 0.082363 0.008601
v 0.001129 0.082363 0.011265
v -0.000808 0.043365 0.007631
v 0.000645 0.089874 0.008600
v -0.001778 0.043365 0.010538
v 0.001856 0.043365 0.008601
v -0.002020 0.080908 0.009811
v -0.000325 0.080423 0.011507
v 0.001129 0.043365 0.011265
v 0.001856 0.080670 0.010296
v -0.000808 0.083576 0.007631
v -0.000566 0.089874 0.010296
v -0.001051 0.043365 0.011265
v -0.001778 0.082121 0.008358
v 0.001614 0.085517 0.010780
v 0.001372 0.086240 0.008116
v -0.000808 0.089874 0.008843
v -0.001293 0.085759 0.011023
v 0.000160 0.080666 0.011507
v 0.000887 0.086483 0.011023
v -0.001293 0.085759 0.007874
v 0.000887 0.089874 0.010053
v -0.001778 0.084299 0.010538
v 0.001129 0.085997 0.007874
v -0.001293 0.043365 0.007874
v 0.001614 0.043365 0.010780
v -0.002020 0.080908 0.009328
v 0.001614 0.085997 0.008358
v -0.001051 0.081640 0.011265
v -0.002020 0.043365 0.009811
v 0.000160 0.043365 0.011507
v -0.001051 0.089389 0.009569
f 117 141 150 
f 111 112 113 
f 111 113 116 
f 113 112 118 
f 118 114 119 
f 118 112 121 
f 114 118 121 
f 111 116 123 
f 113 118 124 
f 119 113 124 
f 118 119 124 
f 116 113 127 
f 113 119 128 
f 114 121 129 
f 123 116 131 
f 116 126 131 
f 112 111 132 
f 117 112 132 
f 120 127 133 
f 128 119 133 
f 113 128 133 
f 119 114 134 
f 130 122 135 
f 130 115 136 
f 123 131 136 
f 126 116 137 
f 127 120 137 
f 136 126 137 
f 136 137 138 
f 133 110 138 
f 120 133 138 
f 130 136 138 
f 137 120 138 
f 112 117 139 
f 129 121 139 
f 117 135 139 
f 135 122 139 
f 122 130 140 
f 138 110 140 
f 130 138 140 
f 125 123 141 
f 136 115 141 
f 123 136 141 
f 114 129 142 
f 134 114 142 
f 122 134 142 
f 129 139 142 
f 139 122 142 
f 121 112 143 
f 112 139 143 
f 139 121 143 
f 127 113 144 
f 113 133 144 
f 133 127 144 
f 111 125 145 
f 132 111 145 
f 117 132 145 
f 141 117 145 
f 125 141 145 
f 110 133 146 
f 133 119 146 
f 119 134 146 
f 134 122 146 
f 122 140 146 
f 140 110 146 
f 131 126 147 
f 126 136 147 
f 136 131 147 
f 111 123 148 
f 125 111 148 
f 123 125 148 
f 116 127 149 
f 137 116 149 
f 127 137 149 
f 115 130 150 
f 135 117 150 
f 130 135 150 
f 141 115 150 
o convex_3
v 0.004034 -0.090121 0.016110
v 0.002823 -0.084065 0.016353
v 0.005489 -0.085277 0.019017
v -0.005651 -0.089636 0.019017
v -0.007108 -0.085276 0.016110
v -0.005651 -0.085277 0.019017
v 0.005489 -0.089636 0.019017
v -0.007108 -0.089635 0.016110
v 0.007186 -0.085276 0.016110
v 0.007186 -0.089635 0.016353
v -0.002989 -0.084065 0.016110
v -0.004200 -0.090121 0.016353
v -0.001051 -0.084065 0.016837
v 0.001612 -0.090121 0.017079
v -0.007108 -0.085276 0.016595
v 0.005729 -0.085519 0.019017
v 0.005489 -0.084551 0.016110
v -0.006863 -0.089635 0.017079
v 0.007186 -0.089635 0.016110
f 159 160 169 
f 154 153 156 
f 153 154 157 
f 155 151 158 
f 151 155 159 
f 157 151 160 
f 159 155 161 
f 158 151 162 
f 153 152 163 
f 156 153 163 
f 152 161 163 
f 161 156 163 
f 151 157 164 
f 157 154 164 
f 162 151 164 
f 154 162 164 
f 155 158 165 
f 156 161 165 
f 161 155 165 
f 153 157 166 
f 159 153 166 
f 157 160 166 
f 160 159 166 
f 152 153 167 
f 153 159 167 
f 161 152 167 
f 159 161 167 
f 154 156 168 
f 162 154 168 
f 158 162 168 
f 156 165 168 
f 165 158 168 
f 151 159 169 
f 160 151 169 
o convex_4
v -0.006138 -0.089877 0.003271
v 0.004520 -0.084065 0.003755
v 0.007670 -0.085276 0.003755
v 0.005488 -0.085276 -0.000121
v -0.005893 -0.085276 0.000363
v 0.005488 -0.089636 -0.000121
v 0.007670 -0.089634 0.003755
v -0.007590 -0.085276 0.003755
v -0.005652 -0.089636 -0.000121
v -0.007834 -0.089393 0.003755
v -0.003473 -0.084065 0.002786
v 0.005002 -0.090121 0.003755
v -0.005168 -0.085276 -0.000121
v 0.000885 -0.084065 0.002059
v -0.001536 -0.090121 0.001817
v -0.004441 -0.084065 0.003755
v 0.007426 -0.085518 0.002786
v -0.004682 -0.090121 0.003755
v -0.007834 -0.085518 0.003513
v 0.007670 -0.089634 0.003271
v 0.005972 -0.089394 0.000363
v -0.006138 -0.084551 0.003271
v 0.004037 -0.090121 0.002544
f 181 184 192 
f 171 172 173 
f 172 171 176 
f 176 171 177 
f 173 175 178 
f 176 177 179 
f 178 170 179 
f 176 179 181 
f 173 178 182 
f 178 174 182 
f 174 180 182 
f 182 180 183 
f 171 173 183 
f 180 171 183 
f 173 182 183 
f 178 175 184 
f 177 171 185 
f 171 180 185 
f 173 172 186 
f 170 178 187 
f 179 170 187 
f 181 179 187 
f 178 184 187 
f 184 181 187 
f 177 174 188 
f 174 178 188 
f 179 177 188 
f 178 179 188 
f 172 176 189 
f 181 175 189 
f 176 181 189 
f 186 172 189 
f 186 189 190 
f 175 173 190 
f 173 186 190 
f 189 175 190 
f 174 177 191 
f 180 174 191 
f 177 185 191 
f 185 180 191 
f 175 181 192 
f 184 175 192 
o convex_5
v -0.008077 -0.085034 0.013687
v -0.008319 -0.089879 0.006421
v -0.008804 -0.089636 0.005210
v -0.010984 -0.089636 0.009811
v -0.008319 -0.085277 0.004484
v -0.010984 -0.085277 0.009328
v -0.008319 -0.089394 0.014657
v -0.008077 -0.089636 0.004484
v -0.008077 -0.084549 0.008117
v -0.008319 -0.085519 0.014657
v -0.008077 -0.089636 0.014413
v -0.010984 -0.089636 0.009086
v -0.010984 -0.085277 0.009811
v -0.008319 -0.084549 0.011991
v -0.010741 -0.085519 0.008602
v -0.008077 -0.089879 0.011749
v -0.008077 -0.085277 0.004484
v -0.008804 -0.084549 0.009086
f 206 201 210 
f 194 195 200 
f 195 197 200 
f 193 200 201 
f 196 199 202 
f 202 199 203 
f 199 196 203 
f 200 193 203 
f 193 202 203 
f 195 194 204 
f 194 196 204 
f 196 198 204 
f 198 196 205 
f 196 202 205 
f 205 202 206 
f 193 201 206 
f 202 193 206 
f 197 195 207 
f 198 197 207 
f 195 204 207 
f 204 198 207 
f 196 194 208 
f 194 200 208 
f 203 196 208 
f 200 203 208 
f 200 197 209 
f 197 201 209 
f 201 200 209 
f 197 198 210 
f 201 197 210 
f 198 205 210 
f 205 206 210 
o convex_6
v 0.008155 -0.085034 0.013687
v 0.007913 -0.089879 0.006904
v 0.007913 -0.089636 0.004240
v 0.011062 -0.089636 0.009328
v 0.008640 -0.085276 0.004967
v 0.007913 -0.089636 0.014656
v 0.011062 -0.085518 0.009569
v 0.007913 -0.084307 0.008844
v 0.008155 -0.085518 0.014899
v 0.007913 -0.085276 0.004240
v 0.009124 -0.089636 0.013201
v 0.008397 -0.089636 0.004483
v 0.010819 -0.085276 0.008844
v 0.007913 -0.085276 0.014656
v 0.008397 -0.089879 0.012475
v 0.010577 -0.085276 0.010537
v 0.008155 -0.084550 0.006663
v 0.008155 -0.084307 0.009810
v 0.010093 -0.089394 0.011506
f 217 226 229 
f 213 212 216 
f 213 216 218 
f 213 218 220 
f 219 216 221 
f 212 213 222 
f 214 212 222 
f 213 220 222 
f 220 215 222 
f 217 214 223 
f 214 222 223 
f 222 215 223 
f 218 216 224 
f 216 219 224 
f 219 211 224 
f 212 214 225 
f 216 212 225 
f 214 221 225 
f 221 216 225 
f 211 219 226 
f 217 223 226 
f 215 220 227 
f 220 218 227 
f 223 215 227 
f 223 227 228 
f 224 211 228 
f 218 224 228 
f 211 226 228 
f 226 223 228 
f 227 218 228 
f 214 217 229 
f 221 214 229 
f 219 221 229 
f 226 219 229 
o convex_7
v 0.007670 -0.084550 0.012476
v 0.005975 -0.090121 0.005935
v 0.005732 -0.085761 0.005935
v 0.005732 -0.090121 0.013203
v 0.007913 -0.089636 0.005935
v 0.007913 -0.089878 0.013203
v 0.005732 -0.084065 0.013203
v 0.007913 -0.084550 0.006421
v 0.005732 -0.084065 0.005935
v 0.007913 -0.085034 0.013203
v 0.007428 -0.084065 0.010053
v 0.007913 -0.090121 0.009086
v 0.007913 -0.084792 0.005935
f 234 238 242 
f 232 231 233 
f 231 232 234 
f 232 233 236 
f 233 235 236 
f 235 234 237 
f 234 232 238 
f 232 236 238 
f 230 236 239 
f 236 235 239 
f 235 237 239 
f 237 230 239 
f 236 230 240 
f 230 237 240 
f 238 236 240 
f 237 238 240 
f 233 231 241 
f 231 234 241 
f 234 235 241 
f 235 233 241 
f 237 234 242 
f 238 237 242 
o convex_8
v -0.003716 -0.084065 0.013445
v -0.003958 -0.088183 0.007874
v -0.004927 -0.087940 0.007632
v -0.003716 -0.084065 0.005937
v -0.005412 -0.084065 0.013445
v -0.003716 -0.087940 0.012960
v -0.005412 -0.084065 0.005937
v -0.005412 -0.087698 0.010053
v -0.003716 -0.087698 0.005937
v -0.005412 -0.085761 0.013445
v -0.005412 -0.085761 0.005937
v -0.004685 -0.087940 0.012233
f 252 250 254 
f 243 246 247 
f 246 243 248 
f 247 246 249 
f 247 249 250 
f 244 245 251 
f 248 244 251 
f 246 248 251 
f 249 246 251 
f 243 247 252 
f 248 243 252 
f 247 250 252 
f 250 249 253 
f 245 250 253 
f 251 245 253 
f 249 251 253 
f 245 244 254 
f 244 248 254 
f 250 245 254 
f 248 252 254 
o convex_9
v 0.005490 -0.087698 0.009569
v 0.003794 -0.088183 0.008359
v 0.003794 -0.087940 0.006179
v 0.003794 -0.084065 0.013203
v 0.005732 -0.084065 0.005935
v 0.003794 -0.084065 0.005935
v 0.005732 -0.084065 0.013203
v 0.003794 -0.087940 0.012717
v 0.005732 -0.085761 0.013203
v 0.005732 -0.085761 0.005935
v 0.004763 -0.087940 0.011749
v 0.004763 -0.087940 0.007148
f 255 265 266 
f 257 256 258 
f 257 258 260 
f 258 259 260 
f 259 258 261 
f 258 256 262 
f 261 258 263 
f 259 261 263 
f 258 262 263 
f 257 260 264 
f 260 259 264 
f 263 255 264 
f 259 263 264 
f 262 256 265 
f 255 263 265 
f 263 262 265 
f 256 257 266 
f 264 255 266 
f 257 264 266 
f 265 256 266 
o convex_10
v -0.001535 -0.087939 0.004482
v 0.003794 -0.084065 0.016110
v -0.003716 -0.084065 0.016110
v 0.003794 -0.090121 0.016110
v 0.003794 -0.084065 0.003755
v -0.003716 -0.090121 0.016110
v -0.003716 -0.084065 0.003755
v 0.003794 -0.087939 0.005936
v -0.003716 -0.087939 0.005936
v 0.000644 -0.087939 0.004240
v 0.000401 -0.088909 0.008358
v -0.003716 -0.090121 0.015140
v 0.003794 -0.085762 0.003755
v -0.003716 -0.085762 0.003755
v 0.003794 -0.090121 0.015140
v 0.002824 -0.087939 0.004967
v -0.000324 -0.087698 0.003998
v -0.002503 -0.087939 0.004725
f 283 267 284 
f 268 269 270 
f 269 268 271 
f 268 270 271 
f 270 269 272 
f 269 271 273 
f 272 269 273 
f 271 270 274 
f 272 273 275 
f 267 276 277 
f 270 272 278 
f 272 275 278 
f 273 271 279 
f 271 274 279 
f 275 273 280 
f 273 279 280 
f 274 270 281 
f 270 278 281 
f 278 277 281 
f 277 276 282 
f 279 274 282 
f 276 279 282 
f 274 281 282 
f 281 277 282 
f 276 267 283 
f 279 276 283 
f 280 279 283 
f 280 283 284 
f 267 277 284 
f 277 278 284 
f 278 275 284 
f 275 280 284 
o convex_11
v -0.007349 -0.084065 0.010779
v -0.006865 -0.090121 0.005937
v -0.005897 -0.090121 0.005937
v -0.006623 -0.090121 0.013445
v -0.005412 -0.084065 0.013445
v -0.005412 -0.084065 0.005937
v -0.008076 -0.085034 0.005937
v -0.008076 -0.089636 0.013445
v -0.005412 -0.090121 0.013445
v -0.008076 -0.085034 0.013445
v -0.008076 -0.089878 0.005937
v -0.008076 -0.084308 0.008843
v -0.005412 -0.085761 0.005937
v -0.007834 -0.090121 0.010053
v -0.006623 -0.084065 0.005937
f 291 296 299 
f 286 287 288 
f 287 286 290 
f 285 289 290 
f 290 286 291 
f 288 289 292 
f 288 287 293 
f 289 288 293 
f 290 289 293 
f 289 285 294 
f 292 289 294 
f 291 292 294 
f 291 286 295 
f 292 291 295 
f 294 285 296 
f 291 294 296 
f 287 290 297 
f 293 287 297 
f 290 293 297 
f 286 288 298 
f 288 292 298 
f 295 286 298 
f 292 295 298 
f 285 290 299 
f 290 291 299 
f 296 285 299 
o convex_12
v -0.003716 -0.084308 0.016110
v -0.008077 -0.089636 0.013445
v -0.007591 -0.089878 0.013445
v -0.003716 -0.084065 0.013445
v -0.003716 -0.090121 0.016110
v -0.007349 -0.085276 0.016110
v -0.007834 -0.084792 0.013445
v -0.007349 -0.089636 0.016110
v -0.005170 -0.090121 0.013445
v -0.008077 -0.085276 0.014899
v -0.003716 -0.090121 0.014899
v -0.006138 -0.084065 0.013688
v -0.008077 -0.089636 0.014899
v -0.003716 -0.085761 0.013445
v -0.003959 -0.084065 0.015868
f 311 305 314 
f 302 301 303 
f 303 300 304 
f 304 300 305 
f 303 301 306 
f 302 304 307 
f 304 305 307 
f 302 303 308 
f 304 302 308 
f 306 301 309 
f 307 305 309 
f 303 304 310 
f 304 308 310 
f 303 306 311 
f 306 309 311 
f 309 305 311 
f 301 302 312 
f 302 307 312 
f 309 301 312 
f 307 309 312 
f 308 303 313 
f 303 310 313 
f 310 308 313 
f 300 303 314 
f 305 300 314 
f 303 311 314 
o convex_13
v 0.006458 -0.084308 0.014415
v 0.003794 -0.090121 0.014899
v 0.005490 -0.090121 0.013204
v 0.007428 -0.089636 0.016110
v 0.003794 -0.084308 0.016110
v 0.003794 -0.084065 0.013204
v 0.007913 -0.085034 0.013204
v 0.007428 -0.085518 0.016110
v 0.007913 -0.089636 0.013204
v 0.003794 -0.090121 0.016110
v 0.007913 -0.085276 0.015141
v 0.003794 -0.085761 0.013204
v 0.007913 -0.089636 0.015141
v 0.006458 -0.084065 0.013204
v 0.006701 -0.090121 0.013446
v 0.004036 -0.084065 0.015868
f 328 320 330 
f 316 319 320 
f 317 320 321 
f 319 318 322 
f 317 321 323 
f 316 317 324 
f 318 319 324 
f 319 316 324 
f 315 322 325 
f 322 318 325 
f 323 321 325 
f 317 316 326 
f 316 320 326 
f 320 317 326 
f 325 318 327 
f 323 325 327 
f 321 320 328 
f 315 325 328 
f 325 321 328 
f 317 323 329 
f 324 317 329 
f 318 324 329 
f 327 318 329 
f 323 327 329 
f 320 319 330 
f 322 315 330 
f 319 322 330 
f 315 328 330 
o convex_14
v -0.004443 -0.090121 0.004724
v -0.008077 -0.089636 0.003998
v -0.007834 -0.089878 0.005451
v -0.003716 -0.084065 0.005935
v -0.003716 -0.084065 0.003755
v -0.008077 -0.085034 0.005935
v -0.007834 -0.085276 0.003755
v -0.003716 -0.090121 0.003755
v -0.005655 -0.090121 0.005935
v -0.006381 -0.084065 0.005451
v -0.008077 -0.089636 0.005935
v -0.003716 -0.085761 0.005935
v -0.007834 -0.089636 0.003755
f 337 338 343 
f 332 336 337 
f 335 334 338 
f 337 335 338 
f 334 336 339 
f 338 331 339 
f 333 338 339 
f 334 335 340 
f 336 334 340 
f 335 337 340 
f 337 336 340 
f 332 333 341 
f 336 332 341 
f 333 339 341 
f 339 336 341 
f 331 338 342 
f 338 334 342 
f 339 331 342 
f 334 339 342 
f 333 332 343 
f 332 337 343 
f 338 333 343 
o convex_15
v 0.007913 -0.084792 0.005451
v 0.003794 -0.090121 0.003755
v 0.005248 -0.090121 0.003755
v 0.005732 -0.090121 0.005935
v 0.003794 -0.084065 0.005935
v 0.003794 -0.084065 0.003755
v 0.007913 -0.089636 0.003755
v 0.007913 -0.085276 0.003755
v 0.007913 -0.089636 0.005935
v 0.006458 -0.084065 0.005935
v 0.003794 -0.085761 0.005935
v 0.007913 -0.084792 0.005935
f 353 352 355 
f 345 346 347 
f 345 348 349 
f 346 345 349 
f 346 349 350 
f 347 346 350 
f 344 350 351 
f 350 349 351 
f 348 347 352 
f 347 350 352 
f 350 344 352 
f 349 348 353 
f 344 351 353 
f 351 349 353 
f 348 352 353 
f 345 347 354 
f 347 348 354 
f 348 345 354 
f 352 344 355 
f 344 353 355 
