o convex_0
v 0.002277 0.087217 0.012904
v -0.002623 0.080674 0.011924
v -0.001643 -0.003593 0.011271
v -0.000990 -0.003593 0.013884
v 0.000970 -0.003593 0.010618
v 0.000316 0.073497 0.010290
v 0.001623 -0.003593 0.013230
v -0.000990 0.077746 0.013884
v 0.002604 0.083950 0.011271
v -0.002623 0.083629 0.013230
v -0.002296 0.086887 0.011271
v 0.000970 0.077746 0.013884
v -0.000990 -0.003593 0.010618
v 0.001950 -0.003593 0.011924
v 0.002604 0.082647 0.013230
v 0.000970 -0.003593 0.013884
v -0.001643 -0.003593 0.013230
v -0.001969 0.090163 0.012904
v 0.001950 0.090163 0.011597
v -0.002623 0.083629 0.011271
v -0.000336 0.025490 0.010290
v 0.000316 0.004905 0.010290
v -0.000336 0.073497 0.010290
v 0.001950 0.090163 0.012904
v 0.001950 0.083289 0.010944
v 0.001623 -0.003593 0.011271
v 0.001950 -0.003593 0.012577
v -0.001969 0.090163 0.011597
v 0.001950 0.082647 0.013557
v -0.001969 0.082647 0.013557
v -0.001969 0.083289 0.010944
v 0.002604 0.081995 0.011271
f 15 27 32 
f 4 3 5 
f 4 5 7 
f 8 4 12 
f 5 3 13 
f 7 5 14 
f 9 1 15 
f 7 15 16 
f 4 7 16 
f 12 4 16 
f 2 3 17 
f 3 4 17 
f 10 2 17 
f 4 10 17 
f 1 9 19 
f 3 2 20 
f 2 10 20 
f 13 3 20 
f 10 18 20 
f 5 13 22 
f 21 6 22 
f 13 21 22 
f 6 21 23 
f 15 1 24 
f 1 19 24 
f 19 18 24 
f 19 9 25 
f 11 19 25 
f 5 22 25 
f 22 6 25 
f 6 23 25 
f 14 5 26 
f 7 14 27 
f 15 7 27 
f 19 11 28 
f 18 19 28 
f 11 20 28 
f 20 18 28 
f 8 12 29 
f 16 15 29 
f 12 16 29 
f 15 24 29 
f 24 18 29 
f 4 8 30 
f 10 4 30 
f 18 10 30 
f 8 29 30 
f 29 18 30 
f 20 11 31 
f 13 20 31 
f 21 13 31 
f 23 21 31 
f 11 25 31 
f 25 23 31 
f 9 15 32 
f 5 25 32 
f 25 9 32 
f 26 5 32 
f 14 26 32 
f 27 14 32 
o convex_1
v -0.002294 -0.089824 0.008330
v 0.009463 -0.057169 0.024664
v 0.006197 -0.057169 0.024664
v -0.005563 -0.024828 0.005064
v 0.012076 -0.058474 0.000165
v -0.012095 -0.066961 0.024336
v -0.012095 -0.066961 0.000165
v 0.006523 -0.024828 0.019106
v 0.008810 -0.085910 0.021070
v -0.006868 -0.024828 0.018781
v 0.009135 -0.084280 0.002777
v -0.008829 -0.086563 0.020090
v 0.006848 -0.024828 0.005718
v 0.012404 -0.057176 0.023029
v -0.011442 -0.051618 0.000818
v -0.009483 -0.084280 0.003105
v -0.011442 -0.051618 0.023682
v 0.011422 -0.073171 0.023682
v 0.012076 -0.066967 0.000165
v -0.003602 -0.087874 0.021393
v 0.006195 -0.089505 0.012576
v 0.009789 -0.049009 0.000818
v 0.010768 -0.044103 0.003431
v 0.006523 -0.085910 0.002452
v -0.011770 -0.050640 0.002452
v 0.010117 -0.084280 0.005064
v -0.011770 -0.073823 0.022049
v 0.010768 -0.044103 0.021070
v -0.007196 -0.025160 0.006697
v -0.012095 -0.053255 0.022377
v -0.008829 -0.043125 0.022703
v -0.010788 -0.057495 -0.000163
v -0.009809 -0.073823 0.000490
v -0.010462 -0.067946 0.024664
v -0.006542 -0.087215 0.003105
v -0.012423 -0.067619 0.001472
v 0.012076 -0.071214 0.022377
v 0.009789 -0.049009 0.023682
v 0.007502 -0.084599 0.022377
v 0.010768 -0.067946 0.024664
v 0.010768 -0.067613 -0.000163
v -0.009155 -0.087215 0.007679
v -0.007850 -0.082642 0.022703
v 0.012404 -0.067619 0.001472
v -0.003930 -0.089831 0.014535
v -0.011116 -0.046067 0.021393
v -0.010462 -0.057176 0.024664
v -0.009809 -0.049009 0.000818
v -0.005563 -0.024828 0.019434
v 0.006523 -0.087867 0.004085
v 0.012076 -0.052929 0.002126
v 0.003908 -0.088852 0.019434
v 0.007176 -0.025160 0.017804
v -0.010137 -0.083947 0.004739
v 0.009789 -0.085258 0.019434
v 0.005543 -0.024828 0.005064
v -0.012423 -0.057169 0.001798
v -0.012423 -0.067619 0.023026
v -0.010137 -0.083947 0.019762
v 0.010768 -0.057495 -0.000163
v 0.008810 -0.087867 0.011273
v -0.010788 -0.067613 -0.000163
v 0.009789 -0.073823 0.000490
v -0.007196 -0.084606 0.002124
f 65 95 96 
f 40 36 42 
f 36 40 45 
f 54 45 55 
f 37 54 55 
f 43 51 58 
f 42 36 61 
f 36 47 61 
f 47 57 61 
f 38 49 62 
f 39 47 64 
f 48 39 65 
f 34 35 66 
f 39 48 68 
f 46 50 69 
f 35 34 70 
f 34 46 70 
f 60 40 70 
f 46 60 70 
f 41 50 71 
f 46 34 72 
f 50 46 72 
f 34 66 72 
f 71 50 72 
f 37 51 73 
f 67 33 74 
f 48 67 74 
f 44 52 75 
f 38 59 75 
f 66 38 75 
f 52 71 75 
f 72 66 75 
f 71 72 75 
f 51 37 76 
f 58 51 76 
f 46 69 76 
f 69 58 76 
f 52 44 77 
f 33 53 77 
f 74 33 77 
f 44 74 77 
f 49 42 78 
f 42 61 78 
f 61 57 78 
f 57 62 78 
f 62 49 78 
f 49 38 79 
f 63 49 79 
f 66 35 79 
f 38 66 79 
f 35 70 79 
f 70 63 79 
f 47 36 80 
f 36 54 80 
f 64 47 80 
f 54 64 80 
f 40 42 81 
f 42 49 81 
f 49 63 81 
f 70 40 81 
f 63 70 81 
f 53 33 82 
f 56 43 82 
f 43 58 82 
f 33 67 82 
f 67 56 82 
f 37 55 83 
f 60 46 83 
f 55 60 83 
f 76 37 83 
f 46 76 83 
f 53 41 84 
f 41 71 84 
f 71 52 84 
f 52 77 84 
f 77 53 84 
f 45 40 85 
f 55 45 85 
f 40 60 85 
f 60 55 85 
f 68 48 86 
f 59 68 86 
f 48 74 86 
f 50 41 87 
f 69 50 87 
f 58 69 87 
f 36 45 88 
f 54 36 88 
f 45 54 88 
f 47 39 89 
f 57 47 89 
f 62 57 89 
f 39 68 89 
f 89 68 90 
f 59 38 90 
f 38 62 90 
f 68 59 90 
f 62 89 90 
f 74 44 91 
f 44 75 91 
f 75 59 91 
f 59 86 91 
f 86 74 91 
f 54 37 92 
f 64 54 92 
f 37 73 92 
f 73 64 92 
f 41 53 93 
f 53 82 93 
f 82 58 93 
f 87 41 93 
f 58 87 93 
f 39 64 94 
f 65 39 94 
f 64 73 94 
f 73 65 94 
f 51 43 95 
f 43 56 95 
f 73 51 95 
f 65 73 95 
f 48 65 96 
f 67 48 96 
f 56 67 96 
f 95 56 96 
o convex_2
v 0.009137 -0.004901 0.019108
v -0.009157 -0.005884 0.005391
v -0.009157 -0.005884 0.019110
v 0.006849 -0.024828 0.005717
v -0.006542 -0.024828 0.019110
v 0.008484 -0.003922 0.004084
v -0.006542 -0.024828 0.005391
v 0.006523 -0.024828 0.019110
v -0.007522 -0.004248 0.020744
v -0.008176 -0.003922 0.004084
v 0.007502 -0.003593 0.020091
v 0.007176 -0.007516 0.020744
v 0.007176 -0.007516 0.003757
v 0.009137 -0.005882 0.005393
v -0.008176 -0.003593 0.019437
v -0.005561 -0.024828 0.005064
v -0.006868 -0.024828 0.006045
v -0.005561 -0.024828 0.019437
v 0.007502 -0.003593 0.004410
v -0.007850 -0.005884 0.003757
v 0.005543 -0.024828 0.005064
v 0.006849 -0.024828 0.018782
v -0.008176 -0.003593 0.005064
v -0.006868 -0.024828 0.018456
v 0.005543 -0.024828 0.019437
v -0.006868 -0.007516 0.020744
v 0.008484 -0.003922 0.020417
v -0.008503 -0.006535 0.020417
v -0.008829 -0.003922 0.019437
v 0.009137 -0.005882 0.019108
v -0.006868 -0.007516 0.003757
v 0.007502 -0.004248 0.003757
v 0.008484 -0.006861 0.004084
v -0.009157 -0.004901 0.005391
v -0.008829 -0.005884 0.004410
v 0.008484 -0.006535 0.020417
v 0.008809 -0.003922 0.005064
v 0.007502 -0.004248 0.020744
v -0.008829 -0.003922 0.005064
v -0.007522 -0.004248 0.003757
v 0.008156 -0.003593 0.019437
v -0.007522 -0.003593 0.020091
v 0.008809 -0.003922 0.019437
f 133 137 139 
f 100 101 103 
f 101 100 104 
f 100 103 112 
f 99 98 113 
f 103 101 113 
f 101 104 114 
f 111 107 115 
f 112 103 116 
f 100 112 117 
f 112 109 117 
f 104 100 118 
f 100 110 118 
f 115 106 119 
f 111 115 119 
f 99 113 120 
f 113 101 120 
f 114 104 121 
f 108 114 121 
f 108 105 122 
f 114 108 122 
f 101 114 124 
f 99 120 124 
f 120 101 124 
f 122 105 124 
f 114 122 124 
f 111 119 125 
f 99 124 125 
f 124 105 125 
f 110 97 126 
f 118 110 126 
f 97 123 126 
f 109 112 127 
f 116 109 127 
f 112 116 127 
f 115 102 128 
f 109 116 128 
f 110 100 129 
f 102 110 129 
f 100 117 129 
f 117 109 129 
f 128 102 129 
f 109 128 129 
f 98 99 130 
f 99 125 130 
f 113 98 131 
f 103 113 131 
f 116 103 131 
f 106 116 131 
f 98 130 131 
f 104 118 132 
f 121 104 132 
f 108 121 132 
f 118 126 132 
f 126 123 132 
f 97 110 133 
f 110 102 133 
f 102 115 133 
f 107 105 134 
f 105 108 134 
f 123 107 134 
f 108 132 134 
f 132 123 134 
f 119 106 135 
f 125 119 135 
f 130 125 135 
f 106 131 135 
f 131 130 135 
f 106 115 136 
f 116 106 136 
f 115 128 136 
f 128 116 136 
f 115 107 137 
f 107 123 137 
f 133 115 137 
f 105 107 138 
f 107 111 138 
f 125 105 138 
f 111 125 138 
f 123 97 139 
f 97 133 139 
f 137 123 139 
