# https://github.com/mikedh/trimesh
mtllib material0.mtl
usemtl material0
v 0.00300120 -0.02551239 0.01448662
v 0.00088433 -0.01855602 0.01412929
v -0.00150206 -0.08911400 0.00393409
v -0.00502191 -0.08669422 0.01365064
v -0.00502191 -0.08669422 0.01365064
v -0.00175264 -0.09000000 0.00889707
v -0.00392924 -0.01855588 0.00467235
v -0.00537594 -0.01159530 0.01253058
v 0.00705136 -0.08669422 0.00750790
v 0.00705136 -0.08669422 0.00750790
v 0.00523316 -0.01480718 0.00596243
v -0.00464021 -0.02551300 0.00396150
v 0.00092606 -0.02230745 0.00287402
v 0.00758115 -0.08592204 0.00956095
v 0.00634862 -0.01159505 0.00656383
v 0.00250096 -0.08275992 0.01721363
v 0.00106884 -0.09000000 0.01006768
v -0.00858308 -0.08275983 0.00619992
v -0.00109319 -0.08669422 0.00158328
v -0.00109319 -0.08669422 0.00158328
v 0.00651762 -0.02551266 0.00759112
v -0.00664594 -0.01159498 0.00861545
v -0.00664594 -0.01159498 0.00861545
v 0.00759082 -0.00036381 0.00958581
v 0.00759082 -0.00036381 0.00958581
v 0.00759082 -0.02738370 0.00958581
v 0.00759082 -0.00997248 0.00958581
v -0.00656342 -0.01159491 0.00757366
v 0.00488048 -0.08911400 0.00785045
v 0.00400197 -0.08911400 0.00572598
v 0.00738925 -0.00036381 0.00862185
v 0.00738925 -0.00036381 0.00862185
v 0.00738925 -0.02692423 0.00862185
v 0.00738925 -0.01043557 0.00862185
v 0.00738925 -0.08623505 0.00862185
v -0.00701651 -0.08669422 0.00749970
v -0.00701651 -0.08669422 0.00749970
v -0.00168720 -0.09000000 0.00917042
v 0.00392569 -0.01159557 0.01400844
v -0.00602343 -0.00036381 0.01329713
v -0.00602343 -0.00036381 0.01329713
v -0.00602343 -0.02738370 0.01329713
v -0.00602343 -0.00997248 0.01329713
v 0.00758249 -0.08591977 0.00767963
v -0.00287509 -0.08911400 0.00463267
v -0.00179844 -0.01480727 0.01418771
v 0.00472115 -0.02230745 0.00520156
v -0.00449807 -0.01855588 0.00533778
v -0.00771343 -0.00036381 0.01301233
v -0.00771343 -0.00036381 0.01301233
v -0.00771343 -0.02882643 0.01301233
v -0.00771343 -0.00796998 0.01301233
v 0.00029803 -0.09000000 0.00684876
v 0.00343128 -0.02230754 0.01332609
v 0.00469878 -0.08911400 0.01014216
v 0.00575887 -0.02230752 0.00953097
v -0.00090496 -0.01480727 0.01440262
v 0.00578073 -0.08669422 0.00443522
v 0.00578073 -0.08669422 0.00443522
v -0.00321268 -0.08669422 0.00227055
v -0.00321268 -0.08669422 0.00227055
v 0.00412861 -0.02230745 0.00450729
v 0.00577583 -0.08669422 0.01280721
v 0.00577583 -0.08669422 0.01280721
v 0.00785045 -0.08275992 0.01293742
v 0.00001965 -0.08911400 0.00369395
v 0.00000945 -0.00036384 0.00861850
v -0.00430150 -0.08275997 0.01645611
v 0.00284456 0.08168692 0.00862185
v 0.00284456 0.08168692 0.00862185
v 0.00284456 0.08168692 0.00862185
v 0.00284456 0.08168692 0.00862185
v -0.00092401 -0.08592209 0.01618791
v -0.00322008 -0.08669422 0.01496138
v -0.00322008 -0.08669422 0.01496138
v -0.00170782 -0.01855586 0.00331232
v 0.00412558 -0.02230756 0.01273354
v 0.00345832 -0.01480714 0.00388244
v 0.00222142 -0.08669422 0.00184609
v 0.00222142 -0.08669422 0.00184609
v 0.00552367 -0.01855595 0.00949382
v 0.00780954 -0.08275992 0.00425629
v 0.00452862 -0.01855588 0.00534156
v -0.00243825 -0.00036381 0.00003510
v -0.00243825 -0.00036381 0.00003510
v -0.00243825 -0.02882637 0.00003510
v -0.00243825 -0.00796998 0.00003510
v -0.00389805 -0.01159464 0.00322895
v 0.00254870 -0.01855586 0.00364913
v 0.00095725 -0.08591977 0.01618927
v 0.00180807 -0.09000000 0.00861891
v 0.00659834 -0.02551262 0.00862119
v 0.00329119 -0.01855600 0.01313353
v -0.00266022 0.07490495 0.00862185
v 0.00001172 -0.02551239 0.01520325
v 0.00659105 -0.01159530 0.00966373
v 0.00420612 -0.08669422 0.00285879
v 0.00420612 -0.08669422 0.00285879
v 0.00001505 -0.00036381 0.01599605
v 0.00001505 -0.00036381 0.01599605
v 0.00001505 -0.00036381 0.00124762
v 0.00001505 -0.00036381 0.00124762
v 0.00001505 0.09000000 0.00808396
v 0.00001505 0.09000000 0.00808396
v 0.00001505 0.09000000 0.00915974
v 0.00001505 0.09000000 0.00915974
v 0.00001505 0.06759252 0.01081454
v 0.00001505 0.06759252 0.00642913
v 0.00001505 0.08168692 0.01010294
v 0.00001505 0.08168692 0.01010294
v 0.00001505 0.08168692 0.00714074
v 0.00001505 0.08168692 0.00714074
v 0.00001505 -0.02692423 0.01599605
v 0.00001505 -0.02692423 0.00124762
v 0.00001505 -0.01043557 0.01599605
v 0.00001505 -0.01043557 0.00124762
v 0.00001505 -0.08623505 0.01599605
v 0.00001505 -0.08623505 0.00124762
v 0.00001505 -0.00052903 0.01081454
v 0.00001505 -0.00052903 0.01081454
v 0.00001505 -0.00052903 0.00642913
v 0.00001505 -0.00052903 0.00642913
v 0.00001505 0.07490495 0.00609111
v 0.00001505 0.07490495 0.01115256
v -0.00632098 -0.01159514 0.01067359
v 0.00173564 -0.01855602 0.01392531
v 0.00388601 -0.02551289 0.00329342
v 0.00523073 -0.01480725 0.01127988
v 0.00627677 -0.02551271 0.00658641
v -0.00599901 -0.08592209 0.01330786
v -0.00177454 -0.09000000 0.00861682
v 0.00440269 -0.08911400 0.01085581
v 0.00540357 -0.01159489 0.00470681
v 0.00180942 -0.02230759 0.01415169
v -0.00237770 -0.08275997 0.01719703
v 0.00678855 -0.08669422 0.01082249
v 0.00678855 -0.08669422 0.01082249
v -0.00466700 -0.08911400 0.01013670
v -0.00124913 -0.09000000 0.00735048
v 0.00269031 0.07490495 0.00862185
v 0.00269031 0.07490495 0.00862185
v 0.00329492 -0.01855588 0.00410685
v -0.00053577 -0.09000000 0.00691389
v 0.00325361 -0.08669422 0.00227432
v 0.00325361 -0.08669422 0.00227432
v -0.00218789 -0.08669422 0.01538962
v -0.00218789 -0.08669422 0.01538962
v 0.00001056 -0.01159560 0.01527844
v -0.00150752 -0.08911400 0.01329987
v -0.00551887 -0.02230752 0.01041431
v -0.00624878 -0.02551271 0.01065142
v -0.00385801 -0.02551250 0.01394440
v 0.00531896 -0.01855597 0.01034497
v -0.00574230 -0.08669422 0.00442850
v -0.00574230 -0.08669422 0.00442850
v -0.00576998 -0.01480718 0.00769995
v -0.00591858 -0.01159478 0.00559235
v -0.00251674 -0.01855586 0.00364701
v 0.00001628 -0.02551300 0.00203460
v -0.00281447 0.08168692 0.00862185
v -0.00281447 0.08168692 0.00862185
v 0.00393095 -0.01159478 0.00323276
v 0.00093266 -0.01480714 0.00283493
v -0.00657034 -0.02551280 0.00861664
v -0.00657034 -0.02551280 0.00861664
v 0.00324621 -0.08669422 0.01496516
v 0.00324621 -0.08669422 0.01496516
v 0.00146536 -0.09000000 0.00967161
v 0.00438061 -0.08275992 0.01641632
v -0.00092540 -0.08592102 0.00105516
v 0.00267021 -0.01480730 0.01383810
v -0.00026449 -0.09000000 0.01038692
v 0.00182615 -0.01480714 0.00304985
v -0.00484695 -0.08911400 0.00938528
v 0.00267499 -0.01480714 0.00340194
v 0.00172073 -0.09000000 0.00806532
v 0.00243898 -0.08275988 0.00002345
v -0.00085652 -0.01855586 0.00310835
v 0.00579857 -0.01480718 0.00770528
v 0.00001179 -0.02230759 0.01443572
v -0.00778987 -0.00036381 0.00424086
v -0.00778987 -0.00036381 0.00424086
v -0.00778987 -0.02882643 0.00424086
v -0.00778987 -0.00796998 0.00424086
v -0.00346290 -0.08911400 0.00513412
v -0.00469304 -0.01159466 0.00390723
v 0.00713839 -0.08669422 0.00862201
v 0.00713839 -0.08669422 0.00862201
v -0.00777728 -0.08275983 0.01298907
v -0.00735916 -0.00036381 0.00862185
v -0.00735916 -0.00036381 0.00862185
v -0.00735916 -0.00036381 0.00862185
v -0.00735916 -0.02692423 0.00862185
v -0.00735916 -0.02692423 0.00862185
v -0.00735916 -0.01043557 0.00862185
v -0.00735916 -0.01043557 0.00862185
v -0.00735916 -0.08623505 0.00862185
v -0.00735916 -0.08623505 0.00862185
v -0.00756073 -0.00036381 0.00765791
v -0.00756073 -0.00036381 0.00765791
v -0.00756073 -0.02738370 0.00765791
v -0.00756073 -0.00997248 0.00765791
v 0.00112672 -0.08669422 0.01565243
v 0.00112672 -0.08669422 0.01565243
v 0.00105242 -0.01159560 0.01519697
v -0.00632674 -0.08669422 0.00538099
v -0.00632674 -0.08669422 0.00538099
v -0.00143304 -0.09000000 0.00966993
v -0.00168654 -0.09000000 0.00806334
v -0.00287973 -0.08911400 0.01259965
v 0.00113494 -0.08669422 0.00158455
v 0.00113494 -0.08669422 0.00158455
v -0.00520546 -0.01480725 0.01127508
v -0.00436920 -0.00036381 0.00085383
v -0.00436920 -0.00036381 0.00085383
v -0.00436920 -0.00796998 0.00085383
v -0.00436920 -0.02882646 0.00085383
v -0.00110139 -0.08669422 0.01565116
v -0.00110139 -0.08669422 0.01565116
v 0.00178617 -0.09000000 0.00833867
v 0.00505544 -0.08669422 0.00358505
v 0.00505544 -0.08669422 0.00358505
v -0.00675757 -0.08669422 0.01081461
v -0.00675757 -0.08669422 0.01081461
v -0.00157977 -0.09000000 0.00943018
v 0.00291329 -0.08911400 0.00463604
v 0.00172009 -0.09000000 0.00917240
v 0.00146659 -0.09000000 0.00756581
v 0.00636030 -0.08669422 0.01185472
v 0.00636030 -0.08669422 0.01185472
v 0.00240774 -0.00036381 0.00002891
v 0.00240774 -0.00036381 0.00002891
v 0.00240774 -0.00796998 0.00002891
v 0.00240774 -0.02882646 0.00002891
v 0.00475334 -0.01480714 0.00517864
v -0.00465965 -0.00036381 0.01466149
v -0.00465965 -0.00036381 0.01466149
v -0.00465965 -0.02738370 0.01466149
v -0.00465965 -0.00997248 0.01466149
v 0.00001115 -0.01480730 0.01447517
v 0.00001261 -0.08669422 0.01573948
v 0.00001261 -0.08669422 0.01573948
v 0.00860683 -0.08275992 0.00613591
v -0.00262489 -0.02230745 0.00343504
v 0.00575953 -0.02230750 0.00771104
v -0.00410072 -0.02230754 0.01273047
v 0.00602906 -0.08592209 0.00393582
v 0.00858445 -0.00036381 0.01098218
v 0.00858445 -0.00036381 0.01098218
v 0.00858445 -0.02882648 0.01098218
v 0.00858445 -0.00796998 0.01098218
v 0.00587026 -0.01480718 0.00862144
v -0.00346697 -0.08911400 0.01209754
v -0.00710484 -0.08669422 0.00861372
v -0.00710484 -0.08669422 0.00861372
v -0.00710484 -0.08669422 0.00861372
v -0.00556490 -0.01855593 0.00861648
v -0.00556490 -0.01855593 0.00861648
v 0.00182103 -0.01480730 0.01418937
v -0.00577085 -0.01480723 0.00953223
v -0.00086112 -0.01855600 0.01412859
v 0.00349645 -0.08911400 0.01210157
v -0.00094853 -0.00036381 0.01619751
v -0.00094853 -0.00036381 0.01619751
v -0.00094853 -0.02738370 0.01619751
v -0.00094853 -0.00997248 0.01619751
v 0.00782488 -0.00036381 0.01295659
v 0.00782488 -0.00036381 0.01295659
v 0.00782488 -0.02882648 0.01295659
v 0.00782488 -0.00796998 0.01295659
v 0.00206870 -0.01159560 0.01495351
v -0.00495790 -0.01855597 0.01114947
v -0.00469764 -0.01159537 0.01332552
v -0.00094905 -0.00036381 0.00104603
v -0.00094905 -0.00036381 0.00104603
v -0.00094905 -0.00997248 0.00104603
v -0.00094905 -0.02738368 0.00104603
v -0.00469327 -0.02230754 0.01203615
v 0.00254458 -0.01855602 0.01359063
v 0.00759126 -0.00036381 0.00765666
v 0.00759126 -0.00036381 0.00765666
v 0.00759126 -0.02738370 0.00765666
v 0.00759126 -0.00997248 0.00765666
v 0.00156555 0.06759252 0.01017233
v 0.00156555 0.06759252 0.00707135
v 0.00156555 -0.00052903 0.01017233
v 0.00156555 -0.00052903 0.01017233
v 0.00156555 -0.00052903 0.00707135
v 0.00156555 -0.00052903 0.00707135
v -0.00648962 -0.02551278 0.00964668
v -0.00143181 -0.09000000 0.00756412
v -0.00301254 -0.01159548 0.01455109
v 0.00494064 -0.08911400 0.00862073
v -0.00529258 -0.01855595 0.01034055
v -0.00529112 -0.01855590 0.00689265
v 0.00437683 -0.08275981 0.00079048
v -0.00175232 -0.09000000 0.00833662
v -0.00178146 -0.02230745 0.00308606
v 0.00415684 -0.01480714 0.00447956
v -0.00297320 -0.02551303 0.00275118
v 0.00435206 -0.00036381 0.00081536
v 0.00435206 -0.00036381 0.00081536
v 0.00435206 -0.02882637 0.00081536
v 0.00435206 -0.00796998 0.00081536
v 0.00583081 -0.02230750 0.00862105
v 0.00466821 -0.02551243 0.01327633
v -0.00656444 -0.01159507 0.00965731
v -0.00624736 -0.02551289 0.00658206
v -0.00075633 -0.08911400 0.01348066
v -0.00860170 -0.00036381 0.01104293
v -0.00860170 -0.00036381 0.01104293
v -0.00860170 -0.02882643 0.01104293
v -0.00860170 -0.00796998 0.01104293
v 0.00605319 -0.00036381 0.00394641
v 0.00605319 -0.00036381 0.00394641
v 0.00605319 -0.02738370 0.00394641
v 0.00605319 -0.00997248 0.00394641
v -0.00573162 -0.02230752 0.00952667
v -0.00592154 -0.01159523 0.01163924
v 0.00603227 -0.08591977 0.01330660
v 0.00001623 -0.01855586 0.00304001
v 0.00104625 -0.02551300 0.00211600
v 0.00057131 -0.09000000 0.00691453
v -0.00602259 -0.00036381 0.00394613
v -0.00602259 -0.00036381 0.00394613
v -0.00602259 -0.02738370 0.00394613
v -0.00602259 -0.00997248 0.00394613
v -0.00466040 -0.00036381 0.00258371
v -0.00466040 -0.00036381 0.00258371
v -0.00466040 -0.02738370 0.00258371
v -0.00466040 -0.00997248 0.00258371
v 0.00029595 -0.09000000 0.01038729
v 0.00470108 -0.08592209 0.01463584
v 0.00056933 -0.09000000 0.01032179
v -0.00412915 -0.01480727 0.01275795
v 0.00154107 -0.08911400 0.00393584
v 0.00303439 -0.01159560 0.01455405
v 0.00300525 -0.02551291 0.00275328
v 0.00181351 -0.02230743 0.00308741
v -0.00633052 -0.08669422 0.01184730
v -0.00633052 -0.08669422 0.01184730
v -0.00464344 -0.02551257 0.01327314
v -0.00204725 -0.01159555 0.01495148
v 0.00190675 0.07490495 0.01041135
v 0.00190675 0.07490495 0.00683235
v 0.00105884 -0.01159464 0.00204145
v 0.00470055 -0.08911400 0.00709903
v -0.00675500 -0.08669422 0.00641320
v -0.00675500 -0.08669422 0.00641320
v -0.00396505 -0.08911400 0.00572136
v 0.00146625 0.09000000 0.00862185
v 0.00146625 0.09000000 0.00862185
v 0.00146625 0.09000000 0.00862185
v -0.00409763 -0.02230745 0.00450419
v -0.00412531 -0.01480714 0.00447576
v 0.00419938 -0.08669422 0.01438181
v 0.00419938 -0.08669422 0.01438181
v 0.00522941 -0.00036381 0.00340747
v 0.00522941 -0.00036381 0.00340747
v 0.00522941 -0.00036381 0.01383621
v 0.00522941 -0.00036381 0.01383621
v 0.00522941 -0.02692423 0.00340747
v 0.00522941 -0.02692423 0.01383621
v 0.00522941 -0.01043557 0.00340747
v 0.00522941 -0.01043557 0.01383621
v 0.00522941 -0.08623505 0.00340747
v 0.00522941 -0.08623505 0.01383621
v 0.00247005 -0.00036381 0.01720894
v 0.00247005 -0.00036381 0.01720894
v 0.00247005 -0.02882648 0.01720894
v 0.00247005 -0.00796998 0.01720894
v -0.00385433 -0.02551300 0.00329074
v 0.00128268 -0.09000000 0.00988525
v -0.00648891 -0.02551284 0.00758666
v -0.00436913 -0.08911400 0.00637992
v -0.00138396 0.09000000 0.00908662
v -0.00138396 0.09000000 0.00908662
v -0.00138396 0.09000000 0.00908662
v -0.00138396 0.09000000 0.00815708
v -0.00138396 0.09000000 0.00815708
v -0.00138396 0.09000000 0.00815708
v -0.00326335 -0.01855586 0.00410411
v -0.00585371 -0.02551266 0.01160611
v -0.00555504 -0.01480718 0.00680647
v 0.00104177 -0.02551239 0.01512253
v 0.00204650 -0.02551239 0.01488169
v -0.00631898 -0.01159485 0.00655764
v 0.00097860 -0.00036381 0.00104621
v 0.00097860 -0.00036381 0.00104621
v 0.00097860 -0.02738370 0.00104621
v 0.00097860 -0.00997248 0.00104621
v -0.00549583 -0.01855593 0.00774380
v 0.00092178 -0.02230759 0.01436445
v -0.00860683 -0.08275983 0.01107544
v -0.00472566 -0.01480725 0.01205887
v 0.00221352 -0.08669422 0.01539222
v 0.00221352 -0.08669422 0.01539222
v -0.00237715 -0.00036381 0.01721465
v -0.00237715 -0.00036381 0.01721465
v -0.00237715 -0.00796998 0.01721465
v -0.00237715 -0.02882650 0.01721465
v 0.00083093 -0.09000000 0.00702227
v -0.00573092 -0.02230750 0.00770676
v 0.00539975 -0.01159548 0.01253584
v 0.00558279 -0.01480725 0.01043104
v -0.00417257 -0.08669422 0.01437692
v -0.00417257 -0.08669422 0.01437692
v 0.00504957 -0.08669422 0.01365651
v 0.00504957 -0.08669422 0.01365651
v -0.00340333 -0.02230745 0.00391169
v 0.00533949 -0.02551246 0.01249093
v 0.00225472 -0.08911400 0.00423193
v 0.00415306 -0.01480727 0.01276175
v -0.00262878 -0.02230756 0.01380074
v 0.00274278 0.08168692 0.00734208
v 0.00274278 0.08168692 0.00734208
v 0.00274278 0.08168692 0.00734208
v 0.00274278 0.08168692 0.00990162
v 0.00274278 0.08168692 0.00990162
v 0.00274278 0.08168692 0.00990162
v -0.00537211 -0.01159473 0.00470158
v -0.00599858 -0.08592241 0.00393566
v -0.00217767 0.06759252 0.00862185
v -0.00217767 -0.00052903 0.00862185
v -0.00217767 -0.00052903 0.00862185
v -0.00342623 -0.01480714 0.00387927
v 0.00634661 -0.01159537 0.01067976
v 0.00078420 -0.08911400 0.01348157
v 0.00554678 -0.02230750 0.00682343
v -0.00437175 -0.08911400 0.01085069
v 0.00552440 -0.01855593 0.00774840
v -0.00221607 -0.08911400 0.00422936
v -0.00555673 -0.01480723 0.01042592
v -0.00264731 -0.01480730 0.01383564
v 0.00605471 -0.00036381 0.01329654
v 0.00605471 -0.00036381 0.01329654
v 0.00605471 -0.02738370 0.01329654
v 0.00605471 -0.00997248 0.01329654
v -0.00435094 -0.08275988 0.00082790
v 0.00452591 -0.01855597 0.01189981
v -0.00432035 -0.00036381 0.01643073
v -0.00432035 -0.00036381 0.01643073
v -0.00432035 -0.00796998 0.01643073
v -0.00432035 -0.02882650 0.01643073
v -0.00202283 -0.02551243 0.01488025
v -0.00472245 -0.01480714 0.00517429
v -0.00340688 -0.02230754 0.01332354
v 0.00778352 -0.00036381 0.00423790
v 0.00778352 -0.00036381 0.00423790
v 0.00778352 -0.02882648 0.00423790
v 0.00778352 -0.00796998 0.00423790
v 0.00001391 -0.08911400 0.01354173
v 0.00207489 -0.01159466 0.00228591
v -0.00300675 -0.01159462 0.00268335
v -0.00549659 -0.01855595 0.00948922
v -0.00574717 -0.08669422 0.01280049
v -0.00574717 -0.08669422 0.01280049
v -0.00103121 -0.01159557 0.01519594
v -0.00781648 -0.08275983 0.00426021
v 0.00534218 -0.02551280 0.00475057
v -0.00551751 -0.02230750 0.00681929
v -0.00466522 -0.08911400 0.00709357
v 0.00471863 -0.02230752 0.01203968
v 0.00098024 -0.00036381 0.01619806
v 0.00098024 -0.00036381 0.01619806
v 0.00098024 -0.02738370 0.01619806
v 0.00098024 -0.00997248 0.01619806
v -0.00326713 -0.01855597 0.01313078
v -0.00089385 -0.02230745 0.00287334
v -0.00585166 -0.02551291 0.00562766
v 0.00594918 -0.01159498 0.00559814
v 0.00290864 -0.08911400 0.01260304
v 0.00395708 -0.01855602 0.01256527
v 0.00558443 -0.01480718 0.00681159
v 0.00705007 -0.08669422 0.00973603
v 0.00705007 -0.08669422 0.00973603
v 0.00224960 -0.08911400 0.01300637
v -0.00179328 -0.01480714 0.00304819
v -0.00396842 -0.08911400 0.01150973
v 0.00587966 -0.02551250 0.01161017
v 0.00440528 -0.08911400 0.00638504
v -0.00584251 -0.01480720 0.00861604
v -0.00584251 -0.01480720 0.00861604
v -0.00075066 -0.08911400 0.00375414
v 0.00304017 -0.01159471 0.00268631
v 0.00659208 -0.01159514 0.00758010
v -0.00466971 -0.08591977 0.01463907
v 0.00470051 -0.08592102 0.00260636
v -0.00222119 -0.08911400 0.01300378
v 0.00519585 -0.02230752 0.01126160
v -0.00103528 -0.09000000 0.00716805
v 0.00472527 -0.01159485 0.00391183
v -0.00531418 -0.02551262 0.01248726
v -0.00495578 -0.01855588 0.00608401
v 0.00220776 0.06759252 0.00862185
v 0.00220776 0.06759252 0.00862185
v 0.00220776 -0.00052903 0.00862185
v 0.00220776 -0.00052903 0.00862185
v 0.00220776 -0.00052903 0.00862185
v -0.00271269 0.08168692 0.00734208
v -0.00271269 0.08168692 0.00734208
v -0.00271269 0.08168692 0.00734208
v -0.00271269 0.08168692 0.00990162
v -0.00271269 0.08168692 0.00990162
v -0.00271269 0.08168692 0.00990162
v -0.00204106 -0.01159460 0.00228391
v -0.00701781 -0.08669422 0.00972784
v -0.00701781 -0.08669422 0.00972784
v -0.00501604 -0.08669422 0.00357915
v -0.00501604 -0.08669422 0.00357915
v -0.00755103 -0.08592209 0.00768277
v 0.00153561 -0.08911400 0.01330162
v -0.00252090 -0.01855602 0.01358851
v -0.00450082 -0.01855597 0.01189606
v 0.00667355 -0.01159519 0.00862196
v 0.00205083 -0.02551298 0.00235755
v -0.00079740 -0.09000000 0.01021346
v -0.00217999 -0.08669422 0.00184352
v -0.00217999 -0.08669422 0.00184352
v 0.00487959 -0.08911400 0.00939098
v -0.00157882 -0.09000000 0.00780369
v -0.00580287 -0.02230750 0.00861671
v -0.00580287 -0.02230750 0.00861671
v -0.00079553 -0.09000000 0.00702132
v 0.00001159 -0.01855602 0.01419763
v 0.00399858 -0.08911400 0.01151437
v -0.00125061 -0.09000000 0.00988377
v -0.00756041 -0.00036381 0.00958488
v -0.00756041 -0.00036381 0.00958488
v -0.00756041 -0.02738370 0.00958488
v -0.00756041 -0.00997248 0.00958488
v 0.00343476 -0.02230745 0.00391424
v -0.00102479 -0.01159460 0.00204042
v -0.00416585 -0.08669422 0.00285392
v -0.00416585 -0.08669422 0.00285392
v 0.00141405 0.09000000 0.00908662
v 0.00141405 0.09000000 0.00908662
v 0.00141405 0.09000000 0.00908662
v 0.00141405 0.09000000 0.00815708
v 0.00141405 0.09000000 0.00815708
v 0.00141405 0.09000000 0.00815708
v -0.00343064 -0.01480727 0.01335509
v 0.00001782 -0.09000000 0.00682657
v 0.00472068 -0.01159555 0.01333012
v -0.00519931 -0.00036381 0.00340747
v -0.00519931 -0.00036381 0.00340747
v -0.00519931 -0.00036381 0.01383621
v -0.00519931 -0.00036381 0.01383621
v -0.00519931 -0.02692423 0.00340747
v -0.00519931 -0.02692423 0.01383621
v -0.00519931 -0.01043557 0.00340747
v -0.00519931 -0.01043557 0.01383621
v -0.00519931 -0.08623505 0.00340747
v -0.00519931 -0.08623505 0.01383621
v -0.00103697 -0.09000000 0.01006645
v 0.00636405 -0.08669422 0.00538841
v 0.00636405 -0.08669422 0.00538841
v -0.00143616 0.09000000 0.00862185
v -0.00143616 0.09000000 0.00862185
v -0.00264246 -0.01480714 0.00339948
v -0.00531149 -0.02551294 0.00474690
v -0.00187666 0.07490495 0.01041135
v -0.00187666 0.07490495 0.00683235
v -0.00026242 -0.09000000 0.00684845
v 0.00532039 -0.01855590 0.00689707
v 0.00265282 -0.02230759 0.01380274
v -0.00467098 -0.08592209 0.00260784
v 0.00095408 -0.08592209 0.00105577
v -0.00053778 -0.09000000 0.01032116
v 0.00265667 -0.02230743 0.00343702
v 0.00001678 -0.08999982 0.00861787
v 0.00092734 -0.01480730 0.01440349
v 0.00469049 -0.00036381 0.01465997
v 0.00469049 -0.00036381 0.01465997
v 0.00469049 -0.02738370 0.01465997
v 0.00469049 -0.00997248 0.01465997
v 0.00475022 -0.01480725 0.01206326
v 0.00579773 -0.01480723 0.00953755
v -0.00201850 -0.02551303 0.00235612
v -0.00089961 -0.01480714 0.00283407
v -0.00089815 -0.02230756 0.01436379
v -0.00101377 -0.02551303 0.00211527
v 0.00498572 -0.01855590 0.00608813
v 0.00588171 -0.02551278 0.00563171
v 0.00088893 -0.01855586 0.00310906
v 0.00859007 -0.08275992 0.01101323
v 0.00651691 -0.02551257 0.00965117
v -0.00755085 -0.08592241 0.00956050
v 0.00078986 -0.08911400 0.00375505
v 0.00001573 -0.09000000 0.01040916
v -0.00490711 -0.08911400 0.00861500
v 0.00388232 -0.02551239 0.01394709
v -0.00390331 -0.01159544 0.01400464
v 0.00345400 -0.01480727 0.01335828
v -0.00516790 -0.02230747 0.00597615
v 0.00178586 -0.09000000 0.00889911
v 0.00107052 -0.09000000 0.00716928
v 0.00559272 -0.01855593 0.00862114
v 0.00128416 -0.09000000 0.00735196
v 0.00467144 -0.02551287 0.00396469
v -0.00297725 -0.02551250 0.01448457
v -0.00516988 -0.02230754 0.01125773
v 0.00594622 -0.01159541 0.01164506
v 0.00860214 -0.00036381 0.00616685
v 0.00860214 -0.00036381 0.00616685
v 0.00860214 -0.02882648 0.00616685
v 0.00860214 -0.00796998 0.00616685
v 0.00439900 -0.00036381 0.01639030
v 0.00439900 -0.00036381 0.01639030
v 0.00439900 -0.02882648 0.01639030
v 0.00439900 -0.00796998 0.01639030
v -0.00153545 0.06759252 0.01017233
v -0.00153545 0.06759252 0.00707135
v -0.00153545 -0.00052903 0.01017233
v -0.00153545 -0.00052903 0.01017233
v -0.00153545 -0.00052903 0.00707135
v -0.00153545 -0.00052903 0.00707135
v 0.00001614 -0.02230745 0.00280206
v 0.00082909 -0.09000000 0.01021439
v -0.00101825 -0.02551243 0.01512180
v 0.00498362 -0.01855597 0.01115359
v 0.00161237 -0.09000000 0.00943204
v 0.00001707 -0.01159462 0.00195895
v -0.00484604 -0.08911400 0.00784476
v -0.00171226 -0.01855600 0.01392387
v -0.00520298 -0.01480716 0.00595762
v -0.00393257 -0.01855597 0.01256200
v 0.00519779 -0.02230750 0.00598002
v 0.00350051 -0.08911400 0.00513817
v 0.00001655 -0.01480714 0.00276238
v 0.00161330 -0.09000000 0.00780556
v 0.00679110 -0.08669422 0.00642112
v 0.00679110 -0.08669422 0.00642112
v -0.00178563 -0.02230756 0.01415037
v 0.00469026 -0.00036381 0.00258321
v 0.00469026 -0.00036381 0.00258321
v 0.00469026 -0.00997248 0.00258321
v 0.00469026 -0.02738368 0.00258321
v 0.00002092 -0.08669422 0.00149623
v 0.00002092 -0.08669422 0.00149623
v 0.00396036 -0.01855588 0.00467565
v -0.00243832 -0.08275981 0.00000000
v -0.00469067 -0.02230745 0.00519804
v -0.00855435 -0.00036381 0.00626150
v -0.00855435 -0.00036381 0.00626150
v -0.00855435 -0.02882643 0.00626150
v -0.00855435 -0.00796998 0.00626150
v 0.00174005 -0.01855586 0.00331377
v 0.00627536 -0.02551253 0.01065572
v 0.00554546 -0.02230752 0.01041845
vt 0.33448200 0.70196200
vt 0.36172600 0.78086900
vt 0.79666500 0.21321600
vt 0.84600200 0.30864500
vt 0.43118500 0.00976600
vt 0.80169400 0.25867400
vt 0.07003900 0.78086900
vt 0.44045200 0.85994400
vt 0.24138200 0.00976600
vt 0.70772500 0.25132700
vt 0.21413900 0.82291100
vt 0.07003900 0.70196200
vt 0.13952100 0.73882500
vt 0.25992300 0.03464500
vt 0.22687100 0.85994400
vt 0.34721500 0.03464500
vt 0.77787400 0.27110300
vt 0.03335100 0.03464500
vt 0.12098600 0.00976600
vt 0.79246200 0.17835600
vt 0.24138200 0.70196200
vt 0.49145900 0.85994400
vt 0.00976600 0.85994400
vt 0.25992300 0.99023400
vt 0.65502500 0.22743700
vt 0.25992300 0.67049500
vt 0.25992300 0.89068900
vt 0.01903300 0.85994400
vt 0.74081000 0.25393600
vt 0.74730900 0.23375900
vt 0.25065600 0.99023400
vt 0.66029100 0.21932000
vt 0.25065600 0.67049500
vt 0.25065600 0.89068900
vt 0.25065600 0.03464500
vt 0.86237500 0.23937800
vt 0.01903300 0.00976600
vt 0.80132500 0.26113200
vt 0.32008000 0.85994400
vt 0.44045200 0.99023400
vt 0.53441700 0.15909300
vt 0.44045200 0.67049500
vt 0.44045200 0.89068900
vt 0.24138200 0.03464500
vt 0.80978300 0.21876100
vt 0.39464900 0.82291100
vt 0.19973700 0.73882500
vt 0.06077500 0.78086900
vt 0.52460400 0.14541100
vt 0.45477000 0.99023400
vt 0.45477000 0.67049500
vt 0.45477000 0.89068900
vt 0.78220500 0.24216700
vt 0.32008000 0.73882500
vt 0.74409000 0.27486400
vt 0.25992300 0.73882500
vt 0.38026500 0.82291100
vt 0.71883800 0.21649200
vt 0.19973700 0.00976600
vt 0.09370600 0.00976600
vt 0.81658400 0.18459200
vt 0.19047100 0.73882500
vt 0.72594100 0.30842300
vt 0.30154100 0.00976600
vt 0.28702400 0.03464500
vt 0.78247000 0.21203200
vt 0.60886000 0.16822400
vt 0.40739800 0.03464500
vt 0.72116100 0.67325300
vt 0.52252500 0.28590600
vt 0.67752600 0.28590600
vt 0.74052300 0.63898700
vt 0.38026500 0.03464500
vt 0.82742700 0.32492900
vt 0.40739800 0.00976600
vt 0.10647800 0.78086900
vt 0.31081400 0.73882500
vt 0.18120200 0.82291100
vt 0.15392200 0.00976600
vt 0.75557700 0.18433700
vt 0.25992300 0.78086900
vt 0.21413900 0.03464500
vt 0.19973700 0.78086900
vt 0.10647800 0.99023400
vt 0.65119600 0.09143700
vt 0.10647800 0.67049500
vt 0.10647800 0.89068900
vt 0.07930500 0.85994400
vt 0.16669400 0.78086900
vt 0.36172600 0.03464500
vt 0.77031000 0.25889700
vt 0.25065600 0.70196200
vt 0.32008000 0.78086900
vt 0.60002600 0.34443600
vt 0.37099900 0.70196200
vt 0.25992300 0.85994400
vt 0.18120200 0.00976600
vt 0.73461800 0.19759000
vt 0.37099900 0.99023400
vt 0.55784100 0.21970100
vt 0.13025500 0.99023400
vt 0.65991000 0.11687000
vt 0.72219500 0.98601300
vt 0.60394800 0.03790800
vt 0.59339400 0.03735700
vt 0.73181000 0.01714600
vt 0.63877600 0.40713000
vt 0.56127500 0.40713000
vt 0.71884500 0.09830800
vt 0.63877600 0.28590600
vt 0.73516000 0.90485000
vt 0.56127500 0.28590600
vt 0.37099900 0.67049500
vt 0.13025500 0.67049500
vt 0.37099900 0.89068900
vt 0.13025500 0.89068900
vt 0.37099900 0.03464500
vt 0.13025500 0.03464500
vt 0.55067000 0.01328600
vt 0.63877600 0.99023400
vt 0.53418300 0.05308900
vt 0.56127500 0.99023400
vt 0.56127500 0.34443600
vt 0.63877600 0.34443600
vt 0.46770100 0.85994400
vt 0.34721500 0.78086900
vt 0.18120200 0.70196200
vt 0.28702400 0.82291100
vt 0.22687100 0.70196200
vt 0.44045200 0.03464500
vt 0.80167300 0.25619000
vt 0.74729400 0.28122500
vt 0.19973700 0.85994400
vt 0.34721500 0.73882500
vt 0.39464900 0.03464500
vt 0.27422500 0.00976600
vt 0.71333400 0.28739900
vt 0.83006900 0.26818400
vt 0.79612000 0.24543000
vt 0.52252500 0.34443600
vt 0.67752600 0.34443600
vt 0.18120200 0.78086900
vt 0.78954700 0.24211900
vt 0.74455600 0.19015800
vt 0.16669400 0.00976600
vt 0.39464900 0.00976600
vt 0.81640600 0.33075000
vt 0.37099900 0.85994400
vt 0.80337300 0.29970000
vt 0.46770100 0.73882500
vt 0.46770100 0.70196200
vt 0.42191100 0.70196200
vt 0.27422500 0.78086900
vt 0.84604300 0.20666400
vt 0.06077500 0.00976600
vt 0.01903300 0.82291100
vt 0.04628200 0.85994400
vt 0.09370600 0.78086900
vt 0.13025500 0.70196200
vt 0.74344700 0.78902300
vt 0.60002600 0.28590600
vt 0.18120200 0.85994400
vt 0.13952100 0.82291100
vt 0.49145900 0.70196200
vt 0.00976600 0.70196200
vt 0.33448200 0.00976600
vt 0.75540000 0.33049400
vt 0.77410300 0.26791200
vt 0.33448200 0.03464500
vt 0.12098600 0.03464500
vt 0.33448200 0.82291100
vt 0.78977800 0.27291900
vt 0.15392200 0.82291100
vt 0.83117300 0.26115000
vt 0.16669400 0.82291100
vt 0.77065900 0.25395500
vt 0.15392200 0.03464500
vt 0.12098600 0.78086900
vt 0.24138200 0.82291100
vt 0.37099900 0.73882500
vt 0.04628200 0.99023400
vt 0.58477600 0.08372400
vt 0.04628200 0.67049500
vt 0.04628200 0.89068900
vt 0.81552600 0.22299700
vt 0.07003900 0.85994400
vt 0.70772500 0.26359100
vt 0.25065600 0.00976600
vt 0.45477000 0.03464500
vt 0.49145900 0.99023400
vt 0.00976600 0.99023400
vt 0.55746000 0.11725100
vt 0.49145900 0.67049500
vt 0.00976600 0.67049500
vt 0.49145900 0.89068900
vt 0.00976600 0.89068900
vt 0.49145900 0.03464500
vt 0.00976600 0.03464500
vt 0.01903300 0.99023400
vt 0.56272500 0.10913500
vt 0.01903300 0.67049500
vt 0.01903300 0.89068900
vt 0.36172600 0.00976600
vt 0.77952200 0.33673000
vt 0.36172600 0.85994400
vt 0.85316500 0.21669600
vt 0.04628200 0.00976600
vt 0.79947500 0.26572400
vt 0.80048700 0.25138000
vt 0.81548700 0.29219300
vt 0.13952100 0.00976600
vt 0.76743400 0.18029000
vt 0.45477000 0.82291100
vt 0.09370600 0.99023400
vt 0.63206700 0.08378200
vt 0.09370600 0.89068900
vt 0.09370600 0.67049500
vt 0.80454900 0.33479600
vt 0.38026500 0.00976600
vt 0.77029000 0.25641200
vt 0.72598200 0.20644200
vt 0.19047100 0.00976600
vt 0.46770100 0.00976600
vt 0.86237300 0.27588400
vt 0.80058000 0.26350100
vt 0.75649600 0.22289300
vt 0.77149600 0.26370600
vt 0.77250900 0.24936200
vt 0.71881900 0.29839000
vt 0.28702400 0.00976600
vt 0.15392200 0.99023400
vt 0.68502700 0.12493200
vt 0.15392200 0.89068900
vt 0.15392200 0.67049500
vt 0.19973700 0.82291100
vt 0.42191100 0.99023400
vt 0.53448300 0.17804400
vt 0.42191100 0.67049500
vt 0.42191100 0.89068900
vt 0.37099900 0.82291100
vt 0.37099900 0.00976600
vt 0.79212600 0.33694000
vt 0.22687100 0.03464500
vt 0.09370600 0.73882500
vt 0.24138200 0.73882500
vt 0.43118500 0.73882500
vt 0.19973700 0.03464500
vt 0.65229000 0.24404900
vt 0.27422500 0.99023400
vt 0.27422500 0.67049500
vt 0.27422500 0.89068900
vt 0.25065600 0.82291100
vt 0.82050900 0.28711800
vt 0.49145900 0.00976600
vt 0.00976600 0.00976600
vt 0.86425900 0.25149600
vt 0.49145900 0.78086900
vt 0.00976600 0.78086900
vt 0.34721500 0.82291100
vt 0.48219400 0.82291100
vt 0.38026500 0.78086900
vt 0.75645800 0.29208900
vt 0.54972800 0.21443700
vt 0.38026500 0.99023400
vt 0.38026500 0.67049500
vt 0.38026500 0.89068900
vt 0.28702400 0.99023400
vt 0.63332900 0.25255900
vt 0.28702400 0.67049500
vt 0.28702400 0.89068900
vt 0.34721500 0.85994400
vt 0.45477000 0.78086900
vt 0.43118500 0.85994400
vt 0.65458400 0.10879200
vt 0.12098600 0.99023400
vt 0.12098600 0.89068900
vt 0.12098600 0.67049500
vt 0.44045200 0.73882500
vt 0.33448200 0.78086900
vt 0.66837900 0.21398900
vt 0.24138200 0.99023400
vt 0.24138200 0.67049500
vt 0.24138200 0.89068900
vt 0.66102800 0.40713000
vt 0.53902300 0.40713000
vt 0.66102800 0.99023400
vt 0.56232800 0.02494400
vt 0.53902300 0.99023400
vt 0.55067000 0.05308900
vt 0.48219400 0.70196200
vt 0.79788000 0.24717400
vt 0.40739800 0.85994400
vt 0.74080900 0.26105500
vt 0.46770100 0.78086900
vt 0.03335100 0.78086900
vt 0.16669400 0.03464500
vt 0.80126900 0.25373800
vt 0.10647800 0.73882500
vt 0.19047100 0.82291100
vt 0.09370600 0.70196200
vt 0.69314100 0.14387100
vt 0.16669400 0.99023400
vt 0.16669400 0.67049500
vt 0.16669400 0.89068900
vt 0.25065600 0.73882500
vt 0.31081400 0.70196200
vt 0.48219400 0.85994400
vt 0.03335100 0.70196200
vt 0.79657700 0.30193200
vt 0.46770100 0.99023400
vt 0.53204100 0.12553200
vt 0.46770100 0.67049500
vt 0.46770100 0.89068900
vt 0.68333300 0.17747500
vt 0.19973700 0.99023400
vt 0.19973700 0.67049500
vt 0.19973700 0.89068900
vt 0.48219400 0.73882500
vt 0.45477000 0.85994400
vt 0.30154100 0.03464500
vt 0.13025500 0.78086900
vt 0.13952100 0.70196200
vt 0.77986200 0.24295100
vt 0.06077500 0.99023400
vt 0.59913800 0.09390000
vt 0.06077500 0.67049500
vt 0.06077500 0.89068900
vt 0.07930500 0.99023400
vt 0.61806500 0.09382800
vt 0.07930500 0.67049500
vt 0.07930500 0.89068900
vt 0.78487600 0.27334100
vt 0.32008000 0.03464500
vt 0.78243600 0.27296700
vt 0.43118500 0.82291100
vt 0.76861100 0.21538600
vt 0.33448200 0.85994400
vt 0.16669400 0.70196200
vt 0.15392200 0.73882500
vt 0.85864200 0.28758700
vt 0.45477000 0.00976600
vt 0.43118500 0.70196200
vt 0.39464900 0.85994400
vt 0.66102800 0.34443600
vt 0.53902300 0.34443600
vt 0.13952100 0.85994400
vt 0.74191500 0.24690200
vt 0.03335100 0.00976600
vt 0.85864900 0.22768700
vt 0.82053400 0.22807300
vt 0.59792700 0.05187000
vt 0.73253600 0.55659100
vt 0.71317300 0.75564900
vt 0.07003900 0.73882500
vt 0.07003900 0.82291100
vt 0.74443700 0.32467600
vt 0.32008000 0.00976600
vt 0.19047100 0.99023400
vt 0.68131900 0.16801600
vt 0.31081400 0.99023400
vt 0.60914500 0.24072900
vt 0.19047100 0.67049500
vt 0.31081400 0.67049500
vt 0.19047100 0.89068900
vt 0.31081400 0.89068900
vt 0.19047100 0.03464500
vt 0.31081400 0.03464500
vt 0.56656400 0.24514900
vt 0.34721500 0.99023400
vt 0.34721500 0.67049500
vt 0.34721500 0.89068900
vt 0.07930500 0.70196200
vt 0.77586400 0.26965600
vt 0.01903300 0.70196200
vt 0.82468900 0.23386200
vt 0.71823300 0.01489500
vt 0.74687000 0.87194600
vt 0.59482900 0.02366900
vt 0.75601500 0.87106000
vt 0.60394800 0.02414600
vt 0.70859300 0.98392200
vt 0.07930500 0.78086900
vt 0.45477000 0.70196200
vt 0.03335100 0.82291100
vt 0.36172600 0.70196200
vt 0.34721500 0.70196200
vt 0.03335100 0.85994400
vt 0.66802300 0.12213400
vt 0.13952100 0.99023400
vt 0.13952100 0.67049500
vt 0.13952100 0.89068900
vt 0.01903300 0.78086900
vt 0.36172600 0.73882500
vt 0.46770100 0.03464500
vt 0.44045200 0.82291100
vt 0.34721500 0.00976600
vt 0.76718400 0.33455300
vt 0.39464900 0.99023400
vt 0.53272800 0.21164200
vt 0.39464900 0.89068900
vt 0.39464900 0.67049500
vt 0.77766900 0.24409400
vt 0.01903300 0.73882500
vt 0.30154100 0.85994400
vt 0.27422500 0.82291100
vt 0.42191100 0.00976600
vt 0.83736600 0.31749600
vt 0.31081400 0.00976600
vt 0.73454400 0.31725700
vt 0.07930500 0.73882500
vt 0.30154100 0.70196200
vt 0.76225500 0.21866200
vt 0.31081400 0.82291100
vt 0.40739800 0.73882500
vt 0.53902300 0.28590600
vt 0.70859300 0.67219800
vt 0.76165800 0.90930800
vt 0.74541300 0.10232700
vt 0.72795500 0.64004100
vt 0.66102800 0.28590600
vt 0.06077500 0.85994400
vt 0.06077500 0.03464500
vt 0.60002600 0.40713000
vt 0.52252500 0.02494400
vt 0.60002600 0.99023400
vt 0.07930500 0.82291100
vt 0.27422500 0.85994400
vt 0.78237100 0.30302900
vt 0.22687100 0.73882500
vt 0.82788600 0.27496400
vt 0.24138200 0.78086900
vt 0.80344500 0.21547100
vt 0.46770100 0.82291100
vt 0.40739800 0.82291100
vt 0.61863400 0.24267800
vt 0.30154100 0.99023400
vt 0.30154100 0.67049500
vt 0.30154100 0.89068900
vt 0.09370600 0.03464500
vt 0.30154100 0.78086900
vt 0.52460400 0.19272800
vt 0.40739800 0.99023400
vt 0.40739800 0.89068900
vt 0.40739800 0.67049500
vt 0.39464900 0.70196200
vt 0.06077500 0.82291100
vt 0.42191100 0.73882500
vt 0.69338000 0.19148200
vt 0.21413900 0.99023400
vt 0.21413900 0.67049500
vt 0.21413900 0.89068900
vt 0.78951400 0.30305400
vt 0.15392200 0.85994400
vt 0.09370600 0.85994400
vt 0.48219400 0.78086900
vt 0.44045200 0.00976600
vt 0.85314600 0.29859400
vt 0.38026500 0.85994400
vt 0.04628200 0.03464500
vt 0.19973700 0.70196200
vt 0.03335100 0.73882500
vt 0.82789400 0.24022200
vt 0.30154100 0.73882500
vt 0.56317300 0.22779000
vt 0.36172600 0.99023400
vt 0.36172600 0.67049500
vt 0.36172600 0.89068900
vt 0.42191100 0.78086900
vt 0.12098600 0.73882500
vt 0.04628200 0.70196200
vt 0.21413900 0.85994400
vt 0.76220000 0.29632500
vt 0.31081400 0.78086900
vt 0.22687100 0.82291100
vt 0.25992300 0.00976600
vt 0.70960900 0.27570900
vt 0.76853900 0.29961500
vt 0.10647800 0.82291100
vt 0.82467400 0.28132800
vt 0.28702400 0.70196200
vt 0.74409800 0.24012200
vt 0.49145900 0.82291100
vt 0.00976600 0.82291100
vt 0.78961300 0.21205700
vt 0.16669400 0.85994400
vt 0.24138200 0.85994400
vt 0.42191100 0.03464500
vt 0.18120200 0.03464500
vt 0.80972900 0.29642400
vt 0.28702400 0.73882500
vt 0.79411000 0.24398300
vt 0.19047100 0.85994400
vt 0.44045200 0.70196200
vt 0.04628200 0.78086900
vt 0.52252500 0.40713000
vt 0.67752600 0.40713000
vt 0.52252500 0.99023400
vt 0.67752600 0.99023400
vt 0.56232800 0.04143100
vt 0.75601500 0.78796900
vt 0.70859300 0.90083100
vt 0.58352700 0.28590600
vt 0.69234700 0.09385100
vt 0.61652400 0.28590600
vt 0.73091000 0.79040200
vt 0.10647800 0.85994400
vt 0.86425900 0.26375900
vt 0.48219400 0.00976600
vt 0.83743900 0.19783000
vt 0.07003900 0.00976600
vt 0.01903300 0.03464500
vt 0.77531900 0.30187000
vt 0.40739800 0.78086900
vt 0.44045200 0.78086900
vt 0.25065600 0.85994400
vt 0.15392200 0.70196200
vt 0.79431500 0.27099200
vt 0.10647800 0.00976600
vt 0.80479900 0.18053300
vt 0.74191100 0.26808700
vt 0.79934900 0.24917400
vt 0.49145900 0.73882500
vt 0.00976600 0.73882500
vt 0.79190100 0.24287000
vt 0.37099900 0.78086900
vt 0.75145000 0.28701300
vt 0.79803800 0.26774600
vt 0.54939200 0.12257300
vt 0.48219400 0.99023400
vt 0.48219400 0.67049500
vt 0.48219400 0.89068900
vt 0.18120200 0.73882500
vt 0.12098600 0.85994400
vt 0.07930500 0.00976600
vt 0.82754600 0.19041000
vt 0.74541300 0.01923700
vt 0.59339400 0.05111900
vt 0.72795500 0.55695000
vt 0.60251300 0.05159600
vt 0.70859300 0.75528900
vt 0.73577300 0.98826400
vt 0.42191100 0.82291100
vt 0.78464000 0.24176200
vt 0.31081400 0.85994400
vt 0.07003900 0.99023400
vt 0.60860600 0.09584200
vt 0.43118500 0.99023400
vt 0.53643200 0.16855500
vt 0.07003900 0.67049500
vt 0.43118500 0.67049500
vt 0.07003900 0.89068900
vt 0.43118500 0.89068900
vt 0.07003900 0.03464500
vt 0.43118500 0.03464500
vt 0.79630200 0.26951600
vt 0.21413900 0.00976600
vt 0.71334100 0.22750000
vt 0.75143500 0.87141900
vt 0.59941500 0.02339500
vt 0.09370600 0.82291100
vt 0.06077500 0.70196200
vt 0.61652400 0.34443600
vt 0.58352700 0.34443600
vt 0.78710700 0.24174500
vt 0.22687100 0.78086900
vt 0.33448200 0.73882500
vt 0.07930500 0.03464500
vt 0.13952100 0.03464500
vt 0.79212100 0.27213500
vt 0.16669400 0.73882500
vt 0.78599200 0.25754300
vt 0.36172600 0.82291100
vt 0.59968600 0.24274300
vt 0.32008000 0.99023400
vt 0.32008000 0.67049500
vt 0.32008000 0.89068900
vt 0.30154100 0.82291100
vt 0.25992300 0.82291100
vt 0.10647800 0.70196200
vt 0.12098600 0.82291100
vt 0.38026500 0.73882500
vt 0.12098600 0.70196200
vt 0.21413900 0.78086900
vt 0.21413900 0.70196200
vt 0.13952100 0.78086900
vt 0.27422500 0.03464500
vt 0.25992300 0.70196200
vt 0.48219400 0.03464500
vt 0.77540700 0.21315400
vt 0.78734300 0.27332400
vt 0.83117400 0.25403200
vt 0.32008000 0.70196200
vt 0.42191100 0.85994400
vt 0.32008000 0.82291100
vt 0.04628200 0.73882500
vt 0.77071500 0.26134800
vt 0.77568100 0.24557000
vt 0.25065600 0.78086900
vt 0.77394700 0.24734100
vt 0.19047100 0.70196200
vt 0.40739800 0.70196200
vt 0.45477000 0.73882500
vt 0.28702400 0.85994400
vt 0.68573800 0.21059700
vt 0.22687100 0.99023400
vt 0.22687100 0.67049500
vt 0.22687100 0.89068900
vt 0.33448200 0.99023400
vt 0.58567900 0.25279000
vt 0.33448200 0.67049500
vt 0.33448200 0.89068900
vt 0.61652400 0.40713000
vt 0.58352700 0.40713000
vt 0.61652400 0.99023400
vt 0.53418300 0.01328600
vt 0.52252500 0.04143100
vt 0.58352700 0.99023400
vt 0.13025500 0.73882500
vt 0.78008300 0.27221600
vt 0.38026500 0.70196200
vt 0.28702400 0.78086900
vt 0.77263500 0.26591300
vt 0.13025500 0.85994400
vt 0.83007200 0.24699900
vt 0.39464900 0.78086900
vt 0.04628200 0.82291100
vt 0.43118500 0.78086900
vt 0.21413900 0.73882500
vt 0.75147500 0.22796800
vt 0.13025500 0.82291100
vt 0.77140400 0.25158500
vt 0.70961000 0.23920300
vt 0.22687100 0.00976600
vt 0.39464900 0.73882500
vt 0.18120200 0.99023400
vt 0.68326400 0.15853800
vt 0.18120200 0.89068900
vt 0.18120200 0.67049500
vt 0.13025500 0.00976600
vt 0.77985700 0.17814600
vt 0.19047100 0.78086900
vt 0.10647800 0.03464500
vt 0.06077500 0.73882500
vt 0.56546100 0.09252200
vt 0.03335100 0.99023400
vt 0.03335100 0.67049500
vt 0.03335100 0.89068900
vt 0.15392200 0.78086900
vt 0.27422500 0.70196200
vt 0.27422500 0.73882500
f 282/282 243/243 606/606
f 282/282 35/35 44/44
f 35/35 26/26 14/14
f 586/586 26/26 250/250
f 606/606 82/82 450/450
f 466/466 16/16 370/370
f 466/466 117/117 90/90
f 117/117 265/265 73/73
f 135/135 265/265 401/401
f 401/401 68/68 135/135
f 370/370 169/169 610/610
f 530/530 394/394 312/312
f 530/530 197/197 588/588
f 198/198 201/201 511/511
f 18/18 201/201 646/646
f 18/18 183/183 459/459
f 312/312 189/189 51/51
f 277/277 642/642 86/86
f 277/277 118/118 170/170
f 118/118 390/390 568/568
f 177/177 390/390 234/234
f 177/177 303/303 296/296
f 86/86 439/439 217/217
f 437/437 65/65 269/269
f 437/437 367/367 320/320
f 367/367 575/575 333/333
f 169/169 575/575 610/610
f 65/65 250/250 269/269
f 238/238 68/68 444/444
f 238/238 554/554 487/487
f 554/554 42/42 130/130
f 189/189 42/42 51/51
f 326/326 459/459 183/183
f 326/326 553/553 422/422
f 553/553 330/330 567/567
f 439/439 330/330 217/217
f 638/638 296/296 303/303
f 638/638 366/366 488/488
f 366/366 316/316 247/247
f 82/82 316/316 450/450
f 78/78 485/485 162/162
f 173/173 346/346 453/453
f 577/577 603/603 404/404
f 46/46 458/458 343/343
f 580/580 506/506 533/533
f 560/560 88/88 454/454
f 11/11 15/15 474/474
f 171/171 39/39 337/337
f 383/383 278/278 602/602
f 12/12 643/643 354/354
f 446/446 157/157 421/421
f 460/460 62/62 47/47
f 260/260 125/125 307/307
f 561/561 595/595 643/643
f 592/592 77/77 54/54
f 322/322 618/618 13/13
f 95/95 393/393 180/180
f 493/493 246/246 278/278
f 164/164 318/318 522/522
f 1/1 54/54 566/566
f 372/372 354/354 410/410
f 290/290 150/150 318/318
f 516/516 13/13 339/339
f 374/374 523/523 403/403
f 128/128 427/427 603/603
f 127/127 570/570 532/532
f 411/411 490/490 463/463
f 300/300 410/410 244/244
f 470/470 461/461 595/595
f 582/582 298/298 469/469
f 152/152 414/414 447/447
f 252/252 96/96 578/578
f 620/620 180/180 581/581
f 151/151 602/602 150/150
f 92/92 245/245 305/305
f 129/129 628/628 429/429
f 480/480 650/650 490/490
f 445/445 581/581 634/634
f 385/385 134/134 393/393
f 531/531 190/190 195/195
f 647/647 181/181 184/184
f 327/327 545/545 551/551
f 202/202 191/191 199/199
f 52/52 310/310 313/313
f 331/331 545/545 328/328
f 276/276 101/101 116/116
f 233/233 302/302 304/304
f 216/216 328/328 214/214
f 391/391 101/101 389/389
f 216/216 84/84 87/87
f 637/637 358/358 364/364
f 233/233 389/389 231/231
f 52/52 40/40 50/50
f 317/317 358/358 315/315
f 87/87 275/275 276/276
f 184/184 324/324 327/327
f 451/451 315/315 449/449
f 438/438 360/360 365/365
f 283/283 31/31 34/34
f 304/304 635/635 637/637
f 576/576 360/360 574/574
f 27/27 31/31 24/24
f 251/251 24/24 249/249
f 611/611 574/574 608/608
f 607/607 281/281 283/283
f 451/451 605/605 607/607
f 270/270 436/436 438/438
f 467/467 99/99 115/115
f 400/400 442/442 443/443
f 251/251 267/267 270/270
f 266/266 99/99 264/264
f 611/611 369/369 371/371
f 239/239 547/547 552/552
f 400/400 264/264 398/398
f 647/647 199/199 645/645
f 43/43 547/547 40/40
f 371/371 465/465 467/467
f 313/313 529/529 531/531
f 443/443 236/236 239/239
f 604/604 448/448 67/67
f 448/448 314/314 67/67
f 314/314 359/359 67/67
f 359/359 636/636 67/67
f 636/636 301/301 67/67
f 301/301 232/232 67/67
f 232/232 388/388 67/67
f 388/388 102/102 67/67
f 102/102 274/274 67/67
f 274/274 85/85 67/67
f 85/85 215/215 67/67
f 215/215 329/329 67/67
f 329/329 546/546 67/67
f 546/546 325/325 67/67
f 325/325 182/182 67/67
f 182/182 644/644 67/67
f 644/644 200/200 67/67
f 200/200 192/192 67/67
f 192/192 528/528 67/67
f 528/528 311/311 67/67
f 311/311 49/49 67/67
f 49/49 41/41 67/67
f 41/41 548/548 67/67
f 548/548 237/237 67/67
f 237/237 441/441 67/67
f 441/441 399/399 67/67
f 399/399 263/263 67/67
f 263/263 100/100 67/67
f 100/100 464/464 67/67
f 464/464 368/368 67/67
f 368/368 609/609 67/67
f 609/609 573/573 67/67
f 573/573 361/361 67/67
f 361/361 435/435 67/67
f 435/435 268/268 67/67
f 268/268 248/248 67/67
f 248/248 25/25 67/67
f 25/25 32/32 67/67
f 280/280 604/604 67/67
f 587/587 305/305 56/56
f 21/21 33/33 282/282
f 587/587 33/33 92/92
f 129/129 282/282 606/606
f 385/385 113/113 466/466
f 620/620 113/113 95/95
f 445/445 265/265 620/620
f 386/386 466/466 370/370
f 290/290 193/193 530/530
f 374/374 194/194 165/165
f 582/582 114/114 277/277
f 322/322 114/114 159/159
f 516/516 390/390 322/322
f 579/579 277/277 86/86
f 411/411 363/363 437/437
f 592/592 363/363 306/306
f 1/1 575/575 592/592
f 480/480 437/437 269/269
f 649/649 269/269 250/250
f 152/152 550/550 238/238
f 493/493 550/550 342/342
f 601/601 238/238 444/444
f 561/561 549/549 326/326
f 372/372 549/549 12/12
f 300/300 330/330 372/372
f 127/127 362/362 638/638
f 460/460 362/362 600/600
f 584/584 316/316 460/460
f 338/338 638/638 303/303
f 649/649 26/26 587/587
f 584/584 606/606 450/450
f 445/445 444/444 401/401
f 1/1 370/370 610/610
f 308/308 201/201 374/374
f 151/151 530/530 312/312
f 470/470 646/646 308/308
f 151/151 51/51 383/383
f 516/516 303/303 234/234
f 300/300 86/86 217/217
f 383/383 42/42 493/493
f 470/470 326/326 183/183
f 486/486 34/34 515/515
f 96/96 34/34 27/27
f 15/15 283/283 486/486
f 205/205 115/115 148/148
f 458/458 115/115 266/266
f 343/343 266/266 400/400
f 271/271 467/467 205/205
f 307/307 195/195 22/22
f 28/28 196/196 202/202
f 533/533 116/116 623/623
f 346/346 116/116 391/391
f 453/453 391/391 233/233
f 506/506 276/276 533/533
f 404/404 365/365 544/544
f 39/39 365/365 576/576
f 337/337 576/576 611/611
f 603/603 438/438 404/404
f 427/427 270/270 603/603
f 593/593 552/552 273/273
f 8/8 552/552 43/43
f 292/292 239/239 593/593
f 421/421 551/551 186/186
f 88/88 551/551 331/331
f 454/454 331/331 216/216
f 162/162 364/364 492/492
f 133/133 364/364 317/317
f 471/471 317/317 451/451
f 485/485 637/637 162/162
f 427/427 27/27 251/251
f 471/471 607/607 15/15
f 343/343 443/443 292/292
f 337/337 371/371 271/271
f 387/387 202/202 647/647
f 125/125 531/531 307/307
f 157/157 647/647 184/184
f 125/125 52/52 313/313
f 453/453 304/304 485/485
f 454/454 87/87 506/506
f 319/319 43/43 52/52
f 157/157 327/327 421/421
f 259/259 337/337 271/271
f 159/159 469/469 618/618
f 649/649 56/56 650/650
f 386/386 566/566 134/134
f 474/474 486/486 179/179
f 213/213 8/8 319/319
f 240/240 205/205 148/148
f 578/578 427/427 405/405
f 434/434 343/343 292/292
f 579/579 244/244 298/298
f 308/308 403/403 461/461
f 21/21 429/429 245/245
f 601/601 634/634 414/414
f 338/338 339/339 570/570
f 57/57 148/148 458/458
f 482/482 307/307 22/22
f 306/306 463/463 77/77
f 626/626 387/387 157/157
f 355/355 421/421 186/186
f 342/342 447/447 246/246
f 235/235 471/471 11/11
f 335/335 593/593 273/273
f 384/384 28/28 387/387
f 630/630 533/533 623/623
f 413/413 404/404 544/544
f 584/584 47/47 628/628
f 156/156 23/23 28/28
f 78/78 492/492 299/299
f 426/426 186/186 88/88
f 433/433 319/319 125/125
f 395/395 273/273 8/8
f 572/572 271/271 205/205
f 179/179 515/515 252/252
f 478/478 454/454 506/506
f 163/163 623/623 346/346
f 542/542 292/292 593/593
f 594/594 544/544 39/39
f 175/175 453/453 485/485
f 299/299 133/133 235/235
f 252/252 81/81 598/598
f 598/598 56/56 305/305
f 259/259 2/2 126/126
f 126/126 393/393 134/134
f 57/57 625/625 261/261
f 261/261 634/634 581/581
f 405/405 621/621 153/153
f 153/153 490/490 650/650
f 11/11 565/565 583/583
f 583/583 429/429 628/628
f 179/179 598/598 431/431
f 431/431 305/305 245/245
f 213/213 294/294 272/272
f 272/272 150/150 602/602
f 240/240 261/261 525/525
f 525/525 581/581 180/180
f 578/578 153/153 81/81
f 81/81 650/650 56/56
f 434/434 468/468 513/513
f 513/513 447/447 414/414
f 478/478 178/178 76/76
f 76/76 469/469 298/298
f 384/384 494/494 295/295
f 295/295 595/595 461/461
f 426/426 158/158 382/382
f 382/382 244/244 410/410
f 128/128 440/440 621/621
f 621/621 463/463 490/490
f 175/175 142/142 89/89
f 89/89 532/532 570/570
f 572/572 525/525 2/2
f 2/2 180/180 393/393
f 483/483 392/392 258/258
f 258/258 403/403 523/523
f 163/163 648/648 585/585
f 585/585 339/339 13/13
f 433/433 455/455 294/294
f 294/294 318/318 150/150
f 355/355 382/382 7/7
f 7/7 410/410 354/354
f 594/594 279/279 93/93
f 93/93 566/566 54/54
f 235/235 583/583 83/83
f 83/83 628/628 47/47
f 335/335 514/514 627/627
f 627/627 278/278 246/246
f 156/156 295/295 392/392
f 392/392 461/461 403/403
f 630/630 585/585 321/321
f 321/321 13/13 618/618
f 413/413 93/93 473/473
f 473/473 54/54 77/77
f 626/626 48/48 494/494
f 494/494 643/643 595/595
f 260/260 257/257 455/455
f 455/455 522/522 318/318
f 299/299 83/83 641/641
f 641/641 47/47 62/62
f 446/446 7/7 48/48
f 48/48 354/354 643/643
f 395/395 272/272 514/514
f 514/514 602/602 278/278
f 542/542 627/627 468/468
f 468/468 246/246 447/447
f 171/171 126/126 279/279
f 279/279 134/134 566/566
f 474/474 431/431 565/565
f 565/565 245/245 429/429
f 560/560 76/76 158/158
f 158/158 298/298 244/244
f 580/580 321/321 178/178
f 178/178 618/618 469/469
f 46/46 513/513 625/625
f 625/625 414/414 634/634
f 577/577 473/473 440/440
f 440/440 77/77 463/463
f 173/173 89/89 648/648
f 648/648 570/570 339/339
f 78/78 641/641 142/142
f 142/142 62/62 532/532
f 600/600 532/532 62/62
f 73/73 146/146 219/219
f 554/554 406/406 487/487
f 90/90 396/396 16/16
f 553/553 155/155 422/422
f 197/197 508/508 588/588
f 366/366 59/59 222/222
f 367/367 357/357 408/408
f 44/44 633/633 243/243
f 16/16 166/166 169/169
f 118/118 211/211 639/639
f 554/554 456/456 5/5
f 422/422 207/207 459/459
f 553/553 534/534 510/510
f 117/117 203/203 90/90
f 198/198 37/37 255/255
f 488/488 145/145 296/296
f 247/247 556/556 59/59
f 333/333 166/166 357/357
f 588/588 223/223 394/394
f 568/568 79/79 211/211
f 130/130 341/341 456/456
f 35/35 9/9 44/44
f 511/511 348/348 37/37
f 320/320 230/230 65/65
f 567/567 60/60 534/534
f 117/117 219/219 241/241
f 177/177 145/145 79/79
f 487/487 75/75 68/68
f 14/14 136/136 475/475
f 439/439 518/518 60/60
f 18/18 207/207 348/348
f 189/189 223/223 341/341
f 243/243 556/556 82/82
f 65/65 136/136 586/586
f 366/366 97/97 488/488
f 170/170 518/518 642/642
f 367/367 64/64 320/320
f 68/68 146/146 135/135
f 35/35 475/475 188/188
f 118/118 19/19 170/170
f 4/4 479/479 253/253
f 36/36 591/591 256/256
f 147/147 309/309 218/218
f 340/340 479/479 457/457
f 349/349 624/624 36/36
f 167/167 512/512 477/477
f 74/74 210/210 489/489
f 349/349 375/375 462/462
f 507/507 138/138 224/224
f 340/340 138/138 430/430
f 20/20 66/66 484/484
f 20/20 3/3 519/519
f 147/147 489/489 149/149
f 212/212 66/66 640/640
f 206/206 350/350 375/375
f 509/509 350/350 154/154
f 80/80 589/589 212/212
f 144/144 226/226 412/412
f 509/509 45/45 185/185
f 80/80 412/412 336/336
f 10/10 293/293 29/29
f 61/61 45/45 535/535
f 409/409 526/526 63/63
f 476/476 293/293 187/187
f 61/61 3/3 432/432
f 409/409 472/472 262/262
f 10/10 347/347 632/632
f 221/221 226/226 98/98
f 167/167 472/472 356/356
f 204/204 452/452 428/428
f 58/58 629/629 221/221
f 229/229 526/526 132/132
f 218/218 452/452 242/242
f 557/557 30/30 58/58
f 137/137 132/132 55/55
f 204/204 512/512 397/397
f 137/137 520/520 476/476
f 4/4 210/210 407/407
f 507/507 591/591 174/174
f 557/557 347/347 481/481
f 132/132 168/168 622/622
f 309/309 590/590 452/452
f 481/481 228/228 30/30
f 55/55 622/622 227/227
f 512/512 332/332 334/334
f 55/55 596/596 520/520
f 253/253 555/555 210/210
f 174/174 131/131 6/6
f 347/347 631/631 481/481
f 253/253 208/208 527/527
f 624/624 131/131 591/591
f 309/309 569/569 172/172
f 430/430 208/208 479/479
f 624/624 209/209 297/297
f 512/512 619/619 477/477
f 489/489 555/555 517/517
f 375/375 209/209 462/462
f 174/174 38/38 138/138
f 138/138 225/225 430/430
f 484/484 543/543 564/564
f 484/484 143/143 3/3
f 149/149 517/517 569/569
f 589/589 543/543 66/66
f 375/375 291/291 521/521
f 185/185 291/291 350/350
f 589/589 323/323 53/53
f 412/412 597/597 402/402
f 45/45 139/139 185/185
f 412/412 323/323 336/336
f 29/29 91/91 220/220
f 432/432 491/491 45/45
f 262/262 168/168 526/526
f 520/520 91/91 293/293
f 3/3 524/524 432/432
f 262/262 17/17 373/373
f 29/29 176/176 347/347
f 629/629 597/597 226/226
f 477/477 17/17 472/472
f 428/428 590/590 332/332
f 30/30 599/599 629/629
f 91/91 596/596 571/571
f 596/596 227/227 571/571
f 227/227 622/622 571/571
f 622/622 168/168 571/571
f 168/168 373/373 571/571
f 373/373 17/17 571/571
f 17/17 619/619 571/571
f 619/619 334/334 571/571
f 334/334 332/332 571/571
f 332/332 590/590 571/571
f 590/590 172/172 571/571
f 172/172 569/569 571/571
f 569/569 517/517 571/571
f 517/517 555/555 571/571
f 555/555 527/527 571/571
f 527/527 208/208 571/571
f 208/208 225/225 571/571
f 225/225 38/38 571/571
f 38/38 6/6 571/571
f 6/6 131/131 571/571
f 131/131 297/297 571/571
f 297/297 209/209 571/571
f 209/209 521/521 571/571
f 521/521 291/291 571/571
f 291/291 139/139 571/571
f 139/139 491/491 571/571
f 491/491 524/524 571/571
f 524/524 143/143 571/571
f 143/143 564/564 571/571
f 564/564 543/543 571/571
f 543/543 53/53 571/571
f 53/53 323/323 571/571
f 323/323 402/402 571/571
f 402/402 597/597 571/571
f 597/597 599/599 571/571
f 599/599 228/228 571/571
f 228/228 631/631 571/571
f 631/631 176/176 571/571
f 176/176 220/220 571/571
f 220/220 91/91 571/571
f 32/32 280/280 67/67
f 282/282 44/44 243/243
f 282/282 33/33 35/35
f 35/35 33/33 26/26
f 586/586 14/14 26/26
f 606/606 243/243 82/82
f 466/466 90/90 16/16
f 466/466 113/113 117/117
f 117/117 113/113 265/265
f 135/135 73/73 265/265
f 401/401 444/444 68/68
f 370/370 16/16 169/169
f 530/530 588/588 394/394
f 530/530 193/193 197/197
f 198/198 194/194 201/201
f 18/18 511/511 201/201
f 18/18 646/646 183/183
f 312/312 394/394 189/189
f 277/277 170/170 642/642
f 277/277 114/114 118/118
f 118/118 114/114 390/390
f 177/177 568/568 390/390
f 177/177 234/234 303/303
f 86/86 642/642 439/439
f 437/437 320/320 65/65
f 437/437 363/363 367/367
f 367/367 363/363 575/575
f 169/169 333/333 575/575
f 65/65 586/586 250/250
f 238/238 487/487 68/68
f 238/238 550/550 554/554
f 554/554 550/550 42/42
f 189/189 130/130 42/42
f 326/326 422/422 459/459
f 326/326 549/549 553/553
f 553/553 549/549 330/330
f 439/439 567/567 330/330
f 638/638 488/488 296/296
f 638/638 362/362 366/366
f 366/366 362/362 316/316
f 82/82 247/247 316/316
f 78/78 175/175 485/485
f 173/173 163/163 346/346
f 577/577 128/128 603/603
f 46/46 57/57 458/458
f 580/580 478/478 506/506
f 560/560 426/426 88/88
f 11/11 471/471 15/15
f 171/171 594/594 39/39
f 383/383 493/493 278/278
f 12/12 561/561 643/643
f 446/446 626/626 157/157
f 460/460 600/600 62/62
f 260/260 433/433 125/125
f 561/561 470/470 595/595
f 592/592 306/306 77/77
f 322/322 159/159 618/618
f 95/95 385/385 393/393
f 493/493 342/342 246/246
f 164/164 290/290 318/318
f 1/1 592/592 54/54
f 372/372 12/12 354/354
f 290/290 151/151 150/150
f 516/516 322/322 13/13
f 374/374 165/165 523/523
f 128/128 405/405 427/427
f 127/127 338/338 570/570
f 411/411 480/480 490/490
f 300/300 372/372 410/410
f 470/470 308/308 461/461
f 582/582 579/579 298/298
f 152/152 601/601 414/414
f 252/252 515/515 96/96
f 620/620 95/95 180/180
f 151/151 383/383 602/602
f 92/92 21/21 245/245
f 129/129 584/584 628/628
f 480/480 649/649 650/650
f 445/445 620/620 581/581
f 385/385 386/386 134/134
f 531/531 529/529 190/190
f 647/647 645/645 181/181
f 327/327 324/324 545/545
f 202/202 196/196 191/191
f 52/52 50/50 310/310
f 331/331 551/551 545/545
f 276/276 275/275 101/101
f 233/233 231/231 302/302
f 216/216 331/331 328/328
f 391/391 116/116 101/101
f 216/216 214/214 84/84
f 637/637 635/635 358/358
f 233/233 391/391 389/389
f 52/52 43/43 40/40
f 317/317 364/364 358/358
f 87/87 84/84 275/275
f 184/184 181/181 324/324
f 451/451 317/317 315/315
f 438/438 436/436 360/360
f 283/283 281/281 31/31
f 304/304 302/302 635/635
f 576/576 365/365 360/360
f 27/27 34/34 31/31
f 251/251 27/27 24/24
f 611/611 576/576 574/574
f 607/607 605/605 281/281
f 451/451 449/449 605/605
f 270/270 267/267 436/436
f 467/467 465/465 99/99
f 400/400 398/398 442/442
f 251/251 249/249 267/267
f 266/266 115/115 99/99
f 611/611 608/608 369/369
f 239/239 236/236 547/547
f 400/400 266/266 264/264
f 647/647 202/202 199/199
f 43/43 552/552 547/547
f 371/371 369/369 465/465
f 313/313 310/310 529/529
f 443/443 442/442 236/236
f 587/587 92/92 305/305
f 21/21 92/92 33/33
f 587/587 26/26 33/33
f 129/129 21/21 282/282
f 385/385 95/95 113/113
f 620/620 265/265 113/113
f 445/445 401/401 265/265
f 386/386 385/385 466/466
f 290/290 164/164 193/193
f 374/374 201/201 194/194
f 582/582 159/159 114/114
f 322/322 390/390 114/114
f 516/516 234/234 390/390
f 579/579 582/582 277/277
f 411/411 306/306 363/363
f 592/592 575/575 363/363
f 1/1 610/610 575/575
f 480/480 411/411 437/437
f 649/649 480/480 269/269
f 152/152 342/342 550/550
f 493/493 42/42 550/550
f 601/601 152/152 238/238
f 561/561 12/12 549/549
f 372/372 330/330 549/549
f 300/300 217/217 330/330
f 127/127 600/600 362/362
f 460/460 316/316 362/362
f 584/584 450/450 316/316
f 338/338 127/127 638/638
f 649/649 250/250 26/26
f 584/584 129/129 606/606
f 445/445 601/601 444/444
f 1/1 386/386 370/370
f 308/308 646/646 201/201
f 151/151 290/290 530/530
f 470/470 183/183 646/646
f 151/151 312/312 51/51
f 516/516 338/338 303/303
f 300/300 579/579 86/86
f 383/383 51/51 42/42
f 470/470 561/561 326/326
f 486/486 283/283 34/34
f 96/96 515/515 34/34
f 15/15 607/607 283/283
f 205/205 467/467 115/115
f 458/458 148/148 115/115
f 343/343 458/458 266/266
f 271/271 371/371 467/467
f 307/307 531/531 195/195
f 28/28 23/23 196/196
f 533/533 276/276 116/116
f 346/346 623/623 116/116
f 453/453 346/346 391/391
f 506/506 87/87 276/276
f 404/404 438/438 365/365
f 39/39 544/544 365/365
f 337/337 39/39 576/576
f 603/603 270/270 438/438
f 427/427 251/251 270/270
f 593/593 239/239 552/552
f 8/8 273/273 552/552
f 292/292 443/443 239/239
f 421/421 327/327 551/551
f 88/88 186/186 551/551
f 454/454 88/88 331/331
f 162/162 637/637 364/364
f 133/133 492/492 364/364
f 471/471 133/133 317/317
f 485/485 304/304 637/637
f 427/427 96/96 27/27
f 471/471 451/451 607/607
f 343/343 400/400 443/443
f 337/337 611/611 371/371
f 387/387 28/28 202/202
f 125/125 313/313 531/531
f 157/157 387/387 647/647
f 125/125 319/319 52/52
f 453/453 233/233 304/304
f 454/454 216/216 87/87
f 319/319 8/8 43/43
f 157/157 184/184 327/327
f 259/259 171/171 337/337
f 159/159 582/582 469/469
f 649/649 587/587 56/56
f 386/386 1/1 566/566
f 474/474 15/15 486/486
f 213/213 395/395 8/8
f 240/240 572/572 205/205
f 578/578 96/96 427/427
f 434/434 46/46 343/343
f 579/579 300/300 244/244
f 308/308 374/374 403/403
f 21/21 129/129 429/429
f 601/601 445/445 634/634
f 338/338 516/516 339/339
f 57/57 240/240 148/148
f 482/482 260/260 307/307
f 306/306 411/411 463/463
f 626/626 384/384 387/387
f 355/355 446/446 421/421
f 342/342 152/152 447/447
f 235/235 133/133 471/471
f 335/335 542/542 593/593
f 384/384 156/156 28/28
f 630/630 580/580 533/533
f 413/413 577/577 404/404
f 584/584 460/460 47/47
f 156/156 483/483 23/23
f 78/78 162/162 492/492
f 426/426 355/355 186/186
f 433/433 213/213 319/319
f 395/395 335/335 273/273
f 572/572 259/259 271/271
f 179/179 486/486 515/515
f 478/478 560/560 454/454
f 163/163 630/630 623/623
f 542/542 434/434 292/292
f 594/594 413/413 544/544
f 175/175 173/173 453/453
f 299/299 492/492 133/133
f 252/252 578/578 81/81
f 598/598 81/81 56/56
f 259/259 572/572 2/2
f 126/126 2/2 393/393
f 57/57 46/46 625/625
f 261/261 625/625 634/634
f 405/405 128/128 621/621
f 153/153 621/621 490/490
f 11/11 474/474 565/565
f 583/583 565/565 429/429
f 179/179 252/252 598/598
f 431/431 598/598 305/305
f 213/213 433/433 294/294
f 272/272 294/294 150/150
f 240/240 57/57 261/261
f 525/525 261/261 581/581
f 578/578 405/405 153/153
f 81/81 153/153 650/650
f 434/434 542/542 468/468
f 513/513 468/468 447/447
f 478/478 580/580 178/178
f 76/76 178/178 469/469
f 384/384 626/626 494/494
f 295/295 494/494 595/595
f 426/426 560/560 158/158
f 382/382 158/158 244/244
f 128/128 577/577 440/440
f 621/621 440/440 463/463
f 175/175 78/78 142/142
f 89/89 142/142 532/532
f 572/572 240/240 525/525
f 2/2 525/525 180/180
f 483/483 156/156 392/392
f 258/258 392/392 403/403
f 163/163 173/173 648/648
f 585/585 648/648 339/339
f 433/433 260/260 455/455
f 294/294 455/455 318/318
f 355/355 426/426 382/382
f 7/7 382/382 410/410
f 594/594 171/171 279/279
f 93/93 279/279 566/566
f 235/235 11/11 583/583
f 83/83 583/583 628/628
f 335/335 395/395 514/514
f 627/627 514/514 278/278
f 156/156 384/384 295/295
f 392/392 295/295 461/461
f 630/630 163/163 585/585
f 321/321 585/585 13/13
f 413/413 594/594 93/93
f 473/473 93/93 54/54
f 626/626 446/446 48/48
f 494/494 48/48 643/643
f 260/260 482/482 257/257
f 455/455 257/257 522/522
f 299/299 235/235 83/83
f 641/641 83/83 47/47
f 446/446 355/355 7/7
f 48/48 7/7 354/354
f 395/395 213/213 272/272
f 514/514 272/272 602/602
f 542/542 335/335 627/627
f 468/468 627/627 246/246
f 171/171 259/259 126/126
f 279/279 126/126 134/134
f 474/474 179/179 431/431
f 565/565 431/431 245/245
f 560/560 478/478 76/76
f 158/158 76/76 298/298
f 580/580 630/630 321/321
f 178/178 321/321 618/618
f 46/46 434/434 513/513
f 625/625 513/513 414/414
f 577/577 413/413 473/473
f 440/440 473/473 77/77
f 173/173 175/175 89/89
f 648/648 89/89 570/570
f 78/78 299/299 641/641
f 142/142 641/641 62/62
f 600/600 127/127 532/532
f 73/73 135/135 146/146
f 554/554 5/5 406/406
f 90/90 203/203 396/396
f 553/553 510/510 155/155
f 197/197 254/254 508/508
f 366/366 247/247 59/59
f 367/367 333/333 357/357
f 44/44 9/9 633/633
f 16/16 396/396 166/166
f 118/118 568/568 211/211
f 554/554 130/130 456/456
f 422/422 155/155 207/207
f 553/553 567/567 534/534
f 117/117 241/241 203/203
f 198/198 511/511 37/37
f 488/488 97/97 145/145
f 247/247 82/82 556/556
f 333/333 169/169 166/166
f 588/588 508/508 223/223
f 568/568 177/177 79/79
f 130/130 189/189 341/341
f 35/35 188/188 9/9
f 511/511 18/18 348/348
f 320/320 64/64 230/230
f 567/567 439/439 60/60
f 117/117 73/73 219/219
f 177/177 296/296 145/145
f 487/487 406/406 75/75
f 14/14 586/586 136/136
f 439/439 642/642 518/518
f 18/18 459/459 207/207
f 189/189 394/394 223/223
f 243/243 633/633 556/556
f 65/65 230/230 136/136
f 366/366 222/222 97/97
f 170/170 19/19 518/518
f 367/367 408/408 64/64
f 68/68 75/75 146/146
f 35/35 14/14 475/475
f 118/118 639/639 19/19
f 4/4 457/457 479/479
f 36/36 624/624 591/591
f 147/147 149/149 309/309
f 340/340 430/430 479/479
f 349/349 462/462 624/624
f 167/167 397/397 512/512
f 74/74 407/407 210/210
f 349/349 206/206 375/375
f 507/507 174/174 138/138
f 340/340 224/224 138/138
f 20/20 640/640 66/66
f 20/20 484/484 3/3
f 147/147 74/74 489/489
f 212/212 589/589 66/66
f 206/206 154/154 350/350
f 509/509 185/185 350/350
f 80/80 336/336 589/589
f 144/144 98/98 226/226
f 509/509 535/535 45/45
f 80/80 144/144 412/412
f 10/10 187/187 293/293
f 61/61 432/432 45/45
f 409/409 262/262 526/526
f 476/476 520/520 293/293
f 61/61 519/519 3/3
f 409/409 356/356 472/472
f 10/10 29/29 347/347
f 221/221 629/629 226/226
f 167/167 477/477 472/472
f 204/204 242/242 452/452
f 58/58 30/30 629/629
f 229/229 63/63 526/526
f 218/218 309/309 452/452
f 557/557 481/481 30/30
f 137/137 229/229 132/132
f 204/204 428/428 512/512
f 137/137 55/55 520/520
f 4/4 253/253 210/210
f 507/507 256/256 591/591
f 557/557 632/632 347/347
f 132/132 526/526 168/168
f 309/309 172/172 590/590
f 481/481 631/631 228/228
f 55/55 132/132 622/622
f 512/512 428/428 332/332
f 55/55 227/227 596/596
f 253/253 527/527 555/555
f 174/174 591/591 131/131
f 347/347 176/176 631/631
f 253/253 479/479 208/208
f 624/624 297/297 131/131
f 309/309 149/149 569/569
f 430/430 225/225 208/208
f 624/624 462/462 209/209
f 512/512 334/334 619/619
f 489/489 210/210 555/555
f 375/375 521/521 209/209
f 174/174 6/6 38/38
f 138/138 38/38 225/225
f 484/484 66/66 543/543
f 484/484 564/564 143/143
f 149/149 489/489 517/517
f 589/589 53/53 543/543
f 375/375 350/350 291/291
f 185/185 139/139 291/291
f 589/589 336/336 323/323
f 412/412 226/226 597/597
f 45/45 491/491 139/139
f 412/412 402/402 323/323
f 29/29 293/293 91/91
f 432/432 524/524 491/491
f 262/262 373/373 168/168
f 520/520 596/596 91/91
f 3/3 143/143 524/524
f 262/262 472/472 17/17
f 29/29 220/220 176/176
f 629/629 599/599 597/597
f 477/477 619/619 17/17
f 428/428 452/452 590/590
f 30/30 228/228 599/599
f 425/425 612/612 423/423
f 614/614 107/107 612/612
f 120/120 284/284 107/107
f 286/286 496/496 284/284
f 497/497 285/285 495/495
f 288/288 108/108 285/285
f 121/121 499/499 119/119
f 122/122 613/613 108/108
f 617/617 423/423 613/613
f 612/612 124/124 562/562
f 140/140 415/415 70/70
f 495/495 345/345 140/140
f 423/423 563/563 613/613
f 423/423 562/562 94/94
f 284/284 124/124 107/107
f 285/285 123/123 345/345
f 496/496 344/344 284/284
f 613/613 123/123 108/108
f 111/111 381/381 103/103
f 344/344 110/110 124/124
f 94/94 504/504 161/161
f 94/94 502/502 563/563
f 345/345 112/112 415/415
f 141/141 420/420 344/344
f 562/562 110/110 504/504
f 563/563 112/112 123/123
f 104/104 105/105 351/351
f 69/69 540/540 353/353
f 109/109 536/536 106/106
f 160/160 377/377 558/558
f 160/160 379/379 500/500
f 111/111 541/541 417/417
f 72/72 538/538 419/419
f 109/109 376/376 503/503
f 425/425 614/614 612/612
f 614/614 120/120 107/107
f 120/120 286/286 284/284
f 286/286 498/498 496/496
f 497/497 288/288 285/285
f 288/288 122/122 108/108
f 119/119 615/615 121/121
f 615/615 424/424 121/121
f 424/424 616/616 121/121
f 121/121 289/289 499/499
f 499/499 287/287 119/119
f 122/122 617/617 613/613
f 617/617 425/425 423/423
f 612/612 107/107 124/124
f 140/140 345/345 415/415
f 495/495 285/285 345/345
f 423/423 94/94 563/563
f 423/423 612/612 562/562
f 284/284 344/344 124/124
f 285/285 108/108 123/123
f 496/496 141/141 344/344
f 613/613 563/563 123/123
f 111/111 501/501 381/381
f 344/344 420/420 110/110
f 94/94 562/562 504/504
f 94/94 161/161 502/502
f 345/345 123/123 112/112
f 141/141 71/71 420/420
f 562/562 124/124 110/110
f 563/563 502/502 112/112
f 380/380 559/559 104/104
f 559/559 378/378 105/105
f 105/105 537/537 351/351
f 351/351 539/539 104/104
f 559/559 105/105 104/104
f 69/69 416/416 540/540
f 109/109 418/418 536/536
f 160/160 505/505 377/377
f 160/160 558/558 379/379
f 111/111 103/103 541/541
f 72/72 352/352 538/538
f 109/109 106/106 376/376