o convex_0
v -0.016550 -0.069238 0.008958
v 0.000049 -0.045659 0.037354
v 0.000049 -0.040421 0.036913
v 0.000049 -0.064435 0.000219
v -0.007377 -0.004587 0.011584
v -0.011743 -0.077101 0.033857
v -0.017861 -0.032558 0.024243
v 0.000049 -0.090218 0.025552
v 0.000049 -0.004587 0.029925
v 0.000049 -0.004587 0.008958
v -0.014364 -0.032994 0.007648
v -0.010433 -0.032122 0.034732
v -0.017861 -0.079288 0.022934
v -0.005193 -0.084100 0.005905
v -0.009996 -0.004587 0.023368
v -0.005193 -0.036934 0.001098
v 0.000049 -0.082784 0.034728
v -0.019606 -0.054829 0.022934
v -0.006503 -0.063555 0.000657
v 0.000049 -0.089766 0.012021
v -0.014801 -0.080604 0.009395
v -0.007377 -0.089774 0.022058
v -0.010433 -0.058752 0.036479
v -0.016114 -0.032558 0.010271
v -0.003882 -0.079288 0.001532
v -0.018735 -0.061376 0.025994
v -0.010433 -0.004587 0.017262
v -0.000387 -0.042600 0.000219
v -0.009561 -0.080596 0.034291
v -0.013054 -0.048275 0.034294
v -0.014801 -0.046975 0.006339
v -0.000387 -0.067059 0.037354
v -0.017861 -0.060068 0.010708
v -0.018735 -0.036925 0.020315
v -0.007814 -0.089338 0.015949
v -0.004756 -0.004587 0.029050
v -0.000824 -0.020329 0.034291
v -0.003882 -0.030815 0.001532
v -0.008687 -0.044788 0.036913
v -0.019172 -0.070118 0.019874
v 0.000049 -0.082784 0.004155
v -0.014364 -0.069674 0.006339
v -0.008687 -0.072298 0.036479
v -0.011306 -0.019449 0.029050
v -0.013054 -0.069238 0.033857
v -0.017861 -0.030806 0.021187
v -0.019606 -0.049591 0.019874
v -0.017424 -0.080596 0.022934
v -0.018296 -0.043044 0.025994
v -0.003008 -0.089330 0.027299
v -0.017424 -0.045224 0.010271
v -0.010870 -0.084091 0.029050
v -0.008251 -0.057000 0.037354
v -0.007377 -0.019893 0.006339
v -0.003882 -0.004587 0.009395
v -0.018296 -0.072733 0.025118
v -0.006503 -0.049574 0.000657
v -0.003008 -0.062683 -0.000218
v 0.000049 -0.019885 0.004592
v -0.016550 -0.076229 0.010708
v -0.014364 -0.084091 0.018568
v -0.011743 -0.033430 0.033857
v -0.005629 -0.089766 0.013768
v -0.008251 -0.032550 0.035604
f 12 39 64 
f 3 2 4 
f 4 2 8 
f 3 4 9 
f 9 4 10 
f 5 9 10 
f 9 5 15 
f 8 2 17 
f 4 8 20 
f 5 11 24 
f 14 21 25 
f 15 5 27 
f 5 24 27 
f 11 16 31 
f 17 2 32 
f 31 1 33 
f 18 7 34 
f 9 15 36 
f 3 9 37 
f 9 36 37 
f 16 11 38 
f 28 16 38 
f 2 3 39 
f 12 30 39 
f 30 23 39 
f 4 20 41 
f 20 14 41 
f 25 4 41 
f 14 25 41 
f 21 1 42 
f 19 25 42 
f 25 21 42 
f 1 31 42 
f 31 19 42 
f 6 29 43 
f 29 17 43 
f 17 32 43 
f 15 7 44 
f 12 36 44 
f 36 15 44 
f 23 30 45 
f 30 26 45 
f 6 43 45 
f 43 23 45 
f 7 15 46 
f 15 27 46 
f 27 24 46 
f 34 7 46 
f 24 34 46 
f 18 34 47 
f 40 18 47 
f 33 40 47 
f 6 13 48 
f 29 6 48 
f 7 18 49 
f 18 26 49 
f 26 30 49 
f 8 17 50 
f 22 8 50 
f 17 29 50 
f 24 11 51 
f 11 31 51 
f 31 33 51 
f 34 24 51 
f 33 47 51 
f 47 34 51 
f 29 48 52 
f 48 22 52 
f 22 50 52 
f 50 29 52 
f 32 2 53 
f 2 39 53 
f 39 23 53 
f 23 43 53 
f 43 32 53 
f 11 5 54 
f 38 11 54 
f 38 54 55 
f 5 10 55 
f 10 38 55 
f 54 5 55 
f 13 6 56 
f 26 18 56 
f 40 13 56 
f 18 40 56 
f 6 45 56 
f 45 26 56 
f 16 28 57 
f 31 16 57 
f 19 31 57 
f 4 25 58 
f 25 19 58 
f 28 4 58 
f 57 28 58 
f 19 57 58 
f 10 4 59 
f 4 28 59 
f 38 10 59 
f 28 38 59 
f 1 21 60 
f 33 1 60 
f 13 40 60 
f 40 33 60 
f 48 13 60 
f 21 48 60 
f 21 35 61 
f 35 22 61 
f 48 21 61 
f 22 48 61 
f 30 12 62 
f 44 7 62 
f 12 44 62 
f 7 49 62 
f 49 30 62 
f 20 8 63 
f 14 20 63 
f 21 14 63 
f 8 22 63 
f 35 21 63 
f 22 35 63 
f 36 12 64 
f 3 37 64 
f 37 36 64 
f 39 3 64 
o convex_1
v 0.003111 -0.084971 0.006336
v 0.001801 -0.050881 0.039102
v 0.001362 -0.050881 0.039102
v 0.000053 -0.004587 0.008958
v 0.019710 -0.050898 0.018135
v 0.008790 -0.004587 0.025556
v 0.014467 -0.078417 0.030797
v 0.000053 -0.089338 0.027741
v 0.011409 -0.033430 0.004593
v 0.017525 -0.079288 0.014637
v 0.000053 -0.067059 0.001529
v 0.000053 -0.004587 0.029926
v 0.014904 -0.033866 0.030797
v 0.012283 -0.069238 0.004155
v 0.010099 -0.004587 0.015950
v 0.000490 -0.074913 0.037789
v 0.017964 -0.031678 0.015512
v 0.008353 -0.089330 0.020750
v 0.006169 -0.037361 0.037351
v 0.008353 -0.042600 0.001970
v 0.018836 -0.053513 0.012890
v 0.014904 -0.063128 0.032544
v 0.000053 -0.089774 0.012018
v 0.010099 -0.080604 0.004593
v 0.005732 -0.077545 0.036914
v 0.000053 -0.019893 0.004589
v 0.017525 -0.064871 0.028613
v 0.000053 -0.042600 0.038227
v 0.016652 -0.035609 0.028179
v 0.004859 -0.004587 0.009834
v 0.006606 -0.057445 0.038227
v 0.004859 -0.030815 0.036914
v 0.018836 -0.074049 0.018135
v 0.014467 -0.019449 0.022496
v 0.008790 -0.068811 0.001970
v 0.000053 -0.081476 0.003717
v 0.014904 -0.080596 0.029050
v 0.006606 -0.089766 0.015078
v 0.000053 -0.045224 0.001529
v 0.012720 -0.048266 0.004155
v 0.006169 -0.004587 0.028175
v 0.007043 -0.084100 0.032110
v 0.014904 -0.050026 0.032544
v 0.000053 -0.082784 0.034729
v 0.011409 -0.019449 0.009834
v 0.009227 -0.030815 0.003717
v 0.018399 -0.068366 0.012890
v 0.017964 -0.039113 0.012890
v 0.014467 -0.083655 0.015950
v 0.017525 -0.047839 0.028613
v 0.008790 -0.054377 0.001533
v 0.001362 -0.033866 0.037789
v 0.004422 -0.089766 0.025990
v 0.010536 -0.004587 0.020316
v 0.018399 -0.033866 0.018135
v 0.014467 -0.030371 0.030360
v 0.019710 -0.060940 0.018572
v 0.006169 -0.070118 0.037789
v 0.014904 -0.083219 0.022059
v 0.013157 -0.064435 0.004593
v 0.003985 -0.080168 0.036914
v 0.011846 -0.083655 0.010268
v 0.002674 -0.069247 0.038661
v 0.016652 -0.075357 0.028179
f 101 97 128 
f 72 68 75 
f 70 68 76 
f 68 72 76 
f 68 70 79 
f 72 75 87 
f 78 74 88 
f 75 68 90 
f 86 71 91 
f 76 72 92 
f 80 67 92 
f 68 79 94 
f 90 68 94 
f 83 66 95 
f 83 77 96 
f 78 88 99 
f 99 88 100 
f 87 75 100 
f 65 87 100 
f 88 65 100 
f 75 99 100 
f 74 97 101 
f 87 65 102 
f 65 88 102 
f 75 90 103 
f 90 84 103 
f 84 73 104 
f 70 76 105 
f 76 96 105 
f 77 83 107 
f 86 91 107 
f 83 95 107 
f 95 86 107 
f 92 72 108 
f 80 92 108 
f 81 73 109 
f 79 81 109 
f 94 79 109 
f 73 94 109 
f 73 84 110 
f 84 90 110 
f 94 73 110 
f 90 94 110 
f 74 78 111 
f 97 74 111 
f 81 69 112 
f 73 81 112 
f 69 85 112 
f 104 73 112 
f 85 104 112 
f 82 102 113 
f 93 77 114 
f 77 107 114 
f 107 91 114 
f 99 75 115 
f 78 99 115 
f 75 103 115 
f 103 84 115 
f 84 104 115 
f 67 66 116 
f 66 83 116 
f 92 67 116 
f 76 92 116 
f 96 76 116 
f 83 96 116 
f 72 87 117 
f 82 101 117 
f 102 82 117 
f 87 102 117 
f 106 72 117 
f 101 106 117 
f 79 70 118 
f 81 79 118 
f 70 98 118 
f 98 81 118 
f 69 81 119 
f 81 98 119 
f 98 93 119 
f 114 69 119 
f 93 114 119 
f 77 93 120 
f 96 77 120 
f 98 70 120 
f 93 98 120 
f 70 105 120 
f 105 96 120 
f 85 69 121 
f 91 97 121 
f 111 85 121 
f 97 111 121 
f 69 114 121 
f 114 91 121 
f 71 86 122 
f 89 71 122 
f 86 95 122 
f 101 82 123 
f 74 101 123 
f 113 74 123 
f 82 113 123 
f 104 85 124 
f 111 78 124 
f 85 111 124 
f 78 115 124 
f 115 104 124 
f 71 89 125 
f 101 71 125 
f 72 106 125 
f 106 101 125 
f 80 108 125 
f 108 72 125 
f 88 74 126 
f 102 88 126 
f 74 113 126 
f 113 102 126 
f 66 67 127 
f 67 80 127 
f 95 66 127 
f 89 122 127 
f 122 95 127 
f 125 89 127 
f 80 125 127 
f 91 71 128 
f 97 91 128 
f 71 101 128 
o convex_2
v -0.002132 0.018568 0.031671
v -0.003443 0.008956 0.006335
v -0.003443 0.017254 0.006335
v 0.013158 0.017254 0.016386
v 0.006169 -0.004587 0.028176
v -0.010433 -0.004587 0.021187
v 0.006169 -0.004587 0.010707
v -0.013055 0.017693 0.017258
v 0.009225 0.019877 0.025556
v -0.007374 0.008956 0.030799
v -0.007811 -0.004587 0.012016
v 0.007477 0.017254 0.008085
v 0.010536 -0.004587 0.020314
v 0.011408 0.008954 0.026868
v -0.006938 0.019877 0.010707
v 0.003107 0.008956 0.032549
v -0.003005 -0.004587 0.029490
v -0.011305 0.017254 0.026868
v -0.010869 0.008956 0.011144
v 0.011408 0.008954 0.012016
v -0.009122 0.019877 0.025556
v 0.007477 0.019877 0.011144
v 0.007477 0.017254 0.030799
v -0.013055 0.008956 0.022934
v 0.003544 0.008956 0.006335
v -0.001693 -0.004587 0.008957
v -0.013055 0.008956 0.015950
v 0.013158 0.017254 0.022498
v -0.008686 -0.004587 0.025556
v -0.008249 0.017254 0.008521
v 0.013158 0.008515 0.017261
v 0.009661 -0.004587 0.015077
v -0.003005 0.008956 0.032549
v -0.003005 0.017254 0.032549
v 0.007477 0.008954 0.030799
v 0.001799 0.020316 0.023809
v 0.000488 0.019877 0.030362
v 0.013158 0.008954 0.022498
v 0.007477 0.008954 0.008085
v -0.011305 0.008956 0.026868
v -0.008249 0.008956 0.008521
v 0.002235 0.017693 0.006335
v 0.000924 -0.004587 0.029926
v -0.009558 -0.004587 0.014638
v 0.008788 -0.004587 0.025556
v 0.010972 0.019877 0.019006
v -0.010869 0.017254 0.011144
v -0.010869 0.019877 0.017694
v -0.007374 0.017254 0.030799
v 0.003107 0.017254 0.032549
v -0.013055 0.017254 0.022934
v 0.011408 0.017254 0.012016
v -0.001693 0.019877 0.008521
v 0.011408 0.017254 0.026868
v -0.003005 0.020316 0.015513
v -0.004755 -0.004587 0.009832
v 0.003544 -0.004587 0.009394
v -0.006066 -0.004587 0.028176
v -0.006066 0.019877 0.028612
v 0.003982 0.020316 0.016822
v 0.006169 0.019877 0.028612
v -0.010433 -0.004587 0.017694
v 0.003544 0.019877 0.008957
v -0.004316 0.020316 0.021625
f 187 164 192 
f 133 134 135 
f 135 134 139 
f 133 135 141 
f 134 133 145 
f 130 131 153 
f 135 139 154 
f 130 153 154 
f 134 152 155 
f 152 136 155 
f 134 145 157 
f 152 134 157 
f 131 130 158 
f 143 131 158 
f 148 132 159 
f 132 156 159 
f 141 135 160 
f 135 148 160 
f 159 141 160 
f 148 159 160 
f 138 145 161 
f 138 161 162 
f 161 144 162 
f 133 142 163 
f 144 133 163 
f 142 151 163 
f 151 144 163 
f 156 142 166 
f 141 159 166 
f 159 156 166 
f 148 135 167 
f 140 148 167 
f 153 140 167 
f 138 146 168 
f 146 152 168 
f 157 138 168 
f 152 157 168 
f 139 147 169 
f 158 130 169 
f 147 158 169 
f 153 131 170 
f 140 153 170 
f 133 144 171 
f 145 133 171 
f 144 161 171 
f 161 145 171 
f 139 134 172 
f 147 139 172 
f 155 147 172 
f 133 141 173 
f 142 133 173 
f 141 166 173 
f 166 142 173 
f 156 132 174 
f 137 156 174 
f 155 136 175 
f 147 155 175 
f 143 158 175 
f 158 147 175 
f 175 136 176 
f 143 175 176 
f 146 138 177 
f 149 146 177 
f 138 162 177 
f 162 129 177 
f 144 151 178 
f 129 162 178 
f 162 144 178 
f 165 129 178 
f 146 149 179 
f 136 152 179 
f 152 146 179 
f 176 136 179 
f 149 176 179 
f 148 140 180 
f 132 148 180 
f 140 150 180 
f 174 132 180 
f 150 174 180 
f 131 143 181 
f 170 131 181 
f 137 151 182 
f 151 142 182 
f 156 137 182 
f 142 156 182 
f 143 176 183 
f 181 143 183 
f 130 154 184 
f 154 139 184 
f 139 169 184 
f 169 130 184 
f 135 154 185 
f 154 153 185 
f 167 135 185 
f 153 167 185 
f 145 138 186 
f 157 145 186 
f 138 157 186 
f 129 165 187 
f 165 164 187 
f 177 129 187 
f 149 177 187 
f 164 137 188 
f 174 150 188 
f 137 174 188 
f 183 164 188 
f 151 137 189 
f 137 164 189 
f 164 165 189 
f 178 151 189 
f 165 178 189 
f 134 155 190 
f 172 134 190 
f 155 172 190 
f 150 140 191 
f 140 170 191 
f 170 181 191 
f 181 183 191 
f 188 150 191 
f 183 188 191 
f 176 149 192 
f 164 183 192 
f 183 176 192 
f 149 187 192 
o convex_3
v 0.004420 0.056574 0.019006
v -0.004754 0.020316 0.019006
v -0.004754 0.020316 0.019441
v -0.002569 0.084970 0.018569
v -0.001696 0.056136 0.023810
v 0.002235 0.020316 0.015074
v 0.002673 0.020316 0.023372
v -0.000823 0.067932 0.015074
v 0.002673 0.084094 0.020751
v -0.003006 0.020316 0.015511
v 0.002235 0.067932 0.015511
v -0.004317 0.067932 0.018569
v -0.002569 0.020316 0.023372
v -0.003880 0.067932 0.021625
v 0.004420 0.020316 0.017694
v 0.002673 0.067932 0.022936
v -0.001258 0.084101 0.022062
v 0.001799 0.084970 0.017258
v 0.004420 0.055698 0.021189
v -0.003880 0.055698 0.016384
v 0.003983 0.067495 0.017258
v 0.004420 0.020316 0.021189
v 0.000488 0.090218 0.019877
v -0.000385 0.055698 0.014637
v -0.002132 0.084101 0.017258
v -0.004317 0.055698 0.021625
v 0.001799 0.020316 0.023810
v 0.001799 0.055698 0.023810
v -0.000385 0.020316 0.014637
v -0.004317 0.020316 0.021625
v -0.002132 0.067495 0.023372
v 0.001361 0.084101 0.022062
v -0.002132 0.055698 0.015074
v -0.004754 0.055698 0.019006
v -0.002569 0.084525 0.020751
v 0.002235 0.055698 0.015074
v -0.004317 0.020316 0.017258
v 0.003983 0.056136 0.016821
v 0.003983 0.056136 0.022062
v 0.003983 0.067932 0.021189
v 0.000924 0.084970 0.016822
v -0.001696 0.020316 0.023810
v 0.001799 0.067932 0.023372
v 0.002673 0.084532 0.018568
v -0.002132 0.067932 0.015511
v -0.000385 0.090218 0.019006
v -0.003880 0.067932 0.017258
v -0.002569 0.056136 0.023372
v -0.004317 0.067932 0.020315
v 0.000924 0.067932 0.015074
v 0.002673 0.056136 0.023373
v 0.003983 0.020316 0.016821
v -0.001258 0.084525 0.016822
v 0.004420 0.056136 0.017694
v -0.004317 0.055698 0.017258
v 0.003983 0.020316 0.022062
v -0.003006 0.055698 0.015511
v 0.000050 0.055698 0.014637
v -0.003880 0.020316 0.016384
v -0.002132 0.020316 0.015074
f 225 221 252 
f 195 194 198 
f 195 198 199 
f 198 194 202 
f 195 199 205 
f 199 198 207 
f 207 193 211 
f 203 210 213 
f 199 207 214 
f 207 211 214 
f 205 199 219 
f 197 219 220 
f 198 202 221 
f 195 205 222 
f 218 195 222 
f 205 218 222 
f 208 201 224 
f 201 215 224 
f 215 209 224 
f 200 216 225 
f 216 221 225 
f 194 195 226 
f 195 218 226 
f 209 215 227 
f 223 209 227 
f 206 223 227 
f 202 194 229 
f 194 226 229 
f 203 213 230 
f 198 228 230 
f 228 203 230 
f 214 211 231 
f 201 208 232 
f 211 193 232 
f 193 213 232 
f 208 231 232 
f 231 211 232 
f 210 203 233 
f 197 205 234 
f 219 197 234 
f 205 219 234 
f 197 220 235 
f 223 197 235 
f 209 223 235 
f 208 224 235 
f 224 209 235 
f 213 210 236 
f 215 201 236 
f 210 215 236 
f 201 232 236 
f 232 213 236 
f 200 225 237 
f 215 210 238 
f 217 196 238 
f 196 227 238 
f 227 215 238 
f 210 233 238 
f 204 196 239 
f 196 217 239 
f 217 237 239 
f 237 212 239 
f 205 197 240 
f 218 205 240 
f 206 218 240 
f 197 223 240 
f 223 206 240 
f 196 204 241 
f 218 206 241 
f 204 226 241 
f 226 218 241 
f 227 196 241 
f 206 227 241 
f 216 200 242 
f 203 228 242 
f 200 233 242 
f 233 203 242 
f 219 199 243 
f 220 219 243 
f 231 208 243 
f 208 235 243 
f 235 220 243 
f 207 198 244 
f 230 207 244 
f 198 230 244 
f 233 200 245 
f 200 237 245 
f 237 217 245 
f 217 238 245 
f 238 233 245 
f 193 207 246 
f 213 193 246 
f 207 230 246 
f 230 213 246 
f 226 204 247 
f 212 229 247 
f 229 226 247 
f 204 239 247 
f 239 212 247 
f 199 214 248 
f 214 231 248 
f 243 199 248 
f 231 243 248 
f 202 212 249 
f 225 202 249 
f 212 237 249 
f 237 225 249 
f 198 221 250 
f 221 216 250 
f 228 198 250 
f 216 242 250 
f 242 228 250 
f 212 202 251 
f 202 229 251 
f 229 212 251 
f 221 202 252 
f 202 225 252 
