o convex_0
v 0.000980 -0.018852 0.020767
v -0.001669 -0.018264 -0.000143
v -0.001669 -0.014437 -0.000143
v 0.010408 -0.014143 0.008103
v -0.009034 -0.007955 0.014580
v -0.007562 -0.025336 0.008693
v 0.007462 -0.025336 0.008103
v 0.009819 -0.008251 0.013991
v -0.007267 -0.008251 0.002801
v 0.007755 -0.008251 0.003096
v -0.003731 -0.025336 0.017232
v -0.004026 -0.008251 0.020178
v 0.005988 -0.025336 0.015465
v -0.010211 -0.018264 0.013403
v 0.002747 -0.025336 0.003096
v 0.004811 -0.008545 0.019885
v 0.008934 -0.018264 0.016347
v -0.009624 -0.018558 0.005747
v 0.006578 -0.018264 0.001918
v -0.006383 -0.018264 0.019000
v 0.000980 -0.008544 -0.000143
v -0.004026 -0.025336 0.003685
v -0.010211 -0.008251 0.010750
v 0.010408 -0.018264 0.012814
v -0.005795 -0.018264 0.001329
v 0.003631 -0.007660 0.011340
v 0.009524 -0.018264 0.005452
v 0.005398 -0.018558 0.019588
v 0.002159 -0.025336 0.017821
v -0.006383 -0.025336 0.014875
v 0.003042 -0.018264 0.000150
v -0.001964 -0.007957 0.000739
v -0.002257 -0.018558 0.020767
v 0.010408 -0.008251 0.011634
v -0.008444 -0.014143 0.016937
v -0.010508 -0.018558 0.009282
v -0.008739 -0.008545 0.004275
v 0.003926 -0.007957 0.019588
v 0.002452 -0.014143 0.020767
v 0.006283 -0.025336 0.005747
v 0.007462 -0.025336 0.012519
v 0.010408 -0.018558 0.008398
v -0.010211 -0.008251 0.013109
v -0.008739 -0.018264 0.016644
v 0.008934 -0.008251 0.004864
v -0.008739 -0.007955 0.005747
v -0.008149 -0.018264 0.003390
v 0.007462 -0.014731 0.018116
v -0.010508 -0.014143 0.008693
v -0.006088 -0.025336 0.005452
v 0.003926 -0.014143 0.000444
v -0.003731 -0.007660 0.010750
v -0.007562 -0.025336 0.012224
v 0.007167 -0.007955 0.003390
v -0.004910 -0.008545 0.019883
v -0.001080 -0.008840 -0.000143
v -0.001669 -0.025336 0.002801
v -0.000785 -0.025336 0.018116
v 0.009819 -0.007955 0.012519
v -0.004616 -0.014143 0.000739
v 0.000980 -0.018558 -0.000143
v -0.004616 -0.007955 0.019293
v 0.000096 -0.007660 0.006631
v 0.003631 -0.018264 0.020472
f 39 1 64 
f 6 7 11 
f 11 7 13 
f 7 6 15 
f 2 3 21 
f 15 6 22 
f 8 17 24 
f 19 10 27 
f 13 17 28 
f 11 13 29 
f 13 28 29 
f 6 11 30 
f 11 20 30 
f 19 15 31 
f 20 11 33 
f 24 4 34 
f 8 24 34 
f 18 6 36 
f 12 16 38 
f 16 8 38 
f 16 12 39 
f 33 1 39 
f 12 33 39 
f 7 15 40 
f 15 19 40 
f 27 7 40 
f 19 27 40 
f 13 7 41 
f 17 13 41 
f 24 17 41 
f 24 41 42 
f 4 24 42 
f 27 4 42 
f 7 27 42 
f 41 7 42 
f 5 23 43 
f 35 5 43 
f 36 14 43 
f 14 30 44 
f 30 20 44 
f 20 35 44 
f 35 43 44 
f 43 14 44 
f 4 27 45 
f 27 10 45 
f 34 4 45 
f 23 5 46 
f 32 9 46 
f 37 23 46 
f 9 37 46 
f 9 25 47 
f 37 9 47 
f 18 37 47 
f 8 16 48 
f 17 8 48 
f 16 28 48 
f 28 17 48 
f 18 36 49 
f 23 37 49 
f 37 18 49 
f 43 23 49 
f 36 43 49 
f 6 18 50 
f 22 6 50 
f 25 22 50 
f 18 47 50 
f 47 25 50 
f 10 19 51 
f 21 10 51 
f 19 31 51 
f 31 21 51 
f 46 5 52 
f 6 30 53 
f 30 14 53 
f 36 6 53 
f 14 36 53 
f 10 21 54 
f 21 32 54 
f 45 10 54 
f 33 12 55 
f 20 33 55 
f 5 35 55 
f 35 20 55 
f 21 3 56 
f 9 32 56 
f 32 21 56 
f 15 22 57 
f 25 2 57 
f 22 25 57 
f 29 1 58 
f 11 29 58 
f 1 33 58 
f 33 11 58 
f 8 34 59 
f 38 8 59 
f 26 38 59 
f 34 45 59 
f 54 26 59 
f 45 54 59 
f 3 2 60 
f 2 25 60 
f 25 9 60 
f 56 3 60 
f 9 56 60 
f 2 21 61 
f 31 15 61 
f 21 31 61 
f 15 57 61 
f 57 2 61 
f 12 38 62 
f 38 26 62 
f 26 52 62 
f 52 5 62 
f 5 55 62 
f 55 12 62 
f 32 46 63 
f 52 26 63 
f 46 52 63 
f 54 32 63 
f 26 54 63 
f 28 16 64 
f 1 29 64 
f 29 28 64 
f 16 39 64 
o convex_1
v 0.003338 0.013559 0.011341
v -0.003438 0.072471 0.010164
v -0.003438 0.072471 0.010459
v -0.003143 -0.007660 0.011930
v -0.001375 -0.007660 0.007219
v 0.002748 0.077480 0.008102
v 0.000981 0.072471 0.013699
v 0.000981 -0.007660 0.013699
v 0.003043 -0.007660 0.008691
v -0.001375 0.072763 0.007219
v -0.002554 0.076888 0.012815
v 0.003043 0.077480 0.012225
v -0.002848 -0.007660 0.008397
v 0.001275 -0.007660 0.007219
v -0.001670 -0.007660 0.013404
v -0.003143 0.077180 0.008691
v 0.002748 -0.007660 0.012520
v 0.003338 0.077480 0.008986
v 0.001275 0.073054 0.007219
v -0.000786 0.072763 0.013699
v -0.003438 0.077480 0.011342
v 0.002159 0.076888 0.013109
v -0.003143 -0.007660 0.008986
v 0.003338 -0.007660 0.009575
v -0.002259 0.076888 0.007807
v 0.003338 0.077480 0.011637
v -0.000786 -0.007660 0.013699
v 0.001865 -0.007660 0.007513
v -0.002554 -0.007660 0.012815
v 0.002159 -0.007660 0.013109
v -0.001965 -0.007660 0.007513
v -0.003438 0.077480 0.009281
v -0.002848 0.076588 0.012520
v -0.001669 0.073054 0.013403
v 0.003338 -0.007660 0.011047
v 0.001865 0.076296 0.007513
v -0.000786 0.077480 0.013109
v 0.000392 0.077180 0.007513
v 0.003043 0.076296 0.008397
v -0.001965 0.073354 0.007513
v -0.001965 0.077480 0.007807
f 70 102 105 
f 67 66 68 
f 68 69 72 
f 72 69 73 
f 69 68 77 
f 73 69 78 
f 69 74 78 
f 68 72 79 
f 72 73 81 
f 70 76 82 
f 78 74 83 
f 72 71 84 
f 66 67 85 
f 67 68 85 
f 76 70 85 
f 71 72 86 
f 68 66 87 
f 77 68 87 
f 81 73 88 
f 73 82 88 
f 82 65 88 
f 77 80 89 
f 81 65 90 
f 76 81 90 
f 65 82 90 
f 82 76 90 
f 79 72 91 
f 72 84 91 
f 84 79 91 
f 73 78 92 
f 78 83 92 
f 68 79 93 
f 79 75 93 
f 72 81 94 
f 81 76 94 
f 86 72 94 
f 76 86 94 
f 74 69 95 
f 69 77 95 
f 77 89 95 
f 80 77 96 
f 66 85 96 
f 85 70 96 
f 87 66 96 
f 77 87 96 
f 85 68 97 
f 75 85 97 
f 68 93 97 
f 93 75 97 
f 75 79 98 
f 84 75 98 
f 79 84 98 
f 65 81 99 
f 88 65 99 
f 81 88 99 
f 70 92 100 
f 92 83 100 
f 84 71 101 
f 75 84 101 
f 85 75 101 
f 76 85 101 
f 71 86 101 
f 86 76 101 
f 83 74 102 
f 100 83 102 
f 70 100 102 
f 70 82 103 
f 82 73 103 
f 92 70 103 
f 73 92 103 
f 89 74 104 
f 74 95 104 
f 95 89 104 
f 74 89 105 
f 89 80 105 
f 80 96 105 
f 96 70 105 
f 102 74 105 
o convex_2
v 0.002748 0.087494 0.008692
v -0.004614 0.078071 0.008397
v -0.004026 0.077776 0.011341
v 0.004809 0.078365 0.007808
v 0.004515 0.078365 0.013404
v -0.002553 0.090146 0.011341
v -0.004320 0.078954 0.013404
v 0.002453 0.090146 0.011341
v -0.001964 0.090146 0.009280
v -0.002847 0.080426 0.007513
v 0.002159 0.077481 0.007808
v 0.001570 0.077481 0.013109
v 0.001864 0.090146 0.011636
v -0.004614 0.079838 0.008397
v 0.003926 0.080426 0.007513
v 0.001864 0.089851 0.008986
v 0.004809 0.078954 0.013109
v -0.004614 0.079838 0.012814
v -0.004026 0.078365 0.007513
v 0.002748 0.089262 0.009280
v -0.002847 0.077481 0.008397
v 0.003632 0.077481 0.010752
v 0.004221 0.079249 0.013404
v -0.001964 0.090146 0.011636
v -0.004614 0.078071 0.012814
v -0.002553 0.090146 0.009870
v 0.004221 0.078071 0.007513
v -0.002553 0.077481 0.012520
v 0.004809 0.078954 0.007808
v -0.000785 0.089851 0.008986
v -0.004026 0.080426 0.007808
f 119 131 136 
f 111 113 114 
f 110 112 117 
f 113 111 118 
f 114 113 121 
f 106 120 121 
f 120 115 121 
f 110 109 122 
f 112 111 123 
f 119 107 123 
f 111 119 123 
f 107 119 124 
f 115 120 124 
f 106 121 125 
f 121 113 125 
f 113 122 125 
f 108 107 126 
f 116 117 126 
f 107 124 126 
f 124 116 126 
f 109 110 127 
f 110 117 127 
f 117 116 127 
f 112 110 128 
f 113 118 128 
f 110 122 128 
f 122 113 128 
f 111 112 129 
f 118 111 129 
f 112 128 129 
f 128 118 129 
f 107 108 130 
f 117 112 130 
f 123 107 130 
f 112 123 130 
f 111 114 131 
f 119 111 131 
f 116 124 132 
f 124 120 132 
f 109 127 132 
f 127 116 132 
f 108 126 133 
f 126 117 133 
f 130 108 133 
f 117 130 133 
f 120 106 134 
f 122 109 134 
f 106 125 134 
f 125 122 134 
f 109 132 134 
f 132 120 134 
f 115 114 135 
f 114 121 135 
f 121 115 135 
f 114 115 136 
f 115 124 136 
f 124 119 136 
f 131 114 136 
o convex_3
v 0.000980 -0.088084 0.020769
v -0.001374 -0.087790 -0.000147
v -0.001962 -0.088379 0.000148
v -0.010508 -0.084256 0.012223
v 0.010408 -0.084256 0.010753
v 0.009524 -0.089262 0.009871
v -0.008444 -0.089557 0.011927
v 0.007462 -0.084256 0.002799
v -0.004319 -0.084256 0.020180
v -0.007560 -0.084256 0.002799
v 0.005398 -0.084256 0.019588
v 0.005398 -0.089263 0.002504
v 0.006873 -0.089262 0.016936
v -0.006380 -0.088968 0.018116
v -0.008444 -0.088968 0.005158
v -0.001667 -0.090146 0.007514
v 0.001570 -0.089851 0.017233
v 0.001275 -0.084845 -0.000147
v 0.009524 -0.087790 0.015170
v 0.009524 -0.088084 0.005747
v -0.010508 -0.088084 0.009871
v -0.008739 -0.088084 0.016347
v -0.002257 -0.089558 0.001915
v 0.006873 -0.089851 0.009871
v 0.005398 -0.088084 0.001327
v 0.005988 -0.088379 0.018998
v -0.005793 -0.088379 0.001622
v -0.001962 -0.088673 0.020472
v -0.004614 -0.089851 0.015757
v 0.009819 -0.084256 0.014285
v -0.009032 -0.084256 0.004863
v 0.010408 -0.088379 0.011050
v -0.006675 -0.089851 0.008104
v 0.004811 -0.089851 0.005158
v -0.009916 -0.084256 0.014285
v 0.003337 -0.084551 0.020472
v -0.008739 -0.087789 0.004273
v -0.001374 -0.084845 -0.000147
v 0.002157 -0.090146 0.013106
v 0.002747 -0.088674 0.000443
v 0.002452 -0.089262 0.019590
v -0.009916 -0.088379 0.013698
v 0.008934 -0.084256 0.004568
v -0.006675 -0.087789 0.018705
v -0.002552 -0.089557 0.018705
v 0.007755 -0.089557 0.014285
v 0.007462 -0.088084 0.002799
v 0.008345 -0.089262 0.005747
v -0.006086 -0.084256 0.019000
v -0.002552 -0.090146 0.012811
v 0.004221 -0.087789 0.020180
v -0.005201 -0.089557 0.003389
v 0.008050 -0.087495 0.017231
v -0.003434 -0.087789 0.020472
v 0.010112 -0.088084 0.007516
v -0.009325 -0.089262 0.009281
v -0.008444 -0.089262 0.014875
v 0.008934 -0.088968 0.014875
v -0.009916 -0.088084 0.006925
v 0.002157 -0.089558 0.001915
v 0.002747 -0.090146 0.008399
v 0.010408 -0.087201 0.012811
v -0.004910 -0.087495 0.001032
v -0.001374 -0.086908 0.020769
f 190 164 200 
f 140 141 144 
f 141 140 145 
f 140 144 146 
f 141 145 147 
f 146 144 154 
f 154 144 161 
f 139 159 163 
f 141 147 166 
f 140 146 167 
f 157 140 167 
f 165 143 169 
f 145 140 171 
f 147 145 172 
f 146 163 173 
f 163 151 173 
f 167 146 173 
f 154 138 174 
f 146 154 174 
f 139 138 176 
f 138 154 176 
f 159 139 176 
f 161 148 176 
f 154 161 176 
f 153 149 177 
f 149 162 177 
f 137 164 177 
f 140 157 178 
f 171 140 178 
f 158 171 178 
f 144 141 179 
f 158 150 180 
f 164 150 181 
f 150 165 181 
f 165 153 181 
f 153 177 181 
f 177 164 181 
f 149 153 182 
f 160 142 182 
f 153 175 182 
f 175 160 182 
f 148 161 183 
f 161 144 183 
f 144 179 183 
f 179 156 183 
f 142 160 184 
f 170 148 184 
f 160 170 184 
f 148 183 184 
f 183 156 184 
f 145 171 185 
f 171 158 185 
f 158 180 185 
f 180 145 185 
f 153 165 186 
f 169 152 186 
f 165 169 186 
f 175 153 186 
f 152 175 186 
f 162 147 187 
f 172 137 187 
f 147 172 187 
f 137 177 187 
f 177 162 187 
f 159 152 188 
f 151 163 188 
f 163 159 188 
f 169 151 188 
f 152 169 188 
f 147 162 189 
f 162 155 189 
f 166 147 189 
f 155 166 189 
f 150 164 190 
f 180 150 190 
f 145 180 190 
f 168 142 191 
f 141 168 191 
f 179 141 191 
f 156 179 191 
f 142 184 191 
f 184 156 191 
f 169 143 192 
f 151 169 192 
f 178 157 192 
f 178 192 193 
f 150 158 193 
f 143 165 193 
f 165 150 193 
f 158 178 193 
f 192 143 193 
f 162 149 194 
f 155 162 194 
f 142 168 194 
f 168 155 194 
f 149 182 194 
f 182 142 194 
f 157 167 195 
f 173 151 195 
f 167 173 195 
f 151 192 195 
f 192 157 195 
f 152 159 196 
f 148 170 196 
f 170 152 196 
f 159 176 196 
f 176 148 196 
f 152 170 197 
f 170 160 197 
f 160 175 197 
f 175 152 197 
f 141 166 198 
f 166 155 198 
f 155 168 198 
f 168 141 198 
f 138 139 199 
f 139 163 199 
f 163 146 199 
f 174 138 199 
f 146 174 199 
f 164 137 200 
f 137 172 200 
f 172 145 200 
f 145 190 200 
o convex_4
v 0.003337 -0.071293 0.002504
v -0.004614 -0.084843 0.002504
v -0.004614 -0.084843 0.002799
v 0.004515 -0.084843 0.002799
v 0.001275 -0.084843 -0.000147
v -0.001080 -0.071293 -0.000147
v -0.003436 -0.071590 0.002799
v 0.001570 -0.071293 0.000148
v -0.001374 -0.084843 -0.000147
v 0.003337 -0.071293 0.002799
v 0.004515 -0.082781 0.002504
v -0.001669 -0.071293 0.000148
v 0.001865 -0.084843 0.000148
v 0.000981 -0.071293 -0.000147
v -0.003436 -0.071590 0.002504
v -0.004614 -0.083370 0.002504
v -0.003142 -0.071293 0.002799
f 212 215 217 
f 203 202 204 
f 204 202 205 
f 203 204 207 
f 206 201 208 
f 205 202 209 
f 206 205 209 
f 201 206 210 
f 207 204 210 
f 208 201 211 
f 201 210 211 
f 210 204 211 
f 206 209 212 
f 210 206 212 
f 204 205 213 
f 211 204 213 
f 208 211 213 
f 205 206 214 
f 206 208 214 
f 213 205 214 
f 208 213 214 
f 215 212 216 
f 202 203 216 
f 203 207 216 
f 209 202 216 
f 212 209 216 
f 207 215 216 
f 207 210 217 
f 210 212 217 
f 215 207 217 
o convex_5
v 0.005400 -0.034763 0.019296
v 0.000687 -0.071293 0.015172
v 0.005695 -0.071293 0.015172
v 0.002749 -0.071293 0.020180
v 0.000687 -0.034763 0.015172
v 0.005105 -0.034763 0.015172
v 0.000687 -0.035353 0.017529
v 0.005695 -0.071293 0.019296
v 0.006873 -0.070109 0.015172
v 0.002749 -0.034763 0.019885
v 0.000687 -0.071293 0.018706
v 0.003927 -0.040656 0.020180
v 0.005695 -0.034763 0.019001
v 0.004221 -0.071293 0.020180
v 0.004811 -0.034763 0.019885
v 0.005695 -0.034763 0.017823
v 0.006873 -0.071293 0.015467
v 0.002749 -0.056857 0.020180
v 0.000687 -0.066873 0.018706
v 0.005400 -0.056557 0.019591
v 0.002160 -0.034763 0.019296
v 0.005695 -0.059504 0.019296
f 237 225 239 
f 219 220 221 
f 220 219 222 
f 222 218 223 
f 220 222 223 
f 222 219 224 
f 221 220 225 
f 220 223 226 
f 218 222 227 
f 219 221 228 
f 224 219 228 
f 223 218 230 
f 221 225 231 
f 229 221 231 
f 229 231 232 
f 218 227 232 
f 227 229 232 
f 226 223 233 
f 223 230 233 
f 230 226 233 
f 225 220 234 
f 220 226 234 
f 226 230 234 
f 228 221 235 
f 221 229 235 
f 229 227 235 
f 224 228 236 
f 235 227 236 
f 228 235 236 
f 230 218 237 
f 231 225 237 
f 232 231 237 
f 218 232 237 
f 222 224 238 
f 227 222 238 
f 224 236 238 
f 236 227 238 
f 225 234 239 
f 234 230 239 
f 230 237 239 
o convex_6
v 0.005399 -0.084255 0.019590
v -0.007561 -0.084255 0.002799
v -0.008446 -0.084255 0.003683
v 0.010408 -0.071294 0.012519
v -0.009918 -0.071294 0.013992
v 0.007168 -0.071294 0.002799
v 0.008640 -0.084255 0.003979
v -0.005794 -0.084255 0.019294
v 0.004221 -0.071294 0.020180
v -0.007856 -0.071294 0.003095
v -0.010507 -0.084255 0.012224
v 0.010408 -0.084255 0.012813
v -0.004320 -0.071590 0.020180
v 0.007460 -0.084255 0.002799
v -0.010507 -0.072179 0.011634
v -0.004320 -0.084255 0.020180
v 0.008934 -0.071294 0.004862
v 0.010114 -0.071294 0.013698
v -0.009033 -0.071590 0.004862
v 0.010408 -0.084255 0.010753
v -0.009918 -0.084255 0.014286
v 0.004221 -0.084255 0.020180
v -0.005794 -0.072767 0.019294
v 0.005693 -0.071294 0.019294
v 0.009819 -0.084255 0.014286
v -0.007266 -0.071294 0.002799
v -0.010507 -0.084255 0.011049
v 0.010408 -0.071294 0.011047
v -0.009033 -0.084255 0.004862
v -0.004910 -0.071294 0.019884
v 0.008345 -0.071294 0.003683
v 0.008934 -0.075124 0.004568
v -0.010212 -0.071294 0.013403
v 0.008934 -0.084255 0.004568
v 0.009819 -0.076007 0.014286
v 0.005988 -0.084255 0.019001
v -0.010507 -0.078657 0.011049
f 258 266 276 
f 242 241 240 
f 244 243 245 
f 240 241 246 
f 242 240 247 
f 243 244 248 
f 241 242 249 
f 244 245 249 
f 242 247 250 
f 240 246 251 
f 241 245 253 
f 246 241 253 
f 247 240 255 
f 248 252 255 
f 245 243 256 
f 243 248 257 
f 251 243 257 
f 249 242 258 
f 243 251 259 
f 251 246 259 
f 250 247 260 
f 240 248 261 
f 255 240 261 
f 248 255 261 
f 244 260 262 
f 260 247 262 
f 248 240 263 
f 257 248 263 
f 240 251 264 
f 251 257 264 
f 245 241 265 
f 241 249 265 
f 249 245 265 
f 242 250 266 
f 250 254 266 
f 256 243 267 
f 243 259 267 
f 258 242 268 
f 242 266 268 
f 266 258 268 
f 248 244 269 
f 252 248 269 
f 247 255 269 
f 255 252 269 
f 262 247 269 
f 244 262 269 
f 253 245 270 
f 246 253 270 
f 245 256 270 
f 270 256 271 
f 256 267 271 
f 267 259 271 
f 246 270 271 
f 244 249 272 
f 254 250 272 
f 249 258 272 
f 258 254 272 
f 260 244 272 
f 250 260 272 
f 259 246 273 
f 246 271 273 
f 271 259 273 
f 257 263 274 
f 264 257 274 
f 264 274 275 
f 263 240 275 
f 240 264 275 
f 274 263 275 
f 254 258 276 
f 266 254 276 
o convex_7
v -0.001374 -0.035057 0.000148
v 0.007166 -0.025336 0.009574
v 0.007461 -0.025631 0.009574
v -0.009624 -0.032993 0.009574
v 0.006871 -0.035057 0.009574
v -0.004025 -0.025336 0.003978
v 0.007461 -0.032993 0.003094
v -0.007264 -0.025336 0.009574
v -0.008444 -0.035057 0.003978
v 0.003337 -0.025631 0.003388
v 0.008639 -0.035056 0.004567
v -0.006971 -0.035057 0.009574
v 0.001274 -0.032700 0.000148
v 0.009819 -0.032405 0.009574
v -0.008149 -0.032993 0.003683
v 0.006871 -0.025336 0.007217
v -0.003437 -0.032405 0.001032
v -0.001374 -0.025631 0.002799
v -0.007264 -0.025631 0.007806
v 0.008639 -0.032699 0.004567
v 0.001274 -0.035057 0.000148
v -0.009624 -0.032405 0.008101
v 0.004515 -0.025336 0.004273
v 0.004220 -0.032405 0.001326
v -0.001079 -0.032700 0.000148
v -0.005498 -0.025336 0.005154
v -0.007561 -0.032993 0.003094
v 0.007461 -0.035057 0.003094
v 0.009524 -0.032405 0.007511
v 0.001864 -0.025336 0.003094
v 0.005988 -0.025631 0.005449
v -0.008739 -0.032700 0.004859
v 0.009819 -0.032994 0.009574
v -0.008739 -0.035057 0.005449
v 0.007461 -0.025631 0.008395
v -0.007561 -0.035057 0.003094
v -0.006383 -0.025631 0.006039
v -0.002847 -0.025926 0.003094
v -0.007561 -0.025631 0.009574
f 295 298 315 
f 279 278 280 
f 279 280 281 
f 280 278 284 
f 278 282 284 
f 277 281 285 
f 281 280 288 
f 285 281 288 
f 279 281 290 
f 282 278 292 
f 287 283 296 
f 281 277 297 
f 277 289 297 
f 283 286 299 
f 282 292 299 
f 286 283 300 
f 289 286 300 
f 297 289 300 
f 289 277 301 
f 277 293 301 
f 294 289 301 
f 284 282 302 
f 295 284 302 
f 285 291 303 
f 302 282 303 
f 291 302 303 
f 287 281 304 
f 283 287 304 
f 281 297 304 
f 300 283 304 
f 297 300 304 
f 287 296 305 
f 286 289 306 
f 294 282 306 
f 289 294 306 
f 299 286 306 
f 282 299 306 
f 296 283 307 
f 292 296 307 
f 283 299 307 
f 299 292 307 
f 291 285 308 
f 285 298 308 
f 298 295 308 
f 281 287 309 
f 290 281 309 
f 305 290 309 
f 287 305 309 
f 288 280 310 
f 285 288 310 
f 280 298 310 
f 298 285 310 
f 278 279 311 
f 279 290 311 
f 292 278 311 
f 296 292 311 
f 290 305 311 
f 305 296 311 
f 277 285 312 
f 293 277 312 
f 285 303 312 
f 303 293 312 
f 302 291 313 
f 295 302 313 
f 291 308 313 
f 308 295 313 
f 282 294 314 
f 301 293 314 
f 294 301 314 
f 293 303 314 
f 303 282 314 
f 280 284 315 
f 284 295 315 
f 298 280 315 
o convex_8
v 0.006872 -0.025345 0.013403
v -0.010213 -0.071284 0.011048
v -0.009919 -0.071284 0.010753
v 0.010113 -0.071293 0.013698
v 0.009819 -0.032411 0.009575
v -0.008740 -0.032411 0.015172
v -0.007561 -0.025637 0.009575
v 0.008640 -0.071293 0.009575
v -0.006972 -0.071284 0.015172
v 0.008640 -0.032411 0.015172
v -0.008445 -0.071284 0.009575
v 0.007166 -0.071284 0.015172
v -0.005793 -0.025345 0.015172
v -0.009919 -0.032411 0.009575
v 0.007461 -0.025345 0.009575
v -0.010213 -0.071284 0.013403
v -0.010213 -0.033000 0.012814
v 0.010113 -0.033000 0.013109
v 0.010408 -0.071293 0.011048
v 0.005693 -0.025345 0.015172
v -0.009624 -0.071284 0.014287
v 0.010408 -0.043607 0.012227
v -0.007266 -0.025345 0.012227
v -0.009919 -0.033000 0.013698
v 0.009524 -0.071293 0.014287
v -0.010213 -0.032708 0.011343
v 0.010113 -0.034768 0.013403
v 0.010113 -0.032703 0.010753
v 0.010408 -0.071293 0.012520
v -0.007266 -0.025345 0.009575
v -0.009919 -0.058914 0.013993
v 0.007166 -0.025637 0.013403
v -0.006972 -0.025929 0.013993
v 0.009229 -0.032703 0.014582
v 0.007756 -0.025925 0.010753
v 0.010113 -0.056854 0.013698
v 0.010408 -0.043899 0.011637
f 343 337 352 
f 322 320 323 
f 317 318 323 
f 321 324 325 
f 322 323 326 
f 323 318 326 
f 325 324 327 
f 321 325 328 
f 318 317 329 
f 326 318 329 
f 322 326 329 
f 320 322 330 
f 328 316 330 
f 317 323 331 
f 317 331 332 
f 323 320 334 
f 319 323 334 
f 316 328 335 
f 328 325 335 
f 324 321 336 
f 328 330 338 
f 332 331 339 
f 323 319 340 
f 319 325 340 
f 327 324 340 
f 325 327 340 
f 331 323 340 
f 324 336 340 
f 336 331 340 
f 329 317 341 
f 322 329 341 
f 317 332 341 
f 338 322 341 
f 332 338 341 
f 337 333 342 
f 320 330 343 
f 333 337 343 
f 319 334 344 
f 334 337 344 
f 330 322 345 
f 322 338 345 
f 338 330 345 
f 336 321 346 
f 331 336 346 
f 321 339 346 
f 339 331 346 
f 330 316 347 
f 316 335 347 
f 321 328 348 
f 328 338 348 
f 338 332 348 
f 332 339 348 
f 339 321 348 
f 335 325 349 
f 342 333 349 
f 333 347 349 
f 347 335 349 
f 343 330 350 
f 333 343 350 
f 330 347 350 
f 347 333 350 
f 325 319 351 
f 337 342 351 
f 319 344 351 
f 344 337 351 
f 349 325 351 
f 342 349 351 
f 334 320 352 
f 337 334 352 
f 320 343 352 
o convex_9
v 0.001276 -0.035057 0.000148
v -0.003143 -0.071289 0.002504
v -0.003143 -0.071289 0.002799
v 0.003338 -0.071289 0.002799
v 0.000981 -0.071289 -0.000147
v -0.001670 -0.035057 0.002799
v -0.001375 -0.035057 0.000148
v 0.001865 -0.035057 0.002799
v -0.001670 -0.071289 0.000148
v -0.000491 -0.035057 -0.000147
v 0.001865 -0.035057 0.001031
v 0.001570 -0.046552 0.000148
v -0.001670 -0.035057 0.000442
v 0.003338 -0.070403 0.002504
v -0.001081 -0.071289 -0.000147
v 0.001570 -0.071289 0.000148
v -0.003143 -0.068048 0.002504
v 0.000686 -0.039774 -0.000147
v -0.001670 -0.061568 0.000148
f 369 365 371 
f 355 354 356 
f 356 354 357 
f 355 356 358 
f 358 353 359 
f 353 358 360 
f 358 356 360 
f 357 354 361 
f 359 353 362 
f 353 360 363 
f 353 363 364 
f 358 359 365 
f 360 356 366 
f 363 360 366 
f 364 363 366 
f 357 361 367 
f 359 362 367 
f 362 357 367 
f 356 357 368 
f 357 364 368 
f 366 356 368 
f 364 366 368 
f 354 355 369 
f 355 358 369 
f 361 354 369 
f 358 365 369 
f 362 353 370 
f 357 362 370 
f 353 364 370 
f 364 357 370 
f 365 359 371 
f 367 361 371 
f 359 367 371 
f 361 369 371 
o convex_10
v 0.008640 -0.035057 0.004567
v -0.008740 -0.071289 0.004272
v -0.007856 -0.071289 0.003094
v 0.008345 -0.071289 0.009574
v -0.006972 -0.035057 0.009574
v -0.007560 -0.035057 0.003094
v 0.007167 -0.071289 0.002799
v -0.008445 -0.071289 0.009574
v 0.006873 -0.035057 0.009574
v 0.007461 -0.035057 0.003094
v -0.008740 -0.035057 0.005450
v 0.008935 -0.071289 0.004861
v -0.001669 -0.035057 0.002799
v -0.007266 -0.071289 0.002799
v 0.008640 -0.035057 0.005745
v 0.008345 -0.043899 0.003683
v -0.008445 -0.035057 0.003978
v 0.001864 -0.035057 0.002799
v 0.008935 -0.057443 0.005450
v 0.008345 -0.066870 0.009574
v 0.008345 -0.071289 0.003683
v -0.007266 -0.060387 0.002799
v -0.008740 -0.071289 0.005745
v 0.007167 -0.062157 0.002799
v -0.008445 -0.068931 0.009574
v 0.007167 -0.039480 0.009574
v 0.007755 -0.049201 0.003094
v -0.008740 -0.035057 0.004567
v 0.008935 -0.071289 0.005745
v 0.008640 -0.035359 0.004272
f 390 383 401 
f 373 374 375 
f 376 372 377 
f 375 374 378 
f 373 375 379 
f 375 376 379 
f 372 376 380 
f 376 375 380 
f 377 372 381 
f 376 377 382 
f 375 378 383 
f 377 381 384 
f 378 374 385 
f 384 378 385 
f 372 380 386 
f 374 373 388 
f 377 374 388 
f 382 377 388 
f 378 384 389 
f 384 381 389 
f 372 386 390 
f 390 386 391 
f 380 375 391 
f 383 378 392 
f 387 383 392 
f 374 377 393 
f 377 384 393 
f 385 374 393 
f 384 385 393 
f 373 379 394 
f 382 373 394 
f 378 389 395 
f 389 381 395 
f 379 376 396 
f 376 382 396 
f 394 379 396 
f 382 394 396 
f 386 380 397 
f 391 386 397 
f 380 391 397 
f 381 387 398 
f 392 378 398 
f 387 392 398 
f 395 381 398 
f 378 395 398 
f 373 382 399 
f 388 373 399 
f 382 388 399 
f 375 383 400 
f 383 390 400 
f 390 391 400 
f 391 375 400 
f 381 372 401 
f 387 381 401 
f 383 387 401 
f 372 390 401 
o convex_11
v -0.003141 -0.025926 0.017529
v 0.005399 -0.025336 0.015466
v 0.005988 -0.025926 0.015466
v -0.008446 -0.032995 0.015172
v 0.004516 -0.034763 0.019885
v 0.008641 -0.032995 0.015172
v -0.005203 -0.034763 0.019591
v -0.005497 -0.025336 0.015172
v 0.005105 -0.034763 0.015172
v 0.000981 -0.025336 0.017823
v -0.002257 -0.032406 0.020180
v 0.004516 -0.032995 0.019885
v -0.004908 -0.034763 0.015172
v -0.005497 -0.032995 0.019296
v 0.003632 -0.025631 0.017234
v 0.005399 -0.025336 0.015172
v 0.008049 -0.032406 0.016351
v -0.008446 -0.032406 0.015761
v -0.004614 -0.025631 0.016645
v 0.001864 -0.032406 0.020180
v 0.005694 -0.034763 0.019001
v 0.005694 -0.032700 0.019001
v -0.000784 -0.025926 0.018118
v -0.004614 -0.034763 0.019885
v -0.005792 -0.025631 0.015466
v -0.004024 -0.032700 0.019885
v 0.002158 -0.025631 0.017823
v -0.005792 -0.034763 0.018706
v -0.007559 -0.032406 0.016940
f 415 426 430 
f 407 405 409 
f 405 407 410 
f 406 408 410 
f 403 409 411 
f 405 410 414 
f 410 408 414 
f 404 403 416 
f 403 411 416 
f 403 404 417 
f 404 407 417 
f 409 403 417 
f 407 409 417 
f 407 404 418 
f 402 411 420 
f 411 409 420 
f 415 402 420 
f 412 406 421 
f 406 413 421 
f 406 410 422 
f 410 407 422 
f 413 406 422 
f 407 418 422 
f 422 418 423 
f 404 416 423 
f 416 413 423 
f 418 404 423 
f 413 422 423 
f 411 402 424 
f 412 421 424 
f 421 411 424 
f 408 406 425 
f 406 412 425 
f 415 408 425 
f 409 405 426 
f 405 419 426 
f 415 420 426 
f 420 409 426 
f 402 415 427 
f 424 402 427 
f 412 424 427 
f 425 412 427 
f 415 425 427 
f 416 411 428 
f 413 416 428 
f 411 421 428 
f 421 413 428 
f 405 414 429 
f 414 408 429 
f 419 405 429 
f 408 419 429 
f 408 415 430 
f 419 408 430 
f 426 419 430 
o convex_12
v -0.003437 -0.040656 0.020180
v -0.006678 -0.071293 0.015172
v -0.006678 -0.071293 0.015466
v 0.000687 -0.071293 0.018706
v 0.000687 -0.034763 0.015172
v -0.004910 -0.034763 0.015172
v 0.000687 -0.071293 0.015172
v -0.004910 -0.071293 0.019885
v -0.005499 -0.034763 0.019296
v 0.000687 -0.034763 0.017234
v -0.002555 -0.034763 0.019885
v -0.002849 -0.071293 0.020180
v -0.005794 -0.071293 0.019001
v -0.005499 -0.034763 0.017529
v -0.006678 -0.066873 0.015172
v -0.004026 -0.040362 0.020180
v 0.000687 -0.067167 0.018706
v -0.002849 -0.044782 0.020180
v -0.005794 -0.051261 0.019001
v 0.000687 -0.038893 0.017529
v -0.004616 -0.034763 0.019885
v -0.004026 -0.071293 0.020180
v -0.005205 -0.038299 0.015172
f 436 445 453 
f 433 432 434 
f 434 432 437 
f 435 434 437 
f 432 436 437 
f 436 435 437 
f 433 434 438 
f 435 436 439 
f 434 435 440 
f 435 439 440 
f 440 439 441 
f 438 434 442 
f 433 438 443 
f 438 439 443 
f 439 436 444 
f 439 444 445 
f 432 433 445 
f 436 432 445 
f 431 441 446 
f 442 431 446 
f 434 440 447 
f 442 434 447 
f 442 447 448 
f 441 431 448 
f 431 442 448 
f 447 441 448 
f 433 443 449 
f 443 439 449 
f 439 445 449 
f 445 433 449 
f 440 441 450 
f 447 440 450 
f 441 447 450 
f 439 438 451 
f 441 439 451 
f 438 446 451 
f 446 441 451 
f 438 442 452 
f 446 438 452 
f 442 446 452 
f 444 436 453 
f 445 444 453 
