o convex_0
v 0.001873 0.086623 0.012225
v -0.002379 -0.006909 0.011162
v -0.002379 -0.006909 0.013996
v 0.002581 -0.006909 0.013287
v -0.001316 0.078469 0.015059
v -0.000607 0.084143 0.010098
v 0.001164 -0.006909 0.010098
v -0.002379 0.084504 0.011871
v 0.001164 -0.006909 0.015059
v 0.001873 0.076701 0.014704
v 0.002581 0.082727 0.011871
v 0.001164 0.079895 0.010098
v -0.001316 -0.006909 0.015059
v -0.000961 -0.006909 0.010098
v 0.002227 -0.006909 0.011162
v -0.002379 0.078127 0.013996
v 0.000455 0.084504 0.015059
v -0.001670 0.077766 0.010453
v 0.002581 0.083791 0.013287
v -0.000607 0.090177 0.012933
v 0.001873 -0.006909 0.014704
v 0.002581 -0.006909 0.011871
v -0.002379 0.078127 0.011162
v -0.002379 0.084504 0.013287
v 0.002227 0.078821 0.011162
v 0.000455 0.090177 0.011871
v 0.000455 0.090177 0.013287
v -0.000607 0.084504 0.015059
v 0.001164 0.079895 0.015059
v -0.001670 -0.006909 0.010453
v 0.000810 0.083791 0.010098
v -0.000607 0.089816 0.011871
v -0.000961 0.081672 0.010098
f 18 23 33 
f 3 2 4 
f 4 2 7 
f 2 3 8 
f 3 4 9 
f 7 6 12 
f 5 3 13 
f 3 9 13 
f 9 5 13 
f 7 2 14 
f 6 7 14 
f 4 7 15 
f 7 12 15 
f 3 5 16 
f 8 3 16 
f 5 9 17 
f 10 4 19 
f 4 11 19 
f 11 1 19 
f 9 4 21 
f 10 9 21 
f 4 10 21 
f 11 4 22 
f 4 15 22 
f 15 11 22 
f 2 8 23 
f 18 2 23 
f 16 5 24 
f 8 16 24 
f 20 8 24 
f 12 11 25 
f 11 15 25 
f 15 12 25 
f 26 20 27 
f 19 1 27 
f 17 19 27 
f 1 26 27 
f 17 27 28 
f 5 17 28 
f 24 5 28 
f 20 24 28 
f 27 20 28 
f 9 10 29 
f 17 9 29 
f 10 19 29 
f 19 17 29 
f 14 2 30 
f 2 18 30 
f 18 14 30 
f 1 11 31 
f 11 12 31 
f 12 6 31 
f 6 26 31 
f 26 1 31 
f 6 8 32 
f 8 20 32 
f 26 6 32 
f 20 26 32 
f 8 6 33 
f 6 14 33 
f 14 18 33 
f 23 8 33 
o convex_1
v 0.010376 -0.081665 0.012931
v -0.013009 -0.063947 0.011872
v -0.013009 -0.063947 0.013285
v 0.006831 -0.026752 0.017536
v 0.002580 -0.056167 -0.000177
v -0.002732 -0.063947 0.025335
v -0.006629 -0.026752 0.007267
v -0.006277 -0.088041 0.008328
v -0.005213 -0.026752 0.019309
v 0.006479 -0.026752 0.006910
v -0.004504 -0.086278 0.020370
v 0.008249 -0.063947 0.022852
v 0.012857 -0.057583 0.009747
v -0.008401 -0.062537 0.002305
v 0.003998 -0.083435 0.003366
v 0.004352 -0.086980 0.020018
v -0.009819 -0.058297 0.021436
v 0.010021 -0.062177 0.004076
v 0.003289 -0.054392 0.024980
v 0.012146 -0.057229 0.017538
v 0.003998 -0.089817 0.011163
v -0.009819 -0.082733 0.015411
v -0.008755 -0.031365 0.013640
v -0.003086 -0.080244 0.002305
v -0.001669 -0.032426 0.003721
v -0.012300 -0.056167 0.008328
v -0.009110 -0.081312 0.007267
v -0.004504 -0.057589 0.000177
v 0.001871 -0.081672 0.022852
v 0.008958 -0.082733 0.007619
v 0.000453 -0.031719 0.021436
v -0.004150 -0.056167 0.024980
v -0.012300 -0.055106 0.016474
v 0.008958 -0.083435 0.017184
v 0.008958 -0.032426 0.013285
v -0.004504 -0.089463 0.015411
v -0.008401 -0.068199 0.022143
v 0.002935 -0.066784 0.000177
v 0.007895 -0.054752 0.022852
v 0.006831 -0.057583 0.001241
v 0.001162 -0.087694 0.004785
v 0.005061 -0.026752 0.019309
v 0.003289 -0.062531 0.025335
v 0.012500 -0.067144 0.015056
v 0.005061 -0.026752 0.005849
v 0.007895 -0.087334 0.010101
v -0.011591 -0.065014 0.018247
v -0.009819 -0.055460 0.004078
v 0.012500 -0.067144 0.010101
v 0.010376 -0.055460 0.004785
v -0.006629 -0.026752 0.017890
v -0.005213 -0.026752 0.005849
v 0.007540 -0.069969 0.002660
v -0.011591 -0.063239 0.006558
v -0.003441 -0.079890 0.022852
v 0.005770 -0.079896 0.021791
v -0.005922 -0.083441 0.004430
v -0.009464 -0.084857 0.011517
v -0.003086 -0.062891 -0.000177
v -0.008046 -0.080604 0.019663
v -0.012655 -0.054398 0.010808
v 0.010376 -0.066430 0.020018
v 0.004707 -0.089109 0.016474
v 0.012857 -0.056875 0.015056
f 53 77 97 
f 37 40 42 
f 40 37 43 
f 58 38 61 
f 44 49 62 
f 52 64 65 
f 42 50 65 
f 39 52 65 
f 64 42 65 
f 43 37 68 
f 46 43 68 
f 49 44 69 
f 41 54 69 
f 44 55 69 
f 65 50 70 
f 39 65 70 
f 48 57 71 
f 45 53 72 
f 53 37 72 
f 71 38 73 
f 54 41 74 
f 57 48 74 
f 37 42 75 
f 42 64 75 
f 64 52 75 
f 72 37 75 
f 52 72 75 
f 52 39 76 
f 39 62 76 
f 72 52 76 
f 45 72 76 
f 67 34 77 
f 40 43 78 
f 38 58 78 
f 73 38 78 
f 43 73 78 
f 63 34 79 
f 48 63 79 
f 34 67 79 
f 54 74 79 
f 74 48 79 
f 36 55 80 
f 66 36 80 
f 50 66 80 
f 70 50 80 
f 59 40 81 
f 61 47 81 
f 51 46 82 
f 34 63 82 
f 63 51 82 
f 77 34 82 
f 46 77 82 
f 43 46 83 
f 46 51 83 
f 73 43 83 
f 51 73 83 
f 42 40 84 
f 50 42 84 
f 40 56 84 
f 66 50 84 
f 56 66 84 
f 58 61 85 
f 40 78 85 
f 78 58 85 
f 81 40 85 
f 61 81 85 
f 51 63 86 
f 63 48 86 
f 48 71 86 
f 73 51 86 
f 71 73 86 
f 35 59 87 
f 60 35 87 
f 47 60 87 
f 81 47 87 
f 59 81 87 
f 62 39 88 
f 44 62 88 
f 39 70 88 
f 62 49 89 
f 49 67 89 
f 76 62 89 
f 45 76 89 
f 47 57 90 
f 41 60 90 
f 60 47 90 
f 74 41 90 
f 57 74 90 
f 36 35 91 
f 55 36 91 
f 35 60 91 
f 60 41 91 
f 41 69 91 
f 69 55 91 
f 57 47 92 
f 47 61 92 
f 61 38 92 
f 38 71 92 
f 71 57 92 
f 55 44 93 
f 80 55 93 
f 70 80 93 
f 44 88 93 
f 88 70 93 
f 35 36 94 
f 56 40 94 
f 59 35 94 
f 40 59 94 
f 36 66 94 
f 66 56 94 
f 53 45 95 
f 77 53 95 
f 67 77 95 
f 45 89 95 
f 89 67 95 
f 67 49 96 
f 49 69 96 
f 69 54 96 
f 54 79 96 
f 79 67 96 
f 37 53 97 
f 68 37 97 
f 46 68 97 
f 77 46 97 
o convex_2
v -0.007340 -0.021438 0.007973
v 0.007542 -0.020729 0.016829
v 0.007542 -0.021083 0.016829
v -0.005213 -0.020729 0.019664
v -0.002378 -0.026751 0.020019
v 0.005768 -0.026751 0.006201
v 0.004351 -0.020729 0.005138
v -0.006630 -0.026751 0.007265
v 0.005768 -0.026751 0.018956
v -0.006630 -0.026751 0.017891
v -0.004505 -0.020729 0.005138
v 0.004351 -0.020729 0.020019
v -0.002024 -0.026751 0.005138
v 0.007542 -0.020729 0.008329
v -0.007340 -0.020729 0.017182
v 0.006831 -0.026751 0.007619
v 0.006831 -0.026751 0.017537
v 0.000454 -0.025688 0.020374
v 0.002225 -0.026751 0.005138
v -0.006984 -0.020729 0.007265
v -0.005213 -0.026751 0.005848
v -0.004505 -0.020729 0.020019
v -0.005213 -0.026751 0.019309
v 0.006479 -0.020729 0.018601
v 0.002225 -0.026751 0.020019
v -0.007340 -0.021792 0.016475
v 0.007187 -0.020729 0.007619
v -0.000253 -0.023917 0.020374
f 109 119 125 
f 101 99 104 
f 103 102 105 
f 102 103 106 
f 105 102 107 
f 101 104 108 
f 99 101 109 
f 103 105 110 
f 108 104 110 
f 99 100 111 
f 104 99 111 
f 107 101 112 
f 101 108 112 
f 106 103 113 
f 111 100 113 
f 113 100 114 
f 106 113 114 
f 104 103 116 
f 103 110 116 
f 110 104 116 
f 105 98 117 
f 98 112 117 
f 112 108 117 
f 110 105 118 
f 108 110 118 
f 105 117 118 
f 117 108 118 
f 109 101 119 
f 101 107 120 
f 107 102 120 
f 119 101 120 
f 102 119 120 
f 100 99 121 
f 99 109 121 
f 109 106 121 
f 114 100 121 
f 106 114 121 
f 102 106 122 
f 106 109 122 
f 115 102 122 
f 109 115 122 
f 98 105 123 
f 105 107 123 
f 112 98 123 
f 107 112 123 
f 103 104 124 
f 104 111 124 
f 113 103 124 
f 111 113 124 
f 102 115 125 
f 115 109 125 
f 119 102 125 
o convex_3
v -0.003441 -0.006909 0.020726
v -0.003797 -0.012934 0.001953
v -0.003797 -0.011162 0.001953
v 0.011440 -0.013643 0.011163
v -0.006982 -0.020728 0.017892
v 0.006832 -0.020728 0.018246
v 0.004706 -0.020728 0.005141
v 0.005416 -0.006909 0.005495
v -0.011236 -0.009036 0.011872
v 0.005770 -0.009036 0.022497
v -0.006982 -0.020728 0.007267
v -0.005567 -0.013643 0.022851
v 0.005770 -0.013290 0.002307
v -0.006275 -0.006909 0.006204
v 0.008604 -0.006909 0.014702
v -0.011590 -0.013643 0.011872
v 0.000455 -0.016120 0.022851
v -0.006982 -0.010453 0.003370
v 0.011440 -0.009390 0.012931
v 0.006832 -0.014348 0.021787
v 0.007540 -0.020728 0.008329
v 0.005770 -0.009036 0.002660
v -0.005921 -0.009390 0.022497
v -0.004505 -0.020728 0.020017
v -0.010172 -0.014348 0.016473
v -0.008047 -0.006909 0.016473
v 0.011084 -0.014704 0.014348
v -0.004505 -0.020728 0.005141
v 0.000101 -0.016120 0.002307
v -0.002379 -0.006909 0.004078
v -0.006982 -0.014704 0.003724
v 0.004706 -0.020728 0.020017
v 0.002580 -0.006909 0.021080
v 0.004352 -0.013290 0.023209
v -0.011236 -0.010100 0.014348
v 0.007896 -0.014348 0.004787
v 0.010022 -0.009036 0.009038
v 0.008958 -0.009390 0.018246
v -0.007693 -0.020728 0.016473
v -0.006982 -0.013643 0.021787
v -0.004505 -0.009036 0.022851
v -0.005567 -0.009036 0.002660
v -0.010172 -0.014348 0.008684
v -0.007693 -0.020728 0.008684
v 0.008250 -0.006909 0.009392
v -0.005567 -0.013643 0.002307
v 0.007540 -0.020728 0.016829
v -0.008754 -0.006909 0.011163
v -0.010172 -0.009390 0.009038
v 0.009312 -0.015058 0.017892
v 0.007186 -0.006909 0.017892
v -0.003087 -0.014348 0.023209
v 0.003998 -0.009036 0.002307
v 0.003290 -0.013995 0.001953
v -0.007693 -0.009390 0.020370
v 0.007186 -0.010453 0.003724
v 0.003998 -0.010809 0.023209
v -0.011236 -0.014348 0.013995
v 0.011440 -0.010809 0.013995
v 0.007540 -0.011162 0.021080
v 0.008958 -0.015765 0.006912
v 0.002580 -0.006909 0.004078
v 0.006478 -0.020728 0.006558
v -0.009464 -0.015411 0.017536
f 183 164 189 
f 131 130 132 
f 132 130 136 
f 126 133 139 
f 133 126 140 
f 131 132 146 
f 130 131 149 
f 126 139 151 
f 148 126 151 
f 146 129 152 
f 132 136 153 
f 132 153 154 
f 139 133 155 
f 153 136 156 
f 131 145 157 
f 149 131 157 
f 142 149 157 
f 140 126 158 
f 145 135 159 
f 157 145 159 
f 142 157 159 
f 134 141 160 
f 151 134 160 
f 144 129 162 
f 136 130 164 
f 137 148 165 
f 130 149 165 
f 149 137 165 
f 126 148 166 
f 148 137 166 
f 158 126 166 
f 135 158 166 
f 139 155 167 
f 156 136 168 
f 143 156 168 
f 136 164 169 
f 141 168 169 
f 168 136 169 
f 133 140 170 
f 140 144 170 
f 147 133 170 
f 162 147 170 
f 144 162 170 
f 128 127 171 
f 127 154 171 
f 154 153 171 
f 156 143 171 
f 153 156 171 
f 167 128 171 
f 143 167 171 
f 131 146 172 
f 146 152 172 
f 139 134 173 
f 151 139 173 
f 134 151 173 
f 134 139 174 
f 141 134 174 
f 139 167 174 
f 167 143 174 
f 168 141 174 
f 143 168 174 
f 145 131 175 
f 131 172 175 
f 172 152 175 
f 144 140 176 
f 140 158 176 
f 158 135 176 
f 135 163 176 
f 163 144 176 
f 137 149 177 
f 149 142 177 
f 142 159 177 
f 166 137 177 
f 147 138 178 
f 128 167 178 
f 167 155 178 
f 127 128 179 
f 138 132 179 
f 154 127 179 
f 132 154 179 
f 128 178 179 
f 178 138 179 
f 148 151 180 
f 160 150 180 
f 151 160 180 
f 165 148 180 
f 150 165 180 
f 138 147 181 
f 161 138 181 
f 129 161 181 
f 147 162 181 
f 162 129 181 
f 159 135 182 
f 135 166 182 
f 177 159 182 
f 166 177 182 
f 160 141 183 
f 150 160 183 
f 169 164 183 
f 141 169 183 
f 129 144 184 
f 152 129 184 
f 144 163 184 
f 175 152 184 
f 175 184 185 
f 135 145 185 
f 163 135 185 
f 145 175 185 
f 184 163 185 
f 129 146 186 
f 161 129 186 
f 133 147 187 
f 155 133 187 
f 147 178 187 
f 178 155 187 
f 132 138 188 
f 146 132 188 
f 138 161 188 
f 186 146 188 
f 161 186 188 
f 164 130 189 
f 130 165 189 
f 165 150 189 
f 150 183 189 
