o convex_0
v 0.001150 0.089840 0.011586
v -0.002977 0.004444 0.009366
v -0.002659 0.004444 0.008731
v 0.003055 0.004444 0.011269
v 0.000833 0.079998 0.007461
v -0.002659 0.079998 0.012222
v -0.000754 0.004444 0.013491
v 0.001784 0.004444 0.007779
v -0.002659 0.085712 0.009048
v 0.002102 0.079998 0.012856
v 0.003055 0.079990 0.009683
v -0.001072 0.004444 0.007461
v -0.001390 0.085074 0.013174
v -0.002659 0.004444 0.012222
v 0.000833 0.004444 0.013491
v -0.001707 0.079998 0.007779
v 0.001784 0.086660 0.008096
v 0.002737 0.004444 0.008731
v 0.000833 0.079998 0.013491
v -0.002977 0.079998 0.011586
v 0.003055 0.079990 0.011269
v 0.002420 0.004444 0.012539
v -0.001072 0.090159 0.009366
v 0.002737 0.079990 0.008731
v -0.001707 0.004444 0.013174
v -0.002977 0.079998 0.009366
v 0.002420 0.086660 0.012222
v -0.002342 0.086660 0.012222
v -0.001072 0.079998 0.007461
v -0.002977 0.004444 0.011586
v 0.000833 0.004444 0.007461
v 0.001784 0.079998 0.007779
v -0.000754 0.079998 0.013491
v -0.001390 0.085393 0.007779
v 0.003055 0.004444 0.009683
v -0.001707 0.079998 0.013174
v 0.002420 0.086660 0.008731
v -0.002659 0.079998 0.008731
v -0.001707 0.004444 0.007779
v 0.001784 0.086660 0.012856
v -0.001072 0.089521 0.011904
v 0.001150 0.090159 0.009683
v 0.002420 0.079990 0.012539
v 0.002102 0.004444 0.012856
v 0.002737 0.085066 0.009365
v -0.001072 0.090159 0.011269
v -0.001707 0.086660 0.008096
v -0.002659 0.085712 0.011904
v 0.001467 0.085393 0.007779
f 34 17 49 
f 2 3 4 
f 2 4 7 
f 4 3 8 
f 8 3 12 
f 2 7 14 
f 7 4 15 
f 4 8 18 
f 7 15 19 
f 15 10 19 
f 14 6 20 
f 4 11 21 
f 15 4 22 
f 18 8 24 
f 11 18 24 
f 6 14 25 
f 14 7 25 
f 3 2 26 
f 2 20 26 
f 20 9 26 
f 23 9 28 
f 5 12 29 
f 12 16 29 
f 2 14 30 
f 20 2 30 
f 14 20 30 
f 5 8 31 
f 8 12 31 
f 12 5 31 
f 8 5 32 
f 24 8 32 
f 7 19 33 
f 19 13 33 
f 25 7 33 
f 5 29 34 
f 29 16 34 
f 11 4 35 
f 4 18 35 
f 18 11 35 
f 6 25 36 
f 28 6 36 
f 13 28 36 
f 33 13 36 
f 25 33 36 
f 32 17 37 
f 24 32 37 
f 16 3 38 
f 3 26 38 
f 26 9 38 
f 12 3 39 
f 3 16 39 
f 16 12 39 
f 19 10 40 
f 13 19 40 
f 27 1 40 
f 10 27 40 
f 28 13 41 
f 40 1 41 
f 13 40 41 
f 17 23 42 
f 1 27 42 
f 37 17 42 
f 27 37 42 
f 4 21 43 
f 22 4 43 
f 27 10 43 
f 21 27 43 
f 10 15 44 
f 15 22 44 
f 22 43 44 
f 43 10 44 
f 21 11 45 
f 11 24 45 
f 27 21 45 
f 24 37 45 
f 37 27 45 
f 23 28 46 
f 41 1 46 
f 28 41 46 
f 1 42 46 
f 42 23 46 
f 9 23 47 
f 23 17 47 
f 34 16 47 
f 17 34 47 
f 16 38 47 
f 38 9 47 
f 9 20 48 
f 20 6 48 
f 6 28 48 
f 28 9 48 
f 32 5 49 
f 17 32 49 
f 5 34 49 
o convex_1
v 0.008134 -0.017778 0.015395
v -0.010596 -0.086021 0.010317
v -0.009642 -0.085709 0.005556
v 0.010355 -0.086028 0.013174
v 0.001784 -0.023495 -0.000155
v -0.006467 -0.022865 0.018887
v 0.002735 -0.086028 0.020792
v 0.007180 -0.085702 0.002382
v -0.008691 -0.017778 0.006827
v 0.009404 -0.023495 0.005240
v -0.001706 -0.085702 -0.000155
v -0.005516 -0.085702 0.019838
v 0.004007 -0.023503 0.020476
v -0.007102 -0.023184 0.002384
v -0.010596 -0.023495 0.012538
v -0.001071 -0.090159 0.007779
v 0.003689 -0.017778 0.001748
v 0.009720 -0.023495 0.015077
v 0.006229 -0.086021 0.019204
v -0.002976 -0.023495 0.020792
v -0.009642 -0.086021 0.015077
v -0.004881 -0.017778 0.018571
v 0.010674 -0.085709 0.010317
v -0.009642 -0.023821 0.005556
v 0.010674 -0.023503 0.010317
v -0.007102 -0.086021 0.002384
v 0.007180 -0.023495 0.002382
v -0.001706 -0.023495 -0.000155
v 0.001784 -0.085702 -0.000155
v 0.009404 -0.086028 0.005240
v 0.001784 -0.089840 0.014761
v 0.008769 -0.017778 0.006827
v -0.002976 -0.085702 0.020792
v 0.005594 -0.089195 0.006827
v 0.005910 -0.023503 0.019522
v -0.006151 -0.089195 0.013172
v -0.009642 -0.023184 0.015077
v -0.003611 -0.017778 0.001748
v 0.002419 -0.017778 0.019520
v 0.009720 -0.085702 0.015077
v -0.008691 -0.017778 0.014125
v -0.003292 -0.089202 0.004605
v -0.010596 -0.023184 0.010317
v -0.010277 -0.085709 0.013807
v -0.008691 -0.023495 0.003971
v 0.010674 -0.023814 0.011905
v 0.003054 -0.023495 0.020792
v 0.008769 -0.023814 0.003971
v 0.006864 -0.088883 0.012856
v -0.003292 -0.088883 0.016982
v -0.004881 -0.023503 0.020156
v -0.006151 -0.089195 0.007779
v 0.002419 -0.088883 0.003653
v 0.004007 -0.085702 0.020476
v -0.008691 -0.085702 0.003971
v 0.008769 -0.085702 0.003971
v 0.009404 -0.017778 0.010633
v 0.002419 -0.088883 0.017300
v 0.010355 -0.023495 0.013492
v -0.006467 -0.086021 0.018887
v -0.010596 -0.085709 0.012538
v 0.006545 -0.023184 0.018889
v 0.009404 -0.087296 0.009050
v -0.002341 -0.090159 0.012220
f 101 65 113 
f 58 50 66 
f 50 58 71 
f 52 51 73 
f 72 59 74 
f 63 60 75 
f 57 54 76 
f 54 66 76 
f 54 60 77 
f 60 63 77 
f 66 54 77 
f 54 57 78 
f 60 54 78 
f 59 72 79 
f 66 50 81 
f 74 59 81 
f 76 66 81 
f 56 69 82 
f 80 65 83 
f 70 55 86 
f 63 58 87 
f 58 66 87 
f 77 63 87 
f 66 77 87 
f 50 71 88 
f 71 69 88 
f 84 50 88 
f 62 84 88 
f 71 58 90 
f 55 71 90 
f 64 86 90 
f 86 55 90 
f 75 60 91 
f 51 64 92 
f 73 51 92 
f 58 73 92 
f 90 58 92 
f 64 90 92 
f 86 64 93 
f 70 86 93 
f 58 63 94 
f 52 73 94 
f 73 58 94 
f 63 75 94 
f 53 72 95 
f 72 74 95 
f 69 56 96 
f 62 88 96 
f 88 69 96 
f 57 76 97 
f 59 79 97 
f 81 59 97 
f 76 81 97 
f 80 83 98 
f 53 89 98 
f 89 68 98 
f 82 61 99 
f 56 82 99 
f 55 61 100 
f 71 55 100 
f 69 71 100 
f 61 82 100 
f 82 69 100 
f 51 52 101 
f 85 51 101 
f 75 91 101 
f 91 65 101 
f 78 57 102 
f 60 78 102 
f 57 83 102 
f 83 65 102 
f 91 60 102 
f 65 91 102 
f 56 68 103 
f 84 62 103 
f 68 84 103 
f 96 56 103 
f 62 96 103 
f 52 94 104 
f 94 75 104 
f 101 52 104 
f 75 101 104 
f 83 57 105 
f 79 83 105 
f 57 97 105 
f 97 79 105 
f 81 50 106 
f 74 81 106 
f 95 74 106 
f 68 56 107 
f 98 68 107 
f 80 98 107 
f 56 99 107 
f 99 80 107 
f 50 67 108 
f 89 53 108 
f 67 89 108 
f 53 95 108 
f 106 50 108 
f 95 106 108 
f 61 55 109 
f 55 70 109 
f 70 85 109 
f 99 61 109 
f 85 99 109 
f 64 51 110 
f 51 85 110 
f 85 70 110 
f 93 64 110 
f 70 93 110 
f 67 50 111 
f 50 84 111 
f 84 68 111 
f 89 67 111 
f 68 89 111 
f 72 53 112 
f 79 72 112 
f 83 79 112 
f 53 98 112 
f 98 83 112 
f 65 80 113 
f 80 99 113 
f 99 85 113 
f 85 101 113 
o convex_2
v 0.007815 0.003490 0.010317
v -0.010596 -0.013332 0.010317
v -0.009642 -0.013014 0.005556
v 0.009085 -0.017778 0.013172
v -0.002976 0.000951 0.020792
v -0.001706 0.000951 -0.000155
v 0.004959 -0.017778 0.002384
v -0.003611 -0.017778 0.019204
v -0.009642 0.002219 0.009366
v 0.005910 0.000949 0.019522
v 0.008769 0.000949 0.003971
v -0.005516 -0.017778 0.002700
v 0.004005 -0.013332 0.020474
v 0.010674 0.000949 0.011905
v -0.009642 0.000949 0.015077
v 0.009404 -0.013332 0.005240
v -0.002657 0.004444 0.012220
v 0.001784 -0.013014 -0.000155
v -0.007102 0.000949 0.002384
v -0.007421 -0.017778 0.016348
v -0.001071 0.003492 0.002702
v 0.010039 -0.013014 0.014441
v -0.005516 -0.013014 0.019838
v -0.000752 0.003492 0.018251
v 0.002419 0.001269 0.000161
v 0.007180 -0.013332 0.002384
v 0.004959 -0.017778 0.018569
v -0.009324 -0.017778 0.009366
v -0.001706 -0.013014 -0.000155
v -0.009959 -0.013332 0.014443
v -0.010596 0.000949 0.010317
v 0.010674 -0.013332 0.010317
v -0.007102 -0.013332 0.002384
v -0.007102 0.003172 0.015395
v 0.004959 0.003490 0.004287
v -0.009324 0.000949 0.004922
v -0.002976 -0.013332 0.020792
v 0.003054 0.000951 0.020792
v 0.006229 0.003490 0.015395
v -0.006469 0.003490 0.005874
v -0.005516 0.000949 0.019838
v 0.008769 -0.017778 0.006827
v 0.009720 0.000949 0.015077
v 0.006545 -0.013647 0.018889
v 0.001784 0.004444 0.007779
v -0.001071 -0.017778 0.001115
v 0.010674 0.000949 0.010317
v 0.007180 0.000949 0.002384
v 0.000830 -0.017778 0.019838
v -0.010596 0.000949 0.012538
v 0.002100 0.004444 0.012856
v -0.007737 -0.017778 0.004922
v -0.007737 0.003490 0.011903
v 0.003689 0.003174 0.018251
v 0.007499 -0.017778 0.016348
v 0.002735 -0.013332 0.020792
v 0.009404 0.001586 0.005874
v -0.006469 -0.013647 0.018887
v -0.005197 0.002857 0.003018
v -0.009324 -0.017778 0.011903
v -0.002657 0.004444 0.008732
v -0.008689 -0.013014 0.003971
v -0.010596 -0.013014 0.012538
v -0.004881 0.003172 0.017617
f 147 154 177 
f 120 117 121 
f 120 121 125 
f 125 121 133 
f 131 119 138 
f 119 134 138 
f 124 129 139 
f 120 131 139 
f 121 117 140 
f 115 116 141 
f 125 133 141 
f 119 131 142 
f 132 119 142 
f 116 115 144 
f 135 117 145 
f 127 135 145 
f 142 125 146 
f 132 142 146 
f 138 134 148 
f 116 144 149 
f 144 122 149 
f 136 121 150 
f 118 136 150 
f 126 123 151 
f 137 118 151 
f 118 150 151 
f 149 122 153 
f 136 118 154 
f 147 128 154 
f 117 120 155 
f 120 139 155 
f 139 129 155 
f 145 117 155 
f 129 145 155 
f 127 114 156 
f 135 127 156 
f 114 152 156 
f 152 123 156 
f 123 126 157 
f 126 140 157 
f 156 123 157 
f 135 156 157 
f 114 148 158 
f 148 134 158 
f 120 125 159 
f 131 120 159 
f 125 142 159 
f 142 131 159 
f 114 127 160 
f 127 145 160 
f 145 129 160 
f 131 138 161 
f 124 139 161 
f 139 131 161 
f 148 124 161 
f 138 148 161 
f 121 140 162 
f 140 126 162 
f 150 121 162 
f 143 128 163 
f 144 115 163 
f 122 144 163 
f 128 147 163 
f 130 137 164 
f 152 114 164 
f 114 158 164 
f 158 130 164 
f 141 116 165 
f 125 141 165 
f 146 125 165 
f 147 130 166 
f 153 122 166 
f 122 163 166 
f 163 147 166 
f 151 123 167 
f 137 151 167 
f 123 152 167 
f 164 137 167 
f 152 164 167 
f 117 135 168 
f 140 117 168 
f 135 157 168 
f 157 140 168 
f 126 151 169 
f 151 150 169 
f 162 126 169 
f 150 162 169 
f 129 124 170 
f 148 114 170 
f 124 148 170 
f 114 160 170 
f 160 129 170 
f 133 121 171 
f 121 136 171 
f 128 143 171 
f 143 133 171 
f 136 154 171 
f 154 128 171 
f 119 132 172 
f 134 119 172 
f 132 149 172 
f 153 134 172 
f 149 153 172 
f 115 141 173 
f 141 133 173 
f 133 143 173 
f 134 153 174 
f 158 134 174 
f 130 158 174 
f 166 130 174 
f 153 166 174 
f 132 146 175 
f 149 132 175 
f 116 149 175 
f 165 116 175 
f 146 165 175 
f 163 115 176 
f 143 163 176 
f 115 173 176 
f 173 143 176 
f 118 137 177 
f 137 130 177 
f 130 147 177 
f 154 118 177 
