# https://github.com/mikedh/trimesh
v 0.00000000 -0.01024668 0.00351680
v 0.00000000 -0.01024668 0.00351680
v -0.01004981 -0.01024668 0.02777917
v -0.01004981 0.00005028 0.02777917
v 0.01416142 -0.06972784 0.01491248
v 0.01443887 -0.06972784 0.01772936
v -0.01416142 -0.06972784 0.01491246
v 0.00277274 0.00673818 0.00378989
v -0.00417981 -0.08312536 0.00763836
v -0.01393948 -0.01024668 0.01495662
v -0.01393948 0.00005028 0.01495662
v 0.01200548 -0.06972784 0.02575117
v 0.01200548 -0.06972784 0.00970756
v 0.00535115 -0.08556668 0.00972079
v 0.01020982 -0.06972784 0.00751954
v 0.01020982 -0.06972784 0.02793918
v -0.01333978 -0.06972784 0.02325487
v 0.00277273 0.00005028 0.03166886
v -0.00277271 0.00673818 0.00378989
v -0.00277274 -0.01024668 0.03166885
v -0.00802181 -0.06972784 0.02973484
v -0.00800857 -0.08556668 0.02308051
v 0.00984991 -0.03216174 0.00298794
v 0.00984991 -0.04601238 0.00298794
v 0.01181733 0.00673818 0.00983329
v 0.01181733 0.00673818 0.02562546
v -0.01388803 -0.01471906 0.02348197
v -0.01333977 -0.06972784 0.01220383
v -0.00835148 -0.01471906 0.00523047
v -0.00277271 0.00005028 0.00378989
v 0.00857099 -0.06699125 0.00490197
v -0.01009100 -0.08312536 0.02190918
v -0.00000000 -0.08556668 0.00809754
v -0.00000000 -0.08556668 0.00809754
v -0.01249890 -0.01471906 0.02608086
v -0.01200549 -0.06972784 0.02575116
v 0.00984991 -0.03216174 0.03247080
v 0.00984991 -0.04601238 0.03247080
v -0.00681073 -0.08556668 0.02454008
v 0.00213086 -0.08312536 0.00701681
v 0.00857099 -0.06699125 0.03055676
v -0.01542738 -0.06699125 0.01772935
v 0.00963182 -0.08556668 0.01772936
v 0.00678473 -0.03216174 0.00134957
v 0.00678473 -0.04601238 0.00134957
v -0.01181733 -0.01024668 0.02562545
v -0.01181733 0.00005027 0.02562545
v -0.00944674 -0.08556668 0.01585027
v 0.00281688 -0.06972784 0.00356793
v 0.01738870 -0.03216174 0.01427054
v 0.01738870 -0.04601238 0.01427054
v -0.01637981 -0.03216174 0.02451409
v -0.01637981 -0.04601238 0.02451409
v -0.01393948 0.00673818 0.01495662
v 0.01249889 -0.01471906 0.02608086
v 0.01249889 -0.01471906 0.00937788
v -0.01071255 -0.08312536 0.01986021
v 0.00681072 -0.08556668 0.01091863
v 0.00681072 -0.08556668 0.02454008
v -0.00293263 -0.01471906 0.00298592
v -0.00908165 -0.08312536 0.01166118
v -0.00277274 0.00673818 0.03166886
v 0.01090880 -0.06699125 0.02863817
v 0.01090880 -0.06699125 0.00682056
v -0.00300971 -0.06699125 0.00259841
v 0.01772937 -0.03216174 0.01772937
v 0.01772937 -0.04601238 0.01772937
v -0.01393948 0.00673818 0.02050210
v -0.00000000 -0.08312536 0.02865178
v -0.00300974 -0.06699125 0.03286031
v 0.00575261 -0.01471906 0.00384135
v -0.00857098 -0.06699125 0.00490195
v -0.01425305 -0.06699125 0.02363316
v -0.01738870 -0.03216174 0.02118818
v -0.01738870 -0.04601238 0.02118818
v -0.01200547 -0.06972784 0.00970754
v -0.01071254 -0.08312536 0.01559849
v -0.01421257 -0.01024668 0.01772936
v -0.01421257 0.00005028 0.01772936
v -0.01181733 0.00673818 0.02562545
v 0.00835149 -0.01471906 0.03022827
v -0.00590381 -0.06699125 0.03198240
v -0.01474144 -0.03216174 0.02757927
v -0.01474144 -0.04601238 0.02757927
v -0.01020983 -0.06972784 0.02793918
v -0.00345880 -0.03216174 0.00034066
v -0.00345880 -0.04601238 0.00034066
v 0.01738870 -0.03216174 0.02118820
v 0.01738870 -0.04601238 0.02118819
v 0.00606817 -0.08312536 0.02681102
v -0.01313070 -0.01024668 0.01229044
v -0.01313070 0.00005028 0.01229044
v -0.01425303 -0.06699125 0.01182554
v -0.01181731 -0.01024668 0.00983327
v -0.01181731 0.00005028 0.00983327
v -0.00213086 -0.08312536 0.02844191
v -0.00606816 -0.08312536 0.00864769
v -0.00889864 -0.08556668 0.01404341
v -0.01474345 -0.01471906 0.01479670
v 0.00678473 -0.03216174 0.03410917
v 0.00678473 -0.04601238 0.03410917
v -0.00000000 -0.06699125 0.00230198
v -0.00000000 -0.06699125 0.00230198
v -0.00000000 -0.03216174 0.00000000
v -0.00000000 -0.03216174 0.00000000
v -0.00000000 -0.04601238 0.00000000
v -0.00000000 -0.04601238 0.00000000
v 0.01637980 -0.03216174 0.02451410
v 0.01637980 -0.03216174 0.01094463
v 0.01637980 -0.04601238 0.02451410
v 0.01637980 -0.04601238 0.01094463
v 0.01474143 -0.03216174 0.02757928
v 0.01474143 -0.03216174 0.00787946
v 0.01474143 -0.04601238 0.00787946
v 0.01474143 -0.04601238 0.02757928
v 0.01388802 -0.01471906 0.02348198
v 0.01388802 -0.01471906 0.01197676
v 0.01009100 -0.08312536 0.02190919
v 0.01009100 -0.08312536 0.01354953
v 0.00277274 -0.01024668 0.00378989
v -0.00984989 -0.03216174 0.00298793
v -0.00984989 -0.04601238 0.00298792
v 0.00789608 0.00673818 0.00591205
v -0.00772330 -0.08312536 0.01000603
v 0.00772331 -0.08312536 0.01000604
v 0.00772331 -0.08312536 0.02545268
v -0.01474142 -0.03216174 0.00787944
v -0.01474142 -0.04601238 0.00787944
v -0.00000000 -0.08312536 0.00680694
v -0.00000000 -0.08312536 0.00680694
v 0.00000000 0.00673818 0.00351680
v 0.00000000 0.00673818 0.00351680
v -0.00277271 -0.01024668 0.00378988
v -0.01421257 0.00673818 0.01772936
v -0.01416143 -0.06972784 0.02054623
v 0.01004981 0.00673818 0.02777918
v 0.01004981 0.00673818 0.00767957
v 0.00277273 -0.01024668 0.03166886
v -0.01181731 0.00673818 0.00983328
v 0.00575261 -0.01471906 0.03161740
v 0.00802180 -0.06972784 0.02973484
v 0.01513094 -0.06699125 0.01471963
v -0.01637979 -0.03216174 0.01094462
v -0.01637979 -0.04601238 0.01094461
v 0.00908166 -0.08312536 0.01166119
v 0.00908166 -0.08312536 0.02379753
v -0.00552550 -0.06972784 0.00438958
v -0.01388802 -0.01471906 0.01197675
v -0.00543892 0.00673818 0.03086008
v -0.01009099 -0.08312536 0.01354952
v -0.00606818 -0.08312536 0.02681102
v -0.00281689 -0.06972784 0.03189079
v -0.00543890 0.00673818 0.00459866
v -0.00000000 0.00005028 0.03194195
v 0.01425304 -0.06699125 0.02363316
v 0.01425304 -0.06699125 0.01182556
v -0.00543890 -0.01024668 0.00459866
v -0.00543890 0.00005028 0.00459866
v -0.00000001 -0.06699125 0.03315674
v -0.00944675 -0.08556668 0.01960843
v -0.00678474 -0.03216174 0.03410917
v -0.00678474 -0.04601238 0.03410917
v -0.01020981 -0.06972784 0.00751953
v 0.00213085 -0.08312536 0.02844191
v 0.00417983 -0.08312536 0.02782036
v -0.00835150 -0.01471906 0.03022826
v 0.00800856 -0.08556668 0.02308051
v 0.00800856 -0.08556668 0.01237821
v 0.00300973 -0.06699125 0.00259842
v -0.00857100 -0.06699125 0.03055676
v 0.01474345 -0.01471906 0.01479672
v -0.00000000 -0.08556668 0.02736118
v 0.01513095 -0.06699125 0.02073909
v -0.01249888 -0.01471906 0.00937786
v -0.00535116 -0.08556668 0.02573792
v -0.01393948 -0.01024668 0.02050209
v -0.01393948 0.00005028 0.02050210
v 0.00789608 0.00005028 0.02954670
v 0.00802180 -0.06972784 0.00572388
v 0.01503229 -0.01471906 0.01772937
v -0.01282740 -0.06699125 0.02630035
v 0.00889864 -0.08556668 0.02141530
v 0.00889864 -0.08556668 0.01404342
v 0.01004981 0.00005028 0.02777918
v 0.01004981 0.00005028 0.00767956
v 0.01421257 0.00673818 0.01772937
v 0.01253655 -0.03216174 0.03026593
v 0.01253655 -0.03216174 0.00519281
v 0.01253655 -0.04601238 0.03026592
v 0.01253655 -0.04601238 0.00519281
v 0.00368594 -0.08556668 0.00883072
v -0.00681072 -0.08556668 0.01091863
v -0.01313071 -0.01024668 0.02316828
v 0.01393948 0.00673818 0.02050211
v -0.01092242 -0.08312536 0.01772935
v -0.00789607 0.00673818 0.00591204
v 0.01313071 0.00673818 0.01229046
v 0.01313071 0.00673818 0.02316829
v 0.00417983 -0.08312536 0.00763836
v -0.01090879 -0.06699125 0.00682055
v 0.00590380 -0.06699125 0.00347632
v -0.00000001 -0.06972784 0.03216823
v 0.00281688 -0.06972784 0.03189079
v -0.00789607 -0.01024668 0.00591204
v 0.01474345 -0.01471906 0.02066202
v -0.00000001 -0.03216174 0.03545874
v -0.00000001 -0.04601238 0.03545874
v 0.00590380 -0.06699125 0.03198241
v 0.00789608 -0.01024668 0.00591205
v 0.00789608 0.00005028 0.00591205
v -0.00293266 -0.01471906 0.03247282
v 0.00277274 0.00005028 0.00378989
v -0.00984992 -0.03216174 0.03247080
v -0.00984992 -0.04601238 0.03247079
v 0.01333977 -0.06972784 0.01220385
v 0.01333977 -0.06972784 0.02325488
v 0.01092242 -0.08312536 0.01772936
v -0.00277274 0.00005028 0.03166886
v 0.00187907 -0.08556668 0.00828261
v 0.00789608 -0.01024668 0.02954670
v -0.00000000 0.00673818 0.03194195
v -0.00000000 -0.01471906 0.00269708
v -0.00000000 -0.01471906 0.00269708
v -0.01503229 -0.01471906 0.01772936
v -0.01513094 -0.06699125 0.01471961
v -0.01313071 0.00673818 0.02316828
v -0.01313071 0.00005028 0.02316828
v 0.00187907 -0.08556668 0.02717611
v -0.01090881 -0.06699125 0.02863816
v -0.01253654 -0.03216174 0.00519280
v -0.01253654 -0.04601238 0.00519280
v -0.00000000 -0.06972784 0.00329050
v -0.00000000 -0.06972784 0.00329050
v -0.00802179 -0.06972784 0.00572387
v -0.00417983 -0.08312536 0.02782036
v -0.00590378 -0.06699125 0.00347631
v -0.00000000 -0.01024668 0.03194195
v 0.01062943 -0.01471906 0.02835881
v 0.01062943 -0.01471906 0.00709994
v -0.00543892 -0.01024668 0.03086008
v 0.01393948 -0.01024668 0.01495663
v -0.01004981 0.00673818 0.02777918
v 0.00552551 -0.06972784 0.00438959
v -0.01474345 -0.01471906 0.02066201
v 0.01416143 -0.06972784 0.02054624
v -0.00368594 -0.08556668 0.02662800
v -0.01443887 -0.06972784 0.01772935
v 0.00789608 0.00673818 0.02954670
v 0.00000000 0.00005027 0.00351680
v 0.00000000 0.00005027 0.00351680
v -0.01282739 -0.06699125 0.00915836
v -0.00535114 -0.08556668 0.00972079
v -0.00187908 -0.08556668 0.02717611
v -0.00889864 -0.08556668 0.02141529
v 0.00552551 -0.06972784 0.03106914
v 0.01282740 -0.06699125 0.02630036
v 0.01282740 -0.06699125 0.00915837
v -0.00575259 -0.01471906 0.00384133
v 0.00345883 -0.03216174 0.00034067
v 0.00345883 -0.04601238 0.00034067
v 0.01004981 -0.01024668 0.02777918
v 0.01004981 -0.01024668 0.00767956
v -0.00789609 0.00673818 0.02954669
v -0.00800856 -0.08556668 0.01237820
v -0.01253656 -0.03216174 0.03026592
v -0.01253656 -0.04601238 0.03026592
v 0.01421257 -0.01024668 0.01772937
v 0.01421257 0.00005027 0.01772937
v 0.01071254 -0.08312536 0.01986022
v 0.00543892 0.00673818 0.00459867
v 0.00368593 -0.08556668 0.02662800
v -0.01004979 0.00673818 0.00767955
v 0.00300973 -0.06699125 0.03286031
v 0.00543892 -0.01024668 0.00459867
v 0.00543892 0.00005028 0.00459867
v 0.00835149 -0.01471906 0.00523048
v -0.00543892 0.00005028 0.03086008
v -0.00281686 -0.06972784 0.00356793
v 0.01393948 -0.01024668 0.02050211
v 0.01393948 0.00673818 0.01495664
v 0.01393948 0.00005028 0.02050211
v 0.01393948 0.00005028 0.01495664
v -0.00789607 0.00005028 0.00591204
v 0.01313070 -0.01024668 0.01229045
v 0.01313070 -0.01024668 0.02316829
v 0.01313070 0.00005028 0.01229046
v 0.01313070 0.00005028 0.02316829
v 0.00543892 0.00673818 0.03086008
v -0.00678471 -0.03216174 0.00134956
v -0.00678471 -0.04601238 0.00134956
v 0.00345882 -0.03216174 0.03511807
v 0.00345882 -0.04601238 0.03511807
v -0.01772937 -0.03216174 0.01772935
v -0.01772937 -0.04601238 0.01772935
v -0.01062944 -0.01471906 0.02835880
v -0.01004979 -0.01024668 0.00767955
v -0.00908166 -0.08312536 0.02379752
v 0.00543891 -0.01024668 0.03086008
v 0.00543891 0.00005028 0.03086008
v -0.00368593 -0.08556668 0.00883071
v -0.00187906 -0.08556668 0.00828261
v -0.00213084 -0.08312536 0.00701681
v -0.00345884 -0.03216174 0.03511807
v -0.00345884 -0.04601238 0.03511807
v -0.01738870 -0.03216174 0.01427052
v -0.01738870 -0.04601238 0.01427052
v 0.00277273 0.00673818 0.03166886
v 0.01542738 -0.06699125 0.01772936
v -0.00552552 -0.06972784 0.03106914
v 0.00293265 -0.01471906 0.00298592
v -0.00789609 -0.01024668 0.02954669
v -0.00789609 0.00005028 0.02954669
v -0.00575262 -0.01471906 0.03161739
v -0.01062942 -0.01471906 0.00709992
v 0.00535115 -0.08556668 0.02573792
v 0.01071254 -0.08312536 0.01559850
v -0.00772332 -0.08312536 0.02545267
v 0.00944674 -0.08556668 0.01960843
v 0.00944674 -0.08556668 0.01585028
v -0.01004979 0.00005028 0.00767955
v -0.00000000 -0.01471906 0.03276166
v 0.01181732 -0.01024668 0.00983329
v 0.01181732 -0.01024668 0.02562545
v 0.01181732 0.00005028 0.00983329
v 0.01181732 0.00005028 0.02562546
v 0.00606817 -0.08312536 0.00864770
v -0.01313070 0.00673818 0.01229044
v 0.00293265 -0.01471906 0.03247282
v -0.00963182 -0.08556668 0.01772935
v -0.01513095 -0.06699125 0.02073908
v 0.00000000 -0.01024668 0.00351680
v 0.00000000 -0.01024668 0.00351680
v -0.01004981 -0.01024668 0.02777917
v -0.01004981 0.00005028 0.02777917
v 0.01416142 -0.06972784 0.01491248
v 0.01443887 -0.06972784 0.01772936
v -0.00086005 -0.08987763 0.01686931
v -0.01416142 -0.06972784 0.01491246
v 0.00277274 0.00673818 0.00378989
v -0.00417981 -0.08312536 0.00763836
v 0.00256099 -0.08931228 0.02029035
v 0.00256099 -0.08931228 0.01516837
v 0.00070657 -0.08931228 0.01417716
v 0.00362179 -0.08931228 0.01772936
v 0.00112370 -0.08987763 0.01726391
v -0.01393948 -0.01024668 0.01495662
v -0.01393948 0.00005028 0.01495662
v 0.01200548 -0.06972784 0.02575117
v 0.01200548 -0.06972784 0.00970756
v 0.00067573 -0.08987763 0.01671805
v 0.00411736 0.01516401 0.01497824
v 0.00411736 0.01516401 0.02048050
v 0.00101130 -0.08987763 0.01840509
v 0.00535115 -0.08556668 0.00972079
v 0.01020982 -0.06972784 0.00751954
v 0.01020982 -0.06972784 0.02793918
v -0.01333978 -0.06972784 0.02325487
v 0.00277273 0.00005028 0.03166886
v -0.00379301 -0.08818324 0.01205270
v 0.00275181 -0.08799386 0.01108590
v 0.00275181 -0.08799386 0.01108590
v -0.00248564 -0.07753617 0.03022550
v 0.00334609 -0.08931228 0.01911536
v 0.00334609 -0.08931228 0.01634336
v -0.00277271 0.00673818 0.00378989
v -0.00277274 -0.01024668 0.03166885
v -0.00802181 -0.06972784 0.02973484
v -0.00000000 -0.08931228 0.02135115
v -0.00800857 -0.08556668 0.02308051
v 0.00133193 -0.08818324 0.01103329
v 0.01249614 -0.07753617 0.02021500
v 0.01181733 0.00673818 0.00983329
v 0.01181733 0.00673818 0.02562546
v -0.01333977 -0.06972784 0.01220383
v -0.00277271 0.00005028 0.00378989
v -0.01009100 -0.08312536 0.02190918
v -0.00000000 -0.07753617 0.03047032
v -0.00000000 -0.08556668 0.00809754
v -0.00000000 -0.08556668 0.00809754
v 0.00013617 -0.09000000 0.01775644
v 0.00086004 -0.08987763 0.01686931
v 0.00482759 -0.08818324 0.01290177
v 0.00482759 -0.08818324 0.02255695
v 0.00096607 0.01516401 0.02258612
v -0.01200549 -0.06972784 0.02575116
v -0.00681073 -0.08556668 0.02454008
v 0.00213086 -0.08312536 0.00701681
v 0.00963182 -0.08556668 0.01772936
v 0.00275113 0.01516401 0.01361202
v -0.00301141 -0.08931228 0.01974151
v -0.00070658 -0.08931228 0.02128155
v -0.00508468 -0.08799386 0.01264467
v -0.00508468 -0.08799386 0.01264467
v -0.01181733 -0.01024668 0.02562545
v -0.01181733 0.00005027 0.02562545
v -0.00944674 -0.08556668 0.01585027
v -0.00023729 -0.08987763 0.01653644
v 0.00281688 -0.06972784 0.00356793
v -0.01393948 0.00673818 0.01495662
v -0.01071255 -0.08312536 0.01986021
v 0.00681072 -0.08556668 0.01091863
v 0.00681072 -0.08556668 0.02454008
v -0.00070657 -0.08931228 0.01417716
v -0.00567665 -0.08818324 0.01393634
v 0.00007713 -0.09000000 0.01761392
v -0.00000000 -0.08818324 0.02455661
v -0.00908165 -0.08312536 0.01166118
v -0.00086005 -0.08987763 0.01858940
v 0.00525224 -0.08886531 0.01772936
v -0.00277274 0.00673818 0.03166886
v -0.00291799 -0.08886531 0.02209644
v -0.00000000 -0.08886531 0.01247711
v 0.00355219 -0.08931228 0.01843593
v -0.00664346 -0.08799386 0.02048116
v -0.00664346 -0.08799386 0.02048116
v 0.00664345 -0.08799386 0.01497755
v 0.00664345 -0.08799386 0.01497755
v 0.00664345 -0.08799386 0.02048117
v 0.00664345 -0.08799386 0.02048117
v -0.00485675 0.01516401 0.01869544
v 0.00011544 -0.09000000 0.01780650
v -0.00457496 0.01516401 0.01962438
v 0.00597895 -0.08799386 0.02172437
v 0.00597895 -0.08799386 0.02172437
v 0.00597895 -0.08799386 0.01373435
v 0.00597895 -0.08799386 0.01373435
v -0.00046545 -0.08987763 0.01660566
v -0.00140285 -0.08799386 0.01067670
v -0.00140285 -0.08799386 0.01067670
v -0.00096607 0.01516401 0.02258612
v -0.01393948 0.00673818 0.02050210
v -0.00000000 -0.08312536 0.02865178
v -0.00007714 -0.09000000 0.01784480
v 0.00248563 -0.07753617 0.03022550
v -0.00630755 -0.08818324 0.01511668
v 0.00485675 0.01516401 0.01869544
v -0.01200547 -0.06972784 0.00970754
v -0.00301141 -0.08931228 0.01571720
v -0.01071254 -0.08312536 0.01559849
v 0.00140286 -0.08799386 0.02478202
v 0.00140286 -0.08799386 0.02478202
v -0.01421257 -0.01024668 0.01772936
v -0.01421257 0.00005028 0.01772936
v -0.01181733 0.00673818 0.02562545
v -0.00261268 -0.08818324 0.02403692
v -0.01020983 -0.06972784 0.02793918
v 0.00301140 -0.08931228 0.01974152
v 0.00606817 -0.08312536 0.02681102
v -0.01313070 -0.01024668 0.01229044
v -0.01313070 0.00005028 0.01229044
v 0.00189501 0.01516401 0.02230433
v 0.00485244 -0.08886531 0.01571941
v 0.00485244 -0.08886531 0.01973931
v -0.01181731 -0.01024668 0.00983327
v -0.01181731 0.00005028 0.00983327
v 0.00086004 -0.08987763 0.01858940
v -0.01059371 -0.07753617 0.01065085
v -0.00201215 -0.08931228 0.01471795
v -0.00213086 -0.08312536 0.02844191
v -0.00138600 -0.08931228 0.02107545
v -0.00606816 -0.08312536 0.00864769
v -0.00371389 -0.08886531 0.01401546
v -0.00350152 0.01516401 0.02123089
v 0.00070657 -0.08931228 0.02128155
v -0.00889864 -0.08556668 0.01404341
v -0.00000000 -0.08886531 0.02298160
v -0.00133192 -0.08818324 0.01103329
v 0.00005313 -0.09000000 0.01785763
v -0.00482760 -0.08818324 0.02255695
v 0.00112370 -0.08987763 0.01819481
v -0.00719083 -0.08799386 0.01772935
v -0.00719083 -0.08799386 0.01772935
v 0.00261267 -0.08818324 0.02403692
v 0.01009100 -0.08312536 0.02190919
v 0.01009100 -0.08312536 0.01354953
v 0.00277274 -0.01024668 0.00378989
v -0.01177110 -0.07753617 0.01285360
v 0.00046545 -0.08987763 0.01885306
v 0.00487575 -0.07753617 0.00595826
v -0.00011544 -0.09000000 0.01765222
v -0.00000000 -0.08987763 0.01894565
v 0.00789608 0.00673818 0.00591205
v -0.00772330 -0.08312536 0.01000603
v -0.01274095 -0.07753617 0.01772935
v 0.00772331 -0.08312536 0.01000604
v 0.00772331 -0.08312536 0.02545268
v 0.00355219 -0.08931228 0.01702278
v -0.00002709 -0.09000000 0.01759318
v -0.00119292 -0.08987763 0.01749207
v -0.00119292 -0.08987763 0.01796664
v -0.00256099 -0.08931228 0.02029035
v -0.00436708 -0.08886531 0.01481136
v -0.00000000 -0.08312536 0.00680694
v -0.00000000 -0.08312536 0.00680694
v 0.00000000 0.00673818 0.00351680
v 0.00000000 0.00673818 0.00351680
v 0.00009817 -0.09000000 0.01763118
v 0.00275181 -0.08799386 0.02437282
v 0.00275181 -0.08799386 0.02437282
v -0.00277271 -0.01024668 0.00378988
v -0.01421257 0.00673818 0.01772936
v -0.00000000 -0.08818324 0.01090211
v -0.00000000 -0.08799386 0.01053853
v -0.00000000 -0.08799386 0.01053853
v -0.00000000 -0.08799386 0.01053853
v 0.01249614 -0.07753617 0.01524372
v -0.00112371 -0.08987763 0.01819481
v -0.00291799 -0.08886531 0.01336227
v 0.00119292 -0.08987763 0.01796664
v 0.00012827 -0.09000000 0.01778249
v 0.00002708 -0.09000000 0.01759319
v -0.01416143 -0.06972784 0.02054623
v 0.01004981 0.00673818 0.02777918
v 0.01004981 0.00673818 0.00767957
v 0.00277273 -0.01024668 0.03166886
v 0.00011544 -0.09000000 0.01765222
v -0.01181731 0.00673818 0.00983328
v -0.00399501 -0.08799386 0.02370831
v -0.00399501 -0.08799386 0.02370831
v 0.00707849 -0.07753617 0.00713565
v 0.00802180 -0.06972784 0.02973484
v -0.00140287 -0.08799386 0.02478202
v -0.00140287 -0.08799386 0.02478202
v 0.00908166 -0.08312536 0.01166119
v 0.00908166 -0.08312536 0.02379753
v -0.00552550 -0.06972784 0.00438958
v -0.00567665 -0.08818324 0.02152237
v 0.00121629 -0.08987763 0.01772936
v -0.00133193 -0.08818324 0.02442542
v 0.01059372 -0.07753617 0.02480786
v 0.01059372 -0.07753617 0.01065087
v -0.00543892 0.00673818 0.03086008
v -0.01009099 -0.08312536 0.01354952
v -0.00606818 -0.08312536 0.02681102
v -0.00002709 -0.09000000 0.01786553
v -0.00281689 -0.06972784 0.03189079
v 0.00046545 -0.08987763 0.01660566
v -0.00543890 0.00673818 0.00459866
v -0.00000000 0.00005028 0.03194195
v 0.00350153 0.01516401 0.01422785
v 0.00350153 0.01516401 0.02123089
v -0.00485675 0.01516401 0.01676330
v -0.00256099 -0.08931228 0.01516837
v -0.00543890 -0.01024668 0.00459866
v -0.00543890 0.00005028 0.00459866
v -0.00944675 -0.08556668 0.01960843
v -0.01020981 -0.06972784 0.00751953
v 0.00213085 -0.08312536 0.02844191
v 0.00417983 -0.08312536 0.02782036
v 0.00669606 -0.08818324 0.01906129
v 0.00800856 -0.08556668 0.02308051
v 0.00800856 -0.08556668 0.01237821
v 0.00138600 -0.08931228 0.02107546
v -0.00112370 -0.08987763 0.01726390
v -0.00121629 -0.08987763 0.01772936
v 0.00487575 -0.07753617 0.02950047
v -0.00000000 -0.08556668 0.02736118
v -0.00535116 -0.08556668 0.02573792
v -0.00705266 -0.08799386 0.01632649
v -0.00705266 -0.08799386 0.01632649
v -0.01393948 -0.01024668 0.02050209
v -0.01393948 0.00005028 0.02050210
v 0.00682725 -0.08818324 0.01772936
v 0.00789608 0.00005028 0.02954670
v 0.00802180 -0.06972784 0.00572388
v -0.00275112 0.01516401 0.01361201
v 0.00485675 0.01516401 0.01676330
v -0.00102466 -0.08886531 0.01257803
v 0.00889864 -0.08556668 0.02141530
v 0.00889864 -0.08556668 0.01404342
v 0.01004981 0.00005028 0.02777918
v 0.01004981 0.00005028 0.00767956
v -0.00900922 -0.07753617 0.02673857
v 0.00009817 -0.09000000 0.01782753
v 0.01421257 0.00673818 0.01772937
v -0.00705266 -0.08799386 0.01913221
v -0.00705266 -0.08799386 0.01913221
v 0.00200994 -0.08886531 0.02258180
v 0.00291799 -0.08886531 0.02209644
v 0.00368594 -0.08556668 0.00883072
v 0.00012827 -0.09000000 0.01767623
v -0.00681072 -0.08556668 0.01091863
v -0.01313071 -0.01024668 0.02316828
v -0.00261267 -0.08818324 0.01142180
v 0.01393948 0.00673818 0.02050211
v -0.01092242 -0.08312536 0.01772935
v -0.00789607 0.00673818 0.00591204
v 0.01313071 0.00673818 0.01229046
v 0.01313071 0.00673818 0.02316829
v -0.00515133 -0.08886531 0.01875402
v 0.00417983 -0.08312536 0.00763836
v -0.00000001 -0.06972784 0.03216823
v 0.00630755 -0.08818324 0.02034203
v 0.00630755 -0.08818324 0.01511668
v 0.00281688 -0.06972784 0.03189079
v 0.00705265 -0.08799386 0.01913222
v 0.00705265 -0.08799386 0.01913222
v -0.00789607 -0.01024668 0.00591204
v -0.00011544 -0.09000000 0.01780649
v 0.00133193 -0.08818324 0.02442543
v 0.00567665 -0.08818324 0.02152238
v 0.00567665 -0.08818324 0.01393634
v 0.00669606 -0.08818324 0.01639743
v -0.00101131 -0.08987763 0.01705362
v -0.00275113 0.01516401 0.02184673
v 0.00789608 -0.01024668 0.00591205
v 0.00789608 0.00005028 0.00591205
v -0.00411735 0.01516401 0.01497824
v 0.00277274 0.00005028 0.00378989
v -0.00201216 -0.08931228 0.02074077
v 0.00508468 -0.08799386 0.02281404
v 0.00508468 -0.08799386 0.02281404
v 0.00508468 -0.08799386 0.01264468
v 0.00508468 -0.08799386 0.01264468
v -0.00900920 -0.07753617 0.00872013
v -0.00669607 -0.08818324 0.01639742
v 0.00002709 -0.09000000 0.01786553
v -0.00355220 -0.08931228 0.01702278
v 0.01333977 -0.06972784 0.01220385
v 0.01333977 -0.06972784 0.02325488
v 0.00000000 0.01516401 0.01277747
v 0.00000000 0.01516401 0.01277747
v 0.00013884 -0.09000000 0.01772936
v 0.01092242 -0.08312536 0.01772936
v 0.00200995 -0.08886531 0.01287692
v -0.00275181 -0.08799386 0.02437282
v -0.00275181 -0.08799386 0.02437282
v -0.00277274 0.00005028 0.03166886
v 0.00187907 -0.08556668 0.00828261
v 0.00789608 -0.01024668 0.02954670
v -0.00000000 0.00673818 0.03194195
v -0.00275180 -0.08799386 0.01108590
v -0.00275180 -0.08799386 0.01108590
v -0.00669607 -0.08818324 0.01906128
v -0.00371390 -0.08886531 0.02144325
v 0.00457496 0.01516401 0.01583436
v -0.00023729 -0.08987763 0.01892228
v -0.01313071 0.00673818 0.02316828
v -0.01313071 0.00005028 0.02316828
v -0.00508469 -0.08799386 0.02281404
v -0.00508469 -0.08799386 0.02281404
v -0.00189500 0.01516401 0.01315441
v 0.00187907 -0.08556668 0.02717611
v 0.00707849 -0.07753617 0.02832308
v 0.00515132 -0.08886531 0.01670470
v 0.00515132 -0.08886531 0.01875402
v 0.01177110 -0.07753617 0.01285361
v 0.01177110 -0.07753617 0.02260511
v -0.00000000 -0.08987763 0.01651307
v -0.00000000 -0.08931228 0.01410757
v -0.00515132 -0.08886531 0.01670469
v -0.00436709 -0.08886531 0.02064735
v -0.01249614 -0.07753617 0.01524371
v 0.00189501 0.01516401 0.01315441
v -0.00000000 -0.06972784 0.00329050
v -0.00000000 -0.06972784 0.00329050
v -0.00248562 -0.07753617 0.00523322
v -0.00802179 -0.06972784 0.00572387
v -0.00417983 -0.08312536 0.02782036
v -0.00597895 -0.08799386 0.01373434
v -0.00597895 -0.08799386 0.01373434
v -0.00630756 -0.08818324 0.02034203
v -0.00000000 -0.01024668 0.03194195
v 0.00013617 -0.09000000 0.01770227
v 0.00436708 -0.08886531 0.02064735
v 0.00023728 -0.08987763 0.01653644
v -0.00005313 -0.09000000 0.01760109
v 0.01274095 -0.07753617 0.01772936
v -0.00138600 -0.08931228 0.01438326
v -0.00543892 -0.01024668 0.03086008
v -0.00682725 -0.08818324 0.01772935
v 0.01393948 -0.01024668 0.01495663
v -0.00334609 -0.08931228 0.01634336
v 0.00705265 -0.08799386 0.01632650
v 0.00705265 -0.08799386 0.01632650
v -0.01177111 -0.07753617 0.02260510
v 0.00000000 0.01516401 0.02268127
v -0.01004981 0.00673818 0.02777918
v -0.00189501 0.01516401 0.02230433
v 0.00552551 -0.06972784 0.00438959
v 0.01416143 -0.06972784 0.02054624
v -0.00368594 -0.08556668 0.02662800
v -0.00664346 -0.08799386 0.01497754
v -0.00664346 -0.08799386 0.01497754
v 0.00201216 -0.08931228 0.01471795
v -0.01443887 -0.06972784 0.01772935
v -0.00009818 -0.09000000 0.01763118
v -0.00379302 -0.08818324 0.02340601
v 0.00789608 0.00673818 0.02954670
v 0.00371390 -0.08886531 0.02144326
v 0.00371390 -0.08886531 0.01401546
v 0.00000000 0.00005027 0.00351680
v 0.00000000 0.00005027 0.00351680
v -0.00046546 -0.08987763 0.01885306
v -0.00101131 -0.08987763 0.01840509
v 0.00201215 -0.08931228 0.02074077
v -0.00355220 -0.08931228 0.01843593
v -0.00535114 -0.08556668 0.00972079
v -0.00187908 -0.08556668 0.02717611
v -0.00889864 -0.08556668 0.02141529
v 0.00552551 -0.06972784 0.03106914
v 0.00005313 -0.09000000 0.01760109
v -0.00012827 -0.09000000 0.01778249
v -0.00482759 -0.08818324 0.01290176
v -0.00013618 -0.09000000 0.01770227
v -0.00013618 -0.09000000 0.01775645
v 0.00457496 0.01516401 0.01962438
v -0.00485244 -0.08886531 0.01571941
v 0.00900921 -0.07753617 0.00872015
v 0.00900921 -0.07753617 0.02673858
v -0.00007714 -0.09000000 0.01761392
v 0.01004981 -0.01024668 0.02777918
v 0.01004981 -0.01024668 0.00767956
v 0.00102466 -0.08886531 0.01257803
v -0.00789609 0.00673818 0.02954669
v -0.00800856 -0.08556668 0.01237820
v 0.01421257 -0.01024668 0.01772937
v 0.01421257 0.00005027 0.01772937
v -0.00350152 0.01516401 0.01422784
v 0.01071254 -0.08312536 0.01986022
v 0.00119292 -0.08987763 0.01749207
v 0.00543892 0.00673818 0.00459867
v -0.00411735 0.01516401 0.02048050
v -0.00487576 -0.07753617 0.02950047
v 0.00368593 -0.08556668 0.02662800
v -0.01004979 0.00673818 0.00767955
v 0.00543892 -0.01024668 0.00459867
v 0.00543892 0.00005028 0.00459867
v 0.00007713 -0.09000000 0.01784480
v -0.00096606 0.01516401 0.01287262
v -0.00102467 -0.08886531 0.02288068
v -0.00543892 0.00005028 0.03086008
v -0.00281686 -0.06972784 0.00356793
v 0.01393948 -0.01024668 0.02050211
v 0.01393948 0.00673818 0.01495664
v 0.01393948 0.00005028 0.02050211
v 0.01393948 0.00005028 0.01495664
v -0.00789607 0.00005028 0.00591204
v 0.01313070 -0.01024668 0.01229045
v 0.01313070 -0.01024668 0.02316829
v 0.01313070 0.00005028 0.01229046
v 0.01313070 0.00005028 0.02316829
v 0.00543892 0.00673818 0.03086008
v -0.00399500 -0.08799386 0.01175040
v -0.00399500 -0.08799386 0.01175040
v -0.00487574 -0.07753617 0.00595825
v -0.00495190 0.01516401 0.01772937
v -0.01004979 -0.01024668 0.00767955
v -0.00908166 -0.08312536 0.02379752
v -0.00013884 -0.09000000 0.01772936
v 0.00543891 -0.01024668 0.03086008
v 0.00543891 0.00005028 0.03086008
v -0.00368593 -0.08556668 0.00883071
v 0.00261267 -0.08818324 0.01142180
v 0.00495190 0.01516401 0.01772937
v 0.00096607 0.01516401 0.01287262
v -0.00187906 -0.08556668 0.00828261
v 0.00023728 -0.08987763 0.01892228
v 0.00140286 -0.08799386 0.01067670
v 0.00140286 -0.08799386 0.01067670
v 0.00138600 -0.08931228 0.01438326
v 0.00399501 -0.08799386 0.01175041
v 0.00399501 -0.08799386 0.01175041
v -0.00200995 -0.08886531 0.02258180
v 0.00248564 -0.07753617 0.00523322
v 0.00399501 -0.08799386 0.02370831
v 0.00399501 -0.08799386 0.02370831
v -0.00213084 -0.08312536 0.00701681
v -0.00525224 -0.08886531 0.01772935
v -0.00457495 0.01516401 0.01583436
v -0.00012827 -0.09000000 0.01767623
v -0.00000000 -0.07753617 0.00498841
v -0.00000000 -0.07753617 0.00498841
v 0.00277273 0.00673818 0.03166886
v 0.00719082 -0.08799386 0.01772936
v 0.00719082 -0.08799386 0.01772936
v -0.00362179 -0.08931228 0.01772936
v -0.00334610 -0.08931228 0.01911536
v 0.00379301 -0.08818324 0.01205271
v -0.00597896 -0.08799386 0.02172436
v -0.00597896 -0.08799386 0.02172436
v -0.00552552 -0.06972784 0.03106914
v -0.00200994 -0.08886531 0.01287692
v -0.00005313 -0.09000000 0.01785763
v 0.00102466 -0.08886531 0.02288068
v -0.00789609 -0.01024668 0.02954669
v -0.00789609 0.00005028 0.02954669
v 0.00379301 -0.08818324 0.02340601
v 0.00067573 -0.08987763 0.01874067
v 0.00535115 -0.08556668 0.02573792
v 0.01071254 -0.08312536 0.01559850
v 0.00301140 -0.08931228 0.01571720
v -0.00772332 -0.08312536 0.02545267
v -0.00707848 -0.07753617 0.00713564
v -0.00067573 -0.08987763 0.01874067
v 0.00291799 -0.08886531 0.01336228
v 0.00944674 -0.08556668 0.01960843
v 0.00944674 -0.08556668 0.01585028
v 0.00436708 -0.08886531 0.01481137
v 0.00101130 -0.08987763 0.01705363
v -0.01004979 0.00005028 0.00767955
v -0.00067573 -0.08987763 0.01671805
v 0.01181732 -0.01024668 0.00983329
v 0.01181732 -0.01024668 0.02562545
v 0.01181732 0.00005028 0.00983329
v 0.01181732 0.00005028 0.02562546
v 0.00606817 -0.08312536 0.00864770
v -0.01313070 0.00673818 0.01229044
v -0.00485244 -0.08886531 0.01973930
v -0.01059372 -0.07753617 0.02480785
v -0.00963182 -0.08556668 0.01772935
v -0.01249614 -0.07753617 0.02021499
v -0.00000000 -0.08799386 0.02492019
v -0.00000000 -0.08799386 0.02492019
v -0.00707850 -0.07753617 0.02832308
v 0.00275113 0.01516401 0.02184673
v -0.00009818 -0.09000000 0.01782753
v -0.00000000 -0.09000000 0.01759052
v -0.00000000 -0.09000000 0.01786820
v -0.00011115 0.09000000 0.01801202
v -0.00011115 0.09000000 0.01801202
v 0.00000000 0.08936785 0.01866078
v 0.00154463 0.08276531 0.02145821
v -0.00115033 0.08629031 0.01819891
v -0.00065860 0.08936785 0.01838798
v 0.00210083 0.08629031 0.01562855
v 0.00210083 0.08629031 0.01983021
v 0.00462128 0.08276531 0.01864861
v 0.00015322 0.09000000 0.01766158
v 0.00015322 0.09000000 0.01766158
v 0.00016206 0.08936785 0.01836923
v 0.00337389 0.08629031 0.01840049
v -0.00210083 0.08629031 0.01562855
v 0.00213715 0.08629031 0.01728987
v 0.00411736 0.07946405 0.01497825
v 0.00411736 0.07946405 0.02048051
v 0.00411736 0.01643164 0.02048050
v 0.00411736 0.01643164 0.01497824
v 0.00411736 0.08111468 0.01497825
v 0.00411736 0.08111468 0.02048051
v 0.00411736 0.01516401 0.01497824
v 0.00411736 0.01516401 0.02048050
v 0.00104653 0.08732437 0.01520283
v -0.00317813 0.08629031 0.01641295
v -0.00350152 0.01838604 0.01422784
v -0.00099632 0.08936785 0.01731669
v 0.00051522 0.08629031 0.01888880
v -0.00252654 0.08732436 0.01668285
v -0.00457496 0.01838604 0.01962438
v 0.00096607 0.01643164 0.01287262
v -0.00025110 0.09000000 0.01755066
v -0.00025110 0.09000000 0.01755066
v -0.00096607 0.01838604 0.02258612
v -0.00107218 0.08458506 0.01513189
v -0.00189500 0.07946405 0.01315442
v -0.00189500 0.01643164 0.01315441
v 0.00096607 0.07946405 0.02258613
v 0.00096607 0.08111468 0.02258613
v 0.00096607 0.01516401 0.02258612
v -0.00160068 0.08458506 0.02159376
v -0.00335582 0.08276531 0.01997167
v 0.00189501 0.07946405 0.01315442
v 0.00189501 0.01643164 0.01315441
v 0.00189501 0.08111468 0.01315442
v 0.00000000 0.08276531 0.02244120
v 0.00275113 0.07946405 0.01361202
v 0.00275113 0.01643164 0.01361202
v 0.00275113 0.08111468 0.01361203
v 0.00275113 0.01516401 0.01361202
v -0.00151932 0.08732436 0.02000321
v -0.00372880 0.08276531 0.01927388
v 0.00145035 0.08732436 0.01676029
v 0.00021039 0.08936785 0.01667169
v 0.00151933 0.08732437 0.01545555
v -0.00232382 0.08458506 0.02120723
v -0.00410239 0.08458506 0.01691336
v 0.00018144 0.09000000 0.01746462
v 0.00018144 0.09000000 0.01746462
v 0.00105770 0.08936785 0.01793977
v -0.00062966 0.08936785 0.01784022
v -0.00189501 0.07946405 0.02230434
v -0.00189501 0.01643164 0.02230433
v -0.00189501 0.08111468 0.02230434
v -0.00104653 0.08732436 0.02025593
v -0.00347784 0.08458506 0.01540555
v -0.00207575 0.08629031 0.01812786
v 0.00000000 0.08732437 0.01536748
v 0.00000000 0.08732437 0.01536748
v 0.00361255 0.08458506 0.01772938
v 0.00107803 0.08458506 0.02032297
v 0.00012523 0.09000000 0.01787987
v 0.00012523 0.09000000 0.01787987
v -0.00485675 0.07946405 0.01869544
v -0.00485675 0.01643164 0.01869544
v -0.00485675 0.08111468 0.01869544
v -0.00485675 0.01516401 0.01869544
v -0.00457496 0.07946405 0.01962439
v -0.00457496 0.01643164 0.01962438
v -0.00457496 0.01516401 0.01962438
v 0.00347785 0.08458506 0.02005320
v -0.00052912 0.08936785 0.01808293
v -0.00096607 0.07946405 0.02258613
v -0.00096607 0.01643164 0.02258612
v -0.00096607 0.08111468 0.02258613
v -0.00096607 0.01516401 0.02258612
v -0.00034336 0.08936785 0.01714904
v 0.00180314 0.08276531 0.01337623
v -0.00116250 0.08629031 0.01592310
v -0.00016506 0.09000000 0.01798320
v -0.00016506 0.09000000 0.01798320
v 0.00007346 0.09000000 0.01785414
v 0.00007346 0.09000000 0.01785414
v 0.00031404 0.09000000 0.01778475
v 0.00031404 0.09000000 0.01778475
v 0.00053352 0.08732437 0.01504721
v 0.00485675 0.07946405 0.01869545
v 0.00485675 0.01643164 0.01869544
v 0.00485675 0.08111468 0.01869545
v 0.00485675 0.01516401 0.01869544
v 0.00000000 0.08276531 0.01301756
v 0.00000000 0.08276531 0.01301756
v 0.00268217 0.08732436 0.01826290
v -0.00164388 0.08732436 0.01804196
v -0.00027992 0.09000000 0.01760457
v -0.00027992 0.09000000 0.01760457
v 0.00286025 0.08629031 0.01964053
v -0.00044016 0.08936785 0.01790391
v 0.00189501 0.01516401 0.02230433
v 0.00089667 0.08936785 0.01832852
v 0.00435315 0.08276531 0.01953251
v 0.00000819 0.09000000 0.01741207
v 0.00000819 0.09000000 0.01741207
v 0.00000819 0.09000000 0.01741207
v 0.00232383 0.08458506 0.01425153
v 0.00303419 0.08458506 0.01712581
v -0.00286024 0.08629031 0.01581822
v -0.00191115 0.08629031 0.02058962
v 0.00167012 0.08732437 0.01605926
v 0.00167012 0.08732436 0.01939950
v -0.00350152 0.07946405 0.02123090
v -0.00350152 0.01643164 0.02123089
v -0.00350152 0.08111468 0.02123090
v -0.00350152 0.01516401 0.02123089
v -0.00167011 0.08732436 0.01939950
v -0.00081602 0.08458506 0.02183178
v 0.00372896 0.08276531 0.01618477
v 0.00180947 0.08111468 0.02209783
v 0.00017895 0.09000000 0.01760981
v 0.00017895 0.09000000 0.01760981
v 0.00052530 0.08732436 0.01890292
v -0.00485675 0.01838604 0.01676330
v 0.00297103 0.08629031 0.01772938
v 0.00050157 0.08936785 0.01751383
v 0.00122391 0.08629031 0.01949463
v -0.00017389 0.09000000 0.01775596
v -0.00017389 0.09000000 0.01775596
v -0.00060343 0.08458506 0.01469522
v -0.00091923 0.08276531 0.02235066
v -0.00030366 0.09000000 0.01772391
v -0.00030366 0.09000000 0.01772391
v 0.00065860 0.08936785 0.01707078
v 0.00065860 0.08936785 0.01838798
v 0.00005505 0.09000000 0.01790894
v 0.00005505 0.09000000 0.01790894
v 0.00096607 0.01838604 0.01287262
v -0.00091787 0.08732437 0.01628922
v -0.00093140 0.08936785 0.01772938
v 0.00036380 0.08732436 0.01938345
v 0.00000000 0.08936785 0.01679798
v 0.00000000 0.08936785 0.01679798
v -0.00255445 0.08458506 0.01517492
v -0.00391773 0.08276531 0.01511163
v -0.00297102 0.08629031 0.01772938
v -0.00361255 0.08458506 0.01772938
v -0.00116335 0.08732436 0.01820346
v 0.00040477 0.08936785 0.01826869
v 0.00000000 0.08629031 0.01475836
v 0.00000000 0.08629031 0.01475836
v -0.00138894 0.08732436 0.01865744
v -0.00041269 0.08936785 0.01872571
v -0.00171860 0.08458506 0.01515713
v 0.00335599 0.08276531 0.01548698
v 0.00350153 0.07946405 0.01422786
v 0.00350153 0.07946405 0.02123090
v 0.00350153 0.01643164 0.01422785
v 0.00350153 0.01643164 0.02123089
v 0.00350153 0.08111468 0.02123090
v 0.00350153 0.08111468 0.01422786
v 0.00350153 0.01516401 0.01422785
v 0.00350153 0.01516401 0.02123089
v -0.00189501 0.01838604 0.02230433
v -0.00485675 0.07946405 0.01676331
v -0.00485675 0.01643164 0.01676330
v -0.00485675 0.08111468 0.01676331
v -0.00485675 0.01516401 0.01676330
v 0.00120511 0.08629031 0.01722325
v 0.00078749 0.08276531 0.02168789
v 0.00252655 0.08732436 0.01877591
v -0.00021039 0.08936785 0.01878708
v 0.00171877 0.08458506 0.02030152
v -0.00224226 0.08276531 0.01437342
v -0.00485675 0.01838604 0.01869544
v 0.00131643 0.08629031 0.01455125
v 0.00000819 0.09000000 0.01803576
v 0.00000819 0.09000000 0.01803576
v 0.00160068 0.08458506 0.01386500
v 0.00060360 0.08458506 0.02076344
v 0.00122476 0.08732436 0.01721427
v -0.00275112 0.07946405 0.01361202
v -0.00275112 0.01643164 0.01361201
v -0.00275112 0.08111468 0.01361202
v -0.00275112 0.01516401 0.01361201
v 0.00485675 0.07946405 0.01676331
v 0.00485675 0.01643164 0.01676330
v 0.00485675 0.08111468 0.01676331
v 0.00485675 0.01838604 0.01676330
v 0.00485675 0.01838604 0.01869544
v 0.00485675 0.01516401 0.01676330
v -0.00167011 0.08732437 0.01605926
v -0.00333175 0.08276531 0.01439762
v 0.00097928 0.08732436 0.01912851
v -0.00436845 0.08111468 0.01953885
v 0.00091923 0.08276531 0.01310810
v -0.00236190 0.08732436 0.01772938
v 0.00395864 0.08276531 0.01694192
v -0.00154447 0.08276531 0.01400044
v 0.00410240 0.08458506 0.01854540
v -0.00014482 0.09000000 0.01782615
v -0.00014482 0.09000000 0.01782615
v -0.00350152 0.01838604 0.02123089
v -0.00053351 0.08732436 0.02041155
v 0.00189501 0.01838604 0.02230433
v 0.00099633 0.08936785 0.01814207
v 0.00096607 0.01838604 0.02258612
v 0.00259846 0.08458506 0.01665232
v 0.00317813 0.08629031 0.01904581
v -0.00333176 0.08276531 0.02106114
v -0.00275113 0.07946405 0.02184673
v -0.00275113 0.01643164 0.02184673
v -0.00275113 0.08111468 0.02184673
v -0.00275113 0.01516401 0.02184673
v 0.00059914 0.08936785 0.01683271
v 0.00006902 0.09000000 0.01741806
v 0.00006902 0.09000000 0.01741806
v -0.00411735 0.07946405 0.01497825
v -0.00411735 0.01643164 0.01497824
v -0.00411735 0.08111468 0.01497825
v -0.00411735 0.01838604 0.01497824
v -0.00411735 0.01516401 0.01497824
v -0.00030239 0.08732437 0.01603428
v -0.00059913 0.08936785 0.01862605
v -0.00395848 0.08276531 0.01851673
v -0.00078732 0.08276531 0.01377077
v -0.00268216 0.08732436 0.01719586
v 0.00000000 0.08458506 0.01411683
v 0.00000000 0.08458506 0.01411683
v 0.00000000 0.01516401 0.01277747
v 0.00000000 0.01516401 0.01277747
v -0.00046044 0.08629031 0.01653336
v -0.00337388 0.08629031 0.01705827
v 0.00069106 0.08936785 0.01757751
v 0.00181646 0.08629031 0.01651566
v 0.00059053 0.08936785 0.01733480
v 0.00022869 0.09000000 0.01794442
v 0.00022869 0.09000000 0.01794442
v 0.00022869 0.09000000 0.01750341
v 0.00022869 0.09000000 0.01750341
v 0.00026748 0.09000000 0.01789716
v 0.00026748 0.09000000 0.01789716
v 0.00000000 0.08458506 0.02134193
v -0.00180313 0.08276531 0.02208253
v 0.00457496 0.07946405 0.01583437
v 0.00457496 0.01643164 0.01583436
v 0.00457496 0.01838604 0.01962438
v 0.00457496 0.01838604 0.01583436
v 0.00457496 0.01516401 0.01583436
v -0.00462128 0.08276531 0.01681015
v -0.00016434 0.08936785 0.01723800
v -0.00189500 0.01516401 0.01315441
v -0.00038829 0.08629031 0.01560242
v -0.00131642 0.08629031 0.02090751
v -0.00411735 0.01838604 0.02048050
v 0.00189501 0.01516401 0.01315441
v -0.00096606 0.01838604 0.01287262
v 0.00020802 0.09000000 0.01768000
v 0.00020802 0.09000000 0.01768000
v 0.00189501 0.07946405 0.02230434
v 0.00189501 0.01643164 0.02230433
v -0.00255446 0.08458506 0.02028384
v 0.00350153 0.01838604 0.01422785
v 0.00350153 0.01838604 0.02123089
v -0.00089667 0.08936785 0.01713024
v 0.00096607 0.01643164 0.02258612
v 0.00067111 0.08629031 0.01435550
v 0.00170529 0.08732436 0.01737577
v -0.00029766 0.09000000 0.01766307
v -0.00029766 0.09000000 0.01766307
v 0.00000000 0.01838604 0.01277747
v 0.00000000 0.01838604 0.01277747
v 0.00255446 0.08458506 0.01517492
v 0.00255446 0.08458506 0.02028384
v 0.00495190 0.01838604 0.01772937
v 0.00000000 0.01516401 0.02268127
v -0.00189501 0.01516401 0.02230433
v -0.00021232 0.09000000 0.01794442
v -0.00021232 0.09000000 0.01794442
v 0.00236190 0.08732436 0.01772938
v -0.00003933 0.09000000 0.01758182
v -0.00003933 0.09000000 0.01758182
v 0.00227384 0.08732436 0.01924871
v -0.00105769 0.08936785 0.01751899
v -0.00457495 0.01838604 0.01583436
v -0.00005265 0.09000000 0.01802976
v -0.00005265 0.09000000 0.01802976
v -0.00172822 0.08630193 0.01894613
v -0.00009110 0.09000000 0.01755610
v -0.00009110 0.09000000 0.01755610
v 0.00457496 0.07946405 0.01962439
v 0.00457496 0.01643164 0.01962438
v 0.00457496 0.08111468 0.01962439
v 0.00457496 0.01516401 0.01962438
v -0.00210083 0.08629031 0.01983021
v -0.00065859 0.08936785 0.01707078
v -0.00350152 0.07946405 0.01422785
v -0.00350152 0.01643164 0.01422784
v -0.00350152 0.08111468 0.01422785
v -0.00350152 0.01516401 0.01422784
v -0.00189500 0.01838604 0.01315441
v 0.00032003 0.09000000 0.01772391
v 0.00032003 0.09000000 0.01772391
v 0.00041270 0.08936785 0.01673305
v -0.00261774 0.08276531 0.02164711
v -0.00411735 0.07946405 0.02048051
v -0.00411735 0.01643164 0.02048050
v -0.00411735 0.08111468 0.02048051
v -0.00411735 0.01516401 0.02048050
v 0.00044970 0.08629031 0.01981532
v -0.00303403 0.08458506 0.01833285
v -0.00096606 0.07946405 0.01287263
v -0.00096606 0.01643164 0.01287262
v -0.00096606 0.08111468 0.01287263
v -0.00096606 0.01516401 0.01287262
v 0.00000000 0.01838604 0.02268127
v -0.00386437 0.08458506 0.01612870
v 0.00275113 0.01838604 0.02184673
v 0.00386438 0.08458506 0.01933006
v 0.00471182 0.08276531 0.01772938
v 0.00000000 0.07946405 0.01277748
v 0.00000000 0.07946405 0.01277748
v 0.00000000 0.01643164 0.01277747
v 0.00000000 0.01643164 0.01277747
v 0.00000000 0.08111468 0.01277748
v 0.00000000 0.08111468 0.01277748
v -0.00471181 0.08276531 0.01772938
v -0.00495190 0.07946405 0.01772938
v -0.00495190 0.01643164 0.01772937
v -0.00495190 0.08111468 0.01772938
v -0.00495190 0.01516401 0.01772937
v 0.00029629 0.09000000 0.01784325
v 0.00029629 0.09000000 0.01784325
v 0.00495190 0.07946405 0.01772938
v 0.00495190 0.01643164 0.01772937
v 0.00495190 0.08111468 0.01772938
v 0.00495190 0.01516401 0.01772937
v 0.00096607 0.07946405 0.01287263
v 0.00096607 0.08111468 0.01287263
v 0.00096607 0.01516401 0.01287262
v -0.00021232 0.09000000 0.01750341
v -0.00021232 0.09000000 0.01750341
v -0.00275113 0.01838604 0.02184673
v 0.00261775 0.08276531 0.01381165
v 0.00191116 0.08629031 0.01486914
v -0.00457495 0.07946405 0.01583436
v -0.00457495 0.01643164 0.01583436
v -0.00457495 0.08111468 0.01583436
v -0.00457495 0.01516401 0.01583436
v 0.00081602 0.08458506 0.01362698
v -0.00259262 0.08458506 0.01880254
v -0.00180946 0.08111468 0.01336093
v 0.00411736 0.01838604 0.01497824
v 0.00411736 0.01838604 0.02048050
v -0.00227383 0.08732437 0.01621005
v -0.00275112 0.01838604 0.01361201
v 0.00022574 0.08936785 0.01817973
v 0.00000000 0.08732436 0.02009128
v 0.00000000 0.07946405 0.02268128
v 0.00000000 0.01643164 0.02268127
v 0.00000000 0.08111468 0.02268128
v 0.00436845 0.08111468 0.01591991
v 0.00012752 0.09000000 0.01743581
v 0.00012752 0.09000000 0.01743581
v -0.00067111 0.08629031 0.02110327
v -0.00010065 0.08936785 0.01704851
v -0.00011910 0.09000000 0.01777438
v -0.00011910 0.09000000 0.01777438
v -0.00257211 0.08458506 0.01944801
v 0.00000000 0.08629031 0.02070040
v 0.00257227 0.08458506 0.01601064
v 0.00224243 0.08276531 0.02108523
v -0.00495190 0.01838604 0.01772937
v 0.00093140 0.08936785 0.01772938
v -0.00046389 0.08732436 0.01651481
v 0.00189501 0.01838604 0.01315441
v 0.00391774 0.08276531 0.02034713
v -0.00435315 0.08276531 0.01592624
v 0.00275113 0.07946405 0.02184674
v 0.00275113 0.01643164 0.02184673
v 0.00275113 0.08111468 0.02184674
v 0.00275113 0.01838604 0.01361202
v 0.00275113 0.01516401 0.02184673
v -0.00002092 0.09000000 0.01752703
v -0.00002092 0.09000000 0.01752703
v 0.00333176 0.08276531 0.02106114
v 0.00333176 0.08276531 0.01439762
f 217 316 319
f 217 319 43
f 297 317 39
f 297 39 22
f 316 119 183
f 316 183 319
f 317 151 175
f 317 175 39
f 119 145 168
f 119 168 183
f 151 235 246
f 151 246 175
f 129 302 301
f 129 301 33
f 145 125 58
f 145 58 168
f 235 96 253
f 235 253 246
f 302 9 300
f 302 300 301
f 125 326 14
f 125 14 58
f 96 69 172
f 96 172 253
f 9 97 252
f 9 252 300
f 326 199 191
f 326 191 14
f 69 164 228
f 69 228 172
f 97 124 192
f 97 192 252
f 199 40 219
f 199 219 191
f 164 165 271
f 164 271 228
f 124 61 264
f 124 264 192
f 40 130 34
f 40 34 219
f 165 90 315
f 165 315 271
f 61 150 98
f 61 98 264
f 90 126 59
f 90 59 315
f 150 77 48
f 150 48 98
f 126 146 167
f 126 167 59
f 77 195 329
f 77 329 48
f 146 118 182
f 146 182 167
f 195 57 160
f 195 160 329
f 118 269 318
f 118 318 182
f 57 32 254
f 57 254 160
f 269 217 43
f 269 43 318
f 32 297 22
f 32 22 254
f 226 80 47
f 226 47 227
f 73 181 36
f 73 36 17
f 194 186 268
f 194 268 281
f 173 308 6
f 173 6 245
f 68 226 227
f 68 227 177
f 330 73 17
f 330 17 135
f 198 194 281
f 198 281 287
f 155 173 245
f 155 245 216
f 134 68 177
f 134 177 79
f 42 330 135
f 42 135 247
f 26 198 287
f 26 287 325
f 256 155 216
f 256 216 12
f 54 134 79
f 54 79 11
f 225 42 247
f 225 247 7
f 136 26 325
f 136 325 184
f 63 256 12
f 63 12 16
f 327 54 11
f 327 11 92
f 93 225 7
f 93 7 28
f 248 136 184
f 248 184 178
f 41 63 16
f 41 16 141
f 139 327 92
f 139 92 95
f 251 93 28
f 251 28 76
f 288 248 178
f 288 178 299
f 208 41 141
f 208 141 255
f 8 132 250
f 8 250 212
f 169 103 233
f 169 233 49
f 272 139 95
f 272 95 320
f 200 251 76
f 200 76 163
f 307 288 299
f 307 299 18
f 273 208 255
f 273 255 203
f 270 8 212
f 270 212 275
f 201 169 49
f 201 49 243
f 196 272 320
f 196 320 283
f 72 200 163
f 72 163 234
f 221 307 18
f 221 18 154
f 159 273 203
f 159 203 202
f 123 270 275
f 123 275 210
f 31 201 243
f 31 243 179
f 153 196 283
f 153 283 158
f 236 72 234
f 236 234 147
f 62 221 154
f 62 154 218
f 70 159 202
f 70 202 152
f 137 123 210
f 137 210 185
f 64 31 179
f 64 179 15
f 19 153 158
f 19 158 30
f 65 236 147
f 65 147 278
f 149 62 218
f 149 218 277
f 82 70 152
f 82 152 309
f 25 137 185
f 25 185 324
f 257 64 15
f 257 15 13
f 131 19 30
f 131 30 249
f 102 65 278
f 102 278 232
f 263 149 277
f 263 277 312
f 170 82 309
f 170 309 21
f 197 25 324
f 197 324 286
f 156 257 13
f 156 13 215
f 242 263 312
f 242 312 4
f 229 170 21
f 229 21 85
f 280 197 286
f 280 286 282
f 142 156 215
f 142 215 5
f 80 242 4
f 80 4 47
f 181 229 85
f 181 85 36
f 186 280 282
f 186 282 268
f 308 142 5
f 308 5 6
f 66 50 51
f 66 51 67
f 83 265 266
f 83 266 84
f 50 109 111
f 50 111 51
f 265 213 214
f 265 214 266
f 109 113 114
f 109 114 111
f 213 161 162
f 213 162 214
f 104 86 87
f 104 87 106
f 113 188 190
f 113 190 114
f 161 303 304
f 161 304 162
f 86 289 290
f 86 290 87
f 188 23 24
f 188 24 190
f 303 206 207
f 303 207 304
f 289 121 122
f 289 122 290
f 23 44 45
f 23 45 24
f 206 291 292
f 206 292 207
f 121 230 231
f 121 231 122
f 291 100 101
f 291 101 292
f 230 127 128
f 230 128 231
f 44 259 260
f 44 260 45
f 100 37 38
f 100 38 101
f 127 143 144
f 127 144 128
f 37 187 189
f 37 189 38
f 143 305 306
f 143 306 144
f 187 112 115
f 187 115 189
f 305 293 294
f 305 294 306
f 112 108 110
f 112 110 115
f 293 74 75
f 293 75 294
f 108 88 89
f 108 89 110
f 74 52 53
f 74 53 75
f 52 83 84
f 52 84 53
f 285 279 205
f 285 205 116
f 88 66 67
f 88 67 89
f 78 176 244
f 78 244 224
f 193 46 35
f 193 35 27
f 279 267 180
f 279 180 205
f 323 285 116
f 323 116 55
f 10 78 224
f 10 224 99
f 261 323 55
f 261 55 238
f 91 10 99
f 91 99 148
f 220 261 238
f 220 238 81
f 94 91 148
f 94 148 174
f 298 220 81
f 298 81 140
f 296 94 174
f 296 174 314
f 259 105 107
f 259 107 260
f 204 296 314
f 204 314 29
f 138 298 140
f 138 140 328
f 274 120 310
f 274 310 71
f 120 2 223
f 120 223 310
f 237 138 328
f 237 328 321
f 209 274 71
f 209 71 276
f 157 204 29
f 157 29 258
f 20 237 321
f 20 321 211
f 262 209 276
f 262 276 239
f 133 157 258
f 133 258 60
f 240 20 211
f 240 211 313
f 322 262 239
f 322 239 56
f 1 133 60
f 1 60 222
f 311 240 313
f 311 313 166
f 284 322 56
f 284 56 117
f 3 311 166
f 3 166 295
f 241 284 117
f 241 117 171
f 46 3 295
f 46 295 35
f 267 241 171
f 267 171 180
f 83 52 27
f 83 27 35
f 66 88 205
f 66 205 180
f 52 74 244
f 52 244 27
f 88 108 116
f 88 116 205
f 74 293 224
f 74 224 244
f 108 112 55
f 108 55 116
f 293 305 99
f 293 99 224
f 112 187 238
f 112 238 55
f 305 143 148
f 305 148 99
f 187 37 81
f 187 81 238
f 143 127 174
f 143 174 148
f 37 100 140
f 37 140 81
f 105 259 310
f 105 310 223
f 127 230 314
f 127 314 174
f 100 291 328
f 100 328 140
f 259 44 71
f 259 71 310
f 230 121 29
f 230 29 314
f 291 206 321
f 291 321 328
f 44 23 276
f 44 276 71
f 121 289 258
f 121 258 29
f 206 303 211
f 206 211 321
f 23 188 239
f 23 239 276
f 289 86 60
f 289 60 258
f 303 161 313
f 303 313 211
f 188 113 56
f 188 56 239
f 86 104 222
f 86 222 60
f 161 213 166
f 161 166 313
f 113 109 117
f 113 117 56
f 213 265 295
f 213 295 166
f 109 50 171
f 109 171 117
f 265 83 35
f 265 35 295
f 50 66 180
f 50 180 171
f 176 193 27
f 176 27 244
f 181 73 53
f 181 53 84
f 308 173 89
f 308 89 67
f 73 330 75
f 73 75 53
f 173 155 110
f 173 110 89
f 330 42 294
f 330 294 75
f 155 256 115
f 155 115 110
f 42 225 306
f 42 306 294
f 256 63 189
f 256 189 115
f 225 93 144
f 225 144 306
f 63 41 38
f 63 38 189
f 93 251 128
f 93 128 144
f 41 208 101
f 41 101 38
f 103 169 260
f 103 260 107
f 251 200 231
f 251 231 128
f 208 273 292
f 208 292 101
f 169 201 45
f 169 45 260
f 200 72 122
f 200 122 231
f 273 159 207
f 273 207 292
f 201 31 24
f 201 24 45
f 72 236 290
f 72 290 122
f 159 70 304
f 159 304 207
f 31 64 190
f 31 190 24
f 236 65 87
f 236 87 290
f 70 82 162
f 70 162 304
f 64 257 114
f 64 114 190
f 65 102 106
f 65 106 87
f 82 170 214
f 82 214 162
f 257 156 111
f 257 111 114
f 170 229 266
f 170 266 214
f 156 142 51
f 156 51 111
f 229 181 84
f 229 84 266
f 142 308 67
f 142 67 51
f 430 677 631
f 430 631 410
f 700 369 780
f 700 780 415
f 540 389 482
f 540 482 514
f 730 642 538
f 730 538 365
f 679 430 410
f 679 410 532
f 351 540 514
f 351 514 372
f 621 730 365
f 621 365 495
f 605 679 532
f 605 532 715
f 636 351 372
f 636 372 588
f 463 605 715
f 463 715 678
f 567 636 588
f 567 588 735
f 723 463 678
f 723 678 444
f 755 567 735
f 755 735 575
f 422 723 444
f 422 444 638
f 436 755 575
f 436 575 585
f 420 422 638
f 420 638 431
f 707 436 585
f 707 585 589
f 747 420 431
f 747 431 501
f 352 707 589
f 352 589 373
f 542 747 501
f 542 501 399
f 541 352 373
f 541 373 513
f 770 542 399
f 770 399 808
f 816 541 513
f 816 513 689
f 608 770 808
f 608 808 517
f 451 816 689
f 451 689 743
f 756 622 496
f 756 496 339
f 719 608 517
f 719 517 726
f 384 451 743
f 384 743 774
f 654 756 339
f 654 339 722
f 566 719 726
f 566 726 587
f 677 384 774
f 677 774 631
f 389 654 722
f 389 722 482
f 642 566 587
f 642 587 538
f 370 754 360
f 370 360 759
f 797 388 776
f 797 776 596
f 546 700 415
f 546 415 577
f 569 797 596
f 569 596 419
f 811 546 577
f 811 577 472
f 551 569 419
f 551 419 424
f 396 811 472
f 396 472 559
f 402 551 424
f 402 424 612
f 465 396 559
f 465 559 684
f 790 402 612
f 790 612 766
f 716 465 684
f 716 684 660
f 725 790 766
f 725 766 499
f 629 379 504
f 629 504 760
f 582 716 660
f 582 660 393
f 643 725 499
f 643 499 441
f 580 629 760
f 580 760 361
f 698 582 393
f 698 393 745
f 557 643 441
f 557 441 813
f 354 580 361
f 354 361 762
f 753 698 745
f 753 745 633
f 699 557 813
f 699 813 522
f 401 354 762
f 401 762 613
f 757 753 633
f 757 633 428
f 682 699 522
f 682 522 626
f 552 401 613
f 552 613 426
f 378 757 428
f 378 428 503
f 558 682 626
f 558 626 519
f 570 552 426
f 570 426 417
f 386 558 519
f 386 519 641
f 798 570 417
f 798 417 674
f 369 386 641
f 369 641 780
f 388 798 674
f 388 674 776
f 691 796 685
f 691 685 342
f 467 502 505
f 467 505 429
f 779 382 614
f 779 614 763
f 382 602 425
f 382 425 614
f 602 594 416
f 602 416 425
f 594 603 675
f 594 675 416
f 603 563 775
f 603 775 675
f 563 550 597
f 563 597 775
f 550 593 418
f 550 418 597
f 593 601 423
f 593 423 418
f 601 383 611
f 601 611 423
f 383 788 767
f 383 767 611
f 788 473 498
f 788 498 767
f 473 600 440
f 473 440 498
f 600 406 814
f 600 814 440
f 406 529 523
f 406 523 814
f 529 445 627
f 529 627 523
f 445 688 518
f 445 518 627
f 688 469 640
f 688 640 518
f 469 527 781
f 469 781 640
f 527 662 414
f 527 414 781
f 662 634 576
f 662 576 414
f 634 671 471
f 634 471 576
f 671 616 560
f 671 560 471
f 616 435 683
f 616 683 560
f 435 404 661
f 435 661 683
f 404 704 392
f 404 392 661
f 704 359 744
f 704 744 392
f 359 584 632
f 359 632 744
f 584 467 429
f 584 429 632
f 754 779 763
f 754 763 360
f 796 625 761
f 796 761 685
f 452 799 792
f 452 792 364
f 645 452 364
f 645 364 487
f 409 645 487
f 409 487 344
f 646 409 344
f 646 344 413
f 453 646 413
f 453 413 363
f 665 453 363
f 665 363 447
f 690 665 447
f 690 447 341
f 579 690 341
f 579 341 696
f 578 579 696
f 578 696 553
f 785 578 553
f 785 553 464
f 466 785 464
f 466 464 368
f 731 466 368
f 731 368 391
f 764 731 391
f 764 391 460
f 411 764 460
f 411 460 610
f 635 411 610
f 635 610 491
f 652 635 491
f 652 491 390
f 809 652 390
f 809 390 778
f 590 809 778
f 590 778 697
f 769 590 697
f 769 697 777
f 651 769 777
f 651 777 618
f 708 651 618
f 708 618 673
f 492 708 673
f 492 673 438
f 462 492 438
f 462 438 543
f 508 462 543
f 508 543 458
f 783 508 458
f 783 458 669
f 568 783 669
f 568 669 403
f 799 691 342
f 799 342 792
f 502 370 759
f 502 759 505
f 754 370 714
f 754 714 625
f 412 568 403
f 412 403 650
f 779 754 625
f 779 625 796
f 382 779 796
f 382 796 691
f 602 382 691
f 602 691 799
f 594 602 799
f 594 799 452
f 603 594 452
f 603 452 645
f 563 603 645
f 563 645 409
f 550 563 409
f 550 409 646
f 593 550 646
f 593 646 453
f 601 593 453
f 601 453 665
f 383 601 665
f 383 665 690
f 788 383 690
f 788 690 579
f 473 788 579
f 473 579 578
f 600 473 578
f 600 578 785
f 406 600 785
f 406 785 466
f 529 406 466
f 529 466 731
f 445 529 731
f 445 731 764
f 688 445 764
f 688 764 411
f 469 688 411
f 469 411 635
f 527 469 635
f 527 635 652
f 662 527 652
f 662 652 809
f 634 662 809
f 634 809 590
f 671 634 590
f 671 590 769
f 616 671 769
f 616 769 651
f 435 616 651
f 435 651 708
f 404 435 708
f 404 708 492
f 704 404 492
f 704 492 462
f 359 704 462
f 359 462 508
f 584 359 508
f 584 508 783
f 467 584 783
f 467 783 568
f 502 467 568
f 502 568 412
f 370 502 412
f 370 412 714
f 818 511 666
f 818 666 649
f 511 702 537
f 511 537 666
f 702 405 350
f 702 350 537
f 405 497 381
f 405 381 350
f 497 516 800
f 497 800 381
f 516 581 345
f 516 345 800
f 581 664 721
f 581 721 345
f 664 623 528
f 664 528 721
f 623 380 509
f 623 509 528
f 380 510 470
f 380 470 509
f 510 421 353
f 510 353 470
f 421 574 456
f 421 456 353
f 574 729 789
f 574 789 456
f 729 468 478
f 729 478 789
f 468 617 758
f 468 758 478
f 617 819 481
f 617 481 758
f 819 535 637
f 819 637 481
f 535 784 694
f 535 694 637
f 784 433 795
f 784 795 694
f 433 817 408
f 433 408 795
f 817 599 695
f 817 695 408
f 599 703 507
f 599 507 695
f 703 706 490
f 703 490 507
f 706 750 555
f 706 555 490
f 750 705 489
f 750 489 555
f 705 771 554
f 705 554 489
f 771 480 604
f 771 604 554
f 480 687 337
f 480 337 604
f 687 711 802
f 687 802 337
f 711 667 427
f 711 427 802
f 667 488 397
f 667 397 427
f 488 818 649
f 488 649 397
f 714 412 650
f 714 650 343
f 649 666 343
f 649 343 650
f 666 537 761
f 666 761 343
f 537 350 685
f 537 685 761
f 350 381 342
f 350 342 685
f 381 800 792
f 381 792 342
f 800 345 364
f 800 364 792
f 345 721 487
f 345 487 364
f 721 528 344
f 721 344 487
f 528 509 413
f 528 413 344
f 509 470 363
f 509 363 413
f 470 353 447
f 470 447 363
f 353 456 341
f 353 341 447
f 456 789 696
f 456 696 341
f 789 478 553
f 789 553 696
f 478 758 464
f 478 464 553
f 758 481 368
f 758 368 464
f 481 637 391
f 481 391 368
f 637 694 460
f 637 460 391
f 694 795 610
f 694 610 460
f 795 408 491
f 795 491 610
f 408 695 390
f 408 390 491
f 695 507 778
f 695 778 390
f 507 490 697
f 507 697 778
f 490 555 777
f 490 777 697
f 555 489 618
f 555 618 777
f 489 554 673
f 489 673 618
f 554 604 438
f 554 438 673
f 604 337 543
f 604 543 438
f 337 802 458
f 337 458 543
f 802 427 669
f 802 669 458
f 427 397 403
f 427 403 669
f 397 649 650
f 397 650 403
f 625 714 343
f 625 343 761
f 718 737 672
f 718 672 717
f 395 334 333
f 395 333 394
f 737 741 739
f 737 739 672
f 334 787 786
f 334 786 333
f 741 805 803
f 741 803 739
f 787 732 670
f 787 670 786
f 692 375 500
f 692 500 331
f 805 572 713
f 805 713 803
f 732 628 366
f 732 366 670
f 375 545 544
f 375 544 500
f 572 607 606
f 572 606 713
f 628 539 663
f 628 663 366
f 545 738 598
f 545 598 544
f 607 728 727
f 607 727 606
f 539 358 515
f 539 515 663
f 738 801 748
f 738 748 598
f 728 609 476
f 728 476 727
f 377 434 548
f 377 548 432
f 358 752 751
f 358 751 515
f 801 455 454
f 801 454 748
f 609 693 332
f 609 332 476
f 752 564 630
f 752 630 751
f 455 450 449
f 455 449 454
f 564 571 712
f 564 712 630
f 450 347 346
f 450 346 449
f 571 806 804
f 571 804 712
f 347 443 442
f 347 442 346
f 806 742 740
f 806 740 804
f 443 562 561
f 443 561 442
f 742 736 734
f 742 734 740
f 530 648 474
f 530 474 525
f 562 639 583
f 562 583 561
f 484 812 400
f 484 400 586
f 736 718 717
f 736 717 734
f 639 395 394
f 639 394 583
f 676 810 749
f 676 749 376
f 371 668 624
f 371 624 720
f 653 484 586
f 653 586 439
f 710 530 525
f 710 525 486
f 477 653 439
f 477 439 533
f 644 710 486
f 644 486 448
f 457 477 533
f 457 533 407
f 556 644 448
f 556 448 549
f 615 457 407
f 615 407 483
f 434 556 549
f 434 549 548
f 479 765 387
f 479 387 591
f 794 615 483
f 794 483 461
f 765 773 494
f 765 494 387
f 520 479 591
f 520 591 807
f 746 794 461
f 746 461 340
f 362 377 432
f 362 432 459
f 709 520 807
f 709 807 485
f 657 746 340
f 657 340 768
f 724 362 459
f 724 459 659
f 531 709 485
f 531 485 524
f 772 657 768
f 772 768 493
f 815 724 659
f 815 659 534
f 647 531 524
f 647 524 475
f 573 815 534
f 573 534 793
f 506 647 475
f 506 475 791
f 810 573 793
f 810 793 749
f 668 506 791
f 668 791 624
f 648 371 720
f 648 720 474
f 506 668 336
f 506 336 335
f 573 810 385
f 573 385 446
f 647 506 335
f 647 335 619
f 815 573 446
f 815 446 367
f 531 647 619
f 531 619 349
f 724 815 367
f 724 367 782
f 657 772 655
f 657 655 733
f 709 531 349
f 709 349 355
f 362 724 782
f 362 782 536
f 746 657 733
f 746 733 526
f 520 709 355
f 520 355 565
f 377 362 536
f 377 536 592
f 794 746 526
f 794 526 658
f 479 520 565
f 479 565 680
f 434 377 592
f 434 592 595
f 615 794 658
f 615 658 547
f 765 479 680
f 765 680 398
f 556 434 595
f 556 595 701
f 457 615 547
f 457 547 437
f 773 765 398
f 773 398 656
f 644 556 701
f 644 701 521
f 477 457 437
f 477 437 374
f 710 644 521
f 710 521 356
f 653 477 374
f 653 374 338
f 530 710 356
f 530 356 348
f 484 653 338
f 484 338 686
f 648 530 348
f 648 348 620
f 812 484 686
f 812 686 512
f 371 648 620
f 371 620 681
f 676 812 512
f 676 512 357
f 668 371 681
f 668 681 336
f 810 676 357
f 810 357 385
f 812 676 376
f 812 376 400
f 706 705 750
f 705 706 703
f 705 703 771
f 771 703 599
f 771 599 480
f 480 599 817
f 480 817 687
f 687 817 433
f 687 433 711
f 711 433 784
f 711 784 667
f 667 784 535
f 667 535 488
f 488 535 819
f 488 819 818
f 818 819 511
f 511 819 617
f 511 617 702
f 702 617 468
f 702 468 729
f 702 729 405
f 405 729 574
f 405 574 497
f 497 574 516
f 516 574 421
f 516 421 510
f 516 510 581
f 581 510 380
f 581 380 664
f 664 380 623
f 1153 1149 1165
f 1153 1165 1166
f 1166 1165 862
f 1166 862 864
f 864 862 866
f 864 866 868
f 868 866 983
f 868 983 988
f 988 983 835
f 988 835 839
f 839 835 1072
f 839 1072 1189
f 1189 1072 1013
f 1189 1013 1015
f 1015 1013 1161
f 1015 1161 1163
f 1163 1161 916
f 1163 916 918
f 918 916 1118
f 918 1118 1120
f 1120 1118 836
f 1120 836 840
f 840 836 984
f 840 984 987
f 987 984 1206
f 987 1206 1208
f 1208 1206 1087
f 1208 1087 947
f 947 1087 857
f 947 857 858
f 858 857 1186
f 858 1186 1188
f 1188 1186 902
f 1188 902 904
f 904 902 881
f 904 881 883
f 883 881 1038
f 883 1038 1040
f 1040 1038 940
f 1040 940 942
f 942 940 1133
f 942 1133 1135
f 1135 1133 897
f 1135 897 1022
f 1022 897 893
f 1022 893 895
f 895 893 1155
f 895 1155 1157
f 1157 1155 992
f 1157 992 994
f 994 992 1173
f 994 1173 1175
f 1175 1173 1045
f 1175 1045 1047
f 1047 1045 1124
f 1047 1124 1126
f 1126 1124 1009
f 1126 1009 1011
f 1011 1009 855
f 1011 855 1179
f 881 902 853
f 881 853 991
f 1179 855 1139
f 1179 1139 1141
f 1141 1139 1148
f 1141 1148 1152
f 953 1061 1086
f 953 1086 829
f 951 1200 1156
f 951 1156 993
f 1045 1173 1112
f 1045 1112 1048
f 835 983 1090
f 835 1090 1180
f 1087 1206 1145
f 1087 1145 1032
f 893 897 849
f 893 849 1002
f 1165 1149 1099
f 1165 1099 965
f 1148 1139 1084
f 1148 1084 1098
f 1118 916 1017
f 1118 1017 1074
f 1038 881 991
f 1038 991 1170
f 1124 1045 1048
f 1124 1048 845
f 1072 835 1180
f 1072 1180 1075
f 857 1087 1032
f 857 1032 1034
f 1155 893 1002
f 1155 1002 1200
f 862 1165 965
f 862 965 1203
f 836 1118 1074
f 836 1074 1181
f 940 1038 1170
f 940 1170 1030
f 1009 1124 845
f 1009 845 1183
f 1013 1072 1075
f 1013 1075 1016
f 1186 857 1034
f 1186 1034 1143
f 992 1155 1200
f 992 1200 951
f 866 862 1203
f 866 1203 1209
f 984 836 1181
f 984 1181 1091
f 1133 940 1030
f 1133 1030 1082
f 855 1009 1183
f 855 1183 1128
f 1161 1013 1016
f 1161 1016 1102
f 902 1186 1143
f 902 1143 853
f 1173 992 951
f 1173 951 1112
f 983 866 1209
f 983 1209 1090
f 1206 984 1091
f 1206 1091 1145
f 897 1133 1082
f 897 1082 849
f 1139 855 1128
f 1139 1128 1084
f 916 1161 1102
f 916 1102 1017
f 1125 1046 1049
f 1125 1049 1127
f 1091 1181 837
f 1091 837 986
f 1112 951 993
f 1112 993 1174
f 1145 1091 986
f 1145 986 1207
f 1048 1112 1174
f 1048 1174 1046
f 1032 1145 1207
f 1032 1207 1088
f 965 1099 1151
f 965 1151 850
f 845 1048 1046
f 845 1046 1125
f 1034 1032 1088
f 1034 1088 1093
f 1203 965 850
f 1203 850 863
f 1183 845 1125
f 1183 1125 1010
f 1143 1034 1093
f 1143 1093 1187
f 1209 1203 863
f 1209 863 867
f 1128 1183 1010
f 1128 1010 856
f 853 1143 1187
f 853 1187 903
f 1090 1209 867
f 1090 867 985
f 1084 1128 856
f 1084 856 1140
f 991 853 903
f 991 903 882
f 1180 1090 985
f 1180 985 838
f 1098 1084 1140
f 1098 1140 1150
f 1170 991 882
f 1170 882 1039
f 1075 1180 838
f 1075 838 1073
f 1030 1170 1039
f 1030 1039 941
f 1016 1075 1073
f 1016 1073 1014
f 1082 1030 941
f 1082 941 1134
f 1102 1016 1014
f 1102 1014 1162
f 849 1082 1134
f 849 1134 898
f 1017 1102 1162
f 1017 1162 917
f 1002 849 898
f 1002 898 894
f 1074 1017 917
f 1074 917 1119
f 1200 1002 894
f 1200 894 1156
f 1181 1074 1119
f 1181 1119 837
f 1093 1088 928
f 1093 928 859
f 863 850 1167
f 863 1167 1083
f 1010 1125 1127
f 1010 1127 1012
f 1187 1093 859
f 1187 859 1103
f 867 863 1083
f 867 1083 869
f 856 1010 1012
f 856 1012 1079
f 903 1187 1103
f 903 1103 905
f 985 867 869
f 985 869 989
f 1140 856 1079
f 1140 1079 1142
f 882 903 905
f 882 905 1104
f 838 985 989
f 838 989 841
f 1150 1140 1142
f 1150 1142 1057
f 1039 882 1104
f 1039 1104 1041
f 1073 838 841
f 1073 841 1076
f 941 1039 1041
f 941 1041 943
f 1014 1073 1076
f 1014 1076 1018
f 1134 941 943
f 1134 943 1136
f 1162 1014 1018
f 1162 1018 1164
f 898 1134 1136
f 898 1136 899
f 917 1162 1164
f 917 1164 919
f 894 898 899
f 894 899 896
f 1119 917 919
f 1119 919 1121
f 1156 894 896
f 1156 896 1158
f 837 1119 1121
f 837 1121 842
f 993 1156 1158
f 993 1158 995
f 986 837 842
f 986 842 990
f 1174 993 995
f 1174 995 1176
f 1207 986 990
f 1207 990 1210
f 1046 1174 1176
f 1046 1176 1049
f 1088 1207 1210
f 1088 1210 928
f 850 1151 1058
f 850 1058 1167
f 1193 1050 887
f 1193 887 969
f 1050 1080 977
f 1050 977 887
f 1080 957 1055
f 1080 1055 977
f 957 1053 920
f 957 920 1055
f 1053 1141 1152
f 1053 1152 920
f 1078 1202 1050
f 1078 1050 1193
f 1202 1059 1080
f 1202 1080 1050
f 1059 854 957
f 1059 957 1080
f 854 1026 1053
f 854 1053 957
f 1026 1179 1141
f 1026 1141 1053
f 906 966 1202
f 906 1202 1078
f 966 908 1059
f 966 1059 1202
f 908 981 854
f 908 854 1059
f 981 1001 1026
f 981 1026 854
f 1001 1011 1179
f 1001 1179 1026
f 1123 1019 966
f 1123 966 906
f 1019 833 908
f 1019 908 966
f 833 971 981
f 833 981 908
f 971 1020 1001
f 971 1001 981
f 1020 1126 1011
f 1020 1011 1001
f 1092 1182 1019
f 1092 1019 1123
f 1182 936 833
f 1182 833 1019
f 936 885 971
f 936 971 833
f 885 972 1020
f 885 1020 971
f 972 1047 1126
f 972 1126 1020
f 846 848 1182
f 846 1182 1092
f 848 844 936
f 848 936 1182
f 844 1144 885
f 844 885 936
f 1144 1205 972
f 1144 972 885
f 1205 1175 1047
f 1205 1047 972
f 1111 1054 848
f 1111 848 846
f 1054 1060 844
f 1054 844 848
f 1060 876 1144
f 1060 1144 844
f 876 1077 1205
f 876 1205 1144
f 1077 994 1175
f 1077 1175 1205
f 967 1024 1054
f 967 1054 1111
f 1024 973 1060
f 1024 1060 1054
f 973 974 876
f 973 876 1060
f 974 1154 1077
f 974 1077 876
f 1154 1157 994
f 1154 994 1077
f 880 923 1024
f 880 1024 967
f 923 886 973
f 923 973 1024
f 886 1138 974
f 886 974 973
f 1138 1052 1154
f 1138 1154 974
f 1052 895 1157
f 1052 1157 1154
f 927 975 923
f 927 923 880
f 975 824 886
f 975 886 923
f 824 1178 1138
f 824 1138 886
f 1178 871 1052
f 1178 1052 1138
f 871 1022 895
f 871 895 1052
f 901 979 975
f 901 975 927
f 979 1115 824
f 979 824 975
f 1115 1196 1178
f 1115 1178 824
f 1196 861 871
f 1196 871 1178
f 861 1135 1022
f 861 1022 871
f 825 944 979
f 825 979 901
f 944 1122 1115
f 944 1115 979
f 1122 1089 1196
f 1122 1196 1115
f 1089 1037 861
f 1089 861 1196
f 1037 942 1135
f 1037 1135 861
f 1051 870 944
f 1051 944 825
f 870 937 1122
f 870 1122 944
f 937 875 1089
f 937 1089 1122
f 875 1132 1037
f 875 1037 1089
f 1132 1040 942
f 1132 942 1037
f 980 884 870
f 980 870 1051
f 884 1081 937
f 884 937 870
f 1081 860 875
f 1081 875 937
f 860 1071 1132
f 860 1132 875
f 1071 883 1040
f 1071 1040 1132
f 999 1031 884
f 999 884 980
f 1031 1192 1081
f 1031 1081 884
f 1192 945 860
f 1192 860 1081
f 945 958 1071
f 945 1071 860
f 958 904 883
f 958 883 1071
f 822 1185 1031
f 822 1031 999
f 1185 1197 1192
f 1185 1192 1031
f 1197 1070 945
f 1197 945 1192
f 1070 865 958
f 1070 958 945
f 865 1188 904
f 865 904 958
f 831 968 1185
f 831 1185 822
f 968 1137 1197
f 968 1197 1185
f 1137 1007 1070
f 1137 1070 1197
f 1007 997 865
f 1007 865 1070
f 997 858 1188
f 997 1188 865
f 1184 950 968
f 1184 968 831
f 950 847 1137
f 950 1137 968
f 847 890 1007
f 847 1007 1137
f 890 823 997
f 890 997 1007
f 823 947 858
f 823 858 997
f 976 1021 950
f 976 950 1184
f 1021 954 847
f 1021 847 950
f 954 1000 890
f 954 890 847
f 1000 1199 823
f 1000 823 890
f 1199 1208 947
f 1199 947 823
f 962 939 1021
f 962 1021 976
f 939 827 954
f 939 954 1021
f 827 1101 1000
f 827 1000 954
f 1101 1213 1199
f 1101 1199 1000
f 1213 987 1208
f 1213 1208 1199
f 929 1110 939
f 929 939 962
f 1110 926 827
f 1110 827 939
f 926 900 1101
f 926 1101 827
f 900 1204 1213
f 900 1213 1101
f 1204 840 987
f 1204 987 1213
f 1033 998 1110
f 1033 1110 929
f 998 1036 926
f 998 926 1110
f 1036 1146 900
f 1036 900 926
f 1146 930 1204
f 1146 1204 900
f 930 1120 840
f 930 840 1204
f 879 922 998
f 879 998 1033
f 922 832 1036
f 922 1036 998
f 832 1027 1146
f 832 1146 1036
f 1027 828 930
f 1027 930 1146
f 828 918 1120
f 828 1120 930
f 1201 1107 922
f 1201 922 879
f 1107 952 832
f 1107 832 922
f 952 889 1027
f 952 1027 832
f 889 1147 828
f 889 828 1027
f 1147 1163 918
f 1147 918 828
f 1061 1095 1107
f 1061 1107 1201
f 1095 834 952
f 1095 952 1107
f 834 935 889
f 834 889 952
f 935 1025 1147
f 935 1147 889
f 1025 1015 1163
f 1025 1163 1147
f 953 1008 1095
f 953 1095 1061
f 1008 996 834
f 1008 834 1095
f 996 1035 935
f 996 935 834
f 1035 946 1025
f 1035 1025 935
f 946 1189 1015
f 946 1015 1025
f 1063 872 1008
f 1063 1008 953
f 872 1062 996
f 872 996 1008
f 1062 1198 1035
f 1062 1035 996
f 1198 982 946
f 1198 946 1035
f 982 839 1189
f 982 1189 946
f 961 938 872
f 961 872 1063
f 938 826 1062
f 938 1062 872
f 826 1100 1198
f 826 1198 1062
f 1100 1214 982
f 1100 982 1198
f 1214 988 839
f 1214 839 982
f 1042 874 938
f 1042 938 961
f 874 1172 826
f 874 826 938
f 1172 934 1100
f 1172 1100 826
f 934 1171 1214
f 934 1214 1100
f 1171 868 988
f 1171 988 1214
f 1131 843 874
f 1131 874 1042
f 843 1003 1172
f 843 1172 874
f 1003 1006 934
f 1003 934 1172
f 1006 907 1171
f 1006 1171 934
f 907 864 868
f 907 868 1171
f 873 915 843
f 873 843 1131
f 915 1094 1003
f 915 1003 843
f 1094 1177 1006
f 1094 1006 1003
f 1177 1023 907
f 1177 907 1006
f 1023 1166 864
f 1023 864 907
f 970 888 915
f 970 915 873
f 888 978 1094
f 888 1094 915
f 978 1056 1177
f 978 1177 1094
f 1056 921 1023
f 1056 1023 1177
f 921 1153 1166
f 921 1166 1023
f 831 822 1005
f 831 1005 964
f 967 1111 1097
f 967 1097 959
f 1131 1042 877
f 1131 877 1190
f 929 962 1064
f 929 1064 1069
f 825 901 1028
f 825 1028 1105
f 906 1078 1108
f 906 1108 1117
f 1061 1201 1129
f 1061 1129 1086
f 822 999 1113
f 822 1113 1005
f 1111 846 924
f 1111 924 1097
f 1042 961 1066
f 1042 1066 877
f 962 976 891
f 962 891 1064
f 901 927 1194
f 901 1194 1028
f 1078 1193 1211
f 1078 1211 1108
f 1201 879 913
f 1201 913 1129
f 999 980 820
f 999 820 1113
f 846 1092 851
f 846 851 924
f 961 1063 949
f 961 949 1066
f 976 1184 912
f 976 912 891
f 927 880 956
f 927 956 1194
f 970 873 1044
f 970 1044 932
f 1193 969 931
f 1193 931 1211
f 879 1033 1159
f 879 1159 913
f 980 1051 910
f 980 910 820
f 1092 1123 1169
f 1092 1169 851
f 1063 953 829
f 1063 829 949
f 1184 831 964
f 1184 964 912
f 880 967 959
f 880 959 956
f 873 1131 1190
f 873 1190 1044
f 1033 929 1069
f 1033 1069 1159
f 1051 825 1105
f 1051 1105 910
f 1123 906 1117
f 1123 1117 1169
f 878 830 1191
f 830 878 948
f 948 878 1067
f 1096 955 960
f 955 1096 925
f 955 925 852
f 955 852 1168
f 955 1168 1116
f 955 1116 1195
f 1195 1116 821
f 821 1116 1114
f 1114 1116 1109
f 1114 1109 1004
f 1004 1109 1212
f 1004 1212 933
f 1004 933 963
f 963 933 1043
f 963 1043 911
f 911 1043 1191
f 911 1191 892
f 892 1191 830
f 892 830 1065
f 1065 830 1085
f 1065 1085 1130
f 1065 1130 1068
f 1068 1130 1160
f 1160 1130 914
f 1029 909 1106
f 909 1029 821
f 821 1029 1195