o convex_0
v 0.012919 -0.078035 0.020216
v -0.017947 -0.048033 0.017178
v -0.017947 -0.048033 0.018474
v 0.010312 0.011081 0.017178
v 0.002488 -0.046296 -0.000210
v -0.000553 -0.031962 0.035870
v -0.014033 0.007172 0.013699
v -0.007512 -0.088035 0.020646
v -0.008381 0.007161 0.029777
v 0.018140 -0.031962 0.018040
v 0.005530 0.007161 0.004134
v -0.010553 -0.046730 0.002827
v 0.004661 -0.083247 0.007175
v 0.009009 0.007161 0.029342
v 0.009009 -0.066297 0.031084
v -0.009684 -0.065852 0.030649
v 0.014226 -0.046296 0.006306
v -0.009250 -0.077600 0.008048
v -0.005336 0.007161 0.004134
v -0.015336 -0.031527 0.027605
v 0.014226 0.007161 0.014133
v 0.013354 -0.046296 0.030215
v -0.005336 0.015435 0.019343
v 0.002488 -0.085863 0.027605
v -0.014902 -0.031527 0.007179
v -0.015336 -0.068034 0.021084
v -0.007074 -0.046296 0.034559
v -0.014033 0.007172 0.021953
v 0.009009 -0.086298 0.013699
v 0.013792 0.007161 0.022822
v 0.000312 -0.066297 0.033690
v 0.014661 -0.066297 0.011092
v -0.003164 -0.068034 0.002393
v -0.014467 -0.067165 0.011089
v 0.006833 -0.031538 0.034563
v 0.003357 0.007161 0.031953
v -0.002291 -0.031527 -0.000210
v 0.011616 -0.031527 0.003700
v 0.017702 -0.046296 0.021953
v 0.009009 -0.067600 0.004569
v 0.005095 0.015435 0.015440
v -0.002726 -0.088470 0.010658
v 0.015095 -0.031527 0.028039
v -0.017947 -0.030659 0.017178
v 0.016833 -0.031972 0.010658
v -0.006640 -0.083247 0.027170
v 0.010747 0.007172 0.007610
v -0.010988 -0.083681 0.015002
v 0.006399 -0.088470 0.021953
v 0.002488 0.015435 0.022826
v 0.012919 -0.067165 0.027170
v -0.015336 -0.046730 0.027605
v -0.009250 0.007161 0.006310
v -0.001857 0.015435 0.012396
v -0.010119 -0.031103 0.032821
v -0.003598 0.007161 0.031956
v -0.010553 -0.031527 0.002827
v 0.004226 -0.046296 0.035432
v 0.007267 -0.031093 0.001089
v 0.017702 -0.047599 0.014133
v -0.016640 -0.046296 0.010220
v 0.009443 -0.083681 0.024125
v 0.015964 -0.066297 0.018040
v -0.004902 -0.046296 0.000221
f 57 37 64 
f 3 2 26 
f 20 9 28 
f 23 7 28 
f 9 23 28 
f 21 4 30 
f 10 21 30 
f 24 15 31 
f 27 16 31 
f 1 29 32 
f 18 12 33 
f 12 18 34 
f 26 2 34 
f 6 35 36 
f 35 14 36 
f 19 11 37 
f 29 13 40 
f 17 32 40 
f 32 29 40 
f 33 5 40 
f 13 33 40 
f 38 17 40 
f 4 21 41 
f 30 4 41 
f 13 29 42 
f 33 13 42 
f 18 33 42 
f 30 14 43 
f 10 30 43 
f 14 35 43 
f 35 22 43 
f 22 39 43 
f 39 10 43 
f 2 3 44 
f 3 20 44 
f 7 25 44 
f 28 7 44 
f 20 28 44 
f 21 10 45 
f 17 38 45 
f 8 24 46 
f 26 8 46 
f 16 26 46 
f 24 31 46 
f 31 16 46 
f 38 11 47 
f 11 41 47 
f 41 21 47 
f 21 45 47 
f 45 38 47 
f 8 26 48 
f 34 18 48 
f 26 34 48 
f 42 8 48 
f 18 42 48 
f 24 8 49 
f 8 42 49 
f 42 29 49 
f 14 30 50 
f 36 14 50 
f 41 23 50 
f 30 41 50 
f 22 15 51 
f 39 22 51 
f 20 3 52 
f 3 26 52 
f 26 16 52 
f 16 27 52 
f 25 7 53 
f 11 19 54 
f 7 23 54 
f 41 11 54 
f 23 41 54 
f 19 53 54 
f 53 7 54 
f 9 20 55 
f 27 6 55 
f 20 52 55 
f 52 27 55 
f 23 9 56 
f 6 36 56 
f 50 23 56 
f 36 50 56 
f 55 6 56 
f 9 55 56 
f 12 25 57 
f 19 37 57 
f 53 19 57 
f 25 53 57 
f 15 22 58 
f 6 27 58 
f 31 15 58 
f 27 31 58 
f 35 6 58 
f 22 35 58 
f 5 37 59 
f 37 11 59 
f 11 38 59 
f 40 5 59 
f 38 40 59 
f 32 17 60 
f 10 39 60 
f 45 10 60 
f 17 45 60 
f 25 12 61 
f 12 34 61 
f 34 2 61 
f 2 44 61 
f 44 25 61 
f 15 24 62 
f 29 1 62 
f 24 49 62 
f 49 29 62 
f 51 15 62 
f 1 51 62 
f 1 32 63 
f 51 1 63 
f 39 51 63 
f 32 60 63 
f 60 39 63 
f 5 33 64 
f 33 12 64 
f 37 5 64 
f 12 57 64 
o convex_1
v -0.002295 0.015435 0.012826
v 0.000314 0.083256 0.022826
v -0.000555 0.083256 0.022826
v 0.000749 0.081514 0.012391
v 0.005097 0.015435 0.019347
v -0.004902 0.015435 0.020216
v -0.005338 0.081514 0.017176
v 0.005097 0.080211 0.015870
v 0.003791 0.015435 0.013697
v 0.001618 0.015435 0.022826
v 0.004661 0.081514 0.020650
v 0.000314 0.090217 0.016739
v -0.004033 0.081514 0.021521
v -0.003163 0.081514 0.013263
v -0.004902 0.015435 0.015436
v -0.001860 0.015435 0.022826
v 0.003791 0.081514 0.013697
v 0.000749 0.015435 0.012391
v 0.005097 0.015435 0.015870
v 0.002922 0.015435 0.022391
v 0.002922 0.081082 0.022391
v -0.004467 0.081953 0.014567
v -0.000990 0.089778 0.018913
v 0.003791 0.086733 0.018478
v -0.005338 0.015435 0.018478
v -0.004902 0.080211 0.020216
v 0.002487 0.081514 0.012826
v -0.000555 0.081514 0.012391
v 0.005097 0.082385 0.019347
v -0.001860 0.081514 0.022826
v -0.004467 0.015435 0.014567
v -0.004033 0.015435 0.021521
v 0.004661 0.015435 0.020650
v -0.003163 0.087172 0.015870
v 0.001618 0.086733 0.014132
v 0.002487 0.087597 0.019781
v 0.002487 0.015435 0.012826
v -0.005338 0.081514 0.018478
v -0.002295 0.086301 0.021086
v 0.001618 0.081514 0.022826
v -0.000555 0.015435 0.012391
v -0.005338 0.015435 0.017176
v -0.003163 0.015435 0.013263
v 0.004661 0.081514 0.015002
v -0.004033 0.085869 0.017609
v -0.004902 0.081953 0.015436
v -0.002728 0.081953 0.022391
v -0.000555 0.086733 0.021521
v -0.002295 0.080643 0.012826
v 0.000314 0.084998 0.013263
v 0.000749 0.090217 0.018478
v 0.002487 0.085869 0.014132
v 0.003791 0.082824 0.021521
v 0.005097 0.083256 0.017609
v -0.002728 0.015435 0.022391
v 0.004661 0.015435 0.015002
v -0.000990 0.090217 0.017176
v 0.000314 0.087597 0.014567
f 98 121 122 
f 65 69 70 
f 69 65 73 
f 66 67 74 
f 70 69 74 
f 65 70 79 
f 74 67 80 
f 70 74 80 
f 73 65 82 
f 72 69 83 
f 69 73 83 
f 74 69 84 
f 84 75 85 
f 74 84 85 
f 79 70 89 
f 70 77 90 
f 89 70 90 
f 81 73 91 
f 82 68 91 
f 68 82 92 
f 69 72 93 
f 75 69 93 
f 80 67 94 
f 65 79 95 
f 86 78 95 
f 79 86 95 
f 77 70 96 
f 70 80 96 
f 69 75 97 
f 84 69 97 
f 75 84 97 
f 78 86 98 
f 73 82 101 
f 91 73 101 
f 82 91 101 
f 71 89 102 
f 90 77 102 
f 89 90 102 
f 66 74 104 
f 74 85 104 
f 82 65 105 
f 65 92 105 
f 92 82 105 
f 71 79 106 
f 89 71 106 
f 79 89 106 
f 78 65 107 
f 65 95 107 
f 95 78 107 
f 73 81 108 
f 72 83 108 
f 102 77 109 
f 71 102 109 
f 103 87 109 
f 77 103 109 
f 79 71 110 
f 86 79 110 
f 98 86 110 
f 71 109 110 
f 109 98 110 
f 94 67 111 
f 80 94 111 
f 77 96 111 
f 67 103 111 
f 103 77 111 
f 67 66 112 
f 66 100 112 
f 103 67 112 
f 87 103 112 
f 65 78 113 
f 92 65 113 
f 78 92 113 
f 91 68 114 
f 68 92 114 
f 92 78 114 
f 78 98 114 
f 99 91 114 
f 88 76 115 
f 100 88 115 
f 112 100 115 
f 87 112 115 
f 76 88 116 
f 81 91 116 
f 99 76 116 
f 91 99 116 
f 108 81 116 
f 85 75 117 
f 75 93 117 
f 93 88 117 
f 100 66 117 
f 88 100 117 
f 66 104 117 
f 104 85 117 
f 93 72 118 
f 88 93 118 
f 72 108 118 
f 116 88 118 
f 108 116 118 
f 96 80 119 
f 80 111 119 
f 111 96 119 
f 83 73 120 
f 73 108 120 
f 108 83 120 
f 98 109 121 
f 109 87 121 
f 115 76 121 
f 87 115 121 
f 76 99 122 
f 114 98 122 
f 99 114 122 
f 121 76 122 
