o convex_0
v -0.012077 -0.089741 -0.000252
v -0.033252 -0.054448 -0.000252
v -0.033252 -0.054448 0.019913
v -0.013589 -0.023696 0.019913
v -0.019138 -0.090247 0.020419
v -0.014095 -0.023696 -0.000252
v -0.031737 -0.024202 0.020419
v -0.009558 -0.081169 0.019913
v -0.032241 -0.024707 -0.000252
v -0.028209 -0.079653 0.000254
v -0.009558 -0.079653 0.000254
v -0.029218 -0.076633 0.019913
v -0.022158 -0.089741 0.000254
v -0.012077 -0.089229 0.020419
v -0.033252 -0.030260 0.019913
v -0.024176 -0.087720 0.019913
v -0.031234 -0.068054 -0.000252
v -0.014095 -0.023696 0.020419
v -0.013589 -0.023696 0.000254
v -0.031234 -0.023703 -0.000252
v -0.033252 -0.030759 -0.000252
v -0.030728 -0.068560 0.020419
v -0.014095 -0.090752 -0.000252
v -0.010565 -0.087214 0.000254
v -0.031234 -0.068560 0.019913
v -0.024176 -0.087214 -0.000252
v -0.019138 -0.090752 0.019913
v -0.014095 -0.090752 0.019913
v -0.031234 -0.023703 0.020419
v -0.010565 -0.087214 0.019913
v -0.009558 -0.079653 0.019913
v -0.018632 -0.090752 -0.000252
v -0.032241 -0.062515 0.000254
v -0.022158 -0.089741 0.019913
v -0.028209 -0.079653 0.019913
v -0.010061 -0.079653 -0.000252
v -0.010061 -0.079653 0.020419
v -0.029218 -0.076633 0.000254
v -0.024176 -0.087720 0.000254
v -0.032746 -0.054448 0.020419
v -0.023672 -0.087720 0.020419
v -0.032241 -0.024707 0.019913
v -0.011574 -0.089229 0.019913
v -0.032241 -0.062515 0.019913
v -0.009558 -0.081169 0.000254
v -0.031234 -0.068560 0.000254
f 38 25 46 
f 1 2 6 
f 6 2 9 
f 7 5 14 
f 2 3 15 
f 2 1 17 
f 4 6 18 
f 7 14 18 
f 6 4 19 
f 4 11 19 
f 6 9 20 
f 9 7 20 
f 18 6 20 
f 9 2 21 
f 2 15 21 
f 15 9 21 
f 5 7 22 
f 17 1 23 
f 12 22 25 
f 10 17 26 
f 17 23 26 
f 27 23 28 
f 14 5 28 
f 23 1 28 
f 5 27 28 
f 7 18 29 
f 20 7 29 
f 18 20 29 
f 24 8 30 
f 11 4 31 
f 8 11 31 
f 13 26 32 
f 26 23 32 
f 27 13 32 
f 23 27 32 
f 3 2 33 
f 2 17 33 
f 16 13 34 
f 27 5 34 
f 13 27 34 
f 12 10 35 
f 10 16 35 
f 22 12 35 
f 1 6 36 
f 6 19 36 
f 19 11 36 
f 24 1 36 
f 4 18 37 
f 18 14 37 
f 14 30 37 
f 30 8 37 
f 31 4 37 
f 8 31 37 
f 10 12 38 
f 17 10 38 
f 12 25 38 
f 16 10 39 
f 13 16 39 
f 10 26 39 
f 26 13 39 
f 15 3 40 
f 7 15 40 
f 22 7 40 
f 5 22 41 
f 34 5 41 
f 16 34 41 
f 35 16 41 
f 22 35 41 
f 7 9 42 
f 15 7 42 
f 9 15 42 
f 1 24 43 
f 28 1 43 
f 14 28 43 
f 30 14 43 
f 24 30 43 
f 25 22 44 
f 3 33 44 
f 33 25 44 
f 40 3 44 
f 22 40 44 
f 11 8 45 
f 8 24 45 
f 36 11 45 
f 24 36 45 
f 33 17 46 
f 25 33 46 
f 17 38 46 
o convex_1
v 0.029266 -0.076633 0.019913
v 0.009603 -0.081163 0.000254
v 0.009603 -0.081163 0.019913
v 0.013637 -0.023192 0.000254
v 0.033299 -0.056470 0.000254
v 0.031281 -0.023192 0.020419
v 0.013637 -0.023192 0.019913
v 0.022711 -0.089740 -0.000252
v 0.031785 -0.023192 -0.000252
v 0.015149 -0.090236 0.020419
v 0.033299 -0.056470 0.019913
v 0.011118 -0.087717 -0.000252
v 0.022711 -0.089231 0.020419
v 0.033299 -0.027735 0.019913
v 0.028257 -0.080667 0.000254
v 0.033299 -0.027735 0.000254
v 0.014142 -0.023192 0.020419
v 0.014142 -0.023192 -0.000252
v 0.015149 -0.090752 -0.000252
v 0.010612 -0.087221 0.019913
v 0.023214 -0.089740 0.019913
v 0.031281 -0.068565 0.000254
v 0.027753 -0.080660 0.020419
v 0.009603 -0.079655 0.000254
v 0.032794 -0.056470 -0.000252
v 0.032290 -0.063526 0.019913
v 0.019185 -0.090752 0.019913
v 0.010109 -0.079655 0.020419
v 0.032794 -0.056470 0.020419
v 0.028257 -0.080667 0.019913
v 0.025232 -0.086711 0.000254
v 0.013133 -0.089740 0.019913
v 0.009603 -0.079655 0.019913
v 0.032290 -0.023701 0.019913
v 0.019185 -0.090752 0.000254
v 0.015149 -0.090752 0.019913
v 0.025232 -0.086711 0.019913
v 0.010612 -0.087221 0.000254
v 0.010109 -0.079153 -0.000252
v 0.027753 -0.080660 -0.000252
v 0.013133 -0.089740 -0.000252
v 0.031281 -0.068565 0.019913
v 0.032290 -0.063526 0.000254
v 0.023214 -0.089740 0.000254
v 0.032290 -0.023701 0.000254
v 0.032794 -0.027226 0.020419
f 60 80 92 
f 52 50 53 
f 50 52 55 
f 55 54 58 
f 52 56 59 
f 57 51 60 
f 60 51 62 
f 52 53 63 
f 56 52 63 
f 50 55 64 
f 55 58 64 
f 58 54 65 
f 49 48 66 
f 47 61 68 
f 52 59 69 
f 48 49 70 
f 53 50 70 
f 54 55 71 
f 62 51 71 
f 55 62 71 
f 51 57 72 
f 59 56 73 
f 67 59 73 
f 63 53 74 
f 56 63 74 
f 49 66 74 
f 66 56 74 
f 57 60 75 
f 52 69 75 
f 72 57 75 
f 61 47 76 
f 47 69 76 
f 61 76 77 
f 56 66 78 
f 70 49 79 
f 53 70 79 
f 49 74 79 
f 74 53 79 
f 55 52 80 
f 60 62 80 
f 65 54 81 
f 73 65 81 
f 67 73 81 
f 73 56 82 
f 65 73 82 
f 78 65 82 
f 56 78 82 
f 59 67 83 
f 69 59 83 
f 76 69 83 
f 67 77 83 
f 77 76 83 
f 48 58 84 
f 66 48 84 
f 78 66 84 
f 58 48 85 
f 50 64 85 
f 64 58 85 
f 48 70 85 
f 70 50 85 
f 68 61 86 
f 54 71 86 
f 71 68 86 
f 77 54 86 
f 61 77 86 
f 58 65 87 
f 65 78 87 
f 84 58 87 
f 78 84 87 
f 47 68 88 
f 69 47 88 
f 68 72 88 
f 75 69 88 
f 72 75 88 
f 71 51 89 
f 68 71 89 
f 51 72 89 
f 72 68 89 
f 54 77 90 
f 77 67 90 
f 81 54 90 
f 67 81 90 
f 62 55 91 
f 55 80 91 
f 80 62 91 
f 52 75 92 
f 75 60 92 
f 80 52 92 
o convex_2
v -0.014093 0.046366 0.020419
v 0.000528 0.090237 0.020419
v 0.000528 0.090752 0.019913
v -0.012581 -0.022173 0.000254
v -0.013084 0.079650 -0.000252
v 0.000528 0.044361 -0.000252
v -0.012581 -0.022173 0.019913
v 0.000528 0.090752 -0.000252
v 0.000528 0.044865 0.020419
v -0.013084 0.079146 0.020419
v -0.014093 -0.023181 -0.000252
v -0.014093 -0.022677 0.020419
v -0.014093 0.075617 -0.000252
v -0.007033 0.088724 0.019913
v -0.006531 0.004546 0.019913
v -0.007033 0.088724 0.000254
v -0.006531 0.004546 0.000254
v -0.014093 0.075617 0.019913
v -0.002499 0.025731 0.019913
v -0.003003 0.090752 -0.000252
v -0.011068 0.083683 0.019913
v -0.002499 0.025731 0.000254
v -0.009051 0.086708 0.000254
v -0.003003 0.090752 0.019913
v -0.013588 -0.023696 0.019913
v -0.007033 0.004546 0.020419
v -0.013084 -0.022677 -0.000252
v -0.009051 0.086708 0.019913
v -0.011068 0.083683 0.000254
v -0.007033 0.088220 0.020419
v 0.000528 0.044361 0.019913
v -0.013084 0.079650 0.019913
f 102 113 124 
f 95 94 98 
f 95 98 100 
f 98 97 100 
f 94 93 101 
f 98 94 101 
f 93 94 102 
f 97 98 103 
f 101 93 104 
f 93 103 104 
f 103 93 105 
f 97 103 105 
f 99 96 107 
f 107 96 109 
f 93 102 110 
f 105 93 110 
f 97 105 110 
f 107 109 111 
f 95 100 112 
f 100 97 112 
f 108 106 112 
f 109 98 114 
f 98 111 114 
f 111 109 114 
f 106 108 115 
f 112 97 115 
f 108 112 115 
f 94 95 116 
f 95 112 116 
f 112 106 116 
f 96 99 117 
f 99 104 117 
f 104 103 117 
f 104 99 118 
f 101 104 118 
f 99 107 118 
f 111 101 118 
f 107 111 118 
f 103 98 119 
f 98 109 119 
f 109 96 119 
f 96 117 119 
f 117 103 119 
f 113 102 120 
f 106 115 120 
f 115 113 120 
f 97 113 121 
f 115 97 121 
f 113 115 121 
f 102 94 122 
f 94 116 122 
f 116 106 122 
f 120 102 122 
f 106 120 122 
f 98 101 123 
f 111 98 123 
f 101 111 123 
f 110 102 124 
f 97 110 124 
f 113 97 124 
o convex_3
v 0.014141 -0.023192 0.000254
v 0.003049 0.090239 0.020419
v 0.003049 0.090752 0.019913
v 0.014139 0.076632 0.019913
v 0.009098 0.086201 -0.000252
v 0.000528 0.044365 -0.000252
v 0.013132 -0.021664 0.020419
v 0.002545 0.025727 0.019913
v 0.014139 0.076130 -0.000252
v 0.000528 0.090752 -0.000252
v 0.000528 0.090239 0.020419
v 0.008593 -0.003517 0.000254
v 0.000528 0.044867 0.020419
v 0.014141 -0.022177 0.020419
v 0.002545 0.025727 0.000254
v 0.008593 0.086715 0.020419
v 0.013132 -0.021664 -0.000252
v 0.010611 -0.012596 0.019913
v 0.007084 0.088722 0.000254
v 0.011115 0.083692 0.000254
v 0.013636 0.076621 0.020419
v 0.012627 -0.021162 0.000254
v 0.009098 0.086715 0.019913
v 0.013132 0.079654 0.019913
v 0.003049 0.090752 0.000254
v 0.008593 -0.003517 0.019913
v 0.007084 0.088722 0.019913
v 0.012627 -0.021162 0.019913
v 0.013132 0.079654 0.000254
v 0.013636 -0.023192 0.019913
v 0.014141 -0.022177 -0.000252
v 0.003049 0.025214 -0.000252
v 0.003049 0.025727 0.020419
v 0.011115 0.083692 0.019913
v 0.009098 0.086715 0.000254
v 0.000528 0.090752 0.019913
v 0.013636 -0.023192 0.000254
v 0.010611 -0.012596 0.000254
f 146 142 162 
f 130 129 133 
f 129 130 134 
f 126 127 135 
f 131 126 135 
f 134 130 135 
f 130 132 137 
f 131 135 137 
f 135 130 137 
f 126 131 138 
f 132 130 139 
f 136 132 139 
f 126 138 140 
f 130 133 141 
f 129 134 143 
f 133 129 144 
f 138 128 145 
f 140 138 145 
f 145 128 148 
f 140 145 148 
f 134 127 149 
f 127 143 149 
f 143 134 149 
f 132 136 150 
f 142 131 150 
f 136 142 150 
f 127 126 151 
f 126 140 151 
f 143 127 151 
f 140 147 151 
f 147 143 151 
f 131 142 152 
f 142 146 152 
f 128 133 153 
f 133 144 153 
f 144 148 153 
f 148 128 153 
f 125 138 154 
f 138 131 154 
f 131 152 154 
f 152 146 154 
f 133 128 155 
f 128 138 155 
f 138 125 155 
f 141 133 155 
f 139 130 156 
f 136 139 156 
f 130 141 156 
f 141 136 156 
f 137 132 157 
f 131 137 157 
f 150 131 157 
f 132 150 157 
f 147 140 158 
f 144 147 158 
f 148 144 158 
f 140 148 158 
f 129 143 159 
f 144 129 159 
f 143 147 159 
f 147 144 159 
f 127 134 160 
f 135 127 160 
f 134 135 160 
f 146 141 161 
f 125 154 161 
f 154 146 161 
f 155 125 161 
f 141 155 161 
f 136 141 162 
f 142 136 162 
f 141 146 162 
o convex_4
v -0.031234 -0.018654 -0.000252
v -0.014093 0.009579 0.020419
v -0.014093 0.009579 -0.000252
v -0.014093 -0.023696 0.020419
v -0.024175 0.009579 0.019913
v -0.014093 -0.023696 -0.000252
v -0.030729 -0.023696 0.020419
v -0.024175 0.009579 -0.000252
v -0.031234 -0.023696 -0.000252
v -0.031234 -0.018654 0.019913
v -0.023672 0.009579 0.020419
v -0.031234 -0.023696 0.019913
v -0.030729 -0.018149 0.020419
f 169 173 175 
f 165 164 166 
f 164 165 167 
f 163 165 168 
f 165 166 168 
f 168 166 169 
f 166 164 169 
f 165 163 170 
f 163 167 170 
f 167 165 170 
f 163 168 171 
f 168 169 171 
f 167 163 172 
f 163 171 172 
f 164 167 173 
f 169 164 173 
f 171 169 174 
f 169 172 174 
f 172 171 174 
f 172 169 175 
f 167 172 175 
f 173 167 175 
o convex_5
v -0.028210 0.029744 -0.000252
v -0.014095 0.045876 0.020419
v -0.014095 0.046384 0.019913
v -0.014093 0.009579 -0.000252
v -0.023671 0.009579 0.020419
v -0.014095 0.045876 -0.000252
v -0.028210 0.038314 0.019913
v -0.014093 0.009579 0.020419
v -0.024177 0.009579 -0.000252
v -0.026191 0.040332 -0.000252
v -0.028210 0.029239 0.019913
v -0.018633 0.045880 0.019913
v -0.018633 0.045880 0.000254
v -0.028210 0.038314 -0.000252
v -0.026191 0.040332 0.020419
v -0.024177 0.009579 0.019913
v -0.014598 0.046384 0.000254
v -0.027706 0.029239 0.020419
v -0.025688 0.040836 0.000254
v -0.028210 0.029239 0.000254
f 184 186 195 
f 178 179 181 
f 179 176 181 
f 178 177 183 
f 179 178 183 
f 180 179 183 
f 177 180 183 
f 176 179 184 
f 179 180 184 
f 181 176 185 
f 182 176 186 
f 177 178 187 
f 181 185 188 
f 176 182 189 
f 185 176 189 
f 180 177 190 
f 177 187 190 
f 184 180 191 
f 186 184 191 
f 178 181 192 
f 187 178 192 
f 188 187 192 
f 181 188 192 
f 182 186 193 
f 180 190 193 
f 190 182 193 
f 191 180 193 
f 186 191 193 
f 188 185 194 
f 187 188 194 
f 189 182 194 
f 185 189 194 
f 182 190 194 
f 190 187 194 
f 176 184 195 
f 186 176 195 
o convex_6
v 0.030778 -0.018146 -0.000252
v 0.023718 0.011596 0.020419
v 0.014141 0.011596 0.020419
v 0.014141 -0.023192 0.020419
v 0.014141 0.011596 -0.000252
v 0.031283 -0.023192 0.019913
v 0.014141 -0.023192 -0.000252
v 0.024224 0.011596 -0.000252
v 0.031283 -0.023192 -0.000252
v 0.031283 -0.018653 0.019913
v 0.030778 -0.023192 0.020419
v 0.024224 0.011596 0.019913
v 0.029264 -0.009578 0.000254
v 0.031283 -0.018653 0.000254
v 0.029264 -0.009578 0.019913
v 0.025230 0.007561 0.019913
f 197 210 211 
f 197 198 199 
f 198 197 200 
f 199 198 200 
f 201 199 202 
f 200 196 202 
f 199 200 202 
f 196 200 203 
f 200 197 203 
f 201 202 204 
f 202 196 204 
f 201 204 205 
f 197 199 206 
f 199 201 206 
f 205 197 206 
f 201 205 206 
f 203 197 207 
f 203 208 209 
f 196 203 209 
f 204 196 209 
f 205 204 209 
f 208 205 209 
f 197 205 210 
f 205 208 210 
f 210 208 211 
f 207 197 211 
f 203 207 211 
f 208 203 211 
o convex_7
v 0.028258 0.029745 0.000254
v 0.014646 0.045880 0.020419
v 0.014141 0.045880 0.020419
v 0.023718 0.011596 0.020419
v 0.014141 0.011596 -0.000252
v 0.014141 0.045880 -0.000252
v 0.028258 0.039323 0.019913
v 0.014141 0.011596 0.020419
v 0.024223 0.011596 -0.000252
v 0.027753 0.039826 0.000254
v 0.019687 0.045880 0.019913
v 0.028258 0.029745 0.019913
v 0.020190 0.045373 -0.000252
v 0.027753 0.039323 0.020419
v 0.024223 0.011596 0.019913
v 0.027753 0.039323 -0.000252
v 0.028258 0.039323 0.000254
v 0.019687 0.045880 0.000254
v 0.027753 0.029242 0.020419
f 226 223 230 
f 213 214 215 
f 216 214 217 
f 214 213 217 
f 215 214 219 
f 216 215 219 
f 214 216 219 
f 215 216 220 
f 216 217 220 
f 218 221 222 
f 217 213 222 
f 212 218 223 
f 220 212 223 
f 220 217 224 
f 213 215 225 
f 218 222 225 
f 222 213 225 
f 223 218 225 
f 215 220 226 
f 220 223 226 
f 212 220 227 
f 220 224 227 
f 224 221 227 
f 218 212 228 
f 221 218 228 
f 212 227 228 
f 227 221 228 
f 222 221 229 
f 217 222 229 
f 224 217 229 
f 221 224 229 
f 225 215 230 
f 223 225 230 
f 215 226 230 
