o convex_0
v -0.016677 -0.088960 -0.000220
v -0.017117 -0.054256 0.020428
v -0.020630 -0.054256 0.020428
v -0.018872 -0.089399 0.020428
v -0.027220 -0.079733 0.000221
v -0.009647 -0.054260 0.000221
v -0.009647 -0.070077 0.019986
v -0.021068 -0.054256 -0.000220
v -0.027220 -0.083247 0.019986
v -0.010087 -0.054260 0.020428
v -0.010966 -0.076221 -0.000220
v -0.013601 -0.085445 0.019549
v -0.024144 -0.086323 -0.000220
v -0.023265 -0.061728 0.019986
v -0.009647 -0.070512 0.000221
v -0.013601 -0.085445 0.000221
v -0.027220 -0.079733 0.019986
v -0.018872 -0.089841 0.000221
v -0.017117 -0.089841 0.019986
v -0.026779 -0.083686 -0.000220
v -0.023704 -0.086762 0.019986
v -0.023265 -0.061728 0.000221
v -0.010966 -0.076657 0.019986
v -0.009647 -0.054260 0.019986
v -0.026779 -0.083247 0.020428
v -0.010087 -0.054260 -0.000220
v -0.013163 -0.082369 0.020428
v -0.014919 -0.087643 0.000221
v -0.021068 -0.054256 0.019986
v -0.018872 -0.089841 0.019986
v -0.017117 -0.089841 0.000221
v -0.014919 -0.087643 0.019986
v -0.010966 -0.076657 0.000221
v -0.027220 -0.083247 0.000221
v -0.021068 -0.088517 -0.000220
v -0.010087 -0.070077 0.020428
v -0.026779 -0.079733 0.020428
f 17 25 37 
f 2 3 4 
f 3 2 8 
f 2 6 8 
f 2 4 10 
f 1 8 11 
f 8 1 13 
f 6 7 15 
f 1 11 16 
f 5 9 17 
f 14 5 17 
f 5 8 20 
f 8 13 20 
f 9 13 21 
f 8 5 22 
f 14 8 22 
f 5 14 22 
f 15 7 23 
f 12 16 23 
f 6 2 24 
f 7 6 24 
f 2 10 24 
f 10 7 24 
f 4 3 25 
f 17 9 25 
f 21 4 25 
f 9 21 25 
f 8 6 26 
f 11 8 26 
f 6 15 26 
f 15 11 26 
f 10 4 27 
f 12 23 27 
f 1 16 28 
f 16 12 28 
f 3 8 29 
f 14 3 29 
f 8 14 29 
f 19 4 30 
f 18 19 30 
f 4 21 30 
f 18 1 31 
f 19 18 31 
f 1 28 31 
f 28 19 31 
f 4 19 32 
f 27 4 32 
f 12 27 32 
f 28 12 32 
f 19 28 32 
f 11 15 33 
f 16 11 33 
f 15 23 33 
f 23 16 33 
f 9 5 34 
f 13 9 34 
f 5 20 34 
f 20 13 34 
f 13 1 35 
f 1 18 35 
f 21 13 35 
f 18 30 35 
f 30 21 35 
f 7 10 36 
f 23 7 36 
f 10 27 36 
f 27 23 36 
f 3 14 37 
f 14 17 37 
f 25 3 37 
o convex_1
v -0.015796 -0.009006 -0.000220
v -0.000423 0.012960 0.020428
v 0.000018 0.012960 0.019986
v -0.012282 0.012960 0.000221
v -0.016235 -0.004611 0.019986
v -0.003937 -0.008565 0.000221
v -0.004376 -0.009006 0.019986
v 0.000018 0.012960 -0.000220
v -0.012282 0.012960 0.019986
v -0.015796 -0.009006 0.020428
v -0.000862 0.003295 0.019549
v -0.016235 -0.004611 0.000221
v -0.000862 0.003734 -0.000220
v -0.013160 0.010324 0.019986
v -0.004815 -0.009006 -0.000220
v -0.002620 -0.004173 0.019986
v -0.014038 0.005490 -0.000220
v 0.000018 0.009444 -0.000220
v -0.011843 0.012960 0.020428
v -0.004376 -0.008565 0.020428
v -0.016235 -0.009006 0.019986
v -0.013160 0.010324 0.000221
v 0.000018 0.009444 0.019986
v -0.002620 -0.004173 0.000221
v -0.011843 0.012960 -0.000220
v -0.016235 -0.009006 0.000221
v -0.003937 -0.008565 0.019986
v -0.000862 0.003295 0.000221
f 48 61 65 
f 39 40 41 
f 41 40 45 
f 39 41 46 
f 38 44 47 
f 38 45 50 
f 46 41 51 
f 49 42 51 
f 44 38 52 
f 43 44 52 
f 38 50 52 
f 50 43 52 
f 45 38 54 
f 38 49 54 
f 45 40 55 
f 50 45 55 
f 39 46 56 
f 42 47 56 
f 47 39 56 
f 46 51 56 
f 51 42 56 
f 39 47 57 
f 47 44 57 
f 47 42 58 
f 38 47 58 
f 42 49 58 
f 51 41 59 
f 49 51 59 
f 54 49 59 
f 40 39 60 
f 53 48 60 
f 55 40 60 
f 48 55 60 
f 39 57 60 
f 57 53 60 
f 43 50 61 
f 53 43 61 
f 48 53 61 
f 41 45 62 
f 45 54 62 
f 59 41 62 
f 54 59 62 
f 49 38 63 
f 38 58 63 
f 58 49 63 
f 44 43 64 
f 43 53 64 
f 57 44 64 
f 53 57 64 
f 55 48 65 
f 50 55 65 
f 61 50 65 
o convex_2
v -0.010085 0.052494 -0.000220
v 0.003093 0.090271 0.020428
v 0.003093 0.090720 0.019986
v 0.003093 0.013409 -0.000220
v -0.011843 0.012960 0.020428
v 0.003093 0.013843 0.020428
v 0.003093 0.090271 -0.000220
v -0.008329 0.069187 0.019986
v -0.012282 0.012960 0.000221
v -0.003058 0.087637 0.000221
v -0.012282 0.032293 0.019986
v -0.002180 0.089395 0.019986
v -0.008329 0.069187 0.000221
v -0.012282 0.032293 0.000221
v -0.001300 0.090271 -0.000220
v 0.000457 0.012960 0.019986
v -0.007889 0.069187 0.020428
v -0.011843 0.012960 -0.000220
v -0.009207 0.062595 0.019986
v -0.005252 0.080612 0.019549
v -0.012282 0.012960 0.019986
v -0.009207 0.062595 0.000221
v 0.000457 0.012960 -0.000220
v -0.000860 0.090720 0.019986
v -0.000860 0.090720 0.000221
v -0.005252 0.080612 0.000221
v -0.003058 0.087637 0.019986
v -0.001741 0.089395 0.020428
v -0.011843 0.032293 0.020428
v -0.007889 0.069620 -0.000220
v 0.003093 0.090720 0.000221
v 0.003093 0.013409 0.019986
v -0.002180 0.089395 0.000221
v -0.011843 0.032735 -0.000220
f 83 79 99 
f 68 67 69 
f 67 70 71 
f 69 67 71 
f 68 69 72 
f 69 66 72 
f 74 76 79 
f 72 66 80 
f 71 70 81 
f 70 74 81 
f 70 67 82 
f 66 69 83 
f 74 79 83 
f 81 74 83 
f 73 78 84 
f 79 76 84 
f 82 73 84 
f 78 73 85 
f 74 70 86 
f 70 76 86 
f 76 74 86 
f 66 79 87 
f 84 78 87 
f 79 84 87 
f 69 81 88 
f 83 69 88 
f 81 83 88 
f 67 68 89 
f 72 80 90 
f 89 68 90 
f 77 89 90 
f 85 75 91 
f 78 85 91 
f 77 75 92 
f 73 82 92 
f 85 73 92 
f 75 85 92 
f 82 67 93 
f 67 89 93 
f 89 77 93 
f 77 92 93 
f 92 82 93 
f 76 70 94 
f 70 82 94 
f 84 76 94 
f 82 84 94 
f 80 66 95 
f 75 80 95 
f 66 87 95 
f 87 78 95 
f 91 75 95 
f 78 91 95 
f 68 72 96 
f 90 68 96 
f 72 90 96 
f 69 71 97 
f 71 81 97 
f 81 69 97 
f 75 77 98 
f 80 75 98 
f 90 80 98 
f 77 90 98 
f 79 66 99 
f 66 83 99 
o convex_3
v 0.018030 -0.090279 -0.000220
v 0.022862 -0.056892 0.020428
v 0.023301 -0.056892 0.019986
v 0.010564 -0.057776 0.000221
v 0.011881 -0.078418 0.019986
v 0.028134 -0.083249 -0.000220
v 0.027255 -0.085445 0.019986
v 0.022862 -0.056892 -0.000220
v 0.011443 -0.056892 0.019986
v 0.018030 -0.090279 0.020428
v 0.011881 -0.078418 -0.000220
v 0.028134 -0.082372 0.019986
v 0.025058 -0.087640 0.000221
v 0.015834 -0.088521 0.000221
v 0.010564 -0.064362 0.019549
v 0.013639 -0.084124 0.019986
v 0.023301 -0.056892 0.000221
v 0.011881 -0.056892 -0.000220
v 0.018909 -0.090720 0.019986
v 0.011443 -0.057332 0.020428
v 0.025058 -0.087200 0.020428
v 0.010564 -0.064362 0.000221
v 0.015834 -0.088521 0.019986
v 0.010564 -0.057776 0.019549
v 0.018030 -0.090720 0.000221
v 0.013639 -0.084124 0.000221
v 0.028134 -0.082372 0.000221
v 0.025058 -0.087640 0.019986
v 0.027255 -0.085445 0.000221
v 0.012320 -0.078418 0.020428
v 0.018909 -0.090720 0.000221
v 0.027694 -0.082372 0.020428
v 0.028134 -0.083687 0.019986
v 0.018030 -0.090720 0.019986
v 0.012760 -0.081491 0.019986
f 115 129 134 
f 101 102 107 
f 105 100 107 
f 101 107 108 
f 107 100 110 
f 102 101 111 
f 100 105 112 
f 110 100 113 
f 110 104 114 
f 107 102 116 
f 105 107 116 
f 102 111 116 
f 103 108 117 
f 108 107 117 
f 110 103 117 
f 107 110 117 
f 101 108 119 
f 109 101 119 
f 101 109 120 
f 109 118 120 
f 103 110 121 
f 114 103 121 
f 110 114 121 
f 109 115 122 
f 115 113 122 
f 108 103 123 
f 103 114 123 
f 119 108 123 
f 114 119 123 
f 113 100 124 
f 122 113 124 
f 110 113 125 
f 113 115 125 
f 111 105 126 
f 105 116 126 
f 116 111 126 
f 112 106 127 
f 118 112 127 
f 106 120 127 
f 120 118 127 
f 112 105 128 
f 106 112 128 
f 114 104 129 
f 115 109 129 
f 109 119 129 
f 119 114 129 
f 100 112 130 
f 112 118 130 
f 124 100 130 
f 118 124 130 
f 111 101 131 
f 101 120 131 
f 120 106 131 
f 105 111 132 
f 128 105 132 
f 106 128 132 
f 111 131 132 
f 131 106 132 
f 118 109 133 
f 109 122 133 
f 124 118 133 
f 122 124 133 
f 104 110 134 
f 110 125 134 
f 125 115 134 
f 129 104 134 
o convex_4
v 0.025059 -0.046786 0.000221
v 0.020666 -0.015596 0.020428
v 0.010124 -0.015596 0.020428
v 0.012320 -0.056892 0.020428
v 0.010124 -0.015596 -0.000220
v 0.011881 -0.056892 -0.000220
v 0.023301 -0.056892 0.019986
v 0.021983 -0.016477 -0.000220
v 0.024180 -0.022629 0.019986
v 0.022862 -0.056892 -0.000220
v 0.009683 -0.021308 0.019986
v 0.025059 -0.046346 0.019986
v 0.024180 -0.022629 0.000221
v 0.009683 -0.021308 0.000221
v 0.011881 -0.056892 0.019986
v 0.024620 -0.046342 0.020428
v 0.021104 -0.015596 -0.000220
v 0.022423 -0.016918 0.019549
v 0.025059 -0.043710 -0.000220
v 0.009683 -0.015596 0.000221
v 0.023301 -0.056892 0.000221
v 0.025059 -0.043269 0.019986
v 0.009683 -0.015596 0.019986
v 0.022862 -0.056892 0.020428
v 0.022423 -0.016918 0.000221
v 0.023741 -0.022629 0.020428
v 0.025059 -0.046786 0.019549
f 146 141 161 
f 136 137 138 
f 137 136 139 
f 138 140 141 
f 140 139 142 
f 141 140 144 
f 140 142 144 
f 138 137 145 
f 139 140 148 
f 140 145 148 
f 140 138 149 
f 138 145 149 
f 145 140 149 
f 136 138 150 
f 139 136 151 
f 142 139 151 
f 142 151 152 
f 143 147 152 
f 151 136 152 
f 135 144 153 
f 144 142 153 
f 146 135 153 
f 142 147 153 
f 137 139 154 
f 139 148 154 
f 148 145 154 
f 135 141 155 
f 144 135 155 
f 141 144 155 
f 147 143 156 
f 150 146 156 
f 146 153 156 
f 153 147 156 
f 145 137 157 
f 137 154 157 
f 154 145 157 
f 138 141 158 
f 141 146 158 
f 150 138 158 
f 146 150 158 
f 147 142 159 
f 142 152 159 
f 152 147 159 
f 136 150 160 
f 152 136 160 
f 143 152 160 
f 156 143 160 
f 150 156 160 
f 141 135 161 
f 135 146 161 
o convex_5
v 0.009245 -0.014713 -0.000220
v 0.016712 0.012960 0.020428
v 0.017151 0.012960 0.019986
v 0.020666 -0.015596 0.020428
v 0.005731 0.001536 0.019986
v 0.017151 0.012960 -0.000220
v 0.004852 0.012960 -0.000220
v 0.021104 -0.015596 -0.000220
v 0.010124 -0.015596 0.020428
v 0.005291 0.012960 0.020428
v 0.021104 -0.010321 0.019986
v 0.019347 0.002414 0.000221
v 0.005731 0.001536 0.000221
v 0.008806 -0.014277 0.019986
v 0.009684 -0.015596 0.000221
v 0.004852 0.009444 0.019986
v 0.019347 0.002414 0.019986
v 0.021104 -0.010321 0.000221
v 0.008806 -0.014277 0.000221
v 0.004852 0.009444 0.000221
v 0.021104 -0.015596 0.019986
v 0.006609 -0.003294 0.000221
v 0.004852 0.012960 0.019986
v 0.006170 0.001536 0.020428
v 0.006609 -0.003294 0.019549
f 183 175 186 
f 163 164 167 
f 167 162 168 
f 163 167 168 
f 162 167 169 
f 165 163 170 
f 169 165 170 
f 163 168 171 
f 170 163 171 
f 167 164 173 
f 169 167 173 
f 168 162 174 
f 162 169 176 
f 169 170 176 
f 170 175 176 
f 174 166 177 
f 164 163 178 
f 163 165 178 
f 165 172 178 
f 172 173 178 
f 173 164 178 
f 172 169 179 
f 169 173 179 
f 173 172 179 
f 162 176 180 
f 176 175 180 
f 168 174 181 
f 177 168 181 
f 174 177 181 
f 165 169 182 
f 172 165 182 
f 169 172 182 
f 174 162 183 
f 166 174 183 
f 162 180 183 
f 180 175 183 
f 171 168 184 
f 177 171 184 
f 168 177 184 
f 170 171 185 
f 175 170 185 
f 166 175 185 
f 177 166 185 
f 171 177 185 
f 175 166 186 
f 166 183 186 
o convex_6
v -0.020627 -0.034047 0.020428
v -0.021069 -0.054256 -0.000220
v -0.022387 -0.045467 0.000221
v -0.008768 -0.034049 0.000221
v -0.008768 -0.053374 0.019986
v -0.021069 -0.054256 0.019986
v -0.009648 -0.054256 0.000221
v -0.008768 -0.034049 0.019988
v -0.021069 -0.034047 -0.000220
v -0.022387 -0.041517 0.019549
v -0.010087 -0.054256 0.020428
v -0.009208 -0.053374 -0.000220
v -0.008768 -0.053374 0.000221
v -0.009208 -0.034047 0.020428
v -0.022387 -0.045030 0.019986
v -0.020627 -0.054256 0.020428
v -0.009208 -0.034047 -0.000220
v -0.022387 -0.041517 0.000221
v -0.021069 -0.034047 0.019986
v -0.021946 -0.041958 0.020428
f 205 196 206 
f 189 188 192 
f 192 188 193 
f 191 190 194 
f 188 189 195 
f 193 191 197 
f 192 193 197 
f 193 188 198 
f 188 195 198 
f 190 191 199 
f 191 193 199 
f 198 190 199 
f 193 198 199 
f 194 190 200 
f 191 194 200 
f 195 187 200 
f 187 197 200 
f 197 191 200 
f 189 192 201 
f 196 189 201 
f 197 187 202 
f 192 197 202 
f 201 192 202 
f 190 198 203 
f 198 195 203 
f 200 190 203 
f 195 200 203 
f 195 189 204 
f 189 196 204 
f 196 195 204 
f 187 195 205 
f 195 196 205 
f 196 201 206 
f 202 187 206 
f 201 202 206 
f 187 205 206 
o convex_7
v -0.021069 -0.034045 -0.000220
v -0.005255 -0.009006 0.020428
v -0.004814 -0.009006 0.019986
v -0.009209 -0.034045 0.020428
v -0.021069 -0.022623 0.019986
v -0.005255 -0.009006 -0.000220
v -0.017114 -0.009450 0.000221
v -0.008770 -0.034045 0.000221
v -0.016235 -0.009011 0.020428
v -0.020628 -0.034045 0.020428
v -0.021069 -0.022623 -0.000220
v -0.004814 -0.013401 0.019986
v -0.004814 -0.013401 0.000221
v -0.007890 -0.031410 0.019986
v -0.007890 -0.031410 -0.000220
v -0.017114 -0.009450 0.019986
v -0.016235 -0.009011 -0.000220
v -0.021069 -0.034045 0.019986
v -0.004814 -0.009006 0.000221
v -0.020628 -0.022623 0.020428
v -0.008770 -0.034045 0.019986
f 214 220 227 
f 208 209 212 
f 210 207 214 
f 210 208 215 
f 208 212 215 
f 207 210 216 
f 210 215 216 
f 207 211 217 
f 212 207 217 
f 211 213 217 
f 209 208 218 
f 208 210 218 
f 209 218 219 
f 218 210 220 
f 219 218 220 
f 219 220 221 
f 207 212 221 
f 214 207 221 
f 212 219 221 
f 220 214 221 
f 213 211 222 
f 215 213 222 
f 215 212 223 
f 213 215 223 
f 212 217 223 
f 217 213 223 
f 211 207 224 
f 207 216 224 
f 216 211 224 
f 212 209 225 
f 209 219 225 
f 219 212 225 
f 211 216 226 
f 216 215 226 
f 222 211 226 
f 215 222 226 
f 210 214 227 
f 220 210 227 
o convex_8
v 0.014075 0.012960 -0.000220
v 0.012318 0.038001 0.020428
v 0.012758 0.038001 0.019986
v 0.003093 0.038001 -0.000220
v 0.003093 0.013840 0.020428
v 0.017151 0.012962 0.019986
v 0.018030 0.032288 -0.000220
v 0.003093 0.013401 -0.000220
v 0.003093 0.038001 0.020428
v 0.018030 0.032729 0.019986
v 0.017151 0.012962 -0.000220
v 0.012758 0.038001 0.000221
v 0.004852 0.012960 0.020428
v 0.016711 0.012962 0.020428
v 0.004412 0.012960 0.000221
v 0.018030 0.030530 0.019986
v 0.017590 0.032729 0.020428
v 0.018030 0.032729 0.000221
v 0.018030 0.030530 -0.000220
v 0.012318 0.038001 -0.000220
v 0.003093 0.013401 0.019986
f 242 240 248 
f 229 230 231 
f 228 231 234 
f 231 228 235 
f 232 231 235 
f 229 231 236 
f 231 232 236 
f 232 229 236 
f 230 229 237 
f 233 228 238 
f 228 234 238 
f 231 230 239 
f 230 237 239 
f 229 232 240 
f 228 233 240 
f 229 240 241 
f 240 233 241 
f 235 228 242 
f 228 240 242 
f 234 237 243 
f 233 238 243 
f 241 233 243 
f 241 243 244 
f 237 229 244 
f 229 241 244 
f 243 237 244 
f 237 234 245 
f 239 237 245 
f 238 234 246 
f 234 243 246 
f 243 238 246 
f 234 231 247 
f 231 239 247 
f 245 234 247 
f 239 245 247 
f 232 235 248 
f 240 232 248 
f 235 242 248 
o convex_9
v 0.014076 0.050742 0.000221
v 0.003973 0.090271 0.020428
v 0.003973 0.090720 0.019986
v 0.003093 0.038001 -0.000220
v 0.011879 0.038001 0.020428
v 0.003093 0.090271 -0.000220
v 0.003093 0.038001 0.020428
v 0.012319 0.067431 0.019986
v 0.006169 0.087644 0.000221
v 0.011879 0.038001 -0.000220
v 0.012319 0.067431 0.000221
v 0.014076 0.047672 0.019986
v 0.003093 0.090271 0.020428
v 0.006169 0.087644 0.019986
v 0.014076 0.047672 -0.000220
v 0.012319 0.038001 0.019986
v 0.011879 0.067431 0.020428
v 0.014076 0.050742 0.019986
v 0.005291 0.089399 0.000221
v 0.012319 0.038001 0.000221
v 0.011879 0.067431 -0.000220
v 0.003973 0.090720 0.000221
v 0.014076 0.047228 0.019549
v 0.013197 0.059530 0.019986
v 0.013637 0.050742 0.020428
v 0.005291 0.089399 0.019986
v 0.005730 0.087644 -0.000220
v 0.003093 0.090720 0.000221
v 0.013197 0.059530 0.000221
v 0.014076 0.047228 0.000221
f 271 268 278 
f 254 252 255 
f 252 253 255 
f 253 250 255 
f 253 252 258 
f 252 254 258 
f 257 256 259 
f 250 251 261 
f 254 255 261 
f 255 250 261 
f 256 257 262 
f 258 254 263 
f 249 260 263 
f 253 258 264 
f 260 253 264 
f 250 253 265 
f 262 250 265 
f 256 262 265 
f 260 249 266 
f 262 257 267 
f 258 263 268 
f 264 258 268 
f 257 259 269 
f 263 254 269 
f 259 263 269 
f 251 267 270 
f 263 260 271 
f 260 264 271 
f 264 268 271 
f 259 256 272 
f 256 265 272 
f 266 249 272 
f 266 272 273 
f 253 260 273 
f 265 253 273 
f 260 266 273 
f 272 265 273 
f 251 250 274 
f 250 262 274 
f 267 251 274 
f 262 267 274 
f 267 257 275 
f 269 254 275 
f 257 269 275 
f 254 270 275 
f 270 267 275 
f 261 251 276 
f 254 261 276 
f 251 270 276 
f 270 254 276 
f 263 259 277 
f 249 263 277 
f 272 249 277 
f 259 272 277 
f 268 263 278 
f 263 271 278 
