o convex_0
v -0.008217 -0.090708 0.000211
v -0.001977 0.061582 0.020180
v -0.001977 0.061582 -0.000204
v -0.013628 0.045333 0.000211
v -0.012795 -0.086117 0.019761
v -0.002393 -0.066141 0.020180
v -0.013628 0.045333 0.020180
v -0.002393 -0.066141 -0.000204
v -0.012379 -0.086534 -0.000204
v -0.005306 -0.086534 0.019761
v -0.013628 -0.033689 0.000211
v -0.005722 0.061582 0.000211
v -0.013628 -0.033271 0.020180
v -0.005722 0.061582 0.019761
v -0.004475 -0.083612 0.000211
v -0.008634 -0.090291 0.020180
v -0.001977 0.020796 0.000211
v -0.013211 0.045765 -0.000204
v -0.012795 -0.086117 0.000211
v -0.003226 -0.076129 0.019761
v -0.001977 0.021214 0.020180
v -0.011546 -0.088621 0.000211
v -0.007386 -0.090291 -0.000204
v -0.010298 -0.089858 0.019761
v -0.007386 -0.090708 0.019761
v -0.003226 -0.076129 0.000211
v -0.012795 0.047420 0.000211
v -0.012379 -0.086534 0.020180
v -0.005306 -0.086534 0.000211
v -0.004475 -0.083195 0.020180
v -0.012795 0.047420 0.019761
v -0.011546 -0.088621 0.019761
v -0.010298 -0.089858 0.000211
v -0.013211 -0.033689 -0.000204
v -0.007386 -0.090708 0.000211
v -0.005306 0.061582 0.020180
v -0.005306 0.061582 -0.000204
v -0.002393 -0.066559 0.019761
v -0.004475 -0.083195 -0.000204
v -0.004475 -0.083612 0.019761
v -0.008217 -0.090708 0.019761
f 1 25 41 
f 6 2 7 
f 3 8 9 
f 7 4 11 
f 2 3 12 
f 6 7 13 
f 7 11 13 
f 11 5 13 
f 2 12 14 
f 6 13 16 
f 3 2 17 
f 8 3 17 
f 3 9 18 
f 11 4 18 
f 5 11 19 
f 11 9 19 
f 2 6 21 
f 17 2 21 
f 19 9 22 
f 5 19 22 
f 9 8 23 
f 20 15 26 
f 4 7 27 
f 14 12 27 
f 18 4 27 
f 12 18 27 
f 13 5 28 
f 16 13 28 
f 15 10 29 
f 10 25 29 
f 6 16 30 
f 20 6 30 
f 25 10 30 
f 16 25 30 
f 7 14 31 
f 27 7 31 
f 14 27 31 
f 5 22 32 
f 24 16 32 
f 22 24 32 
f 28 5 32 
f 16 28 32 
f 22 9 33 
f 9 23 33 
f 23 1 33 
f 1 24 33 
f 24 22 33 
f 9 11 34 
f 18 9 34 
f 11 18 34 
f 1 23 35 
f 25 1 35 
f 23 29 35 
f 29 25 35 
f 7 2 36 
f 2 14 36 
f 14 7 36 
f 12 3 37 
f 3 18 37 
f 18 12 37 
f 8 17 38 
f 6 20 38 
f 21 6 38 
f 17 21 38 
f 26 8 38 
f 20 26 38 
f 23 8 39 
f 8 26 39 
f 26 15 39 
f 15 29 39 
f 29 23 39 
f 10 15 40 
f 15 20 40 
f 30 10 40 
f 20 30 40 
f 24 1 41 
f 16 24 41 
f 25 16 41 
o convex_1
v -0.012378 0.070739 -0.000204
v -0.005306 0.090289 0.020180
v -0.005723 0.090708 0.019761
v -0.001977 0.088627 -0.000204
v -0.001977 0.061582 0.020180
v -0.015706 0.085297 0.019761
v -0.001977 0.061582 -0.000204
v -0.014875 0.088208 0.000211
v -0.012378 0.070323 0.020180
v -0.001977 0.089040 0.020180
v -0.015706 0.077388 0.000211
v -0.005723 0.061582 0.000211
v -0.013210 0.089873 0.019761
v -0.009467 0.090708 0.000211
v -0.005723 0.061582 0.019761
v -0.015706 0.077388 0.019761
v -0.002810 0.089876 0.000211
v -0.012795 0.070739 0.000211
v -0.013210 0.089459 -0.000204
v -0.015706 0.085297 0.000211
v -0.014458 0.088208 0.020180
v -0.005723 0.090708 0.000211
v -0.009467 0.090708 0.019761
v -0.013627 0.072404 0.019761
v -0.013210 0.089873 0.000211
v -0.014875 0.088208 0.019761
v -0.002810 0.089876 0.019761
v -0.015292 0.077388 -0.000204
v -0.012795 0.070739 0.019761
v -0.015292 0.077388 0.020180
v -0.013627 0.072404 0.000211
v -0.005306 0.061582 -0.000204
v -0.005306 0.061582 0.020180
f 50 56 74 
f 42 45 48 
f 45 46 48 
f 46 43 50 
f 46 45 51 
f 43 46 51 
f 48 46 53 
f 53 46 56 
f 47 52 57 
f 51 45 58 
f 42 53 59 
f 53 56 59 
f 45 42 60 
f 47 49 61 
f 52 47 61 
f 49 60 61 
f 50 43 62 
f 43 54 62 
f 55 44 63 
f 44 58 63 
f 58 45 63 
f 45 60 63 
f 60 55 63 
f 43 44 64 
f 54 43 64 
f 55 54 64 
f 44 55 64 
f 50 57 65 
f 57 52 65 
f 49 54 66 
f 54 55 66 
f 60 49 66 
f 55 60 66 
f 49 47 67 
f 54 49 67 
f 47 62 67 
f 62 54 67 
f 44 43 68 
f 43 51 68 
f 58 44 68 
f 51 58 68 
f 60 42 69 
f 52 61 69 
f 61 60 69 
f 56 50 70 
f 59 56 70 
f 50 65 70 
f 65 59 70 
f 47 57 71 
f 57 50 71 
f 62 47 71 
f 50 62 71 
f 42 59 72 
f 65 52 72 
f 59 65 72 
f 69 42 72 
f 52 69 72 
f 42 48 73 
f 53 42 73 
f 48 53 73 
f 46 50 74 
f 56 46 74 
o convex_2
v 0.012170 -0.081554 -0.000204
v 0.010506 0.015811 0.020180
v 0.003432 0.015811 0.020180
v 0.010506 0.015811 -0.000204
v 0.015915 -0.077389 0.019761
v 0.005096 -0.064075 0.000211
v 0.006345 -0.075302 0.019761
v 0.003432 0.015811 -0.000204
v 0.013834 -0.004584 0.000211
v 0.015915 -0.077389 0.000211
v 0.013834 -0.004584 0.019761
v 0.003432 -0.017479 0.020180
v 0.009674 -0.081554 0.020180
v 0.007594 -0.078218 -0.000204
v 0.003432 -0.017069 -0.000204
v 0.005096 -0.064075 0.019761
v 0.015915 -0.070727 0.000211
v 0.011753 0.011227 0.000211
v 0.014250 -0.079467 0.020180
v 0.015915 -0.070727 0.019761
v 0.015498 -0.070727 -0.000204
v 0.009258 -0.081554 0.000211
v 0.006345 -0.075302 0.000211
v 0.011753 0.011227 0.019761
v 0.007594 -0.078628 0.020180
v 0.012585 -0.081554 0.019761
v 0.013417 -0.004584 0.020180
v 0.014666 -0.079467 0.000211
v 0.007177 -0.078218 0.000211
v 0.013417 -0.004584 -0.000204
v 0.015498 -0.070727 0.020180
v 0.007177 -0.078218 0.019761
v 0.014666 -0.079467 0.019761
v 0.005513 -0.064485 -0.000204
v 0.005513 -0.064485 0.020180
v 0.009258 -0.081554 0.019761
v 0.012585 -0.081554 0.000211
v 0.003432 -0.017479 0.000211
f 86 89 112 
f 77 76 78 
f 77 78 82 
f 78 75 82 
f 76 77 86 
f 77 82 86 
f 76 86 87 
f 82 75 88 
f 86 82 89 
f 82 88 89 
f 80 81 90 
f 86 80 90 
f 79 84 91 
f 83 85 91 
f 78 76 92 
f 85 83 92 
f 76 87 93 
f 79 91 94 
f 91 85 94 
f 75 78 95 
f 84 75 95 
f 83 91 95 
f 91 84 95 
f 75 87 96 
f 88 75 96 
f 81 80 97 
f 92 76 98 
f 85 92 98 
f 87 86 99 
f 87 75 100 
f 93 87 100 
f 76 93 101 
f 94 85 101 
f 98 76 101 
f 85 98 101 
f 84 79 102 
f 75 84 102 
f 88 96 103 
f 81 97 103 
f 97 88 103 
f 78 92 104 
f 92 83 104 
f 95 78 104 
f 83 95 104 
f 93 79 105 
f 79 94 105 
f 101 93 105 
f 94 101 105 
f 99 81 106 
f 103 96 106 
f 81 103 106 
f 79 93 107 
f 93 100 107 
f 102 79 107 
f 100 102 107 
f 80 89 108 
f 89 88 108 
f 97 80 108 
f 88 97 108 
f 90 81 109 
f 86 90 109 
f 99 86 109 
f 81 99 109 
f 96 87 110 
f 87 99 110 
f 106 96 110 
f 99 106 110 
f 100 75 111 
f 75 102 111 
f 102 100 111 
f 80 86 112 
f 89 80 112 
o convex_3
v 0.003017 0.015811 0.000211
v 0.008425 0.048267 0.020180
v -0.001977 0.048267 0.020180
v 0.008425 0.048267 -0.000204
v 0.010506 0.015811 0.020180
v -0.001977 0.048267 -0.000204
v -0.001977 0.021222 0.019761
v 0.010506 0.015811 -0.000204
v -0.001977 0.021638 -0.000204
v 0.003432 0.015811 0.020180
v 0.010506 0.025800 0.000211
v 0.008840 0.048267 0.019761
v 0.010506 0.025800 0.019761
v 0.008840 0.048267 0.000211
v -0.001977 0.021638 0.020180
v 0.002185 0.016644 0.019761
v -0.001977 0.021222 0.000211
v 0.003432 0.015811 -0.000204
v 0.010506 0.025387 0.020180
v 0.010506 0.025387 -0.000204
f 126 123 132 
f 115 114 116 
f 114 115 117 
f 115 116 118 
f 115 118 119 
f 117 113 120 
f 118 116 120 
f 118 120 121 
f 119 118 121 
f 113 117 122 
f 117 115 122 
f 117 120 123 
f 116 114 124 
f 123 124 125 
f 117 123 125 
f 116 124 126 
f 124 123 126 
f 115 119 127 
f 122 115 127 
f 122 127 128 
f 113 122 128 
f 127 119 128 
f 128 119 129 
f 121 113 129 
f 119 121 129 
f 113 128 129 
f 120 113 130 
f 121 120 130 
f 113 121 130 
f 114 117 131 
f 124 114 131 
f 125 124 131 
f 117 125 131 
f 120 116 132 
f 123 120 132 
f 116 126 132 
o convex_4
v 0.013418 0.056591 -0.000204
v -0.000728 0.088628 0.020180
v -0.001977 0.088628 0.020180
v -0.001977 0.048267 0.020180
v -0.001977 0.088209 -0.000204
v 0.013834 0.078221 0.019763
v -0.001977 0.048267 -0.000204
v 0.008840 0.048271 0.019761
v 0.011753 0.081552 0.000211
v 0.013418 0.056591 0.020180
v 0.008840 0.048271 0.000211
v 0.013834 0.078221 0.000209
v 0.010504 0.082381 0.020180
v 0.002185 0.087790 0.000211
v 0.013834 0.056591 0.019763
v 0.013834 0.056591 0.000209
v 0.010504 0.082796 0.019761
v 0.011336 0.081552 -0.000204
v 0.002185 0.087790 0.019761
v 0.010504 0.082796 0.000211
v -0.000312 0.088628 0.000211
v 0.008424 0.048271 0.020180
v 0.008424 0.048271 -0.000204
v 0.011753 0.081552 0.019761
v 0.009673 0.049519 0.019761
v 0.013418 0.078640 0.020180
v 0.013418 0.078221 -0.000204
v 0.009673 0.049519 0.000211
v -0.001977 0.088628 0.000211
v 0.002601 0.087379 -0.000204
f 153 146 162 
f 134 135 136 
f 136 135 137 
f 137 133 139 
f 136 137 139 
f 136 139 140 
f 134 136 142 
f 140 139 143 
f 141 138 144 
f 134 142 145 
f 138 142 147 
f 144 138 147 
f 144 147 148 
f 133 144 148 
f 133 137 150 
f 141 144 150 
f 134 145 151 
f 145 149 151 
f 149 146 151 
f 149 141 152 
f 146 149 152 
f 141 150 152 
f 135 134 153 
f 134 151 153 
f 151 146 153 
f 136 140 154 
f 142 136 154 
f 139 133 155 
f 143 139 155 
f 138 141 156 
f 141 149 156 
f 149 145 156 
f 140 143 157 
f 147 142 157 
f 148 147 157 
f 154 140 157 
f 142 154 157 
f 142 138 158 
f 145 142 158 
f 138 156 158 
f 156 145 158 
f 144 133 159 
f 133 150 159 
f 150 144 159 
f 133 148 160 
f 155 133 160 
f 143 155 160 
f 157 143 160 
f 148 157 160 
f 137 135 161 
f 135 153 161 
f 153 137 161 
f 150 137 162 
f 146 152 162 
f 152 150 162 
f 137 153 162 
