o convex_0
v 0.020776 -0.086502 -0.000235
v 0.024069 -0.029618 0.020451
v 0.010436 -0.029618 0.020451
v 0.009967 -0.089324 0.020451
v 0.009967 -0.029618 -0.000235
v 0.007616 -0.088381 0.000237
v 0.025008 -0.030567 -0.000235
v 0.026418 -0.066286 0.019977
v 0.026418 -0.066286 0.000237
v 0.021247 -0.086502 0.019977
v 0.007616 -0.080859 0.019977
v 0.026418 -0.036675 0.019977
v 0.017956 -0.089795 0.000237
v 0.023126 -0.082732 0.000237
v 0.026418 -0.036675 0.000237
v 0.017956 -0.089324 0.020451
v 0.009967 -0.029618 0.019977
v 0.009967 -0.089324 -0.000235
v 0.023126 -0.082732 0.019977
v 0.007616 -0.080859 0.000237
v 0.007616 -0.088381 0.019977
v 0.024538 -0.029618 0.000237
v 0.025948 -0.066286 0.020451
v 0.009967 -0.089795 0.019977
v 0.025008 -0.030095 0.019977
v 0.025948 -0.066286 -0.000235
v 0.017956 -0.089795 0.019977
v 0.009967 -0.089795 0.000237
v 0.021247 -0.086502 0.000237
v 0.025008 -0.073808 0.019977
v 0.008086 -0.080859 0.020451
v 0.008086 -0.088381 -0.000235
v 0.025008 -0.073808 0.000237
v 0.022657 -0.082732 0.020451
v 0.025948 -0.036675 0.020451
v 0.008086 -0.088852 0.019977
v 0.025008 -0.030095 0.000237
f 22 25 37 
f 2 3 4 
f 3 2 5 
f 1 5 7 
f 8 9 12 
f 12 9 15 
f 2 4 16 
f 3 5 17 
f 11 3 17 
f 5 11 17 
f 5 1 18 
f 1 13 18 
f 10 14 19 
f 11 5 20 
f 6 11 20 
f 11 6 21 
f 5 2 22 
f 7 5 22 
f 8 12 23 
f 2 16 23 
f 16 4 24 
f 12 15 25 
f 22 2 25 
f 1 7 26 
f 14 1 26 
f 7 15 26 
f 15 9 26 
f 13 10 27 
f 10 16 27 
f 16 24 27 
f 24 13 27 
f 18 13 28 
f 13 24 28 
f 13 1 29 
f 10 13 29 
f 1 14 29 
f 14 10 29 
f 9 8 30 
f 19 14 30 
f 8 23 30 
f 4 3 31 
f 3 11 31 
f 21 4 31 
f 11 21 31 
f 5 18 32 
f 20 5 32 
f 6 20 32 
f 28 6 32 
f 18 28 32 
f 26 9 33 
f 14 26 33 
f 9 30 33 
f 30 14 33 
f 16 10 34 
f 10 19 34 
f 23 16 34 
f 19 30 34 
f 30 23 34 
f 2 23 35 
f 23 12 35 
f 25 2 35 
f 12 25 35 
f 4 21 36 
f 21 6 36 
f 24 4 36 
f 6 28 36 
f 28 24 36 
f 15 7 37 
f 7 22 37 
f 25 15 37 
o convex_1
v -0.021062 -0.086499 -0.000235
v -0.012132 -0.056416 0.020451
v -0.011662 -0.056416 0.019977
v -0.026235 -0.056419 0.000237
v -0.023414 -0.082266 0.019977
v -0.008840 -0.087440 -0.000235
v -0.009782 -0.089324 0.019977
v -0.012132 -0.056416 -0.000235
v -0.026235 -0.056419 0.019977
v -0.016834 -0.090261 0.020451
v -0.025293 -0.072403 0.000237
v -0.016834 -0.090732 0.000237
v -0.008840 -0.085562 0.019977
v -0.026235 -0.064411 0.019977
v -0.010722 -0.065352 0.000237
v -0.023414 -0.082266 0.000237
v -0.025763 -0.056419 0.020451
v -0.010252 -0.089791 0.000237
v -0.021062 -0.086499 0.019977
v -0.025763 -0.056419 -0.000235
v -0.014953 -0.090732 0.019977
v -0.026235 -0.064411 0.000237
v -0.009312 -0.087440 0.020451
v -0.025293 -0.072403 0.019977
v -0.011662 -0.056416 0.000237
v -0.022942 -0.082266 0.020451
v -0.008840 -0.085562 -0.000235
v -0.016834 -0.090732 0.019977
v -0.010722 -0.065352 0.019509
v -0.010252 -0.089791 0.019977
v -0.008840 -0.087440 0.019977
v -0.014953 -0.090732 0.000237
v -0.024824 -0.072403 -0.000235
v -0.017304 -0.090261 -0.000235
v -0.024354 -0.077566 0.019977
f 63 61 72 
f 39 40 45 
f 41 39 45 
f 43 38 45 
f 39 41 46 
f 40 39 50 
f 46 41 51 
f 38 42 53 
f 39 46 54 
f 47 39 54 
f 46 51 54 
f 43 44 55 
f 42 38 56 
f 41 45 57 
f 45 38 57 
f 51 41 59 
f 48 51 59 
f 41 57 59 
f 39 47 60 
f 50 39 60 
f 51 48 61 
f 45 40 62 
f 40 52 62 
f 47 54 63 
f 54 51 63 
f 42 56 63 
f 56 47 63 
f 51 61 63 
f 43 45 64 
f 50 43 64 
f 52 50 64 
f 45 62 64 
f 62 52 64 
f 47 56 65 
f 58 47 65 
f 49 58 65 
f 40 50 66 
f 52 40 66 
f 50 52 66 
f 55 44 67 
f 47 58 67 
f 58 55 67 
f 44 60 67 
f 60 47 67 
f 44 43 68 
f 43 50 68 
f 60 44 68 
f 50 60 68 
f 58 49 69 
f 55 58 69 
f 38 53 70 
f 53 48 70 
f 57 38 70 
f 48 59 70 
f 59 57 70 
f 38 43 71 
f 43 55 71 
f 56 38 71 
f 65 56 71 
f 49 65 71 
f 69 49 71 
f 55 69 71 
f 53 42 72 
f 48 53 72 
f 61 48 72 
f 42 63 72 
o convex_2
v -0.025763 -0.040429 -0.000235
v -0.008370 -0.020219 0.020451
v -0.021533 -0.020219 0.020451
v -0.012132 -0.056412 0.020451
v -0.007900 -0.020219 -0.000235
v -0.012132 -0.056412 -0.000235
v -0.026235 -0.056412 0.019977
v -0.023412 -0.021633 0.000237
v -0.026235 -0.056412 0.000237
v -0.026235 -0.040429 0.019977
v -0.007900 -0.024453 0.019977
v -0.011662 -0.056412 0.000237
v -0.023412 -0.021633 0.019977
v -0.022003 -0.020219 -0.000235
v -0.007900 -0.024453 -0.000235
v -0.026235 -0.040429 0.000237
v -0.011662 -0.056412 0.019977
v -0.025763 -0.056412 0.020451
v -0.025293 -0.032443 0.019977
v -0.025763 -0.056412 -0.000235
v -0.025293 -0.032443 0.000237
v -0.024823 -0.032443 0.020451
v -0.007900 -0.020219 0.019977
f 83 77 95 
f 74 75 76 
f 75 74 77 
f 73 77 78 
f 78 76 79 
f 78 79 81 
f 81 79 82 
f 74 76 83 
f 76 78 84 
f 77 73 86 
f 75 77 86 
f 73 80 86 
f 85 75 86 
f 80 85 86 
f 78 77 87 
f 77 83 87 
f 84 78 87 
f 83 84 87 
f 73 81 88 
f 81 82 88 
f 83 76 89 
f 76 84 89 
f 84 83 89 
f 76 75 90 
f 79 76 90 
f 82 79 90 
f 85 80 91 
f 88 82 91 
f 73 78 92 
f 81 73 92 
f 78 81 92 
f 80 73 93 
f 73 88 93 
f 91 80 93 
f 88 91 93 
f 75 85 94 
f 90 75 94 
f 82 90 94 
f 91 82 94 
f 85 91 94 
f 77 74 95 
f 74 83 95 
o convex_3
v -0.013071 -0.020216 -0.000235
v -0.000378 0.090257 0.020451
v -0.000378 0.090735 0.019979
v -0.013071 0.062520 0.019977
v -0.007429 -0.019738 0.020451
v -0.000378 0.090257 -0.000235
v -0.000378 0.008467 -0.000235
v -0.013071 0.062520 -0.000235
v -0.000378 0.008945 0.020451
v -0.013071 -0.020216 0.020451
v -0.006960 -0.019738 0.000237
v -0.003200 0.090735 0.000237
v -0.005080 0.086489 0.019977
v -0.010250 0.072392 0.000237
v -0.012601 0.062520 0.020451
v -0.004610 -0.010333 0.019977
v -0.003200 0.090735 0.019509
v -0.010250 0.072392 0.019977
v -0.007900 -0.020216 -0.000235
v -0.005080 0.086489 -0.000235
v -0.006960 -0.019738 0.019977
v -0.004610 -0.010333 0.000237
v -0.007429 0.080385 0.019977
v -0.007429 -0.020216 0.019977
v -0.004610 0.086489 0.020451
v -0.000378 0.008467 0.019977
v -0.007429 0.080385 0.000237
v -0.000378 0.090735 0.000237
f 101 107 123 
f 98 97 101 
f 96 101 102 
f 101 97 102 
f 96 99 103 
f 101 96 103 
f 97 100 104 
f 102 97 104 
f 99 96 105 
f 100 97 105 
f 103 99 109 
f 105 97 110 
f 99 105 110 
f 104 100 111 
f 97 98 112 
f 98 107 112 
f 107 108 112 
f 109 99 113 
f 99 110 113 
f 96 102 114 
f 105 96 114 
f 102 106 114 
f 101 103 115 
f 107 101 115 
f 108 107 115 
f 103 109 115 
f 111 100 116 
f 106 111 116 
f 106 102 117 
f 102 111 117 
f 111 106 117 
f 109 113 118 
f 108 115 118 
f 100 105 119 
f 105 114 119 
f 114 106 119 
f 116 100 119 
f 106 116 119 
f 110 97 120 
f 97 112 120 
f 112 108 120 
f 113 110 120 
f 108 118 120 
f 118 113 120 
f 102 104 121 
f 104 111 121 
f 111 102 121 
f 115 109 122 
f 109 118 122 
f 118 115 122 
f 98 101 123 
f 107 98 123 
o convex_4
v 0.013256 0.023985 -0.000235
v 0.002914 0.090252 0.020451
v 0.002914 0.090735 0.019977
v -0.000378 0.008469 -0.000235
v 0.013256 -0.029618 0.020451
v -0.000378 0.008941 0.020451
v -0.000378 0.090252 -0.000235
v 0.013256 0.062520 0.019977
v 0.009964 -0.029618 -0.000235
v 0.013256 0.062520 0.000237
v -0.000378 0.090252 0.020451
v 0.008554 -0.028193 0.019977
v 0.013256 -0.029618 -0.000235
v 0.005265 0.087425 0.000237
v 0.008554 -0.028193 0.000237
v 0.005265 0.087425 0.019977
v 0.012785 0.062520 0.020451
v 0.003384 0.090252 -0.000235
v 0.010435 0.072380 0.019977
v 0.010435 0.072380 0.000237
v 0.012785 0.062520 -0.000235
v 0.010435 -0.029618 0.020451
v -0.000378 0.008469 0.019977
v -0.000378 0.090735 0.000237
v 0.004324 0.089310 0.019977
v 0.002914 0.090735 0.000237
v -0.000378 0.090735 0.019977
v 0.009024 -0.028193 0.020451
v 0.004324 0.089310 0.000237
f 149 148 152 
f 128 125 129 
f 127 129 130 
f 124 127 130 
f 128 124 131 
f 127 124 132 
f 131 124 133 
f 125 126 134 
f 129 125 134 
f 130 129 134 
f 124 128 136 
f 132 124 136 
f 128 132 136 
f 127 132 138 
f 135 127 138 
f 132 135 138 
f 125 128 140 
f 128 131 140 
f 139 125 140 
f 124 130 141 
f 131 133 142 
f 137 139 142 
f 140 131 142 
f 139 140 142 
f 141 137 143 
f 142 133 143 
f 137 142 143 
f 133 124 144 
f 124 141 144 
f 143 133 144 
f 141 143 144 
f 128 129 145 
f 132 128 145 
f 135 132 145 
f 129 127 146 
f 135 129 146 
f 127 135 146 
f 130 134 147 
f 141 130 147 
f 126 125 148 
f 125 139 148 
f 139 137 148 
f 147 126 149 
f 141 147 149 
f 126 148 149 
f 134 126 150 
f 126 147 150 
f 147 134 150 
f 129 135 151 
f 145 129 151 
f 135 145 151 
f 137 141 152 
f 148 137 152 
f 141 149 152 
o convex_5
v -0.022004 -0.020216 -0.000235
v -0.013072 0.008462 0.020451
v -0.017772 0.008462 0.020451
v -0.013071 -0.020216 0.020451
v -0.013072 0.008462 -0.000235
v -0.013071 -0.020216 -0.000235
v -0.022004 -0.020216 0.019977
v -0.018242 0.008462 0.000237
v -0.022004 -0.016454 0.019977
v -0.022004 -0.016454 -0.000235
v -0.018242 0.008462 0.019977
v -0.021533 -0.020216 0.020451
v -0.017772 0.008462 -0.000235
f 157 162 165 
f 154 155 156 
f 155 154 157 
f 154 156 157 
f 156 153 158 
f 153 157 158 
f 157 156 158 
f 153 156 159 
f 155 157 160 
f 153 159 161 
f 161 160 162 
f 157 153 162 
f 153 161 162 
f 155 160 163 
f 161 155 163 
f 160 161 163 
f 156 155 164 
f 159 156 164 
f 161 159 164 
f 155 161 164 
f 160 157 165 
f 162 160 165 
o convex_6
v -0.023413 0.019745 0.020451
v -0.017774 0.008462 -0.000235
v -0.013071 0.008462 -0.000235
v -0.013071 0.023036 -0.000235
v -0.013071 0.008462 0.020451
v -0.025292 0.018334 0.000237
v -0.013071 0.023036 0.019977
v -0.025292 0.016454 0.019977
v -0.018245 0.008462 0.019977
v -0.022943 0.020685 -0.000235
v -0.025292 0.016454 0.000237
v -0.022943 0.020685 0.019977
v -0.019183 0.009404 0.000237
v -0.025292 0.018334 0.019977
v -0.013071 0.022566 0.020451
v -0.013543 0.023036 0.019977
v -0.018715 0.009404 0.020451
v -0.024823 0.016454 -0.000235
v -0.013543 0.023036 -0.000235
v -0.019183 0.009404 0.019977
f 174 182 185 
f 168 167 169 
f 167 168 170 
f 168 169 170 
f 170 169 172 
f 167 170 174 
f 169 167 175 
f 173 171 176 
f 175 171 177 
f 167 174 178 
f 173 176 178 
f 173 166 179 
f 171 173 179 
f 166 177 179 
f 177 171 179 
f 166 170 180 
f 170 172 180 
f 177 166 180 
f 177 180 181 
f 172 169 181 
f 175 177 181 
f 180 172 181 
f 170 166 182 
f 166 173 182 
f 174 170 182 
f 175 167 183 
f 171 175 183 
f 176 171 183 
f 167 178 183 
f 178 176 183 
f 169 175 184 
f 181 169 184 
f 175 181 184 
f 178 174 185 
f 173 178 185 
f 182 173 185 
o convex_7
v 0.022188 -0.015515 -0.000235
v 0.017957 0.007052 0.020451
v 0.013256 0.007052 0.020451
v 0.013256 -0.029618 0.020451
v 0.013256 0.007052 -0.000235
v 0.024069 -0.029618 0.019977
v 0.013256 -0.029618 -0.000235
v 0.024069 -0.029618 -0.000235
v 0.018427 0.007052 0.000237
v 0.024069 -0.025386 0.019977
v 0.019366 0.002350 0.019977
v 0.024069 -0.025386 0.000237
v 0.023598 -0.029618 0.020451
v 0.019366 0.002350 0.000237
v 0.017957 0.007052 -0.000235
v 0.018427 0.007052 0.019977
f 187 196 201 
f 187 188 189 
f 188 187 190 
f 189 188 190 
f 191 189 192 
f 190 186 192 
f 189 190 192 
f 191 192 193 
f 192 186 193 
f 190 187 194 
f 191 193 195 
f 187 195 196 
f 193 186 197 
f 195 193 197 
f 196 195 197 
f 187 189 198 
f 189 191 198 
f 195 187 198 
f 191 195 198 
f 194 196 199 
f 197 186 199 
f 196 197 199 
f 186 190 200 
f 190 194 200 
f 199 186 200 
f 194 199 200 
f 194 187 201 
f 196 194 201 
o convex_8
v 0.024068 0.020214 0.020451
v 0.013256 0.007052 -0.000235
v 0.013256 0.023506 -0.000235
v 0.025009 0.016454 -0.000235
v 0.013256 0.007052 0.020451
v 0.013256 0.023977 0.019977
v 0.018428 0.007052 0.019977
v 0.022187 0.021626 0.000237
v 0.018428 0.007052 0.000237
v 0.025009 0.016454 0.019977
v 0.025009 0.019745 0.000237
v 0.022187 0.021626 0.019977
v 0.013726 0.023977 0.000237
v 0.013256 0.023506 0.020451
v 0.025009 0.019745 0.019977
v 0.017958 0.007052 0.020451
v 0.024068 0.020685 0.000237
v 0.021718 0.021626 -0.000235
v 0.013726 0.023977 0.019977
v 0.017958 0.007052 -0.000235
v 0.024068 0.020685 0.019977
f 216 218 222 
f 203 204 205 
f 204 203 206 
f 204 206 207 
f 206 203 208 
f 208 203 210 
f 205 208 210 
f 208 205 211 
f 211 205 212 
f 204 207 214 
f 213 209 214 
f 206 202 215 
f 207 206 215 
f 202 213 215 
f 202 211 216 
f 211 212 216 
f 202 206 217 
f 206 208 217 
f 211 202 217 
f 208 211 217 
f 209 213 218 
f 216 212 218 
f 205 204 219 
f 212 205 219 
f 204 214 219 
f 214 209 219 
f 209 218 219 
f 218 212 219 
f 214 207 220 
f 213 214 220 
f 207 215 220 
f 215 213 220 
f 203 205 221 
f 210 203 221 
f 205 210 221 
f 213 202 222 
f 202 216 222 
f 218 213 222 
