o convex_0
v -0.010221 -0.086845 0.020422
v -0.031715 -0.062342 0.000215
v -0.031284 -0.062774 -0.000215
v -0.017099 -0.058901 0.019561
v -0.010221 -0.079537 0.000215
v -0.022686 -0.085553 0.019991
v -0.018388 -0.090715 0.000215
v -0.031284 -0.058044 0.020422
v -0.017959 -0.058044 -0.000215
v -0.009359 -0.086413 -0.000215
v -0.013659 -0.090715 0.019991
v -0.031715 -0.058044 0.000215
v -0.024835 -0.081254 0.000215
v -0.030853 -0.065355 0.019991
v -0.010221 -0.079537 0.019991
v -0.018388 -0.058044 0.020422
v -0.018388 -0.090280 0.020422
v -0.013230 -0.090280 -0.000215
v -0.017099 -0.058901 0.000215
v -0.024835 -0.081254 0.019991
v -0.009359 -0.086413 0.019991
v -0.022255 -0.085553 -0.000215
v -0.031715 -0.062342 0.019991
v -0.030853 -0.065355 0.000215
v -0.022686 -0.085553 0.000215
v -0.018388 -0.090715 0.019991
v -0.024406 -0.081254 0.020422
v -0.019679 -0.089423 0.000215
v -0.013659 -0.090715 0.000215
v -0.031715 -0.058044 0.019991
v -0.009359 -0.085550 0.019991
v -0.031284 -0.058044 -0.000215
v -0.010650 -0.079537 0.020422
v -0.019679 -0.089423 0.019991
f 28 26 34 
f 3 9 10 
f 9 5 10 
f 3 2 12 
f 8 9 12 
f 5 4 15 
f 8 1 16 
f 4 9 16 
f 9 8 16 
f 1 8 17 
f 11 1 17 
f 3 10 18 
f 4 5 19 
f 9 4 19 
f 5 9 19 
f 13 6 20 
f 14 13 20 
f 1 11 21 
f 11 10 21 
f 13 3 22 
f 3 18 22 
f 18 7 22 
f 12 2 23 
f 2 14 23 
f 14 8 23 
f 2 3 24 
f 3 13 24 
f 14 2 24 
f 13 14 24 
f 6 13 25 
f 13 22 25 
f 7 11 26 
f 11 17 26 
f 8 14 27 
f 6 17 27 
f 17 8 27 
f 20 6 27 
f 14 20 27 
f 22 7 28 
f 6 25 28 
f 25 22 28 
f 7 26 28 
f 11 7 29 
f 10 11 29 
f 18 10 29 
f 7 18 29 
f 8 12 30 
f 12 23 30 
f 23 8 30 
f 10 5 31 
f 5 15 31 
f 1 21 31 
f 21 10 31 
f 9 3 32 
f 3 12 32 
f 12 9 32 
f 15 4 33 
f 16 1 33 
f 4 16 33 
f 1 31 33 
f 31 15 33 
f 17 6 34 
f 26 17 34 
f 6 28 34 
o convex_1
v -0.031284 -0.038694 0.020422
v -0.031284 -0.058040 -0.000213
v -0.018818 -0.051160 -0.000215
v -0.018818 -0.058040 0.020422
v -0.018387 -0.038695 -0.000215
v -0.031715 -0.038694 0.000215
v -0.031715 -0.058040 0.019991
v -0.018387 -0.038695 0.019991
v -0.018387 -0.058040 -0.000213
v -0.018387 -0.058040 0.019991
v -0.031715 -0.058040 0.000215
v -0.031715 -0.038694 0.019991
v -0.031284 -0.038694 -0.000213
v -0.018818 -0.038694 0.020422
v -0.031284 -0.058040 0.020422
f 35 41 49 
f 36 38 41 
f 39 42 43 
f 36 37 43 
f 38 36 43 
f 37 39 43 
f 38 43 44 
f 42 38 44 
f 43 42 44 
f 40 36 45 
f 36 41 45 
f 41 40 45 
f 35 40 46 
f 41 35 46 
f 40 41 46 
f 37 36 47 
f 39 37 47 
f 36 40 47 
f 40 35 47 
f 35 38 48 
f 38 42 48 
f 42 39 48 
f 47 35 48 
f 39 47 48 
f 38 35 49 
f 41 38 49 
o convex_2
v -0.019249 -0.003446 0.020422
v -0.031715 -0.038689 0.000215
v -0.031715 -0.038689 0.019991
v -0.018388 -0.038689 -0.000215
v -0.009359 0.010313 -0.000215
v -0.008929 -0.009462 0.020422
v -0.018819 -0.038689 0.020422
v -0.025695 -0.014616 0.000215
v -0.008929 0.010743 0.019991
v -0.008929 -0.009888 -0.000215
v -0.030854 -0.027514 0.019561
v -0.031284 -0.030519 -0.000215
v -0.022686 -0.007744 0.019991
v -0.022686 -0.007744 0.000215
v -0.009790 0.010313 0.019991
v -0.031284 -0.030519 0.020422
v -0.018388 -0.038689 0.019991
v -0.031715 -0.030519 0.000215
v -0.009359 -0.011611 0.019991
v -0.008929 0.010743 0.000215
v -0.009790 0.010313 0.000215
v -0.031715 -0.030519 0.019991
v -0.008929 0.010313 0.020422
v -0.030854 -0.027514 0.000215
v -0.009359 -0.011611 0.000215
v -0.023545 -0.009462 0.019991
v -0.022256 -0.007313 -0.000215
v -0.031284 -0.038689 -0.000215
v -0.031284 -0.038689 0.020422
v -0.019677 -0.003446 0.019991
v -0.025695 -0.014616 0.019991
v -0.019677 -0.003446 0.000215
v -0.023117 -0.009462 0.020422
f 75 80 82 
f 52 51 53 
f 52 53 56 
f 55 50 56 
f 58 55 59 
f 53 54 59 
f 54 53 61 
f 56 50 65 
f 56 53 66 
f 55 56 66 
f 51 52 67 
f 61 51 67 
f 59 55 68 
f 66 53 68 
f 55 66 68 
f 58 59 69 
f 59 54 69 
f 64 58 69 
f 64 69 70 
f 69 54 70 
f 52 65 71 
f 67 52 71 
f 60 67 71 
f 50 55 72 
f 55 58 72 
f 64 50 72 
f 58 64 72 
f 60 57 73 
f 67 60 73 
f 61 67 73 
f 53 59 74 
f 59 68 74 
f 68 53 74 
f 63 57 75 
f 62 63 75 
f 54 61 76 
f 57 63 76 
f 70 54 76 
f 73 57 76 
f 61 73 76 
f 53 51 77 
f 51 61 77 
f 61 53 77 
f 52 56 78 
f 56 65 78 
f 65 52 78 
f 62 50 79 
f 63 62 79 
f 50 64 79 
f 64 70 79 
f 57 60 80 
f 60 71 80 
f 71 65 80 
f 75 57 80 
f 76 63 81 
f 70 76 81 
f 63 79 81 
f 79 70 81 
f 50 62 82 
f 65 50 82 
f 62 75 82 
f 80 65 82 
o convex_3
v -0.008929 0.045142 0.020422
v -0.009359 0.039124 0.000215
v -0.008929 0.039124 0.000215
v -0.009359 0.045572 -0.000215
v -0.009789 0.039554 0.019991
v -0.008929 0.039124 0.019991
v -0.009789 0.045142 0.019991
v -0.009789 0.039554 0.000215
v -0.008929 0.045572 -0.000215
v -0.009789 0.045142 0.000215
f 86 90 92 
f 85 84 86 
f 87 84 88 
f 85 83 88 
f 84 85 88 
f 83 87 88 
f 83 86 89 
f 87 83 89 
f 87 89 90 
f 86 84 90 
f 84 87 90 
f 83 85 91 
f 85 86 91 
f 86 83 91 
f 89 86 92 
f 90 89 92 
o convex_4
v -0.008929 0.045992 -0.000215
v 0.001389 0.090284 0.020422
v 0.001819 0.090284 0.019991
v 0.001819 0.002593 0.020422
v -0.008929 -0.009017 0.020422
v 0.001819 0.002593 -0.000215
v 0.001389 0.090284 -0.000215
v -0.008929 0.055023 0.019561
v -0.008929 -0.009458 -0.000215
v -0.002910 0.088126 0.000215
v -0.002910 0.088126 0.019561
v -0.008929 0.055023 0.000215
v 0.001819 0.090284 0.000217
v -0.008068 0.055454 0.020422
v -0.007209 -0.008164 0.019991
v -0.005919 0.073085 0.019561
v -0.001620 0.090715 0.000215
v -0.001191 0.090284 0.020422
v -0.005919 0.073085 0.000215
v 0.001819 0.002161 0.000215
v -0.007209 -0.008164 0.000215
v -0.002480 0.088558 -0.000215
v 0.001819 0.002161 0.019991
v -0.001620 0.090715 0.019561
v 0.001389 0.090715 0.019991
v -0.008929 0.045560 0.020422
v -0.008498 -0.009458 0.019991
v -0.003340 0.083400 0.020422
v 0.001389 0.090715 0.000215
v -0.007639 0.061043 -0.000215
v 0.001819 0.086842 -0.000215
f 99 105 123 
f 95 94 96 
f 96 94 97 
f 95 96 98 
f 98 93 99 
f 93 97 100 
f 97 93 101 
f 93 98 101 
f 93 100 104 
f 95 98 105 
f 97 94 106 
f 96 97 107 
f 103 102 108 
f 104 100 108 
f 100 106 108 
f 102 103 109 
f 106 94 110 
f 108 102 111 
f 104 108 111 
f 98 96 112 
f 112 107 113 
f 101 98 113 
f 98 112 113 
f 99 93 114 
f 109 99 114 
f 102 109 114 
f 111 102 114 
f 96 107 115 
f 112 96 115 
f 107 112 115 
f 109 103 116 
f 103 110 116 
f 116 110 117 
f 94 95 117 
f 95 105 117 
f 110 94 117 
f 109 116 117 
f 100 97 118 
f 97 106 118 
f 106 100 118 
f 97 101 119 
f 107 97 119 
f 113 107 119 
f 101 113 119 
f 103 108 120 
f 108 106 120 
f 106 110 120 
f 110 103 120 
f 105 99 121 
f 99 109 121 
f 117 105 121 
f 109 117 121 
f 93 104 122 
f 104 111 122 
f 114 93 122 
f 111 114 122 
f 98 99 123 
f 105 98 123 
o convex_5
v 0.009128 -0.010748 -0.000215
v 0.002250 0.086406 0.020422
v 0.001819 0.086406 0.020422
v 0.001819 0.086406 -0.000215
v 0.001819 0.002158 0.019991
v 0.009128 0.041698 0.020422
v 0.001819 0.002158 -0.000215
v 0.007838 0.061473 0.000215
v 0.009128 -0.010309 0.020422
v 0.009128 0.041698 -0.000215
v 0.007838 0.061473 0.019561
v 0.002680 0.086406 0.000215
v 0.008268 -0.010309 0.019991
v 0.001819 0.002588 0.020422
v 0.008698 0.052445 0.019991
v 0.004829 0.076519 0.019561
v 0.006118 -0.006440 0.000215
v 0.008698 0.052445 0.000215
v 0.002680 0.086406 0.019991
v 0.004829 0.076519 0.000215
v 0.008268 -0.010309 0.000215
v 0.007408 0.061043 0.020422
v 0.006118 -0.006440 0.019561
v 0.007408 0.061473 -0.000215
f 135 143 147 
f 126 125 127 
f 126 127 128 
f 125 126 129 
f 127 124 130 
f 128 127 130 
f 129 126 132 
f 124 129 132 
f 124 127 133 
f 129 124 133 
f 127 125 135 
f 124 132 136 
f 136 132 137 
f 126 128 137 
f 132 126 137 
f 128 136 137 
f 129 133 138 
f 131 134 138 
f 134 131 139 
f 128 130 140 
f 138 133 141 
f 131 138 141 
f 135 125 142 
f 134 139 142 
f 139 135 142 
f 139 131 143 
f 135 139 143 
f 130 124 144 
f 124 136 144 
f 140 130 144 
f 136 140 144 
f 125 129 145 
f 129 138 145 
f 138 134 145 
f 142 125 145 
f 134 142 145 
f 136 128 146 
f 128 140 146 
f 140 136 146 
f 133 127 147 
f 127 135 147 
f 131 141 147 
f 141 133 147 
f 143 131 147 
o convex_6
v 0.026753 -0.075234 0.019991
v 0.009128 -0.086411 0.000215
v 0.009128 -0.086411 0.019561
v 0.017298 -0.044283 0.000215
v 0.031914 -0.062340 0.000215
v 0.031054 -0.044283 0.020422
v 0.017298 -0.044283 0.019991
v 0.018588 -0.090283 -0.000215
v 0.031484 -0.044283 -0.000215
v 0.018159 -0.090283 0.020422
v 0.031914 -0.062340 0.019561
v 0.022886 -0.084266 0.000215
v 0.013429 -0.090279 0.020422
v 0.009128 -0.083834 0.019561
v 0.013429 -0.090279 -0.000215
v 0.031914 -0.044283 0.019561
v 0.021594 -0.086415 0.019991
v 0.010420 -0.078671 -0.000215
v 0.017729 -0.044283 0.020422
v 0.009128 -0.083834 0.000215
v 0.017729 -0.044283 -0.000215
v 0.031054 -0.062767 0.020422
v 0.009989 -0.083402 0.020422
v 0.013429 -0.090715 0.000215
v 0.018588 -0.090715 0.019561
v 0.031914 -0.044283 0.000215
v 0.024603 -0.080393 -0.000215
v 0.023744 -0.082538 0.019991
v 0.018588 -0.090715 0.000215
v 0.013429 -0.090715 0.019991
v 0.031484 -0.062340 -0.000215
v 0.025895 -0.077384 0.000215
v 0.021594 -0.086415 -0.000215
v 0.023314 -0.082538 0.020422
f 175 148 181 
f 153 151 154 
f 151 153 156 
f 157 153 160 
f 149 150 161 
f 154 151 161 
f 156 155 162 
f 156 153 163 
f 158 152 163 
f 153 158 163 
f 162 149 165 
f 156 162 165 
f 153 154 166 
f 160 153 166 
f 149 161 167 
f 161 151 167 
f 151 165 167 
f 165 149 167 
f 151 156 168 
f 165 151 168 
f 156 165 168 
f 153 157 169 
f 148 158 169 
f 158 153 169 
f 150 160 170 
f 161 150 170 
f 154 161 170 
f 166 154 170 
f 160 166 170 
f 150 149 171 
f 149 162 171 
f 162 155 171 
f 164 157 172 
f 152 156 173 
f 163 152 173 
f 156 163 173 
f 155 156 174 
f 159 174 175 
f 164 159 175 
f 171 155 176 
f 164 172 176 
f 172 171 176 
f 160 150 177 
f 157 160 177 
f 150 171 177 
f 172 157 177 
f 171 172 177 
f 156 152 178 
f 152 174 178 
f 174 156 178 
f 158 148 179 
f 152 158 179 
f 174 152 179 
f 175 174 179 
f 148 175 179 
f 159 164 180 
f 155 174 180 
f 174 159 180 
f 176 155 180 
f 164 176 180 
f 157 164 181 
f 169 157 181 
f 148 169 181 
f 164 175 181 
o convex_7
v 0.026325 -0.017628 0.020422
v 0.009128 -0.011178 -0.000215
v 0.009128 -0.011178 0.019991
v 0.017298 -0.044283 0.000215
v 0.021594 -0.006881 -0.000215
v 0.031914 -0.044283 0.019561
v 0.009559 0.009458 0.019991
v 0.031914 -0.031810 0.000215
v 0.017729 -0.044283 0.020422
v 0.009128 0.009458 -0.000215
v 0.031484 -0.044283 -0.000215
v 0.031914 -0.031810 0.019561
v 0.022886 -0.008601 0.019561
v 0.009128 0.009022 0.020422
v 0.026755 -0.017628 0.000215
v 0.010850 0.008164 0.000215
v 0.031054 -0.044283 0.020422
v 0.017298 -0.044283 0.019991
v 0.021594 -0.006455 0.019991
v 0.017729 -0.044283 -0.000215
v 0.026755 -0.017628 0.019991
v 0.021594 -0.006455 0.000215
v 0.031914 -0.044283 0.000215
v 0.010850 0.008164 0.019991
v 0.009128 -0.010747 0.020422
v 0.022886 -0.008601 0.000215
v 0.030623 -0.028801 -0.000215
v 0.031054 -0.031379 0.020422
v 0.021166 -0.006455 0.020422
v 0.024605 -0.012473 0.019991
f 200 210 211 
f 184 183 185 
f 185 187 190 
f 183 184 191 
f 186 183 191 
f 183 186 192 
f 187 185 192 
f 187 189 193 
f 190 182 195 
f 191 184 195 
f 188 191 195 
f 193 189 196 
f 186 191 197 
f 191 188 197 
f 182 190 198 
f 190 187 198 
f 187 193 198 
f 184 185 199 
f 185 190 199 
f 185 183 201 
f 183 192 201 
f 192 185 201 
f 193 196 202 
f 186 197 203 
f 200 194 203 
f 197 200 203 
f 189 187 204 
f 187 192 204 
f 192 189 204 
f 188 195 205 
f 197 188 205 
f 200 197 205 
f 195 184 206 
f 190 195 206 
f 184 199 206 
f 199 190 206 
f 196 186 207 
f 186 203 207 
f 203 194 207 
f 192 186 208 
f 189 192 208 
f 186 196 208 
f 196 189 208 
f 182 198 209 
f 198 193 209 
f 202 182 209 
f 193 202 209 
f 195 182 210 
f 205 195 210 
f 200 205 210 
f 194 200 211 
f 182 202 211 
f 202 196 211 
f 196 207 211 
f 207 194 211 
f 210 182 211 
o convex_8
v 0.009558 0.041703 0.019992
v 0.009128 0.039553 -0.000215
v 0.009128 0.041273 -0.000215
v 0.009128 0.039553 0.019992
v 0.009558 0.039553 -0.000215
v 0.009558 0.039553 0.019992
v 0.009128 0.041703 0.019992
v 0.009558 0.041703 0.000216
f 214 218 219 
f 214 213 215 
f 213 214 216 
f 215 213 216 
f 212 215 217 
f 216 212 217 
f 215 216 217 
f 214 215 218 
f 215 212 218 
f 212 216 219 
f 216 214 219 
f 218 212 219 
