o convex_0
v -0.010752 0.000420 0.000211
v -0.000673 0.090277 0.020368
v -0.000673 0.090710 0.019947
v -0.000253 0.001684 -0.000210
v -0.002773 0.000420 0.020368
v -0.001514 0.090277 -0.000210
v -0.010752 0.043258 0.019947
v -0.010752 0.043258 0.000211
v -0.010331 0.000420 0.020368
v -0.000253 0.001684 0.020368
v -0.000254 0.090277 -0.000210
v -0.003613 0.084408 0.019947
v -0.003613 0.084408 -0.000210
v -0.000254 0.089862 0.020368
v -0.010331 0.000420 -0.000210
v -0.010752 0.000420 0.019947
v -0.007812 0.061306 0.019947
v -0.002353 0.000420 0.000211
v -0.010331 0.043258 0.020368
v -0.009911 0.049127 0.000211
v -0.002773 0.088182 0.019947
v -0.010331 0.043682 -0.000210
v -0.002773 0.088182 0.000211
v -0.001514 0.090710 0.019947
v -0.007812 0.061306 0.000211
v -0.009911 0.049127 0.019528
v -0.000253 0.001268 0.019947
v -0.003193 0.084408 0.020368
v -0.001514 0.090710 0.000211
v -0.000253 0.001268 0.000211
f 27 18 30 
f 1 7 8 
f 1 5 9 
f 5 2 9 
f 2 5 10 
f 4 6 11 
f 10 4 11 
f 6 4 13 
f 3 2 14 
f 2 10 14 
f 11 3 14 
f 10 11 14 
f 5 1 15 
f 1 8 15 
f 13 4 15 
f 7 1 16 
f 1 9 16 
f 9 7 16 
f 12 13 17 
f 5 15 18 
f 15 4 18 
f 9 2 19 
f 7 9 19 
f 17 7 19 
f 8 7 20 
f 13 12 21 
f 15 8 22 
f 13 15 22 
f 8 20 22 
f 20 13 22 
f 6 13 23 
f 13 21 23 
f 23 21 24 
f 2 3 24 
f 21 2 24 
f 17 13 25 
f 13 20 25 
f 20 17 25 
f 7 17 26 
f 20 7 26 
f 17 20 26 
f 4 10 27 
f 10 5 27 
f 5 18 27 
f 12 17 28 
f 19 2 28 
f 17 19 28 
f 2 21 28 
f 21 12 28 
f 3 11 29 
f 11 6 29 
f 6 23 29 
f 23 24 29 
f 24 3 29 
f 18 4 30 
f 4 27 30 
o convex_1
v 0.010246 -0.028137 0.000211
v 0.001427 0.089443 0.020368
v -0.000253 0.089443 0.020368
v -0.000253 0.089870 -0.000210
v -0.000252 0.001272 0.019947
v 0.009826 0.048286 0.019947
v -0.000252 0.001688 -0.000210
v 0.010246 -0.027709 0.020368
v 0.009826 0.048286 0.000211
v 0.002687 0.088599 0.000211
v 0.009405 -0.027294 -0.000210
v 0.002687 0.088599 0.019947
v 0.010246 0.000429 -0.000210
v 0.009405 -0.027698 0.019947
v -0.000252 0.001688 0.020368
v 0.010246 0.000429 0.020368
v 0.009405 0.048286 -0.000210
v 0.009405 -0.027698 0.000211
v 0.009405 0.048286 0.020368
v 0.007726 0.060461 0.000211
v -0.000252 0.001272 0.000211
v 0.001427 0.089870 0.000211
v 0.007726 0.060461 0.019947
v 0.002267 0.088599 -0.000210
v 0.001427 0.089870 0.019947
v -0.000253 0.089870 0.019947
f 55 34 56 
f 32 33 38 
f 37 34 41 
f 38 31 43 
f 39 36 43 
f 41 34 43 
f 31 41 43 
f 31 38 44 
f 33 35 45 
f 38 33 45 
f 44 38 45 
f 35 44 45 
f 32 38 46 
f 38 43 46 
f 43 36 46 
f 39 43 47 
f 43 34 47 
f 41 31 48 
f 31 44 48 
f 44 35 48 
f 42 32 49 
f 32 46 49 
f 46 36 49 
f 36 39 50 
f 40 42 50 
f 39 47 50 
f 33 34 51 
f 35 33 51 
f 34 37 51 
f 37 41 51 
f 48 35 51 
f 41 48 51 
f 42 40 52 
f 42 49 53 
f 49 36 53 
f 36 50 53 
f 50 42 53 
f 47 34 54 
f 40 50 54 
f 50 47 54 
f 34 52 54 
f 52 40 54 
f 33 32 55 
f 32 42 55 
f 52 34 55 
f 42 52 55 
f 34 33 56 
f 33 55 56 
o convex_2
v -0.017892 -0.089023 0.000211
v -0.018312 -0.052074 0.020368
v -0.026288 -0.052074 0.020368
v -0.014532 -0.090283 0.020368
v -0.014112 -0.052078 0.000211
v -0.026710 -0.052074 0.000211
v -0.024608 -0.074327 0.019947
v -0.010332 -0.080627 0.019947
v -0.010332 -0.084409 0.000211
v -0.024608 -0.074327 -0.000210
v -0.014112 -0.052078 0.019947
v -0.020831 -0.084406 0.019947
v -0.026710 -0.061317 0.019947
v -0.014532 -0.090283 -0.000210
v -0.011173 -0.087344 0.019947
v -0.025870 -0.068457 0.000211
v -0.014532 -0.052078 -0.000210
v -0.010332 -0.080627 0.000211
v -0.022510 -0.080627 0.000211
v -0.017052 -0.089863 0.019947
v -0.026710 -0.061317 0.000211
v -0.011592 -0.087344 -0.000210
v -0.010752 -0.080627 0.020368
v -0.026288 -0.052074 -0.000210
v -0.014532 -0.090706 0.000211
v -0.023350 -0.077269 0.020368
v -0.025870 -0.068457 0.019528
v -0.026710 -0.052074 0.019947
v -0.023770 -0.077269 0.019947
v -0.020831 -0.084406 0.000211
v -0.010332 -0.084409 0.019947
v -0.011173 -0.087344 0.000211
v -0.014532 -0.090706 0.019947
v -0.014532 -0.052078 0.020368
v -0.015372 -0.090706 0.000211
v -0.017892 -0.089023 0.019947
v -0.017472 -0.089443 -0.000210
v -0.010752 -0.080208 -0.000210
v -0.022510 -0.080627 0.019947
v -0.023770 -0.077269 0.000211
v -0.017472 -0.089023 0.020368
v -0.025448 -0.068038 0.020368
v -0.015372 -0.090706 0.019947
v -0.019569 -0.086508 0.019947
f 92 97 100 
f 58 59 60 
f 59 58 62 
f 61 58 67 
f 64 61 67 
f 66 63 72 
f 70 66 73 
f 61 64 74 
f 64 65 74 
f 69 62 77 
f 66 72 77 
f 72 69 77 
f 70 73 78 
f 58 60 79 
f 64 67 79 
f 60 71 79 
f 58 61 80 
f 62 58 80 
f 61 73 80 
f 73 66 80 
f 77 62 80 
f 66 77 80 
f 70 78 81 
f 60 59 82 
f 72 63 83 
f 69 72 83 
f 59 62 84 
f 69 59 84 
f 62 69 84 
f 63 66 85 
f 82 63 85 
f 75 66 86 
f 68 75 86 
f 65 64 87 
f 71 65 87 
f 64 79 87 
f 79 71 87 
f 65 71 88 
f 78 65 88 
f 71 81 88 
f 81 78 88 
f 71 60 89 
f 81 71 89 
f 67 58 90 
f 58 79 90 
f 79 67 90 
f 70 81 91 
f 81 89 91 
f 57 76 92 
f 66 70 93 
f 76 57 93 
f 57 86 93 
f 86 66 93 
f 70 91 93 
f 91 76 93 
f 73 61 94 
f 61 74 94 
f 74 65 94 
f 65 78 94 
f 78 73 94 
f 75 68 95 
f 68 82 95 
f 85 75 95 
f 82 85 95 
f 66 75 96 
f 85 66 96 
f 75 85 96 
f 60 82 97 
f 82 68 97 
f 92 76 97 
f 59 69 98 
f 82 59 98 
f 63 82 98 
f 83 63 98 
f 69 83 98 
f 89 60 99 
f 76 91 99 
f 91 89 99 
f 60 97 99 
f 97 76 99 
f 86 57 100 
f 68 86 100 
f 57 92 100 
f 97 68 100 
o convex_3
v -0.013273 -0.002946 0.020368
v -0.026709 -0.052069 0.000211
v -0.026290 -0.052069 -0.000210
v -0.014112 -0.052074 0.019947
v -0.002354 0.000420 0.000211
v -0.014112 -0.052074 0.000211
v -0.026709 -0.042409 0.019947
v -0.017888 -0.011763 0.000211
v -0.002354 -0.003367 0.019947
v -0.026290 -0.052069 0.020368
v -0.010333 0.000420 -0.000210
v -0.025868 -0.036530 0.000211
v -0.022508 -0.024363 0.019947
v -0.002776 0.000420 0.020368
v -0.003195 -0.007144 0.000211
v -0.010753 0.000420 0.019947
v -0.013692 -0.002524 0.019947
v -0.013692 -0.049551 -0.000210
v -0.013273 -0.049551 0.019947
v -0.013692 -0.002524 0.000211
v -0.022508 -0.024779 -0.000210
v -0.014531 -0.052074 0.020368
v -0.015790 -0.006722 0.019947
v -0.013273 -0.049551 0.000211
v -0.002776 -0.003783 -0.000210
v -0.025868 -0.036530 0.019528
v -0.026709 -0.042409 0.000211
v -0.024189 -0.031495 0.020368
v -0.026709 -0.052069 0.019947
v -0.024609 -0.031495 0.000211
v -0.017888 -0.011763 0.019947
v -0.002354 -0.003367 0.000211
v -0.022508 -0.024363 0.000211
v -0.003195 -0.007144 0.019947
v -0.015790 -0.006722 0.000211
v -0.024609 -0.031495 0.019947
v -0.002354 0.000420 0.019947
v -0.003615 -0.007144 0.020368
v -0.010753 0.000420 0.000211
v -0.014531 -0.004621 -0.000210
v -0.026290 -0.042409 -0.000210
v -0.017469 -0.011763 0.020368
v -0.002776 0.000420 -0.000210
f 125 111 143 
f 102 103 106 
f 101 110 114 
f 105 111 114 
f 101 114 116 
f 114 111 116 
f 101 116 117 
f 106 103 118 
f 103 111 118 
f 104 106 119 
f 117 116 120 
f 111 103 121 
f 102 106 122 
f 106 104 122 
f 114 110 122 
f 104 119 122 
f 101 117 123 
f 117 120 123 
f 106 118 124 
f 119 106 124 
f 115 119 124 
f 118 111 125 
f 124 118 125 
f 115 124 125 
f 112 107 126 
f 103 102 127 
f 102 107 127 
f 107 112 127 
f 110 101 128 
f 107 110 128 
f 107 102 129 
f 110 107 129 
f 102 122 129 
f 122 110 129 
f 121 112 130 
f 112 126 130 
f 108 113 131 
f 123 108 131 
f 105 109 132 
f 109 115 132 
f 125 105 132 
f 115 125 132 
f 113 108 133 
f 108 121 133 
f 121 130 133 
f 130 113 133 
f 115 109 134 
f 119 115 134 
f 108 123 135 
f 123 120 135 
f 126 107 136 
f 107 128 136 
f 128 113 136 
f 113 130 136 
f 130 126 136 
f 109 105 137 
f 114 109 137 
f 105 114 137 
f 109 114 138 
f 114 122 138 
f 122 119 138 
f 134 109 138 
f 119 134 138 
f 116 111 139 
f 111 120 139 
f 120 116 139 
f 120 111 140 
f 111 121 140 
f 121 108 140 
f 135 120 140 
f 108 135 140 
f 121 103 141 
f 112 121 141 
f 103 127 141 
f 127 112 141 
f 101 123 142 
f 128 101 142 
f 113 128 142 
f 131 113 142 
f 123 131 142 
f 111 105 143 
f 105 125 143 
o convex_4
v 0.015706 -0.090284 -0.000210
v 0.026203 -0.055860 0.020368
v 0.014866 -0.055860 0.020368
v 0.015286 -0.090284 0.020368
v 0.014446 -0.055860 -0.000210
v 0.025783 -0.068456 0.000211
v 0.010246 -0.084405 0.019947
v 0.022843 -0.080209 0.019947
v 0.010246 -0.084405 0.000211
v 0.026623 -0.055860 -0.000210
v 0.019905 -0.086087 0.000211
v 0.026623 -0.061315 0.019947
v 0.011088 -0.074747 0.019528
v 0.017806 -0.089444 0.019947
v 0.011088 -0.087346 0.000211
v 0.010246 -0.080625 0.000211
v 0.022843 -0.080209 0.000211
v 0.013186 -0.061739 0.019947
v 0.014446 -0.090710 0.019947
v 0.025783 -0.068456 0.019947
v 0.013186 -0.061739 0.000211
v 0.011088 -0.087346 0.019528
v 0.026623 -0.061315 -0.000210
v 0.017386 -0.089864 0.000211
v 0.014446 -0.090710 0.000211
v 0.010668 -0.084405 -0.000210
v 0.010668 -0.080625 0.020368
v 0.022423 -0.080209 0.020368
v 0.010246 -0.080625 0.019947
v 0.014446 -0.055860 0.019947
v 0.019905 -0.086087 0.019528
v 0.026623 -0.055860 0.019947
v 0.022423 -0.080209 -0.000210
v 0.015286 -0.090710 0.019947
v 0.011088 -0.074747 0.000211
v 0.011926 -0.087766 0.020368
v 0.015286 -0.090710 0.000211
v 0.025363 -0.068456 0.020368
f 171 163 181 
f 145 146 147 
f 146 145 148 
f 144 148 153 
f 148 145 153 
f 150 152 158 
f 152 150 159 
f 149 151 160 
f 151 154 160 
f 151 149 163 
f 149 155 163 
f 161 148 164 
f 156 161 164 
f 150 158 165 
f 158 162 165 
f 144 153 166 
f 155 149 166 
f 153 155 166 
f 144 154 167 
f 154 157 167 
f 158 144 168 
f 162 158 168 
f 148 144 169 
f 144 158 169 
f 158 152 169 
f 159 148 169 
f 152 159 169 
f 147 146 170 
f 146 161 170 
f 145 147 171 
f 147 157 171 
f 157 151 171 
f 151 163 171 
f 159 150 172 
f 156 159 172 
f 161 156 172 
f 150 170 172 
f 170 161 172 
f 146 148 173 
f 161 146 173 
f 148 161 173 
f 154 151 174 
f 151 157 174 
f 157 154 174 
f 153 145 175 
f 145 155 175 
f 155 153 175 
f 154 144 176 
f 149 160 176 
f 160 154 176 
f 144 166 176 
f 166 149 176 
f 157 147 177 
f 147 162 177 
f 167 157 177 
f 162 168 177 
f 148 159 178 
f 159 156 178 
f 164 148 178 
f 156 164 178 
f 162 147 179 
f 150 165 179 
f 165 162 179 
f 147 170 179 
f 170 150 179 
f 144 167 180 
f 168 144 180 
f 167 177 180 
f 177 168 180 
f 155 145 181 
f 163 155 181 
f 145 171 181 
o convex_5
v 0.025362 -0.036536 -0.000210
v 0.010668 -0.000004 0.020368
v 0.010668 0.000414 0.019947
v 0.014446 -0.055848 -0.000210
v 0.026204 -0.055848 0.020368
v 0.010246 -0.000004 -0.000210
v 0.013186 -0.049134 0.019947
v 0.022844 -0.024781 0.019947
v 0.026624 -0.055848 -0.000210
v 0.010246 -0.031490 0.000211
v 0.014866 -0.004626 0.000211
v 0.010246 -0.028130 0.020368
v 0.014866 -0.055848 0.020368
v 0.026624 -0.042408 0.019947
v 0.014866 -0.004626 0.019947
v 0.022844 -0.024781 0.000211
v 0.025784 -0.036536 0.000211
v 0.010246 -0.000004 0.020368
v 0.026624 -0.042832 -0.000210
v 0.010246 -0.031490 0.019947
v 0.022424 -0.024781 0.020368
v 0.025784 -0.036536 0.019947
v 0.013606 -0.002522 0.000211
v 0.026624 -0.055848 0.019947
v 0.014446 -0.055848 0.019947
v 0.015286 -0.006306 -0.000210
v 0.013606 -0.002522 0.019947
v 0.010246 -0.028130 -0.000210
v 0.013186 -0.049134 0.000211
v 0.010668 0.000414 0.000211
v 0.026204 -0.042408 0.020368
v 0.014446 -0.004626 0.020368
f 196 208 213 
f 182 185 187 
f 185 182 190 
f 186 185 190 
f 186 183 193 
f 187 191 193 
f 185 186 194 
f 186 193 194 
f 193 188 194 
f 189 192 196 
f 192 189 197 
f 182 197 198 
f 197 189 198 
f 183 184 199 
f 184 187 199 
f 193 183 199 
f 187 193 199 
f 190 182 200 
f 195 190 200 
f 182 198 200 
f 198 195 200 
f 191 188 201 
f 188 193 201 
f 193 191 201 
f 183 186 202 
f 189 196 202 
f 198 189 203 
f 195 198 203 
f 189 202 203 
f 196 192 204 
f 186 190 205 
f 195 186 205 
f 190 195 205 
f 188 185 206 
f 185 194 206 
f 194 188 206 
f 182 187 207 
f 197 182 207 
f 192 197 207 
f 187 204 207 
f 204 192 207 
f 184 183 208 
f 204 184 208 
f 196 204 208 
f 187 185 209 
f 191 187 209 
f 185 191 209 
f 185 188 210 
f 191 185 210 
f 188 191 210 
f 187 184 211 
f 184 204 211 
f 204 187 211 
f 186 195 212 
f 202 186 212 
f 195 203 212 
f 203 202 212 
f 183 202 213 
f 202 196 213 
f 208 183 213 
