o convex_0
v -0.011906 0.059942 0.000237
v 0.000223 0.090254 0.020291
v 0.000223 0.090733 0.019822
v 0.000223 0.012373 -0.000229
v -0.011906 -0.017960 0.020291
v -0.011906 -0.017960 -0.000229
v 0.000223 0.012373 0.020291
v 0.000223 0.090254 -0.000229
v -0.011906 0.059464 0.020291
v -0.004443 0.087456 0.019822
v -0.003042 0.090254 -0.000229
v -0.009573 -0.014215 0.019822
v -0.010040 0.067401 -0.000229
v -0.010973 -0.017481 -0.000229
v -0.010040 0.067858 0.019822
v -0.004443 0.087456 0.000237
v -0.003042 0.090733 0.019822
v -0.009573 -0.014215 0.000237
v -0.003042 0.090733 0.000237
v -0.011906 0.059464 -0.000229
v -0.010040 0.067858 0.000237
v -0.010973 -0.017481 0.020291
v -0.003042 0.090254 0.020291
v -0.011439 0.062273 0.019822
v 0.000223 0.090733 0.000237
f 8 19 25 
f 3 2 4 
f 5 1 6 
f 4 2 7 
f 2 5 7 
f 3 4 8 
f 4 6 8 
f 1 5 9 
f 5 2 9 
f 8 6 11 
f 4 7 12 
f 11 6 13 
f 6 4 14 
f 5 6 14 
f 9 10 15 
f 11 13 16 
f 15 10 16 
f 2 3 17 
f 16 10 17 
f 4 12 18 
f 14 4 18 
f 12 14 18 
f 8 11 19 
f 11 16 19 
f 16 17 19 
f 17 3 19 
f 6 1 20 
f 1 13 20 
f 13 6 20 
f 13 1 21 
f 16 13 21 
f 15 16 21 
f 7 5 22 
f 12 7 22 
f 5 14 22 
f 14 12 22 
f 9 2 23 
f 10 9 23 
f 2 17 23 
f 17 10 23 
f 1 9 24 
f 9 15 24 
f 21 1 24 
f 15 21 24 
f 3 8 25 
f 19 3 25 
o convex_1
v 0.012817 -0.021226 0.000237
v 0.003023 0.090262 0.020291
v 0.003023 0.090733 0.019822
v 0.000224 0.012364 -0.000229
v 0.000224 0.012364 0.020291
v 0.000224 0.090262 -0.000229
v 0.012351 0.061341 0.019822
v 0.012351 0.061341 0.000237
v 0.012817 -0.020754 0.020291
v 0.000224 0.090262 0.020291
v 0.004422 0.089330 0.000237
v 0.012817 0.031488 -0.000229
v 0.011885 -0.020754 0.019822
v 0.012817 0.031488 0.020291
v 0.011885 -0.020283 -0.000229
v 0.004422 0.089330 0.019822
v 0.011885 0.061341 -0.000229
v 0.011885 0.061341 0.020291
v 0.011885 -0.020754 0.000237
v 0.003023 0.090262 -0.000229
v 0.000224 0.090733 0.000237
v 0.003023 0.090733 0.000237
v 0.000224 0.090733 0.019822
v 0.012817 -0.020754 -0.000229
f 40 37 49 
f 29 30 31 
f 27 30 34 
f 27 28 35 
f 30 27 35 
f 31 30 35 
f 32 33 36 
f 29 31 37 
f 33 32 37 
f 34 26 37 
f 30 29 38 
f 26 34 38 
f 34 30 38 
f 27 34 39 
f 37 32 39 
f 34 37 39 
f 29 37 40 
f 28 27 41 
f 36 28 41 
f 32 36 41 
f 36 33 42 
f 37 31 42 
f 33 37 42 
f 27 39 43 
f 39 32 43 
f 41 27 43 
f 32 41 43 
f 26 38 44 
f 38 29 44 
f 40 26 44 
f 29 40 44 
f 42 31 45 
f 36 42 45 
f 31 35 46 
f 45 31 46 
f 45 46 47 
f 28 36 47 
f 36 45 47 
f 46 28 47 
f 35 28 48 
f 28 46 48 
f 46 35 48 
f 37 26 49 
f 26 40 49 
o convex_2
v -0.012839 -0.086987 -0.000229
v -0.011906 0.031483 0.020291
v -0.011906 0.059456 0.019822
v -0.012839 0.031469 0.020291
v -0.012372 0.059456 0.000237
v -0.011906 -0.086514 0.019822
v -0.011906 -0.086514 -0.000229
v -0.012839 -0.086514 0.020291
v -0.011906 0.059456 0.000237
v -0.012839 0.031469 -0.000229
v -0.012372 0.059456 0.019822
v -0.011906 0.031483 -0.000229
v -0.011906 -0.086055 0.020291
f 57 55 62 
f 55 50 56 
f 51 55 56 
f 51 53 57 
f 53 50 57 
f 50 55 57 
f 52 51 58 
f 54 52 58 
f 50 53 59 
f 53 54 59 
f 56 50 59 
f 51 52 60 
f 53 51 60 
f 54 53 60 
f 52 54 60 
f 51 56 61 
f 58 51 61 
f 54 58 61 
f 56 59 61 
f 59 54 61 
f 55 51 62 
f 51 57 62 
o convex_3
v 0.025414 -0.079063 0.000237
v 0.019817 0.011429 0.020291
v 0.012818 0.011429 0.020291
v 0.016085 -0.090263 0.020291
v 0.012818 0.011429 -0.000229
v 0.012818 -0.088393 -0.000229
v 0.029146 -0.037562 0.019822
v 0.027279 -0.016572 0.000237
v 0.024014 -0.085133 0.020291
v 0.012818 -0.088393 0.019822
v 0.019817 0.011429 -0.000229
v 0.029146 -0.041282 -0.000229
v 0.021215 -0.089323 -0.000229
v 0.026346 -0.011441 0.019822
v 0.028212 -0.054342 0.019822
v 0.024014 -0.002111 0.000237
v 0.020750 -0.089793 0.019822
v 0.016085 -0.090733 0.000237
v 0.028679 -0.037092 0.020291
v 0.025414 -0.079063 0.019822
v 0.024014 -0.085593 -0.000229
v 0.020284 0.011429 0.019822
v 0.028212 -0.024502 0.019822
v 0.028212 -0.054342 0.000237
v 0.028212 -0.024502 0.000237
v 0.013752 -0.089333 0.020291
v 0.020284 0.011429 0.000237
v 0.023080 -0.087453 0.020291
v 0.018884 -0.090733 0.019822
v 0.029146 -0.041742 0.019822
v 0.029146 -0.037562 -0.000229
v 0.018884 -0.090733 0.000237
v 0.027279 -0.063203 0.000237
v 0.026346 -0.011441 0.000237
v 0.024014 -0.002111 0.019822
v 0.027279 -0.016572 0.019822
v 0.025879 -0.011441 0.020291
v 0.016085 -0.090733 0.019822
v 0.025879 -0.011441 -0.000229
v 0.023080 -0.087453 -0.000229
v 0.027279 -0.063203 0.019822
v 0.014218 -0.089793 0.000237
v 0.027746 -0.054802 0.020291
v 0.013285 -0.088853 0.020291
v 0.024014 -0.085593 0.019822
f 90 83 107 
f 64 65 66 
f 65 64 67 
f 65 67 68 
f 64 66 71 
f 65 68 72 
f 67 64 73 
f 68 67 73 
f 68 73 74 
f 68 74 75 
f 68 75 80 
f 64 71 81 
f 75 74 83 
f 63 82 83 
f 73 64 84 
f 81 69 85 
f 70 85 87 
f 85 69 87 
f 66 65 88 
f 72 68 88 
f 78 73 89 
f 73 84 89 
f 84 78 89 
f 71 66 90 
f 90 66 91 
f 79 90 91 
f 74 69 92 
f 69 81 92 
f 86 74 92 
f 77 86 92 
f 74 73 93 
f 69 74 93 
f 70 87 93 
f 87 69 93 
f 75 79 94 
f 80 75 94 
f 79 91 94 
f 91 80 94 
f 82 63 95 
f 63 83 95 
f 83 74 95 
f 74 86 95 
f 86 77 95 
f 76 70 96 
f 78 76 96 
f 76 78 97 
f 84 64 97 
f 78 84 97 
f 70 76 98 
f 85 70 98 
f 85 98 99 
f 64 81 99 
f 81 85 99 
f 97 64 99 
f 76 97 99 
f 98 76 99 
f 66 88 100 
f 80 91 100 
f 91 66 100 
f 73 78 101 
f 70 93 101 
f 93 73 101 
f 96 70 101 
f 78 96 101 
f 79 75 102 
f 75 83 102 
f 90 79 102 
f 83 90 102 
f 82 95 103 
f 95 77 103 
f 68 80 104 
f 88 68 104 
f 100 88 104 
f 80 100 104 
f 81 71 105 
f 71 82 105 
f 92 81 105 
f 77 92 105 
f 103 77 105 
f 82 103 105 
f 65 72 106 
f 88 65 106 
f 72 88 106 
f 82 71 107 
f 83 82 107 
f 71 90 107 
o convex_4
v 0.021213 0.012363 0.000237
v 0.014685 0.031487 0.020291
v 0.014685 0.031955 0.019822
v 0.027280 0.024491 0.019822
v 0.012818 0.011429 0.020291
v 0.012818 0.031487 -0.000229
v 0.027280 0.024491 0.000237
v 0.012818 0.011429 -0.000229
v 0.020281 0.011429 0.019822
v 0.026813 0.020296 0.020291
v 0.012818 0.031955 0.019822
v 0.026813 0.020296 -0.000229
v 0.014685 0.031955 0.000237
v 0.019817 0.011429 -0.000229
v 0.027280 0.020762 0.019822
v 0.026813 0.024957 0.000237
v 0.027280 0.020762 0.000237
v 0.024014 0.016094 0.019822
v 0.026813 0.024957 0.019822
v 0.026813 0.024491 -0.000229
v 0.019817 0.011429 0.020291
v 0.026813 0.024491 0.020291
v 0.024014 0.016094 0.000237
v 0.021213 0.012363 0.019822
v 0.012818 0.031487 0.020291
v 0.012818 0.031955 0.000237
f 118 120 133 
f 112 113 115 
f 112 115 116 
f 109 112 117 
f 109 110 118 
f 113 112 118 
f 115 113 119 
f 118 110 120 
f 116 115 121 
f 108 116 121 
f 115 119 121 
f 119 108 121 
f 114 111 122 
f 111 117 122 
f 111 114 123 
f 120 110 123 
f 119 114 124 
f 114 122 124 
f 124 122 125 
f 122 117 125 
f 123 110 126 
f 111 123 126 
f 119 113 127 
f 114 119 127 
f 113 120 127 
f 123 114 127 
f 120 123 127 
f 112 116 128 
f 117 112 128 
f 110 109 129 
f 109 117 129 
f 117 111 129 
f 126 110 129 
f 111 126 129 
f 108 119 130 
f 119 124 130 
f 124 125 130 
f 125 108 130 
f 116 108 131 
f 108 125 131 
f 125 117 131 
f 128 116 131 
f 117 128 131 
f 112 109 132 
f 109 118 132 
f 118 112 132 
f 113 118 133 
f 120 113 133 
o convex_5
v -0.025433 -0.076262 0.000237
v -0.012839 0.012362 0.020291
v -0.012839 0.012362 -0.000229
v -0.012840 -0.089320 -0.000229
v -0.028232 -0.027762 0.019822
v -0.013306 -0.089320 0.020291
v -0.025433 -0.008638 0.000237
v -0.023101 -0.087453 0.020291
v -0.020304 0.012362 0.019822
v -0.028232 -0.051538 0.000237
v -0.019837 0.012362 -0.000229
v -0.022168 -0.088392 -0.000229
v -0.028232 -0.051538 0.019822
v -0.027766 -0.027298 -0.000229
v -0.025901 -0.013301 0.020291
v -0.012840 -0.089320 0.019822
v -0.017971 -0.090733 0.019822
v -0.026366 -0.069269 0.019822
v -0.027299 -0.018437 0.019822
v -0.028232 -0.027762 0.000237
v -0.016106 -0.090733 0.000237
v -0.025433 -0.008638 0.019822
v -0.023101 -0.087453 -0.000229
v -0.020304 0.012362 0.000237
v -0.027299 -0.018437 0.000237
v -0.027766 -0.051538 0.020291
v -0.024034 -0.083730 0.019822
v -0.017971 -0.090733 0.000237
v -0.019837 0.012362 0.020291
v -0.026366 -0.069269 0.000237
v -0.021702 -0.088856 0.019822
v -0.027766 -0.051538 -0.000229
v -0.025433 -0.076262 0.019822
v -0.013306 -0.089795 0.019822
v -0.016106 -0.090733 0.019822
v -0.024034 -0.083730 0.000237
v -0.027766 -0.027298 0.020291
v -0.012840 -0.086999 0.020291
v -0.025901 -0.013301 -0.000229
v -0.013306 -0.089795 0.000237
f 167 154 173 
f 136 135 137 
f 139 135 141 
f 135 136 142 
f 136 137 144 
f 142 136 144 
f 144 137 145 
f 138 143 146 
f 144 145 147 
f 141 135 148 
f 137 135 149 
f 139 141 150 
f 146 143 151 
f 143 138 153 
f 147 143 153 
f 138 152 153 
f 142 140 155 
f 140 152 155 
f 152 148 155 
f 145 141 156 
f 147 145 156 
f 140 142 157 
f 142 144 157 
f 144 140 157 
f 152 140 158 
f 147 153 158 
f 153 152 158 
f 138 146 159 
f 141 148 159 
f 151 141 159 
f 146 151 159 
f 156 141 160 
f 145 137 161 
f 137 154 161 
f 154 150 161 
f 135 142 162 
f 148 135 162 
f 142 155 162 
f 155 148 162 
f 134 151 163 
f 151 143 163 
f 156 134 163 
f 141 145 164 
f 150 141 164 
f 145 161 164 
f 161 150 164 
f 143 147 165 
f 147 156 165 
f 163 143 165 
f 156 163 165 
f 151 134 166 
f 141 151 166 
f 134 160 166 
f 160 141 166 
f 137 149 167 
f 149 139 167 
f 154 167 168 
f 139 150 168 
f 150 154 168 
f 167 139 168 
f 134 156 169 
f 160 134 169 
f 156 160 169 
f 152 138 170 
f 148 152 170 
f 138 159 170 
f 159 148 170 
f 135 139 171 
f 149 135 171 
f 139 149 171 
f 140 144 172 
f 144 147 172 
f 158 140 172 
f 147 158 172 
f 154 137 173 
f 137 167 173 
o convex_6
v -0.026832 0.024955 0.019822
v -0.019838 0.012362 -0.000229
v -0.012839 0.012362 -0.000229
v -0.012839 0.031955 0.000237
v -0.012839 0.012362 0.020291
v -0.012839 0.031955 0.019822
v -0.027299 0.024491 0.000237
v -0.020301 0.012362 0.019822
v -0.026832 0.020294 0.020291
v -0.026832 0.020294 -0.000229
v -0.015173 0.031487 -0.000229
v -0.014707 0.031487 0.020291
v -0.014707 0.031955 0.019822
v -0.014707 0.031955 0.000237
v -0.027299 0.020760 0.019822
v -0.020301 0.012362 0.000237
v -0.026832 0.024955 0.000237
v -0.027299 0.020760 0.000237
v -0.027299 0.024491 0.019822
v -0.019838 0.012362 0.020291
v -0.026832 0.024491 0.020291
v -0.026832 0.024491 -0.000229
v -0.012839 0.031487 -0.000229
f 184 177 196 
f 175 176 178 
f 176 177 178 
f 178 177 179 
f 175 178 181 
f 176 175 183 
f 176 183 184 
f 178 179 185 
f 182 178 185 
f 179 177 186 
f 185 179 186 
f 177 184 187 
f 186 177 187 
f 174 186 187 
f 181 182 188 
f 175 181 189 
f 183 175 189 
f 181 188 189 
f 180 174 190 
f 174 187 190 
f 187 184 190 
f 180 183 191 
f 188 180 191 
f 183 189 191 
f 189 188 191 
f 174 180 192 
f 180 188 192 
f 188 182 192 
f 181 178 193 
f 178 182 193 
f 182 181 193 
f 182 185 194 
f 186 174 194 
f 185 186 194 
f 174 192 194 
f 192 182 194 
f 183 180 195 
f 184 183 195 
f 180 190 195 
f 190 184 195 
f 177 176 196 
f 176 184 196 
