o convex_0
v -0.020502 -0.090265 -0.000226
v -0.015540 -0.040623 0.020086
v -0.015089 -0.040623 0.019631
v -0.027724 -0.040623 0.000228
v -0.027724 -0.067249 0.020086
v -0.010123 -0.089367 0.000228
v -0.010574 -0.089367 0.020086
v -0.015540 -0.040623 -0.000226
v -0.027724 -0.040623 0.020086
v -0.022760 -0.088465 0.020086
v -0.026821 -0.073570 0.000228
v -0.010123 -0.083502 0.019631
v -0.010123 -0.083502 0.000228
v -0.023663 -0.086204 -0.000226
v -0.020502 -0.090726 0.020086
v -0.027724 -0.067249 0.000228
v -0.012380 -0.090270 -0.000226
v -0.025920 -0.078082 0.019631
v -0.015089 -0.040623 0.000228
v -0.027273 -0.040623 -0.000226
v -0.012380 -0.090721 0.019631
v -0.020502 -0.090726 0.000228
v -0.012380 -0.090721 0.000228
v -0.023663 -0.086660 0.000228
v -0.023663 -0.086660 0.019631
v -0.010123 -0.089367 0.019631
v -0.010574 -0.083502 -0.000226
v -0.025920 -0.078082 0.000228
v -0.027273 -0.067700 -0.000226
v -0.022760 -0.088465 0.000228
v -0.026821 -0.073570 0.019631
v -0.010574 -0.089818 0.019631
f 26 7 32 
f 2 3 4 
f 2 5 7 
f 4 3 8 
f 2 4 9 
f 4 5 9 
f 5 2 9 
f 7 5 10 
f 3 2 12 
f 2 7 12 
f 3 12 13 
f 12 6 13 
f 8 1 14 
f 7 10 15 
f 5 4 16 
f 11 5 16 
f 1 8 17 
f 10 5 18 
f 8 3 19 
f 3 13 19 
f 13 8 19 
f 4 8 20 
f 8 14 20 
f 16 4 20 
f 7 15 21 
f 15 10 22 
f 1 17 22 
f 21 15 22 
f 17 6 23 
f 22 17 23 
f 21 22 23 
f 10 18 25 
f 24 10 25 
f 18 24 25 
f 6 12 26 
f 12 7 26 
f 8 13 27 
f 13 6 27 
f 6 17 27 
f 17 8 27 
f 11 14 28 
f 18 11 28 
f 14 24 28 
f 24 18 28 
f 14 11 29 
f 11 16 29 
f 20 14 29 
f 16 20 29 
f 14 1 30 
f 1 22 30 
f 22 10 30 
f 24 14 30 
f 10 24 30 
f 5 11 31 
f 18 5 31 
f 11 18 31 
f 7 21 32 
f 23 6 32 
f 21 23 32 
f 6 26 32 
o convex_1
v -0.015537 0.035663 -0.000226
v -0.001096 0.090726 0.020086
v -0.001096 0.090726 0.000228
v -0.001096 0.018059 0.000228
v -0.014635 0.013549 0.020086
v -0.001096 0.018513 0.020086
v -0.015537 0.054612 0.020086
v -0.005609 0.087114 -0.000226
v -0.014635 0.013549 -0.000226
v -0.015537 0.054612 0.000228
v -0.004707 0.090265 0.020086
v -0.002449 0.013541 -0.000226
v -0.002449 0.013541 0.020086
v -0.012829 0.064539 0.000228
v -0.015537 0.035217 0.019631
v -0.004707 0.090265 0.000228
v -0.012829 0.064539 0.019631
v -0.001096 0.090272 -0.000226
v -0.015537 0.054158 -0.000226
v -0.004255 0.090726 0.000228
v -0.005609 0.087552 0.020086
v -0.001096 0.018513 -0.000226
v -0.004255 0.090726 0.020086
v -0.005609 0.087552 0.000228
v -0.013733 0.061381 0.020086
f 53 49 57 
f 35 34 36 
f 34 37 38 
f 36 34 38 
f 37 34 39 
f 33 40 41 
f 33 39 42 
f 39 34 43 
f 37 41 44 
f 41 40 44 
f 38 37 45 
f 36 38 45 
f 44 36 45 
f 37 44 45 
f 39 33 47 
f 37 39 47 
f 33 41 47 
f 41 37 47 
f 35 36 50 
f 44 40 50 
f 40 33 51 
f 33 42 51 
f 42 46 51 
f 46 40 51 
f 34 35 52 
f 40 48 52 
f 48 43 52 
f 35 50 52 
f 50 40 52 
f 39 43 53 
f 43 48 53 
f 46 49 53 
f 36 44 54 
f 50 36 54 
f 44 50 54 
f 43 34 55 
f 34 52 55 
f 52 43 55 
f 40 46 56 
f 48 40 56 
f 53 48 56 
f 46 53 56 
f 42 39 57 
f 46 42 57 
f 49 46 57 
f 39 53 57 
o convex_2
v 0.020569 -0.090271 -0.000226
v 0.024180 -0.067706 0.020086
v 0.015155 -0.067706 0.020086
v 0.020118 -0.090723 0.020086
v 0.026890 -0.067708 -0.000226
v 0.010191 -0.084854 0.000228
v 0.010191 -0.089369 0.020086
v 0.014704 -0.068611 -0.000226
v 0.026890 -0.075380 0.019631
v 0.023729 -0.087562 0.000228
v 0.012448 -0.090723 0.000228
v 0.022826 -0.089369 0.019631
v 0.011093 -0.080794 0.019631
v 0.026890 -0.075380 0.000228
v 0.026890 -0.067708 0.020086
v 0.010642 -0.089369 -0.000226
v 0.014255 -0.068611 0.000228
v 0.015155 -0.067706 0.000228
v 0.012448 -0.090723 0.019631
v 0.014255 -0.068611 0.020086
v 0.020569 -0.090723 0.000228
v 0.023729 -0.087112 0.020086
v 0.010191 -0.084854 0.020086
v 0.022375 -0.089820 0.000228
v 0.010191 -0.089369 0.000228
v 0.011093 -0.080794 0.000228
v 0.023729 -0.087562 0.019631
v 0.024631 -0.083049 -0.000226
v 0.022375 -0.089820 0.019631
v 0.010642 -0.089820 0.000228
f 82 73 87 
f 59 60 61 
f 61 60 64 
f 62 58 65 
f 62 66 71 
f 66 67 71 
f 59 61 72 
f 62 59 72 
f 66 62 72 
f 65 58 73 
f 63 65 73 
f 58 68 73 
f 60 59 75 
f 59 62 75 
f 62 65 75 
f 74 60 75 
f 65 74 75 
f 61 64 76 
f 68 61 76 
f 64 60 77 
f 60 74 77 
f 74 70 77 
f 68 58 78 
f 61 68 78 
f 61 69 79 
f 72 61 79 
f 66 72 79 
f 63 64 80 
f 70 63 80 
f 64 77 80 
f 77 70 80 
f 58 67 81 
f 67 69 81 
f 78 58 81 
f 64 63 82 
f 63 73 82 
f 65 63 83 
f 63 70 83 
f 74 65 83 
f 70 74 83 
f 67 66 84 
f 69 67 84 
f 66 79 84 
f 79 69 84 
f 58 62 85 
f 67 58 85 
f 62 71 85 
f 71 67 85 
f 69 61 86 
f 61 78 86 
f 81 69 86 
f 78 81 86 
f 73 68 87 
f 76 64 87 
f 68 76 87 
f 64 82 87 
o convex_3
v 0.015607 -0.067703 -0.000226
v 0.027341 -0.036110 0.020086
v 0.015607 -0.036110 0.020086
v 0.015607 -0.067703 0.020086
v 0.027792 -0.067251 0.000228
v 0.026890 -0.036110 -0.000226
v 0.015155 -0.036110 0.000228
v 0.027792 -0.067251 0.020086
v 0.027792 -0.036564 0.000228
v 0.015155 -0.067703 0.019631
v 0.027341 -0.067703 -0.000226
v 0.015155 -0.036110 0.019631
v 0.015155 -0.067703 0.000228
v 0.027792 -0.036564 0.020086
v 0.015607 -0.036110 -0.000226
v 0.027341 -0.067703 0.020086
f 98 95 103 
f 89 90 91 
f 90 89 93 
f 90 93 94 
f 89 91 95 
f 95 92 96 
f 93 89 96 
f 91 90 97 
f 88 91 97 
f 91 88 98 
f 88 93 98 
f 92 95 98 
f 96 92 98 
f 93 96 98 
f 90 94 99 
f 97 90 99 
f 94 97 99 
f 94 88 100 
f 88 97 100 
f 97 94 100 
f 89 95 101 
f 95 96 101 
f 96 89 101 
f 93 88 102 
f 94 93 102 
f 88 94 102 
f 95 91 103 
f 91 98 103 
o convex_4
v 0.015606 0.049656 -0.000226
v 0.003421 0.090726 0.020086
v -0.001095 0.090726 0.020086
v 0.002517 0.014895 0.020086
v -0.001095 0.018518 -0.000226
v -0.001095 0.090265 -0.000226
v 0.013800 0.014895 0.020086
v 0.013800 0.014895 0.000228
v 0.015606 0.051460 0.020086
v -0.001095 0.018518 0.020086
v 0.003872 0.090273 0.000228
v 0.012897 0.062282 0.000228
v 0.002517 0.014895 -0.000226
v 0.012897 0.062282 0.019631
v 0.004774 0.087556 0.019631
v 0.013348 0.014895 -0.000226
v 0.015606 0.051460 -0.000226
v 0.003421 0.090726 0.000228
v 0.003421 0.090273 -0.000226
v -0.001095 0.018057 0.019631
v 0.015606 0.049656 0.020086
v 0.002065 0.014895 0.000228
v -0.001095 0.090726 0.000228
v -0.001095 0.018057 0.000228
v 0.002065 0.014895 0.019631
v 0.003872 0.090273 0.019631
f 118 114 129 
f 105 106 107 
f 108 106 109 
f 104 108 109 
f 105 107 110 
f 104 110 111 
f 110 107 111 
f 105 110 112 
f 107 106 113 
f 106 108 113 
f 108 104 116 
f 111 107 116 
f 105 112 117 
f 112 115 117 
f 117 115 118 
f 115 114 118 
f 105 117 118 
f 104 111 119 
f 116 104 119 
f 111 116 119 
f 104 109 120 
f 112 104 120 
f 115 112 120 
f 106 105 121 
f 105 114 121 
f 121 114 122 
f 114 115 122 
f 120 109 122 
f 115 120 122 
f 107 113 123 
f 113 108 123 
f 110 104 124 
f 104 112 124 
f 112 110 124 
f 116 107 125 
f 109 106 126 
f 106 121 126 
f 121 122 126 
f 122 109 126 
f 108 116 127 
f 123 108 127 
f 116 125 127 
f 125 123 127 
f 107 123 128 
f 125 107 128 
f 123 125 128 
f 114 105 129 
f 105 118 129 
o convex_5
v -0.027273 -0.036557 -0.000226
v -0.007414 -0.003160 0.020086
v -0.019599 -0.003160 0.020086
v -0.015539 -0.040623 0.020086
v -0.007414 -0.003160 -0.000226
v -0.015088 -0.040623 0.000228
v -0.027725 -0.040623 0.020086
v -0.019599 -0.003160 -0.000226
v -0.025919 -0.023916 0.019631
v -0.007414 -0.006772 0.019631
v -0.027273 -0.040623 -0.000226
v -0.025919 -0.023916 0.000228
v -0.007414 -0.006772 0.000228
v -0.014186 -0.037462 0.019631
v -0.027725 -0.036557 0.000228
v -0.021858 -0.009482 0.000228
v -0.015539 -0.040623 -0.000226
v -0.027725 -0.036557 0.020086
v -0.021858 -0.009482 0.019631
v -0.014186 -0.037462 0.000228
v -0.027725 -0.040623 0.000228
v -0.020504 -0.005419 -0.000226
v -0.015088 -0.040623 0.019631
v -0.022758 -0.012639 0.020086
v -0.007414 -0.006321 0.020086
v -0.007414 -0.006321 -0.000226
f 149 146 155 
f 131 132 133 
f 132 131 134 
f 133 132 136 
f 135 133 136 
f 134 130 137 
f 132 134 137 
f 134 131 139 
f 130 134 140 
f 135 136 140 
f 134 139 142 
f 142 139 143 
f 130 140 144 
f 141 130 144 
f 138 141 144 
f 140 134 146 
f 135 140 146 
f 136 132 147 
f 144 136 147 
f 138 144 147 
f 142 143 149 
f 143 135 149 
f 135 146 149 
f 140 136 150 
f 136 144 150 
f 144 140 150 
f 137 130 151 
f 132 137 151 
f 130 141 151 
f 141 145 151 
f 148 132 151 
f 145 148 151 
f 133 135 152 
f 143 133 152 
f 135 143 152 
f 141 138 153 
f 145 141 153 
f 147 132 153 
f 138 147 153 
f 132 148 153 
f 148 145 153 
f 131 133 154 
f 139 131 154 
f 143 139 154 
f 133 143 154 
f 134 142 155 
f 146 134 155 
f 142 149 155 
o convex_6
v -0.003354 0.004967 -0.000226
v -0.024566 0.000452 -0.000226
v -0.024566 0.001356 -0.000226
v -0.006963 -0.003160 0.020086
v -0.014635 0.013541 0.020086
v -0.024566 0.000452 0.020086
v -0.002449 0.013541 -0.000226
v -0.002449 0.013541 0.020086
v -0.016439 0.012637 -0.000226
v -0.007417 -0.003160 -0.000226
v -0.019600 -0.003160 0.020086
v -0.022758 0.005415 0.020086
v -0.019600 -0.003160 -0.000226
v -0.003354 0.004516 0.020086
v -0.005159 -0.000451 0.000228
v -0.022758 0.005415 0.000228
v -0.014635 0.013541 -0.000226
v -0.016889 0.012186 0.019631
v -0.002449 0.009479 -0.000226
v -0.006062 -0.002256 0.019631
v -0.002449 0.009479 0.020086
v -0.024566 0.001807 0.019631
v -0.006062 -0.002256 0.000228
v -0.003354 0.004516 0.000228
v -0.005159 -0.000451 0.019631
v -0.024566 0.001807 0.000228
f 177 171 181 
f 156 157 158 
f 158 157 161 
f 159 160 161 
f 156 158 162 
f 162 160 163 
f 160 159 163 
f 162 158 164 
f 157 156 165 
f 161 157 166 
f 159 161 166 
f 165 159 166 
f 161 160 167 
f 157 165 168 
f 166 157 168 
f 165 166 168 
f 163 159 169 
f 165 156 170 
f 164 158 171 
f 160 162 172 
f 164 160 172 
f 162 164 172 
f 160 164 173 
f 167 160 173 
f 164 171 173 
f 171 167 173 
f 156 162 174 
f 162 163 174 
f 163 169 176 
f 174 163 176 
f 169 174 176 
f 158 161 177 
f 161 167 177 
f 167 171 177 
f 159 165 178 
f 165 170 178 
f 175 159 178 
f 170 175 178 
f 170 156 179 
f 169 170 179 
f 156 174 179 
f 174 169 179 
f 169 159 180 
f 170 169 180 
f 159 175 180 
f 175 170 180 
f 171 158 181 
f 158 177 181 
o convex_7
v 0.026437 -0.036106 -0.000226
v 0.019667 -0.003160 0.020086
v 0.019667 -0.003160 -0.000226
v 0.007481 -0.004514 0.020086
v 0.026890 -0.036106 0.020086
v 0.014252 -0.035203 0.000228
v 0.007481 -0.003160 -0.000226
v 0.014252 -0.035203 0.020086
v 0.026890 -0.027530 0.000228
v 0.024633 -0.018509 0.020086
v 0.015155 -0.036110 -0.000226
v 0.021925 -0.008578 0.000228
v 0.026890 -0.027530 0.019631
v 0.007481 -0.003160 0.020086
v 0.015155 -0.036110 0.020086
v 0.007481 -0.004514 -0.000226
v 0.021925 -0.008578 0.019631
v 0.026890 -0.036106 0.000228
v 0.024633 -0.018509 -0.000226
v 0.022828 -0.011739 0.019631
f 191 200 201 
f 183 185 186 
f 184 182 188 
f 183 184 188 
f 186 185 189 
f 185 187 189 
f 183 186 191 
f 188 182 192 
f 189 187 192 
f 184 183 193 
f 186 190 194 
f 191 186 194 
f 190 191 194 
f 185 183 195 
f 183 188 195 
f 188 185 195 
f 186 189 196 
f 192 186 196 
f 189 192 196 
f 187 185 197 
f 185 188 197 
f 188 192 197 
f 192 187 197 
f 183 191 198 
f 193 183 198 
f 182 190 199 
f 190 186 199 
f 192 182 199 
f 186 192 199 
f 182 184 200 
f 190 182 200 
f 191 190 200 
f 184 193 200 
f 200 193 201 
f 198 191 201 
f 193 198 201 
o convex_8
v 0.024633 0.000453 0.020086
v 0.002518 0.008575 -0.000226
v 0.002065 0.008575 0.000228
v 0.013798 0.014895 0.020086
v 0.006580 -0.002705 0.020086
v 0.024633 0.000903 -0.000226
v 0.007484 -0.003160 -0.000226
v 0.013349 0.014895 -0.000226
v 0.002065 0.014895 0.019631
v 0.019667 -0.003160 0.020086
v 0.002065 0.014895 0.000228
v 0.023730 0.004514 0.000228
v 0.019667 -0.003160 -0.000226
v 0.023730 0.004514 0.020086
v 0.002065 0.008575 0.019631
v 0.016506 0.012638 0.000228
v 0.006130 -0.002257 0.000228
v 0.003421 0.004514 0.020086
v 0.007033 -0.003160 0.020086
v 0.016506 0.012638 0.020086
v 0.024633 0.002710 0.019631
v 0.002518 0.014895 0.020086
v 0.024633 0.000453 0.000228
v 0.003421 0.004514 -0.000226
v 0.006130 -0.002257 0.019631
v 0.024633 0.002710 0.000228
v 0.002518 0.014895 -0.000226
v 0.013798 0.014895 0.000228
f 217 209 229 
f 202 205 206 
f 203 207 208 
f 207 203 209 
f 205 209 210 
f 202 206 211 
f 203 204 212 
f 204 210 212 
f 210 209 212 
f 207 209 213 
f 208 207 214 
f 202 211 214 
f 211 208 214 
f 205 202 215 
f 210 204 216 
f 213 209 217 
f 215 213 217 
f 206 205 219 
f 216 204 219 
f 211 206 220 
f 208 211 220 
f 218 208 220 
f 205 215 221 
f 217 205 221 
f 215 217 221 
f 202 207 222 
f 215 202 222 
f 213 215 222 
f 205 210 223 
f 210 216 223 
f 219 205 223 
f 216 219 223 
f 207 202 224 
f 202 214 224 
f 214 207 224 
f 204 203 225 
f 203 208 225 
f 208 218 225 
f 219 204 225 
f 218 219 225 
f 206 219 226 
f 219 218 226 
f 220 206 226 
f 218 220 226 
f 207 213 227 
f 222 207 227 
f 213 222 227 
f 209 203 228 
f 203 212 228 
f 212 209 228 
f 209 205 229 
f 205 217 229 
