o convex_0
v -0.014778 -0.089905 -0.000198
v -0.014382 -0.059415 0.020001
v -0.014382 -0.059415 0.000199
v -0.022698 -0.059415 0.020001
v -0.010421 -0.087525 0.020001
v -0.022698 -0.059415 0.000199
v -0.018737 -0.083171 0.020001
v -0.010421 -0.082772 -0.000198
v -0.020716 -0.075248 0.000199
v -0.014382 -0.090698 0.020001
v -0.013193 -0.062582 0.019604
v -0.011213 -0.089109 0.000199
v -0.017548 -0.086735 0.000199
v -0.022698 -0.062579 0.019604
v -0.013193 -0.062582 0.000199
v -0.010421 -0.082377 0.019604
v -0.020716 -0.075248 0.020001
v -0.022301 -0.059415 -0.000198
v -0.017548 -0.086735 0.019604
v -0.012796 -0.090698 0.020001
v -0.022698 -0.062579 0.000199
v -0.012796 -0.090698 0.000199
v -0.010421 -0.087130 -0.000198
v -0.014778 -0.059415 -0.000198
v -0.018737 -0.083171 0.000199
v -0.015570 -0.089507 0.000199
v -0.019529 -0.079208 -0.000198
v -0.014382 -0.090698 0.000199
v -0.011213 -0.089109 0.020001
v -0.010421 -0.082377 0.000199
v -0.015570 -0.089507 0.020001
v -0.010421 -0.082772 0.020001
f 5 16 32 
f 2 3 4 
f 2 4 5 
f 4 3 6 
f 5 4 7 
f 5 7 10 
f 3 2 11 
f 4 6 14 
f 3 11 15 
f 15 11 16 
f 5 8 16 
f 7 4 17 
f 9 7 17 
f 4 14 17 
f 14 9 17 
f 6 3 18 
f 8 1 18 
f 7 13 19 
f 5 10 20 
f 14 6 21 
f 9 14 21 
f 6 18 21 
f 20 10 22 
f 12 20 22 
f 1 8 23 
f 8 5 23 
f 5 12 23 
f 22 1 23 
f 12 22 23 
f 3 15 24 
f 15 8 24 
f 18 3 24 
f 8 18 24 
f 7 9 25 
f 13 7 25 
f 13 1 26 
f 19 13 26 
f 1 13 27 
f 18 1 27 
f 9 21 27 
f 21 18 27 
f 25 9 27 
f 13 25 27 
f 1 22 28 
f 22 10 28 
f 26 1 28 
f 10 26 28 
f 12 5 29 
f 5 20 29 
f 20 12 29 
f 8 15 30 
f 15 16 30 
f 16 8 30 
f 10 7 31 
f 7 19 31 
f 26 10 31 
f 19 26 31 
f 2 5 32 
f 11 2 32 
f 16 11 32 
o convex_1
v -0.022301 -0.043568 -0.000198
v -0.013589 -0.036439 0.020001
v -0.013193 -0.036439 0.019604
v -0.014382 -0.059407 0.020001
v -0.022698 -0.043568 0.020001
v -0.014778 -0.059407 -0.000198
v -0.022698 -0.059407 0.000199
v -0.013193 -0.036439 0.000199
v -0.022698 -0.059407 0.020001
v -0.020717 -0.036441 0.000199
v -0.020717 -0.036441 0.020001
v -0.013193 -0.043172 0.000199
v -0.021509 -0.037628 -0.000198
v -0.022698 -0.043568 0.000199
v -0.013193 -0.043172 0.019604
v -0.014382 -0.059407 0.000199
v -0.021509 -0.037233 0.019604
v -0.013589 -0.036439 -0.000198
v -0.022301 -0.059407 -0.000198
v -0.021509 -0.037233 0.000199
f 46 49 52 
f 36 34 37 
f 38 36 39 
f 34 35 40 
f 36 37 41 
f 37 39 41 
f 39 36 41 
f 37 34 43 
f 34 42 43 
f 40 35 44 
f 38 33 45 
f 33 39 46 
f 39 37 46 
f 45 33 46 
f 35 34 47 
f 34 36 47 
f 44 35 47 
f 36 44 47 
f 36 38 48 
f 44 36 48 
f 38 44 48 
f 37 43 49 
f 43 42 49 
f 46 37 49 
f 34 40 50 
f 42 34 50 
f 44 38 50 
f 40 44 50 
f 38 45 50 
f 45 42 50 
f 33 38 51 
f 39 33 51 
f 38 39 51 
f 42 45 52 
f 45 46 52 
f 49 42 52 
o convex_2
v -0.020321 -0.036434 -0.000198
v -0.003291 0.001977 0.020001
v -0.010421 0.001977 0.020001
v -0.020717 -0.036434 0.020001
v -0.004480 -0.008320 -0.000198
v -0.012400 -0.035640 0.019604
v -0.010817 0.001977 0.000199
v -0.012400 -0.035640 0.000199
v -0.018737 -0.020594 0.020001
v -0.019528 -0.024550 -0.000198
v -0.003688 0.001977 -0.000198
v -0.003291 -0.004360 0.020001
v -0.020717 -0.029702 0.000199
v -0.013589 -0.036434 0.020001
v -0.018737 -0.020594 0.000199
v -0.014776 -0.008715 0.020001
v -0.020717 -0.029702 0.020001
v -0.003291 -0.004360 0.000199
v -0.013589 -0.036434 -0.000198
v -0.005271 -0.011486 0.000199
v -0.014776 -0.008715 0.000199
v -0.010817 0.001977 0.019604
v -0.010421 0.001977 -0.000198
v -0.005271 -0.011486 0.019604
v -0.020717 -0.036434 0.000199
v -0.003291 0.001977 0.000199
v -0.013191 -0.036434 0.000199
v -0.007253 -0.018218 0.020001
f 72 76 80 
f 54 55 56 
f 55 54 59 
f 56 55 61 
f 57 53 62 
f 57 62 63 
f 59 54 63 
f 54 56 64 
f 62 53 65 
f 56 53 66 
f 64 56 66 
f 65 61 67 
f 62 65 67 
f 61 55 68 
f 67 61 68 
f 56 61 69 
f 65 56 69 
f 61 65 69 
f 57 63 70 
f 54 64 70 
f 53 57 71 
f 57 60 71 
f 66 53 71 
f 60 57 72 
f 57 70 72 
f 70 64 72 
f 62 67 73 
f 68 59 73 
f 67 68 73 
f 55 59 74 
f 68 55 74 
f 59 68 74 
f 63 62 75 
f 59 63 75 
f 73 59 75 
f 62 73 75 
f 72 64 76 
f 53 56 77 
f 65 53 77 
f 56 65 77 
f 63 54 78 
f 70 63 78 
f 54 70 78 
f 60 58 79 
f 58 66 79 
f 71 60 79 
f 66 71 79 
f 58 60 80 
f 66 58 80 
f 64 66 80 
f 60 72 80 
f 76 64 80 
o convex_3
v -0.011211 0.016248 -0.000198
v -0.000124 0.090698 0.020001
v -0.000124 0.090698 0.000199
v -0.000124 0.013469 0.020001
v -0.011607 0.037229 0.020001
v -0.000124 0.013469 -0.000198
v -0.010816 0.001980 0.019604
v -0.003688 0.090299 0.000199
v -0.003291 0.001980 0.000199
v -0.011607 0.037629 0.000199
v -0.003688 0.090299 0.020001
v -0.010816 0.001980 0.000199
v -0.003291 0.001980 0.020001
v -0.006855 0.071289 0.019604
v -0.011607 0.016639 0.020001
v -0.003291 0.090299 -0.000198
v -0.006855 0.071289 0.000199
v -0.011607 0.016639 0.000199
v -0.000124 0.090299 -0.000198
v -0.010420 0.001980 -0.000198
v -0.011211 0.037629 -0.000198
v -0.003291 0.090698 0.000199
v -0.010420 0.001980 0.020001
v -0.011607 0.037629 0.019604
v -0.003688 0.001980 -0.000198
v -0.003291 0.090698 0.020001
f 102 91 106 
f 83 82 84 
f 84 82 85 
f 83 84 86 
f 86 84 89 
f 85 82 91 
f 89 87 92 
f 84 85 93 
f 89 84 93 
f 87 89 93 
f 91 88 94 
f 85 91 94 
f 85 90 95 
f 92 87 95 
f 93 85 95 
f 86 81 96 
f 90 94 97 
f 94 88 97 
f 88 96 97 
f 90 81 98 
f 81 92 98 
f 95 90 98 
f 92 95 98 
f 83 86 99 
f 86 96 99 
f 96 83 99 
f 81 86 100 
f 92 81 100 
f 89 92 100 
f 81 90 101 
f 96 81 101 
f 90 97 101 
f 97 96 101 
f 82 83 102 
f 88 91 102 
f 83 96 102 
f 96 88 102 
f 87 93 103 
f 95 87 103 
f 93 95 103 
f 90 85 104 
f 85 94 104 
f 94 90 104 
f 86 89 105 
f 100 86 105 
f 89 100 105 
f 91 82 106 
f 82 102 106 
o convex_4
v 0.014532 -0.090692 0.000199
v 0.022452 -0.061786 0.020001
v 0.014136 -0.061786 0.020001
v 0.022452 -0.061786 -0.000198
v 0.017699 -0.086337 0.020001
v 0.010175 -0.083564 0.000199
v 0.010175 -0.086337 0.019604
v 0.013345 -0.062581 0.000199
v 0.019681 -0.081586 0.000199
v 0.022849 -0.065354 0.019604
v 0.012552 -0.090692 0.020001
v 0.011761 -0.089507 -0.000198
v 0.013345 -0.062581 0.020001
v 0.022849 -0.065354 0.000199
v 0.019681 -0.081586 0.019604
v 0.014532 -0.061786 -0.000198
v 0.016512 -0.088318 -0.000198
v 0.014532 -0.090692 0.019604
v 0.010175 -0.083564 0.019604
v 0.018888 -0.084356 0.000199
v 0.011365 -0.089507 0.000199
v 0.016512 -0.088714 0.019604
v 0.010175 -0.086337 0.000199
v 0.011365 -0.089507 0.020001
v 0.022849 -0.061786 0.019604
v 0.012552 -0.090692 0.000199
v 0.018888 -0.084356 0.019604
v 0.016512 -0.088714 0.000199
v 0.022849 -0.061786 0.000199
v 0.010572 -0.083564 -0.000198
v 0.019285 -0.081586 -0.000198
v 0.021661 -0.071294 0.020001
v 0.010572 -0.083564 0.020001
f 113 130 139 
f 109 108 110 
f 108 109 111 
f 111 109 117 
f 114 112 119 
f 109 114 119 
f 117 109 119 
f 116 115 120 
f 115 116 121 
f 109 110 122 
f 114 109 122 
f 110 118 122 
f 118 110 123 
f 107 118 123 
f 117 107 124 
f 111 117 124 
f 112 113 125 
f 119 112 125 
f 115 121 126 
f 124 107 128 
f 111 124 128 
f 113 112 129 
f 127 113 129 
f 118 127 129 
f 117 119 130 
f 113 127 130 
f 127 117 130 
f 110 108 131 
f 108 116 131 
f 116 120 131 
f 107 117 132 
f 118 107 132 
f 117 127 132 
f 127 118 132 
f 121 111 133 
f 126 121 133 
f 111 128 133 
f 128 126 133 
f 107 123 134 
f 123 126 134 
f 128 107 134 
f 126 128 134 
f 120 110 135 
f 110 131 135 
f 131 120 135 
f 112 114 136 
f 114 122 136 
f 122 118 136 
f 129 112 136 
f 118 129 136 
f 110 120 137 
f 120 115 137 
f 123 110 137 
f 115 126 137 
f 126 123 137 
f 108 111 138 
f 116 108 138 
f 111 121 138 
f 121 116 138 
f 125 113 139 
f 119 125 139 
f 130 119 139 
o convex_5
v 0.014136 -0.061786 0.000199
v 0.021660 -0.039608 0.020001
v 0.021660 -0.039608 0.000199
v 0.022849 -0.061786 0.019604
v 0.013344 -0.039608 0.020001
v 0.014136 -0.061786 0.019604
v 0.022849 -0.061786 0.000199
v 0.013344 -0.039608 0.000199
v 0.022848 -0.041588 0.000201
v 0.022848 -0.041588 0.019604
v 0.022453 -0.041590 -0.000198
v 0.022453 -0.061786 0.020001
v 0.014533 -0.061786 -0.000198
v 0.013344 -0.043570 0.000199
v 0.013740 -0.039608 -0.000198
v 0.014533 -0.061786 0.020001
v 0.022453 -0.061786 -0.000198
v 0.013344 -0.043570 0.019604
f 144 153 157 
f 141 142 144 
f 140 143 145 
f 143 140 146 
f 144 142 147 
f 142 141 148 
f 143 146 148 
f 148 141 149 
f 143 148 149 
f 142 148 150 
f 148 146 150 
f 141 144 151 
f 145 143 151 
f 149 141 151 
f 143 149 151 
f 146 140 152 
f 140 145 153 
f 144 147 153 
f 152 140 153 
f 152 153 154 
f 147 142 154 
f 142 150 154 
f 150 152 154 
f 153 147 154 
f 144 145 155 
f 151 144 155 
f 145 151 155 
f 150 146 156 
f 146 152 156 
f 152 150 156 
f 145 144 157 
f 153 145 157 
o convex_6
v 0.021263 -0.035642 -0.000198
v 0.010572 0.003565 0.020001
v 0.010572 0.003565 -0.000198
v 0.004236 -0.007528 0.000199
v 0.013343 -0.039606 0.020001
v 0.020867 -0.029701 0.019604
v 0.003442 0.003565 0.020001
v 0.013739 -0.039606 -0.000198
v 0.021661 -0.039606 0.020001
v 0.018888 -0.019800 0.000199
v 0.003442 0.003565 -0.000198
v 0.003442 -0.003569 0.020001
v 0.018888 -0.019800 0.019604
v 0.021661 -0.039606 0.000199
v 0.011760 0.001185 0.020001
v 0.013343 -0.039606 0.000199
v 0.021661 -0.035642 0.000199
v 0.004236 -0.007528 0.019604
v 0.011760 0.001185 0.000199
v 0.003442 -0.003171 -0.000198
v 0.021661 -0.035642 0.020001
v 0.020867 -0.029701 0.000199
v 0.018492 -0.019800 -0.000198
v 0.019680 -0.023764 0.020001
v 0.021263 -0.039606 -0.000198
f 171 165 182 
f 159 160 164 
f 162 159 164 
f 160 158 165 
f 162 165 166 
f 159 162 166 
f 164 160 168 
f 160 165 168 
f 162 164 169 
f 164 168 169 
f 163 167 170 
f 166 165 171 
f 160 159 172 
f 159 166 172 
f 170 167 172 
f 162 161 173 
f 161 165 173 
f 165 162 173 
f 171 158 174 
f 166 171 174 
f 161 162 175 
f 169 161 175 
f 162 169 175 
f 167 160 176 
f 160 172 176 
f 172 167 176 
f 165 161 177 
f 168 165 177 
f 161 169 177 
f 169 168 177 
f 172 166 178 
f 174 163 178 
f 166 174 178 
f 167 163 179 
f 163 174 179 
f 174 158 179 
f 158 160 180 
f 160 167 180 
f 179 158 180 
f 167 179 180 
f 163 170 181 
f 170 172 181 
f 178 163 181 
f 172 178 181 
f 165 158 182 
f 158 171 182 
o convex_7
v 0.010570 0.003573 -0.000198
v 0.003443 0.090689 0.020001
v 0.003839 0.090289 0.019604
v -0.000123 0.090289 -0.000198
v -0.000123 0.013474 0.020001
v 0.012551 0.033277 0.020001
v -0.000123 0.013474 -0.000198
v 0.012551 0.033277 -0.000198
v 0.010570 0.003573 0.020001
v -0.000123 0.090689 0.020001
v 0.004631 0.086332 0.000199
v 0.003443 0.003582 0.020001
v 0.003443 0.003582 -0.000198
v 0.011759 0.011487 0.000199
v 0.005819 0.079202 0.019604
v 0.003443 0.090289 -0.000198
v 0.011759 0.011487 0.019604
v 0.011759 0.039213 0.000199
v 0.005819 0.079202 0.000199
v 0.011759 0.039213 0.020001
v 0.003443 0.090689 0.000199
v 0.012551 0.031290 0.019604
v 0.004631 0.086332 0.020001
v 0.012551 0.031290 0.000199
v -0.000123 0.090689 0.000199
v 0.003839 0.090289 0.000199
v 0.012551 0.033669 0.000199
f 200 202 209 
f 184 187 188 
f 186 183 189 
f 187 186 189 
f 183 186 190 
f 188 187 191 
f 186 187 192 
f 187 184 192 
f 187 189 194 
f 183 191 194 
f 191 187 194 
f 189 183 195 
f 183 194 195 
f 194 189 195 
f 183 190 196 
f 191 183 196 
f 190 186 198 
f 188 191 199 
f 191 196 199 
f 197 200 201 
f 193 197 201 
f 190 198 201 
f 198 193 201 
f 200 190 201 
f 184 188 202 
f 200 197 202 
f 184 185 203 
f 192 184 203 
f 198 186 203 
f 190 188 204 
f 188 199 204 
f 199 196 204 
f 185 184 205 
f 193 185 205 
f 197 193 205 
f 184 202 205 
f 202 197 205 
f 196 190 206 
f 190 204 206 
f 204 196 206 
f 186 192 207 
f 192 203 207 
f 203 186 207 
f 185 193 208 
f 193 198 208 
f 203 185 208 
f 198 203 208 
f 188 190 209 
f 190 200 209 
f 202 188 209 
