o convex_0
v -0.015192 0.032045 0.000232
v 0.000500 0.089720 0.020077
v 0.000500 0.089720 0.000232
v -0.014268 -0.022411 0.020077
v -0.011960 0.076337 0.019614
v 0.000500 0.043576 -0.000231
v -0.014730 -0.022874 -0.000231
v 0.000500 0.043576 0.020077
v -0.011500 0.076337 -0.000231
v -0.015192 0.032045 0.020077
v -0.005501 0.086490 -0.000231
v -0.015192 -0.022874 0.020077
v -0.012884 0.070341 0.000232
v -0.006425 0.011277 0.000232
v -0.005501 0.086490 0.020077
v -0.015192 -0.022874 -0.000231
v -0.012884 0.070341 0.019614
v -0.006425 0.011277 0.020077
v -0.008730 0.082334 0.000232
v -0.001809 0.089268 -0.000231
v -0.014268 -0.022411 0.000232
v -0.008730 0.082334 0.020077
v -0.001348 0.089720 0.020077
v 0.000500 0.043113 0.000232
v -0.015192 0.031582 -0.000231
v -0.011960 0.076337 0.000232
v 0.000500 0.043113 0.019614
v -0.012423 0.070793 0.020077
v 0.000500 0.089268 -0.000231
v -0.001348 0.089720 0.000232
f 11 23 30 
f 3 2 6 
f 2 4 8 
f 6 2 8 
f 6 7 9 
f 4 2 10 
f 6 9 11 
f 7 4 12 
f 4 10 12 
f 10 1 12 
f 1 10 13 
f 7 6 14 
f 10 2 15 
f 9 7 16 
f 7 12 16 
f 12 1 16 
f 5 13 17 
f 13 10 17 
f 8 4 18 
f 4 14 18 
f 11 9 19 
f 15 11 19 
f 6 11 20 
f 4 7 21 
f 14 4 21 
f 7 14 21 
f 10 15 22 
f 19 5 22 
f 15 19 22 
f 2 3 23 
f 15 2 23 
f 11 15 23 
f 6 8 24 
f 14 6 24 
f 18 14 24 
f 1 13 25 
f 13 9 25 
f 16 1 25 
f 9 16 25 
f 9 13 26 
f 13 5 26 
f 5 19 26 
f 19 9 26 
f 8 18 27 
f 24 8 27 
f 18 24 27 
f 5 17 28 
f 17 10 28 
f 10 22 28 
f 22 5 28 
f 3 6 29 
f 20 3 29 
f 6 20 29 
f 3 20 30 
f 20 11 30 
f 23 3 30 
o convex_1
v 0.016192 0.030664 -0.000231
v 0.001425 0.089731 0.020077
v 0.000500 0.089731 0.020077
v 0.015730 -0.027032 0.020077
v 0.000500 0.043579 -0.000231
v 0.012960 0.073112 0.019614
v 0.006501 0.085570 -0.000231
v 0.015730 -0.026563 -0.000231
v 0.000500 0.043579 0.020077
v 0.000500 0.089262 -0.000231
v 0.016192 0.030664 0.020077
v 0.012960 0.073112 0.000232
v 0.006039 0.012662 0.000232
v 0.006039 0.012662 0.019614
v 0.009730 0.081422 0.020077
v 0.016191 -0.027032 0.000232
v 0.015269 -0.026563 0.000232
v 0.016191 -0.027032 0.020077
v 0.010653 0.079570 0.000232
v 0.015269 -0.026563 0.020077
v 0.003270 0.088805 0.020077
v 0.003270 0.088805 0.000232
v 0.012500 0.073558 -0.000231
v 0.000500 0.043110 0.019614
v 0.006962 0.085102 0.019614
v 0.016192 0.031121 0.019614
v 0.009730 0.081422 0.000232
v 0.000500 0.043110 0.000232
v 0.010653 0.079570 0.020077
v 0.001425 0.089731 0.000232
v 0.016192 0.031121 0.000232
v 0.012500 0.073558 0.020077
v 0.007423 0.008502 -0.000231
f 47 43 63 
f 32 33 34 
f 31 35 37 
f 35 31 38 
f 34 33 39 
f 33 35 39 
f 35 33 40 
f 37 35 40 
f 32 34 41 
f 32 41 45 
f 38 31 46 
f 31 41 46 
f 44 43 47 
f 38 46 47 
f 46 34 47 
f 41 34 48 
f 34 46 48 
f 46 41 48 
f 36 42 49 
f 34 39 50 
f 39 44 50 
f 44 47 50 
f 47 34 50 
f 32 45 51 
f 37 40 52 
f 32 51 52 
f 51 37 52 
f 31 37 53 
f 42 31 53 
f 49 42 53 
f 39 35 54 
f 44 39 54 
f 43 44 54 
f 37 51 55 
f 51 45 55 
f 41 31 56 
f 36 41 56 
f 42 36 56 
f 45 49 57 
f 53 37 57 
f 49 53 57 
f 37 55 57 
f 55 45 57 
f 35 43 58 
f 54 35 58 
f 43 54 58 
f 45 41 59 
f 36 49 59 
f 49 45 59 
f 33 32 60 
f 40 33 60 
f 32 52 60 
f 52 40 60 
f 31 42 61 
f 56 31 61 
f 42 56 61 
f 41 36 62 
f 36 59 62 
f 59 41 62 
f 35 38 63 
f 43 35 63 
f 38 47 63 
o convex_2
v -0.021654 -0.090262 -0.000231
v -0.015192 0.011269 0.020077
v -0.015192 0.011269 -0.000231
v -0.030884 -0.030735 0.019614
v -0.017501 -0.088414 0.020077
v -0.029961 -0.089333 0.000232
v -0.029961 -0.025663 0.000232
v -0.029499 -0.089802 0.020077
v -0.015194 -0.071341 0.000232
v -0.021654 0.011269 0.020077
v -0.021654 0.011269 -0.000231
v -0.015194 -0.071341 0.020077
v -0.017501 -0.088414 -0.000231
v -0.030884 -0.052421 0.000232
v -0.030884 -0.052421 0.019614
v -0.030422 -0.030735 -0.000231
v -0.018424 -0.090731 0.020077
v -0.029961 -0.089333 0.019614
v -0.030422 -0.030276 0.020077
v -0.030884 -0.030735 0.000232
v -0.029499 -0.089333 -0.000231
v -0.021654 -0.090731 0.000232
v -0.016115 -0.080107 0.019614
v -0.029961 -0.025663 0.019614
v -0.018424 -0.090731 0.000232
v -0.016115 -0.080107 0.000232
v -0.015655 -0.071800 -0.000231
v -0.029499 -0.089802 0.000232
v -0.021654 -0.090731 0.019614
v -0.017501 -0.088884 0.019614
f 89 86 93 
f 68 65 71 
f 66 65 72 
f 65 66 73 
f 71 65 73 
f 66 64 74 
f 73 66 74 
f 70 73 74 
f 65 68 75 
f 72 65 75 
f 64 66 76 
f 77 69 78 
f 67 77 78 
f 74 64 79 
f 70 74 79 
f 68 71 80 
f 69 71 81 
f 71 78 81 
f 78 69 81 
f 71 73 82 
f 67 78 82 
f 78 71 82 
f 67 70 83 
f 77 67 83 
f 70 79 83 
f 79 77 83 
f 69 77 84 
f 79 64 84 
f 77 79 84 
f 84 64 85 
f 75 68 86 
f 72 75 86 
f 70 67 87 
f 73 70 87 
f 67 82 87 
f 82 73 87 
f 64 76 88 
f 85 64 88 
f 80 85 88 
f 72 86 89 
f 66 72 90 
f 76 66 90 
f 72 89 90 
f 89 76 90 
f 71 69 91 
f 69 84 91 
f 85 71 91 
f 84 85 91 
f 80 71 92 
f 71 85 92 
f 85 80 92 
f 68 80 93 
f 86 68 93 
f 88 76 93 
f 80 88 93 
f 76 89 93 
o convex_3
v 0.019424 -0.090264 -0.000231
v 0.021731 0.010808 0.020077
v 0.021731 0.010808 0.000232
v 0.031885 -0.046422 0.019614
v 0.016192 -0.077333 0.020077
v 0.029576 -0.089339 -0.000231
v 0.016192 0.010808 -0.000231
v 0.029576 -0.089339 0.020077
v 0.031885 -0.036741 0.000232
v 0.016192 0.010808 0.020077
v 0.016192 -0.077333 0.000232
v 0.018501 -0.089806 0.020077
v 0.030960 -0.029814 0.019614
v 0.029576 -0.024735 -0.000231
v 0.017117 -0.086109 0.000232
v 0.031885 -0.046422 0.000232
v 0.021270 -0.090731 0.020077
v 0.031422 -0.036274 0.020077
v 0.030960 -0.029814 0.000232
v 0.029576 -0.089806 0.000232
v 0.017117 -0.086109 0.019614
v 0.031885 -0.036741 0.019614
v 0.019424 -0.090731 0.000232
v 0.016655 -0.077800 -0.000231
v 0.029576 -0.089806 0.019614
v 0.021270 0.010808 -0.000231
v 0.031422 -0.036741 -0.000231
v 0.018501 -0.089806 0.000232
v 0.021270 -0.090731 0.000232
v 0.019424 -0.090731 0.020077
f 116 110 123 
f 95 96 100 
f 99 94 100 
f 95 98 101 
f 98 95 103 
f 95 100 103 
f 100 98 103 
f 98 100 104 
f 101 98 105 
f 96 95 106 
f 99 100 107 
f 98 104 108 
f 102 97 109 
f 101 105 110 
f 95 101 111 
f 101 97 111 
f 106 95 111 
f 96 106 112 
f 106 102 112 
f 107 96 112 
f 109 97 113 
f 99 109 113 
f 105 98 114 
f 98 108 114 
f 108 105 114 
f 97 102 115 
f 102 106 115 
f 111 97 115 
f 106 111 115 
f 100 94 117 
f 104 100 117 
f 94 108 117 
f 108 104 117 
f 97 101 118 
f 101 110 118 
f 113 97 118 
f 110 113 118 
f 100 96 119 
f 96 107 119 
f 107 100 119 
f 99 107 120 
f 109 99 120 
f 102 109 120 
f 112 102 120 
f 107 112 120 
f 108 94 121 
f 105 108 121 
f 94 116 121 
f 116 105 121 
f 94 99 122 
f 99 113 122 
f 113 110 122 
f 116 94 122 
f 110 116 122 
f 110 105 123 
f 105 116 123 
o convex_4
v -0.037344 0.021422 -0.000231
v -0.024424 0.024653 0.020077
v -0.034576 0.025577 0.020077
v -0.024887 0.015885 0.020077
v -0.024424 0.024653 -0.000231
v -0.024424 0.015885 -0.000231
v -0.037805 0.021422 0.019614
v -0.038729 0.024653 0.000232
v -0.036422 0.025577 -0.000231
v -0.038729 0.024653 0.019614
v -0.026732 0.016347 0.000232
v -0.038729 0.022345 0.000232
v -0.026732 0.016347 0.019614
v -0.024424 0.015885 0.020077
v -0.038729 0.022808 0.020077
v -0.037805 0.021422 0.000232
v -0.036422 0.025577 0.020077
v -0.034576 0.025577 -0.000231
f 132 126 141 
f 125 126 127 
f 126 125 128 
f 128 125 129 
f 124 128 129 
f 128 124 132 
f 124 131 132 
f 132 131 133 
f 129 127 134 
f 124 129 134 
f 131 124 135 
f 133 131 135 
f 127 130 136 
f 134 127 136 
f 130 134 136 
f 125 127 137 
f 129 125 137 
f 127 129 137 
f 127 126 138 
f 130 127 138 
f 135 130 138 
f 133 135 138 
f 124 134 139 
f 134 130 139 
f 135 124 139 
f 130 135 139 
f 126 132 140 
f 132 133 140 
f 138 126 140 
f 133 138 140 
f 126 128 141 
f 128 132 141 
o convex_5
v -0.024423 0.015424 -0.000231
v -0.015192 0.031577 0.020077
v -0.015192 0.031577 0.000232
v -0.015192 0.011269 -0.000231
v -0.021654 0.011269 0.020077
v -0.024423 0.024651 0.020077
v -0.015192 0.011269 0.020077
v -0.024423 0.024651 -0.000231
v -0.021654 0.011269 -0.000231
v -0.024423 0.015424 0.020077
v -0.015654 0.031577 0.020077
v -0.023500 0.013116 0.019614
v -0.023500 0.025576 -0.000231
v -0.015192 0.031112 -0.000231
v -0.015654 0.031577 0.000232
v -0.023500 0.013116 0.000232
v -0.023500 0.025576 0.020077
f 152 154 158 
f 144 143 145 
f 146 143 147 
f 145 143 148 
f 146 145 148 
f 143 146 148 
f 145 142 149 
f 142 147 149 
f 142 145 150 
f 145 146 150 
f 146 147 151 
f 147 142 151 
f 143 144 152 
f 147 143 152 
f 150 146 153 
f 151 142 153 
f 146 151 153 
f 145 149 154 
f 149 147 154 
f 144 145 155 
f 145 154 155 
f 155 154 156 
f 152 144 156 
f 154 152 156 
f 144 155 156 
f 142 150 157 
f 153 142 157 
f 150 153 157 
f 147 152 158 
f 154 147 158 
o convex_6
v 0.026808 0.016809 0.020077
v 0.016192 0.010808 -0.000231
v 0.016192 0.030191 -0.000231
v 0.016192 0.010808 0.020077
v 0.016192 0.030654 0.019614
v 0.026808 0.024653 -0.000231
v 0.022191 0.010808 0.000232
v 0.026808 0.024653 0.020077
v 0.026808 0.016809 -0.000231
v 0.022191 0.010808 0.019614
v 0.016655 0.030654 0.000232
v 0.016192 0.030191 0.020077
v 0.016655 0.030654 0.019614
v 0.022653 0.011270 0.000232
f 168 165 172 
f 161 160 162 
f 161 162 163 
f 160 161 164 
f 162 160 165 
f 162 159 166 
f 159 164 166 
f 160 164 167 
f 164 159 167 
f 165 160 167 
f 159 162 168 
f 162 165 168 
f 161 163 169 
f 164 161 169 
f 166 164 169 
f 163 162 170 
f 162 166 170 
f 170 166 171 
f 169 163 171 
f 166 169 171 
f 163 170 171 
f 167 159 172 
f 165 167 172 
f 159 168 172 
o convex_7
v 0.026808 0.017269 -0.000231
v 0.038808 0.024191 0.020077
v 0.037423 0.025577 0.020077
v 0.037423 0.025577 -0.000231
v 0.026808 0.024652 0.020077
v 0.026808 0.017269 0.020077
v 0.038808 0.021423 0.000232
v 0.026808 0.024652 -0.000231
v 0.038808 0.021423 0.019614
v 0.027270 0.017269 -0.000231
v 0.038808 0.024191 0.000232
v 0.035576 0.025577 -0.000231
v 0.027270 0.017269 0.020077
v 0.035576 0.025577 0.020077
v 0.038346 0.021423 -0.000231
f 183 179 187 
f 175 174 176 
f 174 175 177 
f 177 173 178 
f 174 177 178 
f 176 173 180 
f 173 177 180 
f 179 174 181 
f 179 181 182 
f 173 176 182 
f 178 173 182 
f 176 174 183 
f 174 179 183 
f 175 176 184 
f 176 180 184 
f 180 177 184 
f 174 178 185 
f 181 174 185 
f 182 181 185 
f 178 182 185 
f 177 175 186 
f 175 184 186 
f 184 177 186 
f 179 182 187 
f 182 176 187 
f 176 183 187 
