o convex_0
v -0.002037 0.024195 -0.000181
v 0.000890 0.089311 0.020301
v 0.001256 0.089311 0.019936
v 0.002354 0.024195 0.019571
v 0.002354 0.085285 0.000186
v -0.002037 0.087478 0.019936
v -0.002037 0.087119 -0.000179
v -0.002037 0.024195 0.019938
v 0.002354 0.024195 0.000186
v 0.002354 0.085292 0.019573
v 0.000890 0.089311 -0.000179
v 0.001622 0.024195 0.020301
v -0.000939 0.089683 0.000186
v -0.001670 0.024195 0.020301
v 0.001988 0.024195 -0.000179
v -0.000939 0.089683 0.019936
v -0.001670 0.087478 0.020301
v 0.000890 0.089683 0.000186
v 0.001622 0.085651 0.020301
v 0.001988 0.085292 -0.000179
v 0.001256 0.089311 0.000186
v -0.001305 0.089311 0.000186
v 0.000890 0.089683 0.019936
v -0.001305 0.089311 0.019571
f 16 22 24 
f 1 6 7 
f 1 4 8 
f 6 1 8 
f 4 1 9 
f 5 4 9 
f 4 5 10 
f 1 7 11 
f 8 4 12 
f 4 10 12 
f 11 7 13 
f 12 2 14 
f 8 12 14 
f 9 1 15 
f 5 9 15 
f 6 8 17 
f 14 2 17 
f 8 14 17 
f 2 16 17 
f 16 6 17 
f 11 13 18 
f 13 16 18 
f 3 2 19 
f 10 3 19 
f 2 12 19 
f 12 10 19 
f 1 11 20 
f 15 1 20 
f 5 15 20 
f 3 10 21 
f 10 5 21 
f 18 3 21 
f 11 18 21 
f 5 20 21 
f 20 11 21 
f 7 6 22 
f 13 7 22 
f 16 13 22 
f 2 3 23 
f 16 2 23 
f 3 18 23 
f 18 16 23 
f 6 16 24 
f 22 6 24 
o convex_1
v 0.008572 -0.082627 0.020303
v -0.011183 -0.065436 0.000186
v -0.011183 -0.065436 0.019936
v 0.007108 -0.018617 0.000186
v -0.007889 -0.018610 0.020303
v 0.004913 -0.089216 -0.000179
v 0.008207 -0.022645 0.019936
v -0.008256 -0.018610 0.000186
v -0.007889 -0.086288 0.020303
v 0.011134 -0.059581 0.000186
v -0.007889 -0.086288 -0.000179
v 0.011134 -0.043490 0.019936
v -0.011183 -0.038736 0.019936
v 0.001621 -0.090676 0.019936
v 0.010035 -0.031787 -0.000179
v 0.009304 -0.082267 0.000186
v -0.010816 -0.038736 -0.000179
v 0.006743 -0.018617 0.020303
v 0.010035 -0.076412 0.019936
v -0.002036 -0.090676 0.000186
v -0.009352 -0.083361 0.000186
v 0.007108 -0.087389 0.019936
v -0.004961 -0.089575 0.019936
v -0.010084 -0.078606 0.019571
v 0.011134 -0.043490 0.000186
v 0.011134 -0.059214 0.019936
v -0.011183 -0.038736 0.000186
v 0.009304 -0.026666 0.019571
v -0.007889 -0.018610 -0.000179
v 0.010035 -0.076038 -0.000179
v -0.008256 -0.018610 0.019936
v 0.007108 -0.087389 0.000186
v 0.009304 -0.082267 0.019571
v -0.004961 -0.089575 0.000186
v -0.008256 -0.086288 0.019936
v 0.001988 -0.090676 0.000186
v 0.004913 -0.089575 0.019936
v -0.010816 -0.065436 0.020303
v 0.009304 -0.026666 0.000186
v 0.010767 -0.043490 0.020303
v 0.010035 -0.031420 0.019936
v -0.010084 -0.078606 0.000186
v -0.002036 -0.090676 0.019571
v 0.006743 -0.018617 -0.000179
v -0.009352 -0.083361 0.019571
v -0.010084 -0.030694 0.000186
v 0.001621 -0.090309 0.020303
v -0.008256 -0.086288 0.000186
v 0.004913 -0.089575 0.000186
v -0.010816 -0.065436 -0.000179
v 0.008207 -0.085188 0.019936
v 0.007108 -0.018617 0.019936
v -0.010084 -0.030694 0.019936
v -0.010816 -0.038736 0.020303
v 0.010767 -0.059214 0.020303
v 0.008207 -0.085188 0.000186
v 0.010767 -0.043490 -0.000179
v -0.002036 -0.090309 -0.000179
v -0.009719 -0.078239 0.020303
v 0.010035 -0.076412 0.000186
v 0.010035 -0.031420 0.000186
v 0.007840 -0.085554 -0.000179
v 0.006743 -0.087389 0.020303
v 0.009671 -0.031420 0.020303
f 36 65 88 
f 25 29 33 
f 26 27 37 
f 30 35 39 
f 39 35 41 
f 29 25 42 
f 27 26 48 
f 36 34 49 
f 34 36 50 
f 43 34 50 
f 26 37 51 
f 41 26 51 
f 29 28 53 
f 32 29 53 
f 39 41 53 
f 30 39 54 
f 29 32 55 
f 43 25 57 
f 40 43 57 
f 44 47 58 
f 58 47 59 
f 47 33 59 
f 38 44 60 
f 56 46 61 
f 38 60 61 
f 33 29 62 
f 37 27 62 
f 28 31 63 
f 31 52 63 
f 42 25 64 
f 50 36 64 
f 36 49 65 
f 52 31 65 
f 63 52 65 
f 35 45 66 
f 48 26 66 
f 45 48 66 
f 44 38 67 
f 47 44 67 
f 53 28 68 
f 39 53 68 
f 28 63 68 
f 63 39 68 
f 48 45 69 
f 45 59 69 
f 59 33 69 
f 51 37 70 
f 41 51 70 
f 32 53 70 
f 53 41 70 
f 55 32 70 
f 25 33 71 
f 33 47 71 
f 38 61 71 
f 67 38 71 
f 47 67 71 
f 45 35 72 
f 35 58 72 
f 58 59 72 
f 59 45 72 
f 30 56 73 
f 60 30 73 
f 56 61 73 
f 61 60 73 
f 26 41 74 
f 41 35 74 
f 66 26 74 
f 35 66 74 
f 46 56 75 
f 57 25 75 
f 40 57 75 
f 28 29 76 
f 31 28 76 
f 29 42 76 
f 42 31 76 
f 29 55 77 
f 70 37 77 
f 55 70 77 
f 62 29 78 
f 37 62 78 
f 29 77 78 
f 77 37 78 
f 25 43 79 
f 43 50 79 
f 64 25 79 
f 50 64 79 
f 40 75 80 
f 75 56 80 
f 49 34 81 
f 39 49 81 
f 54 39 81 
f 34 54 81 
f 35 30 82 
f 58 35 82 
f 44 58 82 
f 30 60 82 
f 60 44 82 
f 27 48 83 
f 33 62 83 
f 62 27 83 
f 69 33 83 
f 48 69 83 
f 34 43 84 
f 43 40 84 
f 54 34 84 
f 40 54 84 
f 49 39 85 
f 39 63 85 
f 65 49 85 
f 63 65 85 
f 30 54 86 
f 54 40 86 
f 56 30 86 
f 40 80 86 
f 80 56 86 
f 61 46 87 
f 25 71 87 
f 71 61 87 
f 75 25 87 
f 46 75 87 
f 31 42 88 
f 42 64 88 
f 64 36 88 
f 65 31 88 
o convex_2
v 0.002353 0.024195 0.000186
v -0.011183 0.000781 0.000186
v -0.010815 0.000417 -0.000179
v 0.006742 -0.018610 0.020303
v -0.006792 0.021266 0.020303
v 0.006742 -0.018610 -0.000179
v -0.008256 -0.018606 0.019936
v 0.010037 0.009555 0.019936
v -0.008256 -0.018606 0.000186
v 0.010037 0.009191 -0.000179
v 0.006742 0.021266 0.020303
v -0.007889 0.019435 -0.000179
v -0.011183 0.005168 0.019936
v 0.010037 -0.004339 0.019936
v 0.007108 0.021266 0.000186
v -0.002401 0.024195 0.019936
v 0.010037 -0.004339 -0.000179
v -0.005693 0.022729 0.000186
v -0.009353 0.015044 0.000186
v -0.008256 0.019435 0.019571
v -0.010815 0.000781 0.020303
v 0.002353 0.024195 0.019936
v 0.007108 -0.018610 0.019936
v -0.002035 0.024195 -0.000179
v -0.011183 0.005533 0.000186
v -0.011183 0.000781 0.019936
v 0.005646 0.022729 0.019936
v 0.009303 0.013217 0.019571
v -0.007889 -0.018606 0.020303
v 0.007108 -0.018610 0.000186
v -0.007889 -0.018606 -0.000179
v 0.006011 0.022364 -0.000179
v 0.007108 0.021266 0.019936
v -0.009353 0.015044 0.019571
v -0.005693 0.022729 0.019936
v 0.009303 0.013217 0.000186
v 0.009669 0.009555 0.020303
v -0.008256 0.019435 0.000186
v 0.009303 -0.008365 0.019571
v -0.007158 0.021266 0.019936
v 0.009303 -0.008365 0.000186
v -0.007158 0.021266 0.000186
v 0.001988 0.024195 0.020303
v 0.009669 -0.004339 0.020303
v 0.005646 0.022729 0.000186
v -0.011183 0.005533 0.019571
v -0.007889 0.019067 0.020303
v -0.002401 0.024195 0.000186
v -0.010815 0.005533 -0.000179
f 113 107 137 
f 94 92 95 
f 90 91 97 
f 94 95 97 
f 95 90 97 
f 94 91 98 
f 93 92 99 
f 98 91 100 
f 98 96 102 
f 94 98 105 
f 98 102 105 
f 92 93 109 
f 89 104 110 
f 92 94 111 
f 102 92 111 
f 98 100 112 
f 104 89 112 
f 100 106 112 
f 91 90 113 
f 90 101 113 
f 90 95 114 
f 101 90 114 
f 95 109 114 
f 109 101 114 
f 89 110 115 
f 95 92 117 
f 92 109 117 
f 109 95 117 
f 94 105 118 
f 111 94 118 
f 91 94 119 
f 97 91 119 
f 94 97 119 
f 103 98 120 
f 98 112 120 
f 112 89 120 
f 120 115 121 
f 99 96 121 
f 115 99 121 
f 96 116 121 
f 116 103 121 
f 103 120 121 
f 108 107 122 
f 107 113 122 
f 93 104 123 
f 104 106 123 
f 96 98 124 
f 98 103 124 
f 116 96 124 
f 103 116 124 
f 96 99 125 
f 99 92 125 
f 102 96 125 
f 100 107 126 
f 107 108 126 
f 105 102 127 
f 102 111 127 
f 111 118 127 
f 93 123 128 
f 123 106 128 
f 126 108 128 
f 118 105 129 
f 105 127 129 
f 127 118 129 
f 106 100 130 
f 100 126 130 
f 128 106 130 
f 126 128 130 
f 93 99 131 
f 104 93 131 
f 110 104 131 
f 99 115 131 
f 115 110 131 
f 92 102 132 
f 125 92 132 
f 102 125 132 
f 89 115 133 
f 120 89 133 
f 115 120 133 
f 113 101 134 
f 101 122 134 
f 122 113 134 
f 109 93 135 
f 101 109 135 
f 122 101 135 
f 108 122 135 
f 93 128 135 
f 128 108 135 
f 106 104 136 
f 104 112 136 
f 112 106 136 
f 100 91 137 
f 107 100 137 
f 91 113 137 
