o convex_0
v 0.001687 -0.073250 0.001315
v -0.000643 -0.054623 0.021990
v 0.000522 -0.054032 0.021986
v -0.004136 -0.019951 0.004517
v 0.008967 -0.028403 0.010341
v -0.008506 -0.081694 0.011504
v 0.007512 -0.083440 0.014416
v -0.005301 -0.020247 0.016453
v -0.009670 -0.054904 0.005100
v 0.009550 -0.053736 0.005100
v 0.005765 -0.019951 0.015872
v -0.009961 -0.055186 0.016162
v -0.002681 -0.083151 0.018784
v 0.009258 -0.055186 0.017328
v -0.002681 -0.087232 0.005100
v 0.003725 -0.020247 0.004227
v -0.000643 -0.054032 -0.000143
v 0.006347 -0.083735 0.005682
v -0.009088 -0.029275 0.010343
v 0.010716 -0.060724 0.008594
v -0.000934 -0.089843 0.013250
v 0.003433 -0.083151 0.018491
v -0.005885 -0.078781 0.003934
v 0.002560 -0.028994 0.019657
v 0.004307 -0.055193 0.000730
v -0.003845 -0.054616 0.021407
v -0.007341 -0.053743 0.002478
v -0.006177 -0.083440 0.016453
v -0.010837 -0.058683 0.013250
v -0.001516 -0.029275 0.001895
v 0.007220 -0.058099 0.019367
v -0.003845 -0.030155 0.019367
v 0.006929 -0.019951 0.007721
v -0.006468 -0.019951 0.006846
v 0.003433 -0.089562 0.009760
v 0.004889 -0.029275 0.003059
v -0.007050 -0.085480 0.008304
v 0.006929 -0.030739 0.017330
v -0.001807 -0.019951 0.018203
v -0.008506 -0.031028 0.014999
v -0.001225 -0.083440 0.002768
v 0.008094 -0.083735 0.010050
v -0.007050 -0.031612 0.004517
v 0.008676 -0.029571 0.014123
v 0.002560 -0.088105 0.015872
v 0.000229 -0.068296 0.021113
v 0.010716 -0.051414 0.008885
v 0.008385 -0.029859 0.006846
v -0.007341 -0.019951 0.012668
v -0.008506 -0.071786 0.005680
v 0.001687 -0.031893 0.001605
v 0.003433 -0.083440 0.003351
v 0.009841 -0.056643 0.016162
v 0.008967 -0.065671 0.005390
v -0.004721 -0.088682 0.012668
v -0.008797 -0.070330 0.015872
v -0.003554 -0.063046 0.021115
v -0.000351 -0.062758 0.000149
v -0.005885 -0.028987 0.017911
v 0.007220 -0.074411 0.017330
v -0.010837 -0.053159 0.013250
v -0.000934 -0.031893 0.020240
v -0.000934 -0.089562 0.007429
v -0.007341 -0.061885 0.002768
f 58 23 64 
f 4 16 30 
f 17 27 30 
f 24 3 31 
f 4 11 33 
f 11 5 33 
f 16 4 33 
f 11 4 34 
f 10 25 36 
f 16 33 36 
f 23 15 37 
f 11 24 38 
f 31 14 38 
f 24 31 38 
f 24 11 39 
f 8 32 39 
f 11 34 39 
f 15 23 41 
f 20 7 42 
f 7 35 42 
f 35 18 42 
f 9 19 43 
f 27 9 43 
f 4 30 43 
f 30 27 43 
f 34 4 43 
f 19 34 43 
f 5 11 44 
f 11 38 44 
f 38 14 44 
f 13 21 45 
f 22 13 45 
f 7 22 45 
f 35 7 45 
f 21 35 45 
f 3 2 46 
f 13 22 46 
f 31 3 46 
f 22 31 46 
f 20 10 47 
f 5 44 47 
f 33 5 48 
f 10 36 48 
f 36 33 48 
f 5 47 48 
f 47 10 48 
f 34 19 49 
f 8 39 49 
f 39 34 49 
f 40 8 49 
f 19 40 49 
f 6 29 50 
f 29 9 50 
f 37 6 50 
f 23 37 50 
f 25 17 51 
f 30 16 51 
f 17 30 51 
f 36 25 51 
f 16 36 51 
f 1 25 52 
f 18 35 52 
f 41 1 52 
f 15 41 52 
f 7 20 53 
f 44 14 53 
f 20 47 53 
f 47 44 53 
f 10 20 54 
f 25 10 54 
f 20 42 54 
f 42 18 54 
f 52 25 54 
f 18 52 54 
f 21 13 55 
f 28 6 55 
f 13 28 55 
f 6 37 55 
f 6 28 56 
f 29 6 56 
f 12 29 56 
f 26 12 57 
f 2 26 57 
f 28 13 57 
f 46 2 57 
f 13 46 57 
f 12 56 57 
f 56 28 57 
f 25 1 58 
f 17 25 58 
f 1 41 58 
f 41 23 58 
f 12 26 59 
f 32 8 59 
f 26 32 59 
f 8 40 59 
f 40 12 59 
f 22 7 60 
f 14 31 60 
f 31 22 60 
f 7 53 60 
f 53 14 60 
f 19 9 61 
f 9 29 61 
f 29 12 61 
f 40 19 61 
f 12 40 61 
f 2 3 62 
f 3 24 62 
f 26 2 62 
f 32 26 62 
f 24 39 62 
f 39 32 62 
f 35 21 63 
f 37 15 63 
f 52 35 63 
f 15 52 63 
f 21 55 63 
f 55 37 63 
f 9 27 64 
f 27 17 64 
f 50 9 64 
f 23 50 64 
f 17 58 64 
o convex_1
v 0.000814 -0.019367 0.018493
v -0.001809 -0.006264 0.001602
v -0.002681 -0.009468 0.001896
v -0.008797 -0.005391 0.014415
v 0.008968 -0.005389 0.014125
v 0.001978 -0.019951 0.003642
v -0.007341 -0.019951 0.009178
v 0.001396 -0.005391 0.020243
v 0.007220 -0.019951 0.008594
v 0.007802 -0.005389 0.005390
v -0.007923 -0.005391 0.005682
v -0.004139 -0.019951 0.017329
v -0.001515 -0.003641 0.006554
v 0.005764 -0.019951 0.015871
v -0.003555 -0.005391 0.019657
v -0.004139 -0.019951 0.004516
v 0.002560 -0.003641 0.014707
v 0.004890 -0.009178 0.002768
v 0.005180 -0.009468 0.018785
v 0.009260 -0.009759 0.011212
v -0.009381 -0.009178 0.011503
v -0.006759 -0.019951 0.014415
v -0.006467 -0.008593 0.017911
v -0.004139 -0.003641 0.012960
v 0.001688 -0.005391 0.001602
v -0.007923 -0.009178 0.005682
v 0.004016 -0.003641 0.008592
v -0.002391 -0.009468 0.019951
v 0.006054 -0.019951 0.006264
v 0.007220 -0.019951 0.013251
v 0.007512 -0.005389 0.016745
v -0.004429 -0.005391 0.002478
v 0.008386 -0.009468 0.006554
v 0.008094 -0.009176 0.015873
v 0.009260 -0.005389 0.008886
v 0.001688 -0.009178 0.001602
v -0.000641 -0.019951 0.003350
v -0.009381 -0.005391 0.009760
v -0.005593 -0.009757 0.003350
v -0.008505 -0.009468 0.014999
v 0.002560 -0.009468 0.019951
v 0.002852 -0.019951 0.017913
v -0.009089 -0.009468 0.008594
v -0.006467 -0.019951 0.006846
v 0.004890 -0.005391 0.019077
v -0.007049 -0.005391 0.017329
v -0.003847 -0.003641 0.008302
v -0.001225 -0.003641 0.015291
v -0.007341 -0.019951 0.012669
v 0.004890 -0.005391 0.002768
v 0.007220 -0.009468 0.004808
v 0.004598 -0.019951 0.004806
v 0.009260 -0.009176 0.012669
v -0.001809 -0.019951 0.018203
v -0.000933 -0.009178 0.020243
v -0.004721 -0.009468 0.019075
v 0.004308 -0.003641 0.012669
v 0.008968 -0.009759 0.008302
v 0.007512 -0.019951 0.010050
v 0.002270 -0.003641 0.006846
v 0.006638 -0.009468 0.017621
v -0.007049 -0.009178 0.004516
v 0.004598 -0.019951 0.017037
v -0.005593 -0.019659 0.016163
f 87 104 128 
f 71 70 73 
f 71 73 76 
f 76 73 78 
f 70 71 80 
f 71 76 86 
f 81 77 88 
f 77 81 91 
f 73 70 93 
f 78 73 94 
f 66 67 96 
f 89 66 96 
f 77 89 96 
f 73 93 97 
f 78 94 98 
f 69 95 98 
f 74 91 99 
f 97 74 99 
f 67 66 100 
f 82 70 100 
f 66 89 100 
f 89 82 100 
f 80 67 101 
f 70 80 101 
f 67 100 101 
f 100 70 101 
f 85 68 102 
f 68 88 102 
f 67 80 103 
f 96 67 103 
f 68 85 104 
f 76 78 106 
f 105 65 106 
f 83 105 106 
f 71 85 107 
f 75 90 107 
f 85 102 107 
f 102 75 107 
f 80 71 108 
f 71 107 108 
f 107 90 108 
f 81 72 109 
f 95 81 109 
f 105 83 109 
f 72 105 109 
f 87 79 110 
f 88 68 110 
f 68 104 110 
f 104 87 110 
f 88 77 111 
f 96 75 111 
f 77 96 111 
f 102 88 111 
f 75 102 111 
f 79 72 112 
f 72 81 112 
f 81 88 112 
f 110 79 112 
f 88 110 112 
f 85 71 113 
f 71 86 113 
f 104 85 113 
f 86 104 113 
f 82 89 114 
f 74 97 115 
f 97 93 115 
f 114 74 115 
f 82 114 115 
f 70 82 116 
f 93 70 116 
f 82 115 116 
f 115 93 116 
f 69 98 117 
f 98 94 117 
f 99 69 117 
f 84 99 117 
f 92 76 118 
f 106 65 118 
f 76 106 118 
f 72 79 119 
f 79 92 119 
f 65 105 119 
f 105 72 119 
f 118 65 119 
f 92 118 119 
f 79 87 120 
f 87 76 120 
f 76 92 120 
f 92 79 120 
f 91 81 121 
f 95 69 121 
f 81 95 121 
f 69 99 121 
f 99 91 121 
f 73 97 122 
f 99 84 122 
f 97 99 122 
f 94 73 123 
f 84 117 123 
f 117 94 123 
f 73 122 123 
f 122 84 123 
f 89 77 124 
f 91 74 124 
f 77 91 124 
f 74 114 124 
f 114 89 124 
f 78 98 125 
f 98 95 125 
f 95 109 125 
f 109 83 125 
f 90 75 126 
f 75 96 126 
f 103 80 126 
f 96 103 126 
f 80 108 126 
f 108 90 126 
f 106 78 127 
f 83 106 127 
f 78 125 127 
f 125 83 127 
f 86 76 128 
f 76 87 128 
f 104 86 128 
o convex_2
v 0.004308 -0.003641 0.010923
v -0.004138 -0.003641 0.009467
v -0.004138 -0.003641 0.012378
v 0.002852 0.018786 0.009467
v -0.001225 0.018786 0.013834
v 0.001396 -0.003641 0.015000
v 0.001396 -0.003641 0.006845
v -0.002681 0.018786 0.009175
v 0.002852 0.018786 0.012378
v -0.001516 0.001606 0.006845
v 0.000522 0.017037 0.007720
v -0.001516 -0.003641 0.015000
v -0.002972 0.018786 0.012087
v 0.003726 0.001606 0.008594
v 0.003726 0.001606 0.013251
v 0.001104 0.018786 0.013834
v -0.003263 0.001606 0.013834
v -0.002681 -0.003641 0.007428
v -0.004138 0.001606 0.009467
v 0.002270 0.001606 0.007137
v 0.001396 0.001606 0.015000
v 0.004308 0.001606 0.010923
v -0.001225 0.018786 0.008011
v -0.002681 0.001606 0.007428
v -0.001516 0.001606 0.015000
v -0.004138 0.001606 0.012378
v 0.002270 0.018494 0.008594
v 0.003726 -0.003641 0.008594
v 0.003726 -0.003641 0.013251
v 0.002561 0.001606 0.014417
v 0.001396 0.001606 0.006845
v 0.004308 0.001606 0.011795
v 0.003143 0.018202 0.011504
v -0.003554 0.001606 0.008302
v 0.001978 0.017621 0.013542
v -0.002972 0.018786 0.009758
v -0.001807 0.018786 0.013542
v 0.001396 0.018494 0.008011
v -0.002681 -0.003641 0.014417
v 0.004017 0.001606 0.009175
v -0.001516 -0.003641 0.006845
v -0.002681 0.001606 0.014417
v -0.000642 0.015581 0.014125
v -0.003554 0.001606 0.013542
v 0.002270 -0.003641 0.007137
v -0.002681 0.018786 0.012669
v -0.001807 0.018786 0.008302
v 0.003143 0.017329 0.010341
f 150 168 176 
f 131 130 129 
f 131 129 134 
f 129 130 135 
f 133 132 136 
f 132 133 137 
f 131 134 140 
f 133 136 141 
f 137 133 144 
f 135 130 146 
f 130 131 147 
f 140 134 149 
f 136 132 151 
f 139 138 151 
f 138 146 152 
f 151 138 152 
f 140 149 153 
f 147 131 154 
f 141 147 154 
f 132 142 155 
f 142 148 155 
f 129 135 156 
f 148 142 156 
f 134 129 157 
f 157 143 158 
f 149 134 158 
f 134 157 158 
f 135 138 159 
f 138 139 159 
f 148 135 159 
f 137 143 160 
f 129 150 160 
f 157 129 160 
f 143 157 160 
f 132 137 161 
f 137 160 161 
f 160 150 161 
f 146 130 162 
f 130 147 162 
f 147 136 162 
f 152 146 162 
f 136 152 162 
f 143 137 163 
f 137 144 163 
f 144 149 163 
f 158 143 163 
f 149 158 163 
f 141 136 164 
f 147 141 164 
f 136 147 164 
f 133 141 165 
f 153 133 165 
f 151 132 166 
f 139 151 166 
f 132 155 166 
f 155 148 166 
f 159 139 166 
f 148 159 166 
f 131 140 167 
f 140 153 167 
f 142 132 168 
f 150 129 168 
f 129 156 168 
f 156 142 168 
f 138 135 169 
f 135 146 169 
f 146 138 169 
f 153 165 170 
f 145 167 170 
f 167 153 170 
f 144 133 171 
f 149 144 171 
f 133 153 171 
f 153 149 171 
f 154 131 172 
f 131 167 172 
f 167 145 172 
f 135 148 173 
f 156 135 173 
f 148 156 173 
f 141 154 174 
f 165 141 174 
f 145 170 174 
f 170 165 174 
f 154 172 174 
f 172 145 174 
f 136 151 175 
f 152 136 175 
f 151 152 175 
f 132 161 176 
f 161 150 176 
f 168 132 176 
o convex_3
v 0.002561 0.088392 0.011505
v -0.002973 0.018786 0.010049
v -0.002973 0.018786 0.011796
v 0.002852 0.018786 0.012087
v 0.001104 0.018786 0.008010
v -0.002099 0.086646 0.009467
v -0.000643 0.067423 0.013835
v 0.001978 0.067423 0.008593
v 0.001104 0.018786 0.013835
v -0.002390 0.086346 0.011796
v -0.000934 0.067123 0.008010
v 0.002852 0.018786 0.009466
v -0.001808 0.018786 0.013543
v 0.001978 0.085186 0.012669
v -0.001808 0.018786 0.008302
v 0.001104 0.082273 0.008593
v -0.002681 0.059551 0.009467
v 0.002852 0.067423 0.010049
v -0.002390 0.067423 0.012669
v 0.001978 0.059272 0.013252
v 0.002561 0.090146 0.010923
v -0.000934 0.082273 0.013252
v -0.002390 0.090146 0.010923
v 0.000813 0.067423 0.008010
v 0.002852 0.067423 0.011796
v 0.001395 0.067423 0.013543
v -0.002973 0.040929 0.010632
v -0.001225 0.018786 0.013835
v -0.002390 0.089852 0.010049
v -0.001225 0.018786 0.008010
v -0.001517 0.064797 0.013543
v -0.002681 0.067423 0.012087
v -0.002681 0.019373 0.012669
v -0.000934 0.083154 0.008593
v -0.001517 0.067423 0.008302
v 0.001978 0.089559 0.011796
v 0.002561 0.018786 0.012669
v 0.000813 0.082853 0.013252
v 0.001978 0.083733 0.009176
v -0.002681 0.021119 0.009176
v 0.001687 0.018786 0.008302
v -0.001808 0.083733 0.012669
v 0.002269 0.067423 0.008884
v 0.001687 0.018786 0.013543
v -0.000060 0.067423 0.013835
v 0.002561 0.067423 0.012378
v 0.001687 0.052294 0.008302
v -0.002390 0.067423 0.009176
v -0.002681 0.067423 0.009758
v 0.001395 0.090146 0.010632
v 0.002561 0.031604 0.012669
v -0.001225 0.090146 0.011213
v 0.002269 0.085480 0.009758
f 219 215 229 
f 179 178 180 
f 180 178 181 
f 179 180 185 
f 180 181 188 
f 179 185 189 
f 181 178 191 
f 180 188 194 
f 181 187 200 
f 192 184 200 
f 180 194 201 
f 197 177 201 
f 194 197 201 
f 196 190 202 
f 178 179 203 
f 193 178 203 
f 185 183 204 
f 189 185 204 
f 187 181 206 
f 181 191 206 
f 195 189 207 
f 183 198 207 
f 204 183 207 
f 189 204 207 
f 195 186 208 
f 186 199 208 
f 203 179 208 
f 179 189 209 
f 189 195 209 
f 208 179 209 
f 195 208 209 
f 200 187 210 
f 192 200 210 
f 182 205 210 
f 205 192 210 
f 187 206 211 
f 206 191 211 
f 182 210 211 
f 210 187 211 
f 190 177 212 
f 177 197 212 
f 185 180 213 
f 198 183 214 
f 202 190 214 
f 190 212 214 
f 212 198 214 
f 184 192 215 
f 191 178 216 
f 178 193 216 
f 211 191 216 
f 188 181 217 
f 186 195 218 
f 199 186 218 
f 198 199 218 
f 195 207 218 
f 207 198 218 
f 188 184 219 
f 194 188 219 
f 184 215 219 
f 202 185 220 
f 196 202 220 
f 185 213 220 
f 213 196 220 
f 183 185 221 
f 185 202 221 
f 214 183 221 
f 202 214 221 
f 177 190 222 
f 190 196 222 
f 201 177 222 
f 184 188 223 
f 181 200 223 
f 200 184 223 
f 217 181 223 
f 188 217 223 
f 205 182 224 
f 182 211 224 
f 216 193 224 
f 211 216 224 
f 193 203 225 
f 199 205 225 
f 208 199 225 
f 203 208 225 
f 205 224 225 
f 224 193 225 
f 199 197 226 
f 192 205 226 
f 205 199 226 
f 215 192 226 
f 197 215 226 
f 180 201 227 
f 213 180 227 
f 196 213 227 
f 222 196 227 
f 201 222 227 
f 197 199 228 
f 199 198 228 
f 212 197 228 
f 198 212 228 
f 197 194 229 
f 215 197 229 
f 194 219 229 
