o convex_0
v 0.002258 0.064378 0.008718
v -0.002303 0.000000 0.008182
v -0.002034 0.000000 0.007377
v -0.002303 0.067601 0.008182
v 0.000648 0.000000 0.010864
v 0.001721 0.000000 0.006841
v 0.000380 0.067601 0.006304
v -0.000693 0.067601 0.010864
v -0.001766 0.000000 0.010328
v 0.001989 0.000000 0.010060
v 0.001452 0.067601 0.010596
v -0.001229 0.000000 0.006573
v -0.001766 0.067601 0.006841
v 0.001721 0.067601 0.006841
v -0.002034 0.067601 0.009791
v 0.002258 0.000000 0.007914
v 0.000380 0.000000 0.006304
v -0.000693 0.000000 0.010864
v 0.002257 0.067601 0.009255
v -0.000425 0.067601 0.006304
v -0.002303 0.000000 0.008986
v 0.002257 0.067601 0.007914
v -0.001766 0.067601 0.010328
v 0.002258 0.000000 0.009255
v 0.000648 0.067601 0.010864
v 0.001989 0.067601 0.010060
v 0.001452 0.000000 0.010596
v -0.000425 0.000000 0.006304
v -0.002303 0.067601 0.008986
v -0.001766 0.000000 0.006841
v 0.001184 0.067601 0.006573
v -0.002034 0.067601 0.007377
v -0.001229 0.067601 0.006573
v 0.001184 0.000000 0.006573
v -0.002034 0.000000 0.009791
f 15 21 35 
f 3 2 4 
f 2 3 5 
f 5 3 6 
f 7 4 8 
f 2 5 9 
f 5 6 10 
f 7 8 11 
f 6 3 12 
f 4 7 13 
f 7 11 14 
f 8 4 15 
f 10 6 16 
f 6 14 16 
f 6 12 17 
f 5 8 18 
f 9 5 18 
f 8 9 18 
f 14 11 19 
f 13 7 20 
f 7 17 20 
f 4 2 21 
f 2 9 21 
f 1 16 22 
f 16 14 22 
f 19 1 22 
f 14 19 22 
f 9 8 23 
f 8 15 23 
f 15 9 23 
f 16 1 24 
f 10 16 24 
f 1 19 24 
f 8 5 25 
f 5 11 25 
f 11 8 25 
f 11 10 26 
f 19 11 26 
f 10 24 26 
f 24 19 26 
f 5 10 27 
f 11 5 27 
f 10 11 27 
f 17 12 28 
f 12 20 28 
f 20 17 28 
f 15 4 29 
f 4 21 29 
f 21 15 29 
f 12 3 30 
f 13 12 30 
f 3 13 30 
f 14 6 31 
f 7 14 31 
f 17 7 31 
f 3 4 32 
f 13 3 32 
f 4 13 32 
f 12 13 33 
f 13 20 33 
f 20 12 33 
f 6 17 34 
f 31 6 34 
f 17 31 34 
f 9 15 35 
f 21 9 35 
o convex_1
v 0.003062 0.079401 0.008451
v -0.002839 0.073505 0.008451
v -0.002839 0.073505 0.008718
v -0.001498 0.090134 0.007914
v 0.000112 0.075115 0.011400
v 0.000648 0.067601 0.006305
v 0.001452 0.067601 0.010595
v 0.001721 0.089865 0.007914
v -0.002303 0.085842 0.009791
v -0.001766 0.067601 0.010327
v 0.002794 0.082888 0.010059
v -0.002839 0.082355 0.007110
v 0.000648 0.075380 0.006037
v -0.001766 0.067601 0.006841
v 0.001452 0.090134 0.009254
v 0.002526 0.068139 0.008451
v 0.002794 0.082355 0.007110
v -0.002839 0.082619 0.010059
v -0.000693 0.075380 0.006037
v 0.001989 0.069749 0.006841
v -0.001498 0.090134 0.009254
v 0.002257 0.075380 0.010595
v -0.000157 0.068408 0.011132
v -0.002034 0.072433 0.010595
v -0.002303 0.067601 0.009254
v 0.000112 0.076457 0.006037
v 0.003062 0.081816 0.009523
v 0.000380 0.089327 0.009523
v -0.002571 0.078064 0.006841
v 0.001989 0.067601 0.010059
v 0.002794 0.078867 0.007110
v -0.000157 0.070285 0.006037
v -0.001766 0.089865 0.008451
v 0.001989 0.073236 0.006573
v 0.001989 0.088255 0.009523
v -0.002839 0.079401 0.010059
v -0.000961 0.075115 0.011132
v 0.002794 0.072967 0.008986
v 0.001721 0.067601 0.006841
v -0.002303 0.068139 0.007914
v 0.003062 0.082085 0.008182
v -0.002034 0.073774 0.006573
v 0.002794 0.078603 0.010059
f 65 73 78 
f 41 42 45 
f 37 38 47 
f 41 45 49 
f 43 39 50 
f 40 44 53 
f 47 38 53 
f 50 39 56 
f 40 42 57 
f 46 40 57 
f 42 40 58 
f 45 42 58 
f 45 58 59 
f 38 37 60 
f 49 45 60 
f 45 59 60 
f 39 43 61 
f 47 39 61 
f 43 52 61 
f 52 48 61 
f 54 47 61 
f 48 54 61 
f 44 40 63 
f 56 44 63 
f 50 56 63 
f 37 47 64 
f 47 54 64 
f 42 41 65 
f 57 42 65 
f 36 51 66 
f 51 55 66 
f 48 41 67 
f 41 49 67 
f 54 48 67 
f 39 47 68 
f 53 44 68 
f 47 53 68 
f 56 39 68 
f 44 56 68 
f 41 48 69 
f 48 52 69 
f 52 66 69 
f 66 55 69 
f 40 46 70 
f 43 50 70 
f 46 62 70 
f 63 40 70 
f 50 63 70 
f 53 38 71 
f 59 53 71 
f 60 59 71 
f 38 60 71 
f 40 53 72 
f 58 40 72 
f 59 58 72 
f 53 59 72 
f 51 36 73 
f 36 62 73 
f 65 51 73 
f 55 51 74 
f 65 41 74 
f 51 65 74 
f 41 69 74 
f 69 55 74 
f 60 37 75 
f 49 60 75 
f 37 64 75 
f 64 49 75 
f 52 43 76 
f 62 36 76 
f 36 66 76 
f 66 52 76 
f 43 70 76 
f 70 62 76 
f 49 64 77 
f 64 54 77 
f 67 49 77 
f 54 67 77 
f 46 57 78 
f 62 46 78 
f 57 65 78 
f 73 62 78 
o convex_2
v -0.008473 -0.084228 0.010327
v -0.005254 -0.026563 0.013815
v -0.005254 -0.018241 0.010595
v -0.005254 -0.086638 0.003354
v -0.008741 -0.028711 0.006037
v -0.005254 -0.086638 0.013815
v -0.007936 -0.028711 0.013279
v -0.005254 -0.026563 0.003354
v -0.008204 -0.082888 0.004427
v -0.008741 -0.083158 0.011400
v -0.007936 -0.028442 0.004158
v -0.008741 -0.028711 0.011400
v -0.007667 -0.083689 0.013278
v -0.008741 -0.082888 0.005768
v -0.005522 -0.018241 0.006574
v -0.005522 -0.088793 0.007110
v -0.007399 -0.084221 0.003891
v -0.005790 -0.027095 0.003354
v -0.005791 -0.086369 0.013815
v -0.005790 -0.018241 0.009522
v -0.007667 -0.086369 0.009790
v -0.008473 -0.082888 0.012206
v -0.008204 -0.028711 0.004427
v -0.007131 -0.086638 0.006037
v -0.005790 -0.026832 0.013815
v -0.005254 -0.088793 0.010058
v -0.007936 -0.070278 0.013279
v -0.005791 -0.086106 0.003354
v -0.005522 -0.018241 0.010595
v -0.005254 -0.018241 0.006574
v -0.007399 -0.028172 0.003891
v -0.006863 -0.086908 0.011400
v -0.008741 -0.032468 0.005768
v -0.008473 -0.034878 0.012206
v -0.007667 -0.086369 0.007378
v -0.005790 -0.018241 0.007647
v -0.008741 -0.028442 0.011132
v -0.007936 -0.083420 0.004158
v -0.005791 -0.086908 0.003891
v -0.005522 -0.088793 0.010058
f 110 99 118 
f 81 80 86 
f 83 88 90 
f 79 88 92 
f 88 83 92 
f 86 82 96 
f 93 86 96 
f 84 80 97 
f 81 93 98 
f 88 79 99 
f 90 88 100 
f 88 91 100 
f 89 87 101 
f 87 92 101 
f 83 93 101 
f 93 89 101 
f 97 80 103 
f 85 97 103 
f 80 84 104 
f 86 80 104 
f 82 86 104 
f 94 82 104 
f 97 85 105 
f 91 97 105 
f 85 100 105 
f 100 91 105 
f 96 82 106 
f 80 81 107 
f 90 85 107 
f 81 98 107 
f 103 80 107 
f 85 103 107 
f 81 86 108 
f 93 81 108 
f 86 93 108 
f 89 93 109 
f 95 89 109 
f 93 96 109 
f 96 106 109 
f 106 95 109 
f 91 88 110 
f 97 91 110 
f 88 99 110 
f 92 83 111 
f 83 101 111 
f 101 92 111 
f 85 90 112 
f 100 85 112 
f 90 100 112 
f 79 92 113 
f 99 79 113 
f 94 99 113 
f 102 94 113 
f 92 102 113 
f 93 83 114 
f 98 93 114 
f 98 114 115 
f 83 90 115 
f 90 107 115 
f 107 98 115 
f 114 83 115 
f 87 89 116 
f 92 87 116 
f 89 95 116 
f 102 92 116 
f 95 102 116 
f 82 94 117 
f 94 102 117 
f 102 95 117 
f 106 82 117 
f 95 106 117 
f 84 97 118 
f 99 94 118 
f 104 84 118 
f 94 104 118 
f 97 110 118 
o convex_3
v -0.006595 -0.011803 0.010596
v 0.006818 -0.011803 0.009791
v 0.006549 -0.011803 0.010862
v 0.004671 -0.018241 0.004963
v -0.001497 -0.018241 0.014351
v -0.003376 -0.012072 0.002549
v -0.004716 -0.018241 0.004963
v -0.000961 -0.011803 0.015425
v 0.004939 -0.018241 0.011936
v 0.002794 -0.011803 0.002281
v -0.000961 -0.018241 0.002818
v -0.005253 -0.018241 0.011401
v 0.003329 -0.012340 0.014620
v -0.006595 -0.011803 0.006573
v -0.003911 -0.012072 0.014351
v 0.005744 -0.011803 0.004695
v 0.005744 -0.018241 0.007110
v 0.001452 -0.018241 0.014351
v -0.005790 -0.018241 0.007647
v 0.002794 -0.018241 0.003353
v 0.000112 -0.011803 0.001744
v 0.004939 -0.011803 0.013545
v -0.005521 -0.011803 0.004427
v 0.005744 -0.018241 0.010057
v 0.006549 -0.012072 0.006306
v -0.003376 -0.018241 0.013545
v -0.005521 -0.012340 0.012741
v 0.003329 -0.018241 0.013545
v -0.003643 -0.018241 0.003890
v 0.004134 -0.012340 0.003086
v 0.000915 -0.012072 0.015425
v 0.001184 -0.018241 0.002818
v -0.005790 -0.018241 0.009791
v -0.002302 -0.011803 0.015156
v -0.002034 -0.011803 0.002013
v -0.006595 -0.012877 0.009523
v 0.006818 -0.012340 0.008450
v -0.005253 -0.017973 0.005768
v 0.002257 -0.011803 0.015156
v -0.002034 -0.018241 0.003086
v 0.006013 -0.012340 0.011936
v 0.004939 -0.018241 0.005232
f 148 134 160 
f 121 120 119 
f 122 123 125 
f 121 119 126 
f 123 122 127 
f 119 120 128 
f 122 125 129 
f 125 123 130 
f 119 128 132 
f 128 120 134 
f 127 122 135 
f 123 127 136 
f 125 130 137 
f 122 129 138 
f 132 128 139 
f 121 126 140 
f 132 139 141 
f 120 121 142 
f 127 135 142 
f 134 120 143 
f 130 123 144 
f 144 133 145 
f 119 130 145 
f 133 119 145 
f 130 144 145 
f 136 127 146 
f 131 136 146 
f 127 140 146 
f 140 131 146 
f 129 125 147 
f 141 124 147 
f 125 141 147 
f 128 134 148 
f 122 138 148 
f 138 128 148 
f 126 123 149 
f 123 136 149 
f 138 129 150 
f 128 138 150 
f 129 139 150 
f 139 128 150 
f 130 119 151 
f 137 130 151 
f 126 119 152 
f 123 126 152 
f 119 133 152 
f 144 123 152 
f 133 144 152 
f 139 129 153 
f 124 141 153 
f 141 139 153 
f 119 132 154 
f 132 137 154 
f 151 119 154 
f 137 151 154 
f 120 142 155 
f 142 135 155 
f 143 120 155 
f 135 143 155 
f 125 137 156 
f 137 132 156 
f 141 125 156 
f 132 141 156 
f 136 131 157 
f 140 126 157 
f 131 140 157 
f 126 149 157 
f 149 136 157 
f 129 147 158 
f 147 124 158 
f 124 153 158 
f 153 129 158 
f 121 140 159 
f 140 127 159 
f 142 121 159 
f 127 142 159 
f 135 122 160 
f 134 143 160 
f 143 135 160 
f 122 148 160 
o convex_4
v -0.006326 -0.011803 0.005768
v 0.008696 -0.000269 0.011399
v 0.002258 0.000000 0.009253
v -0.002839 -0.008314 0.017303
v 0.006280 -0.011803 0.005500
v -0.004180 -0.000269 0.000404
v -0.007935 -0.000269 0.013276
v 0.003597 -0.008046 0.000136
v 0.004133 -0.011803 0.014351
v 0.003061 -0.000269 0.017303
v 0.008158 -0.000269 0.004428
v -0.008741 -0.008314 0.011400
v -0.008203 -0.000269 0.004426
v 0.008696 -0.008315 0.011399
v -0.003643 -0.008583 0.000404
v -0.004448 -0.011803 0.014082
v 0.002794 -0.000269 -0.000134
v 0.004403 -0.008046 0.016765
v 0.001184 -0.011803 0.001745
v 0.008696 -0.008046 0.005500
v -0.008203 -0.008046 0.004426
v -0.003643 -0.000269 0.017033
v -0.007935 -0.008046 0.013276
v 0.008158 -0.000269 0.013010
v -0.008741 -0.000269 0.006038
v -0.002571 -0.008314 -0.000134
v 0.006816 -0.011803 0.010057
v 0.000916 -0.011534 0.015690
v -0.003912 -0.011803 0.002817
v 0.008158 -0.008046 0.013010
v -0.006862 -0.011803 0.009789
v -0.008741 -0.008314 0.006038
v 0.004671 -0.008583 0.000939
v -0.004180 -0.008314 0.016765
v 0.002794 -0.008314 0.017303
v -0.008741 -0.000269 0.011400
v 0.004133 -0.000269 0.000404
v 0.008696 -0.000269 0.005500
v -0.002839 -0.000269 -0.000134
v 0.007890 -0.008583 0.004158
v 0.004403 -0.000269 0.016765
v -0.002033 0.000000 0.007379
v -0.004180 -0.008046 0.000404
v 0.004671 -0.011803 0.003355
v 0.002794 -0.008314 -0.000134
v -0.001497 -0.011803 0.015422
v -0.002839 -0.000269 0.017303
v 0.007622 -0.010729 0.008185
v -0.006326 -0.011803 0.011668
v 0.005743 -0.011803 0.012742
v -0.006056 -0.010462 0.003623
v -0.001229 -0.011803 0.001745
v -0.000692 0.000000 0.010861
v -0.004180 -0.000269 0.016765
v 0.001184 0.000000 0.006574
v 0.005475 -0.010729 0.014082
v 0.003061 -0.011803 0.002281
v -0.007398 -0.010997 0.007915
v 0.008696 -0.008583 0.006306
v -0.006326 -0.010192 0.013544
v -0.004448 -0.008852 0.000939
v -0.000424 -0.010729 0.016229
v 0.002526 -0.011803 0.015155
f 188 206 223 
f 161 165 169 
f 161 169 176 
f 165 161 179 
f 162 174 180 
f 173 166 181 
f 167 172 183 
f 162 163 184 
f 174 162 184 
f 173 181 185 
f 169 165 187 
f 179 161 189 
f 174 184 190 
f 184 178 190 
f 161 176 191 
f 181 161 192 
f 172 185 192 
f 185 181 192 
f 164 182 194 
f 167 183 194 
f 170 164 195 
f 178 170 195 
f 172 167 196 
f 185 172 196 
f 168 177 197 
f 171 193 197 
f 193 168 197 
f 163 162 198 
f 162 180 198 
f 180 171 198 
f 177 186 199 
f 171 180 200 
f 193 171 200 
f 170 178 201 
f 184 163 201 
f 178 184 201 
f 166 173 202 
f 173 185 202 
f 185 196 202 
f 199 166 202 
f 181 166 203 
f 186 175 203 
f 166 199 203 
f 199 186 203 
f 165 179 204 
f 200 165 204 
f 193 200 204 
f 177 168 205 
f 186 177 205 
f 179 186 205 
f 168 193 205 
f 176 169 206 
f 164 194 206 
f 194 176 206 
f 164 170 207 
f 182 164 207 
f 187 165 208 
f 174 187 208 
f 183 172 209 
f 191 176 209 
f 172 191 209 
f 169 187 210 
f 187 174 210 
f 174 190 210 
f 161 181 211 
f 189 161 211 
f 175 186 212 
f 186 179 212 
f 179 189 212 
f 189 175 212 
f 196 167 213 
f 201 163 213 
f 170 201 213 
f 163 202 213 
f 202 196 213 
f 207 170 213 
f 182 207 213 
f 167 194 214 
f 194 182 214 
f 213 167 214 
f 182 213 214 
f 171 197 215 
f 197 177 215 
f 163 198 215 
f 198 171 215 
f 177 199 215 
f 202 163 215 
f 199 202 215 
f 178 169 216 
f 190 178 216 
f 169 210 216 
f 210 190 216 
f 204 179 217 
f 193 204 217 
f 179 205 217 
f 205 193 217 
f 161 191 218 
f 191 172 218 
f 192 161 218 
f 172 192 218 
f 180 174 219 
f 165 200 219 
f 200 180 219 
f 208 165 219 
f 174 208 219 
f 176 194 220 
f 194 183 220 
f 183 209 220 
f 209 176 220 
f 175 189 221 
f 181 203 221 
f 203 175 221 
f 211 181 221 
f 189 211 221 
f 195 164 222 
f 188 195 222 
f 164 206 222 
f 206 188 222 
f 169 178 223 
f 178 195 223 
f 195 188 223 
f 206 169 223 
o convex_5
v -0.000157 -0.086911 0.001209
v 0.002794 -0.028438 0.017303
v -0.002839 -0.028438 0.017303
v -0.002571 -0.028438 -0.000134
v -0.005254 -0.086376 0.014350
v 0.005207 -0.089325 0.007915
v 0.004672 -0.028445 0.000941
v 0.004672 -0.083153 0.016495
v -0.005253 -0.018241 0.006038
v -0.005254 -0.086102 0.002819
v 0.005208 -0.018241 0.011399
v 0.004135 -0.083153 0.000405
v -0.002839 -0.083153 0.017303
v -0.005253 -0.018241 0.011399
v -0.002839 -0.083153 -0.000134
v 0.002794 -0.018241 0.003355
v -0.004449 -0.028445 0.000671
v -0.004449 -0.028445 0.016495
v -0.001766 -0.089592 0.012740
v 0.005207 -0.086369 0.002819
v 0.002794 -0.028706 -0.000134
v 0.004672 -0.028445 0.016495
v 0.001184 -0.018241 0.014351
v 0.005207 -0.086369 0.014350
v -0.004449 -0.089325 0.005770
v 0.005208 -0.018241 0.005770
v 0.003062 -0.082886 0.017303
v -0.004449 -0.082879 0.016765
v -0.000961 -0.018241 0.002817
v 0.002794 -0.083153 -0.000134
v -0.005253 -0.026827 0.014350
v -0.004449 -0.083153 0.000671
v -0.005253 -0.027101 0.002819
v 0.001452 -0.089592 0.004426
v 0.000647 -0.089325 0.013814
v -0.002302 -0.018241 0.014082
v 0.005208 -0.026827 0.014350
v 0.005208 -0.026827 0.002819
v -0.005254 -0.089057 0.010057
v -0.001229 -0.090134 0.010863
v -0.000961 -0.086911 0.015959
v 0.004135 -0.089325 0.011935
v 0.004672 -0.083695 0.000941
v -0.003912 -0.018241 0.004158
v -0.001766 -0.089325 0.003624
v 0.003062 -0.086911 0.015422
v 0.003330 -0.018241 0.013544
v 0.001184 -0.090134 0.006307
v -0.004180 -0.028706 0.000404
v 0.004403 -0.028706 0.016763
v 0.004135 -0.028706 0.000405
v 0.002794 -0.089325 0.004158
v 0.002794 -0.086911 0.001745
v -0.003912 -0.086911 0.002281
v 0.001989 -0.090134 0.010327
v -0.003644 -0.089325 0.012472
v -0.002302 -0.090134 0.007645
v -0.004717 -0.028178 0.001209
v -0.004180 -0.028438 0.016765
v -0.003644 -0.086911 0.015155
v -0.003644 -0.018241 0.013276
v 0.000915 -0.018241 0.002817
v 0.004403 -0.082879 0.016763
v -0.004180 -0.082886 0.000404
f 277 255 287 
f 225 226 236 
f 233 228 237 
f 232 233 237 
f 234 232 237 
f 232 234 239 
f 238 227 244 
f 226 225 246 
f 234 237 246 
f 230 239 249 
f 239 234 249 
f 225 236 250 
f 236 226 251 
f 232 239 252 
f 224 238 253 
f 244 235 253 
f 238 244 253 
f 237 228 254 
f 241 237 254 
f 228 251 254 
f 251 241 254 
f 233 232 256 
f 226 246 259 
f 246 237 259 
f 245 231 260 
f 234 245 260 
f 247 229 260 
f 231 247 260 
f 249 234 260 
f 249 260 261 
f 229 243 261 
f 230 249 261 
f 260 229 261 
f 228 233 262 
f 233 248 262 
f 258 242 263 
f 250 236 264 
f 229 247 265 
f 235 230 266 
f 261 243 266 
f 230 261 266 
f 240 232 267 
f 232 252 267 
f 247 231 269 
f 250 264 269 
f 264 258 269 
f 265 247 269 
f 258 265 269 
f 245 234 270 
f 234 246 270 
f 246 225 270 
f 268 257 271 
f 227 238 272 
f 252 227 272 
f 255 240 272 
f 240 267 272 
f 267 252 272 
f 231 245 273 
f 225 250 273 
f 270 225 273 
f 245 270 273 
f 230 235 274 
f 239 230 274 
f 235 244 274 
f 244 239 274 
f 243 229 275 
f 268 224 275 
f 257 268 275 
f 229 271 275 
f 271 257 275 
f 224 253 276 
f 253 235 276 
f 235 266 276 
f 266 243 276 
f 275 224 276 
f 243 275 276 
f 238 224 277 
f 248 233 277 
f 233 255 277 
f 224 268 277 
f 268 248 277 
f 258 263 278 
f 229 265 278 
f 265 258 278 
f 271 229 278 
f 263 271 278 
f 242 258 279 
f 228 262 279 
f 263 242 279 
f 262 248 280 
f 248 268 280 
f 271 263 280 
f 268 271 280 
f 279 262 280 
f 263 279 280 
f 232 240 281 
f 255 233 281 
f 240 255 281 
f 256 232 281 
f 233 256 281 
f 251 226 282 
f 241 251 282 
f 226 259 282 
f 236 251 283 
f 251 228 283 
f 264 236 283 
f 258 264 283 
f 279 258 283 
f 228 279 283 
f 237 241 284 
f 259 237 284 
f 241 282 284 
f 282 259 284 
f 244 227 285 
f 239 244 285 
f 252 239 285 
f 227 252 285 
f 269 231 286 
f 250 269 286 
f 231 273 286 
f 273 250 286 
f 272 238 287 
f 255 272 287 
f 238 277 287 
o convex_6
v 0.005208 -0.089056 0.008183
v 0.005477 -0.026830 0.014083
v 0.005477 -0.018241 0.010863
v 0.008696 -0.082886 0.005500
v 0.005208 -0.026559 0.003353
v 0.008696 -0.028438 0.011400
v 0.008159 -0.082886 0.013009
v 0.008696 -0.028708 0.005500
v 0.005208 -0.086373 0.014083
v 0.005208 -0.086643 0.003353
v 0.007891 -0.028438 0.004159
v 0.008159 -0.028715 0.013009
v 0.005208 -0.018241 0.006305
v 0.008696 -0.082886 0.011669
v 0.007354 -0.084231 0.003890
v 0.005208 -0.026830 0.014083
v 0.007354 -0.086914 0.009791
v 0.005745 -0.026830 0.003353
v 0.005745 -0.018241 0.007378
v 0.008159 -0.083150 0.004428
v 0.007086 -0.086914 0.006305
v 0.005477 -0.086373 0.014083
v 0.005745 -0.086373 0.003353
v 0.007623 -0.028175 0.013278
v 0.006282 -0.086914 0.012742
v 0.005208 -0.018241 0.010863
v 0.005477 -0.018241 0.006305
v 0.005477 -0.088522 0.011132
v 0.007891 -0.085839 0.007110
v 0.007622 -0.083690 0.013278
v 0.007354 -0.028175 0.003890
v 0.008159 -0.028715 0.004428
v 0.005477 -0.088522 0.006036
v 0.005745 -0.018241 0.009791
v 0.008696 -0.040776 0.011669
v 0.008696 -0.083420 0.011132
v 0.008696 -0.028438 0.005769
v 0.005477 -0.089056 0.008183
v 0.007891 -0.083427 0.004159
v 0.006550 -0.086914 0.004963
f 302 326 327 
f 293 291 295 
f 292 288 296 
f 288 292 297 
f 293 290 299 
f 292 296 300 
f 291 293 301 
f 299 294 301 
f 289 290 303 
f 296 289 303 
f 300 296 303 
f 297 292 305 
f 300 290 306 
f 295 291 307 
f 307 291 308 
f 289 296 309 
f 297 305 310 
f 305 302 310 
f 290 289 311 
f 299 290 311 
f 294 299 311 
f 289 309 311 
f 290 300 313 
f 303 290 313 
f 300 303 313 
f 292 300 314 
f 305 292 314 
f 300 306 314 
f 296 288 315 
f 309 296 315 
f 304 312 315 
f 312 309 315 
f 304 308 316 
f 308 291 316 
f 294 311 317 
f 311 309 317 
f 312 294 317 
f 309 312 317 
f 298 302 318 
f 302 305 318 
f 314 298 318 
f 305 314 318 
f 295 307 319 
f 307 298 319 
f 314 295 319 
f 298 314 319 
f 288 297 320 
f 297 310 320 
f 290 293 321 
f 306 290 321 
f 293 306 321 
f 293 299 322 
f 301 293 322 
f 299 301 322 
f 291 301 323 
f 301 294 323 
f 294 312 323 
f 312 304 323 
f 316 291 323 
f 304 316 323 
f 293 295 324 
f 306 293 324 
f 295 314 324 
f 314 306 324 
f 308 304 325 
f 315 288 325 
f 304 315 325 
f 288 320 325 
f 320 308 325 
f 302 298 326 
f 298 307 326 
f 326 307 327 
f 307 308 327 
f 310 302 327 
f 308 320 327 
f 320 310 327 
