o convex_0
v -0.004249 0.020023 0.000216
v 0.000881 0.089284 0.020309
v 0.001308 0.089284 0.019879
v 0.003874 0.020023 0.020309
v 0.004302 0.073457 0.000216
v -0.004249 0.020023 0.019879
v -0.002111 0.086289 -0.000210
v 0.004302 0.020029 0.000216
v -0.004249 0.067475 0.019879
v 0.004302 0.073457 0.019879
v -0.004249 0.067475 0.000216
v 0.003019 0.084147 -0.000210
v -0.002111 0.086712 0.019879
v 0.000026 0.089714 0.000216
v 0.004302 0.020029 0.019879
v -0.003821 0.020023 -0.000210
v -0.003821 0.020023 0.020309
v 0.003019 0.084147 0.020309
v 0.003874 0.020023 -0.000210
v 0.001308 0.089284 0.000216
v -0.003821 0.067475 0.020309
v 0.000026 0.089714 0.019879
v -0.001256 0.088418 0.000216
v 0.003019 0.084570 0.000216
v -0.003821 0.067475 -0.000210
v 0.003019 0.084570 0.019879
v -0.002111 0.086712 0.000216
v -0.001256 0.088418 0.019879
v -0.001684 0.086712 0.020309
v 0.003874 0.073457 0.020309
v 0.003874 0.073457 -0.000210
v 0.000881 0.089714 0.000216
v 0.000881 0.089284 -0.000210
f 32 20 33 
f 1 4 6 
f 1 6 9 
f 8 5 10 
f 1 9 11 
f 11 9 13 
f 4 8 15 
f 10 4 15 
f 8 10 15 
f 4 1 16 
f 1 11 16 
f 7 12 16 
f 4 2 17 
f 6 4 17 
f 9 6 17 
f 3 2 18 
f 2 4 18 
f 8 4 19 
f 5 8 19 
f 4 16 19 
f 16 12 19 
f 13 9 21 
f 17 2 21 
f 9 17 21 
f 2 3 22 
f 22 14 23 
f 14 7 23 
f 10 5 24 
f 5 12 24 
f 20 3 24 
f 12 20 24 
f 11 7 25 
f 16 11 25 
f 7 16 25 
f 3 18 26 
f 18 10 26 
f 10 24 26 
f 24 3 26 
f 7 11 27 
f 11 13 27 
f 23 7 27 
f 13 23 27 
f 22 23 28 
f 23 13 28 
f 21 2 29 
f 13 21 29 
f 2 22 29 
f 28 13 29 
f 22 28 29 
f 4 10 30 
f 18 4 30 
f 10 18 30 
f 12 5 31 
f 5 19 31 
f 19 12 31 
f 3 20 32 
f 22 3 32 
f 14 22 32 
f 12 7 33 
f 7 14 33 
f 20 12 33 
f 14 32 33 
o convex_1
v 0.019690 -0.057357 0.020309
v -0.019210 -0.070609 0.000216
v -0.018783 -0.070609 -0.000210
v -0.011090 -0.015037 -0.000210
v -0.017928 -0.032571 0.020309
v 0.017980 -0.079165 -0.000210
v -0.005957 -0.090284 0.020309
v 0.015416 -0.019748 0.019879
v 0.015416 -0.019748 0.000216
v -0.005957 -0.090714 0.000216
v -0.018355 -0.077454 0.019879
v 0.014134 -0.084299 0.020309
v -0.010662 -0.015037 0.020309
v -0.018355 -0.032571 0.000216
v 0.019263 -0.037704 0.000216
v 0.011570 -0.015037 -0.000210
v 0.006010 -0.090714 0.000216
v 0.011138 -0.015037 0.020309
v -0.015363 -0.083439 0.000216
v -0.019210 -0.041549 0.019879
v 0.018408 -0.079165 0.019879
v 0.020117 -0.057357 -0.000210
v 0.006010 -0.090714 0.019879
v 0.018408 -0.030860 0.019879
v -0.015363 -0.021889 0.019879
v -0.014936 -0.083432 0.020309
v 0.020117 -0.055653 0.019879
v 0.014134 -0.084299 -0.000210
v -0.019210 -0.070609 0.019879
v -0.019210 -0.041549 0.000216
v -0.015363 -0.021889 0.000216
v 0.019263 -0.073180 0.000216
v -0.008094 -0.089425 -0.000210
v -0.018355 -0.077454 0.000216
v -0.007667 -0.089847 0.019879
v 0.018408 -0.030860 0.000216
v 0.019263 -0.073180 0.019879
v 0.019263 -0.037704 0.019879
v -0.018355 -0.032571 0.019879
v 0.007719 -0.089854 0.000216
v -0.017928 -0.032571 -0.000210
v -0.005957 -0.090714 0.019879
v -0.014081 -0.019318 0.019879
v -0.015363 -0.083432 0.019879
v 0.018408 -0.079165 0.000216
v -0.017073 -0.080447 -0.000210
v -0.018783 -0.070609 0.020309
v 0.017980 -0.030860 0.020309
v 0.007719 -0.089854 0.019879
v 0.017980 -0.030437 -0.000210
v 0.012424 -0.015896 0.019879
v 0.006010 -0.090284 -0.000210
v -0.014081 -0.019318 0.000216
v 0.015416 -0.083010 0.000216
v -0.011090 -0.015037 0.019879
v 0.017980 -0.079165 0.020309
v 0.006010 -0.090284 0.020309
v 0.020117 -0.055653 -0.000210
v 0.020117 -0.057357 0.019879
v -0.017073 -0.080447 0.019879
v -0.014936 -0.083869 0.000216
v 0.015416 -0.083010 0.019879
v -0.007667 -0.089847 0.000216
v 0.012424 -0.015896 0.000216
f 49 84 97 
f 36 37 39 
f 34 38 40 
f 34 40 45 
f 38 34 46 
f 39 37 49 
f 37 46 49 
f 46 34 51 
f 49 46 51 
f 39 49 55 
f 43 50 56 
f 42 41 57 
f 38 46 58 
f 40 38 59 
f 36 39 61 
f 35 44 62 
f 53 35 62 
f 36 35 63 
f 35 53 63 
f 53 47 63 
f 47 58 64 
f 39 55 65 
f 36 61 66 
f 35 36 67 
f 44 35 67 
f 40 59 68 
f 42 57 69 
f 57 48 69 
f 54 65 70 
f 65 55 70 
f 48 57 71 
f 34 60 71 
f 60 48 71 
f 53 38 72 
f 47 53 72 
f 38 58 72 
f 58 47 72 
f 56 50 73 
f 61 45 73 
f 37 36 74 
f 36 63 74 
f 63 47 74 
f 64 37 74 
f 47 64 74 
f 56 40 75 
f 43 56 75 
f 40 68 75 
f 68 43 75 
f 58 46 76 
f 64 58 76 
f 68 59 77 
f 61 39 78 
f 39 65 78 
f 65 54 78 
f 36 66 79 
f 67 36 79 
f 44 67 79 
f 38 53 80 
f 59 38 80 
f 44 59 80 
f 62 44 80 
f 53 62 80 
f 51 34 81 
f 41 51 81 
f 57 41 81 
f 34 71 81 
f 71 57 81 
f 73 45 82 
f 56 73 82 
f 49 42 83 
f 55 49 83 
f 42 69 83 
f 69 48 83 
f 41 42 84 
f 51 41 84 
f 49 51 84 
f 50 43 85 
f 43 66 85 
f 66 61 85 
f 73 50 85 
f 61 73 85 
f 37 64 86 
f 76 37 86 
f 64 76 86 
f 45 61 87 
f 61 78 87 
f 78 54 87 
f 46 37 88 
f 37 76 88 
f 76 46 88 
f 34 45 89 
f 45 54 89 
f 70 34 89 
f 54 70 89 
f 45 40 90 
f 40 56 90 
f 82 45 90 
f 56 82 90 
f 48 60 91 
f 60 55 91 
f 83 48 91 
f 55 83 91 
f 60 34 92 
f 55 60 92 
f 34 70 92 
f 70 55 92 
f 59 44 93 
f 52 77 93 
f 77 59 93 
f 79 52 93 
f 44 79 93 
f 77 52 94 
f 68 77 94 
f 79 66 94 
f 52 79 94 
f 54 45 95 
f 45 87 95 
f 87 54 95 
f 66 43 96 
f 43 68 96 
f 94 66 96 
f 68 94 96 
f 42 49 97 
f 84 42 97 
o convex_2
v 0.011142 0.019594 0.019879
v -0.013228 0.008476 0.000216
v -0.013228 0.008476 0.019879
v 0.011142 -0.015037 -0.000210
v -0.010662 -0.015037 0.020309
v 0.010714 0.019594 -0.000210
v 0.010714 -0.015037 0.020309
v -0.011087 -0.015037 -0.000210
v -0.011087 0.019161 0.020309
v -0.010662 0.019594 -0.000210
v 0.013280 0.017456 0.019879
v 0.013280 0.008476 0.000216
v -0.013228 0.017456 0.000216
v 0.004300 0.020019 0.020309
v 0.013280 0.008476 0.019879
v 0.013280 0.017456 0.000216
v -0.013228 0.017456 0.019879
v -0.004676 0.020019 0.000216
v -0.011087 0.019594 0.019879
v 0.011142 -0.015037 0.019879
v -0.011087 -0.015037 0.019879
v 0.012852 0.017456 0.020309
v 0.004728 0.020019 0.000216
v -0.004247 0.020019 0.020309
v -0.012800 0.017456 -0.000210
v 0.012852 0.017456 -0.000210
v -0.012800 0.008476 0.020309
v 0.011142 0.019594 0.000216
v -0.011087 0.019594 0.000216
f 110 116 126 
f 102 101 104 
f 100 99 105 
f 101 102 105 
f 103 101 105 
f 102 104 106 
f 103 105 107 
f 99 100 110 
f 106 104 111 
f 101 109 112 
f 109 108 112 
f 98 108 113 
f 108 109 113 
f 110 100 114 
f 103 107 115 
f 114 106 116 
f 110 114 116 
f 104 101 117 
f 101 112 117 
f 112 104 117 
f 102 100 118 
f 100 105 118 
f 105 102 118 
f 108 98 119 
f 98 111 119 
f 111 104 119 
f 104 112 119 
f 112 108 119 
f 111 98 120 
f 103 115 120 
f 115 111 120 
f 106 111 121 
f 111 115 121 
f 115 116 121 
f 116 106 121 
f 105 99 122 
f 107 105 122 
f 99 110 122 
f 110 107 122 
f 101 103 123 
f 109 101 123 
f 103 113 123 
f 113 109 123 
f 100 102 124 
f 102 106 124 
f 114 100 124 
f 106 114 124 
f 98 113 125 
f 113 103 125 
f 120 98 125 
f 103 120 125 
f 107 110 126 
f 115 107 126 
f 116 115 126 
