o convex_0
v 0.002985 -0.003411 0.016483
v -0.002699 -0.003411 0.014969
v -0.002319 -0.003411 0.014212
v -0.000804 0.090189 0.016863
v 0.001848 0.087157 0.013832
v -0.000425 -0.003411 0.019137
v 0.002227 0.087157 0.018378
v -0.002699 0.085636 0.017242
v -0.001940 0.087157 0.013832
v 0.001090 -0.003411 0.013453
v -0.000425 0.084124 0.019137
v -0.002319 -0.003411 0.018000
v 0.002227 -0.003411 0.018378
v 0.002985 0.076162 0.016106
v -0.002319 0.087157 0.018378
v 0.002227 -0.003411 0.014211
v -0.002699 0.086021 0.014969
v -0.000804 0.084875 0.013453
v -0.000804 -0.003411 0.013453
v 0.000332 0.083739 0.019137
v -0.002699 -0.003411 0.017242
v 0.002606 0.085636 0.014969
v 0.002985 -0.003411 0.015727
v -0.001561 0.009096 0.018757
v 0.000711 0.085260 0.013453
v 0.001470 -0.003411 0.018757
v 0.000711 0.090189 0.015348
v -0.001940 -0.003411 0.013832
v 0.000332 -0.003411 0.019137
v 0.002985 0.076162 0.016483
v -0.002319 0.039037 0.018378
v 0.002227 0.087157 0.014211
v -0.001561 0.086772 0.018757
v -0.002319 0.087157 0.014212
v 0.001470 0.086396 0.018757
v 0.001848 -0.003411 0.013832
v -0.001183 0.089805 0.015348
v 0.000711 0.089805 0.017242
v 0.002606 0.086021 0.017242
f 22 32 39 
f 1 2 3 
f 2 1 6 
f 1 3 10 
f 2 6 12 
f 6 1 13 
f 1 7 13 
f 1 10 16 
f 3 2 17 
f 2 8 17 
f 8 15 17 
f 10 3 19 
f 9 18 19 
f 11 6 20 
f 8 2 21 
f 2 12 21 
f 15 8 21 
f 14 1 23 
f 1 16 23 
f 22 14 23 
f 6 11 24 
f 12 6 24 
f 9 5 25 
f 5 10 25 
f 18 9 25 
f 10 19 25 
f 19 18 25 
f 6 13 26 
f 13 7 26 
f 5 9 27 
f 3 9 28 
f 19 3 28 
f 9 19 28 
f 20 6 29 
f 6 26 29 
f 26 20 29 
f 7 1 30 
f 1 14 30 
f 21 12 31 
f 15 21 31 
f 12 24 31 
f 24 15 31 
f 16 5 32 
f 23 16 32 
f 22 23 32 
f 27 7 32 
f 5 27 32 
f 4 15 33 
f 24 11 33 
f 15 24 33 
f 9 3 34 
f 3 17 34 
f 17 15 34 
f 11 20 35 
f 26 7 35 
f 20 26 35 
f 7 33 35 
f 33 11 35 
f 10 5 36 
f 16 10 36 
f 5 16 36 
f 15 4 37 
f 4 27 37 
f 27 9 37 
f 9 34 37 
f 34 15 37 
f 27 4 38 
f 7 27 38 
f 4 33 38 
f 33 7 38 
f 14 22 39 
f 7 30 39 
f 30 14 39 
f 32 7 39 
o convex_1
v 0.014730 -0.047752 0.017239
v -0.016341 -0.080333 0.014592
v -0.016341 -0.080333 0.016863
v 0.014354 -0.085636 0.016107
v -0.000046 -0.056849 -0.000183
v -0.006107 -0.047752 0.029746
v 0.006015 -0.080328 0.031638
v -0.011033 -0.041689 0.011561
v 0.006015 -0.084497 0.002088
v -0.008761 -0.087531 0.025574
v 0.010940 -0.048132 0.005877
v -0.010656 -0.080333 0.003603
v 0.008289 -0.041689 0.024818
v -0.015202 -0.055710 0.022164
v -0.005728 -0.089425 0.009667
v -0.006866 -0.080328 0.031258
v 0.011320 -0.057224 0.028228
v 0.004500 -0.041689 0.005121
v -0.011033 -0.051921 0.004739
v 0.015489 -0.080333 0.010423
v 0.015110 -0.080333 0.022923
v 0.006395 -0.089425 0.022164
v -0.000046 -0.052301 0.032017
v -0.008382 -0.041689 0.024818
v -0.014822 -0.055330 0.009287
v -0.012171 -0.080333 0.027472
v -0.005351 -0.080328 0.000570
v 0.007151 -0.057229 0.001332
v 0.009049 -0.087535 0.007013
v 0.016249 -0.055710 0.016860
v -0.005728 -0.048892 0.002088
v 0.012079 -0.080333 0.004739
v 0.010940 -0.041689 0.011182
v 0.015110 -0.055330 0.010043
v 0.005259 -0.087531 0.027851
v -0.012171 -0.087531 0.012697
v -0.011792 -0.055330 0.027472
v -0.015582 -0.051161 0.016483
v -0.005351 -0.087151 0.003983
v 0.001469 -0.080333 -0.000183
v 0.014730 -0.054190 0.022923
v 0.006015 -0.052301 0.030882
v 0.001846 -0.041689 0.027848
v -0.001182 -0.080713 0.032400
v -0.014822 -0.080333 0.008908
v -0.006487 -0.057229 0.031258
v -0.005351 -0.041689 0.005498
v -0.006107 -0.056090 0.000952
v 0.011320 -0.080333 0.028228
v -0.005351 -0.089425 0.022923
v 0.000710 -0.047752 0.001332
v -0.015202 -0.080333 0.022544
v -0.013687 -0.047372 0.021408
v 0.011700 -0.087535 0.021408
v 0.007910 -0.089425 0.012697
v 0.016249 -0.080713 0.017239
v 0.012079 -0.056090 0.005118
v 0.006395 -0.080328 0.000952
v -0.014066 -0.084501 0.022164
v -0.004212 -0.087151 0.028607
v -0.016341 -0.056469 0.015351
v 0.010184 -0.047752 0.027092
v 0.010940 -0.041689 0.021029
v 0.001469 -0.087535 0.003603
f 68 94 103 
f 47 52 57 
f 52 47 63 
f 58 51 64 
f 47 58 64 
f 49 55 65 
f 59 43 68 
f 68 48 71 
f 59 68 71 
f 50 57 72 
f 57 52 72 
f 40 69 73 
f 69 59 73 
f 59 71 73 
f 72 40 73 
f 50 72 73 
f 45 63 76 
f 53 65 76 
f 65 55 76 
f 47 64 77 
f 51 66 78 
f 75 51 78 
f 54 75 78 
f 66 44 79 
f 44 67 79 
f 78 66 79 
f 56 60 80 
f 69 40 80 
f 60 69 80 
f 46 56 81 
f 62 46 81 
f 62 81 82 
f 45 62 82 
f 63 45 82 
f 52 63 82 
f 46 62 83 
f 74 46 83 
f 41 64 84 
f 64 51 84 
f 75 41 84 
f 51 75 84 
f 62 45 85 
f 45 76 85 
f 76 55 85 
f 55 83 85 
f 83 62 85 
f 47 57 86 
f 58 47 86 
f 70 58 86 
f 51 58 87 
f 44 66 87 
f 66 51 87 
f 70 44 87 
f 58 70 87 
f 56 46 88 
f 60 56 88 
f 46 74 88 
f 54 61 89 
f 61 74 89 
f 49 75 89 
f 75 54 89 
f 57 50 90 
f 67 44 90 
f 50 67 90 
f 44 70 90 
f 86 57 90 
f 70 86 90 
f 53 42 91 
f 65 53 91 
f 63 47 92 
f 76 63 92 
f 53 76 92 
f 77 53 92 
f 47 77 92 
f 43 60 93 
f 74 61 93 
f 60 88 93 
f 88 74 93 
f 61 54 94 
f 68 43 94 
f 43 93 94 
f 93 61 94 
f 43 59 95 
f 60 43 95 
f 59 69 95 
f 69 60 95 
f 67 50 96 
f 71 67 96 
f 50 73 96 
f 73 71 96 
f 71 48 97 
f 67 71 97 
f 79 67 97 
f 48 79 97 
f 42 41 98 
f 49 65 98 
f 41 75 98 
f 75 49 98 
f 91 42 98 
f 65 91 98 
f 55 49 99 
f 83 55 99 
f 74 83 99 
f 49 89 99 
f 89 74 99 
f 41 42 100 
f 42 53 100 
f 64 41 100 
f 53 77 100 
f 77 64 100 
f 56 80 101 
f 81 56 101 
f 82 81 101 
f 52 82 101 
f 40 72 102 
f 72 52 102 
f 80 40 102 
f 52 101 102 
f 101 80 102 
f 48 68 103 
f 54 78 103 
f 79 48 103 
f 78 79 103 
f 94 54 103 
o convex_2
v 0.013593 -0.023870 0.018378
v -0.014067 -0.022360 0.016105
v -0.013686 -0.023491 0.014211
v -0.003455 -0.041684 0.027472
v 0.000711 -0.041684 0.004360
v 0.007911 -0.003793 0.015729
v -0.000046 -0.010237 0.030126
v -0.000804 -0.009098 0.002845
v -0.012170 -0.008719 0.021030
v 0.008669 -0.041684 0.024439
v -0.009898 -0.041684 0.009666
v 0.012457 -0.029175 0.011181
v 0.013975 -0.010611 0.014969
v -0.010655 -0.008719 0.009666
v -0.008382 -0.041684 0.024818
v 0.004121 -0.010993 0.002845
v 0.004499 -0.010615 0.029366
v 0.010942 -0.041684 0.011181
v -0.007625 -0.003793 0.018375
v -0.004592 -0.025762 0.003223
v -0.004213 -0.010615 0.029366
v 0.013215 -0.010233 0.020272
v 0.003742 -0.003793 0.023305
v -0.001940 -0.003793 0.008529
v 0.001090 -0.028796 0.029745
v 0.004878 -0.028796 0.003602
v -0.011792 -0.041684 0.017239
v -0.012549 -0.028418 0.021408
v 0.008669 -0.008719 0.007390
v -0.013307 -0.010233 0.012320
v 0.011699 -0.041684 0.017239
v -0.004213 -0.010615 0.002845
v -0.000046 -0.028796 0.002466
v -0.012549 -0.028796 0.011181
v -0.004592 -0.028036 0.028987
v -0.004213 -0.003793 0.022924
v 0.004878 -0.041684 0.027093
v -0.004592 -0.041684 0.005117
v 0.007533 -0.041684 0.007011
v -0.013307 -0.010993 0.020651
v 0.005257 -0.028796 0.028608
v 0.003363 -0.003793 0.008905
v 0.012457 -0.029553 0.021030
v 0.012836 -0.009854 0.011560
v 0.013593 -0.029175 0.015729
v -0.005728 -0.003793 0.010423
v 0.008669 -0.030314 0.007011
v -0.009140 -0.029553 0.007393
v -0.002698 -0.003411 0.014972
v -0.000804 -0.010615 0.002084
v 0.012457 -0.008719 0.020272
v 0.010942 -0.029175 0.022924
v -0.014067 -0.010611 0.015729
v -0.004213 -0.008719 0.028608
v -0.004970 -0.008719 0.003981
v -0.007243 -0.028796 0.026714
v 0.006775 -0.003793 0.011938
v -0.000046 -0.025383 0.030126
v 0.004878 -0.008719 0.028230
v -0.008004 -0.041684 0.007393
v -0.012928 -0.008719 0.014593
v -0.011034 -0.041684 0.020651
v -0.013686 -0.028796 0.016863
v -0.011034 -0.041684 0.011560
f 130 166 167 
f 107 108 113 
f 108 107 114 
f 114 107 118 
f 113 108 121 
f 104 116 125 
f 114 118 130 
f 113 121 134 
f 133 117 135 
f 119 129 136 
f 129 108 136 
f 106 133 137 
f 118 107 138 
f 122 112 139 
f 107 113 140 
f 128 107 140 
f 108 114 141 
f 136 108 141 
f 123 136 141 
f 121 108 142 
f 115 121 142 
f 108 129 142 
f 124 112 143 
f 120 128 144 
f 140 113 144 
f 128 140 144 
f 119 111 145 
f 111 127 145 
f 132 119 145 
f 104 125 146 
f 113 134 146 
f 109 116 147 
f 116 115 147 
f 116 104 148 
f 115 116 148 
f 121 115 148 
f 134 121 148 
f 104 146 148 
f 146 134 148 
f 129 119 150 
f 119 132 150 
f 115 142 150 
f 142 129 150 
f 147 115 150 
f 132 147 150 
f 135 123 151 
f 133 135 151 
f 137 133 151 
f 126 109 152 
f 122 139 152 
f 139 126 152 
f 145 127 152 
f 149 122 152 
f 127 149 152 
f 111 119 153 
f 135 111 153 
f 123 135 153 
f 119 136 153 
f 136 123 153 
f 116 109 154 
f 125 116 154 
f 109 126 154 
f 125 120 155 
f 144 113 155 
f 120 144 155 
f 146 125 155 
f 113 146 155 
f 106 105 156 
f 133 106 156 
f 143 112 156 
f 105 143 156 
f 124 110 157 
f 112 124 157 
f 110 126 157 
f 139 112 157 
f 126 139 157 
f 127 111 158 
f 111 135 158 
f 135 117 158 
f 149 127 158 
f 117 149 158 
f 131 118 159 
f 118 138 159 
f 138 124 159 
f 124 143 159 
f 143 131 159 
f 132 145 160 
f 109 147 160 
f 147 132 160 
f 152 109 160 
f 145 152 160 
f 120 110 161 
f 110 124 161 
f 107 128 161 
f 128 120 161 
f 138 107 161 
f 124 138 161 
f 110 120 162 
f 120 125 162 
f 126 110 162 
f 125 154 162 
f 154 126 162 
f 114 137 163 
f 141 114 163 
f 123 141 163 
f 151 123 163 
f 137 151 163 
f 112 122 164 
f 117 133 164 
f 122 149 164 
f 149 117 164 
f 156 112 164 
f 133 156 164 
f 130 118 165 
f 118 131 165 
f 165 131 166 
f 105 106 166 
f 106 137 166 
f 143 105 166 
f 131 143 166 
f 130 165 166 
f 114 130 167 
f 137 114 167 
f 166 137 167 
