# https://github.com/mikedh/trimesh
mtllib material0.mtl
usemtl material0
v -0.01384836 -0.01109028 0.01640926
v 0.01606903 -0.05789478 0.01659583
v 0.00722600 -0.08923768 0.01301395
v 0.00627869 -0.08138388 0.00208374
v 0.00037011 -0.04753674 0.00216511
v 0.01539930 -0.08138719 0.01656802
v -0.00711144 -0.00848697 0.01338035
v -0.00711144 -0.00848697 0.01338035
v 0.00187259 0.08683608 0.01807594
v 0.00187259 0.08683608 0.01807594
v 0.00187259 0.08683608 0.01807594
v 0.01126198 -0.04647673 0.02119559
v 0.01475443 -0.08008993 0.02273655
v -0.01190685 -0.03460471 0.01636754
v 0.00952880 -0.08139276 0.02621000
v -0.01153674 -0.04648293 0.02057791
v -0.00588813 -0.04797026 0.02933695
v -0.00218260 0.08683622 0.01490961
v -0.00218260 0.08683622 0.01490961
v -0.00218260 0.08683622 0.01490961
v 0.00982401 -0.04898098 0.02567521
v -0.00456630 -0.00885384 0.00438110
v -0.00456630 -0.00885384 0.00438110
v 0.00631958 -0.05263597 0.00198563
v -0.00039972 -0.04796923 0.03058408
v -0.00039972 -0.04796923 0.03058408
v -0.01154273 -0.08710017 0.02115683
v -0.01442872 -0.04796716 0.01577368
v -0.01293946 -0.08139696 0.02110451
v -0.00859505 -0.01108539 0.00788423
v -0.01071438 -0.03842294 0.01194210
v 0.01126322 -0.05263604 0.00548621
v -0.00876689 -0.02822476 0.00770633
v 0.00499775 -0.04754645 0.02924353
v -0.00984198 -0.04758287 0.00665327
v 0.00013342 -0.08924415 0.02402038
v 0.00289446 -0.08923719 0.00882410
v -0.00021184 -0.04486575 0.00401547
v -0.00021184 -0.04486575 0.00401547
v -0.00024268 -0.02387112 0.00252724
v -0.00024268 -0.02387112 0.00252724
v 0.00021115 -0.08709989 0.02873104
v -0.00037486 -0.08139710 0.03000131
v -0.00037486 -0.08139710 0.03000131
v -0.00190378 0.08683498 0.01813872
v -0.00190378 0.08683498 0.01813872
v 0.00829633 -0.01333574 0.00758227
v -0.01081889 -0.08057405 0.00568593
v 0.00024922 -0.08407883 0.03107701
v 0.00024922 -0.08407883 0.03107701
v 0.00697292 -0.00395096 0.01314799
v 0.00697292 -0.00395096 0.01314799
v 0.00706985 -0.00395330 0.01898242
v 0.00706985 -0.00395330 0.01898242
v 0.00043868 0.08999972 0.01654654
v 0.00043868 0.08999972 0.01654654
v -0.00501606 -0.04753860 0.00308557
v -0.01127871 -0.05265098 0.02683883
v 0.01192379 -0.00885570 0.02033186
v 0.01192379 -0.00885570 0.02033186
v -0.00633507 -0.05265105 0.03033934
v -0.01142411 -0.08061901 0.02697274
v 0.01438680 -0.08138505 0.01064334
v 0.01046537 -0.08056786 0.00533206
v 0.01449096 -0.05263714 0.01061208
v -0.01072953 -0.08407167 0.00576999
v -0.01072953 -0.08407167 0.00576999
v 0.01282545 -0.02391002 0.01990502
v 0.01282545 -0.02391002 0.01990502
v -0.00038842 -0.04754831 0.03016406
v -0.00038842 -0.04754831 0.03016406
v 0.00697416 -0.00848290 0.01314614
v 0.00697416 -0.00848290 0.01314614
v 0.00707109 -0.00848524 0.01898063
v 0.00707109 -0.00848524 0.01898063
v 0.01271530 -0.04897836 0.02118843
v 0.01533252 -0.07801074 0.01589733
v -0.01339239 -0.02822958 0.01639480
v -0.00403385 -0.01108216 0.00316881
v -0.00403385 -0.01108216 0.00316881
v -0.01037863 -0.08408020 0.02688042
v -0.01037863 -0.08408020 0.02688042
v 0.01258876 -0.04648671 0.01134211
v 0.00501028 -0.08709810 0.02769320
v 0.00189958 -0.00903807 0.01803697
v 0.00189958 -0.00903807 0.01803697
v -0.01366275 -0.02388055 0.01640100
v -0.00359923 -0.01109262 0.02931616
v -0.00359923 -0.01109262 0.02931616
v -0.00484615 -0.04486747 0.00501758
v -0.00037397 0.08999945 0.01670695
v -0.00037397 0.08999945 0.01670695
v 0.00441546 -0.02829574 0.00382456
v 0.00441546 -0.02829574 0.00382456
v 0.01492840 -0.08406864 0.01590160
v 0.01492840 -0.08406864 0.01590160
v -0.00135653 0.08683512 0.01835483
v -0.00135653 0.08683512 0.01835483
v -0.00135653 0.08683512 0.01835483
v -0.00550707 -0.08138705 0.00176443
v -0.00500636 -0.08709156 0.00460382
v -0.01059329 -0.08138987 0.00496711
v 0.00041755 -0.08138498 0.00075193
v -0.00305446 -0.00848414 0.00918616
v -0.00305446 -0.00848414 0.00918616
v -0.00412514 -0.02387264 0.00343930
v -0.00412514 -0.02387264 0.00343930
v 0.00021046 -0.01109186 0.03000833
v 0.00260297 0.08294226 0.01617354
v 0.00260297 0.08294226 0.01617354
v 0.00260297 0.08294226 0.01617354
v 0.00594279 -0.08407676 0.02984579
v 0.00594279 -0.08407676 0.02984579
v 0.01271496 -0.04758238 0.02118891
v 0.00035586 -0.04648658 0.00268008
v 0.01046344 -0.04795628 0.00624440
v -0.01304307 -0.01334675 0.01992223
v -0.01304307 -0.01334675 0.01992223
v -0.00599050 -0.08057130 0.00234225
v 0.00440348 -0.04648134 0.02769231
v 0.00458853 -0.04185900 0.02676861
v -0.00023614 -0.04897437 0.00248573
v -0.00023614 -0.04897437 0.00248573
v -0.01061249 -0.04186093 0.02076620
v 0.01059404 -0.08139290 0.02733452
v 0.01366950 -0.04897595 0.01593664
v 0.00577660 -0.08009592 0.03124073
v 0.00798846 -0.03841605 0.00789765
v 0.00550783 -0.08139565 0.03053720
v -0.00851678 -0.00880627 0.00796140
v -0.00851678 -0.00880627 0.00796140
v 0.00610265 -0.07801914 0.03022065
v 0.00208870 0.08683635 0.01752875
v 0.00208870 0.08683635 0.01752875
v 0.00208870 0.08683635 0.01752875
v 0.01377807 -0.01333759 0.01594917
v -0.00187679 -0.00903924 0.01809976
v -0.01075948 -0.04185728 0.01192255
v -0.01066254 -0.07802265 0.02717459
v -0.01232805 -0.04649339 0.01066702
v 0.00356033 -0.01107995 0.00304255
v 0.00356033 -0.01107995 0.00304255
v -0.01276866 -0.00886107 0.01639219
v 0.01066137 -0.07800771 0.00512980
v -0.00043758 -0.08009813 0.03230274
v -0.00043758 -0.08009813 0.03230274
v 0.01265293 -0.08139008 0.02179792
v -0.00503314 -0.04898648 0.02888808
v 0.00543574 -0.04898339 0.02871404
v -0.00024812 -0.01333608 0.00238156
v -0.00024812 -0.01333608 0.00238156
v 0.01369717 -0.08406657 0.01020810
v 0.01369717 -0.08406657 0.01020810
v 0.00445319 -0.04486486 0.00486302
v -0.00610382 -0.07801115 0.00208381
v 0.01615137 -0.08008711 0.01658895
v 0.01214024 -0.04486713 0.01596370
v -0.00545330 -0.04897636 0.00361389
v 0.01066860 -0.05264506 0.02743338
v 0.00018492 -0.03460602 0.02806387
v -0.01438604 -0.08139765 0.02165830
v -0.00459129 -0.03841860 0.00561206
v 0.01129268 -0.04486926 0.02062872
v -0.00008984 0.08294254 0.01356878
v -0.00008984 0.08294254 0.01356878
v -0.00008984 0.08294254 0.01356878
v 0.00641355 -0.08060373 0.00178144
v 0.01441062 -0.04795931 0.01655515
v 0.00038161 -0.04795732 0.00174474
v -0.00282162 -0.00395784 0.02327355
v -0.00282162 -0.00395784 0.02327355
v 0.00543540 -0.04758748 0.02871466
v -0.01115795 -0.04487573 0.02100193
v -0.00474709 -0.03459817 0.00525682
v 0.00021858 -0.04898538 0.02984228
v 0.01154665 -0.08708950 0.01114019
v -0.01236240 -0.02830372 0.01174238
v -0.01236240 -0.02830372 0.01174238
v 0.00843877 -0.04486472 0.00743143
v 0.00587002 -0.04795621 0.00299188
v 0.00501524 -0.04757736 0.00344047
v 0.00867670 -0.02387759 0.02458243
v 0.00037562 -0.08138567 0.00230033
v 0.00827575 -0.01108050 0.00760382
v -0.00828236 -0.03842074 0.00816807
v -0.01505012 -0.08057956 0.01640134
v -0.00025005 -0.08056924 0.00110084
v -0.00025005 -0.08056924 0.00110084
v 0.00760162 -0.00395199 0.01605560
v 0.00760162 -0.00395199 0.01605560
v -0.00845860 -0.04487656 0.02489994
v -0.01102295 -0.07801391 0.00549027
v -0.00483238 -0.04648843 0.00356680
v -0.00288930 -0.08924477 0.02347120
v -0.01533369 -0.07801955 0.01640706
v 0.01336320 -0.02822187 0.01595006
v 0.00010526 -0.00395722 0.02380537
v 0.00010526 -0.00395722 0.02380537
v 0.00038285 0.09000000 0.01577520
v 0.01090020 -0.03459631 0.01143547
v 0.00021101 -0.02388214 0.02982114
v 0.00562610 -0.08061577 0.03084700
v 0.01113813 -0.04486555 0.01132938
v -0.01181921 -0.00886258 0.02072655
v -0.01181921 -0.00886258 0.02072655
v -0.01131251 -0.04487202 0.01170259
v 0.00760285 -0.00848394 0.01605375
v 0.00760285 -0.00848394 0.01605375
v -0.01368740 -0.04758789 0.01639191
v -0.01400023 -0.08057688 0.01062275
v -0.00555815 -0.05263914 0.00166385
v 0.00021824 -0.04758941 0.02984290
v -0.00334189 -0.01335398 0.02931492
v -0.00334189 -0.01335398 0.02931492
v -0.00992900 -0.04796179 0.00569199
v -0.00423791 -0.03842714 0.02687092
v -0.01068402 -0.05264189 0.00489152
v -0.01608149 -0.05790346 0.01572480
v -0.01539855 -0.08139558 0.01573361
v 0.01054454 -0.03841681 0.01158879
v 0.01311770 -0.01334537 0.01950158
v 0.01311770 -0.01334537 0.01950158
v -0.01273286 -0.04898139 0.01113957
v 0.00875126 -0.08708867 0.00710345
v 0.01111135 -0.08009310 0.02788149
v -0.01369497 -0.08407910 0.02209140
v -0.01369497 -0.08407910 0.02209140
v 0.00025032 -0.08058128 0.03120149
v -0.00447301 -0.04487649 0.02746829
v -0.00658512 -0.08009937 0.03090580
v 0.00574314 -0.05790359 0.03117870
v 0.01467870 -0.05789760 0.02271445
v 0.00481345 -0.04649594 0.02876326
v -0.00641328 -0.08061908 0.03052088
v 0.01299116 -0.01108098 0.01216495
v 0.01299116 -0.01108098 0.01216495
v -0.00532215 -0.00395791 0.02166215
v -0.00532215 -0.00395791 0.02166215
v -0.00049307 0.08999979 0.01578979
v 0.01426294 -0.07801342 0.02178449
v 0.00654787 -0.05789127 0.00147542
v -0.00842404 -0.02388255 0.02486669
v -0.00823898 -0.00881302 0.02467709
v -0.00823898 -0.00881302 0.02467709
v 0.01311736 -0.01108408 0.01975920
v 0.01311736 -0.01108408 0.01975920
v -0.01273320 -0.04758548 0.01114019
v 0.00301418 -0.00848814 0.02317475
v 0.00301418 -0.00848814 0.02317475
v 0.00802391 -0.04185040 0.00786061
v 0.00839244 -0.02387071 0.00748169
v -0.00874727 -0.08710100 0.02519357
v -0.01258057 -0.08709845 0.01635770
v -0.01302999 -0.01109159 0.02019382
v -0.01302999 -0.01109159 0.02019382
v -0.00044178 -0.05790573 0.03223568
v -0.00044178 -0.05790573 0.03223568
v 0.00962174 -0.04754397 0.02633186
v 0.00552848 -0.08056800 0.00215079
v -0.00827582 -0.03463893 0.02471220
v -0.00827582 -0.03463893 0.02471220
v 0.00829551 -0.04185694 0.02420151
v 0.00017948 -0.03842624 0.02767344
v -0.00004241 0.08999966 0.01654599
v -0.00004241 0.08999966 0.01654599
v -0.00004241 0.08999966 0.01654599
v 0.01177914 -0.00885219 0.01163402
v 0.01177914 -0.00885219 0.01163402
v -0.01017643 -0.04754934 0.02579548
v 0.00787534 -0.08923871 0.01601678
v -0.00313108 -0.08923892 0.00892420
v -0.00831706 -0.04185508 0.00813227
v 0.00991096 -0.04796475 0.02663691
v 0.00495410 -0.08139524 0.02909062
v 0.00027765 0.08999986 0.01621505
v 0.00027765 0.08999986 0.01621505
v 0.00027765 0.08999986 0.01621505
v -0.00701443 -0.00848931 0.01921477
v -0.00701443 -0.00848931 0.01921477
v -0.00764451 -0.00395640 0.01630902
v -0.00764451 -0.00395640 0.01630902
v 0.01154404 -0.04185267 0.01597478
v 0.00895167 -0.04647191 0.00767666
v 0.01508936 -0.08008484 0.01037477
v 0.00277873 -0.00395048 0.00909101
v 0.00277873 -0.00395048 0.00909101
v -0.00014692 -0.00848304 0.00855739
v -0.00014692 -0.00848304 0.00855739
v -0.00014692 -0.00848304 0.00855739
v -0.00014692 -0.00848304 0.00855739
v -0.01106522 -0.05789754 0.00448547
v 0.00599077 -0.08057915 0.02996007
v -0.01426404 -0.07801687 0.01051990
v 0.01073173 -0.08407408 0.02652951
v 0.01073173 -0.08407408 0.02652951
v 0.01166865 -0.05789134 0.00510136
v 0.01306979 -0.04753681 0.01115761
v 0.00477311 -0.02822937 0.02840768
v 0.00477311 -0.02822937 0.02840768
v -0.01092581 -0.03460630 0.02090417
v -0.01573003 -0.08061571 0.01572494
v -0.00020296 -0.03841702 0.00466303
v -0.00020296 -0.03841702 0.00466303
v -0.00024702 -0.08406685 0.00122248
v -0.00024702 -0.08406685 0.00122248
v -0.00024702 -0.08406685 0.00122248
v -0.00024702 -0.08406685 0.00122248
v 0.00277997 -0.00848242 0.00908915
v 0.00277997 -0.00848242 0.00908915
v -0.00037479 -0.04649773 0.02964985
v -0.00037479 -0.04649773 0.02964985
v -0.00831458 -0.01109214 0.02475496
v -0.00563285 -0.07802251 0.03041569
v -0.01260770 -0.04649773 0.02098788
v 0.00950209 -0.04757722 0.00633183
v -0.01255923 -0.04758968 0.02160900
v 0.01316355 -0.04796193 0.02204349
v 0.01222065 -0.02822028 0.01138473
v 0.01222065 -0.02822028 0.01138473
v 0.01385090 -0.08138767 0.01652609
v -0.00870830 -0.02387567 0.00776595
v 0.01399032 -0.04753881 0.01654385
v -0.00021053 -0.03459645 0.00427577
v -0.00021053 -0.03459645 0.00427577
v -0.00417161 -0.00886341 0.02812411
v -0.00417161 -0.00886341 0.02812411
v -0.00023697 -0.02822028 0.00279463
v -0.00023697 -0.02822028 0.00279463
v 0.00852958 -0.03463411 0.02443290
v 0.00852958 -0.03463411 0.02443290
v -0.01046510 -0.08058259 0.02697019
v 0.01272859 -0.00885370 0.01596831
v -0.01118329 -0.08139882 0.02674452
v 0.01142438 -0.08060380 0.00532959
v 0.00423364 -0.04185047 0.00541819
v 0.00847671 -0.00880820 0.02439923
v 0.00847671 -0.00880820 0.02439923
v 0.00545853 -0.00395481 0.02148302
v 0.00545853 -0.00395481 0.02148302
v 0.01102185 -0.07801639 0.02681412
v -0.00571691 -0.04754934 0.02895321
v -0.01234808 -0.04648121 0.01583069
v -0.00038994 0.08999986 0.01574511
v -0.00038994 0.08999986 0.01574511
v 0.00421443 -0.03841605 0.00546562
v 0.00265027 -0.00903711 0.01613581
v 0.01081917 -0.08057646 0.02661646
v 0.00545977 -0.00848676 0.02148116
v 0.00545977 -0.00848676 0.02148116
v 0.00018127 -0.04186066 0.02772164
v 0.00845151 -0.02821980 0.00742007
v 0.01233328 -0.02830042 0.02060242
v 0.01233328 -0.02830042 0.02060242
v -0.00002141 -0.00385657 0.01618235
v -0.00565681 -0.08924029 0.01067328
v 0.01573038 -0.08060717 0.01657731
v -0.01048148 -0.04797019 0.02608443
v -0.00547175 -0.08924484 0.02180707
v -0.01151691 -0.03842494 0.01635949
v -0.00004785 0.08999972 0.01622042
v 0.00029424 0.08999966 0.01669586
v 0.00029424 0.08999966 0.01669586
v -0.00213792 0.08683518 0.01759898
v -0.00213792 0.08683518 0.01759898
v -0.00213792 0.08683518 0.01759898
v 0.00021053 -0.01334716 0.02997535
v 0.00825888 -0.03842260 0.02416846
v -0.00550135 -0.00395358 0.01088161
v -0.00550135 -0.00395358 0.01088161
v 0.00514818 -0.04796730 0.02963595
v -0.00874424 -0.04486968 0.00771700
v 0.01277953 -0.04754128 0.02187234
v -0.00269467 0.08294075 0.01626159
v -0.00269467 0.08294075 0.01626159
v -0.00269467 0.08294075 0.01626159
v -0.01279785 -0.04754376 0.01045683
v -0.00269027 -0.00903862 0.01622462
v 0.01346248 -0.04795738 0.01100718
v -0.00024929 -0.01108071 0.00235038
v -0.00024929 -0.01108071 0.00235038
v 0.00372501 -0.01334579 0.02920277
v 0.00372501 -0.01334579 0.02920277
v 0.01551131 -0.05263927 0.01658296
v -0.01381566 -0.01334551 0.01640782
v 0.01151781 -0.04647287 0.01175209
v -0.00376253 -0.01333732 0.00315414
v -0.00376253 -0.01333732 0.00315414
v 0.00409354 -0.02388062 0.02890915
v 0.00409354 -0.02388062 0.02890915
v -0.01552680 -0.05264767 0.01574208
v -0.01502451 -0.05790566 0.02190972
v -0.00711275 -0.00395502 0.01338214
v -0.00711275 -0.00395502 0.01338214
v -0.01469123 -0.05790056 0.00960625
v -0.01436958 -0.08061281 0.00973775
v 0.00399502 -0.01109042 0.02918990
v 0.00399502 -0.01109042 0.02918990
v 0.00548428 -0.08406568 0.00226377
v 0.00548428 -0.08406568 0.00226377
v 0.00413161 -0.00885136 0.00423653
v 0.00413161 -0.00885136 0.00423653
v -0.01418453 -0.05264485 0.00983516
v 0.00025425 -0.07802134 0.03148534
v -0.00461008 -0.04185295 0.00556517
v -0.01128091 -0.04647900 0.01113441
v 0.00501565 -0.04897333 0.00343985
v 0.00569860 -0.04753578 0.00337589
v -0.00855512 -0.03463211 0.00790674
v -0.00855512 -0.03463211 0.00790674
v 0.00926753 -0.04649360 0.02595865
v -0.01508936 -0.08009806 0.02192790
v -0.01318152 -0.04796461 0.01028527
v -0.01349435 -0.04649587 0.01579964
v 0.00847884 -0.04647914 0.02512603
v -0.01285705 -0.02391429 0.01244336
v -0.01285705 -0.02391429 0.01244336
v -0.01082144 -0.08060979 0.00472685
v -0.00034374 -0.04648293 0.02850358
v -0.00034374 -0.04648293 0.02850358
v -0.00020716 -0.08708984 0.00356598
v -0.00020716 -0.08708984 0.00356598
v -0.01380877 -0.08058149 0.02214180
v 0.00000275 -0.09000000 0.01614731
v -0.00801193 -0.03842728 0.02443889
v -0.01400863 -0.04754631 0.01578532
v -0.01368698 -0.04898380 0.01639136
v 0.00452623 -0.00886086 0.02797946
v 0.00452623 -0.00886086 0.02797946
v -0.00444458 -0.02830833 0.02852024
v -0.00444458 -0.02830833 0.02852024
v -0.00425512 -0.04186155 0.02691566
v -0.00037335 0.08999966 0.01622586
v -0.00037335 0.08999966 0.01622586
v -0.00037335 0.08999966 0.01622586
v 0.01254092 -0.04757819 0.01072003
v 0.01173020 -0.08008367 0.00504002
v -0.00952040 -0.04759058 0.02599734
v -0.01406907 -0.07802162 0.02225546
v 0.00204402 0.08683746 0.01483932
v 0.00204402 0.08683746 0.01483932
v 0.00204402 0.08683746 0.01483932
v -0.00282031 -0.00848972 0.02327176
v -0.00282031 -0.00848972 0.02327176
v 0.00855622 -0.01108725 0.02447455
v -0.00005329 0.08999986 0.01589499
v -0.00005329 0.08999986 0.01589499
v -0.00005329 0.08999986 0.01589499
v 0.00019187 -0.00886245 0.02892897
v -0.00833392 -0.01334737 0.02477465
v 0.01400057 -0.08057350 0.02167950
v 0.01188124 -0.03459790 0.01597209
v 0.00002444 -0.00903897 0.01885051
v 0.00982360 -0.04758507 0.02567583
v 0.01149351 -0.03841833 0.01597705
v -0.01308810 -0.04754831 0.02117149
v 0.00658512 -0.08008360 0.00139687
v 0.00126255 0.08683753 0.01408346
v 0.00126255 0.08683753 0.01408346
v 0.00126255 0.08683753 0.01408346
v 0.00527933 -0.00395048 0.01070234
v 0.00527933 -0.00395048 0.01070234
v 0.01380953 -0.01108229 0.01594951
v 0.01232908 -0.04647453 0.01649931
v -0.00562576 -0.08060703 0.00145518
v 0.00010657 -0.00848917 0.02380352
v 0.00010657 -0.00848917 0.02380352
v -0.00142675 0.08683677 0.01412821
v -0.00142675 0.08683677 0.01412821
v -0.00142675 0.08683677 0.01412821
v -0.01111135 -0.08008980 0.00442124
v 0.00039737 0.08999972 0.01665112
v -0.00722076 -0.08924429 0.01928128
v -0.00042815 -0.05264994 0.03168154
v -0.00042815 -0.05264994 0.03168154
v 0.01505046 -0.08057089 0.01590098
v 0.01406790 -0.07800867 0.01004899
v 0.00528057 -0.00848242 0.01070048
v 0.00528057 -0.00848242 0.01070048
v 0.01015811 -0.04753571 0.00653362
v -0.01348059 -0.04796916 0.02132164
v -0.00305576 -0.00395220 0.00918802
v -0.00305576 -0.00395220 0.00918802
v -0.00516628 -0.04795924 0.00269288
v -0.01265224 -0.08139262 0.01050379
v -0.00461993 -0.08710093 0.02785327
v 0.00825028 -0.03462729 0.00762743
v 0.00825028 -0.03462729 0.00762743
v -0.00504009 -0.04648389 0.02743641
v -0.00964005 -0.04754108 0.00599732
v -0.01275076 -0.02388186 0.02028346
v -0.01275076 -0.02388186 0.02028346
v 0.00873777 -0.02822668 0.02463854
v -0.01156552 -0.04185935 0.01635894
v -0.00980308 -0.04649876 0.02544196
v 0.01501205 -0.05789251 0.01041098
v -0.01173013 -0.08009923 0.02726264
v -0.00861502 -0.01334062 0.00786337
v 0.00180980 0.08683759 0.01429957
v 0.00180980 0.08683759 0.01429957
v -0.00594052 -0.08406898 0.00245364
v -0.00594052 -0.08406898 0.00245364
v 0.00042629 -0.08060490 0.00042099
v -0.00532084 -0.00848979 0.02166036
v -0.00532084 -0.00848979 0.02166036
v -0.00928633 -0.04649084 0.00637142
v -0.01492613 -0.08407718 0.01639783
v -0.01492613 -0.08407718 0.01639783
v -0.00047854 0.08999945 0.01666564
v -0.00006437 -0.00903683 0.01350998
v -0.00014809 -0.00395110 0.00855918
v -0.00014809 -0.00395110 0.00855918
v -0.00014809 -0.00395110 0.00855918
v 0.01469605 -0.08060497 0.01052520
v -0.00041686 -0.08139772 0.03154971
v -0.00041686 -0.08139772 0.03154971
v -0.00984150 -0.04897877 0.00665279
v 0.01069091 -0.03842032 0.02039444
v 0.00482640 -0.04487381 0.02731373
v 0.01038090 -0.08406561 0.00541908
v 0.01038090 -0.08406561 0.00541908
v -0.00025542 -0.07800902 0.00081905
v -0.00025542 -0.07800902 0.00081905
v 0.00547691 -0.08923713 0.01048823
v 0.00042753 0.09000000 0.01587833
v 0.00042753 0.09000000 0.01587833
v 0.00566197 -0.08924160 0.02162195
v -0.00804539 -0.04186162 0.02447317
v -0.00550748 -0.04649876 0.02848368
v 0.00041273 -0.05263707 0.00064343
v -0.01469577 -0.08061784 0.02177713
v -0.00196656 0.08683649 0.01436242
v -0.00196656 0.08683649 0.01436242
v -0.01450631 -0.05264981 0.02171289
v 0.00435618 -0.03459556 0.00510549
v 0.00950250 -0.04897320 0.00633121
v 0.00548855 -0.04648568 0.00384638
v -0.01255882 -0.04898566 0.02160852
v 0.01230918 -0.04649098 0.02166298
v -0.00374663 -0.02391842 0.02901544
v -0.00374663 -0.02391842 0.02901544
v -0.01615137 -0.08009586 0.01571379
v -0.01315522 -0.01335006 0.01285526
v -0.01315522 -0.01335006 0.01285526
v -0.00552827 -0.08058252 0.03015153
v 0.00904709 -0.08709583 0.02489781
v -0.00042601 -0.08061791 0.03188133
v -0.00042601 -0.08061791 0.03188133
v -0.00764320 -0.00848827 0.01630716
v -0.00764320 -0.00848827 0.01630716
v 0.00043758 -0.08008470 0.00000000
v -0.00023655 -0.04757839 0.00248628
v -0.00023655 -0.04757839 0.00248628
v 0.01118405 -0.08138388 0.00555719
v 0.01366908 -0.04757998 0.01593719
v -0.00442234 -0.04647439 0.00463769
v 0.00330436 -0.01334145 0.00304206
v 0.00330436 -0.01334145 0.00304206
v 0.01170679 -0.08709342 0.02077040
v -0.01107713 -0.03460258 0.01180083
v -0.00020289 -0.04185136 0.00461208
v -0.00020289 -0.04185136 0.00461208
v -0.01170280 -0.08709625 0.01152662
v 0.00554266 -0.05264781 0.03066119
v -0.00577660 -0.08008697 0.00106201
v -0.01385015 -0.08139510 0.01577554
v 0.00019208 -0.04487560 0.02831584
v 0.00502116 -0.04647184 0.00489359
v -0.00503355 -0.04759051 0.02888863
v -0.00904310 -0.08709384 0.00739921
v 0.00472154 -0.03460437 0.02708282
v 0.00978415 -0.04648568 0.00688810
v -0.00000179 0.08294047 0.01886642
v -0.00000179 0.08294047 0.01886642
v -0.00000179 0.08294047 0.01886642
v -0.00848070 -0.02823164 0.02492480
v -0.00545371 -0.04758039 0.00361444
v -0.00052329 0.08999945 0.01656251
v -0.00052329 0.08999945 0.01656251
v 0.01105152 -0.03459996 0.02053881
v -0.01168111 -0.05790683 0.02721934
v -0.00012833 -0.08923781 0.00827492
v -0.00012833 -0.08923781 0.00827492
v 0.00183679 -0.00903663 0.01426060
v 0.01294015 -0.08138567 0.01119713
v 0.00133291 0.08683580 0.01831008
v 0.00133291 0.08683580 0.01831008
v 0.00133291 0.08683580 0.01831008
v -0.01056795 -0.03842652 0.02074782
v -0.00952811 -0.08138994 0.00609170
v -0.00438179 -0.03460705 0.02723414
v 0.01105276 -0.05790077 0.02783523
v 0.00027827 0.09000000 0.01573396
v 0.00027827 0.09000000 0.01573396
v 0.00371503 -0.02390596 0.00333287
v 0.00371503 -0.02390596 0.00333287
v -0.01216013 -0.04487415 0.01636768
v 0.00020777 -0.02823109 0.02955023
v 0.00563168 -0.07800778 0.00188870
v -0.00627800 -0.08139882 0.03021796
v 0.01258450 -0.08709122 0.01593939
v -0.00193958 -0.00903773 0.01432346
v 0.01416911 -0.05264203 0.02248988
v -0.00495335 -0.08138753 0.00321101
v -0.00548208 -0.08408007 0.03003566
v -0.00548208 -0.08408007 0.03003566
v -0.01224984 -0.02823109 0.02096014
v -0.01224984 -0.02823109 0.02096014
v 0.00313624 -0.08924298 0.02337103
v -0.00787018 -0.08924325 0.01627846
v 0.00819885 -0.00880145 0.00768354
v 0.00819885 -0.00880145 0.00768354
v 0.00301287 -0.00395619 0.02317661
v 0.00301287 -0.00395619 0.02317661
v 0.01388712 -0.08407125 0.02163296
v 0.01388712 -0.08407125 0.02163296
v -0.01406673 -0.08139276 0.00987248
v 0.00462392 -0.08708874 0.00444375
v 0.00042932 -0.05789244 0.00008509
v -0.00732100 -0.08924188 0.01325574
v -0.00564669 -0.08139806 0.02880347
v -0.01005877 -0.08139806 0.02567927
v 0.01380905 -0.08056889 0.01016052
v -0.00897047 -0.04648382 0.02465334
v 0.00872441 -0.04487167 0.02461431
v -0.01315626 -0.01108856 0.01259957
v -0.01315626 -0.01108856 0.01259957
v -0.00480230 -0.02822207 0.00393719
v -0.00480230 -0.02822207 0.00393719
v -0.00656033 -0.05790690 0.03084535
v 0.01082171 -0.08061302 0.02757548
v 0.01005946 -0.08138464 0.00662236
v 0.01073800 -0.04185474 0.02041124
v -0.00550005 -0.00848552 0.01087975
v -0.00550005 -0.00848552 0.01087975
v 0.00857743 -0.01334248 0.02449362
v 0.01363122 -0.02387264 0.01594738
v -0.00053438 0.08999972 0.01589430
v -0.00053438 0.08999972 0.01589430
v 0.00564737 -0.08138464 0.00349823
v 0.00032481 -0.04647274 0.00382642
v 0.00456788 -0.03842459 0.02672455
v 0.01300555 -0.01333642 0.01243469
v 0.01300555 -0.01333642 0.01243469
v -0.01388484 -0.08407456 0.01066654
v -0.01388484 -0.08407456 0.01066654
v 0.00732610 -0.08924009 0.01903949
v -0.00575560 -0.05789464 0.00114207
v -0.00701574 -0.00395736 0.01921656
v -0.00701574 -0.00395736 0.01921656
v 0.01059101 -0.04185116 0.01156765
v 0.01406742 -0.08139001 0.02242916
v -0.01196379 -0.00885907 0.01202864
v -0.01196379 -0.00885907 0.01202864
v 0.01271916 -0.02387133 0.01206485
v 0.01271916 -0.02387133 0.01206485
v 0.01436986 -0.08060999 0.02256458
v -0.00849777 -0.04647659 0.00720397
v 0.01347542 -0.04648857 0.01653036
v -0.00023194 -0.00885226 0.00343166
v -0.00023194 -0.00885226 0.00343166
v 0.01254133 -0.04897416 0.01071948
v -0.01475443 -0.08009290 0.00956618
v -0.00951999 -0.04898655 0.02599679
vt 0.77720200 0.76525300
vt 0.11517200 0.43773100
vt 0.38850400 0.20336600
vt 0.28415700 0.57214900
vt 0.03899900 0.61695500
vt 0.28415700 0.43773100
vt 0.83150400 0.77488300
vt 0.80706800 0.28233100
vt 0.31029400 0.97539900
vt 0.67839700 0.32374200
vt 0.42813200 0.97535800
vt 0.02248800 0.39292500
vt 0.27334700 0.39292500
vt 0.63286300 0.79623400
vt 0.29519700 0.34811900
vt 0.02248800 0.84098600
vt 0.04323800 0.93059800
vt 0.71867600 0.37010400
vt 0.44721500 0.28741500
vt 0.37347000 0.97536700
vt 0.50819200 0.57516500
vt 0.82794300 0.84098000
vt 0.22378000 0.05514800
vt 0.07750400 0.57214900
vt 0.04323800 0.25850600
vt 0.04323800 0.97540400
vt 0.34260000 0.05933900
vt 0.04323800 0.79618000
vt 0.29519700 0.84098600
vt 0.18445300 0.06970200
vt 0.60986800 0.83755900
vt 0.07750400 0.52734300
vt 0.17853600 0.19365900
vt 0.03899900 0.30331300
vt 0.54202600 0.89293900
vt 0.31899100 0.14178200
vt 0.42500600 0.18022800
vt 0.58923900 0.95897800
vt 0.59614000 0.36187100
vt 0.74678100 0.91590700
vt 0.74729600 0.40365400
vt 0.28289000 0.13870900
vt 0.29519700 0.25850600
vt 0.29519700 0.97540400
vt 0.67839700 0.36772400
vt 0.39867200 0.97536100
vt 0.56976800 0.07706300
vt 0.48190300 0.37750600
vt 0.48657900 0.63442400
vt 0.25512400 0.13634500
vt 0.59180200 0.24953700
vt 0.75911700 0.22669700
vt 0.80053300 0.23493500
vt 0.63485600 0.24953700
vt 0.23383300 0.24252800
vt 0.69782200 0.34209300
vt 0.03899900 0.66176200
vt 0.07750400 0.88579200
vt 0.64514200 0.04250200
vt 0.78542000 0.57815400
vt 0.07750400 0.93059800
vt 0.27811700 0.88579200
vt 0.28415700 0.48253700
vt 0.48294400 0.88754700
vt 0.07750400 0.48253700
vt 0.50733400 0.38170200
vt 0.45908800 0.05486900
vt 0.70212500 0.55794600
vt 0.63330100 0.15137700
vt 0.03899900 0.25850600
vt 0.03899900 0.97540400
vt 0.59180200 0.28233100
vt 0.83145200 0.54197900
vt 0.63485600 0.28233100
vt 0.81739700 0.58853200
vt 0.51402900 0.53550500
vt 0.45286900 0.80616000
vt 0.67884100 0.78785000
vt 0.23192900 0.07202400
vt 0.81846100 0.85428500
vt 0.48889600 0.55027200
vt 0.29378300 0.05662600
vt 0.03066200 0.48253700
vt 0.28672000 0.17306600
vt 0.30980300 0.28160900
vt 0.42813200 0.28156700
vt 0.70588300 0.78231200
vt 0.76450100 0.67730500
vt 0.02461100 0.06749600
vt 0.57663800 0.92385200
vt 0.69674800 0.34829900
vt 0.49946400 0.07938400
vt 0.52557200 0.18339700
vt 0.70654800 0.42724100
vt 0.49600200 0.80124100
vt 0.35564400 0.26696700
vt 0.49110500 0.05394000
vt 0.67601700 0.36402100
vt 0.40293000 0.97536000
vt 0.28415700 0.66176200
vt 0.46294100 0.10374300
vt 0.28415700 0.70656800
vt 0.28415700 0.61695500
vt 0.85012000 0.28233100
vt 0.85292300 0.81558300
vt 0.73684600 0.88848500
vt 0.22557700 0.16441900
vt 0.76330200 0.65802400
vt 0.61914800 0.35296700
vt 0.23647700 0.18909800
vt 0.32500600 0.94720600
vt 0.48727800 0.67630100
vt 0.25935800 0.18078300
vt 0.52433300 0.53727800
vt 0.03066200 0.61695500
vt 0.04323800 0.52734300
vt 0.12023300 0.08844800
vt 0.76152300 0.74905400
vt 0.48957500 0.33479300
vt 0.02248800 0.30331300
vt 0.56463200 0.61899100
vt 0.56680300 0.34799500
vt 0.55764000 0.97330100
vt 0.56935200 0.76877900
vt 0.28415700 0.34811900
vt 0.52149500 0.49689500
vt 0.27334700 0.30331300
vt 0.62268400 0.44423800
vt 0.28415700 0.30331300
vt 0.18524100 0.05317800
vt 0.81307100 0.81142600
vt 0.44345800 0.67766900
vt 0.31455100 0.97539600
vt 0.68210000 0.32136200
vt 0.22547400 0.21708400
vt 0.76629600 0.54826200
vt 0.39854900 0.28156900
vt 0.58195600 0.84342100
vt 0.44469500 0.54795900
vt 0.03066200 0.75137400
vt 0.52306500 0.05852600
vt 0.81834800 0.46278100
vt 0.78997600 0.76158100
vt 0.46484200 0.89064800
vt 0.27334700 0.25850600
vt 0.27334700 0.97540400
vt 0.29519700 0.39292500
vt 0.50329300 0.69519500
vt 0.50490100 0.61533200
vt 0.81785900 0.43218700
vt 0.81851700 0.88497300
vt 0.50125300 0.84237700
vt 0.40013400 0.26696700
vt 0.58364000 0.39500500
vt 0.47094800 0.33119600
vt 0.27334700 0.43773100
vt 0.55439800 0.50360200
vt 0.54349800 0.93483100
vt 0.07750400 0.34811900
vt 0.62098800 0.65708000
vt 0.28415700 0.84098600
vt 0.62737900 0.90871200
vt 0.54807900 0.54109900
vt 0.54336000 0.35614700
vt 0.35447100 0.94719000
vt 0.25289400 0.02713900
vt 0.27811700 0.57214900
vt 0.04323800 0.43773100
vt 0.04323800 0.61695500
vt 0.72096100 0.24953700
vt 0.84388300 0.17005800
vt 0.51542600 0.61599800
vt 0.54418200 0.77197700
vt 0.65699200 0.90094600
vt 0.50353500 0.65521300
vt 0.39523300 0.23903100
vt 0.13947800 0.19236700
vt 0.68436200 0.81890400
vt 0.57297500 0.43043800
vt 0.04323800 0.57214900
vt 0.56200200 0.38726900
vt 0.67848900 0.15327800
vt 0.29519700 0.61695500
vt 0.57054700 0.06073200
vt 0.61823800 0.87334000
vt 0.47033500 0.46317800
vt 0.49840600 0.29249100
vt 0.49927200 0.96968400
vt 0.77900600 0.23493500
vt 0.61332900 0.24953700
vt 0.54070100 0.73316900
vt 0.46322500 0.37446800
vt 0.03066200 0.66176200
vt 0.32480300 0.12125700
vt 0.45162900 0.46119200
vt 0.68072300 0.52843000
vt 0.69943500 0.24953700
vt 0.84388300 0.19158600
vt 0.70366000 0.34246100
vt 0.64312100 0.48531000
vt 0.69298700 0.65769200
vt 0.27811700 0.30331300
vt 0.56295400 0.46675700
vt 0.11142100 0.05514800
vt 0.78481600 0.73850900
vt 0.55703800 0.84861900
vt 0.82516100 0.56548200
vt 0.61332900 0.28233100
vt 0.52590800 0.81442700
vt 0.47551400 0.42034500
vt 0.07750400 0.66176200
vt 0.51407500 0.65546300
vt 0.75223000 0.67717400
vt 0.02248800 0.08382800
vt 0.04323800 0.70656800
vt 0.59155300 0.69286700
vt 0.07750400 0.70656800
vt 0.11517200 0.79618000
vt 0.28415700 0.79618000
vt 0.61394600 0.47874800
vt 0.63330100 0.07485800
vt 0.76175600 0.56743200
vt 0.52253000 0.85577800
vt 0.42763900 0.22627400
vt 0.27334700 0.34811900
vt 0.49170700 0.50803600
vt 0.33248800 0.03278800
vt 0.46135900 0.63448500
vt 0.53827200 0.69441300
vt 0.27334700 0.93059800
vt 0.11517200 0.30331300
vt 0.11517200 0.39292500
vt 0.03066200 0.30331300
vt 0.27811700 0.93059800
vt 0.61802300 0.06305400
vt 0.78453300 0.53236700
vt 0.74248800 0.24953700
vt 0.83564400 0.15017000
vt 0.70366000 0.34900500
vt 0.44853200 0.76358300
vt 0.11517200 0.57214900
vt 0.06767600 0.16224800
vt 0.78170700 0.70926700
vt 0.07288100 0.05317800
vt 0.77372500 0.57077100
vt 0.63542400 0.05852600
vt 0.53300500 0.85367100
vt 0.67790900 0.28233100
vt 0.81088400 0.63392200
vt 0.59638000 0.43710400
vt 0.56613000 0.15327800
vt 0.31348500 0.07801800
vt 0.37649900 0.05244200
vt 0.77333500 0.74572800
vt 0.11957000 0.07202400
vt 0.11517200 0.25850600
vt 0.11517200 0.97540400
vt 0.03899900 0.34811900
vt 0.49057700 0.92887900
vt 0.62278700 0.72660200
vt 0.06396700 0.23997100
vt 0.56813600 0.58190200
vt 0.59097200 0.65670600
vt 0.69782200 0.34573300
vt 0.50210800 0.07973300
vt 0.65572200 0.31029000
vt 0.79868000 0.53261200
vt 0.60987400 0.04617900
vt 0.03899900 0.88579200
vt 0.36695900 0.20372800
vt 0.42997900 0.12181100
vt 0.59084400 0.88020000
vt 0.04323800 0.34811900
vt 0.29519700 0.30331300
vt 0.61914800 0.29918800
vt 0.23647700 0.24287700
vt 0.70038800 0.34316700
vt 0.76401400 0.28233100
vt 0.81707500 0.72813500
vt 0.80053300 0.12670900
vt 0.78554100 0.24953700
vt 0.57878100 0.50843700
vt 0.02248800 0.52734300
vt 0.27334700 0.48253700
vt 0.54874900 0.24953700
vt 0.73565700 0.19158600
vt 0.87164700 0.28233100
vt 0.52722300 0.28233100
vt 0.87015000 0.83122300
vt 0.87015000 0.48565700
vt 0.11517200 0.70656800
vt 0.46203600 0.67708800
vt 0.45681200 0.41784600
vt 0.48911400 0.71817300
vt 0.27975000 0.22145200
vt 0.11517200 0.52734300
vt 0.03899900 0.48253700
vt 0.66674200 0.62774800
vt 0.71648800 0.18659500
vt 0.62749100 0.76108600
vt 0.27811700 0.79618000
vt 0.64131300 0.37747500
vt 0.63676400 0.94305100
vt 0.52341100 0.29784600
vt 0.52341100 0.96443100
vt 0.49917800 0.18446700
vt 0.50380000 0.13017200
vt 0.85295100 0.50145400
vt 0.54874900 0.28233100
vt 0.03066200 0.25850600
vt 0.03066200 0.97540400
vt 0.07209300 0.06970100
vt 0.44311200 0.59134700
vt 0.03066200 0.84098600
vt 0.54983200 0.42356800
vt 0.51987200 0.77501800
vt 0.04323800 0.39292500
vt 0.60412900 0.18659500
vt 0.68679000 0.49843000
vt 0.29519700 0.43773100
vt 0.18003600 0.16224800
vt 0.03899900 0.43773100
vt 0.66573300 0.93617600
vt 0.66907800 0.38426000
vt 0.03432900 0.05147200
vt 0.77758900 0.68126200
vt 0.71521200 0.92593400
vt 0.71668800 0.39425700
vt 0.67478000 0.23100100
vt 0.62433900 0.58797500
vt 0.46340600 0.54891100
vt 0.79040000 0.55497800
vt 0.28415700 0.88579200
vt 0.27811700 0.52734300
vt 0.60628600 0.40261200
vt 0.78204700 0.60632100
vt 0.68369400 0.04420800
vt 0.82042200 0.22669700
vt 0.65638200 0.24953700
vt 0.44536300 0.72071300
vt 0.03899900 0.93059800
vt 0.02248800 0.79618000
vt 0.54071600 0.30271700
vt 0.70402800 0.34829900
vt 0.63198700 0.41030500
vt 0.32459500 0.28159800
vt 0.46388000 0.71961100
vt 0.65638200 0.28233100
vt 0.81095500 0.61068000
vt 0.56282300 0.65629900
vt 0.56463000 0.18468900
vt 0.67414600 0.55842200
vt 0.63793100 0.18339700
vt 0.78977000 0.18082200
vt 0.41637900 0.10425600
vt 0.27811700 0.43773100
vt 0.04323800 0.88579200
vt 0.33765400 0.10429300
vt 0.60269200 0.80147600
vt 0.70038800 0.34573300
vt 0.69674800 0.34316700
vt 0.65307800 0.31063900
vt 0.49110500 0.24850500
vt 0.39441500 0.97536200
vt 0.68210000 0.37010400
vt 0.75191000 0.65796900
vt 0.59564200 0.58488200
vt 0.82859400 0.24953700
vt 0.75911700 0.13494800
vt 0.04323800 0.30331300
vt 0.56635400 0.88652500
vt 0.03899900 0.39292500
vt 0.50210800 0.27649100
vt 0.45821800 0.25942900
vt 0.38393500 0.94718000
vt 0.03899900 0.75137400
vt 0.38375700 0.28157200
vt 0.04323800 0.48253700
vt 0.83248200 0.44001600
vt 0.83290700 0.87683700
vt 0.75269600 0.63900100
vt 0.73104500 0.07947900
vt 0.07750400 0.43773100
vt 0.76564300 0.76831100
vt 0.02248800 0.48253700
vt 0.23259200 0.08844800
vt 0.80652800 0.86267000
vt 0.69334500 0.63411100
vt 0.72403000 0.15545000
vt 0.07750400 0.79618000
vt 0.11517200 0.84098600
vt 0.77900600 0.12670900
vt 0.80706800 0.24953700
vt 0.11517200 0.75137400
vt 0.27811700 0.75137400
vt 0.73038300 0.06305400
vt 0.76468700 0.63885300
vt 0.51499900 0.92411000
vt 0.47619300 0.22185000
vt 0.82784700 0.47616600
vt 0.53278300 0.04250200
vt 0.07750400 0.75137400
vt 0.44273400 0.63456900
vt 0.60048300 0.91633600
vt 0.02248800 0.75137400
vt 0.55257500 0.38377000
vt 0.03899900 0.57214900
vt 0.64734300 0.86623400
vt 0.17632700 0.23997100
vt 0.03066200 0.34811900
vt 0.27334700 0.84098600
vt 0.04323800 0.75137400
vt 0.03066200 0.79618000
vt 0.02248800 0.34811900
vt 0.13484800 0.16034700
vt 0.71130600 0.80692100
vt 0.27811700 0.70656800
vt 0.02248800 0.25850600
vt 0.02248800 0.97540400
vt 0.47300100 0.17241800
vt 0.47596300 0.13762200
vt 0.46628000 0.50602000
vt 0.37639000 0.14666900
vt 0.59373200 0.72901200
vt 0.03899900 0.79618000
vt 0.51541700 0.81613300
vt 0.72223300 0.04617900
vt 0.77737700 0.63502800
vt 0.66588200 0.68782300
vt 0.02711800 0.19236700
vt 0.56346900 0.69374100
vt 0.70038800 0.34829900
vt 0.50210800 0.22271200
vt 0.45821800 0.31320800
vt 0.53986600 0.46112600
vt 0.27334700 0.52734300
vt 0.51563400 0.73505300
vt 0.44756600 0.50453900
vt 0.71867600 0.32136200
vt 0.33549600 0.97538400
vt 0.60814500 0.32498100
vt 0.72096200 0.28233100
vt 0.81106900 0.68245000
vt 0.68290600 0.06073200
vt 0.54336000 0.30236800
vt 0.70295400 0.34573300
vt 0.25289400 0.08091800
vt 0.77606800 0.65801300
vt 0.07131500 0.08603200
vt 0.46695800 0.76196300
vt 0.63566200 0.51952300
vt 0.41334000 0.28156700
vt 0.51867400 0.57640300
vt 0.60620900 0.51379700
vt 0.03899900 0.84098600
vt 0.27334700 0.57214900
vt 0.72475900 0.32744500
vt 0.34401100 0.97537900
vt 0.24189100 0.05512500
vt 0.74389500 0.21147500
vt 0.57027600 0.24953700
vt 0.77772100 0.55137000
vt 0.02248800 0.43773100
vt 0.27811700 0.66176200
vt 0.69943500 0.28233100
vt 0.81207400 0.65809700
vt 0.36495500 0.97537000
vt 0.72475900 0.36402100
vt 0.53235700 0.32816100
vt 0.27334700 0.70656800
vt 0.69711600 0.34246100
vt 0.35568400 0.09291500
vt 0.07750400 0.25850600
vt 0.07750400 0.97540400
vt 0.47119000 0.80404800
vt 0.45827700 0.84849700
vt 0.57027600 0.28233100
vt 0.83940600 0.51969300
vt 0.03899900 0.52734300
vt 0.04323800 0.84098600
vt 0.74389500 0.15017000
vt 0.85012000 0.24953700
vt 0.04323800 0.66176200
vt 0.29519700 0.75137400
vt 0.29247300 0.10549300
vt 0.65074400 0.45153200
vt 0.56242100 0.23100100
vt 0.02248800 0.93059800
vt 0.03899900 0.70656800
vt 0.70094900 0.75843500
vt 0.11321800 0.16441900
vt 0.67698900 0.18468900
vt 0.57451200 0.80626500
vt 0.03066200 0.88579200
vt 0.11517200 0.48253700
vt 0.27334700 0.88579200
vt 0.18367400 0.08603200
vt 0.72237900 0.32374200
vt 0.33975300 0.97538100
vt 0.48746500 0.08944100
vt 0.51484000 0.33962600
vt 0.27811700 0.61695500
vt 0.74248800 0.28233100
vt 0.81085500 0.70564100
vt 0.03066200 0.70656800
vt 0.49565800 0.46592000
vt 0.37627900 0.02459600
vt 0.69711600 0.34900500
vt 0.35417600 0.28158200
vt 0.87164700 0.24953700
vt 0.52722300 0.24953700
vt 0.73565700 0.17005800
vt 0.27811700 0.48253700
vt 0.28415700 0.25850600
vt 0.28415700 0.97540400
vt 0.53163400 0.89564700
vt 0.60022100 0.54927000
vt 0.53960900 0.61749900
vt 0.44238000 0.25112800
vt 0.50762100 0.88338400
vt 0.47998700 0.28820400
vt 0.48158000 0.97388200
vt 0.40863300 0.19523100
vt 0.61650400 0.29953700
vt 0.70295400 0.34209300
vt 0.33104800 0.18188700
vt 0.56585000 0.73123300
vt 0.03066200 0.93059800
vt 0.07750400 0.61695500
vt 0.27811700 0.84098600
vt 0.72237900 0.36772400
vt 0.36921300 0.97536800
vt 0.07750400 0.84098600
vt 0.66042700 0.41809800
vt 0.54000800 0.42055700
vt 0.03066200 0.57214900
vt 0.50929700 0.77633500
vt 0.03066200 0.39292500
vt 0.69298500 0.68163300
vt 0.02248800 0.16034700
vt 0.27334700 0.79618000
vt 0.77119800 0.78812100
vt 0.13484800 0.08382800
vt 0.46178800 0.59176700
vt 0.30278500 0.20369800
vt 0.27811700 0.25850600
vt 0.27811700 0.97540400
vt 0.82497300 0.75116300
vt 0.78554100 0.28233100
vt 0.27334700 0.61695500
vt 0.56792700 0.96946300
vt 0.57615900 0.35171500
vt 0.28415700 0.52734300
vt 0.53163300 0.49901400
vt 0.02248800 0.66176200
vt 0.52094200 0.07485800
vt 0.80607300 0.45446400
vt 0.32832400 0.22703000
vt 0.63994000 0.83132700
vt 0.61703700 0.37008100
vt 0.61130800 0.95057000
vt 0.41057500 0.05882200
vt 0.07750400 0.30331300
vt 0.27334700 0.66176200
vt 0.29519700 0.79618000
vt 0.53766200 0.65588700
vt 0.02248800 0.57214900
vt 0.51390300 0.69503200
vt 0.44035800 0.07687300
vt 0.62233900 0.62226600
vt 0.03066200 0.52734300
vt 0.41339900 0.94717500
vt 0.50210800 0.02595400
vt 0.65572200 0.36406200
vt 0.06617700 0.19365900
vt 0.55371900 0.93145200
vt 0.69782200 0.34937300
vt 0.49946400 0.22306100
vt 0.62972600 0.55397900
vt 0.11517200 0.88579200
vt 0.43536600 0.15953800
vt 0.43669200 0.14395500
vt 0.33938600 0.28159000
vt 0.29519700 0.48253700
vt 0.64472000 0.33608000
vt 0.67601700 0.32744500
vt 0.42387400 0.97535900
vt 0.59744400 0.76519700
vt 0.29519700 0.70656800
vt 0.62155900 0.69199500
vt 0.11517200 0.34811900
vt 0.70402800 0.34316700
vt 0.25025000 0.08056900
vt 0.52094200 0.15137700
vt 0.73761300 0.43077700
vt 0.54940000 0.81049100
vt 0.66642100 0.65754300
vt 0.47263400 0.93248700
vt 0.28415700 0.93059800
vt 0.36056900 0.23955800
vt 0.36896800 0.28157700
vt 0.07750400 0.39292500
vt 0.29519700 0.66176200
vt 0.48715600 0.59245000
vt 0.26680900 0.09326100
vt 0.10567600 0.19556500
vt 0.67302300 0.75775900
vt 0.32125000 0.16299400
vt 0.37674100 0.08883600
vt 0.57133500 0.04420800
vt 0.81350100 0.50531600
vt 0.67790900 0.24953700
vt 0.83564400 0.21147500
vt 0.49199700 0.75987000
vt 0.31386900 0.25149000
vt 0.28415700 0.75137400
vt 0.45443900 0.20360800
vt 0.11517200 0.61695500
vt 0.39791400 0.09283600
vt 0.29519700 0.93059800
vt 0.29519700 0.88579200
vt 0.47649700 0.84590100
vt 0.02248800 0.88579200
vt 0.54335400 0.57917500
vt 0.13697100 0.06749500
vt 0.78402300 0.78450300
vt 0.21803500 0.19556500
vt 0.70536400 0.89219200
vt 0.11517200 0.93059800
vt 0.27811700 0.34811900
vt 0.29519700 0.52734300
vt 0.57269200 0.54500800
vt 0.82859400 0.28233100
vt 0.83939400 0.79719700
vt 0.68212700 0.07706300
vt 0.70735000 0.53406500
vt 0.70295400 0.34937300
vt 0.45557400 0.31285900
vt 0.29519700 0.57214900
vt 0.02248800 0.61695500
vt 0.59252300 0.62066500
vt 0.77208800 0.52899000
vt 0.61868600 0.07947900
vt 0.42012900 0.03211700
vt 0.50090200 0.42384900
vt 0.34689500 0.19614900
vt 0.11517200 0.66176200
vt 0.82042200 0.13494800
vt 0.76401500 0.24953700
vt 0.58696700 0.47245300
vt 0.28415700 0.39292500
vt 0.79864000 0.78429600
vt 0.14668900 0.05147200
vt 0.71286800 0.51016300
vt 0.61167100 0.15544900
vt 0.27811700 0.39292500
vt 0.02248800 0.70656800
vt 0.03066200 0.43773100
vt 0.84741600 0.45195100
vt 0.84753500 0.86479100
vt 0.52983500 0.45864400
vt 0.27334700 0.75137400
vt 0.50497300 0.73579900
f 108/108 381/381 366/366
f 635/635 396/396 444/444
f 330/330 352/352 579/579
f 466/466 428/428 448/448
f 330/330 570/570 298/298
f 444/444 427/427 337/337
f 292/292 294/294 112/112
f 295/295 84/84 113/113
f 113/113 42/42 50/50
f 228/228 112/112 49/49
f 84/84 36/36 42/42
f 84/84 526/526 608/608
f 36/36 608/608 423/423
f 608/608 526/526 423/423
f 624/624 121/121 262/262
f 566/566 121/121 518/518
f 262/262 641/641 367/367
f 121/121 263/263 641/641
f 263/263 570/570 641/641
f 641/641 330/330 367/367
f 336/336 75/75 60/60
f 249/249 336/336 428/428
f 354/354 613/613 198/198
f 354/354 338/338 613/613
f 212/212 518/518 172/172
f 172/172 624/624 453/453
f 635/635 246/246 221/221
f 465/465 612/612 248/248
f 248/248 339/339 348/348
f 329/329 299/299 492/492
f 222/222 462/462 136/136
f 59/59 444/444 337/337
f 298/298 160/160 597/597
f 397/397 448/448 428/428
f 450/450 294/294 347/347
f 558/558 295/295 615/615
f 600/600 615/615 96/96
f 475/475 614/614 450/450
f 270/270 558/558 600/600
f 558/558 526/526 545/545
f 270/270 423/423 646/646
f 646/646 423/423 526/526
f 624/624 632/632 163/163
f 163/163 282/282 157/157
f 262/262 517/517 632/632
f 517/517 282/282 632/632
f 579/579 454/454 517/517
f 330/330 517/517 367/367
f 354/354 189/189 53/53
f 354/354 53/53 338/338
f 163/163 554/554 114/114
f 624/624 114/114 453/453
f 74/74 190/190 208/208
f 339/339 74/74 348/348
f 261/261 575/575 430/430
f 329/329 492/492 353/353
f 60/60 207/207 332/332
f 245/245 332/332 462/462
f 114/114 126/126 76/76
f 114/114 21/21 453/453
f 453/453 149/149 172/172
f 172/172 175/175 212/212
f 450/450 77/77 475/475
f 292/292 403/403 132/132
f 292/292 340/340 347/347
f 347/347 240/240 450/450
f 196/196 68/68 636/636
f 353/353 182/182 69/69
f 299/299 182/182 492/492
f 597/597 388/388 298/298
f 636/636 222/222 136/136
f 69/69 635/635 221/221
f 389/389 635/635 182/182
f 201/201 381/381 388/388
f 1/1 118/118 384/384
f 449/449 255/255 312/312
f 260/260 429/429 590/590
f 548/548 205/205 143/143
f 260/260 300/300 607/607
f 312/312 204/204 244/244
f 422/422 81/81 226/226
f 82/82 27/27 227/227
f 227/227 253/253 507/507
f 186/186 226/226 506/506
f 27/27 609/609 253/253
f 252/252 472/472 27/27
f 609/609 472/472 423/423
f 472/472 358/358 423/423
f 191/191 124/124 527/527
f 596/596 124/124 173/173
f 527/527 588/588 424/424
f 124/124 359/359 588/588
f 359/359 300/300 588/588
f 588/588 260/260 424/424
f 243/243 443/443 326/326
f 279/279 243/243 205/205
f 354/354 648/648 280/280
f 354/354 238/238 648/648
f 209/209 173/173 316/316
f 316/316 191/191 437/437
f 449/449 89/89 214/214
f 549/549 649/649 278/278
f 278/278 237/237 503/503
f 261/261 606/606 575/575
f 213/213 108/108 366/366
f 325/325 312/312 244/244
f 607/607 14/14 78/78
f 254/254 143/143 205/205
f 544/544 81/81 331/331
f 485/485 82/82 605/605
f 42/42 605/605 50/50
f 49/49 544/544 228/228
f 36/36 485/485 42/42
f 485/485 358/358 252/252
f 36/36 423/423 194/194
f 194/194 423/423 358/358
f 191/191 431/431 229/229
f 431/431 566/566 229/229
f 527/527 216/216 431/431
f 431/431 263/263 350/350
f 590/590 263/263 216/216
f 260/260 216/216 424/424
f 354/354 198/198 171/171
f 354/354 171/171 238/238
f 229/229 212/212 568/568
f 191/191 568/568 437/437
f 442/442 197/197 465/465
f 237/237 442/442 503/503
f 409/409 33/33 177/177
f 14/14 178/178 78/78
f 326/326 466/466 448/448
f 88/88 448/448 108/108
f 568/568 175/175 148/148
f 568/568 663/663 437/437
f 437/437 537/537 316/316
f 316/316 426/426 209/209
f 228/228 313/313 403/403
f 422/422 195/195 438/438
f 331/331 438/438 139/139
f 331/331 313/313 544/544
f 597/597 539/539 201/201
f 430/430 242/242 540/540
f 606/606 242/242 575/575
f 78/78 490/490 607/607
f 201/201 213/213 366/366
f 540/540 449/449 214/214
f 491/491 449/449 242/242
f 87/87 118/118 490/490
f 380/380 387/387 151/151
f 497/497 79/79 30/30
f 319/319 451/451 196/196
f 289/289 22/22 660/660
f 408/408 174/174 628/628
f 30/30 23/23 130/130
f 119/119 66/66 501/501
f 67/67 101/101 500/500
f 500/500 421/421 307/307
f 119/119 304/304 187/187
f 101/101 582/582 421/421
f 101/101 355/355 271/271
f 582/582 271/271 423/423
f 271/271 355/355 423/423
f 371/371 404/404 272/272
f 38/38 404/404 90/90
f 272/272 162/162 185/185
f 404/404 303/303 162/162
f 303/303 174/174 162/162
f 162/162 408/408 185/185
f 131/131 7/7 652/652
f 105/105 131/131 22/22
f 354/354 481/481 512/512
f 354/354 369/369 481/481
f 551/551 90/90 576/576
f 576/576 371/371 35/35
f 497/497 625/625 543/543
f 287/287 482/482 104/104
f 104/104 368/368 633/633
f 409/409 627/627 33/33
f 542/542 1/1 384/384
f 653/653 30/30 130/130
f 408/408 178/178 559/559
f 80/80 660/660 22/22
f 210/210 66/66 48/48
f 562/562 67/67 644/644
f 253/253 644/644 507/507
f 186/186 645/645 210/210
f 609/609 562/562 253/253
f 562/562 355/355 569/569
f 609/609 423/423 619/619
f 619/619 423/423 355/355
f 371/371 138/138 206/206
f 138/138 596/596 206/206
f 272/272 31/31 138/138
f 138/138 359/359 493/493
f 31/31 14/14 359/359
f 408/408 31/31 185/185
f 354/354 280/280 392/392
f 354/354 392/392 369/369
f 206/206 209/209 247/247
f 371/371 247/247 35/35
f 8/8 281/281 549/549
f 368/368 8/8 633/633
f 324/324 94/94 328/328
f 628/628 323/323 327/327
f 652/652 548/548 143/143
f 626/626 143/143 1/1
f 247/247 426/426 223/223
f 247/247 516/516 35/35
f 35/35 158/158 576/576
f 576/576 123/123 551/551
f 210/210 195/195 186/186
f 187/187 155/155 119/119
f 48/48 155/155 192/192
f 48/48 293/293 210/210
f 78/78 416/416 87/87
f 177/177 321/321 415/415
f 627/627 321/321 33/33
f 327/327 106/106 628/628
f 87/87 542/542 384/384
f 415/415 497/497 543/543
f 107/107 497/497 321/321
f 40/40 387/387 106/106
f 462/462 642/642 136/136
f 47/47 235/235 184/184
f 207/207 267/267 332/332
f 486/486 200/200 319/319
f 184/184 268/268 610/610
f 622/622 520/520 152/152
f 153/153 224/224 176/176
f 153/153 600/600 96/96
f 622/622 95/95 475/475
f 176/176 270/270 600/600
f 176/176 523/523 3/3
f 270/270 3/3 423/423
f 3/3 523/523 423/423
f 179/179 650/650 250/250
f 157/157 650/650 203/203
f 250/250 220/220 128/128
f 650/650 454/454 220/220
f 454/454 200/200 220/220
f 220/220 486/486 128/128
f 611/611 308/308 400/400
f 73/73 611/611 267/267
f 354/354 52/52 189/189
f 354/354 460/460 52/52
f 554/554 203/203 435/435
f 435/435 179/179 315/315
f 47/47 141/141 556/556
f 208/208 51/51 72/72
f 72/72 461/461 477/477
f 487/487 318/318 351/351
f 557/557 379/379 150/150
f 401/401 184/184 610/610
f 486/486 94/94 534/534
f 236/236 332/332 267/267
f 398/398 64/64 259/259
f 399/399 224/224 519/519
f 420/420 399/399 306/306
f 305/305 259/259 188/188
f 581/581 617/617 420/420
f 617/617 523/523 224/224
f 581/581 423/423 37/37
f 37/37 423/423 523/523
f 179/179 335/335 154/154
f 335/335 39/39 154/154
f 250/250 345/345 335/335
f 335/335 302/302 560/560
f 534/534 302/302 345/345
f 486/486 345/345 128/128
f 354/354 512/512 286/286
f 354/354 286/286 460/460
f 154/154 552/552 181/181
f 179/179 181/181 315/315
f 285/285 288/288 309/309
f 461/461 309/309 477/477
f 160/160 429/429 597/597
f 487/487 351/351 93/93
f 400/400 290/290 659/659
f 142/142 659/659 379/379
f 181/181 122/122 406/406
f 181/181 535/535 315/315
f 315/315 661/661 435/435
f 435/435 126/126 554/554
f 259/259 522/522 188/188
f 622/622 77/77 476/476
f 64/64 476/476 144/144
f 64/64 598/598 259/259
f 328/328 595/595 41/41
f 93/93 251/251 594/594
f 318/318 251/251 351/351
f 196/196 654/654 319/319
f 41/41 557/557 150/150
f 594/594 47/47 556/556
f 655/655 47/47 251/251
f 636/636 642/642 654/654
f 451/451 352/352 196/196
f 108/108 397/397 381/381
f 635/635 382/382 396/396
f 466/466 249/249 428/428
f 444/444 396/396 427/427
f 292/292 347/347 294/294
f 295/295 545/545 84/84
f 113/113 84/84 42/42
f 228/228 292/292 112/112
f 84/84 608/608 36/36
f 84/84 545/545 526/526
f 624/624 518/518 121/121
f 566/566 350/350 121/121
f 262/262 121/121 641/641
f 121/121 350/350 263/263
f 263/263 160/160 570/570
f 641/641 570/570 330/330
f 336/336 349/349 75/75
f 249/249 349/349 336/336
f 212/212 566/566 518/518
f 172/172 518/518 624/624
f 635/635 444/444 246/246
f 465/465 197/197 612/612
f 248/248 612/612 339/339
f 222/222 245/245 462/462
f 59/59 246/246 444/444
f 298/298 570/570 160/160
f 397/397 108/108 448/448
f 450/450 614/614 294/294
f 558/558 545/545 295/295
f 600/600 558/558 615/615
f 475/475 95/95 614/614
f 270/270 646/646 558/558
f 558/558 646/646 526/526
f 624/624 262/262 632/632
f 163/163 632/632 282/282
f 262/262 367/367 517/517
f 517/517 454/454 282/282
f 579/579 451/451 454/454
f 330/330 579/579 517/517
f 163/163 157/157 554/554
f 624/624 163/163 114/114
f 74/74 54/54 190/190
f 339/339 54/54 74/74
f 60/60 75/75 207/207
f 245/245 60/60 332/332
f 114/114 554/554 126/126
f 114/114 76/76 21/21
f 453/453 21/21 149/149
f 172/172 149/149 175/175
f 450/450 240/240 77/77
f 292/292 228/228 403/403
f 292/292 132/132 340/340
f 347/347 340/340 240/240
f 196/196 352/352 68/68
f 353/353 492/492 182/182
f 299/299 389/389 182/182
f 597/597 201/201 388/388
f 636/636 68/68 222/222
f 69/69 182/182 635/635
f 389/389 382/382 635/635
f 201/201 366/366 381/381
f 1/1 254/254 118/118
f 449/449 117/117 255/255
f 548/548 279/279 205/205
f 312/312 255/255 204/204
f 422/422 331/331 81/81
f 82/82 252/252 27/27
f 227/227 27/27 253/253
f 186/186 422/422 226/226
f 27/27 472/472 609/609
f 252/252 358/358 472/472
f 191/191 173/173 124/124
f 596/596 493/493 124/124
f 527/527 124/124 588/588
f 124/124 493/493 359/359
f 359/359 14/14 300/300
f 588/588 300/300 260/260
f 243/243 504/504 443/443
f 279/279 504/504 243/243
f 209/209 596/596 173/173
f 316/316 173/173 191/191
f 449/449 312/312 89/89
f 549/549 281/281 649/649
f 278/278 649/649 237/237
f 213/213 88/88 108/108
f 325/325 89/89 312/312
f 607/607 300/300 14/14
f 254/254 1/1 143/143
f 544/544 604/604 81/81
f 485/485 252/252 82/82
f 42/42 485/485 605/605
f 49/49 604/604 544/544
f 36/36 194/194 485/485
f 485/485 194/194 358/358
f 191/191 527/527 431/431
f 431/431 350/350 566/566
f 527/527 424/424 216/216
f 431/431 216/216 263/263
f 590/590 160/160 263/263
f 260/260 590/590 216/216
f 229/229 566/566 212/212
f 191/191 229/229 568/568
f 442/442 170/170 197/197
f 237/237 170/170 442/442
f 14/14 559/559 178/178
f 326/326 443/443 466/466
f 88/88 326/326 448/448
f 568/568 212/212 175/175
f 568/568 148/148 663/663
f 437/437 663/663 537/537
f 316/316 537/537 426/426
f 228/228 544/544 313/313
f 422/422 186/186 195/195
f 331/331 422/422 438/438
f 331/331 139/139 313/313
f 597/597 429/429 539/539
f 430/430 575/575 242/242
f 606/606 491/491 242/242
f 78/78 87/87 490/490
f 201/201 539/539 213/213
f 540/540 242/242 449/449
f 491/491 117/117 449/449
f 87/87 384/384 118/118
f 380/380 80/80 387/387
f 497/497 386/386 79/79
f 319/319 200/200 451/451
f 289/289 105/105 22/22
f 30/30 79/79 23/23
f 119/119 48/48 66/66
f 67/67 569/569 101/101
f 500/500 101/101 421/421
f 119/119 501/501 304/304
f 101/101 271/271 582/582
f 101/101 569/569 355/355
f 371/371 90/90 404/404
f 38/38 561/561 404/404
f 272/272 404/404 162/162
f 404/404 561/561 303/303
f 303/303 323/323 174/174
f 162/162 174/174 408/408
f 131/131 634/634 7/7
f 105/105 634/634 131/131
f 551/551 38/38 90/90
f 576/576 90/90 371/371
f 497/497 30/30 625/625
f 287/287 510/510 482/482
f 104/104 482/482 368/368
f 542/542 626/626 1/1
f 653/653 625/625 30/30
f 80/80 380/380 660/660
f 210/210 645/645 66/66
f 562/562 569/569 67/67
f 253/253 562/562 644/644
f 186/186 506/506 645/645
f 609/609 619/619 562/562
f 562/562 619/619 355/355
f 371/371 272/272 138/138
f 138/138 493/493 596/596
f 272/272 185/185 31/31
f 138/138 31/31 359/359
f 31/31 559/559 14/14
f 408/408 559/559 31/31
f 206/206 596/596 209/209
f 371/371 206/206 247/247
f 8/8 393/393 281/281
f 368/368 393/393 8/8
f 324/324 534/534 94/94
f 628/628 174/174 323/323
f 652/652 7/7 548/548
f 626/626 652/652 143/143
f 247/247 209/209 426/426
f 247/247 223/223 516/516
f 35/35 516/516 158/158
f 576/576 158/158 123/123
f 210/210 293/293 195/195
f 187/187 521/521 155/155
f 48/48 119/119 155/155
f 48/48 192/192 293/293
f 78/78 178/178 416/416
f 177/177 33/33 321/321
f 627/627 107/107 321/321
f 327/327 40/40 106/106
f 87/87 416/416 542/542
f 415/415 321/321 497/497
f 107/107 386/386 497/497
f 40/40 151/151 387/387
f 462/462 236/236 642/642
f 47/47 643/643 235/235
f 207/207 73/73 267/267
f 184/184 235/235 268/268
f 622/622 64/64 520/520
f 153/153 519/519 224/224
f 153/153 176/176 600/600
f 622/622 152/152 95/95
f 176/176 3/3 270/270
f 176/176 224/224 523/523
f 179/179 203/203 650/650
f 157/157 282/282 650/650
f 250/250 650/650 220/220
f 650/650 282/282 454/454
f 454/454 451/451 200/200
f 220/220 200/200 486/486
f 611/611 478/478 308/308
f 73/73 478/478 611/611
f 554/554 157/157 203/203
f 435/435 203/203 179/179
f 47/47 184/184 141/141
f 208/208 190/190 51/51
f 72/72 51/51 461/461
f 557/557 142/142 379/379
f 401/401 141/141 184/184
f 236/236 462/462 332/332
f 398/398 520/520 64/64
f 399/399 617/617 224/224
f 420/420 617/617 399/399
f 305/305 398/398 259/259
f 581/581 37/37 617/617
f 617/617 37/37 523/523
f 179/179 250/250 335/335
f 335/335 560/560 39/39
f 250/250 128/128 345/345
f 335/335 345/345 302/302
f 534/534 324/324 302/302
f 486/486 534/534 345/345
f 154/154 39/39 552/552
f 179/179 154/154 181/181
f 285/285 511/511 288/288
f 461/461 285/285 309/309
f 160/160 590/590 429/429
f 400/400 308/308 290/290
f 142/142 400/400 659/659
f 181/181 552/552 122/122
f 181/181 406/406 535/535
f 315/315 535/535 661/661
f 435/435 661/661 126/126
f 259/259 598/598 522/522
f 622/622 475/475 77/77
f 64/64 622/622 476/476
f 64/64 144/144 598/598
f 328/328 94/94 595/595
f 93/93 351/351 251/251
f 318/318 655/655 251/251
f 196/196 636/636 654/654
f 41/41 595/595 557/557
f 594/594 251/251 47/47
f 655/655 643/643 47/47
f 636/636 136/136 642/642
f 451/451 579/579 352/352
f 618/618 564/564 550/550
f 647/647 470/470 564/564
f 464/464 102/102 100/100
f 464/464 103/103 502/502
f 647/647 529/529 211/211
f 647/647 217/217 291/291
f 529/529 483/483 211/211
f 211/211 215/215 217/217
f 5/5 193/193 57/57
f 489/489 193/193 505/505
f 662/662 218/218 541/541
f 470/470 394/394 662/662
f 616/616 417/417 395/395
f 301/301 616/616 395/395
f 402/402 218/218 394/394
f 217/217 394/394 291/291
f 402/402 28/28 390/390
f 215/215 402/402 217/217
f 140/140 425/425 376/376
f 505/505 376/376 489/489
f 156/156 495/495 284/284
f 495/495 436/436 284/284
f 513/513 553/553 63/63
f 356/356 63/63 6/6
f 2/2 65/65 495/495
f 296/296 65/65 32/32
f 65/65 168/168 378/378
f 65/65 116/116 32/32
f 322/322 83/83 297/297
f 297/297 571/571 479/479
f 456/456 618/618 550/550
f 436/436 241/241 456/456
f 167/167 553/553 334/334
f 502/502 4/4 167/167
f 24/24 618/618 241/241
f 32/32 241/241 296/296
f 24/24 169/169 529/529
f 116/116 24/24 32/32
f 536/536 5/5 407/407
f 479/479 536/536 407/407
f 256/256 127/127 145/145
f 231/231 225/225 127/127
f 202/202 125/125 129/129
f 546/546 129/129 514/514
f 256/256 563/563 231/231
f 231/231 159/159 591/591
f 563/563 25/25 370/370
f 159/159 370/370 273/273
f 70/70 233/233 34/34
f 258/258 233/233 410/410
f 13/13 2/2 156/156
f 13/13 591/591 232/232
f 656/656 125/125 630/630
f 6/6 656/656 356/356
f 232/232 383/383 2/2
f 591/591 602/602 232/232
f 317/317 383/383 602/602
f 273/273 602/602 159/159
f 538/538 322/322 372/372
f 258/258 538/538 372/372
f 541/541 391/391 411/411
f 391/391 496/496 411/411
f 530/530 333/333 161/161
f 530/530 219/219 301/301
f 391/391 390/390 533/533
f 391/391 58/58 580/580
f 390/390 480/480 533/533
f 533/533 357/357 58/58
f 425/425 314/314 455/455
f 455/455 494/494 269/269
f 230/230 257/257 146/146
f 230/230 580/580 629/629
f 599/599 62/62 234/234
f 547/547 599/599 234/234
f 629/629 474/474 257/257
f 58/58 629/629 580/580
f 17/17 474/474 61/61
f 58/58 17/17 61/61
f 528/528 71/71 341/341
f 494/494 341/341 269/269
f 658/658 385/385 83/83
f 538/538 414/414 12/12
f 494/494 16/16 623/623
f 528/528 623/623 488/488
f 115/115 555/555 193/193
f 140/140 342/342 413/413
f 310/310 120/120 233/233
f 140/140 657/657 405/405
f 193/193 657/657 505/505
f 311/311 488/488 419/419
f 233/233 414/414 410/410
f 115/115 567/567 640/640
f 536/536 283/283 567/567
f 571/571 385/385 283/283
f 413/413 16/16 314/314
f 658/658 12/12 463/463
f 515/515 620/620 599/599
f 100/100 183/183 103/103
f 4/4 183/183 639/639
f 553/553 639/639 631/631
f 599/599 621/621 333/333
f 100/100 589/589 603/603
f 129/129 43/43 514/514
f 63/63 320/320 6/6
f 161/161 565/565 219/219
f 6/6 147/147 651/651
f 63/63 631/631 584/584
f 616/616 565/565 484/484
f 651/651 15/15 125/125
f 102/102 484/484 589/589
f 129/129 15/15 274/274
f 161/161 621/621 29/29
f 62/62 230/230 234/234
f 547/547 230/230 146/146
f 411/411 62/62 530/530
f 541/541 530/530 301/301
f 630/630 13/13 656/656
f 356/356 13/13 156/156
f 127/127 630/630 202/202
f 145/145 202/202 546/546
f 334/334 456/456 167/167
f 502/502 456/456 550/550
f 284/284 334/334 513/513
f 156/156 513/513 356/356
f 417/417 662/662 395/395
f 301/301 662/662 541/541
f 564/564 417/417 464/464
f 550/550 464/464 502/502
f 269/269 17/17 357/357
f 17/17 71/71 26/26
f 480/480 269/269 357/357
f 28/28 455/455 480/480
f 258/258 317/317 273/273
f 317/317 322/322 168/168
f 273/273 34/34 258/258
f 25/25 34/34 370/370
f 479/479 180/180 116/116
f 180/180 5/5 169/169
f 116/116 297/297 479/479
f 168/168 297/297 378/378
f 215/215 376/376 412/412
f 412/412 425/425 28/28
f 483/483 489/489 215/215
f 169/169 57/57 483/483
f 618/618 647/647 564/564
f 647/647 291/291 470/470
f 464/464 417/417 102/102
f 464/464 100/100 103/103
f 647/647 618/618 529/529
f 647/647 211/211 217/217
f 529/529 169/169 483/483
f 211/211 483/483 215/215
f 5/5 115/115 193/193
f 489/489 57/57 193/193
f 662/662 394/394 218/218
f 470/470 291/291 394/394
f 616/616 102/102 417/417
f 301/301 219/219 616/616
f 402/402 390/390 218/218
f 217/217 402/402 394/394
f 402/402 412/412 28/28
f 215/215 412/412 402/402
f 140/140 413/413 425/425
f 505/505 140/140 376/376
f 156/156 2/2 495/495
f 495/495 296/296 436/436
f 513/513 334/334 553/553
f 356/356 513/513 63/63
f 2/2 383/383 65/65
f 296/296 495/495 65/65
f 65/65 383/383 168/168
f 65/65 378/378 116/116
f 322/322 658/658 83/83
f 297/297 83/83 571/571
f 456/456 241/241 618/618
f 436/436 296/296 241/241
f 167/167 4/4 553/553
f 502/502 103/103 4/4
f 24/24 529/529 618/618
f 32/32 24/24 241/241
f 24/24 180/180 169/169
f 116/116 180/180 24/24
f 536/536 115/115 5/5
f 479/479 571/571 536/536
f 256/256 231/231 127/127
f 231/231 591/591 225/225
f 202/202 630/630 125/125
f 546/546 202/202 129/129
f 256/256 473/473 563/563
f 231/231 563/563 159/159
f 563/563 473/473 25/25
f 159/159 563/563 370/370
f 70/70 310/310 233/233
f 258/258 34/34 233/233
f 13/13 232/232 2/2
f 13/13 225/225 591/591
f 656/656 651/651 125/125
f 6/6 651/651 656/656
f 232/232 602/602 383/383
f 591/591 159/159 602/602
f 317/317 168/168 383/383
f 273/273 317/317 602/602
f 538/538 658/658 322/322
f 258/258 410/410 538/538
f 541/541 218/218 391/391
f 391/391 580/580 496/496
f 530/530 62/62 333/333
f 530/530 161/161 219/219
f 391/391 218/218 390/390
f 391/391 533/533 58/58
f 390/390 28/28 480/480
f 533/533 480/480 357/357
f 425/425 413/413 314/314
f 455/455 314/314 494/494
f 230/230 629/629 257/257
f 230/230 496/496 580/580
f 599/599 333/333 62/62
f 547/547 515/515 599/599
f 629/629 61/61 474/474
f 58/58 61/61 629/629
f 17/17 26/26 474/474
f 58/58 357/357 17/17
f 528/528 311/311 71/71
f 494/494 528/528 341/341
f 658/658 463/463 385/385
f 538/538 410/410 414/414
f 494/494 314/314 16/16
f 528/528 494/494 623/623
f 115/115 640/640 555/555
f 140/140 405/405 342/342
f 310/310 418/418 120/120
f 140/140 505/505 657/657
f 193/193 555/555 657/657
f 311/311 528/528 488/488
f 233/233 120/120 414/414
f 115/115 536/536 567/567
f 536/536 571/571 283/283
f 571/571 83/83 385/385
f 413/413 342/342 16/16
f 658/658 538/538 12/12
f 515/515 44/44 620/620
f 100/100 603/603 183/183
f 4/4 103/103 183/183
f 553/553 4/4 639/639
f 599/599 620/620 621/621
f 100/100 102/102 589/589
f 129/129 274/274 43/43
f 63/63 584/584 320/320
f 161/161 29/29 565/565
f 6/6 320/320 147/147
f 63/63 553/553 631/631
f 616/616 219/219 565/565
f 651/651 147/147 15/15
f 102/102 616/616 484/484
f 129/129 125/125 15/15
f 161/161 333/333 621/621
f 62/62 496/496 230/230
f 547/547 234/234 230/230
f 411/411 496/496 62/62
f 541/541 411/411 530/530
f 630/630 225/225 13/13
f 356/356 656/656 13/13
f 127/127 225/225 630/630
f 145/145 127/127 202/202
f 334/334 436/436 456/456
f 502/502 167/167 456/456
f 284/284 436/436 334/334
f 156/156 284/284 513/513
f 417/417 470/470 662/662
f 301/301 395/395 662/662
f 564/564 470/470 417/417
f 550/550 564/564 464/464
f 269/269 341/341 17/17
f 17/17 341/341 71/71
f 480/480 455/455 269/269
f 28/28 425/425 455/455
f 258/258 372/372 317/317
f 317/317 372/372 322/322
f 273/273 370/370 34/34
f 25/25 70/70 34/34
f 479/479 407/407 180/180
f 180/180 407/407 5/5
f 116/116 378/378 297/297
f 168/168 322/322 297/297
f 215/215 489/489 376/376
f 412/412 376/376 425/425
f 483/483 57/57 489/489
f 169/169 5/5 57/57
f 375/375 377/377 601/601
f 572/572 452/452 137/137
f 111/111 346/346 85/85
f 165/165 509/509 583/583
f 264/264 508/508 360/360
f 199/199 457/457 498/498
f 471/471 134/134 10/10
f 508/508 98/98 45/45
f 239/239 18/18 531/531
f 585/585 266/266 362/362
f 97/97 265/265 573/573
f 239/239 468/468 344/344
f 199/199 439/439 525/525
f 601/601 509/509 165/165
f 446/446 199/199 360/360
f 135/135 276/276 110/110
f 275/275 441/441 109/109
f 199/199 277/277 360/360
f 469/469 445/445 343/343
f 508/508 365/365 577/577
f 239/239 432/432 637/637
f 459/459 447/447 166/166
f 433/433 363/363 373/373
f 137/137 377/377 375/375
f 277/277 471/471 360/360
f 86/86 452/452 572/572
f 583/583 346/346 111/111
f 471/471 586/586 361/361
f 434/434 19/19 638/638
f 508/508 432/432 360/360
f 471/471 264/264 360/360
f 446/446 239/239 344/344
f 601/601 532/532 375/375
f 532/532 20/20 375/375
f 137/137 46/46 572/572
f 46/46 99/99 572/572
f 85/85 9/9 111/111
f 9/9 133/133 111/111
f 583/583 499/499 165/165
f 499/499 458/458 165/165
f 264/264 91/91 508/508
f 199/199 592/592 457/457
f 471/471 56/56 134/134
f 508/508 91/91 98/98
f 239/239 637/637 18/18
f 585/585 574/574 266/266
f 97/97 92/92 265/265
f 239/239 531/531 468/468
f 199/199 498/498 439/439
f 165/165 467/467 532/532
f 532/532 601/601 165/165
f 446/446 592/592 199/199
f 135/135 55/55 276/276
f 275/275 524/524 441/441
f 199/199 525/525 277/277
f 469/469 164/164 445/445
f 508/508 45/45 365/365
f 239/239 360/360 432/432
f 459/459 593/593 447/447
f 433/433 578/578 363/363
f 375/375 364/364 46/46
f 46/46 137/137 375/375
f 277/277 56/56 471/471
f 572/572 587/587 11/11
f 11/11 86/86 572/572
f 111/111 440/440 499/499
f 499/499 583/583 111/111
f 471/471 10/10 586/586
f 434/434 374/374 19/19
f 508/508 577/577 432/432
f 471/471 361/361 264/264
f 446/446 360/360 239/239