o convex_0
v 0.010171 -0.008576 0.019812
v -0.010179 -0.088173 0.000180
v -0.009820 -0.088530 -0.000179
v 0.009812 -0.089244 0.020171
v -0.010179 -0.008576 0.019812
v 0.009812 -0.008576 -0.000179
v 0.010171 -0.089244 0.000180
v -0.009820 -0.008576 -0.000179
v -0.009820 -0.088530 0.020171
v 0.003030 -0.007854 0.020171
v -0.002679 -0.090678 0.000180
v 0.003745 -0.090678 0.019812
v 0.009812 -0.089244 -0.000179
v 0.010171 -0.089244 0.019812
v 0.010171 -0.008576 0.000180
v -0.010179 -0.008576 0.000180
v -0.010179 -0.088173 0.019812
v -0.003038 -0.007854 -0.000179
v -0.009820 -0.008576 0.020171
v -0.008750 -0.089600 0.019812
v 0.009812 -0.008576 0.020171
v 0.003745 -0.090678 0.000180
v -0.002679 -0.090678 0.019812
v -0.009820 -0.008219 0.019812
v 0.009812 -0.008219 0.000180
v -0.008750 -0.089600 0.000180
v 0.009812 -0.089600 0.000180
v -0.003394 -0.007854 0.019812
v -0.009820 -0.008219 0.000180
v 0.003386 -0.007854 0.000180
v 0.009812 -0.008219 0.019812
v 0.009812 -0.089600 0.019812
v -0.003038 -0.090314 0.020171
v -0.003038 -0.090314 -0.000179
f 11 26 34 
f 3 2 8 
f 6 3 8 
f 9 4 10 
f 3 6 13 
f 6 7 13 
f 1 4 14 
f 7 1 14 
f 1 7 15 
f 7 6 15 
f 2 5 16 
f 8 2 16 
f 5 2 17 
f 9 5 17 
f 6 8 18 
f 5 9 19 
f 9 10 19 
f 17 2 20 
f 9 17 20 
f 4 1 21 
f 10 4 21 
f 12 11 22 
f 11 12 23 
f 20 11 23 
f 16 5 24 
f 5 19 24 
f 1 15 25 
f 15 6 25 
f 2 3 26 
f 20 2 26 
f 11 20 26 
f 13 7 27 
f 7 14 27 
f 12 22 27 
f 22 13 27 
f 10 18 28 
f 19 10 28 
f 24 19 28 
f 24 28 29 
f 8 16 29 
f 18 8 29 
f 16 24 29 
f 28 18 29 
f 6 18 30 
f 18 10 30 
f 25 6 30 
f 25 30 31 
f 21 1 31 
f 10 21 31 
f 1 25 31 
f 30 10 31 
f 4 12 32 
f 14 4 32 
f 27 14 32 
f 12 27 32 
f 4 9 33 
f 12 4 33 
f 9 20 33 
f 23 12 33 
f 20 23 33 
f 3 13 34 
f 22 11 34 
f 13 22 34 
f 26 3 34 
o convex_1
v -0.003038 -0.007854 0.000180
v 0.003031 0.073899 0.020171
v 0.003031 0.073899 -0.000179
v -0.003038 0.073899 0.020171
v 0.003030 -0.007854 0.020171
v 0.003030 -0.007854 -0.000179
v -0.003038 0.073899 0.000180
v -0.003038 -0.007854 0.020171
v -0.002681 -0.007854 -0.000179
v -0.002681 0.073899 -0.000179
f 37 43 44 
f 36 37 38 
f 37 36 39 
f 36 38 39 
f 39 35 40 
f 37 39 40 
f 38 37 41 
f 35 38 41 
f 38 35 42 
f 35 39 42 
f 39 38 42 
f 40 35 43 
f 37 40 43 
f 35 41 43 
f 43 41 44 
f 41 37 44 
o convex_2
v 0.003030 0.090678 0.019812
v -0.002681 0.073899 -0.000179
v 0.003030 0.073899 -0.000179
v -0.003037 0.073899 0.020171
v -0.002324 0.090319 0.000180
v 0.004101 0.074614 0.019812
v 0.003030 0.090319 -0.000179
v -0.003037 0.088533 0.019812
v 0.005172 0.079255 0.000180
v -0.004109 0.082465 0.000180
v 0.005172 0.079255 0.019812
v -0.004109 0.078541 0.019812
v -0.001966 0.090319 0.020171
v -0.004109 0.078541 0.000180
v 0.003030 0.073899 0.020171
v -0.004109 0.082465 0.019812
v 0.004101 0.074614 0.000180
v -0.001966 0.090678 0.000180
v 0.003030 0.090678 0.000180
v -0.003037 0.088533 0.000180
v -0.001966 0.090678 0.019812
v 0.003030 0.090319 0.020171
v -0.002681 0.088533 -0.000179
v -0.003037 0.073899 0.000180
v 0.005172 0.078541 0.019812
v 0.004101 0.085323 0.019812
v 0.005172 0.078541 0.000180
v 0.004101 0.085323 0.000180
v 0.004815 0.078541 0.020171
v 0.004815 0.078541 -0.000179
v 0.003386 0.073899 0.019812
v -0.003751 0.082465 0.020171
v -0.002324 0.090319 0.019812
v -0.003751 0.082465 -0.000179
f 54 67 78 
f 46 47 48 
f 47 46 51 
f 48 56 58 
f 56 54 58 
f 48 47 59 
f 57 48 59 
f 52 54 60 
f 54 56 60 
f 62 45 63 
f 51 62 63 
f 52 49 64 
f 54 52 64 
f 57 45 65 
f 45 62 65 
f 62 49 65 
f 45 57 66 
f 57 59 66 
f 51 46 67 
f 62 51 67 
f 49 62 67 
f 64 49 67 
f 54 64 67 
f 46 48 68 
f 58 46 68 
f 48 58 68 
f 53 55 69 
f 50 61 69 
f 55 53 70 
f 63 45 70 
f 45 66 70 
f 66 55 70 
f 53 69 71 
f 69 61 71 
f 53 51 72 
f 51 63 72 
f 70 53 72 
f 63 70 72 
f 59 50 73 
f 55 66 73 
f 66 59 73 
f 69 55 73 
f 50 69 73 
f 47 51 74 
f 51 53 74 
f 61 47 74 
f 53 71 74 
f 71 61 74 
f 59 47 75 
f 50 59 75 
f 47 61 75 
f 61 50 75 
f 56 48 76 
f 57 52 76 
f 48 57 76 
f 52 60 76 
f 60 56 76 
f 49 52 77 
f 52 57 77 
f 65 49 77 
f 57 65 77 
f 46 58 78 
f 58 54 78 
f 67 46 78 
