o convex_0
v 0.002170 0.041194 -0.000177
v 0.000050 0.090308 0.020327
v 0.000403 0.090677 0.019972
v 0.002524 -0.005833 0.019972
v -0.002778 -0.005833 0.000178
v -0.002778 -0.005833 0.019619
v -0.002778 0.083242 0.000178
v 0.002524 0.085368 0.000178
v 0.002524 -0.005833 -0.000175
v -0.002778 0.083242 0.019619
v 0.002524 0.085368 0.019972
v -0.000303 0.090308 -0.000175
v -0.002071 -0.005833 0.020327
v -0.002424 -0.005833 -0.000175
v 0.002170 -0.005833 0.020327
v -0.000656 0.090308 0.019972
v -0.002071 0.083592 0.020327
v 0.001817 0.088192 0.000178
v 0.002170 0.085368 0.020327
v -0.002424 0.083242 -0.000175
v 0.002524 0.085009 -0.000177
v -0.001717 0.087125 0.000178
v 0.000403 0.090677 0.000178
v 0.001817 0.088192 0.019619
v -0.000656 0.090308 0.000178
v -0.001717 0.087125 0.019972
v 0.000756 0.090308 0.000178
v -0.000303 0.090677 0.019972
v 0.000756 0.090308 0.019619
f 24 27 29 
f 5 4 6 
f 5 6 7 
f 4 5 9 
f 8 4 9 
f 7 6 10 
f 4 8 11 
f 6 4 13 
f 10 6 13 
f 5 7 14 
f 1 9 14 
f 9 5 14 
f 4 11 15 
f 2 13 15 
f 13 4 15 
f 13 2 17 
f 10 13 17 
f 11 8 18 
f 3 2 19 
f 2 15 19 
f 15 11 19 
f 14 7 20 
f 1 14 20 
f 9 1 21 
f 8 9 21 
f 18 8 21 
f 20 12 21 
f 1 20 21 
f 7 10 22 
f 20 7 22 
f 12 20 22 
f 11 18 24 
f 3 19 24 
f 19 11 24 
f 22 16 25 
f 12 22 25 
f 23 12 25 
f 2 16 26 
f 17 2 26 
f 10 17 26 
f 22 10 26 
f 16 22 26 
f 18 21 27 
f 21 12 27 
f 23 3 27 
f 12 23 27 
f 24 18 27 
f 2 3 28 
f 16 2 28 
f 3 23 28 
f 25 16 28 
f 23 25 28 
f 3 24 29 
f 27 3 29 
o convex_1
v 0.009594 -0.085367 0.000178
v -0.012677 -0.069459 0.000178
v -0.012677 -0.069459 0.019619
v 0.006765 -0.022448 0.000178
v 0.013128 -0.057444 0.020327
v -0.006666 -0.022448 0.019972
v -0.001364 -0.090316 0.020327
v -0.006310 -0.022448 -0.000175
v 0.006059 -0.022448 0.020327
v -0.008433 -0.086422 -0.000175
v 0.013481 -0.057798 -0.000175
v 0.010652 -0.082542 0.019619
v -0.012677 -0.052502 0.000178
v -0.009139 -0.084305 0.020327
v -0.012321 -0.052856 0.020327
v 0.005350 -0.089615 0.000178
v 0.009594 -0.034470 0.019619
v 0.005350 -0.089261 0.020327
v 0.013837 -0.063094 0.000178
v -0.005252 -0.089608 0.000178
v 0.013837 -0.057798 0.019619
v -0.009848 -0.084312 0.019619
v 0.009594 -0.034470 0.000178
v -0.005252 -0.089608 0.019972
v -0.012677 -0.052502 0.019619
v -0.008786 -0.031645 0.000178
v 0.013837 -0.063094 0.019619
v 0.001462 -0.090316 -0.000175
v 0.011714 -0.077239 0.000178
v -0.009848 -0.084312 0.000178
v 0.009594 -0.085367 0.019972
v -0.009848 -0.036947 0.019619
v 0.013837 -0.057798 0.000178
v 0.001462 -0.090677 0.019619
v 0.006765 -0.022448 0.019619
v 0.006412 -0.022448 -0.000175
v 0.012775 -0.071229 0.019619
v -0.001364 -0.090677 0.000178
v -0.012321 -0.052502 -0.000175
v -0.006310 -0.022448 0.020327
v 0.010300 -0.082542 -0.000175
v -0.006666 -0.022448 0.000178
v 0.011361 -0.077239 0.020327
v 0.005350 -0.089615 0.019972
v -0.008786 -0.086075 0.019619
v 0.010652 -0.082542 0.000178
v -0.011615 -0.075470 0.019619
v -0.001364 -0.090677 0.019972
v 0.001462 -0.090677 0.000178
v 0.012775 -0.071229 0.000178
v -0.012321 -0.069112 0.020327
v -0.009848 -0.036947 0.000178
v -0.008786 -0.031645 0.019619
v 0.012775 -0.051794 0.019619
v -0.012321 -0.069459 -0.000175
v -0.011615 -0.075470 0.000178
v 0.009241 -0.034824 0.020327
v 0.011714 -0.077239 0.019972
v 0.012775 -0.051794 0.000178
v 0.005350 -0.089261 -0.000175
v 0.009241 -0.085367 0.020327
v 0.012422 -0.071229 -0.000175
v 0.013128 -0.063448 0.020327
v -0.005605 -0.089254 -0.000175
f 57 67 93 
f 35 33 37 
f 33 35 38 
f 36 34 38 
f 39 37 40 
f 31 32 42 
f 36 38 43 
f 43 38 44 
f 34 36 47 
f 33 46 52 
f 36 43 53 
f 42 32 54 
f 32 44 54 
f 50 34 56 
f 48 50 56 
f 39 40 57 
f 30 41 60 
f 45 30 60 
f 44 35 61 
f 42 54 61 
f 54 44 61 
f 48 40 62 
f 50 48 62 
f 47 36 63 
f 33 38 64 
f 46 33 64 
f 37 33 65 
f 40 37 65 
f 33 52 65 
f 52 40 65 
f 48 56 66 
f 53 49 67 
f 37 39 68 
f 31 42 68 
f 38 35 69 
f 35 44 69 
f 44 38 69 
f 57 40 70 
f 35 37 71 
f 55 35 71 
f 37 55 71 
f 34 47 72 
f 45 60 73 
f 47 63 73 
f 63 45 73 
f 39 49 74 
f 43 51 74 
f 53 43 74 
f 49 53 74 
f 59 39 74 
f 51 59 74 
f 41 30 75 
f 58 41 75 
f 30 70 75 
f 70 58 75 
f 32 31 76 
f 59 51 76 
f 36 53 77 
f 63 36 77 
f 53 67 77 
f 67 63 77 
f 45 63 78 
f 67 57 78 
f 63 67 78 
f 48 66 79 
f 66 58 79 
f 44 32 80 
f 43 44 80 
f 51 43 80 
f 32 76 80 
f 76 51 80 
f 55 37 81 
f 42 61 81 
f 61 55 81 
f 37 68 81 
f 68 42 81 
f 35 55 82 
f 61 35 82 
f 55 61 82 
f 52 46 83 
f 50 62 83 
f 39 59 84 
f 31 68 84 
f 68 39 84 
f 76 31 85 
f 59 76 85 
f 31 84 85 
f 84 59 85 
f 38 34 86 
f 34 50 86 
f 64 38 86 
f 46 64 86 
f 83 46 86 
f 50 83 86 
f 41 58 87 
f 60 41 87 
f 66 56 87 
f 58 66 87 
f 72 60 87 
f 40 52 88 
f 62 40 88 
f 52 83 88 
f 83 62 88 
f 30 45 89 
f 70 30 89 
f 57 70 89 
f 45 78 89 
f 78 57 89 
f 72 47 90 
f 60 72 90 
f 73 60 90 
f 47 73 90 
f 40 48 91 
f 70 40 91 
f 58 70 91 
f 48 79 91 
f 79 58 91 
f 56 34 92 
f 34 72 92 
f 87 56 92 
f 72 87 92 
f 49 39 93 
f 39 57 93 
f 67 49 93 
o convex_2
v 0.010300 -0.008661 0.020327
v -0.011262 -0.014315 -0.000175
v -0.011616 -0.014315 0.000178
v 0.006059 -0.022448 0.020327
v 0.011716 -0.014316 0.000178
v -0.007373 -0.006188 0.019619
v 0.002523 -0.005833 -0.000175
v -0.006665 -0.022448 0.000178
v -0.006311 -0.022448 0.020327
v 0.006410 -0.022448 -0.000175
v -0.011616 -0.014315 0.019972
v -0.010200 -0.008308 0.000178
v 0.008180 -0.006188 0.000178
v 0.011716 -0.014316 0.019972
v 0.002523 -0.005833 0.020327
v -0.011616 -0.009722 0.019972
v 0.011716 -0.009722 0.000178
v -0.007373 -0.006188 0.000178
v 0.008180 -0.006188 0.019619
v 0.007824 -0.021032 0.019619
v 0.011716 -0.009722 0.019972
v -0.011616 -0.009722 0.000178
v -0.002424 -0.005833 0.020327
v 0.007824 -0.021032 0.000178
v 0.011362 -0.009722 -0.000175
v -0.011262 -0.009722 0.020327
v -0.006665 -0.022448 0.019972
v -0.002424 -0.005833 -0.000175
v -0.006311 -0.022448 -0.000175
v 0.006764 -0.022448 0.019619
v -0.010200 -0.008308 0.019972
v -0.010200 -0.008661 -0.000175
v 0.011362 -0.014316 0.020327
v 0.006764 -0.022448 0.000178
v 0.011362 -0.014316 -0.000175
v -0.011262 -0.014315 0.020327
v -0.007373 -0.006895 0.020327
f 124 119 130 
f 96 95 101 
f 97 94 102 
f 101 97 102 
f 95 100 103 
f 97 101 103 
f 96 101 104 
f 102 94 108 
f 106 100 108 
f 96 104 109 
f 107 98 110 
f 105 99 111 
f 108 94 112 
f 106 108 112 
f 110 106 112 
f 98 107 113 
f 107 110 114 
f 112 94 114 
f 110 112 114 
f 95 96 115 
f 96 109 115 
f 109 105 115 
f 108 100 116 
f 102 108 116 
f 111 99 116 
f 98 113 117 
f 103 100 118 
f 100 106 118 
f 110 98 118 
f 106 110 118 
f 109 104 119 
f 102 116 119 
f 101 102 120 
f 104 101 120 
f 102 104 120 
f 100 95 121 
f 116 100 121 
f 111 116 121 
f 101 95 122 
f 95 103 122 
f 103 101 122 
f 97 103 123 
f 113 97 123 
f 117 113 123 
f 99 105 124 
f 105 109 124 
f 109 119 124 
f 105 111 125 
f 95 115 125 
f 115 105 125 
f 121 95 125 
f 111 121 125 
f 94 97 126 
f 97 113 126 
f 113 107 126 
f 114 94 126 
f 107 114 126 
f 103 117 127 
f 123 103 127 
f 117 123 127 
f 98 117 128 
f 117 103 128 
f 118 98 128 
f 103 118 128 
f 104 102 129 
f 102 119 129 
f 119 104 129 
f 116 99 130 
f 119 116 130 
f 99 124 130 
