o convex_0
v 0.000122 0.060582 0.014185
v -0.001320 0.018272 0.014506
v -0.001320 0.018272 0.014826
v -0.001320 0.085432 0.014987
v 0.000603 0.018279 0.014346
v -0.000839 0.082382 0.014346
v 0.000122 0.085432 0.014506
v -0.000679 0.018279 0.014185
v -0.001160 0.030940 0.014987
v -0.001320 0.085432 0.014666
v 0.000603 0.025017 0.014185
f 5 8 11 
f 2 3 4 
f 3 2 5 
f 1 6 7 
f 5 2 8 
f 2 6 8 
f 6 1 8 
f 4 3 9 
f 3 5 9 
f 7 4 9 
f 5 7 9 
f 2 4 10 
f 6 2 10 
f 4 7 10 
f 7 6 10 
f 1 7 11 
f 7 5 11 
f 8 1 11 
o convex_1
v 0.014709 -0.065870 0.010020
v 0.014869 -0.061075 0.022520
v 0.015510 -0.061393 0.021235
v 0.014709 -0.053223 0.014827
v 0.016151 -0.057704 0.016110
v 0.014709 -0.073567 0.016427
v 0.016151 -0.066514 0.015950
v 0.015350 -0.057547 0.011141
v 0.014709 -0.070358 0.021076
v 0.014709 -0.055627 0.021235
v 0.015350 -0.066834 0.011141
v 0.014709 -0.057550 0.010180
v 0.014869 -0.070998 0.011947
v 0.015350 -0.066834 0.021235
v 0.015510 -0.071004 0.016266
v 0.015510 -0.061393 0.011141
v 0.015189 -0.053700 0.016427
v 0.015350 -0.057547 0.021235
v 0.016151 -0.062512 0.017229
v 0.014869 -0.055146 0.011622
f 28 16 31 
f 15 12 17 
f 15 17 20 
f 20 13 21 
f 15 20 21 
f 12 15 23 
f 17 12 24 
f 12 22 24 
f 22 18 24 
f 14 13 25 
f 13 20 25 
f 25 20 26 
f 20 17 26 
f 17 24 26 
f 24 18 26 
f 18 25 26 
f 16 18 27 
f 19 16 27 
f 22 12 27 
f 18 22 27 
f 12 23 27 
f 23 19 27 
f 15 21 28 
f 28 21 29 
f 13 14 29 
f 14 16 29 
f 21 13 29 
f 16 28 29 
f 16 14 30 
f 18 16 30 
f 14 25 30 
f 25 18 30 
f 16 19 31 
f 23 15 31 
f 19 23 31 
f 15 28 31 
o convex_2
v -0.007090 -0.023561 0.015949
v -0.006610 0.004648 0.017711
v -0.006610 0.004648 0.017551
v -0.006449 -0.036866 0.017390
v -0.006770 0.004648 0.015147
v -0.006610 -0.036866 0.015147
v -0.006930 -0.036382 0.017711
v -0.007090 0.004648 0.016750
v -0.006930 -0.036540 0.015147
v -0.007090 0.004648 0.015628
v -0.006930 0.004648 0.017711
v -0.007090 -0.036223 0.016269
f 40 38 43 
f 34 33 35 
f 33 34 36 
f 34 35 36 
f 36 35 37 
f 35 33 38 
f 37 35 38 
f 33 36 39 
f 36 37 40 
f 37 38 40 
f 32 39 41 
f 39 36 41 
f 40 32 41 
f 36 40 41 
f 38 33 42 
f 33 39 42 
f 39 38 42 
f 39 32 43 
f 38 39 43 
f 32 40 43 
o convex_3
v -0.001320 0.006892 0.009056
v 0.000122 0.015387 0.009056
v 0.000122 0.015387 0.008896
v 0.006053 0.013142 0.009056
v 0.001404 0.013304 0.006812
v -0.006129 0.013463 0.008896
v -0.002922 0.013463 0.007133
v 0.000282 0.006251 0.008896
v 0.004129 0.013463 0.007614
v -0.004686 0.014585 0.009056
v 0.003969 0.014745 0.008735
v -0.000999 0.014585 0.007614
v -0.001479 0.013304 0.006812
v -0.004365 0.012181 0.008094
v 0.002366 0.008016 0.008896
f 48 52 58 
f 45 44 47 
f 44 45 53 
f 45 46 53 
f 49 44 53 
f 50 49 53 
f 46 45 54 
f 45 47 54 
f 47 52 54 
f 52 48 54 
f 53 46 55 
f 50 53 55 
f 46 54 55 
f 54 48 55 
f 44 50 56 
f 51 44 56 
f 48 51 56 
f 55 48 56 
f 50 55 56 
f 44 49 57 
f 50 44 57 
f 49 50 57 
f 47 44 58 
f 44 51 58 
f 51 48 58 
f 52 47 58 
o convex_4
v -0.007572 -0.083347 0.015788
v -0.012219 -0.079182 0.013063
v -0.012058 -0.079662 0.013063
v -0.007572 -0.078540 0.013063
v -0.009495 -0.083508 0.013063
v -0.010135 -0.083187 0.016109
v -0.007572 -0.081264 0.013063
v -0.012219 -0.078540 0.013224
v -0.007572 -0.083187 0.016109
f 62 66 67 
f 61 60 62 
f 61 62 63 
f 61 63 64 
f 60 61 64 
f 63 59 64 
f 62 59 65 
f 59 63 65 
f 63 62 65 
f 62 60 66 
f 60 64 66 
f 66 64 67 
f 59 62 67 
f 64 59 67 
o convex_5
v -0.004686 0.010899 0.023321
v 0.001886 0.015226 0.023482
v 0.001886 0.015066 0.023803
v 0.001244 0.007053 0.023321
v -0.001320 0.013303 0.025565
v 0.006053 0.013303 0.023321
v -0.004686 0.014585 0.023321
v 0.002847 0.013303 0.025245
v -0.000197 0.006412 0.023482
v -0.004365 0.013143 0.024603
v -0.000678 0.014585 0.024764
v 0.004770 0.011700 0.023803
v -0.006129 0.013463 0.023482
v 0.001244 0.013303 0.025565
f 75 78 81 
f 69 70 73 
f 71 68 73 
f 69 73 74 
f 73 68 74 
f 73 70 75 
f 68 71 76 
f 71 75 76 
f 68 76 77 
f 76 72 77 
f 70 69 78 
f 69 74 78 
f 75 70 78 
f 74 77 78 
f 77 72 78 
f 71 73 79 
f 75 71 79 
f 73 75 79 
f 74 68 80 
f 68 77 80 
f 77 74 80 
f 72 76 81 
f 76 75 81 
f 78 72 81 
o convex_6
v -0.004365 -0.080623 0.027169
v -0.011899 -0.074855 0.024444
v -0.011737 -0.075335 0.024444
v -0.004365 -0.083989 0.024444
v -0.004365 -0.074693 0.029732
v -0.007892 -0.078379 0.026848
v -0.008692 -0.074855 0.027969
v -0.006770 -0.082546 0.024604
v -0.011578 -0.074693 0.024444
v -0.004526 -0.075816 0.029732
v -0.010296 -0.078221 0.024604
v -0.004526 -0.084308 0.024765
f 87 89 93 
f 84 83 85 
f 82 85 86 
f 83 84 88 
f 84 85 89 
f 85 83 90 
f 86 85 90 
f 83 88 90 
f 88 86 90 
f 82 86 91 
f 87 82 91 
f 86 88 91 
f 88 87 91 
f 88 84 92 
f 87 88 92 
f 84 89 92 
f 89 87 92 
f 85 82 93 
f 82 87 93 
f 89 85 93 
o convex_7
v 0.013265 -0.050005 0.012742
v 0.004290 -0.037027 0.011140
v 0.004290 -0.037027 0.011301
v 0.013265 -0.054976 0.009378
v 0.013265 -0.050166 0.015788
v 0.007015 -0.037348 0.013545
v 0.011181 -0.048882 0.009216
v 0.006694 -0.037188 0.016108
v 0.007496 -0.037509 0.016108
v 0.005573 -0.037509 0.011140
v 0.008297 -0.045523 0.009216
v 0.013426 -0.049528 0.015788
v 0.013426 -0.053373 0.009538
v 0.008136 -0.040392 0.016108
v 0.012784 -0.049205 0.012103
v 0.006215 -0.037348 0.011942
f 100 103 109 
f 96 97 98 
f 95 96 101 
f 99 95 101 
f 99 101 102 
f 103 100 104 
f 96 95 104 
f 97 96 104 
f 100 97 104 
f 95 103 104 
f 98 97 105 
f 94 102 105 
f 97 100 106 
f 94 105 106 
f 105 97 106 
f 96 98 107 
f 101 96 107 
f 102 101 107 
f 98 105 107 
f 105 102 107 
f 100 99 108 
f 99 102 108 
f 102 94 108 
f 94 106 108 
f 106 100 108 
f 95 99 109 
f 99 100 109 
f 103 95 109 
o convex_8
v 0.013426 -0.050647 0.019955
v 0.004771 -0.037188 0.020596
v 0.004771 -0.037188 0.020756
v 0.013265 -0.054976 0.023161
v 0.013265 -0.050006 0.015788
v 0.007496 -0.037349 0.016269
v 0.006054 -0.037508 0.020756
v 0.008298 -0.040876 0.015788
v 0.011501 -0.049525 0.023161
v 0.008298 -0.045363 0.023161
v 0.007175 -0.037508 0.018513
v 0.013426 -0.049366 0.016910
v 0.012945 -0.049846 0.020755
v 0.006694 -0.036867 0.016109
v 0.013265 -0.054976 0.023000
v 0.013426 -0.054012 0.023161
v 0.009259 -0.042798 0.015788
v 0.013426 -0.049525 0.015788
v 0.008458 -0.044883 0.023161
f 112 119 128 
f 112 111 119 
f 113 118 119 
f 115 120 121 
f 121 120 122 
f 116 118 122 
f 120 116 122 
f 110 121 122 
f 111 112 123 
f 112 116 123 
f 117 111 123 
f 115 117 123 
f 120 115 123 
f 116 120 123 
f 119 111 124 
f 113 119 124 
f 118 113 125 
f 121 110 125 
f 110 122 125 
f 122 118 125 
f 113 124 125 
f 111 117 126 
f 117 114 126 
f 124 111 126 
f 114 124 126 
f 114 117 127 
f 117 115 127 
f 115 121 127 
f 124 114 127 
f 121 125 127 
f 125 124 127 
f 116 112 128 
f 118 116 128 
f 119 118 128 
o convex_9
v 0.001725 0.086234 0.016109
v -0.001961 0.084950 0.016269
v 0.000122 0.079341 0.017871
v 0.000604 0.085271 0.014346
v -0.000198 0.090080 0.016589
v 0.001886 0.079341 0.016269
v 0.000604 0.085589 0.018032
v -0.001319 0.085432 0.014667
v -0.001319 0.085593 0.017711
v 0.001565 0.085589 0.017391
v 0.000122 0.090080 0.015788
v 0.001244 0.079341 0.017711
v 0.001565 0.085594 0.014987
f 132 139 141 
f 131 130 136 
f 130 133 136 
f 134 131 136 
f 132 134 136 
f 130 131 137 
f 133 130 137 
f 131 135 137 
f 135 133 137 
f 134 129 138 
f 133 135 138 
f 132 136 139 
f 136 133 139 
f 138 129 139 
f 133 138 139 
f 131 134 140 
f 135 131 140 
f 134 138 140 
f 138 135 140 
f 129 134 141 
f 134 132 141 
f 139 129 141 
o convex_10
v 0.008296 -0.077898 0.013063
v -0.007570 -0.075335 0.016109
v -0.007570 -0.075335 0.015628
v -0.012219 -0.078539 0.013224
v -0.012219 -0.076296 0.013865
v 0.008296 -0.076135 0.014025
v 0.008296 -0.078058 0.013384
v -0.012219 -0.075495 0.016109
v -0.012219 -0.077898 0.013063
v 0.008296 -0.076296 0.014346
v -0.007570 -0.075495 0.016109
v -0.012219 -0.075976 0.014186
f 146 149 153 
f 144 143 147 
f 142 146 147 
f 145 142 148 
f 142 147 148 
f 143 144 149 
f 146 145 149 
f 142 145 150 
f 146 142 150 
f 145 146 150 
f 147 143 151 
f 148 147 151 
f 148 151 152 
f 145 148 152 
f 143 149 152 
f 149 145 152 
f 151 143 152 
f 144 147 153 
f 147 146 153 
f 149 144 153 
o convex_11
v 0.007495 0.013464 0.022038
v 0.006213 0.015547 0.016911
v 0.006213 0.015708 0.016911
v 0.001566 0.015066 0.023321
v 0.009098 0.013304 0.016911
v 0.007175 0.014746 0.020596
v 0.003329 0.015708 0.022038
v 0.005732 0.013304 0.023321
v 0.005092 0.014586 0.023160
v 0.008617 0.014426 0.017712
v 0.001566 0.015547 0.022199
v 0.006373 0.015708 0.018353
f 159 163 165 
f 155 156 158 
f 158 154 161 
f 157 158 161 
f 154 159 162 
f 160 157 162 
f 159 160 162 
f 161 154 162 
f 157 161 162 
f 154 158 163 
f 158 156 163 
f 159 154 163 
f 156 155 164 
f 158 157 164 
f 155 158 164 
f 160 156 164 
f 157 160 164 
f 156 160 165 
f 160 159 165 
f 163 156 165 
o convex_12
v 0.001886 0.079341 0.016269
v 0.000283 0.038633 0.018192
v 0.000764 0.067959 0.018032
v 0.001725 0.018272 0.017391
v 0.001725 0.018272 0.016269
v 0.000123 0.079341 0.017872
v 0.000123 0.018272 0.018032
v 0.001565 0.079341 0.017391
v 0.001244 0.018272 0.017872
v 0.001725 0.079341 0.016269
v 0.001886 0.022445 0.017071
v 0.000123 0.026127 0.017872
v 0.001886 0.018272 0.016269
v 0.000123 0.079341 0.018032
v 0.000443 0.018272 0.018192
v 0.001886 0.058981 0.016910
v 0.001244 0.079341 0.017711
f 173 179 182 
f 170 169 172 
f 166 171 173 
f 172 169 174 
f 166 170 175 
f 170 171 175 
f 171 166 175 
f 171 170 177 
f 170 172 177 
f 172 171 177 
f 170 166 178 
f 169 170 178 
f 166 176 178 
f 176 169 178 
f 167 168 179 
f 172 167 179 
f 171 172 179 
f 173 171 179 
f 168 167 180 
f 167 172 180 
f 174 168 180 
f 172 174 180 
f 173 169 181 
f 166 173 181 
f 176 166 181 
f 169 176 181 
f 169 173 182 
f 168 174 182 
f 174 169 182 
f 179 168 182 
o convex_13
v -0.009334 -0.083669 0.019154
v -0.007732 -0.086714 0.015789
v -0.007571 -0.086714 0.015789
v -0.009494 -0.083508 0.013063
v -0.010135 -0.083669 0.016909
v -0.007571 -0.085592 0.013063
v -0.007571 -0.086073 0.019154
v -0.009174 -0.084631 0.013224
f 186 188 190 
f 183 186 187 
f 185 184 188 
f 186 183 188 
f 184 185 189 
f 183 187 189 
f 187 184 189 
f 188 183 189 
f 185 188 189 
f 187 186 190 
f 184 187 190 
f 188 184 190 
o convex_14
v -0.007571 -0.079660 0.006332
v -0.012058 -0.078701 0.013063
v -0.013341 -0.073892 0.011139
v -0.007571 -0.073731 0.004088
v -0.007572 -0.085431 0.013063
v -0.010776 -0.078381 0.008415
v -0.011096 -0.081265 0.011621
v -0.011898 -0.074052 0.007454
v -0.007731 -0.084630 0.010338
v -0.008533 -0.074854 0.004409
v -0.013662 -0.074373 0.010978
v -0.009335 -0.084308 0.013063
v -0.012539 -0.077739 0.010978
v -0.012058 -0.079663 0.013063
v -0.007892 -0.078381 0.005530
f 196 200 205 
f 191 194 195 
f 193 192 195 
f 194 193 195 
f 193 194 198 
f 191 195 199 
f 197 196 199 
f 196 198 200 
f 198 194 200 
f 192 193 201 
f 193 198 201 
f 195 192 202 
f 199 195 202 
f 197 199 202 
f 196 197 203 
f 198 196 203 
f 201 198 203 
f 201 203 204 
f 192 201 204 
f 202 192 204 
f 197 202 204 
f 203 197 204 
f 194 191 205 
f 191 199 205 
f 199 196 205 
f 200 194 205 
o convex_15
v -0.013020 -0.070685 0.024604
v -0.008693 -0.064274 0.029733
v -0.008854 -0.064274 0.029733
v -0.008693 -0.074693 0.027809
v -0.013340 -0.064757 0.024443
v -0.013020 -0.067000 0.025726
v -0.011577 -0.074531 0.024443
v -0.009174 -0.071006 0.028770
v -0.008693 -0.064274 0.029412
v -0.011898 -0.074372 0.024925
v -0.013181 -0.064274 0.025726
v -0.008693 -0.074210 0.027488
v -0.009495 -0.067000 0.029251
v -0.012540 -0.071006 0.025406
f 218 211 219 
f 206 210 212 
f 207 208 213 
f 209 207 213 
f 208 207 214 
f 207 209 214 
f 212 209 215 
f 206 212 215 
f 209 213 215 
f 210 206 216 
f 206 211 216 
f 208 214 216 
f 214 210 216 
f 209 212 217 
f 212 210 217 
f 214 209 217 
f 210 214 217 
f 213 208 218 
f 208 216 218 
f 216 211 218 
f 211 206 219 
f 206 215 219 
f 215 213 219 
f 213 218 219 
o convex_16
v -0.004365 -0.071647 0.030855
v -0.008693 -0.074693 0.027649
v -0.008533 -0.074693 0.027649
v -0.008372 -0.064274 0.029573
v -0.008693 -0.070685 0.029092
v -0.004365 -0.064274 0.031495
v -0.005167 -0.066680 0.031495
v -0.004365 -0.074693 0.029893
v -0.008533 -0.064274 0.029893
v -0.006129 -0.074531 0.029413
v -0.008533 -0.074210 0.027649
v -0.005167 -0.070844 0.030855
f 224 229 231 
f 220 225 226 
f 221 222 227 
f 225 220 227 
f 223 221 228 
f 221 224 228 
f 225 223 228 
f 224 226 228 
f 226 225 228 
f 224 221 229 
f 221 227 229 
f 227 220 229 
f 222 221 230 
f 221 223 230 
f 223 225 230 
f 227 222 230 
f 225 227 230 
f 220 226 231 
f 226 224 231 
f 229 220 231 
o convex_17
v 0.001565 -0.078541 0.029091
v -0.004365 -0.084469 0.024444
v -0.004205 -0.084629 0.024444
v 0.002206 -0.085110 0.024444
v 0.002206 -0.074854 0.030053
v -0.004365 -0.075015 0.030053
v -0.000519 -0.084308 0.025887
v -0.004044 -0.078701 0.028610
v -0.004205 -0.083827 0.024604
v -0.004365 -0.074854 0.029732
v -0.000039 -0.077579 0.029732
v 0.002206 -0.083346 0.026207
v 0.000763 -0.074854 0.030694
v -0.002762 -0.085431 0.024604
v 0.000282 -0.085913 0.024604
f 238 245 246 
f 234 233 235 
f 233 234 239 
f 237 233 239 
f 235 233 240 
f 236 235 240 
f 233 237 241 
f 240 233 241 
f 236 240 241 
f 238 232 242 
f 239 238 242 
f 237 239 242 
f 236 232 243 
f 235 236 243 
f 232 238 243 
f 232 236 244 
f 241 237 244 
f 236 241 244 
f 242 232 244 
f 237 242 244 
f 238 239 245 
f 239 234 245 
f 234 235 246 
f 235 243 246 
f 243 238 246 
f 245 234 246 
o convex_18
v 0.002206 -0.077900 0.029251
v 0.002206 -0.085432 0.024443
v 0.002206 -0.085432 0.024604
v 0.008297 -0.080783 0.024443
v 0.002367 -0.074694 0.030053
v 0.007175 -0.078220 0.027329
v 0.008297 -0.074694 0.028129
v 0.008137 -0.080142 0.024443
v 0.003169 -0.084148 0.025566
v 0.004611 -0.075335 0.029892
v 0.004290 -0.078541 0.028610
v 0.005892 -0.083507 0.024604
v 0.008137 -0.074694 0.027809
v 0.002206 -0.084790 0.024604
f 251 254 260 
f 247 248 249 
f 252 250 253 
f 250 248 254 
f 253 250 254 
f 247 249 255 
f 251 247 256 
f 253 251 256 
f 252 253 256 
f 247 255 257 
f 252 256 257 
f 256 247 257 
f 249 248 258 
f 248 250 258 
f 250 252 258 
f 255 249 258 
f 257 255 258 
f 252 257 258 
f 251 253 259 
f 254 251 259 
f 253 254 259 
f 248 247 260 
f 247 251 260 
f 254 248 260 
o convex_19
v -0.000839 -0.064757 0.032297
v -0.004365 -0.074693 0.029893
v -0.004365 -0.074693 0.030054
v 0.000443 -0.074693 0.030534
v -0.003724 -0.064274 0.031496
v -0.003884 -0.070685 0.031175
v -0.000038 -0.071165 0.031656
v 0.000443 -0.064274 0.032137
v -0.004365 -0.066680 0.031656
v 0.000443 -0.074051 0.030534
v -0.000198 -0.074531 0.030855
v 0.000122 -0.066839 0.032297
f 269 266 272 
f 263 262 264 
f 265 261 268 
f 262 263 269 
f 261 265 269 
f 265 262 269 
f 263 266 269 
f 264 262 270 
f 262 265 270 
f 265 268 270 
f 268 264 270 
f 263 264 271 
f 266 263 271 
f 264 267 271 
f 267 266 271 
f 267 264 272 
f 266 267 272 
f 268 261 272 
f 264 268 272 
f 261 269 272 
o convex_20
v 0.004770 -0.065237 0.031656
v 0.000443 -0.074693 0.030534
v 0.000443 -0.074693 0.030694
v 0.008297 -0.074693 0.027970
v 0.000604 -0.064436 0.031976
v 0.007976 -0.064274 0.029734
v 0.004930 -0.071326 0.030854
v 0.008297 -0.066680 0.029894
v 0.000604 -0.067482 0.032136
v 0.007976 -0.074372 0.027970
v 0.004770 -0.074693 0.030054
v 0.008297 -0.070844 0.029252
v 0.000604 -0.074531 0.030374
v 0.004930 -0.064274 0.031656
v 0.005091 -0.067000 0.031496
v 0.000604 -0.070844 0.031656
v 0.000443 -0.064274 0.032297
f 288 281 289 
f 275 274 276 
f 276 278 280 
f 278 276 282 
f 277 278 282 
f 275 276 283 
f 279 283 284 
f 276 280 284 
f 283 276 284 
f 276 274 285 
f 274 277 285 
f 282 276 285 
f 277 282 285 
f 280 278 286 
f 273 281 287 
f 279 284 287 
f 284 280 287 
f 286 273 287 
f 280 286 287 
f 275 283 288 
f 283 279 288 
f 287 281 288 
f 279 287 288 
f 274 275 289 
f 277 274 289 
f 278 277 289 
f 281 273 289 
f 286 278 289 
f 273 286 289 
f 275 288 289 
o convex_21
v -0.013181 -0.055780 0.024444
v -0.009014 -0.059784 0.029573
v -0.009174 -0.059784 0.029573
v -0.013662 -0.064274 0.024444
v -0.009014 -0.054178 0.027969
v -0.013021 -0.057542 0.025727
v -0.009014 -0.064274 0.029251
v -0.013181 -0.064274 0.025727
v -0.012219 -0.053857 0.024444
v -0.009174 -0.054016 0.028450
v -0.009655 -0.062349 0.029411
v -0.012379 -0.053695 0.025086
v -0.009655 -0.057383 0.029091
v -0.013341 -0.064274 0.024605
v -0.013181 -0.061709 0.025887
v -0.013662 -0.057704 0.024605
f 304 295 305 
f 294 291 296 
f 293 296 297 
f 293 290 298 
f 294 296 298 
f 292 291 299 
f 291 294 299 
f 294 298 299 
f 291 292 300 
f 296 291 300 
f 297 296 300 
f 298 290 301 
f 295 299 301 
f 299 298 301 
f 292 299 302 
f 299 295 302 
f 300 292 302 
f 296 293 303 
f 293 298 303 
f 298 296 303 
f 293 297 304 
f 297 300 304 
f 302 295 304 
f 300 302 304 
f 290 293 305 
f 301 290 305 
f 295 301 305 
f 293 304 305 
o convex_22
v -0.003084 -0.056741 0.031656
v -0.009014 -0.064274 0.029413
v -0.008693 -0.064274 0.029413
v -0.008693 -0.053695 0.028130
v -0.002763 -0.064274 0.031656
v -0.005168 -0.057704 0.031495
v -0.002603 -0.053695 0.030694
v -0.009014 -0.058024 0.029573
v -0.005168 -0.063472 0.031656
v -0.005007 -0.053695 0.030534
v -0.002603 -0.058985 0.031976
v -0.009014 -0.053695 0.028451
v -0.009014 -0.061548 0.029733
v -0.002603 -0.064274 0.031976
f 316 314 319 
f 308 307 309 
f 307 308 310 
f 308 309 310 
f 310 309 312 
f 311 306 315 
f 306 312 315 
f 312 309 315 
f 306 311 316 
f 312 306 316 
f 311 314 316 
f 309 307 317 
f 307 313 317 
f 313 311 317 
f 311 315 317 
f 315 309 317 
f 313 307 318 
f 311 313 318 
f 314 311 318 
f 307 314 318 
f 307 310 319 
f 310 312 319 
f 314 307 319 
f 312 316 319 
o convex_23
v -0.004526 -0.051291 0.029732
v -0.012540 -0.053695 0.024444
v -0.012540 -0.053695 0.024605
v -0.002763 -0.040873 0.024445
v -0.002602 -0.053535 0.030533
v -0.008213 -0.049527 0.027008
v -0.008694 -0.053695 0.028610
v -0.002602 -0.041515 0.024445
v -0.006610 -0.044240 0.024605
v -0.012218 -0.053695 0.024444
v -0.004367 -0.049045 0.028770
v -0.002602 -0.050167 0.029571
v -0.011737 -0.051611 0.024605
v -0.004846 -0.053374 0.030533
v -0.003084 -0.041033 0.024605
f 330 331 334 
f 322 321 326 
f 323 321 328 
f 321 323 329 
f 326 321 329 
f 324 326 329 
f 323 327 329 
f 327 324 329 
f 325 320 330 
f 327 323 331 
f 324 327 331 
f 330 320 331 
f 321 322 332 
f 322 326 332 
f 326 325 332 
f 328 321 332 
f 325 328 332 
f 320 325 333 
f 326 324 333 
f 325 326 333 
f 331 320 333 
f 324 331 333 
f 323 328 334 
f 328 325 334 
f 325 330 334 
f 331 323 334 
o convex_24
v -0.003565 -0.089278 0.015308
v -0.007411 -0.085752 0.019154
v -0.007411 -0.085752 0.018993
v 0.000123 -0.089278 0.018833
v -0.003883 -0.088798 0.019154
v -0.007411 -0.086394 0.015308
v 0.000123 -0.090080 0.015308
v -0.007411 -0.087035 0.016750
v -0.001481 -0.089920 0.017551
v -0.005166 -0.088477 0.018032
v -0.006768 -0.087035 0.019154
v 0.000123 -0.089439 0.019154
f 343 341 346 
f 337 336 338 
f 336 337 340 
f 337 338 340 
f 335 340 341 
f 340 338 341 
f 336 340 342 
f 340 335 342 
f 335 341 343 
f 342 335 344 
f 335 343 344 
f 343 339 344 
f 339 336 345 
f 336 342 345 
f 344 339 345 
f 342 344 345 
f 338 336 346 
f 336 339 346 
f 341 338 346 
f 339 343 346 
o convex_25
v 0.003007 -0.054016 0.031015
v -0.002602 -0.064274 0.031816
v 0.003809 -0.064274 0.031496
v 0.000123 -0.057542 0.032297
v -0.002602 -0.053695 0.030695
v 0.004611 -0.054016 0.030374
v 0.004611 -0.058344 0.031656
v 0.000123 -0.063632 0.032458
v -0.002602 -0.058504 0.031977
v -0.000518 -0.053695 0.031336
v 0.004611 -0.064274 0.031656
v -0.002602 -0.054178 0.030695
f 351 352 358 
f 347 350 353 
f 352 347 353 
f 353 350 354 
f 351 348 355 
f 348 354 355 
f 354 350 355 
f 350 347 356 
f 347 352 356 
f 352 351 356 
f 355 350 356 
f 351 355 356 
f 348 349 357 
f 349 352 357 
f 352 353 357 
f 354 348 357 
f 353 354 357 
f 349 348 358 
f 348 351 358 
f 352 349 358 
o convex_26
v 0.008296 -0.054497 0.029092
v 0.004611 -0.064274 0.031496
v 0.004771 -0.064274 0.031336
v 0.004611 -0.053695 0.030213
v 0.005092 -0.057542 0.031496
v 0.008296 -0.064274 0.029733
v 0.008136 -0.053857 0.028451
v 0.008296 -0.060746 0.030053
v 0.005092 -0.063952 0.031656
v 0.004611 -0.053857 0.030694
v 0.008296 -0.057542 0.029894
f 363 366 369 
f 361 360 362 
f 360 361 364 
f 359 364 365 
f 361 362 365 
f 364 361 365 
f 364 359 366 
f 364 366 367 
f 363 360 367 
f 360 364 367 
f 366 363 367 
f 362 360 368 
f 363 359 368 
f 360 363 368 
f 359 365 368 
f 365 362 368 
f 359 363 369 
f 366 359 369 
o convex_27
v 0.001885 -0.036866 0.022521
v 0.000122 -0.053533 0.031336
v -0.000198 -0.053533 0.031336
v -0.002602 -0.053533 0.030534
v -0.002441 -0.037508 0.023322
v -0.002923 -0.037349 0.022039
v 0.002367 -0.053692 0.030693
v 0.001565 -0.037508 0.023482
v -0.000358 -0.049205 0.029571
v 0.002367 -0.050006 0.029571
v -0.002602 -0.049365 0.029251
v 0.002367 -0.041197 0.024444
v -0.000518 -0.037508 0.023642
v -0.002923 -0.036866 0.022361
f 374 382 383 
f 371 372 376 
f 372 373 376 
f 373 375 376 
f 372 371 378 
f 371 376 379 
f 377 378 379 
f 378 371 379 
f 373 372 380 
f 372 378 380 
f 378 374 380 
f 375 370 381 
f 376 375 381 
f 370 377 381 
f 379 376 381 
f 377 379 381 
f 377 370 382 
f 378 377 382 
f 374 378 382 
f 370 375 383 
f 375 373 383 
f 373 380 383 
f 380 374 383 
f 382 370 383 
o convex_28
v 0.006212 -0.043919 0.024444
v 0.002527 -0.053214 0.030854
v 0.002367 -0.053214 0.030854
v 0.008297 -0.053695 0.028450
v 0.003970 -0.049367 0.029091
v 0.002367 -0.041354 0.024444
v 0.008136 -0.047124 0.024444
v 0.002367 -0.053534 0.030534
v 0.007815 -0.049527 0.027329
v 0.002527 -0.040712 0.024605
v 0.004771 -0.053374 0.030534
v 0.008297 -0.046483 0.024605
v 0.008297 -0.053374 0.028770
v 0.002367 -0.048405 0.028770
f 393 389 397 
f 389 384 390 
f 389 390 391 
f 385 386 391 
f 386 389 391 
f 390 387 391 
f 384 389 393 
f 392 384 393 
f 388 392 393 
f 388 385 394 
f 385 391 394 
f 391 387 394 
f 392 388 394 
f 387 390 395 
f 390 384 395 
f 384 392 395 
f 395 392 396 
f 394 387 396 
f 392 394 396 
f 387 395 396 
f 386 385 397 
f 385 388 397 
f 389 386 397 
f 388 393 397 
o convex_29
v 0.008618 -0.066837 0.002646
v 0.013426 -0.070203 0.009055
v 0.013266 -0.070203 0.009055
v 0.013426 -0.057863 0.007773
v 0.013105 -0.066678 0.006651
v 0.008297 -0.057863 0.002806
v 0.008297 -0.070525 0.003448
v 0.009579 -0.057863 0.003126
v 0.012624 -0.070525 0.006971
v 0.009579 -0.066678 0.003127
v 0.013105 -0.060108 0.006491
v 0.009099 -0.070525 0.003448
v 0.009419 -0.062351 0.002806
v 0.013266 -0.057863 0.007773
v 0.013426 -0.066678 0.007292
v 0.008297 -0.061870 0.002324
f 405 410 413 
f 400 399 401 
f 400 403 404 
f 403 401 405 
f 399 400 406 
f 400 404 406 
f 402 406 407 
f 405 401 408 
f 404 398 409 
f 406 404 409 
f 407 406 409 
f 398 407 409 
f 407 398 410 
f 402 407 410 
f 408 402 410 
f 405 408 410 
f 400 401 411 
f 403 400 411 
f 401 403 411 
f 401 399 412 
f 399 406 412 
f 406 402 412 
f 402 408 412 
f 408 401 412 
f 398 404 413 
f 404 403 413 
f 403 405 413 
f 410 398 413 
o convex_30
v 0.010221 -0.078059 0.007775
v 0.008297 -0.085752 0.014986
v 0.008458 -0.085752 0.014986
v 0.008297 -0.079181 0.013223
v 0.012144 -0.079181 0.013223
v 0.008297 -0.078221 0.006012
v 0.008458 -0.083668 0.010338
v 0.010541 -0.083187 0.015788
v 0.011182 -0.081105 0.011621
v 0.012465 -0.078059 0.011621
v 0.008297 -0.083026 0.015788
v 0.009419 -0.084309 0.013063
v 0.010541 -0.078541 0.008256
v 0.008297 -0.078059 0.006493
f 423 414 427 
f 415 417 419 
f 416 415 420 
f 415 419 420 
f 415 416 421 
f 418 421 422 
f 417 418 423 
f 418 422 423 
f 417 415 424 
f 418 417 424 
f 415 421 424 
f 421 418 424 
f 416 420 425 
f 421 416 425 
f 420 422 425 
f 422 421 425 
f 419 414 426 
f 420 419 426 
f 422 420 426 
f 414 423 426 
f 423 422 426 
f 414 419 427 
f 419 417 427 
f 417 423 427 
o convex_31
v 0.013426 -0.075976 0.015147
v 0.011823 -0.079180 0.011621
v 0.011823 -0.078860 0.011621
v 0.008297 -0.075655 0.015788
v 0.013426 -0.075174 0.011621
v 0.008297 -0.079180 0.013064
v 0.012304 -0.079180 0.013224
v 0.008297 -0.076296 0.013864
v 0.013426 -0.075334 0.015788
v 0.008297 -0.075334 0.015628
v 0.008297 -0.077898 0.013064
f 433 435 438 
f 429 430 432 
f 430 429 433 
f 431 433 434 
f 432 428 434 
f 429 432 434 
f 433 429 434 
f 433 431 435 
f 428 432 436 
f 431 434 436 
f 434 428 436 
f 435 431 437 
f 432 435 437 
f 436 432 437 
f 431 436 437 
f 432 430 438 
f 430 433 438 
f 435 432 438 
o convex_32
v -0.007570 -0.077739 0.019154
v 0.008296 -0.075815 0.017712
v 0.008296 -0.075815 0.017391
v 0.008296 -0.080463 0.018994
v -0.007570 -0.075975 0.017391
v -0.007570 -0.080463 0.018994
v 0.008296 -0.077739 0.019154
v -0.007570 -0.076136 0.018513
v 0.008296 -0.076136 0.018513
v 0.008296 -0.080463 0.019154
v -0.007570 -0.080463 0.019154
f 444 448 449 
f 441 440 442 
f 440 441 443 
f 441 442 443 
f 439 443 444 
f 443 442 444 
f 442 440 445 
f 443 439 446 
f 440 443 446 
f 439 445 446 
f 446 445 447 
f 445 440 447 
f 440 446 447 
f 444 442 448 
f 445 439 448 
f 442 445 448 
f 439 444 449 
f 448 439 449 
o convex_33
v 0.009741 -0.054175 0.004408
v 0.008458 -0.045200 0.009216
v 0.008297 -0.045200 0.009216
v 0.013426 -0.056901 0.008414
v 0.008297 -0.057702 0.002966
v 0.011983 -0.052251 0.007613
v 0.008458 -0.049850 0.005370
v 0.013105 -0.057702 0.006651
v 0.013426 -0.054175 0.009216
v 0.008458 -0.046002 0.009216
v 0.009579 -0.057542 0.003126
v 0.010862 -0.048568 0.008895
v 0.013266 -0.055296 0.009216
v 0.008297 -0.053214 0.003768
f 460 454 463 
f 452 451 456 
f 455 450 456 
f 453 454 457 
f 450 455 457 
f 457 455 458 
f 451 452 458 
f 453 457 458 
f 452 454 459 
f 458 452 459 
f 450 457 460 
f 457 454 460 
f 456 451 461 
f 455 456 461 
f 458 455 461 
f 451 458 461 
f 454 453 462 
f 453 458 462 
f 458 459 462 
f 459 454 462 
f 454 452 463 
f 452 456 463 
f 456 450 463 
f 450 460 463 
o convex_34
v 0.008298 -0.085591 0.018193
v 0.012143 -0.078219 0.021397
v 0.012304 -0.078219 0.021237
v 0.008298 -0.078219 0.018993
v 0.010381 -0.083026 0.015788
v 0.008298 -0.083988 0.021397
v 0.012785 -0.078219 0.018993
v 0.011823 -0.081265 0.019153
v 0.008298 -0.083026 0.015788
v 0.008458 -0.085911 0.015788
v 0.009099 -0.084630 0.019314
v 0.010701 -0.081105 0.021397
f 469 474 475 
f 465 466 467 
f 465 467 469 
f 467 464 469 
f 467 466 470 
f 468 467 470 
f 468 470 471 
f 470 466 471 
f 464 467 472 
f 467 468 472 
f 472 468 473 
f 468 471 473 
f 464 472 473 
f 464 473 474 
f 469 464 474 
f 473 471 474 
f 474 471 475 
f 466 465 475 
f 465 469 475 
f 471 466 475 
o convex_35
v 0.013105 -0.077737 0.018993
v 0.013426 -0.074372 0.021397
v 0.013426 -0.075174 0.021397
v 0.008297 -0.077737 0.019153
v 0.008297 -0.075335 0.015788
v 0.013426 -0.075335 0.015788
v 0.011983 -0.078219 0.021397
v 0.008297 -0.078219 0.018993
v 0.008297 -0.076136 0.018514
v 0.012785 -0.078219 0.018993
v 0.008297 -0.075174 0.015949
f 480 484 486 
f 478 476 481 
f 477 478 481 
f 476 478 482 
f 478 477 482 
f 477 479 482 
f 482 479 483 
f 479 480 483 
f 480 481 483 
f 479 477 484 
f 480 479 484 
f 481 476 485 
f 476 482 485 
f 482 483 485 
f 483 481 485 
f 477 481 486 
f 481 480 486 
f 484 477 486 
o convex_36
v 0.012143 -0.078379 0.021399
v 0.008618 -0.070525 0.029091
v 0.009259 -0.070525 0.028770
v 0.013266 -0.070687 0.023162
v 0.008297 -0.083508 0.021399
v 0.008458 -0.078218 0.026366
v 0.012143 -0.073572 0.024925
v 0.008297 -0.070687 0.028770
v 0.010542 -0.078537 0.024124
v 0.013426 -0.074053 0.021399
v 0.012624 -0.070525 0.025405
v 0.008618 -0.083666 0.021720
v 0.008618 -0.075014 0.027969
v 0.013426 -0.074533 0.021880
f 490 497 500 
f 488 490 494 
f 490 491 494 
f 491 492 494 
f 487 493 495 
f 487 491 496 
f 491 490 496 
f 488 489 497 
f 490 488 497 
f 489 493 497 
f 491 487 498 
f 492 491 498 
f 487 495 498 
f 495 492 498 
f 489 488 499 
f 493 489 499 
f 488 494 499 
f 494 492 499 
f 492 495 499 
f 495 493 499 
f 493 487 500 
f 487 496 500 
f 496 490 500 
f 497 493 500 
o convex_37
v 0.013426 -0.070525 0.023804
v 0.008458 -0.063794 0.029893
v 0.008618 -0.060749 0.029893
v 0.013105 -0.066519 0.025727
v 0.013266 -0.057865 0.024605
v 0.008297 -0.070525 0.028930
v 0.008297 -0.057865 0.029572
v 0.013266 -0.070203 0.023323
v 0.013105 -0.057865 0.025727
v 0.009579 -0.066678 0.029251
v 0.012624 -0.070525 0.025407
v 0.009741 -0.060588 0.029251
v 0.009099 -0.070363 0.028930
v 0.013266 -0.062672 0.025727
v 0.009579 -0.057865 0.029251
f 512 509 515 
f 502 503 507 
f 506 502 507 
f 506 507 508 
f 505 501 508 
f 501 506 508 
f 507 505 508 
f 505 507 509 
f 503 502 510 
f 501 504 511 
f 506 501 511 
f 504 510 511 
f 503 510 512 
f 502 506 513 
f 510 502 513 
f 506 511 513 
f 511 510 513 
f 504 501 514 
f 501 505 514 
f 505 509 514 
f 510 504 514 
f 509 512 514 
f 512 510 514 
f 507 503 515 
f 509 507 515 
f 503 512 515 
o convex_38
v -0.007570 -0.082867 0.017712
v 0.008296 -0.080463 0.019154
v 0.008296 -0.081425 0.019154
v 0.008296 -0.082707 0.017391
v -0.007570 -0.080463 0.018994
v -0.007570 -0.081425 0.019154
v 0.008296 -0.082546 0.018352
v -0.007570 -0.082707 0.017391
v -0.007570 -0.082386 0.018513
f 516 522 524 
f 517 518 519 
f 517 519 520 
f 517 520 521 
f 518 517 521 
f 520 516 521 
f 519 518 522 
f 516 519 522 
f 519 516 523 
f 516 520 523 
f 520 519 523 
f 521 516 524 
f 518 521 524 
f 522 518 524 
o convex_39
v 0.013105 -0.053213 0.023162
v 0.008458 -0.057220 0.029733
v 0.008297 -0.057220 0.029733
v 0.008458 -0.045041 0.023323
v 0.009099 -0.053374 0.028289
v 0.013266 -0.057540 0.024284
v 0.008297 -0.045683 0.023162
v 0.012143 -0.053374 0.025246
v 0.013105 -0.057701 0.025726
v 0.008297 -0.057701 0.029411
v 0.008458 -0.049529 0.026687
v 0.010702 -0.049369 0.024444
v 0.013266 -0.055296 0.023162
v 0.009579 -0.057862 0.029251
f 534 530 538 
f 527 526 529 
f 528 525 531 
f 525 532 533 
f 532 529 533 
f 526 527 534 
f 527 531 534 
f 531 530 534 
f 527 529 535 
f 531 527 535 
f 528 531 535 
f 525 528 536 
f 532 525 536 
f 529 532 536 
f 535 529 536 
f 528 535 536 
f 531 525 537 
f 530 531 537 
f 533 530 537 
f 525 533 537 
f 529 526 538 
f 533 529 538 
f 530 533 538 
f 526 534 538 
o convex_40
v -0.007572 -0.082706 0.018192
v -0.012219 -0.079662 0.018993
v -0.011898 -0.080464 0.018993
v -0.010135 -0.083508 0.016109
v -0.007572 -0.078060 0.018993
v -0.009815 -0.083508 0.019154
v -0.007572 -0.083347 0.016109
v -0.012219 -0.078060 0.018993
v -0.007572 -0.081424 0.019154
f 546 544 547 
f 541 540 542 
f 540 541 544 
f 541 542 544 
f 539 544 545 
f 543 539 545 
f 544 542 545 
f 545 542 546 
f 542 540 546 
f 540 544 546 
f 543 545 546 
f 543 546 547 
f 539 543 547 
f 544 539 547 
o convex_41
v -0.000358 -0.015710 0.023161
v -0.004045 -0.036866 0.021558
v -0.004045 -0.036866 0.021719
v -0.004045 0.004648 0.021719
v -0.002441 -0.036382 0.022840
v -0.000198 -0.036866 0.022840
v -0.002922 0.004648 0.022680
v -0.000198 0.004648 0.023001
v -0.004045 -0.036382 0.022039
v -0.001320 0.004648 0.023161
v -0.003724 -0.036382 0.021558
v -0.001160 -0.036223 0.023161
v -0.004045 0.004648 0.022039
v -0.000198 -0.036382 0.023161
v -0.003884 0.004648 0.021719
f 555 558 562 
f 549 550 551 
f 552 550 553 
f 550 549 553 
f 551 554 555 
f 551 550 556 
f 550 552 556 
f 552 554 556 
f 554 552 557 
f 548 555 557 
f 555 554 557 
f 549 551 558 
f 553 549 558 
f 555 553 558 
f 552 553 559 
f 548 557 559 
f 557 552 559 
f 554 551 560 
f 551 556 560 
f 556 554 560 
f 553 555 561 
f 555 548 561 
f 559 553 561 
f 548 559 561 
f 551 555 562 
f 558 551 562 
o convex_42
v 0.000443 0.015708 0.022680
v -0.005327 0.015708 0.019795
v -0.005327 0.015708 0.019956
v 0.001885 0.017952 0.020757
v 0.005252 0.015708 0.019795
v -0.004846 0.017792 0.019795
v -0.001960 0.017631 0.022360
v 0.005252 0.017631 0.019956
v 0.002366 0.017631 0.022199
v 0.003488 0.015708 0.021718
v -0.003243 0.015708 0.021879
v -0.003884 0.017631 0.021398
f 565 573 574 
f 565 564 563 
f 563 564 567 
f 567 564 568 
f 564 565 568 
f 566 568 569 
f 567 568 570 
f 568 566 570 
f 566 569 571 
f 569 563 571 
f 570 566 571 
f 570 571 572 
f 563 567 572 
f 567 570 572 
f 571 563 572 
f 565 563 573 
f 563 569 573 
f 573 569 574 
f 568 565 574 
f 569 568 574 
o convex_43
v -0.001961 0.060260 0.015628
v -0.001320 0.021007 0.017711
v -0.001480 0.021007 0.017711
v -0.001320 0.084945 0.017551
v -0.001320 0.018272 0.014666
v -0.001320 0.085432 0.014826
v -0.001961 0.018272 0.016910
v -0.001961 0.084945 0.016429
v -0.001961 0.018272 0.015468
v -0.001641 0.084945 0.017390
v -0.001641 0.085432 0.014987
v -0.001641 0.018272 0.014826
v -0.001641 0.018272 0.017551
f 584 581 587 
f 577 576 578 
f 578 576 579 
f 578 579 580 
f 575 581 582 
f 581 575 583 
f 579 581 583 
f 577 578 584 
f 582 581 584 
f 582 584 585 
f 578 580 585 
f 575 582 585 
f 583 575 585 
f 584 578 585 
f 583 585 586 
f 580 579 586 
f 579 583 586 
f 585 580 586 
f 576 577 587 
f 579 576 587 
f 581 579 587 
f 577 584 587 
o convex_44
v 0.008296 -0.075494 0.017070
v -0.007570 -0.076135 0.014186
v -0.007570 -0.076135 0.014827
v -0.007570 -0.075174 0.016108
v -0.007570 -0.075975 0.017390
v 0.008296 -0.076135 0.014186
v 0.008296 -0.075174 0.015948
v 0.008296 -0.075975 0.017390
v -0.007570 -0.075975 0.014186
v -0.007570 -0.075654 0.017390
f 592 595 597 
f 589 590 591 
f 591 590 592 
f 590 589 593 
f 588 593 594 
f 591 588 594 
f 592 590 595 
f 590 593 595 
f 593 588 595 
f 589 591 596 
f 593 589 596 
f 594 593 596 
f 591 594 596 
f 588 591 597 
f 591 592 597 
f 595 588 597 
o convex_45
v 0.000605 0.017952 0.011301
v 0.006374 0.016029 0.017391
v 0.006374 0.015708 0.017391
v -0.000038 0.018112 0.019795
v -0.000038 0.015708 0.009698
v 0.005892 0.017631 0.013544
v 0.005091 0.015708 0.019795
v 0.005252 0.017792 0.019313
v 0.003808 0.015708 0.010821
v 0.002368 0.017631 0.010180
v 0.002368 0.018272 0.015146
v -0.000038 0.017631 0.009858
v -0.000038 0.017792 0.019795
v 0.006053 0.015708 0.013704
v 0.006374 0.017631 0.016910
v -0.000038 0.018272 0.013704
v 0.004610 0.017631 0.011622
v 0.005252 0.017631 0.019795
f 612 605 615 
f 602 600 604 
f 600 602 606 
f 606 602 607 
f 601 605 608 
f 602 601 609 
f 598 607 609 
f 607 602 609 
f 601 602 610 
f 604 601 610 
f 602 604 610 
f 600 606 611 
f 599 600 612 
f 608 605 612 
f 603 608 612 
f 600 611 612 
f 611 603 612 
f 608 598 613 
f 601 608 613 
f 598 609 613 
f 609 601 613 
f 606 607 614 
f 607 598 614 
f 598 608 614 
f 608 603 614 
f 603 611 614 
f 611 606 614 
f 600 599 615 
f 604 600 615 
f 601 604 615 
f 605 601 615 
f 599 612 615 
o convex_46
v 0.000123 0.084951 0.018032
v -0.001320 0.018272 0.017551
v -0.001320 0.018272 0.017872
v 0.000123 0.018272 0.018032
v -0.001160 0.084951 0.017391
v -0.000679 0.084951 0.018032
v -0.000519 0.018272 0.018192
v 0.000123 0.038480 0.017872
v -0.001160 0.020838 0.017391
v -0.001320 0.084951 0.017712
v 0.000123 0.049856 0.018192
v 0.000123 0.084951 0.017872
f 623 620 627 
f 618 617 619 
f 616 620 621 
f 618 619 622 
f 621 618 622 
f 616 619 623 
f 620 623 624 
f 619 617 624 
f 617 620 624 
f 623 619 624 
f 617 618 625 
f 620 617 625 
f 618 621 625 
f 621 620 625 
f 619 616 626 
f 616 621 626 
f 622 619 626 
f 621 622 626 
f 620 616 627 
f 616 623 627 
o convex_47
v 0.001084 0.082386 0.014506
v 0.000123 0.036872 0.014346
v 0.000283 0.024857 0.014346
v 0.001244 0.018272 0.014987
v 0.001084 0.085272 0.014987
v 0.001565 0.018272 0.014826
v 0.000123 0.085272 0.014506
v 0.000924 0.018272 0.014346
v 0.000604 0.085272 0.014346
v 0.001405 0.085272 0.014987
v 0.000123 0.036872 0.014506
f 632 634 638 
f 630 629 635 
f 631 630 635 
f 628 633 635 
f 633 631 635 
f 629 634 636 
f 634 632 636 
f 635 629 636 
f 628 635 636 
f 632 631 637 
f 633 628 637 
f 631 633 637 
f 628 636 637 
f 636 632 637 
f 629 630 638 
f 630 631 638 
f 631 632 638 
f 634 629 638 
o convex_48
v 0.001725 0.018272 0.014987
v 0.001886 0.085272 0.016269
v 0.001886 0.085272 0.015948
v 0.001245 0.085272 0.015147
v 0.001725 0.018272 0.016269
v 0.002046 0.018272 0.016269
v 0.001405 0.018272 0.015147
v 0.001565 0.085272 0.014987
v 0.001565 0.085272 0.016109
v 0.001245 0.042164 0.015147
v 0.001886 0.056087 0.015468
v 0.001245 0.042164 0.014987
f 648 642 650 
f 640 641 642 
f 640 643 644 
f 641 640 644 
f 643 639 644 
f 639 643 645 
f 642 641 646 
f 640 642 647 
f 643 640 647 
f 643 647 648 
f 645 643 648 
f 647 642 648 
f 644 639 649 
f 641 644 649 
f 639 646 649 
f 646 641 649 
f 639 645 650 
f 646 639 650 
f 642 646 650 
f 645 648 650 
o convex_49
v -0.007572 -0.073570 0.003607
v -0.013340 -0.063154 0.006811
v -0.013340 -0.063154 0.006972
v -0.007572 -0.062191 0.002325
v -0.009495 -0.067001 0.003126
v -0.010937 -0.073731 0.006972
v -0.012379 -0.071004 0.006811
v -0.013020 -0.062191 0.006972
v -0.009655 -0.062191 0.002966
v -0.008854 -0.073731 0.004248
v -0.007732 -0.066679 0.002165
v -0.007572 -0.073089 0.003927
v -0.013020 -0.067161 0.006651
v -0.009335 -0.070524 0.003607
f 663 655 664 
f 656 653 657 
f 652 653 658 
f 653 656 658 
f 656 654 658 
f 652 658 659 
f 658 654 659 
f 651 656 660 
f 656 657 660 
f 654 651 661 
f 659 654 661 
f 655 659 661 
f 651 654 662 
f 654 656 662 
f 656 651 662 
f 653 652 663 
f 657 653 663 
f 659 655 663 
f 652 659 663 
f 651 660 664 
f 660 657 664 
f 661 651 664 
f 655 661 664 
f 657 663 664 
o convex_50
v -0.012861 -0.073731 0.009056
v -0.015425 -0.063794 0.010979
v -0.015425 -0.063794 0.011140
v -0.013181 -0.062191 0.006972
v -0.013341 -0.073570 0.010979
v -0.013181 -0.067161 0.006972
v -0.011097 -0.073570 0.007133
v -0.015104 -0.062191 0.011140
v -0.014784 -0.070043 0.010979
v -0.012540 -0.071004 0.006972
v -0.013181 -0.062191 0.007293
f 668 672 675 
f 666 668 670 
f 669 665 671 
f 669 671 672 
f 666 667 672 
f 668 666 672 
f 667 669 672 
f 667 666 673 
f 665 669 673 
f 669 667 673 
f 666 670 673 
f 673 670 674 
f 670 668 674 
f 668 671 674 
f 671 665 674 
f 665 673 674 
f 671 668 675 
f 672 671 675 
o convex_51
v -0.008694 -0.082066 0.023161
v -0.013982 -0.075174 0.019155
v -0.013661 -0.076137 0.019155
v -0.007572 -0.085592 0.019155
v -0.007572 -0.080943 0.024282
v -0.011738 -0.075496 0.024443
v -0.011577 -0.081264 0.019315
v -0.013661 -0.075013 0.019155
v -0.007732 -0.084630 0.021878
v -0.011577 -0.075013 0.024122
v -0.012539 -0.077900 0.021238
v -0.010617 -0.078219 0.024282
v -0.011097 -0.081102 0.020757
v -0.009335 -0.084309 0.019155
v -0.007732 -0.081583 0.024443
v -0.013661 -0.075174 0.020918
f 686 681 691 
f 678 677 679 
f 679 677 683 
f 680 679 683 
f 679 680 684 
f 681 680 685 
f 680 683 685 
f 678 682 686 
f 681 686 687 
f 684 676 688 
f 686 682 688 
f 687 686 688 
f 676 687 688 
f 678 679 689 
f 682 678 689 
f 679 684 689 
f 684 688 689 
f 688 682 689 
f 680 681 690 
f 676 684 690 
f 684 680 690 
f 687 676 690 
f 681 687 690 
f 677 678 691 
f 683 677 691 
f 681 685 691 
f 685 683 691 
f 678 686 691 
o convex_52
v -0.014303 -0.074210 0.013384
v -0.016066 -0.062192 0.016268
v -0.015905 -0.062513 0.015948
v -0.015425 -0.065397 0.011140
v -0.013181 -0.074691 0.011301
v -0.013983 -0.074851 0.016108
v -0.015585 -0.070685 0.016268
v -0.015264 -0.062192 0.011140
v -0.014784 -0.070844 0.011301
v -0.016066 -0.066519 0.015467
v -0.016226 -0.062192 0.015627
v -0.013502 -0.075012 0.011140
v -0.014464 -0.074851 0.016268
f 692 703 704 
f 696 694 697 
f 694 693 697 
f 693 694 699 
f 694 696 699 
f 692 698 700 
f 700 698 701 
f 698 693 701 
f 695 700 701 
f 695 701 702 
f 693 699 702 
f 699 695 702 
f 701 693 702 
f 696 697 703 
f 695 699 703 
f 699 696 703 
f 692 700 703 
f 700 695 703 
f 697 693 704 
f 698 692 704 
f 693 698 704 
f 703 697 704 
o convex_53
v 0.007816 -0.084632 0.021719
v 0.000764 -0.089437 0.019155
v 0.000764 -0.089437 0.019315
v 0.008136 -0.080304 0.024282
v 0.001245 -0.085911 0.024443
v 0.008136 -0.084950 0.019155
v 0.004290 -0.087034 0.022359
v 0.004771 -0.088316 0.019315
v 0.005892 -0.083991 0.024282
v 0.000924 -0.085431 0.024282
v 0.000764 -0.089117 0.019155
v 0.001887 -0.088636 0.021078
v 0.008297 -0.080945 0.024443
v 0.008297 -0.085431 0.019155
v 0.006052 -0.087034 0.020597
v 0.000764 -0.087194 0.023321
f 716 711 720 
f 707 706 712 
f 711 705 713 
f 709 711 713 
f 709 708 714 
f 706 707 715 
f 710 706 715 
f 708 710 715 
f 714 708 715 
f 707 712 716 
f 712 711 716 
f 708 709 717 
f 713 705 717 
f 709 713 717 
f 706 710 718 
f 710 708 718 
f 712 706 718 
f 708 717 718 
f 717 705 718 
f 705 711 719 
f 711 712 719 
f 712 718 719 
f 718 705 719 
f 711 709 720 
f 709 714 720 
f 715 707 720 
f 714 715 720 
f 707 716 720 
o convex_54
v -0.014143 -0.058824 0.008574
v -0.013661 -0.053055 0.011139
v -0.013500 -0.053055 0.010978
v -0.015104 -0.062190 0.011139
v -0.009334 -0.062190 0.003127
v -0.009495 -0.053216 0.004569
v -0.013021 -0.057383 0.006653
v -0.013180 -0.062190 0.006492
v -0.009495 -0.057383 0.003127
v -0.015265 -0.057543 0.010978
v -0.012220 -0.053216 0.007293
v -0.009334 -0.053376 0.005050
v -0.015425 -0.062190 0.010978
v -0.009655 -0.061549 0.002966
v -0.014143 -0.053536 0.010818
f 731 727 735 
f 723 722 724 
f 723 724 725 
f 722 723 726 
f 725 724 728 
f 721 727 728 
f 724 722 730 
f 727 721 730 
f 722 726 731 
f 729 727 731 
f 726 729 731 
f 723 725 732 
f 726 723 732 
f 725 729 732 
f 729 726 732 
f 721 728 733 
f 728 724 733 
f 724 730 733 
f 730 721 733 
f 725 728 734 
f 728 727 734 
f 727 729 734 
f 729 725 734 
f 730 722 735 
f 727 730 735 
f 722 731 735 
o convex_55
v -0.003404 -0.053055 0.001683
v -0.009334 -0.062190 0.002804
v -0.005167 -0.062190 0.000721
v -0.002282 -0.061869 0.000561
v -0.009173 -0.053376 0.004889
v -0.009334 -0.057702 0.002965
v -0.002121 -0.053376 0.001843
v -0.005167 -0.057543 0.000882
v -0.008692 -0.053376 0.003767
v -0.002121 -0.057543 0.000401
v -0.009173 -0.062190 0.003125
v -0.004686 -0.053696 0.001683
v -0.002603 -0.062190 0.000240
f 739 746 748 
f 737 740 741 
f 736 740 742 
f 740 739 742 
f 738 737 743 
f 737 741 743 
f 743 741 744 
f 740 736 744 
f 741 740 744 
f 736 742 745 
f 742 739 745 
f 737 738 746 
f 739 740 746 
f 740 737 746 
f 743 744 747 
f 744 736 747 
f 736 745 747 
f 745 743 747 
f 738 743 748 
f 745 739 748 
f 743 745 748 
f 746 738 748 
o convex_56
v -0.006931 -0.050649 0.004087
v -0.006770 -0.040392 0.011140
v -0.006770 -0.040392 0.010979
v -0.013982 -0.052892 0.011140
v -0.010776 -0.049687 0.007774
v -0.006770 -0.052892 0.003606
v -0.012059 -0.052892 0.007293
v -0.013501 -0.052892 0.011140
v -0.007091 -0.041676 0.011140
v -0.007892 -0.049366 0.005211
v -0.012379 -0.049366 0.010979
v -0.009174 -0.053053 0.004408
v -0.006931 -0.040554 0.010819
f 753 759 761 
f 749 751 754 
f 751 750 754 
f 750 752 756 
f 756 754 757 
f 754 750 757 
f 750 756 757 
f 752 750 759 
f 753 755 759 
f 755 752 759 
f 749 754 760 
f 755 753 760 
f 752 755 760 
f 756 752 760 
f 754 756 760 
f 758 749 760 
f 753 758 760 
f 751 749 761 
f 750 751 761 
f 749 758 761 
f 758 753 761 
f 759 750 761 
o convex_57
v 0.003648 -0.053696 0.001523
v -0.002121 -0.062191 0.000240
v -0.001640 -0.062191 0.000080
v 0.004290 -0.062191 0.000721
v -0.002121 -0.052414 0.002164
v 0.000284 -0.057541 0.000080
v 0.004290 -0.052575 0.002484
v -0.002121 -0.053376 0.001362
v 0.004290 -0.057541 0.000721
v 0.000284 -0.052254 0.001523
v 0.000604 -0.062191 -0.000080
v -0.002121 -0.062191 0.000401
v -0.002121 -0.057381 0.000401
f 769 767 774 
f 763 764 765 
f 763 766 769 
f 767 762 770 
f 762 768 770 
f 768 765 770 
f 762 767 771 
f 768 762 771 
f 766 768 771 
f 769 766 771 
f 767 769 771 
f 765 764 772 
f 764 767 772 
f 770 765 772 
f 767 770 772 
f 763 765 773 
f 766 763 773 
f 765 768 773 
f 768 766 773 
f 764 763 774 
f 767 764 774 
f 763 769 774 
o convex_58
v 0.008297 -0.053857 0.003446
v 0.004290 -0.062191 0.000561
v 0.004290 -0.062191 0.000721
v 0.004290 -0.052254 0.002484
v 0.005092 -0.057381 0.000882
v 0.008297 -0.062029 0.002644
v 0.007976 -0.052414 0.004408
v 0.008297 -0.060105 0.002324
v 0.004450 -0.052735 0.002004
v 0.005252 -0.062191 0.000721
f 782 780 784 
f 776 777 778 
f 780 775 781 
f 778 777 781 
f 777 780 781 
f 779 775 782 
f 775 780 782 
f 776 778 783 
f 775 779 783 
f 779 776 783 
f 781 775 783 
f 778 781 783 
f 777 776 784 
f 776 779 784 
f 780 777 784 
f 779 782 784 
o convex_59
v -0.001800 -0.052090 0.001844
v 0.002847 -0.036867 0.010177
v 0.002526 -0.036867 0.010177
v 0.000284 -0.037349 0.008735
v -0.002121 -0.037509 0.009856
v 0.002847 -0.052251 0.002326
v 0.002847 -0.049366 0.003126
v -0.002121 -0.052090 0.002326
v -0.002121 -0.037349 0.009055
v -0.000037 -0.049526 0.002646
v 0.002366 -0.037349 0.009055
v 0.002526 -0.037188 0.010177
v 0.000924 -0.052090 0.001684
v -0.002121 -0.049846 0.002806
f 793 794 798 
f 787 786 788 
f 786 790 791 
f 785 790 792 
f 787 788 793 
f 789 787 793 
f 792 789 793 
f 788 791 794 
f 793 788 794 
f 788 786 795 
f 786 791 795 
f 791 788 795 
f 786 787 796 
f 787 789 796 
f 790 786 796 
f 789 792 796 
f 792 790 796 
f 790 785 797 
f 791 790 797 
f 785 794 797 
f 794 791 797 
f 785 792 798 
f 792 793 798 
f 794 785 798 
o convex_60
v 0.014388 -0.051612 0.016108
v 0.014067 -0.060588 0.008736
v 0.014067 -0.058824 0.008736
v 0.014067 -0.056900 0.023160
v 0.014709 -0.060588 0.022680
v 0.014709 -0.058664 0.009699
v 0.014709 -0.053375 0.018993
v 0.014067 -0.052895 0.011622
v 0.014228 -0.060588 0.023160
v 0.014709 -0.054497 0.011622
v 0.014067 -0.053055 0.020916
v 0.014709 -0.060588 0.009699
v 0.014709 -0.055939 0.021718
f 809 802 811 
f 801 800 802 
f 800 801 804 
f 803 804 805 
f 801 802 806 
f 802 800 807 
f 803 802 807 
f 800 803 807 
f 804 801 808 
f 799 805 808 
f 805 804 808 
f 801 806 808 
f 806 799 808 
f 805 799 809 
f 806 802 809 
f 799 806 809 
f 803 800 810 
f 800 804 810 
f 804 803 810 
f 802 803 811 
f 803 805 811 
f 805 809 811 
o convex_61
v 0.003329 -0.089438 0.015949
v 0.008297 -0.085111 0.019154
v 0.008297 -0.085111 0.018833
v 0.000123 -0.089278 0.019154
v 0.008135 -0.085593 0.015308
v 0.005091 -0.088156 0.019154
v 0.000123 -0.089919 0.015308
v 0.007335 -0.087035 0.015308
v 0.001084 -0.089919 0.017871
v 0.007174 -0.087035 0.018192
v 0.005091 -0.088637 0.017231
f 821 817 822 
f 813 814 815 
f 814 813 816 
f 815 814 816 
f 813 815 817 
f 815 816 818 
f 818 816 819 
f 816 813 819 
f 812 818 819 
f 817 815 820 
f 818 812 820 
f 815 818 820 
f 813 817 821 
f 819 813 821 
f 819 821 822 
f 812 819 822 
f 817 820 822 
f 820 812 822 
o convex_62
v 0.002367 0.007534 0.023321
v 0.009259 0.013304 0.017873
v 0.009259 0.013304 0.016911
v 0.007013 0.004648 0.017232
v -0.000038 0.006572 0.023161
v 0.006212 0.013304 0.023321
v 0.005732 0.004648 0.020435
v 0.007174 0.007854 0.016269
v -0.000038 0.004648 0.022999
v 0.003330 0.004809 0.022519
v 0.008296 0.012982 0.020596
v 0.006853 0.004648 0.016269
v 0.005572 0.013143 0.023160
v 0.008938 0.013143 0.016911
v 0.006532 0.004648 0.018995
v 0.001406 0.004648 0.023161
f 829 832 838 
f 825 824 826 
f 824 825 828 
f 827 823 828 
f 826 829 831 
f 829 828 832 
f 824 828 833 
f 828 829 833 
f 825 826 834 
f 830 825 834 
f 827 830 834 
f 831 827 834 
f 826 831 834 
f 828 825 835 
f 827 828 835 
f 825 830 836 
f 830 827 836 
f 835 825 836 
f 827 835 836 
f 826 824 837 
f 829 826 837 
f 824 833 837 
f 833 829 837 
f 823 827 838 
f 828 823 838 
f 827 831 838 
f 831 829 838 
f 832 828 838 
o convex_63
v 0.008297 -0.043436 0.022040
v 0.002046 -0.040874 0.024283
v 0.002046 -0.040874 0.024443
v 0.005093 -0.037026 0.020918
v 0.007976 -0.042795 0.020757
v 0.008297 -0.046321 0.024443
v 0.002527 -0.037348 0.023161
v 0.002206 -0.037348 0.022360
v 0.008137 -0.046963 0.024283
v 0.005892 -0.037508 0.020918
v 0.004612 -0.037508 0.022200
v 0.005411 -0.042795 0.024443
v 0.004612 -0.037187 0.020757
f 842 848 851 
f 840 841 846 
f 843 840 846 
f 841 845 846 
f 845 842 846 
f 841 840 847 
f 843 839 847 
f 840 843 847 
f 844 841 847 
f 839 844 847 
f 839 843 848 
f 844 839 848 
f 842 845 849 
f 848 842 849 
f 844 848 849 
f 841 844 850 
f 845 841 850 
f 849 845 850 
f 844 849 850 
f 846 842 851 
f 843 846 851 
f 848 843 851 
o convex_64
v -0.004524 0.014906 0.023000
v -0.009334 0.013464 0.016269
v -0.009334 0.013464 0.017712
v 0.001565 0.015067 0.023321
v -0.006609 0.015708 0.016269
v -0.005646 0.013464 0.023321
v 0.001565 0.015708 0.022198
v -0.005486 0.015708 0.020115
v -0.007730 0.014586 0.020115
v -0.001641 0.015708 0.022679
v -0.009013 0.013464 0.016269
v -0.007730 0.013624 0.021718
v -0.006447 0.015387 0.016269
v -0.008372 0.014746 0.017071
f 860 859 865 
f 854 853 857 
f 855 852 857 
f 858 856 859 
f 852 859 860 
f 852 855 861 
f 855 858 861 
f 858 859 861 
f 859 852 861 
f 853 856 862 
f 857 853 862 
f 855 857 862 
f 858 855 862 
f 857 852 863 
f 854 857 863 
f 860 854 863 
f 852 860 863 
f 856 858 864 
f 862 856 864 
f 858 862 864 
f 853 854 865 
f 856 853 865 
f 859 856 865 
f 854 860 865 
o convex_65
v 0.013426 -0.071168 0.008734
v 0.008297 -0.078059 0.006011
v 0.008458 -0.078059 0.006011
v 0.008297 -0.070526 0.003286
v 0.012464 -0.077257 0.011621
v 0.011823 -0.074371 0.007453
v 0.013266 -0.070687 0.009216
v 0.009259 -0.070847 0.003606
v 0.012143 -0.078059 0.010498
v 0.008297 -0.070687 0.003606
v 0.012624 -0.070526 0.006974
v 0.013266 -0.075013 0.011621
v 0.008297 -0.077737 0.006331
v 0.008618 -0.074692 0.004408
v 0.013426 -0.075654 0.011299
v 0.010862 -0.077897 0.008254
f 879 871 881 
f 867 868 874 
f 869 867 875 
f 872 869 875 
f 866 871 876 
f 872 866 876 
f 869 872 876 
f 873 869 876 
f 871 873 876 
f 875 870 877 
f 872 875 877 
f 867 874 878 
f 874 870 878 
f 875 867 878 
f 870 875 878 
f 868 867 879 
f 867 869 879 
f 869 873 879 
f 873 871 879 
f 871 866 880 
f 866 872 880 
f 870 874 880 
f 874 871 880 
f 872 877 880 
f 877 870 880 
f 874 868 881 
f 871 874 881 
f 868 879 881 
o convex_66
v 0.013426 -0.069882 0.008577
v 0.014067 -0.074850 0.016108
v 0.013907 -0.074850 0.016108
v 0.014548 -0.060591 0.010179
v 0.014709 -0.071004 0.011140
v 0.013426 -0.062351 0.007293
v 0.013426 -0.075171 0.016108
v 0.013587 -0.075491 0.011622
v 0.014709 -0.074048 0.015788
v 0.014709 -0.063796 0.009538
v 0.013587 -0.066681 0.007615
v 0.014067 -0.060591 0.009217
v 0.014709 -0.060591 0.009538
v 0.014709 -0.073087 0.015788
v 0.013426 -0.076133 0.014024
f 889 890 896 
f 883 884 888 
f 887 882 888 
f 882 886 889 
f 889 886 890 
f 890 886 891 
f 886 882 892 
f 882 887 892 
f 891 886 892 
f 887 891 892 
f 888 885 893 
f 887 888 893 
f 891 887 894 
f 890 891 894 
f 893 885 894 
f 887 893 894 
f 884 883 895 
f 888 884 895 
f 885 888 895 
f 883 890 895 
f 894 885 895 
f 890 894 895 
f 883 888 896 
f 888 882 896 
f 882 889 896 
f 890 883 896 
o convex_67
v 0.014067 -0.056259 0.009217
v 0.013587 -0.049849 0.016108
v 0.013426 -0.049849 0.016108
v 0.013907 -0.062351 0.008737
v 0.013426 -0.057540 0.007615
v 0.014067 -0.051612 0.016108
v 0.013587 -0.051132 0.011940
v 0.013426 -0.062351 0.007775
v 0.014067 -0.062351 0.008256
v 0.014067 -0.052414 0.011780
f 897 903 906 
f 898 899 902 
f 899 900 902 
f 899 898 903 
f 897 901 903 
f 901 899 903 
f 900 899 904 
f 899 901 904 
f 904 901 905 
f 901 897 905 
f 897 902 905 
f 902 900 905 
f 900 904 905 
f 898 902 906 
f 902 897 906 
f 903 898 906 
o convex_68
v 0.013426 -0.074529 0.021557
v 0.013587 -0.062193 0.025084
v 0.014228 -0.061231 0.023802
v 0.013426 -0.075171 0.016109
v 0.014709 -0.071165 0.021076
v 0.014709 -0.074051 0.015788
v 0.014228 -0.057225 0.023160
v 0.014709 -0.060589 0.022679
v 0.013426 -0.062193 0.024602
v 0.013587 -0.066681 0.024763
v 0.013587 -0.076453 0.018674
v 0.014067 -0.057225 0.023160
v 0.014709 -0.073245 0.015788
v 0.014709 -0.066683 0.022517
v 0.013907 -0.074851 0.020596
f 917 912 921 
f 908 909 913 
f 911 912 914 
f 913 909 914 
f 910 907 915 
f 907 911 916 
f 908 915 916 
f 915 907 916 
f 907 910 917 
f 910 912 917 
f 908 913 918 
f 915 908 918 
f 910 915 918 
f 912 910 919 
f 914 912 919 
f 913 914 919 
f 910 918 919 
f 918 913 919 
f 909 908 920 
f 914 909 920 
f 911 914 920 
f 908 916 920 
f 916 911 920 
f 911 907 921 
f 912 911 921 
f 907 917 921 
o convex_69
v 0.013426 -0.050972 0.019796
v 0.013587 -0.061548 0.025085
v 0.013747 -0.061389 0.024764
v 0.013426 -0.050331 0.016109
v 0.014067 -0.052736 0.021077
v 0.014067 -0.051452 0.016109
v 0.014067 -0.062191 0.023642
v 0.013426 -0.057541 0.024764
v 0.013426 -0.062191 0.024603
v 0.014067 -0.057541 0.023802
f 926 929 931 
f 925 922 927 
f 922 926 927 
f 924 923 928 
f 927 926 928 
f 925 927 928 
f 922 925 929 
f 926 922 929 
f 928 923 930 
f 925 928 930 
f 923 929 930 
f 929 925 930 
f 923 924 931 
f 924 928 931 
f 928 926 931 
f 929 923 931 
o convex_70
v -0.007572 -0.076136 0.018513
v -0.012219 -0.075495 0.016109
v -0.012219 -0.078058 0.018993
v -0.007572 -0.078058 0.018993
v -0.007572 -0.075495 0.016109
v -0.012219 -0.076136 0.018513
v -0.007572 -0.075174 0.016269
f 937 932 938 
f 934 933 935 
f 932 934 935 
f 932 935 936 
f 935 933 936 
f 934 932 937 
f 933 934 937 
f 933 937 938 
f 932 936 938 
f 936 933 938 
o convex_71
v -0.002923 0.004648 0.009858
v -0.005808 -0.036382 0.012101
v -0.005487 -0.036382 0.011620
v -0.002923 -0.036866 0.010339
v -0.005487 0.004648 0.012262
v -0.004365 0.004648 0.010499
v -0.003244 -0.036382 0.009858
v -0.005327 -0.036866 0.012262
v -0.005808 0.004648 0.011941
v -0.003083 0.004648 0.010178
v -0.004686 -0.036382 0.010820
v -0.003244 0.004648 0.009858
f 945 944 950 
f 943 939 944 
f 939 942 945 
f 940 941 946 
f 942 943 946 
f 943 940 946 
f 941 940 947 
f 940 943 947 
f 943 944 947 
f 944 941 947 
f 942 939 948 
f 939 943 948 
f 943 942 948 
f 941 944 949 
f 944 945 949 
f 945 942 949 
f 946 941 949 
f 942 946 949 
f 944 939 950 
f 939 945 950 
o convex_72
v 0.000443 0.004648 0.009216
v -0.002923 -0.036866 0.010018
v -0.002923 -0.036866 0.010178
v -0.002923 0.004648 0.009697
v -0.001320 -0.036382 0.009216
v 0.000443 -0.036866 0.009537
v -0.002762 0.004648 0.010018
v -0.001480 0.004648 0.009216
v -0.002923 -0.036382 0.009697
v 0.000443 -0.036540 0.009216
v 0.000443 0.004648 0.009377
v -0.002602 -0.036382 0.010178
f 956 961 962 
f 952 953 954 
f 952 955 956 
f 953 952 956 
f 954 953 957 
f 951 954 957 
f 954 951 958 
f 951 955 958 
f 958 955 959 
f 952 954 959 
f 955 952 959 
f 954 958 959 
f 955 951 960 
f 956 955 960 
f 951 956 960 
f 956 951 961 
f 951 957 961 
f 961 957 962 
f 953 956 962 
f 957 953 962 
o convex_73
v -0.006449 -0.036866 0.013704
v -0.006770 0.004648 0.015146
v -0.006609 0.004648 0.014826
v -0.005968 0.004648 0.012262
v -0.005487 -0.036866 0.012583
v -0.006449 -0.036866 0.014986
v -0.006930 -0.036382 0.014666
v -0.006770 0.004648 0.013864
v -0.006129 -0.036382 0.012583
v -0.005648 0.004648 0.012422
v -0.005487 -0.036866 0.012262
v -0.006930 0.004648 0.015146
v -0.006930 -0.036540 0.015146
v -0.006609 -0.036382 0.013544
f 971 963 976 
f 964 965 966 
f 967 965 968 
f 965 964 968 
f 963 967 968 
f 964 966 970 
f 970 966 971 
f 966 965 972 
f 965 967 972 
f 972 967 973 
f 967 963 973 
f 963 971 973 
f 971 966 973 
f 966 972 973 
f 964 970 974 
f 970 969 974 
f 968 964 975 
f 963 968 975 
f 969 963 975 
f 964 974 975 
f 974 969 975 
f 963 969 976 
f 969 970 976 
f 970 971 976 
o convex_74
v 0.005892 -0.083188 0.016910
v -0.007570 -0.082547 0.014186
v -0.007570 -0.082387 0.014186
v 0.008296 -0.082547 0.014186
v 0.008296 -0.082707 0.017390
v -0.007570 -0.083348 0.016429
v -0.007570 -0.082707 0.017390
v 0.008296 -0.083348 0.015788
v 0.008296 -0.082387 0.014506
v -0.007570 -0.083027 0.014987
f 984 982 986 
f 978 979 980 
f 979 978 982 
f 982 977 983 
f 977 981 983 
f 979 982 983 
f 981 977 984 
f 980 981 984 
f 977 982 984 
f 980 979 985 
f 981 980 985 
f 983 981 985 
f 979 983 985 
f 978 980 986 
f 982 978 986 
f 980 984 986 
o convex_75
v 0.003328 0.004648 0.009857
v 0.000443 -0.036866 0.009377
v 0.000443 -0.036866 0.009537
v 0.003328 -0.036866 0.010178
v 0.002046 -0.036223 0.009377
v 0.000443 0.004648 0.009377
v 0.003007 0.004648 0.010178
v 0.001405 0.004648 0.009216
v 0.003007 -0.036382 0.010338
v 0.000443 -0.036540 0.009216
v 0.003168 -0.036382 0.009857
f 990 991 997 
f 989 988 990 
f 990 988 991 
f 988 989 992 
f 987 992 993 
f 990 987 993 
f 987 991 994 
f 992 987 994 
f 989 990 995 
f 992 989 995 
f 993 992 995 
f 990 993 995 
f 991 988 996 
f 988 992 996 
f 994 991 996 
f 992 994 996 
f 987 990 997 
f 991 987 997 
o convex_76
v 0.005412 -0.036382 0.011621
v 0.003328 -0.036866 0.010178
v 0.003328 -0.036866 0.010499
v 0.003328 0.004648 0.010018
v 0.005412 0.004648 0.012102
v 0.004130 0.004648 0.010339
v 0.005091 -0.036866 0.012102
v 0.003328 0.004648 0.010339
v 0.005733 0.004648 0.011941
v 0.003809 -0.036223 0.010178
v 0.005733 -0.036223 0.012102
v 0.004290 -0.036223 0.010499
f 1007 1003 1009 
f 999 1000 1001 
f 1001 1002 1003 
f 999 998 1004 
f 1000 999 1004 
f 1004 1002 1005 
f 1001 1000 1005 
f 1002 1001 1005 
f 1000 1004 1005 
f 1003 1002 1006 
f 999 1001 1007 
f 1001 1003 1007 
f 1004 998 1008 
f 1002 1004 1008 
f 998 1006 1008 
f 1006 1002 1008 
f 998 999 1009 
f 1006 998 1009 
f 1003 1006 1009 
f 999 1007 1009 
o convex_77
v 0.005573 -0.036866 0.012102
v 0.006855 0.004648 0.014987
v 0.006855 0.004648 0.014345
v 0.005573 0.004648 0.012423
v 0.006374 -0.036866 0.014826
v 0.006534 -0.036223 0.013384
v 0.006053 0.004648 0.012423
v 0.005252 -0.036866 0.012262
v 0.006855 -0.036382 0.014987
v 0.006534 0.004486 0.014666
v 0.005573 0.004648 0.012102
v 0.005893 -0.036382 0.012262
f 1020 1016 1021 
f 1011 1012 1013 
f 1014 1010 1015 
f 1013 1012 1016 
f 1012 1015 1016 
f 1010 1014 1017 
f 1012 1011 1018 
f 1011 1014 1018 
f 1014 1015 1018 
f 1015 1012 1018 
f 1011 1013 1019 
f 1014 1011 1019 
f 1013 1017 1019 
f 1017 1014 1019 
f 1013 1016 1020 
f 1010 1017 1020 
f 1017 1013 1020 
f 1015 1010 1021 
f 1016 1015 1021 
f 1010 1020 1021 
o convex_78
v 0.006694 -0.036866 0.014987
v 0.006855 0.004648 0.017711
v 0.006694 0.004648 0.017711
v 0.006694 0.004648 0.014987
v 0.006374 -0.036699 0.017711
v 0.007015 -0.036223 0.017070
v 0.007015 0.004648 0.015147
v 0.007015 -0.036223 0.015308
v 0.006534 -0.036223 0.014987
v 0.007015 0.004648 0.017230
v 0.006855 -0.036382 0.017711
f 1027 1031 1032 
f 1024 1023 1025 
f 1023 1024 1026 
f 1024 1025 1026 
f 1025 1023 1028 
f 1022 1025 1028 
f 1028 1027 1029 
f 1027 1022 1029 
f 1022 1028 1029 
f 1025 1022 1030 
f 1022 1026 1030 
f 1026 1025 1030 
f 1028 1023 1031 
f 1027 1028 1031 
f 1026 1022 1032 
f 1023 1026 1032 
f 1022 1027 1032 
f 1031 1023 1032 
o convex_79
v -0.006609 -0.036866 0.017712
v -0.005488 0.004648 0.020276
v -0.005808 0.004648 0.020276
v -0.005327 -0.036866 0.020276
v -0.006128 -0.036382 0.019795
v -0.006770 0.004648 0.018513
v -0.006609 0.004648 0.017712
v -0.005327 -0.036382 0.019955
v -0.006770 -0.036382 0.018353
v -0.006449 -0.036866 0.017712
v -0.006770 0.004648 0.017712
v -0.005808 -0.036382 0.020276
v -0.005488 0.004648 0.020115
f 1040 1039 1045 
f 1034 1035 1036 
f 1033 1036 1037 
f 1037 1035 1038 
f 1035 1034 1038 
f 1038 1034 1039 
f 1034 1036 1040 
f 1033 1037 1041 
f 1037 1038 1041 
f 1036 1033 1042 
f 1033 1039 1042 
f 1040 1036 1042 
f 1039 1040 1042 
f 1039 1033 1043 
f 1038 1039 1043 
f 1033 1041 1043 
f 1041 1038 1043 
f 1036 1035 1044 
f 1037 1036 1044 
f 1035 1037 1044 
f 1039 1034 1045 
f 1034 1040 1045 
o convex_80
v -0.004045 -0.036382 0.021879
v -0.005648 -0.036382 0.020276
v -0.005487 -0.036866 0.020276
v -0.004045 0.004648 0.021558
v -0.005648 0.004648 0.020597
v -0.005327 0.004648 0.020276
v -0.004045 -0.036866 0.021398
v -0.004526 0.004648 0.021718
v -0.004846 -0.036382 0.021398
v -0.005167 -0.036382 0.020276
f 1049 1052 1055 
f 1048 1047 1051 
f 1050 1049 1051 
f 1047 1050 1051 
f 1049 1046 1052 
f 1046 1049 1053 
f 1049 1050 1053 
f 1053 1050 1054 
f 1047 1048 1054 
f 1050 1047 1054 
f 1052 1046 1054 
f 1048 1052 1054 
f 1046 1053 1054 
f 1048 1051 1055 
f 1051 1049 1055 
f 1052 1048 1055 
o convex_81
v 0.002046 0.004648 0.023001
v -0.000198 -0.036866 0.022841
v 0.001565 -0.036866 0.022520
v 0.001244 -0.036223 0.023161
v -0.000198 0.004648 0.023001
v 0.001725 0.004648 0.022680
v -0.000198 0.004648 0.023161
v 0.002046 -0.036866 0.022680
v -0.000198 -0.036382 0.023161
v 0.001244 0.004648 0.023161
v 0.001885 -0.036223 0.023001
f 1063 1056 1066 
f 1058 1057 1060 
f 1060 1056 1061 
f 1058 1060 1061 
f 1056 1060 1062 
f 1060 1057 1062 
f 1057 1058 1063 
f 1061 1056 1063 
f 1058 1061 1063 
f 1062 1057 1064 
f 1059 1062 1064 
f 1057 1063 1064 
f 1063 1059 1064 
f 1059 1056 1065 
f 1062 1059 1065 
f 1056 1062 1065 
f 1056 1059 1066 
f 1059 1063 1066 
o convex_82
v 0.003809 0.004648 0.022199
v 0.002046 -0.036866 0.022520
v 0.002207 -0.036866 0.022360
v 0.004771 -0.036382 0.021398
v 0.005411 0.004323 0.020116
v 0.002046 0.004648 0.022680
v 0.005252 -0.036699 0.020116
v 0.002848 -0.036223 0.022680
v 0.005733 0.004648 0.020437
v 0.005733 -0.036382 0.020276
v 0.002527 0.004648 0.022841
v 0.002046 -0.036382 0.022841
v 0.004290 -0.036223 0.021879
v 0.004290 0.004648 0.021879
v 0.005733 0.004648 0.020116
f 1075 1076 1081 
f 1071 1069 1072 
f 1069 1068 1072 
f 1068 1069 1073 
f 1070 1068 1073 
f 1069 1071 1073 
f 1072 1067 1075 
f 1070 1073 1076 
f 1075 1070 1076 
f 1067 1072 1077 
f 1074 1067 1077 
f 1074 1077 1078 
f 1072 1068 1078 
f 1068 1074 1078 
f 1077 1072 1078 
f 1068 1070 1079 
f 1074 1068 1079 
f 1067 1074 1079 
f 1070 1075 1079 
f 1079 1075 1080 
f 1075 1067 1080 
f 1067 1079 1080 
f 1071 1072 1081 
f 1073 1071 1081 
f 1072 1075 1081 
f 1076 1073 1081 
o convex_83
v 0.006694 -0.036705 0.017712
v 0.005893 0.004648 0.020116
v 0.005572 0.004648 0.020116
v 0.006534 0.004648 0.017712
v 0.005412 -0.036705 0.019795
v 0.006374 -0.036224 0.019314
v 0.006855 0.004648 0.018032
v 0.006374 -0.036705 0.017712
v 0.005893 -0.036224 0.020116
v 0.006855 -0.036224 0.017872
v 0.006534 0.004648 0.018994
v 0.005412 -0.036705 0.020116
f 1087 1090 1093 
f 1084 1083 1085 
f 1084 1085 1086 
f 1085 1083 1088 
f 1085 1082 1089 
f 1082 1086 1089 
f 1086 1085 1089 
f 1083 1084 1090 
f 1087 1083 1090 
f 1082 1085 1091 
f 1087 1082 1091 
f 1085 1088 1091 
f 1088 1087 1091 
f 1083 1087 1092 
f 1088 1083 1092 
f 1087 1088 1092 
f 1086 1082 1093 
f 1084 1086 1093 
f 1082 1087 1093 
f 1090 1084 1093 
o convex_84
v 0.003971 -0.089118 0.015146
v 0.000123 -0.087355 0.009377
v 0.000123 -0.087835 0.009858
v 0.007976 -0.084631 0.010659
v 0.008135 -0.085433 0.015146
v 0.000284 -0.089759 0.015307
v 0.003168 -0.088637 0.011942
v 0.007174 -0.086875 0.013543
v 0.006213 -0.084471 0.009377
v 0.004609 -0.086715 0.009858
v 0.000284 -0.087035 0.009538
v 0.000764 -0.089919 0.014345
v 0.008297 -0.085913 0.015307
v 0.006053 -0.087035 0.011782
f 1103 1097 1107 
f 1095 1096 1099 
f 1098 1097 1102 
f 1096 1095 1103 
f 1100 1096 1103 
f 1102 1097 1103 
f 1095 1102 1103 
f 1095 1099 1104 
f 1099 1098 1104 
f 1098 1102 1104 
f 1102 1095 1104 
f 1094 1099 1105 
f 1099 1096 1105 
f 1096 1100 1105 
f 1100 1094 1105 
f 1097 1098 1106 
f 1098 1099 1106 
f 1099 1094 1106 
f 1094 1101 1106 
f 1101 1097 1106 
f 1094 1100 1107 
f 1101 1094 1107 
f 1097 1101 1107 
f 1100 1103 1107 
o convex_85
v -0.012219 -0.075975 0.014186
v -0.012380 -0.079181 0.018992
v -0.012219 -0.079181 0.018992
v -0.012219 -0.078539 0.011301
v -0.014303 -0.075013 0.017390
v -0.013662 -0.075013 0.011461
v -0.012219 -0.075494 0.017069
v -0.013662 -0.075013 0.019153
v -0.012380 -0.078860 0.012583
v -0.013181 -0.075013 0.011140
v -0.014303 -0.075174 0.015947
f 1113 1116 1118 
f 1108 1110 1111 
f 1110 1108 1114 
f 1110 1114 1115 
f 1109 1110 1115 
f 1112 1109 1115 
f 1113 1112 1115 
f 1110 1109 1116 
f 1111 1110 1116 
f 1113 1111 1116 
f 1108 1111 1117 
f 1111 1113 1117 
f 1114 1108 1117 
f 1115 1114 1117 
f 1113 1115 1117 
f 1109 1112 1118 
f 1112 1113 1118 
f 1116 1109 1118 
o convex_86
v -0.015425 -0.071325 0.016269
v -0.015265 -0.062192 0.021077
v -0.015265 -0.062192 0.020596
v -0.013341 -0.075012 0.020756
v -0.014944 -0.069883 0.021077
v -0.016066 -0.062192 0.016269
v -0.014143 -0.074691 0.016269
v -0.016066 -0.066519 0.016910
v -0.013823 -0.075012 0.020596
v -0.015585 -0.062833 0.020756
v -0.015906 -0.062192 0.016590
v -0.013341 -0.074530 0.020917
f 1129 1121 1130 
f 1120 1121 1124 
f 1119 1124 1125 
f 1119 1123 1126 
f 1124 1119 1126 
f 1123 1119 1127 
f 1119 1125 1127 
f 1125 1122 1127 
f 1123 1120 1128 
f 1120 1124 1128 
f 1126 1123 1128 
f 1124 1126 1128 
f 1124 1121 1129 
f 1125 1124 1129 
f 1125 1129 1130 
f 1121 1120 1130 
f 1120 1123 1130 
f 1122 1125 1130 
f 1123 1127 1130 
f 1127 1122 1130 
o convex_87
v -0.013021 -0.075012 0.022200
v -0.015425 -0.065238 0.021077
v -0.015425 -0.065238 0.021238
v -0.013662 -0.062192 0.024443
v -0.013181 -0.070203 0.024443
v -0.011579 -0.074851 0.024123
v -0.015104 -0.062192 0.021238
v -0.013181 -0.074691 0.021077
v -0.014784 -0.070524 0.021238
v -0.013822 -0.066680 0.024283
v -0.012060 -0.074691 0.024443
f 1135 1139 1141 
f 1132 1133 1137 
f 1133 1134 1137 
f 1134 1136 1137 
f 1137 1136 1138 
f 1136 1131 1138 
f 1132 1137 1138 
f 1132 1138 1139 
f 1133 1132 1139 
f 1138 1131 1139 
f 1139 1135 1140 
f 1134 1133 1140 
f 1135 1134 1140 
f 1133 1139 1140 
f 1134 1135 1141 
f 1131 1136 1141 
f 1136 1134 1141 
f 1139 1131 1141 
o convex_88
v -0.000038 -0.082386 0.005209
v -0.007571 -0.078700 0.005529
v -0.005647 -0.078220 0.004247
v -0.000038 -0.074212 0.001844
v -0.007410 -0.074374 0.004247
v -0.000038 -0.082386 0.005690
v -0.004364 -0.074693 0.002325
v -0.000198 -0.078380 0.002966
v -0.003404 -0.082065 0.005529
v -0.004205 -0.078380 0.003607
v -0.007410 -0.078059 0.005690
v -0.007571 -0.074212 0.003766
f 1145 1148 1153 
f 1142 1145 1147 
f 1145 1146 1147 
f 1145 1142 1149 
f 1148 1145 1149 
f 1142 1147 1150 
f 1149 1142 1150 
f 1149 1150 1151 
f 1143 1144 1151 
f 1144 1148 1151 
f 1148 1149 1151 
f 1150 1143 1151 
f 1146 1143 1152 
f 1147 1146 1152 
f 1143 1150 1152 
f 1150 1147 1152 
f 1144 1143 1153 
f 1146 1145 1153 
f 1143 1146 1153 
f 1148 1144 1153 
o convex_89
v -0.001001 -0.083027 0.005690
v -0.007571 -0.083507 0.009216
v -0.007571 -0.083507 0.009376
v -0.007571 -0.078381 0.005851
v -0.000038 -0.087034 0.009376
v -0.003404 -0.084469 0.006973
v -0.000038 -0.082708 0.005851
v -0.002603 -0.087034 0.009216
v -0.007410 -0.082868 0.009376
v -0.006930 -0.079502 0.005690
v -0.000038 -0.084629 0.006492
v -0.005647 -0.084629 0.008254
v -0.007410 -0.078541 0.006011
f 1162 1158 1166 
f 1155 1156 1157 
f 1156 1155 1161 
f 1158 1156 1161 
f 1157 1156 1162 
f 1156 1158 1162 
f 1155 1157 1163 
f 1154 1159 1163 
f 1160 1154 1163 
f 1157 1160 1163 
f 1159 1154 1164 
f 1154 1160 1164 
f 1160 1158 1164 
f 1158 1161 1164 
f 1161 1159 1164 
f 1161 1155 1165 
f 1159 1161 1165 
f 1155 1163 1165 
f 1163 1159 1165 
f 1160 1157 1166 
f 1158 1160 1166 
f 1157 1162 1166 
o convex_90
v 0.008136 -0.074213 0.004087
v -0.000038 -0.083828 0.006011
v 0.000123 -0.083828 0.006011
v -0.000038 -0.074694 0.001683
v 0.004130 -0.078060 0.003446
v 0.008136 -0.077739 0.006171
v 0.000123 -0.074374 0.002004
v 0.007014 -0.079981 0.006011
v 0.000123 -0.083186 0.006171
v 0.004769 -0.074374 0.002325
v 0.000123 -0.078380 0.002965
v 0.003490 -0.082866 0.006011
v 0.008136 -0.074374 0.004568
v 0.007816 -0.078220 0.005369
f 1171 1176 1180 
f 1170 1168 1173 
f 1168 1169 1175 
f 1172 1173 1175 
f 1173 1168 1175 
f 1171 1170 1176 
f 1173 1167 1176 
f 1170 1173 1176 
f 1169 1168 1177 
f 1168 1170 1177 
f 1170 1171 1177 
f 1177 1171 1178 
f 1171 1174 1178 
f 1174 1172 1178 
f 1172 1175 1178 
f 1175 1169 1178 
f 1169 1177 1178 
f 1172 1167 1179 
f 1167 1173 1179 
f 1173 1172 1179 
f 1167 1172 1180 
f 1174 1171 1180 
f 1172 1174 1180 
f 1176 1167 1180 
o convex_91
v 0.006694 -0.080464 0.006171
v -0.000038 -0.087355 0.009216
v -0.000038 -0.087355 0.009377
v 0.007335 -0.083828 0.009216
v 0.008136 -0.078220 0.006492
v 0.000604 -0.083989 0.006171
v 0.003169 -0.084630 0.006972
v 0.008136 -0.081746 0.009216
v -0.000038 -0.083508 0.006331
v 0.002688 -0.087034 0.009216
v -0.000038 -0.087034 0.009377
v 0.005893 -0.084630 0.008415
v 0.008297 -0.078700 0.006171
f 1184 1192 1193 
f 1186 1181 1187 
f 1182 1186 1187 
f 1183 1184 1188 
f 1182 1183 1189 
f 1186 1182 1189 
f 1183 1182 1190 
f 1184 1183 1190 
f 1182 1187 1190 
f 1183 1188 1191 
f 1188 1185 1191 
f 1189 1183 1191 
f 1185 1189 1191 
f 1187 1181 1192 
f 1184 1190 1192 
f 1190 1187 1192 
f 1181 1186 1193 
f 1188 1184 1193 
f 1185 1188 1193 
f 1189 1185 1193 
f 1186 1189 1193 
f 1192 1181 1193 
o convex_92
v -0.000519 -0.062832 -0.000080
v -0.007571 -0.074212 0.003766
v -0.007571 -0.074212 0.004087
v -0.000038 -0.074212 0.001844
v -0.004846 -0.070843 0.001363
v -0.007250 -0.062191 0.002164
v -0.000359 -0.062191 0.000240
v -0.005166 -0.062191 0.000721
v -0.007571 -0.067162 0.002164
v -0.000038 -0.070362 0.000561
v -0.004204 -0.074212 0.002163
v -0.005166 -0.066842 0.000882
v -0.007410 -0.073891 0.004087
v -0.000038 -0.067000 0.000080
v -0.007571 -0.062191 0.002004
v -0.000198 -0.074212 0.001522
f 1204 1198 1209 
f 1196 1195 1197 
f 1200 1194 1201 
f 1199 1200 1201 
f 1195 1196 1202 
f 1198 1195 1202 
f 1197 1195 1204 
f 1195 1198 1204 
f 1201 1194 1205 
f 1198 1202 1205 
f 1202 1201 1205 
f 1196 1197 1206 
f 1199 1196 1206 
f 1200 1199 1206 
f 1197 1200 1206 
f 1194 1200 1207 
f 1200 1197 1207 
f 1203 1198 1207 
f 1197 1203 1207 
f 1205 1194 1207 
f 1198 1205 1207 
f 1196 1199 1208 
f 1199 1201 1208 
f 1202 1196 1208 
f 1201 1202 1208 
f 1198 1203 1209 
f 1203 1197 1209 
f 1197 1204 1209 
o convex_93
v -0.007250 0.015387 0.015466
v -0.006287 0.013464 0.009056
v -0.006287 0.013624 0.009056
v 0.001565 0.015548 0.010179
v -0.009173 0.013464 0.016268
v -0.003885 0.015708 0.010660
v -0.006287 0.015708 0.016268
v 0.001565 0.015067 0.009056
v -0.007891 0.014586 0.012583
v -0.001481 0.015387 0.009056
v -0.009013 0.013624 0.013223
v -0.005646 0.013464 0.009218
v 0.001565 0.015708 0.009699
v -0.004845 0.014746 0.009218
v -0.005806 0.015708 0.012742
f 1215 1223 1224 
f 1210 1214 1216 
f 1214 1213 1216 
f 1211 1212 1217 
f 1213 1214 1217 
f 1217 1212 1219 
f 1212 1211 1220 
f 1214 1210 1220 
f 1211 1214 1220 
f 1218 1212 1220 
f 1210 1218 1220 
f 1214 1211 1221 
f 1211 1217 1221 
f 1217 1214 1221 
f 1216 1213 1222 
f 1215 1216 1222 
f 1213 1217 1222 
f 1219 1215 1222 
f 1217 1219 1222 
f 1212 1218 1223 
f 1219 1212 1223 
f 1215 1219 1223 
f 1216 1215 1224 
f 1210 1216 1224 
f 1218 1210 1224 
f 1223 1218 1224 
o convex_94
v 0.003489 -0.063154 0.000401
v -0.000038 -0.074212 0.001523
v 0.000123 -0.074212 0.001523
v 0.004450 -0.073571 0.002484
v 0.000283 -0.062191 0.000240
v 0.000123 -0.070363 0.000561
v 0.004611 -0.071005 0.001362
v 0.004611 -0.062191 0.000882
v -0.000038 -0.073891 0.001843
v -0.000038 -0.067000 0.000080
v 0.004611 -0.066520 0.000721
v -0.000038 -0.062191 -0.000080
v 0.004611 -0.074050 0.002164
f 1228 1233 1237 
f 1227 1226 1230 
f 1227 1230 1231 
f 1229 1228 1232 
f 1228 1229 1233 
f 1230 1226 1234 
f 1226 1233 1234 
f 1231 1230 1235 
f 1232 1231 1235 
f 1225 1232 1235 
f 1234 1225 1235 
f 1230 1234 1235 
f 1232 1225 1236 
f 1229 1232 1236 
f 1233 1229 1236 
f 1234 1233 1236 
f 1225 1234 1236 
f 1226 1227 1237 
f 1227 1231 1237 
f 1232 1228 1237 
f 1231 1232 1237 
f 1233 1226 1237 
o convex_95
v 0.005252 -0.066520 0.000882
v 0.008296 -0.073729 0.004408
v 0.008136 -0.073729 0.004408
v 0.008136 -0.062352 0.002644
v 0.004611 -0.073891 0.002644
v 0.004611 -0.062191 0.000882
v 0.008296 -0.070844 0.003125
v 0.004771 -0.073248 0.002004
v 0.008136 -0.062191 0.002164
v 0.008296 -0.074212 0.004087
v 0.008296 -0.066841 0.002485
v 0.004611 -0.070844 0.001363
f 1244 1245 1249 
f 1240 1239 1241 
f 1242 1240 1243 
f 1240 1241 1243 
f 1243 1241 1246 
f 1238 1243 1246 
f 1239 1240 1247 
f 1240 1242 1247 
f 1244 1239 1247 
f 1242 1245 1247 
f 1245 1244 1247 
f 1241 1239 1248 
f 1239 1244 1248 
f 1244 1238 1248 
f 1246 1241 1248 
f 1238 1246 1248 
f 1242 1243 1249 
f 1243 1238 1249 
f 1238 1244 1249 
f 1245 1242 1249 
o convex_96
v 0.008296 -0.084470 0.011140
v -0.007570 -0.083669 0.009377
v -0.007570 -0.083188 0.009377
v 0.008296 -0.082226 0.009377
v 0.006853 -0.084470 0.009377
v -0.007570 -0.084310 0.010499
v 0.008134 -0.084310 0.011781
v -0.006928 -0.084470 0.009377
v -0.007570 -0.083188 0.009537
f 1256 1253 1258 
f 1251 1252 1253 
f 1253 1250 1254 
f 1251 1253 1254 
f 1252 1251 1255 
f 1255 1250 1256 
f 1250 1253 1256 
f 1254 1250 1257 
f 1251 1254 1257 
f 1255 1251 1257 
f 1250 1255 1257 
f 1253 1252 1258 
f 1252 1255 1258 
f 1255 1256 1258 
o convex_97
v -0.004846 -0.088155 0.019636
v -0.007410 -0.081266 0.024443
v -0.007410 -0.081266 0.024282
v 0.000764 -0.085592 0.024443
v 0.000764 -0.089117 0.019155
v -0.002282 -0.087035 0.023320
v -0.007410 -0.085752 0.019155
v -0.005807 -0.084471 0.023961
v 0.000122 -0.088637 0.021399
v -0.007571 -0.084632 0.022039
v -0.002762 -0.085592 0.024443
v -0.001961 -0.089277 0.019155
v -0.004525 -0.087033 0.022198
v -0.003083 -0.088637 0.020437
v 0.000764 -0.087194 0.023320
v -0.006609 -0.087033 0.019476
f 1271 1268 1274 
f 1261 1260 1262 
f 1261 1262 1263 
f 1261 1263 1265 
f 1260 1261 1268 
f 1261 1265 1268 
f 1266 1260 1268 
f 1262 1260 1269 
f 1260 1266 1269 
f 1265 1263 1270 
f 1263 1267 1270 
f 1266 1268 1271 
f 1264 1269 1271 
f 1269 1266 1271 
f 1267 1264 1272 
f 1259 1270 1272 
f 1270 1267 1272 
f 1271 1259 1272 
f 1264 1271 1272 
f 1263 1262 1273 
f 1267 1263 1273 
f 1264 1267 1273 
f 1262 1269 1273 
f 1269 1264 1273 
f 1268 1265 1274 
f 1270 1259 1274 
f 1265 1270 1274 
f 1259 1271 1274 
o convex_98
v -0.005486 0.015708 0.012583
v -0.000039 0.018112 0.019795
v -0.001001 0.018112 0.019795
v -0.000039 0.017792 0.010179
v -0.000039 0.015708 0.009859
v -0.005165 0.015708 0.019795
v -0.006449 0.017631 0.015788
v -0.003724 0.017792 0.011301
v -0.005326 0.017631 0.019795
v -0.002443 0.018272 0.015306
v -0.006449 0.015708 0.017230
v -0.000039 0.017792 0.019795
v -0.002283 0.015708 0.010019
v -0.000039 0.018272 0.013704
v -0.005326 0.017631 0.012424
v -0.001322 0.017631 0.009859
f 1287 1282 1290 
f 1278 1276 1279 
f 1276 1277 1280 
f 1275 1279 1280 
f 1280 1277 1283 
f 1281 1283 1284 
f 1277 1276 1284 
f 1283 1277 1284 
f 1275 1280 1285 
f 1281 1275 1285 
f 1280 1283 1285 
f 1283 1281 1285 
f 1279 1276 1286 
f 1276 1280 1286 
f 1280 1279 1286 
f 1279 1275 1287 
f 1276 1278 1288 
f 1278 1282 1288 
f 1284 1276 1288 
f 1282 1284 1288 
f 1275 1281 1289 
f 1281 1284 1289 
f 1284 1282 1289 
f 1287 1275 1289 
f 1282 1287 1289 
f 1278 1279 1290 
f 1282 1278 1290 
f 1279 1287 1290 
o convex_99
v -0.006609 -0.052091 0.003286
v -0.004206 -0.036867 0.011139
v -0.002442 -0.037027 0.010177
v -0.002282 -0.053054 0.002004
v -0.006609 -0.041033 0.010978
v -0.002442 -0.037509 0.009056
v -0.005487 -0.037669 0.010978
v -0.004046 -0.049365 0.003286
v -0.006609 -0.053054 0.003446
v -0.006770 -0.048885 0.004889
v -0.002121 -0.052251 0.001844
v -0.002282 -0.037509 0.010017
v -0.004685 -0.052891 0.002004
v -0.004366 -0.037509 0.010017
v -0.006770 -0.040233 0.010978
v -0.002121 -0.049205 0.003126
f 1302 1301 1306 
f 1292 1293 1296 
f 1294 1295 1299 
f 1298 1291 1300 
f 1296 1298 1300 
f 1291 1299 1300 
f 1293 1292 1302 
f 1295 1294 1302 
f 1292 1295 1302 
f 1296 1293 1302 
f 1294 1301 1302 
f 1291 1298 1303 
f 1299 1291 1303 
f 1294 1299 1303 
f 1301 1294 1303 
f 1298 1301 1303 
f 1292 1296 1304 
f 1297 1292 1304 
f 1300 1297 1304 
f 1296 1300 1304 
f 1295 1292 1305 
f 1292 1297 1305 
f 1299 1295 1305 
f 1300 1299 1305 
f 1297 1300 1305 
f 1298 1296 1306 
f 1301 1298 1306 
f 1296 1302 1306 
o convex_100
v 0.006212 0.008976 0.011301
v 0.009419 0.013464 0.016910
v 0.009097 0.013464 0.016910
v 0.005894 0.013464 0.009057
v 0.002527 0.008976 0.009218
v 0.007496 0.008816 0.016910
v 0.008938 0.013143 0.013063
v 0.007656 0.008816 0.014665
v 0.003649 0.008816 0.009218
v 0.006694 0.012983 0.009538
v 0.007656 0.013464 0.010500
f 1316 1310 1317 
f 1309 1308 1310 
f 1309 1310 1311 
f 1309 1311 1312 
f 1308 1309 1312 
f 1308 1312 1314 
f 1307 1313 1314 
f 1313 1308 1314 
f 1311 1310 1315 
f 1312 1311 1315 
f 1307 1314 1315 
f 1314 1312 1315 
f 1307 1315 1316 
f 1315 1310 1316 
f 1310 1308 1317 
f 1313 1307 1317 
f 1308 1313 1317 
f 1307 1316 1317 
o convex_101
v 0.003008 -0.051770 0.002164
v 0.004612 -0.036866 0.011140
v 0.004612 -0.036866 0.010978
v 0.008297 -0.052252 0.004569
v 0.008137 -0.043276 0.011140
v 0.008137 -0.049365 0.005370
v 0.002847 -0.052091 0.002485
v 0.002847 -0.037188 0.010338
v 0.003008 -0.037347 0.009376
v 0.004612 -0.050167 0.003126
v 0.008297 -0.043276 0.010338
v 0.005413 -0.037507 0.010978
v 0.004933 -0.051930 0.002485
v 0.004291 -0.037347 0.010017
v 0.002847 -0.048244 0.003767
f 1326 1327 1332 
f 1321 1322 1324 
f 1324 1322 1325 
f 1319 1320 1325 
f 1322 1319 1325 
f 1325 1320 1326 
f 1322 1321 1328 
f 1321 1323 1328 
f 1328 1323 1329 
f 1320 1319 1329 
f 1319 1322 1329 
f 1322 1328 1329 
f 1323 1321 1330 
f 1324 1318 1330 
f 1321 1324 1330 
f 1318 1327 1330 
f 1327 1323 1330 
f 1326 1320 1331 
f 1323 1327 1331 
f 1327 1326 1331 
f 1329 1323 1331 
f 1320 1329 1331 
f 1318 1324 1332 
f 1324 1325 1332 
f 1325 1326 1332 
f 1327 1318 1332 
o convex_102
v -0.009012 0.012982 0.018995
v -0.005808 0.013463 0.023321
v -0.005808 0.013463 0.023161
v -0.000039 0.004649 0.022999
v -0.005646 0.004649 0.020595
v -0.009172 0.013463 0.016269
v -0.007090 0.004649 0.016269
v -0.000039 0.006732 0.023161
v -0.002603 0.004649 0.022839
v -0.007090 0.007373 0.016269
v -0.006769 0.013143 0.022839
v -0.006769 0.004649 0.018513
v -0.008531 0.013303 0.020435
v -0.001000 0.005771 0.023321
v -0.009494 0.013303 0.016430
v -0.004364 0.004649 0.021878
v -0.005327 0.011380 0.023321
v -0.007571 0.009296 0.016269
f 1340 1342 1350 
f 1334 1335 1338 
f 1336 1337 1339 
f 1335 1334 1340 
f 1338 1335 1340 
f 1337 1336 1341 
f 1336 1339 1342 
f 1339 1338 1342 
f 1340 1336 1342 
f 1339 1337 1344 
f 1334 1338 1345 
f 1343 1334 1345 
f 1337 1343 1345 
f 1333 1344 1345 
f 1344 1337 1345 
f 1340 1334 1346 
f 1336 1340 1346 
f 1341 1336 1346 
f 1338 1339 1347 
f 1344 1333 1347 
f 1339 1344 1347 
f 1345 1338 1347 
f 1333 1345 1347 
f 1337 1341 1348 
f 1343 1337 1348 
f 1343 1348 1349 
f 1334 1343 1349 
f 1346 1334 1349 
f 1341 1346 1349 
f 1348 1341 1349 
f 1338 1340 1350 
f 1342 1338 1350 
o convex_103
v -0.015585 -0.056741 0.018352
v -0.015425 -0.062190 0.011140
v -0.015265 -0.062190 0.011140
v -0.015105 -0.056581 0.011140
v -0.016226 -0.059786 0.016108
v -0.015745 -0.062190 0.018352
v -0.014784 -0.056741 0.011622
v -0.015265 -0.056581 0.018352
v -0.016066 -0.057703 0.015467
v -0.016226 -0.062190 0.015627
f 1359 1352 1360 
f 1353 1352 1354 
f 1352 1353 1356 
f 1351 1355 1356 
f 1356 1353 1357 
f 1353 1354 1357 
f 1354 1351 1358 
f 1351 1356 1358 
f 1356 1357 1358 
f 1357 1354 1358 
f 1354 1352 1359 
f 1351 1354 1359 
f 1355 1351 1359 
f 1355 1359 1360 
f 1352 1356 1360 
f 1356 1355 1360 
o convex_104
v -0.015585 -0.056419 0.014346
v -0.012220 -0.047926 0.018352
v -0.012220 -0.047606 0.017069
v -0.012220 -0.049850 0.011140
v -0.015104 -0.056259 0.018352
v -0.015104 -0.053374 0.015947
v -0.014783 -0.056580 0.011140
v -0.012861 -0.049690 0.011622
v -0.014463 -0.053855 0.011301
v -0.012380 -0.047445 0.015467
v -0.013502 -0.050170 0.018352
v -0.015585 -0.056419 0.018031
v -0.012220 -0.048407 0.018352
v -0.013662 -0.049850 0.015627
v -0.014623 -0.056419 0.011301
f 1373 1365 1375 
f 1363 1362 1364 
f 1361 1366 1369 
f 1367 1361 1369 
f 1364 1367 1369 
f 1368 1364 1369 
f 1362 1363 1370 
f 1363 1364 1370 
f 1364 1368 1370 
f 1365 1362 1371 
f 1362 1370 1371 
f 1366 1361 1372 
f 1361 1367 1372 
f 1367 1365 1372 
f 1365 1371 1372 
f 1371 1366 1372 
f 1364 1362 1373 
f 1362 1365 1373 
f 1369 1366 1374 
f 1368 1369 1374 
f 1370 1368 1374 
f 1366 1371 1374 
f 1371 1370 1374 
f 1365 1367 1375 
f 1367 1364 1375 
f 1364 1373 1375 
o convex_105
v -0.014784 -0.053535 0.018353
v -0.012220 -0.052894 0.024443
v -0.012220 -0.052093 0.023801
v -0.015585 -0.062029 0.018514
v -0.012220 -0.048567 0.018353
v -0.013662 -0.062190 0.024443
v -0.015264 -0.057543 0.021398
v -0.013021 -0.049690 0.020277
v -0.015425 -0.062190 0.021398
v -0.013823 -0.057703 0.024282
v -0.015745 -0.057543 0.018353
v -0.014303 -0.053375 0.021079
v -0.013662 -0.062190 0.024122
v -0.015906 -0.062190 0.018353
v -0.012380 -0.048085 0.018995
v -0.012220 -0.053535 0.024282
v -0.012701 -0.053375 0.024282
f 1383 1387 1392 
f 1378 1377 1380 
f 1382 1384 1385 
f 1381 1377 1385 
f 1384 1381 1385 
f 1376 1380 1386 
f 1382 1376 1386 
f 1384 1382 1386 
f 1376 1382 1387 
f 1383 1376 1387 
f 1379 1380 1388 
f 1381 1384 1388 
f 1388 1384 1389 
f 1380 1379 1389 
f 1386 1380 1389 
f 1384 1386 1389 
f 1379 1388 1389 
f 1380 1376 1390 
f 1378 1380 1390 
f 1383 1378 1390 
f 1376 1383 1390 
f 1380 1377 1391 
f 1377 1381 1391 
f 1388 1380 1391 
f 1381 1388 1391 
f 1377 1378 1392 
f 1378 1383 1392 
f 1382 1385 1392 
f 1385 1377 1392 
f 1387 1382 1392 
o convex_106
v 0.000123 -0.089438 0.012902
v -0.006768 -0.084631 0.009377
v -0.006768 -0.084471 0.009377
v -0.007571 -0.086394 0.015307
v -0.004525 -0.088477 0.013063
v 0.000123 -0.087196 0.009698
v 0.000123 -0.089919 0.015307
v -0.002443 -0.087196 0.009377
v -0.002763 -0.089599 0.015307
v -0.007250 -0.086875 0.013703
v -0.007411 -0.084471 0.010820
v -0.007411 -0.086234 0.015146
v -0.005487 -0.087196 0.011461
v -0.002763 -0.088797 0.012102
v 0.000123 -0.088637 0.010980
v -0.005005 -0.088637 0.015307
f 1402 1397 1408 
f 1393 1398 1399 
f 1394 1395 1400 
f 1395 1398 1400 
f 1393 1399 1401 
f 1399 1396 1401 
f 1395 1394 1403 
f 1398 1395 1403 
f 1394 1402 1403 
f 1402 1396 1403 
f 1399 1398 1404 
f 1396 1399 1404 
f 1398 1403 1404 
f 1403 1396 1404 
f 1394 1400 1405 
f 1402 1394 1405 
f 1397 1402 1405 
f 1393 1401 1406 
f 1401 1397 1406 
f 1405 1400 1406 
f 1397 1405 1406 
f 1398 1393 1407 
f 1400 1398 1407 
f 1393 1406 1407 
f 1406 1400 1407 
f 1397 1401 1408 
f 1401 1396 1408 
f 1396 1402 1408 
o convex_107
v -0.006450 -0.036867 0.014506
v -0.012219 -0.049528 0.011140
v -0.012058 -0.049528 0.011140
v -0.004367 -0.036867 0.011140
v -0.012058 -0.048084 0.014506
v -0.007251 -0.037669 0.013865
v -0.004367 -0.037669 0.011300
v -0.006129 -0.037669 0.011621
v -0.012219 -0.048404 0.011781
v -0.006289 -0.037669 0.014345
v -0.012219 -0.047603 0.014506
f 1417 1410 1419 
f 1411 1410 1412 
f 1410 1411 1413 
f 1411 1412 1415 
f 1412 1409 1415 
f 1413 1411 1415 
f 1412 1410 1416 
f 1409 1412 1416 
f 1414 1409 1416 
f 1414 1416 1417 
f 1416 1410 1417 
f 1409 1413 1418 
f 1415 1409 1418 
f 1413 1415 1418 
f 1413 1409 1419 
f 1410 1413 1419 
f 1409 1414 1419 
f 1414 1417 1419 
o convex_108
v -0.006129 -0.036866 0.018512
v -0.012219 -0.048245 0.018192
v -0.012219 -0.048245 0.018673
v -0.007571 -0.037669 0.015949
v -0.009815 -0.044077 0.014506
v -0.012219 -0.047443 0.014666
v -0.006449 -0.036866 0.014506
v -0.006129 -0.037508 0.018512
v -0.007091 -0.037508 0.018673
v -0.012219 -0.047282 0.016909
v -0.006449 -0.037669 0.014506
v -0.012059 -0.048084 0.014506
v -0.011578 -0.047443 0.018673
v -0.007251 -0.037508 0.014506
f 1426 1431 1433 
f 1421 1422 1425 
f 1423 1420 1426 
f 1426 1420 1427 
f 1420 1423 1428 
f 1427 1420 1428 
f 1425 1422 1429 
f 1423 1425 1429 
f 1422 1428 1429 
f 1428 1423 1429 
f 1424 1426 1430 
f 1427 1424 1430 
f 1426 1427 1430 
f 1422 1421 1431 
f 1421 1425 1431 
f 1426 1424 1431 
f 1424 1427 1432 
f 1428 1422 1432 
f 1427 1428 1432 
f 1422 1431 1432 
f 1431 1424 1432 
f 1425 1423 1433 
f 1423 1426 1433 
f 1431 1425 1433 
o convex_109
v -0.012218 -0.047764 0.018673
v -0.007251 -0.045201 0.024443
v -0.007251 -0.044882 0.024283
v -0.012058 -0.052091 0.024443
v -0.007411 -0.038629 0.018834
v -0.011898 -0.048084 0.018673
v -0.012058 -0.053213 0.024283
v -0.007251 -0.045201 0.023802
v -0.007251 -0.039432 0.018673
v -0.010936 -0.049366 0.024123
v -0.012218 -0.048405 0.020437
v -0.007411 -0.041196 0.021399
f 1438 1443 1445 
f 1435 1437 1440 
f 1434 1439 1440 
f 1440 1439 1441 
f 1436 1435 1441 
f 1435 1440 1441 
f 1434 1438 1442 
f 1438 1436 1442 
f 1439 1434 1442 
f 1441 1439 1442 
f 1436 1441 1442 
f 1435 1436 1443 
f 1437 1435 1443 
f 1443 1438 1444 
f 1438 1434 1444 
f 1440 1437 1444 
f 1434 1440 1444 
f 1437 1443 1444 
f 1436 1438 1445 
f 1443 1436 1445 
o convex_110
v -0.007251 -0.038149 0.018834
v -0.002923 -0.040713 0.024443
v -0.003083 -0.040713 0.024443
v -0.007090 -0.045521 0.024283
v -0.004366 -0.037507 0.022359
v -0.006128 -0.037507 0.018673
v -0.007251 -0.044880 0.024443
v -0.002923 -0.036866 0.022038
v -0.002923 -0.041353 0.024283
v -0.007090 -0.039271 0.018834
v -0.006128 -0.037507 0.020597
f 1453 1451 1456 
f 1447 1448 1452 
f 1449 1447 1452 
f 1448 1450 1452 
f 1448 1447 1453 
f 1450 1448 1453 
f 1451 1453 1454 
f 1447 1449 1454 
f 1453 1447 1454 
f 1454 1449 1455 
f 1446 1451 1455 
f 1449 1452 1455 
f 1452 1446 1455 
f 1451 1454 1455 
f 1451 1446 1456 
f 1446 1452 1456 
f 1452 1450 1456 
f 1450 1453 1456 
o convex_111
v -0.007570 -0.082547 0.014025
v 0.008296 -0.078219 0.013224
v 0.008296 -0.078219 0.013063
v -0.007570 -0.078219 0.013224
v -0.007570 -0.081264 0.013063
v 0.008296 -0.082547 0.014185
v 0.008296 -0.081264 0.013063
v -0.007570 -0.082066 0.014185
v -0.007570 -0.078219 0.013063
v 0.008296 -0.082066 0.014185
f 1464 1462 1466 
f 1458 1459 1460 
f 1457 1460 1461 
f 1459 1458 1462 
f 1462 1457 1463 
f 1457 1461 1463 
f 1461 1459 1463 
f 1459 1462 1463 
f 1458 1460 1464 
f 1460 1457 1464 
f 1457 1462 1464 
f 1460 1459 1465 
f 1461 1460 1465 
f 1459 1461 1465 
f 1462 1458 1466 
f 1458 1464 1466 
o convex_112
v -0.008852 0.012982 0.012901
v -0.005808 0.013463 0.009218
v -0.000039 0.006412 0.009218
v -0.005807 0.004649 0.011942
v -0.009172 0.013463 0.016268
v -0.006929 0.004649 0.016268
v -0.001481 0.004649 0.009218
v -0.006287 0.013303 0.009056
v -0.007571 0.009296 0.016268
v -0.003885 0.004649 0.010179
v -0.000039 0.004649 0.009056
v -0.006929 0.004649 0.014504
v -0.009494 0.013303 0.015946
v -0.007890 0.013463 0.010821
v -0.006929 0.006092 0.016268
f 1475 1472 1481 
f 1469 1468 1471 
f 1472 1470 1473 
f 1468 1469 1474 
f 1469 1471 1475 
f 1471 1472 1475 
f 1473 1470 1476 
f 1470 1474 1476 
f 1474 1473 1476 
f 1469 1472 1477 
f 1472 1473 1477 
f 1474 1469 1477 
f 1473 1474 1477 
f 1467 1470 1478 
f 1470 1472 1478 
f 1478 1472 1479 
f 1472 1471 1479 
f 1467 1478 1479 
f 1470 1467 1480 
f 1471 1468 1480 
f 1468 1474 1480 
f 1474 1470 1480 
f 1479 1471 1480 
f 1467 1479 1480 
f 1472 1469 1481 
f 1469 1475 1481 
o convex_113
v 0.004771 0.014906 0.009538
v 0.009418 0.013624 0.016589
v 0.009418 0.013464 0.016589
v 0.001566 0.015548 0.010179
v 0.006534 0.015708 0.016910
v 0.005572 0.013464 0.009057
v 0.008136 0.014586 0.013223
v 0.005252 0.015708 0.011942
v 0.008937 0.013464 0.016910
v 0.007816 0.013624 0.010820
v 0.001566 0.015067 0.009377
v 0.006373 0.015387 0.016910
f 1485 1492 1493 
f 1486 1483 1488 
f 1482 1485 1489 
f 1485 1486 1489 
f 1488 1482 1489 
f 1486 1488 1489 
f 1484 1483 1490 
f 1483 1486 1490 
f 1487 1484 1490 
f 1483 1484 1491 
f 1487 1482 1491 
f 1484 1487 1491 
f 1488 1483 1491 
f 1482 1488 1491 
f 1485 1482 1492 
f 1482 1487 1492 
f 1487 1490 1492 
f 1492 1490 1493 
f 1486 1485 1493 
f 1490 1486 1493 
o convex_114
v 0.006533 0.008655 0.011942
v -0.000038 0.004648 0.009056
v -0.000038 0.006412 0.009056
v 0.006853 0.005771 0.016268
v 0.005733 0.004648 0.011942
v 0.007496 0.008816 0.016268
v 0.003169 0.008816 0.009056
v 0.007014 0.004648 0.016268
v 0.004129 0.004648 0.010340
v 0.007335 0.008816 0.013543
v 0.002528 0.008816 0.009218
v 0.006694 0.004648 0.013703
v -0.000038 0.006412 0.009218
v 0.004610 0.008816 0.009859
f 1500 1503 1507 
f 1495 1496 1500 
f 1497 1495 1501 
f 1495 1498 1501 
f 1499 1497 1501 
f 1498 1495 1502 
f 1495 1500 1502 
f 1500 1499 1503 
f 1499 1501 1503 
f 1500 1496 1504 
f 1499 1500 1504 
f 1498 1494 1505 
f 1501 1498 1505 
f 1494 1503 1505 
f 1503 1501 1505 
f 1496 1495 1506 
f 1495 1497 1506 
f 1497 1499 1506 
f 1504 1496 1506 
f 1499 1504 1506 
f 1494 1498 1507 
f 1498 1502 1507 
f 1502 1500 1507 
f 1503 1494 1507 
