o convex_0
v 0.002168 0.056867 0.010134
v -0.002369 0.003630 0.008320
v -0.002066 0.003630 0.007714
v -0.002369 0.088017 0.008622
v 0.000353 0.088017 0.006504
v 0.002168 0.003630 0.007714
v -0.000554 0.003630 0.011345
v 0.000656 0.088017 0.011345
v 0.002471 0.088026 0.008622
v -0.002066 0.088017 0.010134
v 0.002168 0.003630 0.010134
v -0.000251 0.003630 0.006504
v -0.002066 0.003630 0.010436
v -0.001461 0.071993 0.007110
v -0.001159 0.088017 0.011042
v 0.001261 0.003630 0.011042
v 0.001261 0.034797 0.006807
v 0.002471 0.003630 0.009227
v -0.000856 0.090151 0.009529
v 0.001261 0.088017 0.011042
v 0.002168 0.088026 0.008017
v -0.000251 0.088017 0.006504
v -0.001159 0.003630 0.006807
v -0.002369 0.088017 0.009529
v 0.001261 0.003630 0.006807
v 0.002471 0.088026 0.009227
v -0.001461 0.025117 0.011042
v -0.000554 0.088017 0.011345
v -0.002369 0.003630 0.009529
v 0.000656 0.003630 0.011345
v -0.002066 0.066853 0.007714
v 0.000958 0.090151 0.008622
v 0.000958 0.088017 0.006807
v 0.002471 0.003630 0.008622
v 0.000353 0.003630 0.006504
v -0.001159 0.088330 0.007110
v 0.001866 0.048093 0.007412
v -0.000251 0.090151 0.008018
v -0.001461 0.003630 0.011042
v -0.002066 0.088017 0.008018
v 0.001866 0.080454 0.010436
v 0.000353 0.090151 0.009831
v -0.002066 0.025117 0.010436
v -0.001159 0.035093 0.006807
v -0.002369 0.066251 0.008320
v 0.002168 0.030562 0.007714
f 37 21 46 
f 2 3 6 
f 2 6 7 
f 7 6 11 
f 6 3 12 
f 2 7 13 
f 7 11 16 
f 11 1 16 
f 11 6 18 
f 1 11 18 
f 10 15 19 
f 8 16 20 
f 16 1 20 
f 5 12 22 
f 12 3 23 
f 22 12 23 
f 4 2 24 
f 19 4 24 
f 10 19 24 
f 6 12 25 
f 5 17 25 
f 17 6 25 
f 18 9 26 
f 1 18 26 
f 15 10 27 
f 15 27 28 
f 7 8 28 
f 19 15 28 
f 27 7 28 
f 2 13 29 
f 24 2 29 
f 13 24 29 
f 8 7 30 
f 7 16 30 
f 16 8 30 
f 3 2 31 
f 23 3 31 
f 9 21 32 
f 26 9 32 
f 17 5 33 
f 32 21 33 
f 5 32 33 
f 6 9 34 
f 18 6 34 
f 9 18 34 
f 12 5 35 
f 5 25 35 
f 25 12 35 
f 22 14 36 
f 17 33 37 
f 33 21 37 
f 4 19 38 
f 5 22 38 
f 19 32 38 
f 32 5 38 
f 22 36 38 
f 13 7 39 
f 7 27 39 
f 27 13 39 
f 31 4 40 
f 14 31 40 
f 36 14 40 
f 4 38 40 
f 38 36 40 
f 20 1 41 
f 1 26 41 
f 26 20 41 
f 8 20 42 
f 20 26 42 
f 28 8 42 
f 19 28 42 
f 32 19 42 
f 26 32 42 
f 24 13 43 
f 10 24 43 
f 13 27 43 
f 27 10 43 
f 14 22 44 
f 22 23 44 
f 31 14 44 
f 23 31 44 
f 2 4 45 
f 31 2 45 
f 4 31 45 
f 9 6 46 
f 6 17 46 
f 21 9 46 
f 17 37 46 
o convex_1
v 0.002470 -0.090146 0.008622
v -0.014470 -0.063527 0.008926
v -0.014470 -0.063527 0.009226
v 0.010638 -0.041450 0.008321
v 0.000352 -0.083792 0.018303
v -0.004787 -0.041450 0.016789
v -0.000250 -0.041450 0.000454
v 0.000051 -0.084397 -0.000151
v 0.014572 -0.061115 0.009226
v 0.006706 -0.043266 0.016485
v -0.009023 -0.085608 0.009529
v -0.007209 -0.041450 0.002573
v 0.007914 -0.052643 0.001362
v 0.008520 -0.084702 0.004993
v 0.006101 -0.084397 0.016789
v -0.007209 -0.078047 0.016789
v -0.007209 -0.077742 0.001362
v -0.011141 -0.046894 0.012856
v 0.012150 -0.071693 0.012856
v 0.007312 -0.076532 0.001362
v -0.008116 -0.053249 0.001362
v -0.010837 -0.041750 0.008926
v -0.004486 -0.087725 0.014972
v -0.004486 -0.087725 0.003180
v -0.008116 -0.053249 0.016789
v 0.000352 -0.041450 0.017697
v 0.007914 -0.052038 0.016789
v -0.012955 -0.059298 0.005295
v 0.013057 -0.058993 0.005598
v 0.009731 -0.084397 0.009226
v 0.006706 -0.041750 0.001968
v -0.012352 -0.067760 0.013158
v -0.010234 -0.079559 0.004993
v 0.012454 -0.053249 0.012856
v 0.013662 -0.071087 0.008622
v 0.005191 -0.086214 0.001969
v 0.003681 -0.088635 0.014067
v -0.010234 -0.079559 0.013158
v -0.003579 -0.089841 0.009527
v 0.008218 -0.067760 0.016789
v -0.013864 -0.053549 0.008624
v -0.013560 -0.071393 0.008926
v 0.012454 -0.066854 0.004993
v 0.009731 -0.041450 0.012553
v -0.012955 -0.058998 0.012856
v 0.013057 -0.049616 0.008622
v -0.005694 -0.085003 0.016789
v -0.005998 -0.085008 0.001666
v -0.011442 -0.048410 0.005295
v 0.011243 -0.047500 0.005295
v 0.000958 -0.088936 0.003480
v 0.006101 -0.088635 0.008624
v -0.000250 -0.049016 0.017999
v 0.008520 -0.084702 0.013158
v -0.000250 -0.049621 0.000152
v 0.012756 -0.060204 0.013158
v -0.012352 -0.067460 0.004993
v -0.007511 -0.041450 0.015275
v -0.000250 -0.084397 0.018303
v 0.006101 -0.084092 0.001362
v -0.008116 -0.069271 0.016789
v 0.008218 -0.067155 0.001362
v -0.000250 -0.088936 0.014672
v 0.010638 -0.077742 0.004993
f 106 89 110 
f 52 50 53 
f 52 53 58 
f 58 53 67 
f 54 63 67 
f 50 52 72 
f 56 72 73 
f 53 50 77 
f 59 53 77 
f 56 73 80 
f 55 65 81 
f 76 60 81 
f 62 78 84 
f 69 57 85 
f 57 70 85 
f 51 61 86 
f 61 65 86 
f 73 51 86 
f 48 49 87 
f 64 68 87 
f 74 48 87 
f 49 48 88 
f 78 49 88 
f 79 57 88 
f 57 84 88 
f 84 78 88 
f 75 55 89 
f 55 81 89 
f 50 72 90 
f 72 56 90 
f 56 80 90 
f 71 64 91 
f 49 78 91 
f 87 49 91 
f 64 87 91 
f 55 75 92 
f 80 55 92 
f 50 90 92 
f 90 80 92 
f 57 69 93 
f 84 57 93 
f 62 84 93 
f 63 54 94 
f 54 70 94 
f 70 57 94 
f 57 79 94 
f 79 63 94 
f 58 67 95 
f 68 58 95 
f 67 74 95 
f 87 68 95 
f 74 87 95 
f 75 59 96 
f 77 50 96 
f 59 77 96 
f 92 75 96 
f 50 92 96 
f 70 54 97 
f 54 82 97 
f 47 85 97 
f 85 70 97 
f 60 76 98 
f 82 60 98 
f 83 47 98 
f 47 97 98 
f 97 82 98 
f 52 71 99 
f 72 52 99 
f 51 73 99 
f 73 72 99 
f 65 61 100 
f 81 65 100 
f 76 81 100 
f 61 83 100 
f 98 76 100 
f 83 98 100 
f 53 59 101 
f 59 54 101 
f 67 53 101 
f 54 67 101 
f 65 55 102 
f 55 80 102 
f 80 73 102 
f 86 65 102 
f 73 86 102 
f 67 63 103 
f 48 74 103 
f 74 67 103 
f 63 79 103 
f 88 48 103 
f 79 88 103 
f 52 58 104 
f 58 68 104 
f 68 64 104 
f 71 52 104 
f 64 71 104 
f 61 51 105 
f 83 61 105 
f 62 93 105 
f 93 69 105 
f 51 99 105 
f 99 71 105 
f 54 66 106 
f 60 82 106 
f 82 54 106 
f 66 89 106 
f 78 62 107 
f 71 91 107 
f 91 78 107 
f 62 105 107 
f 105 71 107 
f 54 59 108 
f 66 54 108 
f 59 75 108 
f 89 66 108 
f 75 89 108 
f 47 83 109 
f 69 85 109 
f 85 47 109 
f 83 105 109 
f 105 69 109 
f 81 60 110 
f 89 81 110 
f 60 106 110 
o convex_2
v 0.000654 -0.040840 0.017694
v -0.001462 -0.036606 0.000457
v -0.001462 -0.036000 0.000457
v 0.010639 -0.041142 0.008623
v -0.009022 -0.041445 0.004690
v -0.005392 -0.036000 0.016788
v 0.008521 -0.036000 0.013159
v 0.006100 -0.041445 0.001666
v 0.006705 -0.036000 0.002573
v -0.006603 -0.041445 0.016183
v -0.009627 -0.036000 0.008925
v 0.006100 -0.041445 0.016485
v 0.005192 -0.036000 0.016788
v -0.009627 -0.041445 0.012553
v -0.003274 -0.041445 0.001062
v -0.005998 -0.036000 0.001666
v 0.009429 -0.036000 0.008019
v -0.000252 -0.036000 0.018000
v 0.009429 -0.041445 0.012857
v 0.009429 -0.041445 0.005295
v -0.010537 -0.041445 0.008321
v -0.008719 -0.036303 0.012855
v -0.008719 -0.036303 0.005297
v 0.000352 -0.041445 0.000457
v 0.002773 -0.036000 0.000759
v -0.005998 -0.041445 0.001666
v -0.000554 -0.041445 0.017694
v 0.006100 -0.036303 0.016485
v 0.008823 -0.036303 0.005597
v -0.006300 -0.036000 0.016183
v 0.006100 -0.036606 0.001666
v -0.010537 -0.040538 0.009528
v 0.009731 -0.036606 0.009528
v 0.010639 -0.041445 0.009528
v -0.006300 -0.040840 0.016485
v 0.000352 -0.036303 0.018000
v -0.009327 -0.041142 0.013157
v 0.009429 -0.040234 0.012857
v -0.009327 -0.039932 0.005297
v 0.009429 -0.040538 0.005295
v -0.006603 -0.041445 0.001968
v 0.001260 -0.037513 0.000457
v 0.008521 -0.041445 0.014066
f 129 148 153 
f 113 116 117 
f 113 117 119 
f 115 118 120 
f 116 113 121 
f 120 118 122 
f 117 116 123 
f 115 120 124 
f 118 115 125 
f 113 112 126 
f 121 113 126 
f 119 117 127 
f 123 116 128 
f 122 118 129 
f 129 118 130 
f 115 124 131 
f 121 126 133 
f 131 121 133 
f 112 113 134 
f 125 112 134 
f 118 125 134 
f 113 119 135 
f 112 125 136 
f 125 115 136 
f 126 112 136 
f 122 111 137 
f 120 122 137 
f 117 123 138 
f 123 122 138 
f 127 114 139 
f 119 127 139 
f 116 121 140 
f 121 132 140 
f 130 118 141 
f 135 119 141 
f 118 135 141 
f 121 131 142 
f 131 124 142 
f 132 121 142 
f 124 132 142 
f 114 127 143 
f 127 117 143 
f 130 114 144 
f 129 130 144 
f 114 143 144 
f 128 116 145 
f 120 137 145 
f 137 128 145 
f 116 140 145 
f 111 122 146 
f 122 123 146 
f 123 128 146 
f 137 111 146 
f 128 137 146 
f 124 120 147 
f 132 124 147 
f 140 132 147 
f 120 145 147 
f 145 140 147 
f 117 138 148 
f 143 117 148 
f 129 144 148 
f 144 143 148 
f 126 115 149 
f 115 131 149 
f 133 126 149 
f 131 133 149 
f 114 130 150 
f 139 114 150 
f 119 139 150 
f 130 141 150 
f 141 119 150 
f 115 126 151 
f 136 115 151 
f 126 136 151 
f 134 113 152 
f 118 134 152 
f 113 135 152 
f 135 118 152 
f 122 129 153 
f 138 122 153 
f 148 138 153 
o convex_3
v 0.000051 -0.031157 0.018303
v -0.000250 -0.027230 -0.000151
v -0.001462 -0.026019 0.000152
v 0.008217 -0.018756 0.010436
v -0.007814 -0.018756 0.012251
v -0.009327 -0.036000 0.008017
v 0.009429 -0.036000 0.008321
v 0.005192 -0.018756 0.001362
v -0.005393 -0.018756 0.001362
v 0.000354 -0.036000 0.000152
v 0.005192 -0.018756 0.016789
v -0.005998 -0.036000 0.016485
v 0.006705 -0.036000 0.015579
v -0.004789 -0.018756 0.017090
v -0.005998 -0.036000 0.001666
v 0.005798 -0.034484 0.001362
v -0.007814 -0.018756 0.005900
v 0.007613 -0.019062 0.004993
v -0.008721 -0.035694 0.012553
v 0.008520 -0.034182 0.012856
v 0.000354 -0.018756 0.018303
v 0.005495 -0.036000 0.016789
v 0.000051 -0.018756 -0.000151
v -0.008418 -0.035092 0.004993
v 0.008217 -0.036000 0.004690
v -0.008418 -0.018756 0.009527
v -0.000250 -0.036000 0.017999
v 0.007613 -0.018756 0.013158
v -0.005393 -0.018756 0.016789
v 0.008520 -0.019664 0.008926
v 0.009429 -0.035392 0.009831
v -0.009327 -0.036000 0.010436
v 0.005495 -0.021481 0.016789
v -0.004789 -0.033880 0.001061
v -0.004789 -0.034182 0.017090
v 0.005495 -0.022389 0.001362
v 0.005798 -0.036000 0.001664
v 0.004891 -0.033880 0.017092
v -0.007208 -0.018756 0.013763
v -0.007208 -0.018756 0.004388
v -0.000250 -0.018756 0.018303
v -0.008418 -0.034790 0.013158
v 0.001261 -0.033578 0.000152
v 0.008823 -0.036000 0.012251
v 0.008520 -0.034484 0.005295
v 0.002471 -0.018756 0.000454
v -0.008418 -0.018756 0.008624
v -0.001157 -0.033880 0.000152
v -0.005696 -0.028737 0.016789
v -0.009327 -0.033274 0.008926
v -0.008721 -0.036000 0.005598
v -0.001462 -0.032368 0.017999
v 0.005798 -0.031762 0.016789
v 0.004891 -0.023297 0.017092
v -0.003579 -0.018756 0.000759
v -0.005696 -0.029343 0.001362
v 0.008217 -0.035092 0.013461
v 0.005798 -0.019364 0.001968
v 0.001261 -0.033880 0.017999
v 0.008217 -0.018756 0.007715
v 0.005798 -0.018756 0.016184
v -0.009327 -0.035092 0.008017
v 0.009429 -0.035392 0.008321
f 213 183 216 
f 158 157 161 
f 158 161 162 
f 160 159 163 
f 157 158 164 
f 159 160 165 
f 165 160 166 
f 164 158 167 
f 163 159 168 
f 158 162 170 
f 164 167 174 
f 165 166 175 
f 155 156 176 
f 162 161 176 
f 160 163 178 
f 158 170 179 
f 165 175 180 
f 157 164 181 
f 167 158 182 
f 157 181 184 
f 183 157 184 
f 159 165 185 
f 172 158 185 
f 165 172 185 
f 158 179 185 
f 156 155 187 
f 165 180 188 
f 178 169 189 
f 163 169 190 
f 178 163 190 
f 169 178 190 
f 158 172 192 
f 182 158 192 
f 170 162 193 
f 162 177 193 
f 154 174 194 
f 174 167 194 
f 172 165 195 
f 192 172 195 
f 182 192 195 
f 163 155 196 
f 169 163 196 
f 155 176 196 
f 166 160 197 
f 181 173 197 
f 160 184 197 
f 184 181 197 
f 160 178 198 
f 176 161 199 
f 161 189 199 
f 189 169 199 
f 169 196 199 
f 196 176 199 
f 179 170 200 
f 155 163 201 
f 163 168 201 
f 187 155 201 
f 168 187 201 
f 167 182 202 
f 188 167 202 
f 165 188 202 
f 195 165 202 
f 182 195 202 
f 159 185 203 
f 185 179 203 
f 179 200 203 
f 168 159 204 
f 177 168 204 
f 170 193 204 
f 193 177 204 
f 180 154 205 
f 167 188 205 
f 188 180 205 
f 154 194 205 
f 194 167 205 
f 175 166 206 
f 191 175 206 
f 191 206 207 
f 164 174 207 
f 186 164 207 
f 174 191 207 
f 206 186 207 
f 176 156 208 
f 162 176 208 
f 156 187 208 
f 208 187 209 
f 177 162 209 
f 168 177 209 
f 187 168 209 
f 162 208 209 
f 173 181 210 
f 166 197 210 
f 197 173 210 
f 206 166 210 
f 186 206 210 
f 161 171 211 
f 189 161 211 
f 178 189 211 
f 171 198 211 
f 198 178 211 
f 174 154 212 
f 154 180 212 
f 180 175 212 
f 191 174 212 
f 175 191 212 
f 161 157 213 
f 171 161 213 
f 157 183 213 
f 181 164 214 
f 164 186 214 
f 210 181 214 
f 186 210 214 
f 200 170 215 
f 159 203 215 
f 203 200 215 
f 204 159 215 
f 170 204 215 
f 184 160 216 
f 183 184 216 
f 160 198 216 
f 198 171 216 
f 171 213 216 
o convex_4
v 0.010639 -0.001515 0.009226
v -0.010537 -0.003329 0.008624
v -0.008419 -0.018452 0.008321
v -0.000250 -0.018756 0.018303
v 0.004589 -0.018756 0.001059
v -0.000250 0.003326 -0.000151
v -0.000250 0.003326 0.018303
v -0.005394 -0.018756 0.001362
v 0.005799 -0.018756 0.016184
v -0.006603 -0.003027 0.016789
v 0.005496 0.003326 0.001968
v -0.005092 0.003326 0.001362
v 0.005194 0.003023 0.016789
v 0.008521 -0.018452 0.008926
v -0.006906 0.003326 0.013461
v -0.005998 -0.018756 0.015880
v 0.009427 -0.003329 0.004993
v -0.009629 -0.001515 0.005297
v 0.006100 -0.002122 0.017090
v -0.000250 -0.018756 -0.000151
v 0.006100 -0.001213 0.001059
v -0.009629 -0.003027 0.012855
v 0.009427 -0.003329 0.013158
v -0.005998 -0.000910 0.001061
v 0.007613 0.003326 0.010737
v 0.007613 -0.018756 0.004993
v -0.007813 0.003326 0.008624
v -0.001763 0.003630 0.007412
v -0.007813 -0.018756 0.012251
v -0.005092 0.003326 0.016789
v 0.007613 -0.018756 0.013158
v -0.007511 -0.018756 0.004993
v -0.010537 -0.001213 0.009527
v -0.005394 -0.018756 0.016789
v -0.006300 -0.001213 0.017090
v 0.005496 -0.017242 0.001364
v 0.005496 -0.017847 0.016789
v 0.009427 -0.001213 0.013158
v 0.010639 -0.003027 0.009226
v 0.009126 -0.000305 0.005295
v -0.009327 -0.000910 0.013158
v 0.007310 0.003326 0.006204
v -0.006603 -0.003027 0.001362
v 0.000957 0.000302 0.018303
v 0.000354 -0.018756 0.018303
v 0.002167 0.003630 0.010134
v -0.010537 -0.003027 0.009831
v 0.000654 -0.002120 -0.000151
v -0.009327 -0.002422 0.004690
v 0.004589 0.003326 0.017092
v -0.006906 0.003326 0.004690
v 0.007613 -0.002122 0.002573
v 0.007613 -0.001213 0.015577
v 0.010335 -0.002725 0.007412
v -0.008419 -0.018756 0.009527
v -0.000855 0.000302 -0.000151
v -0.000855 0.000604 0.018303
v 0.007008 0.003326 0.013158
v 0.004286 0.003326 0.001059
v 0.000051 -0.018756 -0.000151
v -0.009327 -0.002725 0.013461
v 0.010639 -0.002422 0.009831
v -0.004789 -0.018756 0.017090
v 0.009427 -0.001213 0.004993
f 217 270 280 
f 221 220 224 
f 220 221 225 
f 224 220 232 
f 221 224 236 
f 228 222 240 
f 234 228 240 
f 236 224 240 
f 225 221 242 
f 222 228 244 
f 243 231 244 
f 224 232 245 
f 232 238 245 
f 244 231 246 
f 239 225 247 
f 225 242 247 
f 242 230 247 
f 219 218 248 
f 224 245 248 
f 234 218 249 
f 231 243 249 
f 232 220 250 
f 223 246 251 
f 226 250 251 
f 221 237 252 
f 242 221 252 
f 233 242 252 
f 225 239 253 
f 246 231 257 
f 249 238 257 
f 231 249 257 
f 251 246 257 
f 241 217 258 
f 217 256 258 
f 256 227 258 
f 240 224 259 
f 223 220 260 
f 235 260 261 
f 220 225 261 
f 225 253 261 
f 253 235 261 
f 260 220 261 
f 246 223 262 
f 244 246 262 
f 241 258 262 
f 258 227 262 
f 245 238 263 
f 249 218 263 
f 238 249 263 
f 236 222 264 
f 222 237 264 
f 218 234 265 
f 234 240 265 
f 248 218 265 
f 224 248 265 
f 259 224 265 
f 240 259 265 
f 235 229 266 
f 223 260 266 
f 260 235 266 
f 262 223 266 
f 228 234 267 
f 244 228 267 
f 243 244 267 
f 234 249 267 
f 249 243 267 
f 233 252 268 
f 252 237 268 
f 229 235 269 
f 235 253 269 
f 253 239 269 
f 254 229 269 
f 239 254 269 
f 230 242 270 
f 242 233 270 
f 217 255 270 
f 255 230 270 
f 218 219 271 
f 219 248 271 
f 248 245 271 
f 263 218 271 
f 245 263 271 
f 222 236 272 
f 240 222 272 
f 236 240 272 
f 220 223 273 
f 251 220 273 
f 223 251 273 
f 217 241 274 
f 229 254 274 
f 254 217 274 
f 241 262 274 
f 266 229 274 
f 262 266 274 
f 237 222 275 
f 227 237 275 
f 222 244 275 
f 262 227 275 
f 244 262 275 
f 221 236 276 
f 237 221 276 
f 236 264 276 
f 264 237 276 
f 238 232 277 
f 250 226 277 
f 232 250 277 
f 226 251 277 
f 257 238 277 
f 251 257 277 
f 247 230 278 
f 239 247 278 
f 217 254 278 
f 254 239 278 
f 255 217 278 
f 230 255 278 
f 250 220 279 
f 220 251 279 
f 251 250 279 
f 237 227 280 
f 256 217 280 
f 227 256 280 
f 268 237 280 
f 233 268 280 
f 270 233 280 
