# https://github.com/mikedh/trimesh
mtllib material0.mtl
usemtl material0
v 0.00000000 -0.01119739 0.01804134
v 0.00000000 -0.01119739 0.00014016
v 0.00000000 -0.08547100 0.01748457
v 0.00000000 -0.08547100 0.00069693
v 0.00000000 -0.06000576 0.00043797
v 0.00000000 -0.06000576 0.01774352
v 0.00000000 -0.08650520 0.01671543
v 0.00000000 -0.08650520 0.00146607
v 0.00000000 -0.03324533 0.01798336
v 0.00000000 -0.03324533 0.00019813
v 0.00000000 -0.05357273 0.01790728
v 0.00000000 -0.05357273 0.00027421
v 0.00000000 -0.00137941 0.00000976
v 0.00000000 -0.00137941 0.01817173
v 0.00000000 -0.07053654 0.01759950
v 0.00000000 -0.07053654 0.00058199
v 0.00000000 -0.08145951 0.01753461
v 0.00000000 -0.08145951 0.00064688
v 0.00000000 -0.00047743 0.01804134
v 0.00000000 -0.00047743 0.00014016
v 0.00000000 0.00314817 0.01804134
v 0.00000000 0.00314817 0.01804134
v 0.00000000 0.00314817 0.00014016
v 0.00000000 0.00314817 0.00014016
v 0.00000000 -0.00535428 0.01804134
v 0.00000000 -0.00535428 0.00014016
v 0.00000000 -0.06570424 0.01761211
v 0.00000000 -0.06570424 0.00056938
v 0.00000000 -0.03619008 0.00047499
v 0.00000000 -0.03619008 0.00047499
v 0.00000000 -0.03619008 0.01770650
v 0.00000000 -0.03619008 0.01770650
v 0.00000000 -0.08423969 0.01804134
v 0.00000000 -0.08423969 0.01804134
v 0.00000000 -0.08423969 0.00014016
v 0.00000000 -0.08423969 0.00014016
v 0.00000000 -0.00356172 0.01807409
v 0.00000000 -0.00356172 0.00010741
v 0.00000000 -0.02568677 0.01804134
v 0.00000000 -0.02568677 0.00014016
v 0.00000000 -0.08789641 0.00278140
v 0.00000000 -0.08789641 0.01540010
v 0.00000000 -0.00233265 0.01804134
v 0.00000000 -0.00233265 0.00014016
v 0.00000000 -0.04770033 0.00056124
v 0.00000000 -0.04770033 0.01762025
v 0.00000000 -0.08030000 0.00909075
v 0.00000000 -0.08030000 0.00909075
v 0.00000000 -0.08030000 0.01758547
v 0.00000000 -0.08030000 0.01758547
v 0.00000000 -0.08030000 0.00059603
v 0.00000000 -0.08030000 0.00059603
v 0.00000000 0.00092842 0.01804134
v 0.00000000 0.00092842 0.01804134
v 0.00000000 0.00092842 0.00014016
v 0.00000000 0.00092842 0.00014016
v 0.00000000 0.00018166 0.00000000
v 0.00000000 0.00018166 0.01818149
v 0.00000000 -0.06896245 0.01761211
v 0.00000000 -0.06896245 0.00056938
v 0.00000000 -0.01886988 0.01804134
v 0.00000000 -0.01886988 0.00014016
v 0.00000000 -0.07109859 0.00909075
v 0.00000000 -0.07109859 0.00909075
v 0.00000000 -0.07109859 0.00909075
v 0.00000000 -0.07109859 0.00909075
v 0.00000000 -0.07109859 0.01758547
v 0.00000000 -0.07109859 0.01758547
v 0.00000000 -0.07109859 0.01758547
v 0.00000000 -0.07109859 0.00059603
v 0.00000000 -0.07109859 0.00059603
v 0.00000000 -0.07109859 0.00059603
v 0.00000000 -0.04173232 0.01742720
v 0.00000000 -0.04173232 0.00075429
v 0.00000000 -0.08729631 0.01600284
v 0.00000000 -0.08729631 0.00217865
v -0.00105454 0.08779653 0.00837429
v -0.00105454 0.08779653 0.00837429
v -0.00105454 0.08779653 0.00959788
v -0.00105454 0.08779653 0.00959788
v -0.00296834 -0.03619008 0.00118351
v -0.00296834 -0.03619008 0.00118351
v -0.00296834 -0.03619008 0.01699798
v -0.00296834 -0.03619008 0.01699798
v -0.00570702 -0.08789641 0.01171551
v -0.00570702 -0.08789641 0.00646599
v 0.00231271 -0.01886988 0.00078155
v 0.00231271 -0.01886988 0.01739994
v 0.00258611 -0.03619008 0.00109238
v 0.00258611 -0.03619008 0.00109238
v 0.00258611 -0.03619008 0.01708911
v 0.00258611 -0.03619008 0.01708911
v -0.00630589 -0.08729631 0.01196612
v -0.00630589 -0.08729631 0.00621537
v 0.00224761 0.08779653 0.00898619
v 0.00224761 0.08779653 0.00898619
v -0.01266386 -0.06000576 0.01269031
v -0.01266386 -0.06000576 0.00549119
v -0.00705266 -0.08729631 0.00909075
v 0.00638299 -0.08789641 0.00909075
v 0.00480301 0.00314817 0.01664077
v 0.00480301 0.00314817 0.01664077
v 0.00480301 0.00314817 0.00154072
v 0.00480301 0.00314817 0.00154072
v 0.00876080 -0.00047743 0.00536730
v 0.00876080 -0.00047743 0.01281419
v -0.00756976 -0.02568677 0.00536730
v -0.00756976 -0.02568677 0.01281419
v -0.01027772 -0.00137941 0.00909075
v -0.01027772 -0.00137941 0.00909075
v -0.00814259 -0.06000576 0.00179195
v -0.00814259 -0.06000576 0.01638954
v 0.00282778 -0.07824544 0.00909075
v 0.00282778 -0.07824544 0.00909075
v 0.00282778 -0.07824544 0.01758547
v 0.00282778 -0.07824544 0.01758547
v 0.00282778 -0.07824544 0.00059603
v 0.00282778 -0.07824544 0.00059603
v 0.00282778 -0.07315316 0.00909075
v 0.00282778 -0.07315316 0.00909075
v 0.00282778 -0.07315316 0.01758547
v 0.00282778 -0.07315316 0.01758547
v 0.00282778 -0.07315316 0.00059603
v 0.00282778 -0.07315316 0.00059603
v -0.01021730 -0.08204577 0.00909075
v -0.01021730 -0.08204577 0.00909075
v 0.00938937 -0.08423969 0.00909075
v 0.00938937 -0.08423969 0.00909075
v 0.00938937 -0.08423969 0.00909075
v 0.00567895 -0.08423969 0.01664077
v 0.00567895 -0.08423969 0.01664077
v 0.00567895 -0.08423969 0.00154072
v 0.00567895 -0.08423969 0.00154072
v 0.00387764 -0.07764941 0.01728969
v 0.00387764 -0.07764941 0.00089180
v 0.00283612 -0.04173232 0.00135174
v 0.00283612 -0.04173232 0.01682975
v 0.00980130 -0.00047743 0.00909075
v 0.00980130 -0.00047743 0.00909075
v -0.00305317 -0.00535428 0.00087634
v -0.00305317 -0.00535428 0.01730515
v -0.00781814 -0.05357273 0.00165382
v -0.00781814 -0.05357273 0.01652767
v -0.00714115 -0.04770033 0.01628560
v -0.00714115 -0.04770033 0.00189590
v -0.00786187 -0.01119739 0.00536730
v -0.00786187 -0.01119739 0.01281419
v 0.01339822 -0.07109859 0.00909075
v 0.01339822 -0.07109859 0.00909075
v 0.00220184 0.00314817 0.00898619
v 0.00220184 0.00314817 0.00898619
v 0.00220184 0.00314817 0.00898619
v 0.00220184 0.08401267 0.00898619
v 0.00220184 0.08401267 0.00898619
v 0.00220184 0.08401267 0.00898619
v 0.00220184 0.08401267 0.00898619
v 0.00104315 0.08675724 0.00958547
v 0.00104315 0.08675724 0.00958547
v 0.00104315 0.08675724 0.00838691
v 0.00104315 0.08675724 0.00838691
v -0.00934604 -0.00233265 0.00536730
v -0.00934604 -0.00233265 0.01281419
v 0.00240547 -0.07907438 0.00909075
v 0.00240547 -0.07907438 0.00909075
v 0.00240547 -0.07907438 0.01758547
v 0.00240547 -0.07907438 0.01758547
v 0.00240547 -0.07907438 0.00059603
v 0.00240547 -0.07907438 0.00059603
v 0.00240547 -0.07232421 0.00909075
v 0.00240547 -0.07232421 0.00909075
v 0.00240547 -0.07232421 0.01758547
v 0.00240547 -0.07232421 0.01758547
v 0.00240547 -0.07232421 0.00059603
v 0.00240547 -0.07232421 0.00059603
v 0.01082879 -0.07575432 0.00542162
v 0.01082879 -0.07575432 0.01275988
v 0.00110357 0.00314817 0.01088859
v 0.00110357 0.00314817 0.01088859
v 0.00110357 0.00314817 0.00708358
v 0.00110357 0.00314817 0.00708358
v -0.00288026 -0.03324533 0.00092944
v -0.00288026 -0.03324533 0.01725206
v -0.00687710 -0.07753325 0.00159239
v -0.00687710 -0.07753325 0.01658910
v 0.01179220 -0.07730745 0.00909075
v 0.01179220 -0.07730745 0.00909075
v 0.00619401 -0.04173232 0.01612265
v 0.00619401 -0.04173232 0.00205884
v -0.00872581 -0.08547100 0.00909075
v -0.00174760 -0.07166655 0.00909075
v -0.00174760 -0.07166655 0.00909075
v -0.00174760 -0.07166655 0.01758547
v -0.00174760 -0.07166655 0.01758547
v -0.00174760 -0.07166655 0.00059603
v -0.00174760 -0.07166655 0.00059603
v -0.00174760 -0.07973205 0.00909075
v -0.00174760 -0.07973205 0.00909075
v -0.00174760 -0.07973205 0.01758547
v -0.00174760 -0.07973205 0.01758547
v -0.00174760 -0.07973205 0.00059603
v -0.00174760 -0.07973205 0.00059603
v -0.00757179 0.00314817 0.00909075
v -0.00757179 0.00314817 0.00909075
v -0.00757179 0.00314817 0.00909075
v -0.00757179 0.00314817 0.00909075
v -0.00060661 0.08779653 0.00792656
v -0.00060661 0.08779653 0.00792656
v -0.00060661 0.08779653 0.01004582
v -0.00060661 0.08779653 0.01004582
v 0.00462705 -0.08872068 0.00631769
v 0.00462705 -0.08872068 0.01165448
v 0.00279136 -0.00356172 0.01743025
v 0.00279136 -0.00356172 0.00075124
v -0.00505078 -0.01886988 0.01664077
v -0.00505078 -0.01886988 0.00154072
v -0.00421756 -0.06570424 0.01702422
v -0.00421756 -0.06570424 0.00115727
v 0.00312518 -0.07110307 0.01732936
v 0.00312518 -0.07110307 0.00085214
v 0.00032141 0.08998352 0.00880351
v 0.00032141 0.08998352 0.00880351
v 0.00032141 0.08998352 0.00880351
v 0.00032141 0.08998352 0.00880351
v 0.00032141 0.08998352 0.00916866
v 0.00032141 0.08998352 0.00916866
v 0.00032141 0.08998352 0.00916866
v 0.00032141 0.08998352 0.00916866
v -0.00098050 0.08401267 0.00727907
v -0.00098050 0.08401267 0.00727907
v -0.00098050 0.08401267 0.00727907
v -0.00098050 0.08401267 0.00727907
v -0.00098050 0.08401267 0.01069331
v -0.00098050 0.08401267 0.01069331
v -0.00098050 0.08401267 0.01069331
v -0.00098050 0.08401267 0.01069331
v -0.00426597 -0.08729631 0.01492124
v -0.00426597 -0.08729631 0.00326025
v -0.01345741 -0.07052230 0.00906613
v -0.01345741 -0.07052230 0.00906613
v 0.00168373 -0.08991822 0.00995529
v 0.00168373 -0.08991822 0.00801708
v -0.00029517 0.08998352 0.00846604
v -0.00029517 0.08998352 0.00846604
v -0.00029517 0.08998352 0.00950614
v -0.00029517 0.08998352 0.00950614
v 0.00266016 -0.00535428 0.00078155
v 0.00266016 -0.00535428 0.01739994
v -0.01132697 -0.07910612 0.00909075
v -0.01132697 -0.07910612 0.00909075
v 0.00548061 -0.03324533 0.01659195
v 0.00548061 -0.03324533 0.00158954
v 0.00899575 0.00018166 0.00909075
v 0.00899575 0.00018166 0.00909075
v -0.00352857 -0.07112951 0.01721056
v -0.00352857 -0.07112951 0.00097094
v 0.00768083 -0.07109859 0.00180395
v 0.00768083 -0.07109859 0.01637754
v 0.00701685 0.00092842 0.00536730
v 0.00701685 0.00092842 0.00536730
v 0.00701685 0.00092842 0.01281419
v 0.00701685 0.00092842 0.01281419
v 0.00357983 -0.05357273 0.01727565
v 0.00357983 -0.05357273 0.00090584
v -0.00708276 -0.07574212 0.00161538
v -0.00708276 -0.07574212 0.01656612
v 0.00682991 0.00314817 0.00536730
v 0.00682991 0.00314817 0.00536730
v 0.00682991 0.00314817 0.01281419
v 0.00682991 0.00314817 0.01281419
v -0.01008182 -0.07910612 0.00536730
v -0.01008182 -0.07910612 0.01281419
v -0.00527780 -0.08547100 0.01617107
v -0.00527780 -0.08547100 0.00201042
v 0.01356075 -0.06976374 0.00909075
v 0.01356075 -0.06976374 0.00909075
v -0.00802481 -0.06570424 0.00168780
v -0.00802481 -0.06570424 0.01649370
v 0.00279401 -0.08959987 0.01059628
v 0.00279401 -0.08959987 0.00737590
v -0.01047707 -0.00233265 0.00909075
v -0.01047707 -0.00233265 0.00909075
v -0.00536059 -0.01119739 0.01664077
v -0.00536059 -0.01119739 0.00154072
v 0.00906451 -0.00356172 0.01282782
v 0.00906451 -0.00356172 0.00535367
v -0.00385506 -0.07390684 0.00091032
v -0.00385506 -0.07390684 0.01727118
v -0.01249970 -0.07438082 0.00909075
v -0.01249970 -0.07438082 0.00909075
v -0.00324316 -0.00137941 0.00075653
v -0.00324316 -0.00137941 0.01742497
v 0.00934157 -0.04173232 0.01255869
v 0.00934157 -0.04173232 0.00562280
v 0.00245450 -0.01119739 0.00078155
v 0.00245450 -0.01119739 0.01739994
v -0.01207475 -0.05357273 0.00542304
v -0.01207475 -0.05357273 0.01275845
v -0.00434144 -0.08921825 0.00898619
v 0.00781834 -0.05357273 0.00165382
v 0.00781834 -0.05357273 0.01652767
v 0.00386055 -0.08789641 0.00376860
v 0.00386055 -0.08789641 0.01441289
v 0.00253261 0.00018166 0.00065136
v 0.00253261 0.00018166 0.01753013
v -0.00839504 -0.08423969 0.00536730
v -0.00839504 -0.08423969 0.00536730
v -0.00839504 -0.08423969 0.01281419
v -0.00839504 -0.08423969 0.01281419
v -0.00278384 -0.08959987 0.01059628
v -0.00278384 -0.08959987 0.00737590
v 0.00778762 0.00092842 0.00909075
v 0.00778762 0.00092842 0.00909075
v 0.00778762 0.00092842 0.00909075
v -0.00553085 0.00018166 0.00142253
v -0.00553085 0.00018166 0.01675896
v -0.01431870 -0.06000576 0.00909075
v -0.01431870 -0.06000576 0.00909075
v -0.00564802 -0.03619008 0.00182307
v -0.00564802 -0.03619008 0.00182307
v -0.00564802 -0.03619008 0.01635842
v -0.00564802 -0.03619008 0.01635842
v -0.01105560 -0.07437756 0.01276069
v -0.01105560 -0.07437756 0.00542080
v -0.00958445 -0.00535428 0.00909075
v -0.00958445 -0.00535428 0.00909075
v -0.00877727 -0.01119739 0.00909075
v -0.00877727 -0.01119739 0.00909075
v -0.00768367 -0.07051192 0.00168210
v -0.00768367 -0.07051192 0.01649939
v 0.01186624 -0.07109859 0.00549709
v 0.01186624 -0.07109859 0.01268441
v -0.00386076 -0.08789641 0.00376860
v -0.00386076 -0.08789641 0.01441289
v 0.00030534 0.08998352 0.00846604
v 0.00030534 0.08998352 0.00846604
v 0.00030534 0.08998352 0.00950614
v 0.00030534 0.08998352 0.00950614
v -0.00167356 -0.08991822 0.00995529
v -0.00167356 -0.08991822 0.00801708
v -0.00591776 -0.00047743 0.01664077
v -0.00591776 -0.00047743 0.00154072
v -0.00844346 -0.02568677 0.00909075
v -0.00844346 -0.02568677 0.00909075
v -0.01066137 -0.07629177 0.00539924
v -0.01066137 -0.07629177 0.01278225
v -0.00917720 -0.00137941 0.01286851
v -0.00917720 -0.00137941 0.00531299
v 0.00099067 0.08401267 0.00727907
v 0.00099067 0.08401267 0.00727907
v 0.00099067 0.08401267 0.00727907
v 0.00099067 0.08401267 0.00727907
v 0.00099067 0.08401267 0.01069331
v 0.00099067 0.08401267 0.01069331
v 0.00099067 0.08401267 0.01069331
v 0.00099067 0.08401267 0.01069331
v -0.00031124 0.08998352 0.00880351
v -0.00031124 0.08998352 0.00880351
v -0.00031124 0.08998352 0.00880351
v -0.00031124 0.08998352 0.00880351
v -0.00031124 0.08998352 0.00916866
v -0.00031124 0.08998352 0.00916866
v -0.00031124 0.08998352 0.00916866
v -0.00031124 0.08998352 0.00916866
v -0.00638279 -0.08789641 0.00909075
v -0.00609637 -0.00356172 0.00151326
v -0.00609637 -0.00356172 0.01666823
v -0.00780186 -0.08547100 0.01258270
v -0.00780186 -0.08547100 0.00559880
v 0.00705286 -0.08729631 0.00909075
v 0.00000488 0.09000000 0.00880351
v 0.00000488 0.09000000 0.00866987
v 0.00000488 0.09000000 0.00866987
v 0.00297322 -0.07569920 0.00909075
v 0.00297322 -0.07569920 0.00909075
v 0.00297322 -0.07569920 0.01758547
v 0.00297322 -0.07569920 0.01758547
v 0.00297322 -0.07569920 0.00059603
v 0.00297322 -0.07569920 0.00059603
v 0.00297322 -0.07407182 0.00909075
v 0.00297322 -0.07407182 0.00909075
v 0.00297322 -0.07407182 0.01758547
v 0.00297322 -0.07407182 0.01758547
v 0.00297322 -0.07407182 0.00059603
v 0.00297322 -0.07407182 0.00059603
v 0.00297322 -0.07732658 0.00909075
v 0.00297322 -0.07732658 0.00909075
v 0.00297322 -0.07732658 0.01758547
v 0.00297322 -0.07732658 0.01758547
v 0.00297322 -0.07732658 0.00059603
v 0.00297322 -0.07732658 0.00059603
v -0.00461688 -0.08872068 0.00631769
v -0.00461688 -0.08872068 0.01165448
v 0.00061678 0.08779653 0.00792656
v 0.00061678 0.08779653 0.00792656
v 0.00061678 0.08779653 0.01004582
v 0.00061678 0.08779653 0.01004582
v 0.00372833 -0.06000576 0.01712349
v 0.00372833 -0.06000576 0.00105800
v 0.00804597 -0.03324533 0.00539131
v 0.00804597 -0.03324533 0.01279019
v 0.00286439 -0.00233265 0.00078155
v 0.00286439 -0.00233265 0.01739994
v -0.00390551 -0.07758248 0.01733770
v -0.00390551 -0.07758248 0.00084380
v 0.01049355 -0.04173232 0.00909075
v 0.01049355 -0.04173232 0.00909075
v -0.00617082 -0.00137941 0.01675082
v -0.00617082 -0.00137941 0.00143067
v -0.00109340 0.00314817 0.01088859
v -0.00109340 0.00314817 0.01088859
v -0.00109340 0.00314817 0.00708358
v -0.00109340 0.00314817 0.00708358
v 0.00707788 -0.07572910 0.00166318
v 0.00707788 -0.07572910 0.01651831
v -0.00103298 0.08675724 0.00958547
v -0.00103298 0.08675724 0.00958547
v -0.00103298 0.08675724 0.00838691
v -0.00103298 0.08675724 0.00838691
v -0.00702174 -0.08650520 0.01226271
v -0.00702174 -0.08650520 0.00591878
v -0.00728212 -0.07400774 0.01654394
v -0.00728212 -0.07400774 0.00163755
v 0.00806733 0.00018166 0.01287257
v 0.00806733 0.00018166 0.00530892
v -0.00219167 0.00314817 0.00898619
v -0.00219167 0.00314817 0.00898619
v -0.00219167 0.00314817 0.00898619
v -0.00219167 0.00314817 0.00898619
v -0.00219167 0.08401267 0.00898619
v -0.00219167 0.08401267 0.00898619
v -0.00219167 0.08401267 0.00898619
v -0.00219167 0.08401267 0.00898619
v -0.00818043 -0.01886988 0.00909075
v -0.00818043 -0.01886988 0.00909075
v 0.00426577 -0.08729631 0.01492124
v 0.00426577 -0.08729631 0.00326025
v 0.00834907 -0.03619008 0.01267485
v 0.00834907 -0.03619008 0.01267485
v 0.00834907 -0.03619008 0.00550665
v 0.00834907 -0.03619008 0.00550665
v -0.01015098 -0.00356172 0.00909075
v -0.01015098 -0.00356172 0.00909075
v -0.00427940 -0.06000576 0.00114974
v -0.00427940 -0.06000576 0.01703175
v 0.00734192 -0.01886988 0.00536730
v 0.00734192 -0.01886988 0.01281419
v -0.00518239 -0.02568677 0.01664077
v -0.00518239 -0.02568677 0.00154072
v 0.00617021 -0.08144059 0.00156635
v 0.00617021 -0.08144059 0.01661514
v -0.01094982 -0.04770033 0.00554245
v -0.01094982 -0.04770033 0.01263904
v 0.01405507 -0.06570424 0.00909075
v 0.01405507 -0.06570424 0.00909075
v 0.00091886 -0.07124424 0.00909075
v 0.00091886 -0.07124424 0.00909075
v 0.00091886 -0.07124424 0.00063203
v 0.00091886 -0.07124424 0.00063203
v 0.00091886 -0.07124424 0.01754946
v 0.00091886 -0.07124424 0.01754946
v 0.00091886 -0.08015435 0.00909075
v 0.00091886 -0.08015435 0.00909075
v 0.00091886 -0.08015435 0.01758547
v 0.00091886 -0.08015435 0.01758547
v 0.00091886 -0.08015435 0.00059603
v 0.00091886 -0.08015435 0.00059603
v 0.00000285 0.00314817 0.01118295
v 0.00000285 0.00314817 0.01118295
v 0.00000285 0.08401267 0.01118295
v 0.00000285 0.08401267 0.01118295
v 0.00000285 0.08779653 0.01122851
v 0.00580934 -0.00535428 0.01664077
v 0.00580934 -0.00535428 0.00154072
v 0.00491103 0.00092842 0.01664077
v 0.00491103 0.00092842 0.01664077
v 0.00491103 0.00092842 0.00154072
v 0.00491103 0.00092842 0.00154072
v 0.00785333 -0.08650520 0.00909075
v -0.01196633 -0.06974502 0.01271370
v -0.01196633 -0.06974502 0.00546779
v -0.01234388 -0.04770033 0.00909075
v -0.01234388 -0.04770033 0.00909075
v -0.00898497 -0.03324533 0.00909075
v -0.00898497 -0.03324533 0.00909075
v 0.00475012 -0.08650520 0.01552235
v 0.00475012 -0.08650520 0.00265914
v -0.01363276 -0.05357273 0.00909075
v -0.01363276 -0.05357273 0.00909075
v -0.00625565 -0.00233265 0.01664077
v -0.00625565 -0.00233265 0.00154072
v 0.00776586 -0.06976374 0.00169817
v 0.00776586 -0.06976374 0.01648332
v 0.00857304 -0.00535428 0.00536730
v 0.00857304 -0.00535428 0.01281419
v -0.00408147 -0.06938354 0.01702422
v -0.00408147 -0.06938354 0.00115727
v -0.00857304 -0.00535428 0.00536730
v -0.00857304 -0.00535428 0.01281419
v -0.00776586 -0.06976374 0.00168780
v -0.00776586 -0.06976374 0.01649370
v 0.00625565 -0.00233265 0.01664077
v 0.00625565 -0.00233265 0.00154072
v -0.00223744 0.08779653 0.00898619
v -0.00223744 0.08779653 0.00898619
v 0.01363276 -0.05357273 0.00909075
v 0.01363276 -0.05357273 0.00909075
v 0.00270979 -0.00047743 0.00078155
v 0.00270979 -0.00047743 0.01739994
v -0.00475012 -0.08650520 0.01552235
v -0.00475012 -0.08650520 0.00265914
v 0.00898497 -0.03324533 0.00909075
v 0.00898497 -0.03324533 0.00909075
v 0.01234388 -0.04770033 0.00909075
v 0.01234388 -0.04770033 0.00909075
v 0.00355603 -0.06932943 0.00108628
v 0.00355603 -0.06932943 0.01709522
v -0.00785333 -0.08650520 0.00909075
v -0.00491103 0.00092842 0.01664077
v -0.00491103 0.00092842 0.01664077
v -0.00491103 0.00092842 0.00154072
v -0.00491103 0.00092842 0.00154072
v -0.00580934 -0.00535428 0.01664077
v -0.00580934 -0.00535428 0.00154072
v 0.00730083 -0.07401649 0.00171526
v 0.00730083 -0.07401649 0.01646624
v 0.01263864 -0.07403500 0.00909075
v 0.01263864 -0.07403500 0.00909075
v 0.00106471 0.08779653 0.00837429
v 0.00106471 0.08779653 0.00837429
v 0.00106471 0.08779653 0.00959788
v 0.00106471 0.08779653 0.00959788
v -0.00266341 -0.08872068 0.01360795
v -0.00266341 -0.08872068 0.00436423
v -0.00091886 -0.07124424 0.00909075
v -0.00091886 -0.07124424 0.00909075
v -0.00091886 -0.07124424 0.01758547
v -0.00091886 -0.07124424 0.01758547
v -0.00091886 -0.07124424 0.00059603
v -0.00091886 -0.07124424 0.00059603
v -0.00091886 -0.08015435 0.00909075
v -0.00091886 -0.08015435 0.00909075
v -0.00091886 -0.08015435 0.01758547
v -0.00091886 -0.08015435 0.01758547
v -0.00091886 -0.08015435 0.00059603
v -0.00091886 -0.08015435 0.00059603
v 0.00018776 0.08998352 0.00930231
v 0.00018776 0.08998352 0.00930231
v 0.00018776 0.08998352 0.00930231
v 0.00018776 0.08998352 0.00930231
v 0.00018776 0.08998352 0.00866987
v 0.00018776 0.08998352 0.00866987
v 0.00018776 0.08998352 0.00866987
v 0.00018776 0.08998352 0.00866987
v 0.00060437 0.08675724 0.01002405
v 0.00060437 0.08675724 0.01002405
v 0.00060437 0.08675724 0.00794812
v 0.00060437 0.08675724 0.00794812
v -0.01405507 -0.06570424 0.00909075
v -0.01405507 -0.06570424 0.00909075
v 0.00303893 -0.08088688 0.01730739
v 0.00303893 -0.08088688 0.00087411
v 0.01094982 -0.04770033 0.00554245
v 0.01094982 -0.04770033 0.01263904
v 0.00518239 -0.02568677 0.01664077
v 0.00518239 -0.02568677 0.00154072
v -0.00734192 -0.01886988 0.00536730
v -0.00734192 -0.01886988 0.01281419
v 0.01015098 -0.00356172 0.00909075
v 0.01015098 -0.00356172 0.00909075
v -0.00834907 -0.03619008 0.01267485
v -0.00834907 -0.03619008 0.01267485
v -0.00834907 -0.03619008 0.00550665
v -0.00834907 -0.03619008 0.00550665
v 0.00299051 -0.08423969 0.01730373
v 0.00299051 -0.08423969 0.00087777
v -0.00160521 -0.08959987 0.01177511
v -0.00160521 -0.08959987 0.00619727
v 0.00000448 0.08998352 0.00965545
v 0.01200803 -0.06976374 0.01269865
v 0.01200803 -0.06976374 0.00548285
v 0.00818043 -0.01886988 0.00909075
v 0.00818043 -0.01886988 0.00909075
v -0.00806733 0.00018166 0.01287257
v -0.00806733 0.00018166 0.00530892
v 0.00913082 -0.08200082 0.00536730
v 0.00913082 -0.08200082 0.01281419
v 0.00702174 -0.08650520 0.01226271
v 0.00702174 -0.08650520 0.00591878
v 0.00052524 0.08998352 0.00868594
v 0.00052524 0.08998352 0.00868594
v 0.00052524 0.08998352 0.00928644
v 0.00052524 0.08998352 0.00928644
v -0.00066417 0.08998352 0.00898619
v -0.00066417 0.08998352 0.00898619
v 0.00617082 -0.00137941 0.01675082
v 0.00617082 -0.00137941 0.00143067
v -0.01049355 -0.04173232 0.00909075
v -0.01049355 -0.04173232 0.00909075
v -0.00804597 -0.03324533 0.00539131
v -0.00804597 -0.03324533 0.01279019
v -0.00297322 -0.07569920 0.00909075
v -0.00297322 -0.07569920 0.00909075
v -0.00297322 -0.07569920 0.01758547
v -0.00297322 -0.07569920 0.01758547
v -0.00297322 -0.07569920 0.00059603
v -0.00297322 -0.07569920 0.00059603
v -0.00297322 -0.07407182 0.00909075
v -0.00297322 -0.07407182 0.00909075
v -0.00297322 -0.07407182 0.01758547
v -0.00297322 -0.07407182 0.01758547
v -0.00297322 -0.07407182 0.00059603
v -0.00297322 -0.07407182 0.00059603
v -0.00297322 -0.07732658 0.00909075
v -0.00297322 -0.07732658 0.00909075
v -0.00297322 -0.07732658 0.01758547
v -0.00297322 -0.07732658 0.01758547
v -0.00297322 -0.07732658 0.00059603
v -0.00297322 -0.07732658 0.00059603
v -0.00170204 0.08401267 0.00800061
v -0.00170204 0.08401267 0.00800061
v -0.00170204 0.08401267 0.00800061
v -0.00170204 0.08401267 0.00800061
v -0.00170204 0.08401267 0.00997177
v -0.00170204 0.08401267 0.00997177
v -0.00170204 0.08401267 0.00997177
v -0.00170204 0.08401267 0.00997177
v 0.00780186 -0.08547100 0.01258270
v 0.00780186 -0.08547100 0.00559880
v 0.00194329 -0.08991822 0.00898619
v 0.00609637 -0.00356172 0.00151326
v 0.00609637 -0.00356172 0.01666823
v -0.00189732 0.00314817 0.01008447
v -0.00189732 0.00314817 0.01008447
v -0.00189732 0.00314817 0.00788771
v -0.00189732 0.00314817 0.00788771
v 0.00237292 -0.02568677 0.00078155
v 0.00237292 -0.02568677 0.01739994
v -0.00375904 -0.08921825 0.01115935
v -0.00375904 -0.08921825 0.00681282
v 0.00387845 -0.07371095 0.00092313
v 0.00387845 -0.07371095 0.01725836
v 0.00917720 -0.00137941 0.01286851
v 0.00917720 -0.00137941 0.00531299
v -0.00320390 -0.00356172 0.00084624
v -0.00320390 -0.00356172 0.01733526
v 0.00844346 -0.02568677 0.00909075
v 0.00844346 -0.02568677 0.00909075
v 0.00591776 -0.00047743 0.01664077
v 0.00591776 -0.00047743 0.00154072
v 0.01219294 -0.07575839 0.00909075
v 0.01219294 -0.07575839 0.00909075
v -0.00173743 0.08779653 0.00798006
v -0.00173743 0.08779653 0.00798006
v -0.00173743 0.08779653 0.00999232
v -0.00173743 0.08779653 0.00999232
v 0.00686347 -0.07729606 0.00162046
v 0.00686347 -0.07729606 0.01656103
v 0.00877727 -0.01119739 0.00909075
v 0.00877727 -0.01119739 0.00909075
v 0.00958445 -0.00535428 0.00909075
v 0.00958445 -0.00535428 0.00909075
v 0.00097419 -0.08991822 0.01066463
v 0.00097419 -0.08991822 0.00730755
v 0.00564802 -0.03619008 0.00182307
v 0.00564802 -0.03619008 0.00182307
v 0.00564802 -0.03619008 0.01635842
v 0.00564802 -0.03619008 0.01635842
v 0.01431870 -0.06000576 0.00909075
v 0.01431870 -0.06000576 0.00909075
v 0.00553085 0.00018166 0.00142253
v 0.00553085 0.00018166 0.01675896
v -0.00778762 0.00092842 0.00909075
v -0.00778762 0.00092842 0.00909075
v -0.00778762 0.00092842 0.00909075
v -0.00778762 0.00092842 0.00909075
v 0.00839504 -0.08423969 0.00536730
v 0.00839504 -0.08423969 0.00536730
v 0.00839504 -0.08423969 0.01281419
v 0.00839504 -0.08423969 0.01281419
v -0.00533170 -0.08872068 0.00898619
v -0.01237500 -0.06570424 0.00543972
v -0.01237500 -0.06570424 0.01274177
v 0.01243928 -0.06570424 0.00543972
v 0.01243928 -0.06570424 0.01274177
v -0.00328771 -0.00233265 0.00087634
v -0.00328771 -0.00233265 0.01730515
v -0.00619096 -0.08137346 0.01661860
v -0.00619096 -0.08137346 0.00156289
v 0.01207475 -0.05357273 0.00542304
v 0.01207475 -0.05357273 0.01275845
v -0.00216808 -0.08921825 0.00522206
v -0.00216808 -0.08921825 0.01275032
v -0.00934157 -0.04173232 0.01255869
v -0.00934157 -0.04173232 0.00562280
v -0.00265446 -0.01886988 0.00087634
v -0.00265446 -0.01886988 0.01730515
v -0.00100104 0.08779653 0.01072870
v -0.00100104 0.08779653 0.01072870
v -0.00100104 0.08779653 0.00724347
v -0.00100104 0.08779653 0.00724347
v -0.00031103 0.09000000 0.00898619
v -0.00031103 0.09000000 0.00898619
v -0.00031103 0.09000000 0.00898619
v -0.00311013 -0.00047743 0.00087634
v -0.00311013 -0.00047743 0.01730515
v 0.00408940 -0.07571466 0.01728725
v 0.00408940 -0.07571466 0.00089425
v 0.01023439 -0.08200082 0.00909075
v 0.01023439 -0.08200082 0.00909075
v -0.00906451 -0.00356172 0.01282782
v -0.00906451 -0.00356172 0.00535367
v 0.00322547 -0.08959987 0.00898619
v 0.00536059 -0.01119739 0.01664077
v 0.00536059 -0.01119739 0.00154072
v 0.01047707 -0.00233265 0.00909075
v 0.01047707 -0.00233265 0.00909075
v -0.00258102 0.00092842 0.00087634
v -0.00258102 0.00092842 0.01730515
v -0.00310179 -0.08423969 0.01727626
v -0.00310179 -0.08423969 0.00090523
v 0.00250942 -0.03324533 0.00083525
v 0.00250942 -0.03324533 0.01734624
v -0.00933791 -0.03618987 0.00909075
v -0.00933791 -0.03618987 0.00909075
v -0.00933791 -0.03618987 0.00909075
v -0.00933791 -0.03618987 0.00909075
v 0.00000509 -0.09000000 0.00898619
v 0.00000509 0.08998352 0.00831693
v 0.00000509 -0.08991822 0.01092440
v 0.00000509 -0.08991822 0.00704777
v 0.00000509 0.00314817 0.00678943
v 0.00000509 0.00314817 0.00678943
v 0.00000509 -0.08921825 0.01333251
v 0.00000509 -0.08921825 0.00463966
v 0.00000509 -0.08959987 0.01220657
v 0.00000509 -0.08959987 0.00576581
v 0.00000509 0.08401267 0.00678943
v 0.00000509 0.08401267 0.00678943
v 0.00000509 0.08779653 0.00674366
v 0.00000509 -0.08872068 0.01432298
v 0.00000509 -0.08872068 0.00364920
v -0.00410893 -0.05357273 0.00099921
v -0.00410893 -0.05357273 0.01718228
v 0.00802481 -0.06570424 0.01652726
v 0.00802481 -0.06570424 0.00165423
v -0.01356075 -0.06976374 0.00909075
v -0.01356075 -0.06976374 0.00909075
v 0.00527780 -0.08547100 0.01617107
v 0.00527780 -0.08547100 0.00201042
v -0.00682991 0.00314817 0.00536730
v -0.00682991 0.00314817 0.00536730
v -0.00682991 0.00314817 0.01281419
v -0.00682991 0.00314817 0.01281419
v -0.01202451 -0.07629522 0.00909075
v -0.01202451 -0.07629522 0.00909075
v 0.00282554 -0.00137941 0.00066031
v 0.00282554 -0.00137941 0.01752118
v -0.00701685 0.00092842 0.00536730
v -0.00701685 0.00092842 0.00536730
v -0.00701685 0.00092842 0.01281419
v -0.00701685 0.00092842 0.01281419
v -0.00899575 0.00018166 0.00909075
v -0.00899575 0.00018166 0.00909075
v -0.00321530 -0.08959987 0.00898619
v -0.00548061 -0.03324533 0.01659195
v -0.00548061 -0.03324533 0.00158954
v 0.00032120 0.09000000 0.00898619
v 0.00032120 0.09000000 0.00898619
v 0.00032120 0.09000000 0.00898619
v 0.00101121 0.08779653 0.01072870
v 0.00101121 0.08779653 0.01072870
v 0.00101121 0.08779653 0.00724347
v 0.00101121 0.08779653 0.00724347
v 0.00534187 -0.08872068 0.00898619
v 0.00217825 -0.08921825 0.00522206
v 0.00217825 -0.08921825 0.01275032
v -0.00345066 -0.08090193 0.01721829
v -0.00345066 -0.08090193 0.00096321
v -0.00325537 -0.04173232 0.01674147
v -0.00325537 -0.04173232 0.00144003
v -0.00096402 -0.08991822 0.01066463
v -0.00096402 -0.08991822 0.00730755
v 0.00505078 -0.01886988 0.01664077
v 0.00505078 -0.01886988 0.00154072
v 0.00757179 0.00314817 0.00909075
v 0.00757179 0.00314817 0.00909075
v -0.00281740 -0.01119739 0.00087634
v -0.00281740 -0.01119739 0.01730515
v 0.00933770 -0.03618987 0.00909075
v 0.00933770 -0.03618987 0.00909075
v 0.00933770 -0.03618987 0.00909075
v 0.00933770 -0.03618987 0.00909075
v 0.01121244 -0.07403235 0.01273201
v 0.01121244 -0.07403235 0.00544948
v 0.00174760 -0.07166655 0.00909075
v 0.00174760 -0.07166655 0.00909075
v 0.00174760 -0.07166655 0.01758547
v 0.00174760 -0.07166655 0.01758547
v 0.00174760 -0.07166655 0.00059603
v 0.00174760 -0.07166655 0.00059603
v 0.00174760 -0.07973205 0.00909075
v 0.00174760 -0.07973205 0.00909075
v 0.00174760 -0.07973205 0.01758547
v 0.00174760 -0.07973205 0.01758547
v 0.00174760 -0.07973205 0.00059603
v 0.00174760 -0.07973205 0.00059603
v 0.00174760 0.08779653 0.00798006
v 0.00174760 0.08779653 0.00798006
v 0.00174760 0.08779653 0.00999232
v 0.00174760 0.08779653 0.00999232
v 0.00872581 -0.08547100 0.00909075
v -0.00619401 -0.04173232 0.01612265
v -0.00619401 -0.04173232 0.00205884
v 0.00367442 -0.06570424 0.01711536
v 0.00367442 -0.06570424 0.00106614
v 0.00435141 -0.08921825 0.00898619
v -0.00240547 -0.07907438 0.00909075
v -0.00240547 -0.07907438 0.00909075
v -0.00240547 -0.07907438 0.01758547
v -0.00240547 -0.07907438 0.01758547
v -0.00240547 -0.07907438 0.00059603
v -0.00240547 -0.07907438 0.00059603
v -0.00240547 -0.07232421 0.00909075
v -0.00240547 -0.07232421 0.00909075
v -0.00240547 -0.07232421 0.01758547
v -0.00240547 -0.07232421 0.01758547
v -0.00240547 -0.07232421 0.00059603
v -0.00240547 -0.07232421 0.00059603
v 0.00934604 -0.00233265 0.00536730
v 0.00934604 -0.00233265 0.01281419
v 0.00786187 -0.01119739 0.00536730
v 0.00786187 -0.01119739 0.01281419
v 0.00376921 -0.08921825 0.01115935
v 0.00376921 -0.08921825 0.00681282
v 0.00190749 0.00314817 0.01008447
v 0.00190749 0.00314817 0.01008447
v 0.00190749 0.00314817 0.00788771
v 0.00190749 0.00314817 0.00788771
v -0.00193312 -0.08991822 0.00898619
v 0.00714115 -0.04770033 0.01628560
v 0.00714115 -0.04770033 0.00189590
v 0.00171221 0.08401267 0.00800061
v 0.00171221 0.08401267 0.00800061
v 0.00171221 0.08401267 0.00800061
v 0.00171221 0.08401267 0.00800061
v 0.00171221 0.08401267 0.00997177
v 0.00171221 0.08401267 0.00997177
v 0.00171221 0.08401267 0.00997177
v 0.00171221 0.08401267 0.00997177
v -0.00980130 -0.00047743 0.00909075
v -0.00980130 -0.00047743 0.00909075
v 0.00326981 -0.04770033 0.01700917
v 0.00326981 -0.04770033 0.00117232
v 0.00067435 0.08998352 0.00898619
v 0.00067435 0.08998352 0.00898619
v -0.01184997 -0.07051965 0.01271696
v -0.01184997 -0.07051965 0.00546454
v -0.00567895 -0.08423969 0.01664077
v -0.00567895 -0.08423969 0.01664077
v -0.00567895 -0.08423969 0.00154072
v -0.00567895 -0.08423969 0.00154072
v -0.00938937 -0.08423969 0.00909075
v -0.00938937 -0.08423969 0.00909075
v -0.00938937 -0.08423969 0.00909075
v -0.00272362 -0.02568677 0.00087634
v -0.00272362 -0.02568677 0.01730515
v -0.00911597 -0.08204577 0.00536730
v -0.00911597 -0.08204577 0.01281419
v -0.00282778 -0.07824544 0.00909075
v -0.00282778 -0.07824544 0.00909075
v -0.00282778 -0.07824544 0.01758547
v -0.00282778 -0.07824544 0.01758547
v -0.00282778 -0.07824544 0.00059603
v -0.00282778 -0.07824544 0.00059603
v -0.00282778 -0.07315316 0.00909075
v -0.00282778 -0.07315316 0.00909075
v -0.00282778 -0.07315316 0.01758547
v -0.00282778 -0.07315316 0.01758547
v -0.00282778 -0.07315316 0.00059603
v -0.00282778 -0.07315316 0.00059603
v 0.00814259 -0.06000576 0.00179195
v 0.00814259 -0.06000576 0.01638954
v 0.01027772 -0.00137941 0.00909075
v 0.01027772 -0.00137941 0.00909075
v -0.00051507 0.08998352 0.00868594
v -0.00051507 0.08998352 0.00868594
v -0.00051507 0.08998352 0.00928644
v -0.00051507 0.08998352 0.00928644
v 0.00756976 -0.02568677 0.00536730
v 0.00756976 -0.02568677 0.01281419
v 0.00161538 -0.08959987 0.01177511
v 0.00161538 -0.08959987 0.00619727
v -0.00876080 -0.00047743 0.00536730
v -0.00876080 -0.00047743 0.01281419
v 0.01048134 -0.07731315 0.01278510
v 0.01048134 -0.07731315 0.00539639
v -0.00480301 0.00314817 0.01664077
v -0.00480301 0.00314817 0.01664077
v -0.00480301 0.00314817 0.00154072
v -0.00480301 0.00314817 0.00154072
v -0.00397447 -0.07567580 0.01733546
v -0.00397447 -0.07567580 0.00084603
v -0.00290691 0.00018166 0.00074778
v -0.00290691 0.00018166 0.01743371
v -0.00375314 -0.04770033 0.01691885
v -0.00375314 -0.04770033 0.00126264
v 0.00224863 0.00092842 0.00078155
v 0.00224863 0.00092842 0.01739994
v 0.01266386 -0.06000576 0.01269031
v 0.01266386 -0.06000576 0.00549119
v 0.00000468 0.09000000 0.00898619
v 0.00000468 0.09000000 0.00930231
v 0.00000468 0.09000000 0.00930231
v 0.00000468 0.09000000 0.00916866
v 0.00267358 -0.08872068 0.01360795
v 0.00267358 -0.08872068 0.00436423
v 0.00630589 -0.08729631 0.01196612
v 0.00630589 -0.08729631 0.00621537
v -0.00059420 0.08675724 0.01002405
v -0.00059420 0.08675724 0.01002405
v -0.00059420 0.08675724 0.00794812
v -0.00059420 0.08675724 0.00794812
v -0.00017759 0.08998352 0.00930231
v -0.00017759 0.08998352 0.00930231
v -0.00017759 0.08998352 0.00930231
v -0.00017759 0.08998352 0.00930231
v -0.00017759 0.08998352 0.00866987
v -0.00017759 0.08998352 0.00866987
v -0.00017759 0.08998352 0.00866987
v -0.00017759 0.08998352 0.00866987
v 0.00570702 -0.08789641 0.01171551
v 0.00570702 -0.08789641 0.00646599
vt 0.58965900 0.22942700
vt 0.20040200 0.22942700
vt 0.76578600 0.14053300
vt 0.96885400 0.11591500
vt 0.19329700 0.73104100
vt 0.58255300 0.73104100
vt 0.77955100 0.13888700
vt 0.95509200 0.11760100
vt 0.58637800 0.45043700
vt 0.19712100 0.45043700
vt 0.58342200 0.66640200
vt 0.19416600 0.66640200
vt 0.20187500 0.13055400
vt 0.59113100 0.13055400
vt 0.58150600 0.82894600
vt 0.19225000 0.82894600
vt 0.58116200 0.96810000
vt 0.19190600 0.96810000
vt 0.59126900 0.12129100
vt 0.20201300 0.12129100
vt 0.82525900 0.62737700
vt 0.75343000 0.48634100
vt 0.82525900 0.86188600
vt 0.75343000 0.35711800
vt 0.59052900 0.17101900
vt 0.20127200 0.17101900
vt 0.58190200 0.78752400
vt 0.19264600 0.78752400
vt 0.19668200 0.49128100
vt 0.19668200 0.48027000
vt 0.58593800 0.49128100
vt 0.58593800 0.48027000
vt 0.75099000 0.14229600
vt 0.58133700 0.98599700
vt 0.98365300 0.11410100
vt 0.19208000 0.98599700
vt 0.59079800 0.15290900
vt 0.20154200 0.15290900
vt 0.58750200 0.37449500
vt 0.19824600 0.37449500
vt 0.93520800 0.12003400
vt 0.79946200 0.13649800
vt 0.59098500 0.14039900
vt 0.20172900 0.14039900
vt 0.19499600 0.60732400
vt 0.58425200 0.60732400
vt 0.11280300 0.02075800
vt 0.32054800 0.08221900
vt 0.11280300 0.08129000
vt 0.58094700 0.94830800
vt 0.19169100 0.94830800
vt 0.32054800 0.02165800
vt 0.84511200 0.62606800
vt 0.59148500 0.10684100
vt 0.84511200 0.86319500
vt 0.20222900 0.10684100
vt 0.20211500 0.11444000
vt 0.59137200 0.11444000
vt 0.58170400 0.80823500
vt 0.19244800 0.80823500
vt 0.58851800 0.30607600
vt 0.19926200 0.30607600
vt 0.41007100 0.08221900
vt 0.23102500 0.08221900
vt 0.20228500 0.02075800
vt 0.02332200 0.02075800
vt 0.58140900 0.83913400
vt 0.20228500 0.08129000
vt 0.02332200 0.08129100
vt 0.41007100 0.02165800
vt 0.23102500 0.02165800
vt 0.19215200 0.83913400
vt 0.58511800 0.54729600
vt 0.19586200 0.54729600
vt 0.79069000 0.13755200
vt 0.94396500 0.11896300
vt 0.36899400 0.13031800
vt 0.66182300 0.05307700
vt 0.37198000 0.23520900
vt 0.40346500 0.43568500
vt 0.16540200 0.49093200
vt 0.16540200 0.47992100
vt 0.55465900 0.49093200
vt 0.55465900 0.47992100
vt 0.83138800 0.06940400
vt 0.88801900 0.06250600
vt 0.22377400 0.30635900
vt 0.61303000 0.30635900
vt 0.22393400 0.49172500
vt 0.22393400 0.48071400
vt 0.61319000 0.49172500
vt 0.61319000 0.48071400
vt 0.82672000 0.06147500
vt 0.89067700 0.05370400
vt 0.42310700 0.23746500
vt 0.61093500 0.05508700
vt 0.43894200 0.73016900
vt 0.04968500 0.73016900
vt 0.85770400 0.04948000
vt 0.87568200 0.19792800
vt 0.82525900 0.67201200
vt 0.75343000 0.46040600
vt 0.82525900 0.81725200
vt 0.75343000 0.38269100
vt 0.30625500 0.12067700
vt 0.69551100 0.12067700
vt 0.09846800 0.37265000
vt 0.48772400 0.37265000
vt 0.05759300 0.12154900
vt 0.44684900 0.12154900
vt 0.10857000 0.73067300
vt 0.49782600 0.73067300
vt 0.08628800 0.02075800
vt 0.29402000 0.08221900
vt 0.62245300 0.92457600
vt 0.08628800 0.08129100
vt 0.23319600 0.92457600
vt 0.29402000 0.02165800
vt 0.25755200 0.08221900
vt 0.04983700 0.02075900
vt 0.62170500 0.86294600
vt 0.04983700 0.08129100
vt 0.25755200 0.02165800
vt 0.23244800 0.86294600
vt 0.03211700 0.96558100
vt 0.42137400 0.96558100
vt 0.88177200 0.24753700
vt 0.34501900 0.99019300
vt 0.73427500 0.99019300
vt 0.64644900 0.98357500
vt 0.77989000 0.21062100
vt 0.25719300 0.98357500
vt 0.97191300 0.18757200
vt 0.63563500 0.91804800
vt 0.24637900 0.91804800
vt 0.22589900 0.54776900
vt 0.61515600 0.54776900
vt 0.34379900 0.11546800
vt 0.73305500 0.11546800
vt 0.17032500 0.17027200
vt 0.55958100 0.17027200
vt 0.11442700 0.66625700
vt 0.50368400 0.66625700
vt 0.51044900 0.60708500
vt 0.12119300 0.60708500
vt 0.09795400 0.22651300
vt 0.48721000 0.22651300
vt 0.37288100 0.84841100
vt 0.76213800 0.84841100
vt 0.92334900 0.26292200
vt 0.80912700 0.42127300
vt 0.91446700 0.26173700
vt 0.92478500 0.98276100
vt 0.42287000 0.28155300
vt 0.91302000 0.98140900
vt 0.61117200 0.09911200
vt 0.38552900 0.23984800
vt 0.37080400 0.44768400
vt 0.41911500 0.44609800
vt 0.38306000 0.13651700
vt 0.09340700 0.13640500
vt 0.48266300 0.13640500
vt 0.09291700 0.02075800
vt 0.30065200 0.08221900
vt 0.61480800 0.93399000
vt 0.09291700 0.08129000
vt 0.30065200 0.02165800
vt 0.22555100 0.93399000
vt 0.04320800 0.02075900
vt 0.25092100 0.08221900
vt 0.04320800 0.08129100
vt 0.61365500 0.85366400
vt 0.22439900 0.85366400
vt 0.25092100 0.02165800
vt 0.32696700 0.88826800
vt 0.71622400 0.88826800
vt 0.80912700 0.46040600
vt 0.89420900 0.26170600
vt 0.80912700 0.38269100
vt 0.94359900 0.26289200
vt 0.16720500 0.45014600
vt 0.55646100 0.45014600
vt 0.11251700 0.93124400
vt 0.50177400 0.93124400
vt 0.35903200 0.93476400
vt 0.74828900 0.93476400
vt 0.65071800 0.54833000
vt 0.26146100 0.54833000
vt 0.85462200 0.02378800
vt 0.18902700 0.02075900
vt 0.39680700 0.08221900
vt 0.18902700 0.08129000
vt 0.55911600 0.84650700
vt 0.39680700 0.02165800
vt 0.16985900 0.84650700
vt 0.33381200 0.08221900
vt 0.12606100 0.02075800
vt 0.55666100 0.94175200
vt 0.12606100 0.08129000
vt 0.33381200 0.02165800
vt 0.16740400 0.94175200
vt 0.82525900 0.97880800
vt 0.82525900 0.51045600
vt 0.75343000 0.25959300
vt 0.75343000 0.58230700
vt 0.39882600 0.45416800
vt 0.37634700 0.13031700
vt 0.36462700 0.23520900
vt 0.37449000 0.45461500
vt 0.90158800 0.17321200
vt 0.84665300 0.18001700
vt 0.61851800 0.15317600
vt 0.22926200 0.15317600
vt 0.53499100 0.30512500
vt 0.14573400 0.30512500
vt 0.53701300 0.78761400
vt 0.14775700 0.78761400
vt 0.62491400 0.84656500
vt 0.23565800 0.84656500
vt 0.38556400 0.17573700
vt 0.41120900 0.20441700
vt 0.57345200 0.03491000
vt 0.40652100 0.40952200
vt 0.53782200 0.03489200
vt 0.62281700 0.02208600
vt 0.38048100 0.41023100
vt 0.38302500 0.27906800
vt 0.39014300 0.41024100
vt 0.96363900 0.98279900
vt 0.42757900 0.31406000
vt 0.37859300 0.17540500
vt 0.87415400 0.98142400
vt 0.36238000 0.28029700
vt 0.36941200 0.31346200
vt 0.38362300 0.41077900
vt 0.79768200 0.08906400
vt 0.92551700 0.07354900
vt 0.01131900 0.84265200
vt 0.40011000 0.84079800
vt 0.86069500 0.14629800
vt 0.87972200 0.14395200
vt 0.41838700 0.38867300
vt 0.40605900 0.47955700
vt 0.36699700 0.47992900
vt 0.37858400 0.38796900
vt 0.22824300 0.17116800
vt 0.61749900 0.17116800
vt 0.41347000 0.93351400
vt 0.02421400 0.93351400
vt 0.64329700 0.45147800
vt 0.25404100 0.45147800
vt 0.34001800 0.10530700
vt 0.72927400 0.10530700
vt 0.54781000 0.83342800
vt 0.15855400 0.83342800
vt 0.27852300 0.84272000
vt 0.66777900 0.84272000
vt 0.84511200 0.77862200
vt 0.29646200 0.10062900
vt 0.84511200 0.71064200
vt 0.68571800 0.10062900
vt 0.61994400 0.66713100
vt 0.23068800 0.66713100
vt 0.10941200 0.88962800
vt 0.49866800 0.88962800
vt 0.82525900 0.77857100
vt 0.75343000 0.40341200
vt 0.82525900 0.71069300
vt 0.75343000 0.43932100
vt 0.06318800 0.92979200
vt 0.45244500 0.92979200
vt 0.77569400 0.07634700
vt 0.94383700 0.05596900
vt 0.37470300 0.82007000
vt 0.76395900 0.82007000
vt 0.10723400 0.78769500
vt 0.49649100 0.78769500
vt 0.85561100 0.15862600
vt 0.88763600 0.15457600
vt 0.05588200 0.13163400
vt 0.44513800 0.13163400
vt 0.53363300 0.22801100
vt 0.14437700 0.22801100
vt 0.69845200 0.15204400
vt 0.30919600 0.15204400
vt 0.14377600 0.86751400
vt 0.53303300 0.86751400
vt 0.01598300 0.87712700
vt 0.40523900 0.87712700
vt 0.17023600 0.13029200
vt 0.55949200 0.13029200
vt 0.69968600 0.54816900
vt 0.31043000 0.54816900
vt 0.22606400 0.22953700
vt 0.61532000 0.22953700
vt 0.05755100 0.66541000
vt 0.44680700 0.66541000
vt 0.86279700 0.08341400
vt 0.27392700 0.66799500
vt 0.66318300 0.66799500
vt 0.92909300 0.16293600
vt 0.81552300 0.17671200
vt 0.22726700 0.11512900
vt 0.61652300 0.11512900
vt 0.07682800 0.98453700
vt 0.90268400 0.01463400
vt 0.46608500 0.98453700
vt 0.80578800 0.02635700
vt 0.84873400 0.10185000
vt 0.88075800 0.09792300
vt 0.84511200 0.74463200
vt 0.33428100 0.09191500
vt 0.72353800 0.09191500
vt 0.14716600 0.11431400
vt 0.53642200 0.11431400
vt 0.01011300 0.72892300
vt 0.39936900 0.72892300
vt 0.13716600 0.49061700
vt 0.13716600 0.47960500
vt 0.52642200 0.49061700
vt 0.52642200 0.47960500
vt 0.44427800 0.87459900
vt 0.05502200 0.87459900
vt 0.05648300 0.16492600
vt 0.44573900 0.16492600
vt 0.05912900 0.22564800
vt 0.44838500 0.22564800
vt 0.10585100 0.84191400
vt 0.49510700 0.84191400
vt 0.33385900 0.84568900
vt 0.72311500 0.84568900
vt 0.91900100 0.07985700
vt 0.80552000 0.09364400
vt 0.41111300 0.38867300
vt 0.41154800 0.10520600
vt 0.38584800 0.38797100
vt 0.40483800 0.17325300
vt 0.85660300 0.11252300
vt 0.87563200 0.11022000
vt 0.53264800 0.12089500
vt 0.14339200 0.12089500
vt 0.06005200 0.37113700
vt 0.44930800 0.37113700
vt 0.05727200 0.88980400
vt 0.44652800 0.88980400
vt 0.48471200 0.12709900
vt 0.09545500 0.12709900
vt 0.39258400 0.10349700
vt 0.39563500 0.17452300
vt 0.40192000 0.31406000
vt 0.94381100 0.98279300
vt 0.39503500 0.31346200
vt 0.42075300 0.10393700
vt 0.37600500 0.20682800
vt 0.89398800 0.98143100
vt 0.64894100 0.02324600
vt 0.57342000 0.09651400
vt 0.37157400 0.10316500
vt 0.66404000 0.02590900
vt 0.53779100 0.09649500
vt 0.39280500 0.20347600
vt 0.39349900 0.41029600
vt 0.36940000 0.20805700
vt 0.85880600 0.05871000
vt 0.14101300 0.15169800
vt 0.53027000 0.15169800
vt 0.81342600 0.03914000
vt 0.89829600 0.02886300
vt 0.87681700 0.20715600
vt 0.57338400 0.06573400
vt 0.41475200 0.39140800
vt 0.58638800 0.06573500
vt 0.06806300 0.02075800
vt 0.27578600 0.08221900
vt 0.63048500 0.89338300
vt 0.06806300 0.08129000
vt 0.24122900 0.89338300
vt 0.27578600 0.02165800
vt 0.05646600 0.02075800
vt 0.26418400 0.08221900
vt 0.05646600 0.08129100
vt 0.62696200 0.87359600
vt 0.23770600 0.87359600
vt 0.26418400 0.02165800
vt 0.07965900 0.02075900
vt 0.28738800 0.08221900
vt 0.07965900 0.08129100
vt 0.62745300 0.91362600
vt 0.28738800 0.02165800
vt 0.23819600 0.91362600
vt 0.88985500 0.07661900
vt 0.83489400 0.08307200
vt 0.39033800 0.14858400
vt 0.40431600 0.13059600
vt 0.41207100 0.14786400
vt 0.37825200 0.25191500
vt 0.62138900 0.73158300
vt 0.23213300 0.73158300
vt 0.30015100 0.45161100
vt 0.68940800 0.45161100
vt 0.22992400 0.14081200
vt 0.61918000 0.14081200
vt 0.52696800 0.91796400
vt 0.13771200 0.91796400
vt 0.34746100 0.54557500
vt 0.73671800 0.54557500
vt 0.53093000 0.13005500
vt 0.14167400 0.13005500
vt 0.87394400 0.26170300
vt 0.80912700 0.51394500
vt 0.80912700 0.32919600
vt 0.96385900 0.26289200
vt 0.27519000 0.87873300
vt 0.66444600 0.87873300
vt 0.37190400 0.24727700
vt 0.40317600 0.44774900
vt 0.66557800 0.06453800
vt 0.36906900 0.14238500
vt 0.82078400 0.05143700
vt 0.89406500 0.04255100
vt 0.49748700 0.87380500
vt 0.10823100 0.87380500
vt 0.69114400 0.11231000
vt 0.30188700 0.11231000
vt 0.85368900 0.26173200
vt 0.98411100 0.26292400
vt 0.80912700 0.25959300
vt 0.80912700 0.58230700
vt 0.98266700 0.98277500
vt 0.85512400 0.98139200
vt 0.63283100 0.09916000
vt 0.40444900 0.28050300
vt 0.06184500 0.30318000
vt 0.45110100 0.30318000
vt 0.80899300 0.18302600
vt 0.93693600 0.16749200
vt 0.69204200 0.49225900
vt 0.69204200 0.48124800
vt 0.30278500 0.49225900
vt 0.30278500 0.48124800
vt 0.05566400 0.14509400
vt 0.44492000 0.14509400
vt 0.14876700 0.73084700
vt 0.53802400 0.73084700
vt 0.29820800 0.30695800
vt 0.68746400 0.30695800
vt 0.53319800 0.37375500
vt 0.14394200 0.37375500
vt 0.26360200 0.95341000
vt 0.65285800 0.95341000
vt 0.06788300 0.60599000
vt 0.45713900 0.60599000
vt 0.37652400 0.79173000
vt 0.76578000 0.79173000
vt 0.02995100 0.02075800
vt 0.23765700 0.08221900
vt 0.23765600 0.02191500
vt 0.20338700 0.84238200
vt 0.59264300 0.84238200
vt 0.02995100 0.08103400
vt 0.10617400 0.02075900
vt 0.31391600 0.08221900
vt 0.10617500 0.08129100
vt 0.59350100 0.94639900
vt 0.31391600 0.02165800
vt 0.20424500 0.94639900
vt 0.88405600 0.26171000
vt 0.80912700 0.48634100
vt 0.88405600 0.98139500
vt 0.38220100 0.31340800
vt 0.38220100 0.35662400
vt 0.64943000 0.17134400
vt 0.26017400 0.17134400
vt 0.84511200 0.67162700
vt 0.64182900 0.10751500
vt 0.84511200 0.81763600
vt 0.25257200 0.10751500
vt 0.87823900 0.21877600
vt 0.43895600 0.81603500
vt 0.04970000 0.81603500
vt 0.02957400 0.60243500
vt 0.41883100 0.60243500
vt 0.05581000 0.44641600
vt 0.44506700 0.44641600
vt 0.80074800 0.19098400
vt 0.94683400 0.17322800
vt 0.01764400 0.66277100
vt 0.40690000 0.66277100
vt 0.52941000 0.13947300
vt 0.14015400 0.13947300
vt 0.27832300 0.81581700
vt 0.66758000 0.81581700
vt 0.30736100 0.17044300
vt 0.69661800 0.17044300
vt 0.53655600 0.81168800
vt 0.14729900 0.81168800
vt 0.09524800 0.16729600
vt 0.48450400 0.16729600
vt 0.10654300 0.81480500
vt 0.49579900 0.81480500
vt 0.65256100 0.14130000
vt 0.26330400 0.14130000
vt 0.40468500 0.23647800
vt 0.63518500 0.05536600
vt 0.37085200 0.66702900
vt 0.76010900 0.66702900
vt 0.22884900 0.12190600
vt 0.61810500 0.12190600
vt 0.78779300 0.08329700
vt 0.93374400 0.06559800
vt 0.33850500 0.45045300
vt 0.72776200 0.45045300
vt 0.36056800 0.60670500
vt 0.74982500 0.60670500
vt 0.23177000 0.81170700
vt 0.62102600 0.81170700
vt 0.85631200 0.03786300
vt 0.84511200 0.58050900
vt 0.54114300 0.10602100
vt 0.84511200 0.90875400
vt 0.15188700 0.10602100
vt 0.53164400 0.16959800
vt 0.14238700 0.16959800
vt 0.27642300 0.86541300
vt 0.66567900 0.86541300
vt 0.36849700 0.87574700
vt 0.75775400 0.87574700
vt 0.41845400 0.43404800
vt 0.38298500 0.14858400
vt 0.38560400 0.25191500
vt 0.37051500 0.43562000
vt 0.81730300 0.10607000
vt 0.91229700 0.09465300
vt 0.19565600 0.02075800
vt 0.40343900 0.08221900
vt 0.57015700 0.84232100
vt 0.19565600 0.08129000
vt 0.18090000 0.84232100
vt 0.40343900 0.02165800
vt 0.11943200 0.02075800
vt 0.32718000 0.08221900
vt 0.56838000 0.94654400
vt 0.11943200 0.08129100
vt 0.32718000 0.02165800
vt 0.17912300 0.94654400
vt 0.38444000 0.39058200
vt 0.52482800 0.04787200
vt 0.40210500 0.17325300
vt 0.38083100 0.27906800
vt 0.41252100 0.39128800
vt 0.38775800 0.17573700
vt 0.41428100 0.10520700
vt 0.58643300 0.04790400
vt 0.41178200 0.13580000
vt 0.37832600 0.23984800
vt 0.39026300 0.13651700
vt 0.40460500 0.14266000
vt 0.00887600 0.78833500
vt 0.39813300 0.78833500
vt 0.61859500 0.95282300
vt 0.22933900 0.95282300
vt 0.32215600 0.60917000
vt 0.71141300 0.60917000
vt 0.64180500 0.37532400
vt 0.25254900 0.37532400
vt 0.10033500 0.30405000
vt 0.48959100 0.30405000
vt 0.34759000 0.14943100
vt 0.73684600 0.14943100
vt 0.47986300 0.48931200
vt 0.47986300 0.47830100
vt 0.09060700 0.48931200
vt 0.09060700 0.47830100
vt 0.61562500 0.98472100
vt 0.22636800 0.98472100
vt 0.83840500 0.11522900
vt 0.89387600 0.10855800
vt 0.38221000 0.38685900
vt 0.72442900 0.81808700
vt 0.33517300 0.81808700
vt 0.33670700 0.30723000
vt 0.72596300 0.30723000
vt 0.49170800 0.10934900
vt 0.10245200 0.10934900
vt 0.31241500 0.96106300
vt 0.70167200 0.96106300
vt 0.84046800 0.21400600
vt 0.91381700 0.20516400
vt 0.41104600 0.20715500
vt 0.40924500 0.40930700
vt 0.62298000 0.02482000
vt 0.37774800 0.41023100
vt 0.64506300 0.02574500
vt 0.39654200 0.20621000
vt 0.65132100 0.13184200
vt 0.26206500 0.13184200
vt 0.04440900 0.54145700
vt 0.43366600 0.54145700
vt 0.09411000 0.44869900
vt 0.48336600 0.44869900
vt 0.15754400 0.02075800
vt 0.36531000 0.08221900
vt 0.15754400 0.08129000
vt 0.53228500 0.89357700
vt 0.36531000 0.02165800
vt 0.14302900 0.89357700
vt 0.16914000 0.02075800
vt 0.37691200 0.08221900
vt 0.16914100 0.08129100
vt 0.53568300 0.87358400
vt 0.14642700 0.87358400
vt 0.37691200 0.02165800
vt 0.14594700 0.02075800
vt 0.35370800 0.08221900
vt 0.14594800 0.08129000
vt 0.53397900 0.91426900
vt 0.14472200 0.91426900
vt 0.35370800 0.02165800
vt 0.97282700 0.98279900
vt 0.66617900 0.09761400
vt 0.64556400 0.09991300
vt 0.36674700 0.17540500
vt 0.41214600 0.47961200
vt 0.39164400 0.28050300
vt 0.37422600 0.28029700
vt 0.86496600 0.98142200
vt 0.83625700 0.22767100
vt 0.92121100 0.21743100
vt 0.87052600 0.14774700
vt 0.26208100 0.15349300
vt 0.65133700 0.15349300
vt 0.80912700 0.55561600
vt 0.86381700 0.26171100
vt 0.97398600 0.26290100
vt 0.80912700 0.28766200
vt 0.22311100 0.37487400
vt 0.61236700 0.37487400
vt 0.84161000 0.09216400
vt 0.88544000 0.08689300
vt 0.24455900 0.86874500
vt 0.63381500 0.86874500
vt 0.69760800 0.13026000
vt 0.30835100 0.13026000
vt 0.16973100 0.15227200
vt 0.55898700 0.15227200
vt 0.33648500 0.37517000
vt 0.72574100 0.37517000
vt 0.64987700 0.12263500
vt 0.26062100 0.12263500
vt 0.36592400 0.89179200
vt 0.75518000 0.89179200
vt 0.64818300 0.05613400
vt 0.65306200 0.05571600
vt 0.41262100 0.43568500
vt 0.39161500 0.23647800
vt 0.27188900 0.91440800
vt 0.66114500 0.91440800
vt 0.34172700 0.22983800
vt 0.73098300 0.22983800
vt 0.34618000 0.16922900
vt 0.73543600 0.16922900
vt 0.85288000 0.13998200
vt 0.88583700 0.13598100
vt 0.25619800 0.49225100
vt 0.25619800 0.48124000
vt 0.64545400 0.49225100
vt 0.64545400 0.48124000
vt 0.37668800 0.73291300
vt 0.76594400 0.73291300
vt 0.25704500 0.11594500
vt 0.64630100 0.11594500
vt 0.84511200 0.98143300
vt 0.84511200 0.50783100
vt 0.07068000 0.08799900
vt 0.45993600 0.08799900
vt 0.92890000 0.23017900
vt 0.30644000 0.98474400
vt 0.69569600 0.98474400
vt 0.83167500 0.24220200
vt 0.86150800 0.07211300
vt 0.04891200 0.78811500
vt 0.43816900 0.78811500
vt 0.33648600 0.79048600
vt 0.72574300 0.79048600
vt 0.16936700 0.13991300
vt 0.55862300 0.13991300
vt 0.50979100 0.96130800
vt 0.12053500 0.96130800
vt 0.33086200 0.66855000
vt 0.72011800 0.66855000
vt 0.90335500 0.10138200
vt 0.82750600 0.11048000
vt 0.47059600 0.54511800
vt 0.08134000 0.54511800
vt 0.17113000 0.30557600
vt 0.56038600 0.30557600
vt 0.36934600 0.35800000
vt 0.38364600 0.45470900
vt 0.38967000 0.45416900
vt 0.42764600 0.35866300
vt 0.64709700 0.02218900
vt 0.39471400 0.20252600
vt 0.55560600 0.09644200
vt 0.17120400 0.12108300
vt 0.56046000 0.12108300
vt 0.63903900 0.88176300
vt 0.24978300 0.88176300
vt 0.35113000 0.96601900
vt 0.74038700 0.96601900
vt 0.48321900 0.14884900
vt 0.09396200 0.14884900
vt 0.87219600 0.16103500
vt 0.64570200 0.22966700
vt 0.25644600 0.22966700
vt 0.34777300 0.13597100
vt 0.73702900 0.13597100
vt 0.17577100 0.10641000
vt 0.56502700 0.10641000
vt 0.54552800 0.98476700
vt 0.15627100 0.98476700
vt 0.22318400 0.45091400
vt 0.61244100 0.45091400
vt 0.05318400 0.48641500
vt 0.05318400 0.47540400
vt 0.44244000 0.48641500
vt 0.44244000 0.47540400
vt 0.86814600 0.12825100
vt 0.41475000 0.38756100
vt 0.84912100 0.13055900
vt 0.88717700 0.12593700
vt 0.95372700 0.26289600
vt 0.80912700 0.35711800
vt 0.82437500 0.13356800
vt 0.91191300 0.12290900
vt 0.83613400 0.13214400
vt 0.90016000 0.12434400
vt 0.41475000 0.31400600
vt 0.95372700 0.98276500
vt 0.41475000 0.35728300
vt 0.81332600 0.13487500
vt 0.92295700 0.12158800
vt 0.15225800 0.66632600
vt 0.54151500 0.66632600
vt 0.66738000 0.78891400
vt 0.27812400 0.78891400
vt 0.01014500 0.81707800
vt 0.39940100 0.81707800
vt 0.79062900 0.20062300
vt 0.95895000 0.18013800
vt 0.82525900 0.94507900
vt 0.75343000 0.28766200
vt 0.82525900 0.54418400
vt 0.75343000 0.55561600
vt 0.01825000 0.89266100
vt 0.40750700 0.89266100
vt 0.22943600 0.13114300
vt 0.61869200 0.13114300
vt 0.84511200 0.94765100
vt 0.10822300 0.09783500
vt 0.84511200 0.54161300
vt 0.49747900 0.09783500
vt 0.06454700 0.10121400
vt 0.45380300 0.10121400
vt 0.86420600 0.09545100
vt 0.52945500 0.44988400
vt 0.14019900 0.44988400
vt 0.41312200 0.20346500
vt 0.62090700 0.02113500
vt 0.55563700 0.03496300
vt 0.39510100 0.35800300
vt 0.42122700 0.14786400
vt 0.39515900 0.13059600
vt 0.40185400 0.35866300
vt 0.87510500 0.18434900
vt 0.90881800 0.14590600
vt 0.83297000 0.15519200
vt 0.54197100 0.95845500
vt 0.15271400 0.95845500
vt 0.55064400 0.54693800
vt 0.16138800 0.54693800
vt 0.85046600 0.12049500
vt 0.88343100 0.11653200
vt 0.64205100 0.30669500
vt 0.25279500 0.30669500
vt 0.82525900 0.74463200
vt 0.75343000 0.42127300
vt 0.17095800 0.22868300
vt 0.56021400 0.22868300
vt 0.34028200 0.49045600
vt 0.34028200 0.47944500
vt 0.72953900 0.49045600
vt 0.72953900 0.47944500
vt 0.71877300 0.87252000
vt 0.32951600 0.87252000
vt 0.03658000 0.02075900
vt 0.24428900 0.08221900
vt 0.03658000 0.08129100
vt 0.60364100 0.84661000
vt 0.21438500 0.84661000
vt 0.24428900 0.02165800
vt 0.30728400 0.08221900
vt 0.09954600 0.02075800
vt 0.60514800 0.94148100
vt 0.09954600 0.08129100
vt 0.30728400 0.02165800
vt 0.21589200 0.94148100
vt 0.41001800 0.23746500
vt 0.42758100 0.43332800
vt 0.36135900 0.43562000
vt 0.62400600 0.05508700
vt 0.87995400 0.23285900
vt 0.51952300 0.54661500
vt 0.13026700 0.54661500
vt 0.62104200 0.78816100
vt 0.23178600 0.78816100
vt 0.87369700 0.17306100
vt 0.13269000 0.02075900
vt 0.34044400 0.08221900
vt 0.13269000 0.08129100
vt 0.54689500 0.93437700
vt 0.15763900 0.93437700
vt 0.34044400 0.02165800
vt 0.18239800 0.02075800
vt 0.39017500 0.08221900
vt 0.18239800 0.08129100
vt 0.54903200 0.85355000
vt 0.15977600 0.85355000
vt 0.39017600 0.02165800
vt 0.31012200 0.13962300
vt 0.69937800 0.13962300
vt 0.30289400 0.22954700
vt 0.69215000 0.22954700
vt 0.85099200 0.16969600
vt 0.89481300 0.16419800
vt 0.90433900 0.26171400
vt 0.80912700 0.43932100
vt 0.93347400 0.26290200
vt 0.80912700 0.40341200
vt 0.86581000 0.10875000
vt 0.65805800 0.60887300
vt 0.26880100 0.60887300
vt 0.41004700 0.28155300
vt 0.93462500 0.98278900
vt 0.43056600 0.47715600
vt 0.38073800 0.10349700
vt 0.36183400 0.47954800
vt 0.38785100 0.20682800
vt 0.90317800 0.98143300
vt 0.62397600 0.09911200
vt 0.06046500 0.11125700
vt 0.44972100 0.11125700
vt 0.61804700 0.60803400
vt 0.22879100 0.60803400
vt 0.61907900 0.02482000
vt 0.41495200 0.20715500
vt 0.43974400 0.84395600
vt 0.05048800 0.84395600
vt 0.51577600 0.98374600
vt 0.76275000 0.06887400
vt 0.95462400 0.04562500
vt 0.12651900 0.98374600
vt 0.85286000 0.00910600
vt 0.03801600 0.98951500
vt 0.42727200 0.98951500
vt 0.16970600 0.37410600
vt 0.55896200 0.37410600
vt 0.07099900 0.96114000
vt 0.46025500 0.96114000
vt 0.13931900 0.02075800
vt 0.34707600 0.08221900
vt 0.53914100 0.92505800
vt 0.13931900 0.08129100
vt 0.34707600 0.02165800
vt 0.14988500 0.92505800
vt 0.17576900 0.02075800
vt 0.38354400 0.08221900
vt 0.54093600 0.86286500
vt 0.17576900 0.08129000
vt 0.15167900 0.86286500
vt 0.38354400 0.02165800
vt 0.27811200 0.73222500
vt 0.66736800 0.73222500
vt 0.34636300 0.12584100
vt 0.73561900 0.12584100
vt 0.64894200 0.02597500
vt 0.66142500 0.02669600
vt 0.39264100 0.20621000
vt 0.39623200 0.41029600
vt 0.29803900 0.37554600
vt 0.68729600 0.37554600
vt 0.84244300 0.14798300
vt 0.89790900 0.14120600
vt 0.09783700 0.11758200
vt 0.48709300 0.11758200
vt 0.70939700 0.93044400
vt 0.32014100 0.93044400
vt 0.82525900 0.58274300
vt 0.75343000 0.51394500
vt 0.82525900 0.90652000
vt 0.75343000 0.32919600
vt 0.52570000 0.88442700
vt 0.13644400 0.88442700
vt 0.17323600 0.11437400
vt 0.56249200 0.11437400
vt 0.54546400 0.60719900
vt 0.15620800 0.60719900
vt 0.22528100 0.10715000
vt 0.61453700 0.10715000
vt 0.72632400 0.73306000
vt 0.33706800 0.73306000
vt 0.55562100 0.06573400
vt 0.52485500 0.06573400
vt 0.38220900 0.39070100
vt 0.53785900 0.06573400
vt 0.82403000 0.16195600
vt 0.91903100 0.15026500
vt 0.84383800 0.20285800
vt 0.90785500 0.19515400
vt 0.36470200 0.24727700
vt 0.37432500 0.44254900
vt 0.39911400 0.44210400
vt 0.37627200 0.14238500
vt 0.36426400 0.47990000
vt 0.36720600 0.20805700
vt 0.52480900 0.08350100
vt 0.37998900 0.39058000
vt 0.41697900 0.39128800
vt 0.37376800 0.10316500
vt 0.58641500 0.08353300
vt 0.40879200 0.47955700
vt 0.84648000 0.19405000
vt 0.90316900 0.18725200
f 662/662 240/240 727/727
f 240/240 629/629 727/727
f 729/729 662/662 727/727
f 781/781 729/729 727/727
f 629/629 241/241 727/727
f 338/338 781/781 727/727
f 241/241 663/663 727/727
f 839/839 338/338 727/727
f 663/663 730/730 727/727
f 730/730 782/782 727/727
f 339/339 839/839 727/727
f 782/782 339/339 727/727
f 777/777 820/820 198/198
f 254/254 826/826 877/877
f 777/777 198/198 542/542
f 798/798 218/218 172/172
f 798/798 459/459 218/218
f 218/218 121/121 172/172
f 193/193 254/254 536/536
f 193/193 826/826 254/254
f 871/871 820/820 777/777
f 560/560 803/803 165/165
f 165/165 115/115 560/560
f 464/464 803/803 560/560
f 778/778 201/201 821/821
f 255/255 879/879 827/827
f 778/778 545/545 201/201
f 799/799 173/173 219/219
f 799/799 219/219 458/458
f 219/219 173/173 124/124
f 195/195 538/538 255/255
f 195/195 255/255 827/827
f 874/874 778/778 821/821
f 561/561 168/168 806/806
f 168/168 561/561 117/117
f 466/466 561/561 806/806
f 848/848 835/835 178/178
f 848/848 178/178 355/355
f 355/355 178/178 467/467
f 355/355 467/467 469/469
f 155/155 152/152 835/835
f 155/155 835/835 848/848
f 469/469 467/467 409/409
f 469/469 409/409 232/232
f 843/843 837/837 150/150
f 843/843 150/150 153/153
f 232/232 409/409 633/633
f 232/232 633/633 626/626
f 351/351 180/180 837/837
f 351/351 837/837 843/843
f 626/626 633/633 425/425
f 626/626 425/425 430/430
f 738/738 731/731 180/180
f 738/738 180/180 351/351
f 429/429 426/426 634/634
f 429/429 634/634 619/619
f 229/229 412/412 731/731
f 229/229 731/731 738/738
f 619/619 634/634 412/412
f 619/619 412/412 229/229
f 157/157 847/847 354/354
f 157/157 354/354 555/555
f 156/156 849/849 810/810
f 156/156 810/810 96/96
f 770/770 352/352 470/470
f 770/770 470/470 471/471
f 554/554 353/353 771/771
f 554/554 771/771 395/395
f 807/807 842/842 154/154
f 807/807 154/154 95/95
f 919/919 233/233 625/625
f 919/919 625/625 415/415
f 556/556 348/348 845/845
f 556/556 845/845 160/160
f 530/530 157/157 555/555
f 530/530 555/555 396/396
f 698/698 235/235 920/920
f 698/698 920/920 209/209
f 655/655 624/624 432/432
f 655/655 432/432 503/503
f 854/854 96/96 810/810
f 854/854 810/810 591/591
f 770/770 471/471 578/578
f 770/770 578/578 336/336
f 395/395 771/771 337/337
f 395/395 337/337 548/548
f 772/772 349/349 557/557
f 772/772 557/557 394/394
f 208/208 919/919 415/415
f 208/208 415/415 79/79
f 227/227 530/530 396/396
f 227/227 396/396 549/549
f 393/393 556/556 160/160
f 393/393 160/160 529/529
f 418/418 622/622 231/231
f 418/418 231/231 922/922
f 807/807 95/95 855/855
f 807/807 855/855 589/589
f 578/578 471/471 697/697
f 578/578 697/697 245/245
f 431/431 621/621 652/652
f 431/431 652/652 504/504
f 528/528 808/808 590/590
f 528/528 590/590 223/223
f 244/244 698/698 209/209
f 244/244 209/209 923/923
f 924/924 208/208 79/79
f 924/924 79/79 363/363
f 921/921 228/228 699/699
f 921/921 699/699 206/206
f 77/77 418/418 922/922
f 77/77 922/922 207/207
f 335/335 772/772 394/394
f 335/335 394/394 552/552
f 768/768 854/854 591/591
f 768/768 591/591 225/225
f 336/336 578/578 913/913
f 336/336 913/913 546/546
f 589/589 855/855 767/767
f 589/589 767/767 221/221
f 913/913 578/578 245/245
f 913/913 245/245 926/926
f 914/914 224/224 547/547
f 914/914 547/547 912/912
f 769/769 224/224 914/914
f 769/769 914/914 911/911
f 655/655 503/503 594/594
f 655/655 594/594 887/887
f 914/914 912/912 925/925
f 914/914 925/925 360/360
f 370/370 222/222 769/769
f 370/370 769/769 911/911
f 703/703 911/911 914/914
f 703/703 914/914 360/360
f 553/553 222/222 370/370
f 553/553 370/370 372/372
f 370/370 911/911 703/703
f 370/370 703/703 357/357
f 702/702 361/361 887/887
f 702/702 887/887 594/594
f 334/334 550/550 371/371
f 334/334 371/371 728/728
f 78/78 359/359 886/886
f 78/78 886/886 653/653
f 243/243 930/930 206/206
f 243/243 206/206 699/699
f 929/929 372/372 370/370
f 929/929 370/370 357/357
f 593/593 504/504 652/652
f 593/593 652/652 885/885
f 885/885 356/356 701/701
f 885/885 701/701 593/593
f 371/371 927/927 242/242
f 371/371 242/242 728/728
f 531/531 809/809 846/846
f 531/531 846/846 158/158
f 697/697 471/471 470/470
f 697/697 470/470 234/234
f 808/808 528/528 159/159
f 808/808 159/159 844/844
f 654/654 80/80 416/416
f 654/654 416/416 623/623
f 773/773 739/739 737/737
f 773/773 737/737 350/350
f 226/226 592/592 809/809
f 226/226 809/809 531/531
f 739/739 700/700 230/230
f 739/739 230/230 737/737
f 78/78 653/653 620/620
f 78/78 620/620 417/417
f 220/220 551/551 393/393
f 220/220 393/393 529/529
f 888/888 362/362 80/80
f 888/888 80/80 654/654
f 334/334 728/728 739/739
f 334/334 739/739 773/773
f 928/928 358/358 77/77
f 928/928 77/77 207/207
f 728/728 242/242 700/700
f 728/728 700/700 739/739
f 101/101 474/474 53/53
f 101/101 53/53 21/21
f 268/268 260/260 474/474
f 268/268 474/474 101/101
f 260/260 268/268 785/785
f 260/260 785/785 311/311
f 258/258 311/311 785/785
f 258/258 785/785 266/266
f 897/897 21/21 53/53
f 897/897 53/53 518/518
f 476/476 258/258 266/266
f 476/476 266/266 103/103
f 752/752 897/897 518/518
f 752/752 518/518 760/760
f 55/55 476/476 103/103
f 55/55 103/103 23/23
f 203/203 752/752 760/760
f 203/203 760/760 673/673
f 202/202 672/672 758/758
f 202/202 758/758 750/750
f 55/55 23/23 899/899
f 55/55 899/899 520/520
f 750/750 758/758 520/520
f 750/750 520/520 899/899
f 102/102 177/177 836/836
f 102/102 836/836 269/269
f 22/22 468/468 177/177
f 22/22 177/177 102/102
f 269/269 836/836 151/151
f 269/269 151/151 786/786
f 22/22 898/898 410/410
f 22/22 410/410 468/468
f 267/267 786/786 151/151
f 267/267 151/151 838/838
f 104/104 267/267 838/838
f 104/104 838/838 179/179
f 898/898 753/753 632/632
f 898/898 632/632 410/410
f 753/753 205/205 428/428
f 753/753 428/428 632/632
f 24/24 104/104 179/179
f 24/24 179/179 732/732
f 751/751 635/635 427/427
f 751/751 427/427 204/204
f 24/24 732/732 411/411
f 24/24 411/411 900/900
f 900/900 411/411 635/635
f 900/900 635/635 751/751
f 627/627 748/748 131/131
f 627/627 131/131 679/679
f 917/917 435/435 485/485
f 917/917 485/485 587/587
f 302/302 931/931 211/211
f 302/302 211/211 915/915
f 7/7 485/485 435/435
f 7/7 435/435 75/75
f 33/33 131/131 748/748
f 33/33 748/748 3/3
f 811/811 627/627 679/679
f 811/811 679/679 127/127
f 42/42 302/302 915/915
f 42/42 915/915 740/740
f 776/776 915/915 211/211
f 776/776 211/211 833/833
f 369/369 917/917 587/587
f 369/369 587/587 478/478
f 774/774 211/211 931/931
f 774/774 931/931 100/100
f 891/891 776/776 833/833
f 891/891 833/833 278/278
f 662/662 891/891 278/278
f 662/662 278/278 240/240
f 240/240 278/278 712/712
f 240/240 712/712 629/629
f 774/774 100/100 932/932
f 774/774 932/932 210/210
f 42/42 740/740 532/532
f 42/42 532/532 333/333
f 918/918 369/369 478/478
f 918/918 478/478 588/588
f 7/7 75/75 236/236
f 7/7 236/236 509/509
f 628/628 811/811 127/127
f 628/628 127/127 676/676
f 33/33 3/3 272/272
f 33/33 272/272 859/859
f 629/629 712/712 279/279
f 629/629 279/279 241/241
f 576/576 781/781 338/338
f 576/576 338/338 309/309
f 692/692 576/576 309/309
f 692/692 309/309 638/638
f 241/241 279/279 892/892
f 241/241 892/892 663/663
f 279/279 834/834 775/775
f 279/279 775/775 892/892
f 532/532 692/692 638/638
f 532/532 638/638 392/392
f 834/834 210/210 916/916
f 834/834 916/916 775/775
f 210/210 932/932 301/301
f 210/210 301/301 916/916
f 436/436 918/918 588/588
f 436/436 588/588 486/486
f 333/333 532/532 392/392
f 333/333 392/392 85/85
f 309/309 338/338 839/839
f 309/309 839/839 764/764
f 749/749 628/628 676/676
f 749/749 676/676 133/133
f 764/764 839/839 339/339
f 764/764 339/339 310/310
f 419/419 509/509 236/236
f 419/419 236/236 93/93
f 310/310 339/339 782/782
f 310/310 782/782 577/577
f 85/85 392/392 680/680
f 85/85 680/680 364/364
f 916/916 301/301 41/41
f 916/916 41/41 741/741
f 308/308 859/859 272/272
f 308/308 272/272 367/367
f 639/639 310/310 577/577
f 639/639 577/577 691/691
f 76/76 436/436 486/486
f 76/76 486/486 8/8
f 419/419 93/93 99/99
f 419/419 99/99 517/517
f 391/391 639/639 691/691
f 391/391 691/691 533/533
f 533/533 741/741 41/41
f 533/533 41/41 332/332
f 86/86 364/364 680/680
f 86/86 680/680 391/391
f 4/4 749/749 133/133
f 4/4 133/133 35/35
f 391/391 533/533 332/332
f 391/391 332/332 86/86
f 308/308 367/367 189/189
f 308/308 189/189 862/862
f 237/237 76/76 8/8
f 237/237 8/8 510/510
f 99/99 94/94 420/420
f 99/99 420/420 517/517
f 420/420 94/94 237/237
f 420/420 237/237 510/510
f 273/273 4/4 35/35
f 273/273 35/35 860/860
f 189/189 368/368 306/306
f 189/189 306/306 862/862
f 306/306 368/368 273/273
f 306/306 273/273 860/860
f 740/740 915/915 776/776
f 740/740 776/776 733/733
f 211/211 774/774 816/816
f 211/211 816/816 833/833
f 733/733 776/776 891/891
f 733/733 891/891 735/735
f 833/833 816/816 712/712
f 833/833 712/712 278/278
f 735/735 891/891 662/662
f 735/735 662/662 729/729
f 532/532 740/740 733/733
f 532/532 733/733 692/692
f 774/774 210/210 834/834
f 774/774 834/834 816/816
f 816/816 834/834 279/279
f 816/816 279/279 712/712
f 692/692 733/733 735/735
f 692/692 735/735 576/576
f 576/576 735/735 729/729
f 576/576 729/729 781/781
f 892/892 736/736 730/730
f 892/892 730/730 663/663
f 298/298 638/638 309/309
f 298/298 309/309 764/764
f 775/775 734/734 736/736
f 775/775 736/736 892/892
f 736/736 577/577 782/782
f 736/736 782/782 730/730
f 680/680 392/392 638/638
f 680/680 638/638 298/298
f 916/916 741/741 734/734
f 916/916 734/734 775/775
f 639/639 298/298 764/764
f 639/639 764/764 310/310
f 734/734 691/691 577/577
f 734/734 577/577 736/736
f 391/391 680/680 298/298
f 391/391 298/298 639/639
f 741/741 533/533 691/691
f 741/741 691/691 734/734
f 3/3 748/748 485/485
f 3/3 485/485 7/7
f 272/272 3/3 7/7
f 272/272 7/7 509/509
f 367/367 272/272 509/509
f 367/367 509/509 419/419
f 189/189 367/367 419/419
f 189/189 419/419 517/517
f 517/517 420/420 368/368
f 517/517 368/368 189/189
f 273/273 368/368 420/420
f 273/273 420/420 510/510
f 510/510 8/8 4/4
f 510/510 4/4 273/273
f 486/486 749/749 4/4
f 486/486 4/4 8/8
f 486/486 588/588 628/628
f 486/486 628/628 749/749
f 478/478 811/811 628/628
f 478/478 628/628 588/588
f 478/478 587/587 627/627
f 478/478 627/627 811/811
f 485/485 748/748 627/627
f 485/485 627/627 587/587
f 75/75 435/435 302/302
f 75/75 302/302 42/42
f 236/236 75/75 42/42
f 236/236 42/42 333/333
f 93/93 236/236 333/333
f 93/93 333/333 85/85
f 99/99 93/93 85/85
f 99/99 85/85 364/364
f 364/364 86/86 94/94
f 364/364 94/94 99/99
f 237/237 94/94 86/86
f 237/237 86/86 332/332
f 332/332 41/41 76/76
f 332/332 76/76 237/237
f 301/301 436/436 76/76
f 301/301 76/76 41/41
f 301/301 932/932 918/918
f 301/301 918/918 436/436
f 100/100 369/369 918/918
f 100/100 918/918 932/932
f 100/100 931/931 917/917
f 100/100 917/917 369/369
f 302/302 435/435 917/917
f 302/302 917/917 931/931
f 438/438 400/400 512/512
f 438/438 512/512 792/792
f 400/400 890/890 647/647
f 400/400 647/647 512/512
f 667/667 250/250 400/400
f 667/667 400/400 438/438
f 250/250 564/564 890/890
f 250/250 890/890 400/400
f 92/92 722/722 250/250
f 92/92 250/250 667/667
f 890/890 446/446 582/582
f 890/890 582/582 647/647
f 722/722 637/637 564/564
f 722/722 564/564 250/250
f 564/564 783/783 446/446
f 564/564 446/446 890/890
f 484/484 600/600 571/571
f 484/484 571/571 726/726
f 32/32 84/84 182/182
f 32/32 182/182 9/9
f 600/600 765/765 321/321
f 600/600 321/321 571/571
f 832/832 659/659 582/582
f 832/832 582/582 446/446
f 343/343 108/108 600/600
f 343/343 600/600 484/484
f 182/182 866/866 39/39
f 182/182 39/39 9/9
f 637/637 88/88 783/783
f 637/637 783/783 564/564
f 108/108 447/447 765/765
f 108/108 765/765 600/600
f 713/713 832/832 446/446
f 713/713 446/446 783/783
f 494/494 661/661 659/659
f 494/494 659/659 832/832
f 434/434 567/567 108/108
f 434/434 108/108 343/343
f 866/866 696/696 61/61
f 866/866 61/61 39/39
f 284/284 830/830 716/716
f 284/284 716/716 569/569
f 567/567 214/214 447/447
f 567/567 447/447 108/108
f 830/830 642/642 884/884
f 830/830 884/884 716/716
f 832/832 713/713 472/472
f 832/832 472/472 494/494
f 88/88 295/295 713/713
f 88/88 713/713 783/783
f 423/423 261/261 313/313
f 423/423 313/313 253/253
f 631/631 501/501 830/830
f 631/631 830/830 284/284
f 696/696 788/788 1/1
f 696/696 1/1 61/61
f 434/434 327/327 147/147
f 434/434 147/147 567/567
f 501/501 595/595 642/642
f 501/501 642/642 830/830
f 567/567 147/147 282/282
f 567/567 282/282 214/214
f 713/713 295/295 247/247
f 713/713 247/247 472/472
f 671/671 475/475 261/261
f 671/671 261/261 423/423
f 212/212 402/402 501/501
f 212/212 501/501 631/631
f 788/788 141/141 25/25
f 788/788 25/25 1/1
f 327/327 325/325 498/498
f 327/327 498/498 147/147
f 402/402 757/757 595/595
f 402/402 595/595 501/501
f 147/147 498/498 522/522
f 147/147 522/522 282/282
f 304/304 908/908 475/475
f 304/304 475/475 671/671
f 645/645 686/686 43/43
f 645/645 43/43 37/37
f 442/442 281/281 162/162
f 442/442 162/162 710/710
f 710/710 162/162 489/489
f 710/710 489/489 366/366
f 43/43 686/686 291/291
f 43/43 291/291 14/14
f 346/346 162/162 281/281
f 346/346 281/281 110/110
f 675/675 761/761 583/583
f 675/675 583/583 763/763
f 904/904 718/718 54/54
f 904/904 54/54 58/58
f 407/407 489/489 162/162
f 407/407 162/162 346/346
f 761/761 519/519 315/315
f 761/761 315/315 583/583
f 325/325 442/442 710/710
f 325/325 710/710 498/498
f 498/498 710/710 366/366
f 498/498 366/366 522/522
f 141/141 645/645 37/37
f 141/141 37/37 25/25
f 472/472 247/247 212/212
f 472/472 212/212 631/631
f 494/494 472/472 631/631
f 494/494 631/631 284/284
f 661/661 494/494 284/284
f 661/661 284/284 569/569
f 642/642 106/106 139/139
f 642/642 139/139 884/884
f 595/595 648/648 106/106
f 595/595 106/106 642/642
f 757/757 508/508 648/648
f 757/757 648/648 595/595
f 291/291 705/705 19/19
f 291/291 19/19 14/14
f 894/894 340/340 407/407
f 894/894 407/407 346/346
f 851/851 894/894 346/346
f 851/851 346/346 110/110
f 583/583 894/894 851/851
f 583/583 851/851 763/763
f 315/315 340/340 894/894
f 315/315 894/894 583/583
f 19/19 705/705 904/904
f 19/19 904/904 58/58
f 508/508 304/304 671/671
f 508/508 671/671 648/648
f 648/648 671/671 423/423
f 648/648 423/423 106/106
f 106/106 423/423 253/253
f 106/106 253/253 139/139
f 32/32 9/9 722/722
f 32/32 722/722 92/92
f 9/9 39/39 637/637
f 9/9 637/637 722/722
f 39/39 61/61 88/88
f 39/39 88/88 637/637
f 1/1 295/295 88/88
f 1/1 88/88 61/61
f 247/247 295/295 1/1
f 247/247 1/1 25/25
f 212/212 247/247 25/25
f 212/212 25/25 37/37
f 37/37 43/43 402/402
f 37/37 402/402 212/212
f 43/43 14/14 757/757
f 43/43 757/757 402/402
f 14/14 19/19 508/508
f 14/14 508/508 757/757
f 19/19 58/58 304/304
f 19/19 304/304 508/508
f 58/58 54/54 908/908
f 58/58 908/908 304/304
f 182/182 84/84 321/321
f 182/182 321/321 765/765
f 447/447 866/866 182/182
f 447/447 182/182 765/765
f 214/214 696/696 866/866
f 214/214 866/866 447/447
f 214/214 282/282 788/788
f 214/214 788/788 696/696
f 282/282 522/522 141/141
f 282/282 141/141 788/788
f 522/522 366/366 645/645
f 522/522 645/645 141/141
f 366/366 489/489 686/686
f 366/366 686/686 645/645
f 291/291 686/686 489/489
f 291/291 489/489 407/407
f 407/407 340/340 705/705
f 407/407 705/705 291/291
f 904/904 705/705 340/340
f 904/904 340/340 315/315
f 315/315 519/519 718/718
f 315/315 718/718 904/904
f 440/440 790/790 511/511
f 440/440 511/511 399/399
f 399/399 511/511 646/646
f 399/399 646/646 889/889
f 665/665 440/440 399/399
f 665/665 399/399 251/251
f 251/251 399/399 889/889
f 251/251 889/889 565/565
f 90/90 665/665 251/251
f 90/90 251/251 721/721
f 889/889 646/646 581/581
f 889/889 581/581 445/445
f 721/721 251/251 565/565
f 721/721 565/565 636/636
f 565/565 889/889 445/445
f 565/565 445/445 784/784
f 483/483 724/724 573/573
f 483/483 573/573 599/599
f 30/30 10/10 181/181
f 30/30 181/181 82/82
f 599/599 573/573 319/319
f 599/599 319/319 766/766
f 831/831 445/445 581/581
f 831/831 581/581 658/658
f 342/342 483/483 599/599
f 342/342 599/599 107/107
f 181/181 10/10 40/40
f 181/181 40/40 865/865
f 636/636 565/565 784/784
f 636/636 784/784 87/87
f 107/107 599/599 766/766
f 107/107 766/766 448/448
f 714/714 784/784 445/445
f 714/714 445/445 831/831
f 493/493 831/831 658/658
f 493/493 658/658 660/660
f 433/433 342/342 107/107
f 433/433 107/107 566/566
f 865/865 40/40 62/62
f 865/865 62/62 695/695
f 285/285 568/568 715/715
f 285/285 715/715 829/829
f 566/566 107/107 448/448
f 566/566 448/448 215/215
f 829/829 715/715 883/883
f 829/829 883/883 643/643
f 831/831 493/493 473/473
f 831/831 473/473 714/714
f 87/87 784/784 714/714
f 87/87 714/714 294/294
f 424/424 252/252 312/312
f 424/424 312/312 259/259
f 630/630 285/285 829/829
f 630/630 829/829 502/502
f 695/695 62/62 2/2
f 695/695 2/2 787/787
f 433/433 566/566 146/146
f 433/433 146/146 326/326
f 502/502 829/829 643/643
f 502/502 643/643 596/596
f 566/566 215/215 283/283
f 566/566 283/283 146/146
f 714/714 473/473 246/246
f 714/714 246/246 294/294
f 670/670 424/424 259/259
f 670/670 259/259 477/477
f 213/213 630/630 502/502
f 213/213 502/502 401/401
f 787/787 2/2 26/26
f 787/787 26/26 140/140
f 326/326 146/146 497/497
f 326/326 497/497 324/324
f 401/401 502/502 596/596
f 401/401 596/596 756/756
f 146/146 283/283 523/523
f 146/146 523/523 497/497
f 303/303 670/670 477/477
f 303/303 477/477 907/907
f 644/644 38/38 44/44
f 644/644 44/44 685/685
f 441/441 711/711 161/161
f 441/441 161/161 280/280
f 711/711 365/365 490/490
f 711/711 490/490 161/161
f 44/44 13/13 290/290
f 44/44 290/290 685/685
f 347/347 109/109 280/280
f 347/347 280/280 161/161
f 674/674 762/762 584/584
f 674/674 584/584 759/759
f 903/903 57/57 56/56
f 903/903 56/56 717/717
f 408/408 347/347 161/161
f 408/408 161/161 490/490
f 759/759 584/584 314/314
f 759/759 314/314 521/521
f 324/324 497/497 711/711
f 324/324 711/711 441/441
f 497/497 523/523 365/365
f 497/497 365/365 711/711
f 140/140 26/26 38/38
f 140/140 38/38 644/644
f 473/473 630/630 213/213
f 473/473 213/213 246/246
f 493/493 285/285 630/630
f 493/493 630/630 473/473
f 660/660 568/568 285/285
f 660/660 285/285 493/493
f 643/643 883/883 138/138
f 643/643 138/138 105/105
f 596/596 643/643 105/105
f 596/596 105/105 649/649
f 756/756 596/596 649/649
f 756/756 649/649 507/507
f 290/290 13/13 20/20
f 290/290 20/20 704/704
f 893/893 347/347 408/408
f 893/893 408/408 341/341
f 850/850 109/109 347/347
f 850/850 347/347 893/893
f 584/584 762/762 850/850
f 584/584 850/850 893/893
f 314/314 584/584 893/893
f 314/314 893/893 341/341
f 20/20 57/57 903/903
f 20/20 903/903 704/704
f 507/507 649/649 670/670
f 507/507 670/670 303/303
f 649/649 105/105 424/424
f 649/649 424/424 670/670
f 105/105 138/138 252/252
f 105/105 252/252 424/424
f 30/30 90/90 721/721
f 30/30 721/721 10/10
f 10/10 721/721 636/636
f 10/10 636/636 40/40
f 40/40 636/636 87/87
f 40/40 87/87 62/62
f 2/2 62/62 87/87
f 2/2 87/87 294/294
f 246/246 26/26 2/2
f 246/246 2/2 294/294
f 213/213 38/38 26/26
f 213/213 26/26 246/246
f 38/38 213/213 401/401
f 38/38 401/401 44/44
f 44/44 401/401 756/756
f 44/44 756/756 13/13
f 13/13 756/756 507/507
f 13/13 507/507 20/20
f 20/20 507/507 303/303
f 20/20 303/303 57/57
f 57/57 303/303 907/907
f 57/57 907/907 56/56
f 181/181 766/766 319/319
f 181/181 319/319 82/82
f 448/448 766/766 181/181
f 448/448 181/181 865/865
f 215/215 448/448 865/865
f 215/215 865/865 695/695
f 215/215 695/695 787/787
f 215/215 787/787 283/283
f 283/283 787/787 140/140
f 283/283 140/140 523/523
f 523/523 140/140 644/644
f 523/523 644/644 365/365
f 365/365 644/644 685/685
f 365/365 685/685 490/490
f 290/290 408/408 490/490
f 290/290 490/490 685/685
f 408/408 290/290 704/704
f 408/408 704/704 341/341
f 903/903 314/314 341/341
f 903/903 341/341 704/704
f 314/314 903/903 717/717
f 314/314 717/717 521/521
f 709/709 586/586 895/895
f 709/709 895/895 186/186
f 331/331 149/149 527/527
f 331/331 527/527 793/793
f 793/793 525/525 257/257
f 793/793 257/257 331/331
f 909/909 669/669 454/454
f 909/909 454/454 684/684
f 864/864 126/126 868/868
f 864/864 868/868 307/307
f 882/882 909/909 684/684
f 882/882 684/684 744/744
f 690/690 563/563 514/514
f 690/690 514/514 506/506
f 248/248 755/755 345/345
f 248/248 345/345 271/271
f 271/271 345/345 265/265
f 271/271 265/265 184/184
f 300/300 840/840 563/563
f 300/300 563/563 690/690
f 744/744 814/814 397/397
f 744/744 397/397 882/882
f 6/6 27/27 216/216
f 6/6 216/216 444/444
f 292/292 437/437 791/791
f 292/292 791/791 406/406
f 262/262 852/852 840/840
f 262/262 840/840 300/300
f 559/559 317/317 97/97
f 559/559 97/97 682/682
f 682/682 97/97 112/112
f 682/682 112/112 277/277
f 187/187 666/666 437/437
f 187/187 437/437 292/292
f 743/743 905/905 46/46
f 743/743 46/46 11/11
f 482/482 452/452 297/297
f 482/482 297/297 488/488
f 137/137 91/91 666/666
f 137/137 666/666 187/187
f 452/452 144/144 143/143
f 452/452 143/143 297/297
f 779/779 83/83 31/31
f 779/779 31/31 73/73
f 725/725 570/570 693/693
f 725/725 693/693 598/598
f 570/570 320/320 812/812
f 570/570 812/812 693/693
f 134/134 560/560 115/115
f 134/134 115/115 388/388
f 218/218 459/459 67/67
f 218/218 67/67 15/15
f 403/403 901/901 604/604
f 403/403 604/604 616/616
f 706/706 134/134 388/388
f 706/706 388/388 375/375
f 464/464 560/560 17/17
f 464/464 17/17 50/50
f 297/297 97/97 317/317
f 297/297 317/317 488/488
f 143/143 112/112 97/97
f 143/143 97/97 297/297
f 11/11 6/6 444/444
f 11/11 444/444 743/743
f 397/397 262/262 300/300
f 397/397 300/300 882/882
f 882/882 300/300 690/690
f 882/882 690/690 909/909
f 909/909 690/690 506/506
f 909/909 506/506 669/669
f 479/479 747/747 559/559
f 479/479 559/559 682/682
f 500/500 479/479 682/682
f 500/500 682/682 277/277
f 579/579 492/492 744/744
f 579/579 744/744 684/684
f 275/275 579/579 684/684
f 275/275 684/684 454/454
f 693/693 452/452 482/482
f 693/693 482/482 598/598
f 812/812 144/144 452/452
f 812/812 452/452 693/693
f 73/73 46/46 905/905
f 73/73 905/905 779/779
f 852/852 137/137 187/187
f 852/852 187/187 840/840
f 840/840 187/187 292/292
f 840/840 292/292 563/563
f 563/563 292/292 406/406
f 563/563 406/406 514/514
f 116/116 113/113 385/385
f 116/116 385/385 387/387
f 373/373 376/376 387/387
f 373/373 387/387 385/385
f 379/379 381/381 376/376
f 379/379 376/376 373/373
f 381/381 379/379 120/120
f 381/381 120/120 122/122
f 122/122 120/120 169/169
f 122/122 169/169 171/171
f 171/171 169/169 795/795
f 171/171 795/795 797/797
f 797/797 795/795 455/455
f 797/797 455/455 460/460
f 460/460 455/455 66/66
f 460/460 66/66 69/69
f 68/68 65/65 534/534
f 68/68 534/534 537/537
f 537/537 534/534 190/190
f 537/537 190/190 192/192
f 192/192 190/190 823/823
f 192/192 823/823 825/825
f 825/825 823/823 875/875
f 825/825 875/875 878/878
f 878/878 875/875 607/607
f 878/878 607/607 609/609
f 609/609 607/607 601/601
f 609/609 601/601 603/603
f 603/603 601/601 613/613
f 603/603 613/613 615/615
f 615/615 613/613 869/869
f 615/615 869/869 872/872
f 872/872 869/869 817/817
f 872/872 817/817 819/819
f 819/819 817/817 197/197
f 819/819 197/197 199/199
f 199/199 197/197 540/540
f 199/199 540/540 543/543
f 543/543 540/540 47/47
f 543/543 47/47 49/49
f 49/49 47/47 461/461
f 49/49 461/461 463/463
f 463/463 461/461 802/802
f 463/463 802/802 804/804
f 804/804 802/802 163/163
f 804/804 163/163 166/166
f 166/166 163/163 113/113
f 166/166 113/113 116/116
f 610/610 604/604 901/901
f 610/610 901/901 287/287
f 67/67 536/536 254/254
f 67/67 254/254 15/15
f 777/777 403/403 616/616
f 777/777 616/616 871/871
f 307/307 868/868 687/687
f 307/307 687/687 858/858
f 586/586 450/450 657/657
f 586/586 657/657 895/895
f 492/492 516/516 814/814
f 492/492 814/814 744/744
f 59/59 495/495 216/216
f 59/59 216/216 27/27
f 579/579 275/275 149/149
f 579/579 149/149 331/331
f 492/492 579/579 331/331
f 492/492 331/331 257/257
f 516/516 218/218 15/15
f 516/516 15/15 59/59
f 495/495 254/254 329/329
f 495/495 329/329 500/500
f 856/856 479/479 500/500
f 856/856 500/500 329/329
f 239/239 747/747 479/479
f 239/239 479/479 856/856
f 382/382 641/641 706/706
f 382/382 706/706 375/375
f 287/287 421/421 329/329
f 287/287 329/329 254/254
f 777/777 17/17 34/34
f 777/777 34/34 719/719
f 777/777 687/687 184/184
f 777/777 184/184 403/403
f 560/560 574/574 34/34
f 560/560 34/34 17/17
f 450/450 560/560 134/134
f 450/450 134/134 657/657
f 129/129 678/678 586/586
f 129/129 586/586 709/709
f 678/678 130/130 450/450
f 678/678 450/450 586/586
f 130/130 574/574 560/560
f 130/130 560/560 450/450
f 176/176 651/651 186/186
f 176/176 186/186 895/895
f 895/895 657/657 414/414
f 895/895 414/414 176/176
f 414/414 657/657 134/134
f 414/414 134/134 706/706
f 525/525 641/641 218/218
f 525/525 218/218 257/257
f 322/322 289/289 239/239
f 322/322 239/239 856/856
f 421/421 322/322 856/856
f 421/421 856/856 329/329
f 868/868 126/126 248/248
f 868/868 248/248 271/271
f 687/687 868/868 271/271
f 687/687 271/271 184/184
f 777/777 719/719 858/858
f 777/777 858/858 687/687
f 777/777 542/542 50/50
f 777/777 50/50 17/17
f 265/265 901/901 403/403
f 265/265 403/403 184/184
f 793/793 527/527 651/651
f 793/793 651/651 176/176
f 176/176 414/414 525/525
f 176/176 525/525 793/793
f 414/414 706/706 641/641
f 414/414 641/641 525/525
f 218/218 641/641 382/382
f 218/218 382/382 121/121
f 265/265 421/421 287/287
f 265/265 287/287 901/901
f 265/265 345/345 322/322
f 265/265 322/322 421/421
f 345/345 755/755 289/289
f 345/345 289/289 322/322
f 610/610 287/287 254/254
f 610/610 254/254 877/877
f 814/814 516/516 59/59
f 814/814 59/59 27/27
f 397/397 814/814 27/27
f 397/397 27/27 6/6
f 6/6 11/11 262/262
f 6/6 262/262 397/397
f 11/11 46/46 852/852
f 11/11 852/852 262/262
f 46/46 73/73 137/137
f 46/46 137/137 852/852
f 73/73 31/31 91/91
f 73/73 91/91 137/137
f 216/216 495/495 500/500
f 216/216 500/500 277/277
f 444/444 216/216 277/277
f 444/444 277/277 112/112
f 743/743 444/444 112/112
f 743/743 112/112 143/143
f 144/144 905/905 743/743
f 144/144 743/743 143/143
f 779/779 905/905 144/144
f 779/779 144/144 812/812
f 320/320 83/83 779/779
f 320/320 779/779 812/812
f 492/492 257/257 218/218
f 492/492 218/218 516/516
f 59/59 15/15 254/254
f 59/59 254/254 495/495
f 708/708 185/185 896/896
f 708/708 896/896 585/585
f 330/330 794/794 526/526
f 330/330 526/526 148/148
f 794/794 330/330 256/256
f 794/794 256/256 524/524
f 910/910 683/683 453/453
f 910/910 453/453 668/668
f 863/863 305/305 867/867
f 863/863 867/867 125/125
f 881/881 745/745 683/683
f 881/881 683/683 910/910
f 689/689 505/505 513/513
f 689/689 513/513 562/562
f 249/249 270/270 344/344
f 249/249 344/344 754/754
f 270/270 183/183 264/264
f 270/270 264/264 344/344
f 299/299 689/689 562/562
f 299/299 562/562 841/841
f 745/745 881/881 398/398
f 745/745 398/398 815/815
f 5/5 443/443 217/217
f 5/5 217/217 28/28
f 293/293 405/405 789/789
f 293/293 789/789 439/439
f 263/263 299/299 841/841
f 263/263 841/841 853/853
f 558/558 681/681 98/98
f 558/558 98/98 316/316
f 681/681 276/276 111/111
f 681/681 111/111 98/98
f 188/188 293/293 439/439
f 188/188 439/439 664/664
f 742/742 12/12 45/45
f 742/742 45/45 906/906
f 481/481 487/487 296/296
f 481/481 296/296 451/451
f 136/136 188/188 664/664
f 136/136 664/664 89/89
f 451/451 296/296 142/142
f 451/451 142/142 145/145
f 780/780 74/74 29/29
f 780/780 29/29 81/81
f 723/723 597/597 694/694
f 723/723 694/694 572/572
f 572/572 694/694 813/813
f 572/572 813/813 318/318
f 135/135 390/390 117/117
f 135/135 117/117 561/561
f 219/219 16/16 72/72
f 219/219 72/72 458/458
f 404/404 617/617 606/606
f 404/404 606/606 902/902
f 707/707 377/377 390/390
f 707/707 390/390 135/135
f 466/466 51/51 18/18
f 466/466 18/18 561/561
f 296/296 487/487 316/316
f 296/296 316/316 98/98
f 142/142 296/296 98/98
f 142/142 98/98 111/111
f 12/12 742/742 443/443
f 12/12 443/443 5/5
f 398/398 881/881 299/299
f 398/398 299/299 263/263
f 881/881 910/910 689/689
f 881/881 689/689 299/299
f 910/910 668/668 505/505
f 910/910 505/505 689/689
f 480/480 681/681 558/558
f 480/480 558/558 746/746
f 499/499 276/276 681/681
f 499/499 681/681 480/480
f 580/580 683/683 745/745
f 580/580 745/745 491/491
f 274/274 453/453 683/683
f 274/274 683/683 580/580
f 694/694 597/597 481/481
f 694/694 481/481 451/451
f 813/813 694/694 451/451
f 813/813 451/451 145/145
f 74/74 780/780 906/906
f 74/74 906/906 45/45
f 853/853 841/841 188/188
f 853/853 188/188 136/136
f 841/841 562/562 293/293
f 841/841 293/293 188/188
f 562/562 513/513 405/405
f 562/562 405/405 293/293
f 118/118 389/389 386/386
f 118/118 386/386 114/114
f 374/374 386/386 389/389
f 374/374 389/389 378/378
f 380/380 374/374 378/378
f 380/380 378/378 384/384
f 384/384 123/123 119/119
f 384/384 119/119 380/380
f 123/123 174/174 170/170
f 123/123 170/170 119/119
f 174/174 800/800 796/796
f 174/174 796/796 170/170
f 800/800 457/457 456/456
f 800/800 456/456 796/796
f 457/457 71/71 64/64
f 457/457 64/64 456/456
f 70/70 539/539 535/535
f 70/70 535/535 63/63
f 539/539 194/194 191/191
f 539/539 191/191 535/535
f 194/194 828/828 824/824
f 194/194 824/824 191/191
f 828/828 880/880 876/876
f 828/828 876/876 824/824
f 880/880 612/612 608/608
f 880/880 608/608 876/876
f 612/612 605/605 602/602
f 612/612 602/602 608/608
f 605/605 618/618 614/614
f 605/605 614/614 602/602
f 618/618 873/873 870/870
f 618/618 870/870 614/614
f 873/873 822/822 818/818
f 873/873 818/818 870/870
f 822/822 200/200 196/196
f 822/822 196/196 818/818
f 200/200 544/544 541/541
f 200/200 541/541 196/196
f 544/544 52/52 48/48
f 544/544 48/48 541/541
f 52/52 465/465 462/462
f 52/52 462/462 48/48
f 465/465 805/805 801/801
f 465/465 801/801 462/462
f 805/805 167/167 164/164
f 805/805 164/164 801/801
f 167/167 118/118 114/114
f 167/167 114/114 164/164
f 611/611 286/286 902/902
f 611/611 902/902 606/606
f 72/72 16/16 255/255
f 72/72 255/255 538/538
f 778/778 874/874 617/617
f 778/778 617/617 404/404
f 305/305 861/861 688/688
f 305/305 688/688 867/867
f 585/585 896/896 656/656
f 585/585 656/656 449/449
f 491/491 745/745 815/815
f 491/491 815/815 515/515
f 60/60 28/28 217/217
f 60/60 217/217 496/496
f 580/580 330/330 148/148
f 580/580 148/148 274/274
f 491/491 256/256 330/330
f 491/491 330/330 580/580
f 515/515 60/60 16/16
f 515/515 16/16 219/219
f 496/496 499/499 328/328
f 496/496 328/328 255/255
f 857/857 328/328 499/499
f 857/857 499/499 480/480
f 238/238 857/857 480/480
f 238/238 480/480 746/746
f 383/383 377/377 707/707
f 383/383 707/707 640/640
f 286/286 255/255 328/328
f 286/286 328/328 422/422
f 778/778 720/720 36/36
f 778/778 36/36 18/18
f 778/778 404/404 183/183
f 778/778 183/183 688/688
f 561/561 18/18 36/36
f 561/561 36/36 575/575
f 449/449 656/656 135/135
f 449/449 135/135 561/561
f 128/128 708/708 585/585
f 128/128 585/585 677/677
f 677/677 585/585 449/449
f 677/677 449/449 132/132
f 132/132 449/449 561/561
f 132/132 561/561 575/575
f 175/175 896/896 185/185
f 175/175 185/185 650/650
f 896/896 175/175 413/413
f 896/896 413/413 656/656
f 413/413 707/707 135/135
f 413/413 135/135 656/656
f 524/524 256/256 219/219
f 524/524 219/219 640/640
f 323/323 857/857 238/238
f 323/323 238/238 288/288
f 422/422 328/328 857/857
f 422/422 857/857 323/323
f 867/867 270/270 249/249
f 867/867 249/249 125/125
f 688/688 183/183 270/270
f 688/688 270/270 867/867
f 778/778 688/688 861/861
f 778/778 861/861 720/720
f 778/778 18/18 51/51
f 778/778 51/51 545/545
f 264/264 183/183 404/404
f 264/264 404/404 902/902
f 794/794 175/175 650/650
f 794/794 650/650 526/526
f 175/175 794/794 524/524
f 175/175 524/524 413/413
f 413/413 524/524 640/640
f 413/413 640/640 707/707
f 219/219 124/124 383/383
f 219/219 383/383 640/640
f 264/264 902/902 286/286
f 264/264 286/286 422/422
f 264/264 422/422 323/323
f 264/264 323/323 344/344
f 344/344 323/323 288/288
f 344/344 288/288 754/754
f 611/611 879/879 255/255
f 611/611 255/255 286/286
f 815/815 28/28 60/60
f 815/815 60/60 515/515
f 398/398 5/5 28/28
f 398/398 28/28 815/815
f 5/5 398/398 263/263
f 5/5 263/263 12/12
f 12/12 263/263 853/853
f 12/12 853/853 45/45
f 45/45 853/853 136/136
f 45/45 136/136 74/74
f 74/74 136/136 89/89
f 74/74 89/89 29/29
f 217/217 276/276 499/499
f 217/217 499/499 496/496
f 443/443 111/111 276/276
f 443/443 276/276 217/217
f 742/742 142/142 111/111
f 742/742 111/111 443/443
f 145/145 142/142 742/742
f 145/145 742/742 906/906
f 780/780 813/813 145/145
f 780/780 145/145 906/906
f 318/318 813/813 780/780
f 318/318 780/780 81/81
f 491/491 515/515 219/219
f 491/491 219/219 256/256
f 60/60 496/496 255/255
f 60/60 255/255 16/16