o convex_0
v 0.000942 -0.087193 0.001098
v 0.000456 -0.035327 0.015710
v 0.000944 -0.020955 0.014247
v -0.007581 -0.036788 0.006943
v -0.005875 -0.085977 0.013029
v 0.007033 -0.084754 0.011568
v 0.003866 -0.020948 0.003290
v -0.003927 -0.084027 0.001342
v 0.007520 -0.036543 0.006455
v -0.001979 -0.020955 0.002316
v -0.004657 -0.020948 0.012299
v 0.006058 -0.084754 0.003289
v 0.000700 -0.086711 0.015465
v 0.006545 -0.035075 0.012300
v 0.002648 -0.036298 0.000853
v -0.007337 -0.086221 0.006699
v -0.003927 -0.036543 0.014977
v -0.003439 -0.036298 0.001098
v -0.007093 -0.036543 0.011568
v 0.002892 -0.090122 0.009134
v 0.005814 -0.020704 0.009864
v 0.003866 -0.084754 0.014979
v -0.006607 -0.035571 0.004021
v -0.005875 -0.020704 0.006701
v -0.002953 -0.083293 0.015467
v 0.007520 -0.085243 0.006699
v 0.006789 -0.036054 0.004265
v 0.003866 -0.036060 0.014979
v 0.001674 -0.084027 0.000610
v -0.004657 -0.089633 0.006457
v -0.007581 -0.084027 0.009620
v -0.007093 -0.084027 0.004751
v 0.007520 -0.036543 0.009864
v -0.003683 -0.089388 0.012299
v -0.001491 -0.036788 0.000610
v 0.003378 -0.089388 0.003777
v 0.003866 -0.036060 0.001341
v 0.005084 -0.089143 0.011082
v 0.003866 -0.084754 0.001341
v 0.003866 -0.020948 0.013029
v 0.005814 -0.020704 0.006455
v 0.001674 -0.084509 0.015710
v -0.001735 -0.083293 0.000610
v -0.003683 -0.088409 0.002803
v -0.001735 -0.037025 0.015710
v -0.004413 -0.020948 0.003777
v 0.006058 -0.084998 0.013030
v -0.001491 -0.020704 0.014003
v -0.006849 -0.084027 0.012056
v 0.007276 -0.084027 0.005239
v 0.000700 -0.020955 0.002072
v -0.006119 -0.020955 0.008646
v 0.007520 -0.084754 0.009864
v 0.002404 -0.089143 0.013517
v -0.007581 -0.036788 0.009376
v 0.002892 -0.037025 0.015467
v 0.006058 -0.088654 0.006455
v -0.004171 -0.085243 0.014735
v -0.006607 -0.087927 0.009620
v -0.007581 -0.084027 0.006699
v -0.007337 -0.036788 0.005481
v -0.006607 -0.035571 0.012300
v -0.006363 -0.085488 0.003777
v -0.000517 -0.089626 0.003290
f 30 44 64 
f 18 8 23 
f 14 6 33 
f 9 21 33 
f 21 14 33 
f 26 9 33 
f 30 20 34 
f 18 10 35 
f 15 29 35 
f 7 27 37 
f 27 12 37 
f 1 29 39 
f 29 15 39 
f 36 1 39 
f 12 36 39 
f 15 37 39 
f 37 12 39 
f 14 21 40 
f 3 28 40 
f 28 14 40 
f 21 9 41 
f 24 21 41 
f 27 7 41 
f 9 27 41 
f 13 22 42 
f 25 13 42 
f 1 8 43 
f 8 18 43 
f 29 1 43 
f 18 35 43 
f 35 29 43 
f 8 1 44 
f 30 16 44 
f 2 3 45 
f 17 25 45 
f 25 42 45 
f 42 2 45 
f 10 18 46 
f 18 23 46 
f 24 10 46 
f 23 24 46 
f 6 14 47 
f 14 28 47 
f 28 22 47 
f 38 6 47 
f 11 17 48 
f 24 11 48 
f 21 24 48 
f 3 40 48 
f 40 21 48 
f 45 3 48 
f 17 45 48 
f 19 31 49 
f 9 26 50 
f 26 12 50 
f 12 27 50 
f 27 9 50 
f 10 24 51 
f 35 10 51 
f 15 35 51 
f 7 37 51 
f 37 15 51 
f 41 7 51 
f 24 41 51 
f 19 11 52 
f 11 24 52 
f 24 4 52 
f 33 6 53 
f 26 33 53 
f 6 38 53 
f 22 13 54 
f 13 34 54 
f 34 20 54 
f 20 38 54 
f 47 22 54 
f 38 47 54 
f 4 31 55 
f 31 19 55 
f 52 4 55 
f 19 52 55 
f 3 2 56 
f 28 3 56 
f 22 28 56 
f 42 22 56 
f 2 42 56 
f 12 26 57 
f 36 12 57 
f 20 36 57 
f 38 20 57 
f 26 53 57 
f 53 38 57 
f 13 25 58 
f 25 17 58 
f 5 34 58 
f 34 13 58 
f 49 5 58 
f 16 30 59 
f 31 16 59 
f 34 5 59 
f 30 34 59 
f 5 49 59 
f 49 31 59 
f 31 4 60 
f 16 31 60 
f 32 16 60 
f 32 60 61 
f 4 24 61 
f 24 23 61 
f 23 32 61 
f 60 4 61 
f 17 11 62 
f 11 19 62 
f 19 49 62 
f 58 17 62 
f 49 58 62 
f 23 8 63 
f 16 32 63 
f 32 23 63 
f 8 44 63 
f 44 16 63 
f 20 30 64 
f 1 36 64 
f 36 20 64 
f 44 1 64 
o convex_1
v 0.003134 -0.020704 0.013518
v -0.001491 -0.016318 -0.000122
v -0.001491 -0.012666 -0.000122
v -0.008312 -0.018755 0.009620
v -0.001003 -0.010231 0.014979
v 0.008251 -0.012423 0.006699
v 0.003866 -0.020704 0.003289
v -0.006361 -0.010231 0.005481
v 0.004354 -0.010231 0.002801
v 0.001430 -0.018755 0.016441
v -0.004414 -0.020704 0.003776
v 0.005571 -0.010474 0.012544
v 0.008251 -0.018755 0.009864
v -0.007336 -0.012422 0.011324
v -0.002466 -0.018755 0.015953
v 0.002405 -0.018755 0.000366
v -0.007824 -0.018755 0.005725
v -0.004658 -0.020704 0.012299
v 0.007520 -0.018755 0.005238
v -0.001248 -0.012422 0.016441
v -0.008067 -0.012422 0.006213
v 0.003134 -0.012422 0.015467
v 0.003134 -0.012422 0.000853
v -0.002466 -0.018755 0.000366
v -0.005875 -0.010231 0.011812
v -0.000760 -0.010231 0.001341
v 0.007763 -0.012667 0.010838
v 0.006057 -0.020704 0.007187
v 0.006789 -0.010231 0.009132
v 0.001674 -0.009986 0.006699
v -0.003928 -0.012422 0.001584
v 0.003379 -0.018755 0.015222
v -0.008312 -0.012422 0.009377
v -0.006118 -0.020704 0.007673
v -0.000760 -0.020704 0.002072
v 0.001187 -0.012422 -0.000122
v -0.003683 -0.012422 0.014979
v -0.007093 -0.018755 0.011569
v -0.001003 -0.020704 0.014248
v 0.007763 -0.012667 0.005481
v 0.002162 -0.010231 0.014736
v -0.004414 -0.010231 0.002801
v 0.008251 -0.018755 0.006456
v 0.001187 -0.012422 0.016441
v 0.001430 -0.018755 -0.000122
v -0.008312 -0.018755 0.006699
v 0.005328 -0.020704 0.011324
v 0.006545 -0.010231 0.005969
v 0.007520 -0.018755 0.011081
v -0.007336 -0.012422 0.004995
v -0.006849 -0.018755 0.004507
v -0.001979 -0.009986 0.009132
v 0.008251 -0.012423 0.009620
v -0.004414 -0.010231 0.013518
v -0.006849 -0.010231 0.008403
v -0.001491 -0.018755 0.016441
v 0.003379 -0.018755 0.001097
v 0.001430 -0.009986 0.009864
v 0.002648 -0.010231 0.001827
v -0.001734 -0.018997 0.000123
v -0.002466 -0.012422 0.015953
v -0.008312 -0.012422 0.006942
v 0.004109 -0.010231 0.013761
v 0.002162 -0.012666 0.016196
f 127 105 128 
f 71 65 75 
f 75 65 82 
f 67 66 88 
f 76 86 91 
f 65 71 92 
f 67 88 95 
f 74 65 96 
f 91 86 96 
f 68 78 97 
f 78 89 97 
f 75 82 98 
f 82 68 98 
f 71 75 99 
f 66 67 100 
f 67 90 100 
f 78 68 102 
f 68 82 102 
f 82 79 102 
f 101 78 102 
f 79 101 102 
f 65 74 103 
f 82 65 103 
f 79 82 103 
f 87 73 104 
f 83 87 104 
f 90 67 106 
f 94 90 106 
f 67 95 106 
f 70 77 107 
f 71 83 107 
f 92 71 107 
f 77 92 107 
f 104 70 107 
f 83 104 107 
f 69 84 108 
f 84 74 108 
f 105 69 108 
f 80 71 109 
f 87 80 109 
f 71 99 109 
f 66 100 109 
f 100 87 109 
f 81 75 110 
f 85 81 110 
f 68 97 110 
f 98 68 110 
f 75 98 110 
f 65 92 111 
f 92 77 111 
f 96 65 111 
f 93 70 112 
f 73 94 112 
f 94 93 112 
f 70 104 112 
f 104 73 112 
f 77 91 113 
f 91 96 113 
f 111 77 113 
f 96 111 113 
f 85 72 114 
f 81 85 114 
f 72 106 114 
f 106 95 114 
f 75 81 115 
f 88 75 115 
f 95 88 115 
f 81 114 115 
f 114 95 115 
f 106 72 116 
f 94 106 116 
f 77 70 117 
f 76 91 117 
f 91 77 117 
f 70 93 117 
f 93 76 117 
f 89 78 118 
f 78 101 118 
f 69 116 118 
f 116 89 118 
f 97 89 119 
f 89 116 119 
f 116 72 119 
f 74 84 120 
f 103 74 120 
f 79 103 120 
f 71 80 121 
f 83 71 121 
f 80 87 121 
f 87 83 121 
f 93 94 122 
f 69 105 122 
f 116 69 122 
f 94 116 122 
f 73 87 123 
f 90 94 123 
f 94 73 123 
f 87 100 123 
f 100 90 123 
f 88 66 124 
f 75 88 124 
f 99 75 124 
f 66 109 124 
f 109 99 124 
f 84 69 125 
f 101 79 125 
f 69 118 125 
f 118 101 125 
f 120 84 125 
f 79 120 125 
f 72 85 126 
f 85 110 126 
f 110 97 126 
f 119 72 126 
f 97 119 126 
f 86 76 127 
f 76 93 127 
f 93 122 127 
f 122 105 127 
f 74 96 128 
f 96 86 128 
f 108 74 128 
f 105 108 128 
f 86 127 128 
o convex_2
v 0.001918 0.072097 0.009134
v -0.001979 -0.009986 0.007186
v -0.001005 -0.009986 0.006211
v 0.001674 -0.009986 0.009620
v -0.001979 0.072097 0.009133
v 0.001431 0.072097 0.006455
v -0.001005 -0.009986 0.010108
v -0.001005 0.072097 0.006211
v 0.001674 -0.009986 0.006699
v 0.000944 0.072097 0.010108
v -0.001005 0.072097 0.010108
v -0.001979 0.072097 0.007186
v -0.001979 -0.009986 0.009133
v 0.000944 -0.009986 0.006211
v 0.001918 -0.009986 0.007186
v 0.001918 0.072097 0.007186
v 0.000944 -0.009986 0.010108
v 0.000944 0.072097 0.006211
v 0.001918 -0.009986 0.009134
v 0.001431 0.072097 0.009864
v 0.001674 0.072097 0.006699
v 0.001674 0.072097 0.009621
v 0.001431 -0.009986 0.009864
v 0.001431 -0.009986 0.006455
f 149 137 152 
f 130 131 132 
f 133 129 134 
f 130 132 135 
f 131 130 136 
f 133 134 136 
f 132 131 137 
f 129 133 138 
f 135 138 139 
f 133 135 139 
f 138 133 139 
f 130 133 140 
f 136 130 140 
f 133 136 140 
f 133 130 141 
f 130 135 141 
f 135 133 141 
f 131 136 142 
f 137 131 142 
f 132 137 143 
f 134 129 144 
f 129 143 144 
f 135 132 145 
f 138 135 145 
f 136 134 146 
f 142 136 146 
f 134 142 146 
f 143 129 147 
f 132 143 147 
f 129 138 148 
f 138 145 148 
f 143 137 149 
f 144 143 149 
f 134 144 149 
f 147 129 150 
f 132 147 150 
f 129 148 150 
f 150 148 151 
f 145 132 151 
f 148 145 151 
f 132 150 151 
f 142 134 152 
f 137 142 152 
f 134 149 152 
o convex_3
v 0.003623 0.081838 0.008890
v -0.003684 0.080623 0.007186
v -0.003440 0.079892 0.006942
v -0.001004 0.072097 0.010108
v 0.000943 0.072097 0.006211
v -0.002708 0.090122 0.007917
v 0.002648 0.089144 0.007673
v -0.003440 0.082570 0.009377
v 0.002648 0.089390 0.008646
v 0.001431 0.072097 0.009864
v -0.001978 0.072097 0.007186
v 0.003623 0.080381 0.006942
v -0.000274 0.077701 0.006211
v 0.000943 0.077216 0.010108
v -0.003684 0.080623 0.009377
v -0.002708 0.089390 0.008646
v 0.001917 0.072097 0.007186
v 0.003623 0.080381 0.009377
v -0.001004 0.072097 0.006211
v -0.001978 0.072097 0.009133
v -0.000517 0.077701 0.010108
v -0.003195 0.080381 0.006699
v -0.002708 0.089144 0.007673
v 0.003135 0.080381 0.006699
v 0.001917 0.072097 0.009133
v 0.002648 0.090122 0.008403
v 0.003135 0.080623 0.009620
v 0.000943 0.072097 0.010108
v -0.003195 0.080623 0.009620
v 0.002648 0.090122 0.007917
v 0.000943 0.077216 0.006211
v 0.003623 0.081353 0.006942
f 182 153 184 
f 156 157 162 
f 154 155 163 
f 157 156 163 
f 158 154 167 
f 154 163 167 
f 158 167 168 
f 167 160 168 
f 162 157 169 
f 157 164 169 
f 169 164 170 
f 164 153 170 
f 163 155 171 
f 157 163 171 
f 165 157 171 
f 163 156 172 
f 156 167 172 
f 167 163 172 
f 156 166 173 
f 166 161 173 
f 161 168 173 
f 155 154 174 
f 171 155 174 
f 165 171 174 
f 154 158 175 
f 158 159 175 
f 159 165 175 
f 174 154 175 
f 165 174 175 
f 164 157 176 
f 162 169 177 
f 169 170 177 
f 170 162 177 
f 158 168 178 
f 168 161 178 
f 170 153 178 
f 161 170 178 
f 161 166 179 
f 170 161 179 
f 170 179 180 
f 156 162 180 
f 166 156 180 
f 162 170 180 
f 179 166 180 
f 167 156 181 
f 160 167 181 
f 168 160 181 
f 156 173 181 
f 173 168 181 
f 159 158 182 
f 158 178 182 
f 178 153 182 
f 157 165 183 
f 165 159 183 
f 159 176 183 
f 176 157 183 
f 153 164 184 
f 176 159 184 
f 164 176 184 
f 159 182 184 
