o convex_0
v -0.001871 0.007837 -0.000187
v 0.000741 0.090297 0.020337
v -0.000751 0.090297 0.020337
v 0.001114 0.090305 -0.000187
v 0.002234 0.007837 0.019963
v -0.002244 0.007837 0.019966
v -0.002244 0.088432 0.000189
v 0.002234 0.007837 0.000189
v 0.002234 0.089186 0.019966
v -0.002244 0.088067 0.019963
v 0.002234 0.089186 0.000189
v -0.002244 0.007837 0.000189
v 0.001861 0.007837 0.020337
v -0.001871 0.007837 0.020337
v 0.001861 0.007837 -0.000187
v -0.000751 0.090297 -0.000187
v -0.000751 0.090687 0.019963
v -0.001871 0.088432 -0.000187
v 0.001861 0.089186 0.020337
v -0.001871 0.088067 0.020337
v 0.000741 0.090687 0.000189
v 0.000741 0.090687 0.019963
v -0.000751 0.090687 0.000189
v 0.001861 0.089559 -0.000187
v -0.001124 0.090297 0.019963
v -0.002244 0.088432 0.019590
f 25 7 26 
f 1 5 6 
f 5 1 8 
f 5 8 9 
f 7 6 10 
f 9 8 11 
f 1 6 12 
f 6 7 12 
f 7 1 12 
f 2 3 13 
f 6 5 13 
f 5 9 13 
f 13 3 14 
f 6 13 14 
f 1 4 15 
f 8 1 15 
f 11 8 15 
f 4 1 16 
f 3 2 17 
f 1 7 18 
f 16 1 18 
f 7 16 18 
f 2 13 19 
f 13 9 19 
f 3 10 20 
f 10 6 20 
f 14 3 20 
f 6 14 20 
f 9 11 21 
f 21 17 22 
f 17 2 22 
f 2 19 22 
f 19 9 22 
f 9 21 22 
f 4 16 23 
f 16 7 23 
f 21 4 23 
f 17 21 23 
f 15 4 24 
f 11 15 24 
f 4 21 24 
f 21 11 24 
f 10 3 25 
f 3 17 25 
f 23 7 25 
f 17 23 25 
f 7 10 26 
f 10 25 26 
o convex_1
v 0.011936 -0.080234 -0.000187
v -0.014187 -0.068286 0.000189
v -0.014187 -0.068286 0.019963
v 0.010070 -0.034334 0.000189
v 0.013801 -0.045537 0.020337
v -0.010080 -0.034334 0.019963
v 0.001861 -0.090311 0.020337
v -0.010827 -0.035459 -0.000187
v -0.006721 -0.088447 -0.000187
v 0.012308 -0.080234 0.019590
v -0.009706 -0.085457 0.020337
v 0.009695 -0.034334 0.020337
v 0.014176 -0.045537 0.000189
v 0.005964 -0.089567 0.000189
v -0.014187 -0.047777 0.019963
v 0.014176 -0.069411 0.019963
v -0.014187 -0.047777 0.000189
v -0.011199 -0.083218 0.000189
v 0.008951 -0.087697 0.019963
v 0.014176 -0.069411 0.000189
v -0.001871 -0.090687 0.019963
v 0.010817 -0.035459 -0.000187
v -0.010827 -0.035829 0.020337
v -0.001871 -0.090687 0.000189
v -0.009706 -0.034334 -0.000187
v 0.009323 -0.087322 0.000189
v 0.011189 -0.035459 0.019590
v -0.012318 -0.079114 0.019590
v 0.014176 -0.045537 0.019963
v -0.006721 -0.088817 0.019590
v 0.011561 -0.080609 0.020337
v -0.011199 -0.035829 0.019963
v -0.013812 -0.068286 -0.000187
v 0.001861 -0.090687 0.019963
v -0.010080 -0.085457 0.000189
v 0.012308 -0.080234 0.000189
v -0.013065 -0.042553 0.000189
v 0.012308 -0.038819 0.000189
v -0.013812 -0.068286 0.020337
v -0.011199 -0.083218 0.019963
v -0.012318 -0.079114 0.000189
v 0.005964 -0.089567 0.019963
v 0.001861 -0.090687 0.000189
v 0.013801 -0.045537 -0.000187
v -0.006721 -0.088817 0.000189
v 0.005964 -0.089192 -0.000187
v 0.011189 -0.083218 0.019963
v 0.013055 -0.076505 0.019963
v -0.013065 -0.042553 0.019963
v -0.010080 -0.085457 0.019963
v -0.011199 -0.035829 0.000189
v 0.011189 -0.035459 0.000189
v 0.013055 -0.041428 0.019963
v -0.013812 -0.047402 -0.000187
v -0.013812 -0.047777 0.020337
v 0.013055 -0.076505 0.000189
v -0.010827 -0.083593 -0.000187
v 0.013801 -0.069411 0.020337
v 0.011189 -0.083218 0.000189
v 0.013801 -0.069411 -0.000187
v 0.009323 -0.087322 0.019590
v 0.008576 -0.087322 0.020337
v -0.007096 -0.088066 0.020337
v -0.010080 -0.034334 0.000189
f 34 77 90 
f 34 27 35 
f 33 31 37 
f 30 32 38 
f 37 31 38 
f 28 29 41 
f 28 41 43 
f 39 42 46 
f 27 34 48 
f 38 32 49 
f 37 38 49 
f 32 30 51 
f 48 34 51 
f 30 48 51 
f 45 40 52 
f 30 38 53 
f 29 28 54 
f 31 42 55 
f 42 39 55 
f 50 47 56 
f 31 33 57 
f 49 32 58 
f 34 35 59 
f 28 43 59 
f 33 47 60 
f 47 50 60 
f 43 41 63 
f 41 29 65 
f 37 49 65 
f 29 54 66 
f 54 44 66 
f 44 61 66 
f 65 29 66 
f 37 65 66 
f 54 28 67 
f 44 54 67 
f 28 59 67 
f 40 45 68 
f 60 40 68 
f 33 60 68 
f 40 60 69 
f 60 50 69 
f 39 46 70 
f 27 48 70 
f 64 39 70 
f 48 64 70 
f 35 50 71 
f 50 56 71 
f 61 35 71 
f 56 61 71 
f 35 27 72 
f 50 35 72 
f 27 52 72 
f 52 40 72 
f 40 69 72 
f 69 50 72 
f 62 36 73 
f 46 42 74 
f 36 62 74 
f 73 36 74 
f 57 73 74 
f 49 58 75 
f 63 41 75 
f 58 63 75 
f 61 56 76 
f 66 61 76 
f 37 66 76 
f 58 32 77 
f 34 63 77 
f 63 58 77 
f 48 30 78 
f 30 53 78 
f 64 48 78 
f 53 64 78 
f 38 31 79 
f 53 38 79 
f 31 55 79 
f 55 39 79 
f 39 64 79 
f 64 53 79 
f 34 59 80 
f 59 43 80 
f 63 34 80 
f 43 63 80 
f 41 65 81 
f 65 49 81 
f 75 41 81 
f 49 75 81 
f 62 27 82 
f 46 74 82 
f 74 62 82 
f 59 35 83 
f 35 61 83 
f 61 44 83 
f 44 67 83 
f 67 59 83 
f 42 31 84 
f 31 57 84 
f 74 42 84 
f 57 74 84 
f 52 27 85 
f 27 62 85 
f 73 52 85 
f 62 73 85 
f 27 70 86 
f 70 46 86 
f 82 27 86 
f 46 82 86 
f 45 52 87 
f 73 45 87 
f 52 73 87 
f 57 33 88 
f 68 45 88 
f 33 68 88 
f 45 73 88 
f 73 57 88 
f 33 37 89 
f 47 33 89 
f 56 47 89 
f 37 76 89 
f 76 56 89 
f 32 51 90 
f 51 34 90 
f 77 32 90 
o convex_2
v 0.008951 0.005596 0.000189
v -0.011201 -0.024254 0.000189
v -0.011201 -0.024254 0.019963
v 0.010071 -0.034334 0.019963
v -0.005974 0.007090 0.020337
v 0.009698 -0.034334 -0.000187
v -0.009706 0.004477 -0.000187
v 0.010071 0.004477 0.019963
v -0.009706 -0.034334 0.020337
v -0.009706 -0.034334 -0.000187
v 0.011191 -0.015672 0.000189
v -0.010081 0.004477 0.019963
v 0.002233 0.007837 -0.000187
v 0.005965 0.007090 0.020337
v 0.011191 -0.024254 0.019963
v -0.005601 0.007837 0.000189
v -0.011201 -0.015672 0.000189
v 0.010071 0.004477 0.000189
v 0.005591 0.007837 0.019590
v 0.009698 -0.034334 0.020337
v 0.011191 -0.024254 0.000189
v -0.005601 0.007837 0.019590
v 0.011191 -0.015672 0.019963
v -0.011201 -0.015672 0.019963
v 0.005965 0.007461 -0.000187
v -0.010081 0.004477 0.000189
v -0.010081 -0.034334 0.019963
v -0.010081 -0.034334 0.000189
v 0.010071 -0.034334 0.000189
v 0.009698 0.004477 -0.000187
v 0.009698 0.004477 0.020337
v -0.009706 0.004101 0.020337
v 0.005591 0.007837 0.000189
v 0.008951 0.005596 0.019963
v -0.010826 -0.024254 -0.000187
v 0.010816 -0.024254 -0.000187
v -0.010826 -0.015672 0.020337
v 0.010816 -0.015672 0.020337
v -0.009706 0.004848 0.000189
v 0.002233 0.007837 0.020337
v -0.005601 0.007461 -0.000187
v -0.009706 0.004848 0.019590
f 112 129 132 
f 96 94 99 
f 96 99 100 
f 97 96 100 
f 96 97 103 
f 95 99 104 
f 92 93 107 
f 91 98 108 
f 98 101 108 
f 103 106 109 
f 99 94 110 
f 104 99 110 
f 94 105 110 
f 105 94 111 
f 101 105 111 
f 102 95 112 
f 109 106 112 
f 101 98 113 
f 105 101 113 
f 107 93 114 
f 102 107 114 
f 96 103 115 
f 97 107 116 
f 107 102 116 
f 93 92 117 
f 99 93 117 
f 100 99 117 
f 100 117 118 
f 92 100 118 
f 117 92 118 
f 94 96 119 
f 111 94 119 
f 96 111 119 
f 91 108 120 
f 108 101 120 
f 96 115 120 
f 115 91 120 
f 104 110 121 
f 113 98 121 
f 99 95 122 
f 95 102 122 
f 109 91 123 
f 103 109 123 
f 115 103 123 
f 91 115 123 
f 98 91 124 
f 91 109 124 
f 109 104 124 
f 121 98 124 
f 104 121 124 
f 100 92 125 
f 97 100 125 
f 92 107 125 
f 107 97 125 
f 111 96 126 
f 101 111 126 
f 96 120 126 
f 120 101 126 
f 93 99 127 
f 114 93 127 
f 102 114 127 
f 99 122 127 
f 122 102 127 
f 110 105 128 
f 105 113 128 
f 121 110 128 
f 113 121 128 
f 106 97 129 
f 112 106 129 
f 97 116 129 
f 116 102 129 
f 95 104 130 
f 104 109 130 
f 112 95 130 
f 109 112 130 
f 103 97 131 
f 97 106 131 
f 106 103 131 
f 102 112 132 
f 129 102 132 
