# https://github.com/mikedh/trimesh
mtllib material0.mtl
usemtl material0
v 0.00808930 -0.02090017 0.00602314
v -0.00527817 0.00704656 0.01114848
v -0.00527817 0.00704656 0.01114848
v 0.00194811 0.07652083 0.01263827
v 0.00194811 0.07652083 0.01263827
v 0.00527817 0.00704657 0.01720278
v 0.00527817 0.00704657 0.01720278
v -0.00099221 0.08689507 0.01516150
v -0.00099221 0.08689507 0.01516150
v -0.00000001 0.08688505 0.01167753
v -0.00808930 -0.02090017 0.02232813
v -0.00129883 0.00600150 0.01194233
v -0.00129883 0.00772120 0.01194233
v 0.00593076 -0.00602540 0.00833896
v 0.00237227 -0.02896428 0.00487715
v 0.00194811 0.08339015 0.01263827
v 0.00194811 0.08339015 0.01263827
v 0.00194811 0.08339015 0.01263827
v -0.00808065 -0.08053520 0.00608699
v 0.00569785 -0.08053519 0.00428504
v -0.00426102 0.00756172 0.01417563
v 0.00329349 -0.08821633 0.02026909
v -0.00000000 -0.00872620 0.02268239
v -0.00000000 -0.08643269 0.02292298
v -0.00000000 -0.08643269 0.02292298
v 0.00229940 0.08689036 0.01321113
v 0.00229940 0.08689036 0.01321113
v 0.00304803 0.00704657 0.00893297
v 0.00304803 0.00704657 0.00893297
v 0.00000000 0.00598709 0.00736445
v 0.00000000 0.00598709 0.00736445
v -0.00676596 -0.08821633 0.01275273
v -0.00609471 0.00704656 0.01417563
v -0.00609471 0.00704656 0.01417563
v -0.00980879 -0.03318936 0.01417563
v 0.01003330 0.00400652 0.01417563
v 0.01003330 0.00400652 0.01417563
v 0.00569937 0.00662520 0.01744435
v 0.00718099 0.00400622 0.02130142
v 0.00718099 0.00400622 0.02130142
v 0.00697427 -0.08515985 0.00727547
v -0.00096529 0.07652083 0.01650600
v -0.00096529 0.07652083 0.01650600
v 0.00570305 -0.02090306 0.00432907
v 0.00163282 0.08366552 0.01255428
v 0.00163282 0.08366552 0.01255428
v 0.00163282 0.08366552 0.01255428
v 0.00028583 0.09000000 0.01342940
v 0.00028583 0.09000000 0.01342940
v 0.00028583 0.09000000 0.01342940
v -0.01005839 -0.06142571 0.02415806
v 0.00237227 -0.02896428 0.02347411
v -0.00868010 -0.08643269 0.01646028
v -0.00868010 -0.08643269 0.01646028
v -0.00868010 -0.08643269 0.01189097
v -0.00868010 -0.08643269 0.01189097
v -0.00074627 0.09000000 0.01446151
v -0.00074627 0.09000000 0.01446151
v -0.00074627 0.09000000 0.01446151
v 0.00569784 -0.08053519 0.02406622
v 0.00265943 -0.08197342 0.00445726
v 0.00265943 -0.08197342 0.00445726
v 0.01010606 -0.05840578 0.00416302
v -0.00265943 -0.08197342 0.00445726
v -0.00265943 -0.08197342 0.00445726
v 0.00693031 -0.08821633 0.01438935
v 0.00280621 0.00771840 0.01578506
v -0.01253916 -0.07587525 0.01417563
v 0.00359963 -0.08821633 0.00829494
v 0.00000000 -0.04905137 0.00073337
v 0.00000000 -0.06778365 0.00047464
v 0.00801423 -0.02897205 0.01889125
v 0.00801423 -0.02897205 0.01889125
v -0.00153737 0.00754336 0.01612375
v 0.00570305 -0.02090306 0.02402219
v 0.00294465 -0.02090522 0.02515867
v -0.00623259 -0.07587151 0.02499259
v -0.00162088 0.00771840 0.01696269
v -0.01119914 -0.01799231 0.01417563
v 0.00264738 0.00228595 0.02383496
v 0.00264302 -0.07908508 0.02502828
v 0.00264302 -0.07908508 0.02502828
v 0.00723297 0.00228676 0.02133498
v 0.00261780 0.00400617 0.02377599
v 0.00261780 0.00400617 0.02377599
v -0.00214137 -0.08821633 0.00762284
v -0.01007909 -0.05538511 0.00423465
v 0.00113255 -0.07757823 0.00284284
v 0.00113255 -0.07757823 0.00284284
v 0.00466522 -0.02897040 0.00608351
v 0.00801242 -0.01799261 0.02221791
v 0.00213145 0.00756172 0.01051066
v 0.00808065 -0.08053520 0.00608699
v -0.00973388 0.00400639 0.01159945
v -0.00973388 0.00400639 0.01159945
v -0.00973388 0.00400639 0.01675181
v -0.00973388 0.00400639 0.01675181
v 0.01428427 -0.05840662 0.01417563
v -0.00593076 -0.00602539 0.00833896
v -0.00264302 -0.07908508 0.02502828
v -0.00264302 -0.07908508 0.02502828
v -0.00138972 -0.08821633 0.02092216
v 0.00324033 0.00771840 0.01417563
v -0.00866597 0.00400624 0.00915110
v -0.00866597 0.00400624 0.00915110
v -0.00329121 0.00662520 0.00851456
v -0.00506842 0.00400623 0.00557125
v -0.00506842 0.00400623 0.00557125
v 0.00162088 0.00771840 0.01138857
v -0.00808930 -0.02090017 0.00602313
v 0.01206522 -0.07587150 0.01093899
v -0.00030917 0.09000000 0.01448480
v -0.00030917 0.09000000 0.01448480
v -0.00030917 0.09000000 0.01448480
v -0.00569937 0.00662520 0.01744435
v 0.00989851 -0.08514615 0.01417563
v 0.00623258 -0.07587151 0.02499259
v -0.00294466 -0.02090522 0.02515867
v -0.00000000 -0.07602893 0.02640058
v -0.00000000 -0.04276994 0.02645607
v 0.00252238 0.08339015 0.01417564
v 0.00001979 0.00228581 0.02421122
v 0.00612443 -0.00872611 0.02025946
v -0.00229944 0.08689033 0.01320508
v -0.00229944 0.08689033 0.01320508
v -0.01000703 -0.05220636 0.00439419
v 0.00966894 -0.01799246 0.00850050
v -0.00506842 0.00400623 0.02278001
v -0.00506842 0.00400623 0.02278001
v -0.00096527 0.00754336 0.01650601
v -0.00313967 -0.08545722 0.00525772
v -0.00313967 -0.08545722 0.00525772
v 0.00029034 0.09000000 0.01388526
v 0.00029034 0.09000000 0.01388526
v 0.00029034 0.09000000 0.01388526
v -0.00434822 -0.08929059 0.01613201
v -0.00066115 -0.09000000 0.01449558
v 0.00718099 0.00400623 0.00704984
v 0.00718099 0.00400623 0.00704984
v 0.00074624 0.09000000 0.01388976
v 0.00074624 0.09000000 0.01388976
v 0.00074624 0.09000000 0.01388976
v 0.01005839 -0.06142571 0.02415806
v 0.01005839 -0.06142571 0.02415806
v 0.00000000 -0.02807907 0.00449112
v 0.00000000 -0.03049712 0.00438803
v -0.00634592 -0.08643269 0.02037764
v -0.00634592 -0.08643269 0.02037764
v -0.00028586 0.09000000 0.01492187
v -0.00028586 0.09000000 0.01492187
v -0.00028586 0.09000000 0.01492187
v -0.01086332 -0.01799235 0.01126359
v -0.00000001 0.07652083 0.01165325
v -0.00000001 0.07652083 0.01165325
v -0.01096709 -0.02089509 0.01712752
v -0.00000000 -0.05840582 0.02835126
v -0.00000000 -0.06142668 0.02831931
v -0.00590872 -0.08821633 0.01052961
v -0.00313967 -0.08545722 0.02309354
v -0.00313967 -0.08545722 0.02309354
v 0.00801423 -0.02897205 0.00946002
v -0.00420164 -0.00602602 0.02123908
v -0.00141679 -0.07719364 0.00227831
v -0.00141679 -0.07719364 0.00227831
v -0.00267584 -0.08486175 0.00559154
v -0.00267584 -0.08486175 0.00559154
v -0.00905218 -0.04276994 0.00549205
v 0.00688004 -0.03050221 0.02105940
v 0.00688004 -0.03050221 0.02105940
v 0.00261780 0.00400617 0.00457527
v 0.00261780 0.00400617 0.00457527
v -0.00000001 0.08339015 0.01669801
v 0.00280621 0.00771840 0.01256620
v -0.00194812 0.07652083 0.01263827
v -0.00194812 0.07652083 0.01263827
v 0.00278324 -0.08929059 0.01026614
v 0.00658106 0.00662520 0.01417563
v 0.00514984 -0.08821633 0.01878049
v -0.00593825 0.00598709 0.01076991
v -0.00593825 0.00598709 0.01076991
v 0.00153735 0.08339015 0.01222752
v 0.00153735 0.08339015 0.01222752
v 0.00153735 0.08339015 0.01222752
v 0.00153735 0.08339015 0.01222752
v 0.00723297 0.00228676 0.00701629
v 0.00564999 -0.01799275 0.00446351
v -0.00041459 -0.09000000 0.01480093
v 0.00096527 0.07652083 0.01650601
v 0.00096527 0.07652083 0.01650601
v 0.00096527 0.08339015 0.01650601
v 0.00096527 0.00754336 0.01650601
v 0.00222847 -0.00872617 0.02236857
v -0.01405388 -0.06452461 0.01417563
v -0.01008573 0.00228773 0.01417563
v 0.00224864 0.00600150 0.01546528
v 0.00224864 0.00772120 0.01288598
v 0.00369015 0.00756172 0.01205925
v -0.00267584 -0.08486175 0.02275972
v -0.00267584 -0.08486175 0.02275972
v 0.00801242 -0.01799261 0.00613335
v 0.00493181 -0.08514243 0.02264669
v 0.00800710 -0.00602435 0.01209049
v 0.00800710 -0.00602436 0.01626077
v 0.00800710 -0.00602436 0.01626077
v 0.00608567 -0.08821633 0.01089954
v -0.00312755 -0.07902111 0.02551002
v -0.00312755 -0.07902111 0.02551002
v 0.01146972 -0.08053520 0.01417563
v 0.00129883 0.00600150 0.01640893
v 0.00129883 0.00772120 0.01640893
v -0.00535233 -0.08283881 0.00493003
v -0.00872237 0.00228723 0.00913440
v -0.00031175 -0.09000000 0.01347886
v 0.00712684 -0.02808100 0.02097212
v 0.01010606 -0.05840578 0.02418824
v 0.01010606 -0.05840578 0.02418824
v 0.00564999 -0.01799275 0.02388775
v -0.00493181 -0.08514243 0.02264669
v 0.00141679 -0.07719364 0.00227831
v 0.00141679 -0.07719364 0.00227831
v -0.00264739 0.00228595 0.02383496
v -0.00000001 0.08688505 0.01667374
v -0.00000000 0.00754336 0.01669801
v -0.00823983 -0.00602424 0.01417563
v 0.00920153 -0.07182729 0.00503608
v 0.00312755 -0.07902111 0.00284124
v 0.00312755 -0.07902111 0.00284124
v 0.00612443 -0.00872612 0.00809181
v -0.00656218 -0.08821633 0.01633726
v -0.00000000 -0.08540685 0.02344556
v -0.00000000 -0.08540685 0.02344556
v 0.00000000 0.00704656 0.00812158
v 0.00000000 0.00704656 0.00812158
v -0.00096528 0.08339015 0.01184526
v -0.00312763 -0.08053590 0.00312454
v -0.00312763 -0.08053590 0.00312454
v 0.00693586 -0.03318936 0.02136172
v 0.00693586 -0.03318936 0.02136172
v -0.00714127 -0.00602479 0.01827642
v 0.00527817 0.00704657 0.01114848
v 0.00527817 0.00704657 0.01114848
v -0.01007910 -0.05538511 0.02411661
v 0.00259651 0.00772120 0.01417563
v -0.01425399 -0.05538511 0.01417563
v -0.00113255 -0.07757823 0.02550842
v -0.00113255 -0.07757823 0.02550842
v -0.00634592 -0.08643269 0.00797362
v -0.00634592 -0.08643269 0.00797362
v -0.00930204 -0.08284469 0.00882414
v -0.01106936 -0.08053520 0.01118420
v 0.00983221 -0.04903934 0.00467276
v -0.01096709 -0.02089509 0.01122374
v 0.00000000 -0.04589901 0.00124357
v -0.00162137 0.08366552 0.01254280
v -0.00162137 0.08366552 0.01254280
v -0.00162137 0.08366552 0.01254280
v 0.00459283 -0.08821633 0.00903172
v 0.00291665 -0.01799286 0.00334224
v -0.00420164 -0.00602602 0.00711218
v 0.00688004 -0.03050221 0.00729186
v 0.00129883 0.00600150 0.01194233
v 0.00129883 0.00772120 0.01194233
v 0.00739397 -0.00872612 0.01846626
v -0.00000000 -0.03798584 0.02535950
v -0.00000000 -0.01799290 0.02542488
v -0.00000000 -0.02090610 0.02558056
v 0.00000000 0.00756172 0.00995013
v -0.00930204 -0.08284469 0.01952712
v 0.00017641 -0.08821633 0.00727807
v -0.00474189 -0.08929060 0.01364648
v -0.01000704 -0.05220636 0.02395707
v 0.00885836 -0.07587524 0.00530887
v 0.00979117 0.00228762 0.01675164
v 0.00979117 0.00228762 0.01675164
v 0.00979117 0.00228762 0.01159963
v 0.00304803 0.00704657 0.01941830
v 0.00304803 0.00704657 0.01941830
v 0.00777975 -0.08643269 0.01856598
v 0.00777975 -0.08643269 0.01856598
v 0.00965661 -0.03050467 0.01417563
v 0.01130600 -0.02089439 0.01417563
v -0.00994699 -0.06452483 0.00429678
v 0.00096754 0.08689123 0.01514953
v 0.00096754 0.08689123 0.01514953
v -0.00315576 -0.08299655 0.00412068
v -0.00315576 -0.08299655 0.00412068
v -0.00511072 0.00228629 0.00552354
v 0.00697427 -0.08515985 0.02107579
v -0.00976068 -0.02089731 0.01992939
v 0.00758057 -0.08284752 0.00662835
v -0.00593825 0.00598709 0.01758135
v -0.00593825 0.00598709 0.01758135
v 0.00224864 0.00600150 0.01288598
v 0.00712684 -0.02808100 0.00737914
v 0.00004294 -0.00602670 0.02238541
v -0.01038637 -0.08284204 0.01138724
v -0.01038637 -0.08284204 0.01696402
v 0.00233038 0.07652083 0.01514090
v 0.00233038 0.07652083 0.01514090
v 0.00233038 0.08339015 0.01514090
v 0.00233038 0.00754336 0.01514090
v -0.00229948 0.08689036 0.01514021
v -0.00229948 0.08689036 0.01514021
v 0.00194812 0.00754336 0.01263827
v 0.01349663 -0.04587097 0.01417563
v 0.00369015 0.00756172 0.01629202
v -0.00163284 0.08366552 0.01579699
v -0.00163284 0.08366552 0.01579699
v -0.00163284 0.08366552 0.01579699
v -0.00193580 -0.08929059 0.00974101
v 0.01079615 -0.07586990 0.02040943
v 0.01079615 -0.07586990 0.02040943
v -0.00905218 -0.04276994 0.02285921
v -0.00790561 -0.03798785 0.02209585
v -0.00511073 0.00228629 0.02282772
v -0.00194813 0.07652083 0.01571299
v -0.00194813 0.07652083 0.01571299
v 0.00194812 0.07652083 0.01571300
v 0.00194812 0.07652083 0.01571300
v 0.00194812 0.08339015 0.01571300
v 0.00194812 0.08339015 0.01571300
v 0.00194812 0.08339015 0.01571300
v 0.00194812 0.00754336 0.01571300
v -0.00954900 -0.04588453 0.00503527
v 0.00856096 -0.08515417 0.00928310
v 0.00975272 -0.06778365 0.02386370
v 0.00975272 -0.06778365 0.02386370
v 0.00693586 -0.03318936 0.00698954
v -0.00714126 -0.00602479 0.01007484
v -0.00194813 0.08339015 0.01571299
v -0.00194813 0.08339015 0.01571299
v -0.00194813 0.08339015 0.01571299
v -0.00000000 0.00662520 0.02071269
v -0.00991277 -0.08053520 0.01991109
v 0.00000000 -0.08497953 0.00522604
v 0.00000000 -0.08497953 0.00522604
v -0.00856096 -0.08515417 0.00928310
v -0.00980869 -0.02807707 0.01417563
v 0.00342913 0.00598710 0.02007399
v 0.00342913 0.00598710 0.02007399
v -0.00866597 0.00400624 0.01920016
v -0.00866597 0.00400624 0.01920016
v -0.00431926 -0.00872612 0.00683067
v -0.00329121 0.00662520 0.01983670
v -0.00294465 -0.02090522 0.00319259
v 0.00060170 -0.09000000 0.01461985
v 0.01206522 -0.07587150 0.01741228
v 0.01206522 -0.07587150 0.01741228
v -0.00153737 0.00754336 0.01222751
v 0.01379243 -0.06778365 0.01417563
v 0.00315576 -0.08299655 0.00412068
v 0.00315576 -0.08299655 0.00412068
v 0.00141679 -0.07719364 0.02607295
v 0.00141679 -0.07719364 0.02607295
v 0.01120307 -0.03799147 0.01417563
v -0.00229247 -0.08643269 0.00571364
v -0.00229247 -0.08643269 0.00571364
v 0.00074624 0.09000000 0.01446147
v 0.00074624 0.09000000 0.01446147
v 0.00074624 0.09000000 0.01446147
v -0.00758057 -0.08284752 0.00662835
v 0.00739398 -0.00872613 0.00988501
v -0.00219046 -0.00602650 0.02207041
v -0.00446932 -0.08643269 0.00658152
v -0.00446932 -0.08643269 0.00658152
v -0.00431926 -0.00872612 0.02152059
v -0.01421117 -0.06142641 0.01417563
v 0.00966894 -0.01799246 0.01985077
v -0.00000000 -0.00602669 0.02238083
v -0.00312763 -0.08053590 0.02522672
v -0.00312763 -0.08053590 0.02522672
v 0.00777976 -0.08643269 0.00978529
v 0.00777976 -0.08643269 0.00978529
v 0.00252238 0.07652083 0.01417563
v 0.00252238 0.07652083 0.01417563
v 0.00233037 0.07652083 0.01321037
v 0.00233037 0.07652083 0.01321037
v -0.00856353 -0.00872620 0.01417563
v -0.00975272 -0.06778365 0.02386369
v -0.00250528 0.07652083 0.01416598
v -0.00250528 0.07652083 0.01416598
v 0.00096527 0.00754336 0.01184525
v 0.00259651 0.00600150 0.01417563
v -0.00976068 -0.02089731 0.00842187
v 0.00233037 0.08339015 0.01321037
v -0.00446932 -0.08643269 0.02176974
v -0.00446932 -0.08643269 0.02176974
v 0.00028588 0.09000000 0.01492188
v 0.00028588 0.09000000 0.01492188
v 0.00028588 0.09000000 0.01492188
v 0.01390051 -0.04902774 0.01417563
v -0.01086332 -0.01799235 0.01708766
v 0.00830633 -0.00872617 0.01637823
v 0.00830633 -0.00872617 0.01637823
v 0.00830633 -0.00872617 0.01197304
v 0.00983221 -0.04903934 0.02367851
v 0.00983221 -0.04903934 0.02367851
v 0.00000000 -0.05538511 0.00011696
v 0.00000000 -0.06452677 0.00017764
v 0.00000000 -0.05221105 0.00034405
v 0.00294466 -0.02090522 0.00319259
v 0.00291665 -0.01799286 0.02500902
v -0.00897950 -0.02896589 0.01626980
v -0.00897950 -0.02896589 0.01208146
v 0.01079616 -0.07586990 0.00794184
v -0.00790560 -0.03798785 0.00625541
v -0.01280172 -0.04276994 0.01417563
v 0.00899064 -0.08643269 0.01417563
v 0.00899064 -0.08643269 0.01417563
v 0.01106936 -0.08053520 0.01118421
v 0.00955784 -0.08514887 0.01162934
v 0.00955784 -0.08514887 0.01672192
v 0.00955784 -0.08514887 0.01672192
v -0.01075950 -0.08284067 0.01417563
v 0.01287102 -0.07182772 0.01418154
v -0.00000000 0.00400608 0.02414480
v -0.00000000 0.00400608 0.02414480
v -0.00000000 0.00228581 0.02420905
v -0.00000000 -0.03318936 0.02433830
v 0.00224864 0.00772120 0.01546528
v -0.00385939 -0.08929059 0.01130760
v 0.00138972 -0.08821633 0.00742911
v 0.00072960 -0.09000000 0.01424742
v -0.00213145 0.00756172 0.01784060
v 0.00885836 -0.07587524 0.02304239
v 0.00219046 -0.00602649 0.00628086
v -0.00000001 0.07652083 0.01669801
v -0.00000001 0.07652083 0.01669801
v 0.00000155 0.00662520 0.02071286
v -0.01415190 -0.05220194 0.01417563
v -0.00991277 -0.08053520 0.00844016
v -0.00685690 0.00598709 0.01417563
v -0.00685690 0.00598709 0.01417563
v 0.00954900 -0.04588453 0.00503527
v -0.00994700 -0.06452483 0.02405448
v 0.00229247 -0.08643269 0.02263762
v 0.00229247 -0.08643269 0.02263762
v 0.00342913 0.00598710 0.00827727
v 0.00342913 0.00598710 0.00827727
v -0.00004294 -0.00602670 0.02238541
v -0.00466522 -0.02897040 0.00608350
v 0.00535233 -0.08283881 0.00493003
v -0.00233039 0.08339015 0.01514090
v 0.00000000 -0.07719364 0.00227831
v 0.00000000 -0.07719364 0.00227831
v -0.00872237 0.00228723 0.01921686
v -0.00129883 0.00600150 0.01640893
v -0.00129883 0.00772120 0.01640893
v -0.00029039 0.09000000 0.01388528
v -0.00029039 0.09000000 0.01388528
v -0.00029039 0.09000000 0.01388528
v -0.00219045 -0.00602650 0.00628086
v 0.00153737 0.00754336 0.01222751
v 0.00153737 0.00754336 0.01222751
v 0.00872237 0.00228724 0.00913440
v -0.00000000 -0.07719364 0.02607295
v -0.00000000 -0.07719364 0.02607295
v 0.00000000 0.00771840 0.01096231
v -0.00535233 -0.08283881 0.02342123
v 0.00466522 -0.02897040 0.02226776
v -0.00342913 0.00598709 0.02007399
v -0.00342913 0.00598709 0.02007399
v -0.00000001 0.08339015 0.01165326
v 0.00994700 -0.06452483 0.00429678
v -0.00954900 -0.04588453 0.02331599
v 0.00685690 0.00598710 0.01417563
v 0.00685690 0.00598710 0.01417563
v 0.00991277 -0.08053520 0.01991110
v 0.01415190 -0.05220194 0.01417563
v 0.00097388 0.08689123 0.01320810
v 0.00097388 0.08689123 0.01320810
v -0.00885836 -0.07587524 0.00530887
v -0.00072960 -0.09000000 0.01410384
v 0.00385939 -0.08929059 0.01704366
v -0.00224864 0.00772120 0.01288598
v 0.00000000 0.00400608 0.00420607
v 0.00000000 0.00400608 0.00420607
v 0.00000000 0.00228581 0.00414076
v 0.00000000 -0.03318936 0.00401296
v -0.01287102 -0.07182772 0.01424457
v -0.00096528 0.07652083 0.01184526
v -0.00096528 0.07652083 0.01184526
v 0.01075950 -0.08284067 0.01417563
v 0.00095483 0.08688895 0.01648111
v 0.00095483 0.08688895 0.01648111
v -0.00955784 -0.08514887 0.01162934
v -0.00955784 -0.08514887 0.01672192
v -0.01106936 -0.08053520 0.01716706
v -0.00899064 -0.08643269 0.01417563
v -0.00899064 -0.08643269 0.01417563
v 0.01280172 -0.04276994 0.01417563
v 0.00213145 0.00756172 0.01784060
v -0.00000528 0.00400608 0.02414539
v -0.00000528 0.00400608 0.02414539
v 0.00790560 -0.03798785 0.02209585
v 0.00790560 -0.03798785 0.02209585
v -0.01079616 -0.07586990 0.02040942
v -0.00229247 -0.08643269 0.02263762
v -0.00229247 -0.08643269 0.02263762
v 0.00897950 -0.02896589 0.01626981
v 0.00897950 -0.02896589 0.01626981
v 0.00897950 -0.02896589 0.01208146
v -0.00291665 -0.01799286 0.00334224
v -0.00000000 -0.05538511 0.02823430
v -0.00000000 -0.06452677 0.02817362
v -0.00000000 -0.05221105 0.02800721
v -0.00000000 -0.07190566 0.02734184
v -0.00983221 -0.04903934 0.00467275
v -0.00830633 -0.00872617 0.01637822
v -0.00830633 -0.00872617 0.01197303
v 0.01086332 -0.01799235 0.01126360
v -0.01390051 -0.04902774 0.01417563
v 0.00446932 -0.08643269 0.00658153
v 0.00446932 -0.08643269 0.00658153
v 0.00031175 -0.09000000 0.01487240
v -0.00913630 -0.07182731 0.02338155
v 0.00976068 -0.02089731 0.01992939
v -0.00005926 -0.09000000 0.01493748
v -0.00259651 0.00600150 0.01417563
v -0.00234094 -0.07602893 0.02640058
v -0.00234093 -0.07602893 0.00195068
v -0.00233038 0.07652083 0.01321036
v -0.00233038 0.07652083 0.01321036
v 0.00975272 -0.06778365 0.00448757
v 0.00229247 -0.08643269 0.00571364
v 0.00229247 -0.08643269 0.00571364
v 0.00856353 -0.00872620 0.01417563
v -0.00777976 -0.08643269 0.01856598
v -0.00777976 -0.08643269 0.01856598
v 0.00312763 -0.08053590 0.00312454
v 0.00312763 -0.08053590 0.00312454
v 0.00000000 -0.00602669 0.00596738
v -0.00966894 -0.01799246 0.00850049
v 0.01421117 -0.06142641 0.01417563
v 0.00431926 -0.00872613 0.00683067
v 0.00446932 -0.08643269 0.02176974
v 0.00446932 -0.08643269 0.02176974
v -0.00312755 -0.07902111 0.00284124
v -0.00312755 -0.07902111 0.00284124
v -0.00739398 -0.00872612 0.01846626
v 0.00222847 -0.00872616 0.00598269
v 0.00758057 -0.08284752 0.02172291
v 0.00249810 0.08688505 0.01417564
v -0.00141679 -0.07719364 0.02607295
v -0.00141679 -0.07719364 0.02607295
v -0.01120307 -0.03799147 0.01417563
v -0.00315576 -0.08299655 0.02423058
v -0.00315576 -0.08299655 0.02423058
v -0.01379243 -0.06778365 0.01417563
v 0.00153737 0.07652083 0.01612375
v 0.00153737 0.07652083 0.01612375
v 0.00153737 0.08339015 0.01612375
v 0.00153737 0.08339015 0.01612375
v 0.00153737 0.08339015 0.01612375
v 0.00153737 0.00754336 0.01612375
v -0.01206522 -0.07587150 0.01093898
v -0.00060170 -0.09000000 0.01373141
v -0.00250527 0.00754336 0.01416598
v 0.00329121 0.00662520 0.00851457
v 0.00431926 -0.00872612 0.02152059
v 0.00866597 0.00400624 0.00915110
v 0.00866597 0.00400624 0.00915110
v -0.00342913 0.00598709 0.00827727
v -0.00342913 0.00598709 0.00827727
v 0.00219045 -0.00602649 0.02207041
v 0.00980869 -0.02807707 0.01417563
v 0.00856096 -0.08515417 0.01906816
v -0.00000000 -0.08497953 0.02312522
v -0.00000000 -0.08497953 0.02312522
v 0.00991277 -0.08053520 0.00844017
v 0.00000000 0.00662520 0.00763846
v -0.00251481 0.08339015 0.01417563
v 0.00714126 -0.00602479 0.01827642
v 0.00029038 0.09000000 0.01446598
v 0.00029038 0.09000000 0.01446598
v 0.00029038 0.09000000 0.01446598
v -0.00693586 -0.03318936 0.02136172
v -0.00975272 -0.06778365 0.00448756
v -0.00856096 -0.08515417 0.01906816
v 0.00954900 -0.04588453 0.02331599
v 0.00954900 -0.04588453 0.02331599
v -0.00194812 0.00754336 0.01263826
v 0.00511073 0.00228629 0.00552354
v 0.00790561 -0.03798785 0.00625541
v 0.00905218 -0.04276994 0.00549205
v -0.01079615 -0.07586990 0.00794183
v 0.00193580 -0.08929059 0.01861025
v -0.00369015 0.00756172 0.01205924
v -0.01349663 -0.04587097 0.01417563
v -0.00000000 0.00600150 0.01675050
v -0.00000000 0.00772120 0.01675050
v 0.00000000 -0.07190566 0.00100942
v -0.00194812 0.00754336 0.01571300
v -0.00233038 0.00754336 0.01321036
v 0.01038637 -0.08284204 0.01138724
v 0.01038637 -0.08284204 0.01696403
v 0.01038637 -0.08284204 0.01696403
v -0.00712684 -0.02808100 0.02097212
v -0.00224864 0.00600150 0.01546528
v 0.00593825 0.00598710 0.01076991
v 0.00593825 0.00598710 0.01076991
v -0.00758057 -0.08284752 0.02172291
v 0.00162088 0.00771840 0.01696269
v 0.00976068 -0.02089731 0.00842187
v -0.00697427 -0.08515985 0.00727547
v 0.00511072 0.00228629 0.02282772
v 0.00315576 -0.08299655 0.02423058
v 0.00315576 -0.08299655 0.02423058
v 0.00994699 -0.06452483 0.02405448
v 0.00994699 -0.06452483 0.02405448
v -0.01130600 -0.02089439 0.01417563
v -0.00965661 -0.03050467 0.01417563
v -0.00777975 -0.08643269 0.00978528
v -0.00777975 -0.08643269 0.00978528
v -0.00304803 0.00704656 0.00893297
v -0.00304803 0.00704656 0.00893297
v -0.00979117 0.00228762 0.01675163
v -0.00979117 0.00228762 0.01159962
v -0.00885836 -0.07587524 0.02304239
v 0.01000704 -0.05220636 0.00439419
v -0.00028589 0.09000000 0.01342938
v -0.00028589 0.09000000 0.01342938
v -0.00028589 0.09000000 0.01342938
v 0.00474189 -0.08929060 0.01470478
v 0.00096526 0.07652083 0.01184526
v 0.00096526 0.07652083 0.01184526
v -0.00017641 -0.08821633 0.02107319
v 0.00930204 -0.08284469 0.00882414
v 0.00915928 -0.07182730 0.02335817
v 0.00915928 -0.07182730 0.02335817
v -0.00000000 0.00756172 0.01840113
v 0.00000000 -0.03798584 0.00299176
v 0.00000000 -0.02090596 0.00280036
v 0.00000000 -0.01799290 0.00295518
v -0.00739397 -0.00872612 0.00988500
v -0.00688004 -0.03050221 0.02105940
v 0.00096526 0.08339015 0.01184526
v 0.00420164 -0.00602602 0.02123908
v -0.00291665 -0.01799286 0.02500902
v -0.00459283 -0.08821633 0.01931954
v -0.00000000 -0.04589901 0.02710769
v 0.00000000 0.00600150 0.01160076
v 0.00000000 0.00772120 0.01160076
v 0.01096709 -0.02089509 0.01712752
v 0.01096709 -0.02089509 0.01712752
v -0.00983221 -0.04903934 0.02367850
v -0.00249054 0.08688505 0.01417563
v 0.01106936 -0.08053520 0.01716706
v 0.01106936 -0.08053520 0.01716706
v 0.00930204 -0.08284469 0.01952712
v 0.00634592 -0.08643269 0.02037764
v 0.00634592 -0.08643269 0.02037764
v 0.01425399 -0.05538511 0.01417563
v -0.00074625 0.09000000 0.01388979
v -0.00074625 0.09000000 0.01388979
v -0.00074625 0.09000000 0.01388979
v -0.00259651 0.00772120 0.01417563
v -0.00113255 -0.07757823 0.00284284
v -0.00113255 -0.07757823 0.00284284
v 0.01007910 -0.05538511 0.00423465
v -0.00527817 0.00704656 0.01720278
v -0.00527817 0.00704656 0.01720278
v 0.00000527 0.00400608 0.02414539
v 0.00000527 0.00400608 0.02414539
v 0.00714127 -0.00602480 0.01007484
v -0.00693586 -0.03318936 0.00698954
v 0.00233038 0.00754336 0.01321036
v 0.00312763 -0.08053590 0.02522672
v 0.00312763 -0.08053590 0.02522672
v -0.00153738 0.08339015 0.01612374
v -0.00153738 0.08339015 0.01612374
v -0.00153738 0.08339015 0.01612374
v -0.00000000 0.00704656 0.02022968
v -0.00000000 0.00704656 0.02022968
v -0.00162088 0.00771840 0.01138857
v 0.00000000 -0.08540685 0.00490570
v 0.00000000 -0.08540685 0.00490570
v 0.00656218 -0.08821633 0.01201400
v -0.00612443 -0.00872611 0.02025946
v 0.00162136 0.08366552 0.01580846
v 0.00162136 0.08366552 0.01580846
v 0.00162136 0.08366552 0.01580846
v 0.00823983 -0.00602424 0.01417563
v -0.00048337 -0.08929059 0.01898476
v 0.00264739 0.00228595 0.00451630
v 0.00153736 0.07652083 0.01222752
v 0.00153736 0.07652083 0.01222752
v 0.00153736 0.07652083 0.01222752
v 0.00153736 0.07652083 0.01222752
v -0.00096755 0.08689123 0.01320174
v -0.00096755 0.08689123 0.01320174
v 0.00252238 0.00754336 0.01417563
v 0.00493181 -0.08514243 0.00570457
v -0.00001979 0.00228581 0.02421122
v -0.00564999 -0.01799275 0.00446351
v -0.01010606 -0.05840578 0.00416302
v -0.00712684 -0.02808100 0.00737914
v 0.00872237 0.00228724 0.01921686
v 0.00535233 -0.08283881 0.02342123
v -0.01146972 -0.08053520 0.01417563
v -0.00608567 -0.08821633 0.01745172
v -0.00800710 -0.00602435 0.01209049
v -0.00800710 -0.00602436 0.01626077
v -0.00493181 -0.08514243 0.00570457
v -0.00801242 -0.01799261 0.02221791
v 0.00267584 -0.08486175 0.00559154
v 0.00267584 -0.08486175 0.00559154
v 0.00267584 -0.08486175 0.00559154
v -0.00369015 0.00756172 0.01629202
v -0.00224864 0.00600150 0.01288598
v -0.00224864 0.00772120 0.01546528
v 0.01008573 0.00228773 0.01417563
v 0.01405388 -0.06452461 0.01417563
v -0.00096527 0.00754336 0.01184525
v 0.00041459 -0.09000000 0.01355034
v -0.00233038 0.00754336 0.01514090
v -0.00564999 -0.01799275 0.02388775
v -0.00723297 0.00228676 0.02133497
v 0.00593825 0.00598710 0.01758135
v 0.00593825 0.00598710 0.01758135
v -0.00514984 -0.08821633 0.00957077
v -0.00658106 0.00662520 0.01417563
v 0.00005926 -0.09000000 0.01341378
v -0.00278324 -0.08929059 0.01808512
v -0.00153737 0.08339015 0.01222752
v -0.00153737 0.08339015 0.01222752
v -0.00153737 0.08339015 0.01222752
v -0.00280621 0.00771840 0.01578506
v -0.00261780 0.00400617 0.02377599
v -0.00261780 0.00400617 0.02377599
v -0.00688004 -0.03050221 0.00729186
v 0.00905218 -0.04276993 0.02285921
v 0.00905218 -0.04276993 0.02285921
v 0.00267584 -0.08486175 0.02275972
v 0.00267584 -0.08486175 0.02275972
v 0.00267584 -0.08486175 0.02275972
v 0.00420164 -0.00602602 0.00711218
v -0.00801423 -0.02897205 0.01889125
v 0.00313967 -0.08545722 0.00525772
v 0.00313967 -0.08545722 0.00525772
v -0.00096529 0.08339015 0.01650600
v 0.00590872 -0.08821633 0.01782165
v -0.00222847 -0.00872617 0.02236857
v 0.00000000 -0.05840582 0.00000000
v 0.00000000 -0.06142668 0.00003195
v 0.00048337 -0.08929059 0.00936650
v 0.01096709 -0.02089509 0.01122374
v 0.01086332 -0.01799235 0.01708767
v 0.01086332 -0.01799235 0.01708767
v 0.00634592 -0.08643269 0.00797362
v 0.00634592 -0.08643269 0.00797362
v -0.00000000 -0.03049712 0.02396324
v -0.00000000 -0.02807512 0.02407620
v -0.00000155 0.00662520 0.02071286
v -0.01005839 -0.06142571 0.00419320
v -0.00718099 0.00400622 0.02130142
v -0.00718099 0.00400622 0.02130142
v 0.00066115 -0.09000000 0.01385568
v 0.00434822 -0.08929059 0.01221925
v 0.00313967 -0.08545722 0.02309354
v 0.00313967 -0.08545722 0.02309354
v 0.00234093 -0.07602893 0.02640058
v 0.00506842 0.00400623 0.00557125
v 0.00506842 0.00400623 0.00557125
v -0.00966894 -0.01799246 0.01985077
v 0.01000703 -0.05220636 0.02395707
v 0.01000703 -0.05220636 0.02395707
v -0.00612443 -0.00872611 0.00809180
v 0.00096087 0.08688893 0.01187014
v 0.00096087 0.08688893 0.01187014
v -0.00194812 0.08339015 0.01263827
v -0.00194812 0.08339015 0.01263827
v -0.00194812 0.08339015 0.01263827
v -0.00000000 0.00771840 0.01738895
v 0.00000000 -0.07602893 0.00195068
v 0.00000000 -0.04276994 0.00189519
v -0.00623258 -0.07587151 0.00335867
v -0.00233038 0.08339015 0.01321036
v -0.00989851 -0.08514615 0.01417563
v -0.00213145 0.00756172 0.01051066
v 0.00569937 0.00662520 0.01090692
v -0.01206522 -0.07587150 0.01741227
v 0.00808930 -0.02090017 0.02232813
v 0.00506842 0.00400623 0.02278002
v 0.00506842 0.00400623 0.02278002
v 0.00329121 0.00662520 0.01983670
v -0.00153737 0.07652083 0.01222752
v -0.00153737 0.07652083 0.01222752
v 0.00866597 0.00400624 0.01920016
v 0.00866597 0.00400624 0.01920016
v -0.00324033 0.00771840 0.01417563
v 0.00264302 -0.07908508 0.00332298
v 0.00264302 -0.07908508 0.00332298
v 0.00593076 -0.00602540 0.02001230
v -0.01428427 -0.05840662 0.01417563
v 0.00973388 0.00400639 0.01159946
v 0.00973388 0.00400639 0.01159946
v 0.00973388 0.00400639 0.01675181
v 0.00973388 0.00400639 0.01675181
v 0.00973388 0.00400639 0.01675181
v -0.00808065 -0.08053520 0.02226427
v -0.00801242 -0.01799261 0.00613335
v -0.00466522 -0.02897040 0.02226775
v 0.00113255 -0.07757823 0.02550842
v 0.00113255 -0.07757823 0.02550842
v 0.00229944 0.08689033 0.01514619
v 0.00229944 0.08689033 0.01514619
v -0.00233039 0.07652083 0.01514090
v -0.00233039 0.07652083 0.01514090
v 0.01007909 -0.05538511 0.02411661
v 0.01007909 -0.05538511 0.02411661
v 0.00214137 -0.08821633 0.02072842
v -0.00261780 0.00400617 0.00457527
v -0.00261780 0.00400617 0.00457527
v -0.00723297 0.00228676 0.00701628
v -0.00264302 -0.07908508 0.00332298
v -0.00264302 -0.07908508 0.00332298
v -0.00096096 0.08688893 0.01648118
v -0.00096096 0.08688893 0.01648118
v -0.00264738 0.00228595 0.00451630
v -0.00912069 -0.07182732 0.00495383
v 0.01119914 -0.01799232 0.01417563
v 0.00623259 -0.07587151 0.00335867
v -0.00570305 -0.02090306 0.00432907
v -0.00095484 0.08688895 0.01187016
v -0.00095484 0.08688895 0.01187016
v -0.00801423 -0.02897205 0.00946001
v -0.00000000 -0.04905137 0.02761789
v -0.00000000 -0.06778365 0.02787662
v 0.00000000 0.00754336 0.01165325
v -0.00359963 -0.08821633 0.02005632
v 0.01253916 -0.07587525 0.01417563
v -0.00280621 0.00771840 0.01256620
v -0.00693031 -0.08821633 0.01396191
v 0.00265943 -0.08197342 0.02389400
v 0.00265943 -0.08197342 0.02389400
v -0.01010606 -0.05840578 0.02418824
v -0.00265943 -0.08197342 0.02389400
v -0.00265943 -0.08197342 0.02389400
v -0.00569784 -0.08053519 0.00428504
v 0.00868010 -0.08643269 0.01646029
v 0.00868010 -0.08643269 0.01646029
v 0.00868010 -0.08643269 0.01646029
v 0.00868010 -0.08643269 0.01189098
v 0.00868010 -0.08643269 0.01189098
v -0.00237227 -0.02896428 0.00487715
v -0.00153738 0.07652083 0.01612374
v -0.00153738 0.07652083 0.01612374
v 0.01005839 -0.06142571 0.00419320
v -0.00570305 -0.02090306 0.02402219
v -0.00697427 -0.08515985 0.02107579
v -0.00718099 0.00400623 0.00704984
v -0.00718099 0.00400623 0.00704984
v 0.00312755 -0.07902111 0.02551002
v 0.00312755 -0.07902111 0.02551002
v -0.00569937 0.00662520 0.01090691
v -0.01003330 0.00400652 0.01417563
v -0.01003330 0.00400652 0.01417563
v 0.00980879 -0.03318936 0.01417563
v 0.00609471 0.00704657 0.01417563
v 0.00609471 0.00704657 0.01417563
v 0.00676596 -0.08821633 0.01559853
v -0.00000000 0.00598709 0.02098681
v -0.00000000 0.00598709 0.02098681
v -0.00222847 -0.00872616 0.00598269
v -0.00304803 0.00704656 0.01941829
v -0.00304803 0.00704656 0.01941829
v 0.00000000 -0.00872620 0.00566888
v 0.00000000 -0.08643269 0.00542828
v 0.00000000 -0.08643269 0.00542828
v -0.00329349 -0.08821633 0.00808217
v 0.00426102 0.00756172 0.01417563
v -0.00569785 -0.08053519 0.02406622
v 0.00808065 -0.08053520 0.02226427
v -0.00237227 -0.02896428 0.02347411
v -0.00593076 -0.00602539 0.02001230
v 0.00234094 -0.07602893 0.00195068
vt 0.20174000 0.43866700
vt 0.85097700 0.82017900
vt 0.84232100 0.74279600
vt 0.79955100 0.66625700
vt 0.56164500 0.03407400
vt 0.92702800 0.80920000
vt 0.91877900 0.73156700
vt 0.04408900 0.44633600
vt 0.01992800 0.47758900
vt 0.95513300 0.54593800
vt 0.57676900 0.43866700
vt 0.88039300 0.77538800
vt 0.87406200 0.77448600
vt 0.20032100 0.31998500
vt 0.26478200 0.50300900
vt 0.84643900 0.31537100
vt 0.79902100 0.58643400
vt 0.03241700 0.40618600
vt 0.38708400 0.91448200
vt 0.23252800 0.91448200
vt 0.87163200 0.74299000
vt 0.93670700 0.05223500
vt 0.66923900 0.34153400
vt 0.66923900 0.96153700
vt 0.98249900 0.06506200
vt 0.03515100 0.37882200
vt 0.80702800 0.54622800
vt 0.85147900 0.81835500
vt 0.92959700 0.81002300
vt 0.91121800 0.83904300
vt 0.91234700 0.84184900
vt 0.91942500 0.17940300
vt 0.83356800 0.79695100
vt 0.86459700 0.72606700
vt 0.48172400 0.53672000
vt 0.10669500 0.23994200
vt 0.98222600 0.73690900
vt 0.92240700 0.72683900
vt 0.92691300 0.67900700
vt 0.76263300 0.23994400
vt 0.20063800 0.95138200
vt 0.87607800 0.66571100
vt 0.56106300 0.11373800
vt 0.23225200 0.43869000
vt 0.02997800 0.40424400
vt 0.86350000 0.30033200
vt 0.01965000 0.88584000
vt 0.87548600 0.48190000
vt 0.95834600 0.50540600
vt 0.02354600 0.93619300
vt 0.57566700 0.75693600
vt 0.69866600 0.50300900
vt 0.51285500 0.96153700
vt 0.96669700 0.18227200
vt 0.92262700 0.20662800
vt 0.45059300 0.96153700
vt 0.90586400 0.50565000
vt 0.04233100 0.42173000
vt 0.89234200 0.48179200
vt 0.73092000 0.91448200
vt 0.76812600 0.21714700
vt 0.90787100 0.97684200
vt 0.20051900 0.72926100
vt 0.65145400 0.21714700
vt 0.90787100 0.90680500
vt 0.86599400 0.04841400
vt 0.90015600 0.78773000
vt 0.48172400 0.87730300
vt 0.82813400 0.10860900
vt 0.29421000 0.66331900
vt 0.29421000 0.81274000
vt 0.04248300 0.50307100
vt 0.79254100 0.50307100
vt 0.01159800 0.12192300
vt 0.73119600 0.43869000
vt 0.70009900 0.43870800
vt 0.60687000 0.87727400
vt 0.89678300 0.75991800
vt 0.48172400 0.41546600
vt 0.70075500 0.25367000
vt 0.92450200 0.43996900
vt 0.74011400 0.02019500
vt 0.76278300 0.25366400
vt 0.87333500 0.67278500
vt 0.70060100 0.23994500
vt 0.85066000 0.16295600
vt 0.38796700 0.71381500
vt 0.72004700 0.23260400
vt 0.84999700 0.95673600
vt 0.23249000 0.50305800
vt 0.76195000 0.41546800
vt 0.86329600 0.80166600
vt 0.20133500 0.91448200
vt 0.80214000 0.83868100
vt 0.45042800 0.23994300
vt 0.51302000 0.23994300
vt 0.78198600 0.78879800
vt 0.10669500 0.72926100
vt 0.38809800 0.31998500
vt 0.85234200 0.43996900
vt 0.67946600 0.02019500
vt 0.96576500 0.09078800
vt 0.89195700 0.79388700
vt 0.82199000 0.85823400
vt 0.41828300 0.23994400
vt 0.87693300 0.83729400
vt 0.87060200 0.87890900
vt 0.35703900 0.23994400
vt 0.87235100 0.79110100
vt 0.38667900 0.43866700
vt 0.13800100 0.87727400
vt 0.03894900 0.42175000
vt 0.88898700 0.48557300
vt 0.01965000 0.50268400
vt 0.82425800 0.76727500
vt 0.10669500 0.95127200
vt 0.73160700 0.87727400
vt 0.63837800 0.43870800
vt 0.66923900 0.87851800
vt 0.66923900 0.61316100
vt 0.81844600 0.58638000
vt 0.66947100 0.25367100
vt 0.76256900 0.34153300
vt 0.02043700 0.96269700
vt 0.92064200 0.54542700
vt 0.38822600 0.69805900
vt 0.17077700 0.41546700
vt 0.80328800 0.71230200
vt 0.60640900 0.23994400
vt 0.01168400 0.11196600
vt 0.33410600 0.95375400
vt 0.95374400 0.90048200
vt 0.87919600 0.48563600
vt 0.01965000 0.35422100
vt 0.02009900 0.93692600
vt 0.93655200 0.14010400
vt 0.90415500 0.11590200
vt 0.98265900 0.81698400
vt 0.20081500 0.23994400
vt 0.87553400 0.48941900
vt 0.81453500 0.50632800
vt 0.02317300 0.35421700
vt 0.01275200 0.75693600
vt 0.76281000 0.75693600
vt 0.29421000 0.50299300
vt 0.29421000 0.51523900
vt 0.57493600 0.96153700
vt 0.99190700 0.13894800
vt 0.86676400 0.50589900
vt 0.89239000 0.48931100
vt 0.02297200 0.50206400
vt 0.45004500 0.41546600
vt 0.95547300 0.66533700
vt 0.56041400 0.20335900
vt 0.51352700 0.43862700
vt 0.66923900 0.72926100
vt 0.66923900 0.75693600
vt 0.89529700 0.18250200
vt 0.84556200 0.35298300
vt 0.62934200 0.95375400
vt 0.17090700 0.50307100
vt 0.60590100 0.31999000
vt 0.84493300 0.92316800
vt 0.30816700 0.88782100
vt 0.62344200 0.20628700
vt 0.94590300 0.90658900
vt 0.38962400 0.61316100
vt 0.01208200 0.51528000
vt 0.76214000 0.51528000
vt 0.94844000 0.85867700
vt 0.26284700 0.23994500
vt 0.86404500 0.58604200
vt 0.88177800 0.79512000
vt 0.92927400 0.66540400
vt 0.56065100 0.17348500
vt 0.85156100 0.10605700
vt 0.94218200 0.75215000
vt 0.91440600 0.04285700
vt 0.84189900 0.83195900
vt 0.84341800 0.82988000
vt 0.84643900 0.28442900
vt 0.97468900 0.58541800
vt 0.02172700 0.88343300
vt 0.79227100 0.58647900
vt 0.20066500 0.25366400
vt 0.23202600 0.41547000
vt 0.90509000 0.11279200
vt 0.85318400 0.66588200
vt 0.56117800 0.09382100
vt 0.85257000 0.58609800
vt 0.01179900 0.09204800
vt 0.70052700 0.34153400
vt 0.48172400 0.79411000
vt 0.48172400 0.25365600
vt 0.88807800 0.77866600
vt 0.88316500 0.78661100
vt 0.87957900 0.80860800
vt 0.85189400 0.36111200
vt 0.62344200 0.04191500
vt 0.20149800 0.41546800
vt 0.73146300 0.95124300
vt 0.13751100 0.31997600
vt 0.82593800 0.31997600
vt 0.07588000 0.31997600
vt 0.83886000 0.07337100
vt 0.84572800 0.44084200
vt 0.63751800 0.90240200
vt 0.10669500 0.91448200
vt 0.88895600 0.77660800
vt 0.89528700 0.77751000
vt 0.35616200 0.93286200
vt 0.41844800 0.25366000
vt 0.89524000 0.11672100
vt 0.76500500 0.50300900
vt 0.01287100 0.72926100
vt 0.76292900 0.72926100
vt 0.73142300 0.41547000
vt 0.60701500 0.95124300
vt 0.84493300 0.96047900
vt 0.28025300 0.88782100
vt 0.63772200 0.25367000
vt 0.86373900 0.54643400
vt 0.01174100 0.10200700
vt 0.48172400 0.31997500
vt 0.18505800 0.84500100
vt 0.26248900 0.90240200
vt 0.86899600 0.98300600
vt 0.20087900 0.34153300
vt 0.95069500 0.15983200
vt 0.66923900 0.95335200
vt 0.88842200 0.35367100
vt 0.90652700 0.82766300
vt 0.83474600 0.79607500
vt 0.94377700 0.58556100
vt 0.88894200 0.90064000
vt 0.32670500 0.91448800
vt 0.01000000 0.53672000
vt 0.76005800 0.53672000
vt 0.54466400 0.31998000
vt 0.87709700 0.82927800
vt 0.94068600 0.78321000
vt 0.57548100 0.71381500
vt 0.88867400 0.78594400
vt 0.48172400 0.71381500
vt 0.87296100 0.46053900
vt 0.69953300 0.01559800
vt 0.87259600 0.20503700
vt 0.38851200 0.96153700
vt 0.41871200 0.93290900
vt 0.44979900 0.91448200
vt 0.19962100 0.66332000
vt 0.44992100 0.43862700
vt 0.29421000 0.63594100
vt 0.02706100 0.42212400
vt 0.03016100 0.29788200
vt 0.01000000 0.93891100
vt 0.82972200 0.09595800
vt 0.26322600 0.41547000
vt 0.35754700 0.31999000
vt 0.20130800 0.51528000
vt 0.88200700 0.77940200
vt 0.87806300 0.78443600
vt 0.79326800 0.34153300
vt 0.66923900 0.56602900
vt 0.66923900 0.41547100
vt 0.66923900 0.43871500
vt 0.85270700 0.78747800
vt 0.54473600 0.93290900
vt 0.83621900 0.14409000
vt 0.91697200 0.15534500
vt 0.57522200 0.69805900
vt 0.20054600 0.87730300
vt 0.82563400 0.25365700
vt 0.07557700 0.25365700
vt 0.13781400 0.25365700
vt 0.93795200 0.78358200
vt 0.89187000 0.72036700
vt 0.79471300 0.96153700
vt 0.89968600 0.01409100
vt 0.10669500 0.51529900
vt 0.10669500 0.43862100
vt 0.38762100 0.79410900
vt 0.03932000 0.96484800
vt 0.04430200 0.34017300
vt 0.33040600 0.93412100
vt 0.92134300 0.90056100
vt 0.35718300 0.25366700
vt 0.76281000 0.95138200
vt 0.54603200 0.43864400
vt 0.20098700 0.93293200
vt 0.81525600 0.76601400
vt 0.81792900 0.76642500
vt 0.88406600 0.78028000
vt 0.19844400 0.50300900
vt 0.66985400 0.31999500
vt 0.45001500 0.93288800
vt 0.51343300 0.93288800
vt 0.83043700 0.66604500
vt 0.56144400 0.06394800
vt 0.82992300 0.58626500
vt 0.01206500 0.06217500
vt 0.89829400 0.54554700
vt 0.05419200 0.44639400
vt 0.01226600 0.03230000
vt 0.10669500 0.63594100
vt 0.91132400 0.79584400
vt 0.04072300 0.90213600
vt 0.01977500 0.45167400
vt 0.04890900 0.47178900
vt 0.86986300 0.14924100
vt 0.79421100 0.87726100
vt 0.04415300 0.87726200
vt 0.57382400 0.61316100
vt 0.57665700 0.56602900
vt 0.60626500 0.25366700
vt 0.89083000 0.66559900
vt 0.56088300 0.13365000
vt 0.83843600 0.66598800
vt 0.56135800 0.07390600
vt 0.29360100 0.93692600
vt 0.04102400 0.93650600
vt 0.83786900 0.58615900
vt 0.01197900 0.07213300
vt 0.38924900 0.63594100
vt 0.16938700 0.95133600
vt 0.01251100 0.81274100
vt 0.76256900 0.81274000
vt 0.20339000 0.53672000
vt 0.41878400 0.31998000
vt 0.05136200 0.47373400
vt 0.05778300 0.88709700
vt 0.89022300 0.58576000
vt 0.86114600 0.71746500
vt 0.54505600 0.91448200
vt 0.94745400 0.94182300
vt 0.60062900 0.20978700
vt 0.41903300 0.95133600
vt 0.48172400 0.50297800
vt 0.89375400 0.70811800
vt 0.89562100 0.70547300
vt 0.54516500 0.23994400
vt 0.78268300 0.76094400
vt 0.35695100 0.34153300
vt 0.83654800 0.73760200
vt 0.32507000 0.43870700
vt 0.89872300 0.10507200
vt 0.82544700 0.87727400
vt 0.07539000 0.87727400
vt 0.01117900 0.18167100
vt 0.10669500 0.81274100
vt 0.25801400 0.93412100
vt 0.92134300 0.98308600
vt 0.90776200 0.46578900
vt 0.68319600 0.88782100
vt 0.10669500 0.56602900
vt 0.82961800 0.17844000
vt 0.32537900 0.96153700
vt 0.82123300 0.50628100
vt 0.88023200 0.49405700
vt 0.04278700 0.98927100
vt 0.38743200 0.93293200
vt 0.17018000 0.34153300
vt 0.63735200 0.31999300
vt 0.84937700 0.19451100
vt 0.35699200 0.96153700
vt 0.60649700 0.34153300
vt 0.48172400 0.75693600
vt 0.79267100 0.41546700
vt 0.66923900 0.31999500
vt 0.84572600 0.42016400
vt 0.63674400 0.91448800
vt 0.16873500 0.96153700
vt 0.81506600 0.06088100
vt 0.56150200 0.05399000
vt 0.81899100 0.66612800
vt 0.80754600 0.66620400
vt 0.56155900 0.04403100
vt 0.48172400 0.34153400
vt 0.57590800 0.81274100
vt 0.91016400 0.66545400
vt 0.56079800 0.15356900
vt 0.01097800 0.21154500
vt 0.88628800 0.78001100
vt 0.41741600 0.43864400
vt 0.80697100 0.58642800
vt 0.60645600 0.96153700
vt 0.99522100 0.11365300
vt 0.86006600 0.50595300
vt 0.04251900 0.31583200
vt 0.88775100 0.49401000
vt 0.10669500 0.66332000
vt 0.51340300 0.41546600
vt 0.82540000 0.34153300
vt 0.07534200 0.34153400
vt 0.13804800 0.34153400
vt 0.01377000 0.66332000
vt 0.76382700 0.66331900
vt 0.29421000 0.71381500
vt 0.29421000 0.79410900
vt 0.29421000 0.69805900
vt 0.26334900 0.43870700
vt 0.70022200 0.41547000
vt 0.50944200 0.50302200
vt 0.45400600 0.50302200
vt 0.16923700 0.87726100
vt 0.38679100 0.56602900
vt 0.48172400 0.61316100
vt 0.10669500 0.96153700
vt 0.85093800 0.02579500
vt 0.13862100 0.91448200
vt 0.13818800 0.95129400
vt 0.82526000 0.95129400
vt 0.07520300 0.95129400
vt 0.48172400 0.93287700
vt 0.12234800 0.84500700
vt 0.84670900 0.67938900
vt 0.66923900 0.23994600
vt 0.66923900 0.25367100
vt 0.66923900 0.53672000
vt 0.89311100 0.78261200
vt 0.89251000 0.15861200
vt 0.83147500 0.13246400
vt 0.89547000 0.10539300
vt 0.90549700 0.74780300
vt 0.76290200 0.87730300
vt 0.26232300 0.31999300
vt 0.86463100 0.66579900
vt 0.56112000 0.10377900
vt 0.86082800 0.71758200
vt 0.48172400 0.69805900
vt 0.41839200 0.91448200
vt 0.81974000 0.80255700
vt 0.82214800 0.80155200
vt 0.19917000 0.63594100
vt 0.57582800 0.79410900
vt 0.70040800 0.96153700
vt 0.96762100 0.04481200
vt 0.93935800 0.81751400
vt 0.94176500 0.81968300
vt 0.66862300 0.31999500
vt 0.35592900 0.50305800
vt 0.23225700 0.93286200
vt 0.89817500 0.58575600
vt 0.84493300 0.94182300
vt 0.29421000 0.88782100
vt 0.54500000 0.25366000
vt 0.88734200 0.77259300
vt 0.89128600 0.76756000
vt 0.01039000 0.99000000
vt 0.88390800 0.48086300
vt 0.01965000 0.24828300
vt 0.32609700 0.31999300
vt 0.01089100 0.22150300
vt 0.01236000 0.02234300
vt 0.16997100 0.25366000
vt 0.66923900 0.88782100
vt 0.88842200 0.46578900
vt 0.86622100 0.78288700
vt 0.60728600 0.93286200
vt 0.73095800 0.50305800
vt 0.82964300 0.73212900
vt 0.83139100 0.73379500
vt 0.95525600 0.58555800
vt 0.20079900 0.79410900
vt 0.57419900 0.63594100
vt 0.94805000 0.74968200
vt 0.95166800 0.74925500
vt 0.79342100 0.91448200
vt 0.10669500 0.69805900
vt 0.02004900 0.91177600
vt 0.02490900 0.37881100
vt 0.38787300 0.87730300
vt 0.90177000 0.11785900
vt 0.90473000 0.06464000
vt 0.87623800 0.76938400
vt 0.92470100 0.87242700
vt 0.29421000 0.23994600
vt 0.29421000 0.25367100
vt 0.29421000 0.53672000
vt 0.49737700 0.84500700
vt 0.94402400 0.66536600
vt 0.56047200 0.19340100
vt 0.10669500 0.93287700
vt 0.05472800 0.34019100
vt 0.85271200 0.54590700
vt 0.45023100 0.95129400
vt 0.51321700 0.95129400
vt 0.51364900 0.91448200
vt 0.48172400 0.96153700
vt 0.94630100 0.19745800
vt 0.10669500 0.61316100
vt 0.91826800 0.77956100
vt 0.84665600 0.67940400
vt 0.66917600 0.23994600
vt 0.01176200 0.56602900
vt 0.76182000 0.56602900
vt 0.54426600 0.87726100
vt 0.99192300 0.08834300
vt 0.63807000 0.96153700
vt 0.07897700 0.50302200
vt 0.82903500 0.50302200
vt 0.13441300 0.50302200
vt 0.32519300 0.41547000
vt 0.66923900 0.71381500
vt 0.66923900 0.79410900
vt 0.66923900 0.69805900
vt 0.65795300 0.84562900
vt 0.38879800 0.66331900
vt 0.51307700 0.34153400
vt 0.45037100 0.34153400
vt 0.13837500 0.41546600
vt 0.48172400 0.66332000
vt 0.23142700 0.96153700
vt 0.80201900 0.10959900
vt 0.90200000 0.10653100
vt 0.56008700 0.84500100
vt 0.79244500 0.43864400
vt 0.90430100 0.10934100
vt 0.88306100 0.77198500
vt 0.64666700 0.87851800
vt 0.31678200 0.87851800
vt 0.56073800 0.16352700
vt 0.92127700 0.66542400
vt 0.20087900 0.81274000
vt 0.26304100 0.96153700
vt 0.80531700 0.13491000
vt 0.10669500 0.34153400
vt 0.54376400 0.96153700
vt 0.98217300 0.16237100
vt 0.26171500 0.91448800
vt 0.88894200 0.98300700
vt 0.29421000 0.31999500
vt 0.41764200 0.41546700
vt 0.10669500 0.75693600
vt 0.23146800 0.34153300
vt 0.94786200 0.02874100
vt 0.73202200 0.96153700
vt 0.32593000 0.90240200
vt 0.86899600 0.90064100
vt 0.54520900 0.34153300
vt 0.26292100 0.34153400
vt 0.76246200 0.93293200
vt 0.81817000 0.54679700
vt 0.65528200 0.88782100
vt 0.86908100 0.46578900
vt 0.48172400 0.56602900
vt 0.84564400 0.38657400
vt 0.63304300 0.93412100
vt 0.48172400 0.81274100
vt 0.84518800 0.66594000
vt 0.56126400 0.08386300
vt 0.05193000 0.36758600
vt 0.29360100 0.90598400
vt 0.84461900 0.58611100
vt 0.01188500 0.08209000
vt 0.45041800 0.87727400
vt 0.89851700 0.11818100
vt 0.01142000 0.15179700
vt 0.93431000 0.81364100
vt 0.73198000 0.34153300
vt 0.98872600 0.79086900
vt 0.17013600 0.23994400
vt 0.87578700 0.84634000
vt 0.87607900 0.84359800
vt 0.70112500 0.31999300
vt 0.10669500 0.50297800
vt 0.79406200 0.95133600
vt 0.60128700 0.03841500
vt 0.88842200 0.35950400
vt 0.17002800 0.91448200
vt 0.90879200 0.83315800
vt 0.90964800 0.58570100
vt 0.79381300 0.31998000
vt 0.03894900 0.31583200
vt 0.88396800 0.49034800
vt 0.03934000 0.99000000
vt 0.57841900 0.53672000
vt 0.38754000 0.81274000
vt 0.54441500 0.95133600
vt 0.01422000 0.63594100
vt 0.76427800 0.63594100
vt 0.01127300 0.17171300
vt 0.23123600 0.25366700
vt 0.20162800 0.56602900
vt 0.19879500 0.61316100
vt 0.41918200 0.87726100
vt 0.92737600 0.07401200
vt 0.85747000 0.75362600
vt 0.48172400 0.63594100
vt 0.88868000 0.77438700
vt 0.89460300 0.77200500
vt 0.28292400 0.84562900
vt 0.01150400 0.13188000
vt 0.01135900 0.16175500
vt 0.13840400 0.93288800
vt 0.82504400 0.93288800
vt 0.07498600 0.93288800
vt 0.57347200 0.50300900
vt 0.88528300 0.77171600
vt 0.95288500 0.78477500
vt 0.95615200 0.78579800
vt 0.57601500 0.93293200
vt 0.90417600 0.77830300
vt 0.17100400 0.43864400
vt 0.38778100 0.95138200
vt 0.73221200 0.25366700
vt 0.93119900 0.38657400
vt 0.70543500 0.93412100
vt 0.01259200 0.79411000
vt 0.76265000 0.79410900
vt 0.48172400 0.43862100
vt 0.48172400 0.51529900
vt 0.89755300 0.20916100
vt 0.41968400 0.96153700
vt 0.87773000 0.83140700
vt 0.83139700 0.76841300
vt 0.51284300 0.25365700
vt 0.45060500 0.25365700
vt 0.57557500 0.87730300
vt 0.20019300 0.69805900
vt 0.95164700 0.50542900
vt 0.88012500 0.47720200
vt 0.02322000 0.24828300
vt 0.88026800 0.06790700
vt 0.96692300 0.66530100
vt 0.56035600 0.21331700
vt 0.96102000 0.07916300
vt 0.16970700 0.93290900
vt 0.02833200 0.84500100
vt 0.74708800 0.84500700
vt 0.91608600 0.76199200
vt 0.29421000 0.56602900
vt 0.29421000 0.43871300
vt 0.29421000 0.41547100
vt 0.41823900 0.34153300
vt 0.57633700 0.51528000
vt 0.96673800 0.58549000
vt 0.73257600 0.31999000
vt 0.63825500 0.41547000
vt 0.96751800 0.12729400
vt 0.66923900 0.63594100
vt 0.88066900 0.77760900
vt 0.87474600 0.77999000
vt 0.82495000 0.43862700
vt 0.07489200 0.43862700
vt 0.57465000 0.66332000
vt 0.90943800 0.54613300
vt 0.82482800 0.91448200
vt 0.07477000 0.91448200
vt 0.79374100 0.93290900
vt 0.92464300 0.01821500
vt 0.76354200 0.96153700
vt 0.10669500 0.71381500
vt 0.01383800 0.98927100
vt 0.91256500 0.50561300
vt 0.88764300 0.47715400
vt 0.88067500 0.76605200
vt 0.84999700 0.92691100
vt 0.69953300 0.23260400
vt 0.20045200 0.71381500
vt 0.83016400 0.76807500
vt 0.89225200 0.72271800
vt 0.84675700 0.67936300
vt 0.66930100 0.23994600
vt 0.16963500 0.31998000
vt 0.38502900 0.53672000
vt 0.01218000 0.04225800
vt 0.93111700 0.42016400
vt 0.70173400 0.91448800
vt 0.05778300 0.91803900
vt 0.88347200 0.58581100
vt 0.02197900 0.44924400
vt 0.93449900 0.75593400
vt 0.86342800 0.72307100
vt 0.86495800 0.77271500
vt 0.95308100 0.94182300
vt 0.29421000 0.95335200
vt 0.84654500 0.06342000
vt 0.57590800 0.34153300
vt 0.03894900 0.93891100
vt 0.27654000 0.92102300
vt 0.04946100 0.36543000
vt 0.10669500 0.31997500
vt 0.94219000 0.09309900
vt 0.26269300 0.25367000
vt 0.97492500 0.66527800
vt 0.56027000 0.22327500
vt 0.56173900 0.02411600
vt 0.79280100 0.66630200
vt 0.01037000 0.96484800
vt 0.02500200 0.27262400
vt 0.01212300 0.05221700
vt 0.23198600 0.95124300
vt 0.66900600 0.25367100
vt 0.35639400 0.41547000
vt 0.38790000 0.72926100
vt 0.38997600 0.50300900
vt 0.79347700 0.25366000
vt 0.73119200 0.93286200
vt 0.48172400 0.91448200
vt 0.95837900 0.14988100
vt 0.45090900 0.31997600
vt 0.51253900 0.31997600
vt 0.35643400 0.95124300
vt 0.57652700 0.41546800
vt 0.79613800 0.20628700
vt 0.57847400 0.20628700
vt 0.94590300 0.97705800
vt 0.88921400 0.74086100
vt 0.88127100 0.77332900
vt 0.88618400 0.76538500
vt 0.10669500 0.25365600
vt 0.10669500 0.79411000
vt 0.01109300 0.19162800
vt 0.89214900 0.11046000
vt 0.01141700 0.14183800
vt 0.60705400 0.41547000
vt 0.57569400 0.25366400
vt 0.92630000 0.72177700
vt 0.92950900 0.71985300
vt 0.88283400 0.18039500
vt 0.82805200 0.79917100
vt 0.89293900 0.11391100
vt 0.94567900 0.11719500
vt 0.03263000 0.30003800
vt 0.01000000 0.43716300
vt 0.93582300 0.58553700
vt 0.88735600 0.75589900
vt 0.82296800 0.69313500
vt 0.63787600 0.23994500
vt 0.38711100 0.51528000
vt 0.01459600 0.61316100
vt 0.76465400 0.61316100
vt 0.79613800 0.04191500
vt 0.92495000 0.36111200
vt 0.57847400 0.04191500
vt 0.23087200 0.31999000
vt 0.54593600 0.50307100
vt 0.95374400 0.98316500
vt 0.25431300 0.95375400
vt 0.87552300 0.58592100
vt 0.90194300 0.04075000
vt 0.63795000 0.34153400
vt 0.29421000 0.72926100
vt 0.29421000 0.75693600
vt 0.85505000 0.13015400
vt 0.13849800 0.43862700
vt 0.82507400 0.41546600
vt 0.07501600 0.41546600
vt 0.80533200 0.08430500
vt 0.19990700 0.96153700
vt 0.66923900 0.51523900
vt 0.66923900 0.50296200
vt 0.86144500 0.71732800
vt 0.38778100 0.75693600
vt 0.57584400 0.23994400
vt 0.78874900 0.73482900
vt 0.89308400 0.10735100
vt 0.86068800 0.08314800
vt 0.93128100 0.35298300
vt 0.70913600 0.95375400
vt 0.69181100 0.87851800
vt 0.23138000 0.23994400
vt 0.96812000 0.83951000
vt 0.54580600 0.41546700
vt 0.01319800 0.69805900
vt 0.76325500 0.69805900
vt 0.38754000 0.34153300
vt 0.03016000 0.90960800
vt 0.96622500 0.54528700
vt 0.92907100 0.58555400
vt 0.01000000 0.40622000
vt 0.01207400 0.93650600
vt 0.90291300 0.76813200
vt 0.29421000 0.87851800
vt 0.29421000 0.61316100
vt 0.35657800 0.87727400
vt 0.92112200 0.58563500
vt 0.48172400 0.95127200
vt 0.85052500 0.76990800
vt 0.94657700 0.78396600
vt 0.51303000 0.87727400
vt 0.76170800 0.43866700
vt 0.90080600 0.67290300
vt 0.73206800 0.23994400
vt 0.89277300 0.71445500
vt 0.93602600 0.66538700
vt 0.56055800 0.18344300
vt 0.94941800 0.69357800
vt 0.79331200 0.23994400
vt 0.87717700 0.75713200
vt 0.74011400 0.22800700
vt 0.86983900 0.97662600
vt 0.76312700 0.31998500
vt 0.48172400 0.72926100
vt 0.13799100 0.23994300
vt 0.98942200 0.76301400
vt 0.82545700 0.23994300
vt 0.96926800 0.71313100
vt 0.07539900 0.23994300
vt 0.57636400 0.91448200
vt 0.38692100 0.41546800
vt 0.60751900 0.50305800
vt 0.72004700 0.01559800
vt 0.90388200 0.46053900
vt 0.82937000 0.54607200
vt 0.04938700 0.96269700
vt 0.89882700 0.66553800
vt 0.56079700 0.14361100
vt 0.01293800 0.71381500
vt 0.76299600 0.71381500
vt 0.94658000 0.06029600
vt 0.89807300 0.87902700
vt 0.32557200 0.23994500
vt 0.38775400 0.25366400
vt 0.67946600 0.22800700
vt 0.86983900 0.90702100
vt 0.02990900 0.47562300
vt 0.87482500 0.54573300
vt 0.32572600 0.25367000
vt 0.37205900 0.84500700
vt 0.10669500 0.41546600
vt 0.23184100 0.87727400
vt 0.35616700 0.43869000
vt 0.03542800 0.27264200
vt 0.94410500 0.54535900
vt 0.41751200 0.50307100
vt 0.66923900 0.66332000
vt 0.66923900 0.81274000
vt 0.01103500 0.20158600
vt 0.96910600 0.11464400
vt 0.10669500 0.87730300
vt 0.86897800 0.76328900
vt 0.93124600 0.17483900
vt 0.76812600 0.03105500
vt 0.92472600 0.40054100
vt 0.57554800 0.72926100
vt 0.85211800 0.40054100
vt 0.65145400 0.03105500
vt 0.35589100 0.91448200
vt 0.87461200 0.01662400
vt 0.82562200 0.96153700
vt 0.07556400 0.96153700
vt 0.13782700 0.96153700
vt 0.83054300 0.04098100
vt 0.32363700 0.50300900
vt 0.88407800 0.66565000
vt 0.56097700 0.12369500
vt 0.20063800 0.75693600
vt 0.60728100 0.43869000
vt 0.57566700 0.95138200
vt 0.38760400 0.23994400
vt 0.84449500 0.87280600
vt 0.93111600 0.44084200
vt 0.70095900 0.90240200
vt 0.84732600 0.82486400
vt 0.48172400 0.23994200
vt 0.78918200 0.81490300
vt 0.10669500 0.53672000
vt 0.90475200 0.82592800
vt 0.93670300 0.75445700
vt 0.87781500 0.04384900
vt 0.85866200 0.71145200
vt 0.85906100 0.70996300
vt 0.32549800 0.34153300
vt 0.91787000 0.73364100
vt 0.84135000 0.74116200
vt 0.29421000 0.34153400
vt 0.29421000 0.96153700
vt 0.81474000 0.15819000
vt 0.86053300 0.17101700
vt 0.89716200 0.80647900
vt 0.60755700 0.91448200
vt 0.76211300 0.91448200
vt 0.63981100 0.50300900
vt 0.57535000 0.31998500
vt 0.27163800 0.87851800
f 318/318 322/322 300/300
f 300/300 298/298 318/318
f 188/188 190/190 554/554
f 554/554 550/550 188/188
f 543/543 300/300 806/806
f 300/300 543/543 121/121
f 322/322 806/806 300/300
f 190/190 485/485 554/554
f 485/485 190/190 222/222
f 222/222 190/190 172/172
f 360/360 283/283 576/576
f 283/283 360/360 807/807
f 284/284 389/389 574/574
f 389/389 284/284 484/484
f 133/133 140/140 575/575
f 575/575 140/140 359/359
f 807/807 680/680 283/283
f 680/680 807/807 321/321
f 553/553 681/681 320/320
f 550/550 554/554 322/322
f 322/322 318/318 550/550
f 847/847 671/671 741/741
f 741/741 42/42 847/847
f 808/808 443/443 332/332
f 332/332 316/316 808/808
f 222/222 741/741 819/819
f 741/741 222/222 172/172
f 671/671 819/819 741/741
f 443/443 302/302 332/332
f 302/302 443/443 647/647
f 647/647 443/443 572/572
f 112/112 8/8 58/58
f 58/58 8/8 303/303
f 331/331 307/307 670/670
f 316/316 332/332 671/671
f 671/671 847/847 316/316
f 818/818 308/308 9/9
f 818/818 672/672 308/308
f 182/182 625/625 686/686
f 625/625 182/182 637/637
f 376/376 385/385 17/17
f 17/17 4/4 376/376
f 10/10 637/637 770/770
f 637/637 10/10 463/463
f 182/182 770/770 637/637
f 385/385 27/27 17/17
f 27/27 385/385 543/543
f 543/543 385/385 121/121
f 50/50 470/470 135/135
f 470/470 50/50 769/769
f 471/471 142/142 134/134
f 142/142 471/471 26/26
f 769/769 47/47 470/470
f 47/47 769/769 183/183
f 16/16 46/46 181/181
f 4/4 17/17 184/184
f 184/184 689/689 4/4
f 771/771 523/523 174/174
f 523/523 771/771 778/778
f 234/234 787/787 481/481
f 787/787 234/234 727/727
f 647/647 778/778 125/125
f 778/778 647/647 572/572
f 771/771 125/125 778/778
f 234/234 826/826 727/727
f 10/10 234/234 463/463
f 234/234 10/10 826/826
f 654/654 690/690 449/449
f 690/690 654/654 124/124
f 691/691 623/623 451/451
f 623/623 691/691 825/825
f 726/726 254/254 772/772
f 727/727 174/174 787/787
f 174/174 727/727 771/771
f 124/124 256/256 690/690
f 256/256 124/124 773/773
f 151/151 9/9 114/114
f 9/9 151/151 818/818
f 463/463 153/153 637/637
f 637/637 153/153 625/625
f 385/385 375/375 121/121
f 375/375 385/385 376/376
f 121/121 298/298 300/300
f 298/298 121/121 375/375
f 190/190 427/427 172/172
f 427/427 190/190 188/188
f 172/172 42/42 741/741
f 42/42 172/172 427/427
f 381/381 558/558 522/522
f 522/522 558/558 594/594
f 234/234 481/481 463/463
f 463/463 481/481 153/153
f 284/284 682/682 484/484
f 484/484 682/682 552/552
f 141/141 543/543 358/358
f 358/358 543/543 806/806
f 388/388 222/222 149/149
f 149/149 222/222 819/819
f 8/8 309/309 303/303
f 303/303 309/309 330/330
f 471/471 45/45 26/26
f 26/26 45/45 18/18
f 10/10 621/621 826/826
f 691/691 255/255 825/825
f 825/825 255/255 725/725
f 57/57 647/647 655/655
f 655/655 647/647 125/125
f 141/141 27/27 543/543
f 388/388 485/485 222/222
f 621/621 10/10 49/49
f 10/10 770/770 49/49
f 57/57 302/302 647/647
f 450/450 48/48 133/133
f 48/48 450/450 622/622
f 656/656 450/450 59/59
f 59/59 450/450 113/113
f 450/450 575/575 113/113
f 575/575 450/450 133/133
f 150/150 575/575 390/390
f 575/575 150/150 113/113
f 299/299 301/301 319/319
f 319/319 301/301 323/323
f 551/551 555/555 189/189
f 189/189 555/555 191/191
f 319/319 323/323 551/551
f 551/551 323/323 555/555
f 43/43 74/74 848/848
f 74/74 43/43 130/130
f 317/317 593/593 809/809
f 809/809 593/593 716/716
f 848/848 74/74 317/317
f 317/317 74/74 593/593
f 626/626 382/382 687/687
f 687/687 382/382 453/453
f 5/5 667/667 377/377
f 667/667 5/5 304/304
f 688/688 304/304 5/5
f 304/304 688/688 454/454
f 522/522 582/582 175/175
f 582/582 522/522 594/594
f 788/788 349/349 482/482
f 482/482 349/349 714/714
f 175/175 582/582 788/788
f 788/788 582/582 349/349
f 154/154 830/830 626/626
f 626/626 830/830 382/382
f 377/377 667/667 374/374
f 374/374 667/667 692/692
f 374/374 692/692 299/299
f 299/299 692/692 301/301
f 189/189 223/223 428/428
f 223/223 189/189 191/191
f 428/428 130/130 43/43
f 130/130 428/428 223/223
f 572/572 380/380 778/778
f 778/778 380/380 523/523
f 482/482 714/714 154/154
f 154/154 714/714 830/830
f 558/558 381/381 809/809
f 809/809 716/716 558/558
f 572/572 808/808 380/380
f 808/808 572/572 443/443
f 413/413 116/116 843/843
f 843/843 116/116 408/408
f 278/278 412/412 842/842
f 412/412 278/278 567/567
f 288/288 567/567 652/652
f 278/278 652/652 567/567
f 201/201 652/652 537/537
f 652/652 201/201 288/288
f 326/326 713/713 350/350
f 713/713 326/326 609/609
f 505/505 327/327 829/829
f 327/327 505/505 610/610
f 766/766 653/653 810/810
f 653/653 766/766 469/469
f 767/767 504/504 506/506
f 504/504 767/767 811/811
f 495/495 491/491 732/732
f 491/491 495/495 355/355
f 264/264 496/496 120/120
f 120/120 496/496 733/733
f 645/645 566/566 500/500
f 566/566 645/645 281/281
f 214/214 783/783 517/517
f 214/214 517/517 73/73
f 76/76 460/460 52/52
f 460/460 76/76 75/75
f 527/527 822/822 394/394
f 749/749 394/394 822/822
f 123/123 368/368 91/91
f 368/368 123/123 263/263
f 192/192 265/265 23/23
f 265/265 192/192 402/402
f 712/712 204/204 274/274
f 204/204 712/712 683/683
f 794/794 83/83 698/698
f 794/794 698/698 573/573
f 80/80 638/638 565/565
f 638/638 80/80 606/606
f 369/369 418/418 122/122
f 369/369 122/122 295/295
f 719/719 339/339 786/786
f 786/786 38/38 719/719
f 863/863 786/786 339/339
f 786/786 863/863 429/429
f 429/429 863/863 333/333
f 466/466 719/719 38/38
f 38/38 177/177 466/466
f 6/6 492/492 306/306
f 492/492 6/6 276/276
f 673/673 492/492 276/276
f 492/492 673/673 631/631
f 306/306 860/860 6/6
f 860/860 306/306 872/872
f 168/168 859/859 237/237
f 859/859 168/168 280/280
f 752/752 169/169 419/419
f 419/419 169/169 238/238
f 573/573 698/698 273/273
f 573/573 273/273 203/203
f 606/606 794/794 638/638
f 794/794 606/606 83/83
f 394/394 204/204 527/527
f 204/204 683/683 527/527
f 123/123 794/794 263/263
f 794/794 573/573 263/263
f 263/263 573/573 393/393
f 573/573 203/203 393/393
f 560/560 794/794 123/123
f 794/794 560/560 638/638
f 23/23 295/295 192/192
f 295/295 565/565 192/192
f 649/649 832/832 208/208
f 832/832 649/649 348/348
f 468/468 347/347 648/648
f 347/347 468/468 311/311
f 874/874 311/311 468/468
f 311/311 874/874 425/425
f 117/117 874/874 60/60
f 874/874 117/117 425/425
f 280/280 168/168 72/72
f 280/280 72/72 500/500
f 169/169 52/52 460/460
f 52/52 169/169 752/752
f 720/720 799/799 789/789
f 340/340 39/39 784/784
f 864/864 84/84 663/663
f 274/274 800/800 36/36
f 274/274 36/36 712/712
f 40/40 698/698 83/83
f 698/698 40/40 790/790
f 277/277 7/7 38/38
f 38/38 786/786 277/277
f 674/674 277/277 429/429
f 786/786 429/429 277/277
f 7/7 177/177 38/38
f 177/177 7/7 861/861
f 517/517 368/368 644/644
f 368/368 748/748 644/644
f 75/75 91/91 783/783
f 91/91 75/75 217/217
f 266/266 402/402 76/76
f 402/402 266/266 265/265
f 393/393 748/748 263/263
f 368/368 263/263 748/748
f 123/123 217/217 560/560
f 217/217 123/123 91/91
f 75/75 214/214 460/460
f 214/214 75/75 783/783
f 606/606 40/40 83/83
f 40/40 606/606 785/785
f 783/783 91/91 517/517
f 91/91 368/368 517/517
f 73/73 517/517 644/644
f 73/73 644/644 501/501
f 790/790 273/273 698/698
f 273/273 790/790 798/798
f 749/749 281/281 645/645
f 281/281 749/749 822/822
f 122/122 85/85 80/80
f 85/85 122/122 664/664
f 629/629 350/350 415/415
f 350/350 629/629 326/326
f 829/829 630/630 507/507
f 630/630 829/829 327/327
f 734/734 706/706 835/835
f 835/835 706/706 61/61
f 735/735 231/231 569/569
f 760/760 231/231 735/735
f 668/668 81/81 854/854
f 81/81 353/353 854/854
f 353/353 81/81 805/805
f 230/230 436/436 24/24
f 230/230 761/761 436/436
f 669/669 699/699 608/608
f 699/699 669/669 60/60
f 855/855 60/60 669/669
f 60/60 855/855 117/117
f 762/762 117/117 855/855
f 762/762 855/855 354/354
f 436/436 761/761 537/537
f 761/761 201/201 537/537
f 413/413 483/483 116/116
f 483/483 413/413 597/597
f 650/650 596/596 567/567
f 567/567 596/596 412/412
f 542/542 650/650 288/288
f 288/288 650/650 567/567
f 699/699 288/288 201/201
f 288/288 699/699 542/542
f 607/607 760/760 735/735
f 735/735 836/836 607/607
f 753/753 266/266 76/76
f 753/753 76/76 52/52
f 402/402 192/192 560/560
f 402/402 560/560 217/217
f 122/122 565/565 295/295
f 565/565 122/122 80/80
f 192/192 565/565 638/638
f 192/192 638/638 560/560
f 76/76 402/402 217/217
f 76/76 217/217 75/75
f 80/80 85/85 785/785
f 80/80 785/785 606/606
f 169/169 214/214 73/73
f 630/630 425/425 117/117
f 630/630 311/311 425/425
f 624/624 759/759 423/423
f 423/423 759/759 758/758
f 759/759 715/715 758/758
f 715/715 759/759 176/176
f 723/723 176/176 746/746
f 176/176 723/723 715/715
f 116/116 844/844 408/408
f 844/844 116/116 411/411
f 411/411 372/372 844/844
f 372/372 411/411 325/325
f 325/325 751/751 372/372
f 325/325 41/41 751/751
f 751/751 693/693 513/513
f 693/693 751/751 41/41
f 713/713 524/524 350/350
f 524/524 713/713 464/464
f 524/524 399/399 71/71
f 399/399 524/524 464/464
f 653/653 620/620 660/660
f 620/620 653/653 469/469
f 398/398 660/660 620/620
f 620/620 400/400 398/398
f 491/491 584/584 585/585
f 584/584 491/491 355/355
f 776/776 585/585 584/584
f 584/584 632/632 776/776
f 566/566 281/281 747/747
f 566/566 747/747 502/502
f 1/1 294/294 604/604
f 161/161 604/604 294/294
f 90/90 44/44 401/401
f 90/90 401/401 15/15
f 822/822 527/527 395/395
f 822/822 395/395 511/511
f 127/127 228/228 200/200
f 228/228 127/127 362/362
f 712/712 202/202 683/683
f 202/202 712/712 275/275
f 455/455 14/14 665/665
f 14/14 455/455 185/185
f 737/737 583/583 685/685
f 737/737 685/685 426/426
f 781/781 559/559 600/600
f 438/438 600/600 559/559
f 559/559 30/30 438/438
f 30/30 559/559 571/571
f 781/781 466/466 177/177
f 466/466 781/781 600/600
f 240/240 92/92 28/28
f 92/92 240/240 197/197
f 233/233 92/92 267/267
f 92/92 233/233 28/28
f 860/860 197/197 240/240
f 197/197 860/860 872/872
f 859/859 260/260 328/328
f 260/260 859/859 280/280
f 479/479 328/328 260/260
f 260/260 146/146 479/479
f 275/275 665/665 202/202
f 665/665 275/275 455/455
f 14/14 583/583 737/737
f 583/583 14/14 185/185
f 683/683 202/202 527/527
f 527/527 202/202 395/395
f 362/362 665/665 14/14
f 362/362 14/14 228/228
f 395/395 202/202 665/665
f 395/395 665/665 362/362
f 14/14 535/535 228/228
f 535/535 14/14 737/737
f 426/426 868/868 541/541
f 868/868 426/426 532/532
f 832/832 410/410 208/208
f 410/410 832/832 111/111
f 111/111 570/570 410/410
f 570/570 111/111 405/405
f 405/405 93/93 570/570
f 93/93 405/405 272/272
f 93/93 272/272 823/823
f 93/93 823/823 20/20
f 260/260 280/280 161/161
f 161/161 280/280 502/502
f 260/260 15/15 146/146
f 15/15 260/260 90/90
f 797/797 601/601 561/561
f 601/601 797/797 467/467
f 138/138 439/439 764/764
f 439/439 138/138 601/601
f 439/439 31/31 170/170
f 31/31 476/476 170/170
f 36/36 275/275 712/712
f 275/275 36/36 796/796
f 455/455 139/139 185/185
f 139/139 455/455 562/562
f 241/241 29/29 781/781
f 559/559 781/781 29/29
f 232/232 559/559 29/29
f 559/559 232/232 571/571
f 177/177 241/241 781/781
f 241/241 177/177 861/861
f 747/747 511/511 127/127
f 747/747 127/127 604/604
f 200/200 44/44 1/1
f 44/44 200/200 186/186
f 633/633 503/503 345/345
f 503/503 633/633 634/634
f 511/511 395/395 362/362
f 511/511 362/362 127/127
f 228/228 186/186 200/200
f 186/186 228/228 535/535
f 44/44 294/294 1/1
f 294/294 44/44 90/90
f 139/139 583/583 185/185
f 583/583 139/139 763/763
f 604/604 127/127 200/200
f 604/604 200/200 1/1
f 604/604 161/161 747/747
f 502/502 747/747 161/161
f 562/562 275/275 796/796
f 275/275 562/562 455/455
f 822/822 511/511 281/281
f 281/281 511/511 747/747
f 171/171 478/478 685/685
f 478/478 171/171 477/477
f 350/350 225/225 415/415
f 225/225 350/350 524/524
f 524/524 71/71 225/225
f 225/225 71/71 592/592
f 676/676 739/739 708/708
f 708/708 335/335 676/676
f 793/793 219/219 89/89
f 219/219 793/793 227/227
f 740/740 677/677 525/525
f 525/525 677/677 869/869
f 442/442 530/530 351/351
f 530/530 442/442 20/20
f 226/226 20/20 823/823
f 20/20 226/226 530/530
f 226/226 877/877 220/220
f 226/226 823/823 877/877
f 513/513 740/740 525/525
f 513/513 693/693 740/740
f 483/483 411/411 116/116
f 411/411 483/483 595/595
f 595/595 325/325 411/411
f 325/325 595/595 628/628
f 628/628 41/41 325/325
f 41/41 628/628 290/290
f 41/41 442/442 693/693
f 442/442 41/41 290/290
f 220/220 877/877 775/775
f 220/220 775/775 445/445
f 62/62 708/708 352/352
f 739/739 352/352 708/708
f 535/535 258/258 186/186
f 258/258 535/535 541/541
f 478/478 426/426 685/685
f 426/426 478/478 532/532
f 737/737 541/541 535/535
f 541/541 737/737 426/426
f 186/186 401/401 44/44
f 401/401 186/186 258/258
f 763/763 685/685 583/583
f 685/685 763/763 171/171
f 502/502 280/280 566/566
f 260/260 294/294 90/90
f 272/272 225/225 823/823
f 405/405 225/225 272/272
f 369/369 295/295 23/23
f 864/864 663/663 416/416
f 674/674 429/429 333/333
f 418/418 417/417 664/664
f 418/418 664/664 122/122
f 89/89 444/444 658/658
f 136/136 137/137 473/473
f 136/136 473/473 270/270
f 136/136 187/187 137/137
f 187/187 136/136 724/724
f 724/724 518/518 187/187
f 518/518 724/724 684/684
f 779/779 487/487 53/53
f 53/53 489/489 779/779
f 528/528 487/487 579/579
f 487/487 528/528 53/53
f 851/851 147/147 579/579
f 147/147 528/528 579/579
f 147/147 218/218 386/386
f 218/218 147/147 851/851
f 379/379 193/193 435/435
f 193/193 379/379 549/549
f 379/379 505/505 829/829
f 505/505 379/379 435/435
f 271/271 244/244 430/430
f 244/244 271/271 242/242
f 504/504 242/242 271/271
f 271/271 506/506 504/504
f 314/314 407/407 546/546
f 407/407 314/314 313/313
f 120/120 313/313 314/314
f 314/314 264/264 120/120
f 155/155 403/403 338/338
f 155/155 338/338 611/611
f 598/598 289/289 11/11
f 289/289 598/598 738/738
f 803/803 850/850 118/118
f 803/803 118/118 875/875
f 509/509 392/392 79/79
f 509/509 79/79 378/378
f 765/765 679/679 705/705
f 679/679 765/765 540/540
f 743/743 265/265 639/639
f 265/265 743/743 23/23
f 703/703 194/194 617/617
f 194/194 703/703 224/224
f 239/239 446/446 876/876
f 718/718 876/876 446/446
f 162/162 315/315 221/221
f 162/162 221/221 363/363
f 418/418 369/369 694/694
f 440/440 694/694 369/369
f 462/462 292/292 344/344
f 344/344 292/292 115/115
f 344/344 863/863 462/462
f 863/863 344/344 754/754
f 754/754 333/333 863/863
f 292/292 433/433 115/115
f 115/115 433/433 722/722
f 424/424 662/662 709/709
f 662/662 424/424 866/866
f 424/424 673/673 866/866
f 673/673 424/424 631/631
f 709/709 34/34 21/21
f 34/34 709/709 662/662
f 636/636 35/35 612/612
f 35/35 636/636 577/577
f 419/419 577/577 636/636
f 636/636 752/752 419/419
f 703/703 617/617 239/239
f 446/446 239/239 617/617
f 876/876 315/315 162/162
f 315/315 876/876 718/718
f 703/703 509/509 378/378
f 703/703 378/378 224/224
f 876/876 679/679 540/540
f 876/876 540/540 239/239
f 540/540 509/509 239/239
f 239/239 509/509 703/703
f 876/876 366/366 679/679
f 366/366 876/876 162/162
f 743/743 363/363 440/440
f 743/743 440/440 23/23
f 488/488 68/68 782/782
f 68/68 488/488 700/700
f 334/334 782/782 497/497
f 782/782 334/334 488/488
f 801/801 497/497 619/619
f 497/497 801/801 334/334
f 801/801 619/619 77/77
f 801/801 77/77 873/873
f 636/636 612/612 738/738
f 738/738 612/612 403/403
f 636/636 875/875 752/752
f 875/875 636/636 803/803
f 291/291 97/97 432/432
f 97/97 291/291 342/342
f 757/757 461/461 128/128
f 461/461 757/757 291/291
f 729/729 864/864 493/493
f 864/864 729/729 461/461
f 96/96 617/617 857/857
f 617/617 194/194 857/857
f 756/756 446/446 341/341
f 446/446 756/756 718/718
f 867/867 115/115 661/661
f 115/115 867/867 344/344
f 754/754 344/344 867/867
f 754/754 867/867 674/674
f 661/661 722/722 33/33
f 722/722 661/661 115/115
f 289/289 155/155 765/765
f 765/765 155/155 392/392
f 705/705 850/850 11/11
f 850/850 705/705 717/717
f 639/639 266/266 118/118
f 266/266 639/639 265/265
f 540/540 765/765 392/392
f 540/540 392/392 509/509
f 679/679 717/717 705/705
f 717/717 679/679 366/366
f 850/850 598/598 11/11
f 598/598 850/850 803/803
f 756/756 315/315 718/718
f 315/315 756/756 129/129
f 11/11 289/289 705/705
f 705/705 289/289 765/765
f 738/738 155/155 289/289
f 155/155 738/738 403/403
f 341/341 446/446 617/617
f 341/341 617/617 96/96
f 392/392 155/155 611/611
f 392/392 611/611 79/79
f 730/730 694/694 221/221
f 694/694 730/730 494/494
f 516/516 549/549 379/379
f 549/549 516/516 480/480
f 379/379 829/829 516/516
f 516/516 829/829 507/507
f 101/101 816/816 839/839
f 839/839 816/816 64/64
f 199/199 165/165 568/568
f 231/231 159/159 198/198
f 198/198 569/569 231/231
f 545/545 100/100 206/206
f 100/100 545/545 245/245
f 160/160 230/230 499/499
f 499/499 230/230 24/24
f 459/459 371/371 548/548
f 371/371 459/459 873/873
f 207/207 873/873 77/77
f 873/873 207/207 371/371
f 207/207 520/520 544/544
f 207/207 77/77 520/520
f 386/386 160/160 499/499
f 386/386 218/218 160/160
f 487/487 414/414 297/297
f 414/414 487/487 779/779
f 268/268 579/579 297/297
f 579/579 487/487 297/297
f 602/602 851/851 268/268
f 851/851 579/579 268/268
f 851/851 459/459 218/218
f 459/459 851/851 602/602
f 544/544 520/520 119/119
f 544/544 119/119 456/456
f 159/159 547/547 198/198
f 547/547 838/838 198/198
f 266/266 753/753 118/118
f 875/875 118/118 753/753
f 366/366 639/639 717/717
f 639/639 366/366 743/743
f 694/694 363/363 221/221
f 363/363 694/694 440/440
f 162/162 743/743 366/366
f 743/743 162/162 363/363
f 717/717 118/118 850/850
f 118/118 717/717 639/639
f 129/129 221/221 315/315
f 221/221 129/129 730/730
f 636/636 598/598 803/803
f 752/752 753/753 52/52
f 119/119 507/507 762/762
f 520/520 507/507 119/119
f 497/497 516/516 619/619
f 516/516 77/77 619/619
f 779/779 489/489 56/56
f 779/779 56/56 486/486
f 486/486 614/614 337/337
f 614/614 486/486 56/56
f 337/337 248/248 605/605
f 337/337 614/614 248/248
f 704/704 248/248 365/365
f 248/248 704/704 605/605
f 193/193 578/578 282/282
f 578/578 193/193 549/549
f 399/399 578/578 71/71
f 578/578 399/399 282/282
f 244/244 126/126 430/430
f 126/126 244/244 87/87
f 126/126 398/398 400/400
f 398/398 126/126 87/87
f 407/407 406/406 546/546
f 406/406 407/407 167/167
f 632/632 406/406 776/776
f 776/776 406/406 167/167
f 404/404 252/252 338/338
f 611/611 338/338 252/252
f 384/384 827/827 697/697
f 384/384 697/697 110/110
f 345/345 441/441 846/846
f 441/441 345/345 824/824
f 79/79 510/510 378/378
f 510/510 79/79 152/152
f 533/533 768/768 635/635
f 768/768 533/533 802/802
f 541/541 634/634 258/258
f 634/634 541/541 868/868
f 194/194 702/702 618/618
f 702/702 194/194 224/224
f 212/212 329/329 99/99
f 212/212 99/99 815/815
f 820/820 259/259 452/452
f 259/259 820/820 287/287
f 180/180 106/106 856/856
f 180/180 564/564 106/106
f 30/30 106/106 564/564
f 106/106 30/30 571/571
f 433/433 856/856 722/722
f 856/856 433/433 180/180
f 780/780 3/3 616/616
f 3/3 780/780 588/588
f 780/780 233/233 267/267
f 233/233 780/780 616/616
f 34/34 588/588 21/21
f 588/588 34/34 3/3
f 35/35 731/731 612/612
f 731/731 35/35 666/666
f 146/146 731/731 479/479
f 479/479 731/731 666/666
f 618/618 702/702 329/329
f 618/618 329/329 212/212
f 287/287 99/99 259/259
f 99/99 287/287 815/815
f 378/378 702/702 224/224
f 702/702 378/378 510/510
f 635/635 99/99 329/329
f 99/99 635/635 768/768
f 510/510 329/329 702/702
f 329/329 510/510 635/635
f 343/343 99/99 768/768
f 99/99 343/343 259/259
f 868/868 452/452 865/865
f 452/452 868/868 532/532
f 68/68 250/250 556/556
f 250/250 68/68 700/700
f 556/556 431/431 586/586
f 431/431 556/556 250/250
f 586/586 19/19 472/472
f 19/19 586/586 431/431
f 777/777 19/19 840/840
f 19/19 777/777 472/472
f 612/612 731/731 827/827
f 612/612 827/827 404/404
f 731/731 846/846 441/441
f 846/846 731/731 146/146
f 179/179 94/94 104/104
f 563/563 853/853 107/107
f 31/31 813/813 476/476
f 618/618 857/857 194/194
f 857/857 618/618 95/95
f 212/212 852/852 105/105
f 852/852 212/212 815/815
f 615/615 856/856 106/106
f 856/856 615/615 2/2
f 232/232 106/106 571/571
f 106/106 232/232 615/615
f 2/2 722/722 856/856
f 722/722 2/2 33/33
f 252/252 533/533 152/152
f 533/533 252/252 384/384
f 824/824 802/802 110/110
f 802/802 824/824 695/695
f 152/152 635/635 510/510
f 635/635 152/152 533/533
f 768/768 695/695 343/343
f 695/695 768/768 802/802
f 824/824 697/697 441/441
f 697/697 824/824 110/110
f 287/287 852/852 815/815
f 852/852 287/287 108/108
f 384/384 802/802 533/533
f 802/802 384/384 110/110
f 252/252 404/404 827/827
f 252/252 827/827 384/384
f 95/95 618/618 105/105
f 618/618 212/212 105/105
f 79/79 611/611 152/152
f 611/611 252/252 152/152
f 478/478 814/814 820/820
f 814/814 478/478 477/477
f 549/549 821/821 578/578
f 821/821 549/549 480/480
f 71/71 821/821 592/592
f 821/821 71/71 578/578
f 166/166 676/676 335/335
f 132/132 676/676 166/166
f 163/163 817/817 658/658
f 817/817 163/163 539/539
f 677/677 357/357 869/869
f 677/677 131/131 357/357
f 236/236 211/211 285/285
f 211/211 236/236 840/840
f 538/538 840/840 236/236
f 840/840 538/538 777/777
f 521/521 777/777 538/538
f 521/521 538/538 164/164
f 357/357 131/131 365/365
f 131/131 704/704 365/365
f 414/414 486/486 296/296
f 486/486 414/414 779/779
f 296/296 486/486 337/337
f 296/296 337/337 249/249
f 249/249 337/337 605/605
f 249/249 605/605 361/361
f 211/211 605/605 704/704
f 605/605 211/211 361/361
f 286/286 132/132 166/166
f 166/166 65/65 286/286
f 345/345 145/145 633/633
f 145/145 345/345 846/846
f 503/503 865/865 343/343
f 503/503 343/343 695/695
f 478/478 452/452 532/532
f 452/452 478/478 820/820
f 865/865 452/452 259/259
f 865/865 259/259 343/343
f 345/345 503/503 695/695
f 345/345 695/695 824/824
f 820/820 814/814 108/108
f 820/820 108/108 287/287
f 404/404 338/338 612/612
f 731/731 697/697 827/827
f 146/146 145/145 846/846
f 592/592 775/775 877/877
f 521/521 775/775 592/592
f 777/777 821/821 472/472
f 821/821 586/586 472/472
f 353/353 805/805 457/457
f 369/369 23/23 440/440
f 864/864 416/416 493/493
f 674/674 333/333 754/754
f 494/494 418/418 694/694
f 418/418 494/494 417/417
f 97/97 858/858 432/432
f 858/858 94/94 432/432
f 432/432 94/94 179/179
f 853/853 179/179 104/104
f 179/179 853/853 563/563
f 813/813 31/31 563/563
f 813/813 563/563 107/107
f 170/170 764/764 439/439
f 138/138 561/561 601/601
f 797/797 37/37 467/467
f 799/799 720/720 467/467
f 799/799 467/467 37/37
f 340/340 720/720 39/39
f 720/720 789/789 39/39
f 784/784 84/84 340/340
f 340/340 84/84 864/864
f 729/729 128/128 461/461
f 757/757 342/342 291/291
f 587/587 518/518 684/684
f 518/518 587/587 515/515
f 25/25 102/102 498/498
f 102/102 25/25 627/627
f 640/640 387/387 831/831
f 387/387 640/640 148/148
f 229/229 529/529 701/701
f 529/529 229/229 54/54
f 270/270 557/557 421/421
f 557/557 270/270 473/473
f 310/310 421/421 213/213
f 213/213 421/421 557/557
f 310/310 213/213 723/723
f 723/723 746/746 310/310
f 422/422 870/870 269/269
f 870/870 422/422 526/526
f 514/514 257/257 750/750
f 257/257 514/514 69/69
f 373/373 678/678 845/845
f 678/678 373/373 205/205
f 624/624 423/423 346/346
f 346/346 474/474 624/624
f 474/474 346/346 515/515
f 515/515 587/587 474/474
f 137/137 346/346 423/423
f 346/346 137/137 187/187
f 213/213 715/715 723/723
f 557/557 715/715 213/213
f 758/758 557/557 473/473
f 557/557 758/758 715/715
f 423/423 473/473 137/137
f 473/473 423/423 758/758
f 187/187 515/515 346/346
f 515/515 187/187 518/518
f 804/804 792/792 88/88
f 792/792 804/804 82/82
f 804/804 88/88 246/246
f 246/246 88/88 659/659
f 246/246 816/816 101/101
f 246/246 659/659 816/816
f 370/370 206/206 100/100
f 707/707 736/736 568/568
f 568/568 165/165 336/336
f 568/568 336/336 707/707
f 258/258 633/633 401/401
f 633/633 258/258 634/634
f 401/401 145/145 15/15
f 145/145 401/401 633/633
f 865/865 634/634 868/868
f 634/634 865/865 503/503
f 391/391 396/396 580/580
f 580/580 305/305 391/391
f 828/828 581/581 397/397
f 581/581 828/828 641/641
f 391/391 434/434 251/251
f 434/434 391/391 305/305
f 70/70 251/251 434/434
f 434/434 253/253 70/70
f 465/465 512/512 589/589
f 512/512 465/465 646/646
f 828/828 646/646 465/465
f 465/465 641/641 828/828
f 512/512 324/324 589/589
f 324/324 512/512 508/508
f 70/70 324/324 508/508
f 324/324 70/70 253/253
f 143/143 98/98 534/534
f 98/98 143/143 215/215
f 144/144 157/157 156/156
f 156/156 216/216 144/144
f 849/849 534/534 98/98
f 98/98 63/63 849/849
f 849/849 744/744 745/745
f 744/744 849/849 63/63
f 51/51 795/795 837/837
f 795/795 51/51 367/367
f 51/51 156/156 157/157
f 156/156 51/51 837/837
f 795/795 755/755 696/696
f 755/755 795/795 367/367
f 755/755 745/745 744/744
f 744/744 696/696 755/755
f 237/237 355/355 495/495
f 355/355 237/237 859/859
f 419/419 238/238 264/264
f 264/264 238/238 496/496
f 355/355 328/328 584/584
f 328/328 355/355 859/859
f 584/584 328/328 632/632
f 328/328 479/479 632/632
f 577/577 546/546 35/35
f 546/546 577/577 314/314
f 314/314 577/577 264/264
f 577/577 419/419 264/264
f 546/546 666/666 35/35
f 666/666 546/546 406/406
f 479/479 666/666 632/632
f 632/632 666/666 406/406
f 305/305 580/580 732/732
f 732/732 491/491 305/305
f 641/641 733/733 581/581
f 733/733 641/641 120/120
f 305/305 585/585 434/434
f 585/585 305/305 491/491
f 253/253 434/434 585/585
f 585/585 776/776 253/253
f 313/313 589/589 407/407
f 589/589 313/313 465/465
f 641/641 465/465 313/313
f 313/313 120/120 641/641
f 589/589 167/167 407/407
f 167/167 589/589 324/324
f 253/253 167/167 324/324
f 167/167 253/253 776/776
f 469/469 766/766 396/396
f 396/396 391/391 469/469
f 506/506 397/397 767/767
f 397/397 506/506 828/828
f 391/391 251/251 469/469
f 469/469 251/251 620/620
f 251/251 400/400 620/620
f 400/400 251/251 70/70
f 271/271 430/430 646/646
f 646/646 430/430 512/512
f 646/646 506/506 271/271
f 506/506 646/646 828/828
f 430/430 508/508 512/512
f 508/508 430/430 126/126
f 400/400 508/508 126/126
f 508/508 400/400 70/70
f 98/98 215/215 810/810
f 810/810 653/653 98/98
f 156/156 811/811 216/216
f 811/811 156/156 504/504
f 98/98 660/660 63/63
f 660/660 98/98 653/653
f 744/744 63/63 660/660
f 660/660 398/398 744/744
f 242/242 795/795 244/244
f 795/795 242/242 837/837
f 156/156 837/837 242/242
f 242/242 504/504 156/156
f 795/795 87/87 244/244
f 87/87 795/795 696/696
f 744/744 87/87 696/696
f 87/87 744/744 398/398
f 609/609 534/534 713/713
f 534/534 609/609 143/143
f 610/610 505/505 157/157
f 157/157 144/144 610/610
f 464/464 713/713 534/534
f 534/534 849/849 464/464
f 464/464 745/745 399/399
f 745/745 464/464 849/849
f 435/435 367/367 51/51
f 367/367 435/435 193/193
f 435/435 157/157 505/505
f 157/157 435/435 51/51
f 367/367 282/282 755/755
f 282/282 367/367 193/193
f 282/282 399/399 745/745
f 745/745 755/755 282/282
f 629/629 348/348 312/312
f 629/629 415/415 348/348
f 507/507 117/117 762/762
f 507/507 630/630 117/117
f 111/111 225/225 405/405
f 225/225 111/111 415/415
f 225/225 592/592 823/823
f 823/823 592/592 877/877
f 415/415 111/111 832/832
f 832/832 348/348 415/415
f 516/516 782/782 480/480
f 782/782 516/516 497/497
f 516/516 507/507 77/77
f 77/77 507/507 520/520
f 821/821 480/480 556/556
f 821/821 556/556 586/586
f 592/592 777/777 521/521
f 592/592 821/821 777/777
f 556/556 480/480 68/68
f 480/480 782/782 68/68
f 445/445 775/775 164/164
f 775/775 521/521 164/164
f 456/456 119/119 354/354
f 119/119 762/762 354/354
f 805/805 245/245 457/457
f 245/245 545/545 457/457
f 89/89 219/219 444/444
f 444/444 163/163 658/658
f 862/862 409/409 66/66
f 409/409 862/862 841/841
f 651/651 279/279 742/742
f 651/651 742/742 178/178
f 536/536 812/812 437/437
f 812/812 536/536 22/22
f 845/845 66/66 409/409
f 66/66 845/845 678/678
f 750/750 205/205 373/373
f 205/205 750/750 257/257
f 526/526 422/422 69/69
f 69/69 514/514 526/526
f 54/54 229/229 834/834
f 54/54 834/834 490/490
f 640/640 701/701 148/148
f 701/701 529/529 148/148
f 498/498 831/831 387/387
f 831/831 498/498 102/102
f 490/490 32/32 55/55
f 32/32 490/490 834/834
f 613/613 158/158 247/247
f 247/247 158/158 721/721
f 86/86 364/364 871/871
f 364/364 86/86 356/356
f 437/437 627/627 25/25
f 627/627 437/437 812/812
f 627/627 684/684 102/102
f 831/831 724/724 640/640
f 701/701 136/136 229/229
f 55/55 158/158 613/613
f 158/158 55/55 32/32
f 247/247 871/871 364/364
f 871/871 247/247 721/721
f 86/86 269/269 356/356
f 269/269 870/870 356/356
f 269/269 746/746 422/422
f 69/69 176/176 257/257
f 205/205 759/759 678/678
f 862/862 742/742 841/841
f 742/742 279/279 841/841
f 651/651 178/178 22/22
f 22/22 536/536 651/651
f 624/624 862/862 66/66
f 474/474 178/178 742/742
f 587/587 812/812 22/22
f 678/678 624/624 66/66
f 624/624 678/678 759/759
f 257/257 759/759 205/205
f 759/759 257/257 176/176
f 422/422 746/746 176/176
f 176/176 69/69 422/422
f 229/229 136/136 270/270
f 270/270 834/834 229/229
f 724/724 136/136 640/640
f 136/136 701/701 640/640
f 102/102 724/724 831/831
f 724/724 102/102 684/684
f 270/270 32/32 834/834
f 421/421 721/721 158/158
f 310/310 86/86 871/871
f 812/812 684/684 627/627
f 684/684 812/812 587/587
f 421/421 32/32 270/270
f 32/32 421/421 158/158
f 721/721 310/310 871/871
f 310/310 721/721 421/421
f 310/310 746/746 86/86
f 746/746 269/269 86/86
f 624/624 474/474 862/862
f 474/474 742/742 862/862
f 178/178 474/474 587/587
f 587/587 22/22 178/178
f 835/835 792/792 82/82
f 792/792 835/835 61/61
f 608/608 201/201 761/761
f 201/201 608/608 699/699
f 597/597 208/208 483/483
f 208/208 597/597 649/649
f 468/468 648/648 650/650
f 650/650 648/648 596/596
f 874/874 468/468 542/542
f 542/542 468/468 650/650
f 60/60 542/542 699/699
f 542/542 60/60 874/874
f 668/668 607/607 836/836
f 836/836 81/81 668/668
f 693/693 442/442 351/351
f 351/351 740/740 693/693
f 483/483 208/208 595/595
f 208/208 410/410 595/595
f 595/595 410/410 628/628
f 410/410 570/570 628/628
f 628/628 570/570 290/290
f 570/570 93/93 290/290
f 290/290 20/20 442/442
f 20/20 290/290 93/93
f 793/793 62/62 531/531
f 793/793 531/531 227/227
f 352/352 531/531 62/62
f 839/839 165/165 199/199
f 839/839 64/64 165/165
f 218/218 459/459 548/548
f 548/548 160/160 218/218
f 297/297 700/700 488/488
f 700/700 297/297 414/414
f 268/268 488/488 334/334
f 488/488 268/268 297/297
f 602/602 334/334 801/801
f 334/334 602/602 268/268
f 602/602 873/873 459/459
f 873/873 602/602 801/801
f 547/547 370/370 838/838
f 100/100 838/838 370/370
f 285/285 704/704 131/131
f 704/704 285/285 211/211
f 700/700 296/296 250/250
f 296/296 700/700 414/414
f 250/250 296/296 249/249
f 250/250 249/249 431/431
f 431/431 249/249 361/361
f 431/431 361/361 19/19
f 840/840 361/361 211/211
f 361/361 840/840 19/19
f 539/539 235/235 817/817
f 65/65 235/235 286/286
f 235/235 65/65 817/817
f 169/169 460/460 214/214
f 280/280 500/500 566/566
f 260/260 161/161 294/294
f 146/146 15/15 145/145
f 731/731 441/441 697/697
f 338/338 403/403 612/612
f 636/636 738/738 598/598
f 752/752 875/875 753/753
f 492/492 67/67 306/306
f 67/67 492/492 603/603
f 103/103 306/306 67/67
f 306/306 103/103 872/872
f 492/492 631/631 603/603
f 631/631 774/774 603/603
f 92/92 173/173 109/109
f 173/173 92/92 197/197
f 103/103 197/197 872/872
f 197/197 103/103 173/173
f 267/267 109/109 458/458
f 109/109 267/267 92/92
f 728/728 424/424 709/709
f 424/424 728/728 78/78
f 709/709 791/791 728/728
f 791/791 709/709 21/21
f 78/78 631/631 424/424
f 631/631 78/78 774/774
f 833/833 780/780 675/675
f 588/588 780/780 833/833
f 21/21 588/588 791/791
f 588/588 833/833 791/791
f 675/675 267/267 458/458
f 267/267 675/675 780/780
f 210/210 195/195 420/420
f 195/195 210/210 209/209
f 420/420 383/383 243/243
f 383/383 420/420 195/195
f 209/209 591/591 590/590
f 591/591 209/209 210/210
f 293/293 262/262 196/196
f 262/262 293/293 261/261
f 383/383 196/196 243/243
f 196/196 383/383 293/293
f 642/642 643/643 261/261
f 643/643 262/262 261/261
f 711/711 599/599 448/448
f 447/447 448/448 599/599
f 599/599 711/711 519/519
f 711/711 657/657 519/519
f 590/590 448/448 447/447
f 448/448 590/590 591/591
f 13/13 710/710 475/475
f 710/710 13/13 12/12
f 519/519 475/475 710/710
f 475/475 519/519 657/657
f 12/12 13/13 642/642
f 13/13 643/643 642/642
f 420/420 603/603 210/210
f 603/603 420/420 67/67
f 243/243 67/67 420/420
f 67/67 243/243 103/103
f 774/774 210/210 603/603
f 210/210 774/774 591/591
f 109/109 173/173 196/196
f 109/109 196/196 262/262
f 173/173 103/103 243/243
f 173/173 243/243 196/196
f 458/458 262/262 643/643
f 262/262 458/458 109/109
f 711/711 448/448 78/78
f 711/711 78/78 728/728
f 728/728 657/657 711/711
f 657/657 728/728 791/791
f 774/774 78/78 448/448
f 774/774 448/448 591/591
f 675/675 475/475 833/833
f 475/475 675/675 13/13
f 833/833 657/657 791/791
f 657/657 833/833 475/475
f 13/13 458/458 643/643
f 458/458 13/13 675/675