o convex_0
v -0.019109 -0.088638 0.002910
v -0.019109 -0.080107 0.018039
v -0.019885 -0.080107 0.018039
v -0.015232 -0.066530 0.000971
v -0.027255 -0.080107 0.005626
v -0.010965 -0.066532 0.016484
v -0.021825 -0.066530 0.014159
v -0.011741 -0.078167 0.005239
v -0.017172 -0.088253 0.016099
v -0.026867 -0.082822 0.014159
v -0.016396 -0.086311 0.000195
v -0.010578 -0.066532 0.002137
v -0.019885 -0.066530 0.001746
v -0.024928 -0.082433 0.000971
v -0.012903 -0.078167 0.016873
v -0.026479 -0.084763 0.008341
v -0.018723 -0.066530 0.016873
v -0.016008 -0.088253 0.010666
v -0.022211 -0.066530 0.005239
v -0.025316 -0.081270 0.016486
v -0.019497 -0.089028 0.012995
v -0.021825 -0.081270 -0.000194
v -0.012517 -0.074679 0.000584
v -0.010188 -0.068083 0.011053
v -0.027255 -0.080107 0.012219
v -0.012129 -0.078167 0.014544
v -0.018337 -0.086698 0.017650
v -0.011741 -0.066532 0.017261
v -0.024540 -0.085535 0.014935
v -0.016008 -0.087866 0.002910
v -0.026092 -0.080107 0.002522
v -0.022600 -0.066530 0.010277
v -0.025704 -0.084373 0.003299
v -0.016396 -0.083985 0.018039
v -0.012129 -0.077781 0.002137
v -0.020661 -0.086311 0.000582
v -0.019109 -0.089418 0.007566
v -0.022988 -0.083210 0.017650
v -0.015232 -0.085925 0.015322
v -0.014069 -0.084373 0.009890
v -0.016008 -0.081655 -0.000194
v -0.015232 -0.067695 0.000582
v -0.027643 -0.082433 0.007177
v -0.011353 -0.066532 0.000971
v -0.010188 -0.067695 0.004464
v -0.017172 -0.089418 0.007566
v -0.023376 -0.087088 0.008730
v -0.026479 -0.080492 0.014935
v -0.014456 -0.084763 0.002524
v -0.018337 -0.066530 0.000971
v -0.017561 -0.066530 0.017262
v -0.019497 -0.087478 0.016873
v -0.023764 -0.079719 0.000582
v -0.020275 -0.066530 0.016099
v -0.011741 -0.078167 0.010279
v -0.022988 -0.080882 0.017650
v -0.027255 -0.079330 0.008341
v -0.024152 -0.085535 0.002522
v -0.024540 -0.084373 0.016486
v -0.021051 -0.084373 -0.000194
v -0.021437 -0.066530 0.003299
v -0.011353 -0.073128 0.015321
v -0.010188 -0.066532 0.012606
v -0.026479 -0.082822 0.002910
f 58 33 64 
f 7 4 13 
f 4 7 17 
f 7 13 19 
f 15 6 28 
f 10 16 29 
f 1 11 30 
f 5 19 31 
f 7 19 32 
f 25 7 32 
f 2 3 34 
f 27 9 34 
f 28 2 34 
f 15 28 34 
f 11 23 35 
f 23 12 35 
f 11 1 36 
f 34 3 38 
f 27 34 38 
f 9 18 39 
f 26 15 39 
f 34 9 39 
f 15 34 39 
f 18 30 40 
f 39 18 40 
f 26 39 40 
f 23 11 41 
f 41 22 42 
f 16 10 43 
f 10 25 43 
f 33 16 43 
f 4 12 44 
f 12 23 44 
f 23 41 44 
f 41 42 44 
f 42 4 44 
f 24 8 45 
f 8 35 45 
f 35 12 45 
f 18 9 46 
f 9 21 46 
f 1 30 46 
f 30 18 46 
f 37 1 46 
f 21 37 46 
f 29 16 47 
f 21 29 47 
f 1 37 47 
f 37 21 47 
f 10 20 48 
f 25 10 48 
f 7 25 48 
f 30 11 49 
f 35 8 49 
f 11 35 49 
f 8 40 49 
f 40 30 49 
f 13 4 50 
f 4 42 50 
f 42 22 50 
f 3 2 51 
f 4 17 51 
f 2 28 51 
f 28 6 51 
f 21 9 52 
f 9 27 52 
f 29 21 52 
f 27 38 52 
f 22 14 53 
f 14 31 53 
f 31 13 53 
f 13 50 53 
f 50 22 53 
f 17 7 54 
f 7 48 54 
f 48 20 54 
f 8 24 55 
f 40 8 55 
f 26 40 55 
f 38 3 56 
f 20 38 56 
f 3 51 56 
f 51 17 56 
f 17 54 56 
f 54 20 56 
f 19 5 57 
f 32 19 57 
f 25 32 57 
f 5 43 57 
f 43 25 57 
f 16 33 58 
f 36 1 58 
f 14 36 58 
f 47 16 58 
f 1 47 58 
f 20 10 59 
f 10 29 59 
f 38 20 59 
f 29 52 59 
f 52 38 59 
f 14 22 60 
f 11 36 60 
f 36 14 60 
f 22 41 60 
f 41 11 60 
f 19 13 61 
f 13 31 61 
f 31 19 61 
f 6 15 62 
f 15 26 62 
f 55 24 62 
f 26 55 62 
f 12 4 63 
f 45 12 63 
f 24 45 63 
f 4 51 63 
f 51 6 63 
f 6 62 63 
f 62 24 63 
f 5 31 64 
f 31 14 64 
f 43 5 64 
f 33 43 64 
f 14 58 64 
o convex_1
v -0.009411 0.061099 0.010278
v 0.002613 0.090189 0.016099
v 0.002613 0.090189 0.002910
v 0.002613 0.038604 0.016099
v 0.002613 0.038604 0.002522
v -0.009799 0.046362 0.002522
v -0.008247 0.038604 0.015711
v -0.002041 0.089800 0.002522
v -0.002817 0.088638 0.016099
v -0.010187 0.052185 0.015323
v -0.007084 0.038604 0.002522
v -0.008247 0.067689 0.003298
v -0.008635 0.066528 0.015711
v -0.009411 0.051796 0.002134
v 0.002613 0.089027 0.002522
v -0.007084 0.066528 0.016099
v -0.009799 0.055286 0.003298
v -0.010187 0.046362 0.014934
v -0.001653 0.090189 0.016099
v -0.002430 0.089411 0.003298
v -0.007084 0.073124 0.014158
v -0.005920 0.050245 0.002134
v -0.008635 0.064972 0.002522
v -0.004368 0.042872 0.016099
v -0.010187 0.046750 0.008730
v -0.009799 0.045200 0.015711
v -0.008247 0.038604 0.012606
v -0.009024 0.064972 0.014934
v -0.009024 0.045973 0.002134
v -0.001653 0.090189 0.002522
v -0.010187 0.053346 0.013383
v -0.003206 0.087472 0.013381
v -0.005533 0.078164 0.004073
v -0.008635 0.066139 0.003687
v -0.009799 0.045589 0.003687
v -0.002430 0.089800 0.016099
v -0.007471 0.054897 0.002134
v -0.009799 0.056058 0.015711
f 77 92 102 
f 67 66 68 
f 67 68 69 
f 69 68 71 
f 68 66 73 
f 69 71 75 
f 67 69 79 
f 68 73 80 
f 73 77 80 
f 78 70 81 
f 66 67 83 
f 73 66 83 
f 72 76 84 
f 77 73 85 
f 79 69 86 
f 76 72 87 
f 72 78 87 
f 78 81 87 
f 71 68 88 
f 68 80 88 
f 81 70 89 
f 82 74 89 
f 82 71 90 
f 74 82 90 
f 71 88 90 
f 88 80 90 
f 75 71 91 
f 71 82 91 
f 82 89 91 
f 77 85 92 
f 69 75 93 
f 75 70 93 
f 70 78 93 
f 86 69 93 
f 78 86 93 
f 67 79 94 
f 83 67 94 
f 65 81 95 
f 89 74 95 
f 81 89 95 
f 92 65 95 
f 74 92 95 
f 85 73 96 
f 85 96 97 
f 84 76 97 
f 76 85 97 
f 96 84 97 
f 81 65 98 
f 85 76 98 
f 76 87 98 
f 87 81 98 
f 65 92 98 
f 92 85 98 
f 70 75 99 
f 89 70 99 
f 75 91 99 
f 91 89 99 
f 73 83 100 
f 72 84 100 
f 94 72 100 
f 83 94 100 
f 96 73 100 
f 84 96 100 
f 78 72 101 
f 86 78 101 
f 79 86 101 
f 72 94 101 
f 94 79 101 
f 80 77 102 
f 74 90 102 
f 90 80 102 
f 92 74 102 
o convex_2
v 0.018906 -0.089806 0.004849
v 0.018906 -0.079334 0.018815
v 0.018519 -0.079334 0.018815
v 0.013090 -0.069636 0.001358
v 0.027441 -0.082045 0.006402
v 0.022397 -0.069636 0.015322
v 0.011537 -0.069636 0.016875
v 0.016194 -0.088640 0.016875
v 0.026276 -0.084762 0.015709
v 0.015418 -0.085923 0.001747
v 0.021233 -0.069636 0.002522
v 0.022785 -0.084374 0.000971
v 0.011926 -0.078171 0.008729
v 0.025888 -0.086312 0.006015
v 0.019294 -0.089806 0.013769
v 0.018906 -0.069636 0.018037
v 0.024337 -0.083985 0.018038
v 0.011537 -0.071187 0.003686
v 0.023561 -0.069634 0.010278
v 0.013090 -0.079334 0.017649
v 0.027052 -0.082045 0.014158
v 0.015805 -0.089029 0.008729
v 0.018519 -0.087477 0.018424
v 0.017355 -0.085923 0.000582
v 0.026276 -0.082434 0.003298
v 0.012701 -0.069636 0.018037
v 0.012313 -0.079334 0.014547
v 0.016194 -0.085535 0.018815
v 0.022785 -0.069636 0.004849
v 0.018130 -0.070022 0.001358
v 0.027441 -0.085148 0.010278
v 0.013477 -0.079723 0.001747
v 0.018130 -0.088640 0.001747
v 0.024337 -0.086700 0.016098
v 0.023950 -0.087865 0.010666
v 0.011148 -0.071964 0.012995
v 0.025114 -0.081659 0.017260
v 0.024337 -0.086312 0.002911
v 0.022397 -0.082434 0.018815
v 0.011148 -0.069636 0.006015
v 0.017355 -0.090194 0.006402
v 0.014254 -0.085150 0.006015
v 0.014641 -0.086314 0.014935
v 0.027441 -0.081268 0.010666
v 0.022785 -0.082045 0.000971
v 0.020457 -0.082434 0.000582
v 0.012313 -0.078557 0.004849
v 0.020846 -0.069636 0.017260
v 0.026665 -0.084374 0.004076
v 0.016969 -0.089806 0.014935
v 0.016581 -0.089029 0.003298
v 0.023174 -0.069634 0.013382
v 0.019294 -0.089029 0.016484
v 0.024725 -0.082822 0.001747
v 0.020068 -0.089806 0.009116
v 0.016194 -0.082822 0.000582
v 0.015030 -0.085923 0.017649
v 0.023561 -0.087865 0.006015
v 0.026276 -0.082045 0.016098
v 0.011926 -0.069636 0.002135
v 0.021233 -0.085535 0.018815
v 0.011926 -0.076617 0.015709
v 0.014254 -0.085535 0.008729
v 0.023174 -0.086314 0.017649
f 119 163 166 
f 105 104 118 
f 113 106 121 
f 105 118 128 
f 109 122 128 
f 104 105 130 
f 110 125 130 
f 105 128 130 
f 128 122 130 
f 121 107 131 
f 113 121 131 
f 107 127 131 
f 127 113 131 
f 106 113 132 
f 123 111 133 
f 112 126 135 
f 126 114 135 
f 133 111 136 
f 133 136 137 
f 116 133 137 
f 136 117 137 
f 103 135 140 
f 135 114 140 
f 118 104 141 
f 104 130 141 
f 119 139 141 
f 120 115 142 
f 138 109 142 
f 115 138 142 
f 124 110 145 
f 107 121 146 
f 133 107 146 
f 123 133 146 
f 132 113 147 
f 132 147 148 
f 114 126 148 
f 106 132 148 
f 147 114 148 
f 115 120 149 
f 134 112 149 
f 120 134 149 
f 112 144 149 
f 144 115 149 
f 118 141 150 
f 141 139 150 
f 127 107 151 
f 107 133 151 
f 133 116 151 
f 116 140 151 
f 110 124 152 
f 143 117 152 
f 124 143 152 
f 135 103 153 
f 112 135 153 
f 103 143 153 
f 143 124 153 
f 144 112 153 
f 124 144 153 
f 128 118 154 
f 109 128 154 
f 121 142 154 
f 142 109 154 
f 146 121 154 
f 123 146 154 
f 150 108 154 
f 118 150 154 
f 125 110 155 
f 117 136 155 
f 110 152 155 
f 152 117 155 
f 113 127 156 
f 140 114 156 
f 114 147 156 
f 147 113 156 
f 127 151 156 
f 151 140 156 
f 137 117 157 
f 143 103 157 
f 117 143 157 
f 126 112 158 
f 112 134 158 
f 134 106 158 
f 106 148 158 
f 148 126 158 
f 122 129 159 
f 110 130 159 
f 130 122 159 
f 145 110 159 
f 129 145 159 
f 116 137 160 
f 103 140 160 
f 140 116 160 
f 157 103 160 
f 137 157 160 
f 119 111 161 
f 111 123 161 
f 139 119 161 
f 108 150 161 
f 150 139 161 
f 154 108 161 
f 123 154 161 
f 121 106 162 
f 106 134 162 
f 134 120 162 
f 120 142 162 
f 142 121 162 
f 130 125 163 
f 119 141 163 
f 141 130 163 
f 122 109 164 
f 115 129 164 
f 129 122 164 
f 109 138 164 
f 138 115 164 
f 129 115 165 
f 144 124 165 
f 115 144 165 
f 124 145 165 
f 145 129 165 
f 111 119 166 
f 136 111 166 
f 125 155 166 
f 155 136 166 
f 163 125 166 
o convex_3
v 0.020457 -0.068854 0.002137
v 0.017356 -0.026577 0.018039
v 0.018907 -0.026577 0.017649
v 0.012701 -0.026577 0.001748
v 0.011537 -0.069634 0.016873
v 0.023174 -0.066523 0.015322
v 0.022786 -0.026965 0.006790
v 0.011925 -0.069634 0.002137
v 0.010760 -0.026577 0.015709
v 0.018518 -0.069634 0.018039
v 0.023562 -0.042868 0.004463
v 0.023949 -0.042868 0.014158
v 0.023174 -0.069634 0.006014
v 0.018907 -0.026577 0.002137
v 0.010760 -0.026965 0.006014
v 0.010760 -0.066915 0.009506
v 0.012701 -0.026577 0.018039
v 0.024338 -0.066139 0.009118
v 0.017356 -0.069634 0.001359
v 0.022009 -0.026577 0.014933
v 0.022398 -0.044420 0.016484
v 0.012701 -0.069634 0.018039
v 0.024338 -0.042868 0.006790
v 0.023562 -0.066139 0.004850
v 0.011537 -0.026577 0.002523
v 0.011148 -0.065364 0.004076
v 0.013089 -0.069634 0.001359
v 0.024338 -0.042868 0.012605
v 0.023174 -0.069634 0.012994
v 0.020845 -0.028904 0.002912
v 0.010760 -0.063425 0.013769
v 0.017356 -0.026577 0.001748
v 0.011148 -0.026577 0.016873
v 0.022786 -0.026577 0.011831
v 0.023949 -0.066139 0.013382
v 0.022009 -0.064588 0.002912
v 0.020457 -0.069634 0.017260
v 0.020457 -0.031231 0.017260
v 0.019682 -0.035501 0.002137
v 0.021621 -0.026577 0.004076
v 0.022398 -0.042868 0.003299
v 0.011148 -0.064196 0.016484
v 0.011925 -0.069237 0.017649
v 0.011148 -0.069634 0.006014
v 0.023174 -0.042868 0.015709
v 0.021621 -0.064588 0.016873
v 0.010760 -0.062649 0.007567
v 0.011148 -0.069634 0.015320
v 0.013476 -0.063809 0.001359
v 0.023949 -0.066139 0.006014
v 0.011148 -0.026577 0.003688
v 0.011537 -0.063425 0.002523
v 0.012313 -0.052951 0.001748
v 0.022398 -0.069634 0.004076
v 0.023174 -0.029684 0.009505
v 0.021621 -0.026577 0.015709
v 0.024338 -0.066139 0.010667
v 0.023174 -0.066139 0.004075
v 0.011925 -0.026577 0.017649
v 0.019294 -0.069634 0.001748
v 0.019294 -0.028904 0.017649
f 176 204 227 
f 168 169 170 
f 168 170 175 
f 171 174 176 
f 176 174 179 
f 170 169 180 
f 175 181 182 
f 168 175 183 
f 176 168 183 
f 179 174 185 
f 180 169 186 
f 171 176 188 
f 176 183 188 
f 177 173 189 
f 177 189 190 
f 175 170 191 
f 185 174 193 
f 186 178 194 
f 184 189 194 
f 176 179 195 
f 179 184 195 
f 175 182 197 
f 170 180 198 
f 183 175 199 
f 180 186 200 
f 186 194 200 
f 178 172 201 
f 194 178 201 
f 172 195 201 
f 195 172 203 
f 176 195 203 
f 180 196 205 
f 198 180 205 
f 173 177 206 
f 177 196 206 
f 196 180 206 
f 200 173 206 
f 180 200 206 
f 196 177 207 
f 202 167 207 
f 167 205 207 
f 205 196 207 
f 175 197 208 
f 199 175 208 
f 199 208 209 
f 171 188 209 
f 188 183 209 
f 208 171 209 
f 174 171 210 
f 192 174 210 
f 172 178 211 
f 178 186 211 
f 187 172 211 
f 204 187 211 
f 172 187 212 
f 176 203 212 
f 203 172 212 
f 204 176 212 
f 187 204 212 
f 182 181 213 
f 181 192 213 
f 210 182 213 
f 192 210 213 
f 197 182 214 
f 171 208 214 
f 208 197 214 
f 210 171 214 
f 182 210 214 
f 193 170 215 
f 185 193 215 
f 170 198 215 
f 198 185 215 
f 184 179 216 
f 189 184 216 
f 190 189 216 
f 179 190 216 
f 181 175 217 
f 175 191 217 
f 192 181 217 
f 192 217 218 
f 174 192 218 
f 217 191 218 
f 218 191 219 
f 191 170 219 
f 170 193 219 
f 193 174 219 
f 174 218 219 
f 179 185 220 
f 190 179 220 
f 189 173 221 
f 194 189 221 
f 173 200 221 
f 200 194 221 
f 186 169 222 
f 169 204 222 
f 211 186 222 
f 204 211 222 
f 184 194 223 
f 195 184 223 
f 194 201 223 
f 201 195 223 
f 177 190 224 
f 167 202 224 
f 207 177 224 
f 202 207 224 
f 220 167 224 
f 190 220 224 
f 183 199 225 
f 199 209 225 
f 209 183 225 
f 185 198 226 
f 205 167 226 
f 198 205 226 
f 167 220 226 
f 220 185 226 
f 169 168 227 
f 168 176 227 
f 204 169 227 
o convex_4
v 0.023950 -0.024628 0.009892
v 0.002614 0.021138 0.009506
v 0.002614 0.021138 0.011443
v 0.015803 0.023858 0.012993
v 0.012701 -0.026573 0.018037
v 0.012313 -0.026573 0.001747
v 0.012701 0.023858 0.001747
v 0.011538 0.023858 0.018425
v 0.004168 0.022303 0.001361
v 0.022010 -0.026183 0.016097
v 0.021621 -0.025408 0.003298
v 0.003779 0.021913 0.018425
v 0.010375 -0.025408 0.013768
v 0.015803 0.023858 0.006402
v 0.010761 -0.025408 0.004074
v 0.017355 -0.026573 0.001747
v 0.003002 0.023858 0.011443
v 0.017355 -0.026573 0.018037
v 0.022785 -0.022303 0.004851
v 0.009986 0.018418 0.000970
v 0.022398 -0.021918 0.015321
v 0.014637 0.023858 0.016097
v 0.003391 0.021138 0.002523
v 0.010761 -0.026183 0.016097
v 0.009598 0.017643 0.018815
v 0.003002 0.020363 0.016484
v 0.021233 -0.023853 0.016874
v 0.023173 -0.026573 0.006402
v 0.013863 0.023858 0.002523
v 0.010375 -0.025793 0.009506
v 0.023173 -0.021918 0.013382
v 0.004942 0.019583 0.000970
v 0.005331 0.023858 0.002523
v 0.004942 0.019973 0.018815
v 0.011538 -0.026573 0.017648
v 0.003002 0.020363 0.005239
v 0.012701 0.023858 0.018037
v 0.015026 0.023858 0.004076
v 0.003002 0.023078 0.016874
v 0.011538 -0.026573 0.002523
v 0.023562 -0.023853 0.006790
v 0.018906 -0.024633 0.002135
v 0.011538 0.023858 0.001361
v 0.003002 0.023078 0.004074
v 0.003391 0.019973 0.017648
v 0.023173 -0.026573 0.013382
v 0.021621 -0.023468 0.003298
v 0.023562 -0.021918 0.010668
v 0.003779 0.020363 0.001747
v 0.010375 0.021918 0.018815
v 0.007658 0.023858 0.018425
v 0.022010 -0.022693 0.016097
v 0.010761 -0.026573 0.005627
v 0.022398 -0.022693 0.004074
v 0.003002 0.018808 0.013382
v 0.018906 -0.024633 0.017650
v 0.015026 0.023858 0.015321
v 0.009986 0.022303 0.000970
v 0.006106 0.016483 0.000970
v 0.022785 -0.026183 0.004463
v 0.023562 -0.022303 0.008731
v 0.023562 -0.025793 0.013382
v 0.003391 0.019583 0.003300
v 0.002614 0.023078 0.014156
f 244 271 291 
f 231 234 235 
f 234 231 241 
f 232 233 243 
f 235 234 244 
f 232 243 245 
f 231 235 249 
f 232 245 252 
f 240 251 253 
f 245 237 254 
f 245 243 255 
f 234 241 256 
f 230 229 257 
f 251 240 257 
f 244 234 260 
f 232 252 261 
f 233 232 262 
f 232 261 262 
f 261 239 262 
f 257 229 263 
f 249 235 264 
f 235 254 264 
f 241 246 265 
f 256 241 265 
f 233 262 267 
f 246 241 268 
f 228 255 268 
f 238 243 269 
f 260 234 270 
f 236 260 270 
f 234 269 270 
f 236 250 271 
f 260 236 271 
f 244 260 271 
f 263 229 271 
f 250 263 271 
f 253 251 272 
f 251 262 272 
f 262 239 272 
f 239 266 272 
f 266 253 272 
f 237 245 273 
f 245 255 273 
f 234 256 274 
f 269 234 274 
f 238 269 274 
f 241 231 275 
f 258 228 275 
f 231 258 275 
f 250 236 276 
f 236 259 276 
f 259 233 276 
f 267 242 276 
f 233 267 276 
f 252 245 277 
f 261 252 277 
f 261 277 278 
f 235 244 278 
f 239 261 278 
f 266 239 278 
f 244 266 278 
f 277 235 278 
f 248 249 279 
f 254 237 279 
f 249 264 279 
f 264 254 279 
f 251 257 280 
f 262 251 280 
f 263 242 280 
f 257 263 280 
f 242 267 280 
f 267 262 280 
f 265 246 281 
f 256 265 281 
f 238 274 281 
f 274 256 281 
f 253 230 282 
f 240 253 282 
f 230 257 282 
f 257 240 282 
f 254 235 283 
f 245 254 283 
f 235 277 283 
f 277 245 283 
f 249 248 284 
f 231 249 284 
f 258 231 284 
f 248 258 284 
f 243 247 285 
f 259 236 285 
f 247 259 285 
f 269 243 285 
f 236 270 285 
f 270 269 285 
f 243 233 286 
f 247 243 286 
f 233 259 286 
f 259 247 286 
f 243 238 287 
f 255 243 287 
f 246 268 287 
f 268 255 287 
f 238 281 287 
f 281 246 287 
f 228 268 288 
f 268 241 288 
f 275 228 288 
f 241 275 288 
f 255 228 289 
f 228 258 289 
f 258 248 289 
f 237 273 289 
f 273 255 289 
f 279 237 289 
f 248 279 289 
f 263 250 290 
f 242 263 290 
f 250 276 290 
f 276 242 290 
f 229 230 291 
f 230 253 291 
f 266 244 291 
f 253 266 291 
f 271 229 291 
o convex_5
v -0.021048 -0.066530 0.002912
v -0.010577 -0.032780 0.017263
v -0.009800 -0.032780 0.016485
v -0.011740 -0.066530 0.017263
v -0.010577 -0.066140 0.001748
v -0.014844 -0.032780 0.000971
v -0.022213 -0.041707 0.013381
v -0.022213 -0.064588 0.014933
v -0.009025 -0.032780 0.002912
v -0.020660 -0.032780 0.005626
v -0.018334 -0.032780 0.016485
v -0.009800 -0.062262 0.011055
v -0.023378 -0.063815 0.007178
v -0.017558 -0.066530 0.017263
v -0.021437 -0.041707 0.003300
v -0.017946 -0.066530 0.000971
v -0.011353 -0.034333 0.000971
v -0.009025 -0.033170 0.014158
v -0.022601 -0.041707 0.007178
v -0.010577 -0.066530 0.015321
v -0.011353 -0.066530 0.000971
v -0.023378 -0.064977 0.011442
v -0.021048 -0.032780 0.010666
v -0.017946 -0.032780 0.001748
v -0.021048 -0.062645 0.002136
v -0.016009 -0.032780 0.017263
v -0.009800 -0.063425 0.006015
v -0.020660 -0.043259 0.015710
v -0.022601 -0.064977 0.004075
v -0.009800 -0.032780 0.001361
v -0.022213 -0.066530 0.012606
v -0.022601 -0.041707 0.011442
v -0.019885 -0.032780 0.014933
v -0.009025 -0.037442 0.009891
v -0.010577 -0.060319 0.016485
v -0.010189 -0.066530 0.003687
v -0.020273 -0.066530 0.016097
v -0.022213 -0.041707 0.005239
v -0.017171 -0.033170 0.001361
v -0.010189 -0.062645 0.014933
v -0.020660 -0.042093 0.002523
v -0.019885 -0.033170 0.003300
v -0.022988 -0.064977 0.013381
v -0.022988 -0.065751 0.006791
v -0.021437 -0.042483 0.014933
v -0.010189 -0.066530 0.012606
v -0.009800 -0.057990 0.003300
v -0.009412 -0.051786 0.006015
v -0.023378 -0.061482 0.009117
v -0.018722 -0.065361 0.016872
v -0.009412 -0.034333 0.015710
v -0.017558 -0.034333 0.016872
v -0.022213 -0.065361 0.003300
v -0.009412 -0.052173 0.009503
v -0.022988 -0.063035 0.005239
f 329 320 346 
f 293 294 297 
f 297 294 300 
f 293 297 301 
f 293 301 302 
f 295 293 305 
f 292 295 305 
f 295 292 307 
f 307 297 308 
f 300 294 309 
f 295 307 311 
f 307 308 312 
f 311 307 312 
f 302 301 314 
f 301 310 314 
f 301 297 315 
f 293 302 317 
f 305 293 317 
f 300 296 321 
f 297 300 321 
f 308 297 321 
f 296 312 321 
f 312 308 321 
f 292 305 322 
f 313 298 323 
f 298 314 323 
f 314 310 323 
f 314 298 324 
f 302 314 324 
f 300 309 325 
f 294 293 326 
f 293 295 326 
f 295 311 326 
f 312 296 327 
f 311 312 327 
f 319 299 328 
f 322 305 328 
f 310 301 329 
f 306 320 329 
f 297 307 330 
f 315 297 330 
f 307 316 330 
f 303 309 331 
f 326 311 331 
f 316 306 332 
f 315 330 332 
f 330 316 332 
f 301 315 333 
f 329 301 333 
f 306 329 333 
f 332 306 333 
f 315 332 333 
f 299 298 334 
f 298 313 334 
f 313 322 334 
f 328 299 334 
f 322 328 334 
f 313 304 335 
f 304 320 335 
f 292 322 335 
f 322 313 335 
f 298 299 336 
f 299 319 336 
f 319 302 336 
f 324 298 336 
f 302 324 336 
f 318 303 337 
f 311 327 337 
f 327 318 337 
f 303 331 337 
f 331 311 337 
f 296 300 338 
f 327 296 338 
f 318 327 338 
f 300 325 339 
f 338 300 339 
f 318 338 339 
f 310 304 340 
f 304 313 340 
f 323 310 340 
f 313 323 340 
f 319 328 341 
f 328 305 341 
f 309 294 342 
f 294 326 342 
f 331 309 342 
f 326 331 342 
f 317 302 343 
f 305 317 343 
f 302 319 343 
f 341 305 343 
f 319 341 343 
f 307 292 344 
f 316 307 344 
f 306 316 344 
f 320 306 344 
f 335 320 344 
f 292 335 344 
f 309 303 345 
f 303 318 345 
f 325 309 345 
f 318 339 345 
f 339 325 345 
f 304 310 346 
f 320 304 346 
f 310 329 346 
o convex_6
v -0.018721 -0.032780 0.002523
v -0.007473 -0.016099 0.017263
v -0.014067 -0.016099 0.017263
v -0.007473 -0.016099 0.001361
v -0.009414 -0.032780 0.016097
v -0.020662 -0.021145 0.011442
v -0.019886 -0.032780 0.014933
v -0.009026 -0.032780 0.002912
v -0.017170 -0.016099 0.003300
v -0.006309 -0.018041 0.010667
v -0.016005 -0.032780 0.017263
v -0.021050 -0.023860 0.006791
v -0.014841 -0.032780 0.000971
v -0.017558 -0.016099 0.014933
v -0.014453 -0.016878 0.001361
v -0.021050 -0.032780 0.008342
v -0.019109 -0.022696 0.015710
v -0.019497 -0.023083 0.002912
v -0.006309 -0.016099 0.003298
v -0.009802 -0.032780 0.001361
v -0.010190 -0.032780 0.017263
v -0.008638 -0.032392 0.010278
v -0.018333 -0.016099 0.006015
v -0.006309 -0.016488 0.014158
v -0.021050 -0.023860 0.012217
v -0.020274 -0.032780 0.004464
v -0.006309 -0.018041 0.005626
v -0.017945 -0.030840 0.001748
v -0.020274 -0.020754 0.005626
v -0.019886 -0.021145 0.014546
v -0.018333 -0.016099 0.012606
v -0.012904 -0.024632 0.000971
v -0.020662 -0.032780 0.012994
v -0.011741 -0.032780 0.000971
v -0.006697 -0.016876 0.002136
v -0.017170 -0.029288 0.016872
v -0.006697 -0.016488 0.016097
v -0.008638 -0.032392 0.006015
v -0.020662 -0.020754 0.007955
v -0.020274 -0.023860 0.014546
v -0.009026 -0.032780 0.014158
v -0.016005 -0.016099 0.002136
v -0.018721 -0.032780 0.016097
v -0.020274 -0.023860 0.004075
v -0.016005 -0.016099 0.016485
v -0.016394 -0.026572 0.001361
v -0.018721 -0.021919 0.002523
f 361 392 393 
f 349 348 350 
f 347 351 353 
f 351 347 354 
f 349 350 355 
f 348 349 357 
f 353 351 357 
f 354 347 359 
f 349 355 360 
f 347 353 362 
f 350 348 365 
f 354 359 366 
f 348 357 367 
f 357 351 367 
f 360 355 369 
f 365 348 370 
f 356 365 370 
f 368 356 370 
f 358 362 371 
f 347 362 372 
f 362 358 372 
f 364 347 372 
f 354 365 373 
f 365 356 373 
f 356 368 373 
f 359 347 374 
f 347 364 374 
f 355 364 375 
f 369 355 375 
f 352 371 376 
f 360 369 377 
f 352 376 377 
f 376 360 377 
f 361 350 378 
f 359 361 378 
f 362 353 379 
f 371 362 379 
f 350 366 380 
f 366 359 380 
f 378 350 380 
f 359 378 380 
f 350 365 381 
f 365 354 381 
f 366 350 381 
f 354 366 381 
f 357 349 382 
f 349 363 382 
f 348 367 383 
f 367 351 383 
f 370 348 383 
f 351 370 383 
f 368 354 384 
f 354 373 384 
f 373 368 384 
f 371 352 385 
f 358 371 385 
f 375 358 385 
f 369 375 385 
f 352 377 385 
f 377 369 385 
f 363 376 386 
f 376 371 386 
f 379 353 386 
f 371 379 386 
f 351 354 387 
f 354 368 387 
f 370 351 387 
f 368 370 387 
f 355 350 388 
f 350 361 388 
f 353 357 389 
f 357 382 389 
f 382 363 389 
f 386 353 389 
f 363 386 389 
f 372 358 390 
f 364 372 390 
f 358 375 390 
f 375 364 390 
f 349 360 391 
f 363 349 391 
f 360 376 391 
f 376 363 391 
f 361 359 392 
f 359 374 392 
f 392 374 393 
f 364 355 393 
f 374 364 393 
f 355 388 393 
f 388 361 393 
o convex_7
v 0.001837 0.018812 0.008343
v -0.018334 -0.016099 0.006790
v -0.018334 -0.016099 0.012605
v -0.010962 0.023858 0.012994
v -0.007473 -0.016099 0.017260
v -0.007084 -0.015321 0.001359
v -0.007473 0.023858 0.001359
v -0.000491 0.021914 0.018427
v 0.001061 0.021914 0.001359
v -0.007861 0.023858 0.017649
v -0.015229 -0.016099 0.001747
v -0.014066 -0.016099 0.017262
v -0.010576 0.023858 0.005239
v -0.005921 -0.016099 0.005628
v 0.001837 0.020752 0.015321
v 0.000286 0.023854 0.012219
v -0.004758 0.019978 0.000582
v -0.005921 -0.015708 0.012605
v -0.017169 -0.013768 0.014933
v -0.017169 -0.015708 0.003300
v 0.001837 0.019974 0.003300
v 0.001061 0.019587 0.017649
v -0.005921 0.018425 0.018427
v -0.009799 0.023858 0.016098
v -0.018334 -0.014546 0.008343
v -0.000877 0.023854 0.002524
v -0.016006 -0.015708 0.016486
v -0.009799 0.023858 0.003300
v -0.014066 -0.016099 0.001361
v -0.007861 -0.012994 0.017649
v 0.000672 0.019587 0.000973
v -0.006309 -0.015321 0.002135
v 0.002226 0.022305 0.006014
v -0.006309 -0.015321 0.015709
v -0.010962 0.023858 0.007178
v 0.000286 0.019200 0.018427
v 0.001449 0.022305 0.016874
v -0.001654 0.023854 0.017260
v -0.017946 -0.014546 0.005627
v -0.001654 0.019974 0.000582
v -0.008248 0.023858 0.001747
v -0.000103 0.009891 0.009890
v -0.006309 0.023858 0.000973
v -0.005921 0.021918 0.018427
v -0.007473 -0.016099 0.001359
v 0.001837 0.019587 0.013380
v 0.001061 0.018425 0.001747
v -0.018334 -0.014546 0.010278
v -0.001654 0.014932 0.018427
v 0.001837 0.023079 0.007953
v 0.000286 0.011831 0.006014
v -0.008634 0.023858 0.017260
v -0.005921 -0.015321 0.003686
v -0.005535 -0.014546 0.009890
v -0.000877 0.008338 0.015321
v -0.015618 -0.014159 0.002135
v 0.001837 0.022305 0.002912
v 0.002226 0.022305 0.011441
v -0.018334 -0.015708 0.012605
v -0.010188 0.023858 0.015321
v -0.007473 0.020365 0.018037
v -0.003206 0.023858 0.018037
v -0.007084 -0.016099 0.016874
f 415 429 456 
f 396 395 398 
f 400 397 403 
f 398 395 404 
f 396 398 405 
f 397 400 406 
f 398 404 407 
f 404 395 413 
f 403 397 417 
f 395 396 418 
f 396 405 420 
f 412 396 420 
f 417 412 420 
f 406 400 421 
f 404 400 422 
f 407 404 422 
f 405 398 423 
f 416 405 423 
f 399 424 425 
f 394 414 426 
f 397 406 428 
f 418 397 428 
f 401 416 429 
f 423 398 429 
f 415 408 430 
f 429 415 430 
f 401 429 430 
f 401 430 431 
f 430 409 431 
f 413 395 432 
f 395 418 432 
f 406 421 432 
f 421 413 432 
f 428 406 432 
f 418 428 432 
f 402 424 433 
f 424 399 433 
f 400 404 434 
f 421 400 434 
f 413 421 434 
f 400 403 436 
f 419 402 436 
f 422 400 436 
f 410 422 436 
f 402 433 436 
f 433 410 436 
f 416 401 437 
f 405 416 437 
f 407 422 438 
f 422 410 438 
f 399 425 438 
f 425 407 438 
f 410 433 438 
f 433 399 438 
f 435 394 439 
f 411 435 439 
f 424 402 440 
f 414 425 440 
f 425 424 440 
f 418 396 441 
f 397 418 441 
f 416 423 442 
f 429 416 442 
f 423 429 442 
f 419 409 443 
f 409 430 443 
f 414 394 444 
f 394 435 444 
f 435 407 444 
f 403 417 445 
f 420 403 445 
f 417 420 445 
f 425 414 446 
f 407 425 446 
f 414 444 446 
f 444 407 446 
f 411 407 447 
f 407 435 447 
f 435 411 447 
f 408 415 448 
f 427 411 448 
f 415 427 448 
f 439 408 448 
f 411 439 448 
f 404 413 449 
f 434 404 449 
f 413 434 449 
f 402 419 450 
f 426 414 450 
f 440 402 450 
f 414 440 450 
f 419 443 450 
f 443 426 450 
f 394 426 451 
f 430 408 451 
f 408 439 451 
f 439 394 451 
f 426 443 451 
f 443 430 451 
f 396 412 452 
f 441 396 452 
f 397 441 452 
f 417 397 453 
f 412 417 453 
f 452 412 453 
f 397 452 453 
f 420 405 454 
f 403 420 454 
f 437 403 454 
f 405 437 454 
f 409 419 455 
f 401 431 455 
f 431 409 455 
f 436 403 455 
f 419 436 455 
f 437 401 455 
f 403 437 455 
f 398 407 456 
f 407 411 456 
f 411 427 456 
f 427 415 456 
f 429 398 456 
o convex_8
v -0.011350 0.025410 0.009505
v 0.002613 0.038599 0.016098
v -0.001653 0.038599 0.016098
v -0.005921 0.038210 0.002136
v -0.000491 0.023858 0.002911
v -0.003595 0.023858 0.018039
v -0.009410 0.037433 0.015708
v 0.002613 0.038599 0.002522
v -0.007472 0.023858 0.001361
v 0.002613 0.030065 0.015710
v -0.011738 0.032391 0.004463
v -0.009798 0.023858 0.016098
v -0.012126 0.032002 0.014158
v 0.002613 0.030454 0.002522
v -0.007858 0.038599 0.002524
v -0.000103 0.023858 0.013383
v -0.007858 0.028901 0.017648
v -0.004759 0.023858 0.000971
v -0.010574 0.023858 0.005240
v -0.012516 0.032391 0.008730
v -0.008246 0.038599 0.015708
v -0.009022 0.037823 0.002524
v -0.010962 0.031228 0.016098
v -0.010186 0.029679 0.002524
v -0.010962 0.023858 0.012993
v -0.007858 0.023858 0.017648
v -0.001267 0.023858 0.016487
v -0.005921 0.025410 0.000971
v -0.005921 0.026962 0.018039
v -0.012516 0.030843 0.009118
v -0.000103 0.023858 0.005626
v 0.002613 0.030454 0.016098
v -0.009798 0.023858 0.003300
v -0.011738 0.030454 0.004463
v 0.002613 0.030065 0.002911
v -0.008634 0.035883 0.002136
v -0.012126 0.033166 0.011831
f 478 476 493 
f 459 458 464 
f 461 462 465 
f 464 458 466 
f 465 462 468 
f 464 466 470 
f 459 464 471 
f 464 460 471 
f 462 461 472 
f 461 465 474 
f 470 461 474 
f 464 470 474 
f 465 468 475 
f 459 471 477 
f 473 459 477 
f 463 473 477 
f 471 460 478 
f 467 476 478 
f 477 471 478 
f 463 477 478 
f 463 469 479 
f 469 468 479 
f 473 463 479 
f 467 478 480 
f 468 469 481 
f 457 475 481 
f 475 468 481 
f 468 462 482 
f 479 468 482 
f 473 479 482 
f 462 472 483 
f 472 466 483 
f 460 464 484 
f 464 474 484 
f 474 465 484 
f 458 459 485 
f 462 458 485 
f 459 473 485 
f 482 462 485 
f 473 482 485 
f 475 457 486 
f 469 476 486 
f 481 469 486 
f 457 481 486 
f 472 461 487 
f 466 472 487 
f 458 462 488 
f 466 458 488 
f 462 483 488 
f 483 466 488 
f 465 475 489 
f 480 465 489 
f 480 489 490 
f 476 467 490 
f 467 480 490 
f 475 486 490 
f 486 476 490 
f 489 475 490 
f 461 470 491 
f 470 466 491 
f 487 461 491 
f 466 487 491 
f 478 460 492 
f 465 480 492 
f 480 478 492 
f 460 484 492 
f 484 465 492 
f 469 463 493 
f 476 469 493 
f 463 478 493 
o convex_9
v 0.011535 0.023858 0.001361
v 0.017743 0.031615 0.011442
v 0.017743 0.031230 0.011442
v 0.002614 0.038987 0.016096
v 0.008432 0.023858 0.018427
v 0.002614 0.038987 0.002524
v 0.004167 0.023858 0.007955
v 0.011923 0.038987 0.002911
v 0.012699 0.038210 0.016096
v 0.014639 0.023858 0.016096
v 0.016966 0.029678 0.004849
v 0.002614 0.029678 0.015709
v 0.002614 0.030454 0.002524
v 0.015803 0.023858 0.006401
v 0.016190 0.030842 0.016485
v 0.005719 0.023858 0.002911
v 0.011147 0.026962 0.018427
v 0.004555 0.023858 0.014933
v 0.017354 0.032779 0.007566
v 0.011147 0.038987 0.016096
v 0.015803 0.031230 0.003299
v 0.015803 0.023858 0.013383
v 0.014639 0.023858 0.003299
v 0.012699 0.023858 0.018037
v 0.017354 0.032003 0.014158
v 0.013087 0.037822 0.002911
v 0.009984 0.038987 0.002524
v 0.006494 0.023858 0.017648
v 0.009984 0.024634 0.001361
v 0.013863 0.030066 0.017648
v 0.017743 0.030454 0.008730
v 0.016966 0.031615 0.004462
v 0.013863 0.027350 0.002136
v 0.017354 0.032779 0.011831
v 0.016966 0.030066 0.014935
v 0.002614 0.030066 0.016096
v 0.008044 0.023858 0.001749
v 0.016190 0.024247 0.010667
v 0.011147 0.025410 0.001361
v 0.004167 0.023858 0.012994
f 511 505 533 
f 494 498 500 
f 499 497 501 
f 498 494 503 
f 497 499 505 
f 500 505 506 
f 505 499 506 
f 503 494 507 
f 494 500 509 
f 500 506 509 
f 497 498 510 
f 500 498 511 
f 501 497 513 
f 502 501 513 
f 497 510 513 
f 503 507 515 
f 507 494 516 
f 504 507 516 
f 498 503 517 
f 503 508 517 
f 510 498 517 
f 496 495 518 
f 502 508 518 
f 501 502 519 
f 499 501 520 
f 501 519 520 
f 511 498 521 
f 506 499 522 
f 508 502 523 
f 502 513 523 
f 513 510 523 
f 517 508 523 
f 510 517 523 
f 495 496 524 
f 507 504 524 
f 512 495 524 
f 504 516 525 
f 516 514 525 
f 519 512 525 
f 514 519 525 
f 524 504 525 
f 512 524 525 
f 516 494 526 
f 514 516 526 
f 519 514 526 
f 495 512 527 
f 518 495 527 
f 502 518 527 
f 519 502 527 
f 512 519 527 
f 508 503 528 
f 503 515 528 
f 515 496 528 
f 496 518 528 
f 518 508 528 
f 498 497 529 
f 497 505 529 
f 505 511 529 
f 521 498 529 
f 511 521 529 
f 494 509 530 
f 509 506 530 
f 506 522 530 
f 522 494 530 
f 515 507 531 
f 496 515 531 
f 524 496 531 
f 507 524 531 
f 499 520 532 
f 520 519 532 
f 522 499 532 
f 494 522 532 
f 526 494 532 
f 519 526 532 
f 505 500 533 
f 500 511 533 
o convex_10
v 0.013088 0.057222 0.005239
v 0.004941 0.083593 0.016487
v 0.004554 0.089417 0.016099
v 0.002614 0.038987 0.002522
v 0.010759 0.038987 0.016099
v 0.002614 0.089021 0.002522
v 0.002614 0.038987 0.016099
v 0.011924 0.038987 0.002910
v 0.013088 0.051017 0.016486
v 0.011147 0.068465 0.003298
v 0.002614 0.090194 0.016099
v 0.011535 0.066134 0.015321
v 0.004941 0.089021 0.002910
v 0.013476 0.045974 0.002910
v 0.013476 0.046746 0.014934
v 0.009984 0.038987 0.002522
v 0.011535 0.066525 0.002910
v 0.008820 0.076224 0.009117
v 0.013088 0.055282 0.014934
v 0.013476 0.053734 0.003686
v 0.011147 0.067302 0.016099
v 0.010371 0.046751 0.016487
v 0.004166 0.090194 0.002910
v 0.011924 0.038987 0.006789
v 0.011535 0.067302 0.004850
v 0.004166 0.080104 0.016487
v 0.008433 0.077001 0.015321
v 0.005717 0.086700 0.005238
v 0.013088 0.045583 0.016099
v 0.002614 0.090194 0.002910
v 0.009596 0.070405 0.016487
v 0.012312 0.063042 0.004851
v 0.013476 0.045583 0.010666
v 0.013476 0.050240 0.015322
v 0.004554 0.089803 0.013383
v 0.008045 0.052180 0.016487
v 0.012700 0.058385 0.015322
v 0.008820 0.076610 0.003686
v 0.012700 0.045583 0.016486
v 0.003003 0.089021 0.002522
f 556 546 573 
f 539 537 540 
f 537 538 540 
f 538 537 541 
f 535 536 544 
f 539 540 544 
f 537 539 549 
f 541 537 549 
f 547 541 549 
f 547 549 550 
f 546 543 550 
f 548 547 553 
f 547 550 553 
f 534 552 553 
f 538 541 557 
f 550 543 558 
f 535 544 559 
f 544 540 559 
f 555 535 559 
f 536 554 560 
f 554 545 560 
f 545 558 560 
f 558 551 560 
f 560 551 561 
f 538 557 562 
f 539 544 563 
f 544 556 563 
f 556 539 563 
f 536 535 564 
f 554 536 564 
f 542 554 564 
f 535 555 564 
f 555 542 564 
f 553 550 565 
f 534 553 565 
f 558 545 565 
f 550 558 565 
f 541 547 566 
f 547 548 566 
f 557 541 566 
f 548 562 566 
f 562 557 566 
f 548 553 567 
f 553 552 567 
f 542 562 567 
f 562 548 567 
f 544 536 568 
f 556 544 568 
f 546 556 568 
f 536 560 568 
f 561 546 568 
f 560 561 568 
f 540 555 569 
f 559 540 569 
f 555 559 569 
f 552 534 570 
f 554 542 570 
f 545 554 570 
f 534 565 570 
f 565 545 570 
f 542 567 570 
f 567 552 570 
f 543 546 571 
f 558 543 571 
f 551 558 571 
f 546 561 571 
f 561 551 571 
f 540 538 572 
f 555 540 572 
f 542 555 572 
f 538 562 572 
f 562 542 572 
f 549 539 573 
f 550 549 573 
f 546 550 573 
f 539 556 573 
