o convex_0
v -0.006687 -0.086769 0.002384
v -0.007247 -0.055096 0.011636
v -0.005846 -0.049773 0.011355
v -0.011172 -0.049773 0.002385
v -0.003043 -0.049773 0.002944
v -0.012293 -0.084809 0.008550
v -0.005286 -0.083406 0.009671
v -0.011172 -0.049773 0.009673
v -0.010331 -0.082004 0.001263
v -0.002201 -0.061826 0.006588
v -0.005286 -0.055938 0.000701
v -0.009209 -0.084809 0.011354
v -0.012575 -0.083687 0.004627
v -0.004445 -0.079202 0.002944
v -0.003603 -0.055938 0.010513
v -0.008649 -0.090140 0.005468
v -0.012013 -0.049773 0.007149
v -0.008369 -0.049773 0.000701
v -0.006687 -0.077518 0.011636
v -0.007527 -0.078921 0.000701
v -0.003043 -0.062387 0.002384
v -0.004725 -0.084809 0.007148
v -0.002762 -0.049773 0.007990
v -0.010612 -0.078079 0.011074
v -0.011452 -0.085366 0.002385
v -0.003323 -0.066872 0.009673
v -0.008929 -0.049773 0.011355
v -0.007808 -0.087892 0.009671
v -0.011733 -0.087334 0.007710
v -0.004445 -0.067995 0.001262
v -0.002762 -0.068832 0.004908
v -0.012013 -0.049773 0.005188
v -0.009490 -0.080044 0.011636
v -0.002201 -0.055938 0.004627
v -0.009490 -0.086212 0.001543
v -0.012575 -0.080044 0.007710
v -0.005566 -0.087050 0.004627
v -0.005005 -0.067434 0.011355
v -0.011733 -0.083126 0.009952
v -0.004445 -0.050892 0.001262
v -0.006126 -0.082565 0.001542
v -0.010051 -0.049773 0.001263
v -0.010612 -0.087050 0.009952
v -0.011452 -0.080324 0.002104
v -0.003883 -0.077799 0.007990
v -0.005846 -0.087331 0.007990
v -0.011452 -0.087611 0.004348
v -0.004725 -0.083968 0.004066
v -0.008929 -0.078360 0.000701
v -0.002482 -0.054816 0.008269
v -0.006126 -0.082565 0.010794
v -0.007527 -0.090140 0.006029
v -0.003603 -0.049773 0.009952
v -0.011733 -0.049773 0.008550
v -0.005846 -0.057341 0.011636
v -0.010051 -0.049773 0.010793
v -0.012013 -0.080881 0.002944
v -0.011733 -0.049773 0.003786
v -0.006687 -0.086208 0.010232
v -0.010051 -0.088737 0.008269
v -0.002482 -0.063786 0.004066
v -0.002762 -0.064071 0.008830
v -0.012293 -0.080605 0.008830
v -0.002482 -0.050050 0.005749
f 50 34 64 
f 4 3 5 
f 3 4 8 
f 8 4 17 
f 4 5 18 
f 18 11 20 
f 5 3 23 
f 2 3 27 
f 3 8 27 
f 6 13 29 
f 20 11 30 
f 21 14 30 
f 17 4 32 
f 19 2 33 
f 12 19 33 
f 2 27 33 
f 27 24 33 
f 21 5 34 
f 1 16 35 
f 25 9 35 
f 13 6 36 
f 32 13 36 
f 17 32 36 
f 26 15 38 
f 24 8 39 
f 12 33 39 
f 33 24 39 
f 18 5 40 
f 11 18 40 
f 5 21 40 
f 30 11 40 
f 21 30 40 
f 30 14 41 
f 20 30 41 
f 1 35 41 
f 35 20 41 
f 4 18 42 
f 28 12 43 
f 6 29 43 
f 39 6 43 
f 12 39 43 
f 9 25 44 
f 4 42 44 
f 42 9 44 
f 7 22 45 
f 26 7 45 
f 31 10 45 
f 22 31 45 
f 22 7 46 
f 37 22 46 
f 13 25 47 
f 29 13 47 
f 16 29 47 
f 35 16 47 
f 25 35 47 
f 14 31 48 
f 31 22 48 
f 37 1 48 
f 22 37 48 
f 1 41 48 
f 41 14 48 
f 18 20 49 
f 20 35 49 
f 35 9 49 
f 9 42 49 
f 42 18 49 
f 10 34 50 
f 19 12 51 
f 7 26 51 
f 38 19 51 
f 26 38 51 
f 16 1 52 
f 1 37 52 
f 46 28 52 
f 37 46 52 
f 3 15 53 
f 23 3 53 
f 15 50 53 
f 50 23 53 
f 8 17 54 
f 17 36 54 
f 3 2 55 
f 15 3 55 
f 2 19 55 
f 38 15 55 
f 19 38 55 
f 8 24 56 
f 27 8 56 
f 24 27 56 
f 25 13 57 
f 4 44 57 
f 44 25 57 
f 32 4 58 
f 13 32 58 
f 57 13 58 
f 4 57 58 
f 12 28 59 
f 46 7 59 
f 28 46 59 
f 51 12 59 
f 7 51 59 
f 29 16 60 
f 28 43 60 
f 43 29 60 
f 16 52 60 
f 52 28 60 
f 14 21 61 
f 10 31 61 
f 31 14 61 
f 21 34 61 
f 34 10 61 
f 15 26 62 
f 45 10 62 
f 26 45 62 
f 50 15 62 
f 10 50 62 
f 36 6 63 
f 6 39 63 
f 39 8 63 
f 8 54 63 
f 54 36 63 
f 5 23 64 
f 34 5 64 
f 23 50 64 
o convex_1
v -0.008929 -0.044716 0.000701
v -0.007248 -0.034906 0.011355
v -0.007529 -0.034906 0.011355
v -0.008369 0.012477 0.004346
v -0.002762 -0.049766 0.004066
v -0.011733 -0.049766 0.008551
v -0.003323 0.012477 0.004908
v -0.012293 0.008827 0.008551
v -0.012293 -0.006594 0.002104
v -0.004164 -0.006033 0.009952
v -0.005285 -0.005192 0.001543
v -0.003603 -0.049766 0.009952
v -0.011172 -0.049766 0.002384
v -0.013416 -0.018645 0.005189
v -0.011733 -0.006313 0.010233
v -0.003323 0.012477 0.007149
v -0.011172 0.008547 0.002384
v -0.005285 -0.049766 0.000981
v -0.008929 -0.049766 0.011355
v -0.012574 0.012477 0.004907
v -0.005285 -0.004912 0.010514
v -0.012855 -0.015001 0.009111
v -0.003884 -0.006313 0.002384
v -0.009210 -0.013040 0.000981
v -0.010892 0.008827 0.009392
v -0.002762 -0.048919 0.007990
v -0.005005 -0.049766 0.011075
v -0.012855 -0.033779 0.004347
v -0.011453 -0.037148 0.010233
v -0.012574 0.012477 0.006869
v -0.009210 -0.008275 0.010794
v -0.003042 -0.049480 0.002945
v -0.011172 -0.027894 0.001262
v -0.012855 -0.021167 0.002944
v -0.012855 -0.031531 0.007990
v -0.013416 -0.008275 0.006869
v -0.012014 -0.049766 0.004907
v -0.006126 -0.049766 0.000701
v -0.013416 -0.009676 0.004627
v -0.009770 0.008827 0.002384
v -0.003603 -0.006033 0.009112
v -0.003042 -0.005753 0.004908
v -0.010611 -0.007434 0.001262
v -0.010050 -0.028454 0.011075
v -0.003603 0.012477 0.007429
v -0.010050 -0.049766 0.001262
v -0.006687 -0.006313 0.001262
v -0.003323 -0.004912 0.003505
v -0.006126 -0.007715 0.010794
v -0.009210 0.008267 0.009392
v -0.012855 -0.035747 0.006587
v -0.004725 -0.047798 0.001262
v -0.005846 -0.046958 0.011355
v -0.010892 -0.048639 0.010233
v -0.007529 -0.034059 0.000701
v -0.012855 -0.007434 0.009111
v -0.011453 -0.024530 0.010514
v -0.012293 0.008827 0.003505
v -0.012855 -0.006594 0.002944
v -0.012014 -0.035187 0.009672
v -0.012293 -0.033779 0.002665
v -0.011733 0.008267 0.009391
v -0.003042 -0.004632 0.006868
v -0.011453 0.012477 0.007430
f 126 89 128 
f 70 69 76 
f 69 70 77 
f 71 68 80 
f 69 77 82 
f 66 67 83 
f 70 76 83 
f 80 68 84 
f 68 81 84 
f 75 71 87 
f 76 69 90 
f 76 74 91 
f 83 76 91 
f 74 85 91 
f 80 84 94 
f 69 82 96 
f 92 78 98 
f 73 97 98 
f 94 84 100 
f 78 99 100 
f 99 86 100 
f 77 70 101 
f 75 82 102 
f 82 77 102 
f 98 78 103 
f 78 100 103 
f 100 84 103 
f 68 71 104 
f 71 75 104 
f 81 68 104 
f 74 76 105 
f 80 74 105 
f 76 90 105 
f 90 80 105 
f 73 81 107 
f 88 65 107 
f 65 97 107 
f 97 73 107 
f 83 67 108 
f 67 95 108 
f 95 79 108 
f 74 80 109 
f 85 74 109 
f 80 94 109 
f 97 65 110 
f 65 102 110 
f 102 77 110 
f 75 102 111 
f 104 75 111 
f 81 104 111 
f 107 81 111 
f 88 107 111 
f 87 71 112 
f 69 96 112 
f 96 87 112 
f 71 106 112 
f 106 69 112 
f 67 66 113 
f 85 89 113 
f 95 67 113 
f 89 95 113 
f 89 85 114 
f 85 109 114 
f 109 89 114 
f 78 92 115 
f 99 78 115 
f 70 99 115 
f 101 70 115 
f 92 101 115 
f 82 75 116 
f 75 87 116 
f 96 82 116 
f 87 96 116 
f 66 83 117 
f 83 91 117 
f 91 85 117 
f 113 66 117 
f 85 113 117 
f 70 83 118 
f 83 93 118 
f 65 88 119 
f 102 65 119 
f 111 102 119 
f 88 111 119 
f 86 79 120 
f 72 94 120 
f 100 86 120 
f 94 100 120 
f 79 86 121 
f 93 83 121 
f 83 108 121 
f 108 79 121 
f 81 73 122 
f 84 81 122 
f 73 98 123 
f 103 84 123 
f 98 103 123 
f 122 73 123 
f 84 122 123 
f 86 99 124 
f 99 70 124 
f 70 118 124 
f 118 93 124 
f 121 86 124 
f 93 121 124 
f 92 98 125 
f 98 97 125 
f 77 101 125 
f 101 92 125 
f 97 110 125 
f 110 77 125 
f 94 72 126 
f 79 95 126 
f 95 89 126 
f 72 120 126 
f 120 79 126 
f 71 80 127 
f 90 69 127 
f 80 90 127 
f 106 71 127 
f 69 106 127 
f 89 109 128 
f 109 94 128 
f 94 126 128 
o convex_2
v 0.015462 -0.076954 0.007429
v 0.003688 -0.012208 0.006027
v 0.003688 -0.012208 0.006588
v 0.012939 -0.002385 0.006867
v 0.011818 -0.071627 0.000421
v 0.008174 -0.069111 0.010793
v 0.012098 -0.006315 0.001823
v 0.010696 -0.004909 0.010794
v 0.006772 -0.069662 0.002384
v 0.005651 -0.005196 0.001543
v 0.005089 -0.001555 0.009673
v 0.012658 -0.075556 0.011075
v 0.015181 -0.074989 0.002664
v 0.010415 -0.081722 0.005188
v 0.006211 -0.067426 0.008269
v 0.014060 -0.049193 0.009952
v 0.015181 -0.046678 0.005188
v 0.007052 -0.018374 0.011075
v 0.004809 -0.000421 0.003226
v 0.004809 -0.023142 0.009673
v 0.009854 -0.074997 0.000701
v 0.008174 -0.078639 0.007989
v 0.004249 -0.022016 0.003505
v 0.013219 -0.006315 0.008551
v 0.009015 -0.023693 0.000701
v 0.011537 -0.000421 0.002944
v 0.013219 -0.005468 0.003786
v 0.011537 -0.000421 0.009392
v 0.005931 -0.067139 0.004627
v 0.013780 -0.077233 0.001262
v 0.005931 -0.022862 0.001262
v 0.011256 -0.043315 0.011355
v 0.012939 -0.045560 0.000981
v 0.015462 -0.074430 0.008270
v 0.011537 -0.079198 0.010232
v 0.008454 -0.078080 0.002664
v 0.009295 -0.066588 0.000421
v 0.014340 -0.045839 0.002385
v 0.010135 -0.069383 0.011355
v 0.014340 -0.080037 0.004907
v 0.003688 -0.004917 0.007710
v 0.004249 -0.007153 0.002664
v 0.005370 -0.007433 0.010514
v 0.012098 -0.005755 0.010232
v 0.014902 -0.045839 0.007989
v 0.010415 -0.006874 0.001262
v 0.004249 -0.028181 0.007429
v 0.013500 -0.005468 0.006588
v 0.011537 -0.048634 0.000421
v 0.011256 -0.079765 0.001823
v 0.015742 -0.073033 0.005468
v 0.007052 -0.063497 0.001543
v 0.007052 -0.075556 0.004907
v 0.012939 -0.044993 0.010794
v 0.014060 -0.076115 0.010232
v 0.009015 -0.076115 0.010514
v 0.004529 -0.000421 0.008270
v 0.013219 -0.080324 0.008551
v 0.006772 -0.068544 0.009392
v 0.014902 -0.047237 0.003505
v 0.007052 -0.013886 0.000982
v 0.009295 -0.009397 0.011075
v 0.005089 -0.026225 0.002103
v 0.003688 -0.005196 0.004627
f 169 185 192 
f 138 147 154 
f 154 132 155 
f 135 154 155 
f 139 136 156 
f 152 132 156 
f 132 154 156 
f 154 147 156 
f 151 137 157 
f 130 151 157 
f 149 133 158 
f 158 133 161 
f 141 158 161 
f 150 142 163 
f 137 149 164 
f 142 150 164 
f 133 149 165 
f 135 155 166 
f 161 135 166 
f 141 161 166 
f 146 134 167 
f 140 160 167 
f 160 146 167 
f 141 129 168 
f 158 141 168 
f 130 131 169 
f 147 138 170 
f 138 159 170 
f 136 139 171 
f 134 146 171 
f 148 134 171 
f 139 169 171 
f 169 148 171 
f 144 152 172 
f 156 136 172 
f 152 156 172 
f 152 144 173 
f 144 162 173 
f 154 135 174 
f 138 154 174 
f 131 130 175 
f 143 148 175 
f 130 157 175 
f 157 143 175 
f 169 131 175 
f 148 169 175 
f 132 152 176 
f 145 155 176 
f 155 132 176 
f 152 173 176 
f 173 145 176 
f 135 161 177 
f 161 133 177 
f 133 165 177 
f 165 153 177 
f 153 174 177 
f 174 135 177 
f 149 158 178 
f 164 149 178 
f 142 164 178 
f 158 168 178 
f 168 142 178 
f 129 141 179 
f 162 129 179 
f 145 173 179 
f 173 162 179 
f 149 137 180 
f 165 149 180 
f 159 165 180 
f 150 143 181 
f 143 157 181 
f 157 137 181 
f 137 164 181 
f 164 150 181 
f 160 140 182 
f 136 160 182 
f 144 172 182 
f 172 136 182 
f 129 162 183 
f 162 144 183 
f 140 163 183 
f 182 140 183 
f 144 182 183 
f 163 140 184 
f 150 163 184 
f 167 134 184 
f 140 167 184 
f 139 156 185 
f 156 147 185 
f 169 139 185 
f 163 142 186 
f 168 129 186 
f 142 168 186 
f 129 183 186 
f 183 163 186 
f 148 143 187 
f 134 148 187 
f 143 150 187 
f 184 134 187 
f 150 184 187 
f 155 145 188 
f 141 166 188 
f 166 155 188 
f 179 141 188 
f 145 179 188 
f 159 138 189 
f 153 165 189 
f 165 159 189 
f 138 174 189 
f 174 153 189 
f 160 136 190 
f 146 160 190 
f 136 171 190 
f 171 146 190 
f 137 151 191 
f 151 170 191 
f 170 159 191 
f 180 137 191 
f 159 180 191 
f 151 130 192 
f 130 169 192 
f 147 170 192 
f 170 151 192 
f 185 147 192 
o convex_3
v -0.008090 0.055092 0.006308
v -0.013416 0.033230 0.005468
v -0.013416 0.033230 0.006028
v -0.005286 0.012477 0.007430
v -0.005286 0.048918 0.004066
v -0.012013 0.012481 0.004346
v -0.005286 0.056774 0.007710
v -0.012574 0.013320 0.007149
v -0.005286 0.012477 0.004626
v -0.013135 0.043872 0.004346
v -0.012293 0.044995 0.007429
v -0.005566 0.058176 0.004346
v -0.011172 0.012481 0.007429
v -0.012574 0.042474 0.004065
v -0.013416 0.043592 0.006588
v -0.007809 0.033230 0.004065
v -0.005566 0.030704 0.007710
v -0.011452 0.049202 0.004907
v -0.012854 0.016968 0.004907
v -0.005566 0.059015 0.007149
v -0.006967 0.014163 0.004346
v -0.012293 0.047236 0.006869
v -0.013416 0.036864 0.004346
v -0.012854 0.012761 0.006588
v -0.005286 0.059299 0.004907
v -0.013416 0.039110 0.006869
v -0.010892 0.047800 0.004065
v -0.012293 0.032950 0.004065
v -0.011172 0.048359 0.007429
v -0.012293 0.033230 0.007429
v -0.005566 0.059299 0.004907
v -0.012293 0.047236 0.004626
v -0.012574 0.013040 0.004626
v -0.013135 0.043317 0.007149
v -0.013416 0.043592 0.004626
f 207 224 227 
f 196 197 199 
f 197 196 201 
f 196 198 201 
f 198 196 205 
f 194 195 207 
f 196 199 209 
f 199 203 209 
f 205 196 209 
f 197 201 213 
f 201 198 213 
f 208 197 213 
f 198 208 213 
f 193 210 214 
f 212 193 214 
f 202 206 215 
f 194 207 215 
f 211 194 215 
f 195 194 216 
f 198 205 216 
f 205 200 216 
f 194 211 216 
f 199 197 217 
f 197 204 217 
f 212 199 217 
f 207 195 218 
f 195 216 218 
f 216 200 218 
f 204 197 219 
f 206 202 219 
f 197 208 219 
f 208 206 219 
f 208 198 220 
f 206 208 220 
f 198 215 220 
f 215 206 220 
f 203 199 221 
f 199 212 221 
f 214 203 221 
f 212 214 221 
f 200 205 222 
f 209 203 222 
f 205 209 222 
f 210 193 223 
f 193 212 223 
f 217 204 223 
f 212 217 223 
f 207 214 224 
f 214 210 224 
f 204 219 224 
f 219 202 224 
f 210 223 224 
f 223 204 224 
f 215 198 225 
f 211 215 225 
f 198 216 225 
f 216 211 225 
f 214 207 226 
f 203 214 226 
f 218 200 226 
f 207 218 226 
f 200 222 226 
f 222 203 226 
f 202 215 227 
f 215 207 227 
f 224 202 227 
o convex_4
v 0.012098 0.003508 0.005186
v 0.003126 0.016680 0.003225
v 0.003126 0.016680 0.004346
v 0.004530 -0.000421 0.004346
v 0.010977 -0.000421 0.002664
v 0.010695 0.018084 0.002944
v 0.004809 0.009109 0.006028
v 0.010136 0.018084 0.004906
v 0.012098 -0.000421 0.006028
v 0.005369 -0.000421 0.002664
v 0.004530 -0.000421 0.006028
v 0.003688 0.018084 0.002664
v 0.003126 0.018084 0.004626
v 0.012098 0.003787 0.006028
v 0.011816 0.000424 0.003225
v 0.010136 0.018084 0.002664
v 0.010977 0.018084 0.004626
v 0.004248 0.000704 0.006028
v 0.004809 0.018084 0.004906
v 0.010977 0.018084 0.003505
v 0.003969 0.008274 0.006028
v 0.003126 0.017242 0.002944
v 0.011537 0.004907 0.006028
v 0.012098 -0.000421 0.004066
f 242 247 251 
f 231 232 236 
f 232 231 237 
f 231 236 238 
f 236 234 238 
f 235 233 239 
f 232 237 239 
f 229 230 240 
f 235 239 240 
f 236 228 241 
f 234 236 241 
f 232 233 242 
f 233 232 243 
f 232 239 243 
f 239 233 243 
f 233 235 244 
f 235 241 244 
f 230 229 245 
f 229 231 245 
f 231 238 245 
f 238 234 245 
f 240 230 245 
f 234 235 246 
f 235 240 246 
f 241 228 247 
f 242 233 247 
f 233 244 247 
f 244 241 247 
f 245 234 248 
f 240 245 248 
f 234 246 248 
f 246 240 248 
f 231 229 249 
f 237 231 249 
f 239 237 249 
f 229 240 249 
f 240 239 249 
f 235 234 250 
f 234 241 250 
f 241 235 250 
f 228 236 251 
f 236 232 251 
f 232 242 251 
f 247 228 251 
o convex_5
v 0.011537 0.000704 0.009392
v 0.002846 0.016680 0.007430
v 0.002846 0.016680 0.008270
v 0.010976 0.017803 0.008270
v 0.012098 -0.000421 0.006028
v 0.004529 -0.000421 0.008270
v 0.004529 0.018084 0.009673
v 0.004248 0.000424 0.006028
v 0.005089 0.009109 0.006028
v 0.006211 -0.000421 0.009673
v 0.010415 0.018084 0.009673
v 0.010696 0.018084 0.007711
v 0.012098 0.003787 0.006028
v 0.010976 -0.000421 0.009673
v 0.002846 0.018084 0.007430
v 0.003408 0.016961 0.009392
v 0.011537 0.007711 0.009112
v 0.004810 -0.000140 0.009112
v 0.004529 -0.000421 0.006028
v 0.012098 -0.000421 0.007990
v 0.003968 0.008555 0.006028
v 0.007611 0.018084 0.007430
v 0.011537 0.004907 0.006028
v 0.002846 0.017242 0.008831
v 0.011257 0.014157 0.008831
v 0.010696 0.016961 0.009673
f 268 276 277 
f 254 253 259 
f 257 254 259 
f 256 259 260 
f 257 256 261 
f 258 261 262 
f 262 255 263 
f 258 262 263 
f 256 260 264 
f 263 255 264 
f 261 256 265 
f 262 261 265 
f 253 254 266 
f 258 263 266 
f 261 258 267 
f 257 261 269 
f 261 267 269 
f 256 257 270 
f 259 256 270 
f 257 259 270 
f 256 264 271 
f 252 265 271 
f 265 256 271 
f 268 252 271 
f 259 253 272 
f 260 259 272 
f 253 266 272 
f 266 260 272 
f 260 266 273 
f 266 263 273 
f 264 260 274 
f 263 264 274 
f 260 273 274 
f 273 263 274 
f 254 257 275 
f 266 254 275 
f 258 266 275 
f 267 258 275 
f 257 269 275 
f 269 267 275 
f 264 255 276 
f 271 264 276 
f 268 271 276 
f 255 262 277 
f 265 252 277 
f 262 265 277 
f 252 268 277 
f 276 255 277 
o convex_6
v 0.010977 0.019767 0.004345
v -0.001920 0.026776 0.004626
v 0.002848 0.018647 0.002944
v 0.008173 0.046682 0.002103
v 0.008453 0.046682 0.004906
v -0.001359 0.046682 0.001822
v -0.001359 0.046400 0.004907
v 0.010135 0.018084 0.002664
v 0.005088 0.018084 0.004907
v -0.000797 0.032106 0.001822
v 0.005928 0.030706 0.001822
v 0.010135 0.018084 0.004906
v 0.009014 0.046682 0.002664
v 0.004248 0.020049 0.002384
v -0.001920 0.039953 0.002103
v -0.001920 0.026776 0.004907
v -0.001920 0.046682 0.004346
v 0.002848 0.018084 0.004346
v 0.009014 0.046682 0.004626
v 0.010695 0.019207 0.002944
v 0.008734 0.033780 0.002103
v 0.003407 0.018084 0.002664
v 0.010415 0.022571 0.004906
v 0.001165 0.046682 0.001822
v -0.001639 0.034346 0.002103
v 0.010977 0.018084 0.003505
v -0.001920 0.046682 0.002664
v 0.002566 0.029861 0.001822
v -0.001920 0.045000 0.004907
f 284 294 306 
f 282 281 283 
f 282 284 286 
f 280 279 287 
f 287 283 288 
f 286 285 289 
f 281 282 290 
f 288 285 291 
f 283 287 292 
f 286 284 293 
f 292 279 293 
f 292 293 294 
f 282 283 294 
f 284 282 294 
f 279 280 295 
f 285 286 295 
f 293 279 295 
f 286 293 295 
f 278 290 296 
f 290 282 296 
f 281 290 297 
f 285 288 298 
f 288 281 298 
f 297 285 298 
f 281 297 298 
f 280 287 299 
f 291 285 299 
f 287 291 299 
f 295 280 299 
f 285 295 299 
f 282 286 300 
f 289 278 300 
f 286 289 300 
f 278 296 300 
f 296 282 300 
f 283 281 301 
f 281 288 301 
f 288 283 301 
f 287 279 302 
f 279 292 302 
f 292 287 302 
f 278 289 303 
f 289 285 303 
f 290 278 303 
f 285 297 303 
f 297 290 303 
f 283 292 304 
f 292 294 304 
f 294 283 304 
f 287 288 305 
f 291 287 305 
f 288 291 305 
f 293 284 306 
f 294 293 306 
o convex_7
v -0.007247 0.065187 0.004907
v -0.012293 0.071074 0.004627
v -0.012013 0.070794 0.004346
v -0.007247 0.071355 0.007430
v -0.007247 0.071355 0.004346
v -0.007528 0.065468 0.007430
v -0.012013 0.071355 0.007149
v -0.009771 0.067430 0.006588
v -0.007247 0.065748 0.004346
v -0.007528 0.064907 0.005748
v -0.012013 0.070514 0.006869
v -0.009771 0.067710 0.004627
f 316 314 318 
f 310 307 311 
f 309 308 311 
f 307 310 312 
f 312 310 313 
f 310 311 313 
f 311 308 313 
f 311 307 315 
f 309 311 315 
f 307 312 316 
f 312 314 316 
f 312 313 317 
f 313 308 317 
f 308 314 317 
f 314 312 317 
f 308 309 318 
f 314 308 318 
f 315 307 318 
f 309 315 318 
f 307 316 318 
o convex_8
v -0.005565 0.063225 0.001822
v -0.001920 0.068270 0.009953
v -0.001920 0.069391 0.009392
v -0.007247 0.071355 0.007429
v -0.004723 0.060701 0.009953
v -0.001920 0.067148 0.001822
v -0.001920 0.060421 0.001822
v -0.001920 0.060421 0.009953
v -0.007247 0.071355 0.004346
v -0.001920 0.071355 0.004346
v -0.007247 0.064628 0.007429
v -0.005004 0.060421 0.003226
v -0.006126 0.064628 0.009672
v -0.007247 0.065188 0.004346
v -0.001920 0.071355 0.007710
v -0.002481 0.068551 0.002103
v -0.005004 0.060421 0.009392
v -0.005565 0.065749 0.002103
v -0.004723 0.060701 0.001822
v -0.005285 0.065188 0.009953
v -0.006406 0.064348 0.002664
v -0.006406 0.064348 0.009392
f 329 335 340 
f 320 321 322 
f 321 320 324 
f 319 324 325 
f 324 320 325 
f 325 320 326 
f 320 323 326 
f 321 324 328 
f 327 322 328 
f 322 327 329 
f 325 326 330 
f 329 327 332 
f 330 329 332 
f 322 321 333 
f 321 328 333 
f 328 322 333 
f 328 324 334 
f 327 328 334 
f 326 323 335 
f 330 326 335 
f 329 330 335 
f 324 319 336 
f 334 324 336 
f 327 334 336 
f 319 325 337 
f 325 330 337 
f 330 332 337 
f 320 322 338 
f 323 320 338 
f 322 331 338 
f 331 323 338 
f 332 327 339 
f 336 319 339 
f 327 336 339 
f 319 337 339 
f 337 332 339 
f 322 329 340 
f 331 322 340 
f 323 331 340 
f 335 323 340 
o convex_9
v -0.013975 0.074159 0.006308
v -0.010613 0.082850 0.006027
v -0.010613 0.082850 0.003505
v -0.001920 0.071355 0.004347
v -0.001920 0.075840 0.008271
v -0.014536 0.082850 0.007709
v -0.014534 0.075840 0.004347
v -0.012012 0.071355 0.007149
v -0.001920 0.076402 0.003786
v -0.012293 0.071355 0.004347
v -0.013975 0.082850 0.003225
v -0.001920 0.071355 0.007709
v -0.007529 0.074159 0.003506
v -0.008370 0.074159 0.007990
v -0.010891 0.082850 0.007990
v -0.015659 0.082009 0.004907
v -0.002203 0.076962 0.007149
v -0.015098 0.078364 0.006869
v -0.012574 0.079486 0.007990
v -0.011732 0.078364 0.003225
v -0.003043 0.073879 0.008271
v -0.015659 0.082850 0.006588
v -0.002203 0.076962 0.004066
v -0.013695 0.074721 0.007149
v -0.005566 0.076122 0.008271
v -0.015098 0.077242 0.006027
v -0.001920 0.074721 0.003786
v -0.015376 0.080327 0.004347
v -0.002482 0.076682 0.008271
f 355 365 369 
f 342 343 346 
f 345 344 349 
f 341 347 350 
f 344 348 350 
f 348 341 350 
f 346 343 351 
f 343 349 351 
f 350 347 351 
f 344 345 352 
f 348 344 352 
f 344 350 353 
f 342 346 355 
f 343 342 357 
f 345 349 357 
f 342 355 357 
f 348 354 359 
f 355 346 359 
f 351 349 360 
f 350 351 360 
f 353 350 360 
f 352 345 361 
f 348 352 361 
f 354 348 361 
f 346 351 362 
f 351 356 362 
f 358 346 362 
f 349 343 363 
f 343 357 363 
f 357 349 363 
f 341 348 364 
f 358 341 364 
f 346 358 364 
f 359 346 364 
f 348 359 364 
f 359 354 365 
f 355 359 365 
f 361 345 365 
f 354 361 365 
f 347 341 366 
f 341 358 366 
f 362 356 366 
f 358 362 366 
f 349 344 367 
f 344 353 367 
f 360 349 367 
f 353 360 367 
f 351 347 368 
f 356 351 368 
f 347 366 368 
f 366 356 368 
f 345 357 369 
f 357 355 369 
f 365 345 369 
o convex_10
v -0.001079 0.046682 0.004907
v -0.001920 0.024252 0.005467
v -0.001920 0.024252 0.006308
v 0.007612 0.046120 0.005748
v -0.001920 0.045560 0.007149
v 0.007612 0.046682 0.007149
v 0.000323 0.027899 0.007149
v 0.007332 0.046682 0.004907
v -0.001920 0.025095 0.004907
v -0.001920 0.045279 0.004907
v -0.001920 0.025655 0.007149
v -0.001360 0.046682 0.007149
v -0.001639 0.024533 0.005187
v 0.007612 0.046401 0.005187
v 0.007612 0.046120 0.007149
f 375 376 384 
f 371 372 374 
f 375 374 376 
f 370 375 377 
f 371 374 378 
f 370 377 378 
f 370 378 379 
f 378 374 379 
f 374 372 380 
f 372 376 380 
f 376 374 380 
f 374 375 381 
f 375 370 381 
f 370 379 381 
f 379 374 381 
f 372 371 382 
f 376 372 382 
f 371 378 382 
f 378 377 382 
f 375 373 383 
f 373 376 383 
f 377 375 383 
f 376 382 383 
f 382 377 383 
f 373 375 384 
f 376 373 384 
o convex_11
v 0.004248 0.039673 0.010794
v -0.001919 0.029861 0.007150
v 0.001164 0.024534 0.007150
v 0.007612 0.046682 0.007150
v 0.010415 0.018084 0.009673
v -0.001919 0.042755 0.009953
v 0.003126 0.018367 0.009392
v 0.008453 0.046682 0.010234
v 0.010697 0.018084 0.007710
v -0.001919 0.046682 0.007150
v -0.001078 0.031826 0.009953
v -0.001078 0.046682 0.010233
v 0.002567 0.018084 0.007430
v 0.008733 0.046682 0.007991
v 0.002006 0.038270 0.010794
v 0.004527 0.018084 0.009672
v 0.010697 0.021169 0.009112
v 0.007892 0.046682 0.010514
v 0.007331 0.018084 0.007430
v 0.007892 0.034346 0.010514
v -0.001919 0.034060 0.009672
v 0.002847 0.018084 0.009111
v 0.008733 0.046682 0.009953
v 0.000044 0.031546 0.010233
v 0.010415 0.024534 0.007710
v -0.001359 0.042475 0.010233
v 0.003687 0.037705 0.010794
v -0.001919 0.046682 0.009672
v -0.001919 0.029861 0.007430
v 0.002287 0.039953 0.010794
v 0.010697 0.021732 0.008272
v 0.002006 0.024814 0.007150
f 388 403 416 
f 387 386 388 
f 388 386 394 
f 386 390 394 
f 392 388 394 
f 392 394 396 
f 386 387 397 
f 393 389 397 
f 388 392 398 
f 397 389 400 
f 389 393 401 
f 389 392 402 
f 392 396 402 
f 388 393 403 
f 397 387 403 
f 393 397 403 
f 402 385 404 
f 389 402 404 
f 390 386 405 
f 391 395 406 
f 400 391 406 
f 397 400 406 
f 392 389 407 
f 398 392 407 
f 389 401 407 
f 395 391 408 
f 391 400 408 
f 400 399 408 
f 393 388 409 
f 388 398 409 
f 396 390 410 
f 399 396 410 
f 390 405 410 
f 405 395 410 
f 395 408 410 
f 408 399 410 
f 385 399 411 
f 400 389 411 
f 399 400 411 
f 404 385 411 
f 389 404 411 
f 394 390 412 
f 390 396 412 
f 396 394 412 
f 386 397 413 
f 405 386 413 
f 395 405 413 
f 406 395 413 
f 397 406 413 
f 399 385 414 
f 396 399 414 
f 385 402 414 
f 402 396 414 
f 401 393 415 
f 398 407 415 
f 407 401 415 
f 393 409 415 
f 409 398 415 
f 387 388 416 
f 403 387 416 
o convex_12
v 0.014341 0.061542 0.007710
v -0.001920 0.046682 0.007150
v -0.001920 0.046682 0.009673
v -0.001920 0.073037 0.004627
v 0.000324 0.070233 0.010233
v 0.008734 0.046682 0.004626
v 0.013499 0.073037 0.004907
v 0.007891 0.046682 0.010513
v 0.013779 0.073037 0.007710
v -0.001078 0.046682 0.004627
v 0.010695 0.060420 0.010513
v -0.001920 0.073037 0.007709
v 0.013779 0.058459 0.005187
v -0.001639 0.054535 0.010233
v 0.008734 0.046963 0.010233
v 0.012377 0.060977 0.004626
v -0.001920 0.068549 0.009953
v 0.008734 0.064062 0.010513
v 0.011256 0.056220 0.010513
v 0.013219 0.056498 0.007430
v -0.001920 0.049208 0.004627
v 0.014341 0.072194 0.005468
v -0.001078 0.046682 0.010233
v 0.007331 0.073037 0.004626
v 0.014060 0.060420 0.004907
v 0.006211 0.064903 0.010513
v 0.000604 0.071072 0.009953
v 0.009014 0.046963 0.009392
v 0.005932 0.046963 0.010513
v 0.014341 0.073037 0.007150
v 0.014341 0.060138 0.006029
v 0.001446 0.069949 0.010233
v 0.013779 0.058459 0.007710
v -0.001078 0.067148 0.010233
v 0.013219 0.056498 0.005748
v 0.014060 0.063502 0.007990
v 0.011537 0.066307 0.004626
f 432 440 453 
f 418 419 420 
f 419 418 422 
f 419 422 424 
f 423 420 425 
f 422 418 426 
f 420 419 428 
f 425 420 428 
f 428 419 433 
f 421 428 433 
f 419 430 433 
f 424 427 434 
f 427 425 434 
f 427 424 435 
f 425 427 435 
f 424 431 435 
f 418 420 437 
f 426 418 437 
f 422 426 437 
f 419 424 439 
f 430 419 439 
f 420 423 440 
f 432 422 440 
f 437 420 440 
f 422 437 440 
f 429 422 441 
f 422 432 441 
f 432 423 441 
f 423 438 441 
f 424 434 442 
f 428 421 443 
f 425 428 443 
f 424 422 444 
f 431 424 444 
f 436 431 444 
f 439 424 445 
f 430 439 445 
f 442 430 445 
f 424 442 445 
f 423 425 446 
f 438 423 446 
f 417 438 446 
f 438 417 447 
f 429 441 447 
f 441 438 447 
f 434 425 448 
f 421 442 448 
f 442 434 448 
f 443 421 448 
f 425 443 448 
f 417 435 449 
f 435 431 449 
f 431 436 449 
f 436 447 449 
f 447 417 449 
f 421 433 450 
f 433 430 450 
f 442 421 450 
f 430 442 450 
f 422 429 451 
f 444 422 451 
f 436 444 451 
f 429 447 451 
f 447 436 451 
f 435 417 452 
f 425 435 452 
f 446 425 452 
f 417 446 452 
f 423 432 453 
f 440 423 453 
o convex_13
v -0.001920 0.084532 0.003505
v -0.000518 0.083131 0.008271
v -0.001920 0.083131 0.008271
v -0.001920 0.073037 0.004627
v 0.000883 0.087335 0.004346
v 0.000603 0.073037 0.007149
v 0.000603 0.073037 0.004627
v -0.001920 0.088736 0.007149
v 0.000883 0.087614 0.007149
v -0.001920 0.075001 0.008271
v 0.000883 0.077245 0.007710
v -0.001920 0.089019 0.004627
v 0.000322 0.079209 0.003786
v -0.001920 0.075001 0.003786
v -0.001920 0.073037 0.007710
v 0.000883 0.080047 0.004066
v 0.000322 0.079769 0.008271
v 0.000322 0.073037 0.007710
f 470 463 471 
f 456 454 457 
f 459 457 460 
f 454 456 461 
f 456 455 461 
f 461 455 462 
f 455 456 463 
f 456 457 463 
f 459 460 464 
f 458 462 464 
f 458 454 465 
f 454 461 465 
f 462 458 465 
f 461 462 465 
f 454 458 466 
f 466 460 467 
f 457 454 467 
f 460 457 467 
f 454 466 467 
f 457 459 468 
f 463 457 468 
f 464 460 469 
f 458 464 469 
f 466 458 469 
f 460 466 469 
f 462 455 470 
f 455 463 470 
f 464 462 470 
f 464 470 471 
f 459 464 471 
f 468 459 471 
f 463 468 471 
o convex_14
v 0.011537 0.081165 0.005748
v 0.000883 0.076684 0.004907
v 0.000883 0.076684 0.007429
v 0.000883 0.087897 0.005187
v 0.013219 0.073037 0.004907
v 0.012097 0.079769 0.007710
v 0.001164 0.087616 0.007149
v 0.003688 0.073037 0.007710
v 0.013779 0.073037 0.007710
v 0.002006 0.086773 0.004346
v 0.002846 0.073037 0.004627
v 0.012938 0.078648 0.004907
v 0.000883 0.082287 0.007710
v 0.007334 0.084251 0.007429
v 0.000883 0.078925 0.004346
v 0.007892 0.083970 0.004907
v 0.014061 0.076403 0.006588
v 0.009853 0.075843 0.004627
v 0.014341 0.073037 0.005748
v 0.002566 0.073037 0.006869
v 0.000883 0.086495 0.007429
v 0.003969 0.086495 0.006308
v 0.010135 0.082569 0.006588
v 0.009014 0.082287 0.004627
v 0.008732 0.082287 0.007710
v 0.013219 0.078365 0.007429
v 0.000883 0.087055 0.004346
v 0.007334 0.073037 0.004627
v 0.014061 0.075563 0.005187
v 0.002846 0.087055 0.004907
f 493 487 501 
f 473 474 475 
f 479 476 480 
f 477 479 480 
f 476 479 482 
f 475 474 484 
f 479 477 484 
f 474 479 484 
f 473 475 486 
f 482 473 486 
f 472 483 487 
f 483 476 489 
f 486 481 489 
f 480 476 490 
f 488 480 490 
f 474 473 491 
f 479 474 491 
f 473 482 491 
f 482 479 491 
f 478 475 492 
f 475 484 492 
f 485 478 492 
f 475 478 493 
f 478 485 493 
f 487 493 494 
f 477 472 494 
f 485 477 494 
f 472 487 494 
f 493 485 494 
f 481 487 495 
f 487 483 495 
f 483 489 495 
f 489 481 495 
f 484 477 496 
f 477 485 496 
f 492 484 496 
f 485 492 496 
f 472 477 497 
f 477 480 497 
f 483 472 497 
f 480 488 497 
f 488 483 497 
f 475 481 498 
f 486 475 498 
f 481 486 498 
f 476 482 499 
f 482 486 499 
f 489 476 499 
f 486 489 499 
f 476 483 500 
f 483 488 500 
f 490 476 500 
f 488 490 500 
f 481 475 501 
f 487 481 501 
f 475 493 501 
o convex_15
v -0.002481 0.019770 0.005187
v -0.002481 0.042476 0.007710
v -0.002481 0.043034 0.007429
v -0.005285 0.038269 0.004346
v -0.005285 0.012477 0.007429
v -0.005285 0.037145 0.007710
v -0.005285 0.012477 0.004627
v -0.002481 0.042476 0.004346
v -0.003323 0.012761 0.007429
v -0.003603 0.012477 0.004627
v -0.002481 0.030697 0.007710
v -0.002762 0.044720 0.005748
v -0.002481 0.030419 0.004346
v -0.005285 0.038827 0.007149
v -0.002481 0.019770 0.006869
v -0.003042 0.012477 0.006028
v -0.005285 0.029296 0.004346
v -0.003883 0.041630 0.007429
v -0.005285 0.030697 0.007710
f 506 512 520 
f 504 503 502 
f 505 506 507 
f 506 505 508 
f 504 502 509 
f 506 508 511 
f 502 503 512 
f 503 507 512 
f 506 510 512 
f 504 509 513 
f 509 505 513 
f 509 502 514 
f 505 509 514 
f 502 511 514 
f 505 507 515 
f 513 505 515 
f 502 512 516 
f 512 510 516 
f 510 506 517 
f 506 511 517 
f 511 502 517 
f 502 516 517 
f 516 510 517 
f 508 505 518 
f 511 508 518 
f 505 514 518 
f 514 511 518 
f 503 504 519 
f 507 503 519 
f 504 513 519 
f 515 507 519 
f 513 515 519 
f 507 506 520 
f 512 507 520 
o convex_16
v -0.002481 0.039950 0.004066
v -0.001920 0.040793 0.009393
v -0.001920 0.043315 0.009111
v -0.001920 0.023134 0.004907
v -0.002481 0.022571 0.007149
v -0.001920 0.042754 0.003506
v -0.002481 0.044718 0.007149
v -0.002481 0.023692 0.004627
v -0.001920 0.023134 0.006868
v -0.002201 0.035746 0.009393
v -0.002201 0.038830 0.003225
v -0.002201 0.045561 0.008831
v -0.002481 0.044718 0.004627
v -0.001920 0.044998 0.004627
v -0.002481 0.039670 0.007990
v -0.002201 0.020888 0.005468
v -0.001920 0.035746 0.009393
f 522 530 537 
f 523 522 524 
f 523 524 526 
f 521 525 527 
f 525 521 528 
f 524 522 529 
f 526 524 531 
f 528 521 531 
f 524 528 531 
f 522 523 532 
f 530 522 532 
f 521 527 533 
f 531 521 533 
f 526 531 533 
f 527 532 533 
f 533 532 534 
f 523 526 534 
f 532 523 534 
f 526 533 534 
f 527 525 535 
f 525 530 535 
f 532 527 535 
f 530 532 535 
f 525 528 536 
f 528 524 536 
f 524 529 536 
f 529 525 536 
f 529 522 537 
f 525 529 537 
f 530 525 537 
o convex_17
v -0.005285 0.047243 0.004626
v -0.003042 0.060421 0.009953
v -0.003042 0.060421 0.001822
v -0.005285 0.059859 0.004907
v -0.003042 0.050047 0.006868
v -0.005285 0.047804 0.007429
v -0.005004 0.060421 0.009111
v -0.004724 0.060421 0.002103
v -0.003042 0.054811 0.002103
v -0.003042 0.054252 0.009953
v -0.004444 0.058736 0.009953
v -0.004444 0.047525 0.004626
v -0.003042 0.050047 0.004907
v -0.004444 0.047525 0.006868
v -0.003322 0.055653 0.001822
v -0.005285 0.047525 0.004346
v -0.005285 0.059017 0.007429
v -0.004444 0.059578 0.001822
f 553 545 555 
f 540 539 542 
f 541 538 543 
f 539 540 544 
f 544 540 545 
f 541 544 545 
f 540 542 546 
f 542 539 547 
f 539 544 548 
f 544 543 548 
f 547 539 548 
f 543 547 548 
f 549 546 550 
f 546 542 550 
f 542 549 550 
f 543 538 551 
f 542 547 551 
f 547 543 551 
f 549 542 551 
f 538 549 551 
f 540 546 552 
f 552 546 553 
f 538 541 553 
f 541 545 553 
f 549 538 553 
f 546 549 553 
f 541 543 554 
f 544 541 554 
f 543 544 554 
f 545 540 555 
f 540 552 555 
f 552 553 555 
o convex_18
v -0.003042 0.050327 0.004346
v -0.001920 0.060421 0.009953
v -0.001920 0.060421 0.001822
v -0.001920 0.045561 0.008830
v -0.003042 0.060421 0.009953
v -0.003042 0.060421 0.001822
v -0.001920 0.048927 0.003226
v -0.003042 0.053689 0.009953
v -0.003042 0.055091 0.001822
v -0.002201 0.045561 0.007429
v -0.001920 0.050890 0.009953
v -0.003042 0.049767 0.007149
v -0.001920 0.053410 0.001822
v -0.002201 0.045561 0.008830
v -0.002201 0.048927 0.003226
f 564 568 570 
f 558 557 559 
f 557 558 560 
f 556 560 561 
f 560 558 561 
f 558 559 562 
f 560 556 563 
f 557 560 563 
f 556 561 564 
f 561 558 564 
f 562 559 565 
f 559 557 566 
f 557 563 566 
f 563 556 567 
f 556 565 567 
f 558 562 568 
f 564 558 568 
f 565 559 569 
f 559 566 569 
f 566 563 569 
f 563 567 569 
f 567 565 569 
f 556 564 570 
f 562 565 570 
f 565 556 570 
f 568 562 570 
o convex_19
v -0.006406 0.089579 0.004066
v -0.001921 0.082571 0.008271
v -0.002201 0.082571 0.008271
v -0.001921 0.079766 0.003786
v -0.006686 0.083133 0.007990
v -0.001921 0.089018 0.006869
v -0.006686 0.083133 0.003505
v -0.006686 0.089579 0.007149
v -0.001921 0.088737 0.004346
v -0.002201 0.079206 0.007990
v -0.001921 0.084812 0.003505
v -0.006406 0.087336 0.007990
v -0.006686 0.087616 0.003505
v -0.005284 0.090140 0.004907
v -0.006686 0.082852 0.004346
v -0.002201 0.079486 0.004346
v -0.001921 0.088737 0.007149
v -0.006686 0.090140 0.006308
v -0.002201 0.085373 0.007990
f 587 582 589 
f 572 574 576 
f 577 575 578 
f 576 574 579 
f 572 573 580 
f 574 572 580 
f 573 575 580 
f 574 577 581 
f 579 574 581 
f 573 572 582 
f 575 573 582 
f 578 575 582 
f 577 578 583 
f 571 579 583 
f 581 577 583 
f 579 581 583 
f 576 579 584 
f 579 571 584 
f 575 577 585 
f 580 575 585 
f 580 585 586 
f 577 574 586 
f 574 580 586 
f 585 577 586 
f 572 576 587 
f 576 578 587 
f 578 582 587 
f 578 576 588 
f 583 578 588 
f 571 583 588 
f 576 584 588 
f 584 571 588 
f 582 572 589 
f 572 587 589 
o convex_20
v 0.002847 0.055654 0.001542
v 0.005088 0.061822 0.001822
v 0.006210 0.061261 0.001822
v 0.004808 0.060700 -0.000140
v 0.006771 0.056777 0.000421
v 0.001164 0.057617 0.000140
v 0.001445 0.060700 0.001542
v 0.006771 0.057057 0.001822
v 0.001164 0.057338 0.001822
v 0.002006 0.061261 0.000140
v 0.004247 0.055654 0.000140
v 0.007050 0.059579 0.000140
v 0.005369 0.061542 0.000140
v 0.002285 0.056777 -0.000140
v 0.004528 0.055654 0.001822
v 0.005649 0.057897 -0.000140
v 0.007332 0.058738 0.001542
v 0.003407 0.061822 0.001822
v 0.000883 0.059860 0.000981
v 0.001725 0.059860 -0.000140
v 0.002006 0.056216 0.000140
f 603 600 610 
f 592 591 597 
f 597 591 598 
f 591 592 602 
f 593 599 602 
f 592 601 602 
f 601 593 602 
f 594 597 604 
f 598 590 604 
f 597 598 604 
f 600 594 604 
f 590 600 604 
f 594 600 605 
f 593 601 605 
f 601 594 605 
f 603 593 605 
f 600 603 605 
f 592 597 606 
f 597 594 606 
f 601 592 606 
f 594 601 606 
f 598 591 607 
f 596 598 607 
f 599 596 607 
f 591 602 607 
f 602 599 607 
f 595 598 608 
f 598 596 608 
f 596 599 608 
f 608 599 609 
f 599 593 609 
f 603 595 609 
f 593 603 609 
f 595 608 609 
f 590 598 610 
f 598 595 610 
f 600 590 610 
f 595 603 610 
o convex_21
v 0.011256 0.061820 0.003505
v -0.001920 0.046682 0.002664
v -0.001638 0.046682 0.002103
v -0.001920 0.072195 0.004346
v 0.009014 0.046682 0.004626
v -0.001920 0.067147 0.001822
v 0.008171 0.046682 0.002103
v -0.001358 0.046682 0.004626
v 0.006770 0.066307 0.002103
v 0.009575 0.064903 0.004626
v 0.000604 0.072757 0.004626
v 0.011256 0.055376 0.002383
v 0.011818 0.055937 0.004626
v 0.001446 0.071072 0.002383
v 0.006770 0.059023 0.001822
v -0.001358 0.046682 0.001822
v 0.009294 0.064903 0.002664
v -0.001920 0.048645 0.004626
v 0.011256 0.060138 0.002383
v 0.003687 0.070794 0.004346
v 0.009014 0.046682 0.002383
v -0.001920 0.072195 0.004626
v 0.000604 0.070514 0.002103
v 0.011818 0.059857 0.004626
v 0.001166 0.046682 0.001822
v 0.011818 0.056777 0.003224
v -0.001920 0.069390 0.002383
v 0.007051 0.066869 0.002383
v -0.001920 0.053135 0.001822
v 0.006490 0.060978 0.001822
f 629 625 640 
f 612 613 615 
f 612 614 616 
f 615 613 617 
f 612 615 618 
f 620 615 623 
f 614 621 624 
f 622 617 625 
f 617 613 626 
f 616 625 626 
f 620 611 627 
f 614 612 628 
f 612 618 628 
f 618 615 628 
f 622 625 629 
f 627 611 629 
f 619 627 629 
f 621 620 630 
f 624 621 630 
f 620 627 630 
f 615 617 631 
f 617 622 631 
f 623 615 631 
f 615 620 632 
f 620 621 632 
f 621 614 632 
f 614 628 632 
f 628 615 632 
f 619 616 633 
f 614 624 633 
f 624 619 633 
f 611 620 634 
f 620 623 634 
f 629 611 634 
f 625 617 635 
f 617 626 635 
f 626 625 635 
f 622 629 636 
f 631 622 636 
f 623 631 636 
f 634 623 636 
f 629 634 636 
f 616 614 637 
f 614 633 637 
f 633 616 637 
f 619 624 638 
f 627 619 638 
f 624 630 638 
f 630 627 638 
f 613 612 639 
f 612 616 639 
f 626 613 639 
f 616 626 639 
f 616 619 640 
f 625 616 640 
f 619 629 640 
o convex_22
v -0.015659 0.082850 0.004907
v -0.006687 0.090140 0.006308
v -0.006687 0.090140 0.004346
v -0.006687 0.083131 0.003786
v -0.006687 0.083411 0.007991
v -0.014536 0.087616 0.007429
v -0.013976 0.088457 0.003225
v -0.014536 0.082850 0.007710
v -0.013976 0.082850 0.003225
v -0.007248 0.087616 0.007991
v -0.007529 0.086495 0.003225
v -0.013415 0.089299 0.006028
v -0.012292 0.088457 0.007710
v -0.015659 0.085655 0.006308
v -0.011173 0.082850 0.007991
v -0.011173 0.089860 0.004346
v -0.015377 0.085655 0.004066
v -0.008650 0.090140 0.006588
v -0.013415 0.084534 0.007991
v -0.008930 0.088176 0.003225
v -0.006687 0.089579 0.007149
v -0.006687 0.083411 0.003505
v -0.014536 0.088176 0.005187
v -0.015659 0.082850 0.006588
v -0.014816 0.085374 0.007710
v -0.006687 0.083131 0.007710
v -0.010613 0.082850 0.003505
f 644 666 667 
f 643 642 644 
f 644 642 645 
f 648 641 649 
f 649 647 651 
f 652 646 653 
f 648 649 655 
f 645 650 655 
f 643 647 656 
f 647 652 656 
f 647 649 657 
f 649 641 657 
f 641 654 657 
f 642 643 658 
f 652 653 658 
f 643 656 658 
f 656 652 658 
f 650 653 659 
f 648 655 659 
f 655 650 659 
f 647 643 660 
f 643 651 660 
f 651 647 660 
f 645 642 661 
f 650 645 661 
f 653 650 661 
f 642 658 661 
f 658 653 661 
f 643 644 662 
f 651 643 662 
f 649 651 662 
f 646 652 663 
f 652 647 663 
f 654 646 663 
f 647 657 663 
f 657 654 663 
f 641 648 664 
f 654 641 664 
f 654 664 665 
f 653 646 665 
f 646 654 665 
f 648 659 665 
f 659 653 665 
f 664 648 665 
f 644 645 666 
f 645 655 666 
f 666 655 667 
f 655 649 667 
f 662 644 667 
f 649 662 667 
