# https://github.com/mikedh/trimesh
v 0.00000000 0.02779872 0.00632259
v 0.00000000 0.02800246 0.00651615
v 0.00000000 0.02800246 0.00651615
v 0.00000000 0.02800246 0.01036099
v 0.00000000 0.02800246 0.01036099
v 0.00000000 0.04345925 0.00636923
v 0.00000000 0.04345925 0.01031133
v 0.00000000 0.04345925 0.01031133
v 0.00000000 0.04345925 0.00242713
v 0.00000000 0.04345925 0.00242713
v 0.00000000 0.01136499 0.00636923
v 0.00000000 0.01136499 0.00242746
v 0.00000000 0.01136499 0.01031099
v 0.00000000 0.01136499 0.01031099
v 0.00000000 0.02447804 0.00636923
v 0.00000000 0.02447804 0.01031099
v 0.00000000 0.02447804 0.01031099
v 0.00000000 0.04212196 0.00636923
v 0.00000000 0.04212196 0.00636923
v 0.00000000 0.04212196 0.01031133
v 0.00000000 0.04212196 0.01031133
v 0.00000000 0.04212196 0.01031133
v 0.00000000 0.04212196 0.00242713
v 0.00000000 0.04212196 0.00242713
v 0.00000000 0.02779896 0.01055456
v 0.00000000 0.02434892 0.00239543
v 0.00000000 0.02434892 0.00239543
v 0.00000000 0.02487751 0.00636621
v 0.00000000 0.02487751 0.00636621
v 0.00000000 0.02487751 0.00636621
v 0.00000000 0.03880108 0.01055456
v 0.00000000 0.05460390 0.00416356
v 0.00000000 0.05460390 0.00416356
v 0.00000000 0.05460390 0.00416356
v 0.00000000 0.05460390 0.00244476
v 0.00000000 0.05460390 0.00244476
v 0.00000000 0.05460390 0.00244476
v 0.00000000 0.05460390 0.01029369
v 0.00000000 0.05460390 0.01029369
v 0.00000000 0.05460390 0.01029369
v 0.00000000 0.03880120 0.00632259
v 0.00000000 0.04427788 0.01031133
v 0.00000000 0.04427788 0.01031133
v 0.00000000 0.04427788 0.01031133
v 0.00000000 0.04427788 0.00242713
v 0.00000000 0.04427788 0.00242713
v 0.00000000 0.04427788 0.00242713
v 0.00000000 0.04427788 0.00457527
v 0.00000000 0.04427788 0.00457527
v 0.00000000 0.04427788 0.00457527
v 0.00000000 0.06448791 0.00512456
v 0.00000000 0.06448791 0.00944733
v 0.00000000 0.06448791 0.00944733
v 0.00000000 0.06448791 0.00944733
v 0.00000000 0.06448791 0.00329112
v 0.00000000 0.06448791 0.00329112
v 0.00000000 0.06448791 0.00329112
v 0.00000000 0.08929502 0.00707243
v 0.00000000 0.08929502 0.00707243
v 0.00000000 0.08929502 0.00707243
v 0.00000000 0.08929502 0.00635946
v 0.00000000 0.08929502 0.00566602
v 0.00000000 0.08929502 0.00566602
v 0.00000000 0.08929502 0.00566602
v 0.00000000 0.03859758 0.00651615
v 0.00000000 0.03859758 0.00651615
v 0.00000000 0.03859758 0.01036099
v 0.00000000 0.03859758 0.01036099
v 0.00000000 0.04172291 0.00636621
v 0.00000000 0.04172291 0.00636621
v -0.00742977 0.03793332 0.00223054
v -0.00742977 0.03793332 0.00223054
v 0.00827737 0.01136499 0.00636923
v 0.00827737 0.01136499 0.01031133
v 0.00827737 0.01136499 0.01031133
v 0.00827737 0.01136499 0.00242713
v 0.02023916 -0.00563974 0.00636923
v 0.02023916 -0.00563974 0.00636923
v 0.02023916 -0.00563974 0.00636923
v -0.00264876 0.02871221 0.00651615
v -0.00264876 0.02871221 0.00651615
v -0.00264876 0.02871221 0.01036099
v -0.00264876 0.02871221 0.01036099
v 0.00264876 0.03788784 0.00651615
v 0.00264876 0.03788784 0.00651615
v 0.00264876 0.03788784 0.01036099
v 0.00264876 0.03788784 0.01036099
v 0.00264876 0.02871221 0.00651615
v 0.00264876 0.02871221 0.00651615
v 0.00264876 0.02871221 0.00651615
v 0.00264876 0.02871221 0.01036099
v 0.00264876 0.02871221 0.01036099
v 0.00264876 0.02871221 0.01036099
v -0.00455417 0.04132845 0.00223054
v -0.00433432 0.04934429 0.00225004
v -0.00433432 0.04934429 0.00225004
v 0.00426620 0.02586674 0.00636629
v 0.01961840 -0.08613414 0.00169185
v 0.01961840 -0.08613414 0.01104660
v -0.00017842 0.04944089 0.00406195
v -0.00017842 0.04467106 0.00406195
v -0.00017842 0.04467106 0.00406195
v -0.00017842 0.05421073 0.00406195
v -0.00017842 0.05421073 0.00406195
v 0.00709242 -0.00331335 0.00190855
v 0.00709242 -0.00331335 0.00190855
v 0.00709242 -0.00331335 0.00190855
v 0.00709242 -0.00331335 0.01082990
v 0.00709242 -0.00331335 0.01082990
v 0.00978886 -0.08613439 0.00655878
v 0.00978886 -0.08613439 0.00655878
v 0.00978886 -0.08613439 0.00617968
v 0.00978886 -0.08613439 0.00617968
v 0.01457951 0.00026401 0.01079501
v 0.01457951 0.00026401 0.01079501
v 0.01457951 0.00026401 0.01079501
v 0.01457951 0.00026401 0.00194344
v 0.01457951 0.00026401 0.00194344
v 0.01457951 0.00026401 0.00194344
v -0.00390183 0.06142896 0.00983550
v 0.01270324 -0.00448290 0.01240641
v 0.01270324 -0.00448290 0.01240641
v 0.01270324 -0.00448290 0.00033205
v 0.01973834 -0.08575797 0.00152345
v 0.01973834 -0.08575797 0.01121497
v 0.00436495 0.00329704 0.01050957
v 0.00436495 0.00329704 0.01050957
v 0.00436495 0.00329704 0.01050957
v 0.01619600 -0.00008025 0.00636923
v 0.01652709 -0.01105919 0.00001809
v 0.01652709 -0.01105919 0.01272037
v 0.00392695 0.00301371 0.01050067
v 0.00392695 0.00301371 0.01050067
v 0.00392695 0.00301371 0.01050067
v 0.00392695 0.00301375 0.00223779
v 0.00392695 0.00301375 0.00223779
v 0.00425275 0.00261677 0.00187189
v 0.00425275 0.00261677 0.00187189
v 0.00425275 0.00261677 0.01086657
v 0.01687313 -0.01090986 0.00001945
v 0.00725284 -0.00297638 0.01068757
v 0.00725284 -0.00297638 0.01068757
v 0.00725284 -0.00297638 0.00205088
v 0.00725284 -0.00297638 0.00205088
v 0.00725284 -0.00297638 0.00205088
v -0.00725176 0.03773855 0.01050791
v -0.00909530 0.03991662 0.00223054
v 0.03157109 -0.03237792 0.00618526
v 0.03157109 -0.03237792 0.00655315
v 0.02975838 -0.03241670 0.00167828
v 0.02975838 -0.03241670 0.01106014
v 0.00023797 0.00736996 0.00636923
v 0.00550106 0.03330002 0.01055456
v 0.00729427 0.03751138 0.00636621
v 0.00729427 0.03751138 0.00636621
v 0.00729427 0.03751138 0.00636621
v 0.01169290 -0.08275200 0.00167671
v 0.01169290 -0.08275200 0.01106171
v 0.00424194 0.02552910 0.00239452
v 0.00424194 0.02552910 0.00239452
v 0.00424194 0.02552910 0.00239452
v 0.02265876 -0.08409546 0.00618547
v 0.02265876 -0.08409546 0.00618547
v 0.02265876 -0.08409546 0.00655294
v 0.02265876 -0.08409546 0.00655294
v 0.02265876 -0.08409546 0.00655294
v -0.00878295 0.04714727 0.00636923
v -0.00878295 0.04714727 0.00636923
v -0.00878295 0.04714727 0.00289037
v -0.00878295 0.04714727 0.00984808
v 0.01884095 -0.00583497 0.00160655
v 0.01884095 -0.00583497 0.00160655
v 0.01884095 -0.00583497 0.01113186
v 0.01884095 -0.00583497 0.01113186
v -0.00127902 0.08980697 0.00688151
v -0.00127902 0.08980697 0.00585698
v -0.00759631 0.03776318 0.00636923
v -0.00759631 0.03776318 0.00636923
v -0.00759631 0.03776318 0.01031133
v -0.00759631 0.03776318 0.01031133
v -0.00759631 0.03776318 0.00242713
v -0.00759631 0.03776318 0.00242713
v -0.00130286 0.08968401 0.00584701
v -0.00130286 0.08968401 0.00689145
v 0.00514062 -0.00285031 0.00655667
v 0.00514062 -0.00285031 0.00655667
v 0.00514062 -0.00285031 0.00655667
v 0.00514062 -0.00285031 0.00618179
v 0.00514062 -0.00285031 0.00618179
v 0.00514062 -0.00285031 0.00618179
v -0.00476404 0.03054949 0.01055456
v -0.00476404 0.03054949 0.01055456
v -0.00476404 0.03605055 0.01055456
v 0.00223663 0.00385229 0.00655497
v 0.00223663 0.00385229 0.00655497
v 0.00223663 0.00385229 0.00655497
v 0.00223663 0.00385229 0.00618348
v 0.00223663 0.00385229 0.00618348
v 0.01476790 0.00011655 0.01096677
v 0.01476790 0.00011655 0.01096677
v 0.01476790 0.00011655 0.00177169
v 0.01476790 0.00011655 0.00177169
v -0.00729456 0.03751155 0.00636621
v -0.00729456 0.03751155 0.00636621
v -0.00729456 0.03751155 0.00636621
v 0.01658135 -0.08240961 0.01273846
v 0.01658135 -0.08240961 0.01273846
v 0.01658135 -0.08240961 0.00000000
v 0.01658135 -0.08240961 0.00000000
v 0.00373487 0.02683101 0.01050791
v -0.00738461 0.05601979 0.00912199
v 0.01306910 -0.00458455 0.01250864
v 0.01306910 -0.00458455 0.01250864
v 0.01306910 -0.00458455 0.00022982
v 0.01306910 -0.00458455 0.00022982
v 0.01306910 -0.00458455 0.00022982
v -0.00908776 0.03992208 0.01050791
v -0.00908776 0.03992208 0.01050791
v 0.00018988 0.04187451 0.01031133
v 0.00018988 0.04187451 0.01031133
v 0.00018988 0.04187451 0.00656582
v 0.00018988 0.04187451 0.00656582
v -0.00642671 0.05986694 0.00363828
v 0.02045818 -0.00570319 0.00655530
v 0.02045818 -0.00570319 0.00655530
v 0.02045818 -0.00570319 0.00618315
v 0.02045818 -0.00570319 0.00618315
v -0.00245888 0.03793870 0.00651615
v -0.00245888 0.03793870 0.00651615
v -0.00245888 0.03793870 0.01036099
v -0.00245888 0.03793870 0.01036099
v -0.00245888 0.03793870 0.01036099
v -0.00752065 0.03742281 0.01031133
v -0.00752065 0.03742281 0.01031133
v -0.00752065 0.03742281 0.01031133
v -0.00752065 0.03742281 0.00656582
v -0.00752065 0.03742281 0.00656582
v 0.00932545 0.00176556 0.01073430
v 0.00932545 0.00176556 0.00200416
v -0.00016770 0.04473790 0.00424704
v -0.00016770 0.04473790 0.00424704
v -0.00016770 0.05414389 0.00424704
v -0.00016770 0.05414389 0.00424704
v 0.01317939 -0.00484669 0.00002864
v 0.01317939 -0.00484669 0.00002864
v 0.01317939 -0.00484669 0.01270982
v -0.00020933 0.06434823 0.00308175
v 0.00274933 0.02853528 0.00632246
v 0.01503692 0.00010595 0.00202535
v 0.01503692 0.00010595 0.00202535
v 0.01503692 0.00010595 0.01071307
v 0.01503692 0.00010595 0.01071307
v 0.00756212 -0.00300568 0.00180153
v 0.00756212 -0.00300568 0.00180153
v 0.00756212 -0.00300568 0.01093693
v 0.00756212 -0.00300568 0.01093693
v 0.00756212 -0.00300568 0.01093693
v 0.02060990 -0.08392536 0.01130718
v 0.02060990 -0.08392536 0.01130718
v 0.02060990 -0.08392536 0.00143124
v 0.02060990 -0.08392536 0.00143124
v 0.00866040 0.01003921 0.01050791
v 0.02504562 -0.03385775 0.01272563
v 0.02504562 -0.05929543 0.01272559
v 0.02504562 -0.05929543 0.00001283
v -0.00139958 0.09000000 0.00636923
v -0.00139958 0.09000000 0.00636923
v -0.00139958 0.09000000 0.00636923
v -0.00884789 0.04341559 0.01028335
v -0.00021219 0.04434013 0.01050791
v -0.00351784 0.04589346 0.00625434
v -0.00351784 0.05298832 0.00625434
v 0.00429864 0.00295986 0.01064486
v 0.00429864 0.00295986 0.01064486
v 0.00429864 0.00295986 0.00209359
v 0.00429864 0.00295986 0.00209359
v 0.00842276 0.03330002 0.00636621
v 0.00842276 0.03330002 0.00636621
v 0.00842276 0.03330002 0.00636621
v -0.00746979 0.02898735 0.01031133
v -0.00746979 0.02898735 0.01031133
v -0.00746979 0.02898735 0.00656582
v 0.00729439 0.02908862 0.00636621
v 0.00729439 0.02908862 0.00636621
v 0.00758215 0.02890888 0.00239456
v -0.00729422 0.02908870 0.00636621
v -0.00729422 0.02908870 0.00636621
v -0.00729422 0.02908870 0.00636621
v 0.00857449 0.03311014 0.01031133
v 0.00857449 0.03311014 0.01031133
v 0.00857449 0.03311014 0.00657173
v 0.00857449 0.03348990 0.01031133
v 0.00857449 0.03348990 0.01031133
v 0.00857449 0.03348990 0.01031133
v 0.00857449 0.03348990 0.00656582
v 0.00857449 0.03348990 0.00656582
v -0.00550102 0.03330002 0.00632259
v 0.00443183 0.02533574 0.00219855
v 0.00443183 0.02533574 0.00219855
v 0.00806857 0.01136499 0.00223054
v 0.00806857 0.01136499 0.00223054
v 0.00806857 0.01136499 0.00223054
v 0.00435501 0.00329965 0.00222897
v 0.00435501 0.00329965 0.00222897
v 0.00435501 0.00329965 0.00222897
v 0.00435501 0.00329965 0.00222897
v -0.00738428 0.05601987 0.00358654
v 0.01480436 0.00018260 0.00228042
v 0.01480436 0.00018260 0.00228042
v 0.01480436 0.00018260 0.01045804
v 0.01480436 0.00018260 0.01045804
v 0.01307377 -0.08975785 0.00618241
v 0.01307377 -0.08975785 0.00618241
v 0.01307377 -0.08975785 0.00655601
v 0.00844110 0.03330002 0.01051069
v 0.00020876 0.01136499 0.00223054
v 0.00020876 0.01136499 0.00223054
v 0.00020876 0.01136499 0.00223054
v -0.00431267 0.02583023 0.01031133
v -0.00431267 0.02583023 0.01031133
v -0.00431267 0.02583023 0.00656582
v 0.01823260 -0.08992703 0.00636923
v 0.01823260 -0.08992703 0.00636923
v 0.01823260 -0.08992703 0.00636923
v 0.01855840 -0.00584531 0.01137795
v 0.01855840 -0.00584531 0.01137795
v 0.01855840 -0.00584531 0.00136047
v 0.01855840 -0.00584531 0.00136047
v -0.00462618 0.04097120 0.00617264
v -0.00462618 0.04097120 0.00242713
v -0.00462618 0.04097120 0.00242713
v -0.00462618 0.04097120 0.00242713
v -0.00347397 0.06217000 0.00289526
v -0.00734741 0.05952757 0.00655903
v -0.00842280 0.03330002 0.00636621
v -0.00842280 0.03330002 0.00636621
v -0.00842280 0.03330002 0.00636621
v -0.00058248 0.08997409 0.00636923
v -0.00058248 0.08997409 0.00698026
v -0.00058248 0.08997409 0.00698026
v -0.00058248 0.08997409 0.00575819
v -0.00058248 0.08997409 0.00575819
v 0.00934507 0.00160237 0.00067970
v 0.00934507 0.00160237 0.00067970
v 0.00934507 0.00160237 0.00067970
v 0.00934507 0.00160237 0.00067970
v 0.00934507 0.00160237 0.01205876
v 0.00934507 0.00160237 0.01205876
v 0.00934507 0.00160237 0.01205876
v -0.00421128 0.02600588 0.00636621
v -0.00421128 0.02600588 0.00636621
v -0.00421128 0.02600588 0.00636621
v -0.00439404 0.04093755 0.00636641
v 0.00725424 0.02886294 0.01050791
v 0.00216068 0.00356924 0.00618427
v 0.00216068 0.00356924 0.00618427
v 0.00216068 0.00356924 0.00655419
v 0.00216068 0.00356924 0.00655419
v -0.00369572 0.05295451 0.01031133
v -0.00369572 0.05295451 0.01031133
v -0.00369572 0.05295451 0.01031133
v -0.00369572 0.05295451 0.00656582
v -0.00369572 0.04592727 0.01031133
v -0.00369572 0.04592727 0.01031133
v -0.00369572 0.04592727 0.01031133
v -0.00463868 0.03084115 0.00651615
v -0.00463868 0.03084115 0.00651615
v -0.00463868 0.03084115 0.01036099
v -0.00463868 0.03084115 0.01036099
v -0.00463868 0.03084115 0.01036099
v 0.01809201 -0.03544361 0.00655224
v 0.01809201 -0.03544361 0.00655224
v 0.01809201 -0.03544361 0.00618622
v 0.01809201 -0.05770957 0.00618630
v 0.01809201 -0.05770957 0.00655216
v 0.01809201 -0.05770957 0.00655216
v 0.01648686 -0.08216278 0.01271714
v 0.01648686 -0.08216278 0.01271714
v 0.01648686 -0.08216278 0.00002131
v 0.01648686 -0.08216278 0.00002131
v 0.01648686 -0.08216278 0.00002131
v 0.00417978 0.02563745 0.00617272
v -0.00916201 0.03962526 0.00636923
v -0.00916201 0.03962526 0.01031133
v -0.00916201 0.03962526 0.01031133
v -0.00916201 0.03962526 0.01031133
v -0.00916201 0.03962526 0.00242713
v -0.00916201 0.03962526 0.00242713
v -0.00916201 0.03962526 0.00242713
v 0.00529756 0.03330002 0.00651615
v 0.00529756 0.03330002 0.00651615
v 0.00529756 0.03330002 0.01036099
v 0.00529756 0.03330002 0.01036099
v 0.01995314 -0.03538132 0.01111013
v 0.01995314 -0.03538132 0.00162832
v 0.01995314 -0.05777190 0.00162828
v -0.00043965 0.08976298 0.00722213
v -0.00021281 0.04343616 0.01050791
v 0.01245620 -0.08051790 0.00165667
v 0.01245620 -0.08051790 0.00165667
v 0.01245620 -0.08051790 0.01108178
v 0.01245620 -0.08051790 0.01108178
v -0.00668902 0.05969154 0.00881254
v -0.00017838 0.04944089 0.00422709
v 0.00730966 0.03752028 0.01051069
v -0.00927516 0.03997187 0.00244000
v -0.00927516 0.03997187 0.00244000
v -0.00927516 0.03997187 0.00244000
v -0.00927516 0.03997187 0.01029845
v -0.00927516 0.03997187 0.01029845
v -0.00431139 0.05459856 0.00230997
v -0.00431139 0.05459856 0.00230997
v -0.00431139 0.05459856 0.00230997
v 0.00019150 0.02471271 0.00617272
v 0.00019150 0.02471271 0.00617272
v 0.00019150 0.02471271 0.00617272
v 0.00019150 0.02458995 0.00239452
v 0.00019150 0.02458995 0.00239452
v 0.00019150 0.02458995 0.00239452
v -0.00156993 0.08980569 0.00652149
v -0.00156993 0.08980569 0.00652149
v -0.00156993 0.08980569 0.00621697
v -0.00156993 0.08980569 0.00621697
v 0.00183108 0.00717371 0.00241563
v 0.00506256 -0.00313100 0.00618468
v 0.00506256 -0.00313100 0.00618468
v 0.00506256 -0.00313100 0.00655377
v 0.00506256 -0.00313100 0.00655377
v 0.02950265 -0.03247464 0.01130221
v 0.02950265 -0.03247464 0.00143625
v 0.02266886 -0.00907787 0.00655328
v 0.02266886 -0.00907787 0.00618518
v -0.00719059 0.05590216 0.00936775
v 0.00973497 0.00129036 0.01219877
v 0.00973497 0.00129036 0.01219877
v 0.00973497 0.00129036 0.00053968
v 0.00973497 0.00129036 0.00053968
v -0.00021471 0.04180142 0.01050791
v -0.00021471 0.04180142 0.01050791
v 0.01451503 0.00025316 0.00206247
v 0.01451503 0.00025316 0.00206247
v 0.01451503 0.00025316 0.01067594
v 0.01451503 0.00025316 0.01067594
v 0.00421136 0.04059433 0.00636621
v 0.00421136 0.04059433 0.00636621
v 0.00421136 0.04059433 0.00636621
v -0.00858744 0.04724383 0.00267363
v -0.00458781 0.03594878 0.00651615
v -0.00458781 0.03594878 0.00651615
v -0.00458781 0.03594878 0.01036099
v -0.00458781 0.03594878 0.01036099
v -0.00019352 0.04189077 0.00617264
v -0.00019352 0.04189077 0.00617264
v -0.00019352 0.04189077 0.00617264
v -0.00019352 0.04189077 0.00242713
v -0.00019352 0.04189077 0.00242713
v -0.00019352 0.04189077 0.00242713
v 0.02468096 -0.03396954 0.00001109
v 0.02468096 -0.05918364 0.00001109
v 0.02468096 -0.05918364 0.01272737
v 0.00444880 0.03051224 0.00651615
v 0.00444880 0.03051224 0.00651615
v 0.00444880 0.03051224 0.00651615
v 0.00444880 0.03051224 0.01036099
v 0.00444880 0.03051224 0.01036099
v 0.00444880 0.03051224 0.01036099
v 0.00444880 0.03608780 0.00651615
v 0.00444880 0.03608780 0.00651615
v 0.00444880 0.03608780 0.00651615
v 0.00444880 0.03608780 0.01036099
v 0.00444880 0.03608780 0.01036099
v 0.00444880 0.03608780 0.01036099
v -0.00102089 0.08999996 0.00591484
v -0.00102089 0.08999996 0.00591484
v -0.00102089 0.08999996 0.00591484
v -0.00102089 0.08999996 0.00682361
v -0.00102089 0.08999996 0.00682361
v -0.00102089 0.08999996 0.00682361
v -0.00026070 0.08980279 0.00636923
v -0.00026070 0.08980279 0.00701722
v -0.00026070 0.08980279 0.00701722
v -0.00026070 0.08980279 0.00572123
v -0.00026070 0.08980279 0.00572123
v -0.00275053 0.02853598 0.01055456
v 0.00476400 0.03605051 0.00632259
v 0.00476400 0.03605051 0.00632259
v 0.01687317 -0.01090986 0.01271901
v 0.03157113 -0.06077526 0.00618535
v 0.03157113 -0.06077526 0.00655311
v -0.00734273 0.03776272 0.00617264
v -0.00734273 0.03776272 0.00617264
v -0.00734273 0.03776272 0.00242713
v -0.00734273 0.03776272 0.00242713
v -0.00734273 0.03776272 0.00242713
v -0.00396027 0.04944089 0.00231307
v -0.00396027 0.04944089 0.00231307
v -0.00396027 0.05421073 0.00231307
v -0.00396027 0.05421073 0.00231307
v -0.00396027 0.05421073 0.00231307
v -0.00413868 0.04447447 0.00223054
v -0.00413868 0.04447447 0.00223054
v -0.00413868 0.04924430 0.00223054
v -0.00413868 0.04924430 0.00223054
v -0.00082774 0.09000000 0.00636923
v -0.00082774 0.09000000 0.00575898
v -0.00082774 0.09000000 0.00575898
v -0.00082774 0.09000000 0.00575898
v -0.00082774 0.09000000 0.00697948
v -0.00082774 0.09000000 0.00697948
v -0.00082774 0.09000000 0.00697948
v 0.00744698 0.02877954 0.00239452
v 0.00744698 0.02877954 0.00239452
v 0.00744698 0.02877954 0.00239452
v 0.00413868 0.01136499 0.00223054
v 0.00413868 0.01136499 0.01050791
v 0.01683418 -0.08230912 0.00002206
v 0.01683418 -0.08230912 0.00002206
v -0.00643251 0.05983238 0.00906256
v -0.00065292 0.08978495 0.00552084
v -0.00065292 0.08978495 0.00721766
v 0.01270382 -0.08059405 0.01132924
v 0.01270382 -0.08059405 0.01132924
v 0.01270382 -0.08059405 0.00140922
v 0.01270382 -0.08059405 0.00140922
v 0.01553534 -0.00001809 0.00636923
v 0.01553534 -0.00001809 0.00636923
v 0.01553534 -0.00001809 0.00636923
v -0.00461641 0.04944089 0.00628335
v 0.01069246 -0.01289242 0.00655257
v 0.01069246 -0.01289242 0.00655257
v 0.01069246 -0.01289242 0.00655257
v 0.01069246 -0.01289242 0.00618588
v -0.00019659 0.04447447 0.00383693
v -0.00019659 0.04447447 0.00242713
v -0.00019659 0.04447447 0.00242713
v -0.00019659 0.05440731 0.00383693
v -0.00019659 0.05440731 0.00242713
v -0.00019659 0.05440731 0.00242713
v -0.00019659 0.05440731 0.00242713
v -0.00019659 0.04210660 0.00223054
v -0.00019659 0.04210660 0.00223054
v -0.00019659 0.04427788 0.00223054
v -0.00019659 0.04343794 0.00223054
v 0.01841094 -0.00563130 0.01067466
v 0.01841094 -0.00563130 0.01067466
v 0.01841094 -0.00563130 0.01067466
v 0.01841094 -0.00563130 0.00206380
v 0.01841094 -0.00563130 0.00206380
v 0.01841094 -0.00563130 0.00206380
v 0.00550089 0.03330002 0.00632259
v 0.00275053 0.03806406 0.01055456
v 0.00275053 0.03806410 0.00632259
v 0.00275053 0.02853602 0.01055294
v -0.00444880 0.03051224 0.00651615
v -0.00444880 0.03051224 0.00651615
v -0.00444880 0.03051224 0.00651615
v -0.00444880 0.03051224 0.01036099
v -0.00444880 0.03051224 0.01036099
v -0.00146195 0.08949160 0.00598611
v -0.00146195 0.08949160 0.00598611
v 0.02021019 -0.05782955 0.01134976
v 0.02021019 -0.05782955 0.00138869
v 0.01419391 0.00044752 0.00222897
v 0.01419391 0.00044752 0.00222897
v 0.01419391 0.00044752 0.00222897
v 0.01419391 0.00044752 0.00222897
v 0.00742898 -0.00335821 0.01105811
v 0.00742898 -0.00335821 0.01105811
v 0.00742898 -0.00335821 0.01105811
v 0.00742898 -0.00335821 0.00168035
v 0.00742898 -0.00335821 0.00168035
v 0.01402608 -0.08835003 0.00164459
v 0.01402608 -0.08835003 0.01109383
v 0.00987813 -0.08656961 0.00651516
v 0.00987813 -0.08656961 0.00651516
v 0.00987813 -0.08656961 0.00622330
v 0.00987813 -0.08656961 0.00622330
v 0.00987813 -0.08656961 0.00622330
v -0.00012623 0.08964229 0.00636923
v -0.00012623 0.08964229 0.00703601
v -0.00012623 0.08964229 0.00703601
v -0.00012623 0.08964229 0.00703601
v -0.00012623 0.08964229 0.00570245
v -0.00012623 0.08964229 0.00570245
v -0.00012623 0.08964229 0.00570245
v 0.00805748 0.01136499 0.01050791
v -0.00020929 0.06432381 0.00965497
v -0.00668816 0.05969179 0.00387915
v 0.00703771 -0.00358062 0.00183534
v 0.00703771 -0.00358062 0.00183534
v 0.00703771 -0.00358062 0.01090312
v 0.01455224 0.00027609 0.01031447
v 0.01455224 0.00027609 0.01031447
v 0.01455224 0.00027609 0.01031447
v 0.01455224 0.00027609 0.01031447
v 0.01455224 0.00027609 0.00242394
v 0.01455224 0.00027609 0.00242394
v 0.01455224 0.00027609 0.00242394
v -0.00858202 0.04726303 0.01006872
v -0.00529756 0.03330002 0.00651615
v -0.00529756 0.03330002 0.00651615
v -0.00529756 0.03330002 0.01036099
v -0.00529756 0.03330002 0.01036099
v 0.00733077 0.03775171 0.01031133
v 0.00733077 0.03775171 0.01031133
v 0.00733077 0.03775171 0.01031133
v 0.00733077 0.03775171 0.00656582
v 0.01839728 -0.00568473 0.00154236
v 0.01839728 -0.00568473 0.00154236
v 0.01839728 -0.00568473 0.01119605
v 0.01839728 -0.00568473 0.01119605
v 0.01839728 -0.00568473 0.01119605
v 0.01834431 -0.00570882 0.00165589
v 0.01834431 -0.00570882 0.00165589
v 0.01834431 -0.00570882 0.01108253
v 0.01834431 -0.00570882 0.01108253
v 0.00456811 0.02571675 0.00239452
v 0.00456811 0.02571675 0.00239452
v 0.00456811 0.02571675 0.00239452
v 0.01189723 -0.08241197 0.00150838
v 0.01189723 -0.08241197 0.01123007
v 0.00020826 0.02435757 0.00219859
v 0.00020826 0.02435757 0.00219859
v 0.00020826 0.02435757 0.00219859
v 0.01591539 -0.00001887 0.00636923
v 0.01591539 -0.00001887 0.00636923
v 0.01591539 -0.00001887 0.00636923
v -0.00862535 0.03330002 0.01031133
v -0.00862535 0.03330002 0.01031133
v -0.00862535 0.03330002 0.00656582
v 0.00463868 0.03575890 0.00651615
v 0.00463868 0.03575890 0.00651615
v 0.00463868 0.03575890 0.01036099
v 0.00463868 0.03575890 0.01036099
v 0.00463868 0.03575890 0.01036099
v 0.00463868 0.03084115 0.00651615
v 0.00463868 0.03084115 0.00651615
v 0.00463868 0.03084115 0.00651615
v 0.00463868 0.03084115 0.01036099
v 0.00463868 0.03084115 0.01036099
v 0.00400563 0.00306333 0.01043975
v 0.00400563 0.00306333 0.01043975
v 0.00400563 0.00306333 0.00229871
v 0.00400563 0.00306333 0.00229871
v 0.00208792 0.00725122 0.01050791
v 0.01581549 -0.00008050 0.00636923
v -0.00018566 0.05434271 0.01031133
v -0.00018566 0.05434271 0.01031133
v -0.00018566 0.05434271 0.00448509
v -0.00018566 0.05434271 0.00448509
v -0.00018566 0.04453907 0.01031133
v -0.00018566 0.04453907 0.01031133
v -0.00018566 0.04453907 0.00448509
v -0.00018566 0.04453907 0.00448509
v -0.00118689 0.08949160 0.00702202
v -0.00118689 0.08949160 0.00702202
v -0.00198682 0.04447447 0.00300907
v -0.00198682 0.05440731 0.00300907
v 0.00747984 -0.00333777 0.00171379
v 0.00747984 -0.00333777 0.01102467
v 0.00747984 -0.00333777 0.01102467
v -0.00903781 0.04345755 0.01006963
v -0.00903781 0.04345755 0.01006963
v -0.00903781 0.04345755 0.01006963
v -0.00903781 0.04345751 0.00266879
v -0.00903781 0.04345751 0.00266879
v -0.00903781 0.04345751 0.00266879
v -0.00275061 0.02853586 0.00632259
v 0.00431267 0.04076981 0.01031133
v 0.00431267 0.04076981 0.01031133
v 0.00431267 0.04076981 0.00656582
v 0.00537483 0.00864551 0.00223054
v 0.00537483 0.00864551 0.01050791
v -0.00742662 0.05931861 0.00636923
v -0.00742662 0.05931861 0.00636923
v -0.00742662 0.05931861 0.00636923
v -0.00020876 0.05454199 0.01049016
v 0.00199236 0.00323889 0.00618332
v 0.00199236 0.00323889 0.00618332
v 0.00199236 0.00323889 0.00655514
v 0.00199236 0.00323889 0.00655514
v 0.00739583 0.02848677 0.00219843
v 0.00739583 0.02848677 0.00219843
v -0.00090273 0.08929696 0.00726898
v 0.02975834 -0.06073648 0.01106022
v 0.02975834 -0.06073648 0.00167824
v 0.01397704 -0.08812004 0.01134625
v 0.01397704 -0.08812004 0.00139217
v -0.00324518 0.04447447 0.00242713
v -0.00324518 0.04447447 0.00242713
v -0.00324518 0.05440731 0.00242713
v -0.00324518 0.05440731 0.00242713
v -0.00324518 0.05440731 0.00242713
v -0.00274987 0.03806448 0.00632225
v -0.00274987 0.03806448 0.00632225
v 0.00388432 0.00275160 0.01061213
v 0.00388432 0.00275160 0.01061213
v 0.00388432 0.00275160 0.00212633
v -0.00430564 0.04115582 0.00617264
v -0.00430564 0.04115582 0.00242713
v -0.00430564 0.04115582 0.00242713
v 0.00422071 0.04061051 0.01051064
v 0.00884449 0.01011730 0.00636923
v 0.00884449 0.01011730 0.01031133
v 0.00884449 0.01011730 0.01031133
v 0.00884449 0.01011730 0.00242713
v -0.00118900 0.08949160 0.00571801
v 0.00746979 0.02898735 0.01031133
v 0.00746979 0.02898735 0.01031133
v 0.00746979 0.02898735 0.00657198
v -0.00421918 0.02599218 0.01051073
v 0.00739297 -0.00369344 0.00157763
v 0.00739297 -0.00369344 0.01116083
v 0.00739297 -0.00369344 0.01116083
v 0.01309045 -0.00458070 0.01242284
v 0.01309045 -0.00458070 0.00031562
v 0.01309045 -0.00458070 0.00031562
v -0.00345104 0.04567514 0.01031133
v -0.00345104 0.04567514 0.01031133
v -0.00345104 0.04567514 0.01031133
v -0.00345104 0.04567514 0.00648271
v -0.00345104 0.05320664 0.01031133
v -0.00345104 0.05320664 0.01031133
v -0.00345104 0.05320664 0.01031133
v -0.00345104 0.05320664 0.00648271
v -0.00090029 0.08929675 0.00546894
v 0.01418174 0.00045136 0.01050957
v 0.01418174 0.00045136 0.01050957
v 0.01418174 0.00045136 0.01050957
v -0.00100189 0.08980585 0.00709478
v -0.00100189 0.08980585 0.00709478
v -0.00100189 0.08980585 0.00564368
v -0.00100189 0.08980585 0.00564368
v -0.00734832 0.05952736 0.00617922
v -0.00734832 0.05952736 0.00617922
v 0.00021918 0.02480123 0.01050791
v 0.01864924 -0.00573506 0.01084133
v 0.01864924 -0.00573506 0.01084133
v 0.01864924 -0.00573506 0.00189713
v 0.01864924 -0.00573506 0.00189713
v 0.00866872 0.01004277 0.00223054
v 0.00866872 0.01004277 0.00223054
v 0.00866872 0.01004277 0.00223054
v -0.00206934 0.04944089 0.00318749
v -0.00206934 0.04467106 0.00318749
v -0.00206934 0.05421073 0.00318749
v 0.01268689 -0.00475266 0.00003903
v 0.01268689 -0.00475266 0.01269939
v 0.01268689 -0.00475266 0.01269939
v -0.00718939 0.05594566 0.00333371
v 0.01266570 -0.00451212 0.00020867
v 0.01266570 -0.00451212 0.00020867
v 0.01266570 -0.00451212 0.01252978
v 0.01266570 -0.00451212 0.01252978
v 0.01266570 -0.00451212 0.01252978
v -0.00021087 0.08949160 0.00548744
v -0.00021087 0.08949160 0.00548744
v -0.00021087 0.08949160 0.00725102
v -0.00476408 0.03054945 0.00632259
v 0.01986407 -0.00563672 0.00636923
v 0.01986407 -0.00563672 0.00636923
v 0.01986407 -0.00563672 0.00636923
v 0.00530915 -0.00251802 0.00618382
v 0.00530915 -0.00251802 0.00618382
v 0.00530915 -0.00251802 0.00618382
v 0.00530915 -0.00251802 0.00655464
v 0.00530915 -0.00251802 0.00655464
v 0.00530915 -0.00251802 0.00655464
v 0.00206876 0.00352082 0.00618291
v 0.00206876 0.00352082 0.00618291
v 0.00206876 0.00352082 0.00618291
v 0.00206876 0.00352082 0.00655555
v 0.00206876 0.00352082 0.00655555
v 0.00206876 0.00352082 0.00655555
v 0.01305846 -0.00432720 0.00053596
v 0.01305846 -0.00432720 0.00053596
v 0.01305846 -0.00432720 0.00053596
v 0.01305846 -0.00432720 0.01220250
v 0.01305846 -0.00432720 0.01220250
v 0.01864734 -0.00572984 0.00189771
v 0.01864734 -0.00572984 0.00189771
v 0.01864734 -0.00572984 0.00189771
v 0.01864734 -0.00572984 0.01084075
v 0.01864734 -0.00572984 0.01084075
v 0.00720470 -0.00324618 0.01077540
v 0.00720470 -0.00324618 0.00196306
v 0.00720470 -0.00324618 0.00196306
v 0.01995318 -0.05777190 0.01111013
v 0.01992934 -0.08583218 0.01101147
v 0.01992934 -0.08583218 0.00172695
v -0.00043961 0.08976298 0.00551633
v -0.00843886 0.03330002 0.01051069
v 0.01250222 -0.01275447 0.01108679
v 0.01250222 -0.01275447 0.00165167
v -0.00927512 0.03997187 0.00636923
v 0.01481268 0.00019381 0.01047174
v 0.01481268 0.00019381 0.01047174
v 0.01481268 0.00019381 0.00226672
v 0.01481268 0.00019381 0.00226672
v 0.01481268 0.00019381 0.00226672
v 0.00752065 0.03742281 0.01031133
v 0.00752065 0.03742281 0.01031133
v 0.00752065 0.03742281 0.00656582
v 0.00752065 0.03742281 0.00656582
v 0.00183112 0.00717371 0.01032283
v 0.00183112 0.00717371 0.01032283
v 0.00183112 0.00717371 0.01032283
v -0.00500003 0.04932671 0.01048490
v -0.00500003 0.04932671 0.01048490
v 0.02950270 -0.06067854 0.01130221
v 0.02950270 -0.06067854 0.00143625
v 0.00032398 0.00717371 0.00655497
v 0.00032398 0.00717371 0.00655497
v 0.00032398 0.00717371 0.00618348
v -0.00018988 0.02472554 0.01031133
v -0.00018988 0.02472554 0.01031133
v -0.00018988 0.02472554 0.01031133
v -0.00018988 0.02472554 0.00656582
v -0.00018988 0.02472554 0.00656582
v -0.00373487 0.03976903 0.01050791
v 0.02468100 -0.03396954 0.01272737
v 0.02504558 -0.03385775 0.00001283
v -0.00275049 0.03806406 0.01055294
v -0.00275049 0.03806406 0.01055294
v 0.00476404 0.03054949 0.01055456
v 0.00476404 0.03054949 0.01055456
v 0.00476404 0.03605055 0.01055456
v 0.00476404 0.03605055 0.01055456
v 0.01376982 -0.08823655 0.00164459
v 0.01376982 -0.08823655 0.01109383
v 0.00208085 0.00724824 0.00223054
v 0.00208085 0.00724824 0.00223054
v 0.00208085 0.00724824 0.00223054
v 0.02014803 -0.00569603 0.00636923
v 0.00523287 -0.00280007 0.00618257
v 0.00523287 -0.00280007 0.00618257
v 0.00523287 -0.00280007 0.00655588
v 0.00523287 -0.00280007 0.00655588
v 0.02064070 -0.00926991 0.00143803
v 0.02064070 -0.00926991 0.01130043
v 0.00918122 0.00203507 0.00220062
v 0.00918122 0.00203507 0.00220062
v 0.00918122 0.00203507 0.00220062
v 0.00918122 0.00203507 0.01053784
v 0.00918122 0.00203507 0.01053784
v 0.00918122 0.00203507 0.01053784
v -0.00497640 0.04291932 0.00223054
v -0.00497640 0.04291932 0.01050791
v 0.01341393 -0.08990282 0.00618245
v 0.01341393 -0.08990282 0.00618245
v 0.01341393 -0.08990282 0.00618245
v 0.01341393 -0.08990278 0.00655601
v 0.01341393 -0.08990278 0.00655601
v -0.00784235 0.05590581 0.00636923
v -0.00784235 0.05590581 0.00636923
v 0.00422804 0.00294736 0.00200759
v 0.00422804 0.00294736 0.00200759
v 0.00422804 0.00294736 0.00200759
v 0.00422804 0.00294736 0.01073086
v 0.00422804 0.00294736 0.01073086
v 0.02261212 -0.08425484 0.00636923
v 0.02261212 -0.08425484 0.00636923
v 0.02261212 -0.08425484 0.00636923
v 0.01255478 -0.00420623 0.00053563
v 0.01255478 -0.00420623 0.00053563
v 0.01255478 -0.00420623 0.01220283
v 0.01255478 -0.00420623 0.01220283
v 0.01255478 -0.00420623 0.01220283
v 0.02085599 -0.08400296 0.00167948
v 0.02085599 -0.08400296 0.00167948
v 0.02085599 -0.08400296 0.01105898
v 0.02085599 -0.08400296 0.01105898
v -0.00278778 0.03774882 0.00651615
v -0.00278778 0.03774882 0.00651615
v -0.00278778 0.03774882 0.00651615
v -0.00278778 0.03774882 0.01036099
v -0.00278778 0.03774882 0.01036099
v -0.00278778 0.03774882 0.01036099
v 0.00476383 0.03054962 0.00632259
v 0.00476383 0.03054962 0.00632259
v 0.01683422 -0.08230912 0.01271640
v 0.01683422 -0.08230912 0.01271640
v 0.01683422 -0.08230912 0.01271640
v -0.00382609 0.04559754 0.01050506
v -0.00382609 0.04559754 0.01050506
v 0.02088587 -0.00919036 0.00168701
v 0.02088587 -0.00919036 0.01105145
v 0.01274889 -0.01267480 0.01133420
v 0.01274889 -0.01267480 0.00140426
v 0.00450595 0.02582510 0.00617272
v -0.00550106 0.03330002 0.01055456
v -0.00020884 0.05460320 0.00224731
v -0.00020884 0.05460320 0.00224731
v -0.00730751 0.02908105 0.01051073
v -0.00373794 0.05331085 0.01046197
v -0.00373794 0.05331085 0.01046197
v 0.00923303 0.00140893 0.00054519
v 0.00923303 0.00140893 0.00054519
v 0.00923303 0.00140893 0.01219327
v 0.01792361 -0.09000000 0.00622218
v 0.01792361 -0.09000000 0.00622218
v 0.01792361 -0.09000000 0.00651628
v 0.01792361 -0.09000000 0.00651628
v -0.00474277 0.04962842 0.01031133
v -0.00474277 0.04962842 0.01031133
v -0.00474277 0.04962842 0.01031133
v -0.00474277 0.04962842 0.00656582
v -0.00474277 0.04925337 0.01031133
v -0.00474277 0.04925337 0.01031133
v -0.00474277 0.04925337 0.00656582
v 0.00404581 0.00332775 0.01032279
v 0.00404581 0.00332775 0.01032279
v 0.00404581 0.00332775 0.01032279
v 0.00404581 0.00332775 0.01032279
v 0.00404581 0.00332775 0.00241567
v 0.00404581 0.00332775 0.00241567
v 0.00404581 0.00332775 0.00241567
v -0.00476396 0.03605051 0.00632259
v -0.00164107 0.08949160 0.00621361
v -0.00164107 0.08949160 0.00621361
v -0.00164107 0.08949160 0.00621361
v -0.00164107 0.08949160 0.00652484
v 0.01171397 -0.08232295 0.00171126
v 0.01171397 -0.08232295 0.01102719
v -0.00146191 0.08949160 0.00675239
v 0.02021023 -0.03532363 0.01134976
v 0.02021023 -0.03532363 0.00138869
v -0.00887578 0.04581424 0.00636923
v -0.00887578 0.04581424 0.00636923
v -0.00887578 0.04581424 0.00636923
v -0.00103906 0.08949160 0.00560548
v -0.00103906 0.08949160 0.00713298
v -0.00103906 0.08949160 0.00713298
v -0.00369576 0.04592727 0.00656582
v -0.00068412 0.08949160 0.00548744
v -0.00068412 0.08949160 0.00548744
v -0.00068412 0.08949160 0.00725102
v 0.00021815 0.01136499 0.01050791
v 0.01063572 -0.08041642 0.00655232
v 0.01063572 -0.08041642 0.00655232
v 0.01063572 -0.08041642 0.00655232
v 0.01063572 -0.08041642 0.00618613
v 0.01063572 -0.08041642 0.00618613
v 0.01063572 -0.08041642 0.00618613
v -0.00885650 0.04337139 0.00245465
v 0.00734066 0.02884092 0.00617272
v 0.00734066 0.02884092 0.00617272
v 0.00734066 0.02884092 0.00617272
v 0.01806283 -0.00551484 0.01092787
v 0.01806283 -0.00551484 0.01092787
v 0.01806283 -0.00551484 0.01092787
v 0.01806283 -0.00551484 0.00181059
v 0.01806283 -0.00551484 0.00181059
v 0.00000000 0.04345925 0.00636923
v 0.00000000 0.04345925 0.01031133
v 0.00000000 0.04345925 0.01031133
v 0.00000000 0.04345925 0.00242713
v 0.00000000 0.04345925 0.00242713
v 0.00000000 0.01136499 0.00636923
v 0.00000000 0.01136499 0.00242746
v 0.00000000 0.01136499 0.00242746
v 0.00000000 0.01136499 0.01031099
v 0.00000000 0.02447804 0.00636923
v 0.00000000 0.02447804 0.00242746
v 0.00000000 0.02447804 0.00242746
v 0.00000000 0.02792292 0.00636923
v 0.00000000 0.04212196 0.00636923
v 0.00000000 0.04212196 0.01031133
v 0.00000000 0.04212196 0.01031133
v 0.00000000 0.04212196 0.00242713
v 0.00000000 0.04212196 0.00242713
v 0.00000000 0.04212196 0.00242713
v 0.00000000 0.02812667 0.01031133
v 0.00000000 0.02812667 0.00656582
v 0.00000000 0.02812667 0.00656582
v 0.00000000 0.02812667 0.00223054
v 0.00000000 0.02833021 0.01050791
v 0.00000000 0.02833021 0.01050791
v 0.00000000 0.02833021 0.01050791
v 0.00000000 0.03867700 0.00636923
v 0.00000000 0.03867700 0.00636923
v 0.00000000 0.02434892 0.01034303
v 0.00000000 0.02434892 0.01034303
v 0.00000000 0.03826984 0.01050791
v 0.00000000 0.03826984 0.01050791
v 0.00000000 0.03826984 0.01050791
v 0.00000000 0.04172287 0.00636923
v 0.00000000 0.04172287 0.00636923
v 0.00000000 0.04172287 0.00636923
v 0.00000000 0.02487751 0.00636923
v 0.00000000 0.02487751 0.00636923
v 0.00000000 0.02487751 0.00636923
v 0.00000000 0.03847338 0.00223054
v 0.00000000 0.05460390 0.00416356
v 0.00000000 0.05460390 0.00416356
v 0.00000000 0.05460390 0.00416356
v 0.00000000 0.05460390 0.00244476
v 0.00000000 0.05460390 0.00244476
v 0.00000000 0.05460390 0.00244476
v 0.00000000 0.05460390 0.01029369
v 0.00000000 0.05460390 0.01029369
v 0.00000000 0.05460390 0.01029369
v 0.00000000 0.04427788 0.01031133
v 0.00000000 0.04427788 0.01031133
v 0.00000000 0.04427788 0.00242713
v 0.00000000 0.04427788 0.00242713
v 0.00000000 0.04427788 0.00457527
v 0.00000000 0.06448791 0.00512456
v 0.00000000 0.06448791 0.00944733
v 0.00000000 0.06448791 0.00944733
v 0.00000000 0.06448791 0.00944733
v 0.00000000 0.06448791 0.00329112
v 0.00000000 0.06448791 0.00329112
v 0.00000000 0.06448791 0.00329112
v 0.00000000 0.08929502 0.00707243
v 0.00000000 0.08929502 0.00707243
v 0.00000000 0.08929502 0.00707243
v 0.00000000 0.08929502 0.00635946
v 0.00000000 0.08929502 0.00566602
v 0.00000000 0.08929502 0.00566602
v 0.00000000 0.08929502 0.00566602
v 0.00725495 0.03765487 0.00223054
v -0.02023916 -0.00563974 0.00636923
v -0.02023916 -0.00563974 0.00636923
v -0.02023916 -0.00563974 0.00636923
v -0.00827737 0.01136499 0.00636923
v -0.00827737 0.01136499 0.01031133
v -0.00827737 0.01136499 0.00242713
v -0.00827737 0.01136499 0.00242713
v -0.01806283 -0.00551484 0.01092787
v -0.01806283 -0.00551484 0.01092787
v -0.01806283 -0.00551484 0.00181059
v -0.00734066 0.02884092 0.00656573
v -0.00734066 0.02884092 0.00656573
v -0.00734066 0.02884092 0.00656573
v -0.01063572 -0.08041642 0.00655232
v -0.01063572 -0.08041642 0.00655232
v -0.01063572 -0.08041642 0.00655232
v -0.01063572 -0.08041642 0.00655232
v -0.01063572 -0.08041642 0.00618613
v -0.01063572 -0.08041642 0.00618613
v 0.00068412 0.08949160 0.00548744
v 0.00068412 0.08949160 0.00725102
v 0.00068412 0.08949160 0.00725102
v 0.00496982 0.03330002 0.01050791
v 0.00496982 0.03330002 0.01050791
v 0.00496982 0.03330002 0.01050791
v 0.00103906 0.08949160 0.00560548
v 0.00103906 0.08949160 0.00560548
v 0.00103906 0.08949160 0.00713298
v 0.00118209 0.08949160 0.00571283
v 0.00118209 0.08949160 0.00571283
v 0.00887578 0.04581424 0.00636923
v 0.00887578 0.04581424 0.00636923
v 0.00887578 0.04581424 0.00636923
v -0.02021023 -0.03532363 0.01134976
v -0.02021023 -0.03532363 0.00138869
v 0.00146191 0.08949160 0.00675239
v 0.00146191 0.08949160 0.00675239
v -0.01171397 -0.08232295 0.00171126
v -0.01171397 -0.08232295 0.01102719
v 0.00258668 0.02881977 0.01031133
v 0.00258668 0.02881977 0.00656582
v 0.00258668 0.02881977 0.00656582
v 0.00258668 0.02881977 0.00223054
v 0.00258668 0.03778027 0.01031133
v 0.00258668 0.03778027 0.00656582
v 0.00258668 0.03778027 0.00656582
v 0.00258668 0.03778027 0.00223054
v 0.00164107 0.08949160 0.00621361
v 0.00164107 0.08949160 0.00652484
v 0.00164107 0.08949160 0.00652484
v 0.00164107 0.08949160 0.00652484
v -0.00404581 0.00332775 0.01032279
v -0.00404581 0.00332775 0.01032279
v -0.00404581 0.00332775 0.00241567
v -0.00404581 0.00332775 0.00241567
v 0.00474277 0.04962842 0.01031133
v 0.00474277 0.04962842 0.01031133
v 0.00474277 0.04962842 0.01031133
v 0.00474277 0.04962842 0.00656582
v 0.00474277 0.04925337 0.01031133
v 0.00474277 0.04925337 0.01031133
v 0.00474277 0.04925337 0.01031133
v 0.00474277 0.04925337 0.00656582
v 0.00729352 0.02908912 0.00223054
v -0.01792361 -0.09000000 0.00622218
v -0.01792361 -0.09000000 0.00622218
v -0.01792361 -0.09000000 0.00651628
v -0.01792361 -0.09000000 0.00651628
v -0.01792361 -0.09000000 0.00651628
v -0.00923303 0.00140893 0.00054519
v -0.00923303 0.00140893 0.00054519
v -0.00923303 0.00140893 0.01219327
v -0.00923303 0.00140893 0.01219327
v 0.00373794 0.05331085 0.01046197
v 0.00373794 0.05331085 0.01046197
v -0.00806853 0.01136499 0.00223054
v 0.00020884 0.05460320 0.00224731
v 0.00020884 0.05460320 0.00224731
v -0.00450595 0.02582510 0.00656573
v -0.01274889 -0.01267480 0.01133420
v -0.01274889 -0.01267480 0.00140426
v -0.02088587 -0.00919036 0.00168701
v -0.02088587 -0.00919036 0.01105145
v 0.00382609 0.04559754 0.01050531
v 0.00382609 0.04559754 0.01050531
v -0.01683422 -0.08230912 0.00002206
v -0.01683422 -0.08230912 0.00002206
v -0.01683422 -0.08230912 0.00002206
v -0.02085599 -0.08400296 0.00167948
v -0.02085599 -0.08400296 0.00167948
v -0.02085599 -0.08400296 0.01105898
v -0.02085599 -0.08400296 0.01105898
v -0.01255478 -0.00420623 0.00053563
v -0.01255478 -0.00420623 0.00053563
v -0.01255478 -0.00420623 0.01220283
v 0.00719171 0.05590307 0.00936737
v -0.02261212 -0.08425484 0.00636923
v -0.02261212 -0.08425484 0.00636923
v -0.02261212 -0.08425484 0.00636923
v -0.00842272 0.03330002 0.00636923
v -0.00842272 0.03330002 0.00636923
v -0.00842272 0.03330002 0.00636923
v 0.00517336 0.03330002 0.01031133
v 0.00517336 0.03330002 0.00656582
v 0.00517336 0.03330002 0.00656582
v 0.00517336 0.03330002 0.00223054
v -0.00422804 0.00294736 0.00200759
v -0.00422804 0.00294736 0.00200759
v -0.00422804 0.00294736 0.01073086
v -0.00422804 0.00294736 0.01073086
v -0.00422804 0.00294736 0.01073086
v 0.00784235 0.05590576 0.00636923
v 0.00784235 0.05590576 0.00636923
v 0.00421090 0.02600650 0.00223054
v -0.01341393 -0.08990282 0.00655601
v -0.01341393 -0.08990282 0.00655601
v -0.01341393 -0.08990282 0.00655601
v -0.01341393 -0.08990278 0.00618245
v -0.01341393 -0.08990278 0.00618245
v -0.00918122 0.00203507 0.00220062
v -0.00918122 0.00203507 0.01053784
v -0.02064070 -0.00926991 0.00143803
v -0.02064070 -0.00926991 0.01130043
v -0.00523287 -0.00280007 0.00618257
v -0.00523287 -0.00280007 0.00618257
v -0.00523287 -0.00280007 0.00655588
v -0.00523287 -0.00280007 0.00655588
v -0.00523287 -0.00280007 0.00655588
v -0.00523287 -0.00280007 0.00655588
v -0.02014803 -0.00569603 0.00636923
v -0.02014803 -0.00569603 0.00636923
v -0.00208085 0.00724824 0.00223054
v -0.00208085 0.00724824 0.01050791
v -0.00208085 0.00724824 0.01050791
v -0.00208085 0.00724824 0.01050791
v -0.01376982 -0.08823655 0.00164463
v -0.01376982 -0.08823655 0.01109387
v -0.02504558 -0.03385775 0.01272563
v -0.02504558 -0.03385775 0.00001283
v -0.02468100 -0.03396954 0.00001109
v -0.02468100 -0.03396954 0.01272737
v 0.00456658 0.04132224 0.01050791
v 0.00373487 0.03976903 0.00223054
v 0.00018988 0.02472554 0.00617264
v 0.00018988 0.02472554 0.00617264
v 0.00018988 0.02472554 0.00242713
v 0.00018988 0.02472554 0.00242713
v 0.00018988 0.02472554 0.00242713
v 0.00018988 0.03842251 0.01031133
v 0.00018988 0.03842251 0.01031133
v 0.00018988 0.03842251 0.00656582
v 0.00018988 0.03842251 0.00656582
v 0.00018988 0.03842251 0.00656582
v -0.00032398 0.00717371 0.00655497
v -0.00032398 0.00717371 0.00618348
v -0.00032398 0.00717371 0.00618348
v -0.02950270 -0.06067854 0.01130221
v -0.02950270 -0.06067854 0.00143625
v 0.00500003 0.04932671 0.01048490
v -0.00183112 0.00717371 0.00241563
v -0.00183112 0.00717371 0.00241563
v -0.00183112 0.00717371 0.00241563
v -0.00183112 0.00717371 0.01032283
v -0.00752065 0.03742281 0.00617264
v -0.00752065 0.03742281 0.00617264
v -0.00752065 0.03742281 0.00242713
v -0.00752065 0.03742281 0.00242713
v -0.01481268 0.00019381 0.01047174
v -0.01481268 0.00019381 0.01047174
v -0.01481268 0.00019381 0.01047174
v -0.01481268 0.00019381 0.00226672
v -0.01481268 0.00019381 0.00226672
v -0.01481268 0.00019381 0.00226672
v 0.00927512 0.03997187 0.00636923
v -0.00453116 0.03569682 0.01031133
v -0.00453116 0.03569682 0.01031133
v -0.00453116 0.03569682 0.00656582
v -0.00453116 0.03569682 0.00656582
v 0.00434123 0.03602572 0.01031133
v 0.00434123 0.03602572 0.01031133
v 0.00434123 0.03602572 0.00656582
v 0.00434123 0.03602572 0.00656582
v 0.00434123 0.03602572 0.00656582
v -0.01250222 -0.01275447 0.01108679
v -0.01250222 -0.01275447 0.00165167
v -0.01992934 -0.08583218 0.01101151
v -0.01992934 -0.08583218 0.00172699
v -0.00720470 -0.00324618 0.01077540
v -0.00720470 -0.00324618 0.01077540
v -0.00720470 -0.00324618 0.01077540
v -0.00720470 -0.00324618 0.00196306
v -0.00720470 -0.00324618 0.00196306
v -0.01864734 -0.00572984 0.00189771
v -0.01864734 -0.00572984 0.00189771
v -0.01864734 -0.00572984 0.00189771
v -0.01864734 -0.00572984 0.01084075
v -0.01864734 -0.00572984 0.01084075
v -0.01305846 -0.00432720 0.00053596
v -0.01305846 -0.00432720 0.01220250
v -0.01305846 -0.00432720 0.01220250
v 0.00465643 0.03598843 0.00636923
v 0.00465643 0.03598843 0.00636923
v -0.00206876 0.00352082 0.00618291
v -0.00206876 0.00352082 0.00618291
v -0.00206876 0.00352082 0.00655555
v -0.00206876 0.00352082 0.00655555
v -0.00206876 0.00352082 0.00655555
v -0.00206876 0.00352082 0.00655555
v -0.00530915 -0.00251802 0.00618382
v -0.00530915 -0.00251802 0.00655464
v -0.00530915 -0.00251802 0.00655464
v -0.01986407 -0.00563672 0.00636923
v 0.00021087 0.08949160 0.00548744
v 0.00021087 0.08949160 0.00725102
v 0.00021087 0.08949160 0.00725102
v -0.01266570 -0.00451212 0.00020867
v -0.01266570 -0.00451212 0.00020867
v -0.01266570 -0.00451212 0.00020867
v -0.01266570 -0.00451212 0.01252978
v -0.01266570 -0.00451212 0.01252978
v -0.01268689 -0.00475266 0.01269939
v -0.01268689 -0.00475266 0.00003907
v -0.01268689 -0.00475266 0.00003907
v 0.00206934 0.04944089 0.00318749
v 0.00206934 0.04467106 0.00318749
v 0.00206934 0.05421073 0.00318749
v -0.00866872 0.01004273 0.00223054
v -0.00866872 0.01004277 0.01050791
v -0.00866872 0.01004277 0.01050791
v -0.01864924 -0.00573506 0.01084133
v -0.01864924 -0.00573506 0.01084133
v -0.01864924 -0.00573506 0.00189713
v -0.01864924 -0.00573506 0.00189713
v -0.01864924 -0.00573506 0.00189713
v 0.00734832 0.05952736 0.00617922
v 0.00734832 0.05952736 0.00617922
v 0.00439400 0.04093755 0.00636923
v 0.00090029 0.08929675 0.00546894
v 0.00345104 0.04567514 0.01031133
v 0.00345104 0.04567514 0.01031133
v 0.00345104 0.04567514 0.01031133
v 0.00345104 0.04567514 0.00648267
v 0.00345104 0.05320664 0.01031133
v 0.00345104 0.05320664 0.01031133
v 0.00345104 0.05320664 0.01031133
v 0.00345104 0.05320664 0.00648267
v -0.01309045 -0.00458070 0.01242284
v -0.01309045 -0.00458070 0.01242284
v -0.01309045 -0.00458070 0.01242284
v -0.01309045 -0.00458070 0.00031562
v -0.01309045 -0.00458070 0.00031562
v -0.00739297 -0.00369344 0.00157763
v -0.00739297 -0.00369344 0.00157763
v -0.00739297 -0.00369344 0.01116083
v -0.00739297 -0.00369344 0.01116083
v -0.00746979 0.02898735 0.00616647
v -0.00746979 0.02898735 0.00242713
v -0.00746979 0.02898735 0.00242713
v -0.00884449 0.01011730 0.00636923
v -0.00884449 0.01011730 0.01031133
v -0.00884449 0.01011730 0.00242713
v -0.00884449 0.01011730 0.00242713
v 0.00842181 0.03330002 0.00223054
v 0.00430564 0.04115582 0.01031133
v 0.00430564 0.04115582 0.01031133
v 0.00430564 0.04115582 0.00656582
v -0.00388432 0.00275160 0.01061213
v -0.00388432 0.00275160 0.00212633
v -0.00388432 0.00275160 0.00212633
v 0.00324518 0.04447447 0.00242713
v 0.00324518 0.04447447 0.00242713
v 0.00324518 0.05440731 0.00242713
v 0.00324518 0.05440731 0.00242713
v 0.00324518 0.05440731 0.00242713
v -0.01397704 -0.08812004 0.00139221
v -0.01397704 -0.08812004 0.01134629
v -0.02975834 -0.06073648 0.01106022
v -0.02975834 -0.06073648 0.00167824
v 0.00090273 0.08929692 0.00726894
v -0.00739583 0.02848677 0.01054003
v -0.00739583 0.02848677 0.01054003
v -0.00739583 0.02848677 0.01054003
v -0.00199236 0.00323889 0.00618332
v -0.00199236 0.00323889 0.00655514
v -0.00199236 0.00323889 0.00655514
v 0.00020876 0.05454199 0.01049016
v 0.00742662 0.05931861 0.00636923
v 0.00742662 0.05931861 0.00636923
v 0.00742662 0.05931861 0.00636923
v -0.00537483 0.00864551 0.00223054
v -0.00537483 0.00864551 0.01050791
v 0.00908209 0.03982760 0.00223054
v -0.00431267 0.04076981 0.00617264
v -0.00431267 0.04076981 0.00242713
v -0.00431267 0.04076981 0.00242713
v 0.00448025 0.03071334 0.01031133
v 0.00448025 0.03071334 0.00656582
v 0.00448025 0.03071334 0.00656582
v 0.00448025 0.03071334 0.00223054
v 0.00448025 0.03588670 0.00223054
v -0.00268729 0.02864284 0.00636923
v 0.00903781 0.04345755 0.01006963
v 0.00903781 0.04345755 0.01006963
v 0.00903781 0.04345755 0.01006963
v 0.00903781 0.04345751 0.00266879
v 0.00903781 0.04345751 0.00266879
v 0.00903781 0.04345751 0.00266879
v -0.00747984 -0.00333777 0.00171379
v -0.00747984 -0.00333777 0.00171379
v -0.00747984 -0.00333777 0.00171379
v -0.00747984 -0.00333777 0.01102467
v -0.00747984 -0.00333777 0.01102467
v 0.00198682 0.04447447 0.00300907
v 0.00198682 0.05440731 0.00300907
v -0.00430398 0.03081511 0.01050791
v -0.00430398 0.03081511 0.01050791
v -0.00430398 0.03081511 0.01050791
v -0.00430398 0.03578493 0.01050791
v -0.00430398 0.03578493 0.01050791
v -0.00430398 0.03578493 0.01050791
v -0.00537673 0.03330002 0.00636923
v 0.00018566 0.05434271 0.01031133
v 0.00018566 0.05434271 0.01031133
v 0.00018566 0.05434271 0.00448509
v 0.00018566 0.05434271 0.00448509
v 0.00018566 0.04453907 0.01031133
v 0.00018566 0.04453907 0.01031133
v 0.00018566 0.04453907 0.01031133
v 0.00018566 0.04453907 0.00448509
v 0.00018566 0.04453907 0.00448509
v 0.00018566 0.04453907 0.00448509
v 0.00268779 0.03795691 0.00636923
v -0.00400563 0.00306333 0.01043975
v -0.00400563 0.00306333 0.01043975
v -0.00400563 0.00306333 0.01043975
v -0.00400563 0.00306333 0.00229871
v -0.00400563 0.00306333 0.00229871
v -0.00400563 0.00306333 0.00229871
v 0.00862535 0.03330002 0.00617264
v 0.00862535 0.03330002 0.00242713
v 0.00862535 0.03330002 0.00242713
v -0.01591539 -0.00001887 0.00636923
v -0.01591539 -0.00001887 0.00636923
v -0.01591539 -0.00001887 0.00636923
v -0.00020826 0.02435757 0.01053986
v -0.00020826 0.02435757 0.01053986
v -0.00020826 0.02435757 0.01053986
v -0.00020826 0.02482238 0.00223054
v -0.00020826 0.02482238 0.00223054
v -0.01189723 -0.08241197 0.00150838
v -0.01189723 -0.08241197 0.01123007
v -0.00456811 0.02571675 0.01034394
v -0.00456811 0.02571675 0.01034394
v -0.01834431 -0.00570882 0.00165593
v -0.01834431 -0.00570882 0.00165593
v -0.01834431 -0.00570882 0.01108257
v -0.01834431 -0.00570882 0.01108257
v -0.01834431 -0.00570882 0.01108257
v -0.01839728 -0.00568473 0.00154240
v -0.01839728 -0.00568473 0.00154240
v -0.01839728 -0.00568473 0.01119609
v -0.01839728 -0.00568473 0.01119609
v -0.01839728 -0.00568473 0.01119609
v -0.00733077 0.03775171 0.00617264
v -0.00733077 0.03775171 0.00242713
v -0.00733077 0.03775171 0.00242713
v -0.00733077 0.03775171 0.00242713
v 0.00268853 0.02864338 0.00636923
v -0.00465648 0.03598843 0.00636923
v -0.00465648 0.03598843 0.00636923
v -0.01455224 0.00027609 0.01031451
v -0.01455224 0.00027609 0.00242394
v -0.01455224 0.00027609 0.00242394
v -0.00703771 -0.00358062 0.00183534
v -0.00703771 -0.00358062 0.00183534
v -0.00703771 -0.00358062 0.01090312
v -0.00703771 -0.00358062 0.01090312
v 0.00668816 0.05969179 0.00387915
v 0.00465656 0.03061157 0.00636923
v 0.00020929 0.06432381 0.00965497
v -0.00268845 0.03795658 0.00636923
v 0.00012623 0.08964229 0.00636923
v 0.00012623 0.08964229 0.00570245
v 0.00012623 0.08964229 0.00570245
v 0.00012623 0.08964229 0.00570245
v -0.00987813 -0.08656961 0.00651516
v -0.00987813 -0.08656961 0.00651516
v -0.00987813 -0.08656961 0.00622330
v -0.01402608 -0.08835003 0.00164463
v -0.01402608 -0.08835003 0.01109387
v -0.00742898 -0.00335821 0.01105811
v -0.00742898 -0.00335821 0.01105811
v -0.00742898 -0.00335821 0.01105811
v -0.00742898 -0.00335821 0.00168035
v -0.00742898 -0.00335821 0.00168035
v -0.00726211 0.02897191 0.00223054
v -0.01419391 0.00044752 0.01050949
v -0.01419391 0.00044752 0.01050949
v -0.01419391 0.00044752 0.00222897
v 0.00718062 0.05594123 0.00333057
v -0.02021019 -0.05782955 0.01134976
v -0.02021019 -0.05782955 0.00138869
v 0.00146195 0.08949160 0.00598611
v 0.00641682 0.05987464 0.00363575
v -0.01841094 -0.00563130 0.01067466
v -0.01841094 -0.00563130 0.00206380
v -0.01841094 -0.00563130 0.00206380
v 0.00019659 0.04433471 0.01050791
v 0.00019659 0.04334577 0.00223054
v 0.00019659 0.04447447 0.00383693
v 0.00019659 0.04447447 0.00383693
v 0.00019659 0.04447447 0.00242713
v 0.00019659 0.04447447 0.00242713
v 0.00019659 0.04447447 0.00242713
v 0.00019659 0.05440731 0.00383693
v 0.00019659 0.05440731 0.00242713
v 0.00019659 0.05440731 0.00242713
v 0.00019659 0.04210280 0.01050791
v 0.00019659 0.04210280 0.01050791
v 0.00019659 0.04342126 0.01050791
v 0.00019659 0.04427788 0.00223054
v 0.00019659 0.04177452 0.00223054
v 0.00019659 0.04177452 0.00223054
v -0.01069246 -0.01289242 0.00655257
v -0.01069246 -0.01289242 0.00655257
v -0.01069246 -0.01289242 0.00655257
v -0.01069246 -0.01289242 0.00618588
v 0.00461641 0.04944089 0.00628335
v -0.01553534 -0.00001809 0.00636923
v -0.00248491 0.03760401 0.01050791
v -0.00248491 0.03760401 0.01050791
v -0.00248491 0.03760401 0.01050791
v -0.00248491 0.02899604 0.01050791
v -0.00248491 0.02899604 0.01050791
v -0.00248491 0.02899604 0.01050791
v -0.01270382 -0.08059405 0.01132924
v -0.01270382 -0.08059405 0.01132924
v -0.01270382 -0.08059405 0.00140922
v -0.01270382 -0.08059405 0.00140922
v 0.00065292 0.08978495 0.00552084
v 0.00065292 0.08978495 0.00721766
v 0.00065292 0.08978495 0.00721766
v -0.01683418 -0.08230912 0.01271640
v -0.01683418 -0.08230912 0.01271640
v -0.00413868 0.01136499 0.00223054
v -0.00413868 0.01136499 0.01050791
v -0.00744698 0.02877954 0.01034394
v -0.00744698 0.02877954 0.01034394
v 0.00082774 0.09000000 0.00636923
v 0.00082774 0.09000000 0.00575898
v 0.00082774 0.09000000 0.00575898
v 0.00082774 0.09000000 0.00575898
v 0.00082774 0.09000000 0.00697948
v 0.00082774 0.09000000 0.00697948
v 0.00082774 0.09000000 0.00697948
v 0.00413868 0.04447447 0.00223054
v 0.00413868 0.04447447 0.00223054
v 0.00413868 0.04106978 0.00223054
v 0.00413868 0.04924430 0.00223054
v 0.00413868 0.04924430 0.00223054
v 0.00413868 0.04924430 0.00223054
v 0.00396027 0.04944089 0.00231307
v 0.00396027 0.04944089 0.00231307
v 0.00396027 0.04944089 0.00231307
v 0.00396027 0.05421073 0.00231307
v 0.00396027 0.05421073 0.00231307
v 0.00248491 0.03760401 0.01050791
v 0.00248491 0.03760401 0.01050791
v 0.00248491 0.03760401 0.01050791
v 0.00248491 0.02899604 0.01050791
v 0.00248491 0.02899604 0.01050791
v 0.00248491 0.02899604 0.01050791
v 0.00734273 0.03776272 0.01031133
v 0.00734273 0.03776272 0.01031133
v 0.00734273 0.03776272 0.01031133
v 0.00734273 0.03776272 0.00656582
v 0.00734273 0.03776272 0.00656582
v 0.00734273 0.03776272 0.00656582
v -0.03157113 -0.06077526 0.00618535
v -0.03157113 -0.06077526 0.00655311
v -0.01687317 -0.01090986 0.00001945
v -0.01687317 -0.01090986 0.01271901
v 0.00026070 0.08980279 0.00636923
v 0.00026070 0.08980279 0.00701722
v 0.00026070 0.08980279 0.00701722
v 0.00026070 0.08980279 0.00572123
v 0.00026070 0.08980279 0.00572123
v 0.00102089 0.08999996 0.00591484
v 0.00102089 0.08999996 0.00591484
v 0.00102089 0.08999996 0.00591484
v 0.00102089 0.08999996 0.00682361
v 0.00102089 0.08999996 0.00682361
v 0.00102089 0.08999996 0.00682361
v -0.02468096 -0.05918364 0.00001109
v -0.02468096 -0.05918364 0.01272737
v 0.00019352 0.04189077 0.01031133
v 0.00019352 0.04189077 0.01031133
v 0.00019352 0.04189077 0.01031133
v 0.00019352 0.04189077 0.00656582
v 0.00019352 0.04189077 0.00656582
v 0.00019352 0.04189077 0.00656582
v -0.00421136 0.04059433 0.00636923
v -0.00421136 0.04059433 0.00636923
v -0.00421136 0.04059433 0.00636923
v -0.01451503 0.00025316 0.00206251
v -0.01451503 0.00025316 0.00206251
v -0.01451503 0.00025316 0.00206251
v -0.01451503 0.00025316 0.01067599
v -0.01451503 0.00025316 0.01067599
v -0.01451503 0.00025316 0.01067599
v -0.00973497 0.00129036 0.01219877
v -0.00973497 0.00129036 0.01219877
v -0.00973497 0.00129036 0.00053968
v -0.00973497 0.00129036 0.00053968
v -0.02266886 -0.00907787 0.00655328
v -0.02266886 -0.00907787 0.00618518
v -0.02950265 -0.03247464 0.01130221
v -0.02950265 -0.03247464 0.00143625
v -0.00506256 -0.00313100 0.00618468
v -0.00506256 -0.00313100 0.00655377
v -0.00506256 -0.00313100 0.00655377
v 0.00156993 0.08980569 0.00652149
v 0.00156993 0.08980569 0.00652149
v 0.00156993 0.08980569 0.00652149
v 0.00156993 0.08980569 0.00621697
v 0.00156993 0.08980569 0.00621697
v -0.00019150 0.02471271 0.00656573
v -0.00019150 0.02471271 0.00656573
v -0.00019150 0.02471271 0.00656573
v -0.00019150 0.02458995 0.01034394
v -0.00019150 0.02458995 0.01034394
v 0.00431139 0.05459856 0.00230997
v 0.00431139 0.05459856 0.00230997
v 0.00927516 0.03997187 0.00243996
v 0.00927516 0.03997187 0.00243996
v 0.00927516 0.03997187 0.01029845
v 0.00927516 0.03997187 0.01029845
v 0.00927516 0.03997187 0.01029845
v 0.00017838 0.04944089 0.00422709
v 0.00668902 0.05969154 0.00881254
v -0.01245620 -0.08051790 0.00165667
v -0.01245620 -0.08051790 0.00165667
v -0.01245620 -0.08051790 0.01108178
v -0.01245620 -0.08051790 0.01108178
v 0.00643379 0.05983156 0.00906215
v 0.00043965 0.08976298 0.00722213
v 0.00043965 0.08976298 0.00551633
v -0.01995314 -0.03538132 0.01111013
v -0.01995314 -0.03538132 0.00162832
v -0.01995314 -0.05777190 0.00162832
v -0.01995314 -0.05777190 0.01111017
v 0.00916201 0.03962526 0.00636923
v 0.00916201 0.03962526 0.01031133
v 0.00916201 0.03962526 0.01031133
v 0.00916201 0.03962526 0.00242713
v 0.00916201 0.03962526 0.00242713
v 0.00916201 0.03962526 0.00242713
v -0.00417978 0.02563745 0.00656573
v -0.01648686 -0.08216278 0.01271714
v -0.01648686 -0.08216278 0.01271714
v -0.01648686 -0.08216278 0.01271714
v -0.01648686 -0.08216278 0.00002131
v -0.01648686 -0.08216278 0.00002131
v -0.01809201 -0.03544361 0.00655224
v -0.01809201 -0.03544361 0.00655224
v -0.01809201 -0.03544361 0.00618622
v -0.01809201 -0.05770957 0.00618630
v -0.01809201 -0.05770957 0.00655216
v -0.01809201 -0.05770957 0.00655216
v 0.00857473 0.04725012 0.00267235
v 0.00743842 0.03793129 0.01050791
v 0.00369572 0.05295451 0.01031133
v 0.00369572 0.05295451 0.01031133
v 0.00369572 0.05295451 0.01031133
v 0.00369572 0.05295451 0.00656582
v 0.00369572 0.04592727 0.01031133
v 0.00369572 0.04592727 0.01031133
v 0.00369572 0.04592727 0.01031133
v 0.00369572 0.04592727 0.00656582
v -0.00216068 0.00356924 0.00618427
v -0.00216068 0.00356924 0.00618427
v -0.00216068 0.00356924 0.00655419
v -0.00216068 0.00356924 0.00655419
v -0.00216068 0.00356924 0.00655419
v -0.00216068 0.00356924 0.00655419
v 0.00100193 0.08980585 0.00709478
v 0.00100193 0.08980585 0.00709478
v 0.00100193 0.08980585 0.00564368
v 0.00100193 0.08980585 0.00564368
v 0.00421128 0.02600588 0.00636923
v 0.00421128 0.02600588 0.00636923
v 0.00421128 0.02600588 0.00636923
v -0.00934507 0.00160237 0.00067970
v -0.00934507 0.00160237 0.00067970
v -0.00934507 0.00160237 0.00067970
v -0.00934507 0.00160237 0.01205876
v -0.00934507 0.00160237 0.01205876
v -0.00934507 0.00160237 0.01205876
v -0.00934507 0.00160237 0.01205876
v 0.00058248 0.08997409 0.00636923
v 0.00058248 0.08997409 0.00698026
v 0.00058248 0.08997409 0.00698026
v 0.00058248 0.08997409 0.00575819
v 0.00058248 0.08997409 0.00575819
v 0.00842280 0.03330002 0.00636923
v 0.00842280 0.03330002 0.00636923
v 0.00842280 0.03330002 0.00636923
v 0.00430398 0.03081511 0.01050791
v 0.00430398 0.03081511 0.01050791
v 0.00430398 0.03081511 0.01050791
v 0.00430398 0.03578493 0.01050791
v 0.00430398 0.03578493 0.01050791
v 0.00430398 0.03578493 0.01050791
v 0.00734741 0.05952757 0.00655903
v 0.00734741 0.05952757 0.00655903
v 0.00347397 0.06217000 0.00289526
v 0.00462618 0.04097120 0.01031133
v 0.00462618 0.04097120 0.01031133
v 0.00462618 0.04097120 0.01031133
v 0.00462618 0.04097120 0.00656582
v -0.01855840 -0.00584531 0.01137799
v -0.01855840 -0.00584531 0.01137799
v -0.01855840 -0.00584531 0.00136051
v -0.01823260 -0.08992703 0.00636923
v -0.01823260 -0.08992703 0.00636923
v -0.00448025 0.03071334 0.01031133
v -0.00448025 0.03071334 0.00656582
v -0.00448025 0.03071334 0.00656582
v -0.00448025 0.03071334 0.00223054
v -0.00448025 0.03588670 0.00223054
v 0.00431267 0.02583023 0.00617264
v 0.00431267 0.02583023 0.00242713
v 0.00431267 0.02583023 0.00242713
v 0.00885000 0.04341464 0.01028327
v -0.00020876 0.01136499 0.00223054
v -0.00020876 0.01136499 0.01050791
v -0.00020876 0.01136499 0.01050791
v -0.00020876 0.01136499 0.01050791
v -0.01307377 -0.08975785 0.00618245
v -0.01307377 -0.08975785 0.00655605
v -0.01307377 -0.08975785 0.00655605
v -0.01480436 0.00018260 0.00228042
v -0.01480436 0.00018260 0.00228042
v -0.01480436 0.00018260 0.00228042
v -0.01480436 0.00018260 0.01045804
v -0.01480436 0.00018260 0.01045804
v 0.00738428 0.05601987 0.00358654
v -0.00435501 0.00329965 0.01050949
v -0.00435501 0.00329965 0.01050949
v -0.00435501 0.00329965 0.00222897
v -0.00806857 0.01136499 0.01050791
v -0.00806857 0.01136499 0.01050791
v -0.00806857 0.01136499 0.01050791
v -0.00443183 0.02533574 0.01053991
v -0.00443183 0.02533574 0.01053991
v -0.00443183 0.02533574 0.01053991
v -0.00857449 0.03311014 0.00616672
v -0.00857449 0.03311014 0.00242713
v -0.00857449 0.03311014 0.00242713
v -0.00857449 0.03348990 0.00617264
v -0.00857449 0.03348990 0.00617264
v -0.00857449 0.03348990 0.00242713
v -0.00857449 0.03348990 0.00242713
v -0.00857449 0.03348990 0.00242713
v 0.00729422 0.02908870 0.00636923
v 0.00729422 0.02908870 0.00636923
v 0.00729422 0.02908870 0.00636923
v 0.00909178 0.03989961 0.01050791
v -0.00758215 0.02890888 0.01034390
v -0.00842181 0.03330002 0.00223054
v -0.00729439 0.02908862 0.00636923
v -0.00729439 0.02908862 0.00636923
v 0.00746979 0.02898735 0.00617264
v 0.00746979 0.02898735 0.00242713
v 0.00746979 0.02898735 0.00242713
v -0.00429864 0.00295986 0.01064486
v -0.00429864 0.00295986 0.01064486
v -0.00429864 0.00295986 0.00209359
v -0.00429864 0.00295986 0.00209359
v 0.00351784 0.04589346 0.00625434
v 0.00351784 0.05298832 0.00625434
v 0.00139958 0.09000000 0.00636923
v 0.00139958 0.09000000 0.00636923
v 0.00139958 0.09000000 0.00636923
v 0.00139958 0.09000000 0.00636923
v -0.02504562 -0.05929543 0.00001287
v -0.02504562 -0.05929543 0.01272559
v -0.00426611 0.02586674 0.00636923
v -0.02060990 -0.08392536 0.01130718
v -0.02060990 -0.08392536 0.01130718
v -0.02060990 -0.08392536 0.00143128
v -0.02060990 -0.08392536 0.00143128
v -0.00756212 -0.00300568 0.00180153
v -0.00756212 -0.00300568 0.00180153
v -0.00756212 -0.00300568 0.01093693
v -0.01503692 0.00010595 0.00202539
v -0.01503692 0.00010595 0.00202539
v -0.01503692 0.00010595 0.01071311
v -0.01503692 0.00010595 0.01071311
v 0.00020933 0.06434823 0.00308175
v -0.00434123 0.03602572 0.01031133
v -0.00434123 0.03602572 0.01031133
v -0.00434123 0.03602572 0.00656582
v -0.00434123 0.03602572 0.00656582
v -0.00434123 0.03602572 0.00656582
v 0.00453116 0.03569682 0.01031133
v 0.00453116 0.03569682 0.00656582
v 0.00453116 0.03569682 0.00656582
v 0.00453116 0.03569682 0.00656582
v 0.00858376 0.04726204 0.01006851
v 0.00012627 0.08964229 0.00703601
v 0.00012627 0.08964229 0.00703601
v -0.01317939 -0.00484669 0.00002864
v -0.01317939 -0.00484669 0.01270982
v -0.01317939 -0.00484669 0.01270982
v 0.00016770 0.04473790 0.00424704
v 0.00016770 0.04473790 0.00424704
v 0.00016770 0.05414389 0.00424704
v 0.00016770 0.05414389 0.00424704
v -0.00932545 0.00176556 0.01073430
v -0.00932545 0.00176556 0.01073430
v -0.00932545 0.00176556 0.00200416
v -0.00932545 0.00176556 0.00200416
v -0.00932545 0.00176556 0.00200416
v 0.00752065 0.03742281 0.00617264
v 0.00752065 0.03742281 0.00617264
v 0.00752065 0.03742281 0.00242713
v 0.00752065 0.03742281 0.00242713
v 0.00752065 0.03742281 0.00242713
v -0.02045818 -0.00570319 0.00655530
v -0.02045818 -0.00570319 0.00655530
v -0.02045818 -0.00570319 0.00618315
v -0.00018988 0.03842251 0.01031133
v -0.00018988 0.03842251 0.00656582
v -0.00018988 0.03842251 0.00656582
v -0.00018988 0.03842251 0.00656582
v -0.00018988 0.04187451 0.00617264
v -0.00018988 0.04187451 0.00617264
v -0.00018988 0.04187451 0.00242713
v -0.00018988 0.04187451 0.00242713
v -0.01306910 -0.00458455 0.01250864
v -0.01306910 -0.00458455 0.01250864
v -0.01306910 -0.00458455 0.01250864
v -0.01306910 -0.00458455 0.00022982
v -0.01306910 -0.00458455 0.00022982
v 0.00537685 0.03330002 0.00636923
v 0.00738461 0.05601979 0.00912199
v -0.00373487 0.02683101 0.00223054
v -0.01658135 -0.08240961 0.01273846
v -0.01658135 -0.08240961 0.01273846
v -0.01658135 -0.08240961 0.00000000
v -0.01658135 -0.08240961 0.00000000
v 0.00729456 0.03751155 0.00636923
v 0.00729456 0.03751155 0.00636923
v -0.01476790 0.00011655 0.01096677
v -0.01476790 0.00011655 0.01096677
v -0.01476790 0.00011655 0.00177169
v -0.01476790 0.00011655 0.00177169
v -0.00223663 0.00385229 0.00655497
v -0.00223663 0.00385229 0.00655497
v -0.00223663 0.00385229 0.00618348
v -0.00514062 -0.00285031 0.00655667
v -0.00514062 -0.00285031 0.00655667
v -0.00514062 -0.00285031 0.00655667
v -0.00514062 -0.00285031 0.00655667
v -0.00514062 -0.00285031 0.00618179
v -0.00514062 -0.00285031 0.00618179
v -0.00421090 0.04059354 0.00223054
v 0.00496174 0.04250036 0.01050791
v 0.00130286 0.08968401 0.00584701
v 0.00130286 0.08968401 0.00689145
v 0.00759631 0.03776318 0.00636923
v 0.00759631 0.03776318 0.00636923
v 0.00759631 0.03776318 0.01031133
v 0.00759631 0.03776318 0.01031133
v 0.00759631 0.03776318 0.00242713
v 0.00759631 0.03776318 0.00242713
v 0.00127902 0.08980697 0.00688151
v 0.00127902 0.08980697 0.00585694
v -0.00517336 0.03330002 0.01031133
v -0.00517336 0.03330002 0.00656582
v -0.00517336 0.03330002 0.00656582
v -0.00517336 0.03330002 0.00223054
v -0.01884095 -0.00583497 0.00160660
v -0.01884095 -0.00583497 0.00160660
v -0.01884095 -0.00583497 0.01113186
v 0.00878295 0.04714727 0.00636923
v 0.00878295 0.04714727 0.00636923
v 0.00878295 0.04714727 0.00289037
v 0.00878295 0.04714727 0.00984808
v 0.00884122 0.04337495 0.00245391
v -0.02265876 -0.08409546 0.00618551
v -0.02265876 -0.08409546 0.00618551
v -0.02265876 -0.08409546 0.00655299
v -0.02265876 -0.08409546 0.00655299
v -0.02265876 -0.08409546 0.00655299
v -0.00424194 0.02552910 0.01034394
v -0.01169290 -0.08275200 0.00167675
v -0.01169290 -0.08275200 0.01106175
v -0.00729427 0.03751138 0.00636923
v -0.00729427 0.03751138 0.00636923
v -0.00729427 0.03751138 0.00636923
v -0.00023797 0.00736996 0.00636923
v -0.02975838 -0.03241670 0.00167828
v -0.02975838 -0.03241670 0.01106018
v -0.03157109 -0.03237792 0.00618531
v -0.03157109 -0.03237792 0.00655315
v -0.00725284 -0.00297638 0.01068757
v -0.00725284 -0.00297638 0.01068757
v -0.00725284 -0.00297638 0.00205088
v -0.00729352 0.03751093 0.00223054
v -0.00425275 0.00261677 0.00187189
v -0.00425275 0.00261677 0.01086657
v -0.00425275 0.00261677 0.01086657
v -0.00392695 0.00301371 0.00223783
v -0.00392695 0.00301371 0.00223783
v -0.00392695 0.00301371 0.00223783
v -0.00392695 0.00301375 0.01050067
v -0.00392695 0.00301375 0.01050067
v -0.00258668 0.02881977 0.01031133
v -0.00258668 0.02881977 0.01031133
v -0.00258668 0.02881977 0.00656582
v -0.00258668 0.02881977 0.00656582
v -0.00258668 0.02881977 0.00656582
v -0.00258668 0.02881977 0.00223054
v -0.00258668 0.03778027 0.01031133
v -0.00258668 0.03778027 0.00656582
v -0.00258668 0.03778027 0.00656582
v -0.00258668 0.03778027 0.00223054
v -0.01652709 -0.01105919 0.00001809
v -0.01652709 -0.01105919 0.01272037
v 0.00118780 0.08949160 0.00702136
v -0.01619600 -0.00008025 0.00636923
v -0.01973834 -0.08575797 0.00152349
v -0.01973834 -0.08575797 0.01121497
v -0.00465631 0.03061170 0.00636923
v -0.01270324 -0.00448290 0.01240641
v -0.01270324 -0.00448290 0.01240641
v -0.01270324 -0.00448290 0.00033205
v -0.01270324 -0.00448290 0.00033205
v -0.01270324 -0.00448290 0.00033205
v 0.00390183 0.06142896 0.00983550
v -0.01581553 -0.00008050 0.00636923
v -0.01581553 -0.00008050 0.00636923
v -0.01457951 0.00026401 0.01079501
v -0.01457951 0.00026401 0.01079501
v -0.01457951 0.00026401 0.01079501
v -0.01457951 0.00026401 0.00194344
v -0.01457951 0.00026401 0.00194344
v -0.01457951 0.00026401 0.00194344
v -0.00496982 0.03330002 0.01050791
v -0.00496982 0.03330002 0.01050791
v -0.00496982 0.03330002 0.01050791
v -0.00978886 -0.08613439 0.00655878
v -0.00978886 -0.08613439 0.00655878
v -0.00978886 -0.08613439 0.00655878
v -0.00978886 -0.08613439 0.00617968
v -0.00978886 -0.08613439 0.00617968
v -0.00709242 -0.00331335 0.00190855
v -0.00709242 -0.00331335 0.00190855
v -0.00709242 -0.00331335 0.00190855
v -0.00709242 -0.00331335 0.01082990
v -0.00709242 -0.00331335 0.01082990
v -0.00709242 -0.00331335 0.01082990
v 0.00017842 0.04944089 0.00406195
v 0.00017842 0.04467106 0.00406195
v 0.00017842 0.04467106 0.00406195
v 0.00017842 0.05421073 0.00406195
v 0.00017842 0.05421073 0.00406195
v -0.01961840 -0.08613414 0.00169185
v -0.01961840 -0.08613414 0.01104660
v 0.00433432 0.04934429 0.00225004
f 830 573 687
f 900 324 903
f 829 688 572
f 790 98 124
f 158 621 924
f 789 125 99
f 923 620 157
f 380 517 209
f 162 165 861
f 882 378 206
f 225 227 79
f 899 434 348
f 344 437 897
f 270 44 652
f 677 647 39
f 397 480 339
f 407 147 388
f 542 534 45
f 538 892 36
f 791 342 483
f 334 735 676
f 423 421 267
f 520 509 731
f 692 498 413
f 519 733 507
f 359 724 896
f 364 884 719
f 721 271 934
f 362 272 725
f 581 758 59
f 925 655 184
f 584 63 757
f 707 560 183
f 931 935 726
f 937 933 684
f 96 496 503
f 909 905 809
f 910 528 907
f 291 277 295
f 417 623 27
f 607 804 155
f 290 293 315
f 146 180 235
f 220 21 439
f 405 802 606
f 17 736 817
f 710 947 283
f 285 683 513
f 181 72 492
f 456 541 24
f 700 332 94
f 353 329 699
f 462 638 880
f 759 366 555
f 229 875 695
f 632 468 485
f 814 813 152
f 161 618 299
f 382 97 890
f 471 633 827
f 877 230 823
f 557 368 191
f 639 464 825
f 409 384 217
f 458 927 889
f 458 889 130
f 488 162 869
f 488 869 686
f 401 939 111
f 401 111 924
f 926 821 131
f 926 131 888
f 871 164 489
f 871 489 685
f 788 394 371
f 788 371 375
f 902 99 573
f 902 573 852
f 942 399 923
f 942 923 112
f 460 561 522
f 460 522 378
f 927 458 459
f 927 459 562
f 810 264 883
f 810 883 258
f 686 150 148
f 686 148 488
f 149 431 887
f 149 887 151
f 532 794 395
f 532 395 373
f 529 793 591
f 529 591 428
f 574 314 830
f 574 830 158
f 572 98 900
f 572 900 849
f 151 685 489
f 151 489 149
f 561 460 821
f 561 821 926
f 429 263 264
f 429 264 810
f 576 157 829
f 576 829 312
f 940 402 788
f 940 788 375
f 371 394 793
f 371 793 529
f 822 430 811
f 822 811 265
f 374 396 400
f 374 400 944
f 886 432 148
f 886 148 150
f 487 263 429
f 487 429 840
f 430 822 140
f 430 140 839
f 426 589 794
f 426 794 532
f 487 840 325
f 487 325 246
f 712 747 130
f 712 130 889
f 171 226 432
f 171 432 886
f 245 327 839
f 245 839 140
f 748 714 888
f 748 888 131
f 609 214 716
f 609 716 614
f 431 224 174
f 431 174 887
f 265 811 260
f 265 260 517
f 562 459 381
f 562 381 524
f 186 108 785
f 186 785 837
f 77 782 739
f 77 739 834
f 784 77 834
f 784 834 737
f 899 139 255
f 899 255 866
f 567 753 122
f 567 122 660
f 105 190 835
f 105 835 787
f 212 612 616
f 212 616 715
f 751 570 659
f 751 659 123
f 349 115 443
f 349 443 238
f 346 858 275
f 346 275 239
f 772 132 642
f 772 642 357
f 860 349 238
f 860 238 274
f 137 898 864
f 137 864 253
f 844 729 262
f 844 262 673
f 135 769 356
f 135 356 644
f 118 346 239
f 118 239 441
f 762 129 252
f 762 252 544
f 436 202 953
f 436 953 777
f 768 141 696
f 768 696 680
f 625 798 308
f 625 308 646
f 796 625 646
f 796 646 311
f 249 129 762
f 249 762 547
f 678 698 143
f 678 143 765
f 779 951 200
f 779 200 435
f 758 397 520
f 758 520 937
f 756 936 519
f 756 519 791
f 387 182 177
f 387 177 383
f 10 47 50
f 10 50 6
f 734 921 559
f 734 559 588
f 848 820 438
f 848 438 398
f 398 270 885
f 398 885 848
f 653 721 718
f 653 718 651
f 690 657 533
f 690 533 535
f 333 411 750
f 333 750 223
f 147 945 500
f 147 500 847
f 648 722 725
f 648 725 649
f 167 928 662
f 167 662 170
f 582 579 479
f 582 479 481
f 71 147 847
f 71 847 94
f 6 50 43
f 6 43 7
f 579 583 482
f 579 482 479
f 338 341 505
f 338 505 504
f 32 35 57
f 32 57 51
f 242 272 528
f 242 528 404
f 340 338 504
f 340 504 510
f 38 32 51
f 38 51 52
f 895 433 599
f 895 599 808
f 120 518 433
f 120 433 895
f 744 100 101
f 744 101 745
f 848 885 269
f 848 269 218
f 847 500 542
f 847 542 543
f 664 929 795
f 664 795 409
f 893 412 333
f 893 333 247
f 51 61 60
f 51 60 52
f 316 514 672
f 316 672 831
f 855 167 170
f 855 170 211
f 510 504 268
f 510 268 478
f 677 587 120
f 677 120 895
f 504 505 474
f 504 474 268
f 693 539 536
f 693 536 658
f 403 925 922
f 403 922 334
f 363 934 910
f 363 910 909
f 906 907 362
f 906 362 360
f 57 64 61
f 57 61 51
f 746 104 100
f 746 100 744
f 307 169 168
f 307 168 854
f 411 95 447
f 411 447 750
f 499 746 744
f 499 744 496
f 673 645 126
f 673 126 844
f 515 210 736
f 515 736 938
f 300 743 672
f 300 672 514
f 831 672 841
f 831 841 304
f 289 709 710
f 289 710 291
f 404 528 271
f 404 271 240
f 353 694 918
f 353 918 205
f 298 514 316
f 298 316 624
f 146 820 848
f 146 848 218
f 704 703 73
f 704 73 75
f 929 665 406
f 929 406 795
f 30 1 248
f 30 248 97
f 450 602 601
f 450 601 449
f 288 759 668
f 288 668 352
f 418 416 382
f 418 382 160
f 669 604 607
f 669 607 671
f 248 879 284
f 248 284 97
f 205 918 297
f 205 297 337
f 315 153 826
f 315 826 354
f 319 281 282
f 319 282 321
f 329 491 494
f 329 494 330
f 619 890 948
f 619 948 512
f 894 192 891
f 894 891 792
f 736 25 484
f 736 484 711
f 383 177 179
f 383 179 385
f 820 824 31
f 820 31 438
f 438 31 551
f 438 551 702
f 711 484 192
f 711 192 894
f 628 233 236
f 628 236 630
f 405 828 153
f 405 153 315
f 219 669 671
f 219 671 222
f 210 515 586
f 210 586 354
f 337 297 759
f 337 759 288
f 169 666 930
f 169 930 168
f 284 879 550
f 284 550 278
f 815 319 321
f 815 321 818
f 801 292 296
f 801 296 803
f 156 486 552
f 156 552 445
f 352 668 1
f 352 1 30
f 792 891 193
f 792 193 146
f 702 551 828
f 702 828 405
f 454 699 701
f 454 701 457
f 76 73 703
f 76 703 706
f 938 645 673
f 938 673 515
f 710 73 76
f 710 76 285
f 146 193 824
f 146 824 820
f 94 847 543
f 94 543 540
f 392 634 632
f 392 632 391
f 70 41 694
f 70 694 353
f 11 15 26
f 11 26 12
f 298 682 300
f 298 300 514
f 673 262 586
f 673 586 515
f 13 16 15
f 13 15 11
f 210 553 25
f 210 25 736
f 445 552 41
f 445 41 70
f 525 703 704
f 525 704 594
f 709 75 73
f 709 73 710
f 367 601 602
f 367 602 369
f 82 81 556
f 82 556 557
f 82 4 3
f 82 3 81
f 4 92 90
f 4 90 3
f 91 465 463
f 91 463 89
f 639 392 391
f 639 391 637
f 470 86 85
f 470 85 469
f 86 67 66
f 86 66 85
f 67 231 229
f 67 229 66
f 876 450 449
f 876 449 874
f 278 550 486
f 278 486 156
f 814 424 916
f 814 916 198
f 672 743 564
f 672 564 841
f 281 628 630
f 281 630 282
f 196 913 807
f 196 807 812
f 808 599 269
f 808 269 885
f 354 826 553
f 354 553 210
f 706 703 525
f 706 525 596
f 23 10 6
f 23 6 19
f 19 6 7
f 19 7 20
f 575 110 113
f 575 113 578
f 172 328 608
f 172 608 781
f 326 173 783
f 326 783 610
f 747 752 216
f 747 216 244
f 246 213 754
f 246 754 749
f 591 713 569
f 591 569 109
f 712 590 106
f 712 106 571
f 428 185 188
f 428 188 425
f 314 313 851
f 314 851 853
f 139 859 133
f 139 133 697
f 796 114 199
f 796 199 251
f 698 136 857
f 698 857 138
f 800 250 201
f 800 201 117
f 680 774 771
f 680 771 679
f 740 613 952
f 740 952 549
f 950 615 738
f 950 738 546
f 123 865 776
f 123 776 717
f 715 778 867
f 715 867 121
f 785 661 257
f 785 257 142
f 659 786 144
f 659 144 254
f 837 766 764
f 837 764 836
f 911 641 273
f 911 273 128
f 593 728 442
f 593 442 310
f 306 276 643
f 306 643 917
f 597 309 440
f 597 440 565
f 197 355 358
f 197 358 195
f 18 221 69
f 18 69 452
f 819 29 414
f 819 414 15
f 491 204 237
f 491 237 178
f 886 150 430
f 886 430 839
f 687 621 158
f 687 158 830
f 900 98 790
f 900 790 322
f 840 429 151
f 840 151 887
f 323 789 99
f 323 99 902
f 621 521 401
f 621 401 924
f 523 620 923
f 523 923 399
f 924 111 574
f 924 574 158
f 431 149 148
f 431 148 432
f 111 939 943
f 111 943 113
f 260 811 686
f 260 686 869
f 620 688 829
f 620 829 157
f 871 685 810
f 871 810 258
f 140 822 458
f 140 458 130
f 926 888 793
f 926 793 394
f 171 886 839
f 171 839 327
f 395 794 889
f 395 889 927
f 325 840 887
f 325 887 174
f 224 431 432
f 224 432 226
f 372 530 532
f 372 532 373
f 245 140 130
f 245 130 747
f 162 488 489
f 162 489 164
f 157 576 112
f 157 112 923
f 125 687 573
f 125 573 99
f 98 572 688
f 98 688 124
f 562 524 400
f 562 400 396
f 788 402 522
f 788 522 561
f 374 944 941
f 374 941 376
f 259 125 789
f 259 789 872
f 373 374 376
f 373 376 372
f 870 790 124
f 870 124 261
f 265 517 381
f 265 381 459
f 927 562 396
f 927 396 395
f 429 810 685
f 429 685 151
f 394 788 561
f 394 561 926
f 150 686 811
f 150 811 430
f 263 487 131
f 263 131 821
f 488 148 149
f 488 149 489
f 883 264 460
f 883 460 378
f 264 263 821
f 264 821 460
f 822 265 459
f 822 459 458
f 487 246 748
f 487 748 131
f 888 714 591
f 888 591 793
f 794 589 712
f 794 712 889
f 531 427 426
f 531 426 532
f 714 748 755
f 714 755 568
f 327 245 215
f 327 215 608
f 226 171 780
f 226 780 79
f 589 426 189
f 589 189 107
f 747 712 571
f 747 571 752
f 109 185 428
f 109 428 591
f 78 783 174
f 78 174 224
f 611 213 246
f 611 246 325
f 852 573 830
f 852 830 314
f 902 852 850
f 902 850 901
f 572 849 312
f 572 312 829
f 314 574 577
f 314 577 313
f 212 715 122
f 212 122 753
f 187 838 835
f 187 835 190
f 609 614 739
f 609 739 782
f 567 660 785
f 567 785 108
f 751 123 716
f 751 716 214
f 105 787 659
f 105 659 570
f 779 435 899
f 779 899 866
f 255 139 696
f 255 696 141
f 143 698 137
f 143 137 253
f 767 681 678
f 767 678 765
f 252 129 626
f 252 626 797
f 856 345 898
f 856 898 137
f 435 200 116
f 435 116 347
f 770 136 698
f 770 698 678
f 680 696 134
f 680 134 774
f 799 627 129
f 799 129 249
f 343 119 202
f 343 202 436
f 139 899 348
f 139 348 859
f 249 547 953
f 249 953 202
f 200 951 544
f 200 544 252
f 436 777 864
f 436 864 898
f 660 122 868
f 660 868 256
f 614 716 775
f 614 775 952
f 834 739 548
f 834 548 761
f 787 835 763
f 787 763 145
f 123 659 254
f 123 254 865
f 142 766 837
f 142 837 785
f 760 545 737
f 760 737 834
f 949 778 715
f 949 715 616
f 311 646 526
f 311 526 595
f 305 843 239
f 305 239 275
f 238 443 727
f 238 727 845
f 197 915 644
f 197 644 356
f 357 642 912
f 357 912 194
f 598 527 646
f 598 646 308
f 842 563 441
f 842 441 239
f 274 238 846
f 274 846 127
f 860 274 642
f 860 642 132
f 796 311 443
f 796 443 115
f 135 644 275
f 135 275 858
f 118 441 308
f 118 308 798
f 773 358 356
f 773 356 769
f 433 518 403
f 433 403 211
f 587 677 39
f 587 39 54
f 520 397 339
f 520 339 509
f 689 534 542
f 689 542 500
f 408 667 945
f 408 945 147
f 412 893 537
f 412 537 691
f 746 499 693
f 746 693 658
f 307 588 223
f 307 223 750
f 55 36 893
f 55 893 247
f 507 342 791
f 507 791 519
f 49 46 535
f 49 535 533
f 536 539 37
f 536 37 34
f 267 473 176
f 267 176 423
f 479 482 341
f 479 341 338
f 270 398 8
f 270 8 44
f 42 48 653
f 42 653 651
f 648 649 33
f 648 33 40
f 476 266 420
f 476 420 175
f 481 479 338
f 481 338 340
f 922 420 422
f 922 422 920
f 404 240 101
f 404 101 100
f 175 730 508
f 175 508 477
f 475 506 732
f 475 732 176
f 937 520 730
f 937 730 932
f 808 885 365
f 808 365 908
f 718 721 934
f 718 934 363
f 360 362 725
f 360 725 722
f 910 934 271
f 910 271 528
f 649 725 272
f 649 272 242
f 723 647 677
f 723 677 895
f 652 720 885
f 652 885 270
f 721 653 240
f 721 240 271
f 169 307 750
f 169 750 447
f 599 433 211
f 599 211 170
f 657 690 501
f 657 501 745
f 397 758 580
f 397 580 480
f 758 587 53
f 758 53 58
f 518 656 925
f 518 925 403
f 483 585 756
f 483 756 791
f 62 56 247
f 62 247 756
f 588 559 707
f 588 707 223
f 334 922 919
f 334 919 735
f 519 936 931
f 519 931 732
f 60 61 579
f 60 579 582
f 61 64 583
f 61 583 579
f 242 404 100
f 242 100 104
f 497 495 95
f 497 95 411
f 895 808 904
f 895 904 361
f 362 907 528
f 362 528 272
f 666 169 447
f 666 447 945
f 269 599 170
f 269 170 662
f 909 910 907
f 909 907 906
f 104 746 658
f 104 658 536
f 533 657 745
f 533 745 101
f 424 12 318
f 424 318 832
f 586 262 705
f 586 705 74
f 645 938 14
f 645 14 805
f 708 290 315
f 708 315 354
f 280 320 711
f 280 711 894
f 629 280 894
f 629 894 792
f 234 629 792
f 234 792 146
f 670 220 438
f 670 438 702
f 605 670 702
f 605 702 405
f 294 802 405
f 294 405 315
f 296 292 289
f 296 289 291
f 23 19 453
f 23 453 455
f 287 350 321
f 287 321 282
f 155 444 671
f 155 671 607
f 336 286 282
f 336 282 630
f 279 154 803
f 279 803 296
f 19 20 219
f 19 219 222
f 9 24 540
f 9 540 543
f 15 16 815
f 15 815 818
f 320 816 736
f 320 736 711
f 94 540 456
f 94 456 700
f 446 69 222
f 446 222 671
f 493 490 177
f 493 177 182
f 298 624 417
f 298 417 159
f 463 465 639
f 463 639 637
f 632 634 470
f 632 470 469
f 179 177 236
f 179 236 233
f 801 803 607
f 801 607 604
f 283 277 291
f 283 291 710
f 351 28 818
f 351 818 321
f 203 335 630
f 203 630 236
f 382 416 30
f 382 30 97
f 699 454 70
f 699 70 353
f 71 94 331
f 71 331 492
f 229 231 876
f 229 876 874
f 491 329 353
f 491 353 205
f 329 330 701
f 329 701 699
f 285 76 302
f 285 302 683
f 354 586 74
f 354 74 708
f 938 736 17
f 938 17 14
f 12 26 622
f 12 622 317
f 636 390 550
f 636 550 879
f 88 461 879
f 88 879 248
f 2 88 248
f 2 248 1
f 80 2 1
f 80 1 668
f 554 80 668
f 554 668 759
f 600 366 759
f 600 759 297
f 448 600 297
f 448 297 918
f 873 448 918
f 873 918 694
f 65 228 694
f 65 694 41
f 84 65 41
f 84 41 552
f 467 84 552
f 467 552 486
f 390 631 486
f 390 486 550
f 367 369 557
f 367 557 556
f 682 298 617
f 682 617 511
f 948 890 97
f 948 97 284
f 76 706 742
f 76 742 301
f 706 596 566
f 706 566 741
f 196 812 814
f 196 814 198
f 153 828 635
f 153 635 393
f 828 551 87
f 828 87 472
f 551 31 68
f 551 68 87
f 31 824 232
f 31 232 68
f 824 193 451
f 824 451 878
f 193 891 603
f 193 603 451
f 891 192 370
f 891 370 603
f 192 484 83
f 192 83 558
f 484 25 5
f 484 5 83
f 25 553 93
f 25 93 5
f 553 826 466
f 553 466 93
f 826 153 393
f 826 393 640
f 710 285 513
f 710 513 946
f 26 15 415
f 26 415 419
f 890 619 160
f 890 160 382
f 916 424 833
f 916 833 303
f 383 385 409
f 383 409 795
f 386 180 146
f 386 146 218
f 218 269 663
f 218 663 410
f 795 406 387
f 795 387 383
f 45 9 543
f 45 543 542
f 147 71 181
f 147 181 389
f 398 438 22
f 398 22 8
f 784 737 616
f 784 616 612
f 262 729 592
f 262 592 705
f 126 645 806
f 126 806 914
f 374 373 395
f 374 395 396
f 523 688 620
f 688 523 379
f 688 379 208
f 125 207 687
f 207 125 881
f 881 125 259
f 208 124 688
f 124 208 516
f 124 516 261
f 863 789 323
f 789 863 872
f 872 863 166
f 790 862 322
f 862 790 870
f 862 870 163
f 687 521 621
f 521 687 377
f 377 687 207
f 423 559 921
f 559 423 183
f 183 423 176
f 176 707 183
f 707 176 732
f 707 732 931
f 656 175 184
f 175 656 730
f 730 656 932
f 120 656 518
f 656 120 684
f 656 684 932
f 925 420 922
f 420 925 184
f 420 184 175
f 447 500 945
f 500 447 95
f 500 95 502
f 707 333 223
f 333 707 726
f 726 707 931
f 211 675 855
f 675 211 403
f 675 403 334
f 726 247 333
f 247 726 936
f 247 936 756
f 674 307 854
f 307 674 588
f 588 674 734
f 587 684 120
f 684 587 937
f 937 587 758
f 503 745 501
f 745 503 496
f 745 496 744
f 13 812 807
f 812 13 152
f 152 13 11
f 152 424 814
f 424 152 12
f 12 152 11
f 533 654 49
f 654 533 102
f 654 102 241
f 103 650 243
f 650 103 536
f 650 536 34
f 1690 1576 1560
f 1430 1348 1003
f 1308 1001 1344
f 1568 1624 1507
f 1557 1578 1314
f 1443 1005 1435
f 1439 999 1100
f 1569 1508 1625
f 1724 1197 1342
f 1755 986 1172
f 1728 1201 1634
f 1679 1122 1682
f 1553 1369 983
f 1386 1187 1823
f 1681 1685 1692
f 1022 1799 1750
f 1761 971 1445
f 1833 1189 1389
f 965 1371 1170
f 1257 1636 1310
f 1707 1545 1548
f 1278 1033 1694
f 1691 1304 1469
f 1593 1495 1796
f 1520 1441 969
f 1463 1609 1476
f 1554 1487 1294
f 1462 1473 1611
f 1286 1641 1164
f 1259 1642 1288
f 1594 1096 1265
f 1598 1261 1106
f 1264 1601 1702
f 1597 1268 1703
f 1733 1016 1236
f 1854 1059 1793
f 1406 1235 1020
f 1425 1051 1792
f 1042 1049 1260
f 1050 1043 1301
f 1486 1894 1481
f 1083 1181 1079
f 1085 1081 1450
f 1204 1729 1223
f 1757 1175 981
f 1199 1726 1391
f 1176 1178 1825
f 1819 1375 1678
f 1580 1710 1101
f 1093 1535 1615
f 1619 1534 1094
f 1158 1411 1297
f 1090 1646 1088
f 1159 1298 1412
f 1208 1893 1857
f 1820 1372 1060
f 1209 1856 1892
f 1061 1373 1821
f 1581 1465 1771
f 1817 1815 1121
f 1108 1584 1773
f 1754 1753 1024
f 1155 1313 1143
f 1155 1143 1671
f 1561 1738 1702
f 1561 1702 1450
f 1165 1069 993
f 1165 993 1444
f 1237 1044 1464
f 1237 1464 1568
f 1324 1558 1196
f 1324 1196 1054
f 1235 1569 1462
f 1235 1462 1042
f 1142 1421 1249
f 1142 1249 1312
f 1451 1281 1283
f 1451 1283 1395
f 1165 1444 1431
f 1165 1431 1480
f 1574 1794 1798
f 1574 1798 1577
f 957 954 1007
f 957 1007 1006
f 1199 1804 1802
f 1199 1802 1198
f 1259 1354 1224
f 1259 1224 1776
f 1676 1468 1658
f 1676 1658 1367
f 1022 1165 1480
f 1022 1480 1314
f 1283 1281 1026
f 1283 1026 1029
f 1575 1797 1794
f 1575 1794 1574
f 990 966 1323
f 990 1323 1710
f 1687 1401 1390
f 1687 1390 1614
f 1553 1549 1580
f 1553 1580 1819
f 1316 1387 1386
f 1316 1386 1315
f 1323 1858 1693
f 1323 1693 1710
f 1776 1224 1768
f 1776 1768 1627
f 1692 1805 1651
f 1692 1651 1418
f 1654 1697 1695
f 1654 1695 1653
f 1642 1499 1497
f 1642 1497 1639
f 1063 1319 1318
f 1063 1318 1062
f 1374 1101 1035
f 1374 1035 1470
f 1086 1321 1128
f 1086 1128 1285
f 1370 976 1065
f 1370 1065 1136
f 1022 1322 1069
f 1022 1069 1165
f 967 954 957
f 967 957 970
f 1444 993 1851
f 1444 1851 1790
f 1136 1065 1321
f 1136 1321 1086
f 1362 1751 1747
f 1362 1747 1361
f 1833 1652 1805
f 1833 1805 1692
f 1762 1316 1315
f 1762 1315 1760
f 1770 1467 1098
f 1770 1098 1418
f 1351 1349 1262
f 1351 1262 1264
f 1292 1434 1432
f 1638 1426 1422
f 1638 1422 1554
f 1627 1768 1401
f 1627 1401 1687
f 1181 1107 1656
f 1181 1656 1732
f 1693 1858 1343
f 1693 1343 1124
f 1168 1654 1653
f 1168 1653 1166
f 1188 1684 1683
f 1188 1683 1186
f 1824 1392 1403
f 1824 1403 1526
f 1614 1390 966
f 1614 966 990
f 1285 1128 1322
f 1285 1322 1022
f 1790 1851 1652
f 1790 1652 1833
f 1770 1370 1657
f 1770 1657 1467
f 1345 1346 1268
f 1345 1268 1267
f 1636 1071 1058
f 1636 1058 1562
f 1593 1690 1791
f 1593 1791 1164
f 1164 1791 1442
f 1164 1442 1440
f 1676 1303 1673
f 1676 1673 1468
f 1027 1026 1281
f 1027 1281 1282
f 1026 1027 1691
f 1026 1691 1278
f 1733 1506 1505
f 1733 1505 1404
f 1054 1196 1556
f 1054 1556 1328
f 968 956 954
f 968 954 967
f 954 956 1004
f 954 1004 1007
f 989 980 1354
f 989 1354 1259
f 1404 1505 1509
f 1404 1509 1407
f 1622 1471 1474
f 1622 1474 1626
f 994 1008 1012
f 994 1012 997
f 1740 1561 1450
f 1740 1450 1703
f 1623 1475 1471
f 1623 1471 1622
f 1000 1011 1008
f 1000 1008 994
f 1811 1809 1053
f 1811 1053 1329
f 1791 1690 1656
f 1791 1656 1107
f 1097 1181 1732
f 1097 1732 1118
f 1864 1097 1118
f 1864 1118 1567
f 1246 1247 1888
f 1246 1888 1887
f 1442 1791 1107
f 1442 1107 1430
f 1480 1431 1443
f 1480 1443 1478
f 1810 1812 1325
f 1810 1325 1055
f 1099 1722 1638
f 1099 1638 1555
f 1011 1017 1018
f 1011 1018 1008
f 1313 1251 1419
f 1313 1419 1143
f 1134 1769 1812
f 1134 1812 1810
f 1475 1513 1705
f 1475 1705 1471
f 1308 1097 1864
f 1308 1864 1402
f 1471 1705 1512
f 1471 1512 1474
f 1296 1336 1437
f 1296 1437 1439
f 1400 1425 1070
f 1400 1070 1258
f 960 964 963
f 960 963 959
f 959 963 982
f 959 982 962
f 1657 1154 1312
f 1657 1312 1467
f 1312 1249 1098
f 1312 1098 1467
f 1599 1082 1085
f 1599 1085 1601
f 1804 1649 1648
f 1804 1648 1802
f 1008 1018 1021
f 1008 1021 1012
f 1248 1246 1887
f 1248 1887 1891
f 1669 1135 1809
f 1669 1809 1811
f 1523 1288 1287
f 1523 1287 1519
f 1770 1847 976
f 1770 976 1370
f 1526 1403 980
f 1526 980 989
f 1312 1154 1672
f 1312 1672 1142
f 1783 1076 1184
f 1783 1184 1177
f 1029 1026 1278
f 1029 1278 1280
f 1846 975 973
f 1846 973 1843
f 1649 1845 1842
f 1649 1842 1648
f 1849 1725 1723
f 1849 1723 1848
f 1758 1849 1848
f 1758 1848 1755
f 1078 1596 1597
f 1078 1597 1081
f 1127 1730 1728
f 1127 1728 1125
f 1319 1127 1125
f 1319 1125 1318
f 1067 1174 1171
f 1067 1171 1066
f 975 1063 1062
f 975 1062 973
f 1680 1280 1278
f 1680 1278 1679
f 1205 1067 1066
f 1205 1066 1202
f 1124 1343 1392
f 1124 1392 1824
f 1282 1281 1451
f 1282 1451 1393
f 1176 1185 1074
f 1176 1074 1781
f 1697 1362 1361
f 1697 1361 1695
f 1092 1834 1715
f 1092 1715 1115
f 1418 1651 1847
f 1418 1847 1770
f 1314 1480 1478
f 1314 1478 1813
f 1554 1422 1592
f 1554 1592 1894
f 1488 1484 1246
f 1488 1246 1248
f 1673 1251 1313
f 1673 1313 1468
f 1617 1871 1529
f 1617 1529 1746
f 1621 1133 1699
f 1621 1699 1743
f 1225 1837 1358
f 1225 1358 1602
f 1130 1617 1746
f 1130 1746 1701
f 1835 1095 1117
f 1835 1117 1717
f 1385 1763 1269
f 1385 1269 1380
f 1840 1227 1604
f 1840 1604 1355
f 1867 1621 1743
f 1867 1743 1532
f 1234 1855 1719
f 1234 1719 1429
f 1533 1778 1031
f 1533 1031 1221
f 1231 1832 1290
f 1231 1290 1305
f 1364 1190 1668
f 1364 1668 1866
f 1193 1364 1866
f 1193 1866 1666
f 1720 1855 1234
f 1720 1234 1427
f 1306 1289 1831
f 1306 1831 1232
f 1220 1032 1780
f 1220 1780 1536
f 1163 1056 1102
f 1163 1102 1853
f 1502 1818 1113
f 1502 1113 1299
f 1563 1041 1880
f 1563 1880 1060
f 1057 1162 1852
f 1057 1852 1103
f 1111 1815 1501
f 1111 1501 1300
f 1572 1571 1588
f 1572 1588 1589
f 1087 1892 1411
f 1087 1411 1140
f 1038 1565 1061
f 1038 1061 1876
f 1516 1424 1461
f 1516 1461 1584
f 1056 1163 1517
f 1056 1517 1423
f 1180 1708 1109
f 1180 1109 1713
f 1299 1827 1829
f 1299 1829 1502
f 1828 1538 1104
f 1828 1104 1826
f 1448 1206 1570
f 1448 1570 1587
f 1449 1207 1396
f 1449 1396 1541
f 1410 1661 1158
f 1410 1158 1820
f 1412 1893 1089
f 1412 1089 1137
f 1826 1300 1501
f 1826 1501 1828
f 1424 1516 1162
f 1424 1162 1057
f 1540 1161 1708
f 1540 1708 1180
f 1408 1821 1159
f 1408 1159 1662
f 1040 1564 1572
f 1040 1572 1589
f 1588 1571 1207
f 1588 1207 1449
f 1160 1539 1179
f 1160 1179 1709
f 1591 1573 1566
f 1591 1566 1037
f 1105 1537 1829
f 1105 1829 1827
f 1503 1161 1540
f 1503 1540 1144
f 1539 1160 1504
f 1539 1504 1145
f 1543 1398 1206
f 1543 1206 1448
f 1503 1144 1645
f 1503 1645 1735
f 1276 1243 1853
f 1276 1853 1102
f 1808 1752 1537
f 1808 1537 1105
f 1737 1643 1145
f 1737 1145 1504
f 1244 1274 1103
f 1244 1103 1852
f 1538 1754 1807
f 1538 1807 1104
f 1709 1179 1711
f 1709 1711 1465
f 1423 1517 1582
f 1423 1582 1459
f 1788 1881 1214
f 1788 1214 1146
f 1023 1219 1253
f 1023 1253 1152
f 1217 1023 1152
f 1217 1152 1256
f 1591 1587 1570
f 1591 1570 1573
f 1416 1238 1861
f 1416 1861 1332
f 1884 1784 1148
f 1884 1148 1212
f 1766 1382 1377
f 1766 1377 1272
f 1241 1413 1334
f 1241 1334 1859
f 1521 967 1759
f 1521 1759 988
f 1167 992 1550
f 1167 1550 963
f 1500 1776 1748
f 1500 1748 1795
f 1834 1129 1838
f 1834 1838 1291
f 1194 1870 1779
f 1194 1779 1718
f 1289 1841 1132
f 1289 1132 1836
f 1192 1721 1777
f 1192 1777 1868
f 1305 1226 1230
f 1305 1230 1307
f 1427 1252 1379
f 1427 1379 1030
f 1032 1376 1255
f 1032 1255 1428
f 1117 1222 1271
f 1117 1271 1860
f 1220 1116 1863
f 1220 1863 1273
f 1832 1213 1331
f 1832 1331 1716
f 1717 1333 1210
f 1717 1210 1830
f 1231 1233 1151
f 1231 1151 1147
f 1672 1077 1360
f 1672 1360 1700
f 1421 1528 1664
f 1421 1664 1394
f 1671 1698 1357
f 1671 1357 1075
f 1393 1667 1531
f 1393 1531 1420
f 1783 1782 1606
f 1783 1606 1603
f 1410 1879 1878
f 1410 1878 1409
f 1808 1644 1383
f 1808 1383 1218
f 1645 1806 1215
f 1645 1215 1381
f 1243 1242 1765
f 1243 1765 1736
f 1735 1767 1239
f 1735 1239 1245
f 1397 1275 1417
f 1397 1417 1882
f 1415 1277 1399
f 1415 1399 1885
f 1541 1789 1786
f 1541 1786 1542
f 1661 1663 1139
f 1661 1139 1141
f 1185 962 1660
f 1185 1660 1156
f 1559 1326 1656
f 1559 1656 1690
f 1769 1562 1567
f 1769 1567 1118
f 1009 1001 1308
f 1009 1308 1402
f 1477 1624 1568
f 1477 1568 1464
f 1098 1249 1284
f 1098 1284 1028
f 1154 1657 961
f 1154 961 1182
f 1478 1443 1435
f 1478 1435 1293
f 1314 1813 1327
f 1314 1327 1557
f 1295 1438 1099
f 1295 1099 1555
f 1336 1296 1488
f 1336 1488 1248
f 1422 1426 1400
f 1422 1400 1669
f 1722 1099 998
f 1722 998 1014
f 1462 1569 1625
f 1462 1625 1473
f 1574 1577 1556
f 1574 1556 1196
f 1433 1436 1006
f 1433 1006 1007
f 996 999 1439
f 996 1439 1437
f 1547 1801 1510
f 1547 1510 1704
f 1622 1626 1509
f 1622 1509 1505
f 1279 1681 1692
f 1279 1692 1418
f 1696 1655 1136
f 1696 1136 1086
f 1363 1696 1086
f 1363 1086 1285
f 1749 1363 1285
f 1749 1285 1022
f 1317 1761 1444
f 1317 1444 1790
f 1388 1317 1790
f 1388 1790 1833
f 1686 1189 1833
f 1686 1833 1692
f 1683 1684 1680
f 1683 1680 1679
f 968 967 1522
f 968 1522 1518
f 1689 1612 1653
f 1689 1653 1695
f 1823 1524 1315
f 1823 1315 1386
f 1579 1799 1022
f 1579 1022 1314
f 1690 1593 1796
f 1690 1796 1576
f 1629 1688 1695
f 1629 1695 1361
f 1123 1822 1186
f 1123 1186 1683
f 967 970 1762
f 967 1762 1760
f 955 969 1440
f 955 1440 1442
f 1431 1444 972
f 1431 972 958
f 963 964 1168
f 963 1168 1166
f 1655 1169 1370
f 1655 1370 1136
f 1164 1440 1520
f 1164 1520 1286
f 1199 1198 1723
f 1199 1723 1725
f 1205 1202 1728
f 1205 1728 1730
f 1171 1174 1758
f 1171 1758 1755
f 1874 1342 1198
f 1874 1198 1802
f 985 1491 1066
f 985 1066 1171
f 1490 1635 1202
f 1490 1202 1066
f 1046 1632 1318
f 1046 1318 1125
f 978 1457 1843
f 978 1843 973
f 1443 1431 958
f 1443 958 1005
f 1003 955 1442
f 1003 1442 1430
f 1575 1574 1196
f 1575 1196 1558
f 1350 1353 1007
f 1350 1007 1004
f 1002 995 1346
f 1002 1346 1345
f 1800 1546 1706
f 1800 1706 1514
f 1623 1622 1505
f 1623 1505 1506
f 1525 987 1760
f 1525 1760 1315
f 1070 1547 1544
f 1070 1544 1073
f 1887 1888 1738
f 1887 1738 1561
f 1496 1498 1794
f 1496 1794 1797
f 1678 1369 1553
f 1678 1553 1819
f 1341 1453 1848
f 1341 1848 1723
f 1454 986 1755
f 1454 1755 1848
f 1634 1047 1125
f 1634 1125 1728
f 1493 979 973
f 1493 973 1062
f 1631 1494 1062
f 1631 1062 1318
f 1798 1794 1747
f 1798 1747 1751
f 1188 1186 1386
f 1188 1386 1387
f 1694 1122 1679
f 1694 1679 1278
f 1613 991 1166
f 1613 1166 1653
f 1775 1628 1361
f 1775 1361 1747
f 1580 1549 990
f 1580 990 1710
f 1288 1523 989
f 1288 989 1259
f 1515 1476 1608
f 1515 1608 1800
f 1801 1610 1472
f 1801 1472 1511
f 1593 1164 1640
f 1593 1640 1495
f 1499 1642 1259
f 1499 1259 1776
f 1456 1339 1648
f 1456 1648 1842
f 1642 1639 1287
f 1642 1287 1288
f 1050 1608 1464
f 1050 1464 1044
f 1084 1600 1107
f 1084 1107 1181
f 1599 1601 1264
f 1599 1264 1262
f 1267 1268 1597
f 1267 1597 1596
f 1450 1702 1601
f 1450 1601 1085
f 1740 1703 1268
f 1740 1268 1346
f 1097 1308 1344
f 1097 1344 1266
f 1430 1107 1263
f 1430 1263 1348
f 1702 1738 1351
f 1702 1351 1264
f 1592 1422 1669
f 1592 1669 1811
f 1812 1769 1118
f 1812 1118 1732
f 1247 1479 1292
f 1247 1292 1335
f 1507 1734 1237
f 1507 1237 1568
f 1015 1010 1402
f 1015 1402 1237
f 1562 1058 1854
f 1562 1854 1567
f 1569 1235 1405
f 1569 1405 1508
f 1235 1722 1013
f 1235 1013 1019
f 1426 1052 1425
f 1426 1425 1400
f 1258 1070 1072
f 1258 1072 1637
f 1610 1048 1042
f 1610 1042 1462
f 1733 1404 1018
f 1733 1018 1017
f 1404 1407 1021
f 1404 1021 1018
f 1691 1027 1675
f 1691 1675 1304
f 1418 1098 1028
f 1418 1028 1279
f 1657 1370 965
f 1657 965 961
f 962 982 1368
f 962 1368 1659
f 1891 1887 1561
f 1891 1561 1740
f 1554 1894 1485
f 1554 1485 1487
f 1595 1080 1181
f 1595 1181 1097
f 1703 1450 1081
f 1703 1081 1597
f 1813 1592 1811
f 1813 1811 1329
f 1325 1812 1732
f 1325 1732 1656
f 1078 1081 1085
f 1078 1085 1082
f 1650 1803 1343
f 1650 1343 1858
f 1844 1650 1858
f 1844 1858 1323
f 974 1844 1323
f 974 1323 966
f 1064 974 966
f 1064 966 1390
f 1320 1064 1390
f 1320 1390 1401
f 1126 1320 1401
f 1126 1401 1768
f 1731 1126 1768
f 1731 1768 1224
f 1068 1203 1224
f 1068 1224 1354
f 1173 1068 1354
f 1173 1354 980
f 1850 1756 980
f 1850 980 1403
f 1727 1850 1403
f 1727 1403 1392
f 1803 1200 1392
f 1803 1392 1343
f 1302 1677 1374
f 1302 1374 1470
f 1035 1101 1710
f 1035 1710 1693
f 1338 1875 1802
f 1338 1802 1648
f 1027 1282 1250
f 1027 1250 1674
f 1783 1177 1176
f 1783 1176 1781
f 1672 1154 1183
f 1672 1183 1077
f 1249 1421 1394
f 1249 1394 1284
f 1278 1691 1469
f 1278 1469 1034
f 982 963 1551
f 982 1551 1552
f 1101 1374 1819
f 1101 1819 1580
f 1437 1336 1248
f 1437 1248 1891
f 1888 1247 1335
f 1888 1335 1432
f 1220 1536 1092
f 1220 1092 1115
f 1715 1834 1290
f 1715 1290 1832
f 1831 1289 1835
f 1831 1835 1717
f 1231 1305 1307
f 1231 1307 1233
f 1719 1855 1365
f 1719 1365 1195
f 1131 1620 1095
f 1131 1095 1835
f 1536 1780 1872
f 1536 1872 1615
f 1229 1841 1289
f 1229 1289 1306
f 1305 1290 1839
f 1305 1839 1226
f 1191 1366 1855
f 1191 1855 1720
f 1618 1869 1778
f 1618 1778 1533
f 1834 1092 1616
f 1834 1616 1129
f 1720 1427 1031
f 1720 1031 1778
f 1780 1032 1429
f 1780 1429 1719
f 1533 1221 1117
f 1533 1117 1095
f 1884 1212 1334
f 1884 1334 1413
f 1330 1862 1115
f 1330 1115 1715
f 1378 1270 1221
f 1378 1221 1031
f 1153 1252 1427
f 1153 1427 1234
f 1211 1150 1232
f 1211 1232 1831
f 1860 1333 1717
f 1860 1717 1117
f 1832 1231 1147
f 1832 1147 1213
f 1234 1429 1254
f 1234 1254 1153
f 1032 1220 1273
f 1032 1273 1376
f 1665 1865 1451
f 1665 1451 1395
f 1671 1143 1742
f 1671 1742 1698
f 1745 1527 1421
f 1745 1421 1142
f 1781 1074 1356
f 1781 1356 1607
f 1603 1359 1076
f 1603 1076 1783
f 1393 1451 1865
f 1393 1865 1667
f 1143 1419 1530
f 1143 1530 1742
f 1700 1744 1142
f 1700 1142 1672
f 1130 1701 1358
f 1130 1358 1837
f 1193 1666 1529
f 1193 1529 1871
f 1840 1355 1699
f 1840 1699 1133
f 1867 1532 1668
f 1867 1668 1190
f 1225 1602 1605
f 1225 1605 1228
f 1105 1827 1539
f 1105 1539 1145
f 1297 1372 1820
f 1297 1820 1158
f 1089 1893 1208
f 1089 1208 1646
f 1144 1540 1826
f 1144 1826 1104
f 1647 1209 1892
f 1647 1892 1087
f 1372 1460 1563
f 1372 1563 1060
f 1458 1373 1061
f 1458 1061 1565
f 1060 1880 1410
f 1060 1410 1820
f 1538 1828 1829
f 1538 1829 1537
f 1880 1041 1039
f 1880 1039 1877
f 1711 1179 1299
f 1711 1299 1113
f 1373 1298 1159
f 1373 1159 1821
f 1111 1300 1180
f 1111 1180 1713
f 1504 1160 1163
f 1504 1163 1853
f 1057 1103 1207
f 1057 1207 1571
f 1808 1105 1145
f 1808 1145 1643
f 1570 1206 1102
f 1570 1102 1056
f 1645 1144 1104
f 1645 1104 1807
f 1754 1538 1537
f 1754 1537 1752
f 1588 1449 1446
f 1588 1446 1586
f 1737 1504 1853
f 1737 1853 1243
f 1818 1502 1501
f 1818 1501 1815
f 1821 1408 1876
f 1821 1876 1061
f 1856 1297 1411
f 1856 1411 1892
f 1893 1412 1298
f 1893 1298 1857
f 1423 1459 1566
f 1423 1566 1573
f 1572 1564 1461
f 1572 1461 1424
f 1590 1036 1040
f 1590 1040 1589
f 1714 1856 1209
f 1714 1209 1112
f 1586 1590 1589
f 1586 1589 1588
f 1114 1208 1857
f 1114 1857 1712
f 1709 1465 1582
f 1709 1582 1517
f 1056 1423 1573
f 1056 1573 1570
f 1540 1180 1300
f 1540 1300 1826
f 1571 1572 1424
f 1571 1424 1057
f 1827 1299 1179
f 1827 1179 1539
f 1161 1503 1852
f 1161 1852 1162
f 1502 1829 1828
f 1502 1828 1501
f 1109 1708 1516
f 1109 1516 1584
f 1708 1161 1162
f 1708 1162 1516
f 1160 1709 1517
f 1160 1517 1163
f 1503 1735 1244
f 1503 1244 1852
f 1103 1274 1396
f 1103 1396 1207
f 1206 1398 1276
f 1206 1276 1102
f 1449 1541 1542
f 1449 1542 1447
f 1274 1244 1240
f 1274 1240 1417
f 1643 1737 1764
f 1643 1764 1384
f 1752 1808 1218
f 1752 1218 1025
f 1398 1543 1787
f 1398 1787 1886
f 1243 1276 1414
f 1243 1414 1242
f 1883 1789 1541
f 1883 1541 1396
f 1024 1216 1807
f 1024 1807 1754
f 1381 1767 1735
f 1381 1735 1645
f 1140 1411 1158
f 1140 1158 1661
f 1087 1140 1138
f 1087 1138 1091
f 1412 1137 1662
f 1412 1662 1159
f 1661 1410 1409
f 1661 1409 1663
f 1385 1380 1253
f 1385 1253 1219
f 1241 1859 1269
f 1241 1269 1763
f 1766 1272 1861
f 1766 1861 1238
f 1217 1256 1377
f 1217 1377 1382
f 1416 1332 1214
f 1416 1214 1881
f 1282 1393 1420
f 1282 1420 1250
f 1788 1146 1149
f 1788 1149 1785
f 1074 1185 1157
f 1074 1157 1670
f 1658 1468 1313
f 1658 1313 1155
f 1048 1638 1260
f 1638 1048 1052
f 1638 1052 1426
f 1425 1547 1070
f 1547 1425 1792
f 1547 1792 1801
f 1801 1048 1610
f 1048 1801 1052
f 1052 1801 1792
f 1652 1651 1805
f 1651 1652 1847
f 1847 1652 1851
f 1847 1851 976
f 976 1851 993
f 976 993 1069
f 976 1069 1065
f 1065 1069 1322
f 1065 1322 1321
f 1321 1322 1128
f 1050 1800 1608
f 1800 1050 1854
f 1800 1854 1793
f 1546 1058 1071
f 1058 1546 1793
f 1793 1546 1800
f 1484 1247 1246
f 1247 1484 1479
f 1479 1484 1483
f 1894 1478 1482
f 1478 1894 1813
f 1813 1894 1592
f 1669 1311 1135
f 1311 1669 1400
f 1311 1400 1258
f 1864 1050 1301
f 1050 1864 1854
f 1854 1864 1567
f 1235 1638 1722
f 1638 1235 1042
f 1638 1042 1260
f 1309 1769 1134
f 1769 1309 1562
f 1562 1309 1636
f 1864 1237 1402
f 1237 1864 1044
f 1044 1864 1301
f 1337 1340 1873
f 1340 1337 1455
f 1340 1455 1452
f 1452 1455 977
f 1452 977 984
f 984 977 1489
f 1489 977 1492
f 1489 1492 1633
f 1633 1492 1630
f 1633 1630 1045
f 1825 1185 1176
f 1185 1825 962
f 962 1825 959
f 960 1177 1184
f 1177 960 1825
f 1825 960 959
f 1298 1583 1772
f 1583 1298 1458
f 1458 1298 1373
f 1110 1856 1714
f 1856 1110 1297
f 1297 1110 1774
f 1857 1466 1712
f 1466 1857 1298
f 1466 1298 1772
f 1120 1209 1647
f 1209 1120 1112
f 1112 1120 1814
f 1208 1119 1646
f 1119 1208 1114
f 1119 1114 1816
f 1585 1297 1774
f 1297 1585 1460
f 1297 1460 1372
f 1352 1433 1007
f 1433 1352 1889
f 1889 1352 1739
f 1347 1890 1741
f 1890 1347 1437
f 1437 1347 996