o convex_0
v -0.007529 -0.001100 0.020752
v -0.028936 -0.052210 0.010268
v -0.028936 -0.052210 0.019439
v -0.016705 -0.089767 0.008520
v -0.015393 0.000218 0.007646
v -0.018015 -0.089767 0.021626
v -0.019760 0.000201 0.020314
v -0.027187 -0.088466 0.008958
v -0.007529 0.000218 0.008084
v -0.028061 -0.033427 0.009395
v -0.026751 -0.088900 0.020752
v -0.025003 -0.035613 0.021626
v -0.014957 -0.076667 0.020314
v -0.028498 -0.035613 0.019877
v -0.020198 0.000201 0.010268
v -0.007967 0.000218 0.021625
v -0.024565 -0.089333 0.008084
v -0.026315 -0.038233 0.008085
v -0.027625 -0.089342 0.019439
v -0.016705 -0.088457 0.008084
v -0.014957 -0.076667 0.008958
v -0.016705 0.000218 0.021626
v -0.027625 -0.029939 0.019439
v -0.016267 -0.086713 0.021188
v -0.007967 -0.000224 0.007646
v -0.024129 -0.088457 0.021626
v -0.028936 -0.041296 0.009395
v -0.018886 0.000201 0.008520
v -0.028061 -0.039109 0.020752
v -0.027625 -0.089342 0.010268
v -0.021508 -0.090210 0.008958
v -0.027625 -0.029939 0.010268
v -0.020198 0.000201 0.019441
v -0.007529 -0.001100 0.008957
v -0.017141 -0.090210 0.020750
v -0.016267 -0.088466 0.020314
v -0.028936 -0.038233 0.019439
v -0.025877 -0.030806 0.021187
v -0.027187 -0.049581 0.021187
v -0.026751 -0.089776 0.019439
v -0.027625 -0.051333 0.008520
v -0.026315 -0.030373 0.008520
v -0.028936 -0.050457 0.019877
v -0.016267 -0.088466 0.008958
v -0.028498 -0.034745 0.010268
v -0.016705 -0.086713 0.021626
v -0.025003 -0.088900 0.008084
v -0.007529 -0.000658 0.021188
v -0.027625 -0.032116 0.020314
v -0.028936 -0.048713 0.009395
v -0.021508 -0.090210 0.020314
v -0.017579 -0.090210 0.008520
v -0.026751 -0.089776 0.009832
v -0.025003 -0.030373 0.008084
f 42 28 54 
f 9 5 16 
f 3 2 19 
f 1 13 21 
f 20 9 21 
f 12 6 22 
f 5 15 22 
f 16 5 22 
f 5 9 25 
f 17 5 25 
f 9 20 25 
f 20 17 25 
f 11 6 26 
f 6 12 26 
f 2 3 27 
f 15 5 28 
f 10 15 28 
f 19 2 30 
f 15 10 32 
f 23 15 32 
f 7 22 33 
f 22 15 33 
f 23 7 33 
f 15 23 33 
f 9 1 34 
f 1 21 34 
f 21 9 34 
f 21 13 36 
f 13 24 36 
f 35 4 36 
f 24 35 36 
f 14 23 37 
f 27 3 37 
f 29 14 37 
f 12 22 38 
f 22 7 38 
f 29 12 38 
f 11 26 39 
f 26 12 39 
f 29 11 39 
f 12 29 39 
f 11 19 40 
f 19 30 40 
f 27 18 41 
f 27 10 42 
f 18 27 42 
f 10 28 42 
f 3 19 43 
f 19 11 43 
f 11 29 43 
f 37 3 43 
f 29 37 43 
f 4 20 44 
f 20 21 44 
f 21 36 44 
f 36 4 44 
f 10 27 45 
f 32 10 45 
f 23 32 45 
f 37 23 45 
f 27 37 45 
f 22 6 46 
f 16 22 46 
f 6 35 46 
f 35 24 46 
f 5 17 47 
f 17 8 47 
f 18 5 47 
f 8 41 47 
f 41 18 47 
f 1 9 48 
f 13 1 48 
f 9 16 48 
f 24 13 48 
f 16 46 48 
f 46 24 48 
f 23 14 49 
f 7 23 49 
f 14 29 49 
f 38 7 49 
f 29 38 49 
f 2 27 50 
f 30 2 50 
f 8 30 50 
f 41 8 50 
f 27 41 50 
f 6 11 51 
f 35 6 51 
f 31 35 51 
f 11 40 51 
f 40 31 51 
f 20 4 52 
f 17 20 52 
f 31 17 52 
f 4 35 52 
f 35 31 52 
f 8 17 53 
f 30 8 53 
f 17 31 53 
f 40 30 53 
f 31 40 53 
f 5 18 54 
f 28 5 54 
f 18 42 54 
o convex_1
v 0.029170 -0.049147 0.019441
v 0.007326 -0.000224 0.008957
v 0.007326 -0.000224 0.020752
v 0.016501 -0.089342 0.008957
v 0.027421 -0.030373 0.009395
v 0.016939 -0.088891 0.021626
v 0.019120 0.000201 0.020750
v 0.026549 -0.088466 0.008520
v 0.015629 0.000210 0.007646
v 0.025674 -0.088900 0.021188
v 0.024800 -0.034303 0.021626
v 0.007764 0.000218 0.021625
v 0.019995 0.000201 0.009832
v 0.027860 -0.031240 0.019441
v 0.017376 -0.089767 0.008084
v 0.027860 -0.088900 0.010268
v 0.029170 -0.042163 0.009831
v 0.026549 -0.041296 0.008084
v 0.008200 0.000218 0.007646
v 0.015190 -0.078844 0.020314
v 0.027860 -0.088900 0.019441
v 0.025238 -0.088466 0.008084
v 0.028732 -0.041296 0.020315
v 0.016939 0.000201 0.021626
v 0.019995 0.000201 0.019877
v 0.021306 -0.090210 0.020314
v 0.014754 -0.074489 0.008957
v 0.024364 -0.088466 0.021626
v 0.026985 -0.089776 0.010268
v 0.017812 0.000201 0.008084
v 0.026985 -0.037799 0.021188
v 0.027860 -0.031240 0.009832
v 0.029170 -0.048271 0.009831
v 0.016501 -0.089342 0.020752
v 0.029170 -0.041296 0.019441
v 0.017376 -0.090210 0.008520
v 0.026549 -0.029939 0.020750
v 0.015629 -0.078844 0.008084
v 0.027860 -0.042606 0.008520
v 0.027421 -0.088900 0.020314
v 0.025238 -0.031240 0.008084
v 0.017812 -0.090210 0.021188
v 0.026985 -0.089776 0.019441
v 0.015190 -0.076667 0.021188
v 0.028732 -0.036489 0.010269
v 0.019557 0.000201 0.008958
v 0.026985 -0.052210 0.021188
v 0.016065 -0.086713 0.009393
v 0.026549 -0.031683 0.008520
v 0.007764 -0.001100 0.008084
v 0.021306 -0.090210 0.008958
v 0.027860 -0.088466 0.009832
f 62 87 106 
f 56 57 66 
f 56 66 73 
f 66 63 73 
f 63 69 73 
f 70 55 75 
f 69 63 76 
f 63 72 76 
f 60 65 78 
f 66 60 78 
f 61 66 78 
f 63 66 79 
f 66 61 79 
f 67 63 79 
f 68 67 79 
f 57 56 81 
f 74 57 81 
f 65 60 82 
f 70 75 83 
f 76 62 83 
f 78 65 85 
f 67 68 86 
f 71 59 86 
f 55 70 87 
f 71 55 87 
f 55 71 89 
f 68 77 89 
f 77 55 89 
f 58 69 90 
f 88 58 90 
f 77 68 91 
f 61 78 91 
f 79 61 91 
f 68 79 91 
f 85 77 91 
f 78 85 91 
f 69 58 92 
f 73 69 92 
f 58 81 92 
f 59 71 93 
f 62 76 93 
f 76 72 93 
f 87 62 93 
f 71 87 93 
f 75 55 94 
f 55 77 94 
f 72 63 95 
f 63 84 95 
f 80 64 96 
f 82 60 96 
f 64 82 96 
f 60 88 96 
f 90 80 96 
f 88 90 96 
f 64 80 97 
f 83 75 97 
f 80 83 97 
f 75 94 97 
f 94 64 97 
f 66 57 98 
f 60 66 98 
f 57 74 98 
f 88 60 98 
f 74 88 98 
f 86 68 99 
f 71 86 99 
f 89 71 99 
f 68 89 99 
f 63 67 100 
f 84 63 100 
f 86 59 100 
f 67 86 100 
f 65 82 101 
f 82 64 101 
f 77 85 101 
f 85 65 101 
f 64 94 101 
f 94 77 101 
f 81 58 102 
f 74 81 102 
f 58 88 102 
f 88 74 102 
f 59 93 103 
f 93 72 103 
f 72 95 103 
f 95 84 103 
f 84 100 103 
f 100 59 103 
f 56 73 104 
f 81 56 104 
f 73 92 104 
f 92 81 104 
f 69 76 105 
f 76 83 105 
f 83 80 105 
f 90 69 105 
f 80 90 105 
f 83 62 106 
f 70 83 106 
f 87 70 106 
o convex_2
v 0.004702 0.085409 0.009830
v -0.012334 0.057456 0.011142
v -0.012334 0.057456 0.018130
v 0.011693 0.030801 0.010268
v 0.003393 0.089776 0.019879
v 0.010818 0.030801 0.019879
v -0.011023 0.030807 0.019879
v -0.011023 0.030807 0.009830
v 0.012568 0.063127 0.017693
v -0.003159 0.090218 0.009830
v -0.003159 0.090218 0.019879
v 0.012568 0.063127 0.011578
v -0.011896 0.065314 0.018130
v 0.011257 0.033430 0.009830
v -0.012334 0.063999 0.011578
v -0.011896 0.030807 0.010706
v 0.003393 0.089776 0.009830
v 0.010382 0.051344 0.019879
v 0.011693 0.030801 0.019003
v -0.010584 0.050471 0.019879
v -0.010584 0.053088 0.009830
v -0.011896 0.030807 0.019003
v 0.010818 0.051774 0.009830
v 0.012568 0.062255 0.018130
v -0.004468 0.086723 0.009830
v 0.002957 0.090218 0.019879
v 0.009073 0.073613 0.018567
v -0.012334 0.063563 0.018130
v -0.003596 0.089340 0.019441
v 0.012568 0.060074 0.011578
v 0.004702 0.086275 0.010268
v 0.002957 0.090218 0.009830
v 0.011257 0.030801 0.009830
v -0.012334 0.060510 0.011142
f 131 127 140 
f 112 111 113 
f 107 114 116 
f 113 111 117 
f 114 107 120 
f 118 110 120 
f 108 109 121 
f 109 108 122 
f 108 114 122 
f 107 116 123 
f 118 107 123 
f 111 112 124 
f 112 110 125 
f 113 117 126 
f 116 114 127 
f 112 113 128 
f 109 122 128 
f 122 112 128 
f 107 118 129 
f 120 107 129 
f 118 120 129 
f 118 115 130 
f 111 124 130 
f 124 112 130 
f 112 125 130 
f 116 127 131 
f 117 111 132 
f 116 117 132 
f 111 123 132 
f 115 118 133 
f 111 130 133 
f 130 115 133 
f 117 119 134 
f 121 109 134 
f 119 121 134 
f 113 126 134 
f 126 117 134 
f 128 113 134 
f 109 128 134 
f 117 116 135 
f 119 117 135 
f 121 119 135 
f 116 131 135 
f 131 121 135 
f 110 118 136 
f 125 110 136 
f 118 130 136 
f 130 125 136 
f 123 111 137 
f 118 123 137 
f 133 118 137 
f 111 133 137 
f 123 116 138 
f 116 132 138 
f 132 123 138 
f 110 112 139 
f 114 120 139 
f 120 110 139 
f 112 122 139 
f 122 114 139 
f 114 108 140 
f 108 121 140 
f 127 114 140 
f 121 131 140 
o convex_3
v -0.034614 0.016383 0.006339
v -0.023259 0.015071 0.028180
v -0.023259 0.012016 0.028180
v -0.023259 0.012453 0.001095
v -0.035487 0.013761 0.021186
v -0.023696 0.008519 0.008958
v -0.023259 0.016820 0.007649
v -0.034614 0.017257 0.022061
v -0.035487 0.013761 0.008086
v -0.023259 0.008519 0.020313
v -0.023259 0.016820 0.022061
v -0.031119 0.017257 0.006339
v -0.030683 0.013324 0.025992
v -0.023259 0.015508 0.001532
v -0.029811 0.012888 0.003279
v -0.036364 0.016383 0.009396
v -0.029811 0.016383 0.025992
v -0.035925 0.015945 0.021623
v -0.035487 0.017257 0.009396
v -0.029811 0.015945 0.003279
v -0.028937 0.017257 0.020748
v -0.023696 0.008519 0.020313
v -0.023259 0.011578 0.001532
v -0.036364 0.014636 0.019876
v -0.026316 0.012016 0.027302
v -0.033740 0.013324 0.023370
v -0.028937 0.016820 0.025117
v -0.033740 0.015508 0.024245
v -0.036364 0.016383 0.019876
v -0.026754 0.014199 0.027740
v -0.033740 0.013761 0.005464
f 160 155 171 
f 142 143 144 
f 142 144 147 
f 146 145 149 
f 144 143 150 
f 142 147 151 
f 147 144 154 
f 152 147 154 
f 141 149 156 
f 148 152 159 
f 152 141 159 
f 141 156 159 
f 141 152 160 
f 154 144 160 
f 152 154 160 
f 144 155 160 
f 151 147 161 
f 152 148 161 
f 147 152 161 
f 145 146 162 
f 150 143 162 
f 146 150 162 
f 144 150 163 
f 150 146 163 
f 155 144 163 
f 146 155 163 
f 149 145 164 
f 156 149 164 
f 145 158 164 
f 162 143 165 
f 162 165 166 
f 158 145 166 
f 145 162 166 
f 165 153 166 
f 142 151 167 
f 157 142 167 
f 148 157 167 
f 151 161 167 
f 161 148 167 
f 157 148 168 
f 153 157 168 
f 148 158 168 
f 166 153 168 
f 158 166 168 
f 158 148 169 
f 148 159 169 
f 159 156 169 
f 156 164 169 
f 164 158 169 
f 143 142 170 
f 142 157 170 
f 157 153 170 
f 165 143 170 
f 153 165 170 
f 149 141 171 
f 146 149 171 
f 155 146 171 
f 141 160 171 
o convex_4
v -0.021071 0.013759 0.029051
v -0.015828 0.000220 0.007648
v -0.007967 0.000220 0.007648
v -0.004035 0.021189 0.007648
v -0.023257 0.015508 0.001531
v -0.005781 0.009395 0.029488
v -0.019760 0.000220 0.020313
v -0.013644 0.021185 0.021624
v -0.005346 0.010270 0.000221
v -0.003597 0.021189 0.021187
v -0.007530 0.000220 0.021624
v -0.023257 0.015508 0.027741
v -0.023257 0.011575 0.001531
v -0.016265 0.021185 0.009832
v -0.023257 0.011575 0.028177
v -0.020197 0.000220 0.010269
v -0.007530 0.012887 0.029488
v -0.023257 0.017255 0.019874
v -0.009714 0.012887 -0.000218
v -0.023257 0.008084 0.020313
v -0.007967 0.009395 -0.000218
v -0.004909 0.011140 0.026430
v -0.016704 0.000220 0.021624
v -0.007093 0.000658 0.008522
v -0.003597 0.019003 0.008522
v -0.016265 0.010705 0.029485
v -0.018451 0.011138 0.000221
v -0.004472 0.021189 0.022057
v -0.016265 0.021185 0.019874
v -0.023257 0.017255 0.009398
v -0.023257 0.008084 0.008959
v -0.004909 0.011140 0.002842
v -0.012772 0.021185 0.007648
v -0.020634 0.015071 0.028614
v -0.007530 0.008958 0.029488
v -0.014955 0.014196 0.000221
v -0.005346 0.012450 0.029051
v -0.006218 0.012014 -0.000218
v -0.018886 0.000220 0.008522
v -0.007093 0.000658 0.020750
v -0.013209 0.013759 0.029488
v -0.020197 0.000220 0.019440
v -0.008404 0.000220 0.022057
v -0.003597 0.019003 0.020750
v -0.011899 0.011575 0.029927
v -0.016704 0.012450 -0.000215
v -0.022381 0.013759 0.000658
v -0.003597 0.021189 0.008085
v -0.015828 0.010270 0.000221
v -0.011462 0.021185 0.022057
v -0.006218 0.004588 0.007209
f 211 195 222 
f 173 174 178 
f 178 174 182 
f 183 176 184 
f 172 183 186 
f 183 184 186 
f 173 178 187 
f 176 183 189 
f 186 184 191 
f 174 173 192 
f 180 174 192 
f 178 182 194 
f 186 178 194 
f 174 180 195 
f 182 174 195 
f 172 186 197 
f 186 194 197 
f 181 175 199 
f 175 185 199 
f 183 179 200 
f 189 183 200 
f 185 189 200 
f 179 199 200 
f 199 185 200 
f 185 176 201 
f 176 189 201 
f 189 185 201 
f 184 187 202 
f 191 184 202 
f 187 191 202 
f 195 180 203 
f 180 196 203 
f 196 193 203 
f 175 176 204 
f 185 175 204 
f 176 185 204 
f 183 172 205 
f 197 194 206 
f 176 175 207 
f 175 190 207 
f 188 177 208 
f 177 193 208 
f 193 181 208 
f 181 199 208 
f 199 188 208 
f 190 175 209 
f 180 192 209 
f 192 190 209 
f 187 184 210 
f 173 187 210 
f 198 173 210 
f 184 198 210 
f 177 182 211 
f 193 177 211 
f 182 195 211 
f 188 199 212 
f 205 172 212 
f 199 205 212 
f 178 186 213 
f 187 178 213 
f 186 191 213 
f 191 187 213 
f 182 177 214 
f 194 182 214 
f 177 206 214 
f 206 194 214 
f 181 193 215 
f 196 181 215 
f 193 196 215 
f 177 188 216 
f 172 197 216 
f 206 177 216 
f 197 206 216 
f 212 172 216 
f 188 212 216 
f 190 192 217 
f 192 198 217 
f 207 190 217 
f 207 217 218 
f 184 176 218 
f 198 184 218 
f 176 207 218 
f 217 198 218 
f 175 181 219 
f 196 180 219 
f 181 196 219 
f 209 175 219 
f 180 209 219 
f 192 173 220 
f 173 198 220 
f 198 192 220 
f 179 183 221 
f 199 179 221 
f 183 205 221 
f 205 199 221 
f 195 203 222 
f 203 193 222 
f 193 211 222 
o convex_5
v 0.021742 0.017692 0.009832
v 0.019122 0.000218 0.008959
v 0.019558 0.000218 0.008959
v 0.006454 0.010270 0.029927
v 0.005142 0.012012 0.000658
v 0.003394 0.021187 0.020750
v 0.022180 0.014633 0.028614
v 0.007327 0.000223 0.021187
v 0.022180 0.015071 0.001095
v 0.004269 0.021187 0.007648
v 0.019995 0.000218 0.019877
v 0.007763 0.000223 0.007648
v 0.016062 0.021187 0.019877
v 0.013004 0.010270 -0.000218
v 0.015189 0.021187 0.008522
v 0.022180 0.006774 0.009395
v 0.022180 0.011577 0.028614
v 0.016937 0.000223 0.021624
v 0.005142 0.010270 0.028614
v 0.005142 0.010270 0.000658
v 0.022180 0.011577 0.001095
v 0.004705 0.021187 0.022057
v 0.006016 0.012450 0.029488
v 0.009948 0.012887 -0.000218
v 0.022180 0.017257 0.020750
v 0.007763 0.008958 0.029488
v 0.003394 0.020313 0.008959
v 0.015624 0.000223 0.007648
v 0.006454 0.009395 -0.000218
v 0.013004 0.013759 0.029488
v 0.022180 0.006774 0.020313
v 0.006889 0.001532 0.008522
v 0.011696 0.021187 0.022057
v 0.016062 0.010703 0.029488
v 0.008636 0.000223 0.022057
v 0.021305 0.015071 0.028614
v 0.015189 0.014196 0.000221
v 0.005142 0.009833 0.025991
v 0.016062 0.021187 0.009395
v 0.012570 0.021187 0.007648
v 0.019995 0.000218 0.009832
v 0.021305 0.011577 0.000658
v 0.022180 0.015508 0.027741
v 0.006016 0.012012 -0.000218
v 0.016500 0.012450 -0.000218
v 0.022180 0.015508 0.001531
v 0.006016 0.009395 0.029488
v 0.018247 0.012887 0.029488
v 0.003394 0.020313 0.020750
f 249 260 271 
f 224 225 233 
f 230 224 233 
f 225 224 234 
f 224 230 234 
f 232 228 235 
f 232 235 237 
f 231 229 238 
f 238 229 239 
f 233 239 240 
f 231 238 243 
f 235 228 244 
f 241 226 245 
f 228 241 245 
f 244 228 245 
f 229 231 247 
f 223 235 247 
f 228 232 249 
f 232 227 249 
f 227 242 249 
f 225 234 250 
f 234 242 251 
f 246 236 251 
f 250 234 251 
f 236 250 251 
f 245 226 252 
f 244 245 252 
f 233 238 253 
f 239 233 253 
f 238 239 253 
f 234 230 254 
f 242 234 254 
f 235 244 255 
f 240 239 256 
f 226 248 256 
f 248 240 256 
f 230 233 257 
f 233 240 257 
f 240 248 257 
f 244 252 258 
f 255 244 258 
f 246 232 259 
f 230 241 260 
f 249 242 260 
f 254 230 260 
f 242 254 260 
f 235 223 261 
f 237 235 261 
f 232 237 262 
f 233 225 263 
f 238 233 263 
f 225 243 263 
f 243 238 263 
f 243 225 264 
f 231 243 264 
f 225 250 264 
f 250 236 264 
f 229 247 265 
f 247 235 265 
f 235 255 265 
f 258 229 265 
f 255 258 265 
f 227 232 266 
f 242 227 266 
f 232 246 266 
f 251 242 266 
f 246 251 266 
f 236 246 267 
f 259 231 267 
f 246 259 267 
f 231 264 267 
f 264 236 267 
f 223 247 268 
f 247 231 268 
f 231 259 268 
f 259 232 268 
f 261 223 268 
f 237 261 268 
f 232 262 268 
f 262 237 268 
f 226 241 269 
f 241 230 269 
f 248 226 269 
f 230 257 269 
f 257 248 269 
f 239 229 270 
f 252 226 270 
f 256 239 270 
f 226 256 270 
f 229 258 270 
f 258 252 270 
f 241 228 271 
f 228 249 271 
f 260 241 271 
o convex_6
v 0.023492 0.014635 0.001092
v 0.036161 0.015945 0.021186
v 0.036161 0.015072 0.021186
v 0.022180 0.014635 0.028617
v 0.022618 0.007210 0.020310
v 0.033974 0.013325 0.006335
v 0.022180 0.017256 0.008957
v 0.022180 0.007210 0.009396
v 0.034850 0.017256 0.007647
v 0.031354 0.017256 0.023374
v 0.028735 0.012451 0.026429
v 0.022180 0.011578 0.001092
v 0.035723 0.013761 0.020310
v 0.022180 0.017256 0.020749
v 0.035723 0.013761 0.008957
v 0.022180 0.011578 0.028175
v 0.028735 0.016382 0.003277
v 0.030918 0.015509 0.025995
v 0.030479 0.012888 0.003714
v 0.022180 0.015509 0.001531
v 0.035286 0.017256 0.020749
v 0.036161 0.015945 0.008084
v 0.033974 0.013761 0.023807
v 0.023929 0.015945 0.027304
v 0.022618 0.007210 0.009396
v 0.031354 0.015072 0.003714
v 0.023929 0.011578 0.001531
v 0.026550 0.013325 0.027738
v 0.032664 0.016819 0.024244
v 0.036161 0.016819 0.009396
v 0.027424 0.013761 0.001968
v 0.022180 0.007210 0.020310
f 276 287 303 
f 275 278 279 
f 280 278 281 
f 279 278 283 
f 278 275 285 
f 281 278 285 
f 274 284 286 
f 284 276 286 
f 275 279 287 
f 276 282 287 
f 278 280 288 
f 272 283 291 
f 283 278 291 
f 288 272 291 
f 278 288 291 
f 280 281 292 
f 273 274 293 
f 274 286 293 
f 286 277 293 
f 274 273 294 
f 282 276 294 
f 284 274 294 
f 276 284 294 
f 289 282 294 
f 285 275 295 
f 281 285 295 
f 275 289 295 
f 276 279 296 
f 279 283 296 
f 286 276 296 
f 277 286 296 
f 290 277 296 
f 288 280 297 
f 277 290 297 
f 293 277 297 
f 280 293 297 
f 296 283 298 
f 290 296 298 
f 275 287 299 
f 287 282 299 
f 289 275 299 
f 282 289 299 
f 273 292 300 
f 292 281 300 
f 294 273 300 
f 289 294 300 
f 281 295 300 
f 295 289 300 
f 292 273 301 
f 280 292 301 
f 273 293 301 
f 293 280 301 
f 283 272 302 
f 272 288 302 
f 288 297 302 
f 297 290 302 
f 298 283 302 
f 290 298 302 
f 279 276 303 
f 287 279 303 
o convex_7
v -0.014517 0.021189 0.008522
v -0.002724 0.029488 0.021187
v -0.003162 0.029488 0.021624
v -0.004035 0.021189 0.021624
v -0.003599 0.021189 0.008084
v -0.010150 0.030363 0.008522
v -0.015828 0.021627 0.019877
v -0.012333 0.030363 0.019877
v -0.003162 0.030801 0.010269
v -0.012770 0.029926 0.010269
v -0.010586 0.021189 0.022063
v -0.002724 0.029926 0.008522
v -0.015828 0.021189 0.009831
v -0.002724 0.025123 0.020313
v -0.004035 0.030801 0.019877
v -0.008840 0.024685 0.007647
v -0.010586 0.029926 0.021187
v -0.011897 0.030801 0.010706
v -0.002724 0.025123 0.008958
v -0.014954 0.021189 0.020751
v -0.003162 0.022064 0.020751
v -0.011897 0.021189 0.007647
v -0.003162 0.029926 0.008084
v -0.011023 0.030801 0.019877
v -0.004035 0.021189 0.007647
v -0.010150 0.029488 0.008084
v -0.008403 0.029926 0.021624
v -0.004909 0.021627 0.022063
v -0.011897 0.029926 0.008958
v -0.012770 0.029926 0.019440
f 311 321 333 
f 305 306 307 
f 307 304 308 
f 304 307 314 
f 312 305 315 
f 310 313 316 
f 304 314 316 
f 315 305 317 
f 306 305 318 
f 305 312 318 
f 312 309 321 
f 318 312 321 
f 308 315 322 
f 315 317 322 
f 311 310 323 
f 310 316 323 
f 316 314 323 
f 320 311 323 
f 314 320 323 
f 305 307 324 
f 307 308 324 
f 317 305 324 
f 308 322 324 
f 322 317 324 
f 308 304 325 
f 309 312 326 
f 312 315 326 
f 311 320 327 
f 321 311 327 
f 318 321 327 
f 315 308 328 
f 308 325 328 
f 325 319 328 
f 326 315 328 
f 319 326 328 
f 325 304 329 
f 319 325 329 
f 309 326 329 
f 326 319 329 
f 306 318 330 
f 320 314 330 
f 327 320 330 
f 318 327 330 
f 307 306 331 
f 314 307 331 
f 306 330 331 
f 330 314 331 
f 304 316 332 
f 316 313 332 
f 321 309 332 
f 313 321 332 
f 329 304 332 
f 309 329 332 
f 310 311 333 
f 313 310 333 
f 321 313 333 
o convex_8
v 0.002959 0.023375 0.008958
v 0.015627 0.021627 0.019877
v 0.015627 0.021189 0.019877
v 0.003395 0.025123 0.021624
v 0.011694 0.030801 0.010269
v 0.015188 0.021189 0.008958
v 0.003831 0.030801 0.019877
v 0.003395 0.021189 0.021187
v 0.002520 0.029488 0.008522
v 0.011694 0.029926 0.020751
v 0.004270 0.021189 0.007647
v 0.009508 0.029926 0.008084
v 0.010821 0.021189 0.022063
v 0.002520 0.029488 0.020751
v 0.002959 0.030801 0.010706
v 0.012568 0.029926 0.009831
v 0.008200 0.029926 0.021624
v 0.012131 0.030363 0.019877
v 0.012131 0.021189 0.007647
v 0.015627 0.022064 0.010269
v 0.002520 0.026867 0.020313
v 0.012568 0.029926 0.019877
v 0.003395 0.029926 0.008084
v 0.010821 0.030801 0.019877
v 0.004705 0.021189 0.022063
v 0.014315 0.021627 0.021187
v 0.003395 0.029488 0.021624
v 0.003395 0.021189 0.008522
v 0.011257 0.029926 0.008522
v 0.004705 0.025123 0.007647
f 356 345 363 
f 339 336 341 
f 339 341 344 
f 341 336 346 
f 341 337 347 
f 340 338 348 
f 342 347 348 
f 347 340 348 
f 339 344 352 
f 335 336 353 
f 336 339 353 
f 339 349 353 
f 334 341 354 
f 342 334 354 
f 341 347 354 
f 347 342 354 
f 343 335 355 
f 349 338 355 
f 338 351 355 
f 351 343 355 
f 335 353 355 
f 353 349 355 
f 344 342 356 
f 338 345 356 
f 348 338 356 
f 342 348 356 
f 338 340 357 
f 340 350 357 
f 350 343 357 
f 351 338 357 
f 343 351 357 
f 337 341 358 
f 341 346 358 
f 346 350 358 
f 336 335 359 
f 335 343 359 
f 346 336 359 
f 343 350 359 
f 350 346 359 
f 347 337 360 
f 340 347 360 
f 350 340 360 
f 337 358 360 
f 358 350 360 
f 341 334 361 
f 334 342 361 
f 344 341 361 
f 342 344 361 
f 345 338 362 
f 349 339 362 
f 338 349 362 
f 339 352 362 
f 352 345 362 
f 352 344 363 
f 345 352 363 
f 344 356 363 
