o convex_0
v -0.014915 -0.090170 0.006978
v -0.026821 -0.057167 0.004595
v -0.026821 -0.057167 0.005276
v -0.013552 -0.047641 0.005955
v -0.021378 -0.047983 0.015140
v -0.021037 -0.047637 -0.000169
v -0.016956 -0.078937 0.015481
v -0.012532 -0.084724 0.000852
v -0.011170 -0.082002 0.011737
v -0.022398 -0.079279 0.002212
v -0.023079 -0.074516 0.013098
v -0.026481 -0.047637 0.010716
v -0.015594 -0.047641 0.012759
v -0.015934 -0.047641 0.000511
v -0.010489 -0.082339 0.004595
v -0.017297 -0.088467 0.011398
v -0.018655 -0.084724 0.000511
v -0.024439 -0.050023 0.000512
v -0.023758 -0.059553 0.014800
v -0.025800 -0.065673 0.010376
v -0.014915 -0.075536 0.015141
v -0.012532 -0.087443 0.012078
v -0.015934 -0.083363 -0.000170
v -0.023758 -0.065673 0.000512
v -0.014233 -0.047641 0.002212
v -0.023079 -0.078255 0.010036
v -0.017635 -0.089146 0.004595
v -0.026140 -0.047637 0.002554
v -0.013893 -0.047641 0.010036
v -0.013212 -0.088463 0.002554
v -0.024439 -0.073833 0.004595
v -0.021037 -0.075532 0.015140
v -0.017976 -0.047641 0.014460
v -0.018994 -0.069407 0.015822
v -0.010830 -0.080299 0.010036
v -0.025459 -0.064316 0.002212
v -0.011170 -0.082002 0.002212
v -0.024099 -0.047637 0.014459
v -0.025800 -0.056484 0.012759
v -0.012871 -0.084724 0.013779
v -0.017635 -0.085403 0.013438
v -0.026821 -0.055468 0.010376
v -0.011170 -0.086082 0.010036
v -0.012871 -0.079957 0.000512
v -0.018655 -0.047641 -0.000170
v -0.011851 -0.080299 0.012759
v -0.020697 -0.066693 -0.000170
v -0.019675 -0.085744 0.009014
v -0.026821 -0.047983 0.004936
v -0.012192 -0.088126 0.004254
v -0.015934 -0.087785 0.001192
v -0.020697 -0.081660 0.012419
v -0.021378 -0.077917 0.000512
v -0.024780 -0.065331 0.013098
v -0.020356 -0.084383 0.003573
v -0.013552 -0.089483 0.010036
v -0.026140 -0.057167 0.002212
v -0.015255 -0.087447 0.013100
v -0.025800 -0.066351 0.004595
v -0.013552 -0.047641 0.004595
v -0.024099 -0.072813 0.002212
v -0.023079 -0.078600 0.004595
v -0.014915 -0.090170 0.004595
v -0.016956 -0.089487 0.010035
f 27 63 64 
f 14 6 25 
f 11 20 26 
f 12 6 28 
f 6 18 28 
f 4 6 29 
f 26 20 31 
f 21 13 33 
f 21 33 34 
f 5 19 34 
f 7 21 34 
f 32 7 34 
f 19 32 34 
f 33 5 34 
f 15 4 35 
f 4 29 35 
f 29 9 35 
f 6 12 38 
f 19 5 38 
f 29 6 38 
f 13 29 38 
f 5 33 38 
f 33 13 38 
f 38 12 39 
f 19 38 39 
f 21 7 40 
f 22 9 40 
f 7 32 41 
f 2 3 42 
f 3 20 42 
f 39 12 42 
f 20 39 42 
f 9 22 43 
f 15 35 43 
f 35 9 43 
f 8 23 44 
f 14 25 44 
f 37 8 44 
f 25 37 44 
f 6 14 45 
f 14 44 45 
f 44 23 45 
f 13 21 46 
f 9 29 46 
f 29 13 46 
f 21 40 46 
f 40 9 46 
f 18 6 47 
f 24 18 47 
f 6 45 47 
f 45 23 47 
f 28 2 49 
f 12 28 49 
f 2 42 49 
f 42 12 49 
f 30 8 50 
f 8 37 50 
f 37 15 50 
f 15 43 50 
f 23 8 51 
f 17 23 51 
f 27 17 51 
f 8 30 51 
f 11 26 52 
f 32 11 52 
f 16 41 52 
f 41 32 52 
f 26 48 52 
f 48 16 52 
f 17 10 53 
f 23 17 53 
f 47 23 53 
f 24 47 53 
f 20 11 54 
f 11 32 54 
f 32 19 54 
f 19 39 54 
f 39 20 54 
f 10 17 55 
f 17 27 55 
f 27 48 55 
f 43 22 56 
f 50 43 56 
f 18 24 57 
f 2 28 57 
f 28 18 57 
f 24 36 57 
f 36 2 57 
f 40 7 58 
f 22 40 58 
f 41 16 58 
f 7 41 58 
f 56 22 58 
f 3 2 59 
f 20 3 59 
f 31 20 59 
f 2 36 59 
f 6 4 60 
f 4 15 60 
f 25 6 60 
f 37 25 60 
f 15 37 60 
f 10 31 61 
f 36 24 61 
f 53 10 61 
f 24 53 61 
f 31 59 61 
f 59 36 61 
f 31 10 62 
f 26 31 62 
f 48 26 62 
f 10 55 62 
f 55 48 62 
f 30 50 63 
f 27 51 63 
f 51 30 63 
f 56 1 63 
f 50 56 63 
f 16 48 64 
f 48 27 64 
f 1 56 64 
f 58 16 64 
f 56 58 64 
f 63 1 64 
o convex_1
v -0.010829 0.000335 0.003914
v -0.026482 -0.047637 0.003573
v -0.026482 -0.047637 0.010376
v -0.013554 -0.047637 0.004594
v -0.006067 -0.010548 0.013099
v -0.001983 0.001016 0.000511
v -0.017973 -0.047637 0.014460
v -0.020698 -0.023138 0.012419
v -0.021038 -0.047637 -0.000170
v -0.021717 -0.026198 0.001873
v -0.007767 0.001361 0.011397
v -0.001983 0.001016 0.011057
v -0.022398 -0.035042 0.014460
v -0.008450 -0.001363 0.000171
v -0.013894 -0.047292 0.010376
v -0.015592 -0.046951 0.000511
v -0.014232 -0.004087 0.009016
v -0.025120 -0.034361 0.005616
v -0.009470 -0.007493 0.013779
v -0.002664 -0.005104 0.005276
v -0.022738 -0.035042 0.000511
v -0.011510 -0.004769 0.013099
v -0.022738 -0.047637 0.014802
v -0.021717 -0.023138 0.004594
v -0.024779 -0.034025 0.010376
v -0.005386 -0.004087 -0.000170
v -0.014573 -0.006807 0.003233
v -0.007767 0.001361 0.000511
v -0.016273 -0.018040 0.000171
v -0.021717 -0.023479 0.009697
v -0.017973 -0.031642 0.014802
v -0.014232 -0.047637 0.002213
v -0.025801 -0.043210 0.002213
v -0.025458 -0.043551 0.012759
v -0.015251 -0.047637 0.012419
v -0.002664 -0.005104 0.003233
v -0.017633 -0.027555 -0.000170
v -0.012873 -0.003066 0.011057
v -0.010491 0.001356 0.006296
v -0.017292 -0.018380 0.013780
v -0.023417 -0.047637 0.000171
v -0.008450 -0.007152 0.013779
v -0.018654 -0.047637 -0.000170
v -0.026482 -0.044232 0.010376
v -0.002323 0.001361 0.011397
v -0.017973 -0.016337 0.001873
v -0.024439 -0.034702 0.002213
v -0.003004 -0.005104 0.009016
v -0.003345 -0.004087 0.011739
v -0.026482 -0.042870 0.004934
v -0.024098 -0.035042 0.012759
v -0.014911 -0.006471 0.004256
v -0.013554 -0.047637 0.006297
v -0.024098 -0.047637 0.014460
v -0.019335 -0.047637 0.014802
v -0.002664 -0.002044 0.000511
v -0.007088 -0.002385 -0.000170
v -0.017292 -0.013613 0.011737
v -0.013894 -0.047637 0.002893
v -0.013213 -0.005790 0.001873
v -0.016954 -0.017699 0.000511
v -0.016614 -0.047637 0.000171
v -0.001983 0.001361 0.000511
v -0.018995 -0.015996 0.009356
f 122 81 128 
f 67 66 68 
f 67 68 71 
f 68 66 73 
f 70 76 84 
f 67 71 87 
f 88 82 94 
f 82 89 94 
f 89 72 94 
f 77 87 95 
f 68 73 96 
f 71 68 99 
f 69 71 99 
f 84 68 100 
f 70 84 100 
f 90 73 101 
f 85 93 101 
f 86 75 102 
f 65 81 103 
f 92 65 103 
f 75 92 103 
f 102 75 103 
f 81 102 103 
f 72 77 104 
f 83 86 104 
f 95 83 104 
f 77 95 104 
f 73 66 105 
f 66 97 105 
f 97 85 105 
f 101 73 105 
f 85 101 105 
f 75 86 106 
f 86 83 106 
f 83 95 106 
f 73 90 107 
f 96 73 107 
f 66 67 108 
f 89 82 108 
f 67 98 108 
f 92 75 109 
f 106 69 109 
f 75 106 109 
f 74 88 110 
f 74 85 111 
f 88 74 111 
f 82 88 111 
f 85 97 111 
f 84 76 112 
f 69 99 113 
f 99 79 113 
f 109 69 113 
f 76 109 113 
f 112 76 113 
f 79 112 113 
f 97 66 114 
f 66 108 114 
f 108 82 114 
f 82 111 114 
f 111 97 114 
f 77 72 115 
f 72 89 115 
f 98 77 115 
f 89 108 115 
f 108 98 115 
f 81 65 116 
f 88 81 116 
f 65 91 116 
f 110 88 116 
f 91 110 116 
f 68 84 117 
f 99 68 117 
f 79 99 117 
f 112 79 117 
f 84 112 117 
f 67 87 118 
f 87 77 118 
f 98 67 118 
f 77 98 118 
f 71 69 119 
f 87 71 119 
f 95 87 119 
f 69 106 119 
f 106 95 119 
f 90 70 120 
f 96 80 120 
f 70 100 120 
f 78 92 121 
f 93 78 121 
f 90 101 121 
f 101 93 121 
f 102 81 122 
f 86 102 122 
f 72 104 122 
f 104 86 122 
f 68 96 123 
f 100 68 123 
f 96 120 123 
f 120 100 123 
f 91 65 124 
f 65 92 124 
f 110 91 124 
f 110 124 125 
f 85 74 125 
f 92 78 125 
f 93 85 125 
f 78 93 125 
f 74 110 125 
f 124 92 125 
f 80 96 126 
f 107 90 126 
f 96 107 126 
f 90 120 126 
f 120 80 126 
f 76 70 127 
f 70 90 127 
f 109 76 127 
f 92 109 127 
f 90 121 127 
f 121 92 127 
f 81 88 128 
f 94 72 128 
f 88 94 128 
f 72 122 128 
o convex_2
v -0.009127 0.041854 0.000851
v 0.000059 0.046957 0.011399
v -0.004705 0.053077 0.010718
v -0.007767 0.001370 0.011399
v -0.001983 0.001370 0.000510
v -0.000282 0.088119 0.002553
v -0.010489 0.041515 0.010037
v -0.010149 0.001370 0.003914
v 0.000059 0.014975 0.011399
v 0.000059 0.050695 0.000510
v -0.002323 0.088805 0.004936
v -0.010149 0.013279 0.000510
v -0.001983 0.001370 0.011399
v -0.010149 0.013279 0.011399
v 0.000059 0.014975 0.000510
v -0.010489 0.041854 0.003574
v -0.003004 0.081312 0.001873
v 0.000059 0.086084 0.005615
v -0.008788 0.040837 0.011399
v -0.005046 0.058518 0.000510
v -0.007767 0.001370 0.000510
v -0.003344 0.084381 0.003574
v -0.010149 0.042532 0.001873
v -0.010149 0.001370 0.007996
v 0.000059 0.075870 0.001531
v -0.006745 0.049678 0.011058
v -0.001643 0.002048 0.005275
v -0.007767 0.058857 0.007316
v -0.010489 0.033352 0.010718
v 0.000059 0.064647 0.009016
v -0.002664 0.087101 0.005275
v -0.000623 0.066003 0.000851
v -0.010489 0.033691 0.002893
v -0.003004 0.084720 0.002553
v -0.006065 0.059883 0.000851
v -0.008447 0.042193 0.000510
v -0.007427 0.058857 0.001873
v -0.007086 0.062943 0.004255
v -0.001303 0.090170 0.003914
v -0.009808 0.041515 0.010718
v -0.010149 0.030970 0.011399
v -0.000962 0.078252 0.001531
v -0.001303 0.081999 0.006295
v -0.000282 0.089822 0.004936
v -0.006065 0.050695 0.011058
v -0.001983 0.088119 0.002553
v -0.010489 0.042193 0.009697
v -0.004025 0.080642 0.005275
v -0.010149 0.018721 0.000510
v 0.000059 0.086084 0.002893
v -0.009468 0.001370 0.002553
v -0.009468 0.001370 0.009356
v -0.005046 0.046609 0.011399
v -0.007086 0.061917 0.002553
v -0.000623 0.075870 0.007316
v -0.000623 0.056815 0.000510
f 148 160 184 
f 133 132 136 
f 130 132 137 
f 130 137 138 
f 138 133 140 
f 132 133 141 
f 137 132 141 
f 132 130 142 
f 133 138 143 
f 138 137 143 
f 130 138 146 
f 142 130 147 
f 138 140 148 
f 133 136 149 
f 140 133 149 
f 136 132 152 
f 146 138 153 
f 141 133 155 
f 137 141 155 
f 133 143 155 
f 143 137 155 
f 135 144 157 
f 136 152 157 
f 152 142 157 
f 131 130 158 
f 130 146 158 
f 139 150 159 
f 153 138 160 
f 140 136 161 
f 144 151 161 
f 157 144 161 
f 136 157 161 
f 145 148 163 
f 148 140 164 
f 129 163 164 
f 163 148 164 
f 129 151 165 
f 162 145 165 
f 163 129 165 
f 145 163 165 
f 147 154 168 
f 154 159 168 
f 159 135 168 
f 142 147 169 
f 135 157 169 
f 157 142 169 
f 147 168 169 
f 168 135 169 
f 148 145 170 
f 134 153 170 
f 160 148 170 
f 153 160 170 
f 159 171 172 
f 139 159 172 
f 134 167 172 
f 167 139 172 
f 171 146 172 
f 130 131 173 
f 159 154 173 
f 171 159 173 
f 150 139 174 
f 145 162 174 
f 162 150 174 
f 167 134 174 
f 139 167 174 
f 134 170 174 
f 170 145 174 
f 144 135 175 
f 135 159 175 
f 166 144 175 
f 156 166 175 
f 159 150 176 
f 166 156 176 
f 150 166 176 
f 175 159 176 
f 156 175 176 
f 151 129 177 
f 140 161 177 
f 161 151 177 
f 129 164 177 
f 164 140 177 
f 153 134 178 
f 146 153 178 
f 134 172 178 
f 172 146 178 
f 136 140 179 
f 149 136 179 
f 140 149 179 
f 132 142 180 
f 152 132 180 
f 142 152 180 
f 147 130 181 
f 154 147 181 
f 130 173 181 
f 173 154 181 
f 151 144 182 
f 150 162 182 
f 165 151 182 
f 162 165 182 
f 144 166 182 
f 166 150 182 
f 131 158 183 
f 158 146 183 
f 146 171 183 
f 173 131 183 
f 171 173 183 
f 138 148 184 
f 160 138 184 
o convex_3
v 0.010607 -0.029603 0.004594
v 0.008906 -0.007149 0.013781
v 0.008565 -0.007149 0.013781
v 0.007884 0.006465 0.000511
v 0.001420 0.003397 0.000853
v 0.001420 0.003739 0.011398
v 0.010607 -0.000342 0.010378
v 0.010607 -0.013949 -0.000170
v 0.010266 -0.024837 0.012418
v 0.007884 0.006465 0.011398
v 0.002781 -0.005108 0.007655
v 0.001420 0.006465 0.000511
v 0.003122 -0.004084 0.000511
v 0.010607 -0.000003 0.003233
v 0.001420 0.006465 0.011398
v 0.010266 -0.028922 0.010038
v 0.010266 -0.025176 0.001531
v 0.010607 -0.009189 0.013781
v 0.009246 0.006465 0.007315
v 0.006183 -0.010891 0.013099
v 0.002781 -0.005447 0.003574
v 0.010266 -0.029603 0.004594
v 0.005163 -0.011569 0.011058
v 0.010607 -0.021091 0.013439
v 0.005503 -0.003406 -0.000170
v 0.010266 -0.021776 0.000511
v 0.010607 -0.005786 0.000511
v 0.001761 -0.001023 0.005616
v 0.010607 -0.004084 0.013098
v 0.004823 -0.011904 0.008676
v 0.009246 0.006465 0.003916
v 0.001761 0.001360 0.011398
v 0.010266 -0.027220 0.002213
v 0.007204 -0.002386 -0.000170
v 0.001761 0.001017 0.000511
v 0.010607 -0.028922 0.010038
v 0.004483 -0.011230 0.004934
v 0.010266 -0.029603 0.006636
v 0.010266 -0.016671 0.013781
v 0.010607 0.000678 0.008676
v 0.010607 -0.025176 0.001531
v 0.010607 -0.001023 0.002213
v 0.004143 -0.005108 0.000171
v 0.010607 -0.011569 -0.000170
v 0.003122 -0.005789 0.002213
v 0.010266 -0.019054 0.000171
f 210 227 230 
f 191 185 192 
f 187 186 194 
f 189 190 196 
f 194 188 196 
f 191 192 198 
f 187 194 199 
f 196 190 199 
f 194 196 199 
f 186 187 202 
f 185 191 202 
f 188 194 203 
f 194 191 203 
f 187 199 204 
f 199 190 204 
f 200 193 207 
f 193 204 207 
f 185 202 208 
f 204 193 208 
f 201 197 210 
f 198 192 211 
f 190 189 212 
f 205 195 212 
f 194 186 213 
f 191 194 213 
f 186 202 213 
f 202 191 213 
f 207 195 214 
f 200 207 214 
f 188 203 215 
f 204 190 216 
f 195 207 216 
f 207 204 216 
f 190 212 216 
f 212 195 216 
f 197 201 217 
f 185 206 217 
f 196 188 218 
f 192 209 218 
f 209 196 218 
f 189 196 219 
f 196 209 219 
f 212 189 219 
f 205 212 219 
f 193 200 220 
f 185 208 220 
f 208 193 220 
f 195 205 221 
f 205 206 221 
f 214 195 221 
f 214 221 222 
f 206 185 222 
f 200 214 222 
f 185 220 222 
f 220 200 222 
f 221 206 222 
f 202 187 223 
f 187 204 223 
f 208 202 223 
f 204 208 223 
f 191 198 224 
f 203 191 224 
f 198 215 224 
f 215 203 224 
f 192 185 225 
f 210 192 225 
f 201 210 225 
f 185 217 225 
f 217 201 225 
f 211 188 226 
f 198 211 226 
f 188 215 226 
f 215 198 226 
f 210 197 227 
f 197 219 227 
f 219 209 227 
f 188 211 228 
f 211 192 228 
f 218 188 228 
f 192 218 228 
f 206 205 229 
f 197 217 229 
f 217 206 229 
f 219 197 229 
f 205 219 229 
f 209 192 230 
f 192 210 230 
f 227 209 230 
o convex_4
v 0.007203 0.047302 0.000510
v 0.000740 0.046966 0.011399
v 0.000059 0.046966 0.011399
v 0.000400 0.090170 0.004594
v 0.000059 0.014978 0.000510
v 0.009926 0.013274 0.011399
v 0.001421 0.006465 0.011399
v 0.008224 0.007153 0.000510
v 0.010267 0.041517 0.010037
v 0.009926 0.042533 0.001873
v 0.000059 0.082337 0.001873
v 0.002782 0.085737 0.003233
v 0.006184 0.050694 0.011058
v 0.009926 0.013274 0.000510
v 0.001421 0.006465 0.000510
v 0.008906 0.006465 0.008336
v 0.000059 0.014978 0.011399
v 0.000400 0.056814 0.000510
v 0.002441 0.087098 0.005275
v 0.003462 0.075872 0.001531
v 0.000059 0.075872 0.007316
v 0.009585 0.035732 0.011399
v 0.010267 0.042197 0.003914
v 0.007885 0.006465 0.011399
v 0.006184 0.067032 0.006295
v 0.009245 0.006473 0.004594
v 0.004482 0.058854 0.000510
v 0.001760 0.088122 0.002553
v 0.010267 0.033004 0.010718
v 0.008906 0.042197 0.000851
v 0.004482 0.075184 0.002213
v 0.010267 0.033684 0.002553
v 0.000059 0.088802 0.002893
v 0.006863 0.062943 0.003914
v 0.008906 0.043893 0.010718
v 0.006184 0.058174 0.000851
v 0.000059 0.064639 0.000851
v 0.001080 0.007833 0.002213
v 0.009926 0.044573 0.008336
v 0.000059 0.062263 0.009356
v 0.003462 0.082681 0.005275
v 0.000059 0.089826 0.004936
v 0.007885 0.006465 0.000510
v 0.007885 0.042877 0.011399
v 0.009926 0.018723 0.000510
v 0.002101 0.077913 0.001531
v 0.001760 0.089826 0.003914
v 0.001080 0.084041 0.005955
v 0.007203 0.058863 0.001873
v 0.000400 0.065999 0.000851
f 241 276 280 
f 232 233 236 
f 236 233 237 
f 235 231 238 
f 235 233 241 
f 233 232 243 
f 238 231 244 
f 235 238 245 
f 237 245 246 
f 233 235 247 
f 237 233 247 
f 231 235 248 
f 241 233 251 
f 232 236 252 
f 236 237 254 
f 246 236 254 
f 237 246 254 
f 244 236 256 
f 238 244 256 
f 236 246 256 
f 231 248 257 
f 236 244 259 
f 252 236 259 
f 239 252 259 
f 253 239 259 
f 258 242 261 
f 250 258 261 
f 240 253 262 
f 259 244 262 
f 253 259 262 
f 241 251 263 
f 258 241 263 
f 253 240 264 
f 261 242 264 
f 239 249 265 
f 249 243 265 
f 252 239 265 
f 231 257 266 
f 257 250 266 
f 260 231 266 
f 250 261 266 
f 235 241 267 
f 248 235 267 
f 235 245 268 
f 245 237 268 
f 247 235 268 
f 237 247 268 
f 239 253 269 
f 255 239 269 
f 253 264 269 
f 264 255 269 
f 233 243 270 
f 251 233 270 
f 243 251 270 
f 242 249 271 
f 249 239 271 
f 239 255 271 
f 264 242 271 
f 255 264 271 
f 249 234 272 
f 263 251 272 
f 234 263 272 
f 245 238 273 
f 246 245 273 
f 238 256 273 
f 256 246 273 
f 243 232 274 
f 232 252 274 
f 265 243 274 
f 252 265 274 
f 244 231 275 
f 231 260 275 
f 260 240 275 
f 240 262 275 
f 262 244 275 
f 250 257 276 
f 241 258 276 
f 258 250 276 
f 234 249 277 
f 249 242 277 
f 242 258 277 
f 263 234 277 
f 258 263 277 
f 243 249 278 
f 251 243 278 
f 249 272 278 
f 272 251 278 
f 240 260 279 
f 264 240 279 
f 261 264 279 
f 260 266 279 
f 266 261 279 
f 257 248 280 
f 267 241 280 
f 248 267 280 
f 276 257 280 
o convex_5
v 0.023536 -0.076898 0.007995
v 0.010607 -0.083700 0.004595
v 0.010607 -0.083700 0.007995
v 0.014350 -0.054783 0.009356
v 0.023536 -0.054786 0.000171
v 0.023536 -0.054786 0.014800
v 0.015031 -0.083361 0.014459
v 0.017753 -0.087101 0.001192
v 0.016052 -0.055468 0.000512
v 0.026938 -0.055804 0.004595
v 0.017414 -0.088127 0.011738
v 0.023536 -0.072475 0.013100
v 0.012650 -0.083700 0.000512
v 0.014350 -0.076215 0.014800
v 0.023876 -0.073832 0.002212
v 0.018094 -0.054786 0.014460
v 0.013670 -0.089824 0.006976
v 0.019454 -0.073493 0.015822
v 0.011629 -0.083021 0.012759
v 0.014690 -0.054783 0.002212
v 0.026599 -0.054786 0.010717
v 0.018094 -0.078938 -0.000170
v 0.018434 -0.088127 0.004595
v 0.025918 -0.064990 0.010036
v 0.012310 -0.087444 0.011738
v 0.015712 -0.055129 0.012419
v 0.021154 -0.075197 0.015141
v 0.023536 -0.067037 0.000511
v 0.019114 -0.054786 -0.000170
v 0.013670 -0.088805 0.002554
v 0.022856 -0.078595 0.010376
v 0.010607 -0.081317 0.004595
v 0.010607 -0.082000 0.010036
v 0.026258 -0.054786 0.002212
v 0.025918 -0.066012 0.004595
v 0.022514 -0.078938 0.002212
v 0.011288 -0.080638 0.002212
v 0.014011 -0.055808 0.004595
v 0.025238 -0.059888 0.013098
v 0.020815 -0.079620 0.000511
v 0.016052 -0.090167 0.004936
v 0.015712 -0.083361 -0.000169
v 0.020474 -0.060231 0.015481
v 0.011288 -0.086423 0.004595
v 0.014350 -0.089145 0.011397
v 0.021835 -0.078938 0.012759
v 0.017414 -0.086423 0.013100
v 0.019454 -0.086083 0.010035
v 0.023195 -0.078255 0.004595
v 0.017753 -0.073832 0.015822
v 0.023195 -0.066015 0.014800
v 0.024217 -0.074172 0.010376
v 0.014690 -0.054783 0.010716
v 0.017072 -0.089484 0.009695
v 0.017414 -0.078938 0.015481
v 0.025238 -0.066351 0.002212
v 0.012989 -0.084722 0.013779
v 0.015031 -0.086762 0.000512
v 0.011969 -0.079617 0.012759
v 0.011629 -0.085740 0.002212
v 0.020815 -0.066015 -0.000170
v 0.014690 -0.076555 0.015140
v 0.014350 -0.076215 0.000173
v 0.019793 -0.085061 0.002212
f 329 303 344 
f 290 301 304 
f 294 296 306 
f 300 285 309 
f 289 300 309 
f 282 283 312 
f 283 305 313 
f 305 299 313 
f 312 283 313 
f 285 300 314 
f 301 290 314 
f 300 301 314 
f 308 285 314 
f 290 304 315 
f 289 293 317 
f 300 289 317 
f 282 312 317 
f 312 300 317 
f 284 300 318 
f 300 312 318 
f 313 284 318 
f 312 313 318 
f 301 286 319 
f 292 304 319 
f 304 301 319 
f 308 295 320 
f 302 308 320 
f 295 316 320 
f 288 303 321 
f 310 288 321 
f 297 310 321 
f 309 302 322 
f 320 288 322 
f 302 320 322 
f 286 296 323 
f 298 286 323 
f 283 282 324 
f 305 283 324 
f 297 305 324 
f 310 297 324 
f 305 297 325 
f 292 307 326 
f 325 291 327 
f 291 326 327 
f 326 307 327 
f 326 291 328 
f 311 326 328 
f 281 311 329 
f 295 315 329 
f 316 295 329 
f 328 303 329 
f 311 328 329 
f 323 296 330 
f 298 323 330 
f 286 298 331 
f 307 292 331 
f 298 307 331 
f 319 286 331 
f 292 319 331 
f 304 292 332 
f 311 281 332 
f 315 304 332 
f 292 326 332 
f 326 311 332 
f 281 329 332 
f 329 315 332 
f 296 286 333 
f 300 284 333 
f 286 301 333 
f 301 300 333 
f 306 296 333 
f 284 313 333 
f 297 321 334 
f 321 303 334 
f 291 325 334 
f 325 297 334 
f 328 291 334 
f 303 328 334 
f 307 298 335 
f 287 327 335 
f 327 307 335 
f 298 330 335 
f 295 308 336 
f 314 290 336 
f 308 314 336 
f 315 295 336 
f 290 315 336 
f 299 305 337 
f 305 325 337 
f 327 287 337 
f 325 327 337 
f 288 310 338 
f 293 322 338 
f 322 288 338 
f 299 294 339 
f 294 306 339 
f 313 299 339 
f 306 333 339 
f 333 313 339 
f 282 317 340 
f 317 293 340 
f 324 282 340 
f 310 324 340 
f 293 338 340 
f 338 310 340 
f 285 308 341 
f 308 302 341 
f 309 285 341 
f 302 309 341 
f 296 294 342 
f 294 299 342 
f 330 296 342 
f 287 335 342 
f 335 330 342 
f 299 337 342 
f 337 287 342 
f 293 289 343 
f 289 309 343 
f 322 293 343 
f 309 322 343 
f 303 288 344 
f 288 320 344 
f 320 316 344 
f 316 329 344 
o convex_6
v 0.020474 -0.020077 0.009697
v 0.010607 -0.031300 0.004595
v 0.010607 -0.031300 0.006296
v 0.026940 -0.054783 0.006976
v 0.019112 -0.054783 0.014800
v 0.019112 -0.054783 -0.000169
v 0.011969 -0.007149 0.000512
v 0.010607 -0.004430 0.013099
v 0.024217 -0.035045 0.001874
v 0.024556 -0.037764 0.012759
v 0.014351 -0.054437 0.010037
v 0.014692 -0.054783 0.002213
v 0.010607 -0.012253 -0.000170
v 0.014011 -0.004430 0.004254
v 0.010607 -0.022122 0.013439
v 0.023536 -0.054437 0.014800
v 0.024556 -0.052732 0.000513
v 0.019793 -0.025527 0.014120
v 0.025237 -0.035045 0.004596
v 0.010948 0.000340 0.008676
v 0.021835 -0.035045 0.000173
v 0.014011 -0.005789 0.011398
v 0.017753 -0.031640 0.014800
v 0.021154 -0.023827 0.002214
v 0.026599 -0.047293 0.010377
v 0.010607 -0.023142 0.000512
v 0.026259 -0.054783 0.002213
v 0.010607 -0.000005 0.003914
v 0.015712 -0.054783 0.012418
v 0.026599 -0.044574 0.004254
v 0.024897 -0.034365 0.010037
v 0.016052 -0.054437 0.000512
v 0.021835 -0.023482 0.004596
v 0.011969 -0.015318 0.014120
v 0.014351 -0.004430 0.009015
v 0.025578 -0.054783 0.013099
v 0.021154 -0.023827 0.012078
v 0.023877 -0.043889 0.014460
v 0.014011 -0.054437 0.004595
v 0.010607 -0.030620 0.009695
v 0.021154 -0.044568 -0.000169
v 0.020134 -0.025867 0.000513
v 0.013670 -0.006809 0.001873
v 0.020815 -0.047633 0.015142
v 0.025918 -0.044234 0.002213
v 0.022176 -0.034365 0.014460
v 0.014351 -0.018378 -0.000170
v 0.010607 -0.028576 0.002213
v 0.025578 -0.044234 0.012759
v 0.011288 -0.004430 0.013099
v 0.018094 -0.054783 0.014460
v 0.026259 -0.042874 0.010377
v 0.010607 -0.018378 0.013779
v 0.024217 -0.044568 0.000513
v 0.020474 -0.054783 0.015142
v 0.010948 -0.001710 0.002213
v 0.023536 -0.054783 0.000173
v 0.010607 -0.026881 0.012078
v 0.017753 -0.014638 0.011738
v 0.018094 -0.013958 0.004254
v 0.018433 -0.017358 0.001874
v 0.010607 -0.014978 -0.000170
v 0.023877 -0.034025 0.012759
v 0.026599 -0.054783 0.010717
f 393 380 408 
f 348 349 350 
f 346 347 352 
f 350 349 356 
f 346 352 357 
f 352 347 359 
f 363 353 368 
f 346 357 370 
f 348 350 371 
f 357 352 372 
f 352 364 372 
f 364 358 372 
f 356 349 373 
f 355 356 373 
f 369 348 374 
f 348 371 374 
f 350 356 376 
f 356 370 376 
f 363 368 377 
f 345 375 377 
f 375 363 377 
f 367 362 378 
f 358 364 379 
f 364 366 379 
f 345 377 379 
f 349 348 380 
f 375 345 381 
f 360 380 382 
f 347 346 383 
f 356 355 383 
f 359 347 384 
f 347 383 384 
f 383 355 384 
f 353 365 386 
f 368 353 386 
f 360 382 388 
f 353 363 389 
f 371 361 389 
f 363 374 389 
f 374 371 389 
f 362 367 390 
f 382 354 390 
f 367 388 390 
f 388 382 390 
f 357 351 391 
f 385 350 391 
f 365 385 391 
f 351 386 391 
f 386 365 391 
f 370 356 392 
f 346 370 392 
f 383 346 392 
f 356 383 392 
f 354 382 393 
f 382 380 393 
f 364 352 394 
f 366 364 394 
f 352 378 394 
f 378 362 394 
f 373 349 395 
f 359 373 395 
f 374 363 396 
f 369 374 396 
f 375 354 396 
f 363 375 396 
f 354 393 396 
f 393 369 396 
f 352 359 397 
f 378 352 397 
f 395 349 397 
f 359 395 397 
f 365 353 398 
f 385 365 398 
f 353 389 398 
f 389 361 398 
f 367 378 399 
f 349 380 399 
f 380 360 399 
f 360 388 399 
f 388 367 399 
f 378 397 399 
f 397 349 399 
f 351 357 400 
f 357 372 400 
f 372 358 400 
f 358 387 400 
f 387 351 400 
f 371 350 401 
f 361 371 401 
f 350 385 401 
f 398 361 401 
f 385 398 401 
f 355 373 402 
f 373 359 402 
f 359 384 402 
f 384 355 402 
f 345 379 403 
f 379 366 403 
f 362 381 403 
f 381 345 403 
f 394 362 403 
f 366 394 403 
f 377 368 404 
f 358 379 404 
f 379 377 404 
f 386 351 405 
f 368 386 405 
f 387 358 405 
f 351 387 405 
f 404 368 405 
f 358 404 405 
f 370 357 406 
f 350 376 406 
f 376 370 406 
f 357 391 406 
f 391 350 406 
f 354 375 407 
f 381 362 407 
f 375 381 407 
f 362 390 407 
f 390 354 407 
f 348 369 408 
f 380 348 408 
f 369 393 408 
