# https://github.com/mikedh/trimesh
mtllib material0.mtl
usemtl material0
v -0.02237094 -0.00543445 0.00349415
v 0.00697664 0.00588553 0.01300858
v -0.01723406 -0.04939405 0.01026752
v -0.01723406 -0.04939405 0.01026752
v -0.01324208 0.02317884 0.00447097
v -0.01324208 0.02317884 0.00447097
v -0.01324208 0.02317884 0.00447097
v -0.01961713 -0.03988873 0.01240505
v -0.01999254 0.00911423 0.01299882
v 0.01723406 -0.04939551 0.00564086
v 0.01723406 -0.04939551 0.00564086
v 0.01420277 0.02556551 0.01041271
v 0.00303129 0.05241762 0.00446208
v 0.00303129 0.05241762 0.00446208
v 0.00303129 0.05241762 0.00446208
v 0.00303129 0.05241762 0.00446208
v 0.00303129 0.05241762 0.00446208
v 0.00303129 0.05241762 0.00446208
v 0.01595309 -0.03099363 0.00564731
v 0.01595309 -0.03099363 0.00564731
v 0.02541305 0.01922949 0.01359648
v 0.02541305 0.01922949 0.01359648
v 0.02541305 0.01922949 0.01359648
v 0.02541305 0.01922949 0.01359648
v -0.01443679 -0.08550104 0.00350497
v -0.00457109 0.00529243 0.01052551
v -0.00457109 0.00529243 0.01052551
v 0.00916532 -0.00881616 0.01022700
v 0.00916532 -0.00881616 0.01022700
v 0.01310983 -0.02049662 0.01023699
v 0.01310983 -0.02049662 0.01023699
v -0.00171319 0.07548849 0.01140844
v -0.00171319 0.07548849 0.01140844
v -0.00407527 0.08994458 0.01140677
v -0.00407527 0.08994458 0.01140677
v -0.00407527 0.08994458 0.01140677
v 0.02937854 -0.03920862 0.01240312
v 0.01733032 0.02455327 0.00253965
v 0.01733032 0.02455327 0.00253965
v -0.03145017 -0.04998020 0.00564884
v -0.03145017 -0.04998020 0.00564884
v 0.01215147 0.03825358 0.00446070
v 0.01215147 0.03825358 0.00446070
v -0.01323993 0.02317997 0.01142491
v -0.01323993 0.02317997 0.01142491
v -0.01323993 0.02317997 0.01142491
v 0.02155231 -0.08875524 0.00608091
v 0.02155231 -0.08875524 0.00608091
v 0.02155231 -0.08875524 0.00608091
v -0.02937574 -0.03920789 0.01240793
v 0.00407807 0.08994517 0.01140764
v 0.00407807 0.08994517 0.01140764
v 0.00407807 0.08994517 0.01140764
v -0.01590131 -0.06064631 0.00565037
v -0.01590131 -0.06064631 0.00565037
v -0.00360359 0.02203832 0.01334049
v -0.00360359 0.02203832 0.01334049
v -0.01267649 -0.07952765 0.01027612
v -0.01267649 -0.07952765 0.01027612
v -0.00025985 0.05246495 0.00446402
v -0.00025985 0.05246495 0.00446402
v -0.00025985 0.05246495 0.00446402
v 0.02140690 -0.08675466 0.00350741
v 0.01429269 0.05802671 0.00667070
v 0.01429269 0.05802671 0.00667070
v 0.00489335 0.04968341 0.00793645
v 0.02115507 0.01991477 0.01181195
v 0.02115507 0.01991477 0.01181195
v 0.02115507 0.01991477 0.01181195
v 0.02115507 0.01991477 0.01181195
v -0.01139952 0.04302739 0.00794228
v -0.01139952 0.04302739 0.00794228
v -0.01139952 0.04302739 0.00794228
v 0.01132501 0.03393603 0.00793510
v 0.01132501 0.03393603 0.00793510
v 0.01132501 0.03393603 0.00793510
v -0.02436729 0.01383000 0.01585763
v -0.02436729 0.01383000 0.01585763
v -0.00230415 0.00852702 0.01360715
v -0.00230415 0.00852702 0.01360715
v -0.00230415 0.00852702 0.01360715
v -0.00230415 0.00852702 0.01360715
v 0.00090203 0.08999887 0.00445651
v 0.00090203 0.08999887 0.00445651
v 0.00090203 0.08999887 0.00445217
v 0.00320031 0.07435959 0.01141048
v 0.00320031 0.07435959 0.01141048
v -0.02155369 -0.08875455 0.00609319
v -0.02155369 -0.08875455 0.00609319
v -0.02155369 -0.08875455 0.00609319
v -0.01102112 0.04341545 0.00794239
v -0.02541276 0.01922836 0.00228925
v -0.02541276 0.01922836 0.00228925
v -0.02541276 0.01922836 0.00228925
v -0.02541276 0.01922836 0.00228925
v 0.00426826 0.04984113 0.00793630
v -0.00881527 0.04696286 0.00794082
v -0.02000391 -0.08813393 0.00353022
v -0.02000391 -0.08813393 0.00353022
v -0.02804849 -0.02815435 0.01240571
v -0.00697634 0.00588448 0.00288151
v -0.00360695 0.02203653 0.00250209
v -0.00360695 0.02203653 0.00250209
v -0.01408440 0.03318608 0.01042043
v -0.01408440 0.03318608 0.01042043
v -0.02437214 0.01382738 0.00000645
v -0.02437214 0.01382738 0.00000645
v -0.00450551 0.02732315 0.01141814
v -0.00450551 0.02732315 0.01141814
v -0.01130494 -0.00825173 0.00349123
v -0.01887384 0.02479672 0.00407202
v -0.01887384 0.02479672 0.00407202
v -0.01887384 0.02479672 0.00407202
v 0.00230790 0.00852640 0.01360533
v 0.00230790 0.00852640 0.01360533
v 0.00230790 0.00852640 0.01360533
v 0.00230790 0.00852640 0.01360533
v 0.01248371 -0.08412920 0.00564305
v 0.01248371 -0.08412920 0.00564305
v -0.00115011 0.01338995 0.00228276
v -0.00115011 0.01338995 0.00228276
v -0.00115011 0.01338995 0.00228276
v -0.00115011 0.01338995 0.00228276
v 0.00068966 0.07771175 0.00445862
v 0.00068966 0.07771175 0.00445862
v 0.00068966 0.07771175 0.00445862
v -0.01310972 -0.02049673 0.00566185
v -0.01310972 -0.02049673 0.00566185
v 0.00219980 0.07672811 0.00445830
v 0.00219980 0.07672811 0.00445830
v 0.00019448 0.02623181 0.00794148
v 0.03152639 -0.03905534 0.00562844
v 0.03152639 -0.03905534 0.00562844
v 0.00454789 0.00905936 0.00003673
v 0.00454789 0.00905936 0.00003673
v 0.01474702 -0.07976039 0.01239740
v 0.02155344 -0.08875462 0.00982824
v 0.02155344 -0.08875462 0.00982824
v 0.02155344 -0.08875462 0.00982824
v -0.02061184 -0.08806788 0.01197430
v -0.02061184 -0.08806788 0.01197430
v 0.01408480 0.03318458 0.00546063
v 0.01408480 0.03318458 0.00546063
v -0.00916372 -0.00881554 0.01023302
v -0.00916372 -0.00881554 0.01023302
v -0.03017291 -0.02763925 0.01027262
v -0.03017291 -0.02763925 0.01027262
v -0.00447688 0.02440425 0.00446810
v -0.00447688 0.02440425 0.00446810
v 0.00516963 0.02732052 0.00446125
v 0.00516963 0.02732052 0.00446125
v -0.01809521 -0.03049274 0.01240305
v -0.00892439 0.03048079 0.00794559
v -0.00022924 0.05069423 0.00445997
v -0.00022924 0.05069423 0.00445997
v -0.00022924 0.05069423 0.00445997
v -0.01474447 -0.07975970 0.01241015
v -0.00447538 0.02157102 0.00446857
v -0.00447538 0.02157102 0.00446857
v -0.00447538 0.02157102 0.00446857
v 0.01102152 0.04341479 0.00793528
v -0.01318918 0.02554889 0.01142451
v -0.01318918 0.02554889 0.01142451
v 0.00338266 0.01392658 0.01588743
v 0.00338266 0.01392658 0.01588743
v 0.01102385 0.03350968 0.00446183
v 0.01102385 0.03350968 0.00446183
v 0.01410411 -0.08718039 0.00607676
v 0.01410411 -0.08718039 0.00607676
v 0.01410411 -0.08718039 0.00607676
v 0.02936317 -0.04988562 0.01240487
v 0.02657438 0.01436157 0.00227369
v 0.02657438 0.01436157 0.00227369
v 0.02657438 0.01436157 0.00227369
v 0.02657438 0.01436157 0.00227369
v 0.00069181 0.07771288 0.01141070
v 0.00069181 0.07771288 0.01141070
v 0.00069181 0.07771288 0.01141070
v 0.01877146 -0.08981900 0.00569989
v -0.01429294 0.05802617 0.00667919
v -0.01429294 0.05802617 0.00667919
v -0.02140715 -0.08675251 0.01241336
v 0.00206438 0.02175373 0.00406572
v 0.00206438 0.02175373 0.00406572
v 0.00206438 0.02175373 0.00406572
v -0.00321240 0.06740397 0.01141023
v -0.00321240 0.06740397 0.01141023
v 0.01942669 0.01948219 0.01337824
v 0.01942669 0.01948219 0.01337824
v -0.01132461 0.03393668 0.00794574
v -0.01132461 0.03393668 0.00794574
v -0.01132461 0.03393668 0.00794574
v -0.00217943 0.01529037 0.00406849
v -0.00217943 0.01529037 0.00406849
v -0.00217943 0.01529037 0.00406849
v -0.00217943 0.01529037 0.00406849
v -0.01422383 0.02336021 0.01042211
v -0.01422383 0.02336021 0.01042211
v 0.00323408 0.06544566 0.00445986
v 0.00323408 0.06544566 0.00445986
v 0.00323408 0.06544566 0.00445986
v -0.00447473 0.02440538 0.01142203
v -0.00447473 0.02440538 0.01142203
v 0.00171377 0.07548787 0.00445866
v 0.00171377 0.07548787 0.00445866
v 0.00022760 0.05069481 0.00446321
v 0.00022760 0.05069481 0.00446321
v 0.00022760 0.05069481 0.00446321
v 0.00022760 0.05069481 0.00446321
v 0.00022760 0.05069481 0.00446321
v 0.00022760 0.05069481 0.00446321
v 0.00350140 0.02139041 0.00546584
v 0.00350140 0.02139041 0.00546584
v -0.00447323 0.02157218 0.01142251
v -0.00447323 0.02157218 0.01142251
v -0.00447323 0.02157218 0.01142251
v 0.03017444 -0.02764001 0.01025371
v 0.03017444 -0.02764001 0.01025371
v -0.02547776 -0.01753138 0.01238185
v 0.01618852 -0.08901851 0.01022008
v -0.00241046 0.06545936 0.00446252
v -0.00241046 0.06545936 0.00446252
v -0.02977370 -0.06254298 0.00564972
v -0.02977370 -0.06254298 0.00564972
v -0.00372324 0.01565847 0.01334158
v -0.00372324 0.01565847 0.01334158
v -0.00221692 0.07309920 0.00445687
v -0.00221692 0.07309920 0.00445687
v 0.00881465 0.04696283 0.00446121
v 0.01595451 -0.03099287 0.01024478
v 0.01595451 -0.03099287 0.01024478
v -0.01942301 0.01948285 0.01334577
v -0.01942301 0.01948285 0.01334577
v 0.00259350 0.02642480 0.00446216
v 0.00259350 0.02642480 0.00446216
v 0.00259350 0.02642480 0.00446216
v 0.00350289 0.02139121 0.01041672
v 0.00350289 0.02139121 0.01041672
v -0.00114664 0.01339185 0.01360599
v -0.00114664 0.01339185 0.01360599
v -0.00114664 0.01339185 0.01360599
v -0.00114664 0.01339185 0.01360599
v -0.02370963 -0.08091753 0.00352395
v 0.00114697 0.01338937 0.00228167
v 0.00114697 0.01338937 0.00228167
v 0.00114697 0.01338937 0.00228167
v 0.00114697 0.01338937 0.00228167
v -0.01826496 -0.06091879 0.00350205
v -0.01215107 0.03825424 0.01141872
v -0.01215107 0.03825424 0.01141872
v -0.00259318 0.02642658 0.01142112
v -0.00259318 0.02642658 0.01142112
v -0.00259318 0.02642658 0.01142112
v -0.02768295 -0.06223158 0.01241125
v 0.01429345 0.05802715 0.00919367
v 0.01429345 0.05802715 0.00919367
v 0.02236835 -0.00543518 0.00348001
v 0.01826212 -0.06091952 0.00350409
v 0.01955158 -0.04948259 0.01240782
v 0.00171592 0.07548904 0.01141074
v 0.00171592 0.07548904 0.01141074
v -0.03144875 -0.04997944 0.01027943
v -0.03144875 -0.04997944 0.01027943
v -0.01248535 -0.08412851 0.00565110
v -0.01248535 -0.08412851 0.00565110
v -0.00090349 0.08999829 0.00445800
v -0.00090349 0.08999829 0.00445800
v -0.00090349 0.08999829 0.00445800
v 0.00447356 0.02157043 0.00446241
v 0.00447356 0.02157043 0.00446241
v 0.00447356 0.02157043 0.00446241
v -0.00350107 0.02139180 0.01041912
v -0.00350107 0.02139180 0.01041912
v 0.00234932 0.06852253 0.00445961
v 0.00234932 0.06852253 0.00445961
v 0.01139890 0.04302736 0.00446106
v 0.01139890 0.04302736 0.00446106
v 0.01139890 0.04302736 0.00446106
v 0.00896454 0.03044013 0.00445953
v 0.00896454 0.03044013 0.00445953
v -0.00347309 0.02375092 0.01041876
v -0.00337749 0.01392724 0.01585344
v -0.00337749 0.01392724 0.01585344
v -0.01736807 -0.04004273 0.01026213
v -0.01736807 -0.04004273 0.01026213
v 0.00022975 0.05069598 0.01141529
v 0.00022975 0.05069598 0.01141529
v 0.00022975 0.05069598 0.01141529
v -0.00489397 0.04968228 0.00446157
v -0.00489397 0.04968228 0.00446157
v -0.01589989 -0.06064554 0.01027185
v -0.01589989 -0.06064554 0.01027185
v 0.02657784 0.01436346 0.01359691
v 0.02657784 0.01436346 0.01359691
v 0.02657784 0.01436346 0.01359691
v 0.02657784 0.01436346 0.01359691
v -0.00240831 0.06546049 0.01141030
v -0.00240831 0.06546049 0.01141460
v 0.00365661 0.06965507 0.00445902
v 0.00365661 0.06965507 0.00445902
v -0.01618437 -0.08901811 0.01021812
v -0.02236821 -0.00543299 0.01241380
v -0.00221477 0.07310036 0.01140899
v -0.00221477 0.07310036 0.01140899
v 0.00881680 0.04696396 0.01141329
v 0.00881680 0.04696396 0.01141329
v 0.01525013 -0.08856531 0.00930126
v 0.00259565 0.02642597 0.01141609
v 0.00259565 0.02642597 0.01141609
v 0.00259565 0.02642597 0.01141609
v 0.01422416 0.02335871 0.00546219
v 0.01422416 0.02335871 0.00546219
v -0.01972399 -0.08999887 0.00930151
v -0.01942636 0.01948106 0.00250737
v -0.01942636 0.01948106 0.00250737
v -0.01221421 0.03867530 0.00794352
v -0.01443405 -0.08549959 0.01241103
v 0.02575156 -0.08109441 0.01026766
v 0.02575156 -0.08109441 0.01026766
v -0.00206405 0.02175566 0.01181913
v -0.00206405 0.02175566 0.01181913
v -0.00206405 0.02175566 0.01181913
v 0.01524930 -0.08856578 0.00661401
v 0.01589986 -0.06064696 0.00564024
v 0.01589986 -0.06064696 0.00564024
v 0.02547790 -0.01753353 0.00351597
v -0.02657405 0.01436419 0.01361364
v -0.02657405 0.01436419 0.01361364
v -0.02657405 0.01436419 0.01361364
v -0.02657405 0.01436419 0.01361364
v -0.00090134 0.08999945 0.01140578
v -0.00090134 0.08999945 0.01140578
v -0.00090134 0.08999945 0.01141008
v -0.00338233 0.01392458 0.00000000
v -0.00338233 0.01392458 0.00000000
v 0.01318951 0.02554707 0.00445906
v 0.01318951 0.02554707 0.00445906
v 0.00235147 0.06852366 0.01141169
v 0.00235147 0.06852366 0.01141169
v 0.01140105 0.04302852 0.01141314
v 0.01140105 0.04302852 0.01141314
v 0.01140105 0.04302852 0.01141314
v 0.02319744 0.01869125 0.00002714
v 0.02319744 0.01869125 0.00002714
v -0.00697325 0.00588615 0.01299535
v 0.03144871 -0.04998093 0.00562917
v 0.03144871 -0.04998093 0.00562917
v -0.01955162 -0.04948335 0.00350056
v 0.02937577 -0.03921008 0.00349710
v 0.01443383 -0.08550170 0.00350934
v 0.00447720 0.02440476 0.01141588
v 0.00447720 0.02440476 0.01141588
v 0.00842255 0.04726067 0.00793546
v 0.02977217 -0.06254374 0.00563103
v 0.02977217 -0.06254374 0.00563103
v -0.00426775 0.04984175 0.00793925
v -0.01140061 0.04302681 0.00446471
v -0.01140061 0.04302681 0.00446471
v -0.01140061 0.04302681 0.00446471
v 0.01618415 -0.08901953 0.00570338
v 0.00025821 0.05246557 0.00446292
v 0.00025821 0.05246557 0.00446292
v 0.00025821 0.05246557 0.00446292
v 0.00025821 0.05246557 0.00445859
v 0.01215253 0.03825416 0.00793612
v -0.01310830 -0.02049596 0.01024540
v -0.01310830 -0.02049596 0.01024540
v 0.00115043 0.01339123 0.01360489
v 0.00115043 0.01339123 0.01360489
v 0.00115043 0.01339123 0.01360489
v 0.00115043 0.01339123 0.01360489
v 0.01221465 0.03867461 0.00793572
v 0.00450584 0.02732253 0.00446485
v 0.00450584 0.02732253 0.00446485
v 0.01248514 -0.08412844 0.01026879
v 0.01248514 -0.08412844 0.01026879
v 0.01267634 -0.07952907 0.00564221
v 0.01267634 -0.07952907 0.00564221
v 0.00360727 0.02203770 0.01338268
v 0.00360727 0.02203770 0.01338268
v -0.01102454 0.03350972 0.00794373
v 0.02347856 -0.08678115 0.00563664
v 0.02347856 -0.08678115 0.00563664
v 0.03152781 -0.03905458 0.01025677
v 0.03152781 -0.03905458 0.01025677
v 0.01961716 -0.03989088 0.00350020
v 0.00240175 0.07081090 0.00445921
v 0.00240175 0.07081090 0.00445921
v 0.00407596 0.08994400 0.00445556
v 0.00407596 0.08994400 0.00445556
v 0.00407596 0.08994400 0.00445556
v 0.00916387 -0.00881693 0.00566196
v 0.00916387 -0.00881693 0.00566196
v -0.00169133 0.06640485 0.00445782
v -0.00169133 0.06640485 0.00445782
v -0.00842313 0.04726074 0.00446642
v -0.00842313 0.04726074 0.00446642
v -0.01999567 0.00911255 0.00288497
v -0.01139846 0.04302794 0.01141679
v -0.01139846 0.04302794 0.01141679
v -0.01139846 0.04302794 0.01141679
v 0.00026036 0.05246670 0.01141070
v 0.00026036 0.05246670 0.01141070
v 0.00026036 0.05246670 0.01141070
v -0.01618874 -0.08901858 0.00570138
v -0.02936320 -0.04988635 0.00350366
v -0.02464605 -0.00500642 0.01026187
v -0.02464605 -0.00500642 0.01026187
v -0.00019518 0.02623181 0.00446649
v -0.00019518 0.02623181 0.00446649
v -0.00303293 0.05241704 0.00446055
v -0.00303293 0.05241704 0.00446055
v -0.00303293 0.05241704 0.00446055
v 0.00841286 0.02966726 0.00793871
v -0.01736945 -0.04004350 0.00565423
v -0.01736945 -0.04004350 0.00565423
v 0.00361875 0.07192905 0.00445866
v 0.00361875 0.07192905 0.00445866
v -0.01130220 -0.00825027 0.01241088
v 0.00240390 0.07081206 0.01141129
v 0.00240390 0.07081206 0.01141129
v 0.00426931 0.04984172 0.01141085
v 0.00426931 0.04984172 0.01141085
v -0.00220133 0.07672757 0.00445625
v -0.00220133 0.07672757 0.00445625
v -0.00881421 0.04696344 0.01141533
v -0.02115474 0.01991422 0.00407355
v -0.02115474 0.01991422 0.00407355
v -0.02115474 0.01991422 0.00407355
v -0.02115474 0.01991422 0.00407355
v -0.00069119 0.07771113 0.00445564
v -0.00069119 0.07771113 0.00445564
v -0.00069119 0.07771113 0.00445564
v -0.00168918 0.06640602 0.01140994
v -0.00168918 0.06640602 0.01140994
v -0.01877168 -0.08981758 0.01022190
v 0.00169188 0.06640660 0.01141223
v 0.00169188 0.06640660 0.01141223
v 0.00319820 0.07435842 0.00445840
v 0.00319820 0.07435842 0.00445840
v -0.00303078 0.05241820 0.01141267
v -0.00303078 0.05241820 0.01141267
v -0.00303078 0.05241820 0.01141267
v -0.00303078 0.05241820 0.01141267
v -0.00303078 0.05241820 0.01141267
v -0.00303078 0.05241820 0.01141267
v -0.01410433 -0.08717911 0.00984416
v -0.01410433 -0.08717911 0.00984416
v -0.01410433 -0.08717911 0.00984416
v 0.01324026 0.02317815 0.00445942
v 0.01324026 0.02317815 0.00445942
v 0.01324026 0.02317815 0.00445942
v -0.00841249 0.02966668 0.00794355
v -0.02977228 -0.06254221 0.01028169
v -0.02977228 -0.06254221 0.01028169
v 0.00019554 0.02623236 0.01141686
v 0.00019554 0.02623236 0.01141686
v -0.01732999 0.02455575 0.01334432
v -0.01732999 0.02455575 0.01334432
v -0.00347466 0.02375008 0.00546791
v 0.02255482 0.00975429 0.01055345
v 0.02255482 0.00975429 0.01055345
v 0.00362090 0.07193018 0.01141074
v 0.00362090 0.07193018 0.01141074
v 0.02370671 -0.08091822 0.00350573
v -0.00219918 0.07672870 0.01140837
v -0.00219918 0.07672870 0.01140837
v -0.01525939 -0.01998676 0.01241402
v -0.00068904 0.07771230 0.01140775
v -0.00068904 0.07771230 0.01140775
v -0.00068904 0.07771230 0.01140775
v 0.02061162 -0.08806992 0.00394687
v 0.02061162 -0.08806992 0.00394687
v 0.02936040 -0.04988708 0.00349885
v 0.00455277 0.00906198 0.01588791
v 0.00455277 0.00906198 0.01588791
v -0.01420244 0.02556540 0.00547090
v 0.01130238 -0.00825238 0.00348391
v -0.00022818 0.05069478 0.00793758
v -0.00022818 0.05069478 0.00793758
v -0.00022818 0.05069478 0.00793758
v 0.02769235 -0.01700123 0.00562982
v 0.02769235 -0.01700123 0.00562982
v 0.00217736 0.01528975 0.00406674
v 0.00217736 0.01528975 0.00406674
v 0.00217736 0.01528975 0.00406674
v 0.00217736 0.01528975 0.00406674
v 0.02464623 -0.00500792 0.00563183
v 0.02464623 -0.00500792 0.00563183
v -0.01319130 0.02554773 0.00447057
v -0.01319130 0.02554773 0.00447057
v 0.02000369 -0.08813313 0.01239103
v 0.02000369 -0.08813313 0.01239103
v -0.01595444 -0.03099294 0.00565751
v -0.01595444 -0.03099294 0.00565751
v -0.01215217 0.03825365 0.00794330
v -0.01308254 0.03344767 0.00446923
v -0.01308254 0.03344767 0.00446923
v -0.01308254 0.03344767 0.00446923
v -0.00321452 0.06740284 0.00445811
v -0.00321452 0.06740284 0.00445811
v 0.01590128 -0.06064620 0.01026176
v 0.01590128 -0.06064620 0.01026176
v 0.01972453 -0.08999956 0.00929270
v -0.02370689 -0.08091603 0.01241311
v -0.01826223 -0.06091734 0.01240811
v 0.01887111 0.02483592 0.00406007
v 0.01887111 0.02483592 0.00406007
v 0.01887111 0.02483592 0.00406007
v 0.02768284 -0.06223380 0.00350143
v 0.01736945 -0.04004343 0.01025109
v 0.01736945 -0.04004343 0.01025109
v 0.00022866 0.05069540 0.00793772
v 0.00022866 0.05069540 0.00793772
v 0.00022866 0.05069540 0.00793772
v -0.00365606 0.06965566 0.01141001
v -0.00365606 0.06965566 0.01141001
v 0.00240886 0.06545994 0.00446012
v 0.00240886 0.06545994 0.00445578
v 0.01408633 0.03318542 0.01041151
v 0.01408633 0.03318542 0.01041151
v 0.01826485 -0.06091803 0.01241012
v 0.01972369 -0.09000000 0.00662031
v 0.03145013 -0.04998016 0.01025972
v 0.03145013 -0.04998016 0.01025972
v 0.00881571 0.04696341 0.00793572
v -0.00454763 0.00906264 0.01585235
v -0.00454763 0.00906264 0.01585235
v -0.00234878 0.06852307 0.01140979
v -0.00234878 0.06852307 0.01140979
v 0.01954881 -0.04948404 0.00350180
v -0.02464743 -0.00500719 0.00564731
v -0.02464743 -0.00500719 0.00564731
v 0.02977359 -0.06254298 0.01026300
v 0.02977359 -0.06254298 0.01026300
v 0.01733364 0.02455505 0.01337806
v 0.01733364 0.02455505 0.01337806
v -0.01308039 0.03344884 0.01142316
v -0.01308039 0.03344884 0.01142316
v -0.01308039 0.03344884 0.01142316
v -0.00230764 0.00852513 0.00228393
v -0.00230764 0.00852513 0.00228393
v -0.00230764 0.00852513 0.00228393
v -0.00230764 0.00852513 0.00228393
v -0.00292556 0.02521126 0.01142141
v -0.00292556 0.02521126 0.01142141
v 0.01420124 0.02556471 0.00546186
v -0.00217707 0.01529165 0.01182022
v -0.00217707 0.01529165 0.01182022
v -0.00217707 0.01529165 0.01182022
v -0.00217707 0.01529165 0.01182022
v 0.01809529 -0.03049493 0.00349910
v -0.01136654 0.03389664 0.00446864
v -0.01136654 0.03389664 0.00446864
v -0.01136654 0.03389664 0.00446864
v -0.00259529 0.02642542 0.00446718
v -0.00259529 0.02642542 0.00446718
v -0.00259529 0.02642542 0.00446718
v -0.02155253 -0.08875393 0.00984052
v -0.02155253 -0.08875393 0.00984052
v -0.02155253 -0.08875393 0.00984052
v 0.01139995 0.04302794 0.00793557
v 0.01139995 0.04302794 0.00793557
v 0.01139995 0.04302794 0.00793557
v -0.03152781 -0.03905458 0.00564819
v -0.03152781 -0.03905458 0.00564819
v 0.03017298 -0.02764078 0.00562859
v 0.03017298 -0.02764078 0.00562859
v -0.02540926 0.01923022 0.01361247
v -0.02540926 0.01923022 0.01361247
v -0.02540926 0.01923022 0.01361247
v -0.02540926 0.01923022 0.01361247
v 0.00512984 0.02736057 0.00793809
v 0.00221747 0.07310095 0.01141099
v 0.00221747 0.07310095 0.01141099
v 0.01267776 -0.07952831 0.01026796
v 0.01267776 -0.07952831 0.01026796
v 0.00241101 0.06546107 0.01140790
v 0.00241101 0.06546107 0.01140790
v -0.00489291 0.04968286 0.00793918
v 0.01876982 -0.08981871 0.01022223
v 0.02548064 -0.01753207 0.01240072
v -0.00455248 0.00906001 0.00000117
v -0.00455248 0.00906001 0.00000117
v 0.02347998 -0.08678038 0.01026930
v 0.02347998 -0.08678038 0.01026930
v 0.00347345 0.02374950 0.00546543
v -0.00896417 0.03044192 0.01142240
v -0.00896417 0.03044192 0.01142240
v -0.01136440 0.03389781 0.01142258
v -0.01136440 0.03389781 0.01142258
v -0.01136440 0.03389781 0.01142258
v -0.00426884 0.04984117 0.00446474
v -0.00426884 0.04984117 0.00446474
v -0.01954888 -0.04948190 0.01240662
v -0.02255453 0.00975415 0.00533540
v -0.02255453 0.00975415 0.00533540
v 0.00230440 0.00852454 0.00228210
v 0.00230440 0.00852454 0.00228210
v 0.00230440 0.00852454 0.00228210
v 0.00230440 0.00852454 0.00228210
v 0.00347495 0.02375030 0.01041631
v 0.02436755 0.01382661 0.00002980
v 0.02436755 0.01382661 0.00002980
v -0.00323354 0.06544628 0.01141056
v -0.00323354 0.06544628 0.01141056
v -0.00323354 0.06544628 0.01141056
v 0.01443657 -0.08550024 0.01241540
v -0.02348024 -0.08678042 0.00565143
v -0.02348024 -0.08678042 0.00565143
v -0.01877008 -0.08981878 0.00569952
v 0.00303341 0.05241879 0.01141416
v 0.00303341 0.05241879 0.01141416
v 0.00303341 0.05241879 0.01141416
v -0.02769224 -0.01699974 0.01026781
v -0.02769224 -0.01699974 0.01026781
v 0.01942337 0.01948037 0.00253984
v 0.01942337 0.01948037 0.00253984
v 0.00321295 0.06740343 0.00445953
v 0.00321295 0.06740343 0.00445953
v 0.02804856 -0.02815653 0.00349568
v 0.01136480 0.03389599 0.00445826
v 0.01136480 0.03389599 0.00445826
v 0.01136480 0.03389599 0.00445826
v 0.02320232 0.01869387 0.01588058
v 0.02320232 0.01869387 0.01588058
v 0.00842360 0.04726125 0.01140997
v 0.00842360 0.04726125 0.01140997
v 0.02115270 0.01991350 0.00406018
v 0.02115270 0.01991350 0.00406018
v 0.02115270 0.01991350 0.00406018
v 0.02115270 0.01991350 0.00406018
v 0.01525950 -0.01998891 0.00348464
v -0.00512944 0.02736118 0.00794494
v 0.00447509 0.02440363 0.00446194
v 0.00447509 0.02440363 0.00446194
v 0.02575010 -0.08109518 0.00563500
v 0.02575010 -0.08109518 0.00563500
v 0.01961989 -0.03988942 0.01240622
v 0.01410527 -0.08717981 0.00983636
v 0.01410527 -0.08717981 0.00983636
v 0.01410527 -0.08717981 0.00983636
v 0.00255372 0.02646488 0.00793900
v 0.00255372 0.02646488 0.00793900
v 0.00255372 0.02646488 0.00793900
v 0.01136695 0.03389712 0.01141220
v 0.01136695 0.03389712 0.01141220
v 0.01136695 0.03389712 0.01141220
v -0.01961986 -0.03989019 0.00349899
v 0.01221571 0.03867519 0.01141114
v 0.01221571 0.03867519 0.01141114
v 0.00321510 0.06740456 0.01141161
v 0.00321510 0.06740456 0.01141161
v 0.00450690 0.02732311 0.00794027
v 0.01422569 0.02335951 0.01041307
v 0.01422569 0.02335951 0.01041307
v 0.01308079 0.03344701 0.00445779
v 0.01308079 0.03344701 0.00445779
v 0.01308079 0.03344701 0.00445779
v -0.01972479 -0.08999931 0.00662913
v -0.00372656 0.01565668 0.00250318
v -0.00372656 0.01565668 0.00250318
v -0.00025773 0.05246612 0.01141180
v -0.00025773 0.05246612 0.01141180
v -0.00025773 0.05246612 0.01141180
v -0.00025773 0.05246612 0.01141609
v -0.01503645 -0.08720950 0.01191538
v -0.01503645 -0.08720950 0.01191538
v 0.00841176 0.02966668 0.00446329
v 0.00841176 0.02966668 0.00446329
v -0.01102348 0.03351026 0.01141916
v -0.01102348 0.03351026 0.01141916
v -0.02936047 -0.04988489 0.01240972
v 0.01736807 -0.04004419 0.00564320
v 0.01736807 -0.04004419 0.00564320
v 0.00457135 0.00529097 0.00536480
v 0.00457135 0.00529097 0.00536480
v 0.00892475 0.03048014 0.00793641
v -0.01408593 0.03318527 0.00546959
v -0.01408593 0.03318527 0.00546959
v -0.00842207 0.04726133 0.00794093
v 0.01999279 0.00911182 0.00289018
v -0.02575174 -0.08109445 0.00565117
v -0.02575174 -0.08109445 0.00565117
v -0.00516926 0.02732227 0.01142178
v -0.00516926 0.02732227 0.01142178
v 0.01546218 -0.08719416 0.01241238
v 0.01546218 -0.08719416 0.01241238
v 0.00489229 0.04968283 0.00446194
v 0.00489229 0.04968283 0.00446194
v -0.02937847 -0.03920935 0.00350187
v 0.02140967 -0.08675320 0.01241343
v 0.02769377 -0.01700047 0.01025047
v 0.02769377 -0.01700047 0.01025047
v 0.01434676 0.04358767 0.00446004
v 0.01434676 0.04358767 0.00446004
v 0.01434676 0.04358767 0.00446004
v 0.00090414 0.09000000 0.01140429
v 0.00090414 0.09000000 0.01140429
v 0.00090414 0.09000000 0.01140429
v -0.00019412 0.02623239 0.00794191
v 0.01308294 0.03344814 0.01141172
v 0.01308294 0.03344814 0.01141172
v 0.01308294 0.03344814 0.01141172
v -0.00319976 0.07435788 0.00445698
v -0.00319976 0.07435788 0.00445698
v -0.01723548 -0.04939482 0.00565183
v -0.01723548 -0.04939482 0.00565183
v 0.02464765 -0.00500715 0.01024635
v 0.02464765 -0.00500715 0.01024635
v -0.00362032 0.07192843 0.00445749
v -0.00362032 0.07192843 0.00445749
v 0.01887420 0.02479730 0.01181184
v 0.01887420 0.02479730 0.01181184
v 0.01887420 0.02479730 0.01181184
v -0.01595301 -0.03099218 0.01025495
v -0.01595301 -0.03099218 0.01025495
v -0.01102217 0.04341487 0.00446788
v -0.01102217 0.04341487 0.00446788
v -0.00881632 0.04696228 0.00446321
v -0.00881632 0.04696228 0.00446321
v 0.02370944 -0.08091676 0.01239485
v 0.00489444 0.04968399 0.01141402
v 0.00489444 0.04968399 0.01141402
v 0.00697354 0.00588386 0.00289477
v -0.00319761 0.07435900 0.01140910
v -0.00319761 0.07435900 0.01140910
v -0.01429214 0.05802661 0.00920216
v -0.01429214 0.05802661 0.00920216
v -0.02319715 0.01869460 0.01585876
v -0.02319715 0.01869460 0.01585876
v -0.00841144 0.02966726 0.01141897
v -0.00841144 0.02966726 0.01141897
v 0.00168976 0.06640547 0.00446015
v 0.00168976 0.06640547 0.00446015
v -0.01526216 -0.01998826 0.00349437
v 0.01434891 0.04358884 0.01141212
v 0.01434891 0.04358884 0.01141212
v 0.01434891 0.04358884 0.01141212
v 0.01310841 -0.02049738 0.00565343
v 0.01310841 -0.02049738 0.00565343
v 0.00372689 0.01565785 0.01338370
v 0.00372689 0.01565785 0.01338370
v -0.02769362 -0.01700050 0.00564720
v -0.02769362 -0.01700050 0.00564720
v 0.00220191 0.07672928 0.01141037
v 0.00220191 0.07672928 0.01141037
v -0.01422536 0.02335941 0.00547126
v -0.01422536 0.02335941 0.00547126
v -0.00450657 0.02732256 0.00794275
v -0.00240332 0.07081032 0.00445731
v -0.00240332 0.07081032 0.00445731
v -0.00361817 0.07192960 0.01140961
v -0.00361817 0.07192960 0.01140961
v 0.01130512 -0.00825093 0.01240356
v -0.01267791 -0.07952842 0.00565041
v -0.01267791 -0.07952842 0.00565041
v -0.00255339 0.02646546 0.00794428
v -0.00255339 0.02646546 0.00794428
v -0.00255339 0.02646546 0.00794428
v -0.02805122 -0.02815581 0.00349965
v -0.02255292 0.00975499 0.01056766
v -0.02255292 0.00975499 0.01056766
v -0.00457270 0.00529159 0.00536801
v -0.00457270 0.00529159 0.00536801
v -0.02657755 0.01436230 0.00229041
v -0.02657755 0.01436230 0.00229041
v -0.02657755 0.01436230 0.00229041
v -0.02657755 0.01436230 0.00229041
v -0.02115237 0.01991550 0.01182528
v -0.02115237 0.01991550 0.01182528
v -0.02115237 0.01991550 0.01182528
v -0.02115237 0.01991550 0.01182528
v -0.02320199 0.01869198 0.00000532
v -0.02320199 0.01869198 0.00000532
v 0.00337778 0.01392396 0.00003399
v 0.00337778 0.01392396 0.00003399
v -0.00022713 0.05069536 0.01141209
v -0.00022713 0.05069536 0.01141209
v -0.00022713 0.05069536 0.01141209
v -0.00022713 0.05069536 0.01141209
v -0.00022713 0.05069536 0.01141209
v -0.00022713 0.05069536 0.01141209
v -0.03152639 -0.03905381 0.01027652
v -0.03152639 -0.03905381 0.01027652
v 0.01723545 -0.04939475 0.01025655
v 0.01723545 -0.04939475 0.01025655
v 0.00360396 0.02203591 0.00254428
v 0.00360396 0.02203591 0.00254428
v -0.00240117 0.07081148 0.01140943
v -0.00240117 0.07081148 0.01140943
v 0.02768557 -0.06223231 0.01240746
v 0.01474429 -0.07976185 0.00350828
v -0.00350260 0.02139100 0.00546828
v -0.00350260 0.02139100 0.00546828
v 0.00323620 0.06544682 0.01141194
v 0.00323620 0.06544682 0.01141194
v 0.00323620 0.06544682 0.01141194
v -0.02347882 -0.08677965 0.01028413
v -0.02347882 -0.08677965 0.01028413
v 0.00372353 0.01565606 0.00254530
v 0.00372353 0.01565606 0.00254530
v -0.01809794 -0.03049424 0.00349699
v -0.01434847 0.04358716 0.00446551
v -0.01434847 0.04358716 0.00446551
v -0.01434847 0.04358716 0.00446551
v -0.01474720 -0.07976119 0.00352100
v 0.01809802 -0.03049347 0.01240513
v -0.01248390 -0.08412775 0.01027681
v -0.01248390 -0.08412775 0.01027681
v 0.02540959 0.01922763 0.00227325
v 0.02540959 0.01922763 0.00227325
v 0.02540959 0.01922763 0.00227325
v 0.02540959 0.01922763 0.00227325
v -0.02140989 -0.08675397 0.00350730
v 0.00457295 0.00529181 0.01052234
v 0.00457295 0.00529181 0.01052234
v 0.02255318 0.00975342 0.00532116
v 0.02255318 0.00975342 0.00532116
v 0.01324245 0.02317931 0.01141336
v 0.01324245 0.02317931 0.01141336
v 0.01324245 0.02317931 0.01141336
v 0.01102261 0.04341534 0.01140979
v 0.01102261 0.04341534 0.01140979
v 0.01102494 0.03351026 0.00793725
v -0.00365817 0.06965453 0.00445789
v -0.00365817 0.06965453 0.00445789
v -0.01420091 0.02556620 0.01042174
v 0.00217973 0.01529103 0.01181851
v 0.00217973 0.01529103 0.01181851
v 0.00217973 0.01529103 0.01181851
v 0.00217973 0.01529103 0.01181851
v -0.01546240 -0.08719496 0.00350854
v -0.01546240 -0.08719496 0.00350854
v -0.00206642 0.02175435 0.00406740
v -0.00206642 0.02175435 0.00406740
v -0.00206642 0.02175435 0.00406740
v 0.00292589 0.02520951 0.00446227
v 0.00292589 0.02520951 0.00446227
v -0.00235089 0.06852195 0.00445768
v -0.00235089 0.06852195 0.00445768
v -0.01733331 0.02455396 0.00250592
v -0.01733331 0.02455396 0.00250592
v -0.00916514 -0.00881627 0.00566793
v -0.00916514 -0.00881627 0.00566793
v -0.01434632 0.04358833 0.01141759
v -0.01434632 0.04358833 0.01141759
v -0.01434632 0.04358833 0.01141759
v -0.03017433 -0.02764001 0.00564749
v -0.03017433 -0.02764001 0.00564749
v -0.00292767 0.02521010 0.00446748
v -0.00292767 0.02521010 0.00446748
v 0.01999589 0.00911350 0.01300403
v 0.00447567 0.02157156 0.01141635
v 0.00447567 0.02157156 0.01141635
v 0.00447567 0.02157156 0.01141635
v 0.01503623 -0.08721143 0.00400550
v 0.01503623 -0.08721143 0.00400550
v -0.02548049 -0.01753284 0.00349710
v -0.00489186 0.04968341 0.01141369
v -0.00489186 0.04968341 0.01141369
v 0.00365872 0.06965624 0.01141110
v 0.00365872 0.06965624 0.01141110
v -0.01524955 -0.08856465 0.00930734
v -0.01887078 0.02483793 0.01182375
v -0.01887078 0.02483793 0.01182375
v -0.01887078 0.02483793 0.01182375
v 0.00221536 0.07309982 0.00445891
v 0.00221536 0.07309982 0.00445891
v 0.02805130 -0.02815508 0.01240170
v 0.02237112 -0.00543372 0.01239966
v -0.01410549 -0.08717973 0.00608452
v -0.01410549 -0.08717973 0.00608452
v -0.01410549 -0.08717973 0.00608452
v -0.01525039 -0.08856513 0.00662006
v -0.02768568 -0.06223303 0.00350519
v -0.02575032 -0.08109372 0.01028388
v -0.02575032 -0.08109372 0.01028388
v 0.00292804 0.02521064 0.01141620
v 0.00292804 0.02521064 0.01141620
v -0.00171534 0.07548732 0.00445633
v -0.00171534 0.07548732 0.00445633
v 0.01526223 -0.01998746 0.01240425
v -0.00407742 0.08994342 0.00445465
v -0.00407742 0.08994342 0.00445465
v -0.00407742 0.08994342 0.00445465
v -0.01221527 0.03867472 0.00446810
v -0.01221527 0.03867472 0.00446810
v 0.01319162 0.02554824 0.01141300
v 0.01319162 0.02554824 0.01141300
v -0.00323565 0.06544511 0.00445844
v -0.00323565 0.06544511 0.00445844
v -0.00323565 0.06544511 0.00445844
v 0.00206678 0.02175501 0.01181749
v 0.00206678 0.02175501 0.01181749
v 0.00206678 0.02175501 0.01181749
v 0.02437243 0.01382923 0.01588102
v 0.02437243 0.01382923 0.01588102
vt 0.16926500 0.81630100
vt 0.04238300 0.92423500
vt 0.82984000 0.68879400
vt 0.32725200 0.68691500
vt 0.20802800 0.07793800
vt 0.08190800 0.07498000
vt 0.68211300 0.45865500
vt 0.35508400 0.61382200
vt 0.39569300 0.21634900
vt 0.82984000 0.68879400
vt 0.32725200 0.68691500
vt 0.09311000 0.09388200
vt 0.98818200 0.08070900
vt 0.93708000 0.21795500
vt 0.06959000 0.07148000
vt 0.55699000 0.69376300
vt 0.32939100 0.05349300
vt 0.63734400 0.24290800
vt 0.82976700 0.54144900
vt 0.32416300 0.54333400
vt 0.66743300 0.04272100
vt 0.93265800 0.60506800
vt 0.62848900 0.22400700
vt 0.96389700 0.69467300
vt 0.08144100 0.19724800
vt 0.83199600 0.23868700
vt 0.24451900 0.24973900
vt 0.05450400 0.79441700
vt 0.79330500 0.35677200
vt 0.07905100 0.70148300
vt 0.79323100 0.45489500
vt 0.57092600 0.87714900
vt 0.86538800 0.18415400
vt 0.98699900 0.27970000
vt 0.55429200 0.99253900
vt 0.92072000 0.99557200
vt 0.20164500 0.54909700
vt 0.76641100 0.18593800
vt 0.63856000 0.18755800
vt 0.73092200 0.67292900
vt 0.22090100 0.46547000
vt 0.95825100 0.43544500
vt 0.48229500 0.58241500
vt 0.32053600 0.07851000
vt 0.14370000 0.07498000
vt 0.15268100 0.07793800
vt 0.69758700 0.99557200
vt 0.37113500 0.99557200
vt 0.07289900 0.09999400
vt 0.43107100 0.61262800
vt 0.98699900 0.22436800
vt 0.55449900 0.06538600
vt 0.86538800 0.99557200
vt 0.08593000 0.38776100
vt 0.79308000 0.77897200
vt 0.76641100 0.07486600
vt 0.63874000 0.07648700
vt 0.28985700 0.91944400
vt 0.82988000 0.93143000
vt 0.65454500 0.28347200
vt 0.57977900 0.36415500
vt 0.96610800 0.02541100
vt 0.36201200 0.97308300
vt 0.46269200 0.74141400
vt 0.90310600 0.72884300
vt 0.95287800 0.30743100
vt 0.87471600 0.21795500
vt 0.92957500 0.70888600
vt 0.91408700 0.57289500
vt 0.12496800 0.00442800
vt 0.95287800 0.38289300
vt 0.98591200 0.39698100
vt 0.96610800 0.18142200
vt 0.92957500 0.20884900
vt 0.98954800 0.38285100
vt 0.96610800 0.11723900
vt 0.86538800 0.57961300
vt 0.43036400 0.16605200
vt 0.23393900 0.21263500
vt 0.85653200 0.20725800
vt 0.75591200 0.04272100
vt 0.86543100 0.39174900
vt 0.39357900 0.15719700
vt 0.96173300 0.27970000
vt 0.57955700 0.99250100
vt 0.55936300 0.18953400
vt 0.92072000 0.16930800
vt 0.72741200 0.99557200
vt 0.14331800 0.16560300
vt 0.07293100 0.13350500
vt 0.92958900 0.13157200
vt 0.66743300 0.04272100
vt 0.93265800 0.60506800
vt 0.62848900 0.22400700
vt 0.96389700 0.69467300
vt 0.92958900 0.05570400
vt 0.95287800 0.34542100
vt 0.05594900 0.15674800
vt 0.12295100 0.17728800
vt 0.42640100 0.52712700
vt 0.04238300 0.92423500
vt 0.85267400 0.07486600
vt 0.91550700 0.35693300
vt 0.13253300 0.15452100
vt 0.98887900 0.13692800
vt 0.20084500 0.99557200
vt 0.58863700 0.24966700
vt 0.54150100 0.49428500
vt 0.95825100 0.54749400
vt 0.07830600 0.80044800
vt 0.08207700 0.00442800
vt 0.91634400 0.22828900
vt 0.84021200 0.19835300
vt 0.00442800 0.94866200
vt 0.75591200 0.13284300
vt 0.76641100 0.20725800
vt 0.58868800 0.43774700
vt 0.28893900 0.95593100
vt 0.82988000 0.96807500
vt 0.93356700 0.40304500
vt 0.62848900 0.43767400
vt 0.65454500 0.43774700
vt 0.71611200 0.13284300
vt 0.39357900 0.05938800
vt 0.57940900 0.89469200
vt 0.86538800 0.20910000
vt 0.07905100 0.70148300
vt 0.79323100 0.45489500
vt 0.56724400 0.88709100
vt 0.86538800 0.19475600
vt 0.98591200 0.58590400
vt 0.69407600 0.58596900
vt 0.45445700 0.61229300
vt 0.86540100 0.41736800
vt 0.25450900 0.19996800
vt 0.08321400 0.24011200
vt 0.72741200 0.99557200
vt 0.14331800 0.16560300
vt 0.07293100 0.13350500
vt 0.06309200 0.08033500
vt 0.35684400 0.98352000
vt 0.13253300 0.15452100
vt 0.98887900 0.13692800
vt 0.28387600 0.36703700
vt 0.82963800 0.35677200
vt 0.69408800 0.49448400
vt 0.44975400 0.52366600
vt 0.02576400 0.07148000
vt 0.61254600 0.46971800
vt 0.96174600 0.31030500
vt 0.27652000 0.13574400
vt 0.34785600 0.53966000
vt 0.98940900 0.34936200
vt 0.64045000 0.28343800
vt 0.92519900 0.26944100
vt 0.57978200 0.37825100
vt 0.31274300 0.92161100
vt 0.20802800 0.14887600
vt 0.04663900 0.06706600
vt 0.61211000 0.44717200
vt 0.92958900 0.13157200
vt 0.14382600 0.09384100
vt 0.30191800 0.07550600
vt 0.94939400 0.42337700
vt 0.62847300 0.41190900
vt 0.49055900 0.54449500
vt 0.95825100 0.47425400
vt 0.00673200 0.09777900
vt 0.82642800 0.99557200
vt 0.29726700 0.98250800
vt 0.19793800 0.46740300
vt 0.66743300 0.14169900
vt 0.70725600 0.13284300
vt 0.45445700 0.17407600
vt 0.86540800 0.60502100
vt 0.44891100 0.05938800
vt 0.57978200 0.16319000
vt 0.92072000 0.20910000
vt 0.04928300 0.10053800
vt 0.46331200 0.31666500
vt 0.88302600 0.72884300
vt 0.36201200 0.97308300
vt 0.92957600 0.62412100
vt 0.77851600 0.06240500
vt 0.63957100 0.05913300
vt 0.55778700 0.81304100
vt 0.86538800 0.09030300
vt 0.87283700 0.23674300
vt 0.92553200 0.55787800
vt 0.92957500 0.20884900
vt 0.98954800 0.38285100
vt 0.96610800 0.11723900
vt 0.98103100 0.68581800
vt 0.91487000 0.41522300
vt 0.86557200 0.38289300
vt 0.63734400 0.42353400
vt 0.13250500 0.07632300
vt 0.16066500 0.06997900
vt 0.55732600 0.79746500
vt 0.86538800 0.05978600
vt 0.32939100 0.15719700
vt 0.02650700 0.00501800
vt 0.29835800 0.14536900
vt 0.57092600 0.87714900
vt 0.86538800 0.18415400
vt 0.64045000 0.33877000
vt 0.05549400 0.04940500
vt 0.95724300 0.01927800
vt 0.65547500 0.22400700
vt 0.93708000 0.24414600
vt 0.57904300 0.67963300
vt 0.16066500 0.15674800
vt 0.04625600 0.01919500
vt 0.32053600 0.14944800
vt 0.04663900 0.00941500
vt 0.15268100 0.14887600
vt 0.73090000 0.49448400
vt 0.22036400 0.63799400
vt 0.41343300 0.44326200
vt 0.02745800 0.13307600
vt 0.56443300 0.26045400
vt 0.92068500 0.06635500
vt 0.20584400 0.36914900
vt 0.73092700 0.77380300
vt 0.94088700 0.96941500
vt 0.58863700 0.06818200
vt 0.56701300 0.19968400
vt 0.92072000 0.15659800
vt 0.51015200 0.65122000
vt 0.09474300 0.61828600
vt 0.79317600 0.54144900
vt 0.59582700 0.19659000
vt 0.94068600 0.84080500
vt 0.00510600 0.01023000
vt 0.96187300 0.28859800
vt 0.27983400 0.15719700
vt 0.04630800 0.05690400
vt 0.20006900 0.15674800
vt 0.94902300 0.99557200
vt 0.90523100 0.39181000
vt 0.65454500 0.34762500
vt 0.71611200 0.04272100
vt 0.15093700 0.23109300
vt 0.94902300 0.99557200
vt 0.90523100 0.39181000
vt 0.65454500 0.34762500
vt 0.71611200 0.04272100
vt 0.11054100 0.38442900
vt 0.95825100 0.43544500
vt 0.48229500 0.58241500
vt 0.00510600 0.01023000
vt 0.96187300 0.28859800
vt 0.27983400 0.15719700
vt 0.41238200 0.78876300
vt 0.46331200 0.31666500
vt 0.88302600 0.72884300
vt 0.39868300 0.34516200
vt 0.33981000 0.77737900
vt 0.12237500 0.47303100
vt 0.57132900 0.18074800
vt 0.92072000 0.18415400
vt 0.69406700 0.67292900
vt 0.45023400 0.69633600
vt 0.05909200 0.20637300
vt 0.79306400 0.96807500
vt 0.44887600 0.15719700
vt 0.96173300 0.22440300
vt 0.57976400 0.06538100
vt 0.32053600 0.14944800
vt 0.04663900 0.00941500
vt 0.15268100 0.14887600
vt 0.16066500 0.15674800
vt 0.04625600 0.01919500
vt 0.56482700 0.82181700
vt 0.86538800 0.10155300
vt 0.48899900 0.62029000
vt 0.95825800 0.39698100
vt 0.96610800 0.15376800
vt 0.25754700 0.10155600
vt 0.96173300 0.34940500
vt 0.02813600 0.01711600
vt 0.90522300 0.41737100
vt 0.96460200 0.97530700
vt 0.82980900 0.61435900
vt 0.33091400 0.61430500
vt 0.64045000 0.28343800
vt 0.92519900 0.26944100
vt 0.57978200 0.37825100
vt 0.92519900 0.30743100
vt 0.54252300 0.38566900
vt 0.31525200 0.77405500
vt 0.82986300 0.77897200
vt 0.75755500 0.14169900
vt 0.70725600 0.04272100
vt 0.22508300 0.98731700
vt 0.58866500 0.22404200
vt 0.86538800 0.06635500
vt 0.56389500 0.79745500
vt 0.55459300 0.83102600
vt 0.86538800 0.11532000
vt 0.02931100 0.09811800
vt 0.39868300 0.34516200
vt 0.56657700 0.85822100
vt 0.86538800 0.15659900
vt 0.92519900 0.34542100
vt 0.51093900 0.40678100
vt 0.01959700 0.12545700
vt 0.00454000 0.06612400
vt 0.59787600 0.48608300
vt 0.95824900 0.60506800
vt 0.13250500 0.07632300
vt 0.16066500 0.06997900
vt 0.05612700 0.10741600
vt 0.87283700 0.23674300
vt 0.92553200 0.55787800
vt 0.92958900 0.17047600
vt 0.31155600 0.96423900
vt 0.73093000 0.92488600
vt 0.17316300 0.22734300
vt 0.92957600 0.62412100
vt 0.77851600 0.06240500
vt 0.63957100 0.05913300
vt 0.02076200 0.10448500
vt 0.31525200 0.77405500
vt 0.82986300 0.77897200
vt 0.41343300 0.44326200
vt 0.66743300 0.14169900
vt 0.70725600 0.13284300
vt 0.45445700 0.17407600
vt 0.86540800 0.60502100
vt 0.39357900 0.15719700
vt 0.96173300 0.27970000
vt 0.57955700 0.99250100
vt 0.94939400 0.42337700
vt 0.62847300 0.41190900
vt 0.14382600 0.09384100
vt 0.30191800 0.07550600
vt 0.56532300 0.23609100
vt 0.92072000 0.10155400
vt 0.48983800 0.43774700
vt 0.92519900 0.38289300
vt 0.96610800 0.20910000
vt 0.90521000 0.57961600
vt 0.96460200 0.81306200
vt 0.27183100 0.23720400
vt 0.69406700 0.67292900
vt 0.45023400 0.69633600
vt 0.12237500 0.47303100
vt 0.43107100 0.61262800
vt 0.31155600 0.96423900
vt 0.02576400 0.07148000
vt 0.61254600 0.46971800
vt 0.92958900 0.09462800
vt 0.69406100 0.77380300
vt 0.43511100 0.79272100
vt 0.92958900 0.05570400
vt 0.48983800 0.43774700
vt 0.92519900 0.38289300
vt 0.96610800 0.20910000
vt 0.02931100 0.09811800
vt 0.92519900 0.23656000
vt 0.65454500 0.33877000
vt 0.96610800 0.08070900
vt 0.06959000 0.04940500
vt 0.98591200 0.43544500
vt 0.30843800 0.46006400
vt 0.82971200 0.45489500
vt 0.93356700 0.40304500
vt 0.62848900 0.43767400
vt 0.65454500 0.43774700
vt 0.71611200 0.13284300
vt 0.92958900 0.17047600
vt 0.54150100 0.49428500
vt 0.95825100 0.54749400
vt 0.05909200 0.20637300
vt 0.79306400 0.96807500
vt 0.28985700 0.91944400
vt 0.82988000 0.93143000
vt 0.85267400 0.07486600
vt 0.91550700 0.35693300
vt 0.98591200 0.47425400
vt 0.69405800 0.97361800
vt 0.38370400 0.97772600
vt 0.73091300 0.58596900
vt 0.22508300 0.54944000
vt 0.35508400 0.61382200
vt 0.56475200 0.84003500
vt 0.86538800 0.12889900
vt 0.98699900 0.27970000
vt 0.55429200 0.99253900
vt 0.92072000 0.99557200
vt 0.28387600 0.36703700
vt 0.82963800 0.35677200
vt 0.57028500 0.25302800
vt 0.92072000 0.07580900
vt 0.64736900 0.65101200
vt 0.95724300 0.09462800
vt 0.16625700 0.94512100
vt 0.48899900 0.62029000
vt 0.95825800 0.39698100
vt 0.96610800 0.15376800
vt 0.65454500 0.28347200
vt 0.57977900 0.36415500
vt 0.96610800 0.02541100
vt 0.02745800 0.13307600
vt 0.19793800 0.46740300
vt 0.69413000 0.30904500
vt 0.42352200 0.34392800
vt 0.95825100 0.58590400
vt 0.57874700 0.48490200
vt 0.38472300 0.05349300
vt 0.98818200 0.02537600
vt 0.55770500 0.36415900
vt 0.98591200 0.51123800
vt 0.10150200 0.54738300
vt 0.79313500 0.61435900
vt 0.55523500 0.84911400
vt 0.86538800 0.14205200
vt 0.30770100 0.36101900
vt 0.56521700 0.21787300
vt 0.92072000 0.12889900
vt 0.61469600 0.67216800
vt 0.95724300 0.05570400
vt 0.56763000 0.17081200
vt 0.92072000 0.19475600
vt 0.51015200 0.65122000
vt 0.87471600 0.21795500
vt 0.92957500 0.70888600
vt 0.91408700 0.57289500
vt 0.12496800 0.00442800
vt 0.44891100 0.05938800
vt 0.57978200 0.16319000
vt 0.92072000 0.20910000
vt 0.56975900 0.80487200
vt 0.86538800 0.07580900
vt 0.04928300 0.10053800
vt 0.57028500 0.25302800
vt 0.92072000 0.07580900
vt 0.86538800 0.16930800
vt 0.55894500 0.86838300
vt 0.98818200 0.08070900
vt 0.93708000 0.21795500
vt 0.06959000 0.07148000
vt 0.55699000 0.69376300
vt 0.32939100 0.05349300
vt 0.63734400 0.24290800
vt 0.00673200 0.09777900
vt 0.82642800 0.99557200
vt 0.29726700 0.98250800
vt 0.32053600 0.07851000
vt 0.14370000 0.07498000
vt 0.15268100 0.07793800
vt 0.98591200 0.51123800
vt 0.69406100 0.77380300
vt 0.43511100 0.79272100
vt 0.95825100 0.58590400
vt 0.57874700 0.48490200
vt 0.76641100 0.18593800
vt 0.63856000 0.18755800
vt 0.02719700 0.05927200
vt 0.73331600 0.19038400
vt 0.19766600 0.94039800
vt 0.55568500 0.20881000
vt 0.92072000 0.14205200
vt 0.38013400 0.93054400
vt 0.56724400 0.88709100
vt 0.86538800 0.19475600
vt 0.33228400 0.45582400
vt 0.39357900 0.05938800
vt 0.57940900 0.89469200
vt 0.86538800 0.20910000
vt 0.06309200 0.08033500
vt 0.35684400 0.98352000
vt 0.42732700 0.69439800
vt 0.02505800 0.96156100
vt 0.58865100 0.41191200
vt 0.09311000 0.09388200
vt 0.30770100 0.36101900
vt 0.64045000 0.31111600
vt 0.95287800 0.26944100
vt 0.92958900 0.01927800
vt 0.43747100 0.43978400
vt 0.69410600 0.40753200
vt 0.58881600 0.05067400
vt 0.98103100 0.62412100
vt 0.93033200 0.98338500
vt 0.63734400 0.36183800
vt 0.69413000 0.30904500
vt 0.42352200 0.34392800
vt 0.08178600 0.09385000
vt 0.68206400 0.47751300
vt 0.05594900 0.15674800
vt 0.12295100 0.17728800
vt 0.09474300 0.61828600
vt 0.79317600 0.54144900
vt 0.98591200 0.43544500
vt 0.08184600 0.15674800
vt 0.98062100 0.08956500
vt 0.68238000 0.54039500
vt 0.55829900 0.24487900
vt 0.92072000 0.09030300
vt 0.08593000 0.38776100
vt 0.79308000 0.77897200
vt 0.05540100 0.12606100
vt 0.38013400 0.93054400
vt 0.33981000 0.77737900
vt 0.08178600 0.06612500
vt 0.77851500 0.19840200
vt 0.63957100 0.20490300
vt 0.41238200 0.78876300
vt 0.10150200 0.54738300
vt 0.79313500 0.61435900
vt 0.64045000 0.31111600
vt 0.95287800 0.26944100
vt 0.92958900 0.01927800
vt 0.55459300 0.83102600
vt 0.86538800 0.11532000
vt 0.86538800 0.06635500
vt 0.56389500 0.79745500
vt 0.98887900 0.09752400
vt 0.09310300 0.15453700
vt 0.11054100 0.38442900
vt 0.05612700 0.10741600
vt 0.73092200 0.67292900
vt 0.22090100 0.46547000
vt 0.95287800 0.34542100
vt 0.86540100 0.41736800
vt 0.25450900 0.19996800
vt 0.56482700 0.82181700
vt 0.86538800 0.10155300
vt 0.35169600 0.68872400
vt 0.73085800 0.30904500
vt 0.19409000 0.81753700
vt 0.20584400 0.36914900
vt 0.73092700 0.77380300
vt 0.85267400 0.18593800
vt 0.91555100 0.24586200
vt 0.98062100 0.14491200
vt 0.23991700 0.06501500
vt 0.14380500 0.15672400
vt 0.00442800 0.94866200
vt 0.75591200 0.13284300
vt 0.76641100 0.20725800
vt 0.58868800 0.43774700
vt 0.28982500 0.15633900
vt 0.01523200 0.01033300
vt 0.13248900 0.09387600
vt 0.58881600 0.05067400
vt 0.98103100 0.62412100
vt 0.93033200 0.98338500
vt 0.63734400 0.36183800
vt 0.34785600 0.53966000
vt 0.66879200 0.54422400
vt 0.95725300 0.20910000
vt 0.96650400 0.08956400
vt 0.00454000 0.06612400
vt 0.59787600 0.48608300
vt 0.95824900 0.60506800
vt 0.69758700 0.99557200
vt 0.37113500 0.99557200
vt 0.07289900 0.09999400
vt 0.95287800 0.38289300
vt 0.98591200 0.39698100
vt 0.96610800 0.18142200
vt 0.73091300 0.58596900
vt 0.22508300 0.54944000
vt 0.69408800 0.49448400
vt 0.44975400 0.52366600
vt 0.94814000 0.79365100
vt 0.66743300 0.13284300
vt 0.90523100 0.60506800
vt 0.96389700 0.78479600
vt 0.98942200 0.31026300
vt 0.56701300 0.19968400
vt 0.92072000 0.15659800
vt 0.06043400 0.24247500
vt 0.79306400 0.93143000
vt 0.56443300 0.26045400
vt 0.92068500 0.06635500
vt 0.95287800 0.30743100
vt 0.04814200 0.13303900
vt 0.18391800 0.71827400
vt 0.02505800 0.96156100
vt 0.58865100 0.41191200
vt 0.15510900 0.18380200
vt 0.73093000 0.97361800
vt 0.02813600 0.01711600
vt 0.25754700 0.10155600
vt 0.96173300 0.34940500
vt 0.23393900 0.07780500
vt 0.96187300 0.38289300
vt 0.96650400 0.14491200
vt 0.61469600 0.67216800
vt 0.95724300 0.05570400
vt 0.35169600 0.68872400
vt 0.73331600 0.19038400
vt 0.19766600 0.94039800
vt 0.23393900 0.21263500
vt 0.85653200 0.20725800
vt 0.75591200 0.04272100
vt 0.86543100 0.39174900
vt 0.02719700 0.05927200
vt 0.86538800 0.57961300
vt 0.43036400 0.16605200
vt 0.55732600 0.79746500
vt 0.86538800 0.05978600
vt 0.32939100 0.15719700
vt 0.08144100 0.19724800
vt 0.15510900 0.18380200
vt 0.73093000 0.97361800
vt 0.04814200 0.13303900
vt 0.38472300 0.05349300
vt 0.98818200 0.02537600
vt 0.55770500 0.36415900
vt 0.43747100 0.43978400
vt 0.69410600 0.40753200
vt 0.59582700 0.19659000
vt 0.94068600 0.84080500
vt 0.55778700 0.81304100
vt 0.86538800 0.09030300
vt 0.42640100 0.52712700
vt 0.23393900 0.07780500
vt 0.96187300 0.38289300
vt 0.96650400 0.14491200
vt 0.94939400 0.58562200
vt 0.62845900 0.24966400
vt 0.64736900 0.65101200
vt 0.95724300 0.09462800
vt 0.92957500 0.77058300
vt 0.92957600 0.82582800
vt 0.59762300 0.21515200
vt 0.12496800 0.06612400
vt 0.33228400 0.45582400
vt 0.98942200 0.31026300
vt 0.02650700 0.00501800
vt 0.29835800 0.14536900
vt 0.69405800 0.92488600
vt 0.40229500 0.93445400
vt 0.12572400 0.54787600
vt 0.79650500 0.99557200
vt 0.00442800 0.13015100
vt 0.06606800 0.17993400
vt 0.00442800 0.03817200
vt 0.98592600 0.60477300
vt 0.98954800 0.28855600
vt 0.66879200 0.54422400
vt 0.95725300 0.20910000
vt 0.96650400 0.08956400
vt 0.12572400 0.54787600
vt 0.95725000 0.17047500
vt 0.67626100 0.58212000
vt 0.55829900 0.24487900
vt 0.92072000 0.09030300
vt 0.98591200 0.54749400
vt 0.09309100 0.07632100
vt 0.20006900 0.06997900
vt 0.98062100 0.14491200
vt 0.23991700 0.06501500
vt 0.14380500 0.15672400
vt 0.05540100 0.12606100
vt 0.92573500 0.42926900
vt 0.86538800 0.36513700
vt 0.92519900 0.23656000
vt 0.65454500 0.33877000
vt 0.96610800 0.08070900
vt 0.06959000 0.04940500
vt 0.31472800 0.97775900
vt 0.01639000 0.08033500
vt 0.95825100 0.51123800
vt 0.51077000 0.51352300
vt 0.49055900 0.54449500
vt 0.95825100 0.47425400
vt 0.42732700 0.69439800
vt 0.82980900 0.61435900
vt 0.33091400 0.61430500
vt 0.83199600 0.23868700
vt 0.24451900 0.24973900
vt 0.98940900 0.34936200
vt 0.98887900 0.09752400
vt 0.09310300 0.15453700
vt 0.92958900 0.09462800
vt 0.39569300 0.21634900
vt 0.73093000 0.92488600
vt 0.17316300 0.22734300
vt 0.96174600 0.31030500
vt 0.27652000 0.13574400
vt 0.08832800 0.18426100
vt 0.01504300 0.15409100
vt 0.54177200 0.67227900
vt 0.65547500 0.26199800
vt 0.20164500 0.54909700
vt 0.13305300 0.18786800
vt 0.20810900 0.72178400
vt 0.73088200 0.40753200
vt 0.46562400 0.62519000
vt 0.98999000 0.15376800
vt 0.92072000 0.61392400
vt 0.44887600 0.15719700
vt 0.96173300 0.22440300
vt 0.57976400 0.06538100
vt 0.98591200 0.58590400
vt 0.08184600 0.15674800
vt 0.98062100 0.08956500
vt 0.68238000 0.54039500
vt 0.55936300 0.18953400
vt 0.92072000 0.16930800
vt 0.09787800 0.47483300
vt 0.79310400 0.68879400
vt 0.73085800 0.30904500
vt 0.19409000 0.81753700
vt 0.55568500 0.20881000
vt 0.92072000 0.14205200
vt 0.08207700 0.00442800
vt 0.91634400 0.22828900
vt 0.84021200 0.19835300
vt 0.82976700 0.54144900
vt 0.32416300 0.54333400
vt 0.66747600 0.62001900
vt 0.95724300 0.13157200
vt 0.92519900 0.34542100
vt 0.51093900 0.40678100
vt 0.15093700 0.23109300
vt 0.92519900 0.30743100
vt 0.54252300 0.38566900
vt 0.27183100 0.23720400
vt 0.86538800 0.16930800
vt 0.55894500 0.86838300
vt 0.46269200 0.74141400
vt 0.90310600 0.72884300
vt 0.90521000 0.57961600
vt 0.96460200 0.81306200
vt 0.95825100 0.51123800
vt 0.51077000 0.51352300
vt 0.56975900 0.80487200
vt 0.86538800 0.07580900
vt 0.10287400 0.70571800
vt 0.46645600 0.43288700
vt 0.98999000 0.20910000
vt 0.86538800 0.61392400
vt 0.30843800 0.46006400
vt 0.82971200 0.45489500
vt 0.92573500 0.42926900
vt 0.86538800 0.36513700
vt 0.20810900 0.72178400
vt 0.73088200 0.40753200
vt 0.56763000 0.17081200
vt 0.92072000 0.19475600
vt 0.09309100 0.07632100
vt 0.20006900 0.06997900
vt 0.98591200 0.54749400
vt 0.56521700 0.21787300
vt 0.92072000 0.12889900
vt 0.55523500 0.84911400
vt 0.86538800 0.14205200
vt 0.07830600 0.80044800
vt 0.06043400 0.24247500
vt 0.79306400 0.93143000
vt 0.00442800 0.03817200
vt 0.98592600 0.60477300
vt 0.98954800 0.28855600
vt 0.19695500 0.63452900
vt 0.69167200 0.19038400
vt 0.42701000 0.22099300
vt 0.01500600 0.91159100
vt 0.79094700 0.23868700
vt 0.75755500 0.14169900
vt 0.70725600 0.04272100
vt 0.22508300 0.98731700
vt 0.58866500 0.22404200
vt 0.92957500 0.77058300
vt 0.92957600 0.82582800
vt 0.59762300 0.21515200
vt 0.12496800 0.06612400
vt 0.94939400 0.58562200
vt 0.62845900 0.24966400
vt 0.90522300 0.41737100
vt 0.96460200 0.97530700
vt 0.64045000 0.33877000
vt 0.05549400 0.04940500
vt 0.95724300 0.01927800
vt 0.65547500 0.22400700
vt 0.93708000 0.24414600
vt 0.57904300 0.67963300
vt 0.69407600 0.58596900
vt 0.45445700 0.61229300
vt 0.09787800 0.47483300
vt 0.79310400 0.68879400
vt 0.76641100 0.07486600
vt 0.63874000 0.07648700
vt 0.56475200 0.84003500
vt 0.86538800 0.12889900
vt 0.18304500 0.37310500
vt 0.31274300 0.92161100
vt 0.04630800 0.05690400
vt 0.20006900 0.15674800
vt 0.38472300 0.15719700
vt 0.55786400 0.26045600
vt 0.92072000 0.05978600
vt 0.69405800 0.97361800
vt 0.38370400 0.97772600
vt 0.94088700 0.96941500
vt 0.58863700 0.06818200
vt 0.11848400 0.62196600
vt 0.46645600 0.43288700
vt 0.98999000 0.20910000
vt 0.86538800 0.61392400
vt 0.08321400 0.24011200
vt 0.11848400 0.62196600
vt 0.28893900 0.95593100
vt 0.82988000 0.96807500
vt 0.94814000 0.79365100
vt 0.66743300 0.13284300
vt 0.90523100 0.60506800
vt 0.96389700 0.78479600
vt 0.13305300 0.18786800
vt 0.01500600 0.91159100
vt 0.79094700 0.23868700
vt 0.69167200 0.19038400
vt 0.42701000 0.22099300
vt 0.20802800 0.07793800
vt 0.08190800 0.07498000
vt 0.68211300 0.45865500
vt 0.66747600 0.62001900
vt 0.95724300 0.13157200
vt 0.98591200 0.47425400
vt 0.55507400 0.22690000
vt 0.92072000 0.11532000
vt 0.13248900 0.09387600
vt 0.98103100 0.68581800
vt 0.91487000 0.41522300
vt 0.86557200 0.38289300
vt 0.63734400 0.42353400
vt 0.08832800 0.18426100
vt 0.01504300 0.15409100
vt 0.92957600 0.68581800
vt 0.91634400 0.37453600
vt 0.84021200 0.06240500
vt 0.28982500 0.15633900
vt 0.01523200 0.01033300
vt 0.56532300 0.23609100
vt 0.92072000 0.10155400
vt 0.85267400 0.18593800
vt 0.91555100 0.24586200
vt 0.05450400 0.79441700
vt 0.79330500 0.35677200
vt 0.46562400 0.62519000
vt 0.98999000 0.15376800
vt 0.92072000 0.61392400
vt 0.73090000 0.49448400
vt 0.22036400 0.63799400
vt 0.60033900 0.47636200
vt 0.01466700 0.06622500
vt 0.16625700 0.94512100
vt 0.20802800 0.14887600
vt 0.04663900 0.06706600
vt 0.61211000 0.44717200
vt 0.31472800 0.97775900
vt 0.01639000 0.08033500
vt 0.18391800 0.71827400
vt 0.54177200 0.67227900
vt 0.65547500 0.26199800
vt 0.55507400 0.22690000
vt 0.92072000 0.11532000
vt 0.02076200 0.10448500
vt 0.08178600 0.06612500
vt 0.77851500 0.19840200
vt 0.63957100 0.20490300
vt 0.56657700 0.85822100
vt 0.86538800 0.15659900
vt 0.19695500 0.63452900
vt 0.16926500 0.81630100
vt 0.79650500 0.99557200
vt 0.00442800 0.13015100
vt 0.06606800 0.17993400
vt 0.01959700 0.12545700
vt 0.18304500 0.37310500
vt 0.69405800 0.92488600
vt 0.40229500 0.93445400
vt 0.60033900 0.47636200
vt 0.01466700 0.06622500
vt 0.57132900 0.18074800
vt 0.92072000 0.18415400
vt 0.10287400 0.70571800
vt 0.98699900 0.22436800
vt 0.55449900 0.06538600
vt 0.86538800 0.99557200
vt 0.95725000 0.17047500
vt 0.67626100 0.58212000
vt 0.08178600 0.09385000
vt 0.68206400 0.47751300
vt 0.38472300 0.15719700
vt 0.55786400 0.26045600
vt 0.92072000 0.05978600
vt 0.92957600 0.68581800
vt 0.91634400 0.37453600
vt 0.84021200 0.06240500
vt 0.20084500 0.99557200
vt 0.58863700 0.24966700
f 38/38 379/379 788/788
f 370/370 487/487 832/832
f 715/715 38/38 508/508
f 742/742 368/368 830/830
f 630/630 344/344 811/811
f 189/189 164/164 742/742
f 829/829 183/183 894/894
f 801/801 244/244 777/777
f 185/185 802/802 789/789
f 713/713 632/632 70/70
f 380/380 188/188 743/743
f 509/509 617/617 631/631
f 895/895 743/743 831/831
f 115/115 247/247 371/371
f 714/714 188/188 537/537
f 789/789 617/617 39/39
f 293/293 818/818 461/461
f 165/165 117/117 369/369
f 343/343 175/175 813/813
f 626/626 476/476 165/165
f 629/629 24/24 68/68
f 245/245 134/134 776/776
f 116/116 676/676 599/599
f 69/69 625/625 189/189
f 618/618 777/777 344/344
f 231/231 741/741 31/31
f 114/114 2/2 816/816
f 604/604 819/819 174/174
f 475/475 853/853 2/2
f 812/812 294/294 21/21
f 626/626 296/296 898/898
f 343/343 134/134 603/603
f 897/897 462/462 853/853
f 135/135 682/682 604/604
f 598/598 725/725 135/135
f 725/725 257/257 682/682
f 257/257 633/633 326/326
f 217/217 483/483 567/567
f 29/29 676/676 817/817
f 31/31 393/393 29/29
f 552/552 349/349 621/621
f 326/326 552/552 621/621
f 694/694 488/488 483/483
f 512/512 10/10 674/674
f 524/524 132/132 346/346
f 531/531 510/510 474/474
f 512/512 19/19 231/231
f 386/386 474/474 349/349
f 577/577 325/325 503/503
f 535/535 346/346 354/354
f 384/384 567/567 132/132
f 503/503 10/10 787/787
f 258/258 465/465 510/510
f 318/318 354/354 637/637
f 871/871 2/2 853/853
f 871/871 883/883 755/755
f 37/37 808/808 870/870
f 582/582 808/808 883/883
f 792/792 259/259 171/171
f 171/171 639/639 37/37
f 722/722 522/522 792/792
f 709/709 818/818 488/488
f 725/725 392/392 478/478
f 682/682 489/489 819/819
f 740/740 478/478 392/392
f 489/489 326/326 482/482
f 621/621 133/133 568/568
f 633/633 20/20 552/552
f 326/326 568/568 482/482
f 675/675 552/552 20/20
f 474/474 355/355 347/347
f 531/531 675/675 11/11
f 349/349 347/347 133/133
f 324/324 793/793 258/258
f 11/11 258/258 531/531
f 638/638 510/510 465/465
f 28/28 2/2 755/755
f 710/710 853/853 462/462
f 755/755 30/30 28/28
f 582/582 710/710 693/693
f 385/385 870/870 218/218
f 230/230 883/883 808/808
f 218/218 582/582 693/693
f 808/808 511/511 230/230
f 534/534 171/171 525/525
f 511/511 259/259 786/786
f 525/525 37/37 385/385
f 136/136 502/502 522/522
f 522/522 786/786 259/259
f 792/792 319/319 722/722
f 896/896 788/788 379/379
f 465/465 383/383 638/638
f 136/136 375/375 576/576
f 637/637 586/586 318/318
f 793/793 63/63 465/465
f 577/577 119/119 378/378
f 722/722 585/585 692/692
f 136/136 692/692 608/608
f 793/793 118/118 350/350
f 586/586 47/47 137/137
f 376/376 169/169 119/119
f 692/692 687/687 608/608
f 692/692 138/138 493/493
f 63/63 857/857 473/473
f 63/63 48/48 383/383
f 350/350 170/170 857/857
f 608/608 642/642 375/375
f 360/360 472/472 858/858
f 323/323 641/641 307/307
f 360/360 168/168 323/323
f 220/220 641/641 688/688
f 523/523 139/139 49/49
f 179/179 49/49 472/472
f 220/220 492/492 581/581
f 581/581 139/139 504/504
f 504/504 523/523 179/179
f 38/38 536/536 379/379
f 370/370 246/246 487/487
f 715/715 536/536 38/38
f 742/742 164/164 368/368
f 630/630 618/618 344/344
f 189/189 625/625 164/164
f 829/829 485/485 183/183
f 801/801 486/486 244/244
f 185/185 484/484 802/802
f 713/713 507/507 632/632
f 380/380 537/537 188/188
f 509/509 39/39 617/617
f 895/895 380/380 743/743
f 115/115 600/600 247/247
f 714/714 67/67 188/188
f 789/789 802/802 617/617
f 293/293 172/172 818/818
f 165/165 476/476 117/117
f 343/343 603/603 175/175
f 626/626 898/898 476/476
f 629/629 814/814 24/24
f 245/245 601/601 134/134
f 116/116 817/817 676/676
f 69/69 22/22 625/625
f 618/618 801/801 777/777
f 231/231 19/19 741/741
f 114/114 475/475 2/2
f 604/604 682/682 819/819
f 475/475 897/897 853/853
f 812/812 173/173 294/294
f 626/626 23/23 296/296
f 343/343 776/776 134/134
f 897/897 295/295 462/462
f 135/135 725/725 682/682
f 598/598 677/677 725/725
f 725/725 478/478 257/257
f 257/257 478/478 633/633
f 217/217 694/694 483/483
f 29/29 393/393 676/676
f 31/31 741/741 393/393
f 552/552 386/386 349/349
f 326/326 633/633 552/552
f 694/694 709/709 488/488
f 512/512 787/787 10/10
f 524/524 384/384 132/132
f 531/531 258/258 510/510
f 512/512 674/674 19/19
f 386/386 531/531 474/474
f 577/577 378/378 325/325
f 535/535 524/524 346/346
f 384/384 217/217 567/567
f 503/503 325/325 10/10
f 258/258 793/793 465/465
f 318/318 535/535 354/354
f 871/871 755/755 2/2
f 871/871 582/582 883/883
f 37/37 639/639 808/808
f 582/582 870/870 808/808
f 792/792 522/522 259/259
f 171/171 259/259 639/639
f 722/722 136/136 522/522
f 709/709 461/461 818/818
f 725/725 677/677 392/392
f 682/682 257/257 489/489
f 740/740 633/633 478/478
f 489/489 257/257 326/326
f 621/621 349/349 133/133
f 633/633 740/740 20/20
f 326/326 621/621 568/568
f 675/675 386/386 552/552
f 474/474 510/510 355/355
f 531/531 386/386 675/675
f 349/349 474/474 347/347
f 324/324 377/377 793/793
f 11/11 324/324 258/258
f 638/638 355/355 510/510
f 28/28 816/816 2/2
f 710/710 871/871 853/853
f 755/755 883/883 30/30
f 582/582 871/871 710/710
f 385/385 37/37 870/870
f 230/230 30/30 883/883
f 218/218 870/870 582/582
f 808/808 639/639 511/511
f 534/534 792/792 171/171
f 511/511 639/639 259/259
f 525/525 171/171 37/37
f 136/136 576/576 502/502
f 522/522 502/502 786/786
f 792/792 534/534 319/319
f 896/896 184/184 788/788
f 465/465 63/63 383/383
f 136/136 608/608 375/375
f 637/637 382/382 586/586
f 793/793 350/350 63/63
f 577/577 376/376 119/119
f 722/722 319/319 585/585
f 136/136 722/722 692/692
f 793/793 377/377 118/118
f 586/586 382/382 47/47
f 376/376 640/640 169/169
f 692/692 493/493 687/687
f 692/692 585/585 138/138
f 63/63 350/350 857/857
f 63/63 473/473 48/48
f 350/350 118/118 170/170
f 608/608 687/687 642/642
f 360/360 179/179 472/472
f 323/323 168/168 641/641
f 360/360 858/858 168/168
f 220/220 307/307 641/641
f 523/523 504/504 139/139
f 179/179 523/523 49/49
f 220/220 688/688 492/492
f 581/581 492/492 139/139
f 179/179 360/360 220/220
f 360/360 323/323 307/307
f 220/220 360/360 307/307
f 220/220 581/581 179/179
f 581/581 504/504 179/179
f 458/458 102/102 56/56
f 122/122 551/551 196/196
f 113/113 458/458 866/866
f 661/661 120/120 194/194
f 771/771 731/731 569/569
f 315/315 334/334 661/661
f 193/193 320/320 835/835
f 225/225 239/239 283/283
f 322/322 226/226 57/57
f 111/111 773/773 430/430
f 103/103 314/314 662/662
f 867/867 232/232 772/772
f 836/836 662/662 195/195
f 542/542 242/242 123/123
f 112/112 314/314 843/843
f 57/57 232/232 459/459
f 766/766 762/762 596/596
f 335/335 544/544 121/121
f 730/730 330/330 571/571
f 775/775 584/584 335/335
f 770/770 95/95 428/428
f 240/240 527/527 282/282
f 543/543 26/26 80/80
f 429/429 774/774 315/315
f 233/233 283/283 731/731
f 495/495 367/367 128/128
f 541/541 101/101 764/764
f 78/78 763/763 329/329
f 583/583 398/398 101/101
f 570/570 767/767 92/92
f 775/775 769/769 107/107
f 730/730 527/527 77/77
f 106/106 597/597 398/398
f 528/528 9/9 78/78
f 79/79 345/345 528/528
f 345/345 302/302 9/9
f 302/302 468/468 219/219
f 849/849 616/616 146/146
f 845/845 26/26 765/765
f 128/128 145/145 845/845
f 152/152 50/50 100/100
f 219/219 152/152 100/100
f 745/745 407/407 616/616
f 416/416 3/3 284/284
f 40/40 784/784 262/262
f 595/595 254/254 673/673
f 416/416 716/716 495/495
f 8/8 673/673 50/50
f 757/757 292/292 55/55
f 224/224 262/262 454/454
f 565/565 146/146 784/784
f 55/55 3/3 708/708
f 506/506 505/505 254/254
f 683/683 454/454 877/877
f 1/1 101/101 398/398
f 1/1 736/736 110/110
f 691/691 803/803 761/761
f 859/859 803/803 736/736
f 876/876 348/348 406/406
f 406/406 649/649 691/691
f 243/243 248/248 876/876
f 532/532 762/762 407/407
f 345/345 144/144 419/419
f 9/9 408/408 763/763
f 366/366 419/419 144/144
f 408/408 219/219 615/615
f 100/100 785/785 147/147
f 468/468 717/717 152/152
f 219/219 147/147 615/615
f 285/285 152/152 717/717
f 673/673 455/455 263/263
f 595/595 285/285 4/4
f 50/50 263/263 785/785
f 291/291 157/157 506/506
f 4/4 506/506 595/595
f 878/878 254/254 505/505
f 844/844 101/101 110/110
f 533/533 398/398 597/597
f 110/110 127/127 844/844
f 859/859 533/533 744/744
f 566/566 761/761 850/850
f 494/494 736/736 803/803
f 850/850 859/859 744/744
f 803/803 415/415 494/494
f 223/223 406/406 41/41
f 415/415 348/348 707/707
f 41/41 691/691 566/566
f 807/807 54/54 248/248
f 248/248 707/707 348/348
f 876/876 684/684 243/243
f 837/837 56/56 102/102
f 505/505 800/800 878/878
f 807/807 264/264 756/756
f 877/877 610/610 683/683
f 157/157 182/182 505/505
f 757/757 810/810 59/59
f 243/243 609/609 815/815
f 807/807 815/815 25/25
f 157/157 809/809 317/317
f 610/610 559/559 88/88
f 265/265 448/448 810/810
f 815/815 833/833 25/25
f 815/815 89/89 99/99
f 182/182 667/667 141/141
f 182/182 560/560 800/800
f 317/317 449/449 667/667
f 25/25 874/874 264/264
f 301/301 140/140 668/668
f 864/864 873/873 875/875
f 301/301 447/447 864/864
f 405/405 873/873 834/834
f 313/313 90/90 561/561
f 436/436 561/561 140/140
f 405/405 98/98 611/611
f 611/611 90/90 660/660
f 660/660 313/313 436/436
f 458/458 842/842 102/102
f 122/122 241/241 551/551
f 113/113 842/842 458/458
f 661/661 334/334 120/120
f 771/771 233/233 731/731
f 315/315 774/774 334/334
f 193/193 549/549 320/320
f 225/225 550/550 239/239
f 322/322 548/548 226/226
f 111/111 865/865 773/773
f 103/103 843/843 314/314
f 867/867 459/459 232/232
f 836/836 103/103 662/662
f 542/542 81/81 242/242
f 112/112 427/427 314/314
f 57/57 226/226 232/232
f 766/766 327/327 762/762
f 335/335 584/584 544/544
f 730/730 77/77 330/330
f 775/775 107/107 584/584
f 770/770 572/572 95/95
f 240/240 82/82 527/527
f 543/543 765/765 26/26
f 429/429 93/93 774/774
f 233/233 225/225 283/283
f 495/495 716/716 367/367
f 541/541 583/583 101/101
f 78/78 9/9 763/763
f 583/583 106/106 398/398
f 570/570 328/328 767/767
f 775/775 94/94 769/769
f 730/730 282/282 527/527
f 106/106 768/768 597/597
f 528/528 345/345 9/9
f 79/79 27/27 345/345
f 345/345 419/419 302/302
f 302/302 419/419 468/468
f 849/849 745/745 616/616
f 845/845 145/145 26/26
f 128/128 367/367 145/145
f 152/152 8/8 50/50
f 219/219 468/468 152/152
f 745/745 532/532 407/407
f 416/416 708/708 3/3
f 40/40 565/565 784/784
f 595/595 506/506 254/254
f 416/416 284/284 716/716
f 8/8 595/595 673/673
f 757/757 59/59 292/292
f 224/224 40/40 262/262
f 565/565 849/849 146/146
f 55/55 292/292 3/3
f 506/506 157/157 505/505
f 683/683 224/224 454/454
f 1/1 110/110 101/101
f 1/1 859/859 736/736
f 691/691 649/649 803/803
f 859/859 761/761 803/803
f 876/876 248/248 348/348
f 406/406 348/348 649/649
f 243/243 807/807 248/248
f 532/532 596/596 762/762
f 345/345 27/27 144/144
f 9/9 302/302 408/408
f 366/366 468/468 419/419
f 408/408 302/302 219/219
f 100/100 50/50 785/785
f 468/468 366/366 717/717
f 219/219 100/100 147/147
f 285/285 8/8 152/152
f 673/673 254/254 455/455
f 595/595 8/8 285/285
f 50/50 673/673 263/263
f 291/291 58/58 157/157
f 4/4 291/291 506/506
f 878/878 455/455 254/254
f 844/844 764/764 101/101
f 533/533 1/1 398/398
f 110/110 736/736 127/127
f 859/859 1/1 533/533
f 566/566 691/691 761/761
f 494/494 127/127 736/736
f 850/850 761/761 859/859
f 803/803 649/649 415/415
f 223/223 876/876 406/406
f 415/415 649/649 348/348
f 41/41 406/406 691/691
f 807/807 756/756 54/54
f 248/248 54/54 707/707
f 876/876 223/223 684/684
f 837/837 321/321 56/56
f 505/505 182/182 800/800
f 807/807 25/25 264/264
f 877/877 799/799 610/610
f 157/157 317/317 182/182
f 757/757 265/265 810/810
f 243/243 684/684 609/609
f 807/807 243/243 815/815
f 157/157 58/58 809/809
f 610/610 799/799 559/559
f 265/265 872/872 448/448
f 815/815 99/99 833/833
f 815/815 609/609 89/89
f 182/182 317/317 667/667
f 182/182 141/141 560/560
f 317/317 809/809 449/449
f 25/25 833/833 874/874
f 301/301 436/436 140/140
f 864/864 447/447 873/873
f 301/301 668/668 447/447
f 405/405 875/875 873/873
f 313/313 660/660 90/90
f 436/436 313/313 561/561
f 405/405 834/834 98/98
f 611/611 98/98 90/90
f 436/436 301/301 405/405
f 301/301 864/864 875/875
f 405/405 301/301 875/875
f 405/405 611/611 436/436
f 611/611 660/660 436/436
f 341/341 526/526 305/305
f 305/305 66/66 723/723
f 723/723 514/514 287/287
f 696/696 278/278 564/564
f 737/737 52/52 255/255
f 579/579 200/200 518/518
f 735/735 579/579 518/518
f 13/13 404/404 363/363
f 863/863 275/275 300/300
f 339/339 620/620 275/275
f 178/178 130/130 126/126
f 261/261 439/439 205/205
f 464/464 388/388 418/418
f 421/421 300/300 388/388
f 747/747 205/205 130/130
f 575/575 418/418 869/869
f 653/653 735/735 620/620
f 124/124 698/698 176/176
f 87/87 869/869 439/439
f 190/190 887/887 316/316
f 759/759 409/409 558/558
f 414/414 374/374 654/654
f 825/825 669/669 414/414
f 365/365 167/167 825/825
f 365/365 277/277 42/42
f 356/356 208/208 515/515
f 681/681 594/594 356/356
f 91/91 397/397 681/681
f 316/316 719/719 91/91
f 699/699 389/389 51/51
f 695/695 64/64 390/390
f 588/588 539/539 590/590
f 888/888 410/410 373/373
f 888/888 373/373 670/670
f 888/888 670/670 166/166
f 888/888 166/166 43/43
f 888/888 43/43 276/276
f 888/888 211/211 593/593
f 888/888 593/593 396/396
f 888/888 396/396 718/718
f 680/680 828/828 477/477
f 272/272 158/158 216/216
f 273/273 460/460 794/794
f 149/149 7/7 160/160
f 758/758 556/556 852/852
f 153/153 685/685 589/589
f 852/852 281/281 546/546
f 153/153 591/591 191/191
f 634/634 252/252 685/685
f 362/362 402/402 513/513
f 216/216 5/5 46/46
f 253/253 203/203 686/686
f 588/588 203/203 163/163
f 828/828 748/748 477/477
f 281/281 215/215 202/202
f 162/162 197/197 828/828
f 148/148 460/460 852/852
f 281/281 202/202 546/546
f 490/490 748/748 6/6
f 460/460 159/159 794/794
f 5/5 198/198 46/46
f 203/203 44/44 163/163
f 490/490 680/680 477/477
f 162/162 104/104 540/540
f 538/538 192/192 592/592
f 654/654 409/409 701/701
f 758/758 546/546 251/251
f 796/796 17/17 201/201
f 555/555 192/192 498/498
f 105/105 498/498 538/538
f 851/851 491/491 149/149
f 553/553 851/851 557/557
f 410/410 553/553 557/557
f 463/463 86/86 52/52
f 341/341 562/562 526/526
f 305/305 526/526 66/66
f 723/723 66/66 514/514
f 579/579 798/798 200/200
f 735/735 438/438 579/579
f 13/13 613/613 404/404
f 863/863 339/339 275/275
f 339/339 653/653 620/620
f 178/178 747/747 130/130
f 261/261 87/87 439/439
f 464/464 421/421 388/388
f 421/421 863/863 300/300
f 747/747 261/261 205/205
f 575/575 464/464 418/418
f 653/653 438/438 735/735
f 124/124 83/83 698/698
f 87/87 575/575 869/869
f 190/190 554/554 887/887
f 759/759 701/701 409/409
f 414/414 669/669 374/374
f 825/825 167/167 669/669
f 365/365 42/42 167/167
f 365/365 563/563 277/277
f 356/356 594/594 208/208
f 681/681 397/397 594/594
f 91/91 719/719 397/397
f 316/316 887/887 719/719
f 699/699 84/84 389/389
f 588/588 163/163 539/539
f 680/680 104/104 828/828
f 272/272 795/795 158/158
f 273/273 281/281 460/460
f 149/149 491/491 7/7
f 153/153 634/634 685/685
f 852/852 460/460 281/281
f 153/153 589/589 591/591
f 634/634 760/760 252/252
f 216/216 158/158 5/5
f 253/253 545/545 203/203
f 588/588 686/686 203/203
f 828/828 197/197 748/748
f 281/281 273/273 215/215
f 162/162 45/45 197/197
f 490/490 477/477 748/748
f 460/460 148/148 159/159
f 5/5 749/749 198/198
f 203/203 214/214 44/44
f 490/490 497/497 680/680
f 162/162 828/828 104/104
f 538/538 498/498 192/192
f 654/654 374/374 409/409
f 758/758 852/852 546/546
f 796/796 612/612 17/17
f 105/105 679/679 498/498
f 851/851 499/499 491/491
f 553/553 499/499 851/851
f 410/410 888/888 553/553
f 700/700 52/52 177/177
f 52/52 737/737 463/463
f 737/737 340/340 306/306
f 724/724 288/288 614/614
f 288/288 403/403 614/614
f 737/737 306/306 797/797
f 306/306 724/724 614/614
f 737/737 862/862 463/463
f 746/746 177/177 52/52
f 86/86 260/260 746/746
f 463/463 574/574 86/86
f 862/862 420/420 463/463
f 652/652 338/338 862/862
f 578/578 437/437 652/652
f 797/797 578/578 652/652
f 797/797 652/652 862/862
f 614/614 797/797 306/306
f 797/797 862/862 737/737
f 86/86 746/746 52/52
f 738/738 696/696 564/564
f 402/402 286/286 513/513
f 206/206 362/362 513/513
f 342/342 738/738 564/564
f 361/361 210/210 14/14
f 619/619 299/299 274/274
f 299/299 417/417 387/387
f 417/417 440/440 868/868
f 440/440 129/129 204/204
f 129/129 390/390 125/125
f 695/695 417/417 299/299
f 199/199 16/16 689/689
f 207/207 15/15 364/364
f 690/690 18/18 209/209
f 390/390 417/417 695/695
f 85/85 125/125 390/390
f 417/417 390/390 440/440
f 519/519 619/619 734/734
f 199/199 619/619 519/519
f 199/199 299/299 619/619
f 199/199 695/695 299/299
f 440/440 390/390 129/129
f 689/689 888/888 229/229
f 229/229 276/276 695/695
f 888/888 276/276 229/229
f 229/229 199/199 689/689
f 199/199 229/229 695/695
f 358/358 97/97 720/720
f 720/720 580/580 289/289
f 289/289 480/480 155/155
f 847/847 401/401 73/73
f 804/804 885/885 180/180
f 222/222 606/606 297/297
f 435/435 222/222 297/297
f 441/441 62/62 665/665
f 827/827 530/530 517/517
f 841/841 187/187 530/530
f 433/433 467/467 471/471
f 882/882 726/726 33/33
f 712/712 791/791 754/754
f 752/752 517/517 791/791
f 425/425 33/33 467/467
f 228/228 754/754 304/304
f 501/501 435/435 187/187
f 469/469 266/266 431/431
f 706/706 304/304 726/726
f 74/74 650/650 372/372
f 644/644 456/456 310/310
f 453/453 109/109 750/750
f 381/381 732/732 453/453
f 496/496 672/672 381/381
f 496/496 400/400 249/249
f 96/96 780/780 481/481
f 353/353 423/423 96/96
f 161/161 628/628 353/353
f 372/372 824/824 161/161
f 267/267 34/34 884/884
f 846/846 728/728 35/35
f 279/279 658/658 622/622
f 651/651 457/457 108/108
f 651/651 108/108 733/733
f 651/651 733/733 671/671
f 651/651 671/671 250/250
f 651/651 250/250 399/399
f 651/651 783/783 422/422
f 651/651 422/422 627/627
f 651/651 627/627 823/823
f 521/521 547/547 12/12
f 212/212 854/854 271/271
f 213/213 602/602 237/237
f 352/352 822/822 856/856
f 643/643 308/308 880/880
f 678/678 150/150 280/280
f 880/880 587/587 839/839
f 678/678 623/623 75/75
f 573/573 235/235 150/150
f 664/664 60/60 479/479
f 271/271 820/820 452/452
f 236/236 636/636 151/151
f 279/279 636/636 337/337
f 547/547 655/655 12/12
f 587/587 270/270 635/635
f 336/336 311/311 547/547
f 351/351 602/602 880/880
f 587/587 635/635 839/839
f 889/889 655/655 821/821
f 602/602 855/855 237/237
f 820/820 312/312 452/452
f 636/636 450/450 337/337
f 889/889 521/521 12/12
f 336/336 142/142 659/659
f 657/657 76/76 624/624
f 750/750 456/456 131/131
f 643/643 839/839 234/234
f 891/891 445/445 607/607
f 648/648 76/76 703/703
f 143/143 703/703 657/657
f 879/879 890/890 352/352
f 646/646 879/879 309/309
f 457/457 646/646 309/309
f 711/711 705/705 885/885
f 358/358 71/71 97/97
f 720/720 97/97 580/580
f 289/289 580/580 480/480
f 222/222 893/893 606/606
f 435/435 395/395 222/222
f 441/441 412/412 62/62
f 827/827 841/841 530/530
f 841/841 501/501 187/187
f 433/433 425/425 467/467
f 882/882 706/706 726/726
f 712/712 752/752 791/791
f 752/752 827/827 517/517
f 425/425 882/882 33/33
f 228/228 712/712 754/754
f 501/501 395/395 435/435
f 469/469 331/331 266/266
f 706/706 228/228 304/304
f 74/74 647/647 650/650
f 644/644 131/131 456/456
f 453/453 732/732 109/109
f 381/381 672/672 732/732
f 496/496 249/249 672/672
f 496/496 72/72 400/400
f 96/96 423/423 780/780
f 353/353 628/628 423/423
f 161/161 824/824 628/628
f 372/372 650/650 824/824
f 267/267 332/332 34/34
f 279/279 337/337 658/658
f 521/521 142/142 547/547
f 212/212 238/238 854/854
f 213/213 587/587 602/602
f 352/352 890/890 822/822
f 678/678 573/573 150/150
f 880/880 602/602 587/587
f 678/678 280/280 623/623
f 573/573 645/645 235/235
f 271/271 854/854 820/820
f 236/236 838/838 636/636
f 279/279 151/151 636/636
f 547/547 311/311 655/655
f 587/587 213/213 270/270
f 336/336 451/451 311/311
f 889/889 12/12 655/655
f 602/602 351/351 855/855
f 820/820 656/656 312/312
f 636/636 269/269 450/450
f 889/889 702/702 521/521
f 336/336 547/547 142/142
f 657/657 703/703 76/76
f 750/750 109/109 456/456
f 643/643 880/880 839/839
f 891/891 411/411 445/445
f 143/143 520/520 703/703
f 879/879 704/704 890/890
f 646/646 704/704 879/879
f 457/457 651/651 646/646
f 268/268 885/885 432/432
f 885/885 804/804 711/711
f 804/804 357/357 721/721
f 290/290 156/156 413/413
f 156/156 61/61 413/413
f 804/804 721/721 892/892
f 721/721 290/290 413/413
f 804/804 826/826 711/711
f 424/424 432/432 885/885
f 705/705 881/881 424/424
f 711/711 227/227 705/705
f 826/826 751/751 711/711
f 500/500 840/840 826/826
f 221/221 394/394 500/500
f 892/892 221/221 500/500
f 892/892 500/500 826/826
f 413/413 892/892 721/721
f 892/892 826/826 804/804
f 705/705 424/424 885/885
f 805/805 847/847 73/73
f 60/60 154/154 479/479
f 778/778 664/664 479/479
f 359/359 805/805 73/73
f 663/663 782/782 442/442
f 186/186 516/516 529/529
f 516/516 753/753 790/790
f 753/753 727/727 303/303
f 727/727 466/466 32/32
f 466/466 35/35 470/470
f 846/846 753/753 516/516
f 605/605 444/444 860/860
f 779/779 443/443 666/666
f 861/861 446/446 781/781
f 35/35 753/753 846/846
f 333/333 470/470 35/35
f 753/753 35/35 727/727
f 298/298 186/186 434/434
f 605/605 186/186 298/298
f 605/605 516/516 186/186
f 605/605 846/846 516/516
f 727/727 35/35 466/466
f 860/860 651/651 426/426
f 426/426 399/399 846/846
f 651/651 399/399 426/426
f 426/426 605/605 860/860
f 605/605 426/426 846/846
f 256/256 65/65 697/697
f 256/256 697/697 739/739
f 391/391 65/65 256/256
f 391/391 256/256 53/53
f 211/211 888/888 689/689
f 211/211 689/689 16/16
f 181/181 729/729 848/848
f 181/181 848/848 806/806
f 36/36 729/729 181/181
f 36/36 181/181 886/886
f 783/783 651/651 860/860
f 783/783 860/860 444/444