o convex_0
v -0.020278 -0.090179 0.009463
v -0.031706 -0.050897 0.005537
v -0.031348 -0.052687 0.005179
v -0.017065 -0.039821 0.005537
v -0.029562 -0.039821 0.012679
v -0.014207 -0.081247 0.012679
v -0.014207 -0.086245 0.003393
v -0.029921 -0.039821 0.003393
v -0.019207 -0.039821 0.012679
v -0.024206 -0.080887 0.012679
v -0.023849 -0.082316 0.003393
v -0.012421 -0.078748 0.010534
v -0.029921 -0.063753 0.010534
v -0.019207 -0.039821 0.003393
v -0.025992 -0.081607 0.005537
v -0.012421 -0.079457 0.005179
v -0.014565 -0.086960 0.012320
v -0.031706 -0.039821 0.010534
v -0.017065 -0.039821 0.010534
v -0.020634 -0.088384 0.003393
v -0.023849 -0.086960 0.010534
v -0.029562 -0.051972 0.012679
v -0.021350 -0.087320 0.012679
v -0.014207 -0.088034 0.005893
v -0.012421 -0.084816 0.010534
v -0.028135 -0.063038 0.003393
v -0.031706 -0.050897 0.010534
v -0.029921 -0.063753 0.005537
v -0.026349 -0.080172 0.010534
v -0.023491 -0.087320 0.005179
v -0.031706 -0.039821 0.005179
v -0.018494 -0.090179 0.005537
v -0.016351 -0.089464 0.010534
v -0.012421 -0.084816 0.005179
v -0.014207 -0.079457 0.003393
v -0.029921 -0.050538 0.003393
v -0.028135 -0.062323 0.012679
v -0.021350 -0.089464 0.005893
v -0.020993 -0.088384 0.012320
v -0.015279 -0.087675 0.003393
v -0.014207 -0.088034 0.009821
v -0.025992 -0.081247 0.005179
v -0.015279 -0.089104 0.005893
v -0.014207 -0.085890 0.012679
v -0.018494 -0.090179 0.010534
v -0.012421 -0.078748 0.005537
v -0.029921 -0.063038 0.005179
v -0.030634 -0.059114 0.010534
f 37 22 48 
f 5 4 8 
f 4 5 9 
f 5 6 9 
f 6 5 10 
f 8 7 11 
f 8 4 14 
f 7 8 14 
f 14 4 16 
f 5 8 18 
f 4 9 19 
f 9 6 19 
f 12 4 19 
f 6 12 19 
f 11 7 20 
f 10 5 22 
f 5 18 22 
f 6 10 23 
f 10 21 23 
f 12 6 25 
f 16 12 25 
f 8 11 26 
f 18 2 27 
f 22 18 27 
f 10 13 29 
f 15 21 29 
f 21 10 29 
f 13 28 29 
f 28 15 29 
f 11 20 30 
f 21 15 30 
f 2 18 31 
f 18 8 31 
f 7 16 34 
f 24 7 34 
f 16 25 34 
f 25 24 34 
f 7 14 35 
f 16 7 35 
f 14 16 35 
f 3 2 36 
f 8 26 36 
f 2 31 36 
f 31 8 36 
f 13 10 37 
f 10 22 37 
f 1 21 38 
f 30 20 38 
f 21 30 38 
f 32 1 38 
f 20 32 38 
f 21 1 39 
f 23 21 39 
f 20 7 40 
f 7 24 40 
f 32 20 40 
f 25 17 41 
f 24 25 41 
f 17 33 41 
f 26 11 42 
f 15 28 42 
f 11 30 42 
f 30 15 42 
f 33 32 43 
f 40 24 43 
f 32 40 43 
f 24 41 43 
f 41 33 43 
f 6 23 44 
f 25 6 44 
f 17 25 44 
f 39 17 44 
f 23 39 44 
f 1 32 45 
f 33 17 45 
f 32 33 45 
f 39 1 45 
f 17 39 45 
f 4 12 46 
f 16 4 46 
f 12 16 46 
f 2 3 47 
f 28 2 47 
f 3 36 47 
f 36 26 47 
f 26 42 47 
f 42 28 47 
f 27 2 48 
f 22 27 48 
f 2 28 48 
f 28 13 48 
f 13 37 48 
o convex_1
v -0.025990 -0.009109 0.005179
v -0.031706 -0.039821 0.005179
v -0.031706 -0.039821 0.010534
v -0.008849 -0.009109 0.010534
v -0.018850 -0.039106 0.003393
v -0.023491 -0.008036 0.012679
v -0.019208 -0.039821 0.012679
v -0.010637 -0.008036 0.003393
v -0.023491 -0.008036 0.003393
v -0.017065 -0.039821 0.005179
v -0.010993 -0.008036 0.012679
v -0.029561 -0.039821 0.012679
v -0.030277 -0.026247 0.010534
v -0.029919 -0.039821 0.003393
v -0.017065 -0.039821 0.010534
v -0.008849 -0.008751 0.005179
v -0.030277 -0.026959 0.005179
v -0.025990 -0.008751 0.010534
v -0.028489 -0.028036 0.012679
v -0.028489 -0.027320 0.003393
v -0.031706 -0.037320 0.010534
v -0.029205 -0.021611 0.005537
v -0.025634 -0.008036 0.005179
v -0.008849 -0.008036 0.010534
v -0.030990 -0.031250 0.005537
v -0.008849 -0.009109 0.005537
v -0.019208 -0.039821 0.003393
v -0.025634 -0.008394 0.010893
v -0.031706 -0.038390 0.005179
v -0.010993 -0.008751 0.012679
f 59 55 78 
f 51 50 55 
f 54 56 57 
f 56 53 57 
f 55 50 58 
f 54 55 59 
f 56 54 59 
f 55 54 60 
f 51 55 60 
f 57 53 62 
f 58 50 62 
f 52 55 63 
f 58 52 63 
f 55 58 63 
f 53 56 64 
f 58 53 64 
f 60 54 67 
f 49 57 68 
f 57 62 68 
f 65 49 68 
f 50 51 69 
f 51 60 69 
f 67 61 69 
f 60 67 69 
f 49 65 70 
f 65 61 70 
f 66 49 70 
f 61 66 70 
f 54 57 71 
f 57 49 71 
f 49 66 71 
f 59 52 72 
f 56 59 72 
f 64 56 72 
f 52 64 72 
f 61 65 73 
f 69 61 73 
f 52 58 74 
f 58 64 74 
f 64 52 74 
f 53 58 75 
f 62 53 75 
f 58 62 75 
f 66 61 76 
f 61 67 76 
f 67 54 76 
f 54 71 76 
f 71 66 76 
f 62 50 77 
f 68 62 77 
f 65 68 77 
f 50 69 77 
f 73 65 77 
f 69 73 77 
f 55 52 78 
f 52 59 78 
o convex_2
v -0.004208 0.090179 0.011606
v -0.014564 0.043399 0.004465
v -0.013848 0.025536 0.004465
v -0.000635 0.090179 0.004107
v 0.000436 0.025896 0.011606
v -0.013490 0.025536 0.011606
v 0.000436 0.026257 0.004465
v -0.014564 0.058382 0.009464
v -0.004565 0.089464 0.004107
v -0.000635 0.090179 0.011606
v -0.014564 0.045544 0.011606
v 0.000436 0.052681 0.004107
v -0.014564 0.058028 0.006251
v -0.013490 0.049112 0.004107
v 0.000436 0.052681 0.011606
v -0.014205 0.025536 0.010892
v 0.000436 0.038039 0.004107
v -0.004921 0.088742 0.011606
v -0.002421 0.025536 0.004465
v -0.007777 0.079820 0.004822
v -0.014205 0.025536 0.004822
v -0.002421 0.025536 0.011606
v -0.004565 0.089818 0.004465
v -0.013490 0.061957 0.006251
v -0.010991 0.044114 0.004107
v -0.013848 0.060173 0.009820
f 89 96 104 
f 83 79 84 
f 82 79 88 
f 79 83 88 
f 84 79 89 
f 86 80 89 
f 83 85 90 
f 87 82 90 
f 82 88 90 
f 80 86 91 
f 81 80 92 
f 87 90 92 
f 80 91 92 
f 88 83 93 
f 83 90 93 
f 90 88 93 
f 81 84 94 
f 89 80 94 
f 84 89 94 
f 90 85 95 
f 92 90 95 
f 89 79 96 
f 84 81 97 
f 85 83 97 
f 81 95 97 
f 95 85 97 
f 87 92 98 
f 92 91 98 
f 80 81 99 
f 81 94 99 
f 94 80 99 
f 83 84 100 
f 84 97 100 
f 97 83 100 
f 79 82 101 
f 82 87 101 
f 96 79 101 
f 87 98 101 
f 98 96 101 
f 91 86 102 
f 86 96 102 
f 98 91 102 
f 96 98 102 
f 81 92 103 
f 95 81 103 
f 92 95 103 
f 86 89 104 
f 96 86 104 
o convex_3
v 0.025793 -0.078389 0.011606
v 0.012222 -0.084458 0.005537
v 0.012580 -0.084815 0.004822
v 0.019008 -0.040183 0.003393
v 0.019365 -0.040183 0.012679
v 0.031865 -0.041965 0.005537
v 0.022578 -0.085534 0.003393
v 0.014724 -0.086958 0.012679
v 0.029721 -0.040183 0.012679
v 0.017223 -0.040183 0.010534
v 0.029721 -0.040183 0.003393
v 0.030079 -0.063038 0.005537
v 0.020438 -0.088392 0.012679
v 0.031507 -0.052325 0.010534
v 0.014366 -0.086601 0.003393
v 0.012222 -0.081600 0.010534
v 0.023651 -0.087316 0.005537
v 0.017223 -0.040183 0.005179
v 0.018652 -0.090174 0.005537
v 0.026151 -0.081247 0.010534
v 0.027935 -0.063400 0.012679
v 0.029721 -0.051968 0.003393
v 0.031865 -0.040183 0.010534
v 0.026151 -0.080533 0.005179
v 0.015437 -0.089102 0.010178
v 0.012580 -0.078385 0.005179
v 0.014366 -0.079456 0.012679
v 0.030079 -0.063038 0.010534
v 0.023651 -0.087316 0.010534
v 0.020080 -0.090174 0.009821
v 0.031507 -0.051611 0.005179
v 0.028293 -0.062323 0.003393
v 0.014366 -0.078385 0.003393
v 0.023293 -0.083391 0.012679
v 0.012222 -0.084458 0.010534
v 0.012580 -0.077670 0.010534
v 0.020794 -0.088392 0.003750
v 0.014008 -0.087673 0.005537
v 0.029721 -0.050539 0.012679
v 0.021867 -0.089107 0.005893
v 0.024364 -0.080885 0.003393
v 0.018652 -0.090174 0.010534
v 0.026151 -0.081247 0.005537
v 0.016152 -0.089459 0.005537
v 0.013653 -0.087316 0.010178
v 0.031865 -0.040183 0.005537
v 0.012580 -0.077670 0.005537
v 0.030079 -0.062323 0.005179
v 0.014008 -0.085529 0.012679
v 0.012580 -0.079456 0.010893
f 120 153 154 
f 108 109 113 
f 109 112 113 
f 109 108 114 
f 111 108 115 
f 108 113 115 
f 113 112 117 
f 108 111 119 
f 114 108 122 
f 113 117 125 
f 111 115 126 
f 115 113 127 
f 118 110 127 
f 121 111 128 
f 107 106 130 
f 122 108 130 
f 112 109 131 
f 116 118 132 
f 105 124 132 
f 124 116 132 
f 125 105 132 
f 121 124 133 
f 133 117 134 
f 110 118 135 
f 118 116 135 
f 126 115 135 
f 111 126 136 
f 119 107 137 
f 108 119 137 
f 107 130 137 
f 130 108 137 
f 124 105 138 
f 105 125 138 
f 125 117 138 
f 117 133 138 
f 133 124 138 
f 120 106 139 
f 114 122 140 
f 119 111 141 
f 111 121 141 
f 123 119 141 
f 106 107 142 
f 107 119 142 
f 113 125 143 
f 127 113 143 
f 118 127 143 
f 132 118 143 
f 125 132 143 
f 121 133 144 
f 134 123 144 
f 133 134 144 
f 141 121 144 
f 123 141 144 
f 128 111 145 
f 111 136 145 
f 117 112 146 
f 112 129 146 
f 123 134 146 
f 134 117 146 
f 116 124 147 
f 124 121 147 
f 121 128 147 
f 128 116 147 
f 119 123 148 
f 142 119 148 
f 129 142 148 
f 146 129 148 
f 123 146 148 
f 129 112 149 
f 139 106 149 
f 112 139 149 
f 106 142 149 
f 142 129 149 
f 127 110 150 
f 115 127 150 
f 110 135 150 
f 135 115 150 
f 106 120 151 
f 130 106 151 
f 122 130 151 
f 140 122 151 
f 120 140 151 
f 116 128 152 
f 135 116 152 
f 126 135 152 
f 136 126 152 
f 128 145 152 
f 145 136 152 
f 112 131 153 
f 120 139 153 
f 139 112 153 
f 109 114 154 
f 131 109 154 
f 114 140 154 
f 140 120 154 
f 153 131 154 
o convex_4
v 0.026507 -0.018038 0.012320
v 0.008651 -0.008396 0.005537
v 0.008651 -0.008396 0.010534
v 0.017222 -0.040179 0.005179
v 0.023651 -0.007682 0.003393
v 0.029720 -0.040179 0.012679
v 0.029720 -0.040179 0.003393
v 0.019365 -0.040179 0.012679
v 0.023294 -0.007321 0.012679
v 0.010439 -0.007321 0.003393
v 0.030433 -0.026960 0.005537
v 0.010796 -0.007321 0.012679
v 0.019008 -0.040179 0.003393
v 0.025793 -0.008039 0.010534
v 0.031865 -0.038747 0.010534
v 0.016865 -0.039104 0.010534
v 0.025437 -0.007321 0.005179
v 0.030433 -0.026960 0.010534
v 0.031865 -0.040179 0.005537
v 0.028650 -0.028034 0.003393
v 0.028650 -0.029462 0.012679
v 0.008651 -0.007682 0.010893
v 0.016865 -0.039461 0.005537
v 0.027934 -0.016253 0.005537
v 0.008651 -0.008039 0.005179
v 0.030433 -0.027317 0.005179
v 0.017222 -0.039818 0.010893
v 0.010796 -0.008396 0.012679
v 0.031506 -0.036602 0.005179
v 0.027934 -0.016253 0.010534
v 0.031865 -0.040179 0.010534
v 0.008651 -0.007321 0.005179
f 179 176 186 
f 160 158 161 
f 158 160 162 
f 162 160 163 
f 159 161 164 
f 162 163 166 
f 163 164 166 
f 161 158 167 
f 164 161 167 
f 163 155 168 
f 159 164 171 
f 164 163 171 
f 163 168 171 
f 169 165 172 
f 160 161 173 
f 161 159 174 
f 163 160 175 
f 155 163 175 
f 160 169 175 
f 172 155 175 
f 169 172 175 
f 156 157 176 
f 157 156 177 
f 170 157 177 
f 171 168 178 
f 172 165 178 
f 167 158 179 
f 164 167 179 
f 156 176 179 
f 177 156 179 
f 158 177 179 
f 159 171 180 
f 174 159 180 
f 171 178 180 
f 178 165 180 
f 158 162 181 
f 157 170 181 
f 176 157 181 
f 177 158 181 
f 170 177 181 
f 162 166 182 
f 166 176 182 
f 181 162 182 
f 176 181 182 
f 165 169 183 
f 173 161 183 
f 169 173 183 
f 161 174 183 
f 180 165 183 
f 174 180 183 
f 168 155 184 
f 155 172 184 
f 178 168 184 
f 172 178 184 
f 169 160 185 
f 160 173 185 
f 173 169 185 
f 166 164 186 
f 176 166 186 
f 164 179 186 
o convex_5
v 0.013293 0.062317 0.009820
v 0.000436 0.026254 0.004465
v 0.000436 0.026254 0.011606
v 0.000795 0.090179 0.011606
v 0.004366 0.090179 0.004107
v 0.013293 0.025179 0.004107
v 0.013649 0.025179 0.011606
v 0.000436 0.083746 0.004107
v 0.014365 0.056966 0.005894
v 0.004366 0.090179 0.011606
v 0.014365 0.046258 0.011606
v 0.014365 0.045182 0.004107
v 0.002580 0.025179 0.004107
v 0.014365 0.025179 0.005180
v 0.000795 0.090179 0.004107
v 0.000436 0.083746 0.011606
v 0.014365 0.059104 0.006251
v 0.002580 0.025179 0.011606
v 0.014365 0.025179 0.010892
v 0.014365 0.059104 0.009464
v 0.006509 0.083740 0.011249
v 0.000436 0.037325 0.004107
v 0.006152 0.084815 0.004465
v 0.005795 0.085171 0.011606
f 187 207 210 
f 190 189 193 
f 188 189 194 
f 191 192 194 
f 191 190 196 
f 190 193 196 
f 196 193 197 
f 195 197 198 
f 192 191 198 
f 189 188 199 
f 192 193 199 
f 194 192 199 
f 193 192 200 
f 198 197 200 
f 192 198 200 
f 190 191 201 
f 194 190 201 
f 191 194 201 
f 189 190 202 
f 194 189 202 
f 190 194 202 
f 197 195 203 
f 193 189 204 
f 189 199 204 
f 199 193 204 
f 197 193 205 
f 193 200 205 
f 200 197 205 
f 187 197 206 
f 197 203 206 
f 206 203 207 
f 187 206 207 
f 188 194 208 
f 199 188 208 
f 194 199 208 
f 191 196 209 
f 195 198 209 
f 198 191 209 
f 203 195 209 
f 207 203 209 
f 196 207 209 
f 196 197 210 
f 197 187 210 
f 207 196 210 
o convex_6
v -0.024206 -0.008036 0.011963
v -0.003849 0.005893 0.011249
v -0.003849 0.005893 0.004466
v -0.023490 0.005893 0.010535
v -0.010637 -0.008036 0.003394
v -0.020632 0.005893 0.002679
v -0.025635 -0.008036 0.005179
v -0.008494 -0.008036 0.010535
v -0.006351 0.005893 0.013035
v -0.020990 0.005893 0.013035
v -0.010995 -0.008036 0.012677
v -0.006709 0.005893 0.002679
v -0.023490 -0.008036 0.003394
v -0.023490 0.005893 0.005179
v -0.008494 -0.008036 0.005537
v -0.025635 -0.007321 0.010535
v -0.023131 -0.008036 0.012677
v -0.010279 -0.006248 0.003037
v -0.008850 -0.001605 0.013035
v -0.003849 0.005536 0.004466
v -0.007779 0.001964 0.002679
v -0.022061 -0.003391 0.003037
v -0.021349 0.000892 0.013035
v -0.003849 0.005536 0.011249
v -0.021349 0.005536 0.003037
v -0.010279 -0.008036 0.012320
f 234 229 236 
f 212 213 214 
f 214 213 216 
f 215 211 217 
f 211 215 218 
f 212 214 219 
f 219 214 220 
f 211 218 221 
f 216 213 222 
f 215 217 223 
f 214 216 224 
f 218 215 225 
f 217 211 226 
f 211 220 226 
f 220 214 226 
f 214 224 226 
f 224 217 226 
f 220 211 227 
f 211 221 227 
f 215 223 228 
f 219 220 229 
f 227 221 229 
f 213 212 230 
f 222 213 230 
f 225 215 230 
f 218 225 230 
f 215 228 230 
f 230 228 231 
f 216 222 231 
f 222 230 231 
f 223 216 232 
f 228 223 232 
f 231 228 232 
f 216 231 232 
f 220 227 233 
f 229 220 233 
f 227 229 233 
f 212 219 234 
f 219 229 234 
f 230 212 234 
f 218 230 234 
f 216 223 235 
f 223 217 235 
f 224 216 235 
f 217 224 235 
f 221 218 236 
f 229 221 236 
f 218 234 236 
o convex_7
v 0.008295 -0.006963 0.005179
v 0.023293 0.005893 0.010892
v 0.023649 0.003750 0.010892
v 0.006154 0.005535 0.013035
v 0.006510 0.005893 0.002679
v 0.025436 -0.007321 0.005179
v 0.023293 -0.007321 0.012677
v 0.020790 0.005893 0.002679
v 0.010439 -0.007321 0.012677
v 0.010439 -0.006249 0.003037
v 0.004010 0.005893 0.011249
v 0.020790 0.005893 0.013035
v 0.023293 -0.007321 0.003394
v 0.004010 0.005535 0.004466
v 0.023649 0.004821 0.005179
v 0.008295 -0.007321 0.010535
v 0.025436 -0.006606 0.010535
v 0.010439 -0.001964 0.013035
v 0.010439 -0.007321 0.003394
v 0.021862 -0.003749 0.003037
v 0.009011 0.002320 0.002679
v 0.021506 0.000892 0.013035
v 0.004010 0.005535 0.011249
v 0.023293 0.005893 0.005179
v 0.023649 0.004821 0.010535
v 0.008295 -0.007321 0.005537
f 255 252 262 
f 241 238 244 
f 242 243 245 
f 238 241 247 
f 239 238 248 
f 243 239 248 
f 238 247 248 
f 247 240 248 
f 244 242 249 
f 242 245 249 
f 241 246 250 
f 247 241 250 
f 242 244 251 
f 249 245 252 
f 243 242 253 
f 239 243 253 
f 242 251 253 
f 240 245 254 
f 245 243 254 
f 248 240 254 
f 246 249 255 
f 237 250 255 
f 250 246 255 
f 249 252 255 
f 244 249 256 
f 249 246 256 
f 241 244 257 
f 246 241 257 
f 244 256 257 
f 256 246 257 
f 243 248 258 
f 254 243 258 
f 248 254 258 
f 245 240 259 
f 240 247 259 
f 247 250 259 
f 252 245 259 
f 250 252 259 
f 244 238 260 
f 238 251 260 
f 251 244 260 
f 238 239 261 
f 251 238 261 
f 239 253 261 
f 253 251 261 
f 250 237 262 
f 252 250 262 
f 237 255 262 
o convex_8
v -0.003137 0.014462 0.015891
v -0.024562 0.013390 -0.000177
v -0.024562 0.015535 -0.000177
v -0.024919 0.013749 0.015891
v -0.003851 0.005893 0.004109
v -0.003137 0.019821 0.002324
v -0.020990 0.005893 0.013033
v -0.025277 0.019464 0.014462
v -0.004564 0.008393 0.015891
v -0.023135 0.005893 0.004823
v -0.004209 0.008751 -0.000177
v -0.002064 0.019821 0.012319
v -0.025634 0.019464 0.001967
v -0.000992 0.012324 0.001967
v -0.026706 0.013749 0.013747
v -0.002064 0.008037 0.013747
v -0.021348 0.018748 -0.000177
v -0.005993 0.005893 0.013390
v -0.020633 0.005893 0.002681
v -0.022417 0.019107 0.015891
v -0.026706 0.013749 0.002324
v -0.003494 0.014462 -0.000177
v -0.000992 0.013749 0.014105
v -0.023847 0.019821 0.013390
v -0.003137 0.019821 0.013390
v -0.023135 0.005893 0.010891
v -0.002064 0.008037 0.002324
v -0.002064 0.019821 0.003395
v -0.022777 0.019821 0.002324
v -0.006351 0.005893 0.002324
v -0.026706 0.015535 0.013747
v -0.003851 0.005893 0.011962
v -0.023135 0.012680 0.015891
v -0.026706 0.015535 0.001967
v -0.000992 0.014105 0.002324
v -0.023847 0.019107 0.000182
v -0.005993 0.008751 -0.000177
v -0.025634 0.019464 0.014105
v -0.000992 0.012324 0.013747
v -0.003851 0.008751 0.015891
v -0.023847 0.019107 0.015891
v -0.003137 0.014105 -0.000177
f 290 297 304 
f 263 266 271 
f 267 269 272 
f 264 265 273 
f 273 265 279 
f 269 267 280 
f 271 269 280 
f 278 271 280 
f 272 264 281 
f 267 272 281 
f 266 263 282 
f 264 272 283 
f 272 277 283 
f 273 279 284 
f 279 268 284 
f 274 268 286 
f 286 282 287 
f 282 263 287 
f 263 285 287 
f 285 274 287 
f 274 286 287 
f 269 266 288 
f 272 269 288 
f 266 277 288 
f 277 272 288 
f 273 276 289 
f 278 267 289 
f 276 278 289 
f 268 274 290 
f 286 268 291 
f 275 286 291 
f 267 281 292 
f 289 267 292 
f 273 289 292 
f 277 266 293 
f 283 277 293 
f 267 278 294 
f 280 267 294 
f 278 280 294 
f 266 269 295 
f 271 266 295 
f 269 271 295 
f 265 264 296 
f 275 265 296 
f 264 283 296 
f 293 275 296 
f 283 293 296 
f 274 285 297 
f 285 276 297 
f 290 274 297 
f 265 275 298 
f 279 265 298 
f 268 279 298 
f 291 268 298 
f 275 291 298 
f 264 273 299 
f 281 264 299 
f 292 281 299 
f 273 292 299 
f 266 270 300 
f 286 275 300 
f 270 286 300 
f 293 266 300 
f 275 293 300 
f 278 276 301 
f 276 285 301 
f 301 285 302 
f 263 271 302 
f 271 278 302 
f 285 263 302 
f 278 301 302 
f 270 266 303 
f 266 282 303 
f 286 270 303 
f 282 286 303 
f 276 273 304 
f 273 284 304 
f 284 268 304 
f 268 290 304 
f 297 276 304 
o convex_9
v -0.002778 0.021965 0.013034
v -0.019562 0.019821 0.002321
v -0.022064 0.019821 0.003752
v -0.013847 0.025536 0.004466
v -0.017776 0.024820 0.013391
v -0.003136 0.019821 0.002321
v -0.019920 0.019821 0.013391
v -0.002778 0.025536 0.004466
v -0.017776 0.024820 0.002321
v -0.002778 0.025536 0.011606
v -0.002064 0.019821 0.012320
v -0.019203 0.025178 0.011962
v -0.022064 0.020179 0.012320
v -0.003136 0.022322 0.002321
v -0.003136 0.019821 0.013391
v -0.002064 0.021965 0.003394
v -0.019203 0.024820 0.003752
v -0.003136 0.022322 0.013391
v -0.013489 0.025536 0.011606
v -0.002064 0.019821 0.003394
v -0.022064 0.020179 0.003752
v -0.002064 0.021965 0.012320
f 314 322 326 
f 307 306 310 
f 307 310 311 
f 310 306 313 
f 308 312 313 
f 312 308 314 
f 311 310 315 
f 311 309 317 
f 307 311 317 
f 309 316 317 
f 310 313 318 
f 313 312 318 
f 309 311 319 
f 315 305 319 
f 311 315 319 
f 312 314 320 
f 310 318 320 
f 318 312 320 
f 308 313 321 
f 316 308 321 
f 314 309 322 
f 319 305 322 
f 309 319 322 
f 309 314 323 
f 314 308 323 
f 316 309 323 
f 308 316 323 
f 315 310 324 
f 320 315 324 
f 310 320 324 
f 306 307 325 
f 313 306 325 
f 307 317 325 
f 317 316 325 
f 321 313 325 
f 316 321 325 
f 305 315 326 
f 320 314 326 
f 315 320 326 
f 322 305 326 
o convex_10
v 0.025078 0.013390 0.015533
v 0.002940 0.013390 -0.000177
v 0.002940 0.010179 0.000539
v 0.002940 0.014105 0.015891
v 0.025435 0.019464 0.001610
v 0.023291 0.005893 0.005180
v 0.006153 0.005893 0.013390
v 0.001868 0.019821 0.011962
v 0.023649 0.019107 0.015891
v 0.003297 0.019821 0.002324
v 0.024720 0.013390 -0.000177
v 0.006510 0.005893 0.002324
v 0.020793 0.005893 0.013033
v 0.004366 0.008393 0.015891
v 0.001868 0.008751 0.013747
v 0.026864 0.014105 0.013747
v 0.000794 0.013749 0.001967
v 0.021505 0.018748 -0.000177
v 0.026864 0.014105 0.001967
v 0.024006 0.019821 0.013033
v 0.003297 0.006250 0.004109
v 0.020793 0.005893 0.002681
v 0.004366 0.008751 -0.000177
v 0.000794 0.013390 0.013747
v 0.003297 0.019821 0.013390
v 0.025792 0.019464 0.013747
v 0.023291 0.005893 0.010891
v 0.024363 0.013034 0.015891
v 0.001868 0.008751 0.001967
v 0.024006 0.019821 0.002681
v 0.001868 0.019821 0.003752
v 0.003652 0.005893 0.011605
v 0.003652 0.014462 -0.000177
v 0.024006 0.019107 0.000182
v 0.026864 0.014820 0.001967
v 0.025792 0.019464 0.001967
v 0.005795 0.008751 -0.000177
v 0.005795 0.015176 0.015891
v 0.000794 0.013034 0.001967
v 0.005438 0.008393 0.015891
v 0.022219 0.019107 0.015891
v 0.026864 0.014820 0.013747
v 0.002580 0.007322 0.013033
v 0.003652 0.005893 0.004109
f 358 347 370 
f 332 333 338 
f 333 332 339 
f 335 330 340 
f 340 330 341 
f 336 328 343 
f 337 328 344 
f 332 337 345 
f 342 332 345 
f 336 334 346 
f 337 332 348 
f 332 338 348 
f 329 328 349 
f 328 337 349 
f 330 334 350 
f 341 330 350 
f 334 343 350 
f 334 330 351 
f 346 334 351 
f 335 346 351 
f 346 335 352 
f 339 332 353 
f 342 327 353 
f 332 342 353 
f 327 335 354 
f 335 340 354 
f 353 327 354 
f 339 353 354 
f 329 349 355 
f 336 346 356 
f 346 352 356 
f 334 336 357 
f 336 343 357 
f 343 334 357 
f 338 333 358 
f 328 336 359 
f 344 328 359 
f 336 344 359 
f 344 336 360 
f 337 344 360 
f 356 331 360 
f 336 356 360 
f 345 337 361 
f 342 345 361 
f 337 360 361 
f 360 331 361 
f 331 356 362 
f 356 352 362 
f 352 361 362 
f 361 331 362 
f 337 348 363 
f 348 338 363 
f 338 349 363 
f 349 337 363 
f 330 335 364 
f 351 330 364 
f 328 329 365 
f 343 328 365 
f 341 350 365 
f 350 343 365 
f 329 355 365 
f 355 341 365 
f 333 339 366 
f 340 333 366 
f 339 354 366 
f 354 340 366 
f 335 351 367 
f 364 335 367 
f 351 364 367 
f 335 327 368 
f 327 342 368 
f 352 335 368 
f 342 361 368 
f 361 352 368 
f 333 340 369 
f 340 341 369 
f 341 355 369 
f 355 347 369 
f 358 333 369 
f 347 358 369 
f 349 338 370 
f 347 355 370 
f 355 349 370 
f 338 358 370 
o convex_11
v 0.019363 0.021607 0.013391
v 0.003294 0.019821 0.002321
v 0.001865 0.019821 0.003752
v 0.002938 0.025179 0.004108
v 0.017936 0.024463 0.002321
v 0.002938 0.025179 0.011606
v 0.021865 0.019821 0.003752
v 0.003294 0.019821 0.013391
v 0.017936 0.024821 0.013391
v 0.021865 0.019821 0.012320
v 0.019007 0.025179 0.003752
v 0.019721 0.019821 0.002321
v 0.002938 0.022322 0.013391
v 0.001865 0.021965 0.012320
v 0.003294 0.022322 0.002321
v 0.019363 0.024821 0.011962
v 0.019721 0.019821 0.013391
v 0.013649 0.025179 0.011606
v 0.001865 0.019821 0.011962
v 0.001865 0.021965 0.003752
v 0.016507 0.024821 0.002321
v 0.021865 0.020179 0.003752
f 381 386 392 
f 373 372 377 
f 373 377 378 
f 378 371 379 
f 378 377 380 
f 379 371 380 
f 374 376 381 
f 372 375 382 
f 377 372 382 
f 379 376 383 
f 378 379 383 
f 376 374 384 
f 383 376 384 
f 378 383 384 
f 372 373 385 
f 375 372 385 
f 379 380 386 
f 371 378 387 
f 380 371 387 
f 378 380 387 
f 376 379 388 
f 381 376 388 
f 379 386 388 
f 386 381 388 
f 373 378 389 
f 384 373 389 
f 378 384 389 
f 373 384 390 
f 384 374 390 
f 385 373 390 
f 374 385 390 
f 374 381 391 
f 381 375 391 
f 385 374 391 
f 375 385 391 
f 380 377 392 
f 375 381 392 
f 382 375 392 
f 377 382 392 
f 386 380 392 
