# https://github.com/mikedh/trimesh
v 0.00039771 0.08592470 0.00494878
v -0.00161945 0.05523071 0.00297318
v 0.01135481 0.03536447 0.00224881
v -0.01095784 0.01526993 0.00763784
v 0.00165974 0.09000000 0.00518112
v -0.00151756 0.03754137 0.00792393
v -0.00163944 0.06709488 0.00376724
v 0.00038071 0.07548597 0.00565804
v -0.00087734 0.01656794 0.01138482
v -0.00087734 0.01656794 0.01138482
v 0.00503461 0.03929694 0.00234365
v 0.00503461 0.03929694 0.00234365
v -0.00338300 -0.00243833 0.00363739
v -0.00338300 -0.00243833 0.00363739
v 0.01084185 0.03929414 0.00848122
v -0.00081541 0.03741978 0.01138390
v -0.00081541 0.02897008 0.01138390
v -0.00158655 0.05946375 0.00589752
v -0.00851380 0.00378548 0.01037917
v 0.01200977 0.03173779 0.00547968
v -0.00608873 0.01843047 0.00589223
v -0.00953183 0.02074892 0.00562235
v -0.00953183 0.02074892 0.00562235
v 0.00042166 0.08592469 0.00654159
v 0.00931832 0.02074892 0.01123182
v 0.00931832 0.02074892 0.01123182
v -0.00166664 0.09000000 0.00589609
v 0.01205454 0.03173779 0.00846302
v -0.01049092 0.02897009 0.01152910
v -0.00042534 0.08821812 0.00514036
v -0.00395525 0.03592466 0.01143102
v -0.00165006 0.07377355 0.00418934
v 0.00269019 0.04623040 0.00230301
v 0.00416762 0.04677984 0.00858138
v 0.00416762 0.04677984 0.00858138
v 0.00035267 0.06480411 0.00565754
v 0.01039844 0.02351513 0.00000833
v 0.00036726 0.05271615 0.00870296
v 0.00040631 0.08821812 0.00511604
v 0.00647570 0.01293299 0.00123228
v 0.00037074 0.07165760 0.00565786
v -0.00557380 0.03499247 0.00024803
v 0.00021330 0.03754137 0.00394725
v -0.00895298 0.03292286 0.00739330
v 0.00332336 0.00286419 0.00401277
v 0.00040233 0.08356703 0.00565841
v -0.00228947 0.04581519 0.00793274
v 0.00039528 0.08094570 0.00565829
v -0.00943808 0.03264086 0.00587682
v 0.00155732 0.04823053 0.00563799
v -0.00306723 0.08999999 0.00528063
v -0.01002532 0.02897009 0.00588563
v -0.01002532 0.02897009 0.00588563
v -0.00734804 0.02599411 0.01148193
v -0.00611520 0.01875482 0.00025615
v 0.00354106 0.02897008 0.00568204
v 0.00960797 0.04668540 0.00227502
v -0.00030473 0.06059620 0.00839693
v -0.00227588 0.09000000 0.00636416
v -0.00227588 0.09000000 0.00636416
v 0.00086453 0.02599411 0.00015140
v 0.00645289 0.03446200 0.00570402
v -0.00160805 0.04823054 0.00252020
v 0.00167264 0.08767125 0.00644938
v 0.00158608 0.06996308 0.00374750
v 0.00231982 0.04581519 0.00562634
v -0.00163292 0.06325537 0.00350831
v -0.00335211 0.03592350 0.00021468
v -0.00335211 0.03592350 0.00021468
v 0.00159967 0.07377355 0.00401199
v -0.00988174 0.02133998 0.01151996
v -0.00036078 0.04880703 0.00257552
v 0.00041425 0.08821810 0.00565864
v -0.01140344 0.03536447 0.00604692
v 0.01000137 0.04445113 0.00551095
v 0.01144820 0.03536447 0.00847211
v 0.00971674 0.02351513 0.01122585
v -0.00918664 0.02074892 0.00587305
v -0.00918664 0.02074892 0.00587305
v 0.00163291 0.06325537 0.00802774
v -0.00167265 0.08767125 0.00508666
v 0.00038033 0.06059622 0.00818359
v -0.00640216 0.03446200 0.00921291
v -0.00332791 0.01708936 0.00585080
v -0.00367414 0.01730476 0.00021952
v -0.00367414 0.01730476 0.00021952
v -0.00900233 0.01385746 0.01000116
v -0.00156520 0.05115048 0.00589792
v 0.00227587 0.09000000 0.00517187
v 0.00227587 0.09000000 0.00517187
v 0.00022836 0.04484303 0.00564836
v -0.01095367 0.02599410 0.01153604
v -0.00656740 0.01695118 0.00095198
v -0.00155733 0.04823053 0.00589805
v -0.00039528 0.08094570 0.00587775
v -0.00166876 0.08523986 0.00493214
v 0.00033165 0.06796444 0.00366313
v 0.00393568 0.02599411 0.01131260
v 0.00393568 0.02599411 0.01131260
v 0.01157677 0.02074891 0.00817102
v 0.01157677 0.02074891 0.00817102
v 0.01004612 0.04445113 0.00849316
v 0.00425181 0.04559250 0.00251695
v 0.00965661 0.04668540 0.00551632
v 0.00932855 0.01802834 0.00168956
v -0.00866210 0.04677982 0.00924683
v 0.00407040 0.02351509 0.00010329
v -0.00676880 0.02897009 0.00583676
v -0.00158288 0.04674701 0.00396865
v -0.00151647 0.05115048 0.00914346
v 0.00323369 0.08999999 0.00561643
v 0.01037833 0.02599410 0.00557943
v 0.00165006 0.07377355 0.00734670
v 0.00042533 0.08821812 0.00639568
v 0.01079709 0.03929414 0.00549856
v 0.00034192 0.06059622 0.00565734
v 0.00166663 0.09000000 0.00563994
v 0.00150620 0.04823054 0.00219295
v 0.00268044 0.03781425 0.00223599
v -0.00026124 0.04880703 0.00924333
v -0.00042167 0.08592469 0.00499444
v 0.00618522 0.04677984 0.00232638
v 0.00161415 0.06996308 0.00563900
v 0.00158654 0.05946375 0.00563851
v 0.00970137 0.04668540 0.00849833
v 0.00151756 0.03754137 0.00361211
v 0.00930639 0.02133998 0.00559552
v -0.00511629 0.03929694 0.00296889
v -0.00511629 0.03929694 0.00296889
v -0.00338168 0.00286419 0.00363738
v -0.00338168 0.00286419 0.00363738
v -0.00165975 0.09000000 0.00635491
v -0.00424948 0.01730476 0.00579895
v -0.00424948 0.01730476 0.00579895
v 0.00913244 0.01385746 0.01020504
v -0.00411641 0.02897008 0.01143343
v 0.00152542 0.04679250 0.00373943
v 0.00038742 0.06480412 0.00790204
v 0.00677269 0.02599411 0.00563354
v -0.00278831 0.04623040 0.00269523
v -0.00162676 0.05946375 0.00326367
v 0.00040831 0.08592470 0.00565853
v 0.00717588 0.02599411 0.00569317
v -0.00935839 0.03167403 0.00594129
v -0.01137530 -0.00243833 0.00764410
v -0.00403675 0.03820873 0.00295690
v 0.00394584 0.03820873 0.00252154
v 0.00029107 0.05709716 0.00287335
v 0.00039852 0.07165760 0.00746092
v -0.00664041 0.04451959 0.00299176
v 0.00036121 0.06796444 0.00565769
v -0.00165595 0.07753300 0.00442329
v 0.00434272 0.04559250 0.00857455
v 0.00332468 -0.00243833 0.00401275
v -0.00166475 0.08284237 0.00477267
v 0.00699264 0.02351511 0.00005944
v 0.00287449 0.01255492 0.00790628
v 0.00287449 0.01255492 0.00790628
v -0.00234874 0.04581519 0.00398292
v -0.00022711 0.03877877 0.00597076
v -0.00324266 0.08999999 0.00532231
v 0.00671606 0.03458353 0.00006359
v -0.00634451 0.03929693 0.00921205
v -0.00035903 0.07548597 0.00734030
v -0.00370563 0.02897008 0.00021999
v -0.00370563 0.02897008 0.00021999
v 0.00991557 0.02897009 0.00558638
v -0.00086792 0.02351509 0.01138468
v 0.00993373 0.03167403 0.00001530
v 0.00161287 0.05115048 0.00882416
v -0.00367901 0.02599411 0.00585606
v 0.00999815 0.03226825 0.00226916
v -0.00164369 0.06996308 0.00393637
v 0.00655280 -0.00243833 0.01058427
v -0.00164792 0.08284236 0.00589643
v 0.00525461 0.04451959 0.00234035
v 0.00525461 0.04451959 0.00234035
v 0.00422340 0.01730475 0.00399927
v -0.01039046 0.00448670 0.00374255
v -0.01039046 0.00448670 0.00374255
v -0.00600170 0.01875482 0.00781926
v 0.00387543 0.03592349 0.00236105
v 0.00387543 0.03592349 0.00236105
v 0.00532301 0.04451959 0.00856404
v 0.00532301 0.04451959 0.00856404
v -0.00532302 0.04451959 0.00297200
v -0.00532302 0.04451959 0.00297200
v 0.00228275 0.09000000 0.00563070
v 0.00228275 0.09000000 0.00563070
v -0.00387544 0.03592349 0.00917499
v -0.00387544 0.03592349 0.00917499
v 0.00038821 0.07831603 0.00565817
v -0.00030200 0.01656794 0.00580539
v 0.01039046 0.00448670 0.00779349
v 0.01039046 0.00448670 0.00779349
v -0.00422340 0.01730475 0.00753677
v -0.00655281 -0.00243833 0.00095177
v 0.00165115 0.08767125 0.00501388
v 0.00164369 0.06996308 0.00759967
v 0.00261919 0.09000000 0.00516672
v -0.00999815 0.03226825 0.00926688
v -0.00934549 -0.00243833 0.00070102
v -0.00993373 0.03167403 0.01152073
v 0.00086792 0.02351509 0.00015135
v -0.00991557 0.02897009 0.00594966
v -0.00155392 0.04680765 0.00589812
v 0.00370562 0.02897008 0.01131605
v 0.00370562 0.02897008 0.01131605
v 0.00634451 0.03929693 0.00232400
v 0.00022711 0.03877877 0.00556528
v 0.00603161 0.01875482 0.00571034
v 0.00234874 0.04581519 0.00755312
v 0.00163340 0.08284236 0.00466849
v -0.00332469 -0.00243833 0.00752329
v -0.00434272 0.04559250 0.00296149
v -0.00037456 0.05709716 0.00312281
v 0.00614071 0.03458353 0.00564303
v -0.00036122 0.06796444 0.00587836
v 0.00664040 0.04451959 0.00854428
v 0.00637054 0.02351510 0.01127606
v -0.00029107 0.05709716 0.00866269
v -0.00394585 0.03820873 0.00901450
v 0.00403675 0.03820873 0.00857914
v 0.00027518 0.05271819 0.00256419
v 0.01137530 -0.00243833 0.00389194
v 0.00153199 0.05523071 0.00269488
v 0.00162676 0.05946375 0.00827237
v 0.00278830 0.04623040 0.00884081
v -0.00677270 0.02599411 0.00590249
v -0.00038742 0.06480412 0.00363399
v -0.00152543 0.04679250 0.00779660
v 0.00411641 0.02897008 0.00010260
v -0.00913245 0.01385746 0.00133100
v 0.00424948 0.01730476 0.00573709
v 0.00424948 0.01730476 0.00573709
v 0.00338167 0.00286419 0.00789867
v 0.00338167 0.00286419 0.00789867
v 0.00919638 -0.00243833 0.00089879
v 0.00511628 0.03929694 0.00856715
v 0.00511628 0.03929694 0.00856715
v -0.00648476 0.02897008 0.00589817
v -0.00930639 0.02133998 0.00594051
v 0.01003026 0.02897009 0.01122114
v -0.00641247 -0.00243833 0.01030282
v -0.00038884 0.08356701 0.00676001
v -0.00157551 0.05523071 0.00589772
v 0.00909157 0.03929693 0.00228277
v -0.00970137 0.04668540 0.00303771
v -0.00161415 0.06996308 0.00589703
v -0.00618523 0.04677984 0.00920966
v 0.00026124 0.04880703 0.00229271
v -0.00268044 0.03781425 0.00930004
v -0.00150621 0.04823054 0.00934308
v 0.00038883 0.08356701 0.00477602
v -0.00034192 0.06059622 0.00587870
v -0.01079709 0.03929414 0.00603748
v -0.00039241 0.06796442 0.00383232
v -0.00869785 0.02351512 0.00029490
v 0.00660190 0.02599411 0.01127259
v -0.01037833 0.02599410 0.00595660
v -0.00323369 0.08999999 0.00591961
v 0.00151646 0.05115048 0.00239258
v 0.00158287 0.04674701 0.00756738
v 0.00676880 0.02897009 0.00569928
v 0.00995273 0.04445113 0.00226985
v -0.00407041 0.02351509 0.01143275
v 0.00866209 0.04677982 0.00228921
v -0.00932855 0.01802834 0.00984648
v -0.00965662 0.04668540 0.00601972
v 0.00160616 0.06709487 0.00563888
v -0.00425182 0.04559250 0.00901909
v -0.01004612 0.04445113 0.00304288
v -0.01157678 0.02074891 0.00336502
v -0.01157678 0.02074891 0.00336502
v -0.00393569 0.02599411 0.00022344
v -0.00393569 0.02599411 0.00022344
v -0.00322757 0.08999999 0.00632807
v -0.00033166 0.06796444 0.00787291
v -0.00982311 0.02351513 0.00594827
v 0.00166875 0.08523986 0.00660390
v -0.00619569 0.02897009 0.00025736
v 0.00623087 0.04677984 0.00855042
v 0.00656740 0.01695118 0.01058405
v 0.00154762 0.05946375 0.00299910
v 0.01095367 0.02599410 0.00000000
v -0.00037950 0.08094570 0.00694179
v -0.00706010 0.02897008 0.01147761
v -0.00022836 0.04484303 0.00588768
v 0.00666406 0.01843047 0.00006437
v 0.00156519 0.05115048 0.00563812
v 0.00900233 0.01385746 0.00153488
v 0.00367414 0.01730476 0.01131653
v 0.00367414 0.01730476 0.01131653
v 0.00332791 0.01708936 0.00568524
v 0.00640216 0.03446200 0.00232313
v -0.00038034 0.06059622 0.00335245
v 0.00164205 0.08523984 0.00483673
v 0.00918664 0.02074892 0.00566299
v 0.00918664 0.02074892 0.00566299
v -0.00971674 0.02351513 0.00031020
v -0.01144821 0.03536447 0.00306393
v -0.01000137 0.04445113 0.00602508
v 0.00641376 0.03929693 0.00854768
v 0.01140344 0.03536447 0.00548912
v -0.00041425 0.08821810 0.00587740
v -0.00160590 0.04686830 0.00243456
v -0.00164121 0.08023600 0.00589656
v 0.00036078 0.04880703 0.00896052
v 0.00988173 0.02133998 0.00001609
v -0.00159968 0.07377355 0.00752405
v -0.00166061 0.08767125 0.00589620
v 0.00262608 0.09000000 0.00562555
v 0.00335211 0.03592350 0.01132135
v 0.00335211 0.03592350 0.01132135
v -0.00231983 0.04581519 0.00590970
v -0.00158609 0.06996308 0.00778854
v 0.00160804 0.04823054 0.00901584
v -0.00645290 0.03446200 0.00583202
v 0.00392616 0.03592350 0.00574194
v 0.00392616 0.03592350 0.00574194
v -0.00086453 0.02599411 0.01138463
v 0.00030472 0.06059620 0.00313910
v -0.00960798 0.04668540 0.00926102
v -0.00354107 0.02897008 0.00585400
v 0.00611520 0.01875482 0.01127989
v 0.00734804 0.02599411 0.00005411
v 0.01002532 0.02897009 0.00565041
v 0.01002532 0.02897009 0.00565041
v 0.00306723 0.08999999 0.00625541
v 0.00943808 0.03264086 0.00565922
v 0.00159651 0.06325538 0.00563869
v 0.00228946 0.04581519 0.00360330
v -0.00040233 0.08356703 0.00587763
v -0.00332336 0.00286419 0.00752327
v 0.00895297 0.03292286 0.00414275
v -0.00021330 0.03754137 0.00758879
v -0.00037074 0.07165760 0.00587818
v -0.00647571 0.01293299 0.01030377
v -0.00040631 0.08821812 0.00641999
v 0.00281617 0.01255492 0.00402039
v -0.00036726 0.05271615 0.00283308
v -0.01039845 0.02351513 0.01152771
v -0.00995273 0.04445113 0.00926619
v -0.00035268 0.06480411 0.00587850
v -0.00416763 0.04677984 0.00295466
v -0.00416763 0.04677984 0.00295466
v -0.00269020 0.04623040 0.00923304
v 0.00395525 0.03592466 0.00010502
v -0.00263607 0.09000000 0.00524546
v 0.01049091 0.02897009 0.00000694
v -0.01205455 0.03173779 0.00307302
v -0.00029257 0.02351509 0.00580525
v -0.00931832 0.02074892 0.00030422
v -0.00931832 0.02074892 0.00030422
v 0.00953183 0.02074892 0.00591369
v 0.00953183 0.02074892 0.00591369
v -0.00660025 0.04451959 0.00921588
v 0.00608872 0.01843047 0.00564381
v -0.01200978 0.03173779 0.00605636
v 0.00305079 0.08999999 0.00516024
v 0.00081541 0.03741978 0.00015214
v 0.00081541 0.02897008 0.00015214
v -0.01084185 0.03929414 0.00305482
v -0.00879658 0.02897009 0.00029639
v 0.00338300 -0.00243833 0.00789865
v 0.00338300 -0.00243833 0.00789865
v -0.00503461 0.03929694 0.00919239
v -0.00503461 0.03929694 0.00919239
v -0.00909157 0.03929693 0.00925327
v 0.00087734 0.01656794 0.00015121
v 0.00087734 0.01656794 0.00015121
v -0.00038071 0.07548597 0.00587800
v 0.00040924 0.07831603 0.00703507
v 0.00163943 0.06709488 0.00776880
v 0.00641247 -0.00243833 0.00123323
v 0.01095784 0.01526993 0.00389820
v -0.01135481 0.03536447 0.00928723
v 0.00161945 0.05523071 0.00856286
v -0.00039772 0.08592470 0.00658726
v -0.00918875 0.02599410 0.00030227
v -0.00040925 0.07831603 0.00450097
v -0.01033214 0.00448670 0.00762845
v 0.00425435 0.02599411 0.00010053
v 0.00034489 0.07165758 0.00392074
v 0.00162408 0.07377354 0.00563918
v 0.00879658 0.02897009 0.01123965
v 0.00381303 0.02351509 0.01131444
v 0.00381303 0.02351509 0.01131444
v -0.00305080 0.08999999 0.00637579
v 0.00824009 0.02093069 0.01124801
v -0.00618822 0.00322973 0.01029945
v -0.00641730 0.02351511 0.00589716
v 0.00660024 0.04451959 0.00232016
v 0.00197818 0.01656793 0.00403296
v -0.00637054 0.02351510 0.00025998
v 0.00945387 0.01802834 0.01004064
v 0.00029257 0.02351509 0.00573079
v 0.00835127 0.03291755 0.01124633
v 0.00263606 0.09000000 0.00629058
v 0.00337991 0.03592466 0.00568446
v -0.00877655 0.03301349 0.00924854
v -0.00978165 0.03173779 0.00031117
v -0.00041340 0.08094570 0.00466630
v 0.00278048 0.03781425 0.00890253
v 0.00632854 0.00322973 0.01058764
v -0.00150058 0.04686830 0.00945255
v -0.01040653 0.02599410 0.00589135
v -0.01040653 0.02599410 0.00589135
v -0.00032022 0.06480411 0.00809542
v -0.00281618 0.01255492 0.00751566
v 0.00409664 0.04677984 0.00235773
v 0.00409664 0.04677984 0.00235773
v -0.00931239 0.04451958 0.00925658
v -0.01101616 0.01526993 0.00375194
v -0.01101616 0.01526993 0.00375194
v -0.00918479 0.03929693 0.00302995
v -0.00229261 0.09000000 0.00524866
v -0.00229261 0.09000000 0.00524866
v -0.00694536 0.02351510 0.00583941
v -0.00438821 0.02351509 0.00580103
v -0.00438821 0.02351509 0.00580103
v -0.00159652 0.06325538 0.00589735
v 0.00024007 0.03741978 0.00573158
v 0.00024007 0.02897008 0.00573158
v -0.01196116 0.03173779 0.00929633
v 0.00156146 0.06325537 0.00326824
v 0.01143361 -0.00243833 0.00777784
v 0.01143361 -0.00243833 0.00777784
v 0.01036683 0.02599410 0.01121609
v 0.00600170 0.01875482 0.00371678
v -0.00392617 0.03592350 0.00579410
v -0.00392617 0.03592350 0.00579410
v 0.00210069 0.03811358 0.00755407
v -0.01074846 0.03929414 0.00927814
v -0.00262609 0.09000000 0.00591049
v 0.00166045 0.08023600 0.00693392
v -0.00040481 0.07548597 0.00432470
v 0.00032172 0.05271756 0.00565697
v 0.00164121 0.08023600 0.00563948
v -0.00204142 0.03811358 0.00793179
v 0.00160589 0.04686830 0.00910148
v -0.00411654 0.04823054 0.00255910
v -0.00411654 0.04823054 0.00255910
v -0.00886147 0.02070131 0.00783415
v -0.00641376 0.03929693 0.00298836
v 0.00166061 0.08767125 0.00563984
v -0.01139756 0.02074891 0.00764444
v 0.00022711 0.04484303 0.00556528
v -0.00164206 0.08523984 0.00669930
v 0.00875466 0.04677982 0.00851254
v -0.00699264 0.02351511 0.01147660
v -0.00666407 0.01843047 0.01147167
v -0.00920828 0.02074892 0.00761158
v 0.00022836 0.03877877 0.00564836
v -0.00349506 0.02351509 0.00585330
v 0.00706010 0.02897008 0.00005843
v 0.00041780 0.08356701 0.00669513
v -0.00613263 0.04823053 0.00245748
v -0.00033311 0.05709716 0.00587887
v 0.00037004 0.07831603 0.00441022
v -0.00154763 0.05946375 0.00853694
v -0.00940487 0.04451958 0.00303325
v -0.00163369 0.07753300 0.00589667
v -0.00623088 0.04677984 0.00298562
v 0.00619569 0.02897009 0.01127868
v 0.00661603 0.01293299 0.01058333
v 0.00982310 0.02351513 0.00558777
v 0.00037949 0.08094570 0.00459425
v 0.00322756 0.08999999 0.00520796
v -0.00160617 0.06709487 0.00589717
v 0.00305768 0.08999999 0.00561907
v -0.00717588 0.02599411 0.00584287
v -0.00984495 0.02351513 0.00588293
v -0.00984495 0.02351513 0.00588293
v 0.00161432 0.07753300 0.00429714
v -0.00451063 0.02599411 0.00580287
v -0.00451063 0.02599411 0.00580287
v 0.00149261 0.03741978 0.00194929
v -0.00428031 0.02897008 0.00579942
v -0.00428031 0.02897008 0.00579942
v 0.00642707 0.01695118 0.00123301
v -0.00165426 0.08523986 0.00589631
v 0.00390325 0.01708936 0.00010581
v 0.00157593 0.06709488 0.00354995
v -0.00031115 0.04880703 0.00587925
v -0.00660191 0.02599411 0.00026345
v 0.00869784 0.02351512 0.01124114
v 0.00039241 0.06796442 0.00770372
v 0.00028919 0.02599411 0.00573084
v 0.00162385 0.08023599 0.00448247
v -0.00865548 0.00378548 0.00093850
v -0.00167649 0.09000000 0.00523942
v 0.00167649 0.09000000 0.00629663
v 0.00865547 0.00378548 0.01059754
v -0.00162385 0.08023599 0.00705356
v -0.00028919 0.02599411 0.00580520
v 0.00157550 0.05523071 0.00563832
v -0.01003027 0.02897009 0.00031490
v 0.00648476 0.02897008 0.00563787
v 0.00031114 0.04880703 0.00565679
v -0.00157594 0.06709488 0.00798609
v -0.00919638 -0.00243833 0.01063725
v -0.00390326 0.01708936 0.01143024
v 0.00165426 0.08523986 0.00563973
v -0.00642708 0.01695118 0.01030304
v 0.00428030 0.02897008 0.00573662
v 0.00428030 0.02897008 0.00573662
v -0.00149261 0.03741978 0.00958675
v 0.00451062 0.02599411 0.00573317
v 0.00451062 0.02599411 0.00573317
v -0.00161433 0.07753300 0.00723890
v 0.00984495 0.02351513 0.00565311
v 0.00984495 0.02351513 0.00565311
v -0.00305768 0.08999999 0.00591697
v -0.00153200 0.05523071 0.00884116
v -0.00027519 0.05271819 0.00897185
v -0.00661604 0.01293299 0.00095271
v 0.00163369 0.07753300 0.00563936
v 0.00940486 0.04451958 0.00850279
v -0.00037005 0.07831603 0.00712582
v 0.00033310 0.05709716 0.00565717
v 0.00613263 0.04823053 0.00907856
v -0.00041780 0.08356701 0.00484090
v -0.00614072 0.03458353 0.00589301
v 0.00037455 0.05709716 0.00841323
v 0.00349506 0.02351509 0.00568273
v -0.00022836 0.03877877 0.00588768
v 0.00920828 0.02074892 0.00392446
v -0.00163341 0.08284236 0.00686756
v -0.00875467 0.04677982 0.00302349
v -0.00603162 0.01875482 0.00582570
v -0.00022712 0.04484303 0.00597076
v 0.01139756 0.02074891 0.00389160
v 0.00155392 0.04680765 0.00563792
v 0.00886147 0.02070131 0.00370189
v 0.00411653 0.04823054 0.00897694
v 0.00411653 0.04823054 0.00897694
v 0.00934549 -0.00243833 0.01083502
v 0.00204142 0.03811358 0.00360425
v -0.00261920 0.09000000 0.00636931
v -0.00032172 0.05271756 0.00587907
v -0.00165116 0.08767125 0.00652216
v 0.00040480 0.07548597 0.00721133
v -0.00166045 0.08023600 0.00460212
v 0.01074846 0.03929414 0.00225791
v -0.00210070 0.03811358 0.00398198
v 0.00030199 0.01656794 0.00573065
v -0.00038822 0.07831603 0.00587787
v -0.01036683 0.02599410 0.00031995
v -0.00228276 0.09000000 0.00590534
v -0.00228276 0.09000000 0.00590534
v -0.01143362 -0.00243833 0.00375821
v -0.01143362 -0.00243833 0.00375821
v -0.00156146 0.06325537 0.00826780
v 0.01196115 0.03173779 0.00223971
v -0.00024007 0.03741978 0.00580446
v -0.00024007 0.02897008 0.00580446
v -0.00525462 0.04451959 0.00919569
v -0.00525462 0.04451959 0.00919569
v 0.00438821 0.02351509 0.00573500
v 0.00438821 0.02351509 0.00573500
v 0.00694536 0.02351510 0.00569663
v 0.00164791 0.08284236 0.00563961
v 0.00229261 0.09000000 0.00628738
v 0.00229261 0.09000000 0.00628738
v 0.00918479 0.03929693 0.00850609
v 0.01101616 0.01526993 0.00778410
v 0.01101616 0.01526993 0.00778410
v 0.00931239 0.04451958 0.00227946
v 0.00557380 0.03499247 0.01128801
v 0.00367901 0.02599411 0.00567997
v -0.00409665 0.04677984 0.00917832
v -0.00409665 0.04677984 0.00917832
v 0.00032022 0.06480411 0.00344062
v -0.00161288 0.05115048 0.00271188
v 0.01040653 0.02599410 0.00564469
v 0.01040653 0.02599410 0.00564469
v 0.00035902 0.07548597 0.00419574
v -0.00671606 0.03458353 0.01147245
v 0.00324265 0.08999999 0.00621373
v 0.00150058 0.04686830 0.00208348
v -0.00632855 0.00322973 0.00094840
v -0.00278048 0.03781425 0.00263351
v 0.00041340 0.08094570 0.00686974
v -0.00287450 0.01255492 0.00362976
v -0.00287450 0.01255492 0.00362976
v 0.00978164 0.03173779 0.01122487
v 0.00166474 0.08284237 0.00676336
v 0.00877654 0.03301349 0.00228750
v -0.00337991 0.03592466 0.00585158
v -0.00835127 0.03291755 0.00028971
v -0.00945387 0.01802834 0.00149540
v 0.00165594 0.07753300 0.00711275
v -0.00197818 0.01656793 0.00750308
v -0.00039853 0.07165760 0.00407512
v 0.00641729 0.02351511 0.00563888
v 0.00618822 0.00322973 0.00123659
v -0.00824009 0.02093069 0.00028804
v 0.00851380 0.00378548 0.00115688
v -0.00381303 0.02351509 0.00022160
v -0.00381303 0.02351509 0.00022160
v -0.00162409 0.07377354 0.00589686
v 0.00935838 0.03167403 0.00559474
v -0.00034489 0.07165758 0.00761530
v -0.00425436 0.02599411 0.01143551
v 0.01033214 0.00448670 0.00390759
v -0.00040832 0.08592470 0.00587751
v 0.00918875 0.02599410 0.01123377
v -0.00338300 -0.00243833 0.00363739
v -0.00338300 -0.00243833 0.00363739
v -0.02170918 -0.06771274 0.00391241
v -0.02170918 -0.06771274 0.00391241
v -0.01868244 -0.08160051 0.00386699
v -0.01868244 -0.08160051 0.00386699
v -0.01677720 -0.08091080 0.01080848
v 0.01837864 -0.03223201 0.00065630
v 0.02017733 -0.04447029 0.01077826
v -0.00982989 -0.02385270 0.00762091
v 0.01245391 -0.01094800 0.01083485
v 0.01945801 -0.06760130 0.00064275
v -0.01047061 -0.08603284 0.00374376
v -0.01047061 -0.08603284 0.00374376
v -0.02050926 -0.03191932 0.00389441
v -0.02050926 -0.03191932 0.00389441
v 0.01246293 -0.08692980 0.00114243
v 0.01361179 -0.06729227 0.00774515
v 0.01361179 -0.06729227 0.00774515
v 0.00651914 -0.01286964 0.00396481
v -0.01845587 -0.02181124 0.00386359
v -0.01845587 -0.02181124 0.00386359
v -0.01579426 -0.08834080 0.00771042
v -0.02066654 -0.05637954 0.00076825
v 0.01280857 -0.03309923 0.00387043
v 0.01442918 -0.08000943 0.00111293
v 0.01448887 -0.09000000 0.00702615
v 0.01448887 -0.09000000 0.00702615
v -0.01557755 -0.08554694 0.00091022
v -0.01415369 -0.04492634 0.00379903
v -0.01415369 -0.04492634 0.00379903
v -0.01432763 -0.08772916 0.01037639
v -0.01246294 -0.08692980 0.01039362
v -0.01457910 -0.05639784 0.00380541
v -0.01457910 -0.05639784 0.00380541
v 0.01573770 -0.03264067 0.00109329
v 0.01409537 -0.04492634 0.00385112
v -0.01182953 -0.07899797 0.00765092
v 0.01311862 -0.02305931 0.00113259
v 0.01853089 -0.03223201 0.01080187
v -0.01767383 -0.05638816 0.01047182
v 0.00982989 -0.02385270 0.00391513
v 0.01188784 -0.07899797 0.00777102
v 0.01188784 -0.07899797 0.00777102
v 0.01735498 -0.04468520 0.01042217
v -0.01286689 -0.03309923 0.00377972
v -0.01286689 -0.03309923 0.00377972
v -0.01623239 -0.02235225 0.00069271
v 0.01839755 -0.02181124 0.00378656
v -0.00657746 -0.01286964 0.00368533
v -0.00657746 -0.01286964 0.00368533
v -0.02002505 -0.04447028 0.01090555
v -0.01451006 -0.01025512 0.00380437
v -0.01451006 -0.01025512 0.00380437
v 0.01446661 -0.08772916 0.01042031
v 0.01543191 -0.08554694 0.00092090
v 0.01323392 -0.08472504 0.00113086
v 0.01041229 -0.08603284 0.00390640
v -0.01137530 -0.00243833 0.00764410
v -0.01355348 -0.06729226 0.00767679
v 0.02165086 -0.06771273 0.00373774
v 0.00956107 -0.01185354 0.00118598
v 0.00332468 -0.00243833 0.00401275
v 0.00655280 -0.00243833 0.01058427
v -0.02279763 -0.05637293 0.00392875
v -0.02279763 -0.05637293 0.00392875
v 0.01337425 -0.08472504 0.01048191
v 0.01086387 -0.08380277 0.00778639
v 0.01086387 -0.08380277 0.00778639
v 0.01376052 -0.09000000 0.00835477
v 0.01302794 -0.08999999 0.00283249
v 0.01302794 -0.08999999 0.00283249
v -0.02228534 -0.04430585 0.00392106
v -0.02228534 -0.04430585 0.00392106
v 0.01230340 -0.01094800 0.00080570
v -0.01445174 -0.09000000 0.00698443
v -0.01445174 -0.09000000 0.00698443
v 0.00970140 -0.01185354 0.01053702
v 0.01679977 -0.06745568 0.01043050
v -0.00655281 -0.00243833 0.00095177
v -0.00934549 -0.00243833 0.00070102
v 0.01311730 -0.08999999 0.00878723
v -0.01368385 -0.09000000 0.00829059
v -0.01368385 -0.09000000 0.00829059
v -0.02051435 -0.05637953 0.01090977
v -0.00332469 -0.00243833 0.00752329
v -0.02017732 -0.04447029 0.00075778
v -0.01665944 -0.06745567 0.01045659
v -0.00956107 -0.01185354 0.01035007
v 0.01961019 -0.06760130 0.01078304
v -0.01862412 -0.08160051 0.00775289
v -0.01585258 -0.08834080 0.00382453
v -0.01585258 -0.08834080 0.00382453
v 0.02222703 -0.04430585 0.00372909
v 0.02273931 -0.05637293 0.00372141
v 0.01137530 -0.00243833 0.00389194
v -0.01041230 -0.08603284 0.00762965
v 0.00919638 -0.00243833 0.00089879
v -0.00641247 -0.00243833 0.01030282
v 0.00657746 -0.01286964 0.00785071
v 0.00657746 -0.01286964 0.00785071
v -0.01607993 -0.02235225 0.01085222
v -0.01839755 -0.02181124 0.00774949
v -0.01080555 -0.08380277 0.00763556
v 0.01286689 -0.03309923 0.00775633
v 0.01286689 -0.03309923 0.00775633
v -0.01853089 -0.03223201 0.00073417
v -0.01311863 -0.02305931 0.01040346
v 0.01216555 -0.08999999 0.00458592
v 0.01216555 -0.08999999 0.00458592
v -0.01260327 -0.08692980 0.00104256
v -0.01409537 -0.04492634 0.00768493
v 0.01445174 -0.01025512 0.00384577
v 0.01457909 -0.05639784 0.00773063
v 0.01457909 -0.05639784 0.00773063
v -0.01781415 -0.05638816 0.00112076
v -0.01452078 -0.05639784 0.00769131
v 0.01415368 -0.04492634 0.00773702
v 0.01415368 -0.04492634 0.00773702
v -0.01692803 -0.08091080 0.00075735
v -0.01721466 -0.04468519 0.01046493
v 0.01715944 -0.08617583 0.00380514
v 0.01721466 -0.04468519 0.00107112
v -0.01280858 -0.03309923 0.00766561
v 0.01452078 -0.05639784 0.00384474
v 0.01845587 -0.02181124 0.00767245
v 0.01845587 -0.02181124 0.00767245
v 0.01781415 -0.05638816 0.01041528
v -0.00651915 -0.01286964 0.00757123
v -0.01445174 -0.01025512 0.00769027
v 0.01260327 -0.08692980 0.01049348
v -0.01216555 -0.08999999 0.00695013
v -0.01216555 -0.08999999 0.00695013
v 0.02050925 -0.03191932 0.00764164
v 0.02050925 -0.03191932 0.00764164
v 0.01047061 -0.08603284 0.00779229
v 0.01047061 -0.08603284 0.00779229
v -0.01945802 -0.06760130 0.01089330
v -0.01721775 -0.08617583 0.00384501
v -0.01721775 -0.08617583 0.00384501
v -0.01837864 -0.03223201 0.01087974
v 0.01080555 -0.08380277 0.00390049
v 0.02170917 -0.06771274 0.00762363
v 0.02170917 -0.06771274 0.00762363
v 0.00338300 -0.00243833 0.00789865
v 0.00338300 -0.00243833 0.00789865
v 0.01607993 -0.02235225 0.00068383
v 0.00641247 -0.00243833 0.00123323
v -0.02273931 -0.05637293 0.00781464
v -0.02222703 -0.04430585 0.00780695
v 0.01585258 -0.08834080 0.00771152
v 0.01585258 -0.08834080 0.00771152
v 0.01862412 -0.08160051 0.00378316
v -0.01961019 -0.06760130 0.00075300
v 0.01665944 -0.06745567 0.00107946
v 0.02051435 -0.05637953 0.00062628
v 0.01368385 -0.09000000 0.00324545
v 0.01368385 -0.09000000 0.00324545
v -0.01311730 -0.08999999 0.00274882
v -0.01679977 -0.06745568 0.00110554
v -0.00970140 -0.01185354 0.00099902
v 0.01445174 -0.09000000 0.00455161
v 0.01445174 -0.09000000 0.00455161
v -0.01230340 -0.01094800 0.01073035
v 0.02228534 -0.04430585 0.00761499
v 0.02228534 -0.04430585 0.00761499
v -0.01302794 -0.08999999 0.00870356
v -0.01302794 -0.08999999 0.00870356
v 0.01143361 -0.00243833 0.00777784
v 0.01143361 -0.00243833 0.00777784
v -0.01376052 -0.09000000 0.00318128
v -0.01086387 -0.08380277 0.00374966
v -0.01086387 -0.08380277 0.00374966
v -0.01337425 -0.08472504 0.00105414
v 0.02279763 -0.05637293 0.00760730
v 0.02279763 -0.05637293 0.00760730
v -0.00988821 -0.02385270 0.00373502
v -0.00988821 -0.02385270 0.00373502
v -0.01220269 -0.08999999 0.00447559
v -0.01220269 -0.08999999 0.00447559
v -0.02165086 -0.06771273 0.00779831
v 0.01355348 -0.06729226 0.00385925
v -0.01325895 -0.02305931 0.00105240
v -0.01587803 -0.03264067 0.00109171
v -0.01323392 -0.08472504 0.01040519
v -0.01543191 -0.08554694 0.01061515
v -0.01446661 -0.08772916 0.00111574
v -0.02045094 -0.03191932 0.00778030
v 0.01451006 -0.01025512 0.00773167
v 0.01451006 -0.01025512 0.00773167
v 0.02002505 -0.04447028 0.00063050
v 0.01456950 -0.08000943 0.01046397
v 0.01623239 -0.02235225 0.01084334
v -0.01456951 -0.08000943 0.00107207
v -0.01735498 -0.04468520 0.00111387
v 0.01721775 -0.08617583 0.00769104
v 0.01721775 -0.08617583 0.00769104
v -0.00919638 -0.00243833 0.01063725
v -0.01188784 -0.07899797 0.00376503
v -0.01188784 -0.07899797 0.00376503
v 0.02045093 -0.03191932 0.00375575
v 0.01587803 -0.03264067 0.01044434
v 0.01767383 -0.05638816 0.00106423
v 0.01182953 -0.07899797 0.00388513
v 0.01325895 -0.02305931 0.01048364
v -0.01573770 -0.03264067 0.01044276
v 0.01432763 -0.08772916 0.00115966
v 0.01220268 -0.08999999 0.00706046
v 0.01220268 -0.08999999 0.00706046
v 0.01557755 -0.08554694 0.01062582
v -0.01448887 -0.09000000 0.00450990
v -0.01448887 -0.09000000 0.00450990
v 0.00934549 -0.00243833 0.01083502
v 0.00988821 -0.02385270 0.00780103
v 0.00988821 -0.02385270 0.00780103
v -0.01442918 -0.08000943 0.01042312
v -0.01715943 -0.08617583 0.00773091
v 0.01692804 -0.08091080 0.01077870
v -0.01143362 -0.00243833 0.00375821
v -0.01143362 -0.00243833 0.00375821
v 0.02066654 -0.05637954 0.01076780
v 0.01579426 -0.08834080 0.00382563
v -0.01361179 -0.06729227 0.00379090
v -0.01361179 -0.06729227 0.00379090
v -0.01245391 -0.01094800 0.00070120
v 0.01677720 -0.08091080 0.00072756
v 0.01868244 -0.08160051 0.00766906
v 0.01868244 -0.08160051 0.00766906
f 261 514 51
f 261 51 161
f 553 145 382
f 553 382 180
f 179 491 202
f 179 202 552
f 214 13 130
f 214 130 334
f 145 502 19
f 145 19 382
f 435 551 418
f 435 418 349
f 197 582 131
f 197 131 14
f 334 391 244
f 334 244 214
f 514 435 349
f 514 349 51
f 202 491 582
f 202 582 197
f 19 502 244
f 19 244 391
f 353 598 592
f 353 592 273
f 93 592 598
f 93 598 55
f 371 93 55
f 371 55 86
f 550 27 492
f 550 492 417
f 181 505 594
f 181 594 196
f 444 268 505
f 444 505 181
f 447 268 444
f 447 444 453
f 268 87 338
f 268 338 505
f 4 87 268
f 4 268 447
f 415 4 447
f 415 447 274
f 273 592 233
f 273 233 414
f 517 233 592
f 517 592 93
f 586 517 93
f 586 93 371
f 505 338 410
f 505 410 594
f 87 19 391
f 87 391 338
f 382 19 87
f 382 87 4
f 180 382 4
f 180 4 415
f 414 233 491
f 414 491 179
f 582 491 233
f 582 233 517
f 131 582 517
f 131 517 586
f 334 130 585
f 334 585 410
f 410 338 391
f 410 391 334
f 453 444 78
f 453 78 23
f 444 181 531
f 444 531 78
f 181 196 134
f 181 134 531
f 594 547 133
f 594 133 196
f 598 353 300
f 598 300 258
f 353 78 473
f 353 473 300
f 531 134 421
f 531 421 419
f 86 55 395
f 86 395 601
f 78 531 419
f 78 419 474
f 55 598 258
f 55 258 395
f 133 547 397
f 133 397 420
f 127 309 37
f 127 37 467
f 370 85 600
f 370 600 204
f 201 401 369
f 201 369 434
f 591 402 363
f 591 363 416
f 351 359 74
f 351 74 301
f 83 191 368
f 83 368 163
f 69 42 445
f 69 445 129
f 401 83 163
f 401 163 369
f 42 591 416
f 42 416 445
f 527 546 583
f 527 583 146
f 547 370 483
f 547 483 294
f 370 204 107
f 370 107 483
f 397 547 294
f 397 294 526
f 294 483 289
f 294 289 358
f 483 107 156
f 483 156 289
f 348 400 217
f 348 217 162
f 526 294 358
f 526 358 596
f 358 289 309
f 358 309 127
f 289 156 37
f 289 37 309
f 162 217 603
f 162 603 169
f 596 358 127
f 596 127 467
f 343 413 106
f 343 106 323
f 272 302 269
f 272 269 248
f 462 272 248
f 462 248 530
f 150 462 530
f 150 530 464
f 187 150 464
f 187 464 346
f 347 47 231
f 347 231 406
f 357 559 573
f 357 573 250
f 413 357 250
f 413 250 106
f 363 256 302
f 363 302 272
f 416 363 272
f 416 272 462
f 445 416 462
f 445 462 150
f 129 445 150
f 129 150 187
f 146 128 186
f 146 186 215
f 288 527 146
f 288 146 215
f 367 222 271
f 367 271 558
f 163 368 559
f 163 559 357
f 369 163 357
f 369 357 413
f 434 369 413
f 434 413 343
f 402 49 359
f 402 359 351
f 201 434 377
f 201 377 425
f 363 402 351
f 363 351 301
f 301 74 256
f 301 256 363
f 498 52 49
f 498 49 402
f 364 498 402
f 364 402 591
f 281 364 591
f 281 591 42
f 166 281 42
f 166 42 69
f 362 165 68
f 362 68 361
f 232 362 361
f 232 361 348
f 456 232 348
f 456 348 162
f 350 456 162
f 350 162 169
f 167 350 169
f 167 169 603
f 217 499 167
f 217 167 603
f 400 56 499
f 400 499 217
f 423 424 56
f 423 56 400
f 479 424 423
f 479 423 431
f 108 480 432
f 108 432 318
f 53 108 318
f 53 318 49
f 300 473 407
f 300 407 549
f 258 300 549
f 258 549 380
f 395 258 380
f 395 380 486
f 601 395 486
f 601 486 276
f 204 600 275
f 204 275 61
f 107 204 61
f 107 61 383
f 156 107 383
f 156 383 326
f 37 156 326
f 37 326 285
f 467 37 285
f 467 285 112
f 139 596 467
f 139 467 112
f 571 526 596
f 571 596 139
f 489 397 526
f 489 526 571
f 420 397 489
f 420 489 476
f 419 421 477
f 419 477 472
f 474 419 472
f 474 472 408
f 408 472 108
f 408 108 53
f 549 407 52
f 549 52 498
f 380 549 498
f 380 498 364
f 486 380 364
f 486 364 281
f 276 486 281
f 276 281 166
f 61 275 165
f 61 165 362
f 383 61 362
f 383 362 232
f 326 383 232
f 326 232 456
f 285 326 456
f 285 456 350
f 112 285 350
f 112 350 167
f 499 139 112
f 499 112 167
f 56 571 139
f 56 139 499
f 424 489 571
f 424 571 56
f 476 489 424
f 476 424 479
f 472 477 480
f 472 480 108
f 305 30 492
f 305 492 27
f 250 573 60
f 250 60 540
f 106 250 540
f 106 540 389
f 323 106 389
f 323 389 277
f 248 269 261
f 248 261 161
f 530 248 161
f 530 161 51
f 458 349 418
f 458 418 443
f 222 160 532
f 222 532 271
f 109 159 140
f 109 140 306
f 252 440 160
f 252 160 222
f 271 532 47
f 271 47 347
f 140 159 288
f 140 288 215
f 508 6 440
f 508 440 252
f 583 546 43
f 583 43 361
f 49 44 401
f 49 401 201
f 318 432 191
f 318 191 83
f 431 423 508
f 431 508 190
f 269 302 343
f 269 343 323
f 159 109 206
f 159 206 315
f 302 256 434
f 302 434 343
f 256 74 377
f 256 377 434
f 74 359 425
f 74 425 377
f 359 49 201
f 359 201 425
f 339 305 27
f 339 27 132
f 27 550 59
f 27 59 132
f 551 435 540
f 551 540 60
f 435 514 389
f 435 389 540
f 514 261 277
f 514 277 389
f 323 277 261
f 323 261 269
f 527 288 532
f 527 532 160
f 546 527 160
f 546 160 440
f 423 43 6
f 423 6 508
f 43 546 440
f 43 440 6
f 315 206 231
f 315 231 47
f 120 485 88
f 120 88 110
f 485 72 575
f 485 575 88
f 515 246 459
f 515 459 221
f 246 2 216
f 246 216 459
f 516 541 246
f 516 246 515
f 541 341 2
f 541 2 246
f 110 88 541
f 110 541 516
f 88 575 341
f 88 341 541
f 253 94 485
f 253 485 120
f 94 63 72
f 94 72 485
f 306 345 442
f 306 442 63
f 346 464 458
f 346 458 443
f 221 459 18
f 221 18 461
f 459 216 141
f 459 141 18
f 461 18 255
f 461 255 58
f 18 141 296
f 18 296 255
f 58 255 422
f 58 422 554
f 255 296 67
f 255 67 422
f 554 422 344
f 554 344 409
f 422 67 230
f 422 230 344
f 409 344 470
f 409 470 501
f 344 230 7
f 344 7 470
f 278 218 249
f 278 249 316
f 218 257 173
f 218 173 249
f 501 470 218
f 501 218 278
f 470 7 257
f 470 257 218
f 316 249 337
f 316 337 604
f 249 173 595
f 249 595 337
f 604 337 602
f 604 602 310
f 337 595 32
f 337 32 602
f 310 602 372
f 310 372 164
f 602 32 437
f 602 437 372
f 164 372 463
f 164 463 511
f 372 437 152
f 372 152 463
f 520 548 307
f 520 307 495
f 548 381 544
f 548 544 307
f 511 463 548
f 511 548 520
f 463 152 381
f 463 381 548
f 495 307 95
f 495 95 286
f 307 544 403
f 307 403 95
f 286 95 175
f 286 175 529
f 95 403 155
f 95 155 175
f 529 175 333
f 529 333 245
f 175 155 523
f 175 523 333
f 245 333 482
f 245 482 449
f 333 523 96
f 333 96 482
f 449 482 607
f 449 607 379
f 482 96 121
f 482 121 607
f 379 607 311
f 379 311 542
f 607 121 81
f 607 81 311
f 542 311 305
f 542 305 339
f 311 81 30
f 311 30 305
f 447 22 274
f 22 447 453
f 274 79 354
f 79 274 22
f 370 410 585
f 410 370 594
f 594 370 547
f 190 222 367
f 222 190 252
f 252 190 508
f 146 68 128
f 68 146 583
f 68 583 361
f 43 348 361
f 348 43 400
f 400 43 423
f 345 215 186
f 215 345 140
f 140 345 306
f 271 572 558
f 572 271 347
f 572 347 406
f 406 59 572
f 59 406 253
f 59 253 501
f 59 501 511
f 59 511 132
f 132 511 542
f 542 511 449
f 449 511 529
f 529 511 495
f 511 501 310
f 310 501 316
f 501 253 461
f 501 461 554
f 461 253 515
f 515 253 110
f 120 110 253
f 516 515 110
f 221 461 515
f 58 554 461
f 409 501 554
f 278 316 501
f 604 310 316
f 164 511 310
f 520 495 511
f 286 529 495
f 245 449 529
f 379 542 449
f 339 132 542
f 51 464 530
f 464 51 458
f 458 51 349
f 30 81 492
f 121 96 81
f 523 155 96
f 403 544 155
f 381 152 544
f 437 32 152
f 595 173 32
f 257 7 173
f 230 67 7
f 296 141 67
f 216 2 141
f 341 575 2
f 417 63 442
f 63 417 141
f 141 417 7
f 7 417 492
f 7 492 96
f 96 492 81
f 7 96 155
f 7 155 544
f 7 544 32
f 32 544 152
f 7 32 173
f 141 7 67
f 63 141 575
f 575 141 2
f 63 575 72
f 83 49 318
f 49 83 44
f 44 83 401
f 315 288 159
f 288 315 47
f 288 47 532
f 206 406 231
f 406 206 94
f 406 94 253
f 306 206 109
f 206 306 94
f 94 306 63
f 111 471 329
f 111 329 580
f 428 225 606
f 428 606 195
f 194 494 538
f 194 538 427
f 154 365 236
f 154 236 45
f 225 238 599
f 225 599 606
f 312 189 565
f 312 565 399
f 174 405 237
f 174 237 366
f 45 597 375
f 45 375 154
f 471 312 399
f 471 399 329
f 538 494 405
f 538 405 174
f 599 238 375
f 599 375 597
f 25 390 396
f 25 396 100
f 283 396 390
f 283 390 325
f 10 283 325
f 10 325 293
f 188 117 493
f 188 493 564
f 430 481 394
f 430 394 178
f 535 105 481
f 535 481 430
f 533 105 535
f 533 535 528
f 105 291 40
f 105 40 481
f 376 291 105
f 376 105 533
f 568 376 533
f 568 533 101
f 100 396 135
f 100 135 567
f 466 135 396
f 466 396 283
f 158 466 283
f 158 283 10
f 481 40 340
f 481 340 394
f 291 599 597
f 291 597 40
f 606 599 291
f 606 291 376
f 195 606 376
f 195 376 568
f 567 135 494
f 567 494 194
f 405 494 135
f 405 135 466
f 237 405 466
f 237 466 158
f 45 236 157
f 45 157 340
f 340 40 597
f 340 597 45
f 528 535 298
f 528 298 356
f 535 430 211
f 535 211 298
f 430 178 235
f 430 235 211
f 394 193 234
f 394 234 178
f 390 25 77
f 390 77 487
f 25 298 512
f 25 512 77
f 211 235 561
f 211 561 562
f 293 325 220
f 293 220 388
f 298 211 562
f 298 562 513
f 325 390 487
f 325 487 220
f 234 193 352
f 234 352 560
f 242 71 342
f 242 342 279
f 9 292 387
f 9 387 168
f 172 589 247
f 172 247 545
f 398 587 15
f 398 15 566
f 28 20 304
f 28 304 76
f 295 183 12
f 295 12 209
f 314 570 303
f 314 303 240
f 589 295 209
f 589 209 247
f 570 398 566
f 570 566 303
f 454 433 404
f 454 404 223
f 193 9 503
f 193 503 84
f 9 168 266
f 9 266 503
f 352 193 84
f 352 84 455
f 84 503 452
f 84 452 21
f 503 266 451
f 503 451 452
f 31 590 524
f 31 524 579
f 455 84 21
f 455 21 392
f 21 452 71
f 21 71 242
f 452 451 342
f 452 342 71
f 579 524 144
f 579 144 203
f 392 21 242
f 392 242 279
f 265 569 267
f 265 267 57
f 102 75 104
f 102 104 125
f 519 102 125
f 519 125 450
f 219 519 450
f 219 450 282
f 185 219 282
f 185 282 35
f 33 332 137
f 33 137 581
f 393 177 412
f 393 412 122
f 569 393 122
f 569 122 267
f 15 115 75
f 15 75 102
f 566 15 102
f 566 102 519
f 303 566 519
f 303 519 219
f 240 303 219
f 240 219 185
f 223 239 184
f 223 184 153
f 91 454 223
f 91 223 153
f 11 147 103
f 11 103 176
f 209 12 177
f 209 177 393
f 247 209 393
f 247 393 569
f 545 247 569
f 545 569 265
f 587 330 20
f 587 20 28
f 172 545 3
f 172 3 555
f 15 587 28
f 15 28 76
f 76 304 115
f 76 115 15
f 243 327 330
f 243 330 587
f 386 243 587
f 386 587 398
f 465 386 398
f 465 398 570
f 208 465 570
f 208 570 314
f 17 207 313
f 17 313 16
f 136 17 16
f 136 16 31
f 287 136 31
f 287 31 579
f 29 287 579
f 29 579 203
f 205 29 203
f 205 203 144
f 524 241 205
f 524 205 144
f 590 324 241
f 590 241 524
f 556 557 324
f 556 324 590
f 506 557 556
f 506 556 319
f 264 507 320
f 264 320 62
f 328 264 62
f 328 62 330
f 77 512 576
f 77 576 429
f 487 77 429
f 487 429 608
f 220 487 608
f 220 608 259
f 388 220 259
f 388 259 99
f 168 387 98
f 168 98 321
f 266 168 321
f 266 321 605
f 451 266 605
f 451 605 54
f 342 451 54
f 342 54 92
f 279 342 92
f 279 92 260
f 229 392 279
f 229 279 260
f 171 455 392
f 171 392 229
f 496 352 455
f 496 455 171
f 560 352 496
f 560 496 509
f 562 561 510
f 562 510 143
f 513 562 143
f 513 143 577
f 577 143 264
f 577 264 328
f 429 576 327
f 429 327 243
f 608 429 243
f 608 243 386
f 259 608 386
f 259 386 465
f 99 259 465
f 99 465 208
f 321 98 207
f 321 207 17
f 605 321 17
f 605 17 136
f 54 605 136
f 54 136 287
f 92 54 287
f 92 287 29
f 260 92 29
f 260 29 205
f 241 229 260
f 241 260 205
f 324 171 229
f 324 229 241
f 557 496 171
f 557 171 324
f 509 496 557
f 509 557 506
f 143 510 507
f 143 507 264
f 73 114 493
f 73 493 117
f 122 412 90
f 122 90 200
f 267 122 200
f 267 200 360
f 57 267 360
f 57 360 469
f 125 104 111
f 125 111 580
f 450 125 580
f 450 580 329
f 522 399 565
f 522 565 537
f 147 210 448
f 147 448 103
f 263 212 228
f 263 228 441
f 119 539 210
f 119 210 147
f 103 448 332
f 103 332 33
f 228 212 91
f 228 91 153
f 478 126 539
f 478 539 119
f 404 433 336
f 404 336 16
f 330 335 589
f 330 589 172
f 62 320 183
f 62 183 295
f 319 556 478
f 319 478 182
f 104 75 265
f 104 265 57
f 212 263 534
f 212 534 66
f 75 115 545
f 75 545 265
f 115 304 3
f 115 3 545
f 304 20 555
f 304 555 3
f 20 330 172
f 20 172 555
f 39 73 117
f 39 117 5
f 117 188 89
f 117 89 5
f 189 312 200
f 189 200 90
f 312 471 360
f 312 360 200
f 471 111 469
f 471 469 360
f 57 469 111
f 57 111 104
f 454 91 448
f 454 448 210
f 433 454 210
f 433 210 539
f 556 336 126
f 556 126 478
f 336 433 539
f 336 539 126
f 66 534 137
f 66 137 332
f 251 500 290
f 251 290 262
f 500 308 170
f 500 170 290
f 226 497 521
f 226 521 148
f 497 378 525
f 497 525 521
f 224 438 497
f 224 497 226
f 438 38 378
f 438 378 497
f 262 290 438
f 262 438 224
f 290 170 38
f 290 38 438
f 118 50 500
f 118 500 251
f 50 317 308
f 50 308 500
f 441 34 536
f 441 536 317
f 35 282 522
f 35 522 537
f 148 521 124
f 148 124 284
f 521 525 227
f 521 227 124
f 284 124 116
f 284 116 322
f 124 227 82
f 124 82 116
f 322 116 331
f 322 331 426
f 116 82 80
f 116 80 331
f 426 331 36
f 426 36 574
f 331 80 138
f 331 138 36
f 574 36 270
f 574 270 484
f 36 138 374
f 36 374 270
f 97 151 123
f 97 123 65
f 151 488 199
f 151 199 123
f 484 270 151
f 484 151 97
f 270 374 488
f 270 488 151
f 65 123 41
f 65 41 384
f 123 199 149
f 123 149 41
f 384 41 385
f 384 385 70
f 41 149 113
f 41 113 385
f 70 385 8
f 70 8 578
f 385 113 543
f 385 543 8
f 578 8 518
f 578 518 475
f 8 543 593
f 8 593 518
f 460 192 439
f 460 439 490
f 192 373 436
f 192 436 439
f 475 518 192
f 475 192 460
f 518 593 373
f 518 373 192
f 490 439 48
f 490 48 468
f 439 436 584
f 439 584 48
f 468 48 563
f 468 563 213
f 48 584 588
f 48 588 563
f 213 563 46
f 213 46 254
f 563 588 457
f 563 457 46
f 254 46 504
f 254 504 297
f 46 457 280
f 46 280 504
f 297 504 142
f 297 142 1
f 504 280 24
f 504 24 142
f 1 142 446
f 1 446 198
f 142 24 64
f 142 64 446
f 198 446 73
f 198 73 39
f 446 64 114
f 446 114 73
f 533 355 101
f 355 533 528
f 101 299 26
f 299 101 355
f 9 340 157
f 340 9 394
f 394 9 193
f 182 147 11
f 147 182 119
f 119 182 478
f 223 313 239
f 313 223 404
f 313 404 16
f 336 31 16
f 31 336 590
f 590 336 556
f 34 153 184
f 153 34 228
f 228 34 441
f 103 411 176
f 411 103 33
f 411 33 581
f 581 89 411
f 89 581 118
f 89 118 484
f 89 484 475
f 89 475 5
f 5 475 198
f 198 475 297
f 297 475 213
f 213 475 490
f 475 484 70
f 70 484 65
f 484 118 284
f 484 284 426
f 284 118 226
f 226 118 262
f 251 262 118
f 224 226 262
f 148 284 226
f 322 426 284
f 574 484 426
f 97 65 484
f 384 70 65
f 578 475 70
f 460 490 475
f 468 213 490
f 254 297 213
f 1 198 297
f 39 5 198
f 329 282 450
f 282 329 522
f 522 329 399
f 114 64 493
f 24 280 64
f 457 588 280
f 584 436 588
f 373 593 436
f 543 113 593
f 149 199 113
f 488 374 199
f 138 80 374
f 82 227 80
f 525 378 227
f 38 170 378
f 564 317 536
f 317 564 227
f 227 564 374
f 374 564 493
f 374 493 280
f 280 493 64
f 374 280 588
f 374 588 436
f 374 436 113
f 113 436 593
f 374 113 199
f 227 374 80
f 317 227 170
f 170 227 378
f 317 170 308
f 295 330 62
f 330 295 335
f 335 295 589
f 66 91 212
f 91 66 332
f 91 332 448
f 534 581 137
f 581 534 50
f 581 50 118
f 441 534 263
f 534 441 50
f 50 441 317
f 685 692 640
f 685 640 631
f 700 795 779
f 700 779 819
f 819 779 691
f 819 691 684
f 741 787 621
f 741 621 705
f 820 685 631
f 820 631 701
f 682 758 796
f 682 796 624
f 623 715 695
f 623 695 681
f 720 638 654
f 720 654 732
f 758 660 749
f 758 749 796
f 612 789 757
f 612 757 674
f 673 632 762
f 673 762 611
f 668 831 642
f 668 642 725
f 789 746 693
f 789 693 757
f 662 738 667
f 662 667 828
f 827 689 833
f 827 833 661
f 737 658 609
f 737 609 694
f 738 772 806
f 738 806 667
f 614 699 789
f 614 789 612
f 611 762 728
f 611 728 613
f 646 807 831
f 646 831 668
f 699 615 746
f 699 746 789
f 825 794 615
f 825 615 699
f 748 825 699
f 748 699 614
f 613 728 637
f 613 637 747
f 712 780 807
f 712 807 646
f 624 796 711
f 624 711 630
f 629 656 715
f 629 715 623
f 732 654 785
f 732 785 618
f 796 749 710
f 796 710 711
f 674 757 758
f 674 758 682
f 681 695 632
f 681 632 673
f 725 642 638
f 725 638 720
f 757 693 660
f 757 660 758
f 701 631 825
f 701 825 748
f 747 637 795
f 747 795 700
f 705 621 780
f 705 780 712
f 631 640 794
f 631 794 825
f 630 711 738
f 630 738 662
f 711 710 772
f 711 772 738
f 618 785 658
f 618 658 737
f 661 833 656
f 661 656 629
f 769 688 610
f 769 610 659
f 791 769 659
f 791 659 786
f 792 791 786
f 792 786 655
f 803 792 655
f 803 655 639
f 724 803 639
f 724 639 643
f 768 724 643
f 768 643 832
f 802 768 832
f 802 832 808
f 782 802 808
f 782 808 781
f 719 782 781
f 719 781 622
f 767 719 622
f 767 622 788
f 775 767 788
f 775 788 740
f 641 776 741
f 641 741 705
f 793 641 705
f 793 705 712
f 824 793 712
f 824 712 646
f 696 824 646
f 696 646 668
f 649 696 668
f 649 668 725
f 729 649 725
f 729 725 720
f 814 729 720
f 814 720 732
f 716 814 732
f 716 732 618
f 697 716 618
f 697 618 737
f 707 697 737
f 707 737 694
f 833 689 688
f 833 688 769
f 656 833 769
f 656 769 791
f 715 656 791
f 715 791 792
f 695 715 792
f 695 792 803
f 632 695 803
f 632 803 724
f 762 632 724
f 762 724 768
f 728 762 768
f 728 768 802
f 637 728 802
f 637 802 782
f 795 637 782
f 795 782 719
f 779 795 719
f 779 719 767
f 691 779 767
f 691 767 775
f 640 692 776
f 640 776 641
f 794 640 641
f 794 641 793
f 615 794 793
f 615 793 824
f 746 615 824
f 746 824 696
f 693 746 696
f 693 696 649
f 660 693 649
f 660 649 729
f 749 660 729
f 749 729 814
f 710 749 814
f 710 814 716
f 772 710 716
f 772 716 697
f 806 772 697
f 806 697 707
f 771 766 815
f 771 815 830
f 759 663 678
f 759 678 635
f 635 678 765
f 635 765 770
f 718 816 744
f 718 744 666
f 636 771 830
f 636 830 760
f 774 702 809
f 774 809 743
f 742 648 617
f 742 617 773
f 645 726 713
f 645 713 633
f 702 799 616
f 702 616 809
f 752 669 703
f 752 703 784
f 783 829 698
f 783 698 751
f 790 626 722
f 790 722 733
f 669 620 764
f 669 764 703
f 798 721 704
f 798 704 778
f 777 821 619
f 777 619 797
f 628 708 753
f 628 753 671
f 721 683 706
f 721 706 704
f 836 761 669
f 836 669 752
f 751 698 826
f 751 826 835
f 812 651 626
f 812 626 790
f 761 834 620
f 761 620 669
f 730 664 834
f 730 834 761
f 805 730 761
f 805 761 836
f 835 826 818
f 835 818 804
f 750 676 651
f 750 651 812
f 743 809 657
f 743 657 735
f 734 801 648
f 734 648 742
f 633 713 822
f 633 822 650
f 809 616 755
f 809 755 657
f 784 703 702
f 784 702 774
f 773 617 829
f 773 829 783
f 733 722 726
f 733 726 645
f 703 764 799
f 703 799 702
f 760 830 730
f 760 730 805
f 804 818 663
f 804 663 759
f 666 744 676
f 666 676 750
f 830 815 664
f 830 664 730
f 735 657 721
f 735 721 798
f 657 755 683
f 657 683 721
f 650 822 708
f 650 708 628
f 797 619 801
f 797 801 734
f 686 672 754
f 686 754 709
f 813 686 709
f 813 709 823
f 810 813 823
f 810 823 714
f 653 810 714
f 653 714 727
f 736 653 727
f 736 727 723
f 687 736 723
f 687 723 627
f 800 687 627
f 800 627 652
f 675 800 652
f 675 652 677
f 739 675 677
f 739 677 745
f 690 739 745
f 690 745 817
f 679 690 817
f 679 817 717
f 625 680 718
f 625 718 666
f 665 625 666
f 665 666 750
f 634 665 750
f 634 750 812
f 763 634 812
f 763 812 790
f 811 763 790
f 811 790 733
f 731 811 733
f 731 733 645
f 644 731 645
f 644 645 633
f 647 644 633
f 647 633 650
f 670 647 650
f 670 650 628
f 756 670 628
f 756 628 671
f 619 821 672
f 619 672 686
f 801 619 686
f 801 686 813
f 648 801 813
f 648 813 810
f 617 648 810
f 617 810 653
f 829 617 653
f 829 653 736
f 698 829 736
f 698 736 687
f 826 698 687
f 826 687 800
f 818 826 800
f 818 800 675
f 663 818 675
f 663 675 739
f 678 663 739
f 678 739 690
f 765 678 690
f 765 690 679
f 815 766 680
f 815 680 625
f 664 815 625
f 664 625 665
f 834 664 665
f 834 665 634
f 620 834 634
f 620 634 763
f 764 620 763
f 764 763 811
f 799 764 811
f 799 811 731
f 616 799 731
f 616 731 644
f 755 616 644
f 755 644 647
f 683 755 647
f 683 647 670
f 706 683 670
f 706 670 756