o convex_0
v -0.012067 -0.090140 0.007582
v -0.022941 -0.058094 0.003864
v -0.022654 -0.060671 0.003577
v -0.015214 -0.056948 0.002719
v -0.019220 -0.056951 0.011017
v -0.015214 -0.086706 0.000715
v -0.018648 -0.082414 0.008156
v -0.010351 -0.084704 0.007869
v -0.014356 -0.057240 0.008156
v -0.012925 -0.086706 0.010731
v -0.010351 -0.085848 0.003291
v -0.020937 -0.056951 0.000715
v -0.019792 -0.068111 0.011017
v -0.017503 -0.086420 0.003577
v -0.012353 -0.087563 0.001002
v -0.022941 -0.056951 0.007869
v -0.021796 -0.068683 0.003577
v -0.014928 -0.087277 0.010731
v -0.017217 -0.057523 0.001002
v -0.021796 -0.068397 0.008156
v -0.014069 -0.058670 0.003577
v -0.014642 -0.090140 0.003864
v -0.017503 -0.080412 0.000715
v -0.017217 -0.057809 0.010731
v -0.012067 -0.086420 0.010445
v -0.016073 -0.088421 0.008156
v -0.016931 -0.081553 0.011017
v -0.020079 -0.067539 0.000715
v -0.012639 -0.090140 0.002719
v -0.019220 -0.080695 0.003577
v -0.021223 -0.057809 0.010445
v -0.013497 -0.090140 0.009014
v -0.012353 -0.085845 0.001002
v -0.018362 -0.057523 0.000715
v -0.010351 -0.086709 0.007869
v -0.014069 -0.058098 0.007869
v -0.010351 -0.084704 0.004723
v -0.011780 -0.089851 0.004151
v -0.017503 -0.085848 0.008156
v -0.014642 -0.088135 0.001002
v -0.020651 -0.056951 0.011017
v -0.016645 -0.056951 0.010158
v -0.014069 -0.084415 0.000715
v -0.012353 -0.088135 0.010158
v -0.022941 -0.056951 0.003577
v -0.018934 -0.081842 0.007011
v -0.014356 -0.056948 0.003577
v -0.022082 -0.066968 0.005009
v -0.010351 -0.086420 0.003291
v -0.014642 -0.090140 0.007582
v -0.015787 -0.088993 0.003864
v -0.016073 -0.080123 0.011017
v -0.016073 -0.085845 0.001002
v -0.015787 -0.085845 0.010731
v -0.017503 -0.079265 0.011017
f 7 27 55 
f 12 4 19 
f 12 6 23 
f 5 10 24 
f 24 10 25 
f 8 9 25 
f 5 13 27 
f 18 10 27 
f 3 12 28 
f 17 3 28 
f 12 23 28 
f 23 17 28 
f 1 22 29 
f 17 23 30 
f 20 13 31 
f 16 20 31 
f 22 1 32 
f 18 26 32 
f 11 15 33 
f 19 4 33 
f 4 21 33 
f 21 11 33 
f 6 12 34 
f 12 19 34 
f 19 33 34 
f 11 8 35 
f 8 25 35 
f 9 8 36 
f 21 36 37 
f 8 11 37 
f 11 21 37 
f 36 8 37 
f 1 29 38 
f 35 1 38 
f 14 26 39 
f 6 15 40 
f 15 29 40 
f 29 22 40 
f 13 5 41 
f 4 16 41 
f 31 13 41 
f 16 31 41 
f 5 24 42 
f 24 25 42 
f 25 9 42 
f 15 6 43 
f 33 15 43 
f 6 34 43 
f 34 33 43 
f 10 18 44 
f 25 10 44 
f 18 32 44 
f 32 1 44 
f 1 35 44 
f 35 25 44 
f 3 2 45 
f 12 3 45 
f 4 12 45 
f 2 16 45 
f 16 4 45 
f 7 20 46 
f 20 17 46 
f 30 14 46 
f 17 30 46 
f 39 7 46 
f 14 39 46 
f 21 4 47 
f 9 36 47 
f 36 21 47 
f 4 41 47 
f 41 5 47 
f 5 42 47 
f 42 9 47 
f 2 3 48 
f 16 2 48 
f 3 17 48 
f 20 16 48 
f 17 20 48 
f 15 11 49 
f 29 15 49 
f 11 35 49 
f 38 29 49 
f 35 38 49 
f 22 32 50 
f 32 26 50 
f 26 14 51 
f 14 40 51 
f 40 22 51 
f 22 50 51 
f 50 26 51 
f 10 5 52 
f 5 27 52 
f 27 10 52 
f 23 6 53 
f 14 30 53 
f 30 23 53 
f 6 40 53 
f 40 14 53 
f 26 18 54 
f 18 27 54 
f 27 7 54 
f 7 39 54 
f 39 26 54 
f 20 7 55 
f 13 20 55 
f 27 13 55 
o convex_1
v -0.020364 -0.042355 0.000715
v -0.017504 -0.034340 0.011017
v -0.018935 -0.034340 0.011017
v -0.019220 -0.056948 0.011017
v -0.012925 -0.036347 0.003578
v -0.014356 -0.056948 0.003578
v -0.022941 -0.056948 0.003577
v -0.012925 -0.034913 0.008155
v -0.020937 -0.034340 0.003291
v -0.022653 -0.048361 0.008156
v -0.018648 -0.056948 0.000715
v -0.015787 -0.034340 0.001002
v -0.014356 -0.056948 0.007869
v -0.021509 -0.056948 0.010158
v -0.017504 -0.056948 0.010731
v -0.021223 -0.035489 0.008156
v -0.022367 -0.042926 0.003577
v -0.020937 -0.056948 0.000715
v -0.015787 -0.034340 0.010731
v -0.019220 -0.034340 0.000715
v -0.020364 -0.043787 0.011017
v -0.016932 -0.056948 0.001288
v -0.022941 -0.056948 0.008156
v -0.012925 -0.034340 0.003578
v -0.022367 -0.043502 0.008156
v -0.016360 -0.056948 0.009872
v -0.022941 -0.053796 0.003577
v -0.014929 -0.034628 0.001575
v -0.016645 -0.035199 0.000715
v -0.020650 -0.056948 0.011017
v -0.012925 -0.036916 0.007869
v -0.020650 -0.044931 0.000715
v -0.021223 -0.034628 0.004151
v -0.020937 -0.034340 0.008156
v -0.022653 -0.046071 0.004438
v -0.013497 -0.034340 0.008727
v -0.015214 -0.056948 0.002719
v -0.015787 -0.035489 0.010731
v -0.022941 -0.054084 0.007869
f 90 82 94 
f 57 58 59 
f 61 59 62 
f 58 57 64 
f 61 62 66 
f 64 57 67 
f 59 61 68 
f 62 59 69 
f 59 68 70 
f 56 66 73 
f 66 62 73 
f 67 57 74 
f 66 56 75 
f 64 67 75 
f 56 72 75 
f 72 64 75 
f 59 58 76 
f 65 69 76 
f 58 71 76 
f 61 66 77 
f 62 69 78 
f 69 65 78 
f 63 60 79 
f 67 74 79 
f 65 76 80 
f 76 71 80 
f 68 63 81 
f 70 68 81 
f 73 62 82 
f 62 78 82 
f 77 67 83 
f 79 60 83 
f 67 79 83 
f 66 75 84 
f 75 67 84 
f 77 66 84 
f 67 77 84 
f 69 59 85 
f 59 76 85 
f 76 69 85 
f 61 60 86 
f 60 63 86 
f 68 61 86 
f 63 68 86 
f 72 56 87 
f 56 73 87 
f 82 72 87 
f 73 82 87 
f 64 72 88 
f 72 80 88 
f 80 71 88 
f 58 64 89 
f 71 58 89 
f 64 88 89 
f 88 71 89 
f 65 80 90 
f 80 72 90 
f 72 82 90 
f 63 79 91 
f 79 74 91 
f 81 63 91 
f 60 61 92 
f 61 77 92 
f 83 60 92 
f 77 83 92 
f 57 59 93 
f 59 70 93 
f 74 57 93 
f 70 81 93 
f 91 74 93 
f 81 91 93 
f 78 65 94 
f 82 78 94 
f 65 90 94 
o convex_2
v -0.004055 -0.006012 0.007583
v -0.020938 -0.034340 0.003578
v -0.020364 -0.034340 0.002433
v -0.010637 0.004006 0.003292
v -0.018647 -0.031476 0.011017
v -0.012923 -0.034051 0.003292
v -0.006058 0.001142 0.000716
v -0.008920 0.004006 0.010444
v -0.015787 -0.034340 0.010730
v -0.018647 -0.021458 0.007869
v -0.017502 -0.026323 0.000429
v -0.003196 0.004006 0.003292
v -0.005771 0.002858 0.010444
v -0.012638 -0.034340 0.007869
v -0.003196 -0.002577 0.003292
v -0.015787 -0.034340 0.001002
v -0.008920 0.004006 0.000716
v -0.018647 -0.021458 0.003578
v -0.010637 0.004006 0.007869
v -0.003196 -0.002866 0.007869
v -0.020938 -0.034340 0.008154
v -0.006058 -0.002866 0.010444
v -0.003196 0.004006 0.007869
v -0.006344 -0.002866 0.000716
v -0.012067 -0.011162 0.011017
v -0.016358 -0.022032 0.011017
v -0.019218 -0.033766 0.000716
v -0.009493 -0.023751 0.003578
v -0.020649 -0.031191 0.003578
v -0.008920 -0.002007 0.000429
v -0.016644 -0.034340 0.000716
v -0.017502 -0.034340 0.011017
v -0.016644 -0.022607 0.000429
v -0.006058 0.004006 0.000716
v -0.014927 -0.034340 0.001575
v -0.007489 -0.003152 0.010730
v -0.008920 0.002287 0.010730
v -0.013782 -0.034340 0.009013
v -0.020649 -0.031762 0.008154
v -0.018360 -0.020887 0.008154
v -0.003482 -0.004008 0.004150
v -0.018933 -0.034340 0.011017
v -0.005771 0.004006 0.010444
v -0.017216 -0.028042 0.000429
v -0.012638 -0.034340 0.006725
v -0.018360 -0.021747 0.003005
v -0.003769 -0.004582 0.003292
v -0.017502 -0.021747 0.009586
v -0.010351 0.004006 0.008442
v -0.018933 -0.031762 0.000716
v -0.012638 -0.033766 0.003578
f 122 139 145 
f 96 97 103 
f 98 102 106 
f 103 97 108 
f 101 106 109 
f 108 97 110 
f 98 106 111 
f 104 98 112 
f 102 98 113 
f 98 104 113 
f 108 95 114 
f 109 106 114 
f 96 103 115 
f 114 107 116 
f 106 102 117 
f 114 106 117 
f 107 114 117 
f 101 109 118 
f 99 119 120 
f 97 96 123 
f 104 112 123 
f 96 115 123 
f 121 97 123 
f 101 118 124 
f 110 97 125 
f 118 110 125 
f 97 121 125 
f 115 103 126 
f 119 99 126 
f 124 105 127 
f 111 124 127 
f 106 101 128 
f 111 106 128 
f 124 111 128 
f 101 124 128 
f 108 110 129 
f 110 118 129 
f 103 116 130 
f 116 107 130 
f 126 103 130 
f 119 126 130 
f 102 120 131 
f 120 119 131 
f 119 130 131 
f 103 108 132 
f 108 114 132 
f 116 103 132 
f 114 116 132 
f 115 99 133 
f 104 123 133 
f 123 115 133 
f 113 104 134 
f 133 99 134 
f 104 133 134 
f 114 95 135 
f 109 114 135 
f 99 115 136 
f 126 99 136 
f 115 126 136 
f 117 102 137 
f 107 117 137 
f 130 107 137 
f 102 131 137 
f 131 130 137 
f 121 105 138 
f 105 124 138 
f 124 118 138 
f 118 125 138 
f 125 121 138 
f 95 108 139 
f 129 100 139 
f 108 129 139 
f 135 95 139 
f 122 135 139 
f 98 111 140 
f 112 98 140 
f 123 112 140 
f 127 105 140 
f 111 127 140 
f 118 109 141 
f 122 100 141 
f 100 129 141 
f 129 118 141 
f 109 135 141 
f 135 122 141 
f 99 120 142 
f 120 102 142 
f 102 134 142 
f 134 99 142 
f 102 113 143 
f 134 102 143 
f 113 134 143 
f 105 121 144 
f 121 123 144 
f 140 105 144 
f 123 140 144 
f 100 122 145 
f 139 100 145 
o convex_3
v 0.019697 -0.074687 0.009300
v 0.010255 -0.086419 0.003578
v 0.010828 -0.086419 0.002720
v 0.014262 -0.058092 0.003578
v 0.020556 -0.059811 0.000429
v 0.017694 -0.058095 0.010730
v 0.012545 -0.087276 0.010730
v 0.017408 -0.086419 0.003578
v 0.022846 -0.058095 0.007869
v 0.014262 -0.058384 0.008155
v 0.012545 -0.087564 0.001002
v 0.021987 -0.067255 0.003578
v 0.017122 -0.081554 0.011017
v 0.010255 -0.085845 0.008155
v 0.014262 -0.090140 0.008442
v 0.017408 -0.079264 0.000429
v 0.017694 -0.058095 0.000716
v 0.020556 -0.060956 0.011017
v 0.018839 -0.082128 0.007869
v 0.021987 -0.067826 0.007869
v 0.022846 -0.058095 0.003578
v 0.012545 -0.090140 0.003006
v 0.011973 -0.090140 0.007583
v 0.014548 -0.088135 0.001002
v 0.012259 -0.086134 0.001002
v 0.019411 -0.079553 0.003578
v 0.017122 -0.086990 0.007869
v 0.014834 -0.090140 0.004437
v 0.015120 -0.087276 0.010730
v 0.013976 -0.059240 0.003578
v 0.019984 -0.058095 0.011017
v 0.019984 -0.067255 0.011017
v 0.019984 -0.067826 0.000716
v 0.012545 -0.086134 0.010730
v 0.010255 -0.085274 0.003578
v 0.016265 -0.058669 0.001575
v 0.019697 -0.058095 0.000429
v 0.015693 -0.085845 0.000716
v 0.017122 -0.058095 0.010444
v 0.010255 -0.085274 0.007011
v 0.012831 -0.089851 0.009300
v 0.014262 -0.082699 0.000716
v 0.021415 -0.067826 0.002719
v 0.018839 -0.081554 0.003292
v 0.013976 -0.059529 0.007011
v 0.016265 -0.088421 0.007869
v 0.017694 -0.085849 0.007869
v 0.011400 -0.086134 0.009586
v 0.015979 -0.088706 0.003578
v 0.022846 -0.058955 0.007869
v 0.011973 -0.090140 0.004151
v 0.019411 -0.079838 0.007869
v 0.021415 -0.070399 0.003578
v 0.018839 -0.082128 0.004150
v 0.016265 -0.081268 0.011017
v 0.021128 -0.058095 0.010444
v 0.013690 -0.090140 0.002720
v 0.010255 -0.086419 0.007869
f 168 186 203 
f 147 148 156 
f 149 154 166 
f 147 156 167 
f 167 160 168 
f 156 148 170 
f 160 167 173 
f 158 152 174 
f 155 149 175 
f 149 151 176 
f 158 163 176 
f 158 146 177 
f 163 158 177 
f 146 165 177 
f 161 150 178 
f 176 151 179 
f 148 147 180 
f 147 159 180 
f 170 148 180 
f 175 170 180 
f 149 162 181 
f 162 170 181 
f 175 149 181 
f 170 175 181 
f 150 161 182 
f 162 149 182 
f 149 166 182 
f 166 150 182 
f 153 169 183 
f 169 156 183 
f 151 149 184 
f 149 155 184 
f 179 151 184 
f 155 179 184 
f 180 159 185 
f 175 180 185 
f 168 160 186 
f 174 152 186 
f 160 174 186 
f 156 170 187 
f 170 162 187 
f 182 161 187 
f 162 182 187 
f 183 156 187 
f 161 183 187 
f 150 166 188 
f 166 157 188 
f 178 150 188 
f 161 178 188 
f 183 161 189 
f 153 183 189 
f 161 188 189 
f 159 155 190 
f 155 175 190 
f 185 159 190 
f 175 185 190 
f 153 172 191 
f 160 173 191 
f 174 160 191 
f 172 174 191 
f 164 158 192 
f 172 153 192 
f 158 174 192 
f 174 172 192 
f 159 152 193 
f 155 159 193 
f 179 155 193 
f 152 179 193 
f 169 153 194 
f 153 191 194 
f 191 173 194 
f 165 157 195 
f 166 154 195 
f 157 166 195 
f 163 177 195 
f 177 165 195 
f 147 167 196 
f 167 168 196 
f 168 147 196 
f 146 158 197 
f 158 164 197 
f 165 146 197 
f 197 171 198 
f 157 165 198 
f 188 157 198 
f 171 189 198 
f 189 188 198 
f 165 197 198 
f 153 189 199 
f 189 171 199 
f 192 153 199 
f 164 192 199 
f 197 164 199 
f 171 197 199 
f 152 158 200 
f 158 176 200 
f 179 152 200 
f 176 179 200 
f 154 149 201 
f 149 176 201 
f 176 163 201 
f 195 154 201 
f 163 195 201 
f 167 156 202 
f 156 169 202 
f 173 167 202 
f 169 194 202 
f 194 173 202 
f 159 147 203 
f 152 159 203 
f 147 168 203 
f 186 152 203 
o convex_4
v 0.020557 -0.058092 0.000429
v 0.019125 -0.036057 0.011017
v 0.018553 -0.036057 0.011017
v 0.019984 -0.058092 0.011017
v 0.013117 -0.038635 0.003578
v 0.014262 -0.058092 0.007869
v 0.021415 -0.036631 0.003578
v 0.022846 -0.057232 0.008154
v 0.018267 -0.036057 0.000429
v 0.013117 -0.036057 0.008154
v 0.015693 -0.058092 0.002147
v 0.022846 -0.058092 0.003578
v 0.022560 -0.044070 0.007869
v 0.017122 -0.058092 0.010444
v 0.015693 -0.036057 0.001002
v 0.020270 -0.043499 0.000429
v 0.016265 -0.036057 0.010730
v 0.014262 -0.058092 0.003578
v 0.020557 -0.045787 0.011017
v 0.017695 -0.058092 0.000716
v 0.021415 -0.036057 0.007869
v 0.022560 -0.045215 0.003578
v 0.020842 -0.058092 0.011017
v 0.022846 -0.054372 0.003292
v 0.013117 -0.036057 0.003578
v 0.019412 -0.036057 0.000716
v 0.020842 -0.055802 0.000429
v 0.022846 -0.050651 0.007869
v 0.019412 -0.036344 0.011017
v 0.017695 -0.058092 0.010730
v 0.015693 -0.058092 0.009300
v 0.015407 -0.036631 0.010157
v 0.013117 -0.038348 0.007582
v 0.021987 -0.044070 0.002719
v 0.021129 -0.055230 0.010730
v 0.022846 -0.058092 0.007869
v 0.016552 -0.037489 0.000716
v 0.022273 -0.042353 0.003578
v 0.020842 -0.036057 0.002719
f 210 241 242 
f 205 206 207 
f 204 207 209 
f 206 205 212 
f 206 212 213 
f 204 209 214 
f 207 204 215 
f 209 207 217 
f 213 212 218 
f 214 208 218 
f 204 212 219 
f 206 213 220 
f 209 208 221 
f 208 214 221 
f 214 209 221 
f 205 207 222 
f 212 204 223 
f 204 214 223 
f 214 218 223 
f 212 205 224 
f 207 215 226 
f 222 207 226 
f 211 215 227 
f 208 213 228 
f 218 208 228 
f 213 218 228 
f 219 212 229 
f 212 224 229 
f 215 204 230 
f 204 219 230 
f 227 215 230 
f 216 222 231 
f 225 216 231 
f 211 227 231 
f 227 225 231 
f 205 222 232 
f 222 216 232 
f 224 205 232 
f 216 224 232 
f 207 206 233 
f 217 207 233 
f 206 220 233 
f 220 217 233 
f 213 209 234 
f 209 217 234 
f 220 213 235 
f 217 220 235 
f 213 234 235 
f 234 217 235 
f 208 209 236 
f 213 208 236 
f 209 213 236 
f 225 227 237 
f 230 219 237 
f 227 230 237 
f 226 211 238 
f 222 226 238 
f 211 231 238 
f 231 222 238 
f 215 211 239 
f 226 215 239 
f 211 226 239 
f 218 212 240 
f 212 223 240 
f 223 218 240 
f 210 224 241 
f 224 216 241 
f 216 225 241 
f 225 237 241 
f 241 237 242 
f 224 210 242 
f 219 229 242 
f 229 224 242 
f 237 219 242 
o convex_5
v 0.021129 -0.034052 0.007869
v 0.003101 -0.002864 0.003864
v 0.003101 -0.002864 0.005581
v 0.010543 0.004579 0.003578
v 0.018267 -0.036057 0.000429
v 0.015978 -0.035480 0.010730
v 0.008824 0.004579 0.010730
v 0.012830 -0.036057 0.003578
v 0.005963 0.004579 0.001002
v 0.003101 -0.002577 0.008155
v 0.018553 -0.021177 0.003578
v 0.019124 -0.036057 0.011017
v 0.018839 -0.022032 0.007869
v 0.005963 0.004579 0.010730
v 0.008824 0.004579 0.001002
v 0.013116 -0.036057 0.008154
v 0.006251 -0.003150 0.001002
v 0.003101 0.004579 0.003864
v 0.018553 -0.031475 0.000429
v 0.021129 -0.036057 0.003292
v 0.010543 0.004579 0.008154
v 0.006251 -0.003150 0.010730
v 0.015692 -0.036057 0.001002
v 0.016550 -0.022032 0.011017
v 0.003101 0.004579 0.008155
v 0.016264 -0.021746 0.000429
v 0.007966 -0.002864 0.011017
v 0.020556 -0.030902 0.003578
v 0.008252 -0.001436 0.000716
v 0.018839 -0.032048 0.011017
v 0.009397 0.004579 0.010158
v 0.012830 -0.035771 0.007297
v 0.021129 -0.036057 0.008154
v 0.015692 -0.036057 0.010444
v 0.009397 -0.000004 0.011017
v 0.004532 -0.002864 0.002434
v 0.018553 -0.021463 0.008154
v 0.019410 -0.035767 0.000716
v 0.018553 -0.021746 0.003292
v 0.009111 0.000283 0.000716
v 0.020842 -0.032048 0.007869
v 0.018267 -0.036057 0.011017
v 0.016550 -0.036057 0.000716
v 0.012830 -0.036057 0.005294
v 0.003674 -0.004582 0.008155
v 0.014833 -0.019741 0.000429
v 0.008252 -0.003150 0.000716
f 271 288 289 
f 245 244 250 
f 249 246 251 
f 244 245 252 
f 250 247 254 
f 253 246 255 
f 249 251 256 
f 251 246 257 
f 250 254 258 
f 251 244 260 
f 244 252 260 
f 256 251 260 
f 254 247 262 
f 246 249 263 
f 255 246 263 
f 256 252 264 
f 247 250 265 
f 252 256 267 
f 260 252 267 
f 256 260 267 
f 261 247 268 
f 264 248 269 
f 256 264 269 
f 254 266 269 
f 253 255 270 
f 243 262 270 
f 266 254 272 
f 263 249 273 
f 249 266 273 
f 262 243 275 
f 254 262 275 
f 243 272 275 
f 272 254 275 
f 258 254 276 
f 248 264 276 
f 249 256 277 
f 266 249 277 
f 256 269 277 
f 269 266 277 
f 250 244 278 
f 244 251 278 
f 251 259 278 
f 265 250 278 
f 259 265 278 
f 255 263 279 
f 266 272 279 
f 263 273 279 
f 273 266 279 
f 247 261 280 
f 262 247 280 
f 261 270 280 
f 270 262 280 
f 246 253 281 
f 257 246 281 
f 268 257 281 
f 261 268 281 
f 253 270 281 
f 270 261 281 
f 251 257 282 
f 257 268 282 
f 271 251 282 
f 243 270 283 
f 270 255 283 
f 272 243 283 
f 255 279 283 
f 279 272 283 
f 269 248 284 
f 254 269 284 
f 248 276 284 
f 276 254 284 
f 259 247 285 
f 247 265 285 
f 265 259 285 
f 245 250 286 
f 250 258 286 
f 258 274 286 
f 286 274 287 
f 252 245 287 
f 264 252 287 
f 274 258 287 
f 258 276 287 
f 276 264 287 
f 245 286 287 
f 268 247 288 
f 282 268 288 
f 271 282 288 
f 247 259 289 
f 259 251 289 
f 251 271 289 
f 288 247 289 
o convex_6
v -0.001765 0.069249 0.008155
v -0.010922 0.038919 0.002719
v -0.010922 0.038919 0.009300
v -0.000047 0.038919 0.005582
v -0.003482 0.089852 0.005008
v -0.000334 0.049509 0.002432
v -0.000047 0.048656 0.009300
v -0.000334 0.088709 0.006437
v -0.003767 0.088423 0.006724
v -0.006057 0.052377 0.002432
v -0.009490 0.049514 0.009300
v -0.003767 0.038919 0.009300
v -0.004626 0.038919 0.002432
v -0.000334 0.086418 0.004723
v -0.009776 0.048366 0.003005
v -0.001479 0.049223 0.009587
v -0.000047 0.068106 0.008155
v -0.000047 0.048942 0.004150
v -0.010922 0.040353 0.009014
v -0.003482 0.089276 0.006724
v -0.009204 0.050657 0.009300
v -0.009204 0.051800 0.003005
v -0.000906 0.038919 0.007011
v -0.001479 0.051519 0.002432
v -0.000906 0.088709 0.006724
v -0.001479 0.090143 0.005008
v -0.003767 0.038919 0.002719
v -0.010922 0.040644 0.006152
v -0.004054 0.086708 0.005008
v -0.000334 0.048656 0.002432
v -0.003196 0.046651 0.009587
v -0.003196 0.086703 0.004723
v -0.001479 0.090143 0.006437
v -0.006343 0.038919 0.002432
v -0.010922 0.040644 0.003005
v -0.000334 0.088709 0.005008
f 315 297 325 
f 292 291 293 
f 292 293 301 
f 293 291 302 
f 299 295 302 
f 301 296 305 
f 296 293 306 
f 305 296 306 
f 295 303 307 
f 306 293 307 
f 291 292 308 
f 292 300 308 
f 300 298 308 
f 294 298 309 
f 305 290 309 
f 298 300 310 
f 309 298 310 
f 305 309 310 
f 299 291 311 
f 294 299 311 
f 291 304 311 
f 293 296 312 
f 301 293 312 
f 296 301 312 
f 295 299 313 
f 303 295 313 
f 299 303 313 
f 290 305 314 
f 306 297 314 
f 305 306 314 
f 309 290 314 
f 293 302 316 
f 291 308 317 
f 317 308 318 
f 298 294 318 
f 308 298 318 
f 294 311 318 
f 311 304 318 
f 304 317 318 
f 302 295 319 
f 307 293 319 
f 295 307 319 
f 293 316 319 
f 316 302 319 
f 300 292 320 
f 292 301 320 
f 301 305 320 
f 310 300 320 
f 305 310 320 
f 299 294 321 
f 303 299 321 
f 294 315 321 
f 315 303 321 
f 294 309 322 
f 314 297 322 
f 309 314 322 
f 315 294 322 
f 297 315 322 
f 291 299 323 
f 302 291 323 
f 299 302 323 
f 304 291 324 
f 291 317 324 
f 317 304 324 
f 297 306 325 
f 307 303 325 
f 306 307 325 
f 303 315 325 
o convex_7
v 0.004532 0.083553 0.006438
v -0.000047 0.038633 0.005295
v 0.000526 0.038633 0.004723
v 0.011113 0.038633 0.008728
v 0.011113 0.038925 0.002146
v 0.000240 0.049221 0.009014
v 0.000240 0.086130 0.004723
v 0.000240 0.048651 0.002147
v 0.003674 0.087849 0.004723
v 0.001384 0.087849 0.006724
v 0.006249 0.049226 0.009300
v 0.004532 0.038633 0.009300
v 0.009395 0.049226 0.002146
v 0.004246 0.038633 0.002146
v 0.001384 0.047799 0.001861
v 0.003387 0.090143 0.006438
v 0.000240 0.088424 0.006438
v 0.009968 0.046937 0.008727
v 0.001384 0.048364 0.009300
v 0.001384 0.090143 0.005009
v -0.000047 0.038633 0.005865
v 0.010827 0.038633 0.009014
v 0.003674 0.088993 0.005009
v 0.000240 0.078692 0.007296
v 0.010827 0.041497 0.007869
v 0.003387 0.087562 0.006724
v 0.011113 0.038633 0.002146
v 0.001384 0.087849 0.004723
v -0.000047 0.044930 0.005295
v 0.001384 0.046650 0.009300
v 0.003101 0.038633 0.002719
v 0.000526 0.038633 0.006438
v 0.007392 0.064101 0.007869
v 0.001956 0.047799 0.001861
v 0.000526 0.052660 0.009014
v 0.001384 0.090143 0.006438
v 0.010827 0.040927 0.002146
v -0.000047 0.044930 0.005865
f 354 346 363 
f 327 328 329 
f 328 327 333 
f 327 329 337 
f 329 328 339 
f 333 332 340 
f 339 333 340 
f 332 342 345 
f 327 337 346 
f 337 329 347 
f 336 337 347 
f 329 343 347 
f 343 336 347 
f 338 334 348 
f 341 326 348 
f 334 345 348 
f 345 341 348 
f 335 342 349 
f 329 330 350 
f 326 343 350 
f 343 329 350 
f 335 336 351 
f 341 335 351 
f 330 329 352 
f 329 339 352 
f 339 340 352 
f 340 332 353 
f 334 340 353 
f 332 345 353 
f 345 334 353 
f 333 327 354 
f 332 333 354 
f 342 332 354 
f 327 346 354 
f 337 336 355 
f 344 331 355 
f 336 344 355 
f 328 333 356 
f 339 328 356 
f 333 339 356 
f 346 337 357 
f 331 346 357 
f 337 355 357 
f 355 331 357 
f 326 341 358 
f 343 326 358 
f 336 343 358 
f 351 336 358 
f 341 351 358 
f 334 338 359 
f 340 334 359 
f 330 352 359 
f 352 340 359 
f 336 335 360 
f 331 344 360 
f 344 336 360 
f 335 349 360 
f 349 331 360 
f 335 341 361 
f 342 335 361 
f 341 345 361 
f 345 342 361 
f 348 326 362 
f 338 348 362 
f 326 350 362 
f 350 330 362 
f 330 359 362 
f 359 338 362 
f 346 331 363 
f 349 342 363 
f 331 349 363 
f 342 354 363 
o convex_8
v -0.009204 0.012591 0.010158
v -0.008918 0.004006 0.000715
v -0.006057 0.004006 0.000715
v -0.005772 0.004006 0.010445
v -0.002623 0.012591 0.003577
v -0.009204 0.012591 0.001002
v -0.010634 0.004006 0.007869
v -0.002910 0.006296 0.007869
v -0.002623 0.012591 0.007869
v -0.010922 0.012591 0.003292
v -0.003195 0.004006 0.003292
v -0.006344 0.012591 0.000715
v -0.006057 0.012591 0.010445
v -0.008918 0.004006 0.010445
v -0.010922 0.012591 0.007869
v -0.010634 0.004006 0.003577
v -0.003195 0.004006 0.007869
v -0.010922 0.008584 0.003577
v -0.003482 0.012591 0.002719
v -0.002910 0.005153 0.007011
v -0.010922 0.009443 0.007869
v -0.002910 0.007727 0.003292
f 383 374 385 
f 365 366 367 
f 364 368 369 
f 365 367 370 
f 368 364 372 
f 367 371 372 
f 369 365 373 
f 364 369 373 
f 367 366 374 
f 366 365 375 
f 369 368 375 
f 365 369 375 
f 372 364 376 
f 367 372 376 
f 370 367 377 
f 376 364 377 
f 367 376 377 
f 364 373 378 
f 365 370 379 
f 371 367 380 
f 367 374 380 
f 373 365 381 
f 378 373 381 
f 365 379 381 
f 379 370 381 
f 366 375 382 
f 375 368 382 
f 368 372 383 
f 372 371 383 
f 371 380 383 
f 380 374 383 
f 377 364 384 
f 370 377 384 
f 364 378 384 
f 378 381 384 
f 381 370 384 
f 374 366 385 
f 366 382 385 
f 382 368 385 
f 368 383 385 
o convex_9
v -0.000047 0.038919 0.006151
v -0.012066 0.031476 0.002719
v -0.011779 0.031476 0.002146
v -0.002624 0.012591 0.007869
v -0.010349 0.031190 0.011590
v -0.000047 0.016313 0.000143
v -0.010920 0.012591 0.003292
v -0.000047 0.016313 0.011590
v -0.000047 0.037486 0.000143
v -0.009204 0.012591 0.010159
v -0.011207 0.038919 0.003005
v -0.000047 0.037486 0.011590
v -0.010635 0.025755 0.000143
v -0.010920 0.038919 0.009300
v -0.011207 0.025755 0.011590
v -0.007200 0.012591 0.000716
v -0.010063 0.032332 0.000143
v -0.011207 0.014596 0.007869
v -0.012066 0.032907 0.009300
v -0.001765 0.013166 0.002719
v -0.011779 0.019751 0.003292
v -0.008059 0.019173 0.011590
v -0.009204 0.012591 0.001002
v -0.004627 0.038919 0.002146
v -0.006057 0.012591 0.010445
v -0.007200 0.034625 0.011590
v -0.000047 0.015457 0.010730
v -0.009491 0.020320 0.000143
v -0.010920 0.038630 0.002433
v -0.003768 0.038919 0.009300
v -0.000047 0.015169 0.001002
v -0.006057 0.035484 0.000143
v -0.010920 0.012880 0.008156
v -0.012066 0.031476 0.009300
v -0.002338 0.012591 0.003292
v -0.012066 0.033195 0.002719
v -0.004340 0.016885 0.011590
v -0.010063 0.021181 0.011590
v -0.001479 0.037486 0.011590
v -0.011207 0.038342 0.009300
v -0.011493 0.018315 0.007869
v -0.006343 0.012591 0.000716
v -0.011207 0.013452 0.003577
v -0.007773 0.012591 0.010445
v -0.000047 0.037770 0.000430
v -0.001192 0.013741 0.005008
f 420 405 431 
f 391 386 393 
f 386 391 394 
f 392 389 395 
f 390 393 397 
f 393 386 397 
f 387 388 398 
f 394 391 398 
f 386 396 399 
f 393 390 400 
f 389 392 401 
f 398 388 402 
f 394 398 402 
f 400 390 404 
f 387 398 406 
f 393 400 407 
f 392 398 408 
f 401 392 408 
f 396 386 409 
f 395 389 410 
f 390 397 411 
f 399 390 411 
f 391 393 412 
f 410 389 412 
f 393 410 412 
f 398 391 413 
f 391 401 413 
f 408 398 413 
f 401 408 413 
f 396 409 414 
f 397 386 415 
f 386 399 415 
f 399 397 415 
f 391 412 416 
f 394 402 417 
f 402 414 417 
f 414 394 417 
f 392 395 418 
f 395 400 418 
f 400 403 418 
f 400 404 419 
f 404 387 419 
f 387 406 419 
f 389 401 420 
f 388 387 421 
f 402 388 421 
f 387 404 421 
f 404 396 421 
f 396 414 421 
f 414 402 421 
f 393 407 422 
f 400 395 423 
f 407 400 423 
f 397 399 424 
f 411 397 424 
f 399 411 424 
f 390 399 425 
f 399 396 425 
f 396 404 425 
f 404 390 425 
f 403 400 426 
f 406 403 426 
f 400 419 426 
f 419 406 426 
f 401 391 427 
f 391 416 427 
f 416 405 427 
f 420 401 427 
f 405 420 427 
f 398 392 428 
f 406 398 428 
f 403 406 428 
f 392 418 428 
f 418 403 428 
f 410 393 429 
f 395 410 429 
f 393 422 429 
f 422 407 429 
f 423 395 429 
f 407 423 429 
f 386 394 430 
f 409 386 430 
f 394 414 430 
f 414 409 430 
f 412 389 431 
f 405 416 431 
f 416 412 431 
f 389 420 431 
o convex_10
v 0.005392 0.013164 0.001574
v 0.011113 0.013164 0.008155
v 0.009396 0.013164 0.010444
v 0.010539 0.004579 0.008155
v 0.003101 0.004579 0.008155
v 0.008823 0.004579 0.001002
v 0.002242 0.013164 0.008441
v 0.003101 0.004579 0.003578
v 0.010826 0.013164 0.003291
v 0.005963 0.004579 0.010731
v 0.002242 0.013164 0.004436
v 0.010539 0.004579 0.003578
v 0.006250 0.013164 0.010731
v 0.008823 0.004579 0.010731
v 0.009110 0.013164 0.001288
v 0.005963 0.004579 0.001002
v 0.006250 0.013164 0.001002
v 0.003101 0.012305 0.003291
v 0.011113 0.012877 0.003864
v 0.010826 0.006869 0.007869
v 0.009110 0.006582 0.010731
f 445 435 452 
f 434 433 432 
f 435 436 437 
f 434 432 438 
f 436 438 439 
f 437 436 439 
f 432 433 440 
f 436 435 441 
f 438 436 441 
f 438 432 442 
f 439 438 442 
f 435 437 443 
f 437 440 443 
f 434 438 444 
f 438 441 444 
f 444 441 445 
f 441 435 445 
f 432 440 446 
f 440 437 446 
f 437 439 447 
f 432 446 448 
f 446 437 448 
f 447 432 448 
f 437 447 448 
f 442 432 449 
f 439 442 449 
f 432 447 449 
f 447 439 449 
f 440 433 450 
f 443 440 450 
f 443 450 451 
f 433 435 451 
f 435 443 451 
f 450 433 451 
f 433 434 452 
f 435 433 452 
f 434 444 452 
f 444 445 452 
o convex_11
v 0.011685 0.036055 0.008727
v -0.000047 0.015168 0.009014
v -0.000047 0.015168 0.010444
v -0.000047 0.037770 0.011017
v 0.001385 0.037202 -0.000143
v 0.009109 0.013164 0.001288
v 0.009395 0.013164 0.010444
v -0.000047 0.016315 0.000144
v 0.011113 0.038633 0.002148
v 0.011113 0.025188 -0.000143
v 0.009968 0.032622 0.011303
v 0.011113 0.013164 0.008155
v -0.000047 0.016602 0.011590
v -0.000047 0.037770 0.000430
v 0.001957 0.013164 0.005010
v 0.012258 0.031475 0.002719
v 0.010827 0.038633 0.009013
v 0.010540 0.025469 0.011303
v 0.011113 0.013450 0.003578
v 0.000526 0.038633 0.004722
v 0.000813 0.037202 0.011590
v 0.012258 0.031475 0.008727
v 0.010254 0.031762 -0.000143
v 0.004246 0.016886 -0.000143
v 0.004818 0.017746 0.011590
v 0.001957 0.013164 0.008728
v 0.011685 0.018890 0.008155
v 0.006249 0.013164 0.001002
v 0.004532 0.035771 0.011590
v -0.000047 0.015455 0.000716
v 0.010254 0.021466 -0.000143
v 0.006249 0.013164 0.010731
v 0.004532 0.038633 0.009585
v 0.006820 0.034911 -0.000143
v 0.001385 0.016602 -0.000143
v 0.009682 0.020321 0.011303
v 0.004246 0.038633 0.002147
v 0.011971 0.033480 0.002148
v -0.000047 0.037202 0.011590
v -0.000047 0.037486 0.000144
v 0.011685 0.020321 0.004150
v 0.000813 0.038633 0.007011
v 0.007106 0.018319 -0.000143
v 0.003101 0.013164 0.003292
v 0.012258 0.032335 0.008727
v 0.010540 0.038346 0.009300
v 0.007678 0.013164 0.010731
v 0.011685 0.019461 0.008441
v 0.011399 0.037770 0.008727
f 490 461 501 
f 454 455 456 
f 454 456 460 
f 459 458 464 
f 456 455 465 
f 460 456 466 
f 461 457 466 
f 455 454 467 
f 458 459 467 
f 459 464 470 
f 464 458 471 
f 462 468 471 
f 466 456 472 
f 469 461 472 
f 469 456 473 
f 462 457 475 
f 457 462 476 
f 473 465 477 
f 455 467 478 
f 467 459 478 
f 464 471 479 
f 468 474 479 
f 458 467 480 
f 476 458 480 
f 470 463 481 
f 477 470 481 
f 473 477 481 
f 454 460 482 
f 467 454 482 
f 460 480 482 
f 471 458 483 
f 462 471 483 
f 476 462 483 
f 465 455 484 
f 455 478 484 
f 478 459 484 
f 456 469 485 
f 469 472 485 
f 457 461 486 
f 475 457 486 
f 461 475 486 
f 460 457 487 
f 457 476 487 
f 480 460 487 
f 476 480 487 
f 459 470 488 
f 470 477 488 
f 461 466 489 
f 466 472 489 
f 472 461 489 
f 468 462 490 
f 475 461 490 
f 462 475 490 
f 456 465 491 
f 473 456 491 
f 465 473 491 
f 457 460 492 
f 460 466 492 
f 466 457 492 
f 471 468 493 
f 479 471 493 
f 468 479 493 
f 472 456 494 
f 456 485 494 
f 485 472 494 
f 458 476 495 
f 483 458 495 
f 476 483 495 
f 480 467 496 
f 467 482 496 
f 482 480 496 
f 453 463 497 
f 463 470 497 
f 474 468 497 
f 470 474 497 
f 490 453 497 
f 468 490 497 
f 463 469 498 
f 469 473 498 
f 481 463 498 
f 473 481 498 
f 477 465 499 
f 465 484 499 
f 484 459 499 
f 459 488 499 
f 488 477 499 
f 470 464 500 
f 474 470 500 
f 464 479 500 
f 479 474 500 
f 463 453 501 
f 461 469 501 
f 469 463 501 
f 453 490 501 
