# https://github.com/mikedh/trimesh
mtllib material0.mtl
usemtl material0
v -0.00690919 0.07976403 0.00801561
v -0.00119928 0.07976403 0.01600391
v -0.00119928 0.07976403 0.00437408
v -0.04213976 0.07942537 0.01788658
v 0.01204617 0.09999697 0.00682240
v 0.01204617 0.09999697 0.00682240
v 0.01204617 0.09999697 0.01356105
v 0.01204617 0.09999697 0.01356105
v 0.00012138 -0.09999393 0.00708095
v 0.00012138 -0.09999393 0.01330068
v -0.03908513 0.08366957 0.00249687
v -0.03908513 0.08366957 0.00249687
v -0.03908513 0.08366957 0.01788658
v -0.03908513 0.08366957 0.01788658
v -0.00443720 -0.00168846 0.00506779
v -0.00443720 -0.00168846 0.00506779
v -0.00443720 -0.00168846 0.00506779
v -0.00443720 -0.00168846 0.00506779
v -0.00443720 -0.00168846 0.01531384
v -0.00443720 -0.00168846 0.01531384
v -0.00443720 -0.00168846 0.01531384
v -0.00443720 -0.00168846 0.01531384
v -0.03659918 0.08106223 0.01180948
v -0.03659918 0.08106223 0.01180948
v -0.03659918 0.08106223 0.00857398
v -0.03659918 0.08106223 0.00857398
v -0.04309991 0.08016642 0.01140709
v -0.04309991 0.08016642 0.01140709
v -0.04309991 0.08016642 0.00897637
v -0.04309991 0.08016642 0.00897637
v -0.00367430 0.03869730 0.01147385
v -0.00367430 0.03869730 0.00890778
v 0.00700751 -0.09975177 0.00540221
v 0.00700751 -0.09975905 0.01497943
v -0.00761140 -0.09820230 0.00756770
v -0.00761140 -0.09820230 0.00756770
v -0.00761140 -0.09820230 0.00756770
v -0.00761140 -0.09820230 0.01281393
v -0.00761140 -0.09820230 0.01281393
v -0.00761140 -0.09820230 0.01281393
v -0.00796099 0.08707622 0.00152094
v -0.00796099 0.08707622 0.01886251
v 0.01950099 0.08397060 0.00766056
v 0.01950099 0.08397060 0.01272168
v 0.00283736 0.08686804 0.01918539
v 0.00283736 0.08686804 0.00119806
v 0.04669106 0.08234709 0.01673646
v 0.04669106 0.09740420 0.01501038
v 0.04669106 0.09740420 0.00537307
v 0.04669106 0.07987206 0.01019203
v 0.04669106 0.09613027 0.01674071
v 0.04669106 0.08600986 0.01903791
v 0.04669106 0.09246871 0.00134433
v 0.04669106 0.08107862 0.00537186
v 0.04669106 0.08107862 0.01501220
v 0.04669106 0.08601653 0.00134312
v 0.04669106 0.08235133 0.00364213
v 0.04669106 0.09860954 0.01019203
v 0.04669106 0.09613148 0.00364335
v 0.04669106 0.09246629 0.01904034
v 0.00979025 -0.00131581 0.00543923
v 0.00979025 -0.00131581 0.00543923
v 0.00979025 -0.00133280 0.01494180
v 0.00979025 -0.00133280 0.01494180
v 0.01338868 0.07976403 0.01019082
v 0.01032009 0.07975614 0.01512266
v 0.01032009 0.07975614 0.01512266
v 0.01016472 0.09890633 0.00220070
v 0.01016472 0.09890633 0.00220070
v 0.01016472 0.09890633 0.01818276
v 0.01016472 0.09890633 0.01818276
v 0.03287389 0.09838620 0.01019203
v 0.03287389 0.08009541 0.01019203
v 0.01419043 -0.09102424 0.01019082
v -0.02589551 0.08273612 0.00746392
v -0.02589551 0.08273612 0.01291953
v 0.01477307 -0.09909994 0.00766542
v 0.01477307 -0.09909994 0.00766542
v 0.01477307 -0.09909994 0.01271682
v 0.01477307 -0.09909994 0.01271682
v 0.01558877 -0.09910054 0.01019082
v 0.01558877 -0.09910054 0.01019082
v 0.02728051 0.08715390 0.00397533
v 0.00951531 0.01936747 0.01163711
v 0.00951531 0.01936747 0.00874452
v -0.02587063 0.08274462 0.00247017
v -0.02587063 0.08274462 0.00247017
v -0.02587063 0.08274462 0.01791328
v -0.02587063 0.08274462 0.01791328
v 0.00796159 0.01936807 0.00635204
v 0.00796159 0.01936807 0.00635204
v 0.01087482 0.07488924 0.01019082
v 0.01087482 0.07488924 0.01019082
v 0.01491448 -0.09820715 0.00756649
v 0.01491448 -0.09820715 0.00756649
v 0.01491448 -0.09820715 0.00756649
v 0.01491448 -0.09820715 0.01281514
v 0.01491448 -0.09820715 0.01281514
v 0.01491448 -0.09820715 0.01281514
v -0.00691526 0.07977071 0.01236602
v 0.03287086 0.08629875 0.01885583
v 0.03287086 0.09217496 0.01885826
v 0.03287086 0.08630543 0.00152580
v 0.03287086 0.09217860 0.00152641
v 0.00948739 0.05591506 0.00860311
v 0.02758822 0.09584866 0.01019142
v -0.03741002 0.08225423 0.00249687
v -0.03741002 0.08225423 0.01788658
v 0.00795856 0.03868517 0.01404780
v 0.00795856 0.03868517 0.01404780
v 0.00795856 0.05590899 0.01396405
v 0.00795856 0.05590899 0.01396405
v 0.01238666 -0.08498295 0.01255356
v 0.01238666 -0.08498295 0.00782807
v -0.00113069 -0.00168846 0.00501378
v -0.00113069 -0.00168846 0.00501378
v -0.00113069 -0.00168846 0.01536786
v -0.00113069 -0.00168846 0.01536786
v -0.04168275 0.07883665 0.00838765
v -0.04168275 0.07883665 0.00838765
v -0.04168275 0.07883665 0.01199580
v -0.04168275 0.07883665 0.01199580
v 0.00287013 -0.09102424 0.00492335
v 0.00287013 -0.09102424 0.01545829
v -0.00664640 -0.00168846 0.00780501
v -0.00664640 -0.00168846 0.00780501
v -0.00664640 -0.00168846 0.01257662
v -0.00664640 -0.00168846 0.01257662
v 0.00015112 0.01936868 0.00635204
v 0.00015112 0.01936929 0.01402838
v 0.01579088 -0.09820776 0.01019082
v 0.01579088 -0.09820776 0.01019082
v 0.01579088 -0.09820776 0.01019082
v -0.03909423 0.08370780 0.00712465
v -0.03909423 0.08370780 0.01325880
v 0.01928675 0.08478934 0.01443927
v 0.01928675 0.08478934 0.01443927
v -0.02594042 0.08653424 0.01791328
v 0.00715378 -0.09910479 0.01542491
v 0.00715378 -0.09909811 0.00495673
v -0.03176687 0.08248728 0.00880946
v -0.03176687 0.08248728 0.00880946
v -0.03176687 0.08248728 0.01157399
v -0.03176687 0.08248728 0.01157399
v 0.00563891 0.01935836 0.01402838
v 0.00563891 0.03869791 0.00633262
v -0.00271233 0.07488924 0.01396405
v -0.00271233 0.07488924 0.01396405
v -0.00271233 0.07488924 0.01396405
v -0.00271233 0.07488924 0.01396405
v -0.00271233 0.07488924 0.00641637
v -0.00271233 0.07488924 0.00641637
v -0.00271233 0.07488924 0.00641637
v -0.00271233 0.07488924 0.00641637
v 0.01002816 0.05591202 0.01019082
v 0.00379933 -0.09999454 0.01019082
v -0.03909727 0.08371873 0.00923127
v -0.03909727 0.08371873 0.00923127
v -0.03909727 0.08371873 0.01115218
v -0.03909727 0.08371873 0.01115218
v -0.03657247 0.08041829 0.00249687
v -0.03657247 0.08041829 0.00249687
v -0.03657247 0.08041829 0.01788658
v -0.03657247 0.08041829 0.01788658
v 0.01003909 0.03869184 0.01019082
v 0.02716883 0.09407766 0.00545744
v 0.02716883 0.09407766 0.00545744
v 0.02716883 0.09407766 0.01492602
v 0.02716883 0.09407766 0.01492602
v 0.00718959 -0.09820230 0.00480500
v 0.00718959 -0.09820230 0.00480500
v 0.00888472 -0.10000000 0.01315623
v 0.01412852 0.09890633 0.01019142
v 0.01335166 0.08349477 0.00482745
v 0.01335166 0.08349477 0.00482745
v 0.01296323 -0.00168846 0.01019082
v 0.01296323 -0.00168846 0.01019082
v 0.03285083 0.08268757 0.01663147
v 0.03285083 0.08268757 0.01663147
v 0.03285083 0.09579100 0.00374895
v 0.03285083 0.09579100 0.00374895
v 0.03285083 0.09579100 0.01663450
v 0.03285083 0.09579100 0.01663450
v 0.03285083 0.08269182 0.00374774
v 0.03285083 0.08269182 0.00374774
v 0.01026911 0.07488924 0.01210565
v 0.01026911 0.07488924 0.01210565
v 0.01026911 0.07488924 0.00827598
v 0.01026911 0.07488924 0.00827598
v 0.01504679 -0.09975238 0.01019082
v -0.00744328 -0.09909811 0.01271561
v -0.00744328 -0.09909811 0.01271561
v -0.00744328 -0.09909811 0.00766602
v -0.00744328 -0.09909811 0.00766602
v -0.04710195 0.07570494 0.00866320
v -0.04710195 0.07570494 0.00866320
v -0.04710195 0.07570494 0.00866320
v -0.04710195 0.07570494 0.00743297
v -0.04710195 0.07570494 0.00743297
v -0.04710195 0.07570494 0.00249687
v -0.04710195 0.07570494 0.00249687
v -0.04710195 0.07570494 0.00249687
v -0.04710195 0.07570494 0.01788658
v -0.04710195 0.07570494 0.01788658
v -0.04710195 0.07570494 0.01788658
v -0.04710195 0.07570494 0.01295049
v -0.04710195 0.07570494 0.01295049
v -0.04710195 0.07570494 0.01172026
v -0.04710195 0.07570494 0.01172026
v -0.04710195 0.07570494 0.01172026
v -0.02601022 0.09032325 0.00247017
v -0.02601022 0.09032325 0.01791328
v 0.01258573 0.07976403 0.01312225
v 0.01258573 0.07976403 0.00725939
v 0.00943945 0.09999697 0.00309044
v 0.00943945 0.09999697 0.00309044
v 0.00943945 0.09999697 0.00309044
v 0.00943945 0.09999697 0.01729301
v 0.00943945 0.09999697 0.01729301
v 0.00943945 0.09999697 0.01729301
v 0.00998325 -0.08498295 0.00532573
v 0.00998325 -0.08498295 0.00532573
v 0.00998325 -0.08499205 0.01505590
v 0.00998325 -0.08499205 0.01505590
v 0.00687581 0.07976403 0.00437408
v 0.01006093 0.01936625 0.01019082
v -0.00401418 -0.00131581 0.00591202
v -0.00401418 -0.00131581 0.00591202
v -0.00401418 -0.00131581 0.00591202
v -0.00401418 -0.00131581 0.00591202
v -0.00401418 -0.00131581 0.01446840
v -0.00401418 -0.00131581 0.01446840
v -0.00401418 -0.00131581 0.01446840
v -0.00401418 -0.00131581 0.01446840
v 0.00596846 0.07487953 0.01396405
v 0.00596846 0.07487953 0.01396405
v 0.02706019 0.08447738 0.01486350
v 0.02706019 0.08447738 0.01486350
v -0.00152823 -0.09820230 0.01557664
v -0.00152823 -0.09820230 0.01557664
v -0.00152823 -0.09820230 0.00480500
v -0.00152823 -0.09820230 0.00480500
v 0.00276938 -0.00131581 0.00536640
v 0.00276938 -0.00131581 0.01501523
v 0.00276938 -0.00131581 0.00591202
v 0.00276938 -0.00131581 0.00591202
v 0.00276938 -0.00131581 0.01446840
v 0.00276938 -0.00131581 0.01446840
v 0.01236359 -0.00131581 0.01019082
v 0.01236359 -0.00131581 0.01019082
v -0.00633383 -0.00131581 0.01235570
v -0.00425027 -0.00131581 0.01493998
v -0.00425027 -0.00131581 0.01493998
v -0.04313208 0.08011301 0.00249687
v -0.04313208 0.08011301 0.00249687
v -0.04313208 0.08011301 0.01788658
v -0.04313208 0.08011301 0.01788658
v 0.01309858 0.09890633 0.00640059
v 0.01309858 0.09890633 0.01398286
v 0.01162254 -0.09999272 0.01019082
v -0.02591372 0.08326900 0.00910564
v -0.02591372 0.08326900 0.00910564
v -0.02591372 0.08326900 0.01127842
v -0.02591372 0.08326900 0.01127842
v -0.00691951 -0.09975238 0.00794946
v -0.00691951 -0.09975238 0.01243218
v 0.01257966 -0.00131581 0.01019082
v -0.03354090 0.08798356 0.01096828
v -0.03354090 0.08798356 0.01096828
v -0.03354090 0.08798356 0.00941517
v -0.03354090 0.08798356 0.00941517
v 0.01423595 -0.09975238 0.00794946
v 0.01423595 -0.09975238 0.01243218
v -0.00363182 0.05592052 0.00888836
v -0.00363182 0.05592052 0.01149327
v -0.00506901 -0.09909811 0.01535025
v -0.00506901 -0.09909811 0.01535025
v -0.00506901 -0.09909811 0.00503138
v -0.00506901 -0.09909811 0.00503138
v 0.00289380 0.01936929 0.01402838
v 0.00289380 0.01936929 0.00635204
v 0.01142529 -0.09820351 0.00486083
v 0.01142529 -0.09820351 0.00486083
v 0.01142529 -0.09820351 0.00486083
v 0.01142529 -0.09820351 0.00486083
v 0.01029885 0.07976403 0.00525533
v 0.01029885 0.07976403 0.00525533
v -0.00481107 -0.09102424 0.01538121
v -0.00481107 -0.09102424 0.01538121
v -0.00481107 -0.09102424 0.00500042
v -0.00481107 -0.09102424 0.00500042
v -0.04213915 0.07942537 0.00249687
v 0.01325091 -0.08498295 0.01019082
v -0.00090189 -0.00131581 0.00591202
v -0.00090189 -0.00131581 0.00591202
v -0.00090189 -0.00131581 0.01446840
v -0.00090189 -0.00131581 0.01446840
v -0.00517461 -0.09820230 0.00486144
v -0.00517461 -0.09820230 0.00486144
v -0.00517461 -0.09820230 0.00486144
v -0.00517461 -0.09820230 0.00486144
v -0.00517461 -0.09820230 0.01552019
v -0.00517461 -0.09820230 0.01552019
v -0.00517461 -0.09820230 0.01552019
v -0.00517461 -0.09820230 0.01552019
v 0.01323695 -0.09102424 0.01273564
v 0.01323695 -0.09102424 0.00764599
v -0.00433403 -0.08498295 0.00532573
v -0.00433403 -0.08498295 0.00532573
v -0.00433403 -0.08498295 0.01505590
v -0.00433403 -0.08498295 0.01505590
v -0.00223651 -0.09999575 0.01315684
v -0.00223651 -0.09999575 0.00722479
v 0.00021060 0.05592416 0.01396405
v 0.00021060 0.05592295 0.00641637
v -0.01837029 0.08315065 0.00249687
v -0.01837029 0.08315065 0.00249687
v -0.01837029 0.08315065 0.01788658
v -0.01837029 0.08315065 0.01788658
v -0.01837029 0.08724798 0.00249687
v -0.01837029 0.08724798 0.01788658
v -0.01837029 0.09156744 0.00249687
v -0.01837029 0.09156744 0.01788658
v -0.01837029 0.09456927 0.00249687
v -0.01837029 0.09456927 0.00249687
v -0.01837029 0.09456927 0.01788658
v -0.01837029 0.09456927 0.01788658
v -0.01837029 0.09460508 0.01019871
v -0.01837029 0.09460508 0.01019871
v -0.01837029 0.09460508 0.01019871
v -0.01837029 0.08312637 0.01019385
v -0.01837029 0.08312637 0.01019385
v -0.01837029 0.08312637 0.01019385
v -0.01837029 0.08313426 0.01294867
v -0.01837029 0.08313426 0.00743479
v -0.01837029 0.09459476 0.00753007
v -0.01837029 0.09459476 0.01285338
v -0.03169343 0.08188765 0.00765024
v -0.03169343 0.08188765 0.01273321
v 0.00291565 0.07488924 0.01396405
v 0.00291565 0.07488924 0.01396405
v 0.00291565 0.07488924 0.00641637
v 0.00291565 0.07488924 0.00641637
v 0.01336441 0.08348992 0.01554932
v 0.01336441 0.08348992 0.01554932
v 0.01952648 0.08752595 0.01564036
v 0.01952648 0.08752959 0.00474248
v 0.02725623 0.08341102 0.01327094
v 0.02725623 0.08341102 0.00711251
v 0.01296202 0.09999697 0.01019142
v 0.01296202 0.09999697 0.01019142
v 0.01706541 0.09649685 0.01019142
v 0.00277120 -0.09909811 0.01545404
v 0.00277120 -0.09909811 0.00492759
v 0.00564558 0.05592416 0.00641637
v -0.00103541 -0.00131581 0.00538825
v -0.00103541 -0.00131581 0.01499338
v 0.01431849 0.08259046 0.00723511
v 0.01431849 0.08259046 0.01314652
v 0.04710195 0.08711142 0.00678902
v 0.04710195 0.08711142 0.01359443
v 0.04710195 0.08595099 0.01019203
v 0.04710195 0.09253305 0.01019142
v 0.04710195 0.09137261 0.00678902
v 0.04710195 0.09137261 0.01359443
v 0.03478873 0.09873882 0.01524768
v 0.03478873 0.09873882 0.01524768
v 0.03478873 0.09873882 0.00513638
v 0.03478873 0.09873882 0.00513638
v 0.03478873 0.08579015 0.00000000
v 0.03478873 0.08579015 0.00000000
v 0.03478873 0.09269509 0.00000182
v 0.03478873 0.09269509 0.00000182
v 0.03478873 0.08578105 0.02038042
v 0.03478873 0.08578105 0.02038042
v 0.03478873 0.09691198 0.00264678
v 0.03478873 0.09691198 0.00264678
v 0.03478873 0.09691198 0.00264678
v 0.03478873 0.09691198 0.01773667
v 0.03478873 0.09691198 0.01773667
v 0.03478873 0.09691198 0.01773667
v 0.03478873 0.09269085 0.02038285
v 0.03478873 0.09269085 0.02038285
v 0.03478873 0.07974400 0.01524890
v 0.03478873 0.07974400 0.01524890
v 0.03478873 0.07974400 0.00513455
v 0.03478873 0.07974400 0.00513455
v 0.03478873 0.08156659 0.01773303
v 0.03478873 0.08156659 0.01773303
v 0.03478873 0.08156659 0.01773303
v 0.03478873 0.07848100 0.01019203
v 0.03478873 0.07848100 0.01019203
v 0.03478873 0.07848100 0.01019203
v 0.03478873 0.10000000 0.01019203
v 0.03478873 0.10000000 0.01019203
v 0.03478873 0.08157144 0.00264557
v 0.03478873 0.08157144 0.00264557
v 0.03478873 0.08157144 0.00264557
v 0.00948800 0.05591506 0.01177852
v 0.00564255 0.03868759 0.01404780
v -0.01222522 0.08723523 0.00188753
v -0.01222522 0.08723523 0.01849593
v -0.01222522 0.09182356 0.00188753
v -0.01222522 0.09182356 0.01849593
v -0.01222522 0.08204302 0.01269558
v -0.01222522 0.08204302 0.00768666
v -0.01222522 0.09667771 0.00721629
v -0.01222522 0.09667771 0.00188753
v -0.01222522 0.09667771 0.00188753
v -0.01222522 0.09667771 0.01019385
v -0.01222522 0.09667771 0.01316655
v -0.01222522 0.09667771 0.01849593
v -0.01222522 0.09667771 0.01849593
v -0.01222522 0.08237440 0.01749269
v -0.01222522 0.08237440 0.01749269
v -0.01222522 0.08237440 0.00288955
v -0.01222522 0.08237440 0.00288955
v -0.00822439 0.08123096 0.01717163
v -0.00822439 0.08123096 0.01717163
v -0.00822439 0.08123096 0.00321001
v -0.00822439 0.08123096 0.00321001
v 0.00657478 -0.00131581 0.00538703
v 0.00657478 -0.00133280 0.01499460
v -0.03659371 0.08041404 0.01294867
v -0.03659371 0.08041404 0.00743479
v -0.00276149 0.09162449 0.00107486
v -0.00276149 0.09162449 0.01930860
v -0.00276149 0.09999697 0.01019324
v -0.00276149 0.09999697 0.01845041
v -0.00276149 0.09999697 0.01845041
v -0.00276149 0.09999697 0.01369761
v -0.00276149 0.09999697 0.00668585
v -0.00276149 0.09999697 0.00193304
v -0.00276149 0.09999697 0.00193304
v -0.00276149 0.09890633 0.01941359
v -0.00276149 0.09890633 0.00096986
v 0.04540378 0.09873882 0.01524768
v 0.04540378 0.09873882 0.01524768
v 0.04540378 0.09873882 0.00513638
v 0.04540378 0.09873882 0.00513638
v 0.04540378 0.08579015 0.00000000
v 0.04540378 0.08579015 0.00000000
v 0.04540378 0.09269509 0.00000182
v 0.04540378 0.09269509 0.00000182
v 0.04540378 0.08578105 0.02038042
v 0.04540378 0.08578105 0.02038042
v 0.04540378 0.09691198 0.00264678
v 0.04540378 0.09691198 0.00264678
v 0.04540378 0.09691198 0.01773667
v 0.04540378 0.09691198 0.01773667
v 0.04540378 0.09269085 0.02038285
v 0.04540378 0.09269085 0.02038285
v 0.04540378 0.07974400 0.01524890
v 0.04540378 0.07974400 0.01524890
v 0.04540378 0.07974400 0.00513455
v 0.04540378 0.07974400 0.00513455
v 0.04540378 0.08156659 0.01773303
v 0.04540378 0.08156659 0.01773303
v 0.04540378 0.07848100 0.01019203
v 0.04540378 0.07848100 0.01019203
v 0.04540378 0.07848100 0.01019203
v 0.04540378 0.10000000 0.01019203
v 0.04540378 0.10000000 0.01019203
v 0.04540378 0.08157144 0.00264557
v 0.04540378 0.08157144 0.00264557
v -0.00147967 -0.09909811 0.01542491
v -0.00147967 -0.09909811 0.00495673
v -0.04164330 0.07832684 0.00249687
v -0.04164330 0.07832684 0.00249687
v -0.04164330 0.07832684 0.01788658
v -0.04164330 0.07832684 0.01788658
v -0.03166066 0.08189736 0.00249748
v -0.03166066 0.08189736 0.00249748
v -0.03166066 0.08189736 0.01788597
v -0.03166066 0.08189736 0.01788597
v 0.01972858 0.09486059 0.00731097
v 0.01972858 0.09486059 0.01307248
v -0.03350024 0.08798478 0.00746817
v -0.03350024 0.08798478 0.01291468
v 0.01959810 0.08364226 0.01019142
v -0.00212908 0.03868820 0.01404780
v -0.00212908 0.03868820 0.01404780
v -0.00212908 0.03868820 0.00633262
v -0.00212908 0.03868820 0.00633262
v -0.02593982 0.08653424 0.00247017
v 0.01107753 -0.09975905 0.01485379
v 0.01107753 -0.09975238 0.00552784
v 0.01426265 0.09611388 0.01657017
v 0.01426265 0.09611388 0.01657017
v 0.01426265 0.09611388 0.00381329
v 0.01426265 0.09611388 0.00381329
v 0.00644126 -0.00131581 0.00591202
v 0.00644126 -0.00131581 0.00591202
v 0.00644126 -0.00133280 0.01446840
v 0.00644126 -0.00133280 0.01446840
v 0.01982812 0.09517133 0.01019142
v 0.00596118 0.07488924 0.00641637
v 0.00596118 0.07488924 0.00641637
v 0.00600002 -0.09999939 0.01330068
v 0.00565044 0.05591202 0.01396405
v 0.01415705 0.08722613 0.01694100
v 0.01415705 0.09128764 0.01694160
v 0.01415705 0.09128947 0.00344185
v 0.01415705 0.08723159 0.00344185
v -0.00609410 -0.00131581 0.00819526
v -0.00609410 -0.00131581 0.00819526
v -0.00609410 -0.00131581 0.01218637
v -0.00609410 -0.00131581 0.01218637
v 0.02746622 0.09512946 0.01331525
v 0.02746622 0.09512946 0.00706821
v 0.00719020 -0.09820898 0.01557664
v 0.00719020 -0.09820898 0.01557664
v -0.03336186 0.08798599 0.00249748
v -0.03336186 0.08798599 0.00249748
v -0.03336186 0.08798599 0.01788597
v -0.03336186 0.08798599 0.01788597
v -0.04687921 0.07553621 0.01171419
v -0.04687921 0.07553621 0.01171419
v -0.04687921 0.07553621 0.00866926
v -0.04687921 0.07553621 0.00866926
v -0.04687921 0.07553500 0.00743357
v -0.04687921 0.07553500 0.01294988
v -0.04687921 0.07553500 0.00249687
v -0.04687921 0.07553500 0.00249687
v -0.04687921 0.07553500 0.01788658
v -0.04687921 0.07553500 0.01788658
v 0.00563648 0.01936868 0.00635204
v -0.04167425 0.07830985 0.01294867
v -0.04167425 0.07830985 0.00743479
v 0.03286540 0.09732773 0.00588714
v 0.03286540 0.09732773 0.01449632
v 0.03286540 0.08115509 0.01449753
v 0.03286540 0.08115509 0.00588592
v 0.01218698 -0.00168846 0.00780501
v 0.01218698 -0.00168846 0.00780501
v 0.01218698 -0.00168846 0.01257662
v 0.01218698 -0.00168846 0.01257662
v -0.00443781 0.07488924 0.00869840
v -0.00443781 0.07488924 0.00869840
v -0.00443781 0.07488924 0.01168263
v -0.00443781 0.07488924 0.01168263
v -0.00913781 0.08075574 0.01250379
v -0.00913781 0.08075574 0.00787784
v 0.00888533 -0.09999393 0.00722540
v 0.00277302 -0.09820230 0.01559909
v 0.00277302 -0.09820230 0.01559909
v 0.00277302 -0.09820230 0.00478254
v 0.00277302 -0.09820230 0.00478254
v -0.00701540 -0.09102424 0.01273564
v -0.00701540 -0.09102424 0.00764599
v 0.00292840 0.05592537 0.00641637
v 0.00292840 0.05592598 0.01396405
v -0.00217399 0.01936383 0.01402838
v -0.00217399 0.01936383 0.01402838
v -0.00217399 0.01936383 0.00635204
v -0.00217399 0.01936383 0.00635204
v -0.00372771 0.01937050 0.01153575
v -0.00372771 0.01937050 0.00884588
v 0.01952527 0.09098176 0.00474248
v 0.01952527 0.09097872 0.01564097
v 0.00704272 -0.09103213 0.01543644
v 0.00704272 -0.09102424 0.00494520
v 0.00276999 -0.00168846 0.00499193
v 0.00276999 -0.00168846 0.00499193
v 0.00276999 -0.00168846 0.01538970
v 0.00276999 -0.00168846 0.01538970
v -0.03222752 0.08467888 0.00249748
v -0.03222752 0.08467888 0.01788597
v 0.00688734 0.07975614 0.01600391
v 0.02727990 0.08714844 0.01640630
v 0.00955355 -0.00131581 0.00591202
v 0.00955355 -0.00131581 0.00591202
v 0.00955355 -0.00131581 0.00591202
v 0.00955355 -0.00131581 0.00591202
v 0.00955355 -0.00133280 0.01446840
v 0.00955355 -0.00133280 0.01446840
v 0.00955355 -0.00133280 0.01446840
v 0.00955355 -0.00133280 0.01446840
v -0.00633322 -0.00131581 0.00802593
v 0.00291140 0.03869852 0.00633262
v 0.00291140 0.03869912 0.01404780
v 0.00854363 0.07488924 0.00641637
v 0.00854363 0.07488924 0.00641637
v 0.00854363 0.07488924 0.00641637
v 0.00854363 0.07488924 0.00641637
v -0.00652744 -0.08498295 0.01255356
v -0.00652744 -0.08498295 0.00782807
v -0.00424966 -0.00131581 0.00544166
v -0.00424966 -0.00131581 0.00544166
v -0.02607941 0.09185572 0.00247017
v -0.02607941 0.09185572 0.00247017
v -0.02607941 0.09185572 0.01791328
v -0.02607941 0.09185572 0.01791328
v -0.00368098 -0.09999636 0.01156974
v -0.00368098 -0.09999636 0.00881189
v -0.04310659 0.08015549 0.00737774
v -0.04310659 0.08015549 0.01300572
v 0.01634803 0.09634269 0.01378136
v 0.01634803 0.09634269 0.00660209
v -0.00767088 0.09852093 0.01896386
v -0.00767088 0.09852093 0.01896386
v -0.00767088 0.09852093 0.00141959
v -0.00767088 0.09852093 0.00141959
v -0.00767088 0.09852882 0.00700630
v -0.00767088 0.09852882 0.01337715
v -0.00767088 0.09852882 0.01019385
v 0.02736548 0.08269849 0.01019142
v 0.01928614 0.08479359 0.00594055
v 0.01928614 0.08479359 0.00594055
v 0.01142590 -0.09821019 0.01552080
v 0.01142590 -0.09821019 0.01552080
v 0.01142590 -0.09821019 0.01552080
v 0.01142590 -0.09821019 0.01552080
v -0.00209145 0.05590656 0.01396405
v -0.00209145 0.05590656 0.01396405
v -0.00209145 0.05590656 0.00641637
v -0.00209145 0.05590656 0.00641637
v 0.01059624 -0.09103213 0.01538121
v 0.01059624 -0.09103213 0.01538121
v 0.01059624 -0.09102424 0.00500042
v 0.01059624 -0.09102424 0.00500042
v 0.01486897 0.08243570 0.01019082
v 0.00277484 -0.09975298 0.00537490
v 0.00277484 -0.09975298 0.01500674
v -0.00131763 -0.09975177 0.00540221
v -0.00131763 -0.09975238 0.01497943
v 0.00796584 0.01935776 0.01402838
v 0.00796584 0.01935776 0.01402838
v 0.00283857 0.07976403 0.01600391
v 0.00283857 0.07976403 0.00437408
v 0.00667007 -0.00168846 0.00501378
v 0.00667007 -0.00168846 0.00501378
v 0.00667007 -0.00170484 0.01536786
v 0.00667007 -0.00170484 0.01536786
v 0.01187502 -0.00131581 0.00802411
v 0.01187502 -0.00131581 0.01235753
v 0.00795188 0.03869609 0.00633262
v 0.00795188 0.03869609 0.00633262
v -0.00234150 0.08686804 0.01908828
v -0.00234150 0.08686804 0.00129517
v 0.00018329 0.03869791 0.01404780
v 0.00018329 0.03869791 0.00633262
v 0.00801561 0.08686258 0.01849775
v 0.00801561 0.09161235 0.01873748
v 0.00801561 0.09161599 0.00164597
v 0.00801561 0.08686804 0.00188570
v -0.00462231 0.07976403 0.01615382
v -0.00462231 0.07976403 0.01615382
v -0.00462231 0.07976403 0.00422357
v -0.00462231 0.07976403 0.00422357
v -0.02641322 0.09186301 0.01079167
v -0.02641322 0.09186301 0.01079167
v -0.02641322 0.09186301 0.00959421
v -0.02641322 0.09186301 0.00959421
v -0.00013049 0.07488924 0.01396405
v -0.00013049 0.07488924 0.01396405
v -0.00013049 0.07488924 0.00641637
v -0.00013049 0.07488924 0.00641637
v 0.00794885 0.05592052 0.00641637
v 0.00794885 0.05592052 0.00641637
v 0.02705959 0.08448102 0.00551691
v 0.02705959 0.08448102 0.00551691
v -0.00472792 -0.09975238 0.00552723
v -0.00472792 -0.09975238 0.01485440
v 0.00284646 0.09161902 0.00092980
v 0.00284646 0.09999697 0.01371217
v 0.00284646 0.09999697 0.00667128
v 0.00284646 0.09999697 0.01803710
v 0.00284646 0.09999697 0.01803710
v 0.00284646 0.09999697 0.01019264
v 0.00284646 0.09999697 0.00234636
v 0.00284646 0.09999697 0.00234636
v 0.00284646 0.09161781 0.01945365
v 0.00284646 0.09890633 0.01899118
v 0.00284646 0.09890633 0.00139228
v 0.00855638 0.07487953 0.01396405
v 0.00855638 0.07487953 0.01396405
v 0.00855638 0.07487953 0.01396405
v 0.00855638 0.07487953 0.01396405
v 0.01096464 -0.09999272 0.01156974
v 0.01096464 -0.09999272 0.00881189
v 0.02727869 0.09134227 0.00397655
v 0.02727869 0.09133984 0.01640751
v -0.02633856 0.09186118 0.01299297
v -0.02633856 0.09186118 0.00739048
v -0.00105179 -0.08498355 0.00527475
v -0.00105179 -0.08498355 0.01510688
v 0.00281854 -0.08498416 0.01512691
v 0.00281854 -0.08498416 0.00525472
v -0.00782443 0.09173070 0.00150941
v -0.00782443 0.09173070 0.01887404
v 0.01136399 -0.09909872 0.00503077
v 0.01136399 -0.09909872 0.00503077
v 0.01136399 -0.09910479 0.01535086
v 0.01136399 -0.09910479 0.01535086
v 0.00668888 -0.08498416 0.00527475
v 0.00668888 -0.08499326 0.01510688
v 0.00299880 -0.09999332 0.01335106
v 0.00299880 -0.09999332 0.00703058
v 0.01945426 0.09425610 0.00544408
v 0.01945426 0.09425610 0.00544408
v 0.01945426 0.09425610 0.01493937
v 0.01945426 0.09425610 0.01493937
v 0.00997657 -0.00168846 0.00506779
v 0.00997657 -0.00168846 0.00506779
v 0.00997657 -0.00168846 0.00506779
v 0.00997657 -0.00168846 0.00506779
v 0.00997657 -0.00170484 0.01531384
v 0.00997657 -0.00170484 0.01531384
v 0.00997657 -0.00170484 0.01531384
v 0.00997657 -0.00170484 0.01531384
v -0.00130185 -0.09102424 0.00494520
v -0.00130185 -0.09102424 0.01543644
v 0.00949650 0.03869366 0.01166321
v 0.00949650 0.03869366 0.00871782
v 0.00600063 -0.09999393 0.00708095
v 0.01163286 -0.00131581 0.00819526
v 0.01163286 -0.00131581 0.00819526
v 0.01163286 -0.00131581 0.01218637
v 0.01163286 -0.00131581 0.01218637
vt 0.47850400 0.08063400
vt 0.87058600 0.70367800
vt 0.76612400 0.55656900
vt 0.86791500 0.82623100
vt 0.07970900 0.03740400
vt 0.83541300 0.09394700
vt 0.07970900 0.01784300
vt 0.85557100 0.09394700
vt 0.96414300 0.94808700
vt 0.98269900 0.94808400
vt 0.82229000 0.25827300
vt 0.87934400 0.54164400
vt 0.85538900 0.81686000
vt 0.86869300 0.25827400
vt 0.48844200 0.66307100
vt 0.41718800 0.70966700
vt 0.91004700 0.53252000
vt 0.76569100 0.20180700
vt 0.48833100 0.69505600
vt 0.87479500 0.53252200
vt 0.00471100 0.77527700
vt 0.81702700 0.49263900
vt 0.38683700 0.06888600
vt 0.62170700 0.02819900
vt 0.38689300 0.07788500
vt 0.43012000 0.03868300
vt 0.64094800 0.02406700
vt 0.84939700 0.27432100
vt 0.41088200 0.03455200
vt 0.84158600 0.27432100
vt 0.92407900 0.42671100
vt 0.93170400 0.42671200
vt 0.95908400 0.96861800
vt 0.98775600 0.96861500
vt 0.90004200 0.24324000
vt 0.96348100 0.92265200
vt 0.96554600 0.92174900
vt 0.98129900 0.92174900
vt 0.98336100 0.92265500
vt 0.88462900 0.24328100
vt 0.78597100 0.53282800
vt 0.84679300 0.72346900
vt 0.98332800 0.84062300
vt 0.96753900 0.84063300
vt 0.84770400 0.69168300
vt 0.75418300 0.53366400
vt 0.55044200 0.06139800
vt 0.50585500 0.05647100
vt 0.50575600 0.02778300
vt 0.55787300 0.04195400
vt 0.50974800 0.06155600
vt 0.53970900 0.06828300
vt 0.52045600 0.01587100
vt 0.55416300 0.02763500
vt 0.55426000 0.05629900
vt 0.53951300 0.01574100
vt 0.55029600 0.02254700
vt 0.50212800 0.04214000
vt 0.50961200 0.02267400
vt 0.52064300 0.06828700
vt 0.47600000 0.70756600
vt 0.37461700 0.70806000
vt 0.00303800 0.73272700
vt 0.50556000 0.70756300
vt 0.97544500 0.86662700
vt 0.87135300 0.66894900
vt 0.95830900 0.87213600
vt 0.08244100 0.05180700
vt 0.73167800 0.49849200
vt 0.08244100 0.00344100
vt 0.81258500 0.66909700
vt 0.00893900 0.02762400
vt 0.97540100 0.79804600
vt 0.62638200 0.12066200
vt 0.41917300 0.08131500
vt 0.41917100 0.06555600
vt 0.96511700 0.99244500
vt 0.96554800 0.99270000
vt 0.98130100 0.99269900
vt 0.98172900 0.99244600
vt 0.97310300 0.99523700
vt 0.97374600 0.99523700
vt 0.67842000 0.53591900
vt 0.91709800 0.70508100
vt 0.92639300 0.70500300
vt 0.41915200 0.09612100
vt 0.83986000 0.54504700
vt 0.41919900 0.05073000
vt 0.85888500 0.77738500
vt 0.93493200 0.70466800
vt 0.91297400 0.83229000
vt 0.97544400 0.88297600
vt 0.92032200 0.53863100
vt 0.61845500 0.09957300
vt 0.96304900 0.99423400
vt 0.96453400 0.99523900
vt 0.98231500 0.99523700
vt 0.98379500 0.99423700
vt 0.63434400 0.09958500
vt 0.47869100 0.06648800
vt 0.85311400 0.59703800
vt 0.83523600 0.59644300
vt 0.65952500 0.53884100
vt 0.65897200 0.52097100
vt 0.92583900 0.59548900
vt 0.02701900 0.02762400
vt 0.87440300 0.54595900
vt 0.85971600 0.81192900
vt 0.90810900 0.64722300
vt 0.22856000 0.08545700
vt 0.90780300 0.59577300
vt 0.17703500 0.08554000
vt 0.63397400 0.13947000
vt 0.61875300 0.13945300
vt 0.75579800 0.20180400
vt 0.40729100 0.70979700
vt 0.00482100 0.76538400
vt 0.80713500 0.49264400
vt 0.41357400 0.03999000
vt 0.37054500 0.07926100
vt 0.37047200 0.06745400
vt 0.63825500 0.02950600
vt 0.74377800 0.46908500
vt 0.79504500 0.22537900
vt 0.89950500 0.53252700
vt 0.48278000 0.67179000
vt 0.88533900 0.53252700
vt 0.48264500 0.68594800
vt 0.88961000 0.83229100
vt 0.28638300 0.10872100
vt 0.97444300 0.99789700
vt 0.62640000 0.09906000
vt 0.97240700 0.99789700
vt 0.83613500 0.25829500
vt 0.85484800 0.25829500
vt 0.85741400 0.64130500
vt 0.96183900 0.84082900
vt 0.84754800 0.77738400
vt 0.99011900 0.96906500
vt 0.95672200 0.96907000
vt 0.44518100 0.03931100
vt 0.40178600 0.07690200
vt 0.40174700 0.06991900
vt 0.60664400 0.02882700
vt 0.28638800 0.09230500
vt 0.90602700 0.89011200
vt 0.49847700 0.06137800
vt 0.88639100 0.70824500
vt 0.12030600 0.11755300
vt 0.91497300 0.53439400
vt 0.77065400 0.57238800
vt 0.88104400 0.99837200
vt 0.49847700 0.08589300
vt 0.94075900 0.53439900
vt 0.92081000 0.59550600
vt 0.97342100 0.95905200
vt 0.42571900 0.02852300
vt 0.84243800 0.25831500
vt 0.84854500 0.25831500
vt 0.62611000 0.01803700
vt 0.87198600 0.55149100
vt 0.38690600 0.09635000
vt 0.38691000 0.05039600
vt 0.86525400 0.80952500
vt 0.92125000 0.64709500
vt 0.02928400 0.04312100
vt 0.67906100 0.51340100
vt 0.02928400 0.01212800
vt 0.82761400 0.61651600
vt 0.95400800 0.96920800
vt 0.73085500 0.49055300
vt 0.98227900 0.97422100
vt 0.07284200 0.02762400
vt 0.72212100 0.54607800
vt 0.99376700 0.85823300
vt 0.49078000 0.69883600
vt 0.62612300 0.38980400
vt 0.95558200 0.80125200
vt 0.86506800 0.60047400
vt 0.01217300 0.04795600
vt 0.66162700 0.50876100
vt 0.82301100 0.59907400
vt 0.01217300 0.00729100
vt 0.99524100 0.80122700
vt 0.66293300 0.55080700
vt 0.91434700 0.53876100
vt 0.96975000 0.88391000
vt 0.92629900 0.53865800
vt 0.98113800 0.88391100
vt 0.97342400 0.99271200
vt 0.98100400 0.92448400
vt 0.98160300 0.92477300
vt 0.96524000 0.92477100
vt 0.96584000 0.92448400
vt 0.39508700 0.04305400
vt 0.35163400 0.08014500
vt 0.84054500 0.29224400
vt 0.83686400 0.29222200
vt 0.35188300 0.08371800
vt 0.82209700 0.29213700
vt 0.90370900 0.56507800
vt 0.35281500 0.09804600
vt 0.87876600 0.84127900
vt 0.35278000 0.04858700
vt 0.86888600 0.29213700
vt 0.85411900 0.29222200
vt 0.35180000 0.06293100
vt 0.85043800 0.29224400
vt 0.65674500 0.03257100
vt 0.35153900 0.06650700
vt 0.83991200 0.52237200
vt 0.83621100 0.77738400
vt 0.96630500 0.86810500
vt 0.98458500 0.86810400
vt 0.82424900 0.10174500
vt 0.08592300 0.04889400
vt 0.73351800 0.49413500
vt 0.08592300 0.00635300
vt 0.80822400 0.67092700
vt 0.86673400 0.10174600
vt 0.72250100 0.45097900
vt 0.60838300 0.13999500
vt 0.64435600 0.14000700
vt 0.77377300 0.24346400
vt 0.74202200 0.55644700
vt 0.92174600 0.70513100
vt 0.49033800 0.66570700
vt 0.41592400 0.70667900
vt 0.87715000 0.77040200
vt 0.94300400 0.30648400
vt 0.00171800 0.77402000
vt 0.49033800 0.69236500
vt 0.34829600 0.12108200
vt 0.91283300 0.30648200
vt 0.88639800 0.68219800
vt 0.12029300 0.09158400
vt 0.96049200 0.81829800
vt 0.85932700 0.61795900
vt 0.80819000 0.20390400
vt 0.99282200 0.94311300
vt 0.95401800 0.94312000
vt 0.75693000 0.49055700
vt 0.39562200 0.70826400
vt 0.00326500 0.75372700
vt 0.89744300 0.77040200
vt 0.39562400 0.70663100
vt 0.00163000 0.75373000
vt 0.34826300 0.10078800
vt 0.92226900 0.76754400
vt 0.49077800 0.70103000
vt 0.48412000 0.68522700
vt 0.48942900 0.69374700
vt 0.00313300 0.77471800
vt 0.82220000 0.27439100
vt 0.89162200 0.55208600
vt 0.86580200 0.82916200
vt 0.86878200 0.27439100
vt 0.07538400 0.03883400
vt 0.07538400 0.01641300
vt 0.97342300 0.98242200
vt 0.46251200 0.04277700
vt 0.41931500 0.07618300
vt 0.58931100 0.03229300
vt 0.41929600 0.07069300
vt 0.96669200 0.92700200
vt 0.98015200 0.92700200
vt 0.49077900 0.70040900
vt 0.84788900 0.23736500
vt 0.60621800 0.01147200
vt 0.44560800 0.02195900
vt 0.84309400 0.23736500
vt 0.96669300 0.99028000
vt 0.98015500 0.99027900
vt 0.93176400 0.47808000
vt 0.92399100 0.47807300
vt 0.98950200 0.93192800
vt 0.98987000 0.93255500
vt 0.95696800 0.93255900
vt 0.95733600 0.93193000
vt 0.28636900 0.10051600
vt 0.89781500 0.83229200
vt 0.71818600 0.49054900
vt 0.95424000 0.98189600
vt 0.95494700 0.98373300
vt 0.60596800 0.10162400
vt 0.73145700 0.55723500
vt 0.99263100 0.87215700
vt 0.87474100 0.26498700
vt 0.81801800 0.22537500
vt 0.91002900 0.26493500
vt 0.76675200 0.46908400
vt 0.88868600 0.55419200
vt 0.62636400 0.13927100
vt 0.88646100 0.77040200
vt 0.40661000 0.70664900
vt 0.00167000 0.76470900
vt 0.34828100 0.11177200
vt 0.95424400 0.93219300
vt 0.95536500 0.93000100
vt 0.91073200 0.24381600
vt 0.76783700 0.49055500
vt 0.87395600 0.24389900
vt 0.99147200 0.93000000
vt 0.99259400 0.93218800
vt 0.81909700 0.20390300
vt 0.63443300 0.12112600
vt 0.61833100 0.12111200
vt 0.90949500 0.28286600
vt 0.76533500 0.45098700
vt 0.87532800 0.28285200
vt 0.81660600 0.24347100
vt 0.98227200 0.94105200
vt 0.96456800 0.94105600
vt 0.17702700 0.10871700
vt 0.88978900 0.94164000
vt 0.44137900 0.09636200
vt 0.81740600 0.54419600
vt 0.44145600 0.05056000
vt 0.85808600 0.75492900
vt 0.81720800 0.53193800
vt 0.84582900 0.75470300
vt 0.81700300 0.51901900
vt 0.83291100 0.75446700
vt 0.82247300 0.18770900
vt 0.81685700 0.51004000
vt 0.82393300 0.75430000
vt 0.86851000 0.18771000
vt 0.84551200 0.18767600
vt 0.49500500 0.01798000
vt 0.55681600 0.00749300
vt 0.56786000 0.03998200
vt 0.44178700 0.07347200
vt 0.48396100 0.05046400
vt 0.44167700 0.06527200
vt 0.44164900 0.08167600
vt 0.83753000 0.18768500
vt 0.85345300 0.18768500
vt 0.40166400 0.08078100
vt 0.40163700 0.06603400
vt 0.88640100 0.69136000
vt 0.12027900 0.10071700
vt 0.89787900 0.99837200
vt 0.75376900 0.57235800
vt 0.95715500 0.85822200
vt 0.86021400 0.65960900
vt 0.84821600 0.64047700
vt 0.70297500 0.53404300
vt 0.96595700 0.81704300
vt 0.98487500 0.81702900
vt 0.07748500 0.02762400
vt 0.84549200 0.09120900
vt 0.06133800 0.02762400
vt 0.99021100 0.95598200
vt 0.95663500 0.95598600
vt 0.90604600 0.94164100
vt 0.40700500 0.70821900
vt 0.00324200 0.76510200
vt 0.98542000 0.85768200
vt 0.96546900 0.85768600
vt 0.53628300 0.03192900
vt 0.53635500 0.05212700
vt 0.53978200 0.04201500
vt 0.52021800 0.04207900
vt 0.52364500 0.03197400
vt 0.52371900 0.05215600
vt 0.00319000 0.01297900
vt 0.91891500 0.91387600
vt 0.00319000 0.04226800
vt 0.91891500 0.88270400
vt 0.65235100 0.54030200
vt 0.91891500 0.83792600
vt 0.65160500 0.52003900
vt 0.91891500 0.85858200
vt 0.85459300 0.58986800
vt 0.91891500 0.95867800
vt 0.00567700 0.05056500
vt 0.65499600 0.50613500
vt 0.91891500 0.87346900
vt 0.82039900 0.59243800
vt 0.00567700 0.00468300
vt 0.91891500 0.92311100
vt 0.83432100 0.58907400
vt 0.91891500 0.93801100
vt 0.96109300 0.79246600
vt 0.91891500 0.98278100
vt 0.98970000 0.79244400
vt 0.91891500 0.81379800
vt 0.95301600 0.79491500
vt 0.91891500 0.97356600
vt 0.86807300 0.59411200
vt 0.97539600 0.79091900
vt 0.91891500 0.99837200
vt 0.91891500 0.79820700
vt 0.00163400 0.02762400
vt 0.91891500 0.89829000
vt 0.65656400 0.55379700
vt 0.91891500 0.82303400
vt 0.99779900 0.79488800
vt 0.91578100 0.59557300
vt 0.22856500 0.09238500
vt 0.79872500 0.53226300
vt 0.84619800 0.73622100
vt 0.79853300 0.51854600
vt 0.83248200 0.73599700
vt 0.46054200 0.06585500
vt 0.46050500 0.08118500
vt 0.83659200 0.16827600
vt 0.82065000 0.16827600
vt 0.79827500 0.50404900
vt 0.84549800 0.16827600
vt 0.85439100 0.16827600
vt 0.81798600 0.73570500
vt 0.87033300 0.16827600
vt 0.86106200 0.73658500
vt 0.45986500 0.05137800
vt 0.79905400 0.54712700
vt 0.45975400 0.09560700
vt 0.47219700 0.05181700
vt 0.86493700 0.72467500
vt 0.47202100 0.09522300
vt 0.78713500 0.55097300
vt 0.38423900 0.70820200
vt 0.00319900 0.74234800
vt 0.38635600 0.06503600
vt 0.38640000 0.08172800
vt 0.77044600 0.51958000
vt 0.83358200 0.70791300
vt 0.84549600 0.13824200
vt 0.80815200 0.70730900
vt 0.87019600 0.13824300
vt 0.85597900 0.13824200
vt 0.83500400 0.13824200
vt 0.82078700 0.13824300
vt 0.76990100 0.49414800
vt 0.81244500 0.70734900
vt 0.76993200 0.49844200
vt 0.95066500 0.91387600
vt 0.50023200 0.05796700
vt 0.95066500 0.88270400
vt 0.50012200 0.02632600
vt 0.54063600 0.01014800
vt 0.95066500 0.83792600
vt 0.95066500 0.85858200
vt 0.51934200 0.01015400
vt 0.54087500 0.07386700
vt 0.95066500 0.95867800
vt 0.95066500 0.87346900
vt 0.50595200 0.01831200
vt 0.95066500 0.92311100
vt 0.50611600 0.06594000
vt 0.95066500 0.93801100
vt 0.51957100 0.07401100
vt 0.95066500 0.98278200
vt 0.55987900 0.05774300
vt 0.95066500 0.81379800
vt 0.55977200 0.02615300
vt 0.95066500 0.97356600
vt 0.55410000 0.06571800
vt 0.56366200 0.04193500
vt 0.95066500 0.99837200
vt 0.95066500 0.79820700
vt 0.95066500 0.89829000
vt 0.49632800 0.04216000
vt 0.95066500 0.82303400
vt 0.55392400 0.01820200
vt 0.99011000 0.94329400
vt 0.95673100 0.94329900
vt 0.37086500 0.09696100
vt 0.88725400 0.55750200
vt 0.87122800 0.82480700
vt 0.37085000 0.04973100
vt 0.85722200 0.54730500
vt 0.40194200 0.09601900
vt 0.86110200 0.79475200
vt 0.40196500 0.05077600
vt 0.05169500 0.03670400
vt 0.05169500 0.01854400
vt 0.83727200 0.23723800
vt 0.85371100 0.23723800
vt 0.97543300 0.84056700
vt 0.91514700 0.42670300
vt 0.22859900 0.11563400
vt 0.88279000 0.89008300
vt 0.94063700 0.42671000
vt 0.83988600 0.53370900
vt 0.98742600 0.98078500
vt 0.95942000 0.98079000
vt 0.82127200 0.65602900
vt 0.06811800 0.00754000
vt 0.71859000 0.50714900
vt 0.06811800 0.04770800
vt 0.38463800 0.70663000
vt 0.90842600 0.77040200
vt 0.00162500 0.74274900
vt 0.34829600 0.08980500
vt 0.05169000 0.02762400
vt 0.74462800 0.57230700
vt 0.90699100 0.99837200
vt 0.98270100 0.96561400
vt 0.17703500 0.09244400
vt 0.84811900 0.65757400
vt 0.83588800 0.65700500
vt 0.71953100 0.52175900
vt 0.72007200 0.53398400
vt 0.93384800 0.30573000
vt 0.48490100 0.67297900
vt 0.92198400 0.30573000
vt 0.48485700 0.68476200
vt 0.02778400 0.01774900
vt 0.02778400 0.03750000
vt 0.78211700 0.20389600
vt 0.99283200 0.96920200
vt 0.82240100 0.23682700
vt 0.86201600 0.52900800
vt 0.84279500 0.79950200
vt 0.86858200 0.23682800
vt 0.65629100 0.03327300
vt 0.35235100 0.06658500
vt 0.39554200 0.04375600
vt 0.35244500 0.08007000
vt 0.35269600 0.08366000
vt 0.35261400 0.06299100
vt 0.90305200 0.56559700
vt 0.35362800 0.09799300
vt 0.87928600 0.84062300
vt 0.35359400 0.04864200
vt 0.90601900 0.83229100
vt 0.36999000 0.06427600
vt 0.37005400 0.08243300
vt 0.01013800 0.04069900
vt 0.01013800 0.01454800
vt 0.96264500 0.79924400
vt 0.98816000 0.79922400
vt 0.61865600 0.38980700
vt 0.48362300 0.70075000
vt 0.49793400 0.70075700
vt 0.63359100 0.38982100
vt 0.49548900 0.07793800
vt 0.93228700 0.53462400
vt 0.92344500 0.53462200
vt 0.49541900 0.06922000
vt 0.47090000 0.06626500
vt 0.47081700 0.08083900
vt 0.96456500 0.97422500
vt 0.79532600 0.20390800
vt 0.99292500 0.95598400
vt 0.74406500 0.49055700
vt 0.95392200 0.95599000
vt 0.88485700 0.26447900
vt 0.89989000 0.26445600
vt 0.89791700 0.94164500
vt 0.17700800 0.10058800
vt 0.28641000 0.11567600
vt 0.91498500 0.36875600
vt 0.88265500 0.83227600
vt 0.94084000 0.36877600
vt 0.92384600 0.36847400
vt 0.93197700 0.36849000
vt 0.70247400 0.52326700
vt 0.83743400 0.63995100
vt 0.78256800 0.22536400
vt 0.73130100 0.46908100
vt 0.74413100 0.20180200
vt 0.39562100 0.70984300
vt 0.79546800 0.49264900
vt 0.00484300 0.75372100
vt 0.85878400 0.53895600
vt 0.85275000 0.79629400
vt 0.87054100 0.67954100
vt 0.85014800 0.61592600
vt 0.93768600 0.76649500
vt 0.47736100 0.70843800
vt 0.37532300 0.70664500
vt 0.91773600 0.77040200
vt 0.00162200 0.73343500
vt 0.90683400 0.76680700
vt 0.34828100 0.08049500
vt 0.50419500 0.70843800
vt 0.48419300 0.67251800
vt 0.89786700 0.89011400
vt 0.22854300 0.10055700
vt 0.93386100 0.53883300
vt 0.98788600 0.88661900
vt 0.91471500 0.99837200
vt 0.73687600 0.57223900
vt 0.88528900 0.28259000
vt 0.89952000 0.28262700
vt 0.48948200 0.66435700
vt 0.41662500 0.70809000
vt 0.82239200 0.21215700
vt 0.84004700 0.51778500
vt 0.83162300 0.77750800
vt 0.86859100 0.21215800
vt 0.97754300 0.93672500
vt 0.96929600 0.93673000
vt 0.83680300 0.27433200
vt 0.85417900 0.27433200
vt 0.06306300 0.01652700
vt 0.06306300 0.03872100
vt 0.87173100 0.15357800
vt 0.81280000 0.72188900
vt 0.81925300 0.15357800
vt 0.78447100 0.49883000
vt 0.83596400 0.15357000
vt 0.85501900 0.15357000
vt 0.84549700 0.15357000
vt 0.97541500 0.81629800
vt 0.70378600 0.54324000
vt 0.98904200 0.84081300
vt 0.76944800 0.20390300
vt 0.64683200 0.10163600
vt 0.99189600 0.98373400
vt 0.99260600 0.98189000
vt 0.91531700 0.47793300
vt 0.17708800 0.11560500
vt 0.88290100 0.94159000
vt 0.94044000 0.47794400
vt 0.77193800 0.22537300
vt 0.64530200 0.12237800
vt 0.72067200 0.46907500
vt 0.60746500 0.12236800
vt 0.97544300 0.85678800
vt 0.95900600 0.95599700
vt 0.98784000 0.95599400
vt 0.95909100 0.94380100
vt 0.98774900 0.94379600
vt 0.28637900 0.08534400
vt 0.90854600 0.70491900
vt 0.87059400 0.69162700
vt 0.75407300 0.55654800
vt 0.38395000 0.70977800
vt 0.73246400 0.20180000
vt 0.00477400 0.74205500
vt 0.78380200 0.49260400
vt 0.48439100 0.70216400
vt 0.49716400 0.70217000
vt 0.93440800 0.64696600
vt 0.91294400 0.89010600
vt 0.84758800 0.70686000
vt 0.76936000 0.53358400
vt 0.22855900 0.10871700
vt 0.88970600 0.89011100
vt 0.84820500 0.67644400
vt 0.83420500 0.67611100
vt 0.73864200 0.52012000
vt 0.73894200 0.53411300
vt 0.48363900 0.05371300
vt 0.87034100 0.71391900
vt 0.77636700 0.55634800
vt 0.48340600 0.09345000
vt 0.84728700 0.21309400
vt 0.58228100 0.00749300
vt 0.46954100 0.01798000
vt 0.84370300 0.21309400
vt 0.88641000 0.70049900
vt 0.12029400 0.10982900
vt 0.88876800 0.99837200
vt 0.76290800 0.57238800
vt 0.93384600 0.59551700
vt 0.91293600 0.94163000
vt 0.68043600 0.54510400
vt 0.99035300 0.81828100
vt 0.95942200 0.93360300
vt 0.98741700 0.93359900
vt 0.75399100 0.51979800
vt 0.85602300 0.12146800
vt 0.83496000 0.12146800
vt 0.80813200 0.69068400
vt 0.86896100 0.12146800
vt 0.84549400 0.12146800
vt 0.82202300 0.12146800
vt 0.75327600 0.49408900
vt 0.83384200 0.69145900
vt 0.81240100 0.69095400
vt 0.75353700 0.49835900
vt 0.90681800 0.53909300
vt 0.96303100 0.88661900
vt 0.88634800 0.67442900
vt 0.12028000 0.08384200
vt 0.97754700 0.98045100
vt 0.96929900 0.98045200
vt 0.67790300 0.52284400
vt 0.83706700 0.61537800
vt 0.85387200 0.21288100
vt 0.83711100 0.21288100
vt 0.75551600 0.45099000
vt 0.80678700 0.24347000
vt 0.79520800 0.24347300
vt 0.74393700 0.45099000
vt 0.78540300 0.51902500
vt 0.83299200 0.72286900
vt 0.95696600 0.98167000
vt 0.95721700 0.98219500
vt 0.98962700 0.98219300
vt 0.98988000 0.98166400
vt 0.73235700 0.45098600
vt 0.78362900 0.24345500
vt 0.98285100 0.95666300
vt 0.96399300 0.95666500
vt 0.05212200 0.04264400
vt 0.70226400 0.51295800
vt 0.05212200 0.01260400
vt 0.82711800 0.63971700
vt 0.72257200 0.20179800
vt 0.47469600 0.70649900
vt 0.37405400 0.70963300
vt 0.60810400 0.38982100
vt 0.64405700 0.38980500
vt 0.00460900 0.73216100
vt 0.77391000 0.49260900
vt 0.50686700 0.70650000
vt 0.75625600 0.46908600
vt 0.80752200 0.22537500
vt 0.91657200 0.64712700
vt 0.92592700 0.64704900
vt 0.96414200 0.96561600
vt 0.92853600 0.76725700
vt 0.48484700 0.70292200
vt 0.49670800 0.70292800
vt 0.91599700 0.76736400
f 405/405 334/334 332/332
f 345/345 501/501 643/643
f 601/601 691/691 427/427
f 292/292 469/469 523/523
f 514/514 591/591 211/211
f 470/470 4/4 525/525
f 515/515 212/212 592/592
f 490/490 503/503 645/645
f 66/66 345/345 643/643
f 601/601 435/435 429/429
f 406/406 405/405 332/332
f 419/419 648/648 639/639
f 648/648 2/2 639/639
f 335/335 406/406 332/332
f 646/646 174/174 286/286
f 644/644 502/502 488/488
f 646/646 504/504 174/174
f 644/644 488/488 71/71
f 69/69 490/490 645/645
f 569/569 66/66 643/643
f 225/225 646/646 286/286
f 3/3 649/649 640/640
f 42/42 419/419 639/639
f 649/649 421/421 640/640
f 421/421 41/41 640/640
f 426/426 690/690 603/603
f 434/434 436/436 603/603
f 156/156 9/9 699/699
f 156/156 544/544 681/681
f 156/156 681/681 260/260
f 156/156 260/260 680/680
f 156/156 680/680 172/172
f 156/156 172/172 499/499
f 156/156 499/499 698/698
f 156/156 698/698 10/10
f 156/156 10/10 312/312
f 156/156 312/312 594/594
f 156/156 594/594 595/595
f 156/156 595/595 313/313
f 156/156 313/313 9/9
f 156/156 716/716 544/544
f 156/156 699/699 716/716
f 436/436 426/426 603/603
f 435/435 601/601 427/427
f 561/561 124/124 545/545
f 561/561 545/545 511/511
f 246/246 492/492 422/422
f 246/246 422/422 243/243
f 124/124 713/713 239/239
f 124/124 239/239 545/545
f 506/506 227/227 588/588
f 506/506 588/588 579/579
f 618/618 561/561 511/511
f 618/618 511/511 610/610
f 492/492 573/573 62/62
f 492/492 62/62 422/422
f 658/658 3/3 630/630
f 658/658 630/630 343/343
f 719/719 578/578 64/64
f 719/719 64/64 636/636
f 565/565 118/118 687/687
f 565/565 687/687 688/688
f 177/177 537/537 113/113
f 177/177 113/113 293/293
f 634/634 565/565 688/688
f 634/634 688/688 697/697
f 686/686 115/115 563/563
f 686/686 563/563 689/689
f 710/710 634/634 697/697
f 710/710 697/697 224/224
f 689/689 563/563 632/632
f 689/689 632/632 696/696
f 113/113 537/537 708/708
f 113/113 708/708 223/223
f 309/309 18/18 115/115
f 309/309 115/115 686/686
f 114/114 222/222 707/707
f 114/114 707/707 534/534
f 587/587 125/125 17/17
f 587/587 17/17 308/308
f 696/696 632/632 704/704
f 696/696 704/704 221/221
f 38/38 37/37 194/194
f 38/38 194/194 191/191
f 127/127 125/125 587/587
f 127/127 587/587 586/586
f 118/118 22/22 311/311
f 118/118 311/311 687/687
f 406/406 335/335 316/316
f 406/406 316/316 417/417
f 318/318 334/334 405/405
f 318/318 405/405 415/415
f 288/288 549/549 40/40
f 288/288 40/40 302/302
f 549/549 550/550 35/35
f 549/549 35/35 40/40
f 74/74 306/306 99/99
f 74/74 99/99 132/132
f 572/572 718/718 635/635
f 572/572 635/635 61/61
f 713/713 289/289 305/305
f 713/713 305/305 239/239
f 295/295 246/246 243/243
f 295/295 243/243 356/356
f 250/250 719/719 636/636
f 250/250 636/636 267/267
f 232/232 508/508 251/251
f 232/232 251/251 252/252
f 241/241 548/548 354/354
f 241/241 354/354 467/467
f 467/467 354/354 623/623
f 467/467 623/623 625/625
f 625/625 623/623 699/699
f 625/625 699/699 9/9
f 284/284 95/95 77/77
f 284/284 77/77 693/693
f 693/693 77/77 272/272
f 693/693 272/272 487/487
f 487/487 272/272 681/681
f 487/487 681/681 544/544
f 96/96 133/133 81/81
f 96/96 81/81 78/78
f 78/78 81/81 190/190
f 78/78 190/190 272/272
f 272/272 190/190 260/260
f 272/272 260/260 681/681
f 131/131 97/97 79/79
f 131/131 79/79 82/82
f 82/82 79/79 273/273
f 82/82 273/273 190/190
f 190/190 273/273 680/680
f 190/190 680/680 260/260
f 98/98 612/612 694/694
f 98/98 694/694 80/80
f 80/80 694/694 486/486
f 80/80 486/486 273/273
f 273/273 486/486 172/172
f 273/273 172/172 680/680
f 613/613 512/512 139/139
f 613/613 139/139 695/695
f 695/695 139/139 34/34
f 695/695 34/34 486/486
f 486/486 34/34 499/499
f 486/486 499/499 172/172
f 512/512 546/546 353/353
f 512/512 353/353 139/139
f 139/139 353/353 624/624
f 139/139 624/624 34/34
f 34/34 624/624 698/698
f 34/34 698/698 499/499
f 546/546 240/240 466/466
f 546/546 466/466 353/353
f 353/353 466/466 626/626
f 353/353 626/626 624/624
f 624/624 626/626 10/10
f 624/624 10/10 698/698
f 240/240 304/304 277/277
f 240/240 277/277 466/466
f 466/466 277/277 664/664
f 466/466 664/664 626/626
f 626/626 664/664 312/312
f 626/626 312/312 10/10
f 303/303 39/39 192/192
f 303/303 192/192 276/276
f 276/276 192/192 266/266
f 276/276 266/266 664/664
f 664/664 266/266 594/594
f 664/664 594/594 312/312
f 191/191 194/194 265/265
f 191/191 265/265 266/266
f 266/266 265/265 595/595
f 266/266 595/595 594/594
f 228/228 295/295 356/356
f 228/228 356/356 589/589
f 36/36 299/299 279/279
f 36/36 279/279 193/193
f 193/193 279/279 663/663
f 193/193 663/663 265/265
f 265/265 663/663 313/313
f 265/265 313/313 595/595
f 298/298 241/241 467/467
f 298/298 467/467 278/278
f 278/278 467/467 625/625
f 278/278 625/625 663/663
f 663/663 625/625 9/9
f 663/663 9/9 313/313
f 170/170 283/283 692/692
f 170/170 692/692 140/140
f 140/140 692/692 487/487
f 140/140 487/487 33/33
f 33/33 487/487 544/544
f 33/33 544/544 716/716
f 548/548 170/170 140/140
f 548/548 140/140 354/354
f 354/354 140/140 33/33
f 354/354 33/33 623/623
f 623/623 33/33 716/716
f 623/623 716/716 699/699
f 343/343 630/630 225/225
f 343/343 225/225 497/497
f 151/151 649/649 3/3
f 151/151 3/3 658/658
f 538/538 1/1 650/650
f 538/538 650/650 153/153
f 147/147 647/647 100/100
f 147/147 100/100 541/541
f 655/655 2/2 648/648
f 655/655 648/648 148/148
f 340/340 629/629 2/2
f 340/340 2/2 655/655
f 235/235 569/569 629/629
f 235/235 629/629 340/340
f 678/678 66/66 569/569
f 678/678 569/569 235/235
f 187/187 213/213 67/67
f 187/187 67/67 677/677
f 92/92 65/65 213/213
f 92/92 213/213 187/187
f 189/189 214/214 65/65
f 189/189 65/65 92/92
f 583/583 287/287 214/214
f 583/583 214/214 189/189
f 497/497 225/225 286/286
f 497/497 286/286 585/585
f 42/42 691/691 404/404
f 42/42 404/404 402/402
f 607/607 349/349 533/533
f 607/607 533/533 73/73
f 169/169 683/683 102/102
f 169/169 102/102 182/182
f 675/675 69/69 645/645
f 675/675 645/645 665/665
f 674/674 71/71 219/219
f 674/674 219/219 668/668
f 645/645 503/503 504/504
f 645/645 504/504 646/646
f 83/83 682/682 104/104
f 83/83 104/104 103/103
f 661/661 83/83 103/103
f 661/661 103/103 185/185
f 335/335 332/332 262/262
f 335/335 262/262 75/75
f 414/414 402/402 321/321
f 414/414 321/321 319/319
f 337/337 327/327 413/413
f 337/337 413/413 411/411
f 529/529 120/120 520/520
f 529/529 520/520 521/521
f 528/528 471/471 526/526
f 528/528 526/526 522/522
f 317/317 320/320 401/401
f 317/317 401/401 416/416
f 336/336 328/328 410/410
f 336/336 410/410 407/407
f 516/516 479/479 135/135
f 516/516 135/135 14/14
f 326/326 323/323 404/404
f 326/326 404/404 412/412
f 338/338 142/142 25/25
f 338/338 25/25 425/425
f 324/324 336/336 407/407
f 324/324 407/407 408/408
f 271/271 478/478 134/134
f 271/271 134/134 158/158
f 121/121 528/528 522/522
f 121/121 522/522 518/518
f 339/339 475/475 163/163
f 339/339 163/163 424/424
f 478/478 513/513 11/11
f 478/478 11/11 134/134
f 316/316 335/335 75/75
f 316/316 75/75 86/86
f 86/86 75/75 338/338
f 86/86 338/338 473/473
f 334/334 318/318 88/88
f 334/334 88/88 76/76
f 76/76 88/88 475/475
f 76/76 475/475 339/339
f 274/274 539/539 154/154
f 274/274 154/154 617/617
f 332/332 334/334 76/76
f 332/332 76/76 264/264
f 143/143 339/339 424/424
f 143/143 424/424 23/23
f 264/264 76/76 339/339
f 264/264 339/339 143/143
f 478/478 271/271 654/654
f 478/478 654/654 685/685
f 75/75 262/262 142/142
f 75/75 142/142 338/338
f 513/513 478/478 685/685
f 513/513 685/685 590/590
f 590/590 685/685 336/336
f 590/590 336/336 324/324
f 479/479 516/516 593/593
f 479/479 593/593 684/684
f 684/684 593/593 327/327
f 684/684 327/327 337/337
f 268/268 479/479 684/684
f 268/268 684/684 651/651
f 651/651 684/684 337/337
f 651/651 337/337 328/328
f 685/685 654/654 328/328
f 685/685 328/328 336/336
f 479/479 268/268 159/159
f 479/479 159/159 135/135
f 528/528 121/121 23/23
f 528/528 23/23 424/424
f 568/568 474/474 89/89
f 568/568 89/89 138/138
f 138/138 89/89 319/319
f 138/138 319/319 321/321
f 411/411 410/410 328/328
f 411/411 328/328 337/337
f 211/211 591/591 325/325
f 211/211 325/325 322/322
f 402/402 404/404 323/323
f 402/402 323/323 321/321
f 567/567 472/472 161/161
f 567/567 161/161 107/107
f 30/30 596/596 198/198
f 30/30 198/198 197/197
f 596/596 254/254 200/200
f 596/596 200/200 198/198
f 597/597 28/28 208/208
f 597/597 208/208 206/206
f 257/257 597/597 206/206
f 257/257 206/206 205/205
f 473/473 338/338 425/425
f 473/473 425/425 162/162
f 529/529 468/468 162/162
f 529/529 162/162 425/425
f 471/471 528/528 424/424
f 471/471 424/424 163/163
f 596/596 30/30 158/158
f 596/596 158/158 134/134
f 120/120 529/529 425/425
f 120/120 425/425 25/25
f 254/254 596/596 134/134
f 254/254 134/134 11/11
f 597/597 257/257 14/14
f 597/597 14/14 135/135
f 28/28 597/597 135/135
f 28/28 135/135 159/159
f 4/4 470/470 164/164
f 4/4 164/164 108/108
f 468/468 529/529 521/521
f 468/468 521/521 524/524
f 209/209 27/27 122/122
f 209/209 122/122 517/517
f 195/195 519/519 119/119
f 195/195 119/119 29/29
f 491/491 599/599 476/476
f 491/491 476/476 700/700
f 371/371 373/373 443/443
f 371/371 443/443 442/442
f 570/570 238/238 179/179
f 570/570 179/179 101/101
f 395/395 367/367 437/437
f 395/395 437/437 462/462
f 682/682 167/167 181/181
f 682/682 181/181 104/104
f 359/359 622/622 480/480
f 359/359 480/480 44/44
f 349/349 662/662 184/184
f 349/349 184/184 533/533
f 106/106 509/509 531/531
f 106/106 531/531 72/72
f 510/510 106/106 72/72
f 510/510 72/72 530/530
f 237/237 348/348 532/532
f 237/237 532/532 178/178
f 683/683 570/570 101/101
f 683/683 101/101 102/102
f 358/358 175/175 609/609
f 358/358 609/609 43/43
f 509/509 168/168 183/183
f 509/509 183/183 531/531
f 373/373 378/378 447/447
f 373/373 447/447 443/443
f 385/385 392/392 460/460
f 385/385 460/460 453/453
f 383/383 375/375 446/446
f 383/383 446/446 451/451
f 397/397 371/371 442/442
f 397/397 442/442 464/464
f 393/393 387/387 455/455
f 393/393 455/455 461/461
f 344/344 359/359 44/44
f 344/344 44/44 137/137
f 375/375 389/389 457/457
f 375/375 457/457 446/446
f 367/367 381/381 449/449
f 367/367 449/449 437/437
f 157/157 26/26 141/141
f 157/157 141/141 270/270
f 160/160 24/24 122/122
f 160/160 122/122 27/27
f 270/270 141/141 261/261
f 270/270 261/261 653/653
f 653/653 261/261 333/333
f 653/653 333/333 329/329
f 330/330 331/331 263/263
f 330/330 263/263 652/652
f 652/652 263/263 144/144
f 652/652 144/144 269/269
f 269/269 144/144 24/24
f 269/269 24/24 160/160
f 119/119 26/26 157/157
f 119/119 157/157 29/29
f 469/469 292/292 107/107
f 469/469 107/107 161/161
f 292/292 255/255 12/12
f 292/292 12/12 107/107
f 256/256 4/4 108/108
f 256/256 108/108 13/13
f 4/4 256/256 203/203
f 4/4 203/203 525/525
f 474/474 568/568 108/108
f 474/474 108/108 164/164
f 568/568 515/515 13/13
f 568/568 13/13 108/108
f 518/518 522/522 207/207
f 518/518 207/207 210/210
f 514/514 567/567 107/107
f 514/514 107/107 12/12
f 87/87 485/485 320/320
f 87/87 320/320 317/317
f 485/485 211/211 322/322
f 485/485 322/322 320/320
f 472/472 567/567 485/485
f 472/472 485/485 87/87
f 567/567 514/514 211/211
f 567/567 211/211 485/485
f 403/403 401/401 320/320
f 403/403 320/320 322/322
f 592/592 212/212 323/323
f 592/592 323/323 326/326
f 212/212 138/138 321/321
f 212/212 321/321 323/323
f 515/515 568/568 138/138
f 515/515 138/138 212/212
f 521/521 520/520 196/196
f 521/521 196/196 199/199
f 522/522 526/526 204/204
f 522/522 204/204 207/207
f 524/524 521/521 199/199
f 524/524 199/199 202/202
f 255/255 292/292 523/523
f 255/255 523/523 201/201
f 630/630 3/3 640/640
f 630/630 640/640 46/46
f 46/46 640/640 426/426
f 46/46 426/426 665/665
f 643/643 501/501 502/502
f 643/643 502/502 644/644
f 225/225 630/630 46/46
f 225/225 46/46 646/646
f 646/646 46/46 665/665
f 646/646 665/665 645/645
f 629/629 569/569 643/643
f 629/629 643/643 45/45
f 45/45 643/643 644/644
f 45/45 644/644 673/673
f 2/2 629/629 45/45
f 2/2 45/45 639/639
f 639/639 45/45 673/673
f 639/639 673/673 427/427
f 52/52 361/361 365/365
f 52/52 365/365 60/60
f 363/363 364/364 49/49
f 363/363 49/49 58/58
f 488/488 502/502 560/560
f 488/488 560/560 703/703
f 387/387 397/397 464/464
f 387/387 464/464 455/455
f 60/60 365/365 48/48
f 60/60 48/48 51/51
f 598/598 489/489 702/702
f 598/598 702/702 477/477
f 50/50 54/54 360/360
f 50/50 360/360 362/362
f 55/55 50/50 362/362
f 55/55 362/362 361/361
f 54/54 57/57 56/56
f 54/54 56/56 360/360
f 47/47 55/55 361/361
f 47/47 361/361 52/52
f 360/360 56/56 53/53
f 360/360 53/53 364/364
f 599/599 352/352 496/496
f 599/599 496/496 476/476
f 381/381 383/383 451/451
f 381/381 451/451 449/449
f 369/369 395/395 462/462
f 369/369 462/462 439/439
f 378/378 369/369 439/439
f 378/378 439/439 447/447
f 364/364 53/53 59/59
f 364/364 59/59 49/49
f 503/503 490/490 701/701
f 503/503 701/701 559/559
f 501/501 345/345 136/136
f 501/501 136/136 346/346
f 174/174 504/504 347/347
f 174/174 347/347 608/608
f 622/622 358/358 43/43
f 622/622 43/43 480/480
f 352/352 598/598 477/477
f 352/352 477/477 496/496
f 362/362 360/360 364/364
f 362/362 364/364 363/363
f 166/166 510/510 530/530
f 166/166 530/530 180/180
f 361/361 362/362 363/363
f 361/361 363/363 365/365
f 365/365 363/363 58/58
f 365/365 58/58 48/48
f 504/504 503/503 559/559
f 504/504 559/559 347/347
f 258/258 68/68 216/216
f 258/258 216/216 5/5
f 70/70 259/259 7/7
f 70/70 7/7 218/218
f 675/675 672/672 217/217
f 675/675 217/217 69/69
f 173/173 258/258 5/5
f 173/173 5/5 350/350
f 669/669 220/220 8/8
f 669/669 8/8 666/666
f 259/259 173/173 350/350
f 259/259 350/350 7/7
f 458/458 454/454 55/55
f 458/458 55/55 47/47
f 456/456 465/465 57/57
f 456/456 57/57 54/54
f 454/454 459/459 50/50
f 454/454 50/50 55/55
f 459/459 456/456 54/54
f 459/459 54/54 50/50
f 51/51 48/48 438/438
f 51/51 438/438 450/450
f 49/49 59/59 448/448
f 49/49 448/448 440/440
f 48/48 58/58 463/463
f 48/48 463/463 438/438
f 58/58 49/49 440/440
f 58/58 440/440 463/463
f 60/60 51/51 450/450
f 60/60 450/450 452/452
f 56/56 57/57 465/465
f 56/56 465/465 441/441
f 47/47 52/52 445/445
f 47/47 445/445 458/458
f 52/52 60/60 452/452
f 52/52 452/452 445/445
f 59/59 53/53 444/444
f 59/59 444/444 448/448
f 53/53 56/56 441/441
f 53/53 441/441 444/444
f 502/502 501/501 346/346
f 502/502 346/346 560/560
f 690/690 403/403 409/409
f 690/690 409/409 603/603
f 41/41 401/401 403/403
f 41/41 403/403 690/690
f 600/600 605/605 411/411
f 600/600 411/411 413/413
f 601/601 412/412 404/404
f 601/601 404/404 691/691
f 259/259 70/70 489/489
f 259/259 489/489 598/598
f 173/173 259/259 598/598
f 173/173 598/598 352/352
f 214/214 287/287 175/175
f 214/214 175/175 358/358
f 65/65 214/214 358/358
f 65/65 358/358 622/622
f 258/258 173/173 352/352
f 258/258 352/352 599/599
f 68/68 258/258 599/599
f 68/68 599/599 491/491
f 67/67 213/213 359/359
f 67/67 359/359 344/344
f 213/213 65/65 622/622
f 213/213 622/622 359/359
f 407/407 604/604 602/602
f 407/407 602/602 408/408
f 414/414 419/419 42/42
f 414/414 42/42 402/402
f 421/421 416/416 401/401
f 421/421 401/401 41/41
f 410/410 606/606 604/604
f 410/410 604/604 407/407
f 640/640 41/41 690/690
f 640/640 690/690 426/426
f 411/411 605/605 606/606
f 411/411 606/606 410/410
f 639/639 427/427 691/691
f 639/639 691/691 42/42
f 406/406 417/417 420/420
f 406/406 420/420 543/543
f 415/415 405/405 542/542
f 415/415 542/542 418/418
f 418/418 542/542 100/100
f 418/418 100/100 647/647
f 405/405 406/406 543/543
f 405/405 543/543 542/542
f 542/542 543/543 1/1
f 542/542 1/1 100/100
f 1/1 543/543 420/420
f 1/1 420/420 650/650
f 100/100 1/1 538/538
f 100/100 538/538 541/541
f 245/245 281/281 527/527
f 245/245 527/527 493/493
f 493/493 527/527 91/91
f 493/493 91/91 574/574
f 717/717 85/85 226/226
f 717/717 226/226 249/249
f 571/571 90/90 85/85
f 571/571 85/85 717/717
f 249/249 226/226 84/84
f 249/249 84/84 720/720
f 720/720 84/84 628/628
f 720/720 628/628 576/576
f 577/577 627/627 145/145
f 577/577 145/145 495/495
f 495/495 145/145 280/280
f 495/495 280/280 248/248
f 248/248 280/280 130/130
f 248/248 130/130 297/297
f 234/234 554/554 557/557
f 234/234 557/557 507/507
f 616/616 152/152 657/657
f 616/616 657/657 315/315
f 229/229 555/555 129/129
f 229/229 129/129 294/294
f 294/294 129/129 281/281
f 294/294 281/281 245/245
f 505/505 558/558 556/556
f 505/505 556/556 230/230
f 315/315 657/657 342/342
f 315/315 342/342 551/551
f 551/551 342/342 498/498
f 551/551 498/498 355/355
f 540/540 539/539 274/274
f 540/540 274/274 275/275
f 314/314 656/656 149/149
f 314/314 149/149 615/615
f 614/614 150/150 540/540
f 614/614 540/540 275/275
f 552/552 341/341 656/656
f 552/552 656/656 314/314
f 500/500 236/236 341/341
f 500/500 341/341 552/552
f 112/112 679/679 236/236
f 112/112 236/236 500/500
f 399/399 186/186 676/676
f 399/399 676/676 111/111
f 155/155 93/93 186/186
f 155/155 186/186 399/399
f 659/659 582/582 188/188
f 659/659 188/188 105/105
f 105/105 188/188 93/93
f 105/105 93/93 155/155
f 355/355 498/498 584/584
f 355/355 584/584 660/660
f 557/557 558/558 505/505
f 557/557 505/505 507/507
f 315/315 551/551 580/580
f 315/315 580/580 642/642
f 642/642 580/580 281/281
f 642/642 281/281 129/129
f 551/551 355/355 146/146
f 551/551 146/146 580/580
f 580/580 146/146 527/527
f 580/580 527/527 281/281
f 616/616 315/315 642/642
f 616/616 642/642 483/483
f 483/483 642/642 129/129
f 483/483 129/129 555/555
f 274/274 617/617 484/484
f 274/274 484/484 32/32
f 32/32 484/484 556/556
f 32/32 556/556 558/558
f 614/614 275/275 31/31
f 614/614 31/31 481/481
f 481/481 31/31 557/557
f 481/481 557/557 554/554
f 314/314 615/615 482/482
f 314/314 482/482 641/641
f 641/641 482/482 553/553
f 641/641 553/553 130/130
f 552/552 314/314 641/641
f 552/552 641/641 581/581
f 581/581 641/641 130/130
f 581/581 130/130 280/280
f 500/500 552/552 581/581
f 500/500 581/581 400/400
f 400/400 581/581 280/280
f 400/400 280/280 145/145
f 112/112 500/500 400/400
f 112/112 400/400 110/110
f 110/110 400/400 145/145
f 110/110 145/145 627/627
f 399/399 111/111 109/109
f 399/399 109/109 714/714
f 714/714 109/109 628/628
f 714/714 628/628 84/84
f 155/155 399/399 714/714
f 155/155 714/714 165/165
f 165/165 714/714 84/84
f 165/165 84/84 226/226
f 105/105 155/155 165/165
f 105/105 165/165 715/715
f 715/715 165/165 226/226
f 715/715 226/226 85/85
f 659/659 105/105 715/715
f 659/659 715/715 637/637
f 637/637 715/715 85/85
f 637/637 85/85 90/90
f 355/355 660/660 638/638
f 355/355 638/638 146/146
f 146/146 638/638 91/91
f 146/146 91/91 527/527
f 558/558 557/557 31/31
f 558/558 31/31 32/32
f 32/32 31/31 275/275
f 32/32 275/275 274/274
f 297/297 130/130 553/553
f 297/297 553/553 233/233
f 178/178 532/532 384/384
f 178/178 384/384 388/388
f 533/533 184/184 398/398
f 533/533 398/398 386/386
f 532/532 73/73 391/391
f 532/532 391/391 384/384
f 73/73 533/533 386/386
f 73/73 386/386 391/391
f 380/380 366/366 531/531
f 380/380 531/531 183/183
f 368/368 376/376 180/180
f 368/368 180/180 530/530
f 366/366 394/394 72/72
f 366/366 72/72 531/531
f 394/394 368/368 530/530
f 394/394 530/530 72/72
f 382/382 379/379 182/182
f 382/382 182/182 102/102
f 370/370 396/396 185/185
f 370/370 185/185 103/103
f 390/390 374/374 101/101
f 390/390 101/101 179/179
f 374/374 382/382 102/102
f 374/374 102/102 101/101
f 377/377 372/372 104/104
f 377/377 104/104 181/181
f 372/372 370/370 103/103
f 372/372 103/103 104/104
f 389/389 385/385 453/453
f 389/389 453/453 457/457
f 510/510 166/166 700/700
f 510/510 700/700 476/476
f 168/168 509/509 477/477
f 168/168 477/477 702/702
f 683/683 169/169 703/703
f 683/683 703/703 560/560
f 348/348 237/237 137/137
f 348/348 137/137 44/44
f 238/238 570/570 346/346
f 238/238 346/346 136/136
f 662/662 349/349 43/43
f 662/662 43/43 609/609
f 83/83 661/661 608/608
f 83/83 608/608 347/347
f 570/570 683/683 560/560
f 570/570 560/560 346/346
f 607/607 348/348 44/44
f 607/607 44/44 480/480
f 167/167 682/682 559/559
f 167/167 559/559 701/701
f 509/509 106/106 496/496
f 509/509 496/496 477/477
f 349/349 607/607 480/480
f 349/349 480/480 43/43
f 682/682 83/83 347/347
f 682/682 347/347 559/559
f 106/106 510/510 476/476
f 106/106 476/476 496/496
f 348/348 607/607 73/73
f 348/348 73/73 532/532
f 600/600 430/430 431/431
f 600/600 431/431 605/605
f 666/666 8/8 351/351
f 666/666 351/351 670/670
f 605/605 431/431 428/428
f 605/605 428/428 606/606
f 670/670 351/351 6/6
f 670/670 6/6 667/667
f 606/606 428/428 432/432
f 606/606 432/432 604/604
f 667/667 6/6 215/215
f 667/667 215/215 671/671
f 604/604 432/432 433/433
f 604/604 433/433 602/602
f 675/675 436/436 434/434
f 675/675 434/434 672/672
f 429/429 435/435 674/674
f 429/429 674/674 668/668
f 435/435 427/427 673/673
f 435/435 673/673 674/674
f 433/433 432/432 667/667
f 433/433 667/667 671/671
f 432/432 428/428 670/670
f 432/432 670/670 667/667
f 428/428 431/431 666/666
f 428/428 666/666 670/670
f 431/431 430/430 669/669
f 431/431 669/669 666/666
f 436/436 675/675 665/665
f 436/436 665/665 426/426
f 644/644 71/71 674/674
f 644/644 674/674 673/673
f 242/242 712/712 123/123
f 242/242 123/123 547/547
f 35/35 550/550 290/290
f 35/35 290/290 300/300
f 94/94 307/307 74/74
f 94/94 74/74 132/132
f 301/301 291/291 712/712
f 301/301 712/712 242/242
f 687/687 311/311 289/289
f 687/687 289/289 713/713
f 547/547 123/123 562/562
f 547/547 562/562 171/171
f 293/293 113/113 306/306
f 293/293 306/306 74/74
f 586/586 587/587 550/550
f 586/586 550/550 549/549
f 310/310 586/586 549/549
f 310/310 549/549 288/288
f 99/99 306/306 619/619
f 99/99 619/619 611/611
f 224/224 697/697 561/561
f 224/224 561/561 618/618
f 94/94 285/285 621/621
f 94/94 621/621 307/307
f 688/688 687/687 713/713
f 688/688 713/713 124/124
f 171/171 562/562 620/620
f 171/171 620/620 282/282
f 697/697 688/688 124/124
f 697/697 124/124 561/561
f 575/575 494/494 423/423
f 575/575 423/423 63/63
f 494/494 247/247 244/244
f 494/494 244/244 423/423
f 718/718 250/250 267/267
f 718/718 267/267 635/635
f 296/296 231/231 253/253
f 296/296 253/253 357/357
f 20/20 127/127 586/586
f 20/20 586/586 310/310
f 114/114 534/534 177/177
f 114/114 177/177 293/293
f 247/247 296/296 357/357
f 247/247 357/357 244/244
f 712/712 686/686 689/689
f 712/712 689/689 123/123
f 550/550 587/587 308/308
f 550/550 308/308 290/290
f 307/307 114/114 293/293
f 307/307 293/293 74/74
f 291/291 309/309 686/686
f 291/291 686/686 712/712
f 123/123 689/689 696/696
f 123/123 696/696 562/562
f 306/306 113/113 223/223
f 306/306 223/223 619/619
f 307/307 621/621 222/222
f 307/307 222/222 114/114
f 562/562 696/696 221/221
f 562/562 221/221 620/620
f 422/422 62/62 706/706
f 422/422 706/706 631/631
f 61/61 635/635 535/535
f 61/61 535/535 705/705
f 636/636 64/64 711/711
f 636/636 711/711 536/536
f 63/63 423/423 633/633
f 63/63 633/633 709/709
f 423/423 244/244 566/566
f 423/423 566/566 633/633
f 244/244 357/357 117/117
f 244/244 117/117 566/566
f 357/357 253/253 21/21
f 357/357 21/21 117/117
f 252/252 251/251 128/128
f 252/252 128/128 19/19
f 579/579 588/588 15/15
f 579/579 15/15 126/126
f 589/589 356/356 116/116
f 589/589 116/116 16/16
f 243/243 422/422 631/631
f 243/243 631/631 564/564
f 356/356 243/243 564/564
f 356/356 564/564 116/116
f 635/635 267/267 176/176
f 635/635 176/176 535/535
f 267/267 636/636 536/536
f 267/267 536/536 176/176
f 251/251 579/579 126/126
f 251/251 126/126 128/128
f 508/508 506/506 579/579
f 508/508 579/579 251/251
f 409/409 403/403 322/322
f 409/409 322/322 325/325