o convex_0
v 0.004931 -0.076385 0.019896
v -0.020685 -0.061291 -0.000229
v -0.019311 -0.080510 -0.000229
v -0.000556 0.059913 -0.000229
v -0.013363 0.059913 0.020357
v -0.018397 -0.092401 0.020357
v 0.002646 -0.096057 -0.000229
v -0.000556 0.059913 0.020357
v -0.013821 0.059913 0.000231
v 0.005848 -0.038885 0.000231
v -0.019768 -0.026525 0.019896
v 0.001272 -0.098354 0.020357
v -0.016566 -0.098807 0.000231
v 0.004931 -0.019681 0.019896
v -0.019768 -0.026525 0.000231
v -0.014280 -0.099713 0.019896
v -0.020685 -0.061291 0.019896
v -0.000556 -0.099713 0.000231
v -0.000099 0.059913 0.000231
v 0.005848 -0.061291 0.000231
v 0.005848 -0.038885 0.019898
v -0.018854 -0.092401 0.000231
v -0.013821 0.059913 0.019896
v -0.013363 0.059913 -0.000229
v -0.000099 0.059913 0.019896
v 0.003560 -0.091479 0.019896
v 0.003560 -0.091479 -0.000229
v -0.017940 -0.097432 0.019896
v -0.020685 -0.048947 -0.000229
v 0.004931 -0.019681 0.000231
v -0.019768 -0.080510 0.019896
v 0.005389 -0.061291 0.020357
v -0.000556 -0.099713 0.019896
v 0.005848 -0.061291 0.019896
v -0.014737 -0.099244 -0.000229
v -0.020225 -0.048478 0.020357
v 0.005389 -0.038416 -0.000229
v -0.020685 -0.048478 0.019896
v -0.014280 -0.099713 0.000231
v 0.004931 -0.076385 0.000231
v -0.019768 -0.080510 0.000231
v -0.018854 -0.092401 0.019896
v -0.017940 -0.097432 0.000231
v 0.002646 -0.096526 0.019896
v 0.001729 -0.098354 0.000231
v 0.004474 -0.019681 0.020357
v -0.014737 -0.099244 0.020357
v -0.016566 -0.098807 0.019896
v 0.001272 -0.098807 0.019896
v -0.019311 -0.026525 0.020357
v -0.017480 -0.097432 -0.000229
v 0.003103 -0.091479 0.020357
v -0.000556 -0.099244 -0.000229
f 45 18 53 
f 3 2 4 
f 3 4 7 
f 4 5 8 
f 5 6 8 
f 5 4 9 
f 8 6 12 
f 11 9 15 
f 4 8 19 
f 20 10 21 
f 10 14 21 
f 5 9 23 
f 11 5 23 
f 9 11 23 
f 4 2 24 
f 9 4 24 
f 15 9 24 
f 8 14 25 
f 19 8 25 
f 14 19 25 
f 7 4 27 
f 1 26 27 
f 2 17 29 
f 24 2 29 
f 15 24 29 
f 14 10 30 
f 4 19 30 
f 19 14 30 
f 17 2 31 
f 6 17 31 
f 8 12 32 
f 16 18 33 
f 1 20 34 
f 20 21 34 
f 32 1 34 
f 21 32 34 
f 3 7 35 
f 6 5 36 
f 17 6 36 
f 10 20 37 
f 27 4 37 
f 20 27 37 
f 4 30 37 
f 30 10 37 
f 11 15 38 
f 15 29 38 
f 29 17 38 
f 17 36 38 
f 16 13 39 
f 18 16 39 
f 13 35 39 
f 35 18 39 
f 20 1 40 
f 1 27 40 
f 27 20 40 
f 2 3 41 
f 3 22 41 
f 31 2 41 
f 22 31 41 
f 28 6 42 
f 22 28 42 
f 6 31 42 
f 31 22 42 
f 13 28 43 
f 28 22 43 
f 7 27 44 
f 27 26 44 
f 7 44 45 
f 14 8 46 
f 21 14 46 
f 8 32 46 
f 32 21 46 
f 12 6 47 
f 6 28 47 
f 33 12 47 
f 16 33 47 
f 13 16 48 
f 28 13 48 
f 47 28 48 
f 16 47 48 
f 12 33 49 
f 33 18 49 
f 44 12 49 
f 18 45 49 
f 45 44 49 
f 5 11 50 
f 36 5 50 
f 11 38 50 
f 38 36 50 
f 22 3 51 
f 3 35 51 
f 35 13 51 
f 43 22 51 
f 13 43 51 
f 26 1 52 
f 32 12 52 
f 1 32 52 
f 12 44 52 
f 44 26 52 
f 35 7 53 
f 18 35 53 
f 7 45 53 
o convex_1
v -0.013821 0.059929 -0.000229
v 0.003561 0.080057 0.020357
v -0.016568 0.080057 0.020357
v 0.003561 0.080057 -0.000229
v 0.001730 0.060388 0.019896
v -0.016568 0.080057 -0.000229
v -0.014735 0.060388 0.019896
v 0.001730 0.060388 0.000231
v -0.015652 0.062675 -0.000229
v 0.002645 0.062675 -0.000229
v -0.000100 0.059929 0.020357
v 0.002645 0.062675 0.019896
v -0.015652 0.062675 0.019896
v -0.013821 0.059929 0.020357
v -0.000100 0.059929 -0.000229
v -0.016568 0.077311 0.000231
v 0.003561 0.078225 0.019896
v -0.016568 0.077311 0.019896
v 0.003561 0.078225 0.000231
v -0.014735 0.060388 0.000231
f 60 62 73 
f 56 55 57 
f 56 57 59 
f 57 54 59 
f 59 54 62 
f 54 57 63 
f 58 61 63 
f 55 56 64 
f 61 58 64 
f 58 63 65 
f 55 64 65 
f 64 58 65 
f 62 60 66 
f 60 54 67 
f 64 56 67 
f 54 64 67 
f 56 66 67 
f 66 60 67 
f 54 63 68 
f 63 61 68 
f 64 54 68 
f 61 64 68 
f 56 59 69 
f 59 62 69 
f 62 66 69 
f 57 55 70 
f 55 65 70 
f 65 63 70 
f 66 56 71 
f 56 69 71 
f 69 66 71 
f 63 57 72 
f 57 70 72 
f 70 63 72 
f 54 60 73 
f 62 54 73 
o convex_2
v 0.008593 0.096981 0.020357
v -0.041269 0.082345 -0.000229
v -0.041727 0.082345 0.000231
v -0.041269 0.099729 0.000231
v 0.008593 0.097439 -0.000229
v -0.017020 0.080057 0.020357
v -0.041269 0.099729 0.019896
v 0.004017 0.080057 -0.000229
v -0.041269 0.082803 0.020357
v 0.008593 0.083263 0.019896
v 0.000357 0.099729 0.019896
v 0.000357 0.099729 0.000231
v 0.004017 0.080057 0.020357
v 0.008593 0.083263 0.000231
v -0.017020 0.080057 -0.000229
v -0.041269 0.099270 0.020357
v -0.041269 0.099270 -0.000229
v -0.041727 0.082345 0.019896
v -0.041727 0.099270 0.019896
v 0.005387 0.098810 0.019896
v -0.041727 0.099270 0.000231
v 0.005387 0.098810 0.000231
v 0.008135 0.097896 0.019896
v 0.007677 0.082347 0.000231
v 0.000357 0.099269 0.020357
v 0.000816 0.099269 -0.000229
v 0.008593 0.083720 -0.000229
v 0.008593 0.083720 0.020357
v 0.007677 0.082347 0.019896
f 83 101 102 
f 75 78 81 
f 79 74 82 
f 78 74 83 
f 77 80 84 
f 77 84 85 
f 74 79 86 
f 79 81 86 
f 78 83 87 
f 76 75 88 
f 79 76 88 
f 75 81 88 
f 81 79 88 
f 82 74 89 
f 84 80 89 
f 75 76 90 
f 78 75 90 
f 77 85 90 
f 76 79 91 
f 79 82 91 
f 82 89 91 
f 91 89 92 
f 80 77 92 
f 89 80 92 
f 76 91 92 
f 85 84 93 
f 90 76 94 
f 77 90 94 
f 76 92 94 
f 92 77 94 
f 85 93 95 
f 95 93 96 
f 74 78 96 
f 93 74 96 
f 78 95 96 
f 86 81 97 
f 87 83 97 
f 89 74 98 
f 84 89 98 
f 74 93 98 
f 93 84 98 
f 78 90 99 
f 90 85 99 
f 95 78 99 
f 85 95 99 
f 81 78 100 
f 78 87 100 
f 97 81 100 
f 87 97 100 
f 83 74 101 
f 74 86 101 
f 101 86 102 
f 86 97 102 
f 97 83 102 
o convex_3
v 0.025062 0.081430 -0.000229
v 0.041531 0.071367 0.020357
v 0.041531 0.069538 0.020357
v 0.025062 0.080970 0.020357
v 0.032840 0.081430 0.000231
v 0.040615 0.069078 0.000231
v 0.032840 0.081430 0.019896
v 0.040615 0.073654 0.000231
v 0.040615 0.069078 0.019896
v 0.026895 0.079141 0.000231
v 0.040615 0.073654 0.019896
v 0.041531 0.071367 -0.000229
v 0.026895 0.079141 0.019896
v 0.025062 0.081430 0.020357
v 0.041531 0.069538 -0.000229
v 0.032383 0.081430 0.020357
v 0.032383 0.081430 -0.000229
v 0.037412 0.071367 0.000231
v 0.025062 0.080970 -0.000229
f 120 112 121 
f 105 104 106 
f 107 103 109 
f 107 109 110 
f 105 106 111 
f 108 105 111 
f 110 109 113 
f 104 110 113 
f 104 105 114 
f 110 104 114 
f 111 106 115 
f 106 112 115 
f 106 104 116 
f 103 106 116 
f 109 103 116 
f 105 108 117 
f 114 105 117 
f 103 114 117 
f 104 113 118 
f 113 109 118 
f 116 104 118 
f 109 116 118 
f 103 107 119 
f 107 110 119 
f 114 103 119 
f 110 114 119 
f 108 111 120 
f 111 115 120 
f 115 112 120 
f 106 103 121 
f 112 106 121 
f 117 108 121 
f 103 117 121 
f 108 120 121 
o convex_4
v 0.027347 0.086465 0.020357
v 0.008593 0.083720 -0.000229
v 0.008593 0.083261 0.000231
v 0.008593 0.096524 0.020357
v 0.022315 0.090579 -0.000229
v 0.008593 0.083261 0.019896
v 0.032382 0.081430 0.000231
v 0.008593 0.096984 -0.000229
v 0.031923 0.081430 0.020357
v 0.015458 0.094694 0.019896
v 0.023687 0.081430 -0.000229
v 0.011797 0.096524 0.000231
v 0.023230 0.081430 0.019896
v 0.027347 0.086922 0.019896
v 0.022772 0.090579 0.000231
v 0.022772 0.090579 0.019896
v 0.011797 0.096524 0.019896
v 0.008593 0.083720 0.020357
v 0.027347 0.086922 0.000231
v 0.032382 0.081888 0.019896
v 0.032382 0.081888 0.000231
v 0.031923 0.081888 -0.000229
v 0.009054 0.096984 0.019896
v 0.015458 0.094694 0.000231
f 136 126 145 
f 123 124 125 
f 125 124 127 
f 123 125 129 
f 126 123 129 
f 122 125 130 
f 125 122 131 
f 124 123 132 
f 123 126 132 
f 128 130 132 
f 126 129 133 
f 127 124 134 
f 124 132 134 
f 132 130 134 
f 131 122 137 
f 122 135 137 
f 136 131 137 
f 135 136 137 
f 125 131 138 
f 131 133 138 
f 125 127 139 
f 130 125 139 
f 127 134 139 
f 134 130 139 
f 136 135 140 
f 126 136 140 
f 122 130 141 
f 130 128 141 
f 135 122 141 
f 140 135 141 
f 140 141 142 
f 141 128 142 
f 142 128 143 
f 132 126 143 
f 128 132 143 
f 126 140 143 
f 140 142 143 
f 129 125 144 
f 133 129 144 
f 125 138 144 
f 138 133 144 
f 126 133 145 
f 133 131 145 
f 131 136 145 
