# https://github.com/mikedh/trimesh
mtllib material0.mtl
usemtl material0
v -0.00108063 -0.09722322 0.01777280
v -0.00108063 -0.09722322 0.01777280
v -0.00153483 0.02004370 0.01708340
v -0.01273631 0.01698394 0.00485267
v -0.00703641 0.01356125 0.01914460
v -0.01161040 -0.09994462 0.01023551
v 0.00037793 0.02074409 0.01312474
v -0.01041413 -0.09977390 0.00878394
v -0.00143887 0.06047565 0.01405073
v -0.00143887 0.06047565 0.01405073
v -0.00884042 0.06053373 0.00602665
v -0.01393898 0.06835679 0.01761167
v -0.01019662 0.02011387 0.00381133
v -0.01602447 -0.09711067 0.00640689
v -0.01602447 -0.09711067 0.00640689
v -0.00305096 0.09918436 0.00411789
v -0.00305096 0.09918436 0.00411789
v -0.00036414 0.02074779 0.01503090
v -0.00036414 0.02074779 0.01503090
v -0.01463218 -0.08735125 0.01841691
v -0.04116133 0.08352533 0.01580166
v -0.01252750 0.06129129 0.01360353
v -0.02687000 0.09672284 0.00904503
v -0.01500321 -0.08877273 0.00333604
v 0.01388650 0.09465375 0.01793263
v 0.01388650 0.09465375 0.01793263
v -0.01080666 -0.01332365 0.00218654
v 0.00040122 0.01410351 0.00668776
v -0.01452342 0.02084955 0.01113511
v -0.00115969 0.01410871 0.01753300
v -0.03056758 0.09429341 0.01843721
v -0.01451703 0.06890935 0.01208160
v -0.00043041 0.00968045 0.00646256
v -0.02689149 0.09356752 0.01636072
v -0.01142948 0.01880454 0.00655112
v -0.04109966 0.09248930 0.00233318
v -0.01338063 0.06915764 0.00812543
v 0.00076996 -0.09476320 0.01093660
v -0.00008086 0.02003910 0.00700762
v -0.00420066 -0.09981868 0.01029608
v -0.04114444 0.08589869 0.01828497
v -0.01506948 0.01699134 0.01333085
v -0.00445654 0.06883338 0.01908702
v -0.01650885 -0.08842008 0.01605185
v -0.00130913 0.06939244 0.01850897
v -0.00130913 0.06939244 0.01850897
v -0.00221753 0.06477396 0.01935560
v -0.03064665 0.08316989 0.01385292
v -0.03064665 0.08316989 0.01385292
v -0.01497992 0.06836139 0.01507248
v -0.03206272 0.09241253 0.01974773
v -0.00768942 -0.09860621 0.00343479
v -0.00506658 -0.09981488 0.01330996
v -0.00322418 0.06053922 0.00372417
v -0.00930791 -0.09978559 0.01388081
v -0.00143937 0.06048005 0.00827877
v -0.00378714 0.02006049 0.01839353
v 0.00127304 -0.08854163 0.01604176
v -0.01358354 0.06060300 0.01534077
v -0.01003949 -0.09900044 0.01294762
v -0.02241806 0.08810652 0.01659821
v -0.02241806 0.08810652 0.01659821
v -0.01697405 -0.08970882 0.00579945
v -0.00937418 0.02086114 0.00601086
v -0.00975802 0.06057311 0.01853946
v -0.00733348 -0.04248365 0.02171337
v 0.00072698 -0.09866958 0.00900974
v -0.04158404 0.09893197 0.01285166
v -0.04158404 0.09893197 0.01285166
v -0.01786966 -0.08877003 0.01105045
v -0.03201385 0.09948393 0.01298850
v 0.00166097 0.06937484 0.01436459
v -0.01536835 0.06837119 0.01300459
v -0.01811915 -0.08903551 0.01372158
v 0.00585753 0.09728989 0.01783197
v 0.00585753 0.09728989 0.01783197
v -0.01117180 0.01673475 0.01632303
v -0.01424884 0.01698454 0.01545022
v -0.04117053 0.08228518 0.00946654
v -0.01208250 0.06059070 0.01719985
v -0.04168870 0.08407099 0.00660730
v -0.04168870 0.08407099 0.00660730
v -0.00048439 0.06126391 0.01763186
v -0.00323518 -0.08661188 0.02076908
v -0.01499962 0.01361642 0.00895617
v -0.04159274 0.09764593 0.01576828
v -0.04159274 0.09764593 0.01576828
v -0.01840292 -0.09002078 0.01104955
v -0.03064715 0.08317429 0.00821259
v 0.00911780 0.08368376 0.00951682
v 0.00179941 0.06900361 0.01326818
v -0.00153583 0.02005290 0.00518362
v -0.01207840 0.06947940 0.00372606
v -0.01266694 -0.04244547 0.02067762
v -0.00616739 -0.09980768 0.01389260
v -0.00760676 -0.08757226 0.02123398
v -0.00190686 -0.09475290 0.01707251
v -0.00190686 -0.09475290 0.01707251
v -0.00930841 -0.09978120 0.00820170
v 0.00524520 -0.05717250 0.01123517
v -0.01204641 0.06055332 0.00969754
v -0.01223833 0.01674275 0.00688978
v -0.01747763 0.08105102 0.00746222
v -0.01393998 0.06836679 0.00473212
v -0.00168936 -0.09865869 0.01690228
v 0.03271474 0.08106701 0.01302268
v 0.03271474 0.08106701 0.01302268
v 0.00212337 0.06474808 0.01339712
v -0.01438139 0.06061349 0.00903283
v -0.01136421 -0.09994822 0.01266544
v -0.01253490 0.02087933 0.01113501
v -0.00773700 -0.09979679 0.01408082
v -0.01362882 0.08059762 0.00194295
v -0.01454362 0.06912335 0.00760096
v -0.01106994 -0.09977220 0.01253320
v 0.00001000 -0.08852554 0.00676493
v -0.01360963 0.02084635 0.00724042
v -0.00325257 -0.06888726 0.00119997
v -0.01811965 -0.08903142 0.00837882
v -0.00285595 0.02081476 0.00701462
v -0.01063723 -0.09995392 0.01350947
v 0.00188207 -0.09723621 0.01104225
v 0.00188207 -0.09723621 0.01104225
v 0.00012285 0.01350917 0.01540514
v 0.00012285 0.01350917 0.01540514
v -0.00138049 0.01352116 0.01729651
v -0.00773291 -0.09901703 0.01360733
v -0.00759856 -0.08620636 0.00075397
v -0.01427084 -0.09712406 0.00435699
v -0.01427084 -0.09712406 0.00435699
v -0.01282507 0.01880884 0.01357064
v -0.01701523 -0.08868307 0.01633583
v -0.01059245 -0.09899604 0.01230170
v -0.01602367 -0.09711787 0.01568072
v -0.01602367 -0.09711787 0.01568072
v -0.00770092 -0.09470113 0.00274370
v -0.01195095 -0.08784444 0.00151933
v 0.02388611 0.08872735 0.00981469
v 0.02388611 0.08872735 0.00981469
v -0.01318561 -0.08037851 0.01968786
v -0.01514955 0.06486832 0.00902504
v -0.00767763 -0.09717024 0.00235497
v -0.00767763 -0.09717024 0.00235497
v -0.00616789 -0.09980319 0.00818920
v -0.04167231 0.08626653 0.01776580
v -0.04167231 0.08626653 0.01776580
v -0.04167231 0.08635059 0.01103606
v -0.01172705 -0.08628882 0.02016665
v -0.01755489 -0.08876933 0.00852256
v -0.04165311 0.08919554 0.00302477
v -0.04165311 0.08919554 0.00302477
v -0.01793872 0.09934009 0.00470234
v -0.01793872 0.09934009 0.00470234
v 0.00231478 0.06824434 0.01338432
v -0.01418997 0.01361342 0.00686049
v -0.00141478 0.02080257 0.00971024
v 0.00272191 0.07800685 0.01402704
v -0.00958629 0.01329986 0.01695066
v -0.01730770 -0.09559224 0.00859263
v -0.01350777 0.00977211 0.00646376
v 0.00221653 -0.09572718 0.01104345
v -0.00773750 -0.09979209 0.00800129
v -0.03204043 0.09561503 0.01850508
v -0.02692908 0.08820518 0.01635682
v 0.00314412 -0.08917805 0.01104845
v -0.00057905 -0.08743442 0.00363460
v -0.00752000 -0.06884068 0.00069879
v -0.01524781 -0.08842838 0.01534196
v -0.01694946 -0.02789545 0.01709569
v -0.00698903 0.02079207 0.01847049
v -0.00371367 0.01355065 0.00360242
v -0.00180731 0.02080637 0.00832445
v 0.00035494 0.06476727 0.00457679
v -0.01280638 -0.05701107 0.02073790
v -0.01614571 -0.08877953 0.00888120
v -0.01208350 0.06060010 0.00513175
v 0.02388791 0.08872975 0.01861013
v 0.02388791 0.08872975 0.01861013
v -0.01004279 0.02082416 0.00418806
v 0.00227820 -0.08890827 0.01355985
v 0.00227820 -0.08890827 0.01355985
v -0.00047259 0.06906068 0.01658342
v -0.03053939 0.09860081 0.00821549
v 0.00902724 0.08388437 0.00409300
v 0.00902724 0.08388437 0.00409300
v -0.00773341 -0.09901313 0.00847588
v -0.00183519 0.00124036 0.01815283
v -0.00183519 0.00124036 0.01815283
v -0.01041383 -0.09977740 0.01329866
v -0.00942866 -0.09996292 0.01415439
v -0.00326817 -0.08791640 0.02066393
v -0.01485348 0.06136986 0.00890509
v 0.00087082 0.06826343 0.00441096
v -0.01720765 -0.04245386 0.01788245
v 0.00264284 -0.06897512 0.00471513
v -0.01700294 -0.09710577 0.00867169
v -0.01700294 -0.09710577 0.00867169
v -0.00173924 -0.01340042 0.01924045
v -0.00173924 -0.01340042 0.01924045
v -0.03206422 0.09242602 0.00233238
v -0.00697444 0.02084455 0.00570939
v -0.00696804 0.00971783 0.01877506
v -0.01613522 -0.09855453 0.01307946
v 0.04118362 0.06935555 0.00000000
v 0.04118362 0.06935555 0.00000000
v -0.02686970 0.09671974 0.01304088
v -0.03210900 0.08583542 0.01828417
v -0.02463708 0.09348186 0.00617929
v -0.00937339 0.02085325 0.01625856
v -0.00543272 -0.09903272 0.01295761
v -0.00575257 -0.09471492 0.00284775
v -0.00018062 -0.08770340 0.00321189
v -0.00193345 0.06903839 0.00314552
v 0.00272141 0.07801145 0.00802508
v -0.00604914 -0.09998661 0.01416688
v -0.00008696 -0.09866229 0.00703681
v 0.01401885 0.08408859 0.01038594
v 0.01401885 0.08408859 0.01038594
v -0.01453182 0.00133871 0.00604045
v -0.01263185 0.06915394 0.00611402
v -0.01217126 0.07377031 0.01973314
v -0.00691916 0.01671946 0.01760547
v -0.01458300 0.06947400 0.00968715
v -0.00769962 -0.09471402 0.01934271
v -0.00703661 0.01328427 0.01727582
v -0.00323668 -0.08659678 0.00133281
v 0.00227770 -0.08890437 0.00853765
v 0.00175953 -0.01347738 0.00539383
v -0.00138149 0.01353066 0.00496032
v -0.01368969 -0.09856563 0.00522790
v -0.00176533 0.02075659 0.01676694
v -0.00942916 -0.09995812 0.00792762
v 0.00583454 0.09798119 0.00908991
v -0.01990776 -0.04242987 0.01124656
v -0.00660800 0.06910226 0.01838793
v -0.01807177 -0.09002428 0.01370688
v -0.03202404 0.09810593 0.00595718
v -0.04165181 0.08918315 0.01905174
v -0.04165181 0.08918315 0.01905174
v -0.01525060 0.09999500 0.01427543
v 0.00127334 0.01409241 0.01340052
v 0.04169490 0.07117156 0.00079275
v 0.04169490 0.07117156 0.00079275
v -0.00743554 -0.05704946 0.02180113
v 0.01386711 0.08413956 0.01819741
v 0.01386711 0.08413956 0.01819741
v 0.00183399 0.06125271 0.01341931
v 0.00072728 -0.09867268 0.01307276
v -0.00057775 -0.08744591 0.01846549
v -0.00470393 -0.09903582 0.01041193
v -0.01269403 0.01359713 0.01733839
v -0.01451723 0.06891095 0.00995913
v -0.03213509 0.08222190 0.00946584
v -0.00723312 -0.02789315 0.00115749
v 0.00174214 0.07892565 0.01862542
v 0.00174214 0.07892565 0.01862542
v -0.00604964 -0.09998181 0.00791483
v 0.00058424 0.02074429 0.01113381
v 0.00911810 0.08368136 0.01254289
v -0.00647186 0.06480365 0.01987967
v -0.00259516 0.08117137 0.00260756
v -0.01529998 -0.09856193 0.01504210
v -0.00200022 -0.04252023 0.02067672
v -0.00200022 -0.04252023 0.02067672
v -0.00175943 0.06828562 0.00264684
v -0.00149714 0.06882449 0.00389469
v -0.00149714 0.06882449 0.00389469
v -0.01761167 -0.05700707 0.00441036
v -0.01525110 0.10000000 0.00781367
v 0.00459938 0.08213534 0.00402473
v 0.00459938 0.08213534 0.00402473
v -0.00699233 0.02009378 0.00340201
v -0.00017932 -0.08771559 0.01888781
v 0.00277618 -0.09016642 0.01368739
v 0.00277618 -0.09016642 0.01368739
v -0.02244155 0.08484665 0.00876245
v -0.02244155 0.08484665 0.00876245
v -0.01077947 -0.09899424 0.01166858
v -0.01221474 0.02083815 0.00546010
v -0.00663639 0.06907228 0.00254768
v -0.00964946 -0.09468763 0.00284805
v -0.00185129 -0.02796113 0.02000802
v -0.00185129 -0.02796113 0.02000802
v 0.00221093 0.00118988 0.01071530
v -0.01213157 0.02087434 0.01395327
v -0.04160983 0.09535244 0.00411529
v -0.04160983 0.09535244 0.00411529
v -0.01389720 0.02013356 0.00701612
v -0.01402514 0.06135866 0.00673424
v -0.00393677 0.02077108 0.01801849
v -0.01460729 0.06481635 0.01547291
v -0.00484517 -0.09999450 0.01352026
v 0.03271274 0.08107061 0.01981270
v 0.03271274 0.08107061 0.01981270
v 0.00107863 0.01688159 0.01334404
v -0.00022870 -0.08887239 0.00328266
v -0.01273521 0.01697415 0.01741126
v -0.01037465 0.01695896 0.01880884
v -0.01587623 0.09914208 0.01938959
v -0.01587623 0.09914208 0.01938959
v -0.01789774 0.09948483 0.01436239
v 0.00137060 0.06050354 0.00904253
v -0.00327376 -0.04249604 0.00097637
v -0.01152614 -0.05700467 0.00089241
v -0.01617050 -0.09464445 0.01093810
v -0.00411179 0.06122972 0.01708870
v -0.00692016 0.01672986 0.00459958
v -0.00304986 0.09917366 0.01796781
v -0.00304986 0.09917366 0.01796781
v -0.01129814 0.06910486 0.00316751
v -0.00703761 0.01329386 0.00498161
v -0.01895558 0.08266071 0.01461448
v -0.00478580 0.01671386 0.00478770
v 0.00277568 -0.09016232 0.00840791
v -0.00030137 0.01665299 0.01298470
v -0.00448743 0.01326748 0.01690048
v 0.01405803 0.09485246 0.01154853
v 0.01405803 0.09485246 0.01154853
v -0.01463338 -0.08733986 0.00368568
v -0.00703351 0.01416268 0.00280787
v -0.01358424 0.06060949 0.00699093
v -0.00702712 0.00127564 0.01958990
v -0.01213207 0.02087873 0.00831675
v -0.01107014 -0.09976990 0.00954941
v -0.01263105 0.06914604 0.01623077
v -0.01269503 0.01360683 0.00492044
v -0.01137721 0.01331835 0.00636720
v -0.03056878 0.09430490 0.00364550
v 0.00506997 0.08158358 0.00862191
v -0.00154472 0.01324409 0.01440887
v -0.00154472 0.01324409 0.01440887
v -0.01424954 0.01699124 0.00681401
v -0.00330625 0.09972642 0.01346319
v -0.01614541 -0.08878282 0.01321940
v -0.01142428 0.06835709 0.00273510
v -0.01789824 0.09949002 0.00772631
v -0.04114564 0.08590989 0.00378654
v -0.00131032 0.06940403 0.00353275
v -0.00131032 0.06940403 0.00353275
v 0.00059604 0.06050394 0.01533697
v 0.00059604 0.06050394 0.01533697
v -0.03202324 0.09809803 0.01613172
v -0.00699103 0.02008178 0.01886582
v -0.01059265 -0.09899404 0.00978211
v -0.04104968 0.09955030 0.00910320
v -0.00383722 0.00126594 0.00314892
v -0.01332655 0.01332585 0.01112921
v -0.01129224 -0.09976900 0.01029928
v -0.02235938 0.09657091 0.00888140
v -0.02235938 0.09657091 0.00888140
v -0.02235938 0.09657091 0.00888140
v -0.00388429 -0.09999870 0.01023341
v 0.04119671 0.06937484 0.01407212
v 0.04119671 0.06937484 0.01407212
v -0.01768304 -0.06883278 0.00471693
v 0.00033145 0.06905638 0.01480980
v 0.00033145 0.06905638 0.01480980
v 0.00216745 -0.08048347 0.01641050
v -0.00660950 0.06830931 0.02032438
v -0.00378834 0.02007169 0.00387390
v -0.04112235 0.08904171 0.01967086
v -0.00022740 -0.08888438 0.01881524
v 0.00160859 -0.09723251 0.00868579
v 0.00160859 -0.09723251 0.00868579
v -0.01021981 0.00131072 0.00314942
v -0.00975922 0.06058450 0.00379174
v -0.00248561 0.06048195 0.01538764
v -0.01465946 0.00977441 0.01369449
v 0.00283685 -0.08917405 0.00839471
v -0.00154522 0.01324908 0.00784745
v -0.00415757 0.06050094 0.00598077
v -0.01129684 0.06909247 0.01917708
v -0.01194935 -0.08785923 0.02058196
v -0.01194296 0.06889735 0.00418046
v -0.01161030 -0.09994582 0.01184690
v -0.00649895 0.06051753 0.00568530
v 0.00012215 0.01351577 0.00685139
v -0.02011857 -0.05699488 0.01123737
v -0.01468096 0.02013376 0.01323139
v -0.00759926 -0.08041870 0.02100898
v 0.00583484 0.09797809 0.01299260
v -0.00411279 0.06123892 0.00518722
v -0.01248672 0.06134917 0.00474512
v -0.00062633 0.06120793 0.01360253
v -0.00062633 0.06120793 0.01360253
v -0.04169630 0.08291120 0.01248962
v -0.04169630 0.08291120 0.01248962
v -0.04169630 0.08291120 0.01248962
v -0.01063383 0.06914115 0.00447134
v -0.00440936 0.01874717 0.01705581
v 0.04119621 0.06937954 0.00796021
v 0.04119621 0.06937954 0.00796021
v -0.01402434 0.06135177 0.01559865
v 0.00033095 0.06906198 0.00753279
v -0.01197724 0.06888696 0.01800460
v -0.00312993 -0.08043509 0.00186998
v -0.00751840 -0.06887316 0.02155434
v -0.01353816 0.01674575 0.01298590
v -0.03213479 0.08221951 0.01259847
v -0.03213479 0.08221951 0.01259847
v -0.03061456 0.08757835 0.01842941
v -0.00773820 -0.09997491 0.01437589
v 0.00097477 0.02002941 0.01113321
v -0.01487747 0.06912395 0.00951612
v -0.00759746 -0.08593987 0.00130973
v -0.00733518 -0.04245606 0.00052827
v -0.01426974 -0.09713446 0.01773032
v -0.01426974 -0.09713446 0.01773032
v -0.00365679 -0.09538093 0.01960769
v -0.01524851 -0.08842168 0.00675903
v 0.00087242 -0.08889478 0.00889410
v 0.03271124 0.08108420 0.00223922
v 0.03271124 0.08108420 0.00223922
v -0.01156372 0.06054652 0.01404823
v -0.03212660 0.08346936 0.00626525
v -0.01048490 0.01418417 0.00324857
v -0.00648665 0.06131388 0.00279387
v -0.03208821 0.08899183 0.00240464
v -0.01793763 0.09933029 0.01738617
v -0.01793763 0.09933029 0.01738617
v -0.00457389 0.02082746 0.00605224
v -0.01747703 0.08104542 0.01459789
v -0.01161310 -0.09994522 0.01104125
v 0.02277820 0.08224050 0.00965316
v 0.02277820 0.08224050 0.00965316
v -0.01252790 0.06129519 0.00867379
v -0.00904143 0.06126421 0.01708910
v -0.01454302 0.06911786 0.01474423
v 0.00177622 -0.08881161 0.01632543
v -0.00011735 0.08595856 0.01907453
v 0.00171865 -0.08983676 0.00580675
v -0.01360903 0.02084025 0.01502970
v -0.01845170 -0.08903182 0.01105035
v -0.01137641 0.01331096 0.01589082
v -0.01196495 -0.08653931 0.00141768
v -0.02237958 0.09359491 0.01659601
v -0.02237958 0.09359491 0.01659601
v -0.01490766 0.02013696 0.01113461
v 0.00035604 0.06475707 0.01775920
v -0.01902975 -0.08033093 0.01113051
v 0.00193385 -0.09572328 0.00860712
v -0.01698904 -0.02788576 0.00493903
v -0.00773870 -0.09996971 0.00770592
v -0.03204163 0.09562652 0.00357983
v -0.01506988 0.01699474 0.00893358
v -0.01251101 0.02087813 0.01255899
v -0.00909491 -0.09900744 0.01343880
v 0.00047529 0.00123356 0.00603915
v -0.00201322 -0.08045678 0.01968696
v -0.00201322 -0.08045678 0.01968696
v -0.00699023 0.02080337 0.00379843
v 0.00087192 0.06825304 0.01793023
v 0.04169650 0.07115576 0.02124237
v 0.04169650 0.07115576 0.02124237
v -0.02695177 0.08505136 0.00893008
v -0.01757988 0.08554455 0.00232748
v 0.02388671 0.08874154 0.00345498
v 0.02388671 0.08874154 0.00345498
v -0.00506698 -0.09981138 0.00877165
v -0.01729841 -0.09710637 0.01104395
v -0.01729841 -0.09710637 0.01104395
v -0.00202191 -0.06891075 0.02039535
v -0.00202191 -0.06891075 0.02039535
v -0.01773981 0.09693964 0.00258437
v 0.00145816 0.06938144 0.00767423
v 0.03154185 0.07749608 0.00121727
v 0.03154185 0.07749608 0.00121727
v -0.00160200 0.01666828 0.00688878
v -0.00441676 -0.09981888 0.01253890
v -0.00723153 -0.02792434 0.02109944
v -0.00696924 0.00973613 0.00351985
v -0.04109826 0.09247580 0.01974843
v -0.00441036 0.01875637 0.00515424
v -0.01003989 0.06133617 0.00330815
v -0.00092389 0.01872548 0.01356964
v -0.00092389 0.01872548 0.01356964
v -0.00157641 -0.08743801 0.01741326
v -0.01630914 0.07929809 0.01410571
v -0.00661100 0.06832351 0.00201811
v -0.01650106 -0.01333695 0.01609274
v 0.00066261 -0.09722482 0.00641418
v 0.00066261 -0.09722482 0.00641418
v -0.01446035 0.01419817 0.01556267
v -0.00232078 0.01874067 0.00655032
v -0.01155193 -0.09714445 0.00288523
v -0.01155193 -0.09714445 0.00288523
v 0.00175423 0.07333191 0.00717895
v -0.01363741 -0.08734755 0.00473082
v -0.01448184 -0.09542991 0.00410000
v -0.01048360 0.01417198 0.01901065
v -0.00648535 0.06130089 0.01953792
v -0.00883952 0.06052573 0.01630404
v -0.01530068 -0.09855573 0.00704311
v 0.00179901 0.06900681 0.00907402
v -0.00422714 0.07376652 0.01987128
v -0.02689239 0.09357572 0.00572019
v -0.00206489 -0.05708624 0.02073700
v -0.00206489 -0.05708624 0.02073700
v -0.01051149 0.06053812 0.01535506
v -0.02235908 0.09656751 0.01320350
v -0.02235908 0.09656751 0.01320350
v -0.02235908 0.09656751 0.01320350
v -0.00637250 -0.09902653 0.01344860
v 0.00273710 -0.05714971 0.00440856
v -0.04160823 0.09549468 0.01104315
v -0.01252020 -0.01332485 0.01924145
v 0.00523840 -0.04260600 0.01124436
v -0.02469406 0.08527956 0.01275750
v -0.02469406 0.08527956 0.01275750
v -0.00660920 0.06911336 0.00395586
v -0.00202241 0.06121613 0.01569221
v 0.00251320 -0.05715861 0.01792673
v -0.01530298 0.01420856 0.00887320
v 0.03271434 0.08107011 0.00902924
v 0.03271434 0.08107011 0.00902924
v 0.00212297 0.06475157 0.00893848
v 0.01386591 0.08415066 0.00386230
v 0.01386591 0.08415066 0.00386230
v -0.00008636 -0.09866848 0.01504589
v -0.02241896 0.08811512 0.00547350
v -0.02241896 0.08811512 0.00547350
v -0.00904243 0.06127340 0.00518762
v -0.01460799 0.06482294 0.00686549
v -0.01630964 0.07930289 0.00795141
v -0.01139660 -0.04243917 0.00097707
v 0.00276039 -0.04258341 0.00447514
v 0.00053417 0.06901940 0.00479769
v -0.00293311 0.06129039 0.00324348
v -0.01301509 -0.06883368 0.02039635
v -0.01261206 -0.02788566 0.02000892
v 0.00174094 0.07893715 0.00375995
v 0.00174094 0.07893715 0.00375995
v -0.03212580 0.08346196 0.01580086
v -0.01063763 -0.09995012 0.00857294
v -0.01252480 0.01332345 0.00785455
v -0.01801359 -0.01332255 0.01117030
v -0.00221893 0.06478666 0.00298069
v 0.00073018 0.02003211 0.00902274
v -0.00457309 0.02081966 0.01621638
v -0.01282547 0.01881264 0.00864091
v 0.00460048 0.08212435 0.01818882
v 0.00460048 0.08212435 0.01818882
v -0.00090110 0.01324359 0.00944975
v -0.00933900 0.01878175 0.01705621
v 0.00108612 0.00970264 0.01057816
v -0.00657771 0.06125651 0.00469704
v -0.00388449 -0.09999930 0.01104065
v -0.01003859 0.06132398 0.01902425
v -0.04160873 0.09534165 0.01797081
v -0.04160873 0.09534165 0.01797081
v -0.01166988 -0.09531506 0.00255438
v -0.01697315 -0.08971691 0.01629984
v -0.01362742 0.08058352 0.02011577
v -0.01119009 -0.09858212 0.00390898
v -0.00169026 -0.09864969 0.00518053
v -0.01433111 0.02084975 0.00915438
v 0.00171945 -0.08984486 0.01628925
v 0.00231438 0.06824774 0.00895667
v -0.00212757 0.00968435 0.01731580
v -0.00212757 0.00968435 0.01731580
v -0.01155063 -0.09715715 0.01920157
v -0.01155063 -0.09715715 0.01920157
v -0.04161743 0.09415087 0.01441967
v -0.01554248 -0.09465115 0.01370598
v -0.01507548 0.07376472 0.00935319
v -0.01487717 0.06912136 0.01282907
v -0.00157741 -0.08742822 0.00468704
v -0.01290683 0.01418767 0.01757588
v -0.00255618 0.06908467 0.00443085
v 0.01401895 0.08408759 0.01167358
v 0.01401895 0.08408759 0.01167358
v -0.00325987 -0.02793714 0.00166267
v -0.00743724 -0.05702517 0.00047349
v -0.01503300 -0.08761524 0.01883593
v -0.01037585 0.01697085 0.00345478
v -0.01180882 0.00975212 0.01731660
v -0.00269922 0.01326088 0.00639739
v -0.00767623 -0.09718364 0.01973134
v -0.00767623 -0.09718364 0.01973134
v -0.04107597 0.09567830 0.01850588
v 0.00059534 0.06051044 0.00699243
v -0.02461599 0.09645965 0.00939717
v -0.01701613 -0.08867487 0.00576497
v -0.00129183 0.01689748 0.01736957
v -0.02467357 0.08827495 0.00617499
v 0.00166367 0.06475647 0.00673344
v -0.04169650 0.08291340 0.00957730
v -0.04169650 0.08291340 0.00957730
v -0.01613562 -0.09855144 0.00900605
v 0.02277850 0.08223840 0.01240216
v 0.02277850 0.08223840 0.01240216
v -0.01389660 0.02012716 0.01525280
v -0.00013624 0.06120643 0.01113761
v -0.00346918 -0.08634300 0.02024481
v -0.00405772 -0.08632560 0.00316221
v -0.00543311 -0.09902973 0.00912529
v -0.00084633 -0.09552177 0.00405332
v 0.00066341 -0.09723192 0.01567052
v 0.00066341 -0.09723192 0.01567052
v -0.00470384 -0.09903682 0.01167098
v -0.00293181 0.06127810 0.01908742
v 0.00252269 -0.02802240 0.00493743
v 0.00193415 -0.09572708 0.01347968
v 0.00193415 -0.09572708 0.01347968
v -0.00231998 0.01873368 0.01565933
v -0.00958719 0.01330896 0.00530717
v -0.04161793 0.09415607 0.00766464
v -0.01489046 -0.09465385 0.00672445
v -0.00420076 -0.09981918 0.01104075
v -0.02692998 0.08821347 0.00571589
v -0.04166271 0.08768161 0.01427343
v -0.01499922 0.01361302 0.01330296
v -0.00248631 0.06048845 0.00694205
v -0.00418796 -0.09864230 0.01823809
v -0.04163072 0.09238244 0.00295770
v -0.04163072 0.09238244 0.00295770
v -0.00193205 0.06902590 0.01919737
v -0.02695147 0.08504816 0.01313763
v -0.02695147 0.08504816 0.01313763
v -0.00047349 0.06906898 0.00575927
v -0.00007687 0.01665539 0.01067042
v -0.01166858 -0.09532825 0.01953532
v -0.01113121 0.06127990 0.01569301
v -0.01807217 -0.09002018 0.00839222
v -0.00358253 0.01413899 0.00331534
v -0.00934000 0.01879095 0.00515464
v -0.00036474 0.02075379 0.00723692
v 0.00127294 0.01409591 0.00885671
v -0.00422864 0.07378031 0.00217525
v -0.01438099 0.06061019 0.01329906
v -0.01364121 0.06911016 0.01717666
v -0.00701372 0.01695006 0.00302547
v -0.01172845 -0.08627473 0.00193705
v 0.00183360 0.06125621 0.00891089
v -0.00759587 -0.08595497 0.02079397
v -0.04105957 0.09816920 0.00595798
v -0.00089801 0.06051273 0.01724353
v -0.01078167 -0.09899374 0.01104195
v 0.00382952 -0.08049106 0.01112861
v 0.00115959 0.06880290 0.00765664
v -0.01913230 -0.02787556 0.01121518
v -0.01290783 0.01419767 0.00468374
v -0.04166321 0.08768661 0.00780088
v -0.01251121 0.02088033 0.00971104
v -0.00412449 -0.09999640 0.00941177
v -0.00687528 0.01877406 0.00466415
v 0.00014244 -0.09476100 0.01370458
v -0.01498052 0.06836739 0.00727141
v -0.01530678 0.01699464 0.01113221
v -0.01019542 0.02010248 0.01845710
v -0.01248562 0.06133927 0.01758758
v -0.00488576 -0.09903602 0.01230740
v 0.00022970 0.01688579 0.01545711
v 0.00022970 0.01688579 0.01545711
v -0.00697354 0.02083615 0.01655963
v -0.01063273 0.06913085 0.01787325
v -0.01514915 0.06486492 0.01331356
v 0.02277980 0.08224549 0.00263055
v 0.02277980 0.08224549 0.00263055
v -0.01500201 -0.08878462 0.01876446
v -0.01755449 -0.08877323 0.01357824
v 0.00072228 0.00966666 0.01369309
v -0.00176622 0.02076528 0.00550099
v -0.00405642 -0.08633780 0.01894029
v -0.00129283 0.01690718 0.00489235
v -0.01314683 0.01332595 0.00946195
v -0.01196335 -0.08655430 0.02068572
v -0.01530268 0.01420506 0.01338702
v -0.01641579 -0.08878013 0.01105035
v -0.00108173 -0.09721282 0.00431231
v -0.00108173 -0.09721282 0.00431231
v -0.04162942 0.09236995 0.01912380
v -0.04162942 0.09236995 0.01912380
v -0.00441696 -0.09981658 0.00954261
v -0.01108923 0.02086614 0.01528809
v -0.01730730 -0.09559603 0.01349757
v 0.01388540 0.09466444 0.00414348
v 0.01388540 0.09466444 0.00414348
v -0.00484557 -0.09999070 0.00856104
v -0.00070659 0.01324169 0.01112811
v -0.00116079 0.01411860 0.00472463
v 0.00375225 -0.01347498 0.01116840
v 0.00152603 0.06900401 0.01538595
v 0.00152603 0.06900401 0.01538595
v -0.00259376 0.08115827 0.01945016
v -0.00180691 0.02080197 0.01394368
v -0.00180691 0.02080197 0.01394368
v 0.00107823 0.01688499 0.00891759
v -0.01365680 0.06915604 0.01259847
v -0.03061576 0.08758985 0.00364290
v -0.00768822 -0.09861811 0.01864921
v 0.00096078 0.01350817 0.00894028
v -0.00322299 0.06052763 0.01860573
v -0.00269842 0.01325348 0.01585924
v -0.03053899 0.09859642 0.01387381
v -0.00649195 0.06056211 0.00330765
v -0.00766264 -0.09531056 0.02009128
v -0.01368879 -0.09857463 0.01685710
v 0.00073048 0.02002881 0.01324379
v -0.00175803 0.06827253 0.01963798
v -0.00097117 0.06047575 0.00970054
v -0.01217266 0.07378381 0.00231478
v -0.00090080 0.01324099 0.01280648
v -0.01485308 0.06136636 0.01342811
v -0.00358123 0.01412680 0.01894268
v -0.02467277 0.08826745 0.01589732
v -0.00043381 0.01872398 0.01110463
v 0.00166447 0.06474957 0.01560235
v 0.00166447 0.06474957 0.01560235
v -0.01700254 -0.09710947 0.01341611
v -0.01700254 -0.09710947 0.01341611
v 0.03154345 0.07748089 0.02082926
v 0.03154345 0.07748089 0.02082926
v -0.01129214 -0.09977010 0.01178343
v -0.00388419 -0.10000000 0.01184780
v -0.00663499 0.06905888 0.01979611
v -0.00426803 0.00971064 0.00371487
v 0.00104164 0.06126301 0.00673075
v -0.00701242 0.01693746 0.01923755
v -0.00760096 -0.08040330 0.00121347
v -0.01349278 -0.09467164 0.01707350
v -0.02469426 0.08528216 0.00931021
v 0.00040192 0.01409661 0.01556966
v 0.00040192 0.01409661 0.01556966
v -0.01433081 0.02084675 0.01311584
v -0.00345558 -0.01337513 0.00218594
v -0.00448783 0.06942692 0.00276699
v -0.01142878 0.01879745 0.01566013
v 0.00095618 -0.09567010 0.00625056
v -0.01364221 0.06911946 0.00516833
v -0.00008016 0.02003271 0.01525890
v -0.00008016 0.02003271 0.01525890
v -0.01507518 0.07376212 0.01269513
v 0.00248511 -0.02803159 0.01709400
v -0.00347068 -0.08632870 0.00185738
v -0.00759686 -0.08622235 0.02134933
v 0.00112251 -0.08889827 0.01104885
v -0.01446105 0.01420506 0.00669736
v -0.00089901 0.06052213 0.00508607
v 0.00585643 0.09730039 0.00424953
v 0.00585643 0.09730039 0.00424953
v 0.00245722 -0.06898372 0.01742005
v -0.00330665 0.09973012 0.00862351
v 0.03154525 0.07749828 0.00883012
v 0.03154525 0.07749828 0.00883012
v -0.00048549 0.06127390 0.00469874
v 0.02278110 0.08223250 0.01942477
v 0.02278110 0.08223250 0.01942477
v -0.00647326 0.06481715 0.00245752
v -0.02461569 0.09645706 0.01268793
v -0.00365210 0.01692707 0.00351965
v -0.00266693 0.01667518 0.01632223
v -0.00266693 0.01667518 0.01632223
v -0.01051219 0.06054462 0.00697604
v 0.00121387 0.01350537 0.01112821
v -0.01221384 0.02082936 0.01680962
v -0.00703211 0.01414979 0.01945076
v 0.00308185 -0.09016642 0.01104765
v -0.00202311 0.06122322 0.00658321
v -0.01761307 -0.09559273 0.01104515
v -0.04105878 0.09816131 0.01613252
v -0.01072329 0.06483744 0.00301857
v -0.04164092 0.09089310 0.00639289
v 0.00054856 0.06905908 0.00934290
v -0.04168800 0.08406410 0.01546141
v -0.04168800 0.08406410 0.01546141
v -0.01142289 0.06834410 0.01953193
v -0.01363631 -0.08735735 0.01737167
v -0.00420046 -0.09981978 0.01178543
v -0.00649065 0.06054992 0.01902295
v -0.01448074 -0.09544070 0.01799000
v -0.01178753 -0.06882748 0.00120077
v 0.00158261 0.00117608 0.01468285
v -0.00448833 0.01327647 0.00535635
v -0.01587763 0.09915497 0.00269832
v -0.01587763 0.09915497 0.00269832
v 0.04118532 0.06933846 0.02203233
v 0.04118532 0.06933846 0.02203233
v 0.00037763 0.02074719 0.00914279
v -0.01468135 0.02013706 0.00903783
v -0.01114371 -0.08627982 0.00323058
v -0.01301809 0.06129669 0.01113871
v -0.02244115 0.08484305 0.01330426
v -0.02244115 0.08484305 0.01330426
v -0.02244115 0.08484305 0.01330426
v -0.00062672 0.06121183 0.00867279
v -0.00448653 0.06941413 0.01927294
v -0.00067380 0.07371034 0.00261805
v -0.00067380 0.07371034 0.00261805
v -0.04167341 0.08627692 0.00430631
v -0.04167341 0.08627692 0.00430631
v -0.00760836 -0.08755646 0.00086712
v -0.01474123 0.06950959 0.01235448
v 0.00001070 -0.08853223 0.01533337
v 0.00053527 0.06900950 0.01754490
v -0.00470403 -0.09903632 0.01104145
v -0.01328267 0.06481595 0.01766255
v -0.01629575 -0.09555195 0.00624316
v -0.00371247 0.01353906 0.01865471
v -0.01530418 0.08333582 0.02011957
v 0.00133491 0.01688229 0.01113081
v -0.00285525 0.02080837 0.01525380
v -0.04117033 0.08228278 0.01259917
v -0.04117033 0.08228278 0.01259917
v -0.01738557 -0.05701917 0.01792843
v -0.00702851 0.00129233 0.00269682
v -0.01004159 0.02081336 0.01808136
v 0.00175483 0.07332601 0.01486597
v 0.00902844 0.08387368 0.01796711
v 0.00902844 0.08387368 0.01796711
v 0.00137100 0.06050024 0.01328667
v -0.00412419 -0.09999890 0.01266954
v -0.00365080 0.01691517 0.01874267
v -0.00967055 0.00974852 0.00371527
v 0.00199153 0.06825234 0.00671325
v -0.01156412 0.06055102 0.00828306
v -0.00657661 0.06124661 0.01757918
v -0.01207180 -0.08037252 0.00187068
v -0.00774730 -0.09901693 0.01104165
v 0.00253939 -0.04259220 0.01788075
v 0.00136230 0.06879630 0.01438129
v 0.00104244 0.06125611 0.01559955
v 0.00104244 0.06125611 0.01559955
v -0.01244923 0.02011717 0.01712378
v -0.00766414 -0.09529646 0.00199772
v -0.01204621 0.06055102 0.01263385
v -0.01118899 -0.09859312 0.01817572
v -0.01314653 0.01332335 0.01279648
v -0.01072199 0.06482484 0.01931922
v -0.01418927 0.01360683 0.01539854
v -0.01077957 -0.09899324 0.01041523
v 0.00095698 -0.09567750 0.01583655
v -0.04116213 0.08353273 0.00626605
v -0.01502320 0.00981549 0.01057956
v -0.01003979 -0.09899744 0.00913599
v -0.00905463 0.01674375 0.00478810
v -0.03211010 0.08584661 0.00378574
v -0.00334833 -0.05706195 0.00089171
v -0.01376296 0.01675125 0.01067162
v -0.00380253 -0.09719523 0.00281436
v -0.00380253 -0.09719523 0.00281436
v -0.00255508 0.06907418 0.01791234
v -0.01682721 -0.08034153 0.00492434
v -0.04158434 0.09893477 0.00924004
v -0.04158434 0.09893477 0.00924004
v 0.00256907 -0.08890837 0.01104865
v -0.04112375 0.08905510 0.00240544
v -0.03201415 0.09948693 0.00910240
v -0.01982750 -0.06882279 0.01119718
v -0.01536865 0.06837398 0.00933960
v 0.00507037 0.08157989 0.01343520
v -0.01195485 0.06946710 0.01847239
v -0.00415668 0.06049284 0.01634922
v 0.00096108 0.01350477 0.01331605
v -0.00649805 0.06050904 0.01664509
v -0.01252420 0.01331835 0.01440368
v -0.01036195 0.01359423 0.00353745
v -0.01736688 -0.08034663 0.01641220
v -0.01114241 -0.08629192 0.01887311
v -0.01743085 -0.04244197 0.00447693
v -0.01120638 -0.02788146 0.00166337
v -0.01650965 -0.08841229 0.00604944
v -0.00759836 -0.08594097 0.00269222
v -0.00713137 -0.01337533 0.00175723
v -0.00909531 -0.09900364 0.00864480
v -0.00097087 0.06047345 0.01262896
v -0.03208681 0.08897844 0.01967006
v 0.00224052 -0.01346819 0.01609114
v -0.04104928 0.09954730 0.01298930
v -0.00488596 -0.09903402 0.00977541
v -0.01503420 -0.08760314 0.00326637
v -0.00703771 0.01357364 0.00311313
v 0.02388631 0.08872545 0.01225042
v 0.02388631 0.08872545 0.01225042
v -0.01554598 0.01420846 0.01113011
v -0.00067250 0.07369735 0.01942787
v -0.00067250 0.07369735 0.01942787
v -0.00138259 0.02080117 0.01113401
v -0.02463638 0.09347426 0.01590122
v -0.04107717 0.09568979 0.00358063
v -0.01113191 0.06128700 0.00658401
v -0.00326976 -0.08790151 0.00143597
v -0.00084523 -0.09553266 0.01803438
v 0.04168330 0.07112138 0.01390919
v 0.04168330 0.07112138 0.01390919
v -0.04164012 0.09094418 0.01103965
v -0.04164012 0.09088590 0.01568641
v -0.00141458 0.02080037 0.01255779
v 0.00127224 -0.08853383 0.00605624
v -0.01221944 0.00131312 0.01815373
v -0.01136451 -0.09994572 0.00941707
v 0.00160899 -0.09723621 0.01339882
v 0.00160899 -0.09723621 0.01339882
v 0.00160899 -0.09723621 0.01339882
v 0.01405793 0.09485326 0.01052778
v 0.01405793 0.09485326 0.01052778
v -0.01331565 0.01881414 0.01110582
v -0.00092429 0.01872928 0.00863991
v 0.00478840 -0.06899521 0.01119509
v 0.00177532 -0.08880352 0.00577217
v -0.00712957 -0.01336363 0.02052709
v -0.01328367 0.06482594 0.00467565
v 0.00466685 -0.02804229 0.01121318
v 0.00283725 -0.08917815 0.01370218
v 0.00283725 -0.08917815 0.01370218
v -0.02238047 0.09360351 0.00548429
v -0.02238047 0.09360351 0.00548429
v -0.01365700 0.06915824 0.00974652
v 0.03154555 0.07749488 0.01321640
v 0.03154555 0.07749488 0.01321640
v -0.01757848 0.08553105 0.01973943
v -0.01626706 0.00131942 0.01071690
v 0.00162589 -0.08047077 0.00492274
v -0.01749532 -0.06884388 0.01742175
v -0.00445784 0.06884588 0.00295190
v -0.00418916 -0.09863110 0.00384521
v -0.04159354 0.09765323 0.00632142
v -0.04159354 0.09765323 0.00632142
v -0.00365819 -0.09536763 0.00248051
v -0.00149594 0.06881339 0.01814623
v -0.00149594 0.06881339 0.01814623
v -0.00051078 -0.09475460 0.00672325
v -0.01773841 0.09692655 0.01950034
v 0.00153633 0.01409301 0.01112861
v 0.00022900 0.01689248 0.00680471
v -0.01895618 0.08266631 0.00744823
v -0.00637290 -0.09902273 0.00863441
v -0.01245023 0.02012646 0.00514504
v -0.00380123 -0.09720793 0.01927114
v -0.00380123 -0.09720793 0.01927114
v -0.01629495 -0.09555945 0.01584684
v -0.01635892 -0.09855144 0.01104275
v 0.04168280 0.07112588 0.00812573
v 0.04168280 0.07112588 0.00812573
v 0.00054886 0.06905628 0.01299969
v -0.01523301 0.01361612 0.01112961
v -0.01129464 -0.09976950 0.01104135
v -0.01108993 0.02087254 0.00698164
v -0.01338013 0.06915284 0.01421956
v -0.01036065 0.01358244 0.01872088
v -0.00393787 0.02078178 0.00424993
v -0.00759706 -0.08595397 0.01941148
v -0.00687418 0.01876406 0.01754630
v -0.00011875 0.08597106 0.00299039
v -0.01563833 0.00129673 0.01468435
v 0.00152533 0.06901050 0.00695645
v 0.00093679 -0.09867258 0.01104125
v 0.00087282 -0.08889817 0.01320360
v 0.00087282 -0.08889817 0.01320360
v -0.01530568 0.08334991 0.00194375
v -0.01602217 -0.01335284 0.00539533
v 0.00199233 0.06824544 0.01562764
v 0.00199233 0.06824544 0.01562764
vt 0.13502200 0.14221000
vt 0.04907900 0.09842100
vt 0.72075500 0.17760000
vt 0.49175800 0.15668400
vt 0.66629700 0.13120300
vt 0.05536600 0.20208900
vt 0.30480800 0.18461100
vt 0.06442400 0.21362900
vt 0.41396500 0.00663300
vt 0.74158100 0.00663300
vt 0.54492400 0.00663300
vt 0.64060200 0.08218500
vt 0.46764200 0.17759400
vt 0.21989000 0.09842700
vt 0.02175400 0.23255900
vt 0.05735800 0.68051300
vt 0.47263800 0.33198500
vt 0.74298500 0.18461100
vt 0.28471100 0.18461100
vt 0.13869100 0.03052000
vt 0.03111600 0.98865300
vt 0.98752000 0.13047800
vt 0.18005700 0.88447900
vt 0.23845400 0.04407500
vt 0.37061300 0.42773700
vt 0.12413500 0.29226600
vt 0.76315300 0.77760600
vt 0.36385700 0.13816500
vt 0.55362800 0.18460800
vt 0.72076800 0.13818200
vt 0.10528300 0.91148700
vt 0.15790500 0.51989700
vt 0.85005700 0.93786400
vt 0.10738100 0.88447900
vt 0.75872900 0.09458700
vt 0.23496500 0.98865300
vt 0.58227700 0.11166900
vt 0.89982100 0.21274900
vt 0.36384700 0.17758500
vt 0.11152300 0.20160500
vt 0.05130700 0.98865300
vt 0.57311600 0.15666800
vt 0.18644900 0.46388800
vt 0.15635900 0.03758100
vt 0.36382400 0.97889800
vt 0.19286800 0.44474800
vt 0.71193900 0.05972900
vt 0.34295400 0.91149300
vt 0.01981800 0.91149200
vt 0.62572100 0.08215500
vt 0.09185800 0.92236100
vt 0.08501600 0.25616000
vt 0.10495700 0.17765100
vt 0.50077900 0.03242800
vt 0.07280600 0.17311700
vt 0.46717800 0.00663300
vt 0.69653000 0.17761300
vt 0.03161200 0.03756100
vt 0.63116100 0.03243000
vt 0.06721900 0.18054400
vt 0.05471000 0.50658400
vt 0.05940300 0.85137900
vt 0.22016900 0.05025100
vt 0.46946900 0.18974100
vt 0.66441500 0.03242600
vt 0.55732600 0.57541000
vt 0.14881000 0.21184100
vt 0.30320400 0.26011900
vt 0.15210700 0.99321700
vt 0.18797400 0.03994800
vt 0.15212000 0.92236100
vt 0.39643900 0.97453300
vt 0.61391100 0.08219100
vt 0.17244300 0.04797800
vt 0.37140200 0.38139300
vt 0.09114300 0.32933800
vt 0.60279600 0.98637200
vt 0.59272300 0.15667200
vt 0.31582600 0.98865300
vt 0.64667200 0.03242800
vt 0.29568300 0.99321700
vt 0.25296200 0.37870200
vt 0.72589300 0.03727100
vt 0.07027000 0.03147400
vt 0.53390300 0.13114000
vt 0.13214600 0.99321700
vt 0.32672200 0.26822900
vt 0.18797400 0.05232200
vt 0.30700400 0.91149300
vt 0.43061900 0.86793700
vt 0.42752200 0.08702300
vt 0.38468100 0.17760000
vt 0.16343900 0.54645600
vt 0.59002500 0.57540800
vt 0.09661200 0.17302000
vt 0.09479500 0.03582600
vt 0.96649900 0.21272400
vt 0.50634200 0.21273300
vt 0.07280600 0.21825700
vt 0.90252400 0.47397900
vt 0.59004200 0.00663300
vt 0.72888900 0.98632500
vt 0.09845600 0.54184200
vt 0.56729800 0.08218500
vt 0.13048900 0.14911000
vt 0.25626800 0.41004600
vt 0.40648100 0.54096500
vt 0.42727400 0.05972800
vt 0.58990200 0.03242900
vt 0.05723000 0.18277600
vt 0.55362800 0.18974100
vt 0.08471500 0.17152500
vt 0.11088900 0.57062500
vt 0.58225400 0.08702800
vt 0.05945100 0.18382900
vt 0.34496100 0.02495600
vt 0.51415000 0.18460900
vt 0.81278400 0.39216800
vt 0.20366500 0.04797800
vt 0.38156400 0.18974100
vt 0.06274100 0.17606700
vt 0.15748400 0.19570400
vt 0.37634000 0.09840400
vt 0.74250400 0.13116800
vt 0.28422900 0.13116800
vt 0.72076100 0.13118900
vt 0.08470200 0.17529900
vt 0.28356000 0.02913200
vt 0.23756600 0.09844400
vt 0.03504800 0.24885100
vt 0.75872900 0.13047900
vt 0.15636200 0.04561800
vt 0.06302800 0.18567800
vt 0.15666800 0.09842700
vt 0.02175400 0.15884800
vt 0.78739500 0.21272200
vt 0.25869000 0.03789800
vt 0.43037500 0.48704300
vt 0.30499000 0.59951500
vt 0.59460100 0.31199300
vt 0.59105800 0.05970100
vt 0.28358100 0.09845400
vt 0.08502700 0.26476100
vt 0.09661200 0.21835300
vt 0.05133100 0.99321700
vt 0.34289400 0.36077300
vt 0.28864800 0.36013200
vt 0.11916400 0.02345700
vt 0.20366600 0.03994200
vt 0.22405200 0.33704200
vt 0.25522700 0.99321700
vt 0.46826200 0.24060200
vt 0.01719400 0.60110000
vt 0.42758900 0.08217300
vt 0.51365300 0.13114900
vt 0.34294900 0.18974100
vt 0.39886100 0.91897400
vt 0.63678500 0.12529000
vt 0.20366600 0.08858100
vt 0.72469700 0.93786000
vt 0.37634000 0.08855700
vt 0.08471500 0.21984800
vt 0.11206800 0.92236100
vt 0.05901400 0.88447900
vt 0.37634000 0.04795000
vt 0.32716200 0.03049500
vt 0.78739500 0.39228000
vt 0.15634600 0.02497600
vt 0.62713700 0.67620700
vt 0.66624200 0.18461500
vt 0.40791600 0.13120800
vt 0.36092200 0.18974100
vt 0.48018400 0.05972800
vt 0.59000500 0.47426700
vt 0.20367300 0.02733700
vt 0.56141900 0.03242800
vt 0.36546200 0.48703900
vt 0.17669700 0.25510700
vt 0.46779400 0.18461200
vt 0.39189100 0.03991700
vt 0.01516000 0.03991700
vt 0.73029700 0.11166900
vt 0.18102100 0.91149600
vt 0.15653500 0.70155700
vt 0.46878000 0.86782900
vt 0.08470200 0.21608500
vt 0.97583300 0.87925500
vt 0.51569800 0.87925500
vt 0.06442400 0.17774500
vt 0.07190200 0.17093900
vt 0.07015100 0.03787300
vt 0.58992600 0.03726200
vt 0.47900900 0.08218700
vt 0.62320100 0.57511300
vt 0.85510600 0.39186600
vt 0.01433500 0.21455900
vt 0.20366700 0.09842800
vt 0.97941300 0.77760900
vt 0.51927700 0.77760900
vt 0.23496500 0.92236100
vt 0.43762300 0.18974100
vt 0.55735200 0.93787000
vt 0.02099000 0.17950600
vt 0.49718000 0.62033400
vt 0.30558400 0.83250000
vt 0.14676500 0.88447900
vt 0.05130700 0.92236100
vt 0.21811800 0.86792900
vt 0.63507800 0.18974100
vt 0.10213900 0.18046100
vt 0.80171400 0.21272200
vt 0.32715300 0.03853400
vt 0.49562300 0.08702700
vt 0.44108700 0.91897400
vt 0.09751800 0.17083900
vt 0.14264100 0.22752400
vt 0.42450400 0.84030700
vt 0.27423000 0.53636200
vt 0.72273300 0.87925100
vt 0.56850500 0.11166900
vt 0.14431200 0.49152600
vt 0.55736300 0.98648200
vt 0.15602600 0.53147500
vt 0.55731600 0.21272600
vt 0.66624200 0.12531100
vt 0.30770400 0.03147400
vt 0.36094500 0.03991700
vt 0.85400800 0.77717100
vt 0.38467500 0.13118900
vt 0.03953200 0.24191100
vt 0.72113900 0.18461300
vt 0.07190200 0.22043200
vt 0.43594400 0.38058600
vt 0.67227900 0.57511200
vt 0.68549400 0.11166900
vt 0.17244400 0.05231700
vt 0.19467200 0.92236100
vt 0.07159500 0.99321700
vt 0.35324300 0.33704200
vt 0.39764400 0.26608200
vt 0.30459600 0.13816600
vt 0.49645400 0.59882700
vt 0.29896700 0.84043700
vt 0.55732600 0.47426900
vt 0.36954700 0.84108900
vt 0.16959900 0.32298400
vt 0.42674800 0.03728300
vt 0.14881000 0.17954800
vt 0.05010000 0.03049500
vt 0.10766500 0.20069600
vt 0.61368600 0.13116500
vt 0.15867000 0.53022000
vt 0.31582600 0.92236100
vt 0.78739500 0.67661300
vt 0.15949100 0.40254100
vt 0.36651400 0.91822100
vt 0.09751800 0.22053200
vt 0.32449000 0.18461200
vt 0.40932900 0.86793700
vt 0.68670700 0.05973000
vt 0.13762800 0.63145400
vt 0.02732000 0.16390500
vt 0.98477100 0.57541200
vt 0.52463600 0.57541200
vt 0.49609700 0.08220300
vt 0.47340800 0.98279500
vt 0.19506300 0.60272100
vt 0.72132600 0.47397100
vt 0.44533400 0.26608200
vt 0.46925300 0.89392200
vt 0.15247000 0.67280400
vt 0.43767500 0.17760800
vt 0.05010900 0.03853400
vt 0.39189400 0.05229100
vt 0.01516300 0.05229100
vt 0.06884800 0.53551400
vt 0.30634900 0.85137900
vt 0.06161000 0.19071100
vt 0.49217800 0.18461000
vt 0.52392800 0.08703100
vt 0.77310000 0.21272100
vt 0.98233200 0.67650600
vt 0.52219600 0.67650600
vt 0.89727800 0.87906300
vt 0.59001900 0.18974100
vt 0.23280400 0.28695700
vt 0.21475000 0.99321700
vt 0.51368300 0.17757000
vt 0.57631300 0.03721600
vt 0.69661800 0.18461500
vt 0.62875700 0.05942300
vt 0.10664500 0.17597700
vt 0.23363000 0.23043300
vt 0.35636900 0.54094300
vt 0.30459500 0.15669100
vt 0.32726500 0.04405000
vt 0.61368300 0.15668400
vt 0.63683700 0.15669900
vt 0.35986900 0.26144600
vt 0.02458600 0.44076400
vt 0.39697300 0.24071500
vt 0.45382000 0.03243200
vt 0.81110400 0.57541100
vt 0.76369000 0.47426700
vt 0.67496900 0.21274400
vt 0.98752000 0.17833400
vt 0.78735900 0.98648400
vt 0.05900200 0.37187500
vt 0.37042100 0.33198500
vt 0.55114200 0.08703300
vt 0.43771800 0.12531100
vt 0.08688400 0.51010900
vt 0.80726800 0.98647800
vt 0.36094300 0.05229100
vt 0.92405700 0.98631900
vt 0.69651200 0.12531900
vt 0.41773300 0.42759400
vt 0.34227700 0.52918700
vt 0.23857400 0.03052000
vt 0.43765400 0.13819200
vt 0.57626600 0.03243000
vt 0.55735200 0.87925300
vt 0.51646800 0.18974100
vt 0.05945100 0.20754500
vt 0.63923900 0.11166900
vt 0.49175500 0.13116500
vt 0.49180200 0.12527000
vt 0.22153900 0.91148700
vt 0.43690600 0.89397400
vt 0.74247700 0.12527800
vt 0.28420200 0.12527800
vt 0.51365600 0.15667200
vt 0.40368800 0.33093300
vt 0.17243500 0.02733700
vt 0.55033500 0.08222700
vt 0.44594900 0.24071500
vt 0.27551500 0.98865300
vt 0.19302700 0.60540300
vt 0.47612500 0.97889800
vt 0.41315200 0.03243200
vt 0.74076800 0.03243200
vt 0.13215000 0.92236100
vt 0.66628500 0.17760800
vt 0.06302800 0.20570500
vt 0.17470200 0.98865300
vt 0.81092900 0.87925500
vt 0.55362800 0.12525000
vt 0.05776800 0.20158500
vt 0.43730700 0.20182100
vt 0.18165500 0.85137900
vt 0.01760900 0.56947600
vt 0.11393000 0.20210100
vt 0.18269700 0.35552700
vt 0.39692200 0.62539800
vt 0.71968700 0.39185900
vt 0.74275300 0.11166900
vt 0.41513700 0.11166900
vt 0.94354200 0.31199700
vt 0.68576000 0.08222400
vt 0.40794700 0.17761300
vt 0.07157500 0.98865300
vt 0.04999200 0.04405000
vt 0.15541200 0.21443400
vt 0.36094600 0.09840400
vt 0.76382300 0.87925200
vt 0.54444300 0.03242600
vt 0.72661200 0.00663300
vt 0.64634100 0.93785900
vt 0.36094100 0.04795100
vt 0.36388900 0.12527800
vt 0.50028600 0.00663300
vt 0.65747600 0.08703300
vt 0.11928500 0.03789800
vt 0.16635900 0.54553700
vt 0.05536600 0.18928200
vt 0.52266900 0.00663300
vt 0.36386300 0.13116800
vt 0.67226500 0.47397000
vt 0.57309800 0.17756600
vt 0.55731900 0.31199800
vt 0.40714100 0.38058600
vt 0.98752000 0.05869500
vt 0.56165200 0.03721500
vt 0.98752000 0.01083900
vt 0.98752000 0.20226200
vt 0.33415200 0.99321700
vt 0.01101600 0.99321700
vt 0.30038600 0.38809900
vt 0.55180900 0.11166900
vt 0.75872900 0.17833400
vt 0.18264300 0.70925500
vt 0.44246400 0.62109800
vt 0.63114600 0.03721600
vt 0.46578100 0.11166900
vt 0.16561400 0.50477100
vt 0.81564300 0.31199600
vt 0.55732100 0.39216900
vt 0.65075300 0.98631500
vt 0.33413200 0.92236100
vt 0.01099600 0.92236100
vt 0.06111200 0.91148600
vt 0.08471600 0.16917800
vt 0.32449000 0.17759100
vt 0.59351100 0.08702600
vt 0.28356700 0.02109100
vt 0.78739500 0.57548800
vt 0.03504800 0.14255600
vt 0.13966100 0.09844400
vt 0.06934400 0.08652600
vt 0.22022300 0.02497600
vt 0.36095200 0.02731200
vt 0.23163500 0.82059200
vt 0.48606700 0.54094300
vt 0.63026600 0.00663300
vt 0.29570700 0.92236100
vt 0.46764400 0.13817600
vt 0.52267900 0.03724800
vt 0.25524700 0.92236100
vt 0.37465200 0.24060200
vt 0.01822600 0.45130100
vt 0.40607200 0.18974100
vt 0.09853200 0.50971400
vt 0.05534500 0.19568600
vt 0.26310700 0.59187100
vt 0.42964400 0.78444600
vt 0.98752000 0.10655100
vt 0.98752000 0.15440600
vt 0.62499800 0.08702800
vt 0.03161900 0.04559800
vt 0.12406000 0.39293400
vt 0.34497900 0.05023200
vt 0.59224800 0.18460900
vt 0.18797400 0.04798200
vt 0.61364200 0.12527000
vt 0.25880900 0.03149700
vt 0.10691700 0.85137900
vt 0.03107300 0.49109800
vt 0.55362800 0.17756600
vt 0.72864800 0.05972800
vt 0.67292500 0.31199100
vt 0.36094500 0.08855800
vt 0.72007300 0.67620700
vt 0.08471600 0.22219300
vt 0.21475500 0.92236100
vt 0.53390700 0.15666800
vt 0.57205800 0.18974100
vt 0.07437800 0.17664000
vt 0.85203000 0.87925600
vt 0.98017600 0.31199600
vt 0.52001900 0.31200600
vt 0.43771800 0.18461500
vt 0.72976900 0.08218700
vt 0.34553000 0.59882700
vt 0.30071100 0.20984200
vt 0.30713300 0.88447900
vt 0.07870000 0.56357600
vt 0.47731100 0.48703900
vt 0.17457100 0.79650300
vt 0.10495700 0.21372300
vt 0.18797400 0.09843300
vt 0.01209500 0.19570400
vt 0.98307600 0.39216900
vt 0.52292900 0.39217400
vt 0.02826400 0.59530000
vt 0.44351000 0.97453300
vt 0.48896500 0.71240000
vt 0.24428500 0.80405800
vt 0.84585300 0.98632900
vt 0.10988400 0.18377900
vt 0.55732600 0.67650400
vt 0.78736900 0.93791500
vt 0.09185800 0.98865300
vt 0.75872900 0.05869500
vt 0.54485100 0.03723400
vt 0.75872900 0.01083900
vt 0.75872900 0.20226200
vt 0.05008100 0.01789000
vt 0.11063800 0.51163200
vt 0.52368800 0.08222400
vt 0.63231700 0.77731000
vt 0.34526400 0.09840900
vt 0.14824300 0.23249000
vt 0.59272500 0.13814800
vt 0.75872900 0.04673100
vt 0.25775600 0.09846000
vt 0.05565800 0.26054800
vt 0.44701500 0.94796500
vt 0.23859400 0.01791500
vt 0.23770300 0.08741800
vt 0.63684200 0.13817600
vt 0.68678100 0.03724800
vt 0.66379200 0.00663300
vt 0.02732000 0.22748400
vt 0.45307700 0.08702300
vt 0.16572500 0.44892200
vt 0.21944100 0.88447900
vt 0.98478400 0.47427100
vt 0.52464800 0.47427100
vt 0.64568800 0.00663300
vt 0.14516800 0.85137900
vt 0.01828200 0.48271800
vt 0.40540900 0.20182100
vt 0.09501500 0.17655900
vt 0.85346300 0.47397800
vt 0.28864800 0.28808800
vt 0.59539900 0.77760500
vt 0.90251000 0.57512000
vt 0.34041700 0.86792900
vt 0.01728100 0.86792900
vt 0.52394700 0.11166900
vt 0.98752000 0.19029800
vt 0.95162400 0.47397800
vt 0.53390400 0.13814300
vt 0.25622400 0.65475000
vt 0.43595400 0.54096500
vt 0.45330300 0.05972800
vt 0.47040200 0.84108900
vt 0.16819800 0.72827400
vt 0.14264100 0.16386500
vt 0.05457500 0.54497400
vt 0.26742000 0.85137900
vt 0.98752000 0.08262300
vt 0.57864100 0.05942300
vt 0.11068300 0.53975900
vt 0.76367800 0.57540900
vt 0.85347300 0.57511900
vt 0.47873000 0.08702500
vt 0.50036300 0.03726000
vt 0.59170700 0.39216500
vt 0.59247200 0.67650200
vt 0.15892600 0.64832700
vt 0.47110100 0.91822100
vt 0.03111600 0.92236100
vt 0.06274100 0.21530400
vt 0.51368600 0.12525500
vt 0.67305000 0.77730900
vt 0.49736200 0.05972900
vt 0.34413900 0.17758600
vt 0.69665200 0.18974100
vt 0.75872900 0.10655100
vt 0.36960200 0.89392200
vt 0.15335600 0.37830200
vt 0.34416500 0.12527900
vt 0.75872900 0.15440600
vt 0.89499300 0.93811400
vt 0.98752000 0.07065900
vt 0.11392800 0.19568600
vt 0.66400900 0.03723400
vt 0.11207300 0.99321700
vt 0.34449100 0.28695700
vt 0.25790300 0.08654900
vt 0.15639800 0.05025100
vt 0.11091700 0.48036800
vt 0.05848000 0.25239300
vt 0.13048900 0.24227900
vt 0.53413600 0.18460800
vt 0.03158000 0.05023200
vt 0.45297300 0.08217300
vt 0.97379900 0.93786600
vt 0.51366300 0.93786700
vt 0.05565800 0.13086000
vt 0.12019200 0.09846000
vt 0.31587300 0.29666500
vt 0.64589400 0.21274400
vt 0.13719500 0.53198500
vt 0.61344400 0.08702600
vt 0.32718000 0.01789000
vt 0.61368700 0.13816000
vt 0.49505000 0.11166900
vt 0.41544500 0.84030700
vt 0.27424700 0.52846200
vt 0.81213700 0.67650500
vt 0.78739500 0.47432300
vt 0.13869600 0.03855800
vt 0.46764800 0.15669900
vt 0.60103400 0.93786300
vt 0.38471300 0.12529900
vt 0.08502700 0.12664700
vt 0.09477300 0.09845400
vt 0.11206800 0.98865300
vt 0.46777700 0.03243200
vt 0.17784800 0.86792900
vt 0.22020700 0.04561800
vt 0.72076500 0.15670600
vt 0.26905700 0.86792900
vt 0.46605300 0.05972800
vt 0.31580600 0.99321700
vt 0.27691000 0.38809900
vt 0.02099000 0.21188300
vt 0.41030400 0.78444600
vt 0.26311300 0.47295000
vt 0.59269600 0.17757000
vt 0.98752000 0.02280300
vt 0.07026100 0.02343300
vt 0.30773500 0.01082800
vt 0.10213900 0.21092200
vt 0.32800300 0.08739500
vt 0.03128500 0.09840900
vt 0.14824300 0.15891800
vt 0.10766500 0.19068800
vt 0.70901300 0.03726000
vt 0.85470600 0.67621300
vt 0.39189100 0.08855800
vt 0.01516000 0.08855800
vt 0.75872900 0.19029800
vt 0.46770200 0.12529000
vt 0.26142200 0.29666500
vt 0.71871000 0.21271900
vt 0.11152100 0.19568700
vt 0.26780800 0.88447900
vt 0.31473500 0.34928600
vt 0.57312000 0.13114000
vt 0.48253400 0.00663300
vt 0.11154900 0.13849500
vt 0.23495100 0.99321700
vt 0.22349200 0.31112100
vt 0.71364100 0.08702700
vt 0.34282500 0.88447900
vt 0.01968900 0.88447900
vt 0.47856100 0.11166900
vt 0.89477000 0.98633400
vt 0.12004900 0.08654900
vt 0.98752000 0.14244200
vt 0.20366400 0.05231700
vt 0.40790800 0.13819800
vt 0.75872900 0.08262300
vt 0.36340000 0.18461100
vt 0.34414800 0.13816600
vt 0.16573600 0.60155800
vt 0.61709000 0.03242900
vt 0.63980000 0.08703100
vt 0.43765800 0.15671500
vt 0.25881500 0.02345700
vt 0.45385500 0.03728300
vt 0.09478800 0.02109100
vt 0.19467200 0.98865300
vt 0.72569300 0.03243000
vt 0.06159500 0.19569200
vt 0.90186400 0.31199800
vt 0.44363000 0.97917300
vt 0.67258400 0.67620600
vt 0.49175400 0.13816000
vt 0.26256000 0.34928600
vt 0.53498900 0.18974100
vt 0.11211100 0.20863300
vt 0.75872900 0.07065900
vt 0.92888400 0.21274900
vt 0.58158500 0.08215500
vt 0.55362800 0.15666800
vt 0.63684400 0.17759400
vt 0.64645900 0.03721500
vt 0.10628500 0.18562900
vt 0.74250800 0.15668900
vt 0.28423300 0.15668900
vt 0.66633700 0.18974100
vt 0.65672100 0.11166900
vt 0.61596500 0.05970100
vt 0.47905200 0.78443100
vt 0.20020100 0.77063900
vt 0.13880700 0.04407500
vt 0.17244200 0.03994200
vt 0.92846700 0.93786400
vt 0.38431300 0.18461300
vt 0.07023700 0.01082800
vt 0.38467100 0.15670600
vt 0.53392200 0.12525000
vt 0.11917000 0.03149700
vt 0.57311800 0.13814300
vt 0.18797400 0.02734300
vt 0.13502200 0.24919800
vt 0.32814300 0.09842100
vt 0.09187100 0.99321700
vt 0.35380400 0.31112100
vt 0.10988400 0.20759400
vt 0.61073900 0.18974100
vt 0.17244200 0.08858100
vt 0.47238200 0.42773700
vt 0.12205300 0.75979000
vt 0.10664500 0.21539400
vt 0.32449000 0.12528600
vt 0.38466800 0.13818200
vt 0.90173900 0.77731600
vt 0.74302900 0.08702300
vt 0.41541300 0.08702300
vt 0.13815300 0.41958200
vt 0.74289600 0.18971900
vt 0.28728800 0.18974100
vt 0.34414900 0.15669100
vt 0.61345800 0.11166900
vt 0.26571100 0.91148700
vt 0.08501600 0.13522900
vt 0.34415200 0.13116700
vt 0.70862000 0.03242800
vt 0.72072100 0.12529900
vt 0.14580200 0.91149600
vt 0.52266900 0.03242600
vt 0.09477900 0.08624800
vt 0.03953200 0.14947800
vt 0.30460500 0.17758600
vt 0.71316200 0.08220200
vt 0.45371300 0.00663300
vt 0.14465400 0.55895600
vt 0.30457900 0.12527900
vt 0.61710200 0.03726200
vt 0.69657100 0.13819800
vt 0.05776500 0.86792900
vt 0.75872900 0.02280300
vt 0.74238500 0.05972800
vt 0.41476900 0.05972800
vt 0.01433500 0.17684900
vt 0.17244100 0.09842800
vt 0.24600400 0.24669700
vt 0.35098400 0.71240000
vt 0.05776800 0.18978900
vt 0.11393000 0.18927000
vt 0.68551600 0.08703100
vt 0.80890900 0.93787200
vt 0.46777700 0.03728000
vt 0.66630200 0.15671500
vt 0.78739500 0.31199400
vt 0.60826800 0.21272000
vt 0.30954100 0.86792900
vt 0.74251000 0.13816500
vt 0.28423500 0.13816500
vt 0.57289200 0.18460800
vt 0.81161100 0.77760800
vt 0.18415200 0.58772200
vt 0.75872900 0.14244200
vt 0.34521900 0.08826700
vt 0.56804400 0.08703100
vt 0.74252100 0.17758500
vt 0.28424500 0.17758500
vt 0.13704400 0.51877700
vt 0.94766100 0.67621300
vt 0.30771200 0.02343300
vt 0.09479500 0.02913200
vt 0.37634000 0.02731200
vt 0.51365300 0.13814800
vt 0.48328900 0.03243000
vt 0.47164600 0.38139300
vt 0.08924600 0.72290700
vt 0.94880300 0.39186600
vt 0.43940700 0.33093300
vt 0.43540400 0.71242600
vt 0.23353600 0.64766400
vt 0.48305400 0.03727100
vt 0.36089600 0.78443100
vt 0.20185400 0.28047400
vt 0.52275200 0.05973000
vt 0.14897500 0.86792900
vt 0.40791200 0.15672200
vt 0.97204800 0.98637500
vt 0.51191200 0.98637500
vt 0.56217400 0.00663300
vt 0.32449000 0.13117100
vt 0.61328200 0.18461000
vt 0.66630600 0.13819200
vt 0.37634000 0.05229100
vt 0.98752000 0.04673100
vt 0.18797400 0.08858700
vt 0.13215000 0.98865300
vt 0.54781500 0.05967200
vt 0.25119100 0.32321400
vt 0.45347100 0.11166900
vt 0.03113900 0.99321700
vt 0.32433400 0.37870200
vt 0.65833300 0.08222700
vt 0.13867300 0.01791500
vt 0.11152300 0.18976800
vt 0.68679100 0.03242600
vt 0.13952800 0.08741800
vt 0.76201100 0.39216600
vt 0.93449800 0.87895800
vt 0.40796500 0.12531900
vt 0.48305500 0.26144600
vt 0.02347900 0.61162300
vt 0.30719200 0.21764200
vt 0.34435100 0.62351000
vt 0.34394000 0.18461100
vt 0.53392600 0.17756600
vt 0.25883900 0.01085200
vt 0.98752000 0.11851500
vt 0.34360900 0.85137900
vt 0.06877600 0.51580000
vt 0.02047300 0.85137900
vt 0.98752000 0.03476700
vt 0.18385600 0.46243200
vt 0.47910700 0.95221600
vt 0.17546700 0.62042800
vt 0.23440100 0.36077300
vt 0.27549100 0.99321700
vt 0.28356000 0.03582600
vt 0.15470400 0.51942800
vt 0.03159900 0.02495600
vt 0.73006200 0.08702500
vt 0.10766300 0.19569200
vt 0.64333900 0.05949100
vt 0.21993200 0.08828500
vt 0.69656200 0.13120800
vt 0.09449500 0.48170000
vt 0.32449000 0.15669600
vt 0.72090100 0.18974100
vt 0.33413200 0.98865400
vt 0.01099600 0.98865300
vt 0.62316500 0.47397100
vt 0.78736900 0.87927900
vt 0.63669700 0.18461200
vt 0.39293300 0.94796500
vt 0.15771700 0.34968100
vt 0.37116900 0.86783000
vt 0.42681600 0.03243200
vt 0.11211100 0.18273900
vt 0.69656700 0.15672100
vt 0.76583300 0.93787000
vt 0.46536000 0.08217700
vt 0.57689800 0.00663300
vt 0.98752000 0.16637000
vt 0.75915800 0.31199300
vt 0.08459500 0.19569200
vt 0.95159300 0.57511900
vt 0.39631900 0.97917300
vt 0.41312000 0.03728000
vt 0.74073600 0.03728000
vt 0.61367300 0.17758000
vt 0.28357500 0.08624800
vt 0.61667600 0.00663300
vt 0.05848000 0.13899600
vt 0.57310100 0.12525000
vt 0.66094000 0.05967200
vt 0.59272500 0.13114900
vt 0.06161000 0.20067300
vt 0.03133300 0.08826700
vt 0.29570700 0.98865300
vt 0.67979000 0.93810900
vt 0.06721900 0.21084000
vt 0.76746100 0.98647700
vt 0.27551500 0.92236100
vt 0.81109900 0.47427000
vt 0.68001100 0.98633000
vt 0.30875400 0.09843700
vt 0.11439900 0.26110600
vt 0.71425400 0.11166900
vt 0.72191800 0.31199100
vt 0.27409200 0.26011900
vt 0.17471500 0.99321700
vt 0.37634000 0.03991600
vt 0.25524700 0.98865300
vt 0.17470200 0.92236100
vt 0.67248000 0.39185900
vt 0.59308600 0.08219100
vt 0.40304300 0.89397400
vt 0.16316400 0.50303300
vt 0.70922300 0.00663300
vt 0.30459200 0.13116700
vt 0.68679200 0.00663300
vt 0.59269300 0.12525500
vt 0.46764900 0.13118500
vt 0.63124000 0.31199100
vt 0.11914000 0.01085200
vt 0.72131100 0.57511300
vt 0.76263600 0.67650300
vt 0.22021000 0.03758100
vt 0.28359300 0.00848600
vt 0.78739500 0.77742400
vt 0.07437800 0.21474400
vt 0.42718700 0.00663300
vt 0.07157500 0.92236100
vt 0.94248700 0.77731600
vt 0.15212000 0.98865300
vt 0.10628500 0.20575400
vt 0.23857000 0.03855800
vt 0.43766300 0.13120300
vt 0.41239800 0.48704300
vt 0.30502800 0.46529900
vt 0.55362800 0.13814300
vt 0.36084100 0.95221600
vt 0.17560100 0.43004700
vt 0.32449000 0.18974100
vt 0.10870400 0.86792900
vt 0.21475500 0.98865300
vt 0.98752000 0.09458700
vt 0.30781900 0.03787300
vt 0.04922400 0.08739500
vt 0.19381100 0.35261700
vt 0.39964900 0.59880000
vt 0.28864800 0.32277000
vt 0.32610500 0.32321400
vt 0.30582300 0.18974100
vt 0.34494800 0.03756100
vt 0.59899000 0.87925200
vt 0.05723000 0.20859500
vt 0.15541200 0.17697400
vt 0.39189000 0.09840400
vt 0.01515900 0.09840400
vt 0.34228700 0.53567200
vt 0.42526600 0.42759400
vt 0.75872900 0.11851500
vt 0.75872900 0.03476700
vt 0.90230900 0.39186700
vt 0.34494200 0.04559800
vt 0.55732600 0.77760700
vt 0.56466000 0.05949100
vt 0.90220500 0.67621400
vt 0.39189500 0.04795100
vt 0.01516400 0.04795100
vt 0.03058900 0.56087300
vt 0.21990500 0.85137900
vt 0.59339600 0.11166900
vt 0.23352700 0.41716900
vt 0.40454500 0.71242600
vt 0.07887500 0.48778900
vt 0.67750700 0.87905700
vt 0.85287900 0.31199700
vt 0.62598200 0.39185900
vt 0.18678100 0.58622200
vt 0.11154900 0.25289400
vt 0.19467600 0.99321700
vt 0.25057300 0.26822900
vt 0.30860200 0.08652600
vt 0.36654000 0.98279500
vt 0.19485800 0.44738700
vt 0.85609500 0.21272400
vt 0.02915300 0.45692100
vt 0.32449000 0.13817100
vt 0.36385900 0.15668900
vt 0.08655100 0.54150900
vt 0.09501500 0.21482400
vt 0.49176900 0.17758000
vt 0.11439900 0.13030200
vt 0.06918800 0.09843700
vt 0.15662700 0.08828500
vt 0.01929600 0.19569400
vt 0.44233300 0.59880000
vt 0.19377300 0.71219300
vt 0.42724000 0.11166900
vt 0.55362800 0.13113900
vt 0.05774900 0.19568700
vt 0.49483900 0.18974100
vt 0.62487900 0.11166900
vt 0.63683700 0.13118500
vt 0.40786200 0.18461500
vt 0.09476100 0.00848600
vt 0.75872900 0.16637000
vt 0.12312800 0.65846100
vt 0.64030900 0.87895200
vt 0.46540700 0.08702300
vt 0.15039900 0.19569400
vt 0.39188400 0.02731200
vt 0.01515300 0.02731200
vt 0.09436400 0.56949900
vt 0.72076500 0.77716500
vt 0.74304500 0.08217700
vt 0.41542900 0.08217700
f 710/710 203/203 262/262
f 262/262 135/135 710/710
f 710/710 461/461 932/932
f 932/932 203/203 710/710
f 423/423 375/375 203/203
f 203/203 932/932 423/423
f 375/375 110/110 262/262
f 262/262 203/203 375/375
f 561/561 407/407 698/698
f 698/698 827/827 561/561
f 110/110 121/121 698/698
f 698/698 262/262 110/110
f 121/121 190/190 827/827
f 827/827 698/698 121/121
f 929/929 578/578 691/691
f 691/691 614/614 929/929
f 190/190 402/402 691/691
f 691/691 827/827 190/190
f 402/402 215/215 614/614
f 614/614 691/691 402/402
f 599/599 1/1 105/105
f 105/105 519/519 599/599
f 215/215 292/292 105/105
f 105/105 614/614 215/215
f 292/292 812/812 519/519
f 519/519 105/105 292/292
f 133/133 278/278 819/819
f 278/278 638/638 819/819
f 447/447 60/60 819/819
f 60/60 133/133 819/819
f 503/503 127/127 819/819
f 127/127 447/447 819/819
f 652/652 210/210 819/819
f 210/210 503/503 819/819
f 698/698 407/407 135/135
f 135/135 262/262 698/698
f 691/691 578/578 561/561
f 561/561 827/827 691/691
f 105/105 1/1 929/929
f 929/929 614/614 105/105
f 248/248 892/892 599/599
f 599/599 519/519 248/248
f 122/122 892/892 248/248
f 248/248 947/947 122/122
f 812/812 715/715 248/248
f 248/248 519/519 812/812
f 715/715 547/547 947/947
f 947/947 248/248 715/715
f 796/796 600/600 819/819
f 600/600 652/652 819/819
f 493/493 891/891 6/6
f 6/6 589/589 493/493
f 932/932 461/461 196/196
f 196/196 589/589 932/932
f 554/554 232/232 534/534
f 534/534 230/230 554/554
f 916/916 257/257 443/443
f 443/443 52/52 916/916
f 216/216 645/645 679/679
f 679/679 555/555 216/216
f 589/589 6/6 423/423
f 423/423 932/932 589/589
f 230/230 534/534 891/891
f 891/891 493/493 230/230
f 52/52 443/443 232/232
f 232/232 554/554 52/52
f 555/555 679/679 257/257
f 257/257 916/916 555/555
f 344/344 819/819 831/831
f 638/638 831/831 819/819
f 865/865 819/819 835/835
f 819/819 344/344 835/835
f 927/927 819/819 186/186
f 865/865 186/186 819/819
f 870/870 819/819 596/596
f 927/927 596/596 819/819
f 15/15 130/130 230/230
f 230/230 493/493 15/15
f 130/130 486/486 554/554
f 554/554 230/230 130/130
f 486/486 143/143 52/52
f 52/52 554/554 486/486
f 143/143 841/841 916/916
f 916/916 52/52 143/143
f 841/841 670/670 555/555
f 555/555 916/916 841/841
f 670/670 482/482 216/216
f 216/216 555/555 670/670
f 482/482 363/363 67/67
f 67/67 216/216 482/482
f 122/122 947/947 67/67
f 67/67 363/363 122/122
f 947/947 547/547 352/352
f 352/352 67/67 947/947
f 67/67 352/352 645/645
f 645/645 216/216 67/67
f 796/796 819/819 250/250
f 870/870 250/250 819/819
f 493/493 589/589 196/196
f 196/196 15/15 493/493
f 408/408 562/562 622/622
f 622/622 771/771 408/408
f 134/134 408/408 771/771
f 771/771 931/931 134/134
f 579/579 930/930 409/409
f 409/409 697/697 579/579
f 562/562 579/579 697/697
f 697/697 622/622 562/562
f 2/2 598/598 832/832
f 832/832 883/883 2/2
f 930/930 2/2 883/883
f 883/883 409/409 930/930
f 893/893 123/123 161/161
f 161/161 603/603 893/893
f 598/598 894/894 604/604
f 604/604 832/832 598/598
f 711/711 134/134 931/931
f 931/931 676/676 711/711
f 460/460 711/711 676/676
f 676/676 760/760 460/460
f 129/129 14/14 798/798
f 798/798 489/489 129/129
f 485/485 129/129 489/489
f 489/489 551/551 485/485
f 142/142 485/485 551/551
f 551/551 825/825 142/142
f 840/840 142/142 825/825
f 825/825 919/919 840/840
f 671/671 840/840 919/919
f 919/919 597/597 671/671
f 481/481 671/671 597/597
f 597/597 729/729 481/481
f 364/364 481/481 729/729
f 729/729 441/441 364/364
f 123/123 364/364 441/441
f 441/441 161/161 123/123
f 197/197 460/460 760/760
f 760/760 159/159 197/197
f 14/14 197/197 159/159
f 159/159 798/798 14/14
f 931/931 771/771 660/660
f 660/660 552/552 931/931
f 771/771 622/622 373/373
f 373/373 660/660 771/771
f 622/622 697/697 96/96
f 96/96 373/373 622/622
f 697/697 409/409 191/191
f 191/191 96/96 697/697
f 409/409 883/883 362/362
f 362/362 191/191 409/409
f 883/883 832/832 557/557
f 557/557 362/362 883/883
f 832/832 604/604 275/275
f 275/275 557/557 832/832
f 603/603 161/161 758/758
f 758/758 274/274 603/603
f 760/760 676/676 236/236
f 236/236 88/88 760/760
f 676/676 931/931 552/552
f 552/552 236/236 676/676
f 551/551 489/489 24/24
f 24/24 137/137 551/551
f 489/489 798/798 63/63
f 63/63 24/24 489/489
f 919/919 825/825 792/792
f 792/792 882/882 919/919
f 825/825 551/551 137/137
f 137/137 792/792 825/825
f 729/729 597/597 296/296
f 296/296 431/431 729/729
f 597/597 919/919 882/882
f 882/882 296/296 597/597
f 161/161 441/441 314/314
f 314/314 758/758 161/161
f 441/441 729/729 431/431
f 431/431 314/314 441/441
f 798/798 159/159 624/624
f 624/624 63/63 798/798
f 159/159 760/760 88/88
f 88/88 624/624 159/159
f 132/132 574/574 20/20
f 20/20 44/44 132/132
f 574/574 667/667 148/148
f 148/148 20/20 574/574
f 667/667 736/736 635/635
f 635/635 148/148 667/667
f 736/736 84/84 594/594
f 594/594 635/635 736/736
f 84/84 273/273 249/249
f 249/249 594/594 84/84
f 273/273 429/429 58/58
f 58/58 249/249 273/273
f 429/429 905/905 181/181
f 181/181 58/58 429/429
f 904/904 165/165 846/846
f 846/846 180/180 904/904
f 433/433 74/74 661/661
f 661/661 70/70 433/433
f 74/74 132/132 44/44
f 44/44 661/661 74/74
f 435/435 871/871 319/319
f 319/319 633/633 435/435
f 871/871 583/583 862/862
f 862/862 319/319 871/871
f 226/226 128/128 405/405
f 405/405 735/735 226/226
f 128/128 435/435 633/633
f 633/633 405/405 128/128
f 900/900 212/212 166/166
f 166/166 889/889 900/900
f 212/212 226/226 735/735
f 735/735 166/166 212/212
f 165/165 369/369 227/227
f 227/227 846/846 165/165
f 369/369 900/900 889/889
f 889/889 227/227 369/369
f 583/583 119/119 149/149
f 149/149 862/862 583/583
f 119/119 433/433 70/70
f 70/70 149/149 119/119
f 574/574 660/660 373/373
f 373/373 667/667 574/574
f 660/660 574/574 132/132
f 132/132 552/552 660/660
f 736/736 96/96 191/191
f 191/191 84/84 736/736
f 96/96 736/736 667/667
f 667/667 373/373 96/96
f 273/273 362/362 557/557
f 557/557 429/429 273/273
f 362/362 273/273 84/84
f 84/84 191/191 362/362
f 904/904 274/274 758/758
f 758/758 165/165 904/904
f 275/275 905/905 429/429
f 429/429 557/557 275/275
f 74/74 236/236 552/552
f 552/552 132/132 74/74
f 236/236 74/74 433/433
f 433/433 88/88 236/236
f 871/871 24/24 63/63
f 63/63 583/583 871/871
f 24/24 871/871 435/435
f 435/435 137/137 24/24
f 128/128 792/792 137/137
f 137/137 435/435 128/128
f 792/792 128/128 226/226
f 226/226 882/882 792/792
f 212/212 296/296 882/882
f 882/882 226/226 212/212
f 296/296 212/212 900/900
f 900/900 431/431 296/296
f 369/369 314/314 431/431
f 431/431 900/900 369/369
f 314/314 369/369 165/165
f 165/165 758/758 314/314
f 119/119 624/624 88/88
f 88/88 433/433 119/119
f 624/624 119/119 583/583
f 583/583 63/63 624/624
f 115/115 189/189 121/121
f 121/121 110/110 115/115
f 189/189 55/55 190/190
f 190/190 121/121 189/189
f 937/937 714/714 375/375
f 375/375 423/423 937/937
f 714/714 115/115 110/110
f 110/110 375/375 714/714
f 324/324 348/348 6/6
f 6/6 891/891 324/324
f 348/348 937/937 423/423
f 423/423 6/6 348/348
f 99/99 8/8 534/534
f 534/534 232/232 99/99
f 8/8 324/324 891/891
f 891/891 534/534 8/8
f 144/144 162/162 443/443
f 443/443 257/257 144/144
f 162/162 99/99 232/232
f 232/232 443/443 162/162
f 674/674 459/459 679/679
f 679/679 645/645 674/674
f 459/459 144/144 257/257
f 257/257 679/679 459/459
f 609/609 40/40 352/352
f 352/352 547/547 609/609
f 40/40 674/674 645/645
f 645/645 352/352 40/40
f 469/469 769/769 715/715
f 715/715 812/812 469/469
f 769/769 609/609 547/547
f 547/547 715/715 769/769
f 95/95 53/53 292/292
f 292/292 215/215 95/95
f 53/53 469/469 812/812
f 812/812 292/292 53/53
f 55/55 112/112 402/402
f 402/402 190/190 55/55
f 112/112 95/95 215/215
f 215/215 402/402 112/112
f 55/55 189/189 60/60
f 60/60 447/447 55/55
f 189/189 115/115 133/133
f 133/133 60/60 189/189
f 115/115 714/714 278/278
f 278/278 133/133 115/115
f 714/714 937/937 638/638
f 638/638 278/278 714/714
f 937/937 348/348 831/831
f 831/831 638/638 937/937
f 348/348 324/324 344/344
f 344/344 831/831 348/348
f 324/324 8/8 835/835
f 835/835 344/344 324/324
f 8/8 99/99 865/865
f 865/865 835/835 8/8
f 99/99 162/162 186/186
f 186/186 865/865 99/99
f 162/162 144/144 927/927
f 927/927 186/186 162/162
f 144/144 459/459 596/596
f 596/596 927/927 144/144
f 459/459 674/674 870/870
f 870/870 596/596 459/459
f 674/674 40/40 250/250
f 250/250 870/870 674/674
f 40/40 609/609 796/796
f 796/796 250/250 40/40
f 609/609 769/769 600/600
f 600/600 796/796 609/609
f 769/769 469/469 652/652
f 652/652 600/600 769/769
f 469/469 53/53 210/210
f 210/210 652/652 469/469
f 53/53 95/95 503/503
f 503/503 210/210 53/53
f 95/95 112/112 127/127
f 127/127 503/503 95/95
f 112/112 55/55 447/447
f 447/447 127/127 112/112
f 44/44 20/20 768/768
f 768/768 168/168 44/44
f 20/20 148/148 859/859
f 859/859 768/768 20/20
f 148/148 635/635 942/942
f 942/942 859/859 148/148
f 635/635 594/594 664/664
f 664/664 942/942 635/635
f 594/594 249/249 477/477
f 477/477 664/664 594/594
f 249/249 58/58 794/794
f 794/794 477/477 249/249
f 58/58 181/181 949/949
f 949/949 794/794 58/58
f 180/180 846/846 737/737
f 737/737 948/948 180/180
f 70/70 661/661 334/334
f 334/334 669/669 70/70
f 661/661 44/44 168/168
f 168/168 334/334 661/661
f 633/633 319/319 488/488
f 488/488 781/781 633/633
f 319/319 862/862 410/410
f 410/410 488/488 319/319
f 735/735 405/405 863/863
f 863/863 595/595 735/735
f 405/405 633/633 781/781
f 781/781 863/863 405/405
f 889/889 166/166 567/567
f 567/567 116/116 889/889
f 166/166 735/735 595/595
f 595/595 567/567 166/166
f 846/846 227/227 411/411
f 411/411 737/737 846/846
f 227/227 889/889 116/116
f 116/116 411/411 227/227
f 862/862 149/149 175/175
f 175/175 410/410 862/862
f 149/149 70/70 669/669
f 669/669 175/175 149/149
f 199/199 188/188 322/322
f 322/322 901/901 199/199
f 188/188 560/560 202/202
f 202/202 322/322 188/188
f 97/97 647/647 358/358
f 358/358 449/449 97/97
f 742/742 462/462 449/449
f 449/449 358/358 742/742
f 462/462 742/742 512/512
f 512/512 497/497 462/462
f 497/497 512/512 820/820
f 820/820 263/263 497/497
f 282/282 263/263 820/820
f 820/820 734/734 282/282
f 198/198 282/282 734/734
f 734/734 868/868 198/198
f 187/187 198/198 868/868
f 868/868 773/773 187/187
f 559/559 187/187 773/773
f 773/773 662/662 559/559
f 38/38 639/639 358/358
f 358/358 647/647 38/38
f 358/358 639/639 899/899
f 899/899 742/742 358/358
f 742/742 899/899 100/100
f 100/100 512/512 742/742
f 512/512 100/100 507/507
f 507/507 820/820 512/512
f 507/507 903/903 734/734
f 734/734 820/820 507/507
f 903/903 682/682 868/868
f 868/868 734/734 903/903
f 682/682 284/284 773/773
f 773/773 868/868 682/682
f 284/284 545/545 662/662
f 662/662 773/773 284/284
f 913/913 639/639 38/38
f 38/38 922/922 913/913
f 913/913 195/195 899/899
f 899/899 639/639 913/913
f 195/195 504/504 100/100
f 100/100 899/899 195/195
f 100/100 504/504 526/526
f 526/526 507/507 100/100
f 507/507 526/526 602/602
f 602/602 903/903 507/507
f 903/903 602/602 228/228
f 228/228 682/682 903/903
f 228/228 448/448 284/284
f 284/284 682/682 228/228
f 448/448 33/33 545/545
f 545/545 284/284 448/448
f 396/396 913/913 922/922
f 922/922 211/211 396/396
f 396/396 118/118 195/195
f 195/195 913/913 396/396
f 118/118 838/838 504/504
f 504/504 195/195 118/118
f 838/838 303/303 526/526
f 526/526 504/504 838/838
f 526/526 303/303 572/572
f 572/572 602/602 526/526
f 602/602 572/572 726/726
f 726/726 228/228 602/602
f 726/726 346/346 448/448
f 448/448 228/228 726/726
f 346/346 717/717 33/33
f 33/33 448/448 346/346
f 806/806 471/471 717/717
f 717/717 346/346 806/806
f 662/662 315/315 752/752
f 752/752 559/559 662/662
f 315/315 662/662 545/545
f 545/545 621/621 315/315
f 33/33 468/468 621/621
f 621/621 545/545 33/33
f 468/468 33/33 717/717
f 717/717 313/313 468/468
f 224/224 98/98 450/450
f 450/450 380/380 224/224
f 380/380 450/450 463/463
f 463/463 397/397 380/380
f 397/397 463/463 498/498
f 498/498 244/244 397/397
f 498/498 264/264 66/66
f 66/66 244/244 498/498
f 264/264 283/283 470/470
f 470/470 66/66 264/264
f 283/283 199/199 901/901
f 901/901 470/470 283/283
f 560/560 753/753 222/222
f 222/222 202/202 560/560
f 720/720 396/396 211/211
f 211/211 136/136 720/720
f 118/118 396/396 720/720
f 720/720 167/167 118/118
f 838/838 118/118 167/167
f 167/167 573/573 838/838
f 303/303 838/838 573/573
f 573/573 406/406 303/303
f 572/572 303/303 406/406
f 406/406 254/254 572/572
f 726/726 572/572 254/254
f 254/254 864/864 726/726
f 346/346 726/726 864/864
f 864/864 806/806 346/346
f 313/313 717/717 471/471
f 471/471 307/307 313/313
f 506/506 901/901 322/322
f 322/322 890/890 506/506
f 890/890 322/322 202/202
f 202/202 576/576 890/890
f 858/858 564/564 721/721
f 721/721 140/140 858/858
f 914/914 858/858 140/140
f 140/140 529/529 914/914
f 529/529 174/174 805/805
f 805/805 914/914 529/529
f 174/174 94/94 194/194
f 194/194 805/805 174/174
f 530/530 169/169 194/194
f 194/194 94/94 530/530
f 506/506 480/480 169/169
f 169/169 530/530 506/506
f 890/890 945/945 480/480
f 480/480 506/506 890/890
f 576/576 368/368 945/945
f 945/945 890/890 576/576
f 858/858 440/440 305/305
f 305/305 564/564 858/858
f 858/858 914/914 849/849
f 849/849 440/440 858/858
f 914/914 805/805 378/378
f 378/378 849/849 914/914
f 805/805 194/194 234/234
f 234/234 378/378 805/805
f 234/234 194/194 169/169
f 169/169 641/641 234/234
f 641/641 169/169 480/480
f 480/480 536/536 641/641
f 536/536 480/480 945/945
f 945/945 912/912 536/536
f 912/912 945/945 368/368
f 368/368 834/834 912/912
f 305/305 440/440 843/843
f 843/843 608/608 305/305
f 843/843 440/440 849/849
f 849/849 355/355 843/843
f 355/355 849/849 378/378
f 378/378 268/268 355/355
f 378/378 234/234 860/860
f 860/860 268/268 378/378
f 234/234 641/641 442/442
f 442/442 860/860 234/234
f 641/641 536/536 951/951
f 951/951 442/442 641/641
f 951/951 536/536 912/912
f 912/912 219/219 951/951
f 219/219 912/912 834/834
f 834/834 160/160 219/219
f 608/608 843/843 818/818
f 818/818 281/281 608/608
f 818/818 843/843 355/355
f 355/355 772/772 818/818
f 772/772 355/355 268/268
f 268/268 304/304 772/772
f 304/304 268/268 860/860
f 860/860 525/525 304/304
f 860/860 442/442 861/861
f 861/861 525/525 860/860
f 442/442 951/951 27/27
f 27/27 861/861 442/442
f 27/27 951/951 219/219
f 219/219 365/365 27/27
f 365/365 219/219 160/160
f 160/160 814/814 365/365
f 806/806 365/365 814/814
f 814/814 471/471 806/806
f 368/368 576/576 77/77
f 77/77 398/398 368/368
f 398/398 839/839 834/834
f 834/834 368/368 398/398
f 160/160 834/834 839/839
f 839/839 102/102 160/160
f 102/102 836/836 814/814
f 814/814 160/160 102/102
f 224/224 380/380 140/140
f 140/140 721/721 224/224
f 380/380 397/397 529/529
f 529/529 140/140 380/380
f 397/397 244/244 174/174
f 174/174 529/529 397/397
f 174/174 244/244 66/66
f 66/66 94/94 174/174
f 94/94 66/66 470/470
f 470/470 530/530 94/94
f 530/530 470/470 901/901
f 901/901 506/506 530/530
f 576/576 202/202 222/222
f 222/222 77/77 576/576
f 720/720 136/136 281/281
f 281/281 818/818 720/720
f 772/772 167/167 720/720
f 720/720 818/818 772/772
f 304/304 573/573 167/167
f 167/167 772/772 304/304
f 525/525 406/406 573/573
f 573/573 304/304 525/525
f 861/861 254/254 406/406
f 406/406 525/525 861/861
f 27/27 864/864 254/254
f 254/254 861/861 27/27
f 365/365 806/806 864/864
f 864/864 27/27 365/365
f 836/836 307/307 471/471
f 471/471 814/814 836/836
f 19/19 7/7 888/888
f 888/888 687/687 19/19
f 7/7 258/258 878/878
f 878/878 888/888 7/7
f 290/290 231/231 802/802
f 802/802 539/539 290/290
f 231/231 18/18 686/686
f 686/686 802/802 231/231
f 807/807 170/170 655/655
f 655/655 209/209 807/807
f 170/170 290/290 539/539
f 539/539 655/655 170/170
f 432/432 756/756 675/675
f 675/675 285/285 432/432
f 756/756 807/807 209/209
f 209/209 675/675 756/756
f 731/731 18/18 231/231
f 231/231 3/3 731/731
f 57/57 3/3 231/231
f 231/231 290/290 57/57
f 57/57 290/290 170/170
f 170/170 343/343 57/57
f 650/650 343/343 170/170
f 170/170 807/807 650/650
f 650/650 807/807 756/756
f 756/756 824/824 650/650
f 592/592 824/824 756/756
f 756/756 432/432 592/592
f 592/592 432/432 725/725
f 725/725 379/379 592/592
f 438/438 379/379 725/725
f 725/725 29/29 438/438
f 29/29 725/725 446/446
f 446/446 111/111 29/29
f 725/725 432/432 285/285
f 285/285 446/446 725/725
f 258/258 7/7 699/699
f 699/699 403/403 258/258
f 19/19 732/732 699/699
f 699/699 7/7 19/19
f 627/627 172/172 156/156
f 156/156 779/779 627/627
f 878/878 258/258 779/779
f 779/779 156/156 878/878
f 941/941 421/421 120/120
f 120/120 663/663 941/941
f 172/172 627/627 663/663
f 663/663 120/120 172/172
f 179/179 64/64 201/201
f 201/201 451/451 179/179
f 421/421 941/941 451/451
f 451/451 201/201 421/421
f 117/117 323/323 938/938
f 938/938 279/279 117/117
f 64/64 179/179 279/279
f 279/279 938/938 64/64
f 39/39 92/92 663/663
f 663/663 627/627 39/39
f 92/92 360/360 941/941
f 941/941 663/663 92/92
f 360/360 272/272 451/451
f 451/451 941/941 360/360
f 272/272 13/13 179/179
f 179/179 451/451 272/272
f 13/13 928/928 279/279
f 279/279 179/179 13/13
f 928/928 288/288 117/117
f 117/117 279/279 928/928
f 288/288 780/780 556/556
f 556/556 117/117 288/288
f 438/438 29/29 556/556
f 556/556 780/780 438/438
f 29/29 111/111 644/644
f 644/644 556/556 29/29
f 323/323 117/117 556/556
f 556/556 644/644 323/323
f 258/258 403/403 538/538
f 538/538 779/779 258/258
f 627/627 779/779 538/538
f 538/538 39/39 627/627
f 731/731 3/3 584/584
f 584/584 653/653 731/731
f 3/3 57/57 813/813
f 813/813 584/584 3/3
f 57/57 343/343 719/719
f 719/719 813/813 57/57
f 343/343 650/650 298/298
f 298/298 719/719 343/343
f 650/650 824/824 297/297
f 297/297 298/298 650/650
f 824/824 592/592 78/78
f 78/78 297/297 824/824
f 592/592 379/379 42/42
f 42/42 78/78 592/592
f 379/379 438/438 649/649
f 649/649 42/42 379/379
f 403/403 699/699 295/295
f 295/295 801/801 403/403
f 699/699 732/732 654/654
f 654/654 295/295 699/699
f 360/360 92/92 665/665
f 665/665 751/751 360/360
f 92/92 39/39 925/925
f 925/925 665/665 92/92
f 13/13 272/272 632/632
f 632/632 575/575 13/13
f 272/272 360/360 751/751
f 751/751 632/632 272/272
f 288/288 928/928 4/4
f 4/4 332/332 288/288
f 928/928 13/13 575/575
f 575/575 4/4 928/928
f 438/438 780/780 445/445
f 445/445 649/649 438/438
f 780/780 288/288 332/332
f 332/332 445/445 780/780
f 39/39 538/538 688/688
f 688/688 925/925 39/39
f 538/538 403/403 801/801
f 801/801 688/688 538/538
f 653/653 584/584 30/30
f 30/30 723/723 653/653
f 584/584 813/813 705/705
f 705/705 30/30 584/584
f 813/813 719/719 757/757
f 757/757 705/705 813/813
f 719/719 298/298 490/490
f 490/490 757/757 719/719
f 298/298 297/297 568/568
f 568/568 490/490 298/298
f 297/297 78/78 483/483
f 483/483 568/568 297/297
f 78/78 42/42 668/668
f 668/668 483/483 78/78
f 42/42 649/649 875/875
f 875/875 668/668 42/42
f 801/801 295/295 241/241
f 241/241 924/924 801/801
f 295/295 654/654 724/724
f 724/724 241/241 295/295
f 751/751 665/665 681/681
f 681/681 625/625 751/751
f 665/665 925/925 28/28
f 28/28 681/681 665/665
f 575/575 632/632 320/320
f 320/320 416/416 575/575
f 632/632 751/751 625/625
f 625/625 320/320 632/632
f 332/332 4/4 642/642
f 642/642 738/738 332/332
f 4/4 575/575 416/416
f 416/416 642/642 4/4
f 649/649 445/445 513/513
f 513/513 875/875 649/649
f 445/445 332/332 738/738
f 738/738 513/513 445/445
f 925/925 688/688 628/628
f 628/628 28/28 925/925
f 688/688 801/801 924/924
f 924/924 628/628 688/688
f 124/124 126/126 694/694
f 694/694 330/330 124/124
f 126/126 799/799 316/316
f 316/316 694/694 126/126
f 799/799 5/5 225/225
f 225/225 316/316 799/799
f 5/5 940/940 158/158
f 158/158 225/225 5/5
f 940/940 251/251 434/434
f 434/434 158/158 940/940
f 251/251 830/830 856/856
f 856/856 434/434 251/251
f 830/830 612/612 828/828
f 828/828 856/856 830/830
f 612/612 936/936 347/347
f 347/347 828/828 612/612
f 755/755 854/854 703/703
f 703/703 680/680 755/755
f 854/854 125/125 331/331
f 331/331 703/703 854/854
f 171/171 229/229 577/577
f 577/577 774/774 171/171
f 229/229 377/377 370/370
f 370/370 577/577 229/229
f 857/857 872/872 311/311
f 311/311 606/606 857/857
f 872/872 171/171 774/774
f 774/774 311/311 872/872
f 155/155 326/326 327/327
f 327/327 535/535 155/155
f 326/326 857/857 606/606
f 606/606 327/327 326/326
f 936/936 85/85 666/666
f 666/666 347/347 936/936
f 85/85 155/155 535/535
f 535/535 666/666 85/85
f 377/377 692/692 543/543
f 543/543 370/370 377/377
f 692/692 755/755 680/680
f 680/680 543/543 692/692
f 705/705 799/799 126/126
f 126/126 30/30 705/705
f 723/723 30/30 126/126
f 126/126 124/124 723/723
f 490/490 940/940 5/5
f 5/5 757/757 490/490
f 799/799 705/705 757/757
f 757/757 5/5 799/799
f 483/483 830/830 251/251
f 251/251 568/568 483/483
f 940/940 490/490 568/568
f 568/568 251/251 940/940
f 875/875 936/936 612/612
f 612/612 668/668 875/875
f 830/830 483/483 668/668
f 668/668 612/612 830/830
f 724/724 125/125 854/854
f 854/854 241/241 724/724
f 924/924 241/241 854/854
f 854/854 755/755 924/924
f 28/28 377/377 229/229
f 229/229 681/681 28/28
f 625/625 681/681 229/229
f 229/229 171/171 625/625
f 625/625 171/171 872/872
f 872/872 320/320 625/625
f 416/416 320/320 872/872
f 872/872 857/857 416/416
f 416/416 857/857 326/326
f 326/326 642/642 416/416
f 738/738 642/642 326/326
f 326/326 155/155 738/738
f 738/738 155/155 85/85
f 85/85 513/513 738/738
f 936/936 875/875 513/513
f 513/513 85/85 936/936
f 924/924 755/755 692/692
f 692/692 628/628 924/924
f 377/377 28/28 628/628
f 628/628 692/692 377/377
f 707/707 593/593 384/384
f 384/384 475/475 707/707
f 476/476 385/385 511/511
f 511/511 605/605 476/476
f 605/605 511/511 306/306
f 306/306 390/390 605/605
f 390/390 306/306 817/817
f 817/817 943/943 390/390
f 943/943 817/817 427/427
f 427/427 544/544 943/943
f 544/544 427/427 623/623
f 623/623 728/728 544/544
f 728/728 623/623 22/22
f 22/22 131/131 728/728
f 131/131 22/22 782/782
f 782/782 897/897 131/131
f 897/897 782/782 426/426
f 426/426 540/540 897/897
f 540/540 426/426 881/881
f 881/881 35/35 540/540
f 35/35 881/881 522/522
f 522/522 626/626 35/35
f 626/626 522/522 546/546
f 546/546 646/646 626/626
f 646/646 546/546 382/382
f 382/382 473/473 646/646
f 473/473 382/382 759/759
f 759/759 484/484 473/473
f 484/484 759/759 786/786
f 786/786 898/898 484/484
f 898/898 786/786 593/593
f 593/593 707/707 898/898
f 393/393 651/651 797/797
f 797/797 291/291 393/393
f 651/651 548/548 829/829
f 829/829 797/797 651/651
f 548/548 491/491 260/260
f 260/260 829/829 548/548
f 491/491 601/601 47/47
f 47/47 260/260 491/491
f 601/601 83/83 439/439
f 439/439 47/47 601/601
f 83/83 823/823 708/708
f 708/708 439/439 83/83
f 822/822 247/247 108/108
f 108/108 709/709 822/822
f 247/247 634/634 516/516
f 516/516 108/108 247/247
f 291/291 797/797 12/12
f 12/12 50/50 291/291
f 797/797 829/829 767/767
f 767/767 12/12 797/797
f 829/829 260/260 359/359
f 359/359 767/767 829/829
f 260/260 47/47 700/700
f 700/700 359/359 260/260
f 47/47 439/439 452/452
f 452/452 700/700 47/47
f 439/439 708/708 952/952
f 952/952 452/452 439/439
f 709/709 108/108 154/154
f 154/154 953/953 709/709
f 108/108 516/516 558/558
f 558/558 154/154 108/108
f 325/325 939/939 428/428
f 428/428 631/631 325/325
f 656/656 325/325 631/631
f 631/631 372/372 656/656
f 235/235 656/656 372/372
f 372/372 716/716 235/235
f 842/842 235/235 716/716
f 716/716 617/617 842/842
f 182/182 842/842 617/617
f 617/617 795/795 182/182
f 356/356 182/182 795/795
f 795/795 683/683 356/356
f 935/935 357/357 684/684
f 684/684 91/91 935/935
f 494/494 764/764 935/935
f 935/935 91/91 494/494
f 826/826 414/414 59/59
f 59/59 630/630 826/826
f 109/109 101/101 826/826
f 826/826 630/630 109/109
f 499/499 492/492 65/65
f 65/65 80/80 499/499
f 414/414 499/499 80/80
f 80/80 59/59 414/414
f 855/855 853/853 693/693
f 693/693 770/770 855/855
f 492/492 855/855 770/770
f 770/770 65/65 492/492
f 367/367 10/10 341/341
f 341/341 637/637 367/367
f 853/853 367/367 637/637
f 637/637 693/693 853/853
f 393/393 59/59 80/80
f 80/80 651/651 393/393
f 548/548 651/651 80/80
f 80/80 65/65 548/548
f 548/548 65/65 770/770
f 770/770 491/491 548/548
f 601/601 491/491 770/770
f 770/770 693/693 601/601
f 601/601 693/693 637/637
f 637/637 83/83 601/601
f 823/823 83/83 637/637
f 637/637 341/341 823/823
f 822/822 340/340 811/811
f 811/811 247/247 822/822
f 634/634 247/247 811/811
f 811/811 302/302 634/634
f 428/428 50/50 12/12
f 12/12 631/631 428/428
f 372/372 631/631 12/12
f 12/12 767/767 372/372
f 372/372 767/767 359/359
f 359/359 716/716 372/372
f 617/617 716/716 359/359
f 359/359 700/700 617/617
f 617/617 700/700 452/452
f 452/452 795/795 617/617
f 683/683 795/795 452/452
f 452/452 952/952 683/683
f 684/684 953/953 154/154
f 154/154 91/91 684/684
f 494/494 91/91 154/154
f 154/154 558/558 494/494
f 657/657 141/141 192/192
f 192/192 704/704 657/657
f 704/704 393/393 291/291
f 291/291 657/657 704/704
f 73/73 850/850 141/141
f 141/141 657/657 73/73
f 657/657 291/291 50/50
f 50/50 73/73 657/657
f 689/689 908/908 404/404
f 404/404 566/566 689/689
f 939/939 689/689 566/566
f 566/566 428/428 939/939
f 866/866 701/701 302/302
f 302/302 811/811 866/866
f 9/9 866/866 811/811
f 811/811 340/340 9/9
f 704/704 192/192 109/109
f 109/109 630/630 704/704
f 59/59 393/393 704/704
f 704/704 630/630 59/59
f 566/566 404/404 850/850
f 850/850 73/73 566/566
f 50/50 428/428 566/566
f 566/566 73/73 50/50
f 289/289 523/523 902/902
f 902/902 383/383 289/289
f 474/474 383/383 902/902
f 902/902 762/762 474/474
f 474/474 762/762 749/749
f 749/749 417/417 474/474
f 528/528 417/417 749/749
f 749/749 537/537 528/528
f 528/528 537/537 173/173
f 173/173 746/746 528/528
f 718/718 746/746 173/173
f 173/173 586/586 718/718
f 718/718 586/586 516/516
f 516/516 634/634 718/718
f 523/523 648/648 104/104
f 104/104 902/902 523/523
f 762/762 902/902 104/104
f 104/104 335/335 762/762
f 762/762 335/335 479/479
f 479/479 749/749 762/762
f 537/537 749/749 479/479
f 479/479 265/265 537/537
f 537/537 265/265 193/193
f 193/193 173/173 537/537
f 586/586 173/173 193/193
f 193/193 815/815 586/586
f 586/586 815/815 558/558
f 558/558 516/516 586/586
f 220/220 730/730 114/114
f 114/114 37/37 220/220
f 730/730 220/220 389/389
f 389/389 310/310 730/730
f 510/510 280/280 310/310
f 310/310 389/389 510/510
f 280/280 510/510 569/569
f 569/569 213/213 280/280
f 620/620 527/527 213/213
f 213/213 569/569 620/620
f 527/527 620/620 394/394
f 394/394 946/946 527/527
f 764/764 494/494 946/946
f 946/946 394/394 764/764
f 101/101 109/109 321/321
f 321/321 816/816 101/101
f 754/754 176/176 366/366
f 366/366 11/11 754/754
f 176/176 754/754 816/816
f 816/816 321/321 176/176
f 376/376 696/696 54/54
f 54/54 371/371 376/376
f 696/696 376/376 11/11
f 11/11 366/366 696/696
f 613/613 739/739 581/581
f 581/581 56/56 613/613
f 739/739 613/613 371/371
f 371/371 54/54 739/739
f 289/289 383/383 176/176
f 176/176 321/321 289/289
f 383/383 474/474 366/366
f 366/366 176/176 383/383
f 474/474 417/417 696/696
f 696/696 366/366 474/474
f 417/417 528/528 54/54
f 54/54 696/696 417/417
f 528/528 746/746 739/739
f 739/739 54/54 528/528
f 746/746 718/718 581/581
f 581/581 739/739 746/746
f 718/718 634/634 302/302
f 302/302 581/581 718/718
f 114/114 730/730 104/104
f 104/104 648/648 114/114
f 730/730 310/310 335/335
f 335/335 104/104 730/730
f 310/310 280/280 479/479
f 479/479 335/335 310/310
f 280/280 213/213 265/265
f 265/265 479/479 280/280
f 213/213 527/527 193/193
f 193/193 265/265 213/213
f 527/527 946/946 815/815
f 815/815 193/193 527/527
f 946/946 494/494 558/558
f 558/558 815/815 946/946
f 523/523 289/289 192/192
f 192/192 141/141 523/523
f 648/648 523/523 141/141
f 141/141 850/850 648/648
f 404/404 908/908 37/37
f 37/37 114/114 404/404
f 302/302 701/701 56/56
f 56/56 581/581 302/302
f 321/321 109/109 192/192
f 192/192 289/289 321/321
f 648/648 850/850 404/404
f 404/404 114/114 648/648
f 495/495 787/787 46/46
f 46/46 877/877 495/495
f 26/26 76/76 809/809
f 809/809 246/246 26/26
f 300/300 923/923 911/911
f 911/911 800/800 300/300
f 300/300 800/800 430/430
f 430/430 308/308 300/300
f 76/76 308/308 430/430
f 157/157 256/256 808/808
f 541/541 256/256 157/157
f 157/157 851/851 541/541
f 810/810 541/541 851/851
f 851/851 259/259 810/810
f 245/245 810/810 259/259
f 259/259 570/570 245/245
f 75/75 25/25 317/317
f 317/317 381/381 75/75
f 309/309 75/75 381/381
f 381/381 333/333 309/309
f 299/299 309/309 333/333
f 333/333 240/240 299/299
f 301/301 419/419 299/299
f 299/299 240/240 301/301
f 852/852 395/395 43/43
f 43/43 787/787 852/852
f 787/787 43/43 921/921
f 921/921 46/46 787/787
f 911/911 61/61 784/784
f 784/784 312/312 911/911
f 911/911 923/923 437/437
f 437/437 61/61 911/911
f 785/785 62/62 706/706
f 706/706 509/509 785/785
f 62/62 436/436 879/879
f 879/879 706/706 62/62
f 436/436 500/500 750/750
f 750/750 879/879 436/436
f 509/509 706/706 164/164
f 164/164 619/619 509/509
f 706/706 879/879 34/34
f 34/34 164/164 706/706
f 879/879 750/750 206/206
f 206/206 34/34 879/879
f 619/619 164/164 401/401
f 401/401 49/49 619/619
f 164/164 34/34 31/31
f 31/31 401/401 164/164
f 34/34 206/206 695/695
f 695/695 31/31 34/34
f 911/911 312/312 422/422
f 422/422 800/800 911/911
f 800/800 422/422 478/478
f 478/478 553/553 800/800
f 553/553 478/478 733/733
f 733/733 221/221 553/553
f 221/221 733/733 793/793
f 793/793 852/852 221/221
f 300/300 420/420 923/923
f 45/45 72/72 808/808
f 808/808 876/876 45/45
f 876/876 808/808 256/256
f 381/381 233/233 743/743
f 743/743 333/333 381/381
f 72/72 465/465 487/487
f 487/487 808/808 72/72
f 508/508 618/618 455/455
f 455/455 722/722 508/508
f 48/48 89/89 455/455
f 455/455 618/618 48/48
f 259/259 90/90 217/217
f 217/217 570/570 259/259
f 333/333 743/743 269/269
f 269/269 240/240 333/333
f 524/524 565/565 733/733
f 733/733 478/478 524/524
f 784/784 276/276 926/926
f 926/926 312/312 784/784
f 72/72 45/45 920/920
f 920/920 821/821 72/72
f 400/400 533/533 21/21
f 21/21 804/804 400/400
f 533/533 207/207 41/41
f 41/41 21/21 533/533
f 207/207 867/867 361/361
f 361/361 41/41 207/207
f 867/867 51/51 472/472
f 472/472 361/361 867/867
f 51/51 163/163 580/580
f 580/580 472/472 51/51
f 163/163 342/342 761/761
f 761/761 580/580 163/163
f 342/342 71/71 869/869
f 869/869 761/761 342/342
f 401/401 867/867 207/207
f 401/401 207/207 533/533
f 533/533 49/49 401/401
f 401/401 31/31 51/51
f 51/51 867/867 401/401
f 31/31 163/163 51/51
f 31/31 695/695 342/342
f 342/342 163/163 31/31
f 695/695 71/71 342/342
f 49/49 533/533 400/400
f 21/21 765/765 387/387
f 387/387 804/804 21/21
f 41/41 145/145 765/765
f 765/765 21/21 41/41
f 361/361 238/238 145/145
f 145/145 41/41 361/361
f 472/472 672/672 238/238
f 238/238 361/361 472/472
f 580/580 549/549 672/672
f 672/672 472/472 580/580
f 761/761 86/86 549/549
f 549/549 580/580 761/761
f 869/869 69/69 86/86
f 86/86 761/761 869/869
f 395/395 852/852 793/793
f 793/793 32/32 395/395
f 750/750 582/582 23/23
f 23/23 206/206 750/750
f 69/69 869/869 345/345
f 345/345 845/845 69/69
f 23/23 183/183 695/695
f 695/695 206/206 23/23
f 221/221 495/495 685/685
f 685/685 553/553 221/221
f 685/685 495/495 877/877
f 877/877 255/255 685/685
f 800/800 553/553 685/685
f 685/685 430/430 800/800
f 221/221 852/852 787/787
f 787/787 495/495 221/221
f 255/255 542/542 430/430
f 430/430 685/685 255/255
f 748/748 178/178 26/26
f 26/26 246/246 748/748
f 748/748 712/712 293/293
f 293/293 178/178 748/748
f 712/712 777/777 454/454
f 454/454 293/293 712/712
f 747/747 245/245 570/570
f 570/570 590/590 747/747
f 910/910 713/713 747/747
f 747/747 590/590 910/910
f 294/294 453/453 885/885
f 885/885 107/107 294/294
f 177/177 294/294 107/107
f 107/107 873/873 177/177
f 25/25 177/177 873/873
f 873/873 317/317 25/25
f 909/909 591/591 874/874
f 874/874 106/106 909/909
f 571/571 318/318 874/874
f 874/874 591/591 571/571
f 884/884 353/353 909/909
f 909/909 106/106 884/884
f 354/354 778/778 713/713
f 713/713 910/910 354/354
f 453/453 778/778 354/354
f 354/354 885/885 453/453
f 750/750 500/500 350/350
f 350/350 582/582 750/750
f 259/259 851/851 329/329
f 329/329 90/90 259/259
f 157/157 214/214 329/329
f 329/329 851/851 157/157
f 301/301 240/240 269/269
f 269/269 336/336 301/301
f 386/386 587/587 79/79
f 79/79 803/803 386/386
f 338/338 727/727 629/629
f 629/629 789/789 338/338
f 518/518 184/184 741/741
f 741/741 678/678 518/518
f 950/950 456/456 464/464
f 464/464 776/776 950/950
f 950/950 776/776 16/16
f 16/16 944/944 950/950
f 271/271 944/944 741/741
f 741/741 184/184 271/271
f 185/185 90/90 329/329
f 329/329 270/270 185/185
f 90/90 185/185 517/517
f 517/517 217/217 90/90
f 233/233 896/896 677/677
f 677/677 740/740 233/233
f 17/17 743/743 233/233
f 233/233 740/740 17/17
f 17/17 775/775 269/269
f 269/269 743/743 17/17
f 336/336 269/269 775/775
f 775/775 152/152 336/336
f 727/727 915/915 374/374
f 374/374 93/93 727/727
f 727/727 338/338 267/267
f 267/267 915/915 727/727
f 520/520 456/456 926/926
f 926/926 276/276 520/520
f 520/520 906/906 464/464
f 464/464 456/456 520/520
f 277/277 722/722 585/585
f 585/585 521/521 277/277
f 521/521 585/585 208/208
f 208/208 907/907 521/521
f 907/907 208/208 582/582
f 582/582 350/350 907/907
f 722/722 455/455 610/610
f 610/610 585/585 722/722
f 585/585 610/610 496/496
f 496/496 208/208 585/585
f 208/208 496/496 23/23
f 23/23 582/582 208/208
f 455/455 89/89 690/690
f 690/690 610/610 455/455
f 610/610 690/690 328/328
f 328/328 496/496 610/610
f 496/496 328/328 183/183
f 183/183 23/23 496/496
f 456/456 950/950 103/103
f 103/103 926/926 456/456
f 950/950 113/113 524/524
f 524/524 103/103 950/950
f 113/113 702/702 565/565
f 565/565 524/524 113/113
f 702/702 93/93 223/223
f 223/223 565/565 702/702
f 776/776 464/464 153/153
f 153/153 464/464 906/906
f 906/906 351/351 153/153
f 487/487 465/465 339/339
f 339/339 788/788 487/487
f 524/524 478/478 422/422
f 422/422 103/103 524/524
f 214/214 157/157 808/808
f 808/808 487/487 214/214
f 465/465 72/72 821/821
f 821/821 640/640 465/465
f 465/465 640/640 266/266
f 266/266 339/339 465/465
f 253/253 79/79 833/833
f 833/833 415/415 253/253
f 833/833 337/337 837/837
f 837/837 415/415 833/833
f 837/837 337/337 847/847
f 847/847 418/418 837/837
f 418/418 847/847 36/36
f 36/36 200/200 418/418
f 200/200 36/36 880/880
f 880/880 444/444 200/200
f 444/444 880/880 636/636
f 636/636 237/237 444/444
f 237/237 636/636 345/345
f 345/345 848/848 237/237
f 690/690 837/837 418/418
f 690/690 89/89 415/415
f 415/415 837/837 690/690
f 690/690 418/418 200/200
f 200/200 328/328 690/690
f 328/328 200/200 444/444
f 328/328 444/444 237/237
f 237/237 183/183 328/328
f 183/183 237/237 848/848
f 89/89 253/253 415/415
f 833/833 79/79 587/587
f 587/587 81/81 833/833
f 337/337 833/833 81/81
f 81/81 791/791 337/337
f 847/847 337/337 791/791
f 791/791 151/151 847/847
f 36/36 847/847 151/151
f 151/151 615/615 36/36
f 880/880 36/36 615/615
f 615/615 287/287 880/880
f 636/636 880/880 287/287
f 287/287 917/917 636/636
f 345/345 636/636 917/917
f 917/917 845/845 345/345
f 374/374 252/252 223/223
f 223/223 93/93 374/374
f 252/252 32/32 793/793
f 793/793 223/223 252/252
f 848/848 71/71 695/695
f 695/695 183/183 848/848
f 318/318 571/571 218/218
f 218/218 895/895 318/318
f 253/253 399/399 803/803
f 803/803 79/79 253/253
f 261/261 629/629 702/702
f 702/702 113/113 261/261
f 950/950 944/944 261/261
f 261/261 113/113 950/950
f 93/93 702/702 629/629
f 629/629 727/727 93/93
f 678/678 458/458 659/659
f 659/659 518/518 678/678
f 412/412 467/467 659/659
f 659/659 458/458 412/412
f 243/243 205/205 467/467
f 467/467 412/412 243/243
f 425/425 217/217 517/517
f 517/517 658/658 425/425
f 744/744 425/425 658/658
f 658/658 466/466 744/744
f 515/515 933/933 242/242
f 242/242 413/413 515/515
f 515/515 413/413 457/457
f 457/457 138/138 515/515
f 138/138 457/457 677/677
f 677/677 896/896 138/138
f 139/139 424/424 745/745
f 745/745 514/514 139/139
f 139/139 895/895 218/218
f 218/218 424/424 139/139
f 745/745 391/391 934/934
f 934/934 514/514 745/745
f 392/392 744/744 466/466
f 466/466 204/204 392/392
f 204/204 242/242 933/933
f 933/933 392/392 204/204
f 312/312 926/926 103/103
f 103/103 422/422 312/312
f 783/783 508/508 722/722
f 722/722 277/277 783/783
f 317/317 896/896 233/233
f 233/233 381/381 317/317
f 565/565 223/223 793/793
f 793/793 733/733 565/565
f 71/71 848/848 345/345
f 345/345 869/869 71/71
f 48/48 399/399 253/253
f 253/253 89/89 48/48
f 944/944 16/16 741/741
f 430/430 542/542 809/809
f 809/809 76/76 430/430
f 388/388 766/766 611/611
f 611/611 147/147 388/388
f 766/766 146/146 611/611
f 146/146 239/239 887/887
f 887/887 611/611 146/146
f 239/239 673/673 887/887
f 673/673 550/550 563/563
f 563/563 887/887 673/673
f 550/550 87/87 563/563
f 87/87 68/68 505/505
f 505/505 563/563 87/87
f 68/68 844/844 505/505
f 844/844 918/918 607/607
f 607/607 505/505 844/844
f 918/918 286/286 607/607
f 286/286 616/616 763/763
f 763/763 607/607 286/286
f 616/616 150/150 763/763
f 150/150 790/790 643/643
f 643/643 763/763 150/150
f 790/790 82/82 643/643
f 82/82 588/588 147/147
f 147/147 643/643 82/82
f 588/588 388/388 147/147
f 147/147 611/611 886/886
f 611/611 887/887 886/886
f 887/887 563/563 886/886
f 563/563 505/505 886/886
f 505/505 607/607 886/886
f 607/607 763/763 886/886
f 763/763 643/643 886/886
f 643/643 147/147 886/886
f 437/437 923/923 420/420
f 420/420 501/501 437/437
f 419/419 301/301 502/502
f 336/336 349/349 502/502
f 502/502 301/301 336/336
f 349/349 336/336 152/152
f 270/270 329/329 214/214
f 214/214 532/532 270/270
f 532/532 214/214 487/487
f 487/487 788/788 532/532
f 789/789 629/629 261/261
f 261/261 531/531 789/789
f 944/944 271/271 531/531
f 531/531 261/261 944/944