o convex_0
v -0.000304 -0.099272 -0.000213
v 0.012159 0.029657 0.020416
v 0.012590 0.029657 0.019984
v 0.017747 -0.098411 0.019984
v 0.017747 0.015461 0.000215
v -0.000734 0.014169 0.019984
v 0.002276 0.027504 0.000217
v -0.000304 -0.099272 0.020416
v 0.017747 -0.098411 0.000217
v 0.017747 0.015461 0.019986
v -0.000734 0.014600 0.000217
v 0.012590 0.029657 -0.000213
v 0.003564 0.029657 0.020416
v -0.000734 -0.099284 0.000215
v 0.017317 -0.098411 0.020416
v 0.017317 -0.098411 -0.000213
v -0.000734 -0.099284 0.019986
v 0.003564 0.029657 -0.000213
v 0.009579 -0.099715 0.019984
v 0.009579 -0.099715 0.000217
v 0.017317 0.015030 0.020416
v 0.002276 0.027504 0.019984
v 0.017317 0.015461 -0.000213
v -0.000304 0.014169 0.020416
v -0.000304 0.014600 -0.000213
v -0.000304 -0.099715 0.019984
v 0.017317 -0.098854 0.019984
v -0.000304 -0.099715 0.000217
v 0.017317 -0.098854 0.000217
v 0.003135 0.029657 0.019984
v -0.000734 0.014600 0.019554
f 22 11 31 
f 5 4 9 
f 3 2 10 
f 4 5 10 
f 5 3 10 
f 2 3 12 
f 3 5 12 
f 8 2 13 
f 2 12 13 
f 6 11 14 
f 2 8 15 
f 4 10 15 
f 5 9 16 
f 1 12 16 
f 6 14 17 
f 12 1 18 
f 13 12 18 
f 15 8 19 
f 1 16 20 
f 10 2 21 
f 2 15 21 
f 15 10 21 
f 7 11 22 
f 12 5 23 
f 5 16 23 
f 16 12 23 
f 8 13 24 
f 6 17 24 
f 17 8 24 
f 22 6 24 
f 13 22 24 
f 11 7 25 
f 1 14 25 
f 14 11 25 
f 18 1 25 
f 7 18 25 
f 8 17 26 
f 17 14 26 
f 19 8 26 
f 20 19 26 
f 9 4 27 
f 4 15 27 
f 15 19 27 
f 19 20 27 
f 14 1 28 
f 1 20 28 
f 26 14 28 
f 20 26 28 
f 16 9 29 
f 20 16 29 
f 9 27 29 
f 27 20 29 
f 18 7 30 
f 13 18 30 
f 7 22 30 
f 22 13 30 
f 11 6 31 
f 6 22 31 
o convex_1
v 0.003134 0.029657 0.000217
v 0.012159 0.067050 0.020416
v 0.012590 0.067050 0.019984
v 0.003134 0.067050 0.000217
v 0.012590 0.029657 -0.000213
v 0.003134 0.029657 0.019984
v 0.012590 0.029657 0.019984
v 0.012590 0.067050 -0.000213
v 0.003134 0.067050 0.019984
v 0.003564 0.029657 0.020416
v 0.003564 0.067050 -0.000213
v 0.003564 0.029657 -0.000213
v 0.012159 0.029657 0.020416
v 0.003564 0.067050 0.020416
f 41 33 45 
f 33 34 35 
f 35 32 37 
f 32 36 37 
f 34 33 38 
f 36 34 38 
f 37 36 38 
f 35 34 39 
f 34 36 39 
f 33 35 40 
f 35 37 40 
f 40 37 41 
f 37 38 41 
f 32 35 42 
f 35 39 42 
f 39 36 42 
f 36 32 43 
f 32 42 43 
f 42 36 43 
f 38 33 44 
f 33 41 44 
f 41 38 44 
f 33 40 45 
f 40 41 45 
o convex_2
v 0.003135 0.067050 0.000217
v 0.016028 0.077365 0.019984
v 0.015597 0.077365 0.020416
v 0.002274 0.077365 0.000217
v 0.016028 0.077365 0.000217
v 0.012588 0.067050 0.020416
v 0.002274 0.077365 0.019984
v 0.013449 0.067481 -0.000213
v 0.003135 0.067050 0.019984
v 0.013878 0.067911 0.019554
v 0.002705 0.077365 -0.000213
v 0.002705 0.077365 0.020416
v 0.013018 0.067050 -0.000213
v 0.013878 0.067911 0.000217
v 0.015597 0.077365 -0.000213
v 0.003564 0.067050 -0.000213
v 0.003564 0.067050 0.020416
v 0.016028 0.076934 0.019984
v 0.002274 0.076504 0.019984
f 62 57 64 
f 48 47 49 
f 49 47 50 
f 48 49 52 
f 46 51 54 
f 49 50 56 
f 51 48 57 
f 48 52 57 
f 51 46 58 
f 55 51 58 
f 53 55 58 
f 56 53 58 
f 53 50 59 
f 55 53 59 
f 50 53 60 
f 56 50 60 
f 53 56 60 
f 46 49 61 
f 49 56 61 
f 58 46 61 
f 56 58 61 
f 54 51 62 
f 51 57 62 
f 47 48 63 
f 50 47 63 
f 48 51 63 
f 51 55 63 
f 59 50 63 
f 55 59 63 
f 49 46 64 
f 52 49 64 
f 46 54 64 
f 57 52 64 
f 54 62 64 
o convex_3
v -0.020076 0.092838 0.019984
v -0.043282 0.079515 -0.000213
v -0.043282 0.080375 -0.000213
v -0.043282 0.079946 0.020416
v -0.020508 0.086391 0.000217
v -0.021367 0.092838 0.000217
v -0.020508 0.086391 0.019984
v -0.034255 0.086819 0.019984
v -0.040704 0.079084 0.019554
v -0.039416 0.083812 0.000217
v -0.040704 0.079084 0.000217
v -0.042424 0.081664 0.019984
v -0.020076 0.092407 -0.000213
v -0.026525 0.090687 0.019984
v -0.028244 0.089828 0.000217
v -0.020076 0.087250 0.020416
v -0.020076 0.087250 -0.000213
v -0.021367 0.092407 0.020416
v -0.043282 0.079084 0.019554
v -0.043715 0.080375 0.000217
v -0.021367 0.092838 0.019984
v -0.034255 0.086819 0.000217
v -0.039416 0.083812 0.019984
v -0.043715 0.080375 0.019984
v -0.043282 0.079084 0.000217
v -0.040274 0.079946 0.020416
v -0.036405 0.085532 -0.000213
v -0.042424 0.081664 0.000217
f 74 91 92 
f 69 71 73 
f 69 73 75 
f 66 67 77 
f 70 65 77 
f 78 70 79 
f 72 78 79 
f 71 69 80 
f 77 65 80 
f 77 80 81 
f 75 66 81 
f 69 75 81 
f 66 77 81 
f 80 69 81 
f 72 68 82 
f 78 72 82 
f 80 65 82 
f 68 80 82 
f 73 68 83 
f 75 73 83 
f 67 66 84 
f 65 70 85 
f 70 78 85 
f 82 65 85 
f 78 82 85 
f 74 72 86 
f 72 79 86 
f 68 72 87 
f 72 74 87 
f 76 68 87 
f 74 76 87 
f 68 76 88 
f 83 68 88 
f 76 84 88 
f 84 83 88 
f 66 75 89 
f 75 83 89 
f 84 66 89 
f 83 84 89 
f 68 73 90 
f 73 71 90 
f 80 68 90 
f 71 80 90 
f 77 67 91 
f 70 77 91 
f 79 70 91 
f 74 86 91 
f 86 79 91 
f 76 74 92 
f 67 84 92 
f 84 76 92 
f 91 67 92 
o convex_4
v -0.019646 0.093267 -0.000213
v -0.003313 0.097135 0.020416
v -0.003313 0.087682 0.020416
v -0.020076 0.087682 0.020416
v -0.003313 0.087251 0.000217
v -0.003313 0.097566 -0.000213
v -0.019646 0.093698 0.019554
v -0.020076 0.087251 0.000217
v -0.010623 0.096705 0.019554
v -0.010623 0.096705 0.000217
v -0.020076 0.087251 0.019984
v -0.020076 0.092408 0.020416
v -0.003313 0.087251 0.019984
v -0.005463 0.097566 0.019984
v -0.003313 0.087682 -0.000213
v -0.020076 0.093267 0.000217
v -0.019646 0.093698 0.000217
v -0.020076 0.087682 -0.000213
v -0.005463 0.097566 -0.000213
f 102 106 111 
f 95 94 96 
f 94 95 97 
f 94 97 98 
f 99 101 102 
f 95 96 103 
f 100 97 103 
f 96 100 103 
f 96 94 104 
f 100 96 104 
f 101 99 104 
f 97 95 105 
f 95 103 105 
f 103 97 105 
f 94 98 106 
f 102 101 106 
f 104 94 106 
f 101 104 106 
f 93 98 107 
f 98 97 107 
f 97 100 107 
f 104 99 108 
f 100 104 108 
f 99 102 109 
f 102 93 109 
f 93 108 109 
f 108 99 109 
f 93 107 110 
f 107 100 110 
f 108 93 110 
f 100 108 110 
f 98 93 111 
f 93 102 111 
f 106 98 111 
o convex_5
v 0.002707 0.077365 -0.000213
v 0.017316 0.099715 0.019984
v 0.017316 0.099282 0.020416
v -0.003313 0.097133 0.020416
v 0.016028 0.077365 0.020416
v 0.021616 0.097564 -0.000213
v -0.003313 0.097564 -0.000213
v 0.021616 0.083386 -0.000213
v 0.002277 0.077365 0.019984
v 0.021616 0.083814 0.020416
v -0.003313 0.087254 -0.000213
v 0.016455 0.077365 0.000217
v 0.008722 0.099715 0.000217
v 0.021616 0.097564 0.019984
v -0.003313 0.087682 0.020416
v 0.001845 0.098853 0.019984
v 0.017316 0.099715 0.000217
v 0.008722 0.099715 0.019984
v 0.016887 0.077798 0.019554
v 0.001845 0.098853 0.000217
v 0.002277 0.077365 0.000217
v 0.002707 0.077365 0.020416
v -0.003313 0.087254 0.019984
v -0.003313 0.097564 0.019984
v 0.021616 0.083386 0.019984
v 0.016028 0.077365 -0.000213
v 0.008292 0.099282 -0.000213
v 0.021616 0.097133 0.020416
f 121 125 139 
f 114 115 116 
f 117 112 118 
f 112 117 119 
f 112 116 120 
f 114 116 121 
f 119 117 121 
f 118 112 122 
f 115 118 122 
f 116 112 123 
f 117 113 125 
f 121 117 125 
f 116 115 126 
f 115 122 126 
f 113 117 128 
f 124 113 128 
f 114 113 129 
f 115 114 129 
f 113 124 129 
f 127 115 129 
f 124 127 129 
f 116 123 130 
f 123 119 130 
f 118 127 131 
f 127 124 131 
f 112 120 132 
f 122 112 132 
f 120 122 132 
f 120 116 133 
f 116 126 133 
f 126 120 133 
f 122 120 134 
f 120 126 134 
f 126 122 134 
f 118 115 135 
f 115 127 135 
f 127 118 135 
f 121 116 136 
f 119 121 136 
f 116 130 136 
f 130 119 136 
f 112 119 137 
f 123 112 137 
f 119 123 137 
f 117 118 138 
f 128 117 138 
f 124 128 138 
f 118 131 138 
f 131 124 138 
f 113 114 139 
f 114 121 139 
f 125 113 139 
o convex_6
v 0.043104 0.099281 0.020416
v 0.021616 0.083386 -0.000213
v 0.032361 0.080374 0.000217
v 0.043536 0.099281 -0.000213
v 0.042675 0.080374 0.019984
v 0.021616 0.097562 0.019984
v 0.021616 0.083816 0.020416
v 0.021616 0.097562 -0.000213
v 0.043536 0.081667 -0.000213
v 0.031501 0.099715 0.000217
v 0.032361 0.080374 0.019984
v 0.031501 0.099715 0.019984
v 0.043536 0.099715 0.019984
v 0.043104 0.081237 0.020416
v 0.042244 0.080374 -0.000213
v 0.043536 0.081237 0.019984
v 0.021616 0.097133 0.020416
v 0.043536 0.099715 0.000217
v 0.021616 0.083386 0.019984
f 150 146 158 
f 145 141 146 
f 143 141 147 
f 141 145 147 
f 141 143 148 
f 143 147 149 
f 147 145 149 
f 141 142 150 
f 142 144 150 
f 149 145 151 
f 149 151 152 
f 148 143 152 
f 151 140 152 
f 140 146 153 
f 150 144 153 
f 146 150 153 
f 152 140 153 
f 142 141 154 
f 144 142 154 
f 141 148 154 
f 148 144 154 
f 144 148 155 
f 148 152 155 
f 152 153 155 
f 153 144 155 
f 146 140 156 
f 145 146 156 
f 140 151 156 
f 151 145 156 
f 143 149 157 
f 149 152 157 
f 152 143 157 
f 146 141 158 
f 141 150 158 
