o convex_0
v 0.010293 -0.070673 0.017953
v -0.011070 -0.098856 0.011592
v -0.011070 -0.098856 0.020226
v -0.008796 -0.039318 0.013411
v 0.008475 -0.098856 0.007958
v 0.006657 -0.098856 0.024318
v -0.004251 -0.039318 0.022498
v 0.004383 -0.039318 0.009321
v 0.007566 -0.039318 0.021135
v -0.007433 -0.097944 0.007503
v -0.006524 -0.098856 0.024318
v 0.008475 -0.039318 0.012957
v -0.007433 -0.040230 0.010229
v 0.011202 -0.098856 0.019770
v -0.007887 -0.039318 0.020680
v 0.011202 -0.097497 0.011592
v -0.006069 -0.100227 0.008412
v -0.003795 -0.040684 0.008866
v 0.005748 -0.085227 0.007503
v 0.004383 -0.048410 0.022952
v 0.008928 -0.100227 0.022043
v 0.009837 -0.096131 0.022952
v -0.009705 -0.094772 0.022952
v 0.007566 -0.045686 0.010229
v -0.009250 -0.043414 0.017498
v -0.008796 -0.100227 0.022043
v -0.009705 -0.090676 0.008866
v 0.008928 -0.100227 0.009775
v 0.008928 -0.039318 0.017498
v -0.011070 -0.088857 0.012502
v -0.005615 -0.084314 0.007503
v 0.009837 -0.093407 0.008866
v -0.006069 -0.093407 0.024318
v -0.011070 -0.089764 0.019316
v 0.006201 -0.099315 0.007503
v 0.011202 -0.092494 0.012502
v 0.004383 -0.039318 0.022498
v 0.006201 -0.093407 0.024318
v 0.011202 -0.092948 0.019316
v 0.003929 -0.043867 0.008866
v 0.008928 -0.039318 0.014320
v -0.005160 -0.039318 0.009321
v -0.010159 -0.100227 0.012502
v -0.004251 -0.048410 0.022952
v -0.007433 -0.045686 0.021589
v -0.009250 -0.043414 0.013865
v -0.010159 -0.098856 0.009321
v -0.010159 -0.097497 0.022498
v 0.006657 -0.100227 0.022952
v -0.008340 -0.039318 0.012048
v 0.010293 -0.098856 0.009321
v -0.008796 -0.039318 0.018407
v 0.007566 -0.041137 0.010684
v 0.009837 -0.100227 0.011592
f 28 51 54 
f 4 7 8 
f 8 7 9 
f 8 9 12 
f 7 4 15 
f 9 20 22 
f 6 21 22 
f 21 14 22 
f 5 19 24 
f 17 21 26 
f 13 10 27 
f 21 17 28 
f 12 9 29 
f 2 3 30 
f 27 2 30 
f 19 10 31 
f 18 19 31 
f 12 16 32 
f 5 24 32 
f 11 6 33 
f 23 11 33 
f 30 3 34 
f 25 30 34 
f 17 10 35 
f 19 5 35 
f 10 19 35 
f 5 28 35 
f 28 17 35 
f 14 16 36 
f 9 7 37 
f 7 20 37 
f 20 9 37 
f 22 20 38 
f 6 22 38 
f 33 6 38 
f 20 33 38 
f 9 22 39 
f 22 14 39 
f 29 9 39 
f 1 29 39 
f 36 1 39 
f 14 36 39 
f 18 8 40 
f 19 18 40 
f 8 24 40 
f 24 19 40 
f 16 12 41 
f 12 29 41 
f 29 1 41 
f 1 36 41 
f 36 16 41 
f 4 8 42 
f 10 13 42 
f 8 18 42 
f 31 10 42 
f 18 31 42 
f 3 2 43 
f 26 3 43 
f 17 26 43 
f 20 7 44 
f 33 20 44 
f 33 44 45 
f 7 15 45 
f 15 23 45 
f 23 33 45 
f 44 7 45 
f 25 4 46 
f 30 25 46 
f 10 17 47 
f 2 27 47 
f 27 10 47 
f 43 2 47 
f 17 43 47 
f 11 23 48 
f 23 15 48 
f 3 26 48 
f 26 11 48 
f 34 3 48 
f 15 34 48 
f 6 11 49 
f 21 6 49 
f 11 26 49 
f 26 21 49 
f 13 27 50 
f 27 30 50 
f 4 42 50 
f 42 13 50 
f 46 4 50 
f 30 46 50 
f 28 5 51 
f 32 16 51 
f 5 32 51 
f 15 4 52 
f 4 25 52 
f 34 15 52 
f 25 34 52 
f 8 12 53 
f 24 8 53 
f 12 32 53 
f 32 24 53 
f 16 14 54 
f 14 21 54 
f 21 28 54 
f 51 16 54 
o convex_1
v -0.035614 0.072047 0.002955
v -0.022434 0.091589 0.029773
v -0.014254 0.091589 0.027042
v -0.034250 0.095682 0.005685
v -0.014254 0.072047 0.004323
v -0.034250 0.071591 0.029773
v -0.014254 0.070229 0.025677
v -0.014254 0.091589 0.004323
v -0.036524 0.093407 0.025224
v -0.034705 0.067955 0.005685
v -0.022434 0.095682 0.025677
v -0.034705 0.091589 0.002045
v -0.036524 0.069773 0.025224
v -0.021980 0.071591 0.002045
v -0.021980 0.067955 0.025677
v -0.021980 0.067955 0.005685
v -0.036524 0.090680 0.003867
v -0.022434 0.071591 0.029773
v -0.034250 0.091589 0.029773
v -0.022434 0.095682 0.005685
v -0.022434 0.092045 0.002045
v -0.034250 0.095682 0.025677
v -0.034250 0.067955 0.026136
v -0.014254 0.092954 0.005682
v -0.036524 0.069773 0.006594
v -0.034705 0.071591 0.002045
v -0.014254 0.070229 0.006141
v -0.036524 0.091136 0.027496
v -0.014254 0.092954 0.025680
v -0.014254 0.071591 0.027042
v -0.036524 0.093407 0.006594
v -0.036524 0.072047 0.027496
v -0.036524 0.072501 0.003867
v -0.022434 0.067955 0.026136
f 84 72 88 
f 59 57 61 
f 57 59 62 
f 62 59 68 
f 64 68 70 
f 61 69 70 
f 69 64 70 
f 66 55 71 
f 67 63 71 
f 57 56 72 
f 56 60 72 
f 60 56 73 
f 56 65 73 
f 58 65 74 
f 66 58 75 
f 62 68 75 
f 68 66 75 
f 58 74 75 
f 58 63 76 
f 65 58 76 
f 63 73 76 
f 73 65 76 
f 60 67 77 
f 67 64 77 
f 64 69 77 
f 72 60 77 
f 57 62 78 
f 74 65 78 
f 62 75 78 
f 75 74 78 
f 64 67 79 
f 67 71 79 
f 55 66 80 
f 68 64 80 
f 66 68 80 
f 79 55 80 
f 64 79 80 
f 59 61 81 
f 68 59 81 
f 61 70 81 
f 70 68 81 
f 63 67 82 
f 60 73 82 
f 73 63 82 
f 56 57 83 
f 65 56 83 
f 57 78 83 
f 78 65 83 
f 61 57 84 
f 57 72 84 
f 63 58 85 
f 58 66 85 
f 71 63 85 
f 66 71 85 
f 67 60 86 
f 60 82 86 
f 82 67 86 
f 71 55 87 
f 55 79 87 
f 79 71 87 
f 69 61 88 
f 77 69 88 
f 72 77 88 
f 61 84 88 
o convex_2
v 0.008930 -0.039318 0.014319
v -0.008797 -0.039318 0.013411
v -0.008797 -0.039318 0.018409
v -0.008341 0.044318 0.012955
v 0.004838 0.044318 0.022043
v 0.004384 0.044318 0.009318
v 0.004384 -0.039318 0.022497
v -0.006979 0.044318 0.021135
v -0.005160 -0.039318 0.009319
v 0.008475 0.044318 0.017953
v 0.005748 -0.039318 0.009775
v -0.004251 -0.039318 0.022497
v -0.004251 0.044318 0.009318
v 0.007564 0.044318 0.011139
v 0.007564 -0.039318 0.021135
v -0.008797 0.044318 0.017499
v -0.007433 0.044318 0.010683
v -0.004706 0.044318 0.022043
v -0.007433 -0.039318 0.021135
v -0.007886 -0.039318 0.011137
v 0.007564 0.044318 0.020225
v 0.004384 -0.039318 0.009318
v 0.008930 -0.039318 0.017499
v 0.008475 0.044318 0.013409
v 0.007564 -0.039318 0.011139
v -0.003796 -0.000676 0.022497
v 0.006657 0.044318 0.010229
v 0.003474 -0.000676 0.022497
v -0.008797 0.044318 0.014319
v -0.007433 0.044318 0.020681
v 0.008930 -0.021586 0.017499
v 0.006657 0.044318 0.021135
v -0.006979 -0.039318 0.010228
v -0.005615 -0.034316 0.022043
v 0.008475 -0.025221 0.012957
v 0.008021 0.044318 0.019317
v -0.008341 -0.037042 0.012047
v 0.006657 -0.039318 0.010229
v 0.007564 -0.031131 0.021135
v -0.007433 -0.016133 0.021135
f 107 122 128 
f 91 90 89 
f 92 93 94 
f 91 89 95 
f 93 92 96 
f 89 90 97 
f 94 93 98 
f 89 97 99 
f 91 95 100 
f 92 94 101 
f 94 98 102 
f 95 89 103 
f 90 91 104 
f 96 92 104 
f 92 101 105 
f 101 97 105 
f 93 96 106 
f 91 100 107 
f 97 90 108 
f 98 93 109 
f 94 99 110 
f 99 97 110 
f 101 94 110 
f 97 101 110 
f 103 89 111 
f 102 98 112 
f 89 99 113 
f 100 95 114 
f 93 106 114 
f 106 100 114 
f 99 94 115 
f 94 102 115 
f 102 113 115 
f 95 93 116 
f 93 114 116 
f 114 95 116 
f 90 104 117 
f 104 92 117 
f 104 91 118 
f 96 104 118 
f 111 89 119 
f 103 111 119 
f 89 112 119 
f 112 98 119 
f 109 93 120 
f 105 97 121 
f 97 108 121 
f 108 105 121 
f 106 96 122 
f 100 106 122 
f 107 100 122 
f 112 89 123 
f 102 112 123 
f 89 113 123 
f 113 102 123 
f 98 109 124 
f 119 98 124 
f 92 105 125 
f 108 90 125 
f 105 108 125 
f 90 117 125 
f 117 92 125 
f 113 99 126 
f 99 115 126 
f 115 113 126 
f 93 95 127 
f 95 103 127 
f 103 119 127 
f 120 93 127 
f 109 120 127 
f 124 109 127 
f 119 124 127 
f 91 107 128 
f 118 91 128 
f 96 118 128 
f 122 96 128 
o convex_3
v 0.009839 0.064318 0.018408
v -0.009706 0.055225 0.015228
v -0.009251 0.049776 0.013864
v 0.005293 0.064318 0.008409
v 0.008475 0.044318 0.017953
v -0.006978 0.064318 0.022499
v -0.003796 0.044776 0.022499
v -0.004252 0.044318 0.009319
v -0.008342 0.064318 0.009773
v 0.007566 0.045683 0.010683
v 0.005747 0.064318 0.022955
v -0.007433 0.044318 0.020681
v 0.007111 0.044776 0.021136
v 0.009839 0.064318 0.012955
v -0.009706 0.064318 0.018863
v -0.007433 0.044318 0.010683
v 0.004385 0.044318 0.009319
v -0.005161 0.057045 0.008409
v 0.004385 0.052049 0.022955
v 0.008475 0.057498 0.021589
v 0.008475 0.057954 0.009773
v 0.008928 0.046139 0.013864
v -0.008796 0.044318 0.017500
v -0.005614 0.057498 0.022955
v -0.008342 0.056133 0.021589
v 0.004838 0.055681 0.008409
v -0.009706 0.058860 0.012501
v -0.005614 0.064318 0.008409
v 0.009839 0.057045 0.017953
v 0.004838 0.044318 0.022045
v -0.008342 0.056587 0.009773
v 0.008475 0.064318 0.009773
v 0.009839 0.057045 0.013409
v -0.009706 0.064318 0.012501
v -0.003796 0.047503 0.008865
v 0.008475 0.064318 0.021589
v -0.009706 0.056587 0.018408
v 0.007566 0.044318 0.011137
v -0.005614 0.064318 0.022955
v -0.008796 0.044776 0.013864
f 155 159 168 
f 129 132 134 
f 134 132 137 
f 129 134 139 
f 136 133 140 
f 132 129 142 
f 134 137 143 
f 136 140 144 
f 133 136 145 
f 147 141 148 
f 141 133 148 
f 139 147 148 
f 138 145 149 
f 138 149 150 
f 130 131 151 
f 144 140 151 
f 135 147 152 
f 147 139 152 
f 140 135 153 
f 134 143 153 
f 151 140 153 
f 152 134 153 
f 135 152 153 
f 146 132 154 
f 132 149 154 
f 149 145 154 
f 131 130 155 
f 130 143 155 
f 137 132 156 
f 132 146 156 
f 142 129 157 
f 129 148 157 
f 148 133 157 
f 133 150 157 
f 135 140 158 
f 140 133 158 
f 133 141 158 
f 147 135 158 
f 141 147 158 
f 136 144 159 
f 146 136 159 
f 155 137 159 
f 137 156 159 
f 156 146 159 
f 132 142 160 
f 149 132 160 
f 142 149 160 
f 149 142 161 
f 150 149 161 
f 142 157 161 
f 157 150 161 
f 143 137 162 
f 155 143 162 
f 137 155 162 
f 145 136 163 
f 136 146 163 
f 154 145 163 
f 146 154 163 
f 129 139 164 
f 148 129 164 
f 139 148 164 
f 143 130 165 
f 130 151 165 
f 153 143 165 
f 151 153 165 
f 133 145 166 
f 145 138 166 
f 150 133 166 
f 138 150 166 
f 139 134 167 
f 134 152 167 
f 152 139 167 
f 151 131 168 
f 144 151 168 
f 131 155 168 
f 159 144 168 
o convex_4
v 0.005292 0.064318 0.008412
v 0.003929 0.098407 0.031591
v 0.007565 0.100227 0.021135
v -0.014248 0.091587 0.004323
v -0.009705 0.066596 0.031591
v 0.014382 0.072048 0.027498
v 0.009384 0.097043 -0.000227
v -0.009705 0.066596 -0.000227
v -0.009705 0.097043 0.031591
v 0.009384 0.066139 -0.000227
v -0.009705 0.097043 -0.000227
v -0.014248 0.070230 0.025676
v 0.014382 0.093405 0.006139
v 0.009384 0.066139 0.031591
v 0.014382 0.091134 0.027498
v 0.014382 0.070230 0.005684
v -0.008797 0.100227 0.012957
v -0.014248 0.091130 0.027495
v -0.009705 0.064318 0.018862
v -0.014248 0.070230 0.005687
v 0.009838 0.097043 0.031588
v 0.009838 0.064318 0.018407
v 0.008019 0.100227 0.011141
v -0.003796 0.064775 0.031591
v -0.003796 0.064775 -0.000227
v -0.003796 0.098407 -0.000227
v -0.007431 0.100227 0.021135
v -0.014248 0.093408 0.025222
v 0.014382 0.091587 0.004320
v 0.014382 0.093405 0.025225
v -0.014248 0.093408 0.006139
v 0.009838 0.099313 0.018407
v 0.014382 0.070230 0.025680
v -0.009705 0.064318 0.012502
v -0.014248 0.072048 0.027495
v 0.014382 0.071594 0.004320
v 0.003475 0.064775 0.031591
v -0.014248 0.071594 0.004323
v 0.003929 0.098407 -0.000227
v -0.004704 0.100227 0.009322
v -0.003796 0.098407 0.031591
v 0.009838 0.064318 0.012957
v 0.003475 0.064775 -0.000227
v -0.009705 0.099317 0.018407
v 0.008927 0.100227 0.013414
v 0.009838 0.066592 0.031591
v 0.005748 0.064318 0.022951
v -0.005161 0.100227 0.022042
v 0.004837 0.100227 0.009322
v 0.009838 0.097043 0.000231
f 191 213 218 
f 173 170 177 
f 176 175 178 
f 175 176 179 
f 176 172 179 
f 170 173 182 
f 174 181 183 
f 181 174 184 
f 173 177 186 
f 172 180 186 
f 173 180 187 
f 180 172 188 
f 187 180 188 
f 171 170 189 
f 187 169 190 
f 185 171 191 
f 182 173 192 
f 173 187 192 
f 176 178 193 
f 175 179 194 
f 179 185 194 
f 171 185 195 
f 186 177 196 
f 172 186 196 
f 178 175 197 
f 181 184 197 
f 183 181 198 
f 189 183 198 
f 179 172 199 
f 185 179 199 
f 172 196 199 
f 171 189 200 
f 198 181 200 
f 189 198 200 
f 184 174 201 
f 190 184 201 
f 169 187 202 
f 188 176 202 
f 187 188 202 
f 193 169 202 
f 176 193 202 
f 180 173 203 
f 173 186 203 
f 186 180 203 
f 184 178 204 
f 178 197 204 
f 197 184 204 
f 190 182 205 
f 182 192 205 
f 172 176 206 
f 188 172 206 
f 176 188 206 
f 191 175 207 
f 175 194 207 
f 207 194 208 
f 185 191 208 
f 194 185 208 
f 177 170 209 
f 195 177 209 
f 178 184 210 
f 190 169 210 
f 184 190 210 
f 169 193 211 
f 193 178 211 
f 210 169 211 
f 178 210 211 
f 177 195 212 
f 195 185 212 
f 196 177 212 
f 185 199 212 
f 199 196 212 
f 191 171 213 
f 171 200 213 
f 200 181 213 
f 170 182 214 
f 174 183 214 
f 189 170 214 
f 183 189 214 
f 182 190 214 
f 201 174 214 
f 190 201 214 
f 187 190 215 
f 192 187 215 
f 190 205 215 
f 205 192 215 
f 170 171 216 
f 171 195 216 
f 209 170 216 
f 195 209 216 
f 191 207 217 
f 207 208 217 
f 208 191 217 
f 175 191 218 
f 197 175 218 
f 181 197 218 
f 213 181 218 
o convex_5
v 0.035293 0.068866 0.005685
v 0.034383 0.091589 0.029773
v 0.035293 0.091589 0.028864
v 0.014386 0.092951 0.005685
v 0.014386 0.070229 0.025677
v 0.034837 0.095226 0.005685
v 0.014386 0.092951 0.025677
v 0.036657 0.069773 0.024771
v 0.014386 0.072047 0.004323
v 0.034837 0.091589 0.002045
v 0.022567 0.071591 0.029773
v 0.022567 0.095682 0.025677
v 0.036657 0.093407 0.006592
v 0.022112 0.067955 0.005685
v 0.034383 0.067955 0.026136
v 0.022112 0.071591 0.002045
v 0.036657 0.072501 0.003867
v 0.022567 0.092045 0.002045
v 0.036657 0.093407 0.024771
v 0.022567 0.091589 0.029773
v 0.034383 0.071591 0.029773
v 0.022567 0.095682 0.005685
v 0.034383 0.095682 0.025677
v 0.022567 0.067955 0.026136
v 0.034383 0.071591 0.002045
v 0.014386 0.071591 0.027042
v 0.034837 0.067955 0.006141
v 0.014386 0.070229 0.006141
v 0.014386 0.091589 0.004323
v 0.014386 0.091589 0.027042
v 0.036657 0.072501 0.027496
v 0.034383 0.095682 0.005685
v 0.036657 0.090680 0.003864
v 0.036657 0.069773 0.006594
v 0.036657 0.090680 0.027498
f 239 249 253 
f 222 223 225 
f 223 222 227 
f 222 225 230 
f 228 224 231 
f 231 226 235 
f 228 234 236 
f 226 231 237 
f 229 220 238 
f 220 230 238 
f 221 220 239 
f 220 229 239 
f 233 226 239 
f 229 233 239 
f 222 230 240 
f 236 222 240 
f 220 221 241 
f 230 220 241 
f 221 237 241 
f 237 231 241 
f 240 230 241 
f 223 232 242 
f 233 229 242 
f 232 233 242 
f 234 228 243 
f 232 234 243 
f 235 219 243 
f 228 235 243 
f 225 223 244 
f 229 238 244 
f 223 242 244 
f 242 229 244 
f 226 233 245 
f 233 232 245 
f 243 219 245 
f 232 243 245 
f 223 227 246 
f 232 223 246 
f 227 234 246 
f 234 232 246 
f 227 222 247 
f 234 227 247 
f 222 236 247 
f 236 234 247 
f 230 225 248 
f 238 230 248 
f 225 244 248 
f 244 238 248 
f 226 237 249 
f 239 226 249 
f 224 228 250 
f 231 224 250 
f 228 236 250 
f 236 240 250 
f 241 231 250 
f 240 241 250 
f 228 231 251 
f 231 235 251 
f 235 228 251 
f 219 235 252 
f 235 226 252 
f 245 219 252 
f 226 245 252 
f 237 221 253 
f 221 239 253 
f 249 237 253 
