o convex_0
v -0.030369 0.060541 -0.000241
v 0.031380 0.099745 0.019847
v 0.018634 0.099252 0.020339
v 0.006875 0.052201 0.020339
v 0.036281 0.064459 -0.000241
v -0.035759 0.096310 -0.000241
v -0.036248 0.095822 0.020339
v 0.031380 0.099247 -0.000241
v -0.036745 0.064459 0.019847
v 0.036281 0.064459 0.020339
v -0.007332 0.052201 -0.000241
v -0.026447 0.099745 0.000249
v 0.036777 0.095329 0.019847
v -0.006843 0.052201 0.020339
v -0.036745 0.064459 0.000249
v -0.026447 0.099745 0.019847
v 0.007364 0.052201 -0.000241
v 0.036777 0.095329 0.000249
v 0.031380 0.061029 0.019847
v -0.030369 0.060047 0.019847
v -0.036745 0.095329 0.000249
v 0.031380 0.061029 0.000249
v 0.036777 0.064459 0.000249
v 0.031380 0.099745 0.000249
v -0.036248 0.064459 0.020339
v -0.031347 0.098758 0.019847
v 0.035791 0.096310 0.020339
v 0.036777 0.064459 0.019847
v -0.036745 0.095329 0.019847
v -0.030369 0.060047 0.000249
v -0.031837 0.098270 -0.000241
v -0.036248 0.064459 -0.000241
v 0.035791 0.096310 -0.000241
v 0.007364 0.052201 0.019847
v -0.026447 0.099247 0.020339
v -0.007332 0.052201 0.019847
v -0.035759 0.063477 0.000249
v -0.031347 0.098758 0.000249
v -0.035270 0.096799 0.019847
v -0.035759 0.063477 0.019847
v -0.026936 0.099247 -0.000241
f 31 12 41 
f 5 1 6 
f 4 3 7 
f 5 6 8 
f 3 4 10 
f 1 5 11 
f 4 7 14 
f 11 4 14 
f 3 2 16 
f 2 12 16 
f 11 5 17 
f 4 11 17 
f 10 4 19 
f 15 9 21 
f 17 5 22 
f 19 17 22 
f 19 22 23 
f 5 18 23 
f 18 13 23 
f 22 5 23 
f 12 2 24 
f 8 12 24 
f 7 9 25 
f 14 7 25 
f 20 14 25 
f 16 12 26 
f 2 3 27 
f 3 10 27 
f 10 13 27 
f 13 18 27 
f 24 2 27 
f 13 10 28 
f 10 19 28 
f 19 23 28 
f 23 13 28 
f 9 7 29 
f 21 9 29 
f 1 11 30 
f 11 20 30 
f 8 6 31 
f 6 1 32 
f 21 6 32 
f 15 21 32 
f 5 8 33 
f 18 5 33 
f 8 24 33 
f 27 18 33 
f 24 27 33 
f 4 17 34 
f 19 4 34 
f 17 19 34 
f 7 3 35 
f 3 16 35 
f 26 7 35 
f 16 26 35 
f 11 14 36 
f 20 11 36 
f 14 20 36 
f 9 15 37 
f 1 30 37 
f 30 20 37 
f 32 1 37 
f 15 32 37 
f 26 12 38 
f 31 6 38 
f 12 31 38 
f 6 21 39 
f 7 26 39 
f 29 7 39 
f 21 29 39 
f 38 6 39 
f 26 38 39 
f 25 9 40 
f 20 25 40 
f 9 37 40 
f 37 20 40 
f 12 8 41 
f 8 31 41 
o convex_1
v 0.007856 0.000237 0.019847
v -0.011748 -0.098263 0.000249
v -0.011256 -0.098757 -0.000241
v 0.012268 -0.096800 0.020339
v 0.009327 -0.008579 -0.000241
v -0.009785 -0.005644 0.019847
v -0.011256 -0.098757 0.020339
v 0.012268 -0.096800 -0.000241
v -0.008315 -0.000247 -0.000241
v -0.006844 0.001225 0.020339
v 0.009819 -0.008579 0.019847
v 0.006878 0.001225 -0.000241
v 0.010308 -0.099745 0.019847
v -0.009785 -0.005644 0.000249
v 0.012760 -0.094339 0.000249
v -0.011748 -0.087480 0.019847
v 0.010308 -0.099745 0.000249
v 0.009819 -0.008579 0.000249
v 0.006878 0.001225 0.020339
v 0.012760 -0.094339 0.019847
v -0.010277 -0.099745 0.019847
v -0.011748 -0.087480 0.000249
v -0.006844 0.001225 -0.000241
v -0.010277 -0.099745 0.000249
v 0.008838 -0.001720 0.000249
v -0.008806 -0.000741 0.019847
v -0.009296 -0.005644 0.020339
v -0.011748 -0.098263 0.019847
v 0.008346 -0.001226 0.020339
v 0.008838 -0.001720 0.019847
v 0.011287 -0.098757 0.020339
v 0.012760 -0.096306 0.000249
v -0.009296 -0.005150 -0.000241
v 0.010798 -0.099251 -0.000241
v -0.008806 -0.000741 0.000249
v 0.009327 -0.008579 0.020339
v 0.012760 -0.096306 0.019847
v 0.011779 -0.098272 0.000249
f 78 72 79 
f 44 46 49 
f 46 44 50 
f 48 45 51 
f 46 50 53 
f 49 46 56 
f 47 55 57 
f 56 46 59 
f 52 56 59 
f 51 45 60 
f 42 53 60 
f 53 51 60 
f 56 52 61 
f 54 48 62 
f 58 54 62 
f 44 43 63 
f 43 57 63 
f 57 55 63 
f 50 51 64 
f 53 50 64 
f 51 53 64 
f 43 44 65 
f 62 43 65 
f 58 62 65 
f 53 42 66 
f 46 53 66 
f 52 59 66 
f 59 46 66 
f 51 50 67 
f 55 47 67 
f 48 51 68 
f 57 48 68 
f 47 57 68 
f 67 47 68 
f 51 67 68 
f 57 43 69 
f 48 57 69 
f 43 62 69 
f 62 48 69 
f 60 45 70 
f 42 60 70 
f 66 42 71 
f 52 66 71 
f 70 52 71 
f 42 70 71 
f 45 48 72 
f 48 54 72 
f 49 56 73 
f 56 61 73 
f 50 44 74 
f 44 63 74 
f 63 55 74 
f 44 49 75 
f 65 44 75 
f 58 65 75 
f 67 50 76 
f 55 67 76 
f 50 74 76 
f 74 55 76 
f 45 61 77 
f 61 52 77 
f 70 45 77 
f 52 70 77 
f 61 45 78 
f 45 72 78 
f 73 61 78 
f 73 78 79 
f 54 58 79 
f 72 54 79 
f 49 73 79 
f 75 49 79 
f 58 75 79 
o convex_2
v -0.006354 0.001225 -0.000241
v 0.006388 0.052201 0.020339
v 0.006878 0.052201 0.019847
v -0.006846 0.052201 -0.000241
v -0.006846 0.001225 0.019847
v 0.006878 0.001225 0.000249
v 0.006878 0.052201 -0.000241
v 0.006878 0.001225 0.019847
v -0.006846 0.052201 0.019847
v -0.006354 0.001225 0.020339
v -0.006846 0.001225 0.000249
v 0.006388 0.001225 0.020339
v -0.006354 0.052201 0.020339
v 0.006388 0.001225 -0.000241
f 86 85 93 
f 81 82 83 
f 84 80 85 
f 83 82 86 
f 80 83 86 
f 82 85 86 
f 82 81 87 
f 85 82 87 
f 84 85 87 
f 81 83 88 
f 83 84 88 
f 88 84 89 
f 84 87 89 
f 83 80 90 
f 80 84 90 
f 84 83 90 
f 87 81 91 
f 81 89 91 
f 89 87 91 
f 81 88 92 
f 88 89 92 
f 89 81 92 
f 85 80 93 
f 80 86 93 
