o convex_0
v -0.017114 -0.089344 -0.000226
v -0.011248 -0.055960 0.020080
v -0.011248 -0.055960 0.000228
v -0.011248 -0.093859 0.020080
v -0.018017 -0.085281 0.020080
v -0.011248 -0.093859 -0.000226
v -0.018017 -0.085281 0.000228
v -0.012152 -0.056412 0.000228
v -0.012152 -0.056412 0.020080
v -0.017114 -0.089344 0.020080
v -0.013957 -0.092501 -0.000226
v -0.012152 -0.056861 -0.000226
v -0.018017 -0.087537 -0.000226
v -0.013957 -0.092501 0.020080
v -0.018017 -0.087537 0.020080
v -0.011700 -0.093859 0.020080
f 14 11 16 
f 3 2 4 
f 4 2 5 
f 3 4 6 
f 7 5 8 
f 2 3 8 
f 2 8 9 
f 5 2 9 
f 8 5 9 
f 4 5 10 
f 1 6 11 
f 10 1 11 
f 6 1 12 
f 3 6 12 
f 7 8 12 
f 8 3 12 
f 5 7 13 
f 1 10 13 
f 12 1 13 
f 7 12 13 
f 4 10 14 
f 10 11 14 
f 10 5 15 
f 5 13 15 
f 13 10 15 
f 6 4 16 
f 11 6 16 
f 4 14 16 
o convex_1
v 0.008153 -0.080304 0.020080
v -0.011248 -0.094303 -0.000226
v -0.008990 -0.096554 -0.000226
v 0.005897 0.068138 -0.000226
v -0.008088 0.068138 0.020080
v -0.011248 -0.094303 0.020080
v 0.007253 -0.095191 0.000228
v -0.008088 0.068138 -0.000226
v 0.009058 0.026616 0.020080
v -0.011248 0.014424 0.000228
v 0.006349 0.068138 0.019625
v 0.009058 0.026156 -0.000226
v 0.003641 -0.099726 0.020080
v -0.011248 0.014424 0.020080
v 0.009058 -0.056396 -0.000226
v -0.004929 -0.099726 0.000228
v 0.009058 -0.056396 0.020080
v 0.004093 -0.099266 -0.000226
v 0.007253 -0.095191 0.020080
v -0.004929 -0.099726 0.020080
v 0.006349 0.068138 0.000228
v 0.005897 0.068138 0.020080
v 0.008153 -0.080304 -0.000226
v 0.006349 -0.097458 0.019625
v 0.004093 -0.099726 0.000228
v -0.010795 0.014424 -0.000226
v 0.006349 -0.097458 0.000228
v -0.008990 -0.096554 0.020080
v 0.009058 0.026616 0.000228
f 28 37 45 
f 19 18 20 
f 18 19 22 
f 17 21 22 
f 20 18 24 
f 21 20 24 
f 21 17 25 
f 18 22 26 
f 21 24 26 
f 20 21 27 
f 19 20 28 
f 17 22 29 
f 22 21 30 
f 26 22 30 
f 21 26 30 
f 28 25 31 
f 19 28 31 
f 25 17 33 
f 17 31 33 
f 31 25 33 
f 19 31 34 
f 32 19 34 
f 23 17 35 
f 17 29 35 
f 29 22 36 
f 19 32 36 
f 32 29 36 
f 20 27 37 
f 27 25 37 
f 28 20 37 
f 21 25 38 
f 27 21 38 
f 25 27 38 
f 17 23 39 
f 31 17 39 
f 23 34 39 
f 34 31 39 
f 23 35 40 
f 35 29 40 
f 29 32 41 
f 32 34 41 
f 40 29 41 
f 24 18 42 
f 18 26 42 
f 26 24 42 
f 34 23 43 
f 23 40 43 
f 41 34 43 
f 40 41 43 
f 22 19 44 
f 19 36 44 
f 36 22 44 
f 25 28 45 
f 37 25 45 
o convex_2
v -0.010344 0.077613 0.000228
v 0.006349 0.078064 0.019625
v 0.005896 0.078064 0.020080
v 0.006349 0.068140 0.019625
v 0.006349 0.078064 0.000228
v 0.005896 0.068140 -0.000226
v -0.008088 0.068140 0.020080
v -0.010344 0.078064 0.019625
v -0.008088 0.068140 -0.000226
v -0.009892 0.078064 -0.000226
v 0.006349 0.068140 0.000228
v -0.009892 0.078064 0.020080
v 0.005896 0.078064 -0.000226
v 0.005896 0.068140 0.020080
f 52 49 59 
f 47 48 49 
f 48 47 50 
f 47 49 50 
f 51 49 52 
f 48 50 53 
f 46 52 53 
f 52 46 54 
f 51 52 54 
f 46 53 55 
f 53 50 55 
f 54 46 55 
f 51 54 55 
f 50 49 56 
f 49 51 56 
f 51 50 56 
f 52 48 57 
f 48 53 57 
f 53 52 57 
f 50 51 58 
f 55 50 58 
f 51 55 58 
f 49 48 59 
f 48 52 59 
o convex_3
v 0.005895 0.078066 -0.000226
v 0.002739 0.099726 0.020080
v 0.008154 0.098371 0.020080
v -0.037866 0.078517 0.020080
v -0.036063 0.099274 -0.000226
v 0.013119 0.096564 -0.000226
v 0.005895 0.078066 0.020080
v -0.037866 0.078066 0.000228
v -0.038317 0.098371 0.020080
v 0.013114 0.085287 0.020080
v 0.002739 0.099726 0.000228
v -0.039224 0.097466 0.000228
v 0.013114 0.085287 0.000228
v -0.036063 0.099726 0.019625
v 0.013119 0.096564 0.020080
v -0.039224 0.079421 0.019625
v -0.038768 0.079421 -0.000226
v -0.037866 0.078066 0.019625
v -0.036063 0.099726 0.000228
v -0.039224 0.097466 0.020080
v 0.010860 0.097917 0.000228
v -0.039224 0.079421 0.000228
v 0.006346 0.078066 0.000228
v 0.007703 0.098820 0.019625
v 0.006346 0.078066 0.019625
v 0.003189 0.099274 -0.000226
v 0.010860 0.097917 0.019625
v 0.013114 0.085741 -0.000226
v 0.007703 0.098820 0.000228
v -0.037866 0.098820 0.000228
v -0.035612 0.099726 0.020080
v -0.038768 0.097466 -0.000226
f 71 89 91 
f 62 61 63 
f 60 64 65 
f 62 63 66 
f 60 66 67 
f 63 61 68 
f 62 66 69 
f 65 69 72 
f 61 70 73 
f 69 65 74 
f 62 69 74 
f 64 60 76 
f 60 67 76 
f 66 63 77 
f 67 66 77 
f 63 75 77 
f 75 67 77 
f 70 64 78 
f 73 70 78 
f 63 68 79 
f 68 71 79 
f 75 63 79 
f 71 75 79 
f 74 65 80 
f 67 75 81 
f 75 71 81 
f 71 76 81 
f 76 67 81 
f 66 60 82 
f 72 69 82 
f 61 62 83 
f 70 61 83 
f 69 66 84 
f 66 82 84 
f 82 69 84 
f 65 64 85 
f 64 70 85 
f 62 74 86 
f 74 80 86 
f 83 62 86 
f 80 83 86 
f 60 65 87 
f 65 72 87 
f 82 60 87 
f 72 82 87 
f 80 65 88 
f 70 83 88 
f 83 80 88 
f 65 85 88 
f 85 70 88 
f 71 68 89 
f 68 73 89 
f 78 64 89 
f 73 78 89 
f 68 61 90 
f 61 73 90 
f 73 68 90 
f 76 71 91 
f 64 76 91 
f 89 64 91 
o convex_4
v 0.024852 0.081224 -0.000226
v 0.039291 0.072201 0.020080
v 0.039291 0.068592 0.020080
v 0.024400 0.080771 0.019625
v 0.033423 0.081224 0.000228
v 0.038388 0.068138 0.000228
v 0.033423 0.081224 0.020080
v 0.033875 0.070397 0.020080
v 0.033875 0.070397 0.000228
v 0.038388 0.074456 0.000228
v 0.039291 0.068592 0.000228
v 0.035229 0.079418 0.020080
v 0.024400 0.080771 0.000228
v 0.024852 0.081224 0.020080
v 0.038840 0.072651 -0.000226
v 0.038388 0.068138 0.019625
v 0.035229 0.079418 0.000228
v 0.038388 0.074456 0.019625
v 0.039291 0.072201 0.000228
v 0.034325 0.070397 -0.000226
v 0.032971 0.081224 -0.000226
f 108 106 112 
f 94 93 98 
f 96 92 98 
f 94 98 99 
f 99 95 100 
f 97 99 100 
f 93 94 102 
f 94 97 102 
f 98 93 103 
f 96 98 103 
f 95 92 104 
f 100 95 104 
f 92 95 105 
f 98 92 105 
f 95 99 105 
f 99 98 105 
f 102 97 106 
f 97 94 107 
f 94 99 107 
f 99 97 107 
f 96 103 108 
f 103 101 108 
f 101 106 108 
f 93 101 109 
f 103 93 109 
f 101 103 109 
f 101 93 110 
f 93 102 110 
f 106 101 110 
f 102 106 110 
f 97 100 111 
f 104 92 111 
f 100 104 111 
f 92 106 111 
f 106 97 111 
f 92 96 112 
f 106 92 112 
f 96 108 112 
o convex_5
v 0.018986 0.094310 -0.000226
v 0.032974 0.081677 0.020080
v 0.032974 0.081224 0.020080
v 0.013119 0.096567 0.020080
v 0.013119 0.085287 0.000228
v 0.013119 0.085287 0.020080
v 0.032521 0.081224 -0.000226
v 0.023046 0.081224 0.020080
v 0.024850 0.090699 0.020080
v 0.013119 0.096567 -0.000226
v 0.032070 0.083482 -0.000226
v 0.023046 0.081224 0.000228
v 0.017181 0.095663 0.019625
v 0.024850 0.090699 0.000228
v 0.018986 0.094762 0.000228
v 0.032070 0.083482 0.020080
v 0.013119 0.085739 -0.000226
v 0.014925 0.096567 -0.000226
v 0.018986 0.094762 0.020080
v 0.014925 0.096567 0.020080
v 0.032974 0.081677 0.000228
f 119 123 133 
f 115 114 116 
f 115 116 118 
f 116 117 118 
f 115 118 120 
f 118 117 120 
f 119 115 120 
f 116 114 121 
f 117 116 122 
f 113 119 122 
f 119 113 123 
f 120 117 124 
f 119 120 124 
f 123 113 126 
f 121 123 126 
f 126 113 127 
f 121 126 127 
f 121 114 128 
f 114 123 128 
f 123 121 128 
f 117 122 129 
f 122 119 129 
f 124 117 129 
f 119 124 129 
f 113 122 130 
f 122 116 130 
f 127 113 130 
f 125 127 130 
f 116 121 131 
f 121 127 131 
f 127 125 131 
f 130 116 132 
f 125 130 132 
f 116 131 132 
f 131 125 132 
f 114 115 133 
f 115 119 133 
f 123 114 133 
