o convex_0
v -0.000204 0.010211 0.019762
v -0.020650 -0.097448 -0.000227
v -0.020650 -0.097448 0.020218
v -0.000204 -0.097448 0.000229
v -0.014289 0.013857 -0.000227
v -0.000660 -0.097448 0.020218
v -0.016559 0.003395 0.020218
v 0.001613 -0.017496 -0.000227
v -0.019739 -0.025679 0.000229
v -0.001113 0.013857 0.000229
v 0.001613 -0.037487 0.020218
v -0.014289 0.013857 0.020218
v -0.019739 -0.025679 0.019762
v -0.002477 -0.099271 -0.000227
v -0.019285 -0.099727 0.019762
v -0.001569 0.013857 0.020218
v -0.017921 -0.005689 0.000229
v -0.020650 -0.076546 -0.000227
v -0.002477 -0.099727 0.019762
v -0.019285 -0.099727 0.000229
v 0.001613 -0.037487 -0.000227
v 0.001613 -0.017496 0.020218
v 0.000704 0.001583 0.000229
v -0.000204 -0.097448 0.019762
v -0.015650 0.010211 -0.000227
v -0.020650 -0.076546 0.020218
v -0.017921 -0.005689 0.019762
v -0.015650 0.010666 0.019762
v -0.001569 0.013857 -0.000227
v 0.000704 0.001583 0.019762
v -0.002477 -0.099727 0.000229
v -0.000204 0.010211 0.000229
v -0.019285 -0.025223 -0.000227
v -0.018830 -0.014772 0.000229
v -0.014742 0.013857 0.000229
v -0.000660 -0.097448 -0.000227
v -0.019285 -0.025223 0.020218
v -0.018830 -0.014772 0.019762
v -0.001113 0.013857 0.019762
v -0.002477 -0.099271 0.020218
v -0.015650 0.010666 0.000229
v -0.014742 0.013857 0.019762
f 35 28 42 
f 3 6 7 
f 2 5 8 
f 7 6 11 
f 10 5 12 
f 7 11 12 
f 2 8 14 
f 3 2 15 
f 10 12 16 
f 12 11 16 
f 2 3 18 
f 5 2 18 
f 13 9 18 
f 19 15 20 
f 2 14 20 
f 15 2 20 
f 11 4 21 
f 8 11 21 
f 14 8 21 
f 11 8 22 
f 16 11 22 
f 22 8 23 
f 4 11 24 
f 11 6 24 
f 19 4 24 
f 5 18 25 
f 3 7 26 
f 18 3 26 
f 13 18 26 
f 7 12 28 
f 27 7 28 
f 17 27 28 
f 8 5 29 
f 5 10 29 
f 23 8 29 
f 1 16 30 
f 16 22 30 
f 23 1 30 
f 22 23 30 
f 14 4 31 
f 4 19 31 
f 19 20 31 
f 20 14 31 
f 10 1 32 
f 1 23 32 
f 29 10 32 
f 23 29 32 
f 18 9 33 
f 17 25 33 
f 25 18 33 
f 9 13 34 
f 27 17 34 
f 33 9 34 
f 17 33 34 
f 12 5 35 
f 5 25 35 
f 4 14 36 
f 21 4 36 
f 14 21 36 
f 26 7 37 
f 13 26 37 
f 7 27 38 
f 34 13 38 
f 27 34 38 
f 37 7 38 
f 13 37 38 
f 1 10 39 
f 16 1 39 
f 10 16 39 
f 6 3 40 
f 3 15 40 
f 15 19 40 
f 24 6 40 
f 19 24 40 
f 25 17 41 
f 17 28 41 
f 35 25 41 
f 28 35 41 
f 28 12 42 
f 12 35 42 
o convex_1
v -0.014743 0.013857 0.000229
v 0.001613 0.072467 0.020218
v -0.013834 0.072467 0.020218
v -0.013834 0.072467 -0.000227
v 0.001613 0.055652 -0.000227
v -0.001568 0.013857 0.020218
v -0.014743 0.013857 0.019762
v -0.001568 0.013857 -0.000227
v 0.001613 0.072467 -0.000227
v -0.000204 0.017495 0.019762
v -0.014743 0.067464 0.019762
v -0.014743 0.067464 0.000229
v -0.000204 0.017495 0.000229
v 0.001613 0.055652 0.020218
v -0.014288 0.013857 0.020218
v -0.014288 0.013857 -0.000227
v -0.014288 0.072467 0.000229
v -0.001114 0.013857 0.019762
v -0.014288 0.072467 0.019762
v -0.001114 0.013857 0.000229
f 55 60 62 
f 45 44 46 
f 44 45 48 
f 43 48 49 
f 46 47 50 
f 48 43 50 
f 46 44 51 
f 47 46 51 
f 44 47 51 
f 43 49 53 
f 43 53 54 
f 50 47 55 
f 47 52 55 
f 47 44 56 
f 44 48 56 
f 52 47 56 
f 48 52 56 
f 48 45 57 
f 49 48 57 
f 45 53 57 
f 53 49 57 
f 50 43 58 
f 46 50 58 
f 43 54 58 
f 54 46 58 
f 45 46 59 
f 46 54 59 
f 54 53 59 
f 48 50 60 
f 52 48 60 
f 55 52 60 
f 53 45 61 
f 45 59 61 
f 59 53 61 
f 50 55 62 
f 60 50 62 
o convex_2
v 0.049773 0.078376 0.000229
v 0.012977 0.096999 0.020218
v 0.012977 0.096999 -0.000227
v 0.012517 0.083373 0.020218
v 0.012517 0.083373 -0.000227
v 0.049317 0.075195 0.019762
v 0.042045 0.082918 0.019762
v 0.047497 0.075195 0.000229
v 0.018425 0.095635 -0.000227
v 0.016609 0.096544 0.019762
v 0.049317 0.078376 0.020218
v 0.049317 0.075650 -0.000227
v 0.047497 0.075195 0.019762
v 0.012517 0.096999 -0.000227
v 0.042045 0.082918 0.000229
v 0.012517 0.096999 0.020218
v 0.049317 0.078828 0.019762
v 0.018425 0.095635 0.020218
v 0.049773 0.075650 0.019762
v 0.047497 0.075650 0.020218
v 0.016609 0.096544 0.000229
v 0.049317 0.078376 -0.000227
v 0.049773 0.075650 0.000229
v 0.049317 0.078828 0.000229
f 84 77 86 
f 66 67 70 
f 67 65 71 
f 65 64 72 
f 64 66 73 
f 70 67 74 
f 67 71 74 
f 66 70 75 
f 70 68 75 
f 64 65 76 
f 67 66 76 
f 65 67 76 
f 71 69 77 
f 66 64 78 
f 64 76 78 
f 76 66 78 
f 69 73 79 
f 77 69 79 
f 69 71 80 
f 71 72 80 
f 72 64 80 
f 64 73 80 
f 73 69 80 
f 63 79 81 
f 79 73 81 
f 73 66 82 
f 66 75 82 
f 75 68 82 
f 68 81 82 
f 81 73 82 
f 71 65 83 
f 72 71 83 
f 65 72 83 
f 63 74 84 
f 74 71 84 
f 71 77 84 
f 68 70 85 
f 74 63 85 
f 70 74 85 
f 81 68 85 
f 63 81 85 
f 79 63 86 
f 77 79 86 
f 63 84 86 
o convex_3
v 0.002067 0.072922 0.019762
v -0.026102 0.082006 -0.000227
v -0.026102 0.082462 -0.000227
v 0.007974 0.082462 -0.000227
v -0.026102 0.082462 0.020218
v -0.014284 0.072467 -0.000227
v 0.007974 0.082462 0.020218
v -0.014284 0.072467 0.020218
v 0.001610 0.072467 -0.000227
v 0.001610 0.072467 0.020218
v -0.025191 0.081098 0.019762
v -0.014741 0.072467 0.000229
v 0.007974 0.082007 -0.000227
v -0.014741 0.072467 0.019762
v 0.002520 0.073377 0.019762
v 0.002520 0.073377 0.000229
v 0.007974 0.082007 0.020218
v -0.025191 0.081098 0.000229
f 88 98 104 
f 88 89 90 
f 89 88 91 
f 90 89 91 
f 88 90 92 
f 90 91 93 
f 93 91 94 
f 92 90 95 
f 94 92 95 
f 93 94 96 
f 95 87 96 
f 94 95 96 
f 91 88 97 
f 94 91 97 
f 88 92 98 
f 92 94 98 
f 90 93 99 
f 95 90 99 
f 94 97 100 
f 98 94 100 
f 97 98 100 
f 96 87 101 
f 99 101 102 
f 87 95 102 
f 95 99 102 
f 101 87 102 
f 93 96 103 
f 99 93 103 
f 96 101 103 
f 101 99 103 
f 97 88 104 
f 98 97 104 
o convex_4
v 0.012517 0.091548 0.020218
v -0.049268 0.083372 -0.000227
v -0.049725 0.083372 0.000229
v -0.049268 0.099725 0.000229
v 0.012517 0.097454 -0.000227
v -0.049268 0.099271 0.020218
v 0.009331 0.082464 0.020218
v 0.012511 0.083373 -0.000227
v -0.049268 0.083372 0.020218
v 0.009331 0.098818 0.019762
v -0.027463 0.082466 -0.000227
v 0.009331 0.098818 0.000229
v -0.023369 0.099724 0.019762
v -0.027463 0.082466 0.020218
v 0.009331 0.082464 -0.000227
v 0.012517 0.097454 0.020218
v 0.012511 0.083373 0.020218
v -0.049268 0.099271 -0.000227
v -0.023369 0.099724 0.000229
v -0.049725 0.099271 0.019762
v -0.049268 0.099725 0.019762
v -0.049725 0.083372 0.019762
v -0.049725 0.099271 0.000229
v 0.009331 0.098363 -0.000227
v 0.009331 0.098363 0.020218
v 0.012060 0.097909 0.019762
f 114 120 130 
f 105 110 111 
f 109 105 112 
f 106 109 112 
f 111 110 113 
f 107 106 115 
f 106 112 115 
f 114 116 117 
f 111 113 118 
f 107 115 118 
f 115 111 118 
f 112 111 119 
f 115 112 119 
f 111 115 119 
f 105 109 120 
f 110 105 120 
f 105 111 121 
f 112 105 121 
f 111 112 121 
f 106 107 122 
f 109 106 122 
f 117 116 123 
f 108 117 123 
f 122 108 123 
f 113 110 124 
f 117 108 125 
f 110 117 125 
f 108 124 125 
f 124 110 125 
f 107 118 126 
f 118 113 126 
f 124 107 126 
f 113 124 126 
f 122 107 127 
f 108 122 127 
f 107 124 127 
f 124 108 127 
f 116 109 128 
f 109 122 128 
f 123 116 128 
f 122 123 128 
f 114 117 129 
f 117 110 129 
f 110 120 129 
f 120 114 129 
f 109 116 130 
f 116 114 130 
f 120 109 130 
