# https://github.com/mikedh/trimesh
mtllib material0.mtl
usemtl material0
v -0.01344225 -0.09971766 0.00349628
v -0.01344225 -0.09971766 0.00349628
v 0.00072385 -0.03161016 0.01099354
v -0.01936177 -0.03698009 0.00838264
v -0.04966714 0.08476722 0.01468905
v -0.04966714 0.08476722 0.01468905
v -0.02737242 0.09867193 0.00349746
v 0.02371562 0.09147762 0.00732467
v 0.02371562 0.09147762 0.00732467
v -0.00636456 0.06749709 0.00843123
v -0.00207505 0.05536951 0.00217542
v -0.00207505 0.05536951 0.00217542
v -0.00097050 -0.03747606 0.00385000
v 0.04945267 0.07789010 0.00564858
v 0.04945267 0.07789010 0.00564858
v 0.04945267 0.07789010 0.00564858
v -0.02828395 0.08360821 0.00510485
v -0.00027731 0.05442297 0.00639874
v -0.00027731 0.05442297 0.00639874
v -0.02838431 0.08673000 0.00192710
v -0.02838431 0.08673000 0.00192710
v -0.03266310 0.08541500 0.01095416
v 0.00029105 0.06908756 0.01173834
v -0.02353717 0.08094671 0.01172427
v -0.02825563 0.09663709 0.01490621
v -0.02825563 0.09663709 0.01490621
v 0.00536339 0.08049363 0.01191478
v -0.01308149 0.07067702 0.01165121
v -0.01710291 -0.02520991 0.01304748
v -0.00160706 0.00655960 0.01072059
v -0.03234524 0.09580902 0.01270130
v -0.00883873 -0.02542405 0.00056115
v -0.00872077 0.06755356 0.00101139
v -0.00872077 0.06755356 0.00101139
v -0.00103183 -0.03748192 0.01315673
v -0.01089770 0.06761388 0.00210286
v -0.01089770 0.06761388 0.00210286
v 0.00020141 0.06578514 0.01173583
v -0.01295666 0.05566709 0.00382621
v -0.01295666 0.05566709 0.00382621
v -0.03621652 0.08854735 0.00248976
v -0.03621652 0.08854735 0.00248976
v -0.00984677 -0.05880648 0.01585895
v -0.00112147 0.01019177 0.00632820
v -0.00112147 0.01019177 0.00632820
v 0.01480333 0.09519005 0.01528054
v 0.01480333 0.09519005 0.01528054
v -0.00862811 -0.01760676 0.00084969
v -0.00872848 -0.01761631 0.01608096
v 0.04927640 0.07568050 0.01122544
v 0.04927640 0.07568050 0.01122544
v 0.04927640 0.07568050 0.01122544
v 0.02424712 0.09063781 0.01028745
v 0.02424712 0.09063781 0.01028745
v -0.01714664 0.07896583 0.00245306
v -0.01714664 0.07896583 0.00245306
v -0.00602609 -0.03733615 0.00094068
v -0.00602609 -0.03733615 0.00094068
v -0.00787058 0.01037927 0.00136778
v -0.00787058 0.01037927 0.00136778
v -0.03015457 0.08458056 0.00569131
v -0.00157958 0.00655474 0.00654452
v -0.01365454 0.01053409 0.00426019
v -0.01365454 0.01053409 0.00426019
v -0.00278064 0.05449887 0.01393738
v -0.00278064 0.05449887 0.01393738
v -0.00067878 -0.02564908 0.00387044
v -0.03985272 0.09474720 0.00022788
v -0.03985272 0.09474720 0.00022788
v -0.01294677 0.06614254 0.01164920
v -0.03632460 0.08672096 0.00395372
v -0.00348841 -0.09999095 0.00705792
v -0.00348841 -0.09999095 0.00705792
v -0.01522021 -0.03709754 0.01481506
v 0.00487613 0.08101474 0.00221379
v 0.00487613 0.08101474 0.00221379
v 0.00487613 0.08101474 0.00221379
v -0.00160103 0.06914637 0.00245340
v -0.00160103 0.06914637 0.00245340
v -0.01016245 0.01043021 0.01524702
v -0.01016245 0.01043021 0.01524702
v -0.00565846 0.00964419 0.01563073
v -0.00565846 0.00964419 0.01563073
v -0.01399083 0.00988832 0.00404202
v -0.01399083 0.00988832 0.00404202
v -0.00169067 0.06584412 0.00245072
v -0.00169067 0.06584412 0.00245072
v -0.00674157 0.05551076 0.01622875
v -0.00674157 0.05551076 0.01622875
v -0.00320272 -0.10000000 0.00844949
v -0.00320272 -0.10000000 0.00844949
v -0.00779250 -0.09740837 0.01554528
v -0.00779250 -0.09740837 0.01554528
v -0.00779250 -0.09740837 0.01554528
v 0.00264173 0.07897270 0.00238738
v 0.00264173 0.07897270 0.00238738
v -0.00109014 -0.01112022 0.01292499
v -0.00218396 -0.05901375 0.01284775
v -0.03259658 0.08656613 0.01271169
v -0.01885943 -0.03107782 0.01086486
v -0.03002673 0.08779434 0.01451194
v -0.03002673 0.08779434 0.01451194
v -0.00641298 -0.04620420 0.00121011
v -0.00641298 -0.04620420 0.00121011
v 0.02543662 0.08972763 0.01114702
v 0.02543662 0.08972763 0.01114702
v 0.02543662 0.08972763 0.01114702
v 0.00380677 0.07861781 0.01180922
v -0.00567304 0.01031928 0.00172887
v -0.00567304 0.01031928 0.00172887
v 0.00805338 0.09687519 0.00205863
v 0.00805338 0.09687519 0.00205863
v -0.00347467 0.00959895 0.00245306
v -0.00347467 0.00959895 0.00245306
v -0.01510309 0.00991664 0.01075644
v -0.01510309 0.00991664 0.01075644
v 0.00570102 0.08178517 0.01521200
v 0.00570102 0.08178517 0.01521200
v 0.04941111 0.07782978 0.01135631
v 0.04941111 0.07782978 0.01135631
v 0.04941111 0.07782978 0.01135631
v 0.04941111 0.07782978 0.01135631
v -0.01021305 0.00977941 0.00134416
v -0.01021305 0.00977941 0.00134416
v 0.00246932 0.07563961 0.01155453
v -0.00631345 0.06748771 0.00064627
v -0.00631345 0.06748771 0.00064627
v -0.00935900 0.07073852 0.00221094
v -0.02824356 0.09896264 0.00527057
v -0.03141780 0.08643309 0.00407202
v -0.04039360 0.09975872 0.00525146
v -0.01677985 -0.09715870 0.01442196
v -0.01677985 -0.09715870 0.01442196
v -0.01677985 -0.09715870 0.01442196
v -0.00304270 -0.03151079 0.01497374
v -0.01094612 -0.09979357 0.01358719
v -0.01094612 -0.09979357 0.01358719
v 0.01025477 0.09652768 0.01525155
v 0.01025477 0.09652768 0.01525155
v 0.02190079 0.09285328 0.01123499
v -0.04957700 0.08484379 0.00175082
v -0.04957700 0.08484379 0.00175082
v -0.00683205 -0.05887702 0.00138772
v -0.00683205 -0.05887702 0.00138772
v 0.00250836 0.07564347 0.00564087
v -0.01471402 0.01055772 0.01064770
v -0.01471402 0.01055772 0.01064770
v 0.00384883 0.07862149 0.00540763
v -0.00174898 0.06736505 0.00216302
v -0.00174898 0.06736505 0.00216302
v 0.03251347 0.08700865 0.01137323
v 0.03251347 0.08700865 0.01137323
v -0.00974891 -0.05879709 0.00100485
v 0.04936738 0.07545396 0.01523596
v 0.04936738 0.07545396 0.01523596
v 0.04936738 0.07545396 0.01523596
v -0.01849264 -0.02516668 0.00595504
v -0.00922730 0.06603882 0.01483248
v -0.02767219 0.08710366 0.01499518
v -0.03809569 0.09473580 0.01537253
v -0.03809569 0.09473580 0.01537253
v 0.04965692 0.07723377 0.00571879
v -0.03994018 0.09805967 0.01459572
v -0.01479294 -0.02526353 0.00203031
v -0.01852481 -0.02516986 0.01083620
v 0.03266662 0.08653346 0.00630658
v 0.03266662 0.08653346 0.00630658
v 0.00062399 0.07030940 0.00542271
v 0.01457562 0.08369417 0.00237431
v 0.01457562 0.08369417 0.00237431
v -0.00320440 -0.03741373 0.00208376
v -0.01263059 0.06766264 0.00381381
v -0.01263059 0.06766264 0.00381381
v -0.02349377 0.08095090 0.00513468
v -0.01556890 0.07887199 0.01461466
v -0.01556890 0.07887199 0.01461466
v -0.00433425 0.05544491 0.01586364
v -0.00433425 0.05544491 0.01586364
v -0.00915994 -0.03725053 0.00053250
v -0.01892930 -0.09708665 0.00394450
v -0.01892930 -0.09708665 0.00394450
v -0.01892930 -0.09708665 0.00394450
v -0.00025921 -0.04638131 0.01085899
v 0.01712402 0.08429035 0.00601738
v 0.02426605 0.09064452 0.00721040
v 0.02426605 0.09064452 0.00721040
v -0.01510477 -0.04596929 0.00223607
v -0.03989812 0.09958512 0.00534362
v 0.04970970 0.07541475 0.00290346
v -0.00574291 -0.01769724 0.01572792
v -0.04043431 0.09975503 0.01140825
v 0.01029985 0.09765099 0.01304362
v 0.02381180 0.09097461 0.00933186
v 0.02381180 0.09097461 0.00933186
v 0.04963464 0.07556405 0.01491894
v -0.04941011 0.08788817 0.00000000
v -0.04941011 0.08788817 0.00000000
v -0.04941011 0.08788817 0.00000000
v 0.00023023 -0.04639288 0.00850596
v -0.01195198 0.00683305 0.00309749
v 0.00048760 -0.01786044 0.01087910
v -0.04034165 0.09814965 0.00184549
v 0.01489649 0.09640083 0.00611205
v -0.01089418 -0.09732492 0.01589162
v -0.01089418 -0.09732492 0.01589162
v -0.04042744 0.09821985 0.01473212
v -0.01229899 -0.03716557 0.00089929
v -0.01097997 0.06762896 0.01469961
v -0.01097997 0.06762896 0.01469961
v 0.04930907 0.07577014 0.00598370
v 0.04930907 0.07577014 0.00598370
v 0.04930907 0.07577014 0.00598370
v -0.00854567 -0.01091512 0.01596552
v -0.00556446 0.00965290 0.00137465
v -0.00556446 0.00965290 0.00137465
v -0.00556446 0.00965290 0.00137465
v -0.03235244 0.09404982 0.01424033
v -0.03235244 0.09404982 0.01424033
v -0.00082841 -0.05904944 0.01078610
v -0.00269435 -0.09704912 0.00405208
v -0.00641550 0.06750630 0.01621652
v -0.00641550 0.06750630 0.01621652
v 0.00072654 0.05529729 0.00608658
v 0.00072654 0.05529729 0.00608658
v -0.00075334 -0.03157162 0.01321671
v -0.01370766 0.07559638 0.00299612
v -0.01370766 0.07559638 0.00299612
v -0.01545563 0.00992954 0.00843793
v -0.01545563 0.00992954 0.00843793
v -0.01468352 0.01056040 0.00623939
v -0.01468352 0.01056040 0.00623939
v 0.00069436 -0.01117082 0.00853126
v 0.00093716 -0.03753202 0.00851635
v -0.01882675 -0.03107481 0.00591466
v -0.00564724 -0.01768785 0.00124195
v -0.00564724 -0.01768785 0.00124195
v -0.01924498 -0.05854693 0.00836990
v -0.01745411 -0.03703555 0.01304865
v -0.02743794 0.09869756 0.01326698
v 0.01034190 0.09653589 0.00207354
v 0.01034190 0.09653589 0.00207354
v -0.01447290 0.05571284 0.00839236
v -0.01447290 0.05571284 0.00839236
v -0.00831746 -0.09985690 0.00353114
v -0.00831746 -0.09985690 0.00353114
v -0.00270893 0.05448580 0.00300416
v -0.00270893 0.05448580 0.00300416
v 0.00629904 0.08177931 0.00222367
v 0.00629904 0.08177931 0.00222367
v -0.02828512 0.09895862 0.01154850
v -0.01312556 0.05477216 0.00631429
v -0.01312556 0.05477216 0.00631429
v -0.03638542 0.08666918 0.01268672
v 0.00033277 0.06909158 0.00542003
v 0.01449887 0.08398857 0.01527149
v 0.01449887 0.08398857 0.01527149
v -0.01239634 0.00983185 0.01452166
v -0.01239634 0.00983185 0.01452166
v -0.00613366 -0.09992359 0.01246236
v -0.00613366 -0.09992359 0.01246236
v -0.01651813 -0.01740016 0.01289031
v 0.02369601 0.09147578 0.01017116
v 0.02369601 0.09147578 0.01017116
v -0.01725807 -0.04591299 0.00390881
v -0.00275953 -0.09753320 0.01285713
v -0.00275953 -0.09753320 0.01285713
v -0.00275953 -0.09753320 0.01285713
v -0.00188018 0.00955186 0.01293270
v -0.00188018 0.00955186 0.01293270
v -0.00791766 0.01037475 0.00848786
v -0.01504897 0.01056861 0.00844095
v -0.01504897 0.01056861 0.00844095
v 0.00024313 0.06578916 0.00541751
v -0.04037852 0.08338134 0.01134474
v -0.00369250 0.01026449 0.00275048
v -0.00369250 0.01026449 0.00275048
v 0.01443068 0.08408659 0.01169226
v 0.00071112 -0.02569281 0.01096288
v -0.00991614 0.06936269 0.01451546
v -0.00991614 0.06936269 0.01451546
v -0.00914403 0.05557577 0.01583197
v -0.00914403 0.05557577 0.01583197
v 0.02193346 0.09285646 0.00628011
v 0.00074329 -0.02568963 0.00608172
v -0.00089745 -0.01782626 0.01299302
v -0.03262908 0.08541835 0.00579017
v -0.01735843 -0.09961294 0.00556580
v -0.01735843 -0.09961294 0.00556580
v -0.01888121 -0.03699533 0.01083235
v -0.03227520 0.09405719 0.00251908
v -0.03227520 0.09405719 0.00251908
v 0.00058243 0.07030554 0.01174119
v 0.00959040 0.08316938 0.01523865
v 0.00959040 0.08316938 0.01523865
v -0.01000578 0.06606044 0.01451278
v -0.01000578 0.06606044 0.01451278
v -0.01746953 -0.05859803 0.01274704
v 0.00207991 0.07898979 0.01499636
v 0.00207991 0.07898979 0.01499636
v -0.00571627 -0.02550934 0.00096799
v -0.00571627 -0.02550934 0.00096799
v -0.01218271 -0.03125074 0.00081584
v -0.01249370 -0.04605072 0.01567430
v -0.00127663 0.05445631 0.01245231
v -0.00127663 0.05445631 0.01245231
v -0.01290505 0.06614656 0.00533089
v -0.00115180 0.01018909 0.01073651
v -0.00115180 0.01018909 0.01073651
v -0.01442783 0.00690376 0.00645990
v 0.04937861 0.07743836 0.01100862
v 0.04937861 0.07743836 0.01100862
v 0.04937861 0.07743836 0.01100862
v 0.03247795 0.08074061 0.01102303
v 0.03247795 0.08074061 0.01102303
v -0.00788633 0.00971507 0.00099262
v -0.00788633 0.00971507 0.00099262
v -0.01281926 0.07569206 0.00233007
v -0.04970903 0.08348003 0.00514339
v -0.04970903 0.08348003 0.00514339
v -0.00446545 -0.09996800 0.01123164
v -0.00446545 -0.09996800 0.01123164
v -0.00884460 0.05466459 0.01485745
v -0.00884460 0.05466459 0.01485745
v -0.01531103 -0.05864780 0.00238688
v -0.00806176 0.00673989 0.01534739
v 0.00801317 0.09805397 0.01304731
v -0.03832424 0.08549107 0.00272451
v 0.04975009 0.07693233 0.00304119
v -0.00295725 -0.03150258 0.00201423
v -0.04929466 0.09846097 0.01467380
v -0.04929466 0.09846097 0.01467380
v 0.00102127 0.06729870 0.01088563
v 0.00102127 0.06729870 0.01088563
v -0.00183125 0.06738030 0.01475976
v -0.00183125 0.06738030 0.01475976
v -0.01072126 0.05471452 0.01388527
v -0.01072126 0.05471452 0.01388527
v 0.01212037 0.08365731 0.00235789
v 0.01212037 0.08365731 0.00235789
v -0.03607611 0.09586465 0.00397835
v 0.00796642 0.09686682 0.01523647
v 0.00796642 0.09686682 0.01523647
v -0.01934702 -0.03106257 0.00838649
v -0.01900386 -0.02515478 0.00839236
v -0.03250509 0.08843709 0.01423581
v -0.03250509 0.08843709 0.01423581
v -0.01580818 0.07501562 0.01143355
v -0.01239802 -0.04604150 0.00117057
v -0.01569022 -0.09965717 0.00433508
v -0.01569022 -0.09965717 0.00433508
v 0.03102940 0.08078686 0.00264006
v 0.03102940 0.08078686 0.00264006
v -0.00355476 0.00959141 0.01457997
v -0.00355476 0.00959141 0.01457997
v -0.03847136 0.08440261 0.01143053
v -0.04030512 0.08466350 0.01461131
v -0.01350642 -0.09972386 0.01326631
v -0.01350642 -0.09972386 0.01326631
v -0.01833212 -0.01734536 0.00840174
v -0.02217123 0.08372383 0.00185588
v -0.01138312 -0.01083855 0.01557996
v -0.01576914 0.07501948 0.00551989
v -0.00290447 -0.02558675 0.00210839
v 0.00105261 0.06729283 0.00607435
v 0.00105261 0.06729283 0.00607435
v -0.00570337 -0.01099254 0.01561733
v -0.03808916 0.09845812 0.01140557
v -0.01731721 -0.04591868 0.01287238
v -0.00940307 -0.04612244 0.00081735
v -0.02848451 0.08670303 0.01488945
v -0.02848451 0.08670303 0.01488945
v -0.01375005 0.06769531 0.00597683
v -0.01375005 0.06769531 0.00597683
v -0.01220583 0.05475356 0.01238043
v -0.01220583 0.05475356 0.01238043
v 0.01184759 0.08379990 0.01525389
v 0.01184759 0.08379990 0.01525389
v -0.01439348 -0.01746064 0.01458919
v 0.00109165 0.05528975 0.00849490
v 0.00109165 0.05528975 0.00849490
v -0.00132120 -0.09756570 0.01077823
v -0.00132120 -0.09756570 0.01077823
v -0.00132120 -0.09756570 0.01077823
v -0.00612545 -0.03734553 0.01599936
v -0.03993750 0.09958144 0.01132229
v 0.01035698 0.09758229 0.00408592
v -0.00083863 -0.01781922 0.00404035
v -0.01410779 0.05570546 0.01080068
v -0.01410779 0.05570546 0.01080068
v -0.04034886 0.09485812 0.00006401
v -0.04034886 0.09485812 0.00006401
v -0.02815593 0.09660308 0.00190699
v -0.02815593 0.09660308 0.00190699
v 0.00731830 0.08183511 0.00533859
v -0.01894807 0.07782944 0.00523839
v -0.00894279 -0.02543410 0.01635693
v -0.00926450 -0.03726041 0.01636615
v -0.03242784 0.08844447 0.00251456
v -0.03242784 0.08844447 0.00251456
v -0.02758070 0.08709612 0.00181952
v -0.01590251 -0.01071037 0.00401655
v -0.00270155 -0.09752767 0.00405141
v -0.00270155 -0.09752767 0.00405141
v -0.00270155 -0.09752767 0.00405141
v -0.00313436 -0.01106341 0.01456958
v -0.02036746 -0.09704409 0.00602341
v -0.02036746 -0.09704409 0.00602341
v -0.02036746 -0.09704409 0.00602341
v -0.01607795 0.07889445 0.00207538
v -0.02143983 0.08370071 0.01503422
v -0.04021716 0.08473823 0.00195340
v -0.01385813 -0.01076197 0.00237180
v -0.00022822 -0.04637847 0.00614673
v -0.01669993 -0.09715116 0.00230192
v -0.01669993 -0.09715116 0.00230192
v -0.01669993 -0.09715116 0.00230192
v -0.00581530 -0.02551872 0.01599082
v 0.03251146 0.08074379 0.00595320
v 0.03251146 0.08074379 0.00595320
v -0.02974003 0.09538057 0.00227646
v -0.02974003 0.09538057 0.00227646
v 0.00540176 0.08049430 0.00532519
v -0.03808313 0.09711179 0.01375391
v -0.01007264 0.01043875 0.00170123
v -0.01007264 0.01043875 0.00170123
v -0.00138638 0.07036654 0.00245558
v -0.00138638 0.07036654 0.00245558
v -0.04080009 0.08452627 0.01474753
v -0.00904701 0.05555785 0.00102362
v -0.00904701 0.05555785 0.00102362
v 0.03246471 0.08659780 0.01102906
v 0.03246471 0.08659780 0.01102906
v 0.00051859 -0.01785592 0.00617237
v -0.01350810 0.00688500 0.01252620
v -0.03985640 0.09799080 0.00198976
v -0.00997998 0.07059994 0.00254053
v -0.00997998 0.07059994 0.00254053
v -0.01371185 0.01052890 0.01264115
v -0.01371185 0.01052890 0.01264115
v 0.01035229 0.09787904 0.00601721
v -0.03146354 0.08637964 0.01263897
v -0.00081501 -0.09757542 0.00846692
v -0.00081501 -0.09757542 0.00846692
v -0.00036461 0.05532460 0.00390898
v -0.00036461 0.05532460 0.00390898
v -0.03231072 0.09713558 0.00582971
v -0.02098642 0.07932239 0.01174002
v -0.01161384 -0.01752599 0.00120274
v 0.03110966 0.08671844 0.01494408
v 0.03110966 0.08671844 0.01494408
v 0.00124396 -0.03162222 0.00852188
v 0.04967251 0.07692345 0.01477836
v -0.01596082 -0.01071757 0.01282714
v 0.04960431 0.07721048 0.01168606
v -0.04055043 0.08764739 0.00005814
v -0.04055043 0.08764739 0.00005814
v -0.01768735 -0.01067116 0.00841012
v -0.01514582 -0.03118171 0.01489398
v 0.00429638 0.08102998 0.01520245
v 0.00429638 0.08102998 0.01520245
v 0.00429638 0.08102998 0.01520245
v -0.00129071 -0.09756269 0.00614874
v -0.00129071 -0.09756269 0.00614874
v -0.00129071 -0.09756269 0.00614874
v -0.04045777 0.09484756 0.01658967
v -0.04045777 0.09484756 0.01658967
v -0.00189509 0.07037005 0.01488342
v -0.00189509 0.07037005 0.01488342
v -0.00408274 0.00663031 0.01408299
v -0.01128911 -0.01082917 0.00132405
v -0.00391116 0.06742286 0.00104305
v -0.00391116 0.06742286 0.00104305
v -0.00391116 0.06742286 0.00104305
v -0.03804878 0.09846198 0.00528347
v 0.01411164 0.09626109 0.00414356
v 0.04947864 0.07748729 0.01500758
v 0.04947864 0.07748729 0.01500758
v 0.04947864 0.07748729 0.01500758
v -0.00913749 0.06934124 0.01483500
v -0.01064954 0.05470145 0.00295189
v -0.01064954 0.05470145 0.00295189
v -0.01404898 0.00988262 0.01285277
v -0.01404898 0.00988262 0.01285277
v -0.00592036 -0.03143338 0.01609236
v -0.01876744 -0.05855799 0.00607770
v -0.01894974 0.07778956 0.01167366
v -0.00079825 0.00952790 0.01085045
v -0.00079825 0.00952790 0.01085045
v 0.00042426 -0.03751996 0.01095936
v -0.03613308 0.09723545 0.01090842
v 0.03119076 0.08672632 0.00264492
v 0.03119076 0.08672632 0.00264492
v -0.01301648 0.05567799 0.01297811
v -0.01301648 0.05567799 0.01297811
v 0.00050620 0.07570027 0.00259666
v 0.00050620 0.07570027 0.00259666
v -0.01867863 -0.04588082 0.01073785
v 0.02381967 0.09097561 0.00816297
v 0.02381967 0.09097561 0.00816297
v -0.03800287 0.09474468 0.00131215
v -0.03800287 0.09474468 0.00131215
v -0.00663969 0.05549199 0.00065851
v -0.00663969 0.05549199 0.00065851
v -0.00420539 -0.05894957 0.00245993
v 0.02533859 0.09035464 0.00622666
v 0.02533859 0.09035464 0.00622666
v -0.01704175 -0.02520421 0.00376270
v -0.01539029 -0.05865517 0.01440387
v -0.03645177 0.08551805 0.01092920
v -0.01239835 -0.03717496 0.01595798
v -0.01477216 0.00691532 0.00854584
v -0.04088454 0.08323506 0.01143120
v -0.01507243 0.00991966 0.00612445
v -0.01507243 0.00991966 0.00612445
v -0.01231642 0.00983939 0.00239492
v -0.01231642 0.00983939 0.00239492
v -0.03613391 0.09591207 0.01267650
v -0.01315287 0.05477736 0.01049053
v -0.01315287 0.05477736 0.01049053
v -0.00797329 0.00672364 0.00183309
v -0.03827867 0.08800295 0.01536700
v -0.03827867 0.08800295 0.01536700
v -0.01739262 -0.03702968 0.00374193
v -0.02255075 0.08306432 0.00221764
v -0.02255075 0.08306432 0.00221764
v -0.02825580 0.09849582 0.01319862
v -0.00769833 -0.09739798 0.00129707
v -0.00769833 -0.09739798 0.00129707
v -0.00769833 -0.09739798 0.00129707
v -0.00769833 -0.09739798 0.00129707
v -0.01734972 -0.03111301 0.00369166
v -0.01196639 -0.02533943 0.00092710
v 0.00803344 0.09837887 0.01132816
v 0.01758832 0.08428666 0.00498856
v -0.01787519 -0.01735977 0.01075829
v -0.03818601 0.08801166 0.00130662
v -0.03818601 0.08801166 0.00130662
v -0.02819145 0.09847220 0.00355728
v -0.00950377 -0.04613199 0.01606722
v -0.00158963 -0.04633892 0.00401203
v -0.00103200 -0.01111636 0.00411424
v -0.02090314 0.07930128 0.00515059
v -0.01276380 -0.05872705 0.01547624
v -0.00209365 0.06914972 0.01488141
v -0.00209365 0.06914972 0.01488141
v -0.04975009 0.08347618 0.01137289
v -0.04975009 0.08347618 0.01137289
v 0.01933245 0.08410268 0.01025444
v 0.01933245 0.08410268 0.01025444
v -0.04070995 0.08460268 0.00180913
v 0.00806863 0.09838222 0.00596929
v -0.00003854 0.06732048 0.00389658
v -0.00003854 0.06732048 0.00389658
v -0.00838163 -0.09986310 0.01330133
v -0.00838163 -0.09986310 0.01330133
v -0.00076775 0.00953058 0.00621845
v -0.00076775 0.00953058 0.00621845
v -0.01898744 -0.09709218 0.01275023
v -0.01898744 -0.09709218 0.01275023
v -0.01898744 -0.09709218 0.01275023
v -0.00218329 0.06584747 0.01487856
v -0.00218329 0.06584747 0.01487856
v -0.00042459 0.05533583 0.01306105
v -0.00042459 0.05533583 0.01306105
v 0.01763038 0.08436943 0.01242784
v -0.00650883 -0.04621325 0.01571368
v -0.00372065 -0.04627877 0.00231097
v -0.01445514 0.00690896 0.01063614
v -0.01487722 -0.02527157 0.01480936
v -0.00078619 0.01018088 0.00853495
v -0.00078619 0.01018088 0.00853495
v -0.00296311 -0.01776141 0.00234147
v -0.01130621 0.05563325 0.01471184
v -0.01130621 0.05563325 0.01471184
v -0.01831955 -0.09958797 0.00695922
v -0.01831955 -0.09958797 0.00695922
v -0.03609956 0.09723863 0.00580474
v 0.01881687 0.08432084 0.00812292
v 0.01881687 0.08432084 0.00812292
v 0.00003954 0.05441660 0.00848904
v 0.00003954 0.05441660 0.00848904
v -0.01214266 0.01048483 0.01422542
v -0.01214266 0.01048483 0.01422542
v -0.00675933 0.05460829 0.01520178
v -0.00675933 0.05460829 0.01520178
v -0.01915986 0.08064996 0.00228416
v -0.01915986 0.08064996 0.00228416
v -0.01915986 0.08064996 0.00228416
v -0.01399100 -0.09723846 0.01550456
v -0.01399100 -0.09723846 0.01550456
v -0.01399100 -0.09723846 0.01550456
v -0.01079532 -0.09731554 0.00091001
v -0.01079532 -0.09731554 0.00091001
v -0.03843048 0.08440646 0.00523571
v -0.00328868 -0.03742177 0.01489347
v -0.04084332 0.08323908 0.00520170
v -0.00844681 -0.01090591 0.00097586
v -0.04004976 0.08775664 0.00021665
v -0.04004976 0.08775664 0.00021665
v -0.04015700 0.08774625 0.01643234
v -0.04015700 0.08774625 0.01643234
v -0.01884887 -0.03699198 0.00593946
v -0.01741188 -0.03111887 0.01310713
v -0.01741188 -0.05859267 0.00401622
v -0.00212364 0.01022059 0.00433492
v -0.00212364 0.01022059 0.00433492
v 0.00097553 -0.01787016 0.00852892
v 0.00122217 -0.02570454 0.00852557
v 0.01880916 0.08432000 0.00929734
v 0.01880916 0.08432000 0.00929734
v -0.01281524 0.06944898 0.00533340
v -0.00576285 0.01031074 0.01527467
v -0.00576285 0.01031074 0.01527467
v 0.04958253 0.07673026 0.01139887
v -0.01506036 -0.03117350 0.00193464
v 0.01405467 0.09631555 0.01303072
v 0.03252101 0.08702910 0.00595220
v 0.03252101 0.08702910 0.00595220
v -0.01269041 0.06767370 0.01296588
v -0.01269041 0.06767370 0.01296588
v -0.00400801 0.06744045 0.01585124
v -0.00400801 0.06744045 0.01585124
v -0.00126272 0.00654803 0.00863465
v -0.01462454 0.07901609 0.01492045
v -0.00164878 -0.04634445 0.01297543
v -0.01393822 -0.01077052 0.01449854
v -0.02981326 0.09565084 0.01451831
v -0.02981326 0.09565084 0.01451831
v -0.00905204 0.06934912 0.00221161
v -0.00608155 -0.09991857 0.00440043
v -0.00608155 -0.09991857 0.00440043
v -0.01518603 -0.04597716 0.01457360
v -0.00947026 0.07069679 0.01482394
v -0.02746475 0.09913640 0.01166428
v -0.01206542 -0.02534882 0.01594977
v -0.01206542 0.01049204 0.00269703
v -0.01206542 0.01049204 0.00269703
v -0.02973819 0.09763072 0.00382688
v -0.02742185 0.09914059 0.00516584
v -0.00466987 0.05455098 0.01488493
v -0.00466987 0.05455098 0.01488493
v -0.00257873 0.00658791 0.01259808
v 0.01489029 0.09519826 0.00210270
v 0.01489029 0.09519826 0.00210270
v -0.00069135 -0.03156575 0.00380124
v -0.00914168 0.06604670 0.00220876
v 0.00075636 -0.03160697 0.00604352
v -0.02087348 -0.09703019 0.00833488
v -0.02087348 -0.09703019 0.00833488
v 0.02547465 0.08973769 0.00634613
v 0.02547465 0.08973769 0.00634613
v 0.02547465 0.08973769 0.00634613
v 0.01714228 0.08428398 0.01137557
v -0.00983872 0.06937040 0.00251054
v -0.00983872 0.06937040 0.00251054
v -0.00992837 0.06606781 0.00250785
v -0.00992837 0.06606781 0.00250785
v -0.02979952 0.09764731 0.01291108
v -0.01725270 -0.01068406 0.01072930
v -0.03228743 0.09576160 0.00400332
v 0.00999640 0.08333291 0.01194712
v -0.01645914 -0.01739613 0.00393763
v -0.00305443 -0.01105654 0.00244284
v -0.00490964 -0.09747170 0.00237950
v -0.00490964 -0.09747170 0.00237950
v -0.00490964 -0.09747170 0.00237950
v -0.01202336 0.00684612 0.01403088
v -0.01014670 0.00679619 0.01500289
v 0.04959543 0.07582745 0.00566600
v -0.00443093 -0.09996431 0.00565310
v -0.00443093 -0.09996431 0.00565310
v -0.01288126 0.07559119 0.01409690
v -0.01288126 0.07559119 0.01409690
v -0.00122452 0.05444676 0.00450884
v -0.00122452 0.05444676 0.00450884
v -0.03614112 0.09415286 0.01421536
v -0.03614112 0.09415286 0.01421536
v -0.00009852 0.06733137 0.01304865
v -0.00009852 0.06733137 0.01304865
v -0.01414666 0.06770872 0.00838012
v -0.01414666 0.06770872 0.00838012
v -0.01698846 0.08108059 0.01509136
v 0.00069503 0.05530299 0.01089803
v 0.00069503 0.05530299 0.01089803
v 0.04956326 0.07747656 0.00281013
v 0.04956326 0.07747656 0.00281013
v 0.04956326 0.07747656 0.00281013
v -0.00215749 0.05538459 0.01477199
v -0.00215749 0.05538459 0.01477199
v 0.02531296 0.09034274 0.01129615
v 0.02531296 0.09034274 0.01129615
v -0.01267064 -0.05871817 0.00134918
v -0.01091194 -0.09979038 0.00839872
v -0.00376991 0.01025729 0.01427870
v -0.00376991 0.01025729 0.01427870
v -0.01913707 -0.04586641 0.00837845
v -0.04065968 0.08763700 0.01658381
v -0.04065968 0.08763700 0.01658381
v -0.03801091 0.09705247 0.00286593
v -0.00428465 -0.05895728 0.01447709
v -0.02832734 0.08360402 0.01169444
v -0.00380208 -0.04628664 0.01464834
v -0.04926014 0.10000000 0.00519315
v -0.04926014 0.10000000 0.00519315
v -0.01739295 -0.09961646 0.01114434
v -0.01739295 -0.09961646 0.01114434
v -0.00597213 0.00668275 0.01503054
v -0.01879776 -0.05856084 0.01066797
v -0.01285680 0.06944496 0.01165188
v 0.01031727 0.09787569 0.01130989
v 0.00000101 0.07570429 0.01475507
v 0.00000101 0.07570429 0.01475507
v -0.01864763 -0.04587763 0.00602542
v -0.00876032 0.05464934 0.00200451
v -0.00876032 0.05464934 0.00200451
v -0.00304455 -0.01776996 0.01466392
v -0.01170935 -0.01753471 0.01568871
v -0.00182204 0.00955739 0.00412212
v -0.00182204 0.00955739 0.00412212
v -0.01389700 -0.09723075 0.00125636
v -0.01389700 -0.09723075 0.00125636
v -0.01389700 -0.09723075 0.00125636
v 0.01838842 0.08431062 0.01029583
v -0.00498940 -0.09747941 0.01449971
v -0.00498940 -0.09747941 0.01449971
v -0.00498940 -0.09747941 0.01449971
v -0.00212616 -0.05900805 0.00411676
v -0.00881779 0.06757132 0.01581957
v -0.00881779 0.06757132 0.01581957
v -0.04921423 0.09509907 0.00000570
v -0.04921423 0.09509907 0.00000570
v -0.04921423 0.09509907 0.00000570
v -0.03019026 0.08457721 0.01108453
v -0.03995962 0.09473697 0.01643234
v -0.03995962 0.09473697 0.01643234
v 0.02192341 0.09253290 0.01222895
v -0.04033880 0.08338503 0.00529503
v -0.01431221 -0.01745377 0.00226674
v 0.01447039 0.08409028 0.00567153
v -0.01122377 0.05561817 0.00211526
v -0.01122377 0.05561817 0.00211526
v -0.01407629 0.05569977 0.00598923
v -0.01407629 0.05569977 0.00598923
v -0.00252679 0.00657836 0.00465445
v 0.02075452 0.08351807 0.01111636
v 0.02075452 0.08351807 0.01111636
v 0.02075452 0.08351807 0.01111636
v 0.00022922 -0.01115775 0.01084425
v -0.02733087 0.09688407 0.00182505
v -0.02733087 0.09688407 0.00182505
v -0.01755079 0.08055613 0.01475758
v -0.01755079 0.08055613 0.01475758
v -0.01755079 0.08055613 0.01475758
v -0.00458575 0.05453574 0.00203182
v -0.00458575 0.05453574 0.00203182
v -0.00458575 0.05453574 0.00203182
v -0.00458575 0.05453574 0.00203182
v 0.00727474 0.08183092 0.01192818
v -0.00798519 0.00970552 0.01598227
v -0.00798519 0.00970552 0.01598227
v -0.01852665 0.08100586 0.00187800
v 0.02078669 0.08352075 0.00630709
v 0.02078669 0.08352075 0.00630709
v 0.02078669 0.08352075 0.00630709
v -0.03839780 0.08554218 0.01376664
v -0.01004801 0.07059207 0.01449368
v -0.01004801 0.07059207 0.01449368
v -0.01784419 -0.01735827 0.00605156
v -0.03606387 0.09416024 0.00249411
v -0.03606387 0.09416024 0.00249411
v -0.01574233 -0.09966237 0.01239701
v -0.01574233 -0.09966237 0.01239701
v -0.03253575 0.08661807 0.00397869
v -0.00910431 -0.03134709 0.01646350
v -0.01722221 -0.01067954 0.00609713
v -0.01303994 0.07068088 0.00533290
v -0.00073977 -0.02565478 0.01315505
v 0.04955471 0.07574417 0.01148734
v -0.03641776 0.08552140 0.00576520
v -0.01087759 -0.09978720 0.00321043
v -0.01087759 -0.09978720 0.00321043
v -0.04930086 0.09999598 0.01134994
v -0.04930086 0.09999598 0.01134994
v 0.02196932 0.09253726 0.00528615
v -0.00218061 0.01021540 0.01271571
v -0.00218061 0.01021540 0.01271571
v -0.01215372 0.05474401 0.00443696
v -0.01215372 0.05474401 0.00443696
v -0.01006258 0.00678077 0.00215012
v -0.00796458 0.01037022 0.01560795
v -0.00796458 0.01037022 0.01560795
v -0.00298875 -0.02559496 0.01488761
v -0.00035070 -0.05906050 0.00849406
v -0.00581982 -0.03142383 0.00085773
v -0.00581982 -0.03142383 0.00085773
v -0.04951919 0.08787778 0.01652533
v -0.04951919 0.08787778 0.01652533
v -0.04951919 0.08787778 0.01652533
v 0.01934887 0.08410637 0.00717018
v 0.01934887 0.08410637 0.00717018
v -0.00041504 0.00952053 0.00853696
v -0.00041504 0.00952053 0.00853696
v -0.02981962 0.09820377 0.01106392
v -0.00401136 0.00661724 0.00314977
v -0.01198985 0.07566123 0.01467582
v 0.03094813 0.08077898 0.01493922
v 0.03094813 0.08077898 0.01493922
v -0.00560920 -0.01098399 0.00136142
v -0.00560920 -0.01098399 0.00136142
v -0.00667086 0.05459204 0.00168749
v -0.00667086 0.05459204 0.00168749
v -0.01346973 0.05478372 0.00840023
v -0.01346973 0.05478372 0.00840023
v 0.01486248 0.09639765 0.01127303
v -0.00588802 0.00666717 0.00217760
v -0.00588802 0.00666717 0.00217760
v -0.03629376 0.08853998 0.01421101
v -0.03629376 0.08853998 0.01421101
v 0.00807048 0.09798427 0.00405442
v -0.00079808 -0.05904642 0.00619599
v -0.02978444 0.09820712 0.00573370
v -0.04932315 0.09508868 0.01653136
v -0.04932315 0.09508868 0.01653136
v -0.04932315 0.09508868 0.01653136
v -0.01228324 -0.03126046 0.01605064
v 0.00045660 -0.03751694 0.00606647
v -0.01513576 -0.03708933 0.00200535
v 0.01023668 0.08316234 0.00225048
v 0.01023668 0.08316234 0.00225048
v -0.00030479 0.05442800 0.01057498
v -0.00030479 0.05442800 0.01057498
v -0.02181667 0.08303014 0.01469140
v -0.02181667 0.08303014 0.01469140
v -0.01862099 -0.09958077 0.00834795
v -0.01862099 -0.09958077 0.00834795
v -0.01345599 0.00687545 0.00458240
v 0.01840434 0.08431364 0.00712611
v 0.04939603 0.07735374 0.00615678
v 0.04939603 0.07735374 0.00615678
v 0.04939603 0.07735374 0.00615678
v -0.04920904 0.09839076 0.00178718
v -0.04920904 0.09839076 0.00178718
v 0.00141788 0.06728546 0.00848250
v 0.00141788 0.06728546 0.00848250
v -0.00692521 -0.05888573 0.01551478
v -0.01833530 -0.09958965 0.00973970
v -0.01833530 -0.09958965 0.00973970
v -0.00350433 -0.09999279 0.00983822
v -0.00350433 -0.09999279 0.00983822
v -0.02742906 0.09687570 0.01500306
v -0.02742906 0.09687570 0.01500306
v 0.04944965 0.07529210 0.00259264
v 0.04944965 0.07529210 0.00259264
v 0.04944965 0.07529210 0.00259264
v -0.02993842 0.08807986 0.00227059
v -0.02993842 0.08807986 0.00227059
v 0.00025972 -0.01115641 0.00621225
v 0.01003980 0.08333710 0.00535736
v -0.03234440 0.09713240 0.01093339
v -0.01378155 0.06770101 0.01078845
v -0.01378155 0.06770101 0.01078845
v -0.00899875 -0.03133704 0.00044487
v -0.01030705 0.00977036 0.01560007
v -0.01030705 0.00977036 0.01560007
v -0.02039812 -0.09704711 0.01065273
v -0.02039812 -0.09704711 0.01065273
v -0.02039812 -0.09704711 0.01065273
v -0.00423740 0.05542715 0.00105529
v -0.00423740 0.05542715 0.00105529
v -0.00423740 0.05542715 0.00105529
v -0.00423740 0.05542715 0.00105529
vt 0.25819300 0.09402600
vt 0.25435800 0.09550900
vt 0.78341000 0.76876000
vt 0.89591000 0.79063000
vt 0.29815300 0.82189600
vt 0.45267000 0.51906300
vt 0.17016200 0.95653700
vt 0.69872000 0.58925000
vt 0.50608100 0.92577900
vt 0.88407400 0.10621500
vt 0.73020300 0.24425500
vt 0.73020300 0.24990500
vt 0.74591000 0.79062900
vt 0.67141200 0.93786900
vt 0.65317300 0.59473900
vt 0.70708900 0.97828500
vt 0.29766000 0.62268200
vt 0.75033000 0.28410200
vt 0.75033000 0.27695300
vt 0.23327700 0.29805800
vt 0.29915700 0.65414200
vt 0.32953000 0.56451900
vt 0.50844900 0.43396800
vt 0.26235700 0.55746500
vt 0.02729800 0.35451200
vt 0.16528600 0.85576500
vt 0.50710300 0.50927900
vt 0.18442700 0.55880900
vt 0.87091000 0.74942700
vt 0.77045800 0.60280900
vt 0.13885500 0.87498500
vt 0.95841000 0.74942600
vt 0.97674800 0.13242900
vt 0.90128500 0.20690100
vt 0.79591000 0.79062900
vt 0.96290700 0.15959300
vt 0.89122100 0.20690100
vt 0.50844900 0.40994200
vt 0.88115800 0.24425500
vt 0.88115800 0.24990500
vt 0.18679300 0.28858700
vt 0.35634900 0.64807500
vt 0.83341000 0.86499900
vt 0.47611100 0.08636400
vt 0.48071100 0.08786400
vt 0.02893000 0.60883800
vt 0.44439600 0.85495900
vt 0.95841000 0.72190400
vt 0.83341000 0.72190400
vt 0.51630900 0.82229200
vt 0.65030700 0.62170400
vt 0.68656400 0.37841200
vt 0.63462000 0.66858300
vt 0.71264200 0.51432000
vt 0.21758000 0.64766800
vt 0.29830000 0.34098100
vt 0.72091000 0.79062800
vt 0.97091000 0.79062800
vt 0.57994900 0.01083900
vt 0.57994900 0.01568500
vt 0.31140400 0.61676300
vt 0.75033000 0.60280900
vt 0.66821500 0.05585900
vt 0.66430500 0.05871100
vt 0.79058500 0.28410200
vt 0.79058500 0.27695300
vt 0.74591000 0.74942700
vt 0.16425400 0.24530600
vt 0.09862700 0.99016200
vt 0.15964900 0.56268000
vt 0.35670300 0.63356600
vt 0.20547900 0.19910500
vt 0.20657000 0.20343800
vt 0.85841000 0.79062800
vt 0.59354400 0.49362300
vt 0.60321100 0.49802000
vt 0.43046600 0.32644700
vt 0.39415900 0.39751800
vt 0.60033800 0.43396700
vt 0.61214300 0.21968700
vt 0.61363500 0.22429700
vt 0.82091000 0.62006200
vt 0.54436200 0.22974300
vt 0.67311100 0.05254800
vt 0.92091000 0.62003400
vt 0.39415900 0.41701800
vt 0.60033800 0.40994200
vt 0.81071200 0.24425500
vt 0.81071200 0.24990500
vt 0.18604900 0.20668000
vt 0.18604900 0.20217500
vt 0.82091000 0.98631300
vt 0.08085300 0.15496700
vt 0.08090000 0.15506100
vt 0.41761500 0.33885400
vt 0.60133200 0.48427400
vt 0.79591000 0.69652200
vt 0.79591000 0.86500400
vt 0.32919000 0.54713800
vt 0.88341000 0.76876000
vt 0.07976300 0.34546500
vt 0.31068900 0.52949800
vt 0.72091000 0.82259200
vt 0.97091000 0.82259200
vt 0.62592500 0.66826700
vt 0.52840700 0.32292200
vt 0.70976800 0.47513900
vt 0.50803500 0.49915200
vt 0.54626300 0.01616400
vt 0.54775500 0.02077400
vt 0.44666400 0.23234800
vt 0.39982600 0.97129200
vt 0.51226000 0.02707400
vt 0.73341000 0.62004900
vt 0.88341000 0.62002100
vt 0.68946300 0.15581300
vt 0.10949000 0.55727400
vt 0.47445600 0.50448500
vt 0.67139700 0.89092900
vt 0.63000300 0.62047800
vt 0.70728800 0.13207000
vt 0.63320200 0.62190300
vt 0.61553700 0.01071800
vt 0.94591000 0.62006200
vt 0.51045300 0.48203200
vt 0.98151700 0.10231700
vt 0.91134900 0.20690100
vt 0.34811600 0.38936800
vt 0.16454400 0.94083500
vt 0.32101800 0.63271600
vt 0.08572300 0.95119100
vt 0.85841000 0.98629800
vt 0.09656400 0.05609000
vt 0.09668300 0.05597200
vt 0.80841000 0.76876000
vt 0.10943400 0.12225400
vt 0.11350700 0.12223700
vt 0.41470500 0.85495900
vt 0.02176600 0.58178300
vt 0.49059600 0.89125500
vt 0.29745300 0.68134400
vt 0.45265000 0.66191300
vt 0.72091000 0.86500000
vt 0.97091000 0.86500000
vt 0.56906000 0.48203200
vt 0.67918800 0.15259700
vt 0.68378700 0.15409700
vt 0.57147800 0.49915100
vt 0.73020300 0.20690100
vt 0.96290700 0.04504100
vt 0.70204300 0.40311000
vt 0.56035700 0.88998200
vt 0.95841000 0.86499900
vt 0.65212800 0.58899500
vt 0.14166100 0.81595500
vt 0.47703500 0.82319200
vt 0.90841000 0.74942800
vt 0.20480200 0.47169900
vt 0.08345900 0.35948800
vt 0.10974100 0.84971300
vt 0.04009400 0.29677200
vt 0.65854200 0.59794400
vt 0.08935700 0.85142000
vt 0.93341000 0.74942700
vt 0.88341000 0.74942800
vt 0.70724400 0.71186900
vt 0.63788400 0.26567000
vt 0.57106400 0.44287900
vt 0.48727700 0.30638300
vt 0.60227100 0.56801300
vt 0.73341000 0.79062800
vt 0.88115800 0.20690100
vt 0.94135000 0.18115100
vt 0.26235700 0.62268200
vt 0.20609400 0.53108200
vt 0.13009400 0.43221200
vt 0.80064900 0.24425500
vt 0.80064900 0.24990500
vt 0.95841000 0.79062800
vt 0.25091400 0.03162600
vt 0.25106400 0.03170200
vt 0.92091000 0.98628000
vt 0.78341000 0.82259900
vt 0.56633900 0.58659600
vt 0.71237600 0.59391800
vt 0.66514400 0.66859600
vt 0.93341000 0.82259300
vt 0.08896600 0.95009000
vt 0.67355700 0.62117400
vt 0.82091000 0.72190500
vt 0.08572200 0.87506100
vt 0.41470500 0.87445800
vt 0.64415600 0.66870100
vt 0.70814900 0.54763000
vt 0.64862300 0.59162700
vt 0.10895000 0.30226200
vt 0.45212200 0.67642500
vt 0.27415800 0.66706700
vt 0.77091000 0.82259900
vt 0.89122100 0.60280900
vt 0.78341000 0.72189700
vt 0.08619700 0.97695600
vt 0.44439600 0.93590600
vt 0.83341000 0.98631500
vt 0.07543900 0.12089400
vt 0.08617900 0.85004500
vt 0.94591000 0.79062800
vt 0.80524000 0.15959300
vt 0.83084000 0.20690100
vt 0.67323400 0.59099000
vt 0.52523400 0.24455100
vt 0.56303200 0.82226200
vt 0.83341000 0.69650500
vt 0.72091000 0.62006200
vt 0.54436200 0.01071800
vt 0.97091000 0.62006200
vt 0.13918300 0.86139000
vt 0.04322500 0.33072700
vt 0.78341000 0.86500500
vt 0.74591000 0.98464700
vt 0.81071200 0.20690100
vt 0.78663000 0.10231700
vt 0.75033000 0.24425500
vt 0.75033000 0.24990500
vt 0.79591000 0.76876000
vt 0.31862000 0.36054400
vt 0.19766600 0.63532300
vt 0.69509700 0.12023000
vt 0.89591000 0.62001700
vt 0.67916900 0.08787000
vt 0.68376800 0.08637000
vt 0.77091000 0.69654100
vt 0.77091000 0.79063000
vt 0.90841000 0.76876000
vt 0.72091000 0.72190400
vt 0.97091000 0.72190400
vt 0.89591000 0.86500500
vt 0.87091000 0.79062900
vt 0.17014800 0.87029400
vt 0.41470500 0.97129200
vt 0.46022200 0.23398300
vt 0.86103100 0.24425500
vt 0.86103100 0.24990500
vt 0.25817500 0.15036700
vt 0.25434100 0.14885500
vt 0.73020300 0.28410200
vt 0.73020300 0.27695300
vt 0.43874000 0.32170700
vt 0.60321100 0.50821400
vt 0.16454400 0.88541700
vt 0.87109400 0.28410200
vt 0.87109400 0.27695300
vt 0.35671700 0.54713800
vt 0.57106400 0.43396700
vt 0.47445600 0.56801300
vt 0.09238000 0.60883800
vt 0.64763800 0.21338700
vt 0.85841000 0.62004900
vt 0.12967500 0.17210600
vt 0.12651100 0.17492300
vt 0.87091000 0.72189800
vt 0.69913500 0.52410600
vt 0.50607300 0.90046900
vt 0.92091000 0.82259600
vt 0.79591000 0.98628000
vt 0.12103400 0.21010300
vt 0.12118400 0.21018300
vt 0.48678800 0.18791300
vt 0.79591000 0.62003400
vt 0.57994900 0.12023000
vt 0.68430400 0.12023000
vt 0.68914100 0.12023000
vt 0.57106400 0.40994200
vt 0.38512200 0.54814000
vt 0.51583900 0.03165700
vt 0.51867900 0.03558100
vt 0.50992200 0.56732700
vt 0.78341000 0.74942800
vt 0.18530100 0.46708900
vt 0.17389500 0.54966100
vt 0.82077600 0.24425500
vt 0.82077600 0.24990500
vt 0.49059700 0.93499700
vt 0.75841000 0.74942800
vt 0.79591000 0.72190300
vt 0.32953000 0.61562800
vt 0.22506300 0.05469800
vt 0.22725300 0.05092400
vt 0.88341000 0.79063000
vt 0.20916600 0.25544200
vt 0.13918300 0.96486200
vt 0.50844900 0.44287900
vt 0.47445600 0.53249000
vt 0.10069800 0.58000500
vt 0.20480200 0.46708900
vt 0.16210000 0.55598100
vt 0.87091000 0.86500300
vt 0.47634000 0.48120500
vt 0.12656600 0.53634800
vt 0.72091000 0.74942600
vt 0.97091000 0.74942600
vt 0.94591000 0.76876000
vt 0.84591000 0.82259200
vt 0.78052100 0.28410200
vt 0.78052100 0.27695300
vt 0.15965000 0.61746600
vt 0.47613000 0.15409100
vt 0.48072900 0.15259100
vt 0.87109400 0.60280900
vt 0.68474400 0.36670000
vt 0.63374000 0.62332800
vt 0.71265000 0.13018900
vt 0.51715400 0.69916000
vt 0.58304200 0.36786400
vt 0.95841000 0.62006700
vt 0.57994900 0.00508300
vt 0.32498700 0.36036900
vt 0.45317600 0.63325300
vt 0.30695500 0.70954300
vt 0.14484500 0.19306900
vt 0.14703600 0.18928700
vt 0.82077600 0.28410200
vt 0.82077600 0.27695300
vt 0.93341000 0.86500100
vt 0.81071200 0.60280900
vt 0.39982600 0.87429500
vt 0.37103900 0.64559200
vt 0.66102600 0.62004700
vt 0.73341000 0.76876000
vt 0.02871200 0.85004500
vt 0.15798800 0.82160900
vt 0.77045800 0.20690100
vt 0.85396200 0.00964300
vt 0.80524000 0.04504100
vt 0.79058500 0.20690100
vt 0.83084000 0.28410200
vt 0.83084000 0.27695300
vt 0.47279500 0.30969100
vt 0.60227100 0.55017000
vt 0.11431300 0.95176900
vt 0.39982600 0.85495900
vt 0.02013100 0.56822500
vt 0.89591000 0.76876000
vt 0.89591000 0.74942800
vt 0.32882200 0.53207200
vt 0.07637000 0.33072700
vt 0.20508800 0.56081100
vt 0.94591000 0.82259100
vt 0.24242300 0.07207700
vt 0.24558800 0.06927800
vt 0.60069400 0.68821700
vt 0.58484100 0.32359600
vt 0.51226000 0.21338700
vt 0.80841000 0.62004900
vt 0.37147500 0.55942100
vt 0.38468700 0.52060200
vt 0.11392300 0.09403000
vt 0.11775700 0.09551300
vt 0.89591000 0.72189200
vt 0.27041900 0.31480100
vt 0.84591000 0.69650800
vt 0.20508800 0.61933700
vt 0.73341000 0.74942700
vt 0.75033000 0.20690100
vt 0.91418600 0.00964300
vt 0.82091000 0.69650700
vt 0.10113700 0.88610300
vt 0.87091000 0.82259600
vt 0.95841000 0.82259100
vt 0.08595400 0.35475500
vt 0.29925900 0.52585700
vt 0.87109400 0.20690100
vt 0.91418600 0.19499200
vt 0.84090300 0.28410200
vt 0.84090300 0.27695300
vt 0.47445600 0.54877500
vt 0.09661500 0.59322300
vt 0.85841000 0.72190300
vt 0.76039400 0.24425500
vt 0.76039400 0.24990500
vt 0.78341000 0.98626300
vt 0.15186900 0.22576700
vt 0.15197200 0.22578600
vt 0.82091000 0.79062800
vt 0.08896600 0.87616100
vt 0.41470500 0.95353300
vt 0.74591000 0.72189800
vt 0.85096700 0.24425500
vt 0.85096700 0.24990500
vt 0.16130200 0.24452800
vt 0.08665400 0.99015000
vt 0.23304000 0.23976200
vt 0.16538400 0.97051900
vt 0.57241000 0.51576000
vt 0.22873400 0.62193300
vt 0.83341000 0.74942600
vt 0.83341000 0.79062800
vt 0.20916600 0.28858700
vt 0.32882200 0.64807500
vt 0.23795700 0.29576900
vt 0.92091000 0.69652200
vt 0.74591000 0.98628000
vt 0.25091400 0.21018300
vt 0.25106400 0.21010300
vt 0.80841000 0.69651200
vt 0.90841000 0.98626300
vt 0.22012600 0.01602900
vt 0.22022900 0.01604600
vt 0.30663900 0.34223300
vt 0.10254000 0.39681100
vt 0.38466600 0.66036000
vt 0.93341000 0.69651200
vt 0.75841000 0.82259900
vt 0.93341000 0.98629800
vt 0.27541600 0.05597200
vt 0.27553400 0.05609000
vt 0.82091000 0.74942600
vt 0.62011000 0.28688800
vt 0.56234300 0.69916000
vt 0.15535700 0.96715900
vt 0.22390400 0.24722700
vt 0.57241000 0.50926200
vt 0.10151300 0.86440000
vt 0.61213700 0.02079300
vt 0.61362900 0.01618400
vt 0.39523000 0.39028400
vt 0.60033800 0.44287900
vt 0.38824700 0.51906300
vt 0.90128500 0.24425500
vt 0.90128500 0.24990500
vt 0.57692600 0.34041600
vt 0.70776000 0.40132700
vt 0.75841000 0.72189200
vt 0.84090300 0.60280900
vt 0.08937500 0.97556800
vt 0.34448700 0.39028400
vt 0.17860600 0.63219800
vt 0.66824200 0.18462100
vt 0.66433100 0.18176900
vt 0.41470500 0.93648800
vt 0.32093000 0.54793100
vt 0.77091000 0.98625500
vt 0.18604900 0.23116500
vt 0.74026700 0.24425500
vt 0.74026700 0.24990500
vt 0.13855200 0.93565300
vt 0.24351700 0.55746500
vt 0.94591000 0.72190500
vt 0.55146800 0.85883200
vt 0.07630500 0.70640200
vt 0.77091000 0.76876000
vt 0.63739800 0.59279700
vt 0.87091000 0.69652700
vt 0.63506800 0.61831600
vt 0.38775200 0.67642500
vt 0.16126900 0.30226200
vt 0.89591000 0.69654100
vt 0.85841000 0.76876000
vt 0.11417100 0.54910800
vt 0.47445600 0.49442300
vt 0.48506700 0.49131400
vt 0.22012600 0.22578600
vt 0.22022900 0.22576700
vt 0.75841000 0.98626300
vt 0.03231100 0.28286300
vt 0.08665500 0.83610200
vt 0.47714700 0.44287900
vt 0.17806700 0.51427100
vt 0.79058500 0.60280900
vt 0.94591000 0.69650700
vt 0.72013900 0.20690100
vt 0.97674800 0.07220600
vt 0.92141300 0.20690100
vt 0.10113700 0.94014900
vt 0.43925500 0.95323600
vt 0.67205000 0.85929200
vt 0.63279000 0.59089700
vt 0.12783100 0.81627600
vt 0.18530100 0.47169900
vt 0.89122100 0.28410200
vt 0.89122100 0.27695300
vt 0.87091000 0.62003400
vt 0.67311100 0.18791300
vt 0.82091000 0.76876000
vt 0.90841000 0.86500600
vt 0.22843200 0.55824700
vt 0.47043600 0.15581300
vt 0.78341000 0.62002100
vt 0.78341000 0.79063000
vt 0.11399700 0.89059900
vt 0.55146800 0.96740600
vt 0.58484100 0.28852100
vt 0.84090300 0.24425500
vt 0.84090300 0.24990500
vt 0.59659100 0.47467500
vt 0.40554800 0.35850500
vt 0.88341000 0.82259900
vt 0.65573900 0.66870200
vt 0.70855500 0.56804100
vt 0.10952800 0.97655900
vt 0.17521100 0.25231100
vt 0.91134900 0.24425500
vt 0.91134900 0.24990500
vt 0.73341000 0.86500100
vt 0.51406600 0.93569100
vt 0.69911900 0.60893100
vt 0.92091000 0.74942700
vt 0.85841000 0.86500100
vt 0.35705700 0.56451900
vt 0.84591000 0.79062800
vt 0.86103100 0.60280900
vt 0.38876400 0.54689400
vt 0.90841000 0.62002100
vt 0.68946300 0.08464800
vt 0.64763800 0.02707400
vt 0.93341000 0.62004900
vt 0.11430100 0.87498500
vt 0.85096700 0.28410200
vt 0.85096700 0.27695300
vt 0.91134900 0.60280900
vt 0.36144600 0.51918700
vt 0.07985200 0.29677200
vt 0.92091000 0.79062900
vt 0.25606800 0.65162500
vt 0.26726700 0.31749600
vt 0.16488500 0.87084800
vt 0.72091000 0.98630800
vt 0.29124500 0.15496700
vt 0.29119800 0.15506100
vt 0.97091000 0.98630800
vt 0.92091000 0.76876000
vt 0.94591000 0.74942600
vt 0.39982600 0.88947300
vt 0.57656400 0.58992200
vt 0.88341000 0.72189200
vt 0.36164800 0.66098500
vt 0.17521100 0.29206900
vt 0.16489600 0.95596000
vt 0.83341000 0.82259100
vt 0.74591000 0.82259600
vt 0.74591000 0.69652700
vt 0.24322400 0.62268200
vt 0.84591000 0.86500000
vt 0.18530100 0.51329600
vt 0.47714700 0.43396800
vt 0.45317600 0.54689400
vt 0.30695500 0.79451300
vt 0.52440100 0.60320800
vt 0.63458500 0.63420800
vt 0.38822500 0.66191300
vt 0.39982600 0.93677900
vt 0.94135000 0.02348400
vt 0.74026700 0.20690100
vt 0.11390500 0.15036900
vt 0.11774000 0.14885700
vt 0.47043600 0.08464800
vt 0.75841000 0.62002100
vt 0.87091000 0.98628000
vt 0.12103400 0.03170200
vt 0.12118400 0.03162600
vt 0.20480200 0.51329600
vt 0.47714700 0.40994200
vt 0.78052100 0.24425500
vt 0.78052100 0.24990500
vt 0.50284400 0.59056700
vt 0.82091000 0.82259100
vt 0.73341000 0.82259400
vt 0.85096700 0.60280900
vt 0.85841000 0.74942700
vt 0.47075800 0.12023000
vt 0.47559500 0.12023000
vt 0.73341000 0.72190300
vt 0.83084000 0.24425500
vt 0.83084000 0.24990500
vt 0.20549300 0.04472600
vt 0.20658500 0.04039200
vt 0.11399700 0.93565300
vt 0.54558300 0.60065900
vt 0.65576700 0.63364500
vt 0.76039400 0.28410200
vt 0.76039400 0.27695300
vt 0.64121900 0.20488000
vt 0.64405900 0.20880400
vt 0.81071200 0.28410200
vt 0.81071200 0.27695300
vt 0.23097100 0.65117400
vt 0.28662100 0.33127800
vt 0.22579500 0.64472400
vt 0.84591000 0.98630800
vt 0.08090000 0.08673100
vt 0.08085300 0.08682300
vt 0.95841000 0.98631500
vt 0.29665900 0.12089400
vt 0.37147500 0.62072600
vt 0.80841000 0.79062800
vt 0.38876200 0.63325300
vt 0.95841000 0.69650500
vt 0.16421200 0.30127700
vt 0.37517500 0.67616300
vt 0.08906200 0.28577100
vt 0.37492000 0.50399800
vt 0.90841000 0.79063000
vt 0.87091000 0.76876000
vt 0.92091000 0.86500400
vt 0.49165700 0.05584000
vt 0.49556800 0.05869200
vt 0.77091000 0.72189200
vt 0.77091000 0.74942800
vt 0.64412800 0.63364500
vt 0.53394400 0.60065900
vt 0.17754300 0.62062600
vt 0.54627000 0.22427700
vt 0.54776200 0.21966800
vt 0.63903600 0.62068200
vt 0.93341000 0.76876000
vt 0.43925500 0.87478300
vt 0.70158500 0.70698500
vt 0.56017200 0.93690400
vt 0.82679800 0.18115100
vt 0.84090300 0.20690100
vt 0.80064900 0.20690100
vt 0.79139900 0.07220600
vt 0.76039400 0.60280900
vt 0.12909000 0.43777300
vt 0.79591000 0.82259600
vt 0.85841000 0.69651500
vt 0.15535700 0.85909300
vt 0.03337000 0.34546500
vt 0.35015200 0.39751800
vt 0.24239200 0.17209500
vt 0.24555600 0.17491200
vt 0.85841000 0.82259400
vt 0.17735500 0.46951800
vt 0.16983000 0.88444300
vt 0.84591000 0.74942600
vt 0.64120000 0.03560700
vt 0.64403900 0.03168400
vt 0.15503800 0.95348500
vt 0.16982900 0.94180900
vt 0.80064900 0.28410200
vt 0.80064900 0.27695300
vt 0.78052100 0.60280900
vt 0.48727700 0.24114700
vt 0.44439600 0.97129200
vt 0.74591000 0.76876000
vt 0.35015200 0.41701800
vt 0.75841000 0.76876000
vt 0.18604900 0.01065200
vt 0.89591000 0.98625500
vt 0.67361300 0.66830700
vt 0.70824900 0.60860600
vt 0.68981600 0.27474200
vt 0.51324000 0.58698600
vt 0.34551800 0.39751800
vt 0.17389700 0.63047700
vt 0.16210400 0.62415700
vt 0.34551800 0.41701800
vt 0.15502600 0.87329200
vt 0.88341000 0.69653800
vt 0.13886700 0.95176900
vt 0.50710300 0.53525200
vt 0.92091000 0.72190300
vt 0.73341000 0.69651500
vt 0.73341000 0.98629800
vt 0.27541600 0.18582900
vt 0.27553400 0.18570600
vt 0.83084000 0.60280900
vt 0.82077600 0.60280900
vt 0.67015900 0.59282900
vt 0.22503100 0.18926500
vt 0.22722000 0.19304500
vt 0.19283000 0.54187500
vt 0.14902400 0.44857700
vt 0.74026700 0.28410200
vt 0.74026700 0.27695300
vt 0.11462900 0.86139000
vt 0.04322500 0.30835300
vt 0.82679800 0.02348400
vt 0.78052100 0.20690100
vt 0.88407400 0.19976100
vt 0.86103100 0.20690100
vt 0.11728600 0.42349900
vt 0.77045800 0.24425500
vt 0.77045800 0.24990500
vt 0.69474200 0.34015500
vt 0.67208000 0.96696700
vt 0.65657900 0.62194600
vt 0.79058500 0.24425500
vt 0.79058500 0.24990500
vt 0.51411300 0.89031900
vt 0.70111800 0.47785800
vt 0.94591000 0.86500000
vt 0.18604900 0.12513800
vt 0.51585900 0.20877600
vt 0.51869800 0.20485400
vt 0.89591000 0.82259900
vt 0.38775300 0.50372300
vt 0.09004500 0.28282800
vt 0.10152800 0.96245600
vt 0.80841000 0.86500100
vt 0.29766000 0.55746500
vt 0.80841000 0.82259300
vt 0.02826000 0.95119100
vt 0.14690000 0.71004000
vt 0.14487800 0.05095100
vt 0.14706700 0.05472400
vt 0.80064900 0.60280900
vt 0.88341000 0.86500500
vt 0.17754300 0.55952000
vt 0.41470500 0.88976400
vt 0.14628800 0.52459900
vt 0.48115700 0.47312900
vt 0.90841000 0.82259900
vt 0.90128500 0.28410200
vt 0.90128500 0.27695300
vt 0.80841000 0.72190600
vt 0.84591000 0.72190400
vt 0.48678800 0.05254800
vt 0.74591000 0.62003400
vt 0.29119800 0.08673100
vt 0.29124500 0.08682300
vt 0.94591000 0.98631300
vt 0.52402200 0.59723300
vt 0.80841000 0.98629800
vt 0.09656400 0.18570600
vt 0.09668300 0.18582900
vt 0.74591000 0.86500300
vt 0.82077600 0.20690100
vt 0.79139900 0.13242900
vt 0.02920000 0.99015000
vt 0.18445500 0.66706700
vt 0.10895000 0.24452800
vt 0.31140400 0.56338600
vt 0.03308900 0.28581500
vt 0.09889300 0.83610600
vt 0.49084200 0.88248200
vt 0.38512200 0.63200700
vt 0.93341000 0.72190600
vt 0.56959100 0.56732700
vt 0.89122100 0.24425500
vt 0.89122100 0.24990500
vt 0.87109400 0.24425500
vt 0.87109400 0.24990500
vt 0.74026700 0.60280900
vt 0.51570100 0.61008000
vt 0.62588500 0.63572600
vt 0.50882900 0.36395500
vt 0.78341000 0.69653300
vt 0.23786100 0.23797200
vt 0.17067400 0.97129200
vt 0.21594600 0.53445900
vt 0.21867500 0.52783600
vt 0.12047300 0.42025200
vt 0.72013900 0.28410200
vt 0.72013900 0.27695300
vt 0.92141300 0.28410200
vt 0.92141300 0.27695300
vt 0.50710300 0.51576000
vt 0.83341000 0.62006700
vt 0.57994900 0.23537800
vt 0.29236100 0.33025500
vt 0.56381000 0.61008100
vt 0.67399400 0.63572600
vt 0.68656700 0.32014600
vt 0.37105500 0.53522300
vt 0.17806700 0.46611200
vt 0.17858600 0.54790800
vt 0.90841000 0.72189700
vt 0.18679300 0.25544200
vt 0.11462900 0.96486200
vt 0.12970600 0.07209100
vt 0.12654300 0.06929300
vt 0.32917600 0.63356600
vt 0.83341000 0.76876000
vt 0.90841000 0.69653300
vt 0.18442700 0.62133800
vt 0.79591000 0.74942700
vt 0.64717800 0.61994500
vt 0.35705700 0.61562800
vt 0.25859100 0.12223700
vt 0.26266400 0.12225400
vt 0.02826000 0.87506100
vt 0.14690000 0.79401600
vt 0.49084200 0.94377000
vt 0.49168300 0.18460200
vt 0.49559300 0.18175000
vt 0.88115800 0.28410200
vt 0.88115800 0.27695300
vt 0.90128500 0.60280900
vt 0.57994900 0.22477600
vt 0.57994900 0.22962100
vt 0.80841000 0.74942600
vt 0.77091000 0.86500500
vt 0.72091000 0.76876000
vt 0.97091000 0.76876000
vt 0.09004500 0.23051100
vt 0.45212200 0.50372300
vt 0.27415800 0.83699000
vt 0.55508600 0.60318900
vt 0.66527100 0.63420300
vt 0.77091000 0.62001700
vt 0.46480100 0.12023000
vt 0.15471900 0.88959900
vt 0.73020300 0.60280900
vt 0.14846600 0.45384700
vt 0.11137900 0.70640200
vt 0.47880400 0.68821700
vt 0.72091000 0.69650800
vt 0.97091000 0.69650800
vt 0.91134900 0.28410200
vt 0.91134900 0.27695300
vt 0.86103100 0.28410200
vt 0.86103100 0.27695300
vt 0.44439600 0.89034600
vt 0.72013900 0.60280900
vt 0.92141300 0.60280900
vt 0.35634900 0.53207200
vt 0.07637000 0.30835300
vt 0.39982600 0.95368200
vt 0.75841000 0.86500500
vt 0.15471900 0.93665300
vt 0.02920000 0.83610200
vt 0.18445500 0.83699000
vt 0.03231100 0.23051100
vt 0.84591000 0.76876000
vt 0.75841000 0.79063000
vt 0.93341000 0.79062800
vt 0.46175400 0.31291400
vt 0.60321100 0.53656700
vt 0.77045800 0.28410200
vt 0.77045800 0.27695300
vt 0.10655900 0.39468200
vt 0.25013500 0.52822700
vt 0.18604900 0.03717800
vt 0.18604900 0.04168300
vt 0.88115800 0.60280900
vt 0.55543400 0.59720600
vt 0.65832300 0.58971600
vt 0.53187800 0.23620400
vt 0.71447500 0.98076000
vt 0.02873000 0.97695600
vt 0.15878900 0.68162000
vt 0.88407400 0.00487400
vt 0.76039400 0.20690100
vt 0.82091000 0.86500000
vt 0.16552800 0.04041900
vt 0.16661900 0.04475100
vt 0.16551300 0.20346200
vt 0.16660500 0.19912800
vt 0.02575700 0.35935600
vt 0.17060100 0.85495900
vt 0.69441500 0.35488200
vt 0.67717100 0.62372400
vt 0.60233500 0.82321800
vt 0.31068900 0.65065000
vt 0.22390400 0.29034000
vt 0.75841000 0.69653800
vt 0.57241000 0.53525200
vt 0.13855200 0.89059900
vt 0.85096700 0.20690100
vt 0.85396200 0.19499200
vt 0.95841000 0.76876000
vt 0.61553700 0.22974300
vt 0.84591000 0.62006200
vt 0.88341000 0.98626300
vt 0.15186900 0.01604600
vt 0.15197200 0.01602900
vt 0.72013900 0.24425500
vt 0.72013900 0.24990500
vt 0.92141300 0.24425500
vt 0.92141300 0.24990500
f 666/666 529/529 631/631
f 631/631 529/529 244/244
f 528/528 593/593 244/244
f 244/244 593/593 781/781
f 404/404 665/665 671/671
f 671/671 665/665 631/631
f 463/463 403/403 73/73
f 73/73 403/403 671/671
f 443/443 462/462 90/90
f 90/90 462/462 73/73
f 848/848 383/383 90/90
f 90/90 383/383 443/443
f 320/320 267/267 848/848
f 848/848 267/267 382/382
f 260/260 726/726 320/320
f 320/320 726/726 266/266
f 554/554 94/94 260/260
f 260/260 94/94 725/725
f 136/136 205/205 554/554
f 554/554 205/205 93/93
f 357/357 591/591 136/136
f 136/136 591/591 205/205
f 133/133 590/590 772/772
f 772/772 590/590 357/357
f 559/559 134/134 705/705
f 705/705 134/134 772/772
f 866/866 560/560 846/846
f 846/846 560/560 705/705
f 648/648 867/867 834/834
f 834/834 867/867 846/846
f 576/576 407/407 834/834
f 834/834 407/407 648/648
f 288/288 180/180 576/576
f 576/576 180/180 408/408
f 350/350 415/415 288/288
f 288/288 415/415 181/181
f 1/1 720/720 350/350
f 350/350 720/720 416/416
f 593/593 721/721 781/781
f 781/781 721/721 1/1
f 630/630 245/245 693/693
f 670/670 630/630 693/693
f 72/72 670/670 693/693
f 91/91 72/72 693/693
f 849/849 91/91 693/693
f 321/321 849/849 693/693
f 259/259 321/321 693/693
f 555/555 259/259 693/693
f 137/137 555/555 693/693
f 358/358 137/137 693/693
f 771/771 358/358 693/693
f 706/706 771/771 693/693
f 847/847 706/706 693/693
f 835/835 847/847 693/693
f 575/575 835/835 693/693
f 287/287 575/575 693/693
f 349/349 287/287 693/693
f 2/2 349/349 693/693
f 780/780 2/2 693/693
f 245/245 780/780 693/693
f 109/109 215/215 275/275
f 275/275 215/215 113/113
f 215/215 109/109 316/316
f 316/316 109/109 59/59
f 275/275 113/113 605/605
f 605/605 113/113 718/718
f 605/605 718/718 44/44
f 44/44 718/718 556/556
f 44/44 556/556 570/570
f 570/570 556/556 802/802
f 802/802 487/487 570/570
f 570/570 487/487 307/307
f 487/487 268/268 307/307
f 307/307 268/268 785/785
f 268/268 353/353 785/785
f 785/785 353/353 694/694
f 353/353 83/83 694/694
f 694/694 83/83 612/612
f 83/83 760/760 612/612
f 612/612 760/760 791/791
f 791/791 760/760 81/81
f 81/81 760/760 863/863
f 81/81 863/863 583/583
f 583/583 863/863 257/257
f 583/583 257/257 438/438
f 438/438 257/257 483/483
f 438/438 483/483 147/147
f 147/147 483/483 116/116
f 147/147 116/116 272/272
f 272/272 116/116 228/228
f 228/228 514/514 272/272
f 272/272 514/514 231/231
f 514/514 84/84 231/231
f 231/231 84/84 63/63
f 84/84 515/515 63/63
f 63/63 515/515 637/637
f 515/515 123/123 637/637
f 637/637 123/123 425/425
f 123/123 316/316 425/425
f 425/425 316/316 59/59
f 110/110 276/276 270/270
f 276/276 606/606 270/270
f 606/606 45/45 270/270
f 45/45 571/571 270/270
f 571/571 308/308 270/270
f 308/308 786/786 270/270
f 786/786 695/695 270/270
f 695/695 613/613 270/270
f 613/613 790/790 270/270
f 790/790 80/80 270/270
f 80/80 582/582 270/270
f 582/582 439/439 270/270
f 439/439 146/146 270/270
f 146/146 271/271 270/270
f 271/271 230/230 270/270
f 230/230 64/64 270/270
f 64/64 636/636 270/270
f 636/636 424/424 270/270
f 424/424 60/60 270/270
f 60/60 110/110 270/270
f 143/143 504/504 103/103
f 103/103 504/504 567/567
f 144/144 104/104 153/153
f 153/153 104/104 369/369
f 504/504 727/727 567/567
f 567/567 727/727 540/540
f 727/727 820/820 540/540
f 540/540 820/820 413/413
f 413/413 820/820 199/199
f 199/199 820/820 793/793
f 199/199 793/793 183/183
f 183/183 793/793 219/219
f 183/183 219/219 625/625
f 625/625 219/219 98/98
f 625/625 98/98 702/702
f 702/702 98/98 700/700
f 702/702 700/700 566/566
f 566/566 700/700 845/845
f 566/566 845/845 539/539
f 539/539 845/845 43/43
f 539/539 43/43 303/303
f 303/303 43/43 543/543
f 543/543 508/508 303/303
f 303/303 508/508 632/632
f 508/508 297/297 632/632
f 632/632 297/297 368/368
f 297/297 708/708 368/368
f 368/368 708/708 497/497
f 497/497 708/708 696/696
f 696/696 708/708 237/237
f 696/696 237/237 713/713
f 713/713 237/237 485/485
f 713/713 485/485 264/264
f 264/264 485/485 604/604
f 264/264 604/604 187/187
f 187/187 604/604 324/324
f 187/187 324/324 348/348
f 348/348 324/324 692/692
f 348/348 692/692 369/369
f 369/369 692/692 153/153
f 143/143 527/527 504/504
f 504/504 527/527 664/664
f 402/402 220/220 664/664
f 664/664 220/220 504/504
f 220/220 727/727 504/504
f 464/464 820/820 402/402
f 402/402 820/820 220/220
f 220/220 820/820 727/727
f 464/464 442/442 820/820
f 820/820 442/442 793/793
f 442/442 381/381 793/793
f 793/793 381/381 219/219
f 381/381 265/265 219/219
f 219/219 265/265 98/98
f 265/265 724/724 98/98
f 98/98 724/724 700/700
f 724/724 92/92 700/700
f 700/700 92/92 845/845
f 92/92 204/204 845/845
f 845/845 204/204 43/43
f 204/204 589/589 43/43
f 43/43 589/589 543/543
f 132/132 508/508 589/589
f 589/589 508/508 543/543
f 558/558 297/297 132/132
f 132/132 297/297 508/508
f 865/865 708/708 558/558
f 558/558 708/708 297/297
f 865/865 649/649 708/708
f 708/708 649/649 237/237
f 649/649 406/406 237/237
f 237/237 406/406 485/485
f 406/406 182/182 485/485
f 485/485 182/182 604/604
f 182/182 414/414 604/604
f 604/604 414/414 324/324
f 414/414 722/722 324/324
f 324/324 722/722 692/692
f 722/722 592/592 692/692
f 692/692 592/592 153/153
f 592/592 530/530 153/153
f 153/153 530/530 144/144
f 103/103 567/567 57/57
f 57/57 567/567 171/171
f 567/567 540/540 171/171
f 171/171 540/540 13/13
f 540/540 413/413 13/13
f 13/13 413/413 826/826
f 413/413 199/199 826/826
f 826/826 199/199 233/233
f 183/183 489/489 199/199
f 199/199 489/489 233/233
f 625/625 35/35 183/183
f 183/183 35/35 489/489
f 702/702 595/595 625/625
f 625/625 595/595 35/35
f 566/566 384/384 702/702
f 702/702 384/384 595/595
f 539/539 397/397 566/566
f 566/566 397/397 384/384
f 539/539 303/303 397/397
f 397/397 303/303 510/510
f 303/303 632/632 510/510
f 510/510 632/632 74/74
f 632/632 368/368 74/74
f 74/74 368/368 238/238
f 368/368 497/497 238/238
f 238/238 497/497 289/289
f 497/497 696/696 289/289
f 289/289 696/696 4/4
f 713/713 602/602 696/696
f 696/696 602/602 4/4
f 264/264 523/523 713/713
f 713/713 523/523 602/602
f 187/187 827/827 264/264
f 264/264 827/827 523/523
f 348/348 207/207 187/187
f 187/187 207/207 827/827
f 369/369 179/179 348/348
f 348/348 179/179 207/207
f 369/369 104/104 179/179
f 179/179 104/104 58/58
f 300/300 794/794 363/363
f 363/363 794/794 329/329
f 57/57 171/171 794/794
f 794/794 171/171 329/329
f 363/363 329/329 67/67
f 67/67 329/329 645/645
f 171/171 13/13 329/329
f 329/329 13/13 645/645
f 67/67 645/645 284/284
f 284/284 645/645 647/647
f 13/13 826/826 645/645
f 645/645 826/826 647/647
f 284/284 647/647 608/608
f 608/608 647/647 451/451
f 826/826 233/233 647/647
f 647/647 233/233 451/451
f 451/451 3/3 608/608
f 608/608 3/3 278/278
f 451/451 233/233 3/3
f 3/3 233/233 489/489
f 3/3 225/225 278/278
f 278/278 225/225 777/777
f 3/3 489/489 225/225
f 225/225 489/489 35/35
f 225/225 135/135 777/777
f 777/777 135/135 792/792
f 225/225 35/35 135/135
f 135/135 35/35 595/595
f 135/135 484/484 792/792
f 792/792 484/484 417/417
f 135/135 595/595 484/484
f 484/484 595/595 384/384
f 484/484 774/774 417/417
f 417/417 774/774 396/396
f 484/484 384/384 774/774
f 774/774 384/384 397/397
f 396/396 774/774 635/635
f 635/635 774/774 825/825
f 397/397 510/510 774/774
f 774/774 510/510 825/825
f 635/635 825/825 569/569
f 569/569 825/825 458/458
f 510/510 74/74 825/825
f 825/825 74/74 458/458
f 569/569 458/458 29/29
f 29/29 458/458 603/603
f 74/74 238/238 458/458
f 458/458 238/238 603/603
f 29/29 603/603 165/165
f 165/165 603/603 100/100
f 238/238 289/289 603/603
f 603/603 289/289 100/100
f 165/165 100/100 344/344
f 344/344 100/100 343/343
f 289/289 4/4 100/100
f 100/100 4/4 343/343
f 343/343 234/234 344/344
f 344/344 234/234 157/157
f 343/343 4/4 234/234
f 234/234 4/4 602/602
f 234/234 531/531 157/157
f 157/157 531/531 507/507
f 234/234 602/602 531/531
f 531/531 602/602 523/523
f 531/531 615/615 507/507
f 507/507 615/615 164/164
f 531/531 523/523 615/615
f 615/615 523/523 827/827
f 615/615 302/302 164/164
f 164/164 302/302 532/532
f 615/615 827/827 302/302
f 302/302 827/827 207/207
f 302/302 862/862 532/532
f 532/532 862/862 32/32
f 302/302 207/207 862/862
f 862/862 207/207 179/179
f 795/795 862/862 58/58
f 58/58 862/862 179/179
f 795/795 301/301 862/862
f 862/862 301/301 32/32
f 808/808 235/235 663/663
f 663/663 235/235 572/572
f 236/236 809/809 48/48
f 48/48 809/809 597/597
f 663/663 572/572 541/541
f 541/541 572/572 387/387
f 541/541 387/387 857/857
f 857/857 387/387 433/433
f 857/857 433/433 232/232
f 232/232 433/433 607/607
f 607/607 201/201 232/232
f 232/232 201/201 748/748
f 201/201 285/285 748/748
f 748/748 285/285 97/97
f 285/285 716/716 97/97
f 97/97 716/716 405/405
f 716/716 190/190 405/405
f 405/405 190/190 366/366
f 190/190 49/49 366/366
f 366/366 49/49 213/213
f 213/213 49/49 361/361
f 361/361 49/49 717/717
f 361/361 717/717 626/626
f 626/626 717/717 378/378
f 626/626 378/378 453/453
f 453/453 378/378 261/261
f 453/453 261/261 659/659
f 659/659 261/261 535/535
f 659/659 535/535 457/457
f 457/457 535/535 359/359
f 359/359 768/768 457/457
f 457/457 768/768 775/775
f 768/768 662/662 775/775
f 775/775 662/662 401/401
f 662/662 738/738 401/401
f 401/401 738/738 412/412
f 738/738 448/448 412/412
f 412/412 448/448 470/470
f 448/448 48/48 470/470
f 470/470 48/48 597/597
f 663/663 114/114 808/808
f 808/808 114/114 214/214
f 541/541 719/719 663/663
f 663/663 719/719 114/114
f 857/857 557/557 541/541
f 541/541 557/557 719/719
f 232/232 801/801 857/857
f 857/857 801/801 557/557
f 232/232 748/748 801/801
f 801/801 748/748 488/488
f 748/748 97/97 488/488
f 488/488 97/97 269/269
f 97/97 405/405 269/269
f 269/269 405/405 354/354
f 405/405 366/366 354/354
f 354/354 366/366 82/82
f 366/366 213/213 82/82
f 82/82 213/213 759/759
f 361/361 864/864 213/213
f 213/213 864/864 759/759
f 626/626 258/258 361/361
f 361/361 258/258 864/864
f 453/453 482/482 626/626
f 626/626 482/482 258/258
f 659/659 115/115 453/453
f 453/453 115/115 482/482
f 457/457 229/229 659/659
f 659/659 229/229 115/115
f 457/457 775/775 229/229
f 229/229 775/775 513/513
f 775/775 401/401 513/513
f 513/513 401/401 85/85
f 401/401 412/412 85/85
f 85/85 412/412 516/516
f 412/412 470/470 516/516
f 516/516 470/470 124/124
f 470/470 597/597 124/124
f 124/124 597/597 315/315
f 809/809 216/216 597/597
f 597/597 216/216 315/315
f 363/363 572/572 300/300
f 300/300 572/572 235/235
f 67/67 387/387 363/363
f 363/363 387/387 572/572
f 284/284 433/433 67/67
f 67/67 433/433 387/387
f 608/608 607/607 284/284
f 284/284 607/607 433/433
f 608/608 278/278 607/607
f 607/607 278/278 201/201
f 278/278 777/777 201/201
f 201/201 777/777 285/285
f 777/777 792/792 285/285
f 285/285 792/792 716/716
f 792/792 417/417 716/716
f 716/716 417/417 190/190
f 417/417 396/396 190/190
f 190/190 396/396 49/49
f 635/635 717/717 396/396
f 396/396 717/717 49/49
f 569/569 378/378 635/635
f 635/635 378/378 717/717
f 29/29 261/261 569/569
f 569/569 261/261 378/378
f 165/165 535/535 29/29
f 29/29 535/535 261/261
f 344/344 359/359 165/165
f 165/165 359/359 535/535
f 344/344 157/157 359/359
f 359/359 157/157 768/768
f 157/157 507/507 768/768
f 768/768 507/507 662/662
f 507/507 164/164 662/662
f 662/662 164/164 738/738
f 164/164 532/532 738/738
f 738/738 532/532 448/448
f 532/532 32/32 448/448
f 448/448 32/32 48/48
f 301/301 236/236 32/32
f 32/32 236/236 48/48
f 149/149 471/471 11/11
f 11/11 471/471 868/868
f 553/553 149/149 444/444
f 444/444 149/149 11/11
f 364/364 553/553 223/223
f 223/223 553/553 444/444
f 844/844 364/364 379/379
f 379/379 364/364 223/223
f 332/332 844/844 683/683
f 683/683 844/844 379/379
f 679/679 332/332 563/563
f 563/563 332/332 683/683
f 335/335 679/679 688/688
f 688/688 679/679 563/563
f 621/621 335/335 177/177
f 177/177 335/335 688/688
f 221/221 621/621 88/88
f 88/88 621/621 177/177
f 728/728 221/221 281/281
f 281/281 221/221 88/88
f 209/209 728/728 573/573
f 573/573 728/728 281/281
f 620/620 209/209 493/493
f 493/493 209/209 573/573
f 860/860 620/620 388/388
f 388/388 620/620 493/493
f 681/681 860/860 242/242
f 242/242 860/860 388/388
f 372/372 681/681 742/742
f 742/742 681/681 242/242
f 172/172 372/372 39/39
f 39/39 372/372 742/742
f 37/37 172/172 740/740
f 740/740 172/172 39/39
f 34/34 37/37 429/429
f 429/429 37/37 740/740
f 127/127 34/34 502/502
f 502/502 34/34 429/429
f 473/473 127/127 870/870
f 870/870 127/127 502/502
f 472/472 150/150 10/10
f 150/150 552/552 10/10
f 552/552 365/365 10/10
f 365/365 843/843 10/10
f 843/843 333/333 10/10
f 333/333 678/678 10/10
f 678/678 334/334 10/10
f 334/334 622/622 10/10
f 622/622 222/222 10/10
f 222/222 729/729 10/10
f 729/729 208/208 10/10
f 208/208 619/619 10/10
f 619/619 861/861 10/10
f 861/861 680/680 10/10
f 680/680 373/373 10/10
f 373/373 173/173 10/10
f 173/173 36/36 10/10
f 36/36 33/33 10/10
f 33/33 126/126 10/10
f 126/126 472/472 10/10
f 804/804 246/246 815/815
f 815/815 246/246 754/754
f 744/744 674/674 804/804
f 804/804 674/674 246/246
f 62/62 18/18 744/744
f 744/744 18/18 674/674
f 623/623 580/580 62/62
f 62/62 580/580 18/18
f 30/30 830/830 623/623
f 623/623 830/830 580/580
f 642/642 304/304 30/30
f 30/30 304/304 830/830
f 469/469 65/65 642/642
f 642/642 65/65 304/304
f 707/707 640/640 469/469
f 469/469 640/640 65/65
f 325/325 584/584 707/707
f 707/707 584/584 640/640
f 668/668 322/322 325/325
f 325/325 322/322 584/584
f 667/667 336/336 668/668
f 668/668 336/336 322/322
f 434/434 374/374 667/667
f 667/667 374/374 336/336
f 568/568 518/518 434/434
f 434/434 518/518 374/374
f 511/511 812/812 568/568
f 568/568 812/812 518/518
f 309/309 251/251 511/511
f 511/511 251/251 812/812
f 836/836 787/787 309/309
f 309/309 787/787 251/251
f 200/200 480/480 836/836
f 836/836 480/480 787/787
f 789/789 714/714 200/200
f 200/200 714/714 480/480
f 520/520 810/810 789/789
f 789/789 810/810 714/714
f 816/816 756/756 520/520
f 520/520 756/756 810/810
f 12/12 869/869 247/247
f 247/247 869/869 755/755
f 445/445 12/12 675/675
f 675/675 12/12 247/247
f 224/224 445/445 19/19
f 19/19 445/445 675/675
f 380/380 224/224 581/581
f 581/581 224/224 19/19
f 684/684 380/380 831/831
f 831/831 380/380 581/581
f 564/564 684/684 305/305
f 305/305 684/684 831/831
f 689/689 564/564 66/66
f 66/66 564/564 305/305
f 178/178 689/689 641/641
f 641/641 689/689 66/66
f 89/89 178/178 585/585
f 585/585 178/178 641/641
f 282/282 89/89 323/323
f 323/323 89/89 585/585
f 574/574 282/282 337/337
f 337/337 282/282 323/323
f 494/494 574/574 375/375
f 375/375 574/574 337/337
f 389/389 494/494 519/519
f 519/519 494/494 375/375
f 243/243 389/389 813/813
f 813/813 389/389 519/519
f 743/743 243/243 252/252
f 252/252 243/243 813/813
f 40/40 743/743 788/788
f 788/788 743/743 252/252
f 741/741 40/40 481/481
f 481/481 40/40 788/788
f 430/430 741/741 715/715
f 715/715 741/741 481/481
f 503/503 430/430 811/811
f 811/811 430/430 715/715
f 871/871 503/503 757/757
f 757/757 503/503 811/811
f 28/28 709/709 776/776
f 776/776 709/709 611/611
f 168/168 254/254 292/292
f 292/292 254/254 23/23
f 168/168 427/427 254/254
f 254/254 427/427 79/79
f 292/292 23/23 467/467
f 467/467 23/23 545/545
f 118/118 293/293 758/758
f 758/758 293/293 661/661
f 24/24 174/174 701/701
f 701/701 174/174 17/17
f 249/249 394/394 829/829
f 829/829 394/394 858/858
f 565/565 653/653 255/255
f 653/653 277/277 255/255
f 277/277 376/376 255/255
f 534/534 170/170 184/184
f 184/184 170/170 739/739
f 339/339 739/739 170/170
f 739/739 277/277 184/184
f 277/277 653/653 184/184
f 184/184 653/653 837/837
f 653/653 723/723 837/837
f 723/723 610/610 837/837
f 610/610 578/578 837/837
f 170/170 534/534 351/351
f 534/534 762/762 351/351
f 762/762 419/419 351/351
f 5/5 547/547 331/331
f 331/331 547/547 783/783
f 547/547 319/319 783/783
f 783/783 319/319 704/704
f 842/842 141/141 731/731
f 731/731 141/141 198/198
f 256/256 377/377 46/46
f 46/46 377/377 139/139
f 241/241 338/338 643/643
f 643/643 338/338 169/169
f 806/806 256/256 450/450
f 450/450 256/256 46/46
f 352/352 492/492 169/169
f 169/169 492/492 643/643
f 814/814 710/710 203/203
f 203/203 710/710 440/440
f 386/386 240/240 475/475
f 475/475 240/240 644/644
f 47/47 616/616 736/736
f 192/192 710/710 616/616
f 616/616 710/710 814/814
f 99/99 441/441 22/22
f 22/22 441/441 733/733
f 803/803 658/658 859/859
f 859/859 658/658 31/31
f 628/628 101/101 218/218
f 218/218 101/101 346/346
f 733/733 61/61 22/22
f 22/22 61/61 286/286
f 821/821 803/803 446/446
f 446/446 803/803 859/859
f 773/773 130/130 399/399
f 399/399 130/130 855/855
f 421/421 290/290 856/856
f 856/856 290/290 398/398
f 638/638 660/660 420/420
f 420/420 660/660 291/291
f 99/99 22/22 253/253
f 253/253 22/22 509/509
f 31/31 517/517 859/859
f 859/859 517/517 490/490
f 218/218 346/346 677/677
f 677/677 346/346 818/818
f 22/22 286/286 509/509
f 509/509 286/286 779/779
f 446/446 859/859 577/577
f 577/577 859/859 490/490
f 71/71 773/773 42/42
f 42/42 773/773 399/399
f 398/398 290/290 41/41
f 41/41 290/290 769/769
f 291/291 660/660 770/770
f 770/770 660/660 340/340
f 611/611 709/709 306/306
f 306/306 709/709 70/70
f 254/254 79/79 273/273
f 273/273 79/79 87/87
f 23/23 254/254 38/38
f 38/38 254/254 273/273
f 545/545 23/23 562/562
f 562/562 23/23 38/38
f 377/377 294/294 139/139
f 139/139 294/294 342/342
f 192/192 326/326 710/710
f 710/710 326/326 533/533
f 440/440 710/710 551/551
f 551/551 710/710 533/533
f 240/240 386/386 112/112
f 112/112 386/386 819/819
f 338/338 241/241 828/828
f 828/828 241/241 111/111
f 829/829 858/858 339/339
f 339/339 858/858 739/739
f 661/661 277/277 858/858
f 858/858 277/277 739/739
f 293/293 376/376 661/661
f 661/661 376/376 277/277
f 701/701 733/733 371/371
f 371/371 733/733 102/102
f 701/701 17/17 733/733
f 733/733 17/17 61/61
f 660/660 638/638 446/446
f 446/446 638/638 821/821
f 660/660 446/446 340/340
f 340/340 446/446 577/577
f 141/141 842/842 319/319
f 319/319 842/842 704/704
f 773/773 71/71 286/286
f 286/286 71/71 779/779
f 61/61 130/130 286/286
f 286/286 130/130 773/773
f 658/658 627/627 31/31
f 31/31 627/627 217/217
f 517/517 31/31 676/676
f 676/676 31/31 217/217
f 798/798 5/5 823/823
f 823/823 5/5 331/331
f 345/345 99/99 817/817
f 817/817 99/99 253/253
f 102/102 441/441 345/345
f 345/345 441/441 99/99
f 817/817 253/253 521/521
f 521/521 253/253 765/765
f 765/765 253/253 355/355
f 355/355 253/253 509/509
f 509/509 779/779 355/355
f 355/355 779/779 594/594
f 779/779 71/71 594/594
f 594/594 71/71 327/327
f 327/327 71/71 536/536
f 536/536 71/71 42/42
f 769/769 501/501 41/41
f 41/41 501/501 537/537
f 770/770 340/340 500/500
f 500/500 340/340 699/699
f 474/474 699/699 577/577
f 577/577 699/699 340/340
f 577/577 490/490 474/474
f 474/474 490/490 367/367
f 490/490 517/517 367/367
f 367/367 517/517 423/423
f 423/423 517/517 160/160
f 160/160 517/517 676/676
f 677/677 818/818 161/161
f 161/161 818/818 522/522
f 661/661 858/858 758/758
f 758/758 858/858 394/394
f 203/203 440/440 475/475
f 475/475 440/440 386/386
f 386/386 440/440 819/819
f 819/819 440/440 551/551
f 192/192 616/616 138/138
f 138/138 616/616 47/47
f 326/326 192/192 341/341
f 341/341 192/192 138/138
f 28/28 776/776 347/347
f 347/347 776/776 362/362
f 427/427 168/168 495/495
f 495/495 168/168 145/145
f 168/168 292/292 145/145
f 145/145 292/292 125/125
f 467/467 712/712 292/292
f 292/292 712/712 125/125
f 195/195 154/154 452/452
f 452/452 154/154 477/477
f 154/154 195/195 51/51
f 51/51 195/195 778/778
f 189/189 853/853 669/669
f 669/669 853/853 210/210
f 189/189 328/328 853/853
f 853/853 328/328 687/687
f 807/807 156/156 313/313
f 313/313 156/156 50/50
f 212/212 854/854 419/419
f 419/419 854/854 351/351
f 450/450 478/478 806/806
f 806/806 478/478 155/155
f 852/852 685/685 352/352
f 352/352 685/685 492/492
f 189/189 669/669 328/328
f 328/328 669/669 162/162
f 454/454 614/614 452/452
f 452/452 614/614 195/195
f 195/195 614/614 778/778
f 601/601 356/356 697/697
f 697/697 356/356 428/428
f 698/698 465/465 600/600
f 600/600 465/465 734/734
f 428/428 356/356 512/512
f 512/512 356/356 274/274
f 735/735 466/466 163/163
f 163/163 466/466 206/206
f 206/206 191/191 163/163
f 163/163 191/191 385/385
f 512/512 274/274 596/596
f 596/596 274/274 737/737
f 737/737 411/411 596/596
f 596/596 411/411 550/550
f 385/385 191/191 188/188
f 188/188 191/191 131/131
f 188/188 131/131 435/435
f 435/435 131/131 202/202
f 550/550 411/411 455/455
f 455/455 411/411 599/599
f 456/456 598/598 390/390
f 390/390 598/598 68/68
f 69/69 435/435 391/391
f 391/391 435/435 202/202
f 765/765 355/355 356/356
f 356/356 355/355 274/274
f 423/423 163/163 367/367
f 367/367 163/163 385/385
f 161/161 522/522 734/734
f 734/734 522/522 600/600
f 355/355 594/594 274/274
f 274/274 594/594 737/737
f 474/474 367/367 188/188
f 188/188 367/367 385/385
f 411/411 327/327 599/599
f 599/599 327/327 536/536
f 501/501 68/68 537/537
f 537/537 68/68 598/598
f 699/699 435/435 500/500
f 500/500 435/435 69/69
f 546/546 6/6 512/512
f 512/512 6/6 428/428
f 206/206 330/330 191/191
f 191/191 330/330 782/782
f 698/698 796/796 465/465
f 465/465 796/796 824/824
f 596/596 318/318 512/512
f 512/512 318/318 546/546
f 191/191 782/782 131/131
f 131/131 782/782 703/703
f 455/455 197/197 550/550
f 550/550 197/197 142/142
f 390/390 732/732 456/456
f 456/456 732/732 196/196
f 841/841 730/730 202/202
f 202/202 730/730 391/391
f 699/699 474/474 435/435
f 435/435 474/474 188/188
f 703/703 841/841 131/131
f 131/131 841/841 202/202
f 550/550 142/142 596/596
f 596/596 142/142 318/318
f 327/327 411/411 594/594
f 594/594 411/411 737/737
f 423/423 160/160 163/163
f 163/163 160/160 735/735
f 466/466 822/822 206/206
f 206/206 822/822 330/330
f 6/6 797/797 428/428
f 428/428 797/797 697/697
f 521/521 765/765 601/601
f 601/601 765/765 356/356
f 158/158 295/295 479/479
f 479/479 295/295 279/279
f 479/479 279/279 633/633
f 633/633 279/279 766/766
f 436/436 654/654 128/128
f 128/128 654/654 629/629
f 128/128 317/317 436/436
f 436/436 317/317 226/226
f 629/629 654/654 646/646
f 646/646 654/654 657/657
f 633/633 766/766 805/805
f 805/805 766/766 673/673
f 410/410 832/832 159/159
f 159/159 832/832 370/370
f 360/360 400/400 525/525
f 525/525 400/400 20/20
f 370/370 25/25 159/159
f 159/159 25/25 850/850
f 26/26 526/526 851/851
f 851/851 526/526 239/239
f 239/239 526/526 634/634
f 634/634 526/526 250/250
f 20/20 400/400 392/392
f 392/392 400/400 749/749
f 393/393 750/750 538/538
f 538/538 750/750 7/7
f 129/129 639/639 250/250
f 250/250 639/639 634/634
f 129/129 538/538 639/639
f 639/639 538/538 7/7
f 128/128 629/629 426/426
f 426/426 629/629 78/78
f 544/544 479/479 468/468
f 468/468 479/479 633/633
f 280/280 709/709 767/767
f 767/767 709/709 28/28
f 655/655 437/437 611/611
f 611/611 437/437 776/776
f 117/117 410/410 294/294
f 294/294 410/410 159/159
f 24/24 701/701 833/833
f 833/833 701/701 371/371
f 174/174 524/524 17/17
f 17/17 524/524 21/21
f 400/400 360/360 828/828
f 828/828 360/360 248/248
f 294/294 159/159 342/342
f 342/342 159/159 850/850
f 749/749 400/400 111/111
f 111/111 400/400 828/828
f 533/533 634/634 551/551
f 551/551 634/634 639/639
f 819/819 7/7 112/112
f 112/112 7/7 750/750
f 326/326 239/239 533/533
f 533/533 239/239 634/634
f 306/306 656/656 611/611
f 611/611 656/656 655/655
f 629/629 646/646 78/78
f 78/78 646/646 86/86
f 561/561 158/158 544/544
f 544/544 158/158 479/479
f 296/296 70/70 280/280
f 280/280 70/70 709/709
f 855/855 61/61 21/21
f 21/21 61/61 17/17
f 20/20 392/392 856/856
f 856/856 392/392 421/421
f 538/538 638/638 393/393
f 393/393 638/638 420/420
f 129/129 250/250 821/821
f 821/821 250/250 803/803
f 526/526 658/658 250/250
f 250/250 658/658 803/803
f 370/370 101/101 25/25
f 25/25 101/101 628/628
f 538/538 129/129 638/638
f 638/638 129/129 821/821
f 526/526 26/26 658/658
f 658/658 26/26 627/627
f 341/341 851/851 326/326
f 326/326 851/851 239/239
f 639/639 7/7 551/551
f 551/551 7/7 819/819
f 468/468 633/633 711/711
f 711/711 633/633 805/805
f 767/767 28/28 672/672
f 672/672 28/28 347/347
f 437/437 227/227 776/776
f 776/776 227/227 362/362
f 317/317 128/128 496/496
f 496/496 128/128 426/426
f 61/61 855/855 130/130
f 102/102 733/733 441/441
f 283/283 203/203 784/784
f 784/784 203/203 475/475
f 255/255 807/807 565/565
f 565/565 807/807 745/745
f 745/745 807/807 313/313
f 762/762 534/534 799/799
f 799/799 534/534 837/837
f 184/184 837/837 534/534
f 745/745 548/548 565/565
f 548/548 723/723 565/565
f 653/653 565/565 723/723
f 140/140 814/814 283/283
f 283/283 814/814 203/203
f 616/616 814/814 736/736
f 736/736 814/814 140/140
f 784/784 475/475 644/644
f 299/299 624/624 459/459
f 459/459 624/624 682/682
f 298/298 461/461 108/108
f 108/108 461/461 27/27
f 108/108 27/27 148/148
f 148/148 27/27 422/422
f 447/447 751/751 486/486
f 486/486 751/751 175/175
f 447/447 486/486 542/542
f 542/542 486/486 395/395
f 542/542 395/395 588/588
f 588/588 395/395 55/55
f 95/95 77/77 409/409
f 409/409 77/77 761/761
f 96/96 148/148 75/75
f 75/75 148/148 422/422
f 753/753 682/682 176/176
f 176/176 682/682 624/624
f 409/409 761/761 56/56
f 56/56 761/761 587/587
f 712/712 298/298 125/125
f 125/125 298/298 108/108
f 347/347 362/362 486/486
f 486/486 362/362 395/395
f 495/495 145/145 96/96
f 96/96 145/145 148/148
f 145/145 125/125 148/148
f 148/148 125/125 108/108
f 542/542 174/174 447/447
f 447/447 174/174 24/24
f 76/76 422/422 249/249
f 249/249 422/422 394/394
f 758/758 394/394 27/27
f 27/27 394/394 422/422
f 460/460 118/118 27/27
f 27/27 118/118 758/758
f 805/805 673/673 624/624
f 624/624 673/673 176/176
f 317/317 409/409 226/226
f 226/226 409/409 56/56
f 682/682 753/753 410/410
f 410/410 753/753 832/832
f 761/761 360/360 587/587
f 587/587 360/360 525/525
f 711/711 805/805 299/299
f 299/299 805/805 624/624
f 672/672 347/347 175/175
f 175/175 347/347 486/486
f 227/227 55/55 362/362
f 362/362 55/55 395/395
f 409/409 317/317 95/95
f 95/95 317/317 496/496
f 459/459 682/682 117/117
f 117/117 682/682 410/410
f 752/752 447/447 833/833
f 833/833 447/447 24/24
f 586/586 524/524 542/542
f 542/542 524/524 174/174
f 360/360 761/761 248/248
f 248/248 761/761 77/77
f 614/614 454/454 311/311
f 311/311 454/454 122/122
f 312/312 121/121 432/432
f 432/432 121/121 151/151
f 838/838 162/162 210/210
f 210/210 162/162 669/669
f 840/840 166/166 16/16
f 16/16 166/166 617/617
f 432/432 151/151 107/107
f 107/107 151/151 691/691
f 166/166 651/651 617/617
f 617/617 651/651 506/506
f 651/651 185/185 506/506
f 506/506 185/185 8/8
f 499/499 194/194 8/8
f 8/8 194/194 262/262
f 262/262 54/54 691/691
f 691/691 54/54 107/107
f 498/498 579/579 193/193
f 193/193 579/579 609/609
f 747/747 314/314 106/106
f 106/106 314/314 431/431
f 764/764 652/652 418/418
f 418/418 652/652 167/167
f 47/47 736/736 449/449
f 736/736 690/690 449/449
f 449/449 690/690 152/152
f 644/644 491/491 784/784
f 784/784 491/491 505/505
f 491/491 618/618 505/505
f 778/778 614/614 51/51
f 51/51 614/614 311/311
f 452/452 477/477 454/454
f 454/454 477/477 120/120
f 687/687 328/328 15/15
f 15/15 328/328 162/162
f 52/52 310/310 314/314
f 314/314 310/310 431/431
f 167/167 839/839 418/418
f 418/418 839/839 211/211
f 119/119 476/476 152/152
f 152/152 476/476 449/449
f 491/491 686/686 618/618
f 618/618 686/686 14/14
f 140/140 283/283 263/263
f 263/263 283/283 9/9
f 800/800 186/186 763/763
f 763/763 186/186 650/650
f 549/549 746/746 53/53
f 53/53 746/746 105/105
f 283/283 784/784 9/9
f 9/9 784/784 505/505
f 140/140 263/263 736/736
f 736/736 263/263 690/690
f 579/579 498/498 800/800
f 800/800 498/498 186/186
f 609/609 549/549 193/193
f 193/193 549/549 53/53
f 799/799 837/837 578/578
f 499/499 8/8 185/185
f 610/610 723/723 548/548
f 54/54 262/262 194/194
f 162/162 838/838 15/15