o convex_0
v 0.013928 -0.099727 0.000229
v 0.009386 -0.075647 0.019762
v 0.009386 -0.075647 0.000229
v -0.009241 -0.098360 0.019762
v -0.009241 -0.075647 0.000229
v 0.016202 -0.097453 0.019762
v -0.008785 -0.098817 -0.000227
v -0.008785 -0.075647 0.020218
v 0.015746 -0.094271 -0.000227
v 0.013928 -0.099272 0.020218
v -0.007876 -0.099727 0.019762
v 0.010295 -0.076557 0.019762
v 0.009841 -0.076557 -0.000227
v -0.007876 -0.099727 0.000229
v 0.016202 -0.094725 0.019762
v 0.016202 -0.094725 0.000229
v -0.008785 -0.098817 0.020218
v 0.009841 -0.076557 0.020218
v 0.013928 -0.099727 0.019762
v -0.008785 -0.075647 -0.000227
v -0.009241 -0.075647 0.019762
v -0.009241 -0.098360 0.000229
v 0.010295 -0.076557 0.000229
v 0.016202 -0.097453 0.000229
v 0.013928 -0.099272 -0.000227
v 0.015746 -0.094271 0.020218
f 12 18 26 
f 2 3 5 
f 2 5 8 
f 3 2 12 
f 9 7 13 
f 1 11 14 
f 11 7 14 
f 12 15 16 
f 15 6 16 
f 4 7 17 
f 8 4 17 
f 10 8 17 
f 7 11 17 
f 11 10 17 
f 2 8 18 
f 8 10 18 
f 12 2 18 
f 1 6 19 
f 6 10 19 
f 11 1 19 
f 10 11 19 
f 5 3 20 
f 7 5 20 
f 3 13 20 
f 13 7 20 
f 5 4 21 
f 4 8 21 
f 8 5 21 
f 4 5 22 
f 7 4 22 
f 5 7 22 
f 3 12 23 
f 13 3 23 
f 9 13 23 
f 12 16 23 
f 16 9 23 
f 6 1 24 
f 16 6 24 
f 9 16 24 
f 7 9 25 
f 1 14 25 
f 14 7 25 
f 24 1 25 
f 9 24 25 
f 10 6 26 
f 6 15 26 
f 15 12 26 
f 18 10 26 
o convex_1
v 0.010296 -0.019765 0.019762
v -0.011058 -0.053831 0.000229
v -0.010149 -0.065190 -0.000227
v 0.008024 0.062017 -0.000227
v -0.009240 0.062017 0.019762
v -0.008786 -0.075647 0.020218
v 0.009386 -0.075647 0.000229
v -0.009240 0.062017 0.000229
v 0.008024 0.062017 0.020218
v 0.008931 -0.075647 0.020218
v -0.011058 -0.029750 0.020218
v -0.008786 -0.075647 -0.000227
v 0.010296 -0.019765 0.000229
v 0.010296 -0.050192 0.019762
v -0.011058 -0.029750 -0.000227
v 0.008931 -0.075647 -0.000227
v -0.011058 -0.053831 0.019762
v -0.008786 0.062017 -0.000227
v -0.008786 0.062017 0.020218
v 0.010296 -0.050192 0.000229
v -0.009240 -0.075647 0.019762
v 0.009386 -0.075647 0.019762
v 0.009840 -0.019307 -0.000227
v 0.009840 -0.019307 0.020218
v -0.009240 -0.075647 0.000229
v -0.010149 -0.065635 0.019762
v -0.011058 -0.029305 0.019762
v -0.011058 -0.053372 0.020218
f 43 52 54 
f 31 30 34 
f 27 30 35 
f 30 31 35 
f 35 32 36 
f 32 33 36 
f 32 35 37 
f 29 30 38 
f 33 32 38 
f 30 27 39 
f 39 27 40 
f 29 28 41 
f 30 29 41 
f 28 37 41 
f 38 30 42 
f 33 38 42 
f 37 28 43 
f 34 30 44 
f 30 41 44 
f 41 34 44 
f 35 31 45 
f 31 37 45 
f 37 35 45 
f 40 33 46 
f 39 40 46 
f 33 42 46 
f 38 32 47 
f 36 33 48 
f 33 40 48 
f 40 36 48 
f 30 39 49 
f 42 30 49 
f 39 46 49 
f 46 42 49 
f 27 35 50 
f 35 36 50 
f 36 40 50 
f 40 27 50 
f 29 38 51 
f 38 47 51 
f 51 47 52 
f 28 29 52 
f 43 28 52 
f 29 51 52 
f 31 34 53 
f 37 31 53 
f 34 41 53 
f 41 37 53 
f 32 37 54 
f 37 43 54 
f 47 32 54 
f 52 47 54 
o convex_2
v -0.000147 0.099725 0.019762
v -0.028775 0.082464 -0.000227
v -0.029232 0.082464 0.000229
v 0.038003 0.082466 0.020218
v 0.038003 0.099271 -0.000227
v -0.028775 0.082464 0.020218
v 0.038003 0.082466 -0.000227
v -0.014236 0.096545 0.000229
v 0.038003 0.099271 0.020218
v -0.018319 0.094274 0.020218
v -0.000147 0.099725 0.000229
v 0.039373 0.083826 0.000229
v 0.039373 0.097453 0.019762
v -0.018319 0.094274 -0.000227
v 0.038003 0.099725 0.000229
v -0.029232 0.083371 0.019762
v -0.009696 0.097909 0.019762
v 0.039373 0.097453 0.000229
v 0.039373 0.083826 0.019762
v 0.038003 0.099725 0.019762
v -0.029232 0.083371 0.000229
v -0.013779 0.096545 0.020218
v -0.009696 0.097909 0.000229
v -0.000147 0.099271 -0.000227
v -0.000147 0.099271 0.020218
v -0.017869 0.094727 0.019762
v -0.014236 0.096545 0.019762
f 80 64 81 
f 57 56 60 
f 56 58 60 
f 58 56 61 
f 56 59 61 
f 60 58 63 
f 60 63 64 
f 58 61 66 
f 61 59 66 
f 63 58 67 
f 59 56 68 
f 65 55 69 
f 59 65 69 
f 57 60 70 
f 60 64 70 
f 55 65 71 
f 66 59 72 
f 67 66 72 
f 59 69 72 
f 69 67 72 
f 58 66 73 
f 67 58 73 
f 66 67 73 
f 55 63 74 
f 63 67 74 
f 69 55 74 
f 67 69 74 
f 56 57 75 
f 68 56 75 
f 57 70 75 
f 64 63 76 
f 68 62 77 
f 62 71 77 
f 71 65 77 
f 65 59 78 
f 59 68 78 
f 68 77 78 
f 77 65 78 
f 63 55 79 
f 55 71 79 
f 76 63 79 
f 71 76 79 
f 62 68 80 
f 70 64 80 
f 68 75 80 
f 75 70 80 
f 71 62 81 
f 64 76 81 
f 76 71 81 
f 62 80 81 
o convex_3
v -0.009239 0.062017 0.000229
v 0.012567 0.082462 0.020218
v 0.012567 0.082006 0.020218
v -0.012876 0.081552 0.020218
v -0.012876 0.082462 -0.000227
v 0.012567 0.082462 -0.000227
v 0.008022 0.062017 0.020218
v 0.008022 0.062017 -0.000227
v -0.009239 0.062017 0.019762
v -0.012876 0.082462 0.020218
v -0.008784 0.062017 -0.000227
v -0.008784 0.062017 0.020218
v -0.012876 0.081097 0.000229
v 0.012567 0.082006 -0.000227
v -0.012876 0.081097 0.019762
f 94 90 96 
f 84 83 85 
f 86 83 87 
f 83 84 87 
f 84 85 88 
f 88 82 89 
f 86 87 89 
f 84 88 89 
f 82 88 90 
f 85 83 91 
f 86 85 91 
f 83 86 91 
f 82 86 92 
f 89 82 92 
f 86 89 92 
f 88 85 93 
f 85 90 93 
f 90 88 93 
f 86 82 94 
f 85 86 94 
f 82 90 94 
f 87 84 95 
f 89 87 95 
f 84 89 95 
f 90 85 96 
f 85 94 96 
o convex_4
v -0.030142 0.081552 0.019762
v -0.038773 0.062471 -0.000227
v -0.038318 0.062471 -0.000227
v -0.028779 0.082462 -0.000227
v -0.021508 0.078825 0.019762
v -0.038773 0.062471 0.020218
v -0.021508 0.078825 0.000229
v -0.039227 0.065655 0.000229
v -0.021508 0.082462 0.020218
v -0.039227 0.065655 0.019762
v -0.021508 0.082462 -0.000227
v -0.032409 0.078373 0.000229
v -0.037864 0.062471 0.019762
v -0.028779 0.082462 0.020218
v -0.037864 0.062471 0.000229
v -0.032409 0.078373 0.019762
v -0.031047 0.080644 0.000229
v -0.037409 0.069289 0.000229
v -0.039227 0.062471 0.019762
v -0.037409 0.069289 0.019762
v -0.021508 0.079279 0.020218
v -0.039227 0.062471 0.000229
v -0.029233 0.082462 0.000229
v -0.021508 0.079279 -0.000227
f 103 111 120 
f 99 98 100 
f 98 99 102 
f 100 98 104 
f 101 103 105 
f 99 100 107 
f 100 105 107 
f 105 103 107 
f 102 99 109 
f 103 101 109 
f 105 100 110 
f 102 105 110 
f 106 102 110 
f 109 99 111 
f 103 109 111 
f 110 97 112 
f 100 108 113 
f 112 97 113 
f 108 112 113 
f 100 104 114 
f 104 106 114 
f 108 100 114 
f 112 108 114 
f 98 102 115 
f 102 106 115 
f 106 104 115 
f 106 110 116 
f 110 112 116 
f 114 106 116 
f 112 114 116 
f 101 105 117 
f 105 102 117 
f 102 109 117 
f 109 101 117 
f 104 98 118 
f 98 115 118 
f 115 104 118 
f 97 110 119 
f 110 100 119 
f 113 97 119 
f 100 113 119 
f 99 107 120 
f 107 103 120 
f 111 99 120 
o convex_5
v -0.020144 0.079282 0.000229
v -0.012876 0.082462 0.020218
v -0.021506 0.082462 0.020218
v -0.012876 0.082462 -0.000227
v -0.021506 0.082462 -0.000227
v -0.021506 0.079282 0.019762
v -0.012876 0.081099 0.019762
v -0.012876 0.081099 0.000229
v -0.021506 0.079737 -0.000227
v -0.020144 0.079282 0.019762
f 127 122 130 
f 123 122 124 
f 123 124 125 
f 123 125 126 
f 122 123 126 
f 124 122 127 
f 124 127 128 
f 127 121 128 
f 128 121 129 
f 125 124 129 
f 126 125 129 
f 121 126 129 
f 124 128 129 
f 122 126 130 
f 126 121 130 
f 121 127 130 
