# https://github.com/mikedh/trimesh
mtllib material0.mtl
usemtl material0
v -0.01502234 0.08736169 0.00130181
v -0.01502234 0.08736169 0.02498402
v 0.00455634 -0.10000000 0.01151823
v 0.00455634 -0.10000000 0.01151823
v 0.00455634 -0.10000000 0.01476761
v 0.00455634 -0.10000000 0.01476761
v -0.03779407 0.08751677 0.00403568
v -0.03779407 0.08751677 0.00403568
v -0.03779407 0.08751677 0.02225016
v -0.03779407 0.08751677 0.02225016
v -0.03779407 0.08389484 0.02162923
v -0.03779407 0.08389484 0.02162923
v -0.03779407 0.08389484 0.00465660
v -0.03779407 0.08389484 0.00465660
v -0.03779407 0.09113931 0.02162923
v -0.03779407 0.09113931 0.02162923
v -0.03779407 0.09113931 0.00465660
v -0.03779407 0.09113931 0.00465660
v 0.01311051 0.09500598 0.02122579
v 0.01311051 0.09500598 0.00506005
v 0.01311051 0.07902561 0.00510427
v 0.01311051 0.07902561 0.02118157
v -0.03159092 0.09701534 0.01314292
v -0.03159092 0.09701534 0.01314292
v -0.03159092 0.09701534 0.01314292
v -0.03159092 0.09701534 0.01314292
v -0.03159092 0.07801881 0.01314292
v -0.03159092 0.07801881 0.01314292
v -0.03159092 0.07801881 0.01314292
v -0.03159092 0.07801881 0.01314292
v -0.03159092 0.07801881 0.01314292
v -0.04222774 0.08408202 0.00970756
v -0.04222774 0.08408202 0.01657767
v -0.04222774 0.09095213 0.00970756
v -0.04222774 0.09095213 0.01657767
v -0.01079947 -0.09978858 0.01314292
v -0.02215899 0.08068725 0.01859309
v -0.02215899 0.08068725 0.00769275
v -0.00862837 0.07235420 0.01726098
v -0.00862837 0.07235420 0.00902485
v 0.00342900 0.07464221 0.01314292
v 0.00342900 0.07464221 0.01314292
v -0.01112356 0.07392679 0.00709061
v -0.01112356 0.07392679 0.00709061
v -0.01112356 0.07392679 0.01919523
v -0.01112356 0.07392679 0.01919523
v -0.01112356 0.07689207 0.02254577
v -0.01112356 0.07689207 0.02254577
v -0.01112356 0.07689207 0.00374006
v -0.01112356 0.07689207 0.00374006
v -0.02814345 0.09381321 0.01561509
v -0.02814345 0.09381321 0.01561509
v -0.02814345 0.09381321 0.01561509
v -0.02814345 0.09381321 0.01067075
v -0.02814345 0.09381321 0.01067075
v -0.02814345 0.09381321 0.01067075
v -0.00809953 -0.10000000 0.00996562
v -0.00809953 -0.10000000 0.00996562
v -0.00809953 -0.10000000 0.01632021
v -0.00809953 -0.10000000 0.01632021
v -0.00803592 0.07273462 0.00942588
v -0.00803592 0.07273462 0.01685996
v 0.00297466 0.07464221 0.01468765
v 0.00297466 0.07464221 0.01159819
v 0.00378883 -0.09842377 0.00886432
v 0.00378883 -0.09842377 0.00886432
v 0.00378883 -0.09842377 0.01742151
v 0.00378883 -0.09842377 0.01742151
v 0.00378883 -0.06897397 0.00886432
v 0.00378883 -0.06897397 0.01742151
v -0.00850116 0.07273462 0.01314292
v -0.00850116 0.07273462 0.01314292
v -0.00850116 0.07273462 0.01314292
v -0.01033727 0.07273462 0.01314292
v 0.00168133 0.07464221 0.01599673
v 0.00168133 0.07464221 0.01028911
v 0.00051824 -0.10000000 0.01745120
v 0.00051824 -0.10000000 0.01745120
v 0.00051824 -0.10000000 0.00883464
v 0.00051824 -0.10000000 0.00883464
v -0.00025715 0.07273462 0.00941800
v -0.00025715 0.07273462 0.00941800
v -0.00025715 0.07273462 0.01686783
v -0.00025715 0.07273462 0.01686783
v -0.04065515 0.08751677 0.00565431
v -0.04065515 0.08751677 0.02063152
v -0.04065515 0.08002817 0.01314292
v -0.04065515 0.09500538 0.01314292
v -0.02814648 0.09023852 0.00736987
v -0.02814648 0.09023852 0.00736987
v -0.02814648 0.09023852 0.00736987
v -0.02814648 0.09023852 0.01891596
v -0.02814648 0.09023852 0.01891596
v -0.02814648 0.09023852 0.01891596
v 0.04281292 0.08196362 0.01314292
v 0.04281292 0.07842165 0.00846148
v 0.04281292 0.07842165 0.01782436
v 0.04281292 0.09274947 0.01838652
v 0.04281292 0.09274947 0.00789932
v 0.04281292 0.08226166 0.01838652
v 0.04281292 0.08226166 0.00789932
v 0.04281292 0.09473157 0.00591661
v 0.04281292 0.09473157 0.02036922
v 0.04281292 0.09658948 0.00846148
v 0.04281292 0.09658948 0.01782436
v 0.04281292 0.09304751 0.01314292
v 0.04281292 0.09772471 0.01314292
v 0.04281292 0.08750526 0.01314292
v 0.04281292 0.08750526 0.00292348
v 0.04281292 0.08750526 0.00760067
v 0.04281292 0.08750526 0.01868516
v 0.04281292 0.08750526 0.02336236
v 0.04281292 0.09218731 0.00405870
v 0.04281292 0.09218731 0.02222714
v 0.04281292 0.07728582 0.01314292
v 0.04281292 0.08027896 0.00591661
v 0.04281292 0.08027896 0.02036922
v 0.04281292 0.08282383 0.00405870
v 0.04281292 0.08282383 0.02222714
v 0.01311535 0.09693659 0.01756751
v 0.01311535 0.09693659 0.00871833
v -0.00805288 0.07464221 0.01468765
v -0.00805288 0.07464221 0.01159819
v 0.04248883 0.09533128 0.02096894
v 0.04248883 0.09533128 0.00531690
v 0.04248883 0.07967924 0.02096894
v 0.04248883 0.07967924 0.00531690
v 0.04248883 0.07741364 0.01768684
v 0.04248883 0.07741364 0.00859899
v 0.04248883 0.09857279 0.01314292
v 0.04248883 0.09759749 0.01768684
v 0.04248883 0.09759749 0.00859899
v 0.04248883 0.08296134 0.02323454
v 0.04248883 0.08296134 0.00305129
v 0.04248883 0.08750526 0.00207539
v 0.04248883 0.08750526 0.02421045
v 0.04248883 0.09204919 0.02323454
v 0.04248883 0.09204919 0.00305129
v 0.04248883 0.07643773 0.01314292
v -0.00577941 -0.09978858 0.00819312
v -0.00577941 -0.09978858 0.01809271
v -0.01079463 0.07143523 0.01545516
v -0.01079463 0.07143523 0.01545516
v -0.01079463 0.07143523 0.01083067
v -0.01079463 0.07143523 0.01083067
v -0.02219291 0.08377005 0.02010328
v -0.02219291 0.08377005 0.00618255
v 0.00083627 -0.09921189 0.01856158
v 0.00083627 -0.09921189 0.00772425
v -0.02211537 0.09577532 0.01314292
v -0.02211537 0.09577532 0.01314292
v -0.00583211 0.07235420 0.01851918
v -0.00583211 0.07235420 0.00776605
v -0.00850722 0.07464221 0.01314292
v -0.00850722 0.07464221 0.01314292
v 0.00622526 -0.09921189 0.01314292
v -0.01115749 0.07235420 0.01314292
v -0.02220684 0.08737866 0.02059457
v -0.02220684 0.08737866 0.00569127
v 0.04163287 0.07609365 0.01314292
v 0.04163287 0.07609365 0.01314292
v 0.04163287 0.07609365 0.01314292
v 0.04163287 0.07701019 0.00866320
v 0.04163287 0.07701019 0.00866320
v 0.04163287 0.07701019 0.01762263
v 0.04163287 0.07701019 0.01762263
v 0.04163287 0.09557481 0.02121186
v 0.04163287 0.09557481 0.02121186
v 0.04163287 0.09557481 0.00507398
v 0.04163287 0.09557481 0.00507398
v 0.04163287 0.09891687 0.01314292
v 0.04163287 0.09891687 0.01314292
v 0.04163287 0.09198498 0.00264724
v 0.04163287 0.09198498 0.00264724
v 0.04163287 0.09198498 0.02363859
v 0.04163287 0.09198498 0.02363859
v 0.04163287 0.07943633 0.02121186
v 0.04163287 0.07943633 0.02121186
v 0.04163287 0.07943633 0.00507398
v 0.04163287 0.07943633 0.00507398
v 0.04163287 0.09800094 0.00866320
v 0.04163287 0.09800094 0.00866320
v 0.04163287 0.09800094 0.01762263
v 0.04163287 0.09800094 0.01762263
v 0.04163287 0.08750526 0.00173131
v 0.04163287 0.08750526 0.00173131
v 0.04163287 0.08750526 0.02455453
v 0.04163287 0.08750526 0.02455453
v 0.04163287 0.08302555 0.00264724
v 0.04163287 0.08302555 0.00264724
v 0.04163287 0.08302555 0.02363859
v 0.04163287 0.08302555 0.02363859
v 0.00542200 0.07235420 0.01091306
v 0.00542200 0.07235420 0.01537278
v -0.01124896 0.07394799 0.01314292
v -0.01124896 0.07394799 0.01314292
v -0.01124896 0.07394799 0.01314292
v -0.01124896 0.07394799 0.01314292
v -0.01520347 0.07483909 0.01314292
v -0.01520347 0.07483909 0.01314292
v 0.00377974 0.07143523 0.01741606
v 0.00377974 0.07143523 0.01741606
v 0.00377974 0.07143523 0.00886977
v 0.00377974 0.07143523 0.00886977
v -0.00675471 0.07273462 0.01599370
v -0.00675471 0.07273462 0.01599370
v -0.00675471 0.07273462 0.01029214
v -0.00675471 0.07273462 0.01029214
v -0.01112477 0.10000000 0.01314292
v -0.01112477 0.10000000 0.01314292
v -0.01112477 0.10000000 0.01314292
v -0.01112477 0.10000000 0.01314292
v 0.00042859 0.07273462 0.00829853
v 0.00042859 0.07273462 0.01798731
v -0.02814466 0.08230770 0.00863170
v -0.02814466 0.08230770 0.00863170
v -0.02814466 0.08230770 0.00863170
v -0.02814466 0.08230770 0.01765413
v -0.02814466 0.08230770 0.01765413
v -0.02814466 0.08230770 0.01765413
v 0.00557102 -0.09921189 0.01091972
v 0.00557102 -0.09921189 0.01536612
v -0.00951038 -0.00134815 0.01509594
v -0.00951038 -0.00134815 0.01509594
v -0.00951038 -0.00134815 0.01118990
v -0.00951038 -0.00134815 0.01118990
v 0.00443277 -0.00134815 0.01509594
v 0.00443277 -0.00134815 0.01509594
v 0.00443277 -0.00134815 0.01118990
v 0.00443277 -0.00134815 0.01118990
v 0.01310324 0.08737926 0.02423892
v 0.01310324 0.08737926 0.00204692
v -0.01504354 0.07490512 0.00772607
v -0.01504354 0.07490512 0.01855977
v -0.00550620 0.07273462 0.00829853
v -0.00550620 0.07273462 0.01798731
v -0.01503264 0.09228544 0.02417228
v -0.01503264 0.09228544 0.00211355
v 0.00167709 0.07273462 0.01599370
v 0.00167709 0.07273462 0.01599370
v 0.00167709 0.07273462 0.01029214
v 0.00167709 0.07273462 0.01029214
v -0.01508534 0.09841105 0.00844634
v -0.01508534 0.09841105 0.01783950
v -0.02214142 0.07828172 0.01314292
v -0.02214142 0.07828172 0.01314292
v -0.02219412 0.09079947 0.00618316
v -0.02219412 0.09079947 0.02010268
v -0.00885735 0.07143523 0.01741606
v -0.00885735 0.07143523 0.01741606
v -0.00885735 0.07143523 0.00886977
v -0.00885735 0.07143523 0.00886977
v -0.03779346 0.08089443 0.00651997
v -0.03779346 0.08089443 0.00651997
v -0.03779346 0.08089443 0.01976587
v -0.03779346 0.08089443 0.01976587
v -0.03779346 0.09413972 0.00651997
v -0.03779346 0.09413972 0.00651997
v -0.03779346 0.09413972 0.01976587
v -0.03779346 0.09413972 0.01976587
v 0.01307234 0.07623238 0.01314292
v 0.01307234 0.07623238 0.01314292
v -0.01049961 0.07235420 0.01091306
v -0.01049961 0.07235420 0.01537278
v 0.00607987 0.07235420 0.01314292
v 0.00817343 0.07417940 0.01924732
v 0.00817343 0.07417940 0.01924732
v 0.00817343 0.07417940 0.00703851
v 0.00817343 0.07417940 0.00703851
v 0.00075449 0.07235420 0.01851918
v 0.00075449 0.07235420 0.00776605
v -0.00591389 -0.09921189 0.01856158
v -0.00591389 -0.09921189 0.00772425
v 0.00571701 0.07143523 0.01545516
v 0.00571701 0.07143523 0.01545516
v 0.00571701 0.07143523 0.01083067
v 0.00571701 0.07143523 0.01083067
v -0.01130287 -0.09921189 0.01314292
v 0.00070179 -0.09978858 0.00819312
v 0.00070179 -0.09978858 0.01809271
v -0.02814284 0.09425543 0.01314292
v -0.02814284 0.09425543 0.01314292
v -0.02814284 0.09425543 0.01314292
v -0.02814284 0.09425543 0.01314292
v -0.02814284 0.09425543 0.01314292
v -0.03159334 0.07866275 0.01692235
v -0.03159334 0.07866275 0.01692235
v -0.03159334 0.07866275 0.01692235
v -0.03159334 0.07866275 0.00936348
v -0.03159334 0.07866275 0.00936348
v -0.03159334 0.07866275 0.00936348
v -0.03159334 0.09637140 0.01692235
v -0.03159334 0.09637140 0.01692235
v -0.03159334 0.09637140 0.01692235
v -0.03159334 0.09637140 0.00936348
v -0.03159334 0.09637140 0.00936348
v -0.03159334 0.09637140 0.00936348
v -0.01502779 0.08209629 0.02417531
v -0.01502779 0.08209629 0.00211052
v -0.02216141 0.09355575 0.00768003
v -0.02216141 0.09355575 0.01860581
v -0.01147491 0.07143523 0.01314292
v -0.01147491 0.07143523 0.01314292
v -0.01147491 0.07143523 0.01314292
v -0.02814587 0.08466357 0.00736987
v -0.02814587 0.08466357 0.00736987
v -0.02814587 0.08466357 0.00736987
v -0.02814587 0.08466357 0.01891596
v -0.02814587 0.08466357 0.01891596
v -0.02814587 0.08466357 0.01891596
v -0.02814587 0.08748406 0.00695249
v -0.02814587 0.08748406 0.00695249
v -0.02814587 0.08748406 0.00695249
v -0.02814587 0.08748406 0.01933334
v -0.02814587 0.08748406 0.01933334
v -0.02814587 0.08748406 0.01933334
v -0.00542684 -0.00134815 0.01785767
v -0.00542684 -0.00134815 0.01785767
v -0.00542684 -0.00134815 0.00842816
v -0.00542684 -0.00134815 0.00842816
v -0.00482046 0.07273462 0.00941800
v -0.00482046 0.07273462 0.00941800
v -0.00482046 0.07273462 0.01686783
v -0.00482046 0.07273462 0.01686783
v -0.00559586 -0.10000000 0.01745120
v -0.00559586 -0.10000000 0.01745120
v -0.00559586 -0.10000000 0.00883464
v -0.00559586 -0.10000000 0.00883464
v -0.00675895 0.07464221 0.01599673
v -0.00675895 0.07464221 0.01028911
v 0.00525965 0.07273462 0.01314292
v -0.00595872 0.07143523 0.01872575
v -0.00595872 0.07143523 0.01872575
v -0.00595872 0.07143523 0.00756009
v -0.00595872 0.07143523 0.00756009
v 0.00295831 0.07273462 0.00942588
v 0.00295831 0.07273462 0.01685996
v -0.04065757 0.09449531 0.01016432
v -0.04065757 0.09449531 0.01612152
v -0.04065757 0.08453817 0.00616438
v -0.04065757 0.08453817 0.02012146
v -0.04065757 0.08053884 0.01016432
v -0.04065757 0.08053884 0.01612152
v -0.04065757 0.09049537 0.00616438
v -0.04065757 0.09049537 0.02012146
v 0.00342354 0.07273462 0.01314292
v 0.00342354 0.07273462 0.01314292
v 0.00342354 0.07273462 0.01314292
v -0.00886644 -0.09842377 0.00886432
v -0.00886644 -0.09842377 0.00886432
v -0.00886644 -0.09842377 0.01742151
v -0.00886644 -0.09842377 0.01742151
v -0.00886644 -0.06897397 0.00886432
v -0.00886644 -0.06897397 0.01742151
v 0.00302191 -0.10000000 0.00996562
v 0.00302191 -0.10000000 0.00996562
v 0.00302191 -0.10000000 0.01632021
v 0.00302191 -0.10000000 0.01632021
v 0.00355076 0.07235420 0.01726098
v 0.00355076 0.07235420 0.00902485
v 0.00572186 -0.09978858 0.01314292
v 0.00296921 0.07273462 0.01160001
v 0.00296921 0.07273462 0.01160001
v 0.00296921 0.07273462 0.01468583
v 0.00296921 0.07273462 0.01468583
v -0.04066060 0.09296391 0.01858945
v -0.04066060 0.09296391 0.00769639
v -0.04066060 0.08207024 0.01858945
v -0.04066060 0.08207024 0.00769639
v -0.03160243 0.09130227 0.02201087
v -0.03160243 0.09130227 0.02201087
v -0.03160243 0.09130227 0.02201087
v -0.03160243 0.09130227 0.00427496
v -0.03160243 0.09130227 0.00427496
v -0.03160243 0.09130227 0.00427496
v -0.03160243 0.08373188 0.02201087
v -0.03160243 0.08373188 0.02201087
v -0.03160243 0.08373188 0.02201087
v -0.03160243 0.08373188 0.00427496
v -0.03160243 0.08373188 0.00427496
v -0.03160243 0.08373188 0.00427496
v -0.04222532 0.08556920 0.01755539
v -0.04222532 0.08556920 0.00873044
v -0.04222532 0.08946495 0.01755539
v -0.04222532 0.08946495 0.00873044
v -0.04222532 0.09192925 0.01119535
v -0.04222532 0.09192925 0.01509049
v -0.04222532 0.08310430 0.01119535
v -0.04222532 0.08310430 0.01509049
v -0.00963396 -0.10000000 0.01151823
v -0.00963396 -0.10000000 0.01151823
v -0.00963396 -0.10000000 0.01476761
v -0.00963396 -0.10000000 0.01476761
v -0.02211779 0.07873120 0.01632385
v -0.02211779 0.07873120 0.00996199
v -0.00253911 0.07273462 0.01717496
v -0.00253911 0.07273462 0.01717496
v -0.00253911 0.07273462 0.00911087
v -0.00253911 0.07273462 0.00911087
v -0.00253911 0.07273462 0.00790538
v -0.00253911 0.07273462 0.01837985
v -0.00253911 -0.09921189 0.01901592
v -0.00253911 -0.09921189 0.00726992
v -0.00253911 0.07464221 0.01717860
v -0.00253911 0.07464221 0.00910724
v -0.00253911 0.07143523 0.01918553
v -0.00253911 0.07143523 0.01918553
v -0.00253911 0.07143523 0.00710030
v -0.00253911 0.07143523 0.00710030
v -0.00253911 -0.09978858 0.00775757
v -0.00253911 -0.09978858 0.01852827
v -0.00253911 -0.09842377 0.00709182
v -0.00253911 -0.09842377 0.00709182
v -0.00253911 -0.09842377 0.01919401
v -0.00253911 -0.09842377 0.01919401
v -0.00253911 -0.06897397 0.00709182
v -0.00253911 -0.06897397 0.01919401
v -0.00253911 0.07235420 0.00732504
v -0.00253911 0.07235420 0.01896079
v -0.00253911 -0.10000000 0.01314292
v -0.00253911 -0.10000000 0.01786252
v -0.00253911 -0.10000000 0.01786252
v -0.00253911 -0.10000000 0.00842332
v -0.00253911 -0.10000000 0.00842332
v -0.00253911 -0.00134815 0.00803986
v -0.00253911 -0.00134815 0.00803986
v -0.00253911 -0.00134815 0.01824598
v -0.00253911 -0.00134815 0.01824598
v 0.00279717 -0.00134815 0.00953431
v 0.00279717 -0.00134815 0.00953431
v 0.00279717 -0.00134815 0.01675153
v 0.00279717 -0.00134815 0.01675153
v 0.00500704 -0.00134815 0.01314292
v 0.00500704 -0.00134815 0.01314292
v 0.00500704 -0.00134815 0.01314292
v 0.00500704 -0.00134815 0.01314292
v 0.00805591 0.07419333 0.01314292
v 0.00805591 0.07419333 0.01314292
v 0.00805591 0.07419333 0.01314292
v 0.00805591 0.07419333 0.01314292
v -0.00804743 0.07273462 0.01160001
v -0.00804743 0.07273462 0.01160001
v -0.00804743 0.07273462 0.01468583
v -0.00804743 0.07273462 0.01468583
v -0.00025473 0.07464221 0.01687147
v -0.00025473 0.07464221 0.00941437
v -0.01112417 0.08736169 0.00011510
v -0.01112417 0.08736169 0.00011510
v -0.01112417 0.08736169 0.02617074
v -0.01112417 0.08736169 0.02617074
v -0.01112417 0.09925005 0.00796232
v -0.01112417 0.09925005 0.00796232
v -0.01112417 0.09925005 0.01832351
v -0.01112417 0.09925005 0.01832351
v -0.01112417 0.09682634 0.02261726
v -0.01112417 0.09682634 0.02261726
v -0.01112417 0.09682634 0.00366858
v -0.01112417 0.09682634 0.00366858
v -0.01112417 0.08167830 0.02528267
v -0.01112417 0.08167830 0.02528267
v -0.01112417 0.08167830 0.00100317
v -0.01112417 0.08167830 0.00100317
v -0.01112417 0.09266587 0.02528267
v -0.01112417 0.09266587 0.02528267
v -0.01112417 0.09266587 0.00100317
v -0.01112417 0.09266587 0.00100317
v 0.00368584 -0.09921189 0.01727431
v 0.00368584 -0.09921189 0.00901152
v -0.01148703 -0.09842377 0.01314292
v -0.01148703 -0.09842377 0.01314292
v -0.01148703 -0.09842377 0.01314292
v -0.01148703 -0.06897397 0.01314292
v -0.01148703 -0.06897397 0.01314292
v -0.04281292 0.08751677 0.01314292
v 0.00088050 0.07143523 0.01872575
v 0.00088050 0.07143523 0.01872575
v 0.00088050 0.07143523 0.00756009
v 0.00088050 0.07143523 0.00756009
v 0.00034862 -0.00134815 0.01785767
v 0.00034862 -0.00134815 0.01785767
v 0.00034862 -0.00134815 0.00842816
v 0.00034862 -0.00134815 0.00842816
v -0.02814708 0.08037710 0.01314292
v -0.02814708 0.08037710 0.01314292
v -0.02814708 0.08037710 0.01314292
v -0.02814708 0.08037710 0.01314292
v -0.02814708 0.08037710 0.01314292
v 0.00639669 0.07143523 0.01314292
v 0.00639669 0.07143523 0.01314292
v 0.00639669 0.07143523 0.01314292
v 0.00514213 -0.09978858 0.01511290
v 0.00514213 -0.09978858 0.01117293
v -0.01080614 -0.09842377 0.01545880
v -0.01080614 -0.09842377 0.01545880
v -0.01080614 -0.09842377 0.01082704
v -0.01080614 -0.09842377 0.01082704
v -0.01080614 -0.06897397 0.01545880
v -0.01080614 -0.06897397 0.01082704
v 0.01311475 0.07665278 0.01789341
v 0.01311475 0.07665278 0.00839242
v 0.00465993 0.07273462 0.01515955
v 0.00465993 0.07273462 0.01112629
v -0.03779285 0.09662219 0.01314292
v -0.03779285 0.09662219 0.01314292
v -0.03779285 0.09600188 0.01676425
v -0.03779285 0.09600188 0.01676425
v -0.03779285 0.09600188 0.00952159
v -0.03779285 0.09600188 0.00952159
v -0.03779285 0.07903227 0.01676425
v -0.03779285 0.07903227 0.01676425
v -0.03779285 0.07903227 0.00952159
v -0.03779285 0.07903227 0.00952159
v -0.03779285 0.07841196 0.01314292
v -0.03779285 0.07841196 0.01314292
v -0.03779285 0.07841196 0.01314292
v -0.00596296 -0.09842377 0.01873363
v -0.00596296 -0.09842377 0.01873363
v -0.00596296 -0.09842377 0.00755221
v -0.00596296 -0.09842377 0.00755221
v -0.00596296 -0.06897397 0.01873363
v -0.00596296 -0.06897397 0.00755221
v -0.01011131 -0.10000000 0.01314292
v -0.01011131 -0.10000000 0.01314292
v -0.00848299 -0.09978858 0.00941497
v -0.00848299 -0.09978858 0.01687086
v -0.01504899 0.07766322 0.00459542
v -0.01504899 0.07766322 0.02169042
v 0.00088534 -0.09842377 0.01873363
v 0.00088534 -0.09842377 0.01873363
v 0.00088534 -0.09842377 0.00755221
v 0.00088534 -0.09842377 0.00755221
v 0.00088534 -0.06897397 0.01873363
v 0.00088534 -0.06897397 0.00755221
v -0.03160364 0.08751677 0.00362436
v -0.03160364 0.08751677 0.00362436
v -0.03160364 0.08751677 0.00362436
v -0.03160364 0.08751677 0.02266148
v -0.03160364 0.08751677 0.02266148
v -0.03160364 0.08751677 0.02266148
v -0.00973755 0.07273462 0.01515955
v -0.00973755 0.07273462 0.01112629
v 0.00340537 -0.09978858 0.00941497
v 0.00340537 -0.09978858 0.01687086
v 0.00817404 0.09902834 0.00791568
v 0.00817404 0.09902834 0.00791568
v 0.00817404 0.09902834 0.01837016
v 0.00817404 0.09902834 0.01837016
v 0.00817404 0.09975103 0.01314292
v 0.00817404 0.09975103 0.01314292
v 0.00817404 0.09975103 0.01314292
v 0.00817404 0.09975103 0.01314292
v 0.00817404 0.08736957 0.02628584
v 0.00817404 0.08736957 0.02628584
v 0.00817404 0.08736957 0.00000000
v 0.00817404 0.08736957 0.00000000
v 0.00817404 0.08178068 0.00089594
v 0.00817404 0.08178068 0.00089594
v 0.00817404 0.08178068 0.02538929
v 0.00817404 0.08178068 0.02538929
v 0.00817404 0.07708955 0.02259848
v 0.00817404 0.07708955 0.02259848
v 0.00817404 0.07708955 0.00368736
v 0.00817404 0.07708955 0.00368736
v 0.00817404 0.09259015 0.00089594
v 0.00817404 0.09259015 0.00089594
v 0.00817404 0.09259015 0.02538929
v 0.00817404 0.09259015 0.02538929
v 0.00817404 0.09666944 0.00358438
v 0.00817404 0.09666944 0.00358438
v 0.00817404 0.09666944 0.02270146
v 0.00817404 0.09666944 0.02270146
v 0.00503370 -0.10000000 0.01314292
v 0.00503370 -0.10000000 0.01314292
v -0.02814224 0.08083688 0.01564174
v -0.02814224 0.08083688 0.01564174
v -0.02814224 0.08083688 0.01564174
v -0.02814224 0.08083688 0.01064409
v -0.02814224 0.08083688 0.01064409
v -0.02814224 0.08083688 0.01064409
v 0.00572852 -0.09842377 0.01545880
v 0.00572852 -0.09842377 0.01545880
v 0.00572852 -0.09842377 0.01082704
v 0.00572852 -0.09842377 0.01082704
v 0.00572852 -0.06897397 0.01545880
v 0.00572852 -0.06897397 0.01082704
v -0.01021975 -0.09978858 0.01511290
v -0.01021975 -0.09978858 0.01117293
v 0.01310566 0.09165907 0.02348715
v 0.01310566 0.09165907 0.00279869
v 0.01310566 0.08283776 0.02348715
v 0.01310566 0.08283776 0.00279869
v -0.02814527 0.09246354 0.00862928
v -0.02814527 0.09246354 0.00862928
v -0.02814527 0.09246354 0.00862928
v -0.02814527 0.09246354 0.01765656
v -0.02814527 0.09246354 0.01765656
v -0.02814527 0.09246354 0.01765656
v 0.01311657 0.09753207 0.01314292
v 0.01311657 0.09753207 0.01314292
v 0.00640941 -0.09842377 0.01314292
v 0.00640941 -0.09842377 0.01314292
v 0.00640941 -0.09842377 0.01314292
v 0.00640941 -0.06897397 0.01314292
v 0.00640941 -0.06897397 0.01314292
v -0.01064924 -0.09921189 0.01091972
v -0.01064924 -0.09921189 0.01536612
v -0.00876346 -0.09921189 0.01727431
v -0.00876346 -0.09921189 0.00901152
v -0.03159879 0.09443413 0.00622556
v -0.03159879 0.09443413 0.00622556
v -0.03159879 0.09443413 0.00622556
v -0.03159879 0.09443413 0.02006027
v -0.03159879 0.09443413 0.02006027
v -0.03159879 0.09443413 0.02006027
v -0.03159879 0.08060002 0.00622556
v -0.03159879 0.08060002 0.00622556
v -0.03159879 0.08060002 0.00622556
v -0.03159879 0.08060002 0.02006027
v -0.03159879 0.08060002 0.02006027
v -0.03159879 0.08060002 0.02006027
v 0.02128303 0.07974891 0.01314292
v 0.02128303 0.07974891 0.01314292
v 0.02128303 0.07974891 0.01314292
v 0.02128303 0.07974891 0.01314292
v 0.02128303 0.08744408 0.00548894
v 0.02128303 0.08744408 0.00548894
v 0.02128303 0.08744408 0.02079690
v 0.02128303 0.08744408 0.02079690
v 0.02128303 0.09441959 0.01314292
v 0.02128303 0.09441959 0.01314292
v 0.02128303 0.09441959 0.01314292
v 0.02128303 0.09441959 0.01314292
v 0.02128303 0.09399797 0.01008678
v 0.02128303 0.09399797 0.01008678
v 0.02128303 0.09399797 0.01619906
v 0.02128303 0.09399797 0.01619906
v 0.02128303 0.08186004 0.01872454
v 0.02128303 0.08186004 0.01872454
v 0.02128303 0.08186004 0.00756130
v 0.02128303 0.08186004 0.00756130
v 0.02128303 0.09036150 0.02028138
v 0.02128303 0.09036150 0.02028138
v 0.02128303 0.09036150 0.00600445
v 0.02128303 0.09036150 0.00600445
v 0.02128303 0.09265981 0.01872454
v 0.02128303 0.09265981 0.01872454
v 0.02128303 0.09265981 0.00756130
v 0.02128303 0.09265981 0.00756130
v 0.02128303 0.08440187 0.02028138
v 0.02128303 0.08440187 0.02028138
v 0.02128303 0.08440187 0.00600445
v 0.02128303 0.08440187 0.00600445
v 0.02128303 0.08027714 0.01008678
v 0.02128303 0.08027714 0.01008678
v 0.02128303 0.08027714 0.01619906
v 0.02128303 0.08027714 0.01619906
v -0.00482289 0.07464221 0.01687147
v -0.00482289 0.07464221 0.00941437
v -0.01509685 0.09911375 0.01314292
v -0.01509685 0.09911375 0.01314292
v -0.01505808 0.09615272 0.00454393
v -0.01505808 0.09615272 0.02174191
v -0.02212809 0.09523072 0.01013948
v -0.02212809 0.09523072 0.01614636
v -0.00787479 -0.00134815 0.00953431
v -0.00787479 -0.00134815 0.00953431
v -0.00787479 -0.00134815 0.01675153
v -0.00787479 -0.00134815 0.01675153
v 0.02523451 0.09194742 0.00272478
v 0.02523451 0.09194742 0.00272478
v 0.02523451 0.09194742 0.02356105
v 0.02523451 0.09194742 0.02356105
v 0.02523451 0.08752344 0.02432312
v 0.02523451 0.08752344 0.02432312
v 0.02523451 0.08752344 0.00196271
v 0.02523451 0.08752344 0.00196271
v 0.02523451 0.07710530 0.01758931
v 0.02523451 0.07710530 0.01758931
v 0.02523451 0.07710530 0.00869592
v 0.02523451 0.07710530 0.00869592
v 0.02523451 0.09547304 0.02127425
v 0.02523451 0.09547304 0.02127425
v 0.02523451 0.09547304 0.00501159
v 0.02523451 0.09547304 0.00501159
v 0.02523451 0.07634263 0.01314292
v 0.02523451 0.07634263 0.01314292
v 0.02523451 0.07634263 0.01314292
v 0.02523451 0.07634263 0.01314292
v 0.02523451 0.09754661 0.01758931
v 0.02523451 0.09754661 0.01758931
v 0.02523451 0.09754661 0.00869592
v 0.02523451 0.09754661 0.00869592
v 0.02523451 0.08307643 0.00272478
v 0.02523451 0.08307643 0.00272478
v 0.02523451 0.08307643 0.02356105
v 0.02523451 0.08307643 0.02356105
v 0.02523451 0.09820751 0.01314292
v 0.02523451 0.09820751 0.01314292
v 0.02523451 0.09820751 0.01314292
v 0.02523451 0.07939210 0.02127425
v 0.02523451 0.07939210 0.02127425
v 0.02523451 0.07939210 0.00501159
v 0.02523451 0.07939210 0.00501159
v -0.01008466 -0.00134815 0.01314292
v -0.01008466 -0.00134815 0.01314292
v -0.01008466 -0.00134815 0.01314292
v -0.01008466 -0.00134815 0.01314292
v -0.04222471 0.08751677 0.01787948
v -0.04222471 0.08751677 0.00840635
v -0.04222471 0.09225334 0.01314292
v -0.04222471 0.08278021 0.01314292
vt 0.59098900 0.10949800
vt 0.94631000 0.09481200
vt 0.94770600 0.76579900
vt 0.81627900 0.82652700
vt 0.94903200 0.77449600
vt 0.82593000 0.82522800
vt 0.98141700 0.27713100
vt 0.14318900 0.28409500
vt 0.14318900 0.37033600
vt 0.91735700 0.26430900
vt 0.92244700 0.25210700
vt 0.14193600 0.38127900
vt 0.98141600 0.26391000
vt 0.14193600 0.27315200
vt 0.14419800 0.35936800
vt 0.91735800 0.27753000
vt 0.97632700 0.28933300
vt 0.14419800 0.29506300
vt 0.31331600 0.04487900
vt 0.20535900 0.06161800
vt 0.15371100 0.06185000
vt 0.26166800 0.04464700
vt 0.97569200 0.30510400
vt 0.16401900 0.32721500
vt 0.63502900 0.00941200
vt 0.97000100 0.61646400
vt 0.15476800 0.23762800
vt 0.15476800 0.41680300
vt 0.97571300 0.37962500
vt 0.96044500 0.56033900
vt 0.70955000 0.00943400
vt 0.96049200 0.26331900
vt 0.94198600 0.25961500
vt 0.95678800 0.28182500
vt 0.93828200 0.27812100
vt 0.99173700 0.76341200
vt 0.97392100 0.07225700
vt 0.56337800 0.08694300
vt 0.96558300 0.22640300
vt 0.94161800 0.22276200
vt 0.49950100 0.69619000
vt 0.10135400 0.95113200
vt 0.87497700 0.13122600
vt 0.59480800 0.06399100
vt 0.81021100 0.09030300
vt 0.94249200 0.04930500
vt 0.81023100 0.10371100
vt 0.93826100 0.06190400
vt 0.87495800 0.14463400
vt 0.59903800 0.07659100
vt 0.90160800 0.73795700
vt 0.65093500 0.00862600
vt 0.99476600 0.11731300
vt 0.97490500 0.32101000
vt 0.54253300 0.13199900
vt 0.90382800 0.75260600
vt 0.98297900 0.75580700
vt 0.80660800 0.78955700
vt 0.82548200 0.78701700
vt 0.98575500 0.77328500
vt 0.94330000 0.22101800
vt 0.96449500 0.22423800
vt 0.49951600 0.69136500
vt 0.10137000 0.95595800
vt 0.13291800 0.13713200
vt 0.94614200 0.75598900
vt 0.95057000 0.78428400
vt 0.48065000 0.09870100
vt 0.22118600 0.13720600
vt 0.48072500 0.18697900
vt 0.95371000 0.22383100
vt 0.49378400 0.64898000
vt 0.09563700 0.99834200
vt 0.95293200 0.22896900
vt 0.49952700 0.68584800
vt 0.10138000 0.96147400
vt 0.83228800 0.81216100
vt 0.96148200 0.78058600
vt 0.95768200 0.75620000
vt 0.80669300 0.81560700
vt 0.09566900 0.96784900
vt 0.94654900 0.19830700
vt 0.49381600 0.67947300
vt 0.96812400 0.20158500
vt 0.97067600 0.27498100
vt 0.92809800 0.26645900
vt 0.95364800 0.24943300
vt 0.94512600 0.29200700
vt 0.54603000 0.11765500
vt 0.98205200 0.33398300
vt 0.89471800 0.76399100
vt 0.99126900 0.10297000
vt 0.88953300 0.72978200
vt 0.66390700 0.01577300
vt 0.69885800 0.24265300
vt 0.70670100 0.22699300
vt 0.71168000 0.25458500
vt 0.67005700 0.26367600
vt 0.66452600 0.23302400
vt 0.70070800 0.25814400
vt 0.69517700 0.22749300
vt 0.65712500 0.22788600
vt 0.66491900 0.27107600
vt 0.65355400 0.23658300
vt 0.65853300 0.26417600
vt 0.66637600 0.24851500
vt 0.65347800 0.25084200
vt 0.68261700 0.24558400
vt 0.67735900 0.21644600
vt 0.67968600 0.22934300
vt 0.68554800 0.26182500
vt 0.68787500 0.27472300
vt 0.66402600 0.22150000
vt 0.67361600 0.27464700
vt 0.71175600 0.24032600
vt 0.70031500 0.22009200
vt 0.70810900 0.26328200
vt 0.69161800 0.21652100
vt 0.70120800 0.26966800
vt 0.32463900 0.05002300
vt 0.21668200 0.05647400
vt 0.49951600 0.65378100
vt 0.10136900 0.99354100
vt 0.66349800 0.27312300
vt 0.65507800 0.22646500
vt 0.71015600 0.26470300
vt 0.70173600 0.21804500
vt 0.71474400 0.25373000
vt 0.70987100 0.22672200
vt 0.65037800 0.25140200
vt 0.65536300 0.26444600
vt 0.65049000 0.23743800
vt 0.70147900 0.27283800
vt 0.69076400 0.21345700
vt 0.67679900 0.21334500
vt 0.68843500 0.27782300
vt 0.67447100 0.27771200
vt 0.66375500 0.21833100
vt 0.71485600 0.23976600
vt 0.97571100 0.75139900
vt 0.98012800 0.77968600
vt 0.95990200 0.23372500
vt 0.65579200 0.28486600
vt 0.54133900 0.38967900
vt 0.94486500 0.23144100
vt 0.97237800 0.08302300
vt 0.56492200 0.09770900
vt 0.96080800 0.78491700
vt 0.95572500 0.75227200
vt 0.98161400 0.13259900
vt 0.55568500 0.14728500
vt 0.97079900 0.21886500
vt 0.93887400 0.21401800
vt 0.49950100 0.64895600
vt 0.10135400 0.99836600
vt 0.94298500 0.77098600
vt 0.95253500 0.23158400
vt 0.97191100 0.09463400
vt 0.56538700 0.10931900
vt 0.71773900 0.23924600
vt 0.86948700 0.29584700
vt 0.86948700 0.50939200
vt 0.71269200 0.22571600
vt 0.86990900 0.30945500
vt 0.71773900 0.25368700
vt 0.86990900 0.49578500
vt 0.87154200 0.42931800
vt 0.66181900 0.27554200
vt 0.87154200 0.37592100
vt 0.65265900 0.22478600
vt 0.87182500 0.40262000
vt 0.64749500 0.25192200
vt 0.87126800 0.36283800
vt 0.66275000 0.21550900
vt 0.87126800 0.44240100
vt 0.67451500 0.28070600
vt 0.71257500 0.26638300
vt 0.87028600 0.48270400
vt 0.70341500 0.21562600
vt 0.87028600 0.32253500
vt 0.87174700 0.38900500
vt 0.64749500 0.23748200
vt 0.87174700 0.41623400
vt 0.65254200 0.26545200
vt 0.87096000 0.34922700
vt 0.67627900 0.21046200
vt 0.87096000 0.45601200
vt 0.68895500 0.28070600
vt 0.87062900 0.33561600
vt 0.69071900 0.21046200
vt 0.87062900 0.46962300
vt 0.70248500 0.27565900
vt 0.95351900 0.18249700
vt 0.96616300 0.18441700
vt 0.87477300 0.11308400
vt 0.95260400 0.03446800
vt 0.81041500 0.07216100
vt 0.58469500 0.04915400
vt 0.57463100 0.05589400
vt 0.96266800 0.04120800
vt 0.97356200 0.18869900
vt 0.70379900 0.28477400
vt 0.58934700 0.38977100
vt 0.94517800 0.18438700
vt 0.49381000 0.65931100
vt 0.96263400 0.22011600
vt 0.09566300 0.98801100
vt 0.94630900 0.21763000
vt 0.87476400 0.23978600
vt 0.95220600 0.15206000
vt 0.81042900 0.19886400
vt 0.58509200 0.16674600
vt 0.94359400 0.19575100
vt 0.97170300 0.20002000
vt 0.87065300 0.76381500
vt 0.97928100 0.35832700
vt 0.54515100 0.09305100
vt 0.99214700 0.07836500
vt 0.86660100 0.73708000
vt 0.68825100 0.01300200
vt 0.94375900 0.76438800
vt 0.94571500 0.77703500
vt 0.52440900 0.38966300
vt 0.66016800 0.50298600
vt 0.54571400 0.17154900
vt 0.42389000 0.18082300
vt 0.47685400 0.38967100
vt 0.70768300 0.50298600
vt 0.59323100 0.17154900
vt 0.42388200 0.13326700
vt 0.28852900 0.04110500
vt 0.18057200 0.06539200
vt 0.58392000 0.06849900
vt 0.95337900 0.05381300
vt 0.94094900 0.21320600
vt 0.96905800 0.21747500
vt 0.94732400 0.10913700
vt 0.58997400 0.12382300
vt 0.49381000 0.68583500
vt 0.96634300 0.19559600
vt 0.95001800 0.19311100
vt 0.09566300 0.96148800
vt 0.58178800 0.14839500
vt 0.95551000 0.13370900
vt 0.98152800 0.05481900
vt 0.55577100 0.06950500
vt 0.56462600 0.12032200
vt 0.97267200 0.10563600
vt 0.96747300 0.22884000
vt 0.66405100 0.28477400
vt 0.54959800 0.38977100
vt 0.93909000 0.22452700
vt 0.97674700 0.25248400
vt 0.14046200 0.26266900
vt 0.93115300 0.24335800
vt 0.14046200 0.39176200
vt 0.14489800 0.30562600
vt 0.96762100 0.29808200
vt 0.92202700 0.28895600
vt 0.14489800 0.34880500
vt 0.13060500 0.04916100
vt 0.23856200 0.05733600
vt 0.94648900 0.22881000
vt 0.95913300 0.23072900
vt 0.96011700 0.18164200
vt 0.75237800 0.09100600
vt 0.24319800 0.03356600
vt 0.13524100 0.07293100
vt 0.93281100 0.13192700
vt 0.97377700 0.19920800
vt 0.94185300 0.19436100
vt 0.98116900 0.78175500
vt 0.97607800 0.74911700
vt 0.96778700 0.18178500
vt 0.71205800 0.28486600
vt 0.95275000 0.17950100
vt 0.59760700 0.38967900
vt 0.99389900 0.76306600
vt 0.95676600 0.75434100
vt 0.96117300 0.78263300
vt 0.53941900 0.13871100
vt 0.64639100 0.00262800
vt 0.90402800 0.74508300
vt 0.96890700 0.31646700
vt 0.99788000 0.12402600
vt 0.15698800 0.40553000
vt 0.70243500 0.01845400
vt 0.97193500 0.56033900
vt 0.94960200 0.56414200
vt 0.15698800 0.24890100
vt 0.98473200 0.37251100
vt 0.64191500 0.01860700
vt 0.98084300 0.61266200
vt 0.16388900 0.33870500
vt 0.16388900 0.31572600
vt 0.95851100 0.61646400
vt 0.98488700 0.31199100
vt 0.94703100 0.07947900
vt 0.59026800 0.09416500
vt 0.56298600 0.13015900
vt 0.97431300 0.11547300
vt 0.95208900 0.23451600
vt 0.64856900 0.28501000
vt 0.53411600 0.38953600
vt 0.87819900 0.76649500
vt 0.54628300 0.10088700
vt 0.98197100 0.35078500
vt 0.87301400 0.73228500
vt 0.68071000 0.01569200
vt 0.99101600 0.08620200
vt 0.54651400 0.10936700
vt 0.98288000 0.34229000
vt 0.88674400 0.76646500
vt 0.67221400 0.01660100
vt 0.88118400 0.72978200
vt 0.99078400 0.09468100
vt 0.67519300 0.50286300
vt 0.50937000 0.38953400
vt 0.42375600 0.16578400
vt 0.56074000 0.17167300
vt 0.09566900 0.98164900
vt 0.94452700 0.21164200
vt 0.49381600 0.66567300
vt 0.96610300 0.21491900
vt 0.97921300 0.77782500
vt 0.82984300 0.79400100
vt 0.97540000 0.75344300
vt 0.80424800 0.79744700
vt 0.49952700 0.65929800
vt 0.10138000 0.98802400
vt 0.95972000 0.18425800
vt 0.97343300 0.22040000
vt 0.67358500 0.28472000
vt 0.93590400 0.21470200
vt 0.55913200 0.38982500
vt 0.94815700 0.18898700
vt 0.96935200 0.19220800
vt 0.95392400 0.29233800
vt 0.93687900 0.28892600
vt 0.97100500 0.26618200
vt 0.93118100 0.25821000
vt 0.96189500 0.25251400
vt 0.94484900 0.24910200
vt 0.96759300 0.28322900
vt 0.92776800 0.27525800
vt 0.49378400 0.69616600
vt 0.95894100 0.18939500
vt 0.09563700 0.95115600
vt 0.13291300 0.17702800
vt 0.98630800 0.74976700
vt 0.52054400 0.09870600
vt 0.99075600 0.77804800
vt 0.22119400 0.17695200
vt 0.52047000 0.18697200
vt 0.95115000 0.76073800
vt 0.81105400 0.82259100
vt 0.95388800 0.77822600
vt 0.82992800 0.82005000
vt 0.97103300 0.19046400
vt 0.94706900 0.18682300
vt 0.94515000 0.77065100
vt 0.95437800 0.19001700
vt 0.09565300 0.95597600
vt 0.49380000 0.69134600
vt 0.96311500 0.19133300
vt 0.93067400 0.28319200
vt 0.96185800 0.28943400
vt 0.93691600 0.25200600
vt 0.96810000 0.25824800
vt 0.16274300 0.36078400
vt 0.99332800 0.59512400
vt 0.66074900 0.02968200
vt 0.16274300 0.29364700
vt 0.94092600 0.60404600
vt 0.99596100 0.33082500
vt 0.16037800 0.38368200
vt 0.98952000 0.57275700
vt 0.68360600 0.02957300
vt 0.16037800 0.27074900
vt 0.93711700 0.58168000
vt 0.99585200 0.35368200
vt 0.93858600 0.26312900
vt 0.96227800 0.26787100
vt 0.93649600 0.27356900
vt 0.96018800 0.27831100
vt 0.95223600 0.28361100
vt 0.94179600 0.28152100
vt 0.95697800 0.25991900
vt 0.94653800 0.25782900
vt 0.98781500 0.75957900
vt 0.81060600 0.78438000
vt 0.82025600 0.78308100
vt 0.98922500 0.76825900
vt 0.97657200 0.06329400
vt 0.56072800 0.07798000
vt 0.49381800 0.67257300
vt 0.96804800 0.20839500
vt 0.09567100 0.97474900
vt 0.94460300 0.20483100
vt 0.94105400 0.20429400
vt 0.97159800 0.20893300
vt 0.97121900 0.78485400
vt 0.96567200 0.74917300
vt 0.49953400 0.67257300
vt 0.10138700 0.97474900
vt 0.97674800 0.20971300
vt 0.68392500 0.28470300
vt 0.56947200 0.38984200
vt 0.93590400 0.20351300
vt 0.96603000 0.75147700
vt 0.97086100 0.78254900
vt 0.13290600 0.15708100
vt 0.96526600 0.74655400
vt 0.50059600 0.09869400
vt 0.97162600 0.78747400
vt 0.22115000 0.15708000
vt 0.50059700 0.18693500
vt 0.93896700 0.20397700
vt 0.97368400 0.20924900
vt 0.81826800 0.80480400
vt 0.83228700 0.80291700
vt 0.97054100 0.78049800
vt 0.80424900 0.80669100
vt 0.96634900 0.75352800
vt 0.56947200 0.17168800
vt 0.42373900 0.15704500
vt 0.50063100 0.38951900
vt 0.68392500 0.50284800
vt 0.42380000 0.14024900
vt 0.58625600 0.17162700
vt 0.70070900 0.50290900
vt 0.48383500 0.38958600
vt 0.47074500 0.38980100
vt 0.59933000 0.17142800
vt 0.42401100 0.12715800
vt 0.71378200 0.50310700
vt 0.75255600 0.07270800
vt 0.93263200 0.11362800
vt 0.12072000 0.06194300
vt 0.22867700 0.04455400
vt 0.94953700 0.22189300
vt 0.09565300 0.99352200
vt 0.49380000 0.65380000
vt 0.95827400 0.22320900
vt 0.49953200 0.67948000
vt 0.10138600 0.96784200
vt 0.87493300 0.17839800
vt 0.60291900 0.10959100
vt 0.93438000 0.09490500
vt 0.81025700 0.13747500
vt 0.59278500 0.15319000
vt 0.87475900 0.22409800
vt 0.81043300 0.18317600
vt 0.94451300 0.13850400
vt 0.81038100 0.16839900
vt 0.93884100 0.12501000
vt 0.87481100 0.20932100
vt 0.59845700 0.13969700
vt 0.93520100 0.07793800
vt 0.81023300 0.12023500
vt 0.87495600 0.16115700
vt 0.60209800 0.09262400
vt 0.93554300 0.11074100
vt 0.81031000 0.15359200
vt 0.87488100 0.19451400
vt 0.60175600 0.12542700
vt 0.95183800 0.78201900
vt 0.94804300 0.75775900
vt 0.13293100 0.19257300
vt 0.99634000 0.76267700
vt 0.53608100 0.09872400
vt 0.22132800 0.19245200
vt 0.53597300 0.18710100
vt 0.94938700 0.27072000
vt 0.69426600 0.28472000
vt 0.97674800 0.19852400
vt 0.57981300 0.38982500
vt 0.93921800 0.19282600
vt 0.69265700 0.50286300
vt 0.49189200 0.38953700
vt 0.42375300 0.14830700
vt 0.57820500 0.17167300
vt 0.53944700 0.07926400
vt 0.69904400 0.00264800
vt 0.86290700 0.75131500
vt 0.96892600 0.36911900
vt 0.99785300 0.06457800
vt 0.71928000 0.28500900
vt 0.96056200 0.17871000
vt 0.60483000 0.38953600
vt 0.94748600 0.77571200
vt 0.94585400 0.76510900
vt 0.52883800 0.09871500
vt 0.99560500 0.77047000
vt 0.13292200 0.18531800
vt 0.99321500 0.75550300
vt 0.52873600 0.18702200
vt 0.22124700 0.18521700
vt 0.25030100 0.04911500
vt 0.14234400 0.05738200
vt 0.96510100 0.18674000
vt 0.95384200 0.18503200
vt 0.14539400 0.32721500
vt 0.94297600 0.30274800
vt 0.93077600 0.29766100
vt 0.14527500 0.33822700
vt 0.95619500 0.30274800
vt 0.14527500 0.31620400
vt 0.13867000 0.40219400
vt 0.94257900 0.23869200
vt 0.13867000 0.25223700
vt 0.96799800 0.24377900
vt 0.13653600 0.41299800
vt 0.13653600 0.24143300
vt 0.95579800 0.23869200
vt 0.98234400 0.78407600
vt 0.51097400 0.09869800
vt 0.97649800 0.74655400
vt 0.13290800 0.16745900
vt 0.51093500 0.18694300
vt 0.22116200 0.16741800
vt 0.98979400 0.76372300
vt 0.81524000 0.78231100
vt 0.98393400 0.75401500
vt 0.98720400 0.77470900
vt 0.58754800 0.07983000
vt 0.94975100 0.06514300
vt 0.49021800 0.09869600
vt 0.96039100 0.78748100
vt 0.13291000 0.14670200
vt 0.95454900 0.74995200
vt 0.49025900 0.18694700
vt 0.22115700 0.14674200
vt 0.16168600 0.28218500
vt 0.93709900 0.59319000
vt 0.99726000 0.34226000
vt 0.67218400 0.03098100
vt 0.16168600 0.37224600
vt 0.99334600 0.58361300
vt 0.95880900 0.22819400
vt 0.94755000 0.22648600
vt 0.94969800 0.75932000
vt 0.95293700 0.78002500
vt 0.93259900 0.22384600
vt 0.22409500 0.07094800
vt 0.75259300 0.18292700
vt 0.33205200 0.03554900
vt 0.23740300 0.06252400
vt 0.75258700 0.19874200
vt 0.93260500 0.23966100
vt 0.34536000 0.04397300
vt 0.28858600 0.02514400
vt 0.75242100 0.13763000
vt 0.18062900 0.08135300
vt 0.93276900 0.17855000
vt 0.16374500 0.08043500
vt 0.93279100 0.16158700
vt 0.75239800 0.12066700
vt 0.27170200 0.02606200
vt 0.75239700 0.10430700
vt 0.25573100 0.02931200
vt 0.93279200 0.14522700
vt 0.14777400 0.07718400
vt 0.93271700 0.19442400
vt 0.19641900 0.08026300
vt 0.75247300 0.15350500
vt 0.30437600 0.02623400
vt 0.21064400 0.07697900
vt 0.93264700 0.20906500
vt 0.75254400 0.16814600
vt 0.31860100 0.02951800
vt 0.82129600 0.82729700
vt 0.94709600 0.77035100
vt 0.69427100 0.00858000
vt 0.86314700 0.74370300
vt 0.99433800 0.07131400
vt 0.97485900 0.36434600
vt 0.54296200 0.08600000
vt 0.86539100 0.75851300
vt 0.47235900 0.09871000
vt 0.94363600 0.77855800
vt 0.13292700 0.12883800
vt 0.94131400 0.76357200
vt 0.47246000 0.18703300
vt 0.22123700 0.12894000
vt 0.99106800 0.76894200
vt 0.98936700 0.75835500
vt 0.30151900 0.04204700
vt 0.19356200 0.06445000
vt 0.27475900 0.04189600
vt 0.16680200 0.06460100
vt 0.90074600 0.75926100
vt 0.97942500 0.32678500
vt 0.54474500 0.12512400
vt 0.89669300 0.73251400
vt 0.65671000 0.01314500
vt 0.99255400 0.11043900
vt 0.33597300 0.05715000
vt 0.22801600 0.04934700
vt 0.46510500 0.09871900
vt 0.13293600 0.12159400
vt 0.94054200 0.77136500
vt 0.46522600 0.18711400
vt 0.22131600 0.12170400
vt 0.99113900 0.75702700
vt 0.99315900 0.76965800
vt 0.98885800 0.77627500
vt 0.98503700 0.75202600
vt 0.94826500 0.61231900
vt 0.16348200 0.30468100
vt 0.99187400 0.32055100
vt 0.16348200 0.34975000
vt 0.65047600 0.02559500
vt 0.98914000 0.60535900
vt 0.15884700 0.25979600
vt 0.99168800 0.36392500
vt 0.94130500 0.57144400
vt 0.69384900 0.02541000
vt 0.15884700 0.39463500
vt 0.98218000 0.56448400
vt 0.97804500 0.33552700
vt 0.14669600 0.02781500
vt 0.25465300 0.07868200
vt 0.46064600 0.17513200
vt 0.18061700 0.03881700
vt 0.44318700 0.14516900
vt 0.28857400 0.06768000
vt 0.96058600 0.36549000
vt 0.97804500 0.39362400
vt 0.21315700 0.02781500
vt 0.32111400 0.07868200
vt 0.46064600 0.11703400
vt 0.20530900 0.03268500
vt 0.45301700 0.12225800
vt 0.31326600 0.07381200
vt 0.97041600 0.38840000
vt 0.27062900 0.07010000
vt 0.96494800 0.34799100
vt 0.16267200 0.03639700
vt 0.44754900 0.16266800
vt 0.96154200 0.37431700
vt 0.29741800 0.06832700
vt 0.44414300 0.13634200
vt 0.18946100 0.03817000
vt 0.96471600 0.38200700
vt 0.30548600 0.07028000
vt 0.44731700 0.12865200
vt 0.19752900 0.03621700
vt 0.96169000 0.35630900
vt 0.27935400 0.06822800
vt 0.44429000 0.15435100
vt 0.17139700 0.03826900
vt 0.15446600 0.03289300
vt 0.45316600 0.16961400
vt 0.26242300 0.07360400
vt 0.97056500 0.34104600
vt 0.49953200 0.66566600
vt 0.10138500 0.98165600
vt 0.57475500 0.16036200
vt 0.96254300 0.14567600
vt 0.58695900 0.13655300
vt 0.95034000 0.12186700
vt 0.55996100 0.13901100
vt 0.97733800 0.12432500
vt 0.42380500 0.17384200
vt 0.55268800 0.17162700
vt 0.66714100 0.50290900
vt 0.51742700 0.38958100
vt 0.82213300 0.36388500
vt 0.42872400 0.13168400
vt 0.82213300 0.44135500
vt 0.94612300 0.37897500
vt 0.82182800 0.45480600
vt 0.94471200 0.36559400
vt 0.82182800 0.35043300
vt 0.42731200 0.14506500
vt 0.82078500 0.49430700
vt 0.95933300 0.33000900
vt 0.82078500 0.31093200
vt 0.44193300 0.18065100
vt 0.82239400 0.42876300
vt 0.95077100 0.39068000
vt 0.82239400 0.37647600
vt 0.43337100 0.11997900
vt 0.82036500 0.29741700
vt 0.82036600 0.50782100
vt 0.45282100 0.18866800
vt 0.97022000 0.32199200
vt 0.82258300 0.41609300
vt 0.95903600 0.40028400
vt 0.82258300 0.38914600
vt 0.44163700 0.11037400
vt 0.82150000 0.33691600
vt 0.42894400 0.15848700
vt 0.82150000 0.46832300
vt 0.94634300 0.35217200
vt 0.82265000 0.40262000
vt 0.45269800 0.10268200
vt 0.97009700 0.40797600
vt 0.82115900 0.48131500
vt 0.95113100 0.34009000
vt 0.82115900 0.32392300
vt 0.43373100 0.17057000
vt 0.53961500 0.17142800
vt 0.65406900 0.50310700
vt 0.42402100 0.18693200
vt 0.53051800 0.38979200
vt 0.93672300 0.26818500
vt 0.96205100 0.27325500
vt 0.94685200 0.28338400
vt 0.95192200 0.25805600
f 709/709 474/474 385/385
f 383/383 474/474 709/709
f 32/32 474/474 383/383
f 387/387 474/474 35/35
f 710/710 474/474 387/387
f 386/386 474/474 710/710
f 34/34 474/474 386/386
f 382/382 474/474 33/33
f 708/708 474/474 382/382
f 384/384 474/474 708/708
f 35/35 474/474 384/384
f 388/388 474/474 32/32
f 711/711 474/474 388/388
f 389/389 474/474 711/711
f 33/33 474/474 389/389
f 385/385 474/474 34/34
f 420/420 328/328 423/423
f 420/420 356/356 4/4
f 420/420 4/4 572/572
f 420/420 572/572 6/6
f 420/420 6/6 358/358
f 420/420 358/358 77/77
f 420/420 77/77 421/421
f 420/420 421/421 326/326
f 420/420 326/326 59/59
f 420/420 59/59 392/392
f 420/420 392/392 523/523
f 420/420 523/523 391/391
f 420/420 391/391 58/58
f 420/420 58/58 328/328
f 420/420 80/80 356/356
f 420/420 423/423 80/80
f 498/498 353/353 349/349
f 498/498 349/349 495/495
f 417/417 520/520 517/517
f 417/417 517/517 414/414
f 533/533 69/69 65/65
f 533/533 65/65 530/530
f 585/585 604/604 601/601
f 585/585 601/601 582/582
f 354/354 497/497 493/493
f 354/354 493/493 351/351
f 520/520 354/354 351/351
f 520/520 351/351 517/517
f 603/603 584/584 580/580
f 603/603 580/580 600/600
f 584/584 70/70 68/68
f 584/584 68/68 580/580
f 497/497 473/473 471/471
f 497/497 471/471 493/493
f 521/521 416/416 412/412
f 521/521 412/412 519/519
f 532/532 417/417 414/414
f 532/532 414/414 528/528
f 353/353 521/521 519/519
f 353/353 519/519 349/349
f 416/416 533/533 530/530
f 416/416 530/530 412/412
f 472/472 498/498 495/495
f 472/472 495/495 469/469
f 400/400 235/235 322/322
f 400/400 322/322 399/399
f 666/666 251/251 335/335
f 666/666 335/335 320/320
f 235/235 61/61 208/208
f 235/235 208/208 322/322
f 61/61 541/541 441/441
f 61/61 441/441 208/208
f 541/541 74/74 71/71
f 541/541 71/71 441/441
f 74/74 540/540 444/444
f 74/74 444/444 71/71
f 540/540 62/62 206/206
f 540/540 206/206 444/444
f 62/62 236/236 324/324
f 62/62 324/324 206/206
f 236/236 401/401 397/397
f 236/236 397/397 324/324
f 401/401 214/214 84/84
f 401/401 84/84 397/397
f 214/214 337/337 240/240
f 214/214 240/240 84/84
f 337/337 501/501 365/365
f 337/337 365/365 240/240
f 501/501 331/331 347/347
f 501/501 347/347 365/365
f 331/331 502/502 362/362
f 331/331 362/362 347/347
f 70/70 532/532 528/528
f 70/70 528/528 68/68
f 521/521 319/319 426/426
f 521/521 426/426 416/416
f 425/425 408/408 477/477
f 425/425 477/477 482/482
f 429/429 230/230 585/585
f 429/429 585/585 69/69
f 230/230 435/435 604/604
f 230/230 604/604 585/585
f 433/433 227/227 584/584
f 433/433 584/584 603/603
f 227/227 432/432 70/70
f 227/227 70/70 584/584
f 432/432 480/480 532/532
f 432/432 532/532 70/70
f 480/480 427/427 417/417
f 480/480 417/417 532/532
f 427/427 318/318 520/520
f 427/427 520/520 417/417
f 318/318 668/668 354/354
f 318/318 354/354 520/520
f 668/668 223/223 497/497
f 668/668 497/497 354/354
f 223/223 707/707 473/473
f 223/223 473/473 497/497
f 706/706 226/226 498/498
f 706/706 498/498 472/472
f 226/226 665/665 353/353
f 226/226 353/353 498/498
f 665/665 319/319 521/521
f 665/665 521/521 353/353
f 481/481 429/429 69/69
f 481/481 69/69 533/533
f 416/416 426/426 481/481
f 416/416 481/481 533/533
f 502/502 336/336 241/241
f 502/502 241/241 362/362
f 229/229 277/277 490/490
f 229/229 490/490 434/434
f 479/479 475/475 407/407
f 479/479 407/407 428/428
f 224/224 143/143 303/303
f 224/224 303/303 705/705
f 482/482 477/477 203/203
f 482/482 203/203 430/430
f 436/436 488/488 275/275
f 436/436 275/275 228/228
f 428/428 407/407 333/333
f 428/428 333/333 317/317
f 704/704 304/304 144/144
f 704/704 144/144 225/225
f 213/213 400/400 399/399
f 213/213 399/399 82/82
f 336/336 213/213 82/82
f 336/336 82/82 241/241
f 228/228 275/275 202/202
f 228/228 202/202 431/431
f 317/317 333/333 250/250
f 317/317 250/250 667/667
f 225/225 144/144 251/251
f 225/225 251/251 666/666
f 430/430 203/203 277/277
f 430/430 277/277 229/229
f 431/431 202/202 475/475
f 431/431 475/475 479/479
f 667/667 250/250 143/143
f 667/667 143/143 224/224
f 81/81 446/446 76/76
f 81/81 76/76 242/242
f 363/363 64/64 42/42
f 363/363 42/42 348/348
f 346/346 41/41 63/63
f 346/346 63/63 364/364
f 364/364 63/63 75/75
f 364/364 75/75 239/239
f 239/239 75/75 445/445
f 239/239 445/445 83/83
f 83/83 445/445 404/404
f 83/83 404/404 396/396
f 396/396 404/404 657/657
f 396/396 657/657 323/323
f 323/323 657/657 329/329
f 323/323 329/329 205/205
f 205/205 329/329 122/122
f 205/205 122/122 443/443
f 443/443 122/122 154/154
f 443/443 154/154 72/72
f 73/73 155/155 123/123
f 73/73 123/123 442/442
f 442/442 123/123 330/330
f 442/442 330/330 207/207
f 207/207 330/330 658/658
f 207/207 658/658 321/321
f 321/321 658/658 405/405
f 321/321 405/405 398/398
f 242/242 76/76 64/64
f 242/242 64/64 363/363
f 398/398 405/405 446/446
f 398/398 446/446 81/81
f 400/400 213/213 271/271
f 400/400 271/271 418/418
f 418/418 271/271 478/478
f 418/418 478/478 409/409
f 213/213 336/336 360/360
f 213/213 360/360 271/271
f 271/271 360/360 204/204
f 271/271 204/204 478/478
f 61/61 235/235 153/153
f 61/61 153/153 40/40
f 40/40 153/153 334/334
f 40/40 334/334 252/252
f 541/541 61/61 40/40
f 541/541 40/40 263/263
f 263/263 40/40 252/252
f 263/263 252/252 145/145
f 74/74 541/541 263/263
f 74/74 263/263 157/157
f 157/157 263/263 145/145
f 157/157 145/145 302/302
f 540/540 74/74 157/157
f 540/540 157/157 264/264
f 264/264 157/157 302/302
f 264/264 302/302 142/142
f 62/62 540/540 264/264
f 62/62 264/264 39/39
f 39/39 264/264 142/142
f 39/39 142/142 249/249
f 236/236 62/62 39/39
f 236/236 39/39 152/152
f 152/152 39/39 249/249
f 152/152 249/249 332/332
f 401/401 236/236 152/152
f 401/401 152/152 419/419
f 419/419 152/152 332/332
f 419/419 332/332 406/406
f 214/214 401/401 419/419
f 214/214 419/419 270/270
f 270/270 419/419 406/406
f 270/270 406/406 476/476
f 337/337 214/214 270/270
f 337/337 270/270 359/359
f 359/359 270/270 476/476
f 359/359 476/476 201/201
f 501/501 337/337 359/359
f 501/501 359/359 194/194
f 194/194 359/359 201/201
f 194/194 201/201 274/274
f 331/331 501/501 194/194
f 331/331 194/194 265/265
f 265/265 194/194 274/274
f 265/265 274/274 489/489
f 502/502 331/331 265/265
f 502/502 265/265 193/193
f 193/193 265/265 489/489
f 193/193 489/489 276/276
f 336/336 502/502 193/193
f 336/336 193/193 360/360
f 360/360 193/193 276/276
f 360/360 276/276 204/204
f 235/235 400/400 418/418
f 235/235 418/418 153/153
f 153/153 418/418 409/409
f 153/153 409/409 334/334
f 320/320 335/335 408/408
f 320/320 408/408 425/425
f 518/518 413/413 403/403
f 518/518 403/403 273/273
f 273/273 403/403 410/410
f 273/273 410/410 140/140
f 140/140 410/410 424/424
f 140/140 424/424 327/327
f 66/66 583/583 221/221
f 66/66 221/221 468/468
f 468/468 221/221 492/492
f 468/468 492/492 542/542
f 542/542 492/492 3/3
f 542/542 3/3 355/355
f 583/583 602/602 156/156
f 583/583 156/156 221/221
f 221/221 156/156 361/361
f 221/221 361/361 492/492
f 492/492 361/361 573/573
f 492/492 573/573 3/3
f 602/602 581/581 222/222
f 602/602 222/222 156/156
f 156/156 222/222 491/491
f 156/156 491/491 361/361
f 361/361 491/491 5/5
f 361/361 5/5 573/573
f 581/581 67/67 467/467
f 581/581 467/467 222/222
f 222/222 467/467 543/543
f 222/222 543/543 491/491
f 491/491 543/543 357/357
f 491/491 357/357 5/5
f 67/67 529/529 148/148
f 67/67 148/148 467/467
f 467/467 148/148 280/280
f 467/467 280/280 543/543
f 543/543 280/280 78/78
f 543/543 78/78 357/357
f 529/529 415/415 402/402
f 529/529 402/402 148/148
f 148/148 402/402 411/411
f 148/148 411/411 280/280
f 280/280 411/411 422/422
f 280/280 422/422 78/78
f 415/415 516/516 272/272
f 415/415 272/272 402/402
f 402/402 272/272 141/141
f 402/402 141/141 411/411
f 411/411 141/141 325/325
f 411/411 325/325 422/422
f 516/516 352/352 607/607
f 516/516 607/607 272/272
f 272/272 607/607 525/525
f 272/272 525/525 141/141
f 141/141 525/525 60/60
f 141/141 60/60 325/325
f 352/352 494/494 606/606
f 352/352 606/606 607/607
f 607/607 606/606 586/586
f 607/607 586/586 525/525
f 525/525 586/586 393/393
f 525/525 393/393 60/60
f 494/494 470/470 278/278
f 494/494 278/278 606/606
f 606/606 278/278 36/36
f 606/606 36/36 586/586
f 586/586 36/36 522/522
f 586/586 522/522 393/393
f 470/470 496/496 605/605
f 470/470 605/605 278/278
f 278/278 605/605 587/587
f 278/278 587/587 36/36
f 36/36 587/587 390/390
f 36/36 390/390 522/522
f 496/496 350/350 608/608
f 496/496 608/608 605/605
f 605/605 608/608 524/524
f 605/605 524/524 587/587
f 587/587 524/524 57/57
f 587/587 57/57 390/390
f 350/350 518/518 273/273
f 350/350 273/273 608/608
f 608/608 273/273 140/140
f 608/608 140/140 524/524
f 524/524 140/140 327/327
f 524/524 327/327 57/57
f 531/531 66/66 468/468
f 531/531 468/468 149/149
f 149/149 468/468 542/542
f 149/149 542/542 279/279
f 279/279 542/542 355/355
f 279/279 355/355 79/79
f 413/413 531/531 149/149
f 413/413 149/149 403/403
f 403/403 149/149 279/279
f 403/403 279/279 410/410
f 410/410 279/279 79/79
f 410/410 79/79 424/424
f 69/69 585/585 582/582
f 69/69 582/582 65/65
f 343/343 368/368 33/33
f 343/343 33/33 389/389
f 86/86 345/345 384/384
f 86/86 384/384 708/708
f 342/342 87/87 711/711
f 342/342 711/711 388/388
f 345/345 366/366 35/35
f 345/345 35/35 384/384
f 88/88 338/338 386/386
f 88/88 386/386 710/710
f 341/341 86/86 708/708
f 341/341 708/708 382/382
f 338/338 367/367 34/34
f 338/338 34/34 386/386
f 85/85 340/340 383/383
f 85/85 383/383 709/709
f 339/339 88/88 710/710
f 339/339 710/710 387/387
f 369/369 342/342 388/388
f 369/369 388/388 32/32
f 87/87 343/343 389/389
f 87/87 389/389 711/711
f 113/113 102/102 104/104
f 113/113 104/104 99/99
f 118/118 109/109 110/110
f 118/118 110/110 101/101
f 164/164 679/679 702/702
f 164/164 702/702 180/180
f 183/183 689/689 681/681
f 183/183 681/681 167/167
f 101/101 110/110 108/108
f 101/101 108/108 95/95
f 110/110 99/99 106/106
f 110/110 106/106 108/108
f 95/95 108/108 111/111
f 95/95 111/111 100/100
f 108/108 106/106 98/98
f 108/108 98/98 111/111
f 677/677 166/166 178/178
f 677/677 178/178 700/700
f 675/675 669/669 173/173
f 675/675 173/173 185/185
f 683/683 169/169 173/173
f 683/683 173/173 669/669
f 109/109 113/113 99/99
f 109/109 99/99 110/110
f 683/683 691/691 181/181
f 683/683 181/181 169/169
f 167/167 681/681 671/671
f 167/167 671/671 175/175
f 191/191 695/695 700/700
f 191/191 700/700 178/178
f 175/175 671/671 673/673
f 175/175 673/673 187/187
f 181/181 691/691 697/697
f 181/181 697/697 171/171
f 686/686 162/162 166/166
f 686/686 166/166 677/677
f 171/171 697/697 689/689
f 171/171 689/689 183/183
f 394/394 37/37 218/218
f 394/394 218/218 576/576
f 594/594 55/55 663/663
f 594/594 663/663 300/300
f 146/146 310/310 218/218
f 146/146 218/218 37/37
f 483/483 578/578 395/395
f 483/483 395/395 246/246
f 679/679 164/164 161/161
f 679/679 161/161 685/685
f 96/96 101/101 95/95
f 96/96 95/95 115/115
f 115/115 95/95 100/100
f 115/115 100/100 97/97
f 97/97 100/100 119/119
f 97/97 119/119 117/117
f 146/146 158/158 316/316
f 146/146 316/316 310/310
f 248/248 92/92 316/316
f 248/248 316/316 158/158
f 306/306 311/311 159/159
f 306/306 159/159 147/147
f 674/674 672/672 641/641
f 674/674 641/641 628/628
f 682/682 645/645 641/641
f 682/682 641/641 672/672
f 642/642 588/588 231/231
f 642/642 231/231 627/627
f 642/642 646/646 19/19
f 642/642 19/19 588/588
f 680/680 687/687 624/624
f 680/680 624/624 654/654
f 649/649 638/638 701/701
f 649/649 701/701 696/696
f 635/635 120/120 19/19
f 635/635 19/19 646/646
f 653/653 500/500 21/21
f 653/653 21/21 639/639
f 89/89 247/247 159/159
f 89/89 159/159 311/311
f 301/301 597/597 92/92
f 301/301 92/92 248/248
f 663/663 55/55 281/281
f 663/663 281/281 151/151
f 266/266 560/560 47/47
f 266/266 47/47 45/45
f 663/663 243/243 661/661
f 663/663 661/661 300/300
f 453/453 455/455 570/570
f 453/453 570/570 546/546
f 439/439 268/268 500/500
f 439/439 500/500 261/261
f 21/21 500/500 268/268
f 21/21 268/268 563/563
f 262/262 623/623 655/655
f 262/262 655/655 499/499
f 556/556 554/554 232/232
f 556/556 232/232 591/591
f 499/499 22/22 561/561
f 499/499 561/561 267/267
f 650/650 590/590 22/22
f 650/650 22/22 637/637
f 217/217 306/306 147/147
f 217/217 147/147 38/38
f 245/245 394/394 576/576
f 245/245 576/576 487/487
f 38/38 395/395 578/578
f 38/38 578/578 217/217
f 53/53 597/597 301/301
f 53/53 301/301 664/664
f 267/267 440/440 262/262
f 267/267 262/262 499/499
f 100/100 111/111 112/112
f 100/100 112/112 119/119
f 111/111 98/98 114/114
f 111/111 114/114 112/112
f 116/116 118/118 101/101
f 116/116 101/101 96/96
f 180/180 702/702 693/693
f 180/180 693/693 189/189
f 693/693 675/675 185/185
f 693/693 185/185 189/189
f 98/98 105/105 103/103
f 98/98 103/103 114/114
f 106/106 107/107 105/105
f 106/106 105/105 98/98
f 99/99 104/104 107/107
f 99/99 107/107 106/106
f 688/688 678/678 656/656
f 688/688 656/656 621/621
f 701/701 638/638 656/656
f 701/701 656/656 678/678
f 232/232 625/625 652/652
f 232/232 652/652 591/591
f 591/591 652/652 639/639
f 591/591 639/639 21/21
f 670/670 676/676 626/626
f 670/670 626/626 643/643
f 654/654 640/640 703/703
f 654/654 703/703 680/680
f 589/589 644/644 625/625
f 589/589 625/625 232/232
f 554/554 565/565 589/589
f 554/554 589/589 232/232
f 568/568 20/20 589/589
f 568/568 589/589 565/565
f 20/20 648/648 644/644
f 20/20 644/644 589/589
f 567/567 552/552 231/231
f 567/567 231/231 588/588
f 591/591 21/21 563/563
f 591/591 563/563 556/556
f 627/627 231/231 590/590
f 627/627 590/590 650/650
f 631/631 598/598 120/120
f 631/631 120/120 635/635
f 499/499 655/655 637/637
f 499/499 637/637 22/22
f 653/653 622/622 261/261
f 653/653 261/261 500/500
f 20/20 121/121 633/633
f 20/20 633/633 648/648
f 676/676 694/694 651/651
f 676/676 651/651 626/626
f 640/640 651/651 694/694
f 640/640 694/694 703/703
f 690/690 699/699 629/629
f 690/690 629/629 636/636
f 643/643 647/647 684/684
f 643/643 684/684 670/670
f 552/552 559/559 590/590
f 552/552 590/590 231/231
f 22/22 590/590 559/559
f 22/22 559/559 561/561
f 545/545 548/548 599/599
f 545/545 599/599 121/121
f 588/588 19/19 571/571
f 588/588 571/571 567/567
f 698/698 692/692 634/634
f 698/698 634/634 632/632
f 647/647 634/634 692/692
f 647/647 692/692 684/684
f 636/636 645/645 682/682
f 636/636 682/682 690/690
f 696/696 674/674 628/628
f 696/696 628/628 649/649
f 551/551 547/547 120/120
f 551/551 120/120 598/598
f 19/19 120/120 547/547
f 19/19 547/547 571/571
f 121/121 20/20 568/568
f 121/121 568/568 545/545
f 285/285 53/53 664/664
f 285/285 664/664 150/150
f 534/534 379/379 14/14
f 534/534 14/14 8/8
f 615/615 254/254 14/14
f 615/615 14/14 379/379
f 17/17 7/7 85/85
f 17/17 85/85 344/344
f 7/7 13/13 340/340
f 7/7 340/340 85/85
f 376/376 538/538 9/9
f 376/376 9/9 12/12
f 18/18 257/257 610/610
f 18/18 610/610 373/373
f 13/13 253/253 369/369
f 13/13 369/369 340/340
f 258/258 17/17 344/344
f 258/258 344/344 367/367
f 309/309 378/378 618/618
f 309/309 618/618 220/220
f 596/596 613/613 372/372
f 596/596 372/372 94/94
f 94/94 372/372 537/537
f 94/94 537/537 314/314
f 54/54 297/297 23/23
f 54/54 23/23 284/284
f 52/52 292/292 613/613
f 52/52 613/613 596/596
f 282/282 25/25 292/292
f 282/282 292/292 52/52
f 54/54 593/593 611/611
f 54/54 611/611 297/297
f 536/536 312/312 307/307
f 536/536 307/307 381/381
f 291/291 577/577 486/486
f 291/291 486/486 29/29
f 375/375 90/90 312/312
f 375/375 312/312 536/536
f 611/611 593/593 90/90
f 611/611 90/90 375/375
f 381/381 307/307 216/216
f 381/381 216/216 616/616
f 287/287 574/574 220/220
f 287/287 220/220 618/618
f 314/314 537/537 378/378
f 314/314 378/378 309/309
f 216/216 577/577 291/291
f 216/216 291/291 616/616
f 31/31 484/484 574/574
f 31/31 574/574 287/287
f 538/538 370/370 15/15
f 538/538 15/15 9/9
f 612/612 260/260 15/15
f 612/612 15/15 370/370
f 11/11 10/10 86/86
f 11/11 86/86 341/341
f 10/10 16/16 345/345
f 10/10 345/345 86/86
f 294/294 24/24 503/503
f 294/294 503/503 506/506
f 12/12 256/256 619/619
f 12/12 619/619 376/376
f 16/16 259/259 366/366
f 16/16 366/366 345/345
f 368/368 341/341 382/382
f 368/368 382/382 33/33
f 255/255 11/11 341/341
f 255/255 341/341 368/368
f 24/24 295/295 508/508
f 24/24 508/508 503/503
f 257/257 508/508 295/295
f 257/257 295/295 610/610
f 505/505 504/504 88/88
f 505/505 88/88 339/339
f 504/504 507/507 338/338
f 504/504 338/338 88/88
f 290/290 27/27 514/514
f 290/290 514/514 511/511
f 506/506 260/260 612/612
f 506/506 612/612 294/294
f 507/507 258/258 367/367
f 507/507 367/367 338/338
f 366/366 339/339 387/387
f 366/366 387/387 35/35
f 259/259 505/505 339/339
f 259/259 339/339 366/366
f 28/28 286/286 509/509
f 28/28 509/509 513/513
f 256/256 509/509 286/286
f 256/256 286/286 619/619
f 512/512 515/515 87/87
f 512/512 87/87 342/342
f 515/515 510/510 343/343
f 515/515 343/343 87/87
f 511/511 254/254 615/615
f 511/511 615/615 290/290
f 510/510 255/255 368/368
f 510/510 368/368 343/343
f 340/340 369/369 32/32
f 340/340 32/32 383/383
f 344/344 85/85 709/709
f 344/344 709/709 385/385
f 253/253 512/512 342/342
f 253/253 342/342 369/369
f 151/151 659/659 243/243
f 151/151 243/243 663/663
f 452/452 209/209 550/550
f 452/452 550/550 544/544
f 664/664 244/244 660/660
f 664/664 660/660 150/150
f 211/211 453/453 546/546
f 211/211 546/546 549/549
f 301/301 662/662 244/244
f 301/301 244/244 664/664
f 570/570 455/455 464/464
f 570/570 464/464 566/566
f 233/233 395/395 38/38
f 233/233 38/38 526/526
f 269/269 438/438 195/195
f 269/269 195/195 43/43
f 199/199 246/246 395/395
f 199/199 395/395 233/233
f 437/437 266/266 45/45
f 437/437 45/45 197/197
f 234/234 394/394 245/245
f 234/234 245/245 200/200
f 527/527 37/37 394/394
f 527/527 394/394 234/234
f 248/248 237/237 662/662
f 248/248 662/662 301/301
f 158/158 2/2 237/237
f 158/158 237/237 248/248
f 566/566 464/464 450/450
f 566/566 450/450 553/553
f 146/146 298/298 2/2
f 146/146 2/2 158/158
f 553/553 450/450 460/460
f 553/553 460/460 558/558
f 527/527 298/298 146/146
f 527/527 146/146 37/37
f 558/558 460/460 47/47
f 558/558 47/47 560/560
f 238/238 247/247 300/300
f 238/238 300/300 661/661
f 457/457 569/569 564/564
f 457/457 564/564 465/465
f 465/465 564/564 555/555
f 465/465 555/555 447/447
f 1/1 159/159 247/247
f 1/1 247/247 238/238
f 461/461 447/447 555/555
f 461/461 555/555 557/557
f 299/299 147/147 159/159
f 299/299 159/159 1/1
f 461/461 557/557 562/562
f 461/461 562/562 49/49
f 526/526 38/38 147/147
f 526/526 147/147 299/299
f 562/562 269/269 43/43
f 562/562 43/43 49/49
f 102/102 113/113 138/138
f 102/102 138/138 125/125
f 125/125 138/138 174/174
f 125/125 174/174 170/170
f 113/113 109/109 135/135
f 113/113 135/135 138/138
f 138/138 135/135 186/186
f 138/138 186/186 174/174
f 109/109 118/118 134/134
f 109/109 134/134 135/135
f 135/135 134/134 190/190
f 135/135 190/190 186/186
f 118/118 116/116 127/127
f 118/118 127/127 134/134
f 134/134 127/127 179/179
f 134/134 179/179 190/190
f 177/177 165/165 128/128
f 177/177 128/128 126/126
f 126/126 128/128 97/97
f 126/126 97/97 117/117
f 165/165 160/160 139/139
f 165/165 139/139 128/128
f 128/128 139/139 115/115
f 128/128 115/115 97/97
f 160/160 163/163 129/129
f 160/160 129/129 139/139
f 139/139 129/129 96/96
f 139/139 96/96 115/115
f 163/163 179/179 127/127
f 163/163 127/127 129/129
f 129/129 127/127 116/116
f 129/129 116/116 96/96
f 170/170 182/182 132/132
f 170/170 132/132 125/125
f 125/125 132/132 104/104
f 125/125 104/104 102/102
f 182/182 172/172 130/130
f 182/182 130/130 132/132
f 132/132 130/130 107/107
f 132/132 107/107 104/104
f 172/172 184/184 131/131
f 172/172 131/131 130/130
f 130/130 131/131 105/105
f 130/130 105/105 107/107
f 184/184 168/168 124/124
f 184/184 124/124 131/131
f 131/131 124/124 103/103
f 131/131 103/103 105/105
f 168/168 176/176 137/137
f 168/168 137/137 124/124
f 124/124 137/137 114/114
f 124/124 114/114 103/103
f 176/176 188/188 136/136
f 176/176 136/136 137/137
f 137/137 136/136 112/112
f 137/137 112/112 114/114
f 188/188 192/192 133/133
f 188/188 133/133 136/136
f 136/136 133/133 119/119
f 136/136 119/119 112/112
f 192/192 177/177 126/126
f 192/192 126/126 133/133
f 133/133 126/126 117/117
f 133/133 117/117 119/119
f 187/187 673/673 695/695
f 187/187 695/695 191/191
f 89/89 594/594 300/300
f 89/89 300/300 247/247
f 367/367 344/344 385/385
f 367/367 385/385 34/34
f 373/373 534/534 8/8
f 373/373 8/8 18/18
f 457/457 452/452 544/544
f 457/457 544/544 569/569
f 633/633 121/121 599/599
f 633/633 599/599 630/630
f 451/451 458/458 661/661
f 451/451 661/661 243/243
f 212/212 451/451 243/243
f 212/212 243/243 659/659
f 454/454 210/210 660/660
f 454/454 660/660 244/244
f 456/456 454/454 244/244
f 456/456 244/244 662/662
f 50/50 44/44 233/233
f 50/50 233/233 526/526
f 44/44 198/198 199/199
f 44/44 199/199 233/233
f 196/196 46/46 234/234
f 196/196 234/234 200/200
f 46/46 48/48 527/527
f 46/46 527/527 234/234
f 463/463 456/456 662/662
f 463/463 662/662 237/237
f 449/449 463/463 237/237
f 449/449 237/237 2/2
f 459/459 449/449 2/2
f 459/459 2/2 298/298
f 48/48 459/459 298/298
f 48/48 298/298 527/527
f 458/458 466/466 238/238
f 458/458 238/238 661/661
f 466/466 448/448 1/1
f 466/466 1/1 238/238
f 448/448 462/462 299/299
f 448/448 299/299 1/1
f 462/462 50/50 526/526
f 462/462 526/526 299/299
f 377/377 371/371 539/539
f 371/371 377/377 620/620
f 371/371 620/620 614/614
f 614/614 620/620 288/288
f 614/614 288/288 293/293
f 293/293 288/288 30/30
f 293/293 30/30 26/26
f 26/26 30/30 296/296
f 296/296 30/30 289/289
f 296/296 289/289 609/609
f 609/609 289/289 617/617
f 609/609 617/617 380/380
f 609/609 380/380 374/374
f 374/374 380/380 535/535
f 308/308 93/93 315/315
f 93/93 308/308 219/219
f 93/93 219/219 595/595
f 595/595 219/219 51/51
f 51/51 219/219 575/575
f 51/51 575/575 485/485
f 51/51 485/485 283/283
f 283/283 485/485 56/56
f 56/56 485/485 579/579
f 56/56 579/579 592/592
f 592/592 579/579 215/215
f 592/592 215/215 305/305
f 592/592 305/305 91/91
f 91/91 305/305 313/313