o convex_0
v 0.011059 0.015480 0.020264
v -0.008065 -0.099716 0.000232
v -0.006697 -0.099728 0.000232
v 0.010149 0.016849 -0.000226
v 0.016070 -0.099728 0.019805
v -0.007153 -0.001375 0.019805
v 0.016070 -0.099260 -0.000226
v -0.008065 -0.099260 0.020264
v -0.004876 0.013654 -0.000226
v 0.013336 -0.001831 0.000232
v -0.003966 0.016849 0.020264
v -0.007153 -0.001843 -0.000226
v 0.013336 -0.001831 0.019805
v 0.016070 -0.097890 0.020264
v -0.008065 -0.094707 -0.000226
v -0.004422 0.016849 0.000232
v 0.010149 0.016849 0.019805
v -0.005332 0.013197 0.019805
v 0.012425 0.007275 0.000232
v -0.008065 -0.099716 0.019805
v 0.016070 -0.099728 0.000232
v 0.011059 0.015480 -0.000226
v -0.005332 0.013197 0.000232
v 0.016070 -0.097445 -0.000226
v -0.006697 -0.001375 0.020264
v 0.012425 0.007275 0.019805
v -0.008065 -0.094250 0.019805
v 0.012880 -0.001375 0.020264
v 0.012880 -0.001375 -0.000226
v -0.008065 -0.099260 -0.000226
v -0.007153 -0.001375 0.000232
v -0.004422 0.016849 0.019805
f 16 18 32 
f 4 7 9 
f 8 1 11 
f 9 7 12 
f 5 7 14 
f 1 8 14 
f 8 5 14 
f 2 8 15 
f 12 7 15 
f 4 9 16 
f 11 4 16 
f 1 4 17 
f 11 1 17 
f 4 11 17 
f 13 10 19 
f 2 3 20 
f 3 5 20 
f 5 8 20 
f 8 2 20 
f 5 3 21 
f 3 7 21 
f 7 5 21 
f 4 1 22 
f 7 4 22 
f 1 19 22 
f 9 12 23 
f 16 9 23 
f 6 18 23 
f 18 16 23 
f 10 13 24 
f 13 14 24 
f 14 7 24 
f 7 22 24 
f 6 8 25 
f 8 11 25 
f 18 6 25 
f 11 18 25 
f 19 1 26 
f 13 19 26 
f 8 6 27 
f 15 8 27 
f 14 13 28 
f 1 14 28 
f 26 1 28 
f 13 26 28 
f 19 10 29 
f 22 19 29 
f 10 24 29 
f 24 22 29 
f 3 2 30 
f 7 3 30 
f 2 15 30 
f 15 7 30 
f 12 15 31 
f 6 23 31 
f 23 12 31 
f 27 6 31 
f 15 27 31 
f 11 16 32 
f 18 11 32 
o convex_1
v -0.004422 0.016849 0.000232
v 0.011061 0.074682 0.020264
v -0.004422 0.074682 0.020264
v -0.004422 0.074682 -0.000226
v 0.011061 0.065568 -0.000226
v 0.009694 0.016849 0.020264
v -0.004422 0.016849 0.019805
v 0.010150 0.016849 -0.000226
v 0.011061 0.074682 -0.000226
v -0.004878 0.074682 0.000232
v 0.010150 0.016849 0.019805
v -0.004878 0.074218 0.019805
v -0.003966 0.016849 -0.000226
v -0.003966 0.016849 0.020264
v 0.011061 0.065568 0.020264
f 38 43 47 
f 35 34 36 
f 34 35 38 
f 33 38 39 
f 36 37 40 
f 38 33 40 
f 36 34 41 
f 37 36 41 
f 34 37 41 
f 35 36 42 
f 36 33 42 
f 40 37 43 
f 38 40 43 
f 33 39 44 
f 35 42 44 
f 42 33 44 
f 33 36 45 
f 40 33 45 
f 36 40 45 
f 38 35 46 
f 39 38 46 
f 35 44 46 
f 44 39 46 
f 37 34 47 
f 34 38 47 
f 43 37 47 
o convex_2
v -0.025828 0.092441 -0.000226
v -0.046770 0.075594 -0.000226
v -0.046770 0.076504 -0.000226
v -0.023096 0.082426 0.020264
v -0.034023 0.088797 0.019805
v -0.020360 0.083336 -0.000226
v -0.046315 0.075137 0.019805
v -0.020360 0.093808 0.019805
v -0.020360 0.093808 -0.000226
v -0.034023 0.088797 0.000232
v -0.047225 0.076504 0.019805
v -0.020360 0.083336 0.019805
v -0.025828 0.092896 0.019805
v -0.039028 0.084697 0.000232
v -0.046315 0.075137 0.000232
v -0.039028 0.084244 0.020264
v -0.023093 0.093808 0.000232
v -0.039028 0.084697 0.019805
v -0.020360 0.093351 0.020264
v -0.046770 0.075594 0.020264
v -0.047225 0.076504 0.000232
v -0.025828 0.092896 0.000232
v -0.023093 0.093808 0.019805
v -0.023096 0.082426 -0.000226
f 51 62 71 
f 48 49 50 
f 49 48 53 
f 55 53 56 
f 53 48 56 
f 48 50 57 
f 51 53 59 
f 53 55 59 
f 57 52 60 
f 57 50 61 
f 52 57 61 
f 51 54 62 
f 54 49 62 
f 60 52 63 
f 55 56 64 
f 56 48 64 
f 52 61 65 
f 61 58 65 
f 58 63 65 
f 63 52 65 
f 51 59 66 
f 59 55 66 
f 63 51 66 
f 60 63 66 
f 54 51 67 
f 49 54 67 
f 58 49 67 
f 51 63 67 
f 63 58 67 
f 50 49 68 
f 49 58 68 
f 61 50 68 
f 58 61 68 
f 48 57 69 
f 57 60 69 
f 64 48 69 
f 60 64 69 
f 55 64 70 
f 64 60 70 
f 66 55 70 
f 60 66 70 
f 49 53 71 
f 53 51 71 
f 62 49 71 
o convex_3
v -0.005333 0.074684 0.000232
v 0.013792 0.099725 0.019805
v 0.014248 0.099272 0.020264
v -0.020357 0.083790 0.020264
v -0.020357 0.094262 -0.000226
v 0.018798 0.095627 -0.000226
v 0.011059 0.074684 0.020264
v -0.019904 0.094715 0.019805
v 0.011059 0.074684 -0.000226
v -0.005789 0.099725 0.000232
v 0.018798 0.083337 0.019805
v -0.020357 0.083337 -0.000226
v -0.005333 0.074684 0.019805
v -0.005789 0.099725 0.019805
v 0.018798 0.083337 -0.000226
v 0.013792 0.099725 0.000232
v 0.018798 0.096083 0.019805
v -0.020357 0.093806 0.020264
v -0.015346 0.096536 0.000232
v -0.020357 0.083337 0.019805
v -0.006242 0.099269 -0.000226
v 0.018798 0.083793 0.020264
v -0.008975 0.098813 0.019805
v -0.004877 0.074684 0.020264
v 0.018346 0.096536 0.000232
v -0.004877 0.074684 -0.000226
v -0.006242 0.099269 0.020264
v 0.014248 0.099272 -0.000226
v -0.008975 0.098813 0.000232
f 90 94 100 
f 74 75 78 
f 76 77 80 
f 78 72 80 
f 78 80 82 
f 75 76 83 
f 76 80 83 
f 72 78 84 
f 83 72 84 
f 74 73 85 
f 73 81 85 
f 80 77 86 
f 77 82 86 
f 82 80 86 
f 81 73 87 
f 73 74 88 
f 82 77 88 
f 75 74 89 
f 76 75 89 
f 79 76 89 
f 76 79 90 
f 75 83 91 
f 83 84 91 
f 77 76 92 
f 74 78 93 
f 78 82 93 
f 88 74 93 
f 82 88 93 
f 85 81 94 
f 90 79 94 
f 78 75 95 
f 84 78 95 
f 75 91 95 
f 91 84 95 
f 87 73 96 
f 73 88 96 
f 88 77 96 
f 80 72 97 
f 72 83 97 
f 83 80 97 
f 74 85 98 
f 89 74 98 
f 79 89 98 
f 85 94 98 
f 94 79 98 
f 81 87 99 
f 77 92 99 
f 92 81 99 
f 87 96 99 
f 96 77 99 
f 76 90 100 
f 92 76 100 
f 81 92 100 
f 94 81 100 
o convex_4
v 0.045667 0.078327 -0.000226
v 0.046123 0.099726 0.019805
v 0.046123 0.099269 0.020264
v 0.018802 0.095626 0.020264
v 0.033828 0.099269 -0.000226
v 0.046123 0.078784 0.020264
v 0.018802 0.083335 -0.000226
v 0.018802 0.083335 0.019805
v 0.047035 0.098358 -0.000226
v 0.018802 0.095626 -0.000226
v 0.033828 0.078327 0.019805
v 0.033828 0.099726 0.019805
v 0.033828 0.078327 0.000232
v 0.047035 0.079238 0.019805
v 0.047035 0.079238 0.000232
v 0.046123 0.099726 0.000232
v 0.047035 0.098358 0.020264
v 0.033828 0.099726 0.000232
v 0.018802 0.083792 0.020264
v 0.046123 0.078327 0.019805
v 0.033828 0.078784 0.020264
v 0.034281 0.078327 -0.000226
f 113 107 122 
f 103 104 106 
f 105 101 107 
f 104 107 108 
f 101 105 109 
f 107 104 110 
f 105 107 110 
f 108 107 111 
f 103 102 112 
f 104 103 112 
f 110 104 112 
f 101 111 113 
f 111 107 113 
f 109 114 115 
f 101 109 115 
f 102 109 116 
f 109 105 116 
f 112 102 116 
f 102 103 117 
f 103 106 117 
f 109 102 117 
f 106 114 117 
f 114 109 117 
f 105 110 118 
f 110 112 118 
f 116 105 118 
f 112 116 118 
f 106 104 119 
f 104 108 119 
f 108 111 119 
f 111 101 120 
f 106 111 120 
f 114 106 120 
f 115 114 120 
f 101 115 120 
f 111 106 121 
f 106 119 121 
f 119 111 121 
f 107 101 122 
f 101 113 122 
