o convex_0
v -0.001136 -0.098891 0.000202
v 0.012128 0.000000 0.020302
v 0.013737 -0.005631 0.019899
v 0.012530 0.000000 -0.000201
v 0.014541 -0.098481 0.000202
v -0.000332 -0.099291 0.020302
v 0.000472 -0.000410 0.019899
v 0.014541 -0.098481 0.019899
v -0.000735 -0.009652 0.000202
v -0.001539 -0.081607 0.019899
v 0.001275 0.000000 -0.000201
v 0.013737 -0.005631 0.000202
v -0.001539 -0.098091 -0.000201
v -0.000735 -0.009652 0.019899
v 0.013334 -0.099291 -0.000201
v 0.013334 -0.099291 0.020302
v 0.001275 0.000000 0.020302
v -0.001539 -0.098481 0.019899
v -0.000332 -0.099701 0.000202
v 0.014541 -0.091650 -0.000201
v -0.001539 -0.081607 -0.000201
v 0.013334 -0.099701 0.019899
v 0.000472 -0.000810 -0.000201
v 0.014541 -0.091249 0.019899
v -0.000332 -0.099701 0.019899
v 0.013334 -0.099701 0.000202
v -0.000332 -0.009652 0.020302
v 0.013334 -0.005641 0.020302
v 0.012530 0.000000 0.019899
v -0.001136 -0.098481 0.020302
v 0.014138 -0.091249 0.020302
v 0.013334 -0.005641 -0.000201
v -0.000332 -0.009652 -0.000201
f 23 21 33 
f 2 4 11 
f 4 3 12 
f 11 4 13 
f 7 9 14 
f 9 10 14 
f 13 4 15 
f 2 6 16 
f 6 2 17 
f 2 11 17 
f 11 7 17 
f 13 1 18 
f 10 13 18 
f 1 13 19 
f 13 15 19 
f 8 5 20 
f 15 4 20 
f 5 15 20 
f 10 9 21 
f 13 10 21 
f 11 13 21 
f 5 8 22 
f 16 6 22 
f 8 16 22 
f 9 7 23 
f 7 11 23 
f 11 21 23 
f 12 3 24 
f 8 20 24 
f 20 12 24 
f 18 1 25 
f 1 19 25 
f 22 6 25 
f 19 22 25 
f 15 5 26 
f 19 15 26 
f 5 22 26 
f 22 19 26 
f 7 14 27 
f 14 10 27 
f 6 17 27 
f 17 7 27 
f 3 2 28 
f 2 16 28 
f 2 3 29 
f 3 4 29 
f 4 2 29 
f 10 18 30 
f 18 25 30 
f 25 6 30 
f 6 27 30 
f 27 10 30 
f 16 8 31 
f 24 3 31 
f 8 24 31 
f 3 28 31 
f 28 16 31 
f 4 12 32 
f 12 20 32 
f 20 4 32 
f 21 9 33 
f 9 23 33 
o convex_1
v 0.001275 0.000000 0.000202
v 0.012129 0.078796 0.020302
v 0.012531 0.078796 0.019899
v 0.012129 0.000000 0.020302
v 0.012531 0.000000 -0.000201
v 0.001677 0.078796 -0.000201
v 0.001275 0.078796 0.019899
v 0.012531 0.078796 -0.000201
v 0.001677 0.000000 0.020302
v 0.012531 0.000000 0.019899
v 0.001275 0.078796 0.000202
v 0.001275 0.000000 0.019899
v 0.001677 0.000000 -0.000201
v 0.001677 0.078796 0.020302
f 40 42 47 
f 36 35 37 
f 37 34 38 
f 35 36 39 
f 35 39 40 
f 36 38 41 
f 39 36 41 
f 38 39 41 
f 37 35 42 
f 34 37 42 
f 36 37 43 
f 37 38 43 
f 38 36 43 
f 39 34 44 
f 34 40 44 
f 40 39 44 
f 40 34 45 
f 34 42 45 
f 42 40 45 
f 38 34 46 
f 39 38 46 
f 34 39 46 
f 35 40 47 
f 42 35 47 
o convex_2
v 0.001275 0.078796 0.000202
v 0.014139 0.084424 0.019899
v 0.013737 0.084424 0.020302
v 0.000069 0.084424 -0.000201
v 0.014139 0.084424 0.000202
v 0.001677 0.078796 0.020302
v 0.012933 0.078796 0.000202
v 0.000069 0.084424 0.019899
v 0.012933 0.078796 0.019899
v 0.013737 0.079601 0.019899
v 0.013335 0.079601 -0.000201
v 0.013737 0.079601 0.000202
v 0.001275 0.078796 0.019899
v 0.001677 0.078796 -0.000201
v 0.000471 0.084424 0.020302
v 0.013737 0.084424 -0.000201
v 0.012531 0.078796 0.020302
v 0.000069 0.084022 0.019899
f 62 55 65 
f 50 49 51 
f 51 49 52 
f 53 48 54 
f 50 51 55 
f 53 54 56 
f 56 54 57 
f 49 50 57 
f 52 49 57 
f 54 58 59 
f 57 54 59 
f 52 57 59 
f 58 52 59 
f 48 53 60 
f 48 51 61 
f 54 48 61 
f 51 58 61 
f 58 54 61 
f 53 50 62 
f 50 55 62 
f 51 52 63 
f 52 58 63 
f 58 51 63 
f 50 53 64 
f 53 56 64 
f 56 57 64 
f 57 50 64 
f 51 48 65 
f 55 51 65 
f 48 60 65 
f 60 53 65 
f 53 62 65 
o convex_3
v 0.033832 0.099299 0.019899
v -0.033296 0.091662 -0.000201
v -0.033296 0.093266 -0.000201
v -0.033296 0.091662 0.020302
v 0.033435 0.084424 0.000202
v 0.033435 0.099701 0.000202
v 0.014138 0.084424 0.020302
v -0.005556 0.099701 0.019899
v -0.003143 0.084424 -0.000201
v 0.033435 0.084826 0.020302
v -0.005556 0.099701 0.000202
v -0.008372 0.085229 0.019899
v -0.031286 0.094875 0.019899
v -0.032489 0.090457 0.000202
v 0.033435 0.099299 -0.000201
v -0.031286 0.094875 0.000202
v 0.033435 0.099299 0.020302
v -0.032489 0.090457 0.019899
v 0.033435 0.099701 0.019899
v -0.003546 0.084424 0.019899
v 0.033832 0.084826 0.000202
v 0.033032 0.084424 -0.000201
v -0.008372 0.085229 0.000202
v 0.033435 0.084424 0.019899
v -0.005556 0.099299 0.020302
v -0.021237 0.096885 0.019899
v -0.033692 0.093266 0.019899
v 0.033832 0.099299 0.000202
v 0.033832 0.084826 0.019899
v -0.005556 0.099299 -0.000201
v -0.027266 0.089250 0.000202
v -0.010382 0.098896 0.000202
v -0.008372 0.085631 0.020302
v -0.033692 0.091662 0.000202
v -0.027266 0.089250 0.019899
v -0.021237 0.096885 0.000202
v -0.031286 0.094475 0.020302
v -0.033296 0.093670 0.000202
v -0.033692 0.091662 0.019899
v -0.010382 0.098896 0.019899
f 97 91 105 
f 67 68 74 
f 70 72 74 
f 69 72 75 
f 73 71 76 
f 67 74 79 
f 74 68 80 
f 76 71 80 
f 75 66 82 
f 69 75 82 
f 66 71 84 
f 71 73 84 
f 82 66 84 
f 73 82 84 
f 74 72 85 
f 80 86 87 
f 70 74 87 
f 74 80 87 
f 86 70 87 
f 74 85 88 
f 85 77 88 
f 72 70 89 
f 75 72 89 
f 70 86 89 
f 69 82 90 
f 82 73 90 
f 81 78 91 
f 71 66 93 
f 80 71 93 
f 66 86 93 
f 86 80 93 
f 66 75 94 
f 86 66 94 
f 75 89 94 
f 89 86 94 
f 80 68 95 
f 76 80 95 
f 68 81 95 
f 79 74 96 
f 83 79 96 
f 74 88 96 
f 88 77 96 
f 73 76 97 
f 76 95 97 
f 72 69 98 
f 69 83 98 
f 85 72 98 
f 77 85 98 
f 68 67 99 
f 67 79 99 
f 79 83 99 
f 96 77 100 
f 83 96 100 
f 98 83 100 
f 77 98 100 
f 81 91 101 
f 95 81 101 
f 91 97 101 
f 97 95 101 
f 69 90 102 
f 91 78 102 
f 90 91 102 
f 92 69 102 
f 78 92 102 
f 81 68 103 
f 78 81 103 
f 92 78 103 
f 68 99 103 
f 99 92 103 
f 83 69 104 
f 69 92 104 
f 99 83 104 
f 92 99 104 
f 90 73 105 
f 91 90 105 
f 73 97 105 
