o convex_0
v -0.007854 0.062935 0.020162
v -0.013175 -0.099260 0.000225
v -0.013175 -0.099260 0.020162
v 0.008099 -0.099722 0.019719
v 0.008099 0.062935 -0.000218
v 0.008099 -0.099276 -0.000218
v -0.008298 0.062935 0.000225
v 0.008099 0.062935 0.020162
v -0.011401 -0.014636 0.019719
v -0.010957 -0.014636 -0.000218
v 0.008099 -0.099276 0.020162
v -0.011401 -0.014636 0.000225
v -0.012731 -0.099260 -0.000218
v -0.008298 0.062935 0.019719
v -0.007854 0.062935 -0.000218
v -0.013175 -0.092620 0.020162
v -0.012731 -0.099706 0.000225
v -0.013175 -0.092620 0.000225
v 0.008099 -0.099722 0.000225
v -0.012731 -0.099706 0.019719
v -0.010072 0.014167 0.020162
f 9 16 21 
f 5 4 6 
f 1 5 7 
f 1 3 8 
f 5 1 8 
f 4 5 8 
f 5 6 10 
f 3 4 11 
f 8 3 11 
f 4 8 11 
f 9 7 12 
f 7 10 12 
f 10 6 13 
f 1 7 14 
f 7 9 14 
f 7 5 15 
f 10 7 15 
f 5 10 15 
f 3 1 16 
f 2 3 16 
f 9 12 16 
f 3 2 17 
f 2 13 17 
f 13 6 17 
f 12 10 18 
f 13 2 18 
f 10 13 18 
f 2 16 18 
f 16 12 18 
f 6 4 19 
f 4 17 19 
f 17 6 19 
f 4 3 20 
f 3 17 20 
f 17 4 20 
f 1 14 21 
f 14 9 21 
f 16 1 21 
o convex_1
v -0.029129 0.099722 0.019719
v -0.035775 0.083768 -0.000218
v -0.035775 0.083323 0.000225
v -0.013175 0.085097 -0.000218
v -0.029129 0.083323 0.020162
v -0.034891 0.099722 0.000225
v -0.013175 0.096619 0.020162
v -0.013175 0.096619 -0.000218
v -0.036222 0.098389 0.019719
v -0.013175 0.085097 0.020162
v -0.035775 0.083323 0.020162
v -0.035775 0.098389 -0.000218
v -0.029129 0.099722 0.000225
v -0.035333 0.099277 0.020162
v -0.036222 0.083768 0.000225
v -0.029129 0.083323 0.000225
v -0.036222 0.098389 0.000225
v -0.036222 0.083768 0.019719
v -0.034891 0.099722 0.019719
f 30 35 40 
f 25 23 29 
f 28 25 29 
f 22 28 29 
f 26 25 31 
f 25 28 31 
f 28 26 31 
f 24 26 32 
f 26 28 32 
f 29 23 33 
f 27 22 34 
f 22 29 34 
f 29 33 34 
f 33 27 34 
f 28 22 35 
f 32 28 35 
f 30 32 35 
f 23 24 36 
f 24 32 36 
f 33 23 36 
f 24 23 37 
f 23 25 37 
f 25 26 37 
f 26 24 37 
f 30 27 38 
f 27 33 38 
f 36 30 38 
f 33 36 38 
f 32 30 39 
f 36 32 39 
f 30 36 39 
f 22 27 40 
f 27 30 40 
f 35 22 40 
o convex_2
v 0.015189 0.095289 0.020162
v -0.013175 0.084652 -0.000218
v -0.010071 0.070476 -0.000218
v 0.016076 0.094400 -0.000218
v 0.008096 0.062935 0.020162
v -0.013175 0.096618 0.020162
v 0.008096 0.062935 -0.000218
v -0.008299 0.062935 0.019719
v -0.010956 0.099722 0.000225
v 0.016076 0.083320 0.020162
v 0.004108 0.099722 0.019719
v -0.008299 0.062935 0.000225
v 0.016076 0.083320 0.000225
v 0.007652 0.098832 0.000225
v -0.013175 0.084652 0.020162
v -0.010956 0.099722 0.019719
v -0.013175 0.096618 -0.000218
v 0.013860 0.096614 0.020162
v 0.004108 0.099722 0.000225
v 0.013860 0.096614 -0.000218
v 0.016076 0.094400 0.020162
v -0.007855 0.062935 0.020162
v -0.007855 0.062935 -0.000218
v 0.004108 0.099275 -0.000218
v 0.004108 0.099275 0.020162
v -0.012287 0.098386 0.000225
v 0.007652 0.098832 0.019719
v -0.010071 0.070476 0.020162
v 0.016076 0.083763 -0.000218
v -0.012287 0.098386 0.019719
f 56 66 70 
f 43 42 44 
f 45 41 46 
f 43 44 47 
f 47 45 48 
f 41 45 50 
f 45 47 50 
f 47 48 52 
f 48 43 52 
f 44 50 53 
f 50 47 53 
f 42 43 55 
f 45 46 55 
f 46 42 55 
f 51 49 56 
f 44 42 57 
f 42 46 57 
f 46 41 58 
f 49 51 59 
f 51 54 59 
f 41 44 60 
f 44 57 60 
f 58 41 60 
f 54 58 60 
f 44 41 61 
f 41 50 61 
f 50 44 61 
f 48 45 62 
f 45 55 62 
f 43 47 63 
f 52 43 63 
f 47 52 63 
f 57 49 64 
f 49 59 64 
f 59 54 64 
f 60 57 64 
f 54 60 64 
f 56 46 65 
f 51 56 65 
f 46 58 65 
f 56 49 66 
f 57 46 66 
f 49 57 66 
f 54 51 67 
f 58 54 67 
f 51 65 67 
f 65 58 67 
f 43 48 68 
f 55 43 68 
f 48 62 68 
f 62 55 68 
f 47 44 69 
f 44 53 69 
f 53 47 69 
f 46 56 70 
f 66 46 70 
o convex_3
v 0.033803 0.071802 0.020162
v 0.035132 0.063379 -0.000218
v 0.034690 0.063825 0.000225
v 0.028488 0.081107 -0.000218
v 0.022725 0.080661 0.020162
v 0.022725 0.080661 0.000225
v 0.035132 0.063379 0.020162
v 0.028488 0.081107 0.020162
v 0.035132 0.069584 0.000225
v 0.036021 0.065596 0.020162
v 0.030258 0.079333 0.019719
v 0.030258 0.079333 0.000225
v 0.036021 0.063825 -0.000218
v 0.023170 0.081107 -0.000218
v 0.035132 0.069584 0.019719
v 0.022725 0.081107 0.020162
v 0.036021 0.063379 0.020162
v 0.034690 0.063825 0.019719
v 0.036021 0.065596 0.000225
f 80 83 89 
f 73 75 76 
f 72 73 76 
f 73 72 77 
f 71 75 77 
f 75 71 78 
f 71 77 80 
f 78 71 81 
f 74 78 81 
f 81 79 82 
f 79 74 82 
f 74 81 82 
f 72 74 83 
f 74 79 83 
f 74 72 84 
f 72 76 84 
f 78 74 84 
f 71 80 85 
f 80 79 85 
f 81 71 85 
f 79 81 85 
f 76 75 86 
f 75 78 86 
f 84 76 86 
f 78 84 86 
f 77 72 87 
f 80 77 87 
f 72 83 87 
f 83 80 87 
f 75 73 88 
f 73 77 88 
f 77 75 88 
f 79 80 89 
f 83 79 89 
o convex_4
v 0.018294 0.093516 0.019719
v 0.022724 0.081107 -0.000218
v 0.028043 0.081107 -0.000218
v 0.016521 0.093960 -0.000218
v 0.016077 0.083325 0.020162
v 0.028043 0.081107 0.020162
v 0.016077 0.083325 0.000225
v 0.028043 0.083768 0.000225
v 0.016077 0.093960 0.020162
v 0.028043 0.083768 0.019719
v 0.021840 0.090857 0.000225
v 0.022280 0.081107 0.020162
v 0.022280 0.090413 0.019719
v 0.016077 0.093960 -0.000218
v 0.018294 0.093516 0.000225
v 0.016077 0.083768 -0.000218
v 0.021840 0.090413 0.020162
f 99 102 106 
f 92 91 93 
f 91 92 95 
f 95 92 97 
f 90 93 98 
f 94 95 98 
f 96 94 98 
f 95 97 99 
f 92 93 100 
f 97 92 100 
f 91 95 101 
f 95 94 101 
f 96 91 101 
f 94 96 101 
f 99 97 102 
f 100 90 102 
f 97 100 102 
f 93 91 103 
f 98 93 103 
f 96 98 103 
f 93 90 104 
f 100 93 104 
f 90 100 104 
f 91 96 105 
f 103 91 105 
f 96 103 105 
f 90 98 106 
f 98 95 106 
f 95 99 106 
f 102 90 106 
