o convex_0
v -0.011244 -0.099279 -0.000214
v 0.002877 -0.050932 0.020328
v 0.003306 -0.050927 0.019900
v 0.004162 -0.098425 0.019900
v 0.005017 -0.090722 -0.000214
v -0.010815 -0.050932 -0.000214
v -0.012098 -0.098429 0.019900
v -0.011244 -0.050932 0.019900
v 0.003306 -0.050927 0.000214
v 0.002877 -0.099709 0.000214
v -0.012098 -0.080874 -0.000214
v 0.005017 -0.090722 0.020328
v -0.010815 -0.099279 0.020328
v 0.005017 -0.096285 -0.000214
v 0.002877 -0.099709 0.019900
v -0.012098 -0.080449 0.019900
v -0.012098 -0.098429 -0.000214
v -0.010815 -0.050932 0.020328
v -0.011244 -0.050932 0.000214
v -0.010815 -0.099709 0.019900
v 0.002877 -0.050932 -0.000214
v 0.004162 -0.068477 0.019900
v 0.005017 -0.096285 0.020328
v -0.010815 -0.099709 0.000214
v 0.004162 -0.068477 0.000214
v 0.004162 -0.098425 0.000214
v -0.011671 -0.080449 0.020328
v 0.002877 -0.099279 -0.000214
v 0.002877 -0.099279 0.020328
f 4 23 29 
f 5 1 6 
f 8 3 9 
f 6 1 11 
f 3 2 12 
f 12 2 13 
f 1 5 14 
f 5 12 14 
f 10 4 15 
f 11 7 16 
f 11 1 17 
f 7 11 17 
f 2 3 18 
f 3 8 18 
f 13 2 18 
f 9 6 19 
f 8 9 19 
f 6 11 19 
f 11 16 19 
f 16 8 19 
f 13 7 20 
f 10 15 20 
f 15 13 20 
f 7 17 20 
f 5 6 21 
f 9 5 21 
f 6 9 21 
f 9 3 22 
f 3 12 22 
f 12 5 22 
f 12 13 23 
f 4 14 23 
f 14 12 23 
f 1 10 24 
f 17 1 24 
f 10 20 24 
f 20 17 24 
f 5 9 25 
f 9 22 25 
f 22 5 25 
f 4 10 26 
f 14 4 26 
f 7 13 27 
f 16 7 27 
f 8 16 27 
f 18 8 27 
f 13 18 27 
f 10 1 28 
f 1 14 28 
f 26 10 28 
f 14 26 28 
f 15 4 29 
f 13 15 29 
f 23 13 29 
o convex_1
v 0.002878 -0.050914 -0.000214
v 0.002878 0.079147 0.020328
v 0.003305 0.079172 0.019900
v -0.012100 0.079147 -0.000214
v -0.011244 -0.050914 0.019900
v 0.004161 0.075314 0.000214
v 0.004161 -0.047489 0.019900
v -0.012100 0.079147 0.019900
v -0.012100 -0.039365 -0.000214
v -0.013384 0.001714 0.019900
v 0.005018 -0.000413 -0.000214
v 0.005018 0.010283 0.020328
v -0.013384 0.011124 0.000214
v -0.011244 -0.050914 0.000214
v -0.010815 -0.050914 0.020328
v 0.002878 0.079147 -0.000214
v 0.002878 -0.050914 0.020328
v 0.004161 -0.047489 0.000214
v 0.004161 0.075314 0.019900
v -0.011671 0.079147 0.020328
v -0.012100 -0.039365 0.019900
v -0.013384 0.011124 0.019900
v -0.013384 0.001714 0.000214
v 0.005018 0.010716 0.000214
v 0.005018 -0.000413 0.020328
v -0.012955 0.001714 0.020328
v -0.010815 -0.050914 -0.000214
v 0.003305 -0.050914 0.019900
v -0.012955 0.001714 -0.000214
v 0.003305 0.079172 0.000214
v 0.003305 -0.050914 0.000214
v 0.003734 0.075734 -0.000214
v 0.003734 0.075314 0.020328
f 41 48 62 
f 32 33 37 
f 33 30 38 
f 30 33 40 
f 37 33 42 
f 30 34 43 
f 34 38 43 
f 34 30 44 
f 41 31 44 
f 40 33 45 
f 44 30 46 
f 41 44 46 
f 30 40 47 
f 40 36 47 
f 35 32 48 
f 31 32 49 
f 32 37 49 
f 44 31 49 
f 38 34 50 
f 39 38 50 
f 34 44 50 
f 37 42 51 
f 42 39 51 
f 49 37 51 
f 38 39 52 
f 39 42 52 
f 40 35 53 
f 41 40 53 
f 35 48 53 
f 48 41 53 
f 36 40 54 
f 40 41 54 
f 46 36 54 
f 41 46 54 
f 44 49 55 
f 39 50 55 
f 50 44 55 
f 51 39 55 
f 49 51 55 
f 38 30 56 
f 30 43 56 
f 43 38 56 
f 46 30 57 
f 36 46 57 
f 47 36 57 
f 33 38 58 
f 42 33 58 
f 38 52 58 
f 52 42 58 
f 33 32 59 
f 32 35 59 
f 45 33 59 
f 30 47 60 
f 57 30 60 
f 47 57 60 
f 35 40 61 
f 40 45 61 
f 59 35 61 
f 45 59 61 
f 32 31 62 
f 31 41 62 
f 48 32 62 
o convex_2
v 0.007585 0.094576 0.020328
v -0.031782 0.085594 -0.000214
v -0.032210 0.085594 0.000214
v 0.003304 0.079174 0.019900
v 0.007585 0.082598 -0.000214
v -0.000120 0.099714 0.000214
v -0.027932 0.095433 0.020328
v -0.026218 0.080457 0.019900
v -0.012100 0.079172 -0.000214
v -0.027932 0.095433 -0.000214
v -0.009961 0.099714 0.019900
v 0.007585 0.094576 -0.000214
v -0.032210 0.091582 0.019900
v 0.007585 0.082598 0.020328
v -0.026218 0.080457 0.000214
v 0.003304 0.079174 0.000214
v -0.000120 0.099714 0.019900
v -0.030928 0.083881 0.020328
v -0.009961 0.099714 0.000214
v -0.032210 0.091582 0.000214
v -0.011671 0.079172 0.020328
v -0.027932 0.095861 0.000214
v -0.030071 0.082596 -0.000214
v 0.006728 0.095861 0.000214
v -0.027932 0.095861 0.019900
v -0.032210 0.085594 0.019900
v 0.006728 0.095861 0.019900
v -0.029643 0.082170 0.019900
v -0.000120 0.099286 -0.000214
v -0.000120 0.099286 0.020328
v 0.007585 0.082170 0.000214
v -0.031357 0.083881 0.019900
v 0.007585 0.082170 0.019900
v 0.001590 0.098857 0.019900
v 0.002447 0.079172 -0.000214
v -0.031357 0.083881 0.000214
v 0.002875 0.079174 0.020328
f 95 76 99 
f 64 67 71 
f 67 64 72 
f 63 67 74 
f 67 72 74 
f 67 63 76 
f 63 69 76 
f 71 70 77 
f 68 73 79 
f 69 75 80 
f 76 69 80 
f 73 68 81 
f 64 65 82 
f 72 64 82 
f 65 75 82 
f 70 71 83 
f 80 70 83 
f 76 80 83 
f 81 72 84 
f 73 81 84 
f 72 82 84 
f 82 75 84 
f 64 71 85 
f 71 77 85 
f 63 74 86 
f 69 73 87 
f 75 69 87 
f 73 84 87 
f 84 75 87 
f 75 65 88 
f 80 75 88 
f 63 86 89 
f 77 70 90 
f 70 80 90 
f 85 77 90 
f 74 72 91 
f 81 68 91 
f 72 81 91 
f 86 74 91 
f 68 86 91 
f 69 63 92 
f 73 69 92 
f 79 73 92 
f 63 89 92 
f 67 76 93 
f 66 78 93 
f 78 67 93 
f 88 65 94 
f 80 88 94 
f 90 80 94 
f 85 90 94 
f 93 76 95 
f 66 93 95 
f 68 79 96 
f 86 68 96 
f 89 86 96 
f 79 92 96 
f 92 89 96 
f 71 67 97 
f 78 66 97 
f 67 78 97 
f 83 71 97 
f 66 83 97 
f 65 64 98 
f 64 85 98 
f 94 65 98 
f 85 94 98 
f 83 66 99 
f 76 83 99 
f 66 95 99 
o convex_3
v 0.032408 0.081741 0.019900
v 0.007588 0.082597 -0.000214
v 0.007588 0.094577 -0.000214
v 0.007588 0.094149 0.020328
v 0.031122 0.096718 0.000214
v 0.030695 0.080458 -0.000214
v 0.031122 0.096718 0.019900
v 0.007588 0.082171 0.019900
v 0.021278 0.079172 0.019900
v 0.015292 0.096718 0.019900
v 0.021278 0.079172 0.000214
v 0.032408 0.095432 0.000214
v 0.015292 0.096718 0.000214
v 0.026844 0.079601 0.020328
v 0.032408 0.081741 0.000214
v 0.031978 0.095432 0.020328
v 0.026844 0.079172 0.000214
v 0.031122 0.096289 -0.000214
v 0.031122 0.080458 0.019900
v 0.032408 0.095432 0.019900
v 0.014862 0.080458 0.000214
v 0.007588 0.082597 0.020328
v 0.026844 0.079172 0.019900
v 0.007588 0.094577 0.019900
v 0.007588 0.082171 0.000214
v 0.014862 0.080458 0.019900
v 0.031978 0.081741 0.020328
v 0.014862 0.096289 0.020328
v 0.031122 0.080458 0.000214
v 0.020850 0.079601 -0.000214
f 110 120 129 
f 102 101 103 
f 101 102 105 
f 103 101 107 
f 106 104 109 
f 104 106 111 
f 102 109 112 
f 109 104 112 
f 111 100 114 
f 103 113 115 
f 108 110 116 
f 105 102 117 
f 104 111 117 
f 102 112 117 
f 112 104 117 
f 114 105 117 
f 111 114 117 
f 114 100 118 
f 100 111 119 
f 111 106 119 
f 106 115 119 
f 115 100 119 
f 110 108 120 
f 103 107 121 
f 113 103 121 
f 108 113 121 
f 113 108 122 
f 108 116 122 
f 118 113 122 
f 116 118 122 
f 102 103 123 
f 109 102 123 
f 107 101 124 
f 101 120 124 
f 120 107 124 
f 107 120 125 
f 120 108 125 
f 121 107 125 
f 108 121 125 
f 100 115 126 
f 115 113 126 
f 118 100 126 
f 113 118 126 
f 106 109 127 
f 103 115 127 
f 115 106 127 
f 123 103 127 
f 109 123 127 
f 105 114 128 
f 116 105 128 
f 114 118 128 
f 118 116 128 
f 101 105 129 
f 105 116 129 
f 116 110 129 
f 120 101 129 
