o convex_0
v -0.010357 0.068215 0.020465
v 0.008925 0.099735 0.019990
v 0.008925 0.099735 0.000239
v 0.036207 0.069628 0.019990
v -0.035760 0.069159 -0.000233
v -0.034349 0.095499 0.019990
v 0.035271 0.068690 -0.000233
v 0.035739 0.094558 -0.000233
v -0.033881 0.095499 -0.000233
v 0.035271 0.095027 0.020465
v -0.035760 0.069628 0.020465
v -0.008946 0.099735 0.000239
v -0.035760 0.093617 0.020465
v -0.034817 0.068215 0.000239
v 0.034796 0.068215 0.019990
v -0.008946 0.099735 0.019990
v -0.036228 0.093617 0.000239
v 0.035271 0.095499 0.000239
v -0.034817 0.068215 0.019990
v 0.034796 0.068215 0.000239
v 0.034796 0.068690 0.020465
v 0.036207 0.094558 0.000239
v -0.036228 0.069628 0.019990
v 0.036207 0.094558 0.019990
v 0.036207 0.069628 0.000239
v 0.035271 0.095499 0.019990
v -0.036228 0.093617 0.019990
v -0.008946 0.099263 0.020465
v -0.036228 0.069628 0.000239
v 0.009393 0.099263 -0.000233
v -0.034349 0.095499 0.000239
v -0.010826 0.068215 -0.000233
v 0.008925 0.099263 0.020465
v -0.008946 0.099263 -0.000233
v -0.035760 0.093617 -0.000233
f 5 17 35 
f 7 5 8 
f 8 5 9 
f 1 10 11 
f 2 3 12 
f 11 10 13 
f 7 4 15 
f 1 14 15 
f 2 12 16 
f 12 6 16 
f 3 2 18 
f 1 11 19 
f 14 1 19 
f 5 14 19 
f 7 15 20 
f 15 14 20 
f 10 1 21 
f 4 10 21 
f 15 4 21 
f 1 15 21 
f 8 18 22 
f 11 13 23 
f 19 11 23 
f 5 19 23 
f 10 4 24 
f 4 22 24 
f 22 18 24 
f 4 7 25 
f 7 8 25 
f 22 4 25 
f 8 22 25 
f 2 10 26 
f 18 2 26 
f 10 24 26 
f 24 18 26 
f 13 6 27 
f 6 17 27 
f 23 13 27 
f 17 23 27 
f 6 13 28 
f 13 10 28 
f 2 16 28 
f 16 6 28 
f 17 5 29 
f 5 23 29 
f 23 17 29 
f 8 9 30 
f 12 3 30 
f 3 18 30 
f 18 8 30 
f 6 12 31 
f 12 9 31 
f 17 6 31 
f 9 17 31 
f 5 7 32 
f 14 5 32 
f 7 20 32 
f 20 14 32 
f 10 2 33 
f 2 28 33 
f 28 10 33 
f 9 12 34 
f 30 9 34 
f 12 30 34 
f 9 5 35 
f 17 9 35 
o convex_1
v 0.011280 -0.086560 0.019990
v -0.011301 -0.098319 0.000239
v -0.010831 -0.098794 -0.000233
v 0.008926 -0.023993 -0.000233
v -0.009418 -0.026825 0.019990
v 0.010809 -0.098794 -0.000233
v -0.010831 -0.098319 0.020465
v -0.008947 -0.026351 -0.000233
v 0.008926 -0.023993 0.020465
v 0.009868 -0.099253 0.020465
v -0.007537 -0.023993 0.020465
v 0.009397 -0.023993 0.000239
v 0.011280 -0.086560 0.000239
v -0.011301 -0.085619 0.019990
v -0.009418 -0.026825 0.000239
v -0.008006 -0.023993 -0.000233
v -0.009889 -0.099728 0.019990
v 0.009868 -0.099735 0.000239
v 0.009397 -0.023993 0.019990
v -0.011301 -0.085619 0.000239
v 0.011280 -0.098319 0.019990
v -0.009889 -0.099728 0.000239
v 0.009868 -0.099735 0.019990
v -0.011301 -0.098319 0.019990
v 0.011280 -0.098319 0.000239
v -0.008947 -0.026825 0.020465
v 0.010809 -0.086560 0.020465
v -0.008006 -0.023993 0.019990
f 46 51 63 
f 38 39 41 
f 39 38 43 
f 44 42 45 
f 44 39 46 
f 42 44 46 
f 39 44 47 
f 41 39 48 
f 47 36 48 
f 39 47 48 
f 49 40 50 
f 39 43 51 
f 46 39 51 
f 43 50 51 
f 50 40 51 
f 45 42 52 
f 38 41 53 
f 44 36 54 
f 36 47 54 
f 47 44 54 
f 38 37 55 
f 43 38 55 
f 37 49 55 
f 50 43 55 
f 49 50 55 
f 48 36 56 
f 52 38 57 
f 53 52 57 
f 38 53 57 
f 45 52 58 
f 52 53 58 
f 53 41 58 
f 56 45 58 
f 41 56 58 
f 37 38 59 
f 49 37 59 
f 42 49 59 
f 38 52 59 
f 52 42 59 
f 41 48 60 
f 48 56 60 
f 56 41 60 
f 46 40 61 
f 42 46 61 
f 40 49 61 
f 49 42 61 
f 36 44 62 
f 44 45 62 
f 56 36 62 
f 45 56 62 
f 40 46 63 
f 51 40 63 
o convex_2
v 0.010339 0.068215 0.019990
v -0.010361 0.058793 0.000239
v -0.010361 0.058793 0.019990
v 0.009397 -0.023984 0.000239
v -0.007536 -0.023984 0.020465
v 0.010339 0.068215 -0.000233
v -0.008008 -0.023984 -0.000233
v 0.009397 -0.023984 0.019990
v -0.010361 0.068197 -0.000233
v -0.009888 0.068197 0.020465
v 0.009867 0.068215 0.020465
v -0.008008 -0.023984 0.019990
v 0.008927 -0.023984 -0.000233
v 0.008927 -0.023984 0.020465
v 0.010339 0.058802 0.019990
v 0.010339 0.058802 0.000239
v -0.010361 0.068197 0.019990
f 73 74 80 
f 66 65 70 
f 67 68 70 
f 68 67 71 
f 65 66 72 
f 69 70 72 
f 70 65 72 
f 66 68 73 
f 64 69 74 
f 69 72 74 
f 73 68 74 
f 68 66 75 
f 66 70 75 
f 70 68 75 
f 69 67 76 
f 67 70 76 
f 70 69 76 
f 68 71 77 
f 74 68 77 
f 74 77 78 
f 69 64 78 
f 71 67 78 
f 64 74 78 
f 77 71 78 
f 67 69 79 
f 69 78 79 
f 78 67 79 
f 72 66 80 
f 66 73 80 
f 74 72 80 
