o convex_0
v 0.017373 -0.080750 0.019631
v -0.007334 -0.098393 0.000224
v -0.007334 -0.098393 0.019631
v -0.004242 -0.063546 0.000224
v 0.019141 -0.098393 -0.000217
v -0.004242 -0.063546 0.020076
v 0.015168 -0.064428 0.000224
v 0.016933 -0.099721 0.020076
v 0.014284 -0.063546 0.020076
v -0.006009 -0.099721 0.000224
v -0.005126 -0.070604 -0.000217
v -0.006009 -0.099721 0.020076
v 0.019141 -0.098393 0.020076
v -0.007334 -0.090449 0.019631
v 0.013844 -0.063546 -0.000217
v 0.016933 -0.099721 0.000224
v -0.006891 -0.090449 -0.000217
v 0.018257 -0.087804 0.000224
v 0.015168 -0.064428 0.019631
v -0.007334 -0.090449 0.000224
v -0.006009 -0.099274 -0.000217
v 0.019141 -0.096629 0.020076
v -0.003802 -0.063546 -0.000217
v -0.005126 -0.070604 0.020076
v 0.018257 -0.087804 0.020076
v 0.019141 -0.096629 -0.000217
v 0.017373 -0.080750 0.000224
f 18 26 27 
f 6 8 9 
f 4 6 9 
f 3 2 10 
f 6 4 11 
f 8 6 12 
f 3 10 12 
f 10 8 12 
f 8 5 13 
f 9 8 13 
f 2 3 14 
f 3 12 14 
f 4 9 15 
f 9 7 15 
f 5 11 15 
f 5 8 16 
f 8 10 16 
f 11 5 17 
f 1 7 19 
f 7 9 19 
f 2 14 20 
f 14 11 20 
f 17 2 20 
f 11 17 20 
f 10 2 21 
f 5 16 21 
f 16 10 21 
f 2 17 21 
f 17 5 21 
f 13 5 22 
f 9 13 22 
f 11 4 23 
f 4 15 23 
f 15 11 23 
f 6 11 24 
f 12 6 24 
f 11 14 24 
f 14 12 24 
f 18 1 25 
f 1 19 25 
f 19 9 25 
f 9 22 25 
f 22 18 25 
f 5 15 26 
f 15 7 26 
f 22 5 26 
f 18 22 26 
f 7 1 27 
f 1 18 27 
f 26 7 27 
o convex_1
v 0.014287 -0.012792 0.020076
v -0.006010 -0.033531 -0.000217
v -0.005126 -0.050295 -0.000217
v -0.006010 -0.033531 0.020076
v -0.003803 0.062203 -0.000217
v 0.014287 -0.063539 0.000224
v 0.008108 0.062203 0.020076
v 0.008108 0.062203 -0.000217
v 0.014287 -0.063539 0.020076
v -0.004244 0.062203 0.020076
v -0.004244 -0.063514 0.020076
v 0.014287 -0.012792 0.000222
v -0.003803 -0.063514 -0.000217
v -0.006010 -0.005296 0.000224
v 0.013844 -0.063539 -0.000217
v -0.006010 -0.005296 0.020076
v -0.004244 0.062203 0.000224
v 0.009433 0.047199 0.019631
v 0.009433 0.047199 0.000224
v 0.013844 -0.012349 -0.000217
v -0.004244 -0.063514 0.000224
v -0.005126 -0.050738 0.019631
v -0.006010 -0.005727 -0.000217
f 41 44 50 
f 30 29 32 
f 31 28 34 
f 30 32 35 
f 32 34 35 
f 28 31 36 
f 33 28 36 
f 34 32 37 
f 31 34 37 
f 36 31 38 
f 28 33 39 
f 30 35 40 
f 29 31 41 
f 33 36 42 
f 36 38 42 
f 39 33 42 
f 40 35 42 
f 31 37 43 
f 41 31 43 
f 37 41 43 
f 37 32 44 
f 41 37 44 
f 34 28 45 
f 35 34 45 
f 28 39 45 
f 45 39 46 
f 39 35 46 
f 35 45 46 
f 35 39 47 
f 39 42 47 
f 42 35 47 
f 30 40 48 
f 42 38 48 
f 40 42 48 
f 29 30 49 
f 31 29 49 
f 38 31 49 
f 30 48 49 
f 48 38 49 
f 32 29 50 
f 29 41 50 
f 44 32 50 
o convex_2
v -0.016603 0.094863 -0.000217
v -0.038217 0.062660 0.000224
v -0.038217 0.062660 0.020076
v -0.013514 0.084275 0.000224
v -0.013514 0.096632 0.020076
v -0.013514 0.084275 0.020076
v -0.028071 0.081627 0.020076
v -0.028071 0.081627 0.000224
v -0.036894 0.062660 -0.000217
v -0.013514 0.096632 -0.000217
v -0.038217 0.064425 0.000224
v -0.023220 0.088247 0.020076
v -0.037336 0.062215 0.020076
v -0.038217 0.064425 0.020076
v -0.022780 0.088688 -0.000217
v -0.015720 0.095746 0.020076
v -0.013514 0.084719 -0.000217
v -0.037336 0.062215 0.000224
v -0.035131 0.069280 -0.000217
v -0.035131 0.069718 0.000224
v -0.013955 0.096632 -0.000217
f 66 55 71 
f 55 53 56 
f 54 55 56 
f 53 55 57 
f 55 54 60 
f 59 51 60 
f 52 53 61 
f 59 52 61 
f 57 55 62 
f 58 57 62 
f 53 52 63 
f 56 53 63 
f 54 56 63 
f 53 57 64 
f 61 53 64 
f 51 59 65 
f 58 62 65 
f 65 62 66 
f 62 55 66 
f 51 65 66 
f 54 59 67 
f 60 54 67 
f 59 60 67 
f 52 59 68 
f 59 54 68 
f 63 52 68 
f 54 63 68 
f 59 61 69 
f 65 59 69 
f 58 65 69 
f 57 58 70 
f 64 57 70 
f 61 64 70 
f 58 69 70 
f 69 61 70 
f 60 51 71 
f 55 60 71 
f 51 66 71 
o convex_3
v 0.012079 0.082509 0.020076
v -0.009097 0.080304 0.000224
v -0.009097 0.080304 0.019631
v 0.008109 0.062219 0.020076
v 0.012079 0.083834 -0.000217
v -0.003802 0.062219 -0.000217
v 0.008109 0.062219 -0.000217
v -0.004243 0.062219 0.020076
v -0.009097 0.083834 0.020076
v -0.009097 0.083834 -0.000217
v 0.012079 0.083834 0.020076
v 0.011198 0.076333 0.000224
v -0.004243 0.062219 0.000224
v 0.011198 0.076333 0.019631
v 0.012079 0.082509 -0.000217
f 83 78 86 
f 75 77 78 
f 77 76 78 
f 74 73 79 
f 75 72 79 
f 77 75 79 
f 73 74 80 
f 79 72 80 
f 74 79 80 
f 77 73 81 
f 76 77 81 
f 73 80 81 
f 80 76 81 
f 72 76 82 
f 80 72 82 
f 76 80 82 
f 75 78 83 
f 73 77 84 
f 79 73 84 
f 77 79 84 
f 72 75 85 
f 83 72 85 
f 75 83 85 
f 76 72 86 
f 78 76 86 
f 72 83 86 
o convex_4
v 0.038113 0.084719 0.020076
v -0.013511 0.084721 -0.000217
v -0.013511 0.084279 0.000224
v -0.006891 0.099721 0.020076
v 0.037229 0.099279 -0.000217
v -0.013511 0.084279 0.020076
v 0.038113 0.084278 0.000224
v -0.009979 0.098836 0.000224
v 0.036789 0.099721 0.020076
v -0.013511 0.096631 0.020076
v -0.006891 0.099721 0.000224
v -0.013511 0.096631 -0.000217
v 0.012518 0.083836 0.020076
v -0.009095 0.083836 -0.000217
v 0.038113 0.098396 0.020076
v 0.036789 0.099721 0.000224
v 0.012084 0.083836 -0.000217
v 0.038113 0.098396 -0.000217
v 0.038113 0.084278 0.019631
v -0.009534 0.083836 0.020076
v 0.038113 0.084719 -0.000217
v -0.009979 0.098836 0.019631
v -0.006891 0.099277 -0.000217
f 98 94 109 
f 88 89 92 
f 87 90 92 
f 90 87 95 
f 88 92 96 
f 92 90 96 
f 94 90 97 
f 90 95 97 
f 91 88 98 
f 88 96 98 
f 96 94 98 
f 87 92 99 
f 89 88 100 
f 88 91 100 
f 87 93 101 
f 95 87 101 
f 95 101 102 
f 91 97 102 
f 97 95 102 
f 93 99 103 
f 99 100 103 
f 100 91 103 
f 101 93 104 
f 102 101 104 
f 91 102 104 
f 103 91 104 
f 93 87 105 
f 87 99 105 
f 99 93 105 
f 92 89 106 
f 99 92 106 
f 100 99 106 
f 89 100 106 
f 93 103 107 
f 104 93 107 
f 103 104 107 
f 90 94 108 
f 96 90 108 
f 94 96 108 
f 94 97 109 
f 97 91 109 
f 91 98 109 
