o convex_0
v 0.006727 -0.001687 0.000211
v -0.010522 -0.096760 0.000211
v -0.010522 -0.096760 0.019561
v 0.011776 -0.096339 0.000211
v 0.010093 -0.039559 0.020405
v -0.007576 -0.001687 0.019983
v -0.008837 -0.009685 0.000211
v 0.011355 -0.096339 0.020405
v 0.006727 -0.001687 0.019983
v -0.010522 -0.037452 0.019983
v 0.010512 -0.039559 -0.000210
v -0.005472 0.000421 -0.000210
v -0.006314 -0.099279 0.020405
v 0.006727 -0.099279 -0.000210
v -0.010522 -0.037873 -0.000210
v 0.004202 0.000421 0.020405
v 0.011776 -0.086665 0.019983
v -0.006735 -0.099279 -0.000210
v 0.006306 -0.099710 0.019983
v -0.005050 0.000421 0.020405
v 0.008829 -0.018516 0.019561
v 0.004621 0.000421 -0.000210
v 0.010512 -0.039559 0.019983
v -0.008837 -0.009685 0.019983
v -0.010101 -0.096339 0.020405
v -0.007576 -0.001275 0.000211
v 0.008829 -0.018516 0.000211
v -0.006314 -0.099710 0.000211
v 0.011776 -0.086665 0.000211
v -0.010101 -0.037452 0.020405
v -0.006314 -0.099710 0.019983
v 0.006306 -0.099710 0.000211
v 0.011355 -0.096339 -0.000210
v 0.011776 -0.096339 0.019983
v -0.010522 -0.096339 -0.000210
v -0.005893 0.000421 0.019561
v -0.008418 -0.009685 0.020405
v 0.009672 -0.028621 0.019983
v -0.007576 -0.001687 -0.000210
v 0.011355 -0.096760 0.000211
v 0.006306 -0.001687 0.020405
v 0.007568 -0.009694 -0.000210
v -0.007576 -0.001275 0.019561
f 36 26 43 
f 2 3 10 
f 8 5 13 
f 12 11 14 
f 2 10 15 
f 10 7 15 
f 12 14 15 
f 13 5 16 
f 5 8 17 
f 15 14 18 
f 8 13 19 
f 16 12 20 
f 13 16 20 
f 1 9 21 
f 9 1 22 
f 11 12 22 
f 16 9 22 
f 12 16 22 
f 5 17 23 
f 17 11 23 
f 7 10 24 
f 10 3 25 
f 13 20 25 
f 7 24 26 
f 1 21 27 
f 3 2 28 
f 2 18 28 
f 18 14 28 
f 17 4 29 
f 11 17 29 
f 10 25 30 
f 25 20 30 
f 19 13 31 
f 25 3 31 
f 13 25 31 
f 3 28 31 
f 28 19 31 
f 28 14 32 
f 19 28 32 
f 14 11 33 
f 29 4 33 
f 11 29 33 
f 4 17 34 
f 17 8 34 
f 8 19 34 
f 2 15 35 
f 18 2 35 
f 15 18 35 
f 6 20 36 
f 20 12 36 
f 12 26 36 
f 20 6 37 
f 6 24 37 
f 24 10 37 
f 10 30 37 
f 30 20 37 
f 21 9 38 
f 5 23 38 
f 23 11 38 
f 11 27 38 
f 27 21 38 
f 15 7 39 
f 12 15 39 
f 7 26 39 
f 26 12 39 
f 32 14 40 
f 19 32 40 
f 33 4 40 
f 14 33 40 
f 4 34 40 
f 34 19 40 
f 9 16 41 
f 16 5 41 
f 5 38 41 
f 38 9 41 
f 22 1 42 
f 11 22 42 
f 1 27 42 
f 27 11 42 
f 24 6 43 
f 26 24 43 
f 6 36 43 
o convex_1
v -0.005894 0.000421 0.000211
v 0.004202 0.074047 0.020405
v 0.004624 0.074047 0.019983
v -0.006314 0.074047 -0.000210
v 0.004624 0.000421 -0.000210
v -0.005052 0.000421 0.020405
v -0.006736 0.074047 0.019983
v 0.004624 0.074047 -0.000210
v 0.004624 0.000421 0.019983
v -0.005894 0.000421 0.019561
v -0.006736 0.071510 0.000211
v -0.006314 0.074047 0.020405
v -0.005473 0.000421 -0.000210
v 0.004202 0.000421 0.020405
v -0.006736 0.071510 0.019983
v -0.006736 0.074047 0.000211
f 47 54 59 
f 45 46 47 
f 44 48 49 
f 45 47 50 
f 47 46 51 
f 48 47 51 
f 46 48 51 
f 46 45 52 
f 48 46 52 
f 49 48 52 
f 44 49 53 
f 44 53 54 
f 49 45 55 
f 45 50 55 
f 48 44 56 
f 47 48 56 
f 44 54 56 
f 54 47 56 
f 45 49 57 
f 52 45 57 
f 49 52 57 
f 53 49 58 
f 50 54 58 
f 54 53 58 
f 49 55 58 
f 55 50 58 
f 50 47 59 
f 54 50 59 
o convex_2
v -0.017254 0.084145 0.019983
v -0.038288 0.088350 -0.000210
v -0.038710 0.088771 0.000211
v -0.017254 0.095503 -0.000210
v -0.038710 0.095503 0.019983
v -0.036606 0.080357 0.000211
v -0.036606 0.080357 0.019983
v -0.017254 0.095081 0.020405
v -0.017254 0.084566 -0.000210
v -0.038288 0.095503 -0.000210
v -0.030715 0.080357 0.000211
v -0.030715 0.080780 0.020405
v -0.037868 0.081622 0.019561
v -0.017254 0.095503 0.019983
v -0.038288 0.095081 0.020405
v -0.030715 0.080357 0.019983
v -0.037868 0.081622 0.000211
v -0.038710 0.088771 0.019983
v -0.017254 0.084145 0.000211
v -0.036606 0.080780 -0.000210
v -0.017254 0.084566 0.020405
v -0.038710 0.095503 0.000211
v -0.037026 0.081201 0.020405
f 74 77 82 
f 60 63 67 
f 61 63 68 
f 63 60 68 
f 61 62 69 
f 63 61 69 
f 64 63 69 
f 66 65 70 
f 65 66 72 
f 63 64 73 
f 67 63 73 
f 64 67 73 
f 67 64 74 
f 71 67 74 
f 70 60 75 
f 66 70 75 
f 71 66 75 
f 62 61 76 
f 72 62 76 
f 65 72 76 
f 64 62 77 
f 62 72 77 
f 74 64 77 
f 68 60 78 
f 60 70 78 
f 70 68 78 
f 61 68 79 
f 70 65 79 
f 68 70 79 
f 76 61 79 
f 65 76 79 
f 60 67 80 
f 67 71 80 
f 75 60 80 
f 71 75 80 
f 62 64 81 
f 69 62 81 
f 64 69 81 
f 66 71 82 
f 72 66 82 
f 71 74 82 
f 77 72 82 
o convex_3
v -0.006735 0.074047 0.000211
v 0.006304 0.099710 0.019983
v 0.006304 0.099710 0.000211
v -0.017254 0.095920 0.019983
v 0.004620 0.074047 0.019983
v -0.017254 0.095503 -0.000210
v 0.013459 0.088770 -0.000210
v -0.017254 0.084565 0.020405
v 0.013459 0.097183 0.020405
v 0.004620 0.074047 -0.000210
v -0.006314 0.074047 0.020405
v -0.017254 0.084565 -0.000210
v -0.008418 0.099710 0.000211
v 0.013459 0.088351 0.019983
v 0.013459 0.097605 -0.000210
v -0.008418 0.099288 0.020405
v 0.011354 0.098869 0.019561
v -0.008418 0.099710 0.019983
v -0.016409 0.096764 0.000211
v -0.017254 0.084148 0.019983
v 0.004202 0.074047 0.020405
v 0.011354 0.098869 0.000211
v -0.017254 0.084148 0.000211
v -0.016409 0.096764 0.019983
v -0.006735 0.074047 0.019983
v 0.013459 0.088351 0.000211
v -0.008418 0.099288 -0.000210
v -0.006314 0.074047 -0.000210
v -0.017254 0.095503 0.020405
v 0.013459 0.088770 0.020405
f 91 103 112 
f 86 88 90 
f 87 83 92 
f 88 89 92 
f 83 87 93 
f 91 90 93 
f 90 88 94 
f 88 92 94 
f 84 85 95 
f 89 91 96 
f 87 92 96 
f 89 88 97 
f 91 89 97 
f 91 84 98 
f 90 91 98 
f 85 84 99 
f 84 91 99 
f 91 97 99 
f 84 95 100 
f 98 84 100 
f 88 86 101 
f 100 95 101 
f 93 90 102 
f 90 94 102 
f 93 87 103 
f 91 93 103 
f 97 85 104 
f 85 99 104 
f 99 97 104 
f 83 102 105 
f 102 94 105 
f 98 100 106 
f 101 86 106 
f 100 101 106 
f 83 93 107 
f 102 83 107 
f 93 102 107 
f 92 89 108 
f 89 96 108 
f 96 92 108 
f 95 85 109 
f 85 97 109 
f 97 88 109 
f 88 101 109 
f 101 95 109 
f 92 83 110 
f 94 92 110 
f 83 105 110 
f 105 94 110 
f 86 90 111 
f 90 98 111 
f 106 86 111 
f 98 106 111 
f 96 91 112 
f 87 96 112 
f 103 87 112 
o convex_4
v 0.013462 0.097607 -0.000210
v 0.031550 0.084565 0.019983
v 0.030707 0.086249 0.019983
v 0.013462 0.088774 0.020405
v 0.031128 0.082882 0.000211
v 0.013462 0.088352 0.000211
v 0.015564 0.097607 0.019983
v 0.025657 0.092558 0.000211
v 0.029444 0.083302 0.019983
v 0.025657 0.092558 0.019983
v 0.018509 0.096765 0.000211
v 0.013462 0.097184 0.020405
v 0.030285 0.086670 -0.000210
v 0.013462 0.088352 0.019983
v 0.018509 0.096765 0.019983
v 0.031126 0.083725 0.020405
v 0.013462 0.088774 -0.000210
v 0.031550 0.084144 -0.000210
v 0.031550 0.082882 0.019561
v 0.015143 0.097607 -0.000210
v 0.025237 0.092135 0.020405
v 0.029444 0.083302 0.000211
v 0.022294 0.094661 0.000211
v 0.030707 0.086249 0.000211
f 114 130 136 
f 116 113 118 
f 115 120 122 
f 113 116 124 
f 119 113 124 
f 116 118 126 
f 121 116 126 
f 118 121 126 
f 123 119 127 
f 119 124 127 
f 114 115 128 
f 116 121 128 
f 124 116 128 
f 118 113 129 
f 113 125 129 
f 129 125 130 
f 117 130 131 
f 121 117 131 
f 114 128 131 
f 128 121 131 
f 130 114 131 
f 113 119 132 
f 119 123 132 
f 125 113 132 
f 120 125 132 
f 115 122 133 
f 122 127 133 
f 127 124 133 
f 128 115 133 
f 124 128 133 
f 117 121 134 
f 121 118 134 
f 118 129 134 
f 129 130 134 
f 130 117 134 
f 122 120 135 
f 127 122 135 
f 123 127 135 
f 120 132 135 
f 132 123 135 
f 115 114 136 
f 120 115 136 
f 125 120 136 
f 130 125 136 
o convex_5
v 0.031971 0.083301 0.020405
v 0.037860 0.074467 -0.000210
v 0.038280 0.074467 -0.000210
v 0.031550 0.083723 0.000211
v 0.032392 0.080357 0.019983
v 0.038702 0.075310 0.019983
v 0.033653 0.082459 0.000211
v 0.032392 0.080357 0.000211
v 0.037439 0.074467 0.019983
v 0.033653 0.082459 0.019983
v 0.036598 0.078675 0.000211
v 0.035336 0.076572 0.000211
v 0.038702 0.075310 0.000211
v 0.031550 0.082459 0.019983
v 0.032392 0.083723 0.019983
v 0.036598 0.078675 0.019983
v 0.035336 0.076572 0.019983
v 0.031550 0.082459 -0.000210
v 0.038702 0.074467 0.019983
v 0.032392 0.083723 0.000211
f 154 140 156 
f 138 139 145 
f 143 146 147 
f 139 143 147 
f 141 144 148 
f 138 145 148 
f 139 147 149 
f 147 142 149 
f 137 140 150 
f 141 137 150 
f 144 141 150 
f 140 137 151 
f 137 146 151 
f 146 143 151 
f 137 142 152 
f 146 137 152 
f 147 146 152 
f 142 147 152 
f 137 141 153 
f 145 137 153 
f 141 148 153 
f 148 145 153 
f 139 138 154 
f 143 139 154 
f 138 148 154 
f 148 144 154 
f 150 140 154 
f 144 150 154 
f 142 137 155 
f 145 139 155 
f 137 145 155 
f 139 149 155 
f 149 142 155 
f 140 151 156 
f 151 143 156 
f 143 154 156 
