o convex_0
v 0.010625 -0.097406 0.020038
v -0.010564 -0.066560 -0.000230
v -0.010564 -0.066560 0.020038
v 0.008784 0.074855 0.020038
v 0.011547 -0.008524 -0.000230
v -0.006878 0.074855 0.000232
v -0.006878 0.074855 0.020038
v 0.008781 -0.099269 -0.000230
v 0.008323 0.074855 -0.000230
v -0.008720 -0.097423 0.020038
v -0.008259 -0.097868 -0.000230
v 0.011547 -0.008524 0.020038
v 0.011547 -0.093271 -0.000230
v -0.009642 -0.007618 -0.000230
v -0.010564 -0.044446 0.020038
v -0.006417 -0.099730 0.020038
v 0.011547 -0.093732 0.020038
v -0.009642 -0.094655 0.000232
v 0.008784 0.074855 0.000232
v 0.008323 -0.099730 0.020038
v -0.006417 -0.099730 0.000232
v -0.006417 0.074855 -0.000230
v -0.009642 -0.007618 0.020038
v -0.009642 -0.094655 0.020038
v -0.010564 -0.044446 -0.000230
v 0.008323 -0.099730 0.000232
v 0.010625 -0.097406 -0.000230
f 13 17 27 
f 3 1 4 
f 4 6 7 
f 3 4 7 
f 2 5 8 
f 5 2 9 
f 6 4 9 
f 1 3 10 
f 2 8 11 
f 4 1 12 
f 5 4 12 
f 5 12 13 
f 8 5 13 
f 7 6 14 
f 9 2 14 
f 2 3 15 
f 3 7 15 
f 1 10 16 
f 12 1 17 
f 13 12 17 
f 3 2 18 
f 11 10 18 
f 2 11 18 
f 4 5 19 
f 9 4 19 
f 5 9 19 
f 8 1 20 
f 1 16 20 
f 20 16 21 
f 11 8 21 
f 10 11 21 
f 16 10 21 
f 6 9 22 
f 14 6 22 
f 9 14 22 
f 7 14 23 
f 15 7 23 
f 14 15 23 
f 10 3 24 
f 3 18 24 
f 18 10 24 
f 14 2 25 
f 2 15 25 
f 15 14 25 
f 8 20 26 
f 20 21 26 
f 21 8 26 
f 1 8 27 
f 8 13 27 
f 17 1 27 
o convex_1
v -0.020698 0.097425 0.020038
v -0.043268 0.081768 -0.000230
v -0.043268 0.081304 0.000232
v -0.043730 0.099267 0.020038
v -0.031294 0.099267 -0.000230
v -0.020698 0.084069 0.019576
v -0.020698 0.084531 -0.000230
v -0.043268 0.081304 0.020038
v -0.043730 0.099267 0.000232
v -0.020698 0.097887 0.000232
v -0.032674 0.081304 0.000232
v -0.031756 0.099730 0.020038
v -0.032674 0.081304 0.020038
v -0.043730 0.081768 0.000232
v -0.043268 0.099730 0.000232
v -0.031756 0.099730 0.000232
v -0.043730 0.081768 0.020038
v -0.020698 0.084069 0.000232
v -0.043268 0.099730 0.020038
v -0.043268 0.099267 -0.000230
v -0.020698 0.097887 0.019576
v -0.020698 0.084531 0.020038
v -0.020698 0.097425 -0.000230
f 37 34 50 
f 28 33 34 
f 29 32 34 
f 28 31 35 
f 28 34 37 
f 30 29 38 
f 29 34 38 
f 35 30 38 
f 31 28 39 
f 28 35 40 
f 38 33 40 
f 35 38 40 
f 29 30 41 
f 30 35 41 
f 36 29 41 
f 31 36 41 
f 36 31 42 
f 42 39 43 
f 37 32 43 
f 39 37 43 
f 32 42 43 
f 35 31 44 
f 41 35 44 
f 31 41 44 
f 34 33 45 
f 33 38 45 
f 38 34 45 
f 31 39 46 
f 42 31 46 
f 39 42 46 
f 32 29 47 
f 29 36 47 
f 36 42 47 
f 42 32 47 
f 28 37 48 
f 39 28 48 
f 37 39 48 
f 33 28 49 
f 28 40 49 
f 40 33 49 
f 34 32 50 
f 32 37 50 
o convex_2
v -0.020698 0.084071 0.000232
v 0.016614 0.099730 0.019576
v 0.017997 0.098807 0.020038
v 0.017997 0.098345 -0.000230
v 0.009240 0.074855 0.019576
v -0.020698 0.097885 0.019576
v 0.008781 0.074855 -0.000230
v -0.014706 0.099265 -0.000230
v -0.006877 0.074855 0.020038
v 0.017997 0.083149 0.020038
v -0.020698 0.084532 0.020038
v -0.006877 0.074855 -0.000230
v 0.017997 0.083149 0.000232
v -0.020698 0.097427 -0.000230
v -0.014248 0.099730 0.020038
v 0.016614 0.099730 0.000232
v -0.014248 0.099730 0.000232
v -0.020698 0.084071 0.019576
v -0.020698 0.084532 -0.000230
v 0.009240 0.074855 0.000232
v 0.017997 0.083609 -0.000230
v 0.008781 0.074855 0.020038
v -0.020698 0.097885 0.000232
v -0.020698 0.097427 0.020038
f 61 65 74 
f 54 57 58 
f 57 55 59 
f 54 53 60 
f 53 59 60 
f 56 51 61 
f 59 53 61 
f 58 57 62 
f 59 51 62 
f 57 59 62 
f 54 60 63 
f 60 55 63 
f 51 56 64 
f 58 62 64 
f 53 52 65 
f 61 53 65 
f 52 53 66 
f 53 54 66 
f 54 58 66 
f 65 52 66 
f 65 66 67 
f 56 65 67 
f 66 58 67 
f 51 59 68 
f 61 51 68 
f 59 61 68 
f 62 51 69 
f 51 64 69 
f 64 62 69 
f 55 57 70 
f 57 63 70 
f 63 55 70 
f 57 54 71 
f 54 63 71 
f 63 57 71 
f 59 55 72 
f 55 60 72 
f 60 59 72 
f 64 56 73 
f 58 64 73 
f 56 67 73 
f 67 58 73 
f 56 61 74 
f 65 56 74 
o convex_3
v 0.031816 0.081764 0.000232
v 0.043793 0.076239 0.020038
v 0.043793 0.075777 0.020038
v 0.043793 0.076239 0.000232
v 0.040568 0.082226 0.020038
v 0.031816 0.081764 0.019576
v 0.040568 0.082226 -0.000230
v 0.040568 0.075316 -0.000230
v 0.040568 0.075316 0.020038
v 0.032277 0.082226 -0.000230
v 0.033198 0.080383 0.000232
v 0.032277 0.082226 0.020038
v 0.041949 0.080383 0.000232
v 0.043332 0.075316 -0.000230
v 0.033198 0.080383 0.019576
v 0.042871 0.078541 0.019576
v 0.043332 0.075316 0.020038
f 83 88 91 
f 76 77 78 
f 77 76 79 
f 77 79 83 
f 75 80 84 
f 79 81 84 
f 81 82 84 
f 84 82 85 
f 80 75 85 
f 82 83 85 
f 75 84 85 
f 83 79 86 
f 84 80 86 
f 79 84 86 
f 78 81 87 
f 81 79 87 
f 78 77 88 
f 81 78 88 
f 82 81 88 
f 83 82 88 
f 80 85 89 
f 85 83 89 
f 83 86 89 
f 86 80 89 
f 76 78 90 
f 79 76 90 
f 78 87 90 
f 87 79 90 
f 77 83 91 
f 88 77 91 
o convex_4
v 0.036881 0.089138 0.019576
v 0.017999 0.083609 -0.000230
v 0.017999 0.083148 0.000232
v 0.017999 0.098809 0.020038
v 0.029510 0.095582 -0.000230
v 0.040566 0.082226 -0.000230
v 0.017999 0.083148 0.020038
v 0.017999 0.098809 0.000232
v 0.040566 0.082226 0.020038
v 0.027672 0.096506 0.020038
v 0.036881 0.089138 0.000232
v 0.029510 0.082226 0.000232
v 0.021222 0.098809 0.000232
v 0.032274 0.093740 0.020038
v 0.040566 0.083609 0.020038
v 0.029510 0.082226 0.020038
v 0.021222 0.098809 0.020038
v 0.040566 0.083609 0.000232
v 0.032736 0.093279 -0.000230
v 0.024448 0.097887 0.000232
v 0.017999 0.098348 -0.000230
v 0.024448 0.097887 0.019576
f 111 108 113 
f 93 94 95 
f 93 96 97 
f 95 94 98 
f 93 95 99 
f 95 98 100 
f 95 100 101 
f 94 93 103 
f 93 97 103 
f 98 94 103 
f 97 100 103 
f 99 95 104 
f 96 101 105 
f 101 100 105 
f 100 97 106 
f 102 92 106 
f 92 105 106 
f 105 100 106 
f 100 98 107 
f 98 103 107 
f 103 100 107 
f 95 101 108 
f 104 95 108 
f 97 102 109 
f 106 97 109 
f 102 106 109 
f 97 96 110 
f 92 102 110 
f 102 97 110 
f 105 92 110 
f 96 105 110 
f 101 96 111 
f 96 104 111 
f 104 108 111 
f 96 93 112 
f 93 99 112 
f 99 104 112 
f 104 96 112 
f 108 101 113 
f 101 111 113 
