o convex_0
v -0.011724 -0.099256 0.000233
v 0.006787 0.073815 0.020131
v 0.006787 0.073815 0.000233
v -0.011724 0.073815 0.020129
v 0.006787 -0.099256 0.020129
v -0.011724 -0.099256 0.020129
v 0.006787 -0.099256 0.000233
v -0.011261 0.073815 -0.000229
v 0.006323 -0.099256 -0.000229
v -0.011724 0.073815 0.000233
v 0.006323 0.073815 -0.000229
v -0.011261 -0.099256 -0.000229
v 0.006323 -0.099731 0.020129
v -0.011261 -0.099731 0.000233
v 0.006323 -0.099731 0.000233
v -0.011261 -0.099731 0.020129
f 6 14 16 
f 2 3 4 
f 3 2 5 
f 2 4 6 
f 4 1 6 
f 3 5 7 
f 4 3 8 
f 3 7 9 
f 1 4 10 
f 4 8 10 
f 8 1 10 
f 8 3 11 
f 3 9 11 
f 9 8 11 
f 1 8 12 
f 8 9 12 
f 5 2 13 
f 7 5 13 
f 6 1 14 
f 1 12 14 
f 12 9 14 
f 9 7 15 
f 7 13 15 
f 13 14 15 
f 14 9 15 
f 2 6 16 
f 13 2 16 
f 14 13 16 
o convex_1
v -0.040417 0.079371 0.020131
v 0.009556 0.099731 0.019667
v 0.009556 0.099731 0.000233
v 0.042416 0.076131 0.000233
v -0.042260 0.092786 -0.000231
v 0.042416 0.076595 0.020131
v 0.042416 0.098341 -0.000231
v -0.011722 0.073815 -0.000231
v -0.039486 0.096489 0.020131
v 0.042416 0.098341 0.020131
v -0.011722 0.073815 0.020131
v -0.038565 0.078445 -0.000231
v -0.014496 0.099731 0.000233
v 0.006782 0.073815 0.020131
v -0.039025 0.096954 0.000233
v -0.014496 0.099731 0.020131
v -0.042730 0.082610 0.020131
v 0.006782 0.073815 -0.000231
v -0.042730 0.082610 0.000233
v -0.042730 0.092324 0.020131
v 0.042416 0.098805 0.019667
v -0.032086 0.077055 0.019667
v 0.042885 0.076595 0.019667
v 0.042885 0.098341 0.000233
v 0.042416 0.076595 -0.000231
v 0.042416 0.076131 0.019667
v 0.042416 0.098805 0.000233
v -0.014496 0.099265 -0.000231
v 0.042885 0.098341 0.019667
v 0.042885 0.076595 0.000233
v -0.039025 0.096954 0.019667
v -0.032086 0.077055 0.000233
v -0.042730 0.092324 0.000233
v -0.015418 0.074282 0.020131
v -0.040417 0.079371 -0.000231
v -0.038565 0.078445 0.020131
v -0.040417 0.095563 -0.000231
v -0.015418 0.074282 0.000233
v -0.040878 0.095102 0.019667
f 53 49 55 
f 21 23 24 
f 17 22 25 
f 25 22 26 
f 22 17 27 
f 21 24 28 
f 18 19 29 
f 22 27 30 
f 27 24 30 
f 29 31 32 
f 25 26 32 
f 26 18 32 
f 18 29 32 
f 17 25 33 
f 24 23 34 
f 20 30 34 
f 30 24 34 
f 17 33 35 
f 35 33 36 
f 33 25 36 
f 19 18 37 
f 18 26 37 
f 26 22 39 
f 20 34 41 
f 34 23 41 
f 23 40 41 
f 30 20 42 
f 22 30 42 
f 20 39 42 
f 39 22 42 
f 23 19 43 
f 19 37 43 
f 40 23 43 
f 37 40 43 
f 19 23 44 
f 23 21 44 
f 29 19 44 
f 31 29 44 
f 37 26 45 
f 26 39 45 
f 40 37 45 
f 39 40 45 
f 39 20 46 
f 40 39 46 
f 41 40 46 
f 20 41 46 
f 32 31 47 
f 25 32 47 
f 28 24 48 
f 38 28 48 
f 21 35 49 
f 35 36 49 
f 27 17 50 
f 24 27 50 
f 38 48 50 
f 28 17 51 
f 21 28 51 
f 17 35 51 
f 35 21 51 
f 17 28 52 
f 28 38 52 
f 50 17 52 
f 38 50 52 
f 44 21 53 
f 31 44 53 
f 47 31 53 
f 21 49 53 
f 48 24 54 
f 24 50 54 
f 50 48 54 
f 36 25 55 
f 25 47 55 
f 49 36 55 
f 47 53 55 
