o convex_0
v 0.011016 0.069918 0.009780
v -0.004851 0.074718 0.008304
v -0.004851 0.074718 0.011991
v -0.003744 0.019742 0.012361
v 0.008064 0.019742 0.006089
v 0.008432 0.019742 0.014207
v 0.008801 0.075092 0.014207
v 0.008801 0.075092 0.006089
v -0.002267 0.019742 0.006089
v -0.003006 0.075092 0.014207
v -0.003006 0.075092 0.006089
v -0.002636 0.019742 0.014207
v 0.010277 0.019742 0.010885
v 0.011016 0.075092 0.011623
v -0.003744 0.019742 0.007934
v 0.010646 0.074718 0.007935
v 0.009909 0.019742 0.008672
v 0.010646 0.073982 0.012361
v -0.003006 0.019742 0.006827
v 0.010277 0.019742 0.009780
v 0.008801 0.019742 0.006827
v -0.004112 0.075092 0.013099
v 0.009169 0.019742 0.013099
f 13 18 23 
f 3 2 4 
f 4 5 6 
f 5 4 9 
f 8 5 9 
f 6 7 10 
f 7 8 10 
f 10 8 11 
f 8 9 11 
f 3 4 12 
f 4 6 12 
f 6 10 12 
f 6 5 13 
f 8 7 14 
f 13 1 14 
f 4 2 15 
f 9 4 15 
f 5 8 16 
f 14 1 16 
f 8 14 16 
f 13 5 17 
f 7 6 18 
f 14 7 18 
f 13 14 18 
f 2 11 19 
f 11 9 19 
f 15 2 19 
f 9 15 19 
f 1 13 20 
f 16 1 20 
f 13 17 20 
f 17 16 20 
f 5 16 21 
f 17 5 21 
f 16 17 21 
f 2 3 22 
f 10 11 22 
f 11 2 22 
f 3 12 22 
f 12 10 22 
f 6 13 23 
f 18 6 23 
o convex_1
v -0.007431 -0.092068 0.007196
v 0.013599 -0.084686 0.010516
v 0.013599 -0.084686 0.009779
v 0.015443 -0.099813 0.010884
v -0.005216 -0.090592 0.015683
v -0.005216 -0.099813 0.004983
v 0.010277 -0.084686 0.004983
v -0.005216 -0.099813 0.015312
v -0.004479 -0.084686 0.004983
v 0.010277 -0.084686 0.015312
v 0.011754 -0.099076 0.004613
v 0.011754 -0.099444 0.015683
v -0.006693 -0.084686 0.013099
v -0.007801 -0.099444 0.013099
v 0.015073 -0.097231 0.007196
v 0.015073 -0.096861 0.013099
v -0.004479 -0.084686 0.015312
v 0.011014 -0.100181 0.005720
v -0.005216 -0.091699 0.004613
v -0.004479 -0.100181 0.014575
v -0.007801 -0.099076 0.007196
v 0.011014 -0.100181 0.014575
v -0.006693 -0.085058 0.007196
v 0.015811 -0.096492 0.009779
v 0.010647 -0.089486 0.015683
v -0.006326 -0.100181 0.007934
v -0.005588 -0.098707 0.015683
v -0.005588 -0.098707 0.004613
v 0.011014 -0.091699 0.004613
v -0.007801 -0.095755 0.013099
v 0.012861 -0.085058 0.007565
v 0.012861 -0.085058 0.012730
v 0.015073 -0.099444 0.007565
v 0.005850 -0.089854 0.004613
v 0.015073 -0.099444 0.013099
f 47 39 58 
f 25 26 30 
f 25 30 32 
f 25 32 33 
f 33 32 36 
f 36 28 40 
f 33 36 40 
f 29 34 41 
f 31 37 43 
f 35 31 45 
f 41 27 45 
f 31 43 45 
f 43 41 45 
f 24 36 46 
f 36 32 46 
f 42 24 46 
f 32 42 46 
f 26 25 47 
f 38 26 47 
f 25 39 47 
f 28 35 48 
f 39 33 48 
f 35 39 48 
f 40 28 48 
f 33 40 48 
f 29 41 49 
f 43 37 49 
f 41 43 49 
f 37 44 49 
f 44 29 49 
f 35 28 50 
f 31 35 50 
f 37 31 50 
f 34 29 51 
f 24 42 51 
f 42 34 51 
f 44 24 51 
f 29 44 51 
f 30 38 52 
f 38 34 52 
f 34 42 52 
f 36 24 53 
f 28 36 53 
f 24 44 53 
f 44 37 53 
f 50 28 53 
f 37 50 53 
f 30 26 54 
f 26 38 54 
f 38 30 54 
f 25 33 55 
f 39 25 55 
f 33 39 55 
f 34 38 56 
f 27 41 56 
f 41 34 56 
f 38 47 56 
f 47 27 56 
f 32 30 57 
f 42 32 57 
f 30 52 57 
f 52 42 57 
f 39 35 58 
f 35 45 58 
f 45 27 58 
f 27 47 58 
o convex_2
v 0.013599 -0.078768 0.010148
v -0.006696 -0.084676 0.007566
v -0.006696 -0.084676 0.013099
v -0.003742 0.019742 0.007934
v 0.010278 -0.001663 0.015683
v 0.010278 -0.001295 0.004983
v -0.004481 -0.001663 0.015683
v 0.010278 -0.084686 0.015313
v 0.010278 -0.084686 0.004983
v -0.004850 -0.001295 0.004983
v 0.010278 0.019742 0.010884
v -0.006696 -0.001305 0.013099
v -0.004481 -0.084686 0.004983
v -0.002635 0.019742 0.014206
v -0.004481 -0.084686 0.015313
v 0.013230 -0.001295 0.010515
v 0.008062 0.019742 0.006090
v -0.006696 -0.001305 0.007196
v 0.008432 0.019742 0.014206
v 0.012491 -0.001295 0.007566
v 0.012491 -0.084686 0.013099
v 0.012491 -0.084686 0.007196
v -0.002635 0.019363 0.006090
v 0.012123 -0.001673 0.013468
v 0.002899 -0.026022 0.015683
v -0.004111 0.019363 0.011623
v -0.006696 -0.077296 0.007196
v 0.013599 -0.084686 0.010515
v 0.010278 0.019363 0.009411
v 0.012860 -0.001673 0.011991
v -0.005588 -0.049257 0.014575
v 0.013230 -0.001295 0.009779
v 0.013599 -0.083204 0.009779
v 0.011754 -0.001663 0.006459
v -0.005957 -0.001305 0.014206
v -0.005220 -0.041866 0.005352
v -0.004850 -0.072502 0.015313
v 0.012491 -0.029344 0.013099
v 0.008432 0.018995 0.006090
v -0.005588 -0.001305 0.005720
v 0.010645 -0.020114 0.015313
v 0.012860 -0.011630 0.008303
v -0.001529 -0.019010 0.015683
v 0.012860 -0.063639 0.007934
v -0.004111 0.019363 0.008673
f 76 84 103 
f 64 67 68 
f 60 61 70 
f 61 60 71 
f 67 66 71 
f 68 67 71 
f 65 63 72 
f 69 62 72 
f 61 71 73 
f 71 66 73 
f 64 68 75 
f 62 69 75 
f 60 70 76 
f 72 63 77 
f 69 72 77 
f 66 67 79 
f 79 67 80 
f 62 75 81 
f 75 68 81 
f 76 62 81 
f 77 63 82 
f 69 77 82 
f 63 65 83 
f 66 63 83 
f 73 66 83 
f 72 62 84 
f 70 72 84 
f 76 70 84 
f 71 60 85 
f 60 76 85 
f 59 74 86 
f 79 80 86 
f 75 69 87 
f 74 69 88 
f 69 82 88 
f 86 74 88 
f 74 59 90 
f 69 74 90 
f 87 69 90 
f 78 87 90 
f 59 86 91 
f 86 80 91 
f 90 59 91 
f 67 64 92 
f 80 67 92 
f 78 80 92 
f 70 61 93 
f 65 72 93 
f 72 70 93 
f 61 89 93 
f 89 65 93 
f 68 71 94 
f 71 85 94 
f 61 73 95 
f 73 65 95 
f 89 61 95 
f 65 89 95 
f 79 86 96 
f 88 82 96 
f 86 88 96 
f 64 75 97 
f 75 87 97 
f 87 78 97 
f 92 64 97 
f 78 92 97 
f 81 68 98 
f 76 81 98 
f 85 76 98 
f 68 94 98 
f 94 85 98 
f 63 66 99 
f 66 79 99 
f 82 63 99 
f 79 96 99 
f 96 82 99 
f 78 90 100 
f 90 91 100 
f 65 73 101 
f 83 65 101 
f 73 83 101 
f 80 78 102 
f 91 80 102 
f 78 100 102 
f 100 91 102 
f 62 76 103 
f 84 62 103 
o convex_3
v -0.005587 0.091325 0.000923
v 0.013227 0.100185 0.011622
v 0.013227 0.100185 0.009043
v 0.011383 0.075092 0.009411
v -0.019980 0.094280 0.017896
v -0.019980 0.082844 0.002400
v -0.008907 0.080999 0.017526
v 0.019503 0.087272 0.016050
v 0.019132 0.087272 0.004246
v -0.005955 0.099445 0.001293
v -0.001897 0.099074 0.019742
v -0.019980 0.082844 0.017896
v -0.003002 0.075092 0.014573
v -0.019980 0.094280 0.002400
v 0.006587 0.075466 0.005721
v 0.010278 0.099445 0.002030
v 0.003634 0.086536 0.000923
v 0.004372 0.086536 0.019370
v 0.019503 0.094648 0.015311
v 0.008430 0.075092 0.014573
v 0.019503 0.094648 0.004983
v -0.004849 0.075092 0.007935
v 0.009540 0.099074 0.018633
v -0.003373 0.100185 0.018633
v 0.019503 0.083581 0.013097
v 0.019503 0.084318 0.005721
v -0.003373 0.100185 0.001661
v 0.009169 0.075092 0.006090
v 0.001787 0.099074 0.000923
v -0.010755 0.086904 0.019001
v -0.018500 0.095017 0.018264
v -0.003373 0.075092 0.006090
v 0.008801 0.086536 0.001661
v 0.009907 0.100185 0.017526
v 0.009169 0.086536 0.018633
v 0.003634 0.090959 0.019742
v -0.007064 0.081365 0.002768
v 0.008430 0.092062 0.001293
v 0.019503 0.095756 0.009043
v -0.006326 0.098708 0.000923
v -0.007431 0.099077 0.004983
v 0.010278 0.100185 0.003137
v -0.004849 0.075092 0.012360
v -0.017395 0.083581 0.002030
v -0.004478 0.086536 0.019370
v -0.009278 0.098337 0.019001
v 0.010645 0.075092 0.012729
v 0.019503 0.084689 0.014943
v -0.017395 0.095385 0.002030
v 0.019503 0.083212 0.009779
v -0.003373 0.099074 0.019742
v 0.008430 0.089849 0.019001
v 0.019503 0.091696 0.016050
v 0.011012 0.098708 0.002030
v -0.002264 0.086536 0.000923
v 0.003263 0.086165 0.019370
v -0.019609 0.094646 0.005721
v -0.003373 0.075466 0.005721
v 0.012489 0.100185 0.006458
v 0.019132 0.091325 0.004246
f 141 157 163 
f 108 109 115 
f 110 115 116 
f 109 108 117 
f 116 107 123 
f 110 116 123 
f 122 111 124 
f 115 109 125 
f 107 116 125 
f 105 106 127 
f 124 111 128 
f 124 128 129 
f 112 124 129 
f 127 106 130 
f 118 120 131 
f 107 125 131 
f 112 129 131 
f 129 107 131 
f 120 104 132 
f 130 119 132 
f 113 130 132 
f 108 115 134 
f 115 133 134 
f 125 109 135 
f 118 131 135 
f 131 125 135 
f 131 120 136 
f 112 131 136 
f 122 105 137 
f 114 126 137 
f 126 122 137 
f 105 127 137 
f 127 114 137 
f 123 111 138 
f 121 123 138 
f 126 114 139 
f 120 118 140 
f 120 132 141 
f 112 136 141 
f 136 120 141 
f 106 105 142 
f 105 122 142 
f 122 124 142 
f 132 104 143 
f 113 132 143 
f 130 113 144 
f 127 130 144 
f 124 119 145 
f 130 106 145 
f 119 130 145 
f 116 115 146 
f 115 125 146 
f 125 116 146 
f 109 117 147 
f 140 109 147 
f 143 104 147 
f 115 110 148 
f 133 115 148 
f 127 144 149 
f 144 134 149 
f 123 107 150 
f 107 128 150 
f 150 128 151 
f 111 123 151 
f 128 111 151 
f 123 150 151 
f 113 143 152 
f 144 113 152 
f 147 117 152 
f 143 147 152 
f 128 107 153 
f 129 128 153 
f 107 129 153 
f 114 127 154 
f 134 133 154 
f 139 114 154 
f 133 148 154 
f 148 139 154 
f 127 149 154 
f 149 134 154 
f 138 111 155 
f 121 138 155 
f 126 139 155 
f 139 121 155 
f 111 122 156 
f 122 126 156 
f 155 111 156 
f 126 155 156 
f 119 124 157 
f 132 119 157 
f 141 132 157 
f 104 120 158 
f 120 140 158 
f 147 104 158 
f 140 147 158 
f 110 123 159 
f 123 121 159 
f 121 139 159 
f 148 110 159 
f 139 148 159 
f 117 108 160 
f 108 134 160 
f 134 144 160 
f 152 117 160 
f 144 152 160 
f 135 109 161 
f 118 135 161 
f 109 140 161 
f 140 118 161 
f 106 142 162 
f 142 124 162 
f 124 145 162 
f 145 106 162 
f 124 112 163 
f 112 141 163 
f 157 124 163 
o convex_4
v 0.027252 0.085057 0.004613
v 0.027252 0.092064 0.016421
v 0.027252 0.093541 0.015683
v 0.019503 0.084318 0.014574
v 0.019503 0.094649 0.005351
v 0.019503 0.094280 0.015313
v 0.027252 0.095385 0.006827
v 0.019503 0.084318 0.005720
v 0.027252 0.083213 0.013837
v 0.027252 0.092064 0.003875
v 0.026513 0.096125 0.010516
v 0.026883 0.082472 0.009411
v 0.023930 0.086903 0.016421
v 0.020611 0.087272 0.004244
v 0.019873 0.083213 0.010516
v 0.019503 0.095385 0.012730
v 0.027252 0.086164 0.016421
v 0.027252 0.095385 0.013837
v 0.019873 0.091326 0.016051
v 0.019503 0.095385 0.007565
v 0.019503 0.092434 0.004613
v 0.025776 0.086534 0.003875
v 0.027252 0.083949 0.005351
v 0.019873 0.087272 0.016051
v 0.027252 0.094280 0.004982
f 173 168 188 
f 166 165 164 
f 165 166 169 
f 168 167 169 
f 166 164 170 
f 167 168 171 
f 164 165 172 
f 170 164 173 
f 167 171 178 
f 172 167 178 
f 171 175 178 
f 175 172 178 
f 168 169 179 
f 172 165 180 
f 167 172 180 
f 165 176 180 
f 176 167 180 
f 169 166 181 
f 166 170 181 
f 170 174 181 
f 179 169 181 
f 174 179 181 
f 165 169 182 
f 176 165 182 
f 170 168 183 
f 174 170 183 
f 168 179 183 
f 179 174 183 
f 171 168 184 
f 168 173 184 
f 177 171 184 
f 173 177 184 
f 164 171 185 
f 173 164 185 
f 171 177 185 
f 177 173 185 
f 171 164 186 
f 164 172 186 
f 175 171 186 
f 172 175 186 
f 169 167 187 
f 167 176 187 
f 182 169 187 
f 176 182 187 
f 168 170 188 
f 170 173 188 
o convex_5
v 0.045702 0.082842 0.001292
v 0.045702 0.093171 0.020480
v 0.046808 0.093171 0.019371
v 0.033894 0.098706 0.004982
v 0.027252 0.083210 0.014205
v 0.045702 0.079521 0.015682
v 0.046071 0.098339 0.004245
v 0.034264 0.085427 -0.000185
v 0.034264 0.098339 0.016420
v 0.034633 0.078413 0.008673
v 0.027252 0.095014 0.005720
v 0.034264 0.085427 0.020480
v 0.027252 0.094646 0.015314
v 0.027252 0.083952 0.004982
v 0.045702 0.100185 0.011254
v 0.034633 0.093171 -0.000185
v 0.046808 0.093171 0.000924
v 0.046808 0.079521 0.009041
v 0.034633 0.079521 0.015682
v 0.034264 0.093171 0.020480
v 0.045702 0.085058 0.020480
v 0.034264 0.100185 0.009779
v 0.034633 0.079521 0.004613
v 0.045702 0.097968 0.017158
v 0.045702 0.093171 -0.000185
v 0.027252 0.086533 0.016786
v 0.027252 0.091696 0.003509
v 0.047178 0.096862 0.011622
v 0.045702 0.078413 0.008673
v 0.047178 0.082473 0.014941
v 0.047178 0.085795 0.002769
v 0.034633 0.096862 0.002030
v 0.045702 0.085427 -0.000185
v 0.034264 0.081736 0.018265
v 0.045702 0.079521 0.004613
v 0.027623 0.082104 0.009779
v 0.034633 0.078413 0.011622
v 0.027252 0.096125 0.010884
v 0.034264 0.081369 0.002401
v 0.045702 0.099076 0.004982
v 0.034633 0.096862 0.018265
v 0.034633 0.099445 0.014205
v 0.045702 0.096862 0.002030
v 0.027252 0.091696 0.016786
v 0.045702 0.082104 0.018631
v 0.027252 0.086901 0.003509
v 0.047178 0.096125 0.005720
v 0.047178 0.085795 0.017527
v 0.046808 0.099076 0.010884
v 0.045702 0.078413 0.011622
v 0.034633 0.098706 0.004245
v 0.045702 0.099076 0.015314
v 0.046808 0.082104 0.003137
v 0.046808 0.081736 0.017158
v 0.046808 0.097968 0.015314
v 0.045702 0.100185 0.009411
v 0.045702 0.094646 0.019739
v 0.027252 0.082842 0.007196
v 0.046808 0.085427 0.000924
v 0.047178 0.092802 0.017527
v 0.046808 0.085427 0.019371
f 242 236 249 
f 199 193 201 
f 193 199 202 
f 200 190 208 
f 191 190 209 
f 190 200 209 
f 192 199 210 
f 196 204 213 
f 201 193 214 
f 200 208 214 
f 202 199 215 
f 204 196 215 
f 198 211 217 
f 216 218 219 
f 218 206 219 
f 213 204 220 
f 215 199 220 
f 204 215 220 
f 189 196 221 
f 196 213 221 
f 213 205 221 
f 193 207 222 
f 207 194 222 
f 209 200 222 
f 214 193 222 
f 200 214 222 
f 206 217 223 
f 217 211 223 
f 207 193 225 
f 194 207 225 
f 198 217 225 
f 193 224 225 
f 224 198 225 
f 199 201 226 
f 210 199 226 
f 196 189 227 
f 202 196 227 
f 211 202 227 
f 189 223 227 
f 223 211 227 
f 197 201 229 
f 201 208 229 
f 212 197 229 
f 201 197 230 
f 203 210 230 
f 226 201 230 
f 210 226 230 
f 195 205 231 
f 205 213 231 
f 213 220 231 
f 228 195 231 
f 208 201 232 
f 201 214 232 
f 214 208 232 
f 222 194 233 
f 209 222 233 
f 196 202 234 
f 215 196 234 
f 202 215 234 
f 205 195 235 
f 216 219 235 
f 219 205 235 
f 218 216 236 
f 195 228 237 
f 235 195 237 
f 216 235 237 
f 217 206 238 
f 194 225 238 
f 225 217 238 
f 199 192 239 
f 192 210 239 
f 220 199 239 
f 210 228 239 
f 231 220 239 
f 228 231 239 
f 197 212 240 
f 230 197 240 
f 203 230 240 
f 219 206 241 
f 223 189 241 
f 206 223 241 
f 206 218 242 
f 233 194 242 
f 209 233 242 
f 218 236 242 
f 194 238 242 
f 238 206 242 
f 212 191 243 
f 237 203 243 
f 216 237 243 
f 240 212 243 
f 203 240 243 
f 210 203 244 
f 228 210 244 
f 203 237 244 
f 237 228 244 
f 190 191 245 
f 208 190 245 
f 191 212 245 
f 229 208 245 
f 212 229 245 
f 193 202 246 
f 211 198 246 
f 202 211 246 
f 224 193 246 
f 198 224 246 
f 205 219 247 
f 189 221 247 
f 221 205 247 
f 219 241 247 
f 241 189 247 
f 191 236 248 
f 236 216 248 
f 243 191 248 
f 216 243 248 
f 191 209 249 
f 236 191 249 
f 209 242 249 
o convex_6
v -0.044702 0.079153 0.003875
v -0.031790 0.089114 0.009779
v -0.031790 0.089114 0.002399
v -0.032160 0.081367 0.002399
v -0.046915 0.075461 0.009040
v -0.031790 0.082105 0.009040
v -0.047286 0.075461 0.002399
v -0.039538 0.083948 0.009409
v -0.039538 0.083948 0.002399
v -0.047286 0.076202 0.009040
v -0.046178 0.075461 0.008670
v -0.033636 0.088374 0.009779
v -0.032160 0.081367 0.007932
v -0.046178 0.075461 0.002399
v -0.033636 0.088374 0.002399
v -0.047286 0.076202 0.002399
v -0.042487 0.081367 0.009040
f 259 257 266 
f 251 254 255 
f 252 251 255 
f 253 252 255 
f 252 253 256 
f 252 256 258 
f 256 254 259 
f 255 254 260 
f 254 256 260 
f 251 252 261 
f 254 251 261 
f 258 257 261 
f 259 254 261 
f 257 259 261 
f 253 255 262 
f 255 260 262 
f 260 253 262 
f 256 253 263 
f 253 260 263 
f 260 256 263 
f 252 258 264 
f 261 252 264 
f 258 261 264 
f 250 258 265 
f 258 256 265 
f 259 250 265 
f 256 259 265 
f 258 250 266 
f 257 258 266 
f 250 259 266 
o convex_7
v -0.021826 0.093911 0.012730
v -0.031788 0.081734 0.002400
v -0.031788 0.089111 0.002400
v -0.032156 0.081734 0.017894
v -0.019980 0.082843 0.002400
v -0.019983 0.082843 0.017894
v -0.019980 0.094280 0.002400
v -0.030679 0.089852 0.018266
v -0.019983 0.094280 0.017894
v -0.026988 0.092065 0.006827
v -0.032156 0.089111 0.017894
v -0.024779 0.092804 0.018266
v -0.021089 0.082843 0.018266
v -0.029942 0.081734 0.017894
v -0.032156 0.089111 0.010887
v -0.024780 0.092804 0.002400
v -0.029942 0.081734 0.002400
v -0.029572 0.082104 0.018266
v -0.026989 0.092065 0.013470
v -0.031788 0.089482 0.007564
f 277 285 286 
f 268 269 271 
f 271 269 273 
f 272 271 273 
f 273 267 275 
f 272 273 275 
f 270 274 277 
f 275 267 278 
f 272 275 279 
f 278 274 279 
f 275 278 279 
f 270 268 280 
f 271 272 280 
f 272 279 280 
f 269 268 281 
f 268 270 281 
f 270 277 281 
f 267 273 282 
f 273 269 282 
f 276 267 282 
f 269 276 282 
f 268 271 283 
f 280 268 283 
f 271 280 283 
f 274 270 284 
f 279 274 284 
f 270 280 284 
f 280 279 284 
f 267 276 285 
f 277 274 285 
f 274 278 285 
f 278 267 285 
f 276 269 286 
f 269 281 286 
f 281 277 286 
f 285 276 286 
o convex_8
v -0.044701 0.079152 0.011255
v -0.032159 0.088745 0.017896
v -0.032159 0.088745 0.010886
v -0.032159 0.081366 0.017896
v -0.047285 0.075461 0.017896
v -0.032159 0.081735 0.011625
v -0.046177 0.075461 0.011625
v -0.039539 0.083946 0.017896
v -0.034743 0.087638 0.010886
v -0.032529 0.085055 0.010886
v -0.047285 0.076201 0.017896
v -0.046177 0.075461 0.017896
v -0.047285 0.076201 0.011625
v -0.033635 0.088375 0.017896
v -0.039539 0.083946 0.010886
v -0.032159 0.081366 0.012362
v -0.042487 0.081366 0.017896
v -0.045440 0.076938 0.011255
f 301 296 304 
f 289 288 290 
f 290 288 291 
f 289 290 292 
f 291 288 294 
f 289 292 296 
f 295 289 296 
f 291 294 297 
f 290 291 298 
f 291 293 298 
f 293 290 298 
f 293 291 299 
f 297 287 299 
f 291 297 299 
f 288 289 300 
f 294 288 300 
f 289 295 300 
f 295 294 300 
f 294 295 301 
f 295 296 301 
f 292 290 302 
f 290 293 302 
f 293 292 302 
f 287 297 303 
f 297 294 303 
f 301 287 303 
f 294 301 303 
f 292 293 304 
f 296 292 304 
f 299 287 304 
f 293 299 304 
f 287 301 304 
