# https://github.com/mikedh/trimesh
v 0.00087774 0.08213362 0.00951998
v 0.00087774 0.08213362 0.00951998
v 0.00087774 0.08212970 0.00621539
v -0.00016719 -0.09994383 0.00892307
v -0.00016719 -0.09994383 0.00892307
v -0.00016719 -0.09994383 0.00892307
v -0.00016719 -0.09994579 0.00725836
v -0.00016719 -0.09994579 0.00725836
v -0.00016719 -0.09994579 0.00725836
v 0.00555904 -0.00279715 0.01165426
v 0.00555904 -0.00279715 0.01165426
v 0.00555904 -0.00279715 0.01165426
v 0.01206439 -0.00282785 0.00940831
v 0.01206439 -0.00282785 0.00940831
v 0.01206439 -0.00282785 0.00940831
v 0.01206439 -0.00283111 0.00652756
v 0.01206439 -0.00283111 0.00652756
v 0.01206439 -0.00283111 0.00652756
v 0.00704872 0.08211142 0.01218521
v 0.01177181 0.08208203 0.00481257
v -0.00139433 -0.09822362 0.00709901
v -0.00139433 -0.09822362 0.00709901
v -0.00139433 -0.09822100 0.00907785
v -0.00139433 -0.09822100 0.00907785
v 0.00546042 -0.00485175 0.00399621
v 0.00546042 -0.00485175 0.00399621
v 0.00222701 -0.00482236 0.01087905
v 0.00222701 -0.00482236 0.01087905
v 0.00782785 -0.09826737 0.00310933
v 0.00782785 -0.09826737 0.00310933
v 0.01146421 -0.00273184 0.00590713
v 0.01199255 -0.00272989 0.00938806
v 0.00258817 -0.00278670 0.01062173
v 0.00258817 -0.00278670 0.01062173
v 0.00258817 -0.00278670 0.01062173
v 0.00781283 -0.00270899 0.01160201
v 0.00446904 -0.00279323 0.01143809
v 0.00446904 -0.00279323 0.01143809
v 0.00446904 -0.00279323 0.01143809
v 0.00706048 0.08468652 0.00340452
v 0.00706048 0.08468652 0.00340452
v 0.01094762 -0.09998759 0.01109914
v 0.01094762 -0.09998759 0.01109914
v 0.01094762 -0.09998759 0.01109914
v 0.00334052 0.08211664 0.00427638
v 0.01019527 -0.00487004 0.00460358
v 0.01019527 -0.00487004 0.00460358
v 0.00992947 -0.00282458 0.00484261
v 0.00992947 -0.00282458 0.00484261
v 0.00992947 -0.00282458 0.00484261
v 0.00198798 0.08196774 0.00568051
v 0.00930251 -0.09826084 0.01277560
v 0.00930251 -0.09826084 0.01277560
v 0.00669606 -0.00270441 0.01167385
v 0.00377025 -0.09995624 0.01202586
v 0.00377025 -0.09995624 0.01202586
v 0.00377025 -0.09995624 0.01202586
v 0.00427181 -0.00484587 0.00422348
v 0.00427181 -0.00484587 0.00422348
v 0.00149817 0.08213166 0.01026450
v 0.00329545 -0.09824778 0.00339603
v 0.00329545 -0.09824778 0.00339603
v 0.00557928 -0.00269984 0.01160136
v 0.01080394 -0.00282785 0.00530630
v 0.01080394 -0.00282785 0.00530630
v 0.01080394 -0.00282785 0.00530630
v 0.01080394 -0.00282066 0.01062239
v 0.01080394 -0.00282066 0.01062239
v 0.01080394 -0.00282066 0.01062239
v 0.00477011 -0.09824190 0.01306230
v 0.00477011 -0.09824190 0.01306230
v 0.00163532 -0.09994841 0.01109848
v 0.00163532 -0.09994841 0.01109848
v 0.00163532 -0.09994841 0.01109848
v 0.00132772 -0.00278670 0.00652625
v 0.00132772 -0.00278670 0.00652625
v 0.00132772 -0.00278670 0.00652625
v 0.00132772 -0.00278278 0.00940700
v 0.00132772 -0.00278278 0.00940700
v 0.00132772 -0.00278278 0.00940700
v 0.00960358 0.08209052 0.00387866
v 0.00834966 0.08209509 0.00362983
v 0.01399229 -0.09828501 0.00907981
v 0.01399229 -0.09828501 0.00907981
v 0.01399229 -0.09828762 0.00710097
v 0.01399229 -0.09828762 0.00710097
v 0.00500588 -0.09997192 0.00391458
v 0.00500588 -0.09997192 0.00391458
v 0.00500588 -0.09997192 0.00391458
v 0.01243077 -0.00273315 0.00796434
v 0.00783307 -0.00281675 0.00428096
v 0.00783307 -0.00281675 0.00428096
v 0.00783307 -0.00281675 0.00428096
v 0.00937957 0.08194423 0.01150666
v 0.00937957 0.08194423 0.01150666
v 0.00133947 0.08471264 0.00538271
v 0.00263519 -0.09996082 0.00454807
v 0.00263519 -0.09996082 0.00454807
v 0.00263519 -0.09996082 0.00454807
v 0.00994971 -0.09999151 0.00454872
v 0.00994971 -0.09999151 0.00454872
v 0.00994971 -0.09999151 0.00454872
v 0.00274556 0.08196382 0.00508621
v 0.00232759 0.08212970 0.01091758
v 0.00629833 -0.09824778 0.01316027
v 0.00629833 -0.09824778 0.01316027
v 0.01380682 0.08466236 0.00698472
v 0.01088101 0.08467085 0.00415622
v 0.00757902 -0.09998237 0.00391523
v 0.00757902 -0.09998237 0.00391523
v 0.00757902 -0.09998237 0.00391523
v 0.01192594 0.08466758 0.00471134
v 0.01287226 -0.00487134 0.00719632
v 0.01287226 -0.00487134 0.00719632
v 0.01287226 -0.00486938 0.00879049
v 0.01287226 -0.00486938 0.00879049
v 0.00350967 -0.00269984 0.00488049
v 0.00037487 0.08213362 0.00786834
v -0.00022531 -0.09822362 0.01090648
v -0.00022531 -0.09822362 0.01090648
v 0.01135253 0.08193443 0.01065112
v 0.00545912 -0.00483412 0.01199647
v 0.00545912 -0.00483412 0.01199647
v 0.01239747 -0.00283046 0.00870298
v 0.01239747 -0.00283046 0.00870298
v 0.01239747 -0.00283046 0.00870298
v 0.01239747 -0.00283177 0.00723289
v 0.01239747 -0.00283177 0.00723289
v 0.01239747 -0.00283177 0.00723289
v 0.01075235 -0.00272989 0.00534548
v 0.00782654 -0.09825431 0.01306230
v 0.00782654 -0.09825431 0.01306230
v -0.00155107 -0.09822166 0.00808516
v -0.00155107 -0.09822166 0.00808516
v 0.00969240 0.08467607 0.00374412
v 0.00070598 0.08471591 0.00615334
v 0.01019397 -0.00485502 0.01138911
v 0.01019397 -0.00485502 0.01138911
v 0.00992816 -0.00281675 0.01109261
v 0.00992816 -0.00281675 0.01109261
v 0.00992816 -0.00281675 0.01109261
v 0.00144331 -0.00481975 0.01025862
v 0.00144331 -0.00481975 0.01025862
v 0.00106714 -0.00268482 0.00868796
v 0.00106714 -0.00268678 0.00723811
v 0.00264041 -0.00268939 0.01058908
v 0.01267176 0.08192725 0.00937827
v 0.01267176 0.08192398 0.00636037
v 0.01267176 0.08192398 0.00636037
v 0.00427051 -0.00482955 0.01176071
v 0.00427051 -0.00482955 0.01176071
v 0.00329415 -0.09823602 0.01277429
v 0.00329415 -0.09823602 0.01277429
v 0.00988310 -0.00271878 0.01105342
v 0.01301789 0.08192333 0.00710489
v 0.01301789 0.08192529 0.00863963
v 0.01301789 0.08192529 0.00863963
v 0.01393743 0.08466301 0.00785332
v 0.00823798 0.08193900 0.00400927
v 0.00318051 -0.00482628 0.01138845
v 0.00318051 -0.00482628 0.01138845
v 0.01211011 0.08193117 0.01005682
v 0.01211011 0.08192529 0.00568182
v 0.00571513 0.08469175 0.00348942
v 0.00960227 0.08210031 0.01185280
v 0.00960227 0.08210031 0.01185280
v 0.00834835 0.08210554 0.01210097
v 0.00500457 -0.09996147 0.01226750
v 0.00500457 -0.09996147 0.01226750
v 0.00500457 -0.09996147 0.01226750
v 0.01231910 -0.00273119 0.00868926
v 0.01251306 -0.00486677 0.00955460
v 0.01251306 -0.00486677 0.00955460
v 0.01251306 -0.00487787 0.00643221
v 0.01251306 -0.00487787 0.00643221
v 0.00783177 -0.00280695 0.01165426
v 0.00783177 -0.00280695 0.01165426
v 0.00783177 -0.00280695 0.01165426
v 0.01359979 0.08207746 0.00702717
v 0.01359979 0.08207941 0.00871147
v 0.01359979 0.08207941 0.00871147
v 0.00263388 -0.09995232 0.01163401
v 0.00263388 -0.09995232 0.01163401
v 0.00263388 -0.09995232 0.01163401
v 0.00994841 -0.09998237 0.01163467
v 0.00994841 -0.09998237 0.01163467
v 0.00994841 -0.09998237 0.01163467
v 0.00096199 0.08197492 0.00786769
v 0.00668822 -0.00485632 0.00391784
v 0.00668822 -0.00485632 0.00391784
v 0.00704937 0.08194423 0.00393090
v 0.00704937 0.08194423 0.00393090
v 0.00222766 -0.00483673 0.00511168
v 0.00222766 -0.00483673 0.00511168
v 0.00757772 -0.09997192 0.01226816
v 0.00757772 -0.09997192 0.01226816
v 0.00757772 -0.09997192 0.01226816
v 0.01199321 -0.00273315 0.00654715
v 0.00258882 -0.00279389 0.00530499
v 0.00258882 -0.00279389 0.00530499
v 0.00258882 -0.00279389 0.00530499
v 0.00049896 0.08213231 0.00702521
v 0.00049896 0.08213427 0.00871016
v 0.00049896 0.08213427 0.00871016
v 0.00781348 -0.00271878 0.00432667
v 0.01341432 0.08466758 0.00955721
v 0.00442790 0.08470807 0.01195990
v 0.01299634 -0.00487134 0.00799308
v 0.01299634 -0.00487134 0.00799308
v 0.00446970 -0.00280238 0.00448929
v 0.00446970 -0.00280238 0.00448929
v 0.00446970 -0.00280238 0.00448929
v 0.01094828 -0.09999478 0.00507837
v 0.01094828 -0.09999478 0.00507837
v 0.01094828 -0.09999478 0.00507837
v 0.00839864 0.08469240 0.01221460
v 0.01065569 -0.09827847 0.00386755
v 0.01065569 -0.09827847 0.00386755
v 0.00186324 -0.00278474 0.01005355
v 0.00186324 -0.00278474 0.01005355
v 0.00186324 -0.00278474 0.01005355
v 0.01043169 0.08193900 0.01114094
v 0.00575039 0.08210619 0.00362983
v 0.00449647 0.08211142 0.00387800
v 0.00669671 -0.00271356 0.00425483
v 0.00669671 -0.00281217 0.00420912
v 0.00669671 -0.00281217 0.00420912
v 0.00669671 -0.00281217 0.00420912
v 0.00586076 0.08194880 0.00400927
v 0.00471722 0.08196382 0.01150601
v 0.00346330 -0.00278997 0.01109195
v 0.00346330 -0.00278997 0.01109195
v 0.00346330 -0.00278997 0.01109195
v 0.00149882 0.08212578 0.00546434
v 0.00881335 -0.09998759 0.00415687
v 0.00881335 -0.09998759 0.00415687
v 0.00881335 -0.09998759 0.00415687
v 0.00557994 -0.00270964 0.00432602
v 0.00219436 0.08471656 0.01099922
v 0.00323929 0.08471264 0.01155434
v 0.01184953 -0.09827260 0.01167842
v 0.01184953 -0.09827260 0.01167842
v 0.00892372 -0.00282066 0.00448994
v 0.00892372 -0.00282066 0.00448994
v 0.00892372 -0.00282066 0.00448994
v 0.00088362 -0.00278344 0.00796304
v 0.00088362 -0.00278344 0.00796304
v 0.00088362 -0.00278344 0.00796304
v 0.00192855 -0.00268678 0.01002743
v 0.01354820 -0.09828696 0.00614681
v 0.01354820 -0.09828696 0.00614681
v 0.01354820 -0.09828174 0.01003331
v 0.01354820 -0.09828174 0.01003331
v 0.00163597 -0.09995624 0.00507706
v 0.00163597 -0.09995624 0.00507706
v 0.00163597 -0.09995624 0.00507706
v 0.01278083 0.08467085 0.01032785
v 0.01282262 -0.09827782 0.01090778
v 0.01282262 -0.09827782 0.01090778
v 0.01075954 0.08208529 0.00427704
v 0.00823668 0.08194880 0.01172871
v 0.01275078 -0.09999739 0.00892437
v 0.01275078 -0.09999739 0.00892437
v 0.01275078 -0.09999739 0.00892437
v 0.01275078 -0.10000000 0.00725967
v 0.01275078 -0.10000000 0.00725967
v 0.01275078 -0.10000000 0.00725967
v 0.00037879 -0.00481844 0.00799177
v 0.00037879 -0.00481844 0.00799177
v 0.00232824 0.08212121 0.00481126
v 0.00450170 -0.00269592 0.01139237
v 0.00366575 0.08196708 0.01114028
v 0.00889041 -0.00271421 0.01139303
v 0.01372388 0.08207811 0.00786964
v 0.00139368 -0.00268548 0.00938676
v 0.00139368 -0.00268874 0.00654585
v 0.00193704 -0.09824190 0.00386625
v 0.00193704 -0.09824190 0.00386625
v 0.00668691 -0.00483999 0.01207484
v 0.00668691 -0.00483999 0.01207484
v 0.00086207 -0.00482955 0.00643090
v 0.00086207 -0.00482955 0.00643090
v 0.00086207 -0.00481844 0.00955264
v 0.00086207 -0.00481844 0.00955264
v 0.00704807 0.08195402 0.01180708
v -0.00022466 -0.09823080 0.00527038
v -0.00022466 -0.09823080 0.00527038
v 0.01177116 -0.09999739 0.00572492
v 0.01177116 -0.09999739 0.00572492
v 0.01177116 -0.09999739 0.00572492
v 0.01177116 0.08209052 0.01091889
v 0.01177116 -0.09999151 0.01045912
v 0.01177116 -0.09999151 0.01045912
v 0.01177116 -0.09999151 0.01045912
v 0.01135319 0.08192790 0.00508751
v 0.01250849 -0.00283177 0.00796434
v 0.01250849 -0.00283177 0.00796434
v 0.01250849 -0.00283177 0.00796434
v 0.01313545 0.08192398 0.00786899
v -0.00095024 -0.09822166 0.01003135
v -0.00095024 -0.09822166 0.01003135
v -0.00095024 -0.09822623 0.00614551
v -0.00095024 -0.09822623 0.00614551
v 0.01146356 -0.00272662 0.01002808
v 0.00020507 -0.09994449 0.00971983
v 0.00020507 -0.09994449 0.00971983
v 0.00020507 -0.09994449 0.00971983
v 0.00020507 -0.09994906 0.00646160
v 0.00020507 -0.09994906 0.00646160
v 0.00020507 -0.09994906 0.00646160
v 0.00705982 0.08469762 0.01229950
v 0.00074843 -0.09823602 0.00449974
v 0.00074843 -0.09823602 0.00449974
v 0.00333986 0.08212578 0.01145376
v 0.01065439 -0.09826672 0.01230538
v 0.01065439 -0.09826672 0.01230538
v 0.00144397 -0.00483216 0.00572557
v 0.00144397 -0.00483216 0.00572557
v 0.00574909 0.08211664 0.01210031
v 0.00574909 0.08211664 0.01210031
v 0.00449517 0.08212187 0.01185214
v 0.00198733 0.08197296 0.01005617
v 0.00629245 -0.09997714 0.00383033
v 0.00629245 -0.09997714 0.00383033
v 0.00629245 -0.09997714 0.00383033
v 0.01288140 -0.09999935 0.00808843
v 0.01288140 -0.09999935 0.00808843
v 0.01288140 -0.09999935 0.00808843
v 0.00264107 -0.00269592 0.00534417
v 0.00669540 -0.00280238 0.01172610
v 0.00669540 -0.00280238 0.01172610
v 0.00669540 -0.00280238 0.01172610
v 0.00585946 0.08195859 0.01172871
v 0.00585946 0.08195859 0.01172871
v 0.00910462 -0.00486612 0.00422414
v 0.00910462 -0.00486612 0.00422414
v 0.00107955 0.08197296 0.00710358
v 0.00107955 0.08197492 0.00863832
v 0.00107955 0.08197492 0.00863832
v 0.00881204 -0.09997714 0.01202652
v 0.00881204 -0.09997714 0.01202652
v 0.00881204 -0.09997714 0.01202652
v 0.01152887 -0.00283046 0.00587448
v 0.01152887 -0.00283046 0.00587448
v 0.01152887 -0.00283046 0.00587448
v 0.01152887 -0.00282524 0.01005486
v 0.01152887 -0.00282524 0.01005486
v 0.01152887 -0.00282524 0.01005486
v 0.00988375 -0.00272662 0.00488114
v 0.01260057 0.08208595 0.01026580
v 0.01260057 0.08207941 0.00546565
v 0.00892241 -0.00281217 0.01143874
v 0.00892241 -0.00281217 0.01143874
v 0.00892241 -0.00281217 0.01143874
v 0.01193182 -0.00486351 0.01025993
v 0.01193182 -0.00486351 0.01025993
v 0.01193182 -0.00487591 0.00572688
v 0.01193182 -0.00487591 0.00572688
v 0.00142568 0.08197427 0.00937631
v 0.00142568 0.08197427 0.00937631
v 0.00142568 0.08197100 0.00635906
v 0.00318117 -0.00484130 0.00460227
v 0.00318117 -0.00484130 0.00460227
v 0.01231975 -0.00273380 0.00723942
v 0.01075823 0.08209509 0.01145441
v 0.00018352 0.08472048 0.00785136
v 0.00791601 -0.00486155 0.00399621
v 0.00791601 -0.00486155 0.00399621
v 0.00133882 0.08471852 0.01032654
v 0.00050287 -0.00481975 0.00719501
v 0.00050287 -0.00481975 0.00719501
v 0.00050287 -0.00481779 0.00878853
v 0.00050287 -0.00481779 0.00878853
v 0.00096264 -0.00268548 0.00796304
v 0.00556034 -0.00280760 0.00428096
v 0.00556034 -0.00280760 0.00428096
v 0.00556034 -0.00280760 0.00428096
v 0.00274491 0.08197035 0.01065047
v 0.00705003 0.08210031 0.00355146
v 0.00705003 0.08210031 0.00355146
v 0.01380617 0.08466562 0.00872192
v 0.01380617 0.08466562 0.00872192
v 0.01088036 0.08468064 0.01155564
v 0.00193574 -0.09823080 0.01230408
v 0.00193574 -0.09823080 0.01230408
v 0.01192529 0.08467607 0.01100052
v 0.00350901 -0.00269201 0.01105277
v 0.01341497 0.08466301 0.00615465
v 0.01341497 0.08466301 0.00615465
v 0.00442855 0.08469762 0.00374347
v 0.00839929 0.08468064 0.00348942
v 0.00186390 -0.00278997 0.00587317
v 0.00186390 -0.00278997 0.00587317
v 0.00186390 -0.00278997 0.00587317
v 0.01043234 0.08193117 0.00459705
v 0.00930381 -0.09827325 0.00339668
v 0.00930381 -0.09827325 0.00339668
v 0.01075170 -0.00272335 0.01058973
v 0.00377155 -0.09996604 0.00415622
v 0.00377155 -0.09996604 0.00415622
v 0.00377155 -0.09996604 0.00415622
v 0.00471787 0.08195402 0.00423067
v 0.00346395 -0.00279781 0.00484130
v 0.00346395 -0.00279781 0.00484130
v 0.00346395 -0.00279781 0.00484130
v -0.00029781 -0.09994449 0.00808712
v -0.00029781 -0.09994449 0.00808712
v -0.00029781 -0.09994449 0.00808712
v 0.00969175 0.08468652 0.01196055
v 0.00969175 0.08468652 0.01196055
v 0.00070533 0.08472048 0.00955590
v 0.00070533 0.08472048 0.00955590
v 0.00074713 -0.09822623 0.01167712
v 0.00074713 -0.09822623 0.01167712
v 0.00219501 0.08470807 0.00471003
v 0.00323994 0.08470285 0.00415491
v 0.01185018 -0.09828239 0.00450104
v 0.01185018 -0.09828239 0.00450104
v 0.00629114 -0.09996669 0.01235306
v 0.00629114 -0.09996669 0.01235306
v 0.00629114 -0.09996669 0.01235306
v 0.00031413 0.08472179 0.00871996
v 0.00031413 0.08472179 0.00871996
v 0.00031413 0.08471852 0.00698276
v 0.00477142 -0.09825431 0.00310867
v 0.00477142 -0.09825431 0.00310867
v 0.00192921 -0.00269201 0.00590583
v 0.01321447 0.08208268 0.00952129
v 0.01321447 0.08207811 0.00621735
v 0.01321447 0.08207811 0.00621735
v 0.01237853 -0.09999543 0.00972113
v 0.01237853 -0.09999543 0.00972113
v 0.01237853 -0.09999543 0.00972113
v 0.01237853 -0.09999935 0.00646290
v 0.01237853 -0.09999935 0.00646290
v 0.01237853 -0.09999935 0.00646290
v 0.00910332 -0.00484979 0.01176136
v 0.00910332 -0.00484979 0.01176136
v 0.00099464 -0.00278278 0.00870102
v 0.00099464 -0.00278278 0.00870102
v 0.00099464 -0.00278278 0.00870102
v 0.00099464 -0.00278409 0.00723158
v 0.00099464 -0.00278409 0.00723158
v 0.00099464 -0.00278409 0.00723158
v 0.01278148 0.08466497 0.00538401
v 0.01282328 -0.09828501 0.00527168
v 0.01282328 -0.09828501 0.00527168
v 0.00081243 -0.09995167 0.00572362
v 0.00081243 -0.09995167 0.00572362
v 0.00081243 -0.09995167 0.00572362
v 0.00081243 -0.09994645 0.01045781
v 0.00081243 -0.09994645 0.01045781
v 0.00081243 -0.09994645 0.01045781
v 0.00938088 0.08193443 0.00423132
v 0.01114812 -0.00485959 0.01087970
v 0.01114812 -0.00485959 0.01087970
v 0.01114812 -0.00487396 0.00511298
v 0.01114812 -0.00487396 0.00511298
v 0.00571447 0.08470350 0.01221460
v 0.00571447 0.08470350 0.01221460
v 0.00450235 -0.00270441 0.00453501
v 0.00366641 0.08195925 0.00459639
v 0.00629963 -0.09826084 0.00301136
v 0.00629963 -0.09826084 0.00301136
v 0.00889107 -0.00272270 0.00453566
v 0.01414250 -0.09828696 0.00808712
v 0.01414250 -0.09828696 0.00808712
v 0.00791471 -0.00484457 0.01199647
v 0.00791471 -0.00484457 0.01199647
v 0.00087774 -0.00257445 0.00796304
v 0.00087774 -0.00257445 0.00796304
v 0.00087774 -0.00257445 0.00796304
v 0.01345873 0.09988636 0.00613506
v 0.01345873 0.09988636 0.00613506
v 0.01345873 0.09988636 0.00613506
v 0.00132249 -0.00257772 0.00652691
v 0.00132249 -0.00257772 0.00652691
v 0.00780107 0.02111481 0.01119906
v 0.00780107 0.02111481 0.01119906
v 0.00826084 0.08459378 0.01176398
v 0.00876241 0.04482301 0.00499086
v 0.00343913 0.04485175 0.01013584
v 0.00494383 0.06590256 0.01105603
v 0.01146421 -0.00273184 0.00590713
v 0.01199255 -0.00272989 0.00938806
v 0.00781283 -0.00270899 0.01160201
v 0.00706048 0.08468652 0.00340452
v 0.00706048 0.08468652 0.00340452
v 0.00706048 0.08458856 0.00386821
v 0.00706048 0.08458856 0.00386821
v 0.01140739 0.04481452 0.00669540
v 0.00992947 -0.00260776 0.01109261
v 0.00992947 -0.00260776 0.01109261
v 0.01218652 0.08456962 0.00563871
v 0.01218652 0.08457550 0.01006661
v 0.00198798 0.08196774 0.00568051
v 0.00176398 0.06591105 0.00720938
v 0.00176398 0.06591236 0.00854820
v 0.00176398 0.06591236 0.00854820
v 0.00176398 0.06591236 0.00854820
v 0.00669606 -0.00270441 0.01167385
v 0.00594370 0.06588950 0.00450627
v 0.00594370 0.06588950 0.00450627
v 0.00204154 0.02113310 0.00665948
v 0.01152952 -0.00261625 0.01005421
v 0.01152952 -0.00261625 0.01005421
v 0.01282524 0.09988832 0.00537095
v 0.01282524 0.09988832 0.00537095
v 0.00557928 -0.00269984 0.01160136
v 0.01168169 0.04481452 0.00728971
v 0.01168169 0.04481452 0.00728971
v 0.01398054 0.09988636 0.00783373
v 0.01398054 0.09988636 0.00783373
v 0.00470154 0.08460880 0.01153540
v 0.01095611 0.04482040 0.00966040
v 0.01141588 0.08457223 0.00503788
v 0.00594044 0.04484261 0.01100509
v 0.00784809 0.04482693 0.00480734
v 0.00876763 0.02111089 0.01100967
v 0.01048132 0.08458399 0.01117032
v 0.00283242 0.04484914 0.00615269
v 0.01243077 -0.00273315 0.00796434
v 0.00089472 0.08461925 0.00785201
v 0.00482367 0.02111873 0.00485697
v 0.00482367 0.02111873 0.00485697
v 0.00783307 -0.00259796 0.01165361
v 0.00783307 -0.00259796 0.01165361
v 0.00783307 -0.00259796 0.01165361
v 0.00315178 0.02112722 0.00558190
v 0.00578501 0.09991510 0.00348354
v 0.00578501 0.09991510 0.00348354
v 0.01322492 0.08456831 0.00785332
v 0.00937957 0.08194423 0.01150666
v 0.00937957 0.08194423 0.01150666
v 0.01074386 0.06587121 0.00544736
v 0.00133947 0.08471264 0.00538271
v 0.00698211 0.06588558 0.00444096
v 0.00698211 0.06588558 0.00444096
v 0.00363832 0.08460423 0.00454088
v 0.00322035 0.06590256 0.00544606
v 0.00556100 -0.00259862 0.00427377
v 0.00556100 -0.00259862 0.00427377
v 0.00274556 0.08196382 0.00508621
v 0.00941810 0.08457941 0.00416928
v 0.01380682 0.08466236 0.00698472
v 0.00227077 0.09993926 0.01096722
v 0.00227077 0.09993926 0.01096722
v 0.01088101 0.08467085 0.00415622
v 0.00331570 0.09993534 0.01152234
v 0.00331570 0.09993534 0.01152234
v 0.01192594 0.08466758 0.00471134
v 0.01154976 0.02109653 0.00920716
v 0.00350967 -0.00269984 0.00488049
v 0.00238114 0.04485502 0.00911050
v 0.01034940 0.04481779 0.00567006
v 0.01043299 0.02110306 0.01029127
v 0.00449778 0.09993143 0.01193312
v 0.00449778 0.09993143 0.01193312
v 0.01135253 0.08193443 0.01065112
v 0.01075235 -0.00272989 0.00534548
v 0.00402299 0.06590583 0.01073602
v 0.00193312 0.08461795 0.01006531
v 0.00193312 0.08461272 0.00563741
v 0.00502612 0.04484653 0.01082223
v 0.00974922 0.09989943 0.00373824
v 0.00974922 0.09989943 0.00373824
v 0.00346460 -0.00258882 0.00483542
v 0.00346460 -0.00258882 0.00483542
v 0.00705917 0.08459901 0.01184235
v 0.01220024 0.06586925 0.00854950
v 0.01220024 0.06586925 0.00854950
v 0.01220024 0.06586729 0.00721068
v 0.01220024 0.06586729 0.00721068
v 0.01220024 0.06586729 0.00721068
v 0.00969240 0.08467607 0.00374412
v 0.00070598 0.08471591 0.00615334
v 0.00802051 0.06588101 0.00450627
v 0.00269723 0.08461533 0.01067268
v 0.00106714 -0.00268482 0.00868796
v 0.00106714 -0.00268678 0.00723811
v 0.00579023 0.02111481 0.00466823
v 0.00579023 0.02111481 0.00466823
v 0.01093130 0.09989485 0.00415034
v 0.01093130 0.09989485 0.00415034
v 0.01189263 0.06587121 0.00919606
v 0.00264041 -0.00268939 0.01058908
v 0.01267176 0.08192725 0.00937827
v 0.01267176 0.08192398 0.00636037
v 0.01267176 0.08192398 0.00636037
v 0.00585880 0.08459444 0.00394658
v 0.00174765 0.02113506 0.00728579
v 0.01207158 -0.00261886 0.00940765
v 0.01207158 -0.00261886 0.00940765
v 0.00099530 -0.00257380 0.00870102
v 0.00099530 -0.00257380 0.00870102
v 0.01140282 0.06587448 0.00979036
v 0.00988310 -0.00271878 0.01105342
v 0.00185802 -0.00258098 0.00587382
v 0.00185802 -0.00258098 0.00587382
v 0.01301789 0.08192333 0.00710489
v 0.01301789 0.08192529 0.00863963
v 0.01301789 0.08192529 0.00863963
v 0.01393743 0.08466301 0.00785332
v 0.00846199 0.09991510 0.01218195
v 0.00846199 0.09991510 0.01218195
v 0.00823798 0.08193900 0.00400927
v 0.00418365 0.04484914 0.01052834
v 0.00251176 0.02113049 0.00608477
v 0.01108020 0.02109457 0.00608608
v 0.01211011 0.08193117 0.01005682
v 0.01211011 0.08192529 0.00568182
v 0.00571513 0.08469175 0.00348942
v 0.01231910 -0.00273119 0.00868926
v 0.01385057 0.09988636 0.00697100
v 0.01385057 0.09988636 0.00697100
v 0.00026646 0.09994383 0.00783177
v 0.00026646 0.09994383 0.00783177
v 0.01184431 0.02109261 0.00728710
v 0.01184431 0.02109261 0.00728710
v 0.01196970 0.09989094 0.00469828
v 0.01196970 0.09989094 0.00469828
v 0.00096199 0.08197492 0.00786769
v 0.00142176 0.09994253 0.01029454
v 0.00142176 0.09994253 0.01029454
v 0.00363702 0.08461272 0.01116967
v 0.00965583 0.02110632 0.01070272
v 0.00136494 0.08461991 0.00938022
v 0.00136494 0.08461991 0.00938022
v 0.00136494 0.08461599 0.00632968
v 0.00993339 0.06588101 0.01073668
v 0.00780172 0.02110632 0.00466823
v 0.01081113 -0.00261168 0.01062892
v 0.01081113 -0.00261168 0.01062892
v 0.00704937 0.08194423 0.00393090
v 0.00704937 0.08194423 0.00393090
v 0.00941680 0.08458921 0.01153605
v 0.00941680 0.08458921 0.01153605
v 0.00343979 0.04484653 0.00566941
v 0.00494449 0.06589407 0.00470154
v 0.01199321 -0.00273315 0.00654715
v 0.00689394 0.04483869 0.01106387
v 0.00689394 0.04483869 0.01106387
v 0.00781348 -0.00271878 0.00432667
v 0.01341432 0.08466758 0.00955721
v 0.00442790 0.08470807 0.01195990
v 0.00446970 -0.00258425 0.01143809
v 0.00446970 -0.00258425 0.01143809
v 0.00839864 0.08469240 0.01221460
v 0.00993012 -0.00261560 0.00483608
v 0.00993012 -0.00261560 0.00483608
v 0.01043169 0.08193900 0.01114094
v 0.00679532 0.02111938 0.01126437
v 0.00101228 0.08461795 0.00707419
v 0.00101228 0.08461991 0.00862918
v 0.00101228 0.08461991 0.00862918
v 0.00669671 -0.00259339 0.01172544
v 0.00669671 -0.00259339 0.01172544
v 0.00669671 -0.00271356 0.00425483
v 0.00586076 0.08194880 0.00400927
v 0.00471722 0.08196382 0.01150601
v 0.00078827 0.09994318 0.00952978
v 0.00078827 0.09994318 0.00952978
v 0.00078827 0.09994318 0.00952978
v 0.01153017 -0.00262147 0.00587448
v 0.01153017 -0.00262147 0.00587448
v 0.00557994 -0.00270964 0.00432602
v 0.00219436 0.08471656 0.01099922
v 0.00323929 0.08471264 0.01155434
v 0.00892372 -0.00260319 0.01143874
v 0.00892372 -0.00260319 0.01143874
v 0.00039707 0.09994188 0.00696970
v 0.00039707 0.09994188 0.00696970
v 0.00039707 0.09994383 0.00870037
v 0.00039707 0.09994383 0.00870037
v 0.00039707 0.09994383 0.00870037
v 0.00393482 0.02113049 0.01070206
v 0.00192855 -0.00268678 0.01002743
v 0.01095677 0.04481583 0.00615334
v 0.00585750 0.08460423 0.01176398
v 0.00585750 0.08460423 0.01176398
v 0.00594109 0.04483477 0.00480734
v 0.00594109 0.04483477 0.00480734
v 0.00258229 -0.00257772 0.01062761
v 0.00258229 -0.00257772 0.01062761
v 0.00901907 0.06588558 0.01105669
v 0.00901907 0.06588558 0.01105669
v 0.00960423 0.04482693 0.01052900
v 0.00876829 0.02110240 0.00485763
v 0.01048197 0.08457615 0.00454154
v 0.01278083 0.08467085 0.01032785
v 0.00783373 -0.00260776 0.00427377
v 0.00783373 -0.00260776 0.00427377
v 0.00712317 0.09992098 0.01226685
v 0.00712317 0.09992098 0.01226685
v 0.00210750 0.04485436 0.00728905
v 0.00210750 0.04485502 0.00852273
v 0.00210750 0.04485502 0.00852273
v 0.00823668 0.08194880 0.01172871
v 0.00450170 -0.00269592 0.01139237
v 0.00366575 0.08196708 0.01114028
v 0.00889041 -0.00271421 0.01139303
v 0.00165948 0.06591236 0.00787552
v 0.01194161 0.02109326 0.00793365
v 0.00139368 -0.00268548 0.00938676
v 0.00139368 -0.00268874 0.00654585
v 0.00227142 0.09993143 0.00469697
v 0.00227142 0.09993143 0.00469697
v 0.00331635 0.09992620 0.00414903
v 0.00331635 0.09992620 0.00414903
v 0.01155042 0.02109326 0.00666079
v 0.01345807 0.09989094 0.00953174
v 0.01345807 0.09989094 0.00953174
v 0.00238179 0.04485240 0.00669475
v 0.00132184 -0.00257380 0.00940635
v 0.00132184 -0.00257380 0.00940635
v 0.01043365 0.02109718 0.00558320
v 0.00704807 0.08195402 0.01180708
v 0.00876176 0.04483085 0.01082223
v 0.00449843 0.09992098 0.00373759
v 0.00449843 0.09992098 0.00373759
v 0.01135319 0.08192790 0.00508751
v 0.01239812 -0.00262147 0.00870232
v 0.01239812 -0.00262147 0.00870232
v 0.01239812 -0.00262278 0.00723289
v 0.01239812 -0.00262278 0.00723289
v 0.01239812 -0.00262278 0.00723289
v 0.00402364 0.06589864 0.00501502
v 0.01313545 0.08192398 0.00786899
v 0.00502678 0.04483869 0.00499020
v 0.01146356 -0.00272662 0.01002808
v 0.00256074 0.06591105 0.00978971
v 0.00256074 0.06590583 0.00596852
v 0.00705982 0.08469762 0.01229950
v 0.01140674 0.04481714 0.00911181
v 0.00269788 0.08460815 0.00503723
v 0.00198733 0.08197296 0.01005617
v 0.01189329 0.06586795 0.00656413
v 0.01189329 0.06586795 0.00656413
v 0.00264107 -0.00269592 0.00534417
v 0.00585946 0.08195859 0.01172871
v 0.00585946 0.08195859 0.01172871
v 0.00594305 0.06589864 0.01125196
v 0.00594305 0.06589864 0.01125196
v 0.01207223 -0.00262213 0.00652756
v 0.01207223 -0.00262213 0.00652756
v 0.00099595 -0.00257510 0.00723158
v 0.00099595 -0.00257510 0.00723158
v 0.00107955 0.08197296 0.00710358
v 0.00107955 0.08197492 0.00863832
v 0.00107955 0.08197492 0.00863832
v 0.01177965 0.04481452 0.00790361
v 0.01140347 0.06586860 0.00596983
v 0.00204088 0.02113636 0.00920650
v 0.01282458 0.09989485 0.01029585
v 0.01282458 0.09989485 0.01029585
v 0.00988375 -0.00272662 0.00488114
v 0.01168103 0.04481518 0.00852403
v 0.00846264 0.09990400 0.00348354
v 0.00846264 0.09990400 0.00348354
v 0.00164969 0.02113636 0.00793234
v 0.00164969 0.02113636 0.00793234
v 0.00142568 0.08197427 0.00937631
v 0.00142568 0.08197427 0.00937631
v 0.00142568 0.08197100 0.00635906
v 0.01141523 0.08457941 0.01067398
v 0.00418430 0.04484261 0.00527756
v 0.00784744 0.04483477 0.01100509
v 0.00784744 0.04483477 0.01100509
v 0.00283177 0.04485371 0.00965909
v 0.01231975 -0.00273380 0.00723942
v 0.00482301 0.02112722 0.01100901
v 0.00315112 0.02113310 0.01029062
v 0.00018352 0.08472048 0.00785136
v 0.00578435 0.09992620 0.01218195
v 0.00578435 0.09992620 0.01218195
v 0.00578435 0.09992620 0.01218195
v 0.00206439 0.06590844 0.00656283
v 0.00206439 0.06591236 0.00919475
v 0.00206439 0.06591236 0.00919475
v 0.01074321 0.06587774 0.01031217
v 0.00133882 0.08471852 0.01032654
v 0.00096264 -0.00268548 0.00796304
v 0.00698145 0.06589407 0.01131792
v 0.00698145 0.06589407 0.01131792
v 0.00698145 0.06589407 0.01131792
v 0.00142241 0.09993600 0.00536964
v 0.00142241 0.09993600 0.00536964
v 0.00321970 0.06590844 0.01031152
v 0.00965648 0.02109914 0.00516458
v 0.00556034 -0.00258817 0.01165361
v 0.00556034 -0.00258817 0.01165361
v 0.00993404 0.06587382 0.00501567
v 0.01081178 -0.00261886 0.00530630
v 0.01081178 -0.00261886 0.00530630
v 0.00826215 0.08458399 0.00394658
v 0.00274491 0.08197035 0.01065047
v 0.01380617 0.08466562 0.00872192
v 0.01380617 0.08466562 0.00872192
v 0.01088036 0.08468064 0.01155564
v 0.01192529 0.08467607 0.01100052
v 0.00689459 0.04483085 0.00474856
v 0.00350901 -0.00269201 0.01105277
v 0.01341497 0.08466301 0.00615465
v 0.01341497 0.08466301 0.00615465
v 0.00442855 0.08469762 0.00374347
v 0.00447035 -0.00259339 0.00448929
v 0.00447035 -0.00259339 0.00448929
v 0.00447035 -0.00259339 0.00448929
v 0.00839929 0.08468064 0.00348942
v 0.01034875 0.04482301 0.01013715
v 0.01043234 0.08193117 0.00459705
v 0.01310737 0.08456766 0.00707615
v 0.01310737 0.08456962 0.00863049
v 0.01310737 0.08456962 0.00863049
v 0.00679598 0.02111089 0.00460293
v 0.01075170 -0.00272335 0.01058973
v 0.00669736 -0.00260319 0.00420193
v 0.00669736 -0.00260319 0.00420193
v 0.01229820 0.06586795 0.00787683
v 0.01229820 0.06586795 0.00787683
v 0.00974856 0.09990987 0.01193378
v 0.00974856 0.09990987 0.01193378
v 0.00974856 0.09990987 0.01193378
v 0.00471787 0.08195402 0.00423067
v 0.00346395 -0.00258098 0.01109195
v 0.00346395 -0.00258098 0.01109195
v 0.00969175 0.08468652 0.01196055
v 0.00969175 0.08468652 0.01196055
v 0.00070533 0.08472048 0.00955590
v 0.00070533 0.08472048 0.00955590
v 0.00801985 0.06589015 0.01125261
v 0.00801985 0.06589015 0.01125261
v 0.00078892 0.09993926 0.00613375
v 0.00078892 0.09993926 0.00613375
v 0.00219501 0.08470807 0.00471003
v 0.00578958 0.02112330 0.01119906
v 0.01093064 0.09990400 0.01152364
v 0.01093064 0.09990400 0.01152364
v 0.00323994 0.08470285 0.00415491
v 0.00031413 0.08472179 0.00871996
v 0.00031413 0.08472179 0.00871996
v 0.00031413 0.08471852 0.00698276
v 0.00892437 -0.00261168 0.00448994
v 0.00892437 -0.00261168 0.00448994
v 0.00470285 0.08459901 0.00416863
v 0.00393548 0.02112330 0.00516392
v 0.00192921 -0.00269201 0.00590583
v 0.01275470 0.08456831 0.00633098
v 0.01275470 0.08456831 0.00633098
v 0.01275470 0.08457223 0.00938153
v 0.00258294 -0.00258490 0.00530564
v 0.00258294 -0.00258490 0.00530564
v 0.00901972 0.06587709 0.00470219
v 0.00174700 0.02113702 0.00858542
v 0.00960489 0.04482040 0.00527821
v 0.01278148 0.08466497 0.00538401
v 0.01251567 -0.00262278 0.00796434
v 0.01251567 -0.00262278 0.00796434
v 0.00185737 -0.00257576 0.01005290
v 0.00185737 -0.00257576 0.01005290
v 0.00712382 0.09990987 0.00339864
v 0.00712382 0.09990987 0.00339864
v 0.00712382 0.09990987 0.00339864
v 0.00938088 0.08193443 0.00423132
v 0.00200954 0.04485502 0.00790230
v 0.00200954 0.04485502 0.00790230
v 0.00251110 0.02113506 0.00978775
v 0.01107955 0.02109979 0.00978840
v 0.00571447 0.08470350 0.01221460
v 0.00571447 0.08470350 0.01221460
v 0.00450235 -0.00270441 0.00453501
v 0.00366641 0.08195925 0.00459639
v 0.00889107 -0.00272270 0.00453566
v 0.01384992 0.09988832 0.00870232
v 0.01384992 0.09988832 0.00870232
v 0.01384992 0.09988832 0.00870232
v 0.01184365 0.02109522 0.00858673
v 0.01196904 0.09989943 0.01096852
v 0.01196904 0.09989943 0.01096852
v 0.00351097 -0.08408242 0.00365269
v 0.01260776 -0.06842999 0.00637017
v 0.01260776 -0.06841954 0.00968130
v 0.01260776 -0.06841954 0.00968130
v -0.00139433 -0.09822362 0.00709901
v -0.00139433 -0.09822100 0.00907785
v 0.00546042 -0.00485175 0.00399621
v 0.00546042 -0.00485175 0.00399621
v 0.01365269 -0.08412095 0.00716040
v 0.01365269 -0.08411834 0.00903540
v 0.00222701 -0.00482236 0.01087905
v 0.00782785 -0.09826737 0.00310933
v 0.01378984 -0.08412030 0.00809496
v 0.00931753 -0.01331178 0.00383751
v 0.01019527 -0.00487004 0.00460358
v 0.00930251 -0.09826084 0.01277560
v 0.00222375 -0.08406021 0.01209705
v 0.00427181 -0.00484587 0.00422348
v 0.01048459 -0.08409417 0.01209770
v -0.00063349 -0.02372780 0.00800287
v 0.00329545 -0.09824778 0.00339603
v -0.00014694 -0.06837644 0.00717803
v -0.00014694 -0.06836729 0.00886951
v 0.01322819 -0.08410920 0.00993665
v 0.01322819 -0.08410920 0.00993665
v 0.01322819 -0.08411964 0.00625980
v 0.01371473 -0.02379506 0.00709052
v 0.01329676 -0.02379441 0.00621539
v 0.00477011 -0.09824190 0.01306230
v 0.00660920 -0.02377090 0.00332092
v -0.00049634 -0.02372714 0.00891719
v -0.00049634 -0.02373629 0.00708856
v 0.00635841 -0.08409548 0.00328762
v 0.01399229 -0.09828501 0.00907981
v 0.01399229 -0.09828762 0.00710097
v 0.00398772 -0.01327260 0.01215713
v 0.00490726 -0.08407066 0.01281544
v 0.00168887 -0.06838623 0.00496473
v 0.00168887 -0.06838623 0.00496473
v 0.00511625 -0.06838427 0.01227338
v 0.00085293 -0.06838166 0.00561716
v 0.00058712 -0.02372910 0.01060280
v 0.00642372 -0.06840778 0.00369188
v 0.00629833 -0.09824778 0.01316027
v 0.00110044 -0.08405630 0.01149621
v 0.01157654 -0.01330525 0.01118469
v 0.01115857 -0.06842607 0.00496604
v 0.01115857 -0.06842607 0.00496604
v 0.01287226 -0.00487134 0.00719632
v 0.01287226 -0.00486938 0.00879049
v -0.00008490 -0.02373890 0.00621343
v 0.01243926 -0.01331635 0.00549634
v 0.00270050 -0.06837578 0.01162618
v 0.01172871 -0.02377482 0.01131531
v -0.00022531 -0.09822362 0.01090648
v 0.00148838 -0.02373237 0.01131400
v 0.00545912 -0.00483412 0.01199647
v 0.00782654 -0.09825431 0.01306230
v 0.00920585 -0.08410658 0.00365334
v 0.00021944 -0.01326019 0.00972048
v 0.00021944 -0.01326019 0.00972048
v 0.01161507 -0.08410005 0.01149687
v -0.00155107 -0.09822166 0.00808516
v 0.01019397 -0.00485502 0.01138911
v 0.00144331 -0.00481975 0.01025862
v 0.01262996 -0.02377939 0.01060410
v 0.00665295 -0.01330133 0.00349726
v 0.00427051 -0.00482955 0.01176071
v 0.00780825 -0.08410136 0.00337905
v 0.00329415 -0.09823602 0.01277429
v 0.01254310 -0.08411834 0.00542385
v 0.00318051 -0.00482628 0.01138845
v 0.00635711 -0.08407654 0.01290752
v 0.00086664 -0.01326803 0.00549504
v -0.00017829 -0.01326149 0.00712056
v 0.01014564 -0.06840648 0.01162748
v -0.00051267 -0.08405172 0.00993469
v -0.00051267 -0.08405172 0.00993469
v 0.00519854 -0.02376437 0.00341236
v 0.00519854 -0.02376437 0.00341236
v 0.01251306 -0.00486677 0.00955460
v 0.01251306 -0.00486677 0.00955460
v 0.01251306 -0.00487787 0.00643221
v 0.01063218 -0.02378657 0.00411181
v 0.00937827 -0.02378135 0.00367424
v 0.00668822 -0.00485632 0.00391784
v 0.00642241 -0.06839015 0.01235828
v 0.00529389 -0.01327782 0.01241183
v 0.00278605 -0.01326803 0.01173851
v 0.01051855 -0.01330003 0.01173981
v 0.00801071 -0.01328892 0.01241183
v 0.00222766 -0.00483673 0.00511168
v 0.00222766 -0.00483673 0.00511168
v 0.00772989 -0.06841366 0.00377678
v 0.01299634 -0.00487134 0.00799308
v 0.01065569 -0.09827847 0.00386755
v 0.00898380 -0.06841823 0.00402560
v -0.00093717 -0.08405760 0.00903344
v -0.00093717 -0.08406021 0.00715909
v 0.00222440 -0.08407719 0.00409679
v 0.00920455 -0.08408830 0.01254180
v 0.00258555 -0.02373629 0.01189525
v 0.01299308 -0.06842150 0.00887147
v 0.01299308 -0.06843064 0.00717999
v 0.00801920 -0.02375784 0.01259470
v 0.00383947 -0.02374086 0.01233346
v 0.01184953 -0.09827260 0.01167842
v 0.00017307 -0.08405368 0.01076411
v -0.00108085 -0.08405825 0.00809300
v 0.01354820 -0.09828696 0.00614681
v 0.01354820 -0.09828174 0.01003331
v 0.01354820 -0.09828174 0.01003331
v 0.00780695 -0.08408242 0.01281609
v 0.01282262 -0.09827782 0.01090778
v 0.00386298 -0.06837970 0.01202521
v 0.00398838 -0.01329023 0.00383686
v 0.00058777 -0.02374216 0.00540361
v 0.01308516 -0.01331374 0.00972179
v 0.01308516 -0.01331374 0.00972179
v 0.00037879 -0.00481844 0.00799177
v 0.00023838 -0.06836795 0.00967999
v 0.00023838 -0.06836795 0.00967999
v 0.00172806 -0.01326476 0.01118339
v 0.00193704 -0.09824190 0.00386625
v 0.00110110 -0.08407132 0.00469762
v 0.00110110 -0.08407132 0.00469762
v 0.01157719 -0.01331374 0.00481714
v 0.01157719 -0.01331374 0.00481714
v 0.00351032 -0.08406479 0.01254114
v 0.00668691 -0.00483999 0.01207484
v 0.00086207 -0.00482955 0.00643090
v 0.00086207 -0.00481844 0.00955264
v 0.00086207 -0.00481844 0.00955264
v 0.00270115 -0.06839146 0.00442268
v 0.01172936 -0.02378984 0.00469305
v 0.01172936 -0.02378984 0.00469305
v -0.00022466 -0.09823080 0.00527038
v 0.00148903 -0.02374739 0.00469175
v 0.00148903 -0.02374739 0.00469175
v 0.00022009 -0.01326476 0.00627220
v -0.00095024 -0.09822166 0.01003135
v -0.00095024 -0.09822166 0.01003135
v -0.00095024 -0.09822623 0.00614551
v 0.00772858 -0.06839538 0.01227338
v 0.01161573 -0.08411507 0.00469893
v 0.01161573 -0.08411507 0.00469893
v 0.00074843 -0.09823602 0.00449974
v 0.00074843 -0.09823602 0.00449974
v 0.00931688 -0.01329480 0.01215778
v 0.01065439 -0.09826672 0.01230538
v 0.00898250 -0.06840125 0.01202521
v 0.00144397 -0.00483216 0.00572557
v 0.01263062 -0.02379245 0.00540491
v 0.00910462 -0.00486612 0.00422414
v 0.01311716 -0.06842346 0.00802900
v 0.01193182 -0.00486351 0.01025993
v 0.01193182 -0.00487591 0.00572688
v 0.01371408 -0.02378657 0.00891915
v 0.01329611 -0.02378331 0.00979428
v 0.01329611 -0.02378331 0.00979428
v 0.00318117 -0.00484130 0.00460227
v 0.00660854 -0.02375196 0.01268613
v 0.01014629 -0.06842215 0.00442398
v -0.00051202 -0.08406283 0.00625849
v 0.01385123 -0.02378788 0.00800483
v 0.00791601 -0.00486155 0.00399621
v 0.00168822 -0.06837187 0.01109065
v 0.00085227 -0.06836991 0.01043103
v 0.00050287 -0.00481975 0.00719501
v 0.00050287 -0.00481779 0.00878853
v 0.00529454 -0.01329611 0.00358216
v 0.00529454 -0.01329611 0.00358216
v 0.00278670 -0.01328370 0.00425483
v 0.01051920 -0.01331635 0.00425549
v 0.00801136 -0.01330721 0.00358216
v 0.00193574 -0.09823080 0.01230408
v 0.01199386 -0.06842803 0.00561847
v 0.01199386 -0.06841627 0.01043234
v 0.01115792 -0.06841170 0.01109195
v -0.00008555 -0.02372780 0.00979297
v -0.00008555 -0.02372780 0.00979297
v 0.01243861 -0.01330982 0.01049896
v -0.00030956 -0.01325954 0.00799569
v 0.01348354 -0.01331635 0.00887931
v 0.01348354 -0.01331831 0.00712252
v 0.00930381 -0.09827325 0.00339668
v 0.00258621 -0.02375261 0.00411050
v 0.01048589 -0.08411181 0.00409744
v 0.00801985 -0.02377612 0.00341236
v 0.00074713 -0.09822623 0.01167712
v 0.00384013 -0.02375849 0.00367359
v 0.01185018 -0.09828239 0.00450104
v 0.01185018 -0.09828239 0.00450104
v 0.00477142 -0.09825431 0.00310867
v 0.00477142 -0.09825431 0.00310867
v 0.00017372 -0.08406675 0.00542254
v 0.00665230 -0.01328305 0.01250327
v 0.00910332 -0.00484979 0.01176136
v 0.01282328 -0.09828501 0.00527168
v 0.00386364 -0.06839668 0.00402495
v 0.00490857 -0.08408895 0.00337840
v 0.00490857 -0.08408895 0.00337840
v 0.00511755 -0.06840256 0.00377678
v 0.00511755 -0.06840256 0.00377678
v 0.01254245 -0.08410528 0.01076607
v 0.01308582 -0.01331831 0.00627416
v 0.00086599 -0.01326215 0.01049765
v 0.01114812 -0.00485959 0.01087970
v 0.01114812 -0.00487396 0.00511298
v 0.01114812 -0.00487396 0.00511298
v 0.00023903 -0.06837840 0.00636821
v -0.00017894 -0.01325954 0.00887735
v 0.00629963 -0.09826084 0.00301136
v 0.01361416 -0.01331766 0.00799765
v 0.00172871 -0.01327260 0.00481583
v 0.00172871 -0.01327260 0.00481583
v 0.01414250 -0.09828696 0.00808712
v 0.00519788 -0.02374608 0.01259470
v -0.00027756 -0.06836795 0.00802704
v 0.00791471 -0.00484457 0.01199647
v 0.01063153 -0.02376959 0.01189655
v 0.00937761 -0.02376371 0.01233412
v 0.03358999 0.08484718 0.00144135
v -0.00224530 0.08479950 0.00036638
v -0.00224530 0.08479950 0.00036638
v 0.03265217 0.08432667 0.01451019
v 0.03265217 0.08432667 0.01451019
v 0.03265217 0.08432667 0.01451019
v 0.03271748 0.10000000 0.01449060
v 0.03271748 0.10000000 0.01449060
v 0.03271748 0.10000000 0.01449060
v 0.03271421 0.09879963 0.00000000
v 0.03271421 0.09879963 0.00000000
v 0.03359195 0.08574647 0.01514890
v 0.03265739 0.08551006 0.01569096
v 0.03265739 0.08551006 0.01569096
v 0.03364551 0.09857301 0.01513192
v 0.03358869 0.08486416 0.01427443
v 0.03265413 0.08430904 0.00120037
v 0.03265413 0.08430904 0.00120037
v 0.03265413 0.08430904 0.00120037
v -0.00224660 0.08481844 0.01534156
v -0.00224660 0.08481844 0.01534156
v 0.03271944 0.09998302 0.00118077
v 0.03271944 0.09998302 0.00118077
v 0.03271944 0.09998302 0.00118077
v 0.03365073 0.09943051 0.00142307
v 0.03359391 0.08572819 0.00056557
v -0.00218456 0.09979363 0.01532262
v -0.00218456 0.09979363 0.01532262
v 0.03364747 0.09855408 0.00054859
v 0.03271290 0.09881923 0.01567398
v 0.03271290 0.09881923 0.01567398
v -0.03364943 0.09176202 0.00098746
v -0.03364943 0.09176202 0.00098746
v -0.03364943 0.09176202 0.00098746
v -0.00218260 0.09977403 0.00034809
v -0.00218260 0.09977403 0.00034809
v 0.03364943 0.09944684 0.01425614
v -0.03271290 0.09121473 0.01508817
v -0.03271290 0.09121473 0.01508817
v -0.03270115 0.09363832 0.00059365
v -0.03270115 0.09363832 0.00059365
v -0.03365073 0.09177965 0.01469566
v -0.03365073 0.09177965 0.01469566
v -0.03365073 0.09177965 0.01469566
v -0.03271095 0.09119645 0.00059626
v -0.03271095 0.09119645 0.00059626
v -0.03364551 0.09309888 0.01469436
v -0.03364551 0.09309888 0.01469436
v -0.03364551 0.09309888 0.01469436
v -0.03270246 0.09365726 0.01508555
v -0.03270246 0.09365726 0.01508555
v -0.03364355 0.09308124 0.00098615
v -0.03364355 0.09308124 0.00098615
v -0.03364355 0.09308124 0.00098615
v 0.03265870 0.08548981 0.00001698
v 0.03265870 0.08548981 0.00001698
f 436 267 328
f 328 262 433
f 433 294 44
f 44 187 342
f 342 197 421
f 421 170 57
f 57 184 74
f 74 451 307
f 307 6 408
f 408 7 310
f 310 450 256
f 256 99 401
f 401 87 325
f 325 111 237
f 237 102 215
f 215 288 436
f 436 328 433
f 433 44 342
f 342 421 57
f 57 74 307
f 307 408 310
f 310 256 401
f 401 325 237
f 237 215 436
f 436 433 342
f 342 57 307
f 307 310 401
f 401 237 436
f 436 342 307
f 307 401 436
f 467 327 265
f 467 265 85
f 86 266 434
f 86 434 250
f 251 435 289
f 251 289 446
f 447 290 213
f 447 213 417
f 418 214 100
f 418 100 217
f 218 101 235
f 218 235 396
f 397 236 109
f 397 109 29
f 30 110 323
f 30 323 463
f 464 324 88
f 464 88 425
f 426 89 399
f 426 399 61
f 62 400 97
f 62 97 277
f 278 98 254
f 278 254 312
f 313 255 448
f 313 448 286
f 287 449 308
f 287 308 302
f 303 309 8
f 303 8 21
f 22 9 406
f 22 406 133
f 134 407 4
f 134 4 23
f 24 5 305
f 24 305 300
f 301 306 452
f 301 452 119
f 120 453 72
f 120 72 413
f 414 73 182
f 414 182 384
f 385 183 55
f 385 55 152
f 153 56 168
f 153 168 70
f 71 169 419
f 71 419 105
f 106 420 195
f 106 195 131
f 132 196 340
f 132 340 52
f 53 341 185
f 53 185 315
f 316 186 42
f 316 42 241
f 242 43 292
f 242 292 258
f 259 293 431
f 259 431 252
f 253 432 263
f 253 263 83
f 84 264 326
f 84 326 466
f 90 298 129
f 90 129 364
f 364 129 18
f 364 18 198
f 198 18 345
f 198 345 31
f 31 345 66
f 31 66 130
f 130 66 49
f 130 49 349
f 349 49 245
f 349 245 465
f 465 245 93
f 465 93 205
f 205 93 228
f 205 228 225
f 225 228 377
f 225 377 238
f 238 377 212
f 238 212 461
f 461 212 405
f 461 405 117
f 117 405 201
f 117 201 329
f 329 201 394
f 329 394 427
f 427 394 77
f 427 77 276
f 276 77 444
f 276 444 145
f 145 444 248
f 145 248 374
f 374 248 441
f 374 441 144
f 144 441 80
f 144 80 275
f 275 80 221
f 275 221 249
f 249 221 35
f 249 35 146
f 146 35 233
f 146 233 387
f 387 233 39
f 387 39 271
f 271 39 12
f 271 12 63
f 63 12 332
f 63 332 54
f 54 332 178
f 54 178 36
f 36 178 354
f 36 354 273
f 273 354 141
f 273 141 154
f 154 141 69
f 154 69 398
f 398 69 348
f 398 348 304
f 304 348 15
f 304 15 32
f 32 15 126
f 32 126 171
f 171 126 298
f 171 298 90
f 125 116 208
f 125 208 296
f 14 173 115
f 14 115 124
f 347 356 172
f 347 172 13
f 68 456 355
f 68 355 346
f 140 138 455
f 140 455 67
f 353 438 137
f 353 137 139
f 177 469 437
f 177 437 352
f 331 280 468
f 331 468 176
f 11 123 279
f 11 279 330
f 38 151 122
f 38 122 10
f 232 161 150
f 232 150 37
f 34 28 160
f 34 160 231
f 220 143 27
f 220 27 33
f 79 284 142
f 79 142 219
f 440 373 283
f 440 283 78
f 247 269 372
f 247 372 439
f 443 371 268
f 443 268 246
f 76 282 370
f 76 370 442
f 393 318 281
f 393 281 75
f 200 194 317
f 200 317 392
f 404 363 193
f 404 193 199
f 211 59 362
f 211 362 403
f 376 26 58
f 376 58 210
f 227 190 25
f 227 25 375
f 92 368 189
f 92 189 226
f 244 336 367
f 244 367 91
f 50 47 335
f 50 335 243
f 65 458 46
f 65 46 48
f 344 358 457
f 344 457 64
f 17 175 357
f 17 357 343
f 128 114 174
f 128 174 16
f 297 209 113
f 297 113 127
f 261 95 166
f 261 166 167
f 285 261 167
f 285 167 19
f 334 285 19
f 334 19 320
f 230 333 319
f 230 319 321
f 272 230 321
f 272 321 314
f 378 272 314
f 378 314 104
f 322 378 104
f 322 104 60
f 359 322 60
f 359 60 1
f 338 360 2
f 338 2 203
f 188 339 204
f 188 204 118
f 337 188 118
f 337 118 202
f 361 337 202
f 361 202 3
f 51 361 3
f 51 3 234
f 103 51 234
f 103 234 270
f 158 274 179
f 158 179 107
f 107 179 430
f 107 430 389
f 388 429 351
f 388 351 445
f 445 351 20
f 445 20 112
f 112 20 260
f 112 260 108
f 108 260 81
f 108 81 135
f 135 81 82
f 135 82 391
f 391 82 380
f 391 380 40
f 41 379 223
f 41 223 164
f 164 223 224
f 164 224 390
f 390 224 45
f 390 45 416
f 416 45 270
f 416 270 415
f 415 270 234
f 415 234 96
f 96 234 3
f 96 3 136
f 136 3 202
f 136 202 424
f 424 202 118
f 424 118 366
f 366 118 204
f 366 204 422
f 423 203 2
f 423 2 411
f 412 1 60
f 412 60 369
f 369 60 104
f 369 104 239
f 239 104 314
f 239 314 240
f 240 314 321
f 240 321 207
f 207 321 319
f 207 319 459
f 460 320 19
f 460 19 311
f 311 19 167
f 311 167 216
f 216 167 166
f 216 166 409
f 410 165 365
f 410 365 383
f 383 365 291
f 383 291 386
f 386 291 350
f 386 350 257
f 257 350 428
f 257 428 206
f 206 428 180
f 206 180 381
f 382 181 274
f 382 274 158
f 94 222 365
f 94 365 165
f 299 155 179
f 299 179 274
f 222 121 291
f 222 291 365
f 155 149 430
f 155 430 179
f 121 162 350
f 121 350 291
f 148 163 351
f 148 351 429
f 162 147 428
f 162 428 350
f 163 295 20
f 163 20 351
f 147 156 180
f 147 180 428
f 295 395 260
f 295 260 20
f 157 299 274
f 157 274 181
f 395 454 81
f 395 81 260
f 454 159 82
f 454 82 81
f 159 192 380
f 159 380 82
f 191 229 223
f 191 223 379
f 229 402 224
f 229 224 223
f 402 462 45
f 402 45 224
f 462 103 270
f 462 270 45
f 875 512 614
f 614 473 508
f 508 621 584
f 584 565 759
f 759 863 531
f 531 719 708
f 708 706 786
f 786 833 671
f 671 616 674
f 674 662 623
f 623 546 549
f 549 557 775
f 775 693 604
f 604 823 838
f 838 878 754
f 754 711 875
f 875 614 508
f 508 584 759
f 759 531 708
f 708 786 671
f 671 674 623
f 623 549 775
f 775 604 838
f 838 754 875
f 875 508 759
f 759 708 671
f 671 623 775
f 775 838 875
f 875 759 671
f 671 775 875
f 820 751 511
f 820 511 572
f 574 510 491
f 574 491 738
f 738 491 678
f 738 678 752
f 752 678 555
f 752 555 535
f 535 555 855
f 535 855 792
f 792 855 481
f 792 481 853
f 853 481 518
f 853 518 577
f 577 518 801
f 577 801 538
f 538 801 681
f 538 681 503
f 502 682 729
f 502 729 639
f 639 729 766
f 639 766 727
f 727 766 638
f 727 638 540
f 540 638 521
f 540 521 732
f 732 521 713
f 732 713 777
f 777 713 695
f 777 695 497
f 497 695 866
f 497 866 702
f 702 866 697
f 702 697 500
f 499 696 554
f 499 554 779
f 779 554 769
f 779 769 731
f 731 769 482
f 731 482 788
f 788 482 607
f 788 607 561
f 561 607 564
f 561 564 483
f 483 564 517
f 483 517 742
f 742 517 641
f 742 641 783
f 785 642 768
f 785 768 831
f 831 768 718
f 831 718 685
f 685 718 687
f 685 687 630
f 630 687 810
f 630 810 780
f 780 810 515
f 780 515 596
f 596 515 734
f 596 734 585
f 585 734 757
f 585 757 571
f 571 757 751
f 571 751 820
f 703 858 726
f 703 726 618
f 619 724 745
f 619 745 710
f 710 745 664
f 710 664 609
f 609 664 793
f 609 793 716
f 716 793 649
f 716 649 789
f 789 649 843
f 789 843 688
f 688 843 692
f 688 692 631
f 631 692 817
f 631 817 815
f 815 817 541
f 815 541 582
f 582 541 806
f 582 806 524
f 525 807 567
f 525 567 846
f 846 567 851
f 846 851 529
f 529 851 598
f 529 598 608
f 608 598 476
f 608 476 504
f 504 476 746
f 504 746 591
f 591 746 472
f 591 472 760
f 761 470 595
f 761 595 854
f 854 595 715
f 854 715 753
f 753 715 859
f 753 859 867
f 867 859 683
f 867 683 772
f 772 683 825
f 772 825 676
f 676 825 647
f 676 647 771
f 771 647 791
f 771 791 836
f 836 791 657
f 836 657 652
f 652 657 526
f 652 526 478
f 479 527 669
f 479 669 519
f 519 669 493
f 519 493 626
f 626 493 632
f 626 632 556
f 556 632 505
f 556 505 868
f 868 505 592
f 868 592 552
f 552 592 722
f 552 722 877
f 877 722 858
f 877 858 703
f 757 877 703
f 757 703 751
f 734 552 877
f 734 877 757
f 515 868 552
f 515 552 734
f 810 556 868
f 810 868 515
f 687 626 556
f 687 556 810
f 718 519 626
f 718 626 687
f 768 479 519
f 768 519 718
f 641 652 478
f 641 478 767
f 517 836 652
f 517 652 641
f 564 771 836
f 564 836 517
f 607 676 771
f 607 771 564
f 482 772 676
f 482 676 607
f 769 867 772
f 769 772 482
f 554 753 867
f 554 867 769
f 696 854 753
f 696 753 554
f 865 761 854
f 865 854 696
f 695 591 760
f 695 760 866
f 713 504 591
f 713 591 695
f 521 608 504
f 521 504 713
f 638 529 608
f 638 608 521
f 766 846 529
f 766 529 638
f 729 525 846
f 729 846 766
f 682 581 525
f 682 525 729
f 801 815 582
f 801 582 681
f 518 631 815
f 518 815 801
f 481 688 631
f 481 631 518
f 855 789 688
f 855 688 481
f 555 716 789
f 555 789 855
f 678 609 716
f 678 716 555
f 491 710 609
f 491 609 678
f 510 619 710
f 510 710 491
f 751 703 618
f 751 618 511
f 602 570 819
f 602 819 728
f 587 585 571
f 587 571 601
f 610 596 585
f 610 585 587
f 559 780 596
f 559 596 610
f 651 630 780
f 651 780 559
f 533 685 630
f 533 630 651
f 698 832 686
f 698 686 534
f 717 784 832
f 717 832 698
f 741 743 784
f 741 784 717
f 660 483 742
f 660 742 740
f 700 561 483
f 700 483 660
f 796 788 561
f 796 561 700
f 736 731 788
f 736 788 796
f 762 779 731
f 762 731 736
f 749 498 778
f 749 778 763
f 622 702 500
f 622 500 750
f 748 497 702
f 748 702 622
f 764 777 497
f 764 497 748
f 496 732 777
f 496 777 764
f 543 540 732
f 543 732 496
f 872 727 540
f 872 540 543
f 824 639 727
f 824 727 872
f 659 502 639
f 659 639 824
f 634 537 502
f 634 502 659
f 606 577 538
f 606 538 635
f 864 853 577
f 864 577 606
f 811 792 853
f 811 853 864
f 721 535 792
f 721 792 811
f 611 752 535
f 611 535 721
f 588 738 752
f 588 752 611
f 600 573 737
f 600 737 589
f 728 819 573
f 728 573 600
f 857 522 770
f 857 770 725
f 725 770 640
f 725 640 744
f 744 640 484
f 744 484 665
f 665 484 560
f 665 560 794
f 794 560 756
f 794 756 650
f 650 756 873
f 650 873 844
f 844 873 643
f 844 643 691
f 691 643 658
f 691 658 818
f 818 658 666
f 818 666 542
f 542 666 871
f 542 871 808
f 808 871 553
f 808 553 568
f 568 553 739
f 568 739 852
f 852 739 847
f 852 847 599
f 599 847 705
f 599 705 477
f 477 705 580
f 477 580 747
f 747 580 782
f 747 782 471
f 471 782 579
f 471 579 594
f 594 579 704
f 594 704 714
f 714 704 677
f 714 677 860
f 860 677 586
f 860 586 684
f 684 586 802
f 684 802 826
f 826 802 699
f 826 699 646
f 646 699 509
f 646 509 790
f 790 509 501
f 790 501 656
f 656 501 486
f 656 486 528
f 528 486 701
f 528 701 670
f 670 701 597
f 670 597 492
f 492 597 816
f 492 816 633
f 633 816 730
f 633 730 506
f 506 730 485
f 506 485 593
f 593 485 613
f 593 613 723
f 723 613 522
f 723 522 857
f 562 628 830
f 562 830 781
f 578 562 781
f 578 781 667
f 625 578 667
f 625 667 668
f 514 625 668
f 514 668 645
f 679 514 645
f 679 645 869
f 569 680 870
f 569 870 733
f 480 569 733
f 480 733 648
f 636 480 648
f 636 648 827
f 520 637 828
f 520 828 799
f 812 532 603
f 812 603 545
f 765 520 799
f 765 799 800
f 849 812 545
f 849 545 804
f 495 765 800
f 495 800 690
f 494 848 803
f 494 803 856
f 850 495 690
f 850 690 644
f 516 494 856
f 516 856 551
f 813 850 644
f 813 644 797
f 689 516 551
f 689 551 548
f 532 513 874
f 532 874 814
f 712 850 813
f 712 813 876
f 755 495 850
f 755 850 712
f 879 765 495
f 879 495 755
f 837 520 765
f 837 765 879
f 822 637 520
f 822 520 837
f 605 480 636
f 605 636 821
f 694 569 480
f 694 480 605
f 774 680 569
f 774 569 694
f 558 514 679
f 558 679 776
f 550 625 514
f 550 514 558
f 547 578 625
f 547 625 550
f 624 562 578
f 624 578 547
f 663 628 562
f 663 562 624
f 675 655 627
f 675 627 661
f 617 523 654
f 617 654 673
f 672 653 523
f 672 523 617
f 834 629 653
f 834 653 672
f 787 563 629
f 787 629 834
f 707 735 563
f 707 563 787
f 709 539 735
f 709 735 707
f 720 845 539
f 720 539 709
f 530 590 845
f 530 845 720
f 861 490 590
f 861 590 530
f 758 795 489
f 758 489 862
f 566 544 795
f 566 795 758
f 583 689 544
f 583 544 566
f 620 516 689
f 620 689 583
f 507 494 516
f 507 516 620
f 475 848 494
f 475 494 507
f 615 812 849
f 615 849 474
f 513 532 812
f 513 812 615
f 627 655 841
f 627 841 829
f 654 523 773
f 654 773 840
f 523 653 842
f 523 842 773
f 653 629 576
f 653 576 842
f 629 563 536
f 629 536 576
f 563 735 835
f 563 835 536
f 735 539 839
f 735 839 835
f 539 845 805
f 539 805 839
f 845 590 612
f 845 612 805
f 590 490 488
f 590 488 612
f 489 795 809
f 489 809 487
f 795 544 575
f 795 575 809
f 544 689 548
f 544 548 575
f 532 814 798
f 532 798 603
f 889 913 1096
f 889 1096 892
f 904 991 913
f 904 913 889
f 1084 993 990
f 1084 990 903
f 941 986 993
f 941 993 1084
f 898 1029 986
f 898 986 941
f 980 895 1029
f 980 1029 898
f 992 937 895
f 992 895 980
f 952 923 937
f 952 937 992
f 916 908 923
f 916 923 952
f 1008 949 908
f 1008 908 916
f 896 1055 949
f 896 949 1008
f 924 1069 1055
f 924 1055 896
f 987 934 1069
f 987 1069 924
f 956 1020 934
f 956 934 987
f 977 885 1021
f 977 1021 957
f 988 942 885
f 988 885 977
f 978 884 942
f 978 942 988
f 1043 1022 884
f 1043 884 978
f 1075 1016 1022
f 1075 1022 1043
f 1004 1027 1016
f 1004 1016 1075
f 979 1003 1026
f 979 1026 1005
f 880 900 1003
f 880 1003 979
f 1081 1074 900
f 1081 900 880
f 912 1092 1073
f 912 1073 1080
f 948 891 1092
f 948 1092 912
f 938 1065 891
f 938 891 948
f 1067 975 1065
f 1067 1065 938
f 1024 1071 975
f 1024 975 1067
f 950 1078 1072
f 950 1072 1025
f 905 989 1078
f 905 1078 950
f 888 914 989
f 888 989 905
f 892 1096 914
f 892 914 888
f 1034 892 888
f 1034 888 983
f 983 888 905
f 983 905 881
f 881 905 950
f 881 950 1056
f 1056 950 1025
f 1056 1025 926
f 927 1024 1067
f 927 1067 1042
f 1042 1067 938
f 1042 938 976
f 976 938 948
f 976 948 973
f 973 948 912
f 973 912 922
f 922 912 1080
f 922 1080 1082
f 1083 1081 880
f 1083 880 1079
f 1079 880 979
f 1079 979 1013
f 1013 979 1005
f 1013 1005 917
f 918 1004 1075
f 918 1075 920
f 920 1075 1043
f 920 1043 1090
f 1090 1043 978
f 1090 978 901
f 901 978 988
f 901 988 1098
f 1098 988 977
f 1098 977 902
f 902 977 957
f 902 957 1000
f 1001 956 987
f 1001 987 1047
f 1047 987 924
f 1047 924 1046
f 1046 924 896
f 1046 896 932
f 932 896 1008
f 932 1008 994
f 994 1008 916
f 994 916 919
f 919 916 952
f 919 952 966
f 966 952 992
f 966 992 1023
f 1023 992 980
f 1023 980 1030
f 1030 980 898
f 1030 898 955
f 955 898 941
f 955 941 1058
f 1058 941 1084
f 1058 1084 1057
f 1057 1084 903
f 1057 903 882
f 883 904 889
f 883 889 982
f 982 889 892
f 982 892 1034
f 1037 982 1034
f 1037 1034 1044
f 1038 883 982
f 1038 982 1037
f 945 1057 882
f 945 882 1039
f 933 1058 1057
f 933 1057 945
f 1100 955 1058
f 1100 1058 933
f 1101 1030 955
f 1101 955 1100
f 984 1023 1030
f 984 1030 1101
f 1041 966 1023
f 1041 1023 984
f 1097 919 966
f 1097 966 1041
f 985 994 919
f 985 919 1097
f 981 932 994
f 981 994 985
f 935 1046 932
f 935 932 981
f 921 1047 1046
f 921 1046 935
f 1060 1001 1047
f 1060 1047 921
f 910 902 1000
f 910 1000 1059
f 899 1098 902
f 899 902 910
f 911 901 1098
f 911 1098 899
f 930 1090 901
f 930 901 911
f 996 920 1090
f 996 1090 930
f 1018 918 920
f 1018 920 996
f 1066 1013 917
f 1066 917 1017
f 1070 1079 1013
f 1070 1013 1066
f 959 1083 1079
f 959 1079 1070
f 909 922 1082
f 909 1082 958
f 1068 973 922
f 1068 922 909
f 964 976 973
f 964 973 1068
f 963 1042 976
f 963 976 964
f 1014 927 1042
f 1014 1042 963
f 1032 1056 926
f 1032 926 1015
f 907 881 1056
f 907 1056 1032
f 906 983 881
f 906 881 907
f 1044 1034 983
f 1044 983 906
f 974 1093 1064
f 974 1064 928
f 928 1064 1085
f 928 1085 962
f 962 1085 931
f 962 931 1036
f 1036 931 1007
f 1036 1007 1088
f 1089 1006 1053
f 1089 1053 894
f 894 1053 893
f 894 893 1033
f 1033 893 1054
f 1033 1054 1045
f 1045 1054 946
f 1045 946 965
f 965 946 1050
f 965 1050 887
f 886 1051 995
f 886 995 897
f 897 995 1052
f 897 1052 1040
f 1040 1052 1095
f 1040 1095 972
f 971 1094 953
f 971 953 1031
f 1031 953 1019
f 1031 1019 1010
f 1010 1019 954
f 1010 954 1048
f 1048 954 1062
f 1048 1062 999
f 999 1062 1091
f 999 1091 1049
f 1049 1091 939
f 1049 939 1012
f 1011 940 1086
f 1011 1086 944
f 944 1086 1002
f 944 1002 890
f 890 1002 968
f 890 968 951
f 951 968 915
f 951 915 947
f 947 915 967
f 947 967 936
f 936 967 1076
f 936 1076 1009
f 1009 1076 970
f 1009 970 1099
f 1099 970 1028
f 1099 1028 1077
f 1077 1028 969
f 1077 969 943
f 943 969 925
f 943 925 1087
f 1087 925 1061
f 1087 1061 1035
f 1035 1061 998
f 1035 998 961
f 960 997 1063
f 960 1063 929
f 929 1063 1093
f 929 1093 974
f 1093 1044 906
f 1093 906 1064
f 1064 906 907
f 1064 907 1085
f 1085 907 1032
f 1085 1032 931
f 931 1032 1015
f 931 1015 1007
f 1006 1014 963
f 1006 963 1053
f 1053 963 964
f 1053 964 893
f 893 964 1068
f 893 1068 1054
f 1054 1068 909
f 1054 909 946
f 946 909 958
f 946 958 1050
f 1051 959 1070
f 1051 1070 995
f 995 1070 1066
f 995 1066 1052
f 1052 1066 1017
f 1052 1017 1095
f 1094 1018 996
f 1094 996 953
f 953 996 930
f 953 930 1019
f 1019 930 911
f 1019 911 954
f 954 911 899
f 954 899 1062
f 1062 899 910
f 1062 910 1091
f 1091 910 1059
f 1091 1059 939
f 940 1060 921
f 940 921 1086
f 1086 921 935
f 1086 935 1002
f 1002 935 981
f 1002 981 968
f 968 981 985
f 968 985 915
f 915 985 1097
f 915 1097 967
f 967 1097 1041
f 967 1041 1076
f 1076 1041 984
f 1076 984 970
f 970 984 1101
f 970 1101 1028
f 1028 1101 1100
f 1028 1100 969
f 969 1100 933
f 969 933 925
f 925 933 945
f 925 945 1061
f 1061 945 1039
f 1061 1039 998
f 997 1038 1037
f 997 1037 1063
f 1063 1037 1044
f 1063 1044 1093
f 1156 1103 1146
f 1146 1142 1137
f 1137 1111 1156
f 1146 1137 1156
f 1131 1128 1152
f 1152 1139 1122
f 1122 1114 1131
f 1152 1122 1131
f 1105 1121 1104
f 1105 1104 1118
f 1129 1136 1141
f 1129 1141 1151
f 1140 1147 1104
f 1140 1104 1121
f 1129 1109 1125
f 1129 1125 1136
f 1128 1131 1108
f 1137 1124 1111
f 1116 1113 1117
f 1117 1102 1127
f 1127 1130 1126
f 1126 1138 1116
f 1116 1117 1127
f 1127 1126 1116
f 1114 1122 1107
f 1120 1103 1156
f 1133 1143 1150
f 1133 1150 1155
f 1127 1102 1119
f 1127 1119 1157
f 1126 1130 1112
f 1126 1112 1123
f 1117 1113 1115
f 1117 1115 1106
f 1116 1138 1110
f 1116 1110 1132
f 1102 1117 1106
f 1102 1106 1119
f 1145 1135 1147
f 1145 1147 1140
f 1130 1127 1157
f 1130 1157 1112
f 1134 1154 1142
f 1134 1142 1146
f 1132 1115 1113
f 1132 1113 1116
f 1123 1110 1138
f 1123 1138 1126
f 1139 1152 1149
f 1139 1149 1144
f 1151 1141 1153
f 1151 1153 1148