o convex_0
v 0.000556 0.081889 0.006040
v 0.033066 0.100155 0.014704
v 0.033066 0.098916 0.015944
v -0.032872 0.093961 0.015325
v -0.003461 0.099842 0.000156
v 0.033066 0.085295 -0.000155
v 0.032755 0.085295 0.015944
v -0.032872 0.090868 0.000466
v 0.033066 0.099225 -0.000155
v -0.003150 0.084678 0.015634
v -0.003771 0.099842 0.015323
v -0.032562 0.090868 0.015325
v -0.003150 0.084678 0.000156
v -0.032872 0.093961 0.000466
v 0.012322 0.081889 0.010990
v 0.032755 0.084057 0.001085
v 0.033687 0.084676 0.014704
v 0.033687 0.099844 0.001085
v 0.007367 0.081889 0.003252
v 0.004579 0.081889 0.012228
v 0.009534 0.100155 0.000466
v 0.032755 0.084057 0.014704
v -0.018015 0.089629 0.000156
v 0.000245 0.081889 0.009132
v 0.006442 0.100155 0.015323
v 0.033687 0.085606 0.000156
v 0.033687 0.099225 0.015323
v 0.016966 0.099533 -0.000155
v 0.013868 0.081889 0.006658
v 0.033066 0.100155 0.000775
v 0.018512 0.084987 -0.000155
v -0.002225 0.099842 0.015634
v -0.033804 0.091487 0.015015
v 0.000245 0.100155 0.006349
v -0.033804 0.093343 0.000775
v -0.016773 0.097058 0.000156
v 0.026869 0.086845 0.015944
v 0.002102 0.081889 0.004491
v 0.001791 0.081889 0.010990
v -0.006249 0.096128 0.015634
v 0.028732 0.099225 0.015944
v -0.015227 0.087152 0.000156
v -0.032872 0.090868 0.009132
v -0.033804 0.093343 0.015015
v -0.033804 0.091487 0.000775
v 0.016656 0.084367 0.015323
v 0.026869 0.084367 0.000465
v 0.012011 0.081889 0.004491
v 0.009534 0.081889 0.012228
v 0.033687 0.084676 0.001085
f 26 17 50 
f 4 11 14 
f 11 5 14 
f 15 1 19 
f 1 15 20 
f 16 17 22 
f 17 7 22 
f 8 14 23 
f 8 1 24 
f 1 20 24 
f 2 21 25 
f 6 9 26 
f 18 17 26 
f 9 18 26 
f 2 3 27 
f 3 7 27 
f 7 17 27 
f 17 18 27 
f 18 2 27 
f 9 6 28 
f 5 21 28 
f 15 19 29 
f 22 15 29 
f 16 22 29 
f 2 18 30 
f 18 9 30 
f 21 2 30 
f 9 28 30 
f 28 21 30 
f 28 6 31 
f 23 28 31 
f 11 4 32 
f 25 11 32 
f 12 4 33 
f 5 11 34 
f 21 5 34 
f 11 25 34 
f 25 21 34 
f 4 14 35 
f 14 8 35 
f 14 5 36 
f 23 14 36 
f 5 28 36 
f 28 23 36 
f 7 3 37 
f 10 7 37 
f 1 8 38 
f 19 1 38 
f 13 19 38 
f 10 12 39 
f 20 10 39 
f 12 24 39 
f 24 20 39 
f 4 12 40 
f 12 10 40 
f 32 4 40 
f 10 37 40 
f 40 37 41 
f 3 2 41 
f 2 25 41 
f 25 32 41 
f 37 3 41 
f 32 40 41 
f 8 23 42 
f 31 13 42 
f 23 31 42 
f 38 8 42 
f 13 38 42 
f 8 24 43 
f 24 12 43 
f 33 8 43 
f 12 33 43 
f 33 4 44 
f 4 35 44 
f 35 33 44 
f 8 33 45 
f 35 8 45 
f 33 35 45 
f 7 10 46 
f 10 20 46 
f 22 7 46 
f 6 16 47 
f 19 13 47 
f 16 19 47 
f 31 6 47 
f 13 31 47 
f 19 16 48 
f 29 19 48 
f 16 29 48 
f 20 15 49 
f 15 22 49 
f 46 20 49 
f 22 46 49 
f 16 6 50 
f 17 16 50 
f 6 26 50 
o convex_1
v 0.013871 -0.078797 0.007896
v -0.001607 -0.098604 0.006967
v -0.001607 -0.098604 0.009442
v -0.000368 -0.068266 0.009132
v 0.009227 -0.098291 0.013156
v 0.008609 -0.098604 0.002942
v 0.004586 -0.068266 0.003561
v 0.007991 -0.068266 0.012537
v 0.012014 -0.068266 0.005110
v 0.014182 -0.098604 0.006657
v 0.001490 -0.097982 0.012537
v 0.000561 -0.096125 0.004181
v 0.012324 -0.068266 0.010680
v 0.013253 -0.099531 0.010061
v -0.000059 -0.068266 0.006037
v 0.001799 -0.068266 0.011610
v -0.000059 -0.100152 0.010061
v 0.004895 -0.100152 0.003561
v 0.004586 -0.085910 0.013157
v 0.013562 -0.097674 0.010680
v 0.003966 -0.098604 0.002942
v 0.012014 -0.098604 0.004180
v 0.008609 -0.068890 0.003560
v 0.008300 -0.100152 0.012537
v 0.011085 -0.083441 0.012229
v -0.000368 -0.088385 0.010989
v 0.012633 -0.100152 0.006038
v 0.002108 -0.070439 0.004181
v 0.013253 -0.068266 0.006967
v 0.006133 -0.098291 0.013467
v 0.006442 -0.085910 0.002942
v -0.001297 -0.082202 0.007896
v 0.014182 -0.094268 0.009442
v 0.004586 -0.068266 0.012537
v -0.001297 -0.098604 0.006037
v 0.010776 -0.080963 0.003872
v 0.013253 -0.069817 0.009442
v 0.013562 -0.083750 0.006038
v 0.012633 -0.098291 0.011610
v 0.000870 -0.100152 0.005110
v 0.007680 -0.084059 0.013156
v 0.010465 -0.068266 0.011918
v 0.003037 -0.100152 0.012228
v 0.001799 -0.081272 0.012228
v 0.003037 -0.090245 0.003251
v -0.000059 -0.082820 0.005110
v -0.000059 -0.068890 0.010061
v 0.013253 -0.098291 0.005109
v -0.000368 -0.098291 0.011300
v 0.009536 -0.084362 0.012848
v -0.001297 -0.086840 0.009442
v 0.012943 -0.084671 0.010990
v 0.001799 -0.098604 0.003561
v 0.010156 -0.100152 0.004180
v 0.009847 -0.093959 0.003252
v -0.000677 -0.072296 0.006967
v 0.000561 -0.083750 0.011610
v 0.011085 -0.098291 0.012537
v 0.011394 -0.100152 0.011299
v 0.001181 -0.068581 0.004800
v 0.003657 -0.098604 0.013157
v 0.003346 -0.083129 0.012847
v 0.010465 -0.068266 0.004180
v 0.012014 -0.083129 0.004491
f 113 59 114 
f 57 54 58 
f 57 58 59 
f 59 58 63 
f 54 57 65 
f 58 54 66 
f 53 52 67 
f 64 60 70 
f 56 68 71 
f 67 68 74 
f 60 64 77 
f 74 68 77 
f 59 63 79 
f 74 55 80 
f 56 71 81 
f 71 57 81 
f 73 56 81 
f 57 73 81 
f 52 53 82 
f 60 51 83 
f 70 60 83 
f 58 66 84 
f 51 79 87 
f 79 63 87 
f 83 51 87 
f 51 60 88 
f 79 51 88 
f 59 79 88 
f 64 70 89 
f 67 52 90 
f 68 67 90 
f 52 85 90 
f 80 55 91 
f 69 80 91 
f 58 84 91 
f 84 69 91 
f 63 58 92 
f 75 63 92 
f 67 74 93 
f 57 71 95 
f 78 57 95 
f 62 85 96 
f 85 65 96 
f 66 54 97 
f 60 77 98 
f 77 72 98 
f 88 60 98 
f 59 88 98 
f 53 67 99 
f 76 53 99 
f 93 61 99 
f 67 93 99 
f 91 55 100 
f 58 91 100 
f 92 58 100 
f 75 92 100 
f 53 76 101 
f 82 53 101 
f 54 82 101 
f 97 54 101 
f 76 97 101 
f 63 75 102 
f 70 83 102 
f 87 63 102 
f 83 87 102 
f 89 70 102 
f 75 89 102 
f 71 68 103 
f 62 78 103 
f 85 62 103 
f 68 90 103 
f 90 85 103 
f 95 71 103 
f 78 95 103 
f 68 56 104 
f 56 72 104 
f 77 68 104 
f 72 77 104 
f 72 56 105 
f 56 73 105 
f 86 72 105 
f 73 86 105 
f 54 65 106 
f 52 82 106 
f 82 54 106 
f 65 85 106 
f 85 52 106 
f 61 94 107 
f 94 66 107 
f 66 97 107 
f 97 76 107 
f 76 99 107 
f 99 61 107 
f 55 74 108 
f 89 75 108 
f 100 55 108 
f 75 100 108 
f 77 64 109 
f 74 77 109 
f 64 89 109 
f 108 74 109 
f 89 108 109 
f 65 57 110 
f 57 78 110 
f 78 62 110 
f 96 65 110 
f 62 96 110 
f 80 69 111 
f 74 80 111 
f 61 93 111 
f 93 74 111 
f 84 66 112 
f 69 84 112 
f 94 61 112 
f 66 94 112 
f 61 111 112 
f 111 69 112 
f 57 59 113 
f 73 57 113 
f 86 73 113 
f 86 113 114 
f 72 86 114 
f 59 98 114 
f 98 72 114 
o convex_2
v 0.013872 -0.012541 0.008204
v -0.000679 -0.057107 0.007895
v -0.000679 -0.057107 0.008204
v 0.001489 0.020588 0.006967
v 0.008299 -0.068266 0.003562
v 0.008299 -0.067640 0.012537
v 0.004586 0.020588 0.011300
v 0.009847 0.020275 0.004799
v 0.003038 -0.022456 0.003561
v 0.012942 -0.066092 0.006038
v 0.010465 0.020588 0.010680
v 0.001798 -0.068266 0.011609
v -0.000059 -0.013167 0.010061
v 0.000870 -0.068258 0.005109
v 0.012324 -0.068266 0.010680
v 0.004895 -0.020595 0.012848
v 0.011396 -0.021525 0.011919
v 0.010776 -0.016568 0.003872
v -0.000368 -0.020908 0.006038
v 0.004895 0.020588 0.004490
v 0.012014 0.020588 0.006657
v 0.007990 -0.013158 0.003251
v 0.012942 -0.023378 0.005109
v 0.008299 -0.020290 0.012848
v 0.004275 -0.067023 0.003561
v 0.013872 -0.021525 0.009442
v 0.001180 -0.023074 0.011609
v 0.000252 -0.068258 0.010371
v 0.002109 0.019658 0.010061
v 0.001489 -0.012854 0.004490
v 0.011085 -0.068266 0.004490
v 0.011705 0.019962 0.009752
v 0.013562 -0.060212 0.007895
v -0.000679 -0.015020 0.008204
v 0.004586 -0.068266 0.012537
v 0.013872 -0.019664 0.006657
v 0.007060 0.019344 0.011609
v -0.000368 -0.067023 0.006657
v 0.004895 -0.015333 0.003251
v 0.012633 -0.016881 0.010990
v 0.002418 -0.022456 0.012228
v -0.000368 -0.029249 0.010061
v 0.008299 -0.040399 0.003251
v 0.013253 -0.068266 0.009133
v 0.002728 0.020588 0.005419
v 0.010465 -0.068266 0.011919
v 0.001489 0.020588 0.008823
v 0.001180 -0.035128 0.004490
v 0.009847 -0.020908 0.012537
v 0.012633 -0.012854 0.005109
v 0.010156 -0.026770 0.003562
v 0.009228 0.019658 0.011300
v 0.006751 -0.044113 0.012848
v 0.002418 -0.068266 0.004181
v 0.006134 -0.052471 0.003251
v 0.008608 0.020588 0.004490
v 0.002418 -0.011610 0.011918
v -0.000059 -0.012236 0.006038
v 0.012014 0.020588 0.009133
v -0.000368 -0.068258 0.009132
v 0.012633 -0.034824 0.010990
v -0.000679 -0.021525 0.006657
v 0.013872 -0.029249 0.006657
v 0.011085 -0.013471 0.011919
f 166 163 178 
f 118 121 125 
f 126 119 129 
f 118 125 134 
f 134 125 135 
f 122 132 136 
f 126 141 142 
f 127 141 143 
f 134 123 144 
f 129 119 145 
f 137 124 145 
f 116 117 148 
f 126 129 149 
f 135 115 150 
f 115 140 150 
f 121 130 151 
f 130 138 151 
f 133 128 152 
f 123 134 153 
f 134 136 153 
f 139 123 153 
f 146 125 154 
f 140 146 154 
f 141 126 155 
f 126 149 155 
f 149 130 155 
f 141 127 156 
f 142 141 156 
f 148 117 156 
f 127 148 156 
f 153 136 157 
f 140 129 158 
f 145 124 158 
f 129 145 158 
f 124 147 158 
f 147 140 158 
f 118 134 159 
f 134 144 159 
f 120 149 160 
f 149 129 160 
f 121 118 161 
f 143 121 161 
f 127 143 161 
f 148 127 161 
f 118 148 161 
f 128 133 162 
f 144 123 162 
f 133 144 162 
f 138 120 163 
f 160 131 163 
f 120 160 163 
f 132 122 164 
f 122 135 164 
f 137 132 164 
f 135 150 164 
f 150 137 164 
f 136 132 165 
f 132 137 165 
f 145 119 165 
f 137 145 165 
f 157 136 165 
f 119 157 165 
f 125 121 166 
f 121 151 166 
f 151 138 166 
f 138 163 166 
f 120 138 167 
f 138 130 167 
f 149 120 167 
f 130 149 167 
f 119 126 168 
f 123 139 168 
f 139 119 168 
f 128 162 168 
f 162 123 168 
f 119 139 169 
f 139 153 169 
f 157 119 169 
f 153 157 169 
f 135 122 170 
f 134 135 170 
f 122 136 170 
f 136 134 170 
f 130 121 171 
f 121 143 171 
f 143 141 171 
f 155 130 171 
f 141 155 171 
f 144 133 172 
f 148 118 172 
f 118 159 172 
f 159 144 172 
f 115 135 173 
f 135 125 173 
f 140 115 173 
f 125 146 173 
f 146 140 173 
f 117 116 174 
f 126 142 174 
f 116 152 174 
f 152 128 174 
f 156 117 174 
f 142 156 174 
f 168 126 174 
f 128 168 174 
f 129 140 175 
f 154 131 175 
f 140 154 175 
f 160 129 175 
f 131 160 175 
f 116 148 176 
f 152 116 176 
f 133 152 176 
f 172 133 176 
f 148 172 176 
f 124 137 177 
f 147 124 177 
f 140 147 177 
f 137 150 177 
f 150 140 177 
f 154 125 178 
f 131 154 178 
f 163 131 178 
f 125 166 178 
o convex_3
v 0.012015 0.051858 0.009132
v 0.001489 0.020588 0.006966
v 0.001489 0.020588 0.008823
v 0.012015 0.020588 0.009132
v 0.008608 0.051858 0.004489
v 0.004276 0.051858 0.010990
v 0.009538 0.020588 0.004800
v 0.003037 0.051858 0.005419
v 0.008919 0.020588 0.011299
v 0.004895 0.020588 0.004489
v 0.012015 0.051858 0.006657
v 0.001799 0.051858 0.008823
v 0.003656 0.020588 0.010990
v 0.008608 0.051858 0.011299
v 0.012015 0.020588 0.006657
v 0.005205 0.051858 0.004489
v 0.010466 0.028950 0.010681
v 0.004586 0.024613 0.011299
v 0.001799 0.051858 0.006966
v 0.010775 0.051858 0.005418
v 0.002728 0.020588 0.005419
v 0.002418 0.034215 0.010061
v 0.008608 0.020588 0.004489
v 0.010775 0.051858 0.010371
v 0.011395 0.020588 0.010061
v 0.005205 0.051858 0.011299
v 0.003037 0.051858 0.010370
v 0.010775 0.020588 0.005418
v 0.001799 0.025235 0.006348
v 0.003967 0.028329 0.004800
v 0.003037 0.020588 0.010680
v 0.001489 0.031117 0.008204
f 190 197 210 
f 181 180 182 
f 179 183 184 
f 182 180 185 
f 184 183 186 
f 181 182 187 
f 185 180 188 
f 179 182 189 
f 183 179 189 
f 184 186 190 
f 181 187 191 
f 179 184 192 
f 182 185 193 
f 189 182 193 
f 186 183 194 
f 183 188 194 
f 192 187 195 
f 191 187 196 
f 184 191 196 
f 187 192 196 
f 190 186 197 
f 185 183 198 
f 183 189 198 
f 189 193 198 
f 188 180 199 
f 190 181 200 
f 183 185 201 
f 185 188 201 
f 188 183 201 
f 179 192 202 
f 192 195 202 
f 202 195 203 
f 182 179 203 
f 187 182 203 
f 195 187 203 
f 179 202 203 
f 192 184 204 
f 184 196 204 
f 196 192 204 
f 184 190 205 
f 190 200 205 
f 193 185 206 
f 185 198 206 
f 198 193 206 
f 180 197 207 
f 197 186 207 
f 199 180 207 
f 186 199 207 
f 186 194 208 
f 194 188 208 
f 199 186 208 
f 188 199 208 
f 181 191 209 
f 191 184 209 
f 200 181 209 
f 184 205 209 
f 205 200 209 
f 180 181 210 
f 181 190 210 
f 197 180 210 
o convex_4
v 0.013253 0.078173 0.008203
v 0.000870 0.076929 0.007586
v 0.001490 0.057431 0.007586
v 0.009228 0.081889 0.003870
v 0.005205 0.081889 0.011920
v 0.012015 0.051858 0.009132
v 0.005205 0.051858 0.004489
v 0.004276 0.051858 0.010991
v 0.011395 0.053098 0.005728
v 0.002418 0.081889 0.004799
v 0.010156 0.081889 0.011610
v 0.001181 0.081889 0.009752
v 0.008608 0.051858 0.011300
v 0.012943 0.081889 0.006038
v 0.002109 0.051858 0.006348
v 0.008608 0.051858 0.004489
v 0.012015 0.081889 0.010681
v 0.001800 0.053098 0.009133
v 0.004894 0.080339 0.003870
v 0.012015 0.051858 0.006657
v 0.010467 0.052169 0.010681
v 0.011086 0.081265 0.004490
v 0.002109 0.081265 0.010680
v 0.000870 0.081889 0.006657
v 0.003347 0.053098 0.005109
v 0.008608 0.078482 0.011920
v 0.005205 0.051858 0.011300
v 0.007062 0.073837 0.003870
v 0.013253 0.081889 0.008823
v 0.003037 0.051858 0.010370
v 0.003966 0.080339 0.011609
v 0.009847 0.052786 0.004799
v 0.006753 0.075383 0.011920
v 0.000870 0.079102 0.008823
v 0.001800 0.078787 0.005418
v 0.013253 0.081574 0.006657
v 0.012324 0.054336 0.007586
v 0.012633 0.081265 0.010061
v 0.011395 0.053098 0.010061
f 248 227 249 
f 217 216 218 
f 215 214 220 
f 214 215 221 
f 215 220 222 
f 218 216 223 
f 214 221 224 
f 217 218 225 
f 216 217 226 
f 224 221 227 
f 213 225 228 
f 220 214 229 
f 219 224 230 
f 216 226 230 
f 223 216 231 
f 221 223 231 
f 227 221 231 
f 224 219 232 
f 214 224 232 
f 215 222 233 
f 213 212 234 
f 222 220 234 
f 225 213 234 
f 217 225 235 
f 220 229 235 
f 229 217 235 
f 221 215 236 
f 223 221 236 
f 218 223 237 
f 214 226 238 
f 226 217 238 
f 229 214 238 
f 217 229 238 
f 216 211 239 
f 224 227 239 
f 225 218 240 
f 222 228 240 
f 228 225 240 
f 233 222 240 
f 233 240 241 
f 215 233 241 
f 237 215 241 
f 218 237 241 
f 240 218 241 
f 226 214 242 
f 219 230 242 
f 230 226 242 
f 232 219 242 
f 214 232 242 
f 236 215 243 
f 223 236 243 
f 237 223 243 
f 215 237 243 
f 212 213 244 
f 213 228 244 
f 228 222 244 
f 234 212 244 
f 222 234 244 
f 234 220 245 
f 225 234 245 
f 235 225 245 
f 220 235 245 
f 230 224 246 
f 239 211 246 
f 224 239 246 
f 211 216 247 
f 216 230 247 
f 246 211 247 
f 230 246 247 
f 216 239 248 
f 239 227 248 
f 231 216 249 
f 227 231 249 
f 216 248 249 
