o convex_0
v 0.002129 -0.092372 0.015842
v -0.020503 -0.058223 0.010908
v -0.020503 -0.058223 0.011314
v 0.001307 0.020353 0.012138
v -0.002810 -0.087853 0.001032
v -0.010626 0.017897 0.003090
v -0.011037 0.016657 0.019134
v -0.013095 -0.096891 0.019134
v -0.014740 -0.096903 0.003912
v -0.001163 -0.041351 0.020780
v 0.002951 -0.033136 0.004322
v -0.015153 0.020770 0.010496
v 0.005423 -0.062337 0.011728
v -0.017622 -0.044654 0.003910
v -0.017622 -0.044237 0.018312
v -0.008568 -0.087448 0.021604
v 0.000896 -0.097726 0.005968
v -0.003221 0.019948 0.003500
v -0.008568 -0.042579 0.000206
v -0.001163 0.020353 0.017488
v -0.018445 -0.090321 0.014196
v 0.002951 -0.036427 0.017900
v -0.007745 -0.039694 0.022016
v -0.001574 -0.097320 0.018722
v -0.012270 -0.087030 0.001030
v -0.002810 -0.041757 0.000618
v 0.005009 -0.026960 0.011316
v -0.015153 0.015429 0.015020
v 0.002951 -0.070147 0.004322
v -0.016387 -0.098966 0.008438
v -0.019678 -0.030262 0.011314
v 0.000896 0.015834 0.006792
v -0.014740 0.016251 0.006380
v -0.012684 -0.046693 0.021192
v -0.003221 0.017074 0.019134
v -0.002398 -0.088270 0.020780
v -0.017622 -0.089904 0.005968
v -0.011859 -0.041757 0.000620
v -0.014740 -0.089081 0.019546
v -0.006512 -0.098954 0.003088
v -0.005279 -0.100206 0.015020
v 0.002951 -0.063970 0.017900
v 0.003365 -0.089904 0.009262
v -0.009390 0.021605 0.017488
v -0.018033 -0.069741 0.004322
v -0.007334 0.021605 0.004322
v 0.002540 -0.010922 0.016254
v -0.006101 0.017074 0.002676
v 0.001307 -0.098954 0.012550
v -0.018033 -0.068918 0.017488
v -0.017622 -0.034793 0.004322
v -0.015564 -0.098966 0.015430
v -0.017209 -0.022023 0.017076
v -0.006923 -0.088676 0.000618
v -0.000751 0.014189 0.004322
v -0.006923 -0.097726 0.019958
v -0.013095 0.019125 0.017488
v 0.005423 -0.060691 0.010496
v -0.018445 -0.090321 0.008026
v -0.006512 0.017897 0.019544
v -0.006101 -0.057806 0.022016
v -0.000340 0.021605 0.009260
v -0.004868 -0.100206 0.007202
v 0.002951 -0.058223 0.003910
f 58 29 64 
f 3 2 21 
f 22 13 27 
f 17 5 29 
f 2 3 31 
f 3 15 31 
f 28 12 31 
f 4 27 32 
f 27 11 32 
f 12 6 33 
f 31 12 33 
f 7 15 34 
f 23 7 34 
f 16 23 34 
f 10 22 35 
f 22 20 35 
f 23 10 35 
f 24 1 36 
f 9 30 37 
f 6 19 38 
f 25 14 38 
f 19 25 38 
f 8 16 39 
f 34 15 39 
f 16 34 39 
f 5 17 40 
f 9 25 40 
f 30 9 40 
f 1 13 42 
f 22 10 42 
f 13 22 42 
f 36 1 42 
f 10 36 42 
f 13 1 43 
f 17 29 43 
f 2 14 45 
f 25 9 45 
f 14 25 45 
f 9 37 45 
f 6 12 46 
f 18 6 46 
f 12 44 46 
f 4 20 47 
f 20 22 47 
f 27 4 47 
f 22 27 47 
f 6 18 48 
f 19 6 48 
f 18 26 48 
f 26 19 48 
f 1 24 49 
f 24 41 49 
f 43 1 49 
f 17 43 49 
f 15 3 50 
f 3 21 50 
f 21 39 50 
f 39 15 50 
f 14 2 51 
f 2 31 51 
f 33 6 51 
f 31 33 51 
f 6 38 51 
f 38 14 51 
f 21 30 52 
f 8 39 52 
f 39 21 52 
f 30 41 52 
f 31 15 53 
f 28 31 53 
f 25 19 54 
f 26 5 54 
f 19 26 54 
f 5 40 54 
f 40 25 54 
f 11 26 55 
f 26 18 55 
f 18 32 55 
f 32 11 55 
f 16 8 56 
f 36 16 56 
f 24 36 56 
f 41 24 56 
f 8 52 56 
f 52 41 56 
f 15 7 57 
f 12 28 57 
f 44 12 57 
f 7 44 57 
f 53 15 57 
f 28 53 57 
f 11 27 58 
f 27 13 58 
f 13 43 58 
f 43 29 58 
f 21 2 59 
f 30 21 59 
f 37 30 59 
f 2 45 59 
f 45 37 59 
f 7 23 60 
f 35 20 60 
f 23 35 60 
f 20 44 60 
f 44 7 60 
f 10 23 61 
f 23 16 61 
f 36 10 61 
f 16 36 61 
f 20 4 62 
f 4 32 62 
f 32 18 62 
f 44 20 62 
f 18 46 62 
f 46 44 62 
f 40 17 63 
f 30 40 63 
f 41 30 63 
f 17 49 63 
f 49 41 63 
f 5 26 64 
f 26 11 64 
f 29 5 64 
f 11 58 64 
o convex_1
v -0.007335 0.021605 0.004321
v -0.006101 0.059877 0.017901
v -0.004042 0.059877 0.017488
v -0.006513 0.021605 0.017901
v -0.013094 0.059877 0.009259
v -0.000339 0.059877 0.008437
v -0.000339 0.021605 0.012962
v -0.013094 0.021605 0.013784
v -0.006923 0.059877 0.004321
v -0.010625 0.059877 0.016666
v -0.002809 0.021605 0.005557
v -0.011861 0.021605 0.006379
v -0.000339 0.059877 0.013786
v -0.002809 0.021605 0.016665
v -0.010625 0.059877 0.005556
v -0.004042 0.059877 0.004733
v -0.009391 0.021605 0.017488
v -0.013094 0.057404 0.013372
v -0.013506 0.021605 0.010084
v -0.000339 0.021605 0.009261
v -0.011861 0.021605 0.015843
v -0.001574 0.043000 0.015842
v -0.001574 0.045472 0.006380
v 0.000073 0.037661 0.011728
v -0.009391 0.021605 0.004734
v -0.009391 0.059877 0.017488
v -0.004044 0.021605 0.004734
v -0.013094 0.044648 0.008438
v -0.012271 0.059877 0.015018
v -0.013506 0.050406 0.011316
v 0.000073 0.059877 0.010084
v -0.001986 0.059877 0.016254
v -0.004044 0.024898 0.017488
v -0.001163 0.024486 0.007203
v -0.001986 0.059877 0.005968
v -0.001163 0.024486 0.015019
v -0.012271 0.055759 0.007204
v -0.009391 0.047113 0.004734
v -0.007335 0.059877 0.017901
v -0.006101 0.024898 0.004321
v -0.013506 0.021605 0.012139
v -0.011449 0.038890 0.016253
v -0.013094 0.021605 0.008438
v -0.000339 0.037245 0.013786
v -0.000339 0.038066 0.008437
v -0.011449 0.035189 0.005968
v 0.000073 0.032308 0.010906
v 0.000073 0.059877 0.012139
f 108 88 112 
f 66 67 69 
f 69 67 70 
f 68 65 71 
f 65 68 72 
f 69 70 73 
f 66 69 74 
f 71 65 75 
f 65 72 76 
f 70 67 77 
f 68 71 78 
f 69 73 79 
f 73 70 80 
f 72 68 81 
f 76 72 83 
f 71 75 84 
f 72 81 85 
f 65 76 89 
f 66 74 90 
f 75 65 91 
f 74 69 93 
f 69 82 93 
f 82 72 93 
f 72 85 93 
f 82 69 94 
f 69 92 94 
f 92 83 94 
f 70 77 95 
f 77 67 96 
f 86 77 96 
f 78 86 96 
f 67 66 97 
f 66 68 97 
f 68 78 97 
f 96 67 97 
f 78 96 97 
f 84 75 98 
f 75 87 98 
f 80 70 99 
f 70 87 99 
f 87 75 99 
f 75 91 99 
f 91 80 99 
f 78 71 100 
f 86 78 100 
f 69 79 101 
f 92 69 101 
f 76 92 101 
f 73 65 102 
f 79 73 102 
f 65 89 102 
f 68 66 103 
f 81 68 103 
f 66 90 103 
f 90 81 103 
f 65 73 104 
f 73 80 104 
f 91 65 104 
f 80 91 104 
f 72 82 105 
f 83 72 105 
f 82 94 105 
f 94 83 105 
f 85 81 106 
f 90 74 106 
f 81 90 106 
f 74 93 106 
f 93 85 106 
f 76 83 107 
f 92 76 107 
f 83 92 107 
f 77 86 108 
f 71 88 108 
f 100 71 108 
f 86 100 108 
f 87 70 109 
f 70 95 109 
f 84 98 109 
f 98 87 109 
f 89 76 110 
f 101 79 110 
f 76 101 110 
f 79 102 110 
f 102 89 110 
f 71 84 111 
f 88 71 111 
f 95 88 111 
f 109 95 111 
f 84 109 111 
f 95 77 112 
f 88 95 112 
f 77 108 112 
o convex_2
v -0.041902 0.092798 0.019545
v -0.041490 0.088273 0.002265
v -0.041490 0.093620 0.002265
v -0.022561 0.087450 0.016666
v -0.022561 0.096913 0.008848
v -0.041490 0.082100 0.013372
v -0.022561 0.087862 0.005145
v -0.034492 0.099380 0.014607
v -0.041490 0.099793 0.008438
v -0.031614 0.082100 0.008438
v -0.022561 0.094033 0.016666
v -0.031614 0.095678 0.003090
v -0.031614 0.087450 0.019545
v -0.022561 0.084568 0.013784
v -0.031614 0.093208 0.019959
v -0.031614 0.088273 0.002265
v -0.041902 0.083747 0.005970
v -0.041902 0.098146 0.016252
v -0.041490 0.087450 0.019545
v -0.032027 0.082925 0.015842
v -0.031614 0.099793 0.008850
v -0.031614 0.098558 0.016252
v -0.032027 0.085393 0.003500
v -0.022561 0.093620 0.005145
v -0.022561 0.084568 0.008438
v -0.022561 0.096913 0.013374
v -0.041902 0.096088 0.003912
v -0.031614 0.098558 0.005970
v -0.041490 0.096088 0.018722
v -0.041902 0.083747 0.016252
v -0.041490 0.082925 0.006380
v -0.031614 0.099793 0.013372
v -0.031614 0.093620 0.002265
v -0.031614 0.082100 0.013372
v -0.041490 0.099793 0.013372
v -0.031614 0.096088 0.018722
v -0.041079 0.098558 0.005558
v -0.031614 0.085805 0.018722
v -0.031614 0.082925 0.006380
v -0.041490 0.085393 0.003500
v -0.041490 0.088685 0.019959
v -0.041490 0.082100 0.008850
v -0.031614 0.088685 0.019959
v -0.041490 0.093208 0.019959
v -0.041490 0.085805 0.018722
v -0.041490 0.095678 0.003090
v -0.041490 0.098558 0.016252
f 147 130 159 
f 117 116 119 
f 116 117 123 
f 119 116 126 
f 116 123 127 
f 114 115 128 
f 129 113 130 
f 114 128 135 
f 128 119 135 
f 117 119 136 
f 119 128 136 
f 119 126 137 
f 126 122 137 
f 135 119 137 
f 123 117 138 
f 117 133 138 
f 134 123 138 
f 115 114 139 
f 114 129 139 
f 130 121 139 
f 129 130 139 
f 133 117 140 
f 117 136 140 
f 136 124 140 
f 130 113 141 
f 113 129 142 
f 129 118 142 
f 131 113 142 
f 118 132 142 
f 133 121 144 
f 120 134 144 
f 138 133 144 
f 134 138 144 
f 115 124 145 
f 128 115 145 
f 124 136 145 
f 136 128 145 
f 118 122 146 
f 122 126 146 
f 132 118 146 
f 126 132 146 
f 121 130 147 
f 120 144 147 
f 144 121 147 
f 127 123 148 
f 123 134 148 
f 141 127 148 
f 134 141 148 
f 121 133 149 
f 139 121 149 
f 133 140 149 
f 140 124 149 
f 116 125 150 
f 126 116 150 
f 125 131 150 
f 132 126 150 
f 137 122 151 
f 135 137 151 
f 122 143 151 
f 143 135 151 
f 129 114 152 
f 114 135 152 
f 143 129 152 
f 135 143 152 
f 113 131 153 
f 131 125 153 
f 122 118 154 
f 118 129 154 
f 143 122 154 
f 129 143 154 
f 125 116 155 
f 116 127 155 
f 127 153 155 
f 153 125 155 
f 141 113 156 
f 127 141 156 
f 113 153 156 
f 153 127 156 
f 131 142 157 
f 142 132 157 
f 150 131 157 
f 132 150 157 
f 124 115 158 
f 115 139 158 
f 149 124 158 
f 139 149 158 
f 134 120 159 
f 130 141 159 
f 141 134 159 
f 120 147 159 
o convex_3
v 0.020649 0.091150 0.018722
v 0.022293 0.082101 0.002265
v 0.022293 0.082924 0.002265
v 0.009951 0.083747 0.003912
v 0.009951 0.096088 0.003912
v 0.009951 0.083747 0.018310
v 0.032583 0.081689 0.019959
v 0.030525 0.083745 0.002265
v 0.009951 0.096088 0.017900
v 0.023529 0.081279 0.019959
v 0.032583 0.081277 0.002265
v 0.024351 0.089094 0.003090
v 0.014065 0.095265 0.006380
v 0.023529 0.081279 0.002265
v 0.024351 0.089094 0.018722
v 0.012421 0.095676 0.018310
v 0.015713 0.094442 0.012962
v 0.032583 0.081277 0.019959
v 0.011185 0.096501 0.012550
v 0.009951 0.094442 0.018310
v 0.031347 0.082922 0.019959
v 0.013655 0.095265 0.003912
v 0.015301 0.094442 0.018310
f 176 178 182 
f 162 161 163 
f 162 163 164 
f 164 163 165 
f 161 162 167 
f 162 164 167 
f 164 165 168 
f 165 163 169 
f 161 167 170 
f 167 166 170 
f 167 164 171 
f 163 161 173 
f 169 163 173 
f 161 170 173 
f 170 169 173 
f 167 171 174 
f 171 172 176 
f 174 171 176 
f 166 169 177 
f 170 166 177 
f 169 170 177 
f 164 168 178 
f 168 175 178 
f 176 172 178 
f 168 165 179 
f 165 169 179 
f 175 168 179 
f 169 175 179 
f 166 167 180 
f 169 166 180 
f 174 160 180 
f 167 174 180 
f 160 175 180 
f 175 169 180 
f 171 164 181 
f 172 171 181 
f 164 178 181 
f 178 172 181 
f 160 174 182 
f 175 160 182 
f 174 176 182 
f 178 175 182 
o convex_4
v -0.013095 0.059877 0.009261
v 0.003365 0.078807 0.015429
v 0.003365 0.078807 0.006793
v -0.016388 0.078807 0.014607
v -0.002397 0.060703 0.019134
v -0.013505 0.078807 0.001854
v -0.000339 0.060703 0.004322
v -0.013505 0.077980 0.020370
v -0.012681 0.060703 0.017898
v 0.002130 0.060703 0.013785
v -0.014329 0.061114 0.006381
v 0.001718 0.078807 0.019134
v -0.001163 0.078392 0.002265
v -0.007745 0.060703 0.002678
v -0.015152 0.061526 0.014195
v -0.016388 0.077980 0.007616
v -0.006101 0.065230 0.020370
v 0.001718 0.060292 0.008437
v -0.004866 0.067287 0.001854
v 0.002130 0.078807 0.003499
v -0.004044 0.059877 0.017487
v -0.009802 0.061114 0.019544
v 0.000894 0.064403 0.017900
v -0.011448 0.061114 0.003501
v -0.004044 0.059877 0.004736
v -0.002397 0.078807 0.019957
v -0.001575 0.067698 0.002265
v -0.001575 0.066875 0.019957
v 0.002130 0.065230 0.006380
v -0.014329 0.067698 0.017898
v -0.015562 0.064818 0.008850
v -0.014329 0.068109 0.004324
v 0.002542 0.064818 0.008850
v -0.012271 0.078807 0.020370
v -0.003632 0.061114 0.002678
v -0.012681 0.074691 0.001854
v -0.009392 0.059877 0.017487
v -0.014740 0.060292 0.013784
v 0.002130 0.066464 0.016252
v -0.011859 0.060292 0.004324
v -0.003632 0.075512 0.001854
v 0.000072 0.060292 0.017075
v 0.000894 0.066875 0.003911
v -0.003632 0.068521 0.020370
v -0.015152 0.061526 0.008027
v 0.000072 0.059877 0.012138
v -0.000339 0.073042 0.002265
v -0.006101 0.061114 0.019955
v -0.006921 0.066053 0.001854
v -0.011036 0.063992 0.002678
v -0.013095 0.061937 0.004324
f 218 232 233 
f 184 185 186 
f 186 185 188 
f 184 186 194 
f 186 188 198 
f 188 185 202 
f 195 188 202 
f 190 191 204 
f 199 190 204 
f 189 200 207 
f 203 183 207 
f 194 186 208 
f 187 205 210 
f 205 194 210 
f 200 189 211 
f 202 185 211 
f 190 186 212 
f 191 190 212 
f 186 197 212 
f 197 191 212 
f 197 186 213 
f 186 198 213 
f 198 188 214 
f 185 184 215 
f 184 192 215 
f 192 200 215 
f 211 185 215 
f 200 211 215 
f 186 190 216 
f 190 199 216 
f 208 186 216 
f 189 207 217 
f 207 196 217 
f 209 189 217 
f 201 209 217 
f 188 201 218 
f 183 203 219 
f 204 191 219 
f 193 183 220 
f 191 197 220 
f 183 219 220 
f 219 191 220 
f 192 184 221 
f 184 194 221 
f 205 192 221 
f 194 205 221 
f 183 193 222 
f 206 196 222 
f 196 207 222 
f 207 183 222 
f 188 195 223 
f 201 188 223 
f 187 203 224 
f 192 205 224 
f 205 187 224 
f 189 209 225 
f 211 189 225 
f 202 211 225 
f 194 208 226 
f 199 210 226 
f 210 194 226 
f 216 199 226 
f 208 216 226 
f 197 213 227 
f 213 198 227 
f 198 214 227 
f 214 193 227 
f 193 220 227 
f 220 197 227 
f 200 192 228 
f 207 200 228 
f 203 207 228 
f 192 224 228 
f 224 203 228 
f 195 202 229 
f 209 201 229 
f 223 195 229 
f 201 223 229 
f 225 209 229 
f 202 225 229 
f 203 187 230 
f 199 204 230 
f 187 210 230 
f 210 199 230 
f 219 203 230 
f 204 219 230 
f 217 196 231 
f 201 217 231 
f 218 201 231 
f 218 231 232 
f 196 206 232 
f 231 196 232 
f 232 206 233 
f 214 188 233 
f 193 214 233 
f 188 218 233 
f 222 193 233 
f 206 222 233 
o convex_5
v -0.015152 0.078807 0.004736
v -0.006099 0.100206 0.013785
v -0.006099 0.100206 0.008027
v 0.009950 0.083335 0.013785
v -0.018032 0.085394 0.019955
v 0.009950 0.096500 0.003911
v -0.018857 0.096913 0.002678
v 0.009950 0.096500 0.017900
v -0.002808 0.078807 0.019957
v -0.001573 0.078807 0.002265
v -0.016384 0.099383 0.019544
v -0.022561 0.084571 0.013784
v -0.013507 0.078807 0.020370
v 0.009950 0.083746 0.003911
v -0.022561 0.095677 0.015429
v -0.022561 0.087449 0.005147
v -0.016384 0.098968 0.002267
v -0.013918 0.079221 0.001854
v 0.002538 0.078807 0.018311
v 0.009950 0.083746 0.018311
v -0.022147 0.097321 0.008027
v 0.003773 0.078807 0.007202
v -0.016384 0.100206 0.007204
v 0.005011 0.098557 0.008027
v -0.001573 0.099383 0.003911
v -0.001987 0.099383 0.018311
v -0.022561 0.087449 0.017075
v -0.015563 0.096088 0.019955
v -0.016384 0.078807 0.015018
v -0.022561 0.084571 0.008027
v -0.018032 0.099791 0.016664
v 0.009950 0.093620 0.018311
v -0.017208 0.084571 0.001854
v -0.018443 0.097321 0.019544
v -0.008979 0.082925 0.001854
v -0.022561 0.094033 0.005147
v -0.001163 0.099791 0.013785
v -0.018857 0.099383 0.004736
v 0.006656 0.098147 0.013785
v 0.003773 0.078807 0.015020
v -0.015563 0.100206 0.015841
v 0.002128 0.078807 0.003499
v -0.016384 0.078807 0.007204
v -0.013093 0.099383 0.019544
v -0.015563 0.087041 0.020370
v -0.000339 0.085805 0.019546
v -0.022561 0.094033 0.017075
v -0.015973 0.099791 0.003913
v -0.022147 0.097321 0.014195
v -0.002808 0.083746 0.002265
v -0.015563 0.098968 0.002267
v -0.018443 0.085394 0.002267
v 0.009950 0.096913 0.007614
v -0.001163 0.099791 0.008437
v -0.016798 0.090327 0.001854
v -0.018443 0.099383 0.017898
v -0.018032 0.094856 0.019955
f 267 280 290 
f 237 239 241 
f 242 234 243 
f 234 242 246 
f 239 237 247 
f 243 239 247 
f 245 248 249 
f 243 234 251 
f 242 243 252 
f 237 241 253 
f 242 252 253 
f 247 237 255 
f 252 243 255 
f 235 236 256 
f 257 239 258 
f 246 238 260 
f 245 246 260 
f 248 245 260 
f 234 246 262 
f 246 245 262 
f 245 249 263 
f 251 234 263 
f 249 251 263 
f 262 245 263 
f 253 241 265 
f 242 253 265 
f 243 251 268 
f 251 266 268 
f 249 248 269 
f 248 254 269 
f 236 235 270 
f 235 259 270 
f 250 240 271 
f 264 256 271 
f 240 269 271 
f 269 254 271 
f 259 241 272 
f 257 270 272 
f 270 259 272 
f 237 253 273 
f 253 252 273 
f 255 237 273 
f 252 255 273 
f 235 256 274 
f 259 235 274 
f 264 244 274 
f 256 264 274 
f 243 247 275 
f 247 255 275 
f 255 243 275 
f 234 262 276 
f 263 234 276 
f 262 263 276 
f 241 259 277 
f 244 261 277 
f 265 241 277 
f 261 265 277 
f 259 274 277 
f 274 244 277 
f 246 242 278 
f 238 246 278 
f 242 265 279 
f 265 261 279 
f 278 242 279 
f 261 278 279 
f 260 238 280 
f 248 260 280 
f 256 236 281 
f 236 258 281 
f 250 271 281 
f 271 256 281 
f 254 248 282 
f 271 254 282 
f 264 271 282 
f 239 243 283 
f 243 268 283 
f 283 268 284 
f 258 239 284 
f 250 281 284 
f 281 258 284 
f 239 283 284 
f 251 249 285 
f 266 251 285 
f 249 269 285 
f 269 240 285 
f 241 239 286 
f 239 257 286 
f 272 241 286 
f 257 272 286 
f 258 236 287 
f 257 258 287 
f 236 270 287 
f 270 257 287 
f 240 250 288 
f 268 266 288 
f 284 268 288 
f 250 284 288 
f 285 240 288 
f 266 285 288 
f 244 264 289 
f 267 244 289 
f 248 280 289 
f 280 267 289 
f 282 248 289 
f 264 282 289 
f 261 244 290 
f 244 267 290 
f 238 278 290 
f 278 261 290 
f 280 238 290 
o convex_6
v 0.032996 0.075514 0.000618
v 0.032996 0.081276 0.009258
v 0.034640 0.079629 0.009258
v 0.024356 0.080863 0.009671
v 0.040400 0.069342 0.008023
v 0.032996 0.081276 0.001852
v 0.042045 0.071400 0.000618
v 0.024356 0.080863 0.002263
v 0.040400 0.069342 -0.000206
v 0.042045 0.071400 0.008436
v 0.024767 0.081276 0.001852
v 0.041634 0.069754 0.008436
v 0.041634 0.069342 -0.000206
v 0.036285 0.077983 0.001441
v 0.024356 0.081276 0.009671
f 301 298 305 
f 295 294 298 
f 295 298 299 
f 292 296 301 
f 296 291 301 
f 291 299 301 
f 299 298 301 
f 293 294 302 
f 294 295 302 
f 300 293 302 
f 300 302 303 
f 291 296 303 
f 299 291 303 
f 295 299 303 
f 297 300 303 
f 302 295 303 
f 292 293 304 
f 296 292 304 
f 293 300 304 
f 300 297 304 
f 303 296 304 
f 297 303 304 
f 293 292 305 
f 294 293 305 
f 298 294 305 
f 292 301 305 
o convex_7
v 0.037520 0.071811 0.013376
v 0.032996 0.081276 0.019957
v 0.032996 0.080864 0.020369
v 0.024356 0.080864 0.012552
v 0.040812 0.068930 0.022427
v 0.024356 0.080864 0.019957
v 0.035875 0.078395 0.012964
v 0.042045 0.071401 0.013787
v 0.042045 0.071401 0.021603
v 0.032996 0.081276 0.012964
v 0.040400 0.069342 0.013787
v 0.024356 0.081276 0.019957
v 0.030939 0.077983 0.021192
v 0.041634 0.069342 0.013787
v 0.024356 0.081276 0.012552
v 0.039989 0.073870 0.021192
f 308 314 321 
f 309 310 311 
f 306 309 312 
f 308 310 314 
f 307 312 315 
f 309 306 316 
f 310 309 316 
f 308 307 317 
f 309 311 317 
f 307 315 317 
f 310 308 318 
f 311 310 318 
f 308 317 318 
f 317 311 318 
f 306 312 319 
f 312 313 319 
f 313 314 319 
f 314 310 319 
f 316 306 319 
f 310 316 319 
f 312 309 320 
f 315 312 320 
f 309 317 320 
f 317 315 320 
f 307 308 321 
f 312 307 321 
f 313 312 321 
f 314 313 321 
