o convex_0
v 0.017212 -0.098245 0.015575
v -0.001249 -0.100192 0.010962
v -0.000863 -0.100192 0.008655
v 0.002983 0.029795 0.007117
v 0.005675 0.015187 0.020575
v 0.015288 0.015568 0.004810
v 0.009135 -0.099416 0.002115
v 0.016442 0.015950 0.016730
v 0.005675 -0.099403 0.020575
v -0.000863 0.014805 0.014038
v 0.002983 0.014792 0.003657
v 0.017212 -0.098245 0.007502
v 0.012212 -0.099034 0.020192
v 0.001445 -0.099798 0.018268
v 0.017596 0.015950 0.009040
v 0.008751 0.015174 0.002115
v 0.003367 -0.099798 0.003272
v 0.012596 0.029795 0.014806
v 0.011058 0.015568 0.020575
v -0.000479 0.014805 0.007885
v 0.013366 -0.098640 0.003272
v 0.002983 0.029413 0.015190
v 0.012596 0.029795 0.007119
v 0.002599 0.014792 0.019037
v 0.017982 -0.098245 0.012883
v 0.017596 0.015950 0.014038
v 0.001061 -0.099798 0.005194
v 0.014904 -0.098653 0.018653
v -0.000863 -0.100192 0.014422
v 0.011442 0.011713 0.002500
v 0.000291 0.005948 0.016730
v 0.014134 0.015568 0.019037
v 0.005675 0.015187 0.002502
v 0.001445 0.014792 0.004810
v -0.000863 0.014805 0.009040
v 0.015674 -0.098653 0.005193
v 0.005291 -0.099403 0.002502
v 0.017982 -0.086729 0.010192
v 0.011058 -0.099022 0.020575
v 0.017982 -0.011740 0.011730
v 0.002983 -0.099798 0.019420
v 0.016828 -0.023663 0.006732
v -0.000095 -0.100192 0.006732
v 0.013750 0.015568 0.003657
v -0.001249 -0.043642 0.011730
v 0.000291 -0.100192 0.016730
v 0.011442 -0.099022 0.002502
v 0.012980 0.015568 0.019805
v 0.003753 0.014792 0.019807
v 0.015674 -0.067489 0.017883
v -0.000095 0.014792 0.015960
v 0.000291 0.014792 0.006347
v 0.016442 0.015950 0.006347
v 0.007983 0.015174 0.002115
v 0.015288 -0.010595 0.018268
v 0.017596 0.001723 0.008655
v 0.004521 0.015187 0.002887
v 0.017596 -0.020584 0.014421
v 0.012596 0.029413 0.015190
v 0.007983 -0.099403 0.002115
v 0.013366 -0.017504 0.003272
v 0.016828 -0.098245 0.016345
v 0.014904 -0.098653 0.004425
v 0.001445 -0.056341 0.018268
f 14 41 64 
f 5 9 19 
f 4 10 22 
f 18 4 22 
f 5 19 22 
f 16 4 23 
f 4 18 23 
f 18 15 23 
f 15 18 26 
f 25 1 28 
f 2 3 29 
f 7 16 30 
f 4 11 34 
f 11 17 34 
f 17 27 34 
f 3 2 35 
f 10 4 35 
f 20 3 35 
f 4 20 35 
f 13 7 36 
f 12 25 36 
f 28 13 36 
f 25 28 36 
f 25 12 38 
f 9 13 39 
f 19 9 39 
f 13 19 39 
f 15 26 40 
f 26 25 40 
f 25 38 40 
f 13 9 41 
f 36 6 42 
f 12 36 42 
f 17 7 43 
f 3 20 43 
f 27 17 43 
f 29 3 43 
f 34 27 43 
f 23 6 44 
f 16 23 44 
f 30 16 44 
f 2 29 45 
f 29 10 45 
f 35 2 45 
f 10 35 45 
f 7 13 46 
f 14 31 46 
f 13 41 46 
f 41 14 46 
f 43 7 46 
f 29 43 46 
f 7 30 47 
f 30 21 47 
f 36 7 47 
f 19 13 48 
f 13 28 48 
f 28 32 48 
f 9 5 49 
f 5 22 49 
f 22 24 49 
f 41 9 49 
f 24 41 49 
f 22 10 51 
f 24 22 51 
f 10 29 51 
f 31 24 51 
f 46 31 51 
f 29 46 51 
f 20 4 52 
f 4 34 52 
f 43 20 52 
f 34 43 52 
f 6 23 53 
f 23 15 53 
f 42 6 53 
f 4 16 54 
f 16 7 54 
f 33 4 54 
f 37 33 54 
f 8 32 55 
f 32 28 55 
f 50 8 55 
f 28 50 55 
f 38 12 56 
f 15 40 56 
f 40 38 56 
f 12 42 56 
f 53 15 56 
f 42 53 56 
f 11 4 57 
f 17 11 57 
f 4 33 57 
f 37 17 57 
f 33 37 57 
f 8 1 58 
f 1 25 58 
f 25 26 58 
f 26 8 58 
f 18 22 59 
f 22 19 59 
f 8 26 59 
f 26 18 59 
f 32 8 59 
f 19 48 59 
f 48 32 59 
f 7 17 60 
f 17 37 60 
f 54 7 60 
f 37 54 60 
f 21 30 61 
f 44 6 61 
f 30 44 61 
f 1 8 62 
f 28 1 62 
f 8 50 62 
f 50 28 62 
f 6 36 63 
f 47 21 63 
f 36 47 63 
f 61 6 63 
f 21 61 63 
f 31 14 64 
f 24 31 64 
f 41 24 64 
o convex_1
v 0.012212 0.069800 0.015192
v 0.002983 0.029808 0.007116
v 0.012211 0.029808 0.007116
v 0.003368 0.072500 0.006731
v 0.002983 0.029808 0.014807
v 0.003368 0.072500 0.015577
v 0.013751 0.072500 0.008654
v 0.012597 0.029808 0.014807
v 0.011827 0.072500 0.006731
v 0.013751 0.072500 0.013268
v 0.002983 0.060573 0.014807
v 0.011443 0.072500 0.015577
v 0.012597 0.029808 0.007117
v 0.002983 0.060573 0.007116
v 0.011827 0.065960 0.006731
v 0.012597 0.065575 0.007117
v 0.013751 0.070958 0.011345
f 77 71 81 
f 66 67 69 
f 68 70 71 
f 69 67 72 
f 70 69 72 
f 68 71 73 
f 71 70 74 
f 65 72 74 
f 66 69 75 
f 70 68 75 
f 69 70 75 
f 72 65 76 
f 70 72 76 
f 65 74 76 
f 74 70 76 
f 72 67 77 
f 68 66 78 
f 66 75 78 
f 75 68 78 
f 67 66 79 
f 66 68 79 
f 68 73 79 
f 77 67 79 
f 73 77 79 
f 73 71 80 
f 71 77 80 
f 77 73 80 
f 71 74 81 
f 74 72 81 
f 72 77 81 
o convex_2
v -0.017401 0.094038 0.002887
v -0.003557 0.091347 0.022115
v -0.003557 0.087115 0.022115
v -0.003557 0.087115 -0.000192
v -0.018941 0.087115 0.021729
v -0.003557 0.097500 0.020192
v -0.003557 0.097500 0.001731
v -0.018941 0.087115 0.000194
v -0.018941 0.093268 0.020189
v -0.018941 0.090578 0.000194
v -0.005865 0.097500 0.020189
v -0.005865 0.097500 0.001731
v -0.018172 0.090963 0.021729
v -0.003557 0.093269 0.000194
v -0.018941 0.093653 0.009809
v -0.018554 0.093268 0.001731
v -0.013940 0.095192 0.017499
v -0.005096 0.093653 0.021729
v -0.012785 0.088270 0.022115
v -0.012785 0.095576 0.008656
v -0.007019 0.089809 -0.000192
f 91 95 102 
f 83 84 85 
f 85 84 86 
f 83 85 87 
f 87 85 88 
f 85 86 89 
f 89 86 90 
f 89 90 91 
f 87 88 92 
f 92 88 93 
f 90 86 94 
f 92 90 94 
f 88 85 95 
f 91 93 95 
f 93 88 95 
f 91 90 96 
f 82 93 97 
f 93 91 97 
f 91 96 97 
f 96 82 97 
f 90 92 98 
f 96 90 98 
f 83 87 99 
f 87 92 99 
f 94 83 99 
f 92 94 99 
f 84 83 100 
f 86 84 100 
f 83 94 100 
f 94 86 100 
f 93 82 101 
f 92 93 101 
f 82 96 101 
f 98 92 101 
f 96 98 101 
f 85 89 102 
f 89 91 102 
f 95 85 102 
o convex_3
v 0.024136 0.083657 0.008271
v 0.016440 0.099808 0.015958
v 0.016440 0.099808 0.005963
v 0.003367 0.072500 0.015573
v -0.003557 0.090190 -0.000192
v -0.003557 0.097880 0.020189
v 0.017598 0.089038 0.022115
v 0.012594 0.080581 0.001731
v -0.003557 0.087113 0.022115
v 0.017598 0.092112 -0.000192
v -0.003557 0.097880 0.001731
v 0.003367 0.072500 0.006348
v 0.013748 0.072500 0.013265
v 0.024136 0.097113 0.013265
v 0.024136 0.086731 0.017499
v 0.016058 0.095959 0.021729
v 0.012211 0.080196 0.020189
v 0.024136 0.091345 0.003655
v 0.011442 0.072500 0.006348
v 0.010675 0.099808 0.001731
v -0.003557 0.087113 -0.000192
v 0.010675 0.099808 0.020189
v 0.024136 0.087498 0.004040
v 0.024136 0.095574 0.005579
v 0.024136 0.093267 0.017881
v 0.016058 0.085967 0.000194
v 0.001830 0.079811 0.001731
v 0.011827 0.072500 0.015573
v 0.001830 0.079041 0.019807
v 0.014903 0.097111 0.000579
v -0.003557 0.091342 0.022115
v 0.024136 0.083657 0.013650
v 0.013748 0.099420 0.020576
v 0.013748 0.072500 0.008656
v 0.015673 0.085579 0.021729
v 0.013364 0.099808 0.001731
v -0.002784 0.093652 0.000194
v -0.002402 0.085964 0.022115
v 0.024136 0.097113 0.008656
v 0.024136 0.085194 0.005579
v 0.016828 0.094037 0.022115
v -0.002017 0.094037 0.021729
v 0.024136 0.095574 0.016342
v 0.017983 0.090190 -0.000192
v 0.024136 0.085194 0.016342
v 0.024136 0.083272 0.011344
v 0.023751 0.090960 0.018650
v 0.004136 0.084809 0.000194
v 0.016058 0.095574 0.000194
v 0.023751 0.097498 0.010577
v 0.003367 0.084424 0.021729
v 0.024136 0.093267 0.004040
v 0.011827 0.074425 0.005192
f 142 121 155 
f 108 107 111 
f 107 108 113 
f 106 111 114 
f 106 114 115 
f 103 116 117 
f 116 103 120 
f 115 114 121 
f 104 105 122 
f 113 108 122 
f 111 107 123 
f 107 112 123 
f 114 111 123 
f 104 122 124 
f 122 108 124 
f 120 103 125 
f 116 120 126 
f 117 116 127 
f 121 114 129 
f 114 123 129 
f 106 115 130 
f 130 119 131 
f 106 130 131 
f 108 111 133 
f 111 109 133 
f 103 117 134 
f 116 104 135 
f 104 124 135 
f 124 108 135 
f 115 121 136 
f 117 109 137 
f 130 117 137 
f 119 130 137 
f 122 105 138 
f 132 122 138 
f 126 132 138 
f 107 113 139 
f 113 122 139 
f 122 132 139 
f 111 106 140 
f 109 111 140 
f 106 131 140 
f 137 109 140 
f 116 126 141 
f 138 105 141 
f 126 138 141 
f 125 103 142 
f 103 136 142 
f 136 121 142 
f 127 118 143 
f 133 109 143 
f 133 143 144 
f 108 133 144 
f 135 108 144 
f 118 135 144 
f 143 118 144 
f 127 116 145 
f 118 127 145 
f 116 135 145 
f 135 118 145 
f 112 120 146 
f 123 112 146 
f 120 125 146 
f 128 123 146 
f 125 128 146 
f 130 115 147 
f 117 130 147 
f 115 134 147 
f 134 117 147 
f 103 134 148 
f 134 115 148 
f 136 103 148 
f 115 136 148 
f 109 117 149 
f 117 127 149 
f 143 109 149 
f 127 143 149 
f 128 110 150 
f 123 128 150 
f 110 129 150 
f 129 123 150 
f 112 107 151 
f 132 126 151 
f 107 139 151 
f 139 132 151 
f 105 104 152 
f 104 116 152 
f 141 105 152 
f 116 141 152 
f 131 119 153 
f 119 137 153 
f 140 131 153 
f 137 140 153 
f 120 112 154 
f 126 120 154 
f 112 151 154 
f 151 126 154 
f 110 128 155 
f 128 125 155 
f 129 110 155 
f 121 129 155 
f 125 142 155 
o convex_4
v 0.042595 0.100192 0.012496
v 0.032597 0.080577 0.010193
v 0.042981 0.080577 0.010193
v 0.040289 0.091345 0.000577
v 0.024136 0.093267 0.017882
v 0.024136 0.093651 0.004423
v 0.042981 0.087503 0.020958
v 0.024136 0.084041 0.014420
v 0.032213 0.083657 0.003271
v 0.043751 0.097113 0.003655
v 0.032213 0.100192 0.009809
v 0.043751 0.096729 0.018650
v 0.032213 0.084041 0.019037
v 0.043751 0.083657 0.003655
v 0.032213 0.094423 0.020574
v 0.024136 0.084809 0.006347
v 0.032213 0.099422 0.015574
v 0.043751 0.081731 0.015574
v 0.032213 0.094423 0.001347
v 0.024136 0.097113 0.013267
v 0.032213 0.088273 0.000963
v 0.032213 0.099422 0.006347
v 0.032213 0.087887 0.020958
v 0.032213 0.081347 0.015574
v 0.042981 0.086347 0.001347
v 0.024136 0.087503 0.017882
v 0.032213 0.081347 0.006347
v 0.042595 0.091729 0.021346
v 0.042981 0.099806 0.007501
v 0.024136 0.096729 0.007501
v 0.024136 0.089809 0.003655
v 0.042595 0.083271 0.018650
v 0.042981 0.094423 0.001347
v 0.032213 0.097498 0.003655
v 0.032213 0.090961 0.021346
v 0.032213 0.097882 0.017882
v 0.042595 0.099422 0.015959
v 0.042595 0.081731 0.005578
v 0.024136 0.083657 0.009040
v 0.043751 0.099806 0.011728
v 0.043751 0.090193 0.000963
v 0.043751 0.087887 0.020574
v 0.042981 0.095189 0.020191
v 0.024136 0.087119 0.004423
v 0.042595 0.083271 0.003271
v 0.024136 0.096344 0.015190
v 0.032213 0.086347 0.020574
v 0.042595 0.099038 0.005578
v 0.033367 0.086347 0.001347
v 0.042981 0.081347 0.015574
v 0.032213 0.080577 0.011344
v 0.032213 0.100192 0.012112
v 0.031828 0.091345 0.000963
v 0.042595 0.089425 0.000577
f 180 204 209 
f 160 161 163 
f 165 167 169 
f 163 161 171 
f 158 169 173 
f 169 167 173 
f 161 160 175 
f 168 163 179 
f 160 163 181 
f 163 168 181 
f 158 157 182 
f 171 164 182 
f 166 156 184 
f 177 166 184 
f 161 175 185 
f 175 166 185 
f 166 177 185 
f 171 161 186 
f 161 174 186 
f 168 179 187 
f 159 174 188 
f 174 161 189 
f 161 185 189 
f 185 177 189 
f 188 174 189 
f 165 188 189 
f 170 160 190 
f 178 162 190 
f 160 181 190 
f 181 178 190 
f 162 183 190 
f 183 170 190 
f 160 170 191 
f 156 172 192 
f 191 167 192 
f 172 191 192 
f 169 158 193 
f 158 182 193 
f 163 171 194 
f 182 157 194 
f 171 182 194 
f 167 165 195 
f 184 156 195 
f 165 184 195 
f 156 192 195 
f 192 167 195 
f 165 169 196 
f 169 180 196 
f 188 165 196 
f 173 167 197 
f 183 162 197 
f 162 187 197 
f 187 173 197 
f 170 183 198 
f 191 170 198 
f 167 191 198 
f 197 167 198 
f 183 197 198 
f 164 171 199 
f 171 186 199 
f 186 176 199 
f 180 169 200 
f 182 164 200 
f 169 193 200 
f 193 182 200 
f 175 160 201 
f 172 175 201 
f 160 191 201 
f 191 172 201 
f 162 178 202 
f 181 168 202 
f 178 181 202 
f 187 162 202 
f 168 187 202 
f 184 165 203 
f 177 184 203 
f 165 189 203 
f 189 177 203 
f 164 199 204 
f 199 176 204 
f 200 164 204 
f 180 200 204 
f 158 173 205 
f 173 187 205 
f 187 179 205 
f 157 158 206 
f 179 163 206 
f 194 157 206 
f 163 194 206 
f 158 205 206 
f 205 179 206 
f 156 166 207 
f 172 156 207 
f 166 175 207 
f 175 172 207 
f 174 159 208 
f 159 176 208 
f 186 174 208 
f 176 186 208 
f 176 159 209 
f 159 188 209 
f 196 180 209 
f 188 196 209 
f 204 176 209 
o convex_5
v -0.034324 0.084041 0.000578
v -0.018941 0.093269 0.010960
v -0.018941 0.087115 0.010960
v -0.043941 0.079424 0.009038
v -0.019328 0.086731 0.000193
v -0.025480 0.090961 0.002117
v -0.040478 0.079424 0.001348
v -0.036247 0.085577 0.002502
v -0.018941 0.092883 0.001732
v -0.035479 0.085963 0.009422
v -0.040478 0.079424 0.009422
v -0.043941 0.080193 0.002887
v -0.026251 0.088653 0.000193
v -0.019712 0.093269 0.010960
v -0.043555 0.080578 0.009038
v -0.043555 0.079038 0.001732
v -0.018941 0.090192 0.000193
v -0.025480 0.090961 0.009807
v -0.036632 0.084041 0.000963
v -0.019328 0.093269 0.002117
v -0.022020 0.086731 0.010960
v -0.042018 0.080193 0.009422
v -0.029329 0.084810 0.000193
f 222 214 232 
f 211 212 218 
f 215 217 219 
f 214 212 220 
f 216 214 220 
f 212 211 223 
f 219 217 224 
f 221 213 224 
f 217 221 224 
f 223 219 224 
f 210 216 225 
f 220 213 225 
f 216 220 225 
f 213 221 225 
f 212 214 226 
f 218 212 226 
f 214 222 226 
f 222 218 226 
f 215 219 227 
f 223 215 227 
f 219 223 227 
f 217 215 228 
f 221 217 228 
f 222 210 228 
f 215 222 228 
f 210 225 228 
f 225 221 228 
f 211 218 229 
f 222 215 229 
f 218 222 229 
f 223 211 229 
f 215 223 229 
f 220 212 230 
f 212 223 230 
f 230 223 231 
f 213 220 231 
f 223 224 231 
f 224 213 231 
f 220 230 231 
f 216 210 232 
f 214 216 232 
f 210 222 232 
o convex_6
v -0.039321 0.081347 0.020960
v -0.018941 0.093269 0.019806
v -0.018941 0.093269 0.010962
v -0.019328 0.086731 0.020191
v -0.040478 0.079424 0.012886
v -0.018941 0.087115 0.010962
v -0.036247 0.085577 0.012886
v -0.042402 0.081347 0.019038
v -0.025480 0.090961 0.019806
v -0.040478 0.079424 0.020576
v -0.018941 0.090575 0.021730
v -0.043941 0.080193 0.012886
v -0.018941 0.087115 0.021730
v -0.026635 0.088653 0.021730
v -0.036247 0.085577 0.019421
v -0.020865 0.092883 0.011347
v -0.043555 0.079038 0.020191
v -0.030482 0.084424 0.021730
v -0.036247 0.084424 0.020960
v -0.021635 0.086731 0.010962
v -0.043555 0.079038 0.012886
v -0.025480 0.090961 0.012117
f 248 239 254 
f 235 234 238 
f 236 237 238 
f 237 236 242 
f 238 234 243 
f 240 239 244 
f 236 238 245 
f 242 236 245 
f 238 243 245 
f 245 243 246 
f 234 241 246 
f 243 234 246 
f 239 240 247 
f 241 239 247 
f 234 235 248 
f 241 234 248 
f 235 244 248 
f 244 239 248 
f 242 233 249 
f 237 242 249 
f 240 244 249 
f 233 242 250 
f 242 245 250 
f 245 246 250 
f 246 233 250 
f 233 246 251 
f 246 241 251 
f 247 240 251 
f 241 247 251 
f 249 233 251 
f 240 249 251 
f 235 238 252 
f 238 237 252 
f 244 235 252 
f 244 252 253 
f 237 249 253 
f 249 244 253 
f 252 237 253 
f 239 241 254 
f 241 248 254 
