o convex_0
v 0.007410 -0.079497 0.007307
v -0.013267 -0.099101 0.006953
v -0.013267 -0.099101 0.007307
v -0.011128 -0.054902 0.008733
v 0.001704 -0.099815 0.014082
v 0.000280 -0.099460 0.000178
v -0.004710 -0.054902 0.001605
v 0.004913 -0.054902 0.011586
v -0.009701 -0.097320 0.013724
v 0.004913 -0.054902 0.003031
v -0.011128 -0.099815 0.001606
v -0.004353 -0.054902 0.013012
v 0.007052 -0.099815 0.003744
v 0.006339 -0.100174 0.011941
v -0.010413 -0.055620 0.004101
v 0.007052 -0.054902 0.008377
v -0.012197 -0.099815 0.011586
v -0.009701 -0.055979 0.011229
v 0.004556 -0.100174 0.001249
v -0.006137 -0.098033 0.000178
v 0.000636 -0.054902 0.001605
v 0.000280 -0.055265 0.013012
v 0.004200 -0.097674 0.013724
v -0.005066 -0.088408 0.014082
v 0.006696 -0.054902 0.005170
v 0.007410 -0.099101 0.009803
v -0.008632 -0.054902 0.002676
v -0.012909 -0.096965 0.004459
v 0.004200 -0.095539 0.000893
v -0.010057 -0.098033 0.000893
v -0.011484 -0.056688 0.006953
v 0.006339 -0.096606 0.002319
v -0.012197 -0.097679 0.011941
v 0.006339 -0.098388 0.012298
v -0.007205 -0.099815 0.014082
v -0.007205 -0.100174 0.010873
v -0.012909 -0.093757 0.009447
v -0.007562 -0.055620 0.012298
v -0.000079 -0.088408 0.014082
v 0.006339 -0.054902 0.010158
v -0.011840 -0.095897 0.002319
v 0.007410 -0.094112 0.004814
v -0.000079 -0.095893 0.000178
v -0.011128 -0.054902 0.005527
v 0.003488 -0.054902 0.002319
v 0.007052 -0.054902 0.006240
v 0.003488 -0.056692 0.012298
v -0.010770 -0.054902 0.009802
v 0.007052 -0.094112 0.010873
v -0.011128 -0.097320 0.013011
v -0.006849 -0.100174 0.002674
v 0.005627 -0.057047 0.003387
v -0.005422 -0.099815 0.000178
v -0.012553 -0.099815 0.003744
v -0.011128 -0.095897 0.001606
v 0.005627 -0.096606 0.001606
v 0.005627 -0.098747 0.013011
v -0.004353 -0.063823 0.001248
v 0.007410 -0.100174 0.006953
v -0.012197 -0.096965 0.002676
v 0.007052 -0.092685 0.003744
v -0.007918 -0.055979 0.002319
v 0.004200 -0.100174 0.013367
v -0.012553 -0.097679 0.011229
f 33 48 64 
f 7 4 8 
f 7 8 10 
f 8 4 12 
f 10 8 16 
f 7 10 21 
f 8 12 22 
f 12 9 24 
f 10 16 25 
f 1 16 26 
f 4 7 27 
f 19 6 29 
f 7 20 30 
f 2 3 31 
f 28 2 31 
f 13 19 32 
f 14 26 34 
f 5 24 35 
f 24 9 35 
f 19 14 36 
f 35 17 36 
f 31 3 37 
f 4 31 37 
f 9 12 38 
f 22 12 39 
f 5 23 39 
f 23 22 39 
f 24 5 39 
f 12 24 39 
f 16 8 40 
f 8 34 40 
f 1 26 42 
f 6 20 43 
f 29 6 43 
f 21 29 43 
f 4 27 44 
f 27 15 44 
f 31 4 44 
f 28 31 44 
f 21 10 45 
f 10 29 45 
f 29 21 45 
f 16 1 46 
f 25 16 46 
f 1 42 46 
f 8 22 47 
f 23 8 47 
f 22 23 47 
f 12 4 48 
f 33 18 48 
f 38 12 48 
f 18 38 48 
f 26 16 49 
f 34 26 49 
f 16 40 49 
f 40 34 49 
f 33 17 50 
f 18 33 50 
f 35 9 50 
f 17 35 50 
f 9 38 50 
f 38 18 50 
f 19 36 51 
f 10 25 52 
f 25 32 52 
f 6 19 53 
f 20 6 53 
f 30 20 53 
f 11 30 53 
f 51 11 53 
f 19 51 53 
f 3 2 54 
f 17 3 54 
f 2 28 54 
f 36 17 54 
f 11 51 54 
f 51 36 54 
f 15 27 55 
f 30 11 55 
f 27 30 55 
f 41 15 55 
f 11 41 55 
f 29 10 56 
f 19 29 56 
f 32 19 56 
f 10 52 56 
f 52 32 56 
f 8 23 57 
f 34 8 57 
f 14 34 57 
f 20 7 58 
f 7 21 58 
f 43 20 58 
f 21 43 58 
f 19 13 59 
f 14 19 59 
f 26 14 59 
f 42 26 59 
f 13 42 59 
f 15 41 60 
f 41 11 60 
f 44 15 60 
f 28 44 60 
f 54 28 60 
f 11 54 60 
f 13 32 61 
f 32 25 61 
f 42 13 61 
f 25 46 61 
f 46 42 61 
f 27 7 62 
f 7 30 62 
f 30 27 62 
f 23 5 63 
f 5 35 63 
f 36 14 63 
f 35 36 63 
f 14 57 63 
f 57 23 63 
f 3 17 64 
f 17 33 64 
f 37 3 64 
f 4 37 64 
f 48 4 64 
o convex_1
v 0.007765 -0.024580 0.006953
v -0.011126 -0.054902 0.005527
v -0.011126 -0.054902 0.008733
v -0.008276 0.062389 0.010159
v 0.002775 0.062389 0.001962
v 0.005627 0.062389 0.012299
v -0.000077 -0.054902 0.013012
v 0.002063 -0.054902 0.001962
v -0.006493 0.062389 0.002319
v 0.007410 0.062389 0.003388
v -0.006136 0.062389 0.012298
v 0.006339 -0.054902 0.010159
v -0.004710 -0.054902 0.001604
v -0.008276 -0.054902 0.011943
v 0.007765 0.062389 0.010517
v 0.006339 -0.054902 0.004457
v -0.008276 0.062389 0.004457
v -0.009702 -0.053467 0.003388
v -0.003284 -0.002835 0.013012
v -0.010771 -0.009253 0.006953
v 0.004913 -0.054902 0.011585
v -0.002215 0.052756 0.001604
v 0.005984 0.058818 0.002318
v -0.009345 -0.008897 0.010873
v 0.001349 -0.008186 0.001604
v 0.003487 0.057394 0.012655
v 0.004913 -0.054902 0.003031
v -0.004353 -0.054902 0.013012
v -0.007919 0.062389 0.003389
v 0.007765 0.060953 0.004100
v 0.006696 0.058818 0.011943
v 0.007053 -0.053111 0.008733
v -0.007562 -0.054902 0.002319
v -0.007205 0.062389 0.011942
v -0.002570 0.061665 0.012654
v -0.010414 -0.008186 0.009090
v 0.003132 -0.054902 0.012299
v 0.007765 -0.009609 0.005527
v 0.001349 0.052756 0.001604
v 0.007765 -0.013892 0.008733
v -0.010414 -0.046337 0.010159
v -0.010057 -0.016039 0.004457
v 0.007053 -0.053823 0.005883
v 0.000278 -0.054902 0.001604
v 0.000635 -0.003191 0.013012
v 0.006696 -0.009609 0.003744
v -0.007919 0.062389 0.011229
v -0.010414 -0.006762 0.005527
v 0.003487 -0.054902 0.002318
v -0.008988 -0.054902 0.011585
v 0.007053 -0.015671 0.010159
v 0.006696 0.057394 0.002674
v -0.005067 0.053112 0.001962
v -0.007205 -0.047405 0.012299
v -0.004353 0.053824 0.012654
v 0.005984 -0.043834 0.010872
v 0.007410 0.059174 0.011229
v -0.011126 -0.035993 0.007663
v -0.007205 0.062389 0.002675
v 0.004201 0.053112 0.001962
v -0.003641 0.062389 0.001962
v 0.005984 -0.049196 0.003744
v 0.007410 -0.010688 0.004814
v -0.008276 -0.041699 0.002674
f 82 123 128 
f 69 68 70 
f 67 66 71 
f 71 66 72 
f 68 69 73 
f 69 70 74 
f 70 68 75 
f 71 72 76 
f 72 66 77 
f 67 71 78 
f 74 70 79 
f 76 72 80 
f 68 73 81 
f 68 81 84 
f 71 76 85 
f 69 74 87 
f 77 86 89 
f 87 72 89 
f 80 72 91 
f 78 71 92 
f 71 83 92 
f 81 73 93 
f 79 65 94 
f 74 79 94 
f 79 70 95 
f 77 66 97 
f 73 77 97 
f 66 82 97 
f 75 68 98 
f 70 75 99 
f 90 70 99 
f 68 84 100 
f 70 71 101 
f 71 85 101 
f 95 70 101 
f 85 95 101 
f 94 65 102 
f 86 69 103 
f 89 86 103 
f 65 79 104 
f 96 65 104 
f 100 67 105 
f 82 66 106 
f 93 82 106 
f 76 80 107 
f 65 96 107 
f 96 76 107 
f 102 65 107 
f 72 77 108 
f 89 72 108 
f 77 89 108 
f 71 70 109 
f 83 71 109 
f 70 90 109 
f 99 83 109 
f 90 99 109 
f 98 68 111 
f 88 98 111 
f 68 100 111 
f 105 88 111 
f 100 105 111 
f 66 84 112 
f 84 81 112 
f 81 93 112 
f 106 66 112 
f 93 106 112 
f 72 87 113 
f 91 72 113 
f 67 78 114 
f 78 98 114 
f 98 88 114 
f 105 67 114 
f 88 105 114 
f 76 96 115 
f 96 104 115 
f 87 74 116 
f 74 110 116 
f 113 87 116 
f 91 113 116 
f 77 73 117 
f 86 77 117 
f 78 92 118 
f 92 75 118 
f 75 98 118 
f 98 78 118 
f 75 92 119 
f 92 83 119 
f 99 75 119 
f 83 99 119 
f 85 76 120 
f 95 85 120 
f 76 115 120 
f 120 115 121 
f 79 95 121 
f 104 79 121 
f 115 104 121 
f 95 120 121 
f 66 67 122 
f 84 66 122 
f 67 100 122 
f 100 84 122 
f 93 73 123 
f 82 93 123 
f 69 87 124 
f 87 89 124 
f 103 69 124 
f 89 103 124 
f 73 69 125 
f 69 86 125 
f 117 73 125 
f 86 117 125 
f 80 91 126 
f 116 110 126 
f 91 116 126 
f 74 94 127 
f 94 102 127 
f 107 80 127 
f 102 107 127 
f 110 74 127 
f 80 126 127 
f 126 110 127 
f 73 97 128 
f 97 82 128 
f 123 73 128 
o convex_2
v -0.034656 0.089128 -0.000178
v -0.030024 0.092689 0.014795
v -0.033944 0.092689 0.014795
v -0.035726 0.099106 0.004814
v -0.026460 0.095541 0.003032
v -0.028955 0.083422 0.008733
v -0.036083 0.084137 0.010873
v -0.026460 0.096254 0.010515
v -0.026460 0.088058 0.002318
v -0.036083 0.085208 0.001963
v -0.036083 0.097323 0.012299
v -0.026460 0.088058 0.012299
v -0.029311 0.094830 0.000179
v -0.028955 0.099106 0.009447
v -0.036083 0.095186 0.000536
v -0.029311 0.085919 0.013369
v -0.028955 0.085919 0.001248
v -0.028955 0.098038 0.002674
v -0.036083 0.087702 0.014081
v -0.028955 0.096612 0.013369
v -0.036440 0.084137 0.006240
v -0.029311 0.083422 0.005170
v -0.026460 0.085564 0.005526
v -0.028955 0.090555 -0.000178
v -0.036440 0.095541 0.008021
v -0.035013 0.098751 0.010873
v -0.028599 0.099106 0.005526
v -0.036083 0.083422 0.006240
v -0.036083 0.095186 0.014081
v -0.026460 0.092333 0.013010
v -0.028955 0.088773 0.014437
v -0.035013 0.097680 0.001963
v -0.036083 0.091621 -0.000178
v -0.036440 0.086990 0.012654
v -0.036440 0.091978 0.001607
v -0.026460 0.093047 0.001607
v -0.035369 0.099465 0.007665
v -0.026460 0.085919 0.009803
v -0.029311 0.084137 0.011228
v -0.035369 0.085208 0.012654
v -0.026460 0.096968 0.005526
v -0.036083 0.099106 0.005526
v -0.035013 0.090199 0.014795
v -0.029311 0.087702 0.000179
v -0.035369 0.086276 0.000892
v -0.028955 0.084850 0.002318
v -0.035369 0.084137 0.003388
v -0.028955 0.096254 0.000892
v -0.029311 0.094472 0.014437
v -0.035013 0.083422 0.009091
v -0.029311 0.098038 0.011941
v -0.035369 0.096254 0.013725
f 148 179 180 
f 133 136 137 
f 137 136 140 
f 137 140 151 
f 134 150 151 
f 146 132 155 
f 135 149 156 
f 149 138 156 
f 150 134 156 
f 139 153 157 
f 140 136 158 
f 136 148 158 
f 144 140 159 
f 147 144 159 
f 140 158 159 
f 143 132 160 
f 132 146 160 
f 143 141 161 
f 152 129 161 
f 141 152 161 
f 135 147 162 
f 149 135 162 
f 153 149 162 
f 147 157 162 
f 157 153 162 
f 138 149 163 
f 149 153 163 
f 161 138 163 
f 143 161 163 
f 133 137 164 
f 137 152 164 
f 152 141 164 
f 139 154 165 
f 154 142 165 
f 155 132 165 
f 142 155 165 
f 140 144 166 
f 134 151 166 
f 151 140 166 
f 134 166 167 
f 166 144 167 
f 147 135 168 
f 144 147 168 
f 135 167 168 
f 167 144 168 
f 136 133 169 
f 142 136 169 
f 133 146 169 
f 155 142 169 
f 146 155 169 
f 132 143 170 
f 153 139 170 
f 143 163 170 
f 163 153 170 
f 165 132 170 
f 139 165 170 
f 130 131 171 
f 131 157 171 
f 157 147 171 
f 159 130 171 
f 147 159 171 
f 137 145 172 
f 152 137 172 
f 129 152 172 
f 161 129 173 
f 138 161 173 
f 129 172 173 
f 172 145 173 
f 145 137 174 
f 137 151 174 
f 151 150 174 
f 138 173 174 
f 173 145 174 
f 156 138 175 
f 150 156 175 
f 138 174 175 
f 174 150 175 
f 141 143 176 
f 146 133 176 
f 143 160 176 
f 160 146 176 
f 133 164 176 
f 164 141 176 
f 131 130 177 
f 157 131 177 
f 158 148 177 
f 130 159 177 
f 159 158 177 
f 156 134 178 
f 135 156 178 
f 134 167 178 
f 167 135 178 
f 136 142 179 
f 148 136 179 
f 142 154 179 
f 179 154 180 
f 154 139 180 
f 139 157 180 
f 157 177 180 
f 177 148 180 
o convex_3
v -0.021465 0.091621 0.000892
v -0.012911 0.091621 0.014439
v -0.012911 0.090554 0.014439
v -0.026458 0.092691 0.013012
v -0.026458 0.085563 0.008732
v -0.012911 0.085563 0.003031
v -0.012911 0.096970 0.004102
v -0.026458 0.096970 0.008732
v -0.026458 0.088414 0.001961
v -0.012911 0.086633 0.013012
v -0.012911 0.096255 0.011941
v -0.025743 0.095542 0.003031
v -0.012911 0.092691 0.000178
v -0.026458 0.088057 0.012297
v -0.012911 0.084848 0.009091
v -0.026458 0.085563 0.005526
v -0.013267 0.088414 0.000536
v -0.026458 0.093046 0.001605
v -0.012911 0.097326 0.008732
v -0.013267 0.095185 0.001249
v -0.025030 0.095185 0.011941
v -0.026458 0.096970 0.005885
v -0.013267 0.094473 0.013725
v -0.026458 0.086633 0.003387
v -0.013267 0.084848 0.005526
v -0.025743 0.089484 0.013012
v -0.025030 0.085920 0.010160
v -0.013624 0.086633 0.001605
v -0.013267 0.087702 0.013725
v -0.013267 0.085205 0.010515
v -0.026101 0.096255 0.010515
v -0.014694 0.096255 0.002674
v -0.012911 0.089842 0.000178
v -0.026458 0.089484 0.001605
v -0.013267 0.097326 0.005885
v -0.013267 0.096970 0.010515
f 211 191 216 
f 183 182 184 
f 182 183 186 
f 182 186 187 
f 185 184 188 
f 185 188 189 
f 186 183 190 
f 182 187 191 
f 187 186 193 
f 184 185 194 
f 186 190 195 
f 185 189 196 
f 189 188 198 
f 193 181 198 
f 191 187 199 
f 187 193 200 
f 198 192 200 
f 193 198 200 
f 198 188 202 
f 192 198 202 
f 184 182 203 
f 182 191 203 
f 201 184 203 
f 191 201 203 
f 196 189 204 
f 186 196 204 
f 195 185 205 
f 186 195 205 
f 185 196 205 
f 196 186 205 
f 183 184 206 
f 184 194 206 
f 194 185 207 
f 190 194 207 
f 197 186 208 
f 189 197 208 
f 204 189 208 
f 186 204 208 
f 190 183 209 
f 194 190 209 
f 183 206 209 
f 206 194 209 
f 185 195 210 
f 195 190 210 
f 207 185 210 
f 190 207 210 
f 188 184 211 
f 184 201 211 
f 201 191 211 
f 187 200 212 
f 200 192 212 
f 202 187 212 
f 192 202 212 
f 193 186 213 
f 181 193 213 
f 186 197 213 
f 213 197 214 
f 197 189 214 
f 198 181 214 
f 189 198 214 
f 181 213 214 
f 199 187 215 
f 188 199 215 
f 187 202 215 
f 202 188 215 
f 199 188 216 
f 191 199 216 
f 188 211 216 
o convex_4
v 0.005983 0.099106 0.010873
v -0.012911 0.084491 0.005170
v -0.012911 0.084491 0.009090
v 0.007766 0.062389 0.004101
v 0.013826 0.094829 -0.000178
v 0.014184 0.085201 0.014439
v -0.006134 0.062389 0.012298
v -0.009346 0.099464 0.014439
v -0.009702 0.099464 0.000179
v -0.006492 0.062389 0.002318
v 0.006697 0.062389 0.011942
v 0.014184 0.085556 -0.000178
v 0.014184 0.095185 0.014439
v -0.012911 0.090194 0.014439
v -0.012911 0.089481 0.000179
v -0.008275 0.062389 0.010159
v -0.012911 0.097323 0.009447
v 0.007407 0.068096 0.001248
v 0.009548 0.098033 0.001962
v -0.009346 0.087339 -0.000178
v -0.006492 0.068806 0.013367
v -0.001857 0.100178 0.003743
v -0.008275 0.062389 0.004457
v -0.007919 0.068451 0.001248
v 0.007407 0.068810 0.013367
v -0.008633 0.083777 0.014439
v -0.000788 0.099464 0.014081
v 0.002061 0.098395 -0.000178
v 0.007766 0.062389 0.010517
v 0.014184 0.084132 0.004101
v -0.009702 0.100178 0.009090
v 0.002774 0.062389 0.001962
v -0.012911 0.096250 0.002318
v 0.014184 0.095898 0.001248
v 0.011330 0.097323 0.013012
v -0.002215 0.100178 0.011229
v -0.008275 0.068451 0.013012
v -0.012911 0.086987 0.013367
v -0.012911 0.095185 0.013367
v 0.010261 0.083063 0.014439
v -0.009702 0.097323 -0.000178
v -0.010412 0.099819 0.002675
v 0.010261 0.084846 -0.000178
v 0.002061 0.099819 0.003743
v -0.000432 0.099464 0.000536
v 0.006697 0.062389 0.002675
v 0.014184 0.084132 0.010159
v -0.012911 0.087339 0.000892
v 0.008479 0.097678 0.014439
v -0.011126 0.099464 0.011229
v 0.008834 0.097678 0.000179
v -0.007561 0.100178 0.001962
v -0.012911 0.093043 0.000179
v 0.005625 0.062389 0.012298
v -0.007919 0.062389 0.003387
v 0.014184 0.095898 0.013012
v 0.010975 0.097678 0.008734
v -0.007561 0.100178 0.012656
v -0.007919 0.062389 0.011229
v 0.007407 0.098747 0.003031
v 0.002061 0.099819 0.010873
v 0.014184 0.084491 0.001248
v -0.012911 0.097323 0.005170
v -0.007919 0.069524 0.013367
f 230 253 280 
f 220 223 226 
f 223 220 227 
f 224 222 229 
f 222 228 229 
f 218 219 230 
f 222 224 230 
f 218 230 231 
f 219 218 232 
f 226 223 232 
f 231 230 233 
f 221 228 236 
f 232 218 239 
f 226 232 239 
f 231 236 240 
f 227 222 241 
f 222 230 242 
f 221 236 244 
f 227 220 245 
f 222 227 245 
f 228 222 246 
f 245 220 246 
f 220 226 248 
f 226 240 248 
f 240 234 248 
f 231 233 249 
f 228 221 250 
f 229 228 250 
f 238 247 252 
f 230 219 254 
f 219 232 254 
f 253 230 254 
f 230 224 255 
f 233 230 255 
f 241 222 256 
f 237 241 256 
f 242 237 256 
f 222 242 256 
f 236 231 257 
f 244 236 257 
f 225 244 257 
f 225 249 258 
f 228 234 259 
f 236 228 259 
f 234 240 259 
f 240 236 259 
f 244 225 261 
f 238 260 261 
f 228 220 262 
f 234 228 262 
f 220 248 262 
f 248 234 262 
f 222 245 263 
f 246 222 263 
f 245 246 263 
f 218 231 264 
f 239 218 264 
f 231 240 264 
f 224 229 265 
f 217 243 265 
f 243 224 265 
f 251 217 265 
f 229 251 265 
f 224 247 266 
f 255 224 266 
f 233 255 266 
f 247 258 266 
f 221 244 267 
f 250 221 267 
f 235 250 267 
f 244 261 267 
f 247 238 268 
f 225 258 268 
f 258 247 268 
f 261 225 268 
f 238 261 268 
f 249 225 269 
f 231 249 269 
f 225 257 269 
f 257 231 269 
f 223 227 270 
f 237 223 270 
f 227 241 270 
f 241 237 270 
f 226 239 271 
f 240 226 271 
f 239 264 271 
f 264 240 271 
f 229 250 272 
f 251 229 272 
f 251 272 273 
f 250 235 273 
f 217 251 273 
f 272 250 273 
f 224 243 274 
f 247 224 274 
f 243 252 274 
f 252 247 274 
f 232 223 275 
f 223 253 275 
f 254 232 275 
f 253 254 275 
f 260 217 276 
f 261 260 276 
f 235 267 276 
f 267 261 276 
f 217 273 276 
f 273 235 276 
f 243 217 277 
f 238 252 277 
f 252 243 277 
f 217 260 277 
f 260 238 277 
f 220 228 278 
f 246 220 278 
f 228 246 278 
f 249 233 279 
f 258 249 279 
f 233 266 279 
f 266 258 279 
f 223 237 280 
f 237 242 280 
f 242 230 280 
f 253 223 280 
o convex_5
v 0.024879 0.079502 -0.000178
v 0.014542 0.095186 0.014439
v 0.014542 0.095544 0.014081
v 0.014184 0.085562 -0.000178
v 0.024521 0.079144 0.014439
v 0.023809 0.088055 0.000536
v 0.014184 0.084493 0.013012
v 0.014184 0.095186 0.000179
v 0.024879 0.086633 0.014439
v 0.014184 0.084137 0.004814
v 0.019887 0.091977 0.002675
v 0.024879 0.085919 -0.000178
v 0.014184 0.085207 0.014439
v 0.020244 0.091620 0.013725
v 0.024521 0.079144 0.000179
v 0.015967 0.094829 0.001962
v 0.014184 0.095544 0.014081
v 0.024879 0.079144 0.014439
v 0.017393 0.092691 -0.000178
v 0.014184 0.084493 0.001248
v 0.018107 0.093402 0.012656
v 0.019531 0.091977 0.000179
v 0.014184 0.084137 0.009801
v 0.024164 0.087700 0.013367
v 0.014542 0.095544 0.000536
f 302 299 305 
f 284 287 288 
f 282 285 289 
f 287 284 290 
f 281 284 292 
f 289 281 292 
f 286 289 292 
f 285 282 293 
f 287 285 293 
f 288 287 293 
f 283 282 294 
f 282 289 294 
f 286 291 294 
f 284 281 295 
f 285 290 295 
f 282 283 297 
f 293 282 297 
f 288 293 297 
f 281 289 298 
f 289 285 298 
f 295 281 298 
f 285 295 298 
f 284 288 299 
f 292 284 299 
f 290 284 300 
f 284 295 300 
f 295 290 300 
f 283 294 301 
f 294 291 301 
f 296 283 301 
f 291 296 301 
f 291 286 302 
f 286 292 302 
f 296 291 302 
f 292 299 302 
f 285 287 303 
f 290 285 303 
f 287 290 303 
f 289 286 304 
f 294 289 304 
f 286 294 304 
f 283 296 305 
f 297 283 305 
f 288 297 305 
f 299 288 305 
f 296 302 305 
o convex_6
v 0.033435 0.072375 0.000535
v 0.024879 0.078787 0.000179
v 0.024879 0.078787 0.007308
v 0.035217 0.062745 0.003387
v 0.026307 0.085204 0.007308
v 0.025236 0.086275 0.000179
v 0.036287 0.064175 0.004812
v 0.034504 0.066667 0.000179
v 0.029158 0.080567 0.007308
v 0.024879 0.086275 0.007308
v 0.028802 0.081279 0.000179
v 0.024879 0.085561 -0.000178
v 0.035574 0.062745 0.004812
v 0.034861 0.064175 0.000892
v 0.036287 0.064887 0.001605
v 0.034504 0.069878 0.003743
v 0.028802 0.077361 0.007308
v 0.032722 0.073441 -0.000178
v 0.024879 0.079142 -0.000178
v 0.029514 0.080213 0.004099
f 314 321 325 
f 308 307 309 
f 310 308 314 
f 307 308 315 
f 308 310 315 
f 310 311 315 
f 311 310 316 
f 307 315 317 
f 315 311 317 
f 311 316 317 
f 308 309 318 
f 309 307 319 
f 319 313 320 
f 318 309 320 
f 312 318 320 
f 309 319 320 
f 314 312 321 
f 320 306 321 
f 312 320 321 
f 314 308 322 
f 312 314 322 
f 308 318 322 
f 318 312 322 
f 316 306 323 
f 317 316 323 
f 320 313 323 
f 306 320 323 
f 307 317 324 
f 319 307 324 
f 313 319 324 
f 323 313 324 
f 317 323 324 
f 310 314 325 
f 316 310 325 
f 306 316 325 
f 321 306 325 
o convex_7
v 0.033078 0.073084 0.014439
v 0.024879 0.078787 0.007308
v 0.025593 0.078073 0.007308
v 0.026307 0.085204 0.007308
v 0.024879 0.086275 0.014439
v 0.035217 0.062745 0.011229
v 0.024879 0.078787 0.014439
v 0.036287 0.064528 0.009805
v 0.035217 0.065601 0.014082
v 0.029158 0.080567 0.007308
v 0.028446 0.081993 0.014082
v 0.024879 0.086275 0.007308
v 0.035574 0.062745 0.009805
v 0.034504 0.064528 0.013725
v 0.034504 0.069878 0.010517
v 0.036287 0.064887 0.013012
v 0.029158 0.077716 0.007308
v 0.032722 0.068093 0.014439
v 0.025236 0.086275 0.014439
v 0.029871 0.079501 0.009448
f 340 335 345 
f 328 327 329 
f 326 330 332 
f 330 327 332 
f 327 331 332 
f 328 329 335 
f 329 327 337 
f 327 330 337 
f 327 328 338 
f 331 327 338 
f 332 331 339 
f 333 335 340 
f 326 334 341 
f 331 338 341 
f 338 333 341 
f 339 331 341 
f 334 339 341 
f 340 326 341 
f 333 340 341 
f 328 335 342 
f 335 333 342 
f 338 328 342 
f 333 338 342 
f 326 332 343 
f 334 326 343 
f 332 339 343 
f 339 334 343 
f 330 326 344 
f 326 336 344 
f 336 329 344 
f 329 337 344 
f 337 330 344 
f 335 329 345 
f 336 326 345 
f 329 336 345 
f 326 340 345 
