o convex_0
v 0.004904 -0.096050 0.009320
v -0.012157 -0.097314 0.008690
v -0.012157 -0.097314 0.009319
v -0.011209 -0.060032 0.009005
v -0.001415 -0.091305 0.004581
v 0.000480 -0.060032 0.012479
v 0.001745 -0.060354 0.006162
v -0.006786 -0.096678 0.013428
v -0.007417 -0.060032 0.005530
v -0.009629 -0.060032 0.011847
v -0.007417 -0.098571 0.005214
v 0.002060 -0.097943 0.012480
v 0.003007 -0.097943 0.006162
v 0.003325 -0.060032 0.010584
v -0.010891 -0.092569 0.006162
v -0.006469 -0.100158 0.011216
v -0.011524 -0.095413 0.011531
v -0.003626 -0.060350 0.013111
v -0.002995 -0.093834 0.013743
v 0.003325 -0.060032 0.007742
v -0.001732 -0.060032 0.005215
v -0.006153 -0.092569 0.004582
v 0.002060 -0.099840 0.008057
v 0.003325 -0.094467 0.012163
v -0.010577 -0.060032 0.007109
v 0.003956 -0.094152 0.006478
v 0.000480 -0.095413 0.004899
v -0.000468 -0.091623 0.013427
v -0.008366 -0.099840 0.006795
v -0.008366 -0.092569 0.013112
v -0.012157 -0.092251 0.007742
v -0.006786 -0.060032 0.012795
v -0.001732 -0.098571 0.004899
v -0.010260 -0.099204 0.011216
v -0.001732 -0.098893 0.013111
v -0.012157 -0.090676 0.010268
v -0.010891 -0.060032 0.010584
v 0.004587 -0.095413 0.010900
v 0.002692 -0.099522 0.010584
v -0.009629 -0.096360 0.005530
v 0.004904 -0.093520 0.008374
v -0.005838 -0.060032 0.005215
v 0.002060 -0.060032 0.011847
v -0.011209 -0.097943 0.006795
v -0.009313 -0.060986 0.006162
v -0.001732 -0.100158 0.006794
v -0.004258 -0.092888 0.013743
v 0.002376 -0.094152 0.005529
v -0.008997 -0.098571 0.012480
v 0.004587 -0.097628 0.008057
v -0.001099 -0.100158 0.011215
v 0.001743 -0.089726 0.012795
v -0.003940 -0.086886 0.004581
v -0.008682 -0.090362 0.005214
v -0.010577 -0.090994 0.012163
v 0.003640 -0.062247 0.009320
v -0.004258 -0.097625 0.004581
v 0.004904 -0.092888 0.009636
v -0.000153 -0.060032 0.005530
v 0.000796 -0.096678 0.013111
v 0.003007 -0.060032 0.007109
v 0.004587 -0.091941 0.007426
v -0.010260 -0.099522 0.007742
v 0.003956 -0.090358 0.011532
f 43 24 64 
f 4 6 9 
f 6 4 10 
f 9 6 14 
f 9 14 20 
f 9 20 21 
f 4 9 25 
f 6 18 28 
f 18 19 28 
f 2 3 31 
f 4 25 31 
f 25 15 31 
f 6 10 32 
f 18 6 32 
f 10 30 32 
f 30 8 32 
f 27 13 33 
f 17 3 34 
f 19 8 35 
f 3 17 36 
f 31 3 36 
f 4 31 36 
f 10 4 37 
f 17 10 37 
f 4 36 37 
f 36 17 37 
f 24 12 38 
f 12 35 39 
f 1 38 39 
f 38 12 39 
f 22 11 40 
f 9 21 42 
f 22 9 42 
f 14 6 43 
f 11 29 44 
f 2 31 44 
f 31 15 44 
f 15 40 44 
f 40 11 44 
f 25 9 45 
f 15 25 45 
f 13 23 46 
f 29 11 46 
f 16 29 46 
f 11 33 46 
f 33 13 46 
f 8 19 47 
f 19 18 47 
f 18 32 47 
f 32 8 47 
f 7 26 48 
f 26 13 48 
f 13 27 48 
f 30 17 49 
f 8 30 49 
f 34 16 49 
f 17 34 49 
f 35 8 49 
f 16 35 49 
f 23 13 50 
f 13 26 50 
f 1 39 50 
f 39 23 50 
f 41 1 50 
f 35 16 51 
f 23 39 51 
f 39 35 51 
f 46 23 51 
f 16 46 51 
f 6 28 52 
f 43 6 52 
f 24 43 52 
f 21 5 53 
f 42 21 53 
f 22 42 53 
f 9 22 54 
f 40 15 54 
f 22 40 54 
f 45 9 54 
f 15 45 54 
f 10 17 55 
f 30 10 55 
f 17 30 55 
f 20 14 56 
f 41 20 56 
f 11 22 57 
f 5 27 57 
f 33 11 57 
f 27 33 57 
f 53 5 57 
f 22 53 57 
f 38 1 58 
f 14 38 58 
f 1 41 58 
f 56 14 58 
f 41 56 58 
f 5 21 59 
f 21 20 59 
f 27 5 59 
f 7 48 59 
f 48 27 59 
f 12 24 60 
f 28 19 60 
f 35 12 60 
f 19 35 60 
f 24 52 60 
f 52 28 60 
f 26 7 61 
f 7 59 61 
f 59 20 61 
f 20 41 62 
f 50 26 62 
f 41 50 62 
f 26 61 62 
f 61 20 62 
f 3 2 63 
f 29 16 63 
f 34 3 63 
f 16 34 63 
f 44 29 63 
f 2 44 63 
f 38 14 64 
f 24 38 64 
f 14 43 64 
o convex_1
v 0.004589 0.015788 0.009005
v -0.012473 -0.010099 0.009005
v -0.012473 -0.010099 0.009320
v -0.011524 0.079305 0.007742
v -0.006469 0.079305 0.013111
v -0.000784 -0.060032 0.012795
v -0.001731 -0.060032 0.005215
v 0.000480 0.078023 0.005530
v 0.002376 0.076141 0.011847
v -0.009629 -0.060032 0.011847
v -0.008365 0.004113 0.004898
v -0.010260 -0.060032 0.006794
v 0.003009 -0.060032 0.007110
v -0.010576 0.075500 0.011847
v -0.005521 0.003485 0.013743
v 0.003324 -0.030639 0.011532
v -0.004574 0.079305 0.004899
v -0.000151 0.009487 0.013428
v 0.003324 0.078664 0.007425
v 0.000480 0.003799 0.004898
v -0.010893 0.008218 0.005846
v 0.003009 0.005068 0.005846
v -0.011524 0.004113 0.011848
v -0.009629 0.076441 0.005846
v -0.001731 0.079305 0.013112
v 0.003324 -0.060032 0.010584
v -0.005205 -0.016741 0.004581
v -0.011840 0.076141 0.010268
v 0.003956 0.010728 0.011532
v -0.007733 0.003799 0.013428
v -0.006785 -0.060032 0.012795
v -0.007418 -0.060032 0.005530
v 0.003324 0.079305 0.010584
v 0.004589 -0.000306 0.007742
v -0.010893 -0.060032 0.010584
v -0.012473 -0.000620 0.007742
v -0.001100 0.010087 0.004582
v 0.004589 0.003799 0.010584
v 0.001744 -0.004739 0.012795
v 0.001111 -0.054017 0.005846
v -0.012473 0.002217 0.010584
v -0.003627 -0.034431 0.013427
v -0.011209 -0.060032 0.009005
v -0.006785 0.010400 0.004581
v -0.002364 0.009487 0.013743
v -0.011209 0.075186 0.006794
v 0.002060 -0.060032 0.011847
v 0.004271 -0.029057 0.008690
v -0.007733 0.076754 0.005215
v -0.009629 -0.002843 0.012796
v -0.008996 0.079305 0.012479
v -0.002048 0.075500 0.004899
v 0.003009 0.075500 0.006794
v 0.001111 0.076441 0.012480
v 0.003640 0.076141 0.010268
v -0.012473 0.013251 0.007742
v -0.009313 -0.024638 0.005530
v -0.005838 -0.060032 0.005215
v 0.004271 0.011996 0.007109
v 0.003640 0.077068 0.008057
v -0.011840 0.074859 0.007742
v 0.001744 0.013878 0.012795
v -0.011840 -0.024638 0.007425
v -0.003627 -0.022429 0.004581
f 122 91 128 
f 71 70 74 
f 71 74 76 
f 70 71 77 
f 68 69 81 
f 72 81 83 
f 84 72 86 
f 68 81 88 
f 75 85 88 
f 81 69 89 
f 70 77 90 
f 87 78 92 
f 79 69 94 
f 74 70 95 
f 79 94 95 
f 71 76 96 
f 83 81 97 
f 81 89 97 
f 73 93 97 
f 76 74 99 
f 74 87 99 
f 66 67 100 
f 84 71 101 
f 80 90 102 
f 93 80 102 
f 98 65 102 
f 82 70 103 
f 80 93 103 
f 77 71 104 
f 71 84 104 
f 86 77 104 
f 84 86 104 
f 87 92 105 
f 67 99 105 
f 99 87 105 
f 100 67 105 
f 95 70 106 
f 79 95 106 
f 67 66 107 
f 99 67 107 
f 76 99 107 
f 91 75 108 
f 81 101 108 
f 69 79 109 
f 70 82 109 
f 89 69 109 
f 82 89 109 
f 79 106 109 
f 106 70 109 
f 68 88 110 
f 88 85 110 
f 70 90 111 
f 90 80 111 
f 103 70 111 
f 80 103 111 
f 90 77 112 
f 77 98 112 
f 102 90 112 
f 98 102 112 
f 88 81 113 
f 75 88 113 
f 81 108 113 
f 108 75 113 
f 87 74 114 
f 78 87 114 
f 74 95 114 
f 95 94 114 
f 69 68 115 
f 68 92 115 
f 92 78 115 
f 94 69 115 
f 78 114 115 
f 114 94 115 
f 81 72 116 
f 72 84 116 
f 101 81 116 
f 84 101 116 
f 72 83 117 
f 86 72 117 
f 89 82 118 
f 97 89 118 
f 73 97 118 
f 97 93 119 
f 93 102 119 
f 102 65 119 
f 85 100 120 
f 105 92 120 
f 100 105 120 
f 110 85 120 
f 76 85 121 
f 85 75 121 
f 96 76 121 
f 75 96 121 
f 75 91 122 
f 71 96 122 
f 96 75 122 
f 77 86 123 
f 98 77 123 
f 117 83 123 
f 86 117 123 
f 83 97 124 
f 65 98 124 
f 119 65 124 
f 97 119 124 
f 123 83 124 
f 98 123 124 
f 92 68 125 
f 68 110 125 
f 120 92 125 
f 110 120 125 
f 93 73 126 
f 82 103 126 
f 103 93 126 
f 118 82 126 
f 73 118 126 
f 85 76 127 
f 66 100 127 
f 100 85 127 
f 107 66 127 
f 76 107 127 
f 101 71 128 
f 91 108 128 
f 108 101 128 
f 71 122 128 
o convex_2
v 0.029230 0.088155 0.017850
v 0.020703 0.087837 -0.000158
v 0.016595 0.087837 0.000160
v 0.023229 0.096998 0.008057
v 0.010594 0.085311 0.014374
v 0.031127 0.080570 0.006794
v 0.031443 0.094153 0.003634
v 0.010594 0.094153 0.011531
v 0.016279 0.079937 0.009320
v 0.031443 0.094785 0.013743
v 0.010594 0.092574 0.004267
v 0.031127 0.082150 0.014376
v 0.016279 0.092258 0.016901
v 0.010594 0.084678 0.004584
v 0.027651 0.084047 0.001422
v 0.016595 0.084362 0.016586
v 0.016279 0.095100 0.003951
v 0.031759 0.087837 0.001422
v 0.016595 0.081517 0.004584
v 0.016279 0.096680 0.010898
v 0.025124 0.091625 0.000475
v 0.032391 0.087206 0.012478
v 0.025442 0.080255 0.012161
v 0.031127 0.091309 0.016903
v 0.015963 0.089414 0.017848
v 0.031127 0.096364 0.010269
v 0.025124 0.095100 0.014692
v 0.024177 0.084363 0.017219
v 0.016279 0.090677 0.000477
v 0.010594 0.082781 0.008374
v 0.016279 0.080886 0.012478
v 0.010594 0.091625 0.014374
v 0.016279 0.084678 0.001424
v 0.015963 0.096680 0.007427
v 0.024808 0.091309 0.017850
v 0.026703 0.096049 0.005214
v 0.024808 0.079937 0.006794
v 0.032075 0.094154 0.007112
v 0.010594 0.086257 0.003320
v 0.031443 0.085311 0.016588
v 0.031759 0.080885 0.009633
v 0.015963 0.095100 0.014058
v 0.029864 0.089099 0.000475
v 0.023229 0.088155 0.018483
v 0.024493 0.081834 0.003318
v 0.031127 0.084047 0.002055
v 0.022282 0.081519 0.014376
v 0.032391 0.086889 0.005847
v 0.023545 0.093520 0.001738
v 0.010594 0.094469 0.007427
v 0.028916 0.079937 0.009951
v 0.016279 0.086891 0.017848
v 0.025442 0.096682 0.011529
v 0.024177 0.086889 -0.000158
v 0.031127 0.096049 0.006479
v 0.032075 0.091309 0.014692
v 0.031127 0.091625 0.001422
v 0.031443 0.081834 0.004583
v 0.016279 0.080255 0.007112
v 0.010594 0.083098 0.010898
v 0.025758 0.092890 0.016903
v 0.016279 0.092889 0.001740
v 0.010594 0.087837 0.015005
v 0.024808 0.089730 -0.000158
f 149 185 192 
f 133 136 139 
f 133 139 142 
f 130 131 157 
f 133 142 158 
f 144 133 159 
f 137 151 159 
f 136 133 160 
f 153 141 160 
f 147 142 161 
f 148 132 162 
f 129 152 163 
f 141 153 163 
f 162 132 164 
f 145 162 164 
f 146 135 166 
f 154 138 166 
f 142 139 167 
f 157 131 167 
f 139 157 167 
f 131 161 167 
f 161 142 167 
f 152 129 168 
f 129 156 168 
f 156 140 168 
f 168 140 169 
f 150 168 169 
f 148 136 170 
f 141 155 170 
f 136 160 170 
f 160 141 170 
f 156 129 172 
f 129 163 172 
f 163 153 172 
f 161 143 173 
f 147 161 173 
f 134 165 173 
f 165 147 173 
f 171 146 174 
f 151 140 175 
f 140 156 175 
f 156 144 175 
f 144 159 175 
f 159 151 175 
f 146 166 176 
f 166 150 176 
f 150 169 176 
f 145 164 177 
f 164 135 177 
f 139 136 178 
f 145 139 178 
f 136 148 178 
f 162 145 178 
f 148 162 178 
f 151 137 179 
f 140 151 179 
f 165 134 179 
f 137 165 179 
f 134 169 179 
f 169 140 179 
f 133 144 180 
f 144 156 180 
f 172 153 180 
f 156 172 180 
f 132 148 181 
f 154 132 181 
f 138 154 181 
f 155 138 181 
f 148 170 181 
f 170 155 181 
f 131 130 182 
f 161 131 182 
f 143 161 182 
f 174 143 182 
f 171 174 182 
f 132 154 183 
f 135 164 183 
f 164 132 183 
f 166 135 183 
f 154 166 183 
f 138 152 184 
f 166 138 184 
f 150 166 184 
f 168 150 184 
f 152 168 184 
f 135 146 185 
f 146 171 185 
f 177 135 185 
f 149 177 185 
f 169 134 186 
f 134 173 186 
f 173 143 186 
f 174 146 186 
f 143 174 186 
f 146 176 186 
f 176 169 186 
f 142 147 187 
f 137 158 187 
f 158 142 187 
f 165 137 187 
f 147 165 187 
f 133 158 188 
f 158 137 188 
f 159 133 188 
f 137 159 188 
f 152 138 189 
f 155 141 189 
f 138 155 189 
f 163 152 189 
f 141 163 189 
f 139 145 190 
f 157 139 190 
f 149 157 190 
f 177 149 190 
f 145 177 190 
f 160 133 191 
f 153 160 191 
f 133 180 191 
f 180 153 191 
f 130 157 192 
f 157 149 192 
f 182 130 192 
f 171 182 192 
f 185 171 192 
o convex_3
v -0.025428 0.095417 0.012164
v -0.025428 0.080569 0.008375
v -0.026060 0.080885 0.007110
v -0.018161 0.090362 0.003319
v -0.018161 0.085941 0.014691
v -0.032378 0.090046 0.009951
v -0.027321 0.090362 0.002054
v -0.027005 0.086258 0.016271
v -0.018161 0.084362 0.004899
v -0.018161 0.092574 0.013426
v -0.025744 0.095417 0.006162
v -0.031113 0.084047 0.008375
v -0.025744 0.085311 0.001738
v -0.025114 0.090993 0.016587
v -0.018161 0.094155 0.008058
v -0.025428 0.081833 0.013427
v -0.018161 0.082783 0.010268
v -0.031113 0.089413 0.004898
v -0.030165 0.093838 0.010268
v -0.030797 0.087206 0.013743
v -0.029218 0.091627 0.014374
v -0.024480 0.091942 0.002054
v -0.029218 0.084677 0.003950
v -0.029534 0.093206 0.005530
v -0.029534 0.083096 0.012164
v -0.024480 0.081517 0.005215
v -0.024480 0.085626 0.016587
v -0.024480 0.087522 0.001106
v -0.018161 0.089730 0.015008
v -0.024480 0.094153 0.003950
v -0.018161 0.085626 0.003634
v -0.032378 0.086888 0.008691
v -0.025428 0.096051 0.009319
v -0.025744 0.094468 0.013743
v -0.018161 0.094155 0.010268
v -0.028902 0.081833 0.008691
v -0.018161 0.092574 0.004899
v -0.018161 0.082783 0.008058
v -0.024480 0.082781 0.014691
v -0.028902 0.087206 0.002686
v -0.024480 0.084047 0.002371
v -0.027637 0.082466 0.004898
v -0.032061 0.090678 0.007427
v -0.031429 0.086573 0.005530
v -0.031745 0.085626 0.011216
v -0.025744 0.080885 0.011216
v -0.028586 0.089731 0.015639
v -0.024164 0.086888 0.016904
v -0.028270 0.084362 0.014691
v -0.029218 0.094468 0.007427
v -0.031113 0.090678 0.012793
v -0.027637 0.092891 0.003634
v -0.018161 0.083730 0.012479
v -0.024164 0.080885 0.010899
v -0.027954 0.094787 0.011847
v -0.024164 0.092891 0.015323
v -0.024480 0.095417 0.006162
v -0.018161 0.087520 0.003003
v -0.024480 0.089098 0.001106
v -0.024480 0.080569 0.008375
v -0.030481 0.084047 0.006162
v -0.029534 0.090046 0.003319
v -0.024480 0.090046 0.016904
v -0.024480 0.094468 0.013743
f 226 248 256 
f 196 197 201 
f 197 196 202 
f 202 196 207 
f 201 197 209 
f 197 202 221 
f 196 201 223 
f 213 206 226 
f 202 207 227 
f 225 193 227 
f 207 225 227 
f 195 194 228 
f 217 204 228 
f 207 196 229 
f 196 214 229 
f 214 222 229 
f 201 209 230 
f 218 201 230 
f 197 219 231 
f 205 215 232 
f 199 220 232 
f 220 205 232 
f 201 218 233 
f 205 220 233 
f 223 201 233 
f 220 223 233 
f 215 205 234 
f 218 195 234 
f 195 228 234 
f 205 233 234 
f 233 218 234 
f 198 211 235 
f 216 210 235 
f 224 198 235 
f 224 235 236 
f 204 224 236 
f 210 232 236 
f 232 215 236 
f 235 210 236 
f 212 198 237 
f 204 217 237 
f 217 212 237 
f 198 224 237 
f 224 204 237 
f 208 217 238 
f 228 194 238 
f 217 228 238 
f 212 200 239 
f 206 213 239 
f 219 197 240 
f 200 219 240 
f 197 221 240 
f 200 212 241 
f 217 208 241 
f 212 217 241 
f 219 200 241 
f 208 231 241 
f 231 219 241 
f 203 216 242 
f 225 203 242 
f 235 211 242 
f 216 235 242 
f 211 198 243 
f 198 212 243 
f 213 211 243 
f 212 239 243 
f 239 213 243 
f 214 199 244 
f 216 203 244 
f 203 222 244 
f 222 214 244 
f 209 197 245 
f 197 231 245 
f 245 231 246 
f 231 208 246 
f 208 238 246 
f 209 245 246 
f 211 213 247 
f 193 225 247 
f 226 193 247 
f 213 226 247 
f 225 242 247 
f 242 211 247 
f 221 202 248 
f 226 206 248 
f 222 203 249 
f 225 207 249 
f 203 225 249 
f 207 229 249 
f 229 222 249 
f 196 223 250 
f 223 220 250 
f 199 214 251 
f 214 196 251 
f 220 199 251 
f 196 250 251 
f 250 220 251 
f 194 195 252 
f 195 218 252 
f 230 209 252 
f 218 230 252 
f 238 194 252 
f 209 246 252 
f 246 238 252 
f 228 204 253 
f 215 234 253 
f 234 228 253 
f 204 236 253 
f 236 215 253 
f 210 216 254 
f 199 232 254 
f 232 210 254 
f 244 199 254 
f 216 244 254 
f 239 200 255 
f 206 239 255 
f 200 240 255 
f 240 221 255 
f 221 248 255 
f 248 206 255 
f 193 226 256 
f 227 193 256 
f 202 227 256 
f 248 202 256 
o convex_4
v -0.007100 0.079305 0.003636
v -0.002996 0.100158 0.010584
v -0.002996 0.100158 0.007426
v 0.010592 0.082783 0.009634
v -0.018160 0.086890 0.015006
v 0.000480 0.081518 0.016587
v -0.018160 0.091626 0.003951
v 0.008062 0.089099 0.002055
v 0.010592 0.092889 0.013742
v -0.009627 0.098260 0.014059
v -0.018160 0.082783 0.010266
v -0.006469 0.079305 0.015006
v -0.013421 0.087837 0.001423
v -0.006784 0.098892 0.003951
v 0.010592 0.093206 0.004898
v -0.000469 0.080256 0.002055
v 0.001743 0.088470 0.016904
v -0.018160 0.094153 0.010584
v 0.003325 0.079305 0.010584
v 0.010592 0.085627 0.014690
v -0.011839 0.087206 0.016904
v -0.018160 0.084994 0.003951
v 0.010592 0.085627 0.003636
v -0.003627 0.098578 0.014376
v -0.010260 0.099207 0.008059
v -0.010575 0.080887 0.016270
v -0.011524 0.079305 0.007743
v -0.008997 0.080570 0.001740
v 0.004271 0.089099 0.001423
v 0.010274 0.094785 0.009319
v -0.018160 0.091626 0.014376
v 0.000480 0.097629 0.003951
v 0.006798 0.089099 0.016270
v 0.003007 0.079305 0.007111
v -0.010575 0.091626 0.016270
v 0.003325 0.084047 0.001423
v -0.010575 0.092256 0.002055
v 0.000164 0.097945 0.014059
v -0.010891 0.097313 0.003951
v -0.018160 0.094153 0.007743
v 0.010592 0.083416 0.006479
v -0.000154 0.080570 0.016270
v -0.011209 0.079305 0.010898
v -0.018160 0.083100 0.007111
v 0.000480 0.099207 0.008059
v -0.006154 0.100158 0.011215
v -0.016894 0.088786 0.002372
v 0.010592 0.084047 0.012795
v 0.003325 0.085627 0.016904
v -0.003311 0.095102 0.002687
v -0.011524 0.083730 0.001423
v -0.018160 0.084363 0.013426
v 0.000164 0.099207 0.010898
v -0.006784 0.080570 0.016587
v -0.015315 0.089731 0.015953
v 0.010592 0.094469 0.007426
v 0.010592 0.091311 0.003636
v 0.001113 0.091626 0.016270
v 0.010592 0.094155 0.011531
v -0.009945 0.099207 0.010898
v -0.002681 0.079940 0.001740
v -0.006784 0.100158 0.007426
v 0.001743 0.081203 0.002055
v -0.010891 0.081203 0.002055
f 307 284 320 
f 261 263 267 
f 265 260 271 
f 263 261 274 
f 268 257 275 
f 260 265 276 
f 267 263 278 
f 271 260 279 
f 277 261 282 
f 257 268 283 
f 257 283 284 
f 274 261 287 
f 266 274 287 
f 270 259 288 
f 264 285 288 
f 276 265 289 
f 260 275 290 
f 275 257 290 
f 277 273 291 
f 280 266 291 
f 264 279 292 
f 285 264 292 
f 269 285 292 
f 285 269 293 
f 258 280 294 
f 289 265 294 
f 281 270 295 
f 270 293 295 
f 263 274 296 
f 274 281 296 
f 295 263 296 
f 281 295 296 
f 279 260 297 
f 260 290 297 
f 268 275 298 
f 276 262 298 
f 282 267 299 
f 268 282 299 
f 283 268 299 
f 267 283 299 
f 267 278 300 
f 283 267 300 
f 259 258 301 
f 288 259 301 
f 258 259 302 
f 280 258 302 
f 266 280 302 
f 278 263 303 
f 293 269 303 
f 263 295 303 
f 295 293 303 
f 275 260 304 
f 260 276 304 
f 298 275 304 
f 276 298 304 
f 262 276 305 
f 273 277 305 
f 289 273 305 
f 276 289 305 
f 270 288 306 
f 288 285 306 
f 293 270 306 
f 285 293 306 
f 269 292 307 
f 278 303 307 
f 303 269 307 
f 261 267 308 
f 282 261 308 
f 267 282 308 
f 258 294 309 
f 301 258 309 
f 286 301 309 
f 282 268 310 
f 277 282 310 
f 268 298 310 
f 298 262 310 
f 262 305 310 
f 305 277 310 
f 261 277 311 
f 287 261 311 
f 266 287 311 
f 277 291 311 
f 291 266 311 
f 265 271 312 
f 271 288 312 
f 301 286 312 
f 288 301 312 
f 271 279 313 
f 279 264 313 
f 264 288 313 
f 288 271 313 
f 273 289 314 
f 291 273 314 
f 280 291 314 
f 294 280 314 
f 289 294 314 
f 294 265 315 
f 286 309 315 
f 309 294 315 
f 265 312 315 
f 312 286 315 
f 274 266 316 
f 281 274 316 
f 266 302 316 
f 257 284 317 
f 290 257 317 
f 272 290 317 
f 284 307 317 
f 307 292 317 
f 259 270 318 
f 270 281 318 
f 302 259 318 
f 281 316 318 
f 316 302 318 
f 290 272 319 
f 292 279 319 
f 279 297 319 
f 297 290 319 
f 272 317 319 
f 317 292 319 
f 284 283 320 
f 300 278 320 
f 283 300 320 
f 278 307 320 
