# https://github.com/mikedh/trimesh
mtllib material0.mtl
usemtl material0
v 0.00000000 0.08003589 0.03992850
v -0.00000000 0.08003587 0.00000000
v -0.00693399 -0.00007305 0.01565685
v -0.00693399 -0.00007305 0.01565685
v -0.00693399 -0.00007305 0.01565685
v 0.00828712 -0.08945134 0.02766945
v 0.00828712 -0.08945134 0.02766945
v -0.00500542 0.05249303 0.01601964
v -0.00500542 0.05249303 0.01601964
v -0.00500542 0.05249303 0.02390886
v -0.00500542 0.05249303 0.02390886
v -0.01192636 -0.09435969 0.01452354
v -0.01192636 -0.09435969 0.01452354
v 0.00972376 -0.09960110 0.02395476
v 0.00972376 -0.09960110 0.01597375
v -0.00455049 0.00051686 0.02395749
v -0.00455049 0.00051686 0.02395749
v -0.00455049 0.00051686 0.01597101
v -0.00455049 0.00051686 0.01597101
v -0.03435594 0.06831277 0.03156841
v -0.03435594 0.06831277 0.03156841
v -0.03435594 0.06831277 0.03156841
v -0.01137357 -0.09044927 0.02502058
v -0.01137357 -0.09044927 0.02502058
v -0.01137357 -0.09044927 0.01490793
v -0.01137357 -0.09044927 0.01490793
v -0.00801665 0.05751976 0.01426763
v -0.00801665 0.05751976 0.02566087
v -0.00448833 0.00036418 0.02469911
v -0.00448833 0.00036418 0.02469911
v -0.00448833 0.00036418 0.01522939
v 0.03594515 0.09407894 0.01419894
v 0.03594515 0.09407894 0.01419894
v 0.03594515 0.09407894 0.02572952
v 0.03594515 0.09407894 0.02572952
v 0.03167045 0.09892199 0.01996423
v 0.03167045 0.09892199 0.01996423
v 0.03178137 0.06686884 0.00668733
v 0.03178137 0.06686884 0.00668733
v 0.03178137 0.06686884 0.00668733
v 0.03178137 0.06686884 0.03324117
v 0.03178137 0.06686884 0.03324117
v 0.03178137 0.06686884 0.03324117
v 0.03191577 0.08715886 0.00303458
v 0.03660932 0.09333632 0.01996423
v 0.00885771 -0.09350440 0.02804722
v 0.00885771 -0.09350440 0.02804722
v 0.03443627 0.06855082 0.03156839
v 0.03443627 0.06855082 0.03156839
v 0.03443627 0.06855082 0.03156839
v 0.00963754 0.05956373 0.01450685
v 0.00963754 0.05956373 0.01450685
v -0.03128787 0.09333695 0.00655497
v -0.03128787 0.09333695 0.03337353
v -0.03128787 0.09333695 0.03337353
v -0.03179546 0.09727308 0.02714967
v -0.03179546 0.09727308 0.02714967
v -0.03179546 0.09727308 0.01277883
v -0.03179546 0.09727308 0.01277883
v 0.03668715 0.07084759 0.02927945
v 0.03668715 0.07084759 0.01064903
v -0.01181555 -0.09357594 0.01460059
v -0.01181555 -0.09357594 0.01460059
v -0.01181555 -0.09357594 0.02532791
v -0.01181555 -0.09357594 0.02532791
v 0.00006384 0.06159145 0.02760423
v -0.03173543 0.07992606 0.03874068
v -0.03173543 0.07992606 0.03874068
v -0.03173543 0.07992606 0.00118784
v -0.03173543 0.07992606 0.00118784
v 0.00402490 0.00039364 0.02469911
v 0.00402490 0.00039364 0.02469911
v 0.00402490 0.00039364 0.01522939
v -0.00004885 0.09415267 0.00584741
v -0.00004885 0.09415267 0.03408109
v -0.00004885 0.09415267 0.03408109
v -0.03603017 0.09056410 0.03061711
v -0.03603017 0.09056410 0.03061711
v 0.00692251 -0.09961079 0.01357543
v 0.00692251 -0.09961079 0.01357543
v -0.03441784 0.08619692 0.00480272
v -0.03441784 0.08619692 0.00480272
v -0.03441784 0.08619692 0.00480272
v -0.03441784 0.08619692 0.03512579
v -0.01062646 0.06188141 0.01508437
v -0.01062646 0.06188141 0.02484414
v 0.03599333 0.08016042 0.03502966
v 0.03599333 0.08016042 0.03502966
v -0.03130707 0.09889126 0.01996425
v -0.00821770 -0.00668529 0.02514364
v -0.00821770 -0.00668529 0.02514364
v -0.00821770 -0.00668529 0.01478486
v -0.00821770 -0.00668529 0.01478486
v 0.01152034 -0.09393064 0.02512401
v 0.01152034 -0.09393064 0.02512401
v 0.01152034 -0.09393064 0.01480450
v 0.01152034 -0.09393064 0.01480450
v -0.03670050 0.09308263 0.01996425
v -0.03189734 0.06758399 0.03230571
v -0.03189734 0.06758399 0.03230571
v -0.03189734 0.06758399 0.03230571
v -0.03189734 0.06758399 0.00762283
v -0.03189734 0.06758399 0.00762283
v -0.03189734 0.06758399 0.00762283
v 0.00494127 0.05252745 0.01601964
v 0.00494127 0.05252745 0.01601964
v 0.00494127 0.05252745 0.02390886
v 0.00494127 0.05252745 0.02390886
v -0.01106322 -0.09658777 0.02737229
v -0.01106322 -0.09658777 0.02737229
v -0.01106322 -0.09658777 0.01255621
v -0.01106322 -0.09658777 0.01255621
v 0.00871314 0.05956053 0.02578104
v 0.00871314 0.05956053 0.01414746
v 0.00904718 -0.09651818 0.01175976
v 0.00904718 -0.09651818 0.02816874
v -0.03662268 0.07059387 0.02927947
v -0.03662268 0.07059387 0.01064905
v 0.03200346 0.06182200 0.01996425
v 0.03196431 0.07313393 0.03689390
v 0.03196431 0.07313395 0.00303458
v 0.03601327 0.07439520 0.00604561
v 0.03601327 0.07439520 0.00604561
v 0.03601327 0.07439520 0.03388287
v 0.03601327 0.07439520 0.03388287
v 0.03437437 0.08643497 0.00480270
v 0.03437437 0.08643497 0.00480270
v 0.03437437 0.08643497 0.00480270
v 0.03437437 0.08643497 0.03512577
v -0.03124146 0.07992775 0.00100066
v -0.03124146 0.07992777 0.03892786
v -0.03189520 0.06696803 0.03292167
v 0.01135760 -0.09535943 0.02743402
v 0.01135760 -0.09535943 0.02743402
v 0.01135760 -0.09535943 0.01249448
v 0.01135760 -0.09535943 0.01249448
v -0.03180041 0.09870236 0.01996425
v -0.03180041 0.09870236 0.01996425
v 0.03188425 0.09627118 0.01328508
v 0.03188425 0.09627118 0.01328508
v 0.03188425 0.09627118 0.02664339
v 0.03188425 0.09627118 0.02664339
v 0.00990922 -0.09878714 0.02644291
v -0.01010331 -0.09836938 0.02672496
v -0.01010331 -0.09836938 0.02672496
v -0.01010331 -0.09836938 0.02672496
v -0.01010331 -0.09836938 0.01320354
v -0.01010331 -0.09836938 0.01320354
v -0.01010331 -0.09836938 0.01320354
v 0.03176029 0.07296031 0.03731140
v 0.03176029 0.07296031 0.03731140
v 0.03176029 0.07296031 0.00261709
v 0.03176029 0.07296031 0.00261709
v 0.03126658 0.07288699 0.03748433
v -0.03594118 0.06484602 0.01996427
v -0.03594118 0.06484602 0.01996427
v 0.00748955 0.05419452 0.01426763
v 0.00748955 0.05419452 0.02566087
v 0.01143151 -0.08944046 0.02495016
v 0.01143151 -0.08944046 0.02495016
v 0.01143151 -0.08944046 0.01497835
v 0.01143151 -0.08944046 0.01497835
v -0.03187964 0.06247200 0.01996427
v -0.03187964 0.06247200 0.01996427
v -0.00822918 -0.09043838 0.02773989
v -0.00822918 -0.09043838 0.01218861
v -0.00822918 -0.09043838 0.01218861
v -0.03667236 0.08495034 0.03213517
v -0.03667236 0.08495034 0.00779336
v -0.00986546 -0.07134406 0.02395211
v -0.00986546 -0.07134406 0.01597638
v -0.03196315 0.08660444 0.03608916
v -0.03196315 0.08660444 0.03608916
v -0.03196315 0.08660444 0.00383937
v -0.03196315 0.08660444 0.00383937
v -0.03196315 0.08660444 0.00383937
v 0.01200210 -0.09349351 0.01460059
v 0.01200210 -0.09349351 0.01460059
v 0.01200210 -0.09349351 0.02532791
v 0.01200210 -0.09349351 0.02532791
v -0.03119506 0.06651857 0.03337355
v -0.03119506 0.06651857 0.03337355
v -0.03119506 0.06651857 0.00655499
v -0.03119506 0.06651857 0.00655499
v 0.03118083 0.09766395 0.02722129
v 0.03118083 0.09766395 0.01270717
v 0.00851945 -0.09394102 0.01220931
v 0.00851945 -0.09394102 0.01220931
v 0.00851945 -0.09394102 0.02771920
v 0.00851945 -0.09394102 0.02771920
v 0.00851945 -0.09394102 0.02771920
v -0.03661281 0.06773820 0.02500563
v -0.03661281 0.06773820 0.01492293
v -0.03595647 0.06925854 0.00931141
v -0.03595647 0.06925854 0.00931141
v -0.00867116 -0.09356506 0.01188128
v -0.00867116 -0.09356506 0.02804722
v -0.00867116 -0.09356506 0.02804722
v -0.01198418 -0.09659095 0.02544945
v -0.01198418 -0.09659095 0.01447906
v -0.01127303 -0.08951901 0.02495016
v -0.01127303 -0.08951901 0.02495016
v -0.01127303 -0.08951901 0.01497835
v -0.01127303 -0.08951901 0.01497835
v -0.00912785 -0.00668843 0.01665329
v 0.00809965 -0.09830640 0.01240707
v 0.00809965 -0.09830640 0.02752143
v 0.00809965 -0.09830640 0.02752143
v 0.00897390 -0.09428737 0.01180425
v 0.00897390 -0.09428737 0.01180425
v -0.00992950 -0.05284043 0.02395211
v -0.00992950 -0.05284043 0.01597640
v 0.00839408 -0.09038087 0.02773989
v 0.00839408 -0.09038087 0.01218861
v 0.00839408 -0.09038087 0.01218861
v 0.03130208 0.06262403 0.01270721
v 0.03130208 0.06262403 0.02722131
v 0.00969893 -0.01369576 0.02395211
v 0.00969893 -0.01369576 0.02395211
v 0.00969893 -0.01369576 0.01597640
v 0.00969893 -0.01369576 0.01597640
v 0.00780298 -0.00662984 0.01478486
v 0.00780298 -0.00662984 0.01478486
v 0.00780298 -0.00662986 0.02514364
v 0.00780298 -0.00662986 0.02514364
v 0.03196317 0.07346728 0.03608914
v 0.03196317 0.07346728 0.03608914
v -0.00594281 0.00051205 0.01641440
v -0.00594281 0.00051205 0.01641440
v -0.00594281 0.00051205 0.01641440
v -0.00594281 0.00051205 0.02351410
v -0.00594281 0.00051205 0.02351410
v -0.00594281 0.00051205 0.02351410
v 0.00644677 -0.01360780 0.01346572
v 0.00644677 -0.01360780 0.01346572
v 0.00738365 -0.00002351 0.01752528
v 0.00738365 -0.00002351 0.01752528
v 0.00738365 -0.00002351 0.02240323
v 0.00738365 -0.00002351 0.02240323
v 0.03198274 0.06780504 0.00762281
v 0.03198274 0.06780504 0.00762281
v 0.03198274 0.06780504 0.00762281
v 0.03198274 0.06780504 0.03230569
v 0.03198274 0.06780504 0.03230569
v 0.03198274 0.06780504 0.03230569
v -0.00901052 -0.01366128 0.02568887
v -0.00901052 -0.01366128 0.02568887
v -0.00901052 -0.01366128 0.02568887
v -0.00901052 -0.01366128 0.01423964
v -0.00901052 -0.01366128 0.01423964
v -0.00901052 -0.01366128 0.01423964
v -0.00650912 0.05301710 0.01473868
v -0.00650912 0.05301710 0.01473868
v -0.00650912 0.05301710 0.02518982
v -0.00650912 0.05301710 0.02518982
v -0.00657436 0.00035696 0.02396436
v -0.00657436 0.00035696 0.02396436
v 0.00983417 -0.05277205 0.01597638
v 0.00983417 -0.05277205 0.02395209
v 0.01108114 -0.09349671 0.01267775
v 0.01108114 -0.09349671 0.01267775
v 0.01108114 -0.09349671 0.01267775
v 0.01108114 -0.09349671 0.02725075
v 0.01108114 -0.09349671 0.02725075
v 0.01108114 -0.09349671 0.02725075
v 0.00611095 0.00040085 0.02396436
v 0.00611095 0.00040085 0.02396436
v 0.00611095 0.00040085 0.01596414
v 0.01219157 -0.09650730 0.02544945
v 0.01219157 -0.09650730 0.01447906
v 0.03198488 0.06718912 0.00700686
v 0.03198488 0.06718912 0.03292165
v 0.03594120 0.09522577 0.01996423
v 0.03594120 0.09522577 0.01996423
v -0.03126656 0.08718475 0.03748433
v 0.03194005 0.08014638 0.03741770
v 0.03194005 0.08014638 0.03741770
v 0.03194005 0.08014640 0.00163971
v 0.03194005 0.08014640 0.00251078
v 0.03194005 0.08014640 0.00251078
v 0.03194005 0.08014642 0.03828877
v 0.00675378 -0.07128657 0.02667142
v 0.00675378 -0.07128657 0.01325706
v 0.00947961 0.05758031 0.01549462
v 0.00947961 0.05758031 0.02443388
v -0.03604149 0.09382986 0.01419896
v -0.03604149 0.09382986 0.01419896
v -0.03604149 0.09382986 0.02572954
v -0.03604149 0.09382986 0.02572954
v 0.01075185 0.06195538 0.01508437
v 0.01075185 0.06195538 0.02484414
v -0.00861786 0.05413878 0.01549462
v -0.00861786 0.05413878 0.02443388
v 0.03189522 0.09310373 0.03292163
v -0.01059471 -0.09767273 0.01287166
v -0.01059471 -0.09767273 0.01287166
v -0.01059471 -0.09767273 0.02705684
v -0.01059471 -0.09767273 0.02705684
v -0.00681325 -0.01365368 0.02646279
v -0.00681325 -0.01365368 0.02646279
v -0.00681325 -0.01365368 0.01346572
v -0.00681325 -0.01365368 0.01346572
v 0.01080963 -0.09759866 0.01287166
v 0.01080963 -0.09759866 0.01287166
v 0.01080963 -0.09759866 0.02705684
v 0.01080963 -0.09759866 0.02705684
v 0.00427623 -0.00003425 0.01488291
v 0.00427623 -0.00003425 0.01488291
v 0.00427623 -0.00003425 0.02504559
v -0.00595121 0.05248977 0.01632265
v -0.00595121 0.05248977 0.01632265
v -0.00595121 0.05248977 0.01632265
v 0.00913420 -0.09536714 0.01169801
v 0.00913420 -0.09536714 0.02823049
v 0.03191693 0.08682549 0.03608914
v 0.03191693 0.08682549 0.03608914
v 0.03191693 0.08682549 0.00383935
v 0.03191693 0.08682549 0.00383935
v 0.03191693 0.08682549 0.00383935
v 0.03200044 0.06269305 0.01996425
v 0.03200044 0.06269305 0.01996425
v 0.00877797 -0.01369894 0.01405355
v 0.00877797 -0.01369894 0.01405355
v 0.00877797 -0.01369894 0.01405355
v 0.00877797 -0.01369894 0.02587495
v 0.00877797 -0.01369894 0.02587495
v 0.00877797 -0.01369894 0.02587495
v -0.00672107 -0.07133319 0.02667142
v -0.00672107 -0.07133319 0.01325706
v 0.03130709 0.06118052 0.01996425
v -0.03599331 0.07991132 0.03502968
v -0.03599331 0.07991132 0.03502968
v 0.00668974 -0.05278292 0.01325706
v -0.00883979 -0.09658008 0.01175976
v -0.00883979 -0.09658008 0.02816874
v 0.03603019 0.06950764 0.03061709
v 0.03603019 0.06950764 0.03061709
v -0.00812864 -0.08950815 0.01225905
v -0.00812864 -0.08950815 0.02766945
v -0.00812864 -0.08950815 0.02766945
v -0.01045259 -0.09044609 0.01298508
v -0.01045259 -0.09044609 0.01298508
v -0.01045259 -0.09044609 0.01298508
v -0.01045259 -0.09044609 0.02694342
v -0.01045259 -0.09044609 0.02694342
v -0.01045259 -0.09044609 0.02694342
v 0.03173545 0.08014568 0.00118782
v 0.03173545 0.08014568 0.00118782
v -0.00678511 -0.05282954 0.02667142
v -0.00678511 -0.05282954 0.01325708
v -0.00006382 0.09848029 0.02760423
v -0.00006382 0.09848029 0.01232428
v 0.00647350 -0.00002665 0.01565685
v 0.00647350 -0.00002665 0.01565685
v 0.00647350 -0.00002665 0.01565685
v 0.00647350 -0.00002665 0.02427165
v 0.00647350 -0.00002665 0.02427165
v 0.00647350 -0.00002665 0.02427165
v 0.01124404 -0.09829552 0.02480214
v 0.01124404 -0.09829552 0.02480214
v 0.01124404 -0.09829552 0.01512637
v 0.01124404 -0.09829552 0.01512637
v -0.00992068 -0.01366444 0.01610806
v -0.00992068 -0.01366444 0.01610806
v -0.00992068 -0.01366444 0.02382044
v -0.00992068 -0.01366444 0.02382044
v 0.00990918 -0.09878714 0.01348559
v 0.00990918 -0.09878714 0.01348559
v -0.03597337 0.07414609 0.00604563
v -0.03597337 0.07414609 0.00604563
v -0.03597337 0.07414609 0.03388289
v -0.03597337 0.07414609 0.03388289
v -0.03443625 0.09152090 0.03156839
v -0.03443625 0.09152090 0.03156839
v -0.03443625 0.09152090 0.03156839
v -0.00002644 0.08767581 0.00151971
v -0.00002644 0.08767581 0.00151971
v -0.00002644 0.08767581 0.03840882
v -0.01151567 -0.09767591 0.02513400
v -0.01151567 -0.09767591 0.01479451
v 0.01153847 -0.09036998 0.02502058
v 0.01153847 -0.09036998 0.02502058
v 0.01153847 -0.09036998 0.01490793
v 0.01153847 -0.09036998 0.01490793
v -0.03121635 0.07267077 0.03748435
v -0.03121635 0.07267079 0.00244417
v -0.03433933 0.06350624 0.01996427
v 0.03435596 0.09175896 0.03156837
v 0.03435596 0.09175896 0.03156837
v 0.03435596 0.09175896 0.03156837
v 0.00646212 -0.09994925 0.02515534
v -0.00987855 0.05949620 0.02455405
v -0.00987855 0.05949620 0.01537445
v 0.01002046 0.05956505 0.02455405
v 0.01002046 0.05956505 0.01537445
v -0.00693397 -0.00007305 0.02427165
v -0.00693397 -0.00007305 0.02427165
v -0.00693397 -0.00007305 0.02427165
v 0.03171056 0.08733108 0.03731140
v 0.03171056 0.08733108 0.03731140
v 0.03171056 0.08733108 0.00261709
v 0.03171056 0.08733108 0.00261709
v 0.03171056 0.08733108 0.00261709
v 0.00762036 0.05306599 0.02483044
v 0.00762036 0.05306599 0.02483044
v 0.00762036 0.05306599 0.02483044
v -0.01192634 -0.09435969 0.02540496
v -0.01192634 -0.09435969 0.02540496
v 0.00790482 -0.09994426 0.01528996
v 0.00790482 -0.09994426 0.02463854
v -0.01045185 -0.09400667 0.01296942
v -0.01045185 -0.09400667 0.01296942
v -0.01045185 -0.09400667 0.01296942
v -0.03188145 0.06299580 0.02697676
v -0.03188145 0.06299580 0.01295179
v -0.01024354 0.06188274 0.01421674
v -0.01024354 0.06188274 0.01421674
v -0.01024354 0.06188274 0.02571176
v -0.01024354 0.06188274 0.02571176
v 0.00879687 0.05419905 0.01549462
v 0.00879687 0.05419905 0.02443388
v 0.03445289 0.06374427 0.01996425
v 0.03199585 0.06402161 0.02664341
v 0.03199585 0.06402161 0.02664341
v 0.03199585 0.06402161 0.01328512
v 0.03199585 0.06402161 0.01328512
v 0.01095249 -0.08992631 0.01518052
v 0.01095249 -0.08992631 0.01518052
v 0.01095249 -0.08992631 0.01518052
v 0.01095249 -0.08992631 0.02474798
v 0.01095249 -0.08992631 0.02474798
v 0.01095249 -0.08992631 0.02474798
v -0.00736634 -0.00094223 0.01536628
v -0.00736634 -0.00094223 0.01536628
v -0.00736634 -0.00094223 0.02456223
v -0.00736634 -0.00094223 0.02456223
v -0.03444857 0.09507834 0.02624437
v -0.03444857 0.09507834 0.02624437
v -0.03444857 0.09507834 0.01368414
v 0.01032308 -0.09829870 0.02672496
v 0.01032308 -0.09829870 0.02672496
v 0.01032308 -0.09829870 0.02672496
v 0.01032308 -0.09829870 0.01320354
v 0.01032308 -0.09829870 0.01320354
v 0.01032308 -0.09829870 0.01320354
v 0.03191579 0.08715886 0.03689390
v 0.03187664 0.09847085 0.01996423
v 0.03595645 0.09081320 0.00931137
v 0.03595645 0.09081320 0.00931137
v 0.00006908 0.06007174 0.01996425
v 0.00963756 0.05956373 0.02542166
v 0.00963756 0.05956373 0.02542166
v 0.03434365 0.09531637 0.01368412
v 0.03434365 0.09531637 0.02624435
v 0.03434365 0.09531637 0.02624435
v -0.03167539 0.06257904 0.01277885
v -0.03167539 0.06257904 0.01277885
v -0.03167539 0.06257904 0.02714969
v -0.03167539 0.06257904 0.02714969
v 0.01227859 -0.09535625 0.02551120
v 0.01227859 -0.09535625 0.01441730
v 0.00669596 0.05306279 0.01473868
v 0.00669596 0.05306279 0.01473868
v 0.00669596 0.05306279 0.02518982
v 0.00669596 0.05306279 0.02518982
v -0.00516907 -0.00093462 0.01459235
v -0.00516907 -0.00093464 0.02533615
v 0.00782204 -0.00088969 0.02269380
v 0.00782204 -0.00088969 0.01723470
v 0.00692253 -0.09961079 0.02635308
v -0.03199863 0.09685492 0.01295177
v -0.03199863 0.09685492 0.02697674
v 0.03117583 0.09910748 0.01996423
v 0.00843486 -0.09994242 0.01639658
v 0.00843486 -0.09994242 0.02353192
v 0.03665491 0.08016271 0.03313795
v 0.03665491 0.08016271 0.00679054
v -0.00832990 -0.09399933 0.01220931
v -0.00832990 -0.09399933 0.01220931
v -0.00894448 -0.07134088 0.01405353
v -0.00894448 -0.07134088 0.01405353
v -0.00894448 -0.07134088 0.02587495
v -0.00894448 -0.07134088 0.02587495
v 0.00858622 -0.09760635 0.02785331
v 0.00858622 -0.09760635 0.01207519
v 0.00841398 0.05419772 0.01462699
v 0.00841398 0.05419772 0.01462699
v 0.00841398 0.05419772 0.02530151
v 0.00841398 0.05419772 0.02530151
v 0.00795159 -0.08993669 0.02734319
v 0.00795159 -0.08993669 0.02734319
v 0.00795159 -0.08993669 0.01258531
v 0.00795159 -0.08993669 0.01258531
v -0.03604544 0.09497666 0.01996425
v -0.03604544 0.09497666 0.01996425
v -0.00650096 0.00051012 0.01744678
v -0.00650096 0.00051012 0.01744678
v -0.00650096 0.00051012 0.02248172
v -0.00650096 0.00051012 0.02248172
v -0.00746264 -0.09884726 0.01268912
v -0.00746264 -0.09884726 0.02723938
v -0.00746264 -0.09884726 0.02723938
v 0.03168948 0.09342254 0.03324115
v 0.03168948 0.09342254 0.03324115
v 0.03168948 0.09342254 0.03324115
v 0.03168948 0.09342254 0.00668731
v 0.03168948 0.09342254 0.00668731
v 0.00628921 0.00055438 0.01744678
v 0.00628921 0.00055438 0.01744678
v 0.00628921 0.00055438 0.02248172
v 0.00628921 0.00055438 0.02248172
v -0.03439611 0.07991682 0.03637500
v -0.03439611 0.07991684 0.00355352
v 0.00897721 -0.07127886 0.01405353
v 0.00897721 -0.07127886 0.01405353
v 0.00897721 -0.07127886 0.02587495
v 0.00897721 -0.07127886 0.02587495
v 0.03663748 0.08520403 0.03213515
v 0.03663748 0.08520403 0.00779334
v -0.01035205 -0.08951583 0.02687300
v -0.01035205 -0.08951583 0.02687300
v -0.01035205 -0.08951583 0.02687300
v -0.01035205 -0.08951583 0.01305550
v -0.01035205 -0.08951583 0.01305550
v -0.01035205 -0.08951583 0.01305550
v 0.03669703 0.06799189 0.02500561
v 0.03669703 0.06799189 0.01492291
v -0.00837128 -0.09766505 0.02785331
v -0.00837128 -0.09766505 0.01207519
v -0.03669703 0.09207985 0.01492289
v -0.03669703 0.09207987 0.02500561
v -0.03663748 0.07486774 0.03213517
v -0.03663748 0.07486774 0.00779336
v 0.00768577 -0.09879483 0.01268912
v 0.00768577 -0.09879483 0.02723938
v 0.00768577 -0.09879483 0.02723938
v 0.03439611 0.08015488 0.03637498
v 0.03439611 0.08015490 0.00355350
v -0.03168948 0.06664920 0.03324119
v -0.03168948 0.06664920 0.03324119
v -0.03168948 0.06664920 0.03324119
v -0.03168948 0.06664920 0.00668735
v -0.03168948 0.06664920 0.00668735
v -0.03168948 0.06664920 0.00668735
v -0.00602041 -0.00667769 0.02591758
v -0.00602041 -0.00667769 0.01401092
v -0.00827650 -0.00094539 0.02269380
v -0.00827650 -0.00094539 0.01723470
v -0.00900852 -0.05283723 0.01405355
v -0.00900852 -0.05283723 0.01405355
v -0.00900852 -0.05283723 0.02587495
v -0.00900852 -0.05283723 0.02587495
v 0.00471462 -0.00090043 0.02533615
v 0.00471462 -0.00090043 0.01459235
v -0.03665491 0.07990902 0.03313797
v -0.03665491 0.07990902 0.00679056
v -0.00878195 -0.09434880 0.02812425
v -0.00878195 -0.09434880 0.02812425
v -0.00878195 -0.09434880 0.01180425
v -0.00878195 -0.09434880 0.01180425
v -0.03117583 0.06096428 0.01996427
v 0.03199863 0.06321687 0.01295177
v 0.03199863 0.06321687 0.02697674
v -0.00731054 0.05414331 0.01426763
v -0.01133079 -0.09400971 0.02512401
v -0.01133079 -0.09400971 0.02512401
v -0.01133079 -0.09400971 0.01480450
v -0.01133079 -0.09400971 0.01480450
v 0.00955422 -0.01359704 0.01610806
v 0.00955422 -0.01359704 0.01610806
v 0.00955422 -0.01359704 0.02382044
v 0.00955422 -0.01359704 0.02382044
v 0.03167539 0.09749272 0.01277881
v 0.03167539 0.09749272 0.01277881
v 0.03167539 0.09749272 0.02714965
v 0.03167539 0.09749272 0.02714965
v -0.03434365 0.06475541 0.01368416
v -0.03434365 0.06475541 0.01368416
v -0.03434365 0.06475541 0.02624439
v -0.00006908 0.10000000 0.01996425
v 0.01007355 -0.08992935 0.01334542
v 0.01007355 -0.08992935 0.01334542
v 0.01007355 -0.08992935 0.01334542
v 0.01007355 -0.08992935 0.02658308
v 0.01007355 -0.08992935 0.02658308
v 0.01007355 -0.08992935 0.02658308
v -0.03595645 0.06925854 0.03061711
v -0.03595645 0.06925854 0.03061711
v -0.03187664 0.06160095 0.01996427
v -0.03191579 0.07291290 0.00303460
v -0.01089461 -0.09357276 0.01267775
v -0.01089461 -0.09357276 0.01267775
v -0.01089461 -0.09357276 0.01267775
v -0.01089461 -0.09357276 0.02725075
v -0.01089461 -0.09357276 0.02725075
v -0.01089461 -0.09357276 0.02725075
v -0.01006472 -0.01376414 0.02395211
v -0.01006472 -0.01376414 0.02395211
v -0.01006472 -0.01376414 0.01597640
v -0.01006472 -0.01376414 0.01597640
v -0.00912783 -0.00668843 0.02327521
v 0.03444857 0.06499346 0.02624437
v 0.03444857 0.06499346 0.01368414
v 0.03444857 0.06499346 0.01368414
v -0.03445289 0.09632747 0.01996425
v 0.00897392 -0.09428737 0.02812425
v 0.00897392 -0.09428737 0.02812425
v 0.03188145 0.09707597 0.02697671
v 0.03188145 0.09707597 0.01295175
v 0.00828710 -0.08945134 0.01225905
v 0.00817227 0.05757578 0.01426763
v 0.00817227 0.05757578 0.02566087
v -0.00823495 0.05414013 0.01462699
v -0.00823495 0.05414013 0.01462699
v -0.00823495 0.05414013 0.02530151
v -0.00823495 0.05414013 0.02530151
v -0.03171056 0.07274066 0.03731142
v -0.03171056 0.07274066 0.03731142
v -0.03171056 0.07274068 0.00261711
v -0.03171056 0.07274068 0.00261711
v 0.00944451 0.06195085 0.02607113
v 0.00944451 0.06195085 0.01385738
v 0.01173061 -0.09759546 0.02513400
v 0.01173061 -0.09759546 0.01479451
v 0.00644679 -0.01360780 0.02646279
v 0.00644679 -0.01360780 0.02646279
v -0.03435596 0.06831277 0.00836011
v -0.03435596 0.06831277 0.00836011
v -0.03435596 0.06831277 0.00836011
v 0.03433933 0.09656552 0.01996423
v 0.03121635 0.08740097 0.03748431
v 0.03121635 0.08740097 0.00244415
v 0.03121635 0.08740097 0.00244415
v -0.00857123 0.05950073 0.02578104
v -0.00857123 0.05950073 0.01414746
v 0.00885769 -0.09350440 0.01188128
v 0.00002644 0.07239594 0.00151968
v 0.00002644 0.07239596 0.03840880
v 0.03443625 0.06855082 0.00836009
v 0.03443625 0.06855082 0.00836009
v 0.03443625 0.06855082 0.00836009
v 0.03597337 0.08592569 0.00604561
v 0.03597337 0.08592569 0.00604561
v 0.03597337 0.08592569 0.03388287
v 0.03597337 0.08592569 0.03388287
v 0.01083016 -0.09878394 0.01540844
v 0.01083016 -0.09878394 0.01540844
v 0.01083016 -0.09878394 0.02452006
v 0.01083016 -0.09878394 0.02452006
v 0.00006382 0.06159145 0.01232428
v 0.00627883 0.05253208 0.02287430
v 0.00627883 0.05253208 0.02287430
v 0.00627883 0.05253208 0.01705420
v 0.00627883 0.05253208 0.01705420
v -0.01207915 -0.09544056 0.02551120
v -0.01207915 -0.09544056 0.01441730
v -0.03603019 0.09056410 0.00931139
v -0.03603019 0.09056410 0.00931139
v 0.00864406 -0.01360020 0.02568887
v 0.00864406 -0.01360020 0.02568887
v 0.00864406 -0.01360020 0.02568887
v 0.00864406 -0.01360020 0.01423964
v 0.00864406 -0.01360020 0.01423964
v 0.00864406 -0.01360020 0.01423964
v 0.00655452 -0.01370664 0.02667142
v 0.00655452 -0.01370664 0.02667142
v 0.00655452 -0.01370662 0.01325708
v 0.00655452 -0.01370662 0.01325708
v -0.00595119 0.05248977 0.02360585
v -0.00595119 0.05248977 0.02360585
v -0.00595119 0.05248977 0.02360585
v 0.03599331 0.08016042 0.00489883
v 0.03599331 0.08016042 0.00489883
v -0.03200044 0.09737869 0.01996425
v -0.03200044 0.09737869 0.01996425
v -0.03191693 0.07324623 0.03608916
v -0.03191693 0.07324623 0.03608916
v -0.03191693 0.07324625 0.00383937
v -0.03191693 0.07324625 0.00383937
v -0.00949564 0.05949753 0.01450685
v -0.00949564 0.05949753 0.01450685
v -0.00949564 0.05949753 0.02542166
v -0.00949564 0.05949753 0.02542166
v 0.00668976 -0.05278292 0.02667140
v -0.00894108 0.05751658 0.01462699
v -0.00894108 0.05751658 0.01462699
v -0.00894108 0.05751658 0.02530151
v -0.00894108 0.05751658 0.02530151
v -0.00692033 -0.01375325 0.01325708
v -0.00692033 -0.01375325 0.01325708
v -0.00692033 -0.01375327 0.02667142
v -0.00692033 -0.01375327 0.02667142
v 0.00871312 -0.00662670 0.01665329
v 0.00871312 -0.00662670 0.02327521
v 0.01127063 -0.09651048 0.02737229
v 0.01127063 -0.09651048 0.02737229
v -0.03189522 0.06696803 0.00700688
v 0.00800328 0.05306731 0.01596567
v 0.00800328 0.05306731 0.01596567
v 0.00800328 0.05306731 0.02396283
v 0.00800328 0.05306731 0.02396283
v 0.00696414 0.00040381 0.01771564
v 0.00696414 0.00040381 0.01771564
v 0.00696414 0.00040381 0.02221286
v 0.00696414 0.00040381 0.02221286
v 0.03604149 0.06624190 0.01419896
v 0.03604149 0.06624190 0.01419896
v 0.03604149 0.06624190 0.02572954
v 0.03604149 0.06624190 0.02572954
v -0.00931912 0.06188594 0.02607113
v -0.00931912 0.06188594 0.01385738
v -0.03194005 0.07992535 0.00163973
v -0.03194005 0.07992535 0.00251080
v -0.03194005 0.07992535 0.00251080
v -0.03194005 0.07992537 0.03828879
v -0.03194005 0.07992533 0.03741772
v -0.03194005 0.07992533 0.03741772
v 0.00573106 0.00055244 0.01641440
v 0.00573106 0.00055244 0.01641440
v 0.00573106 0.00055244 0.01641440
v 0.00573106 0.00055244 0.02351410
v 0.00573106 0.00055244 0.02351410
v 0.00573106 0.00055244 0.02351410
v 0.01211831 -0.09427649 0.01452354
v 0.01211831 -0.09427649 0.01452354
v 0.01211831 -0.09427649 0.02540496
v 0.01211831 -0.09427649 0.02540496
v 0.03126656 0.07288701 0.00244415
v -0.00742755 0.00035402 0.01771564
v -0.00742755 0.00035402 0.01771564
v -0.00742755 0.00035402 0.02221286
v -0.00742755 0.00035402 0.02221286
v -0.03198488 0.09288268 0.00700686
v -0.03198488 0.09288268 0.03292165
v -0.00932397 0.05751523 0.01549462
v -0.00932397 0.05751523 0.02443388
v -0.03198274 0.09226675 0.03230571
v -0.03198274 0.09226675 0.03230571
v -0.03198274 0.09226675 0.03230571
v -0.03198274 0.09226675 0.00762279
v -0.03198274 0.09226675 0.00762279
v 0.00762038 0.05306599 0.01509807
v 0.00762038 0.05306599 0.01509807
v 0.00762038 0.05306599 0.01509807
v -0.03130208 0.09744771 0.01270719
v -0.03130208 0.09744771 0.02722131
v 0.00560569 -0.00663746 0.02591758
v 0.00560569 -0.00663744 0.01401092
v -0.01045183 -0.09400667 0.02695908
v -0.01045183 -0.09400667 0.02695908
v -0.00893476 -0.09542967 0.01169801
v -0.00893476 -0.09542967 0.02823049
v 0.00588707 0.05253073 0.02360585
v 0.00588707 0.05253073 0.02360585
v 0.00588707 0.05253073 0.02360585
v 0.00588707 0.05253073 0.01632265
v 0.00588707 0.05253073 0.01632265
v 0.00588707 0.05253073 0.01632265
v 0.00989819 -0.07127568 0.02395211
v 0.00989819 -0.07127568 0.01597638
v 0.01119735 -0.09427967 0.02732780
v 0.01119735 -0.09427967 0.02732780
v 0.01119735 -0.09427967 0.02732780
v 0.01119735 -0.09427967 0.01260070
v 0.01119735 -0.09427967 0.01260070
v 0.01119735 -0.09427967 0.01260070
v -0.00949501 -0.09966761 0.02395476
v -0.00949501 -0.09966761 0.01597375
v -0.01102430 -0.09837256 0.02480214
v -0.01102430 -0.09837256 0.02480214
v -0.01102430 -0.09837256 0.01512637
v -0.01102430 -0.09837256 0.01512637
v 0.03595647 0.09081320 0.03061709
v 0.03595647 0.09081320 0.03061709
v 0.03661281 0.09233354 0.02500559
v 0.03661281 0.09233354 0.01492287
v -0.00991172 -0.08999851 0.01334542
v -0.00991172 -0.08999851 0.01334542
v -0.00991172 -0.08999851 0.01334542
v -0.00991172 -0.08999851 0.02658308
v -0.00991172 -0.08999851 0.02658308
v -0.00991172 -0.08999851 0.02658308
v -0.00634295 0.05248841 0.02287430
v -0.00634295 0.05248841 0.02287430
v -0.00634295 0.05248841 0.01705420
v -0.00634295 0.05248841 0.01705420
v 0.00891730 -0.09960390 0.01428998
v 0.00891730 -0.09960390 0.01428998
v 0.00891730 -0.09960390 0.02563853
v -0.03118083 0.06240782 0.02722133
v -0.03118083 0.06240782 0.01270723
v -0.00473668 -0.00006545 0.01488291
v -0.00473668 -0.00006545 0.01488291
v -0.00473668 -0.00006545 0.02504559
v 0.01051053 -0.08944364 0.02687300
v 0.01051053 -0.08944364 0.02687300
v 0.01051053 -0.08944364 0.02687300
v 0.01051053 -0.08944364 0.01305550
v 0.01051053 -0.08944364 0.01305550
v 0.01051053 -0.08944364 0.01305550
v 0.01061753 -0.09037318 0.01298508
v 0.01061753 -0.09037318 0.01298508
v 0.01061753 -0.09037318 0.01298508
v 0.01061753 -0.09037318 0.02694342
v 0.01061753 -0.09037318 0.02694342
v 0.01061753 -0.09037318 0.02694342
v 0.03119506 0.09355317 0.03337353
v 0.03119506 0.09355317 0.03337353
v 0.03119506 0.09355317 0.00655495
v 0.03196315 0.07346730 0.00383935
v 0.03196315 0.07346730 0.00383935
v 0.03667236 0.07512141 0.03213515
v 0.03667236 0.07512141 0.00779334
v 0.03187964 0.09759976 0.01996423
v 0.03187964 0.09759976 0.01996423
v -0.00657438 0.00035696 0.01596414
v 0.01064138 -0.09393368 0.01296942
v 0.01064138 -0.09393368 0.01296942
v 0.01064138 -0.09393368 0.01296942
v 0.01064138 -0.09393368 0.02695908
v 0.01064138 -0.09393368 0.02695908
v -0.00832988 -0.09399933 0.02771920
v -0.00832988 -0.09399933 0.02771920
v -0.00832988 -0.09399933 0.02771920
v -0.03126658 0.08718475 0.00244417
v -0.03126658 0.08718475 0.00244417
v -0.00820377 -0.10000000 0.01639658
v -0.00820377 -0.10000000 0.02353192
v -0.03176029 0.08711146 0.03731142
v -0.03176029 0.08711146 0.03731142
v -0.03176029 0.08711146 0.00261711
v -0.03176029 0.08711146 0.00261711
v -0.03176029 0.08711146 0.00261711
v -0.00968609 -0.09885495 0.02644291
v -0.00968609 -0.09885495 0.01348559
v -0.00968609 -0.09885495 0.01348559
v -0.03188425 0.06380058 0.01328514
v -0.03188425 0.06380058 0.01328514
v -0.03188425 0.06380058 0.02664343
v -0.03188425 0.06380058 0.02664343
v 0.03180041 0.06136940 0.01996425
v 0.03180041 0.06136940 0.01996425
v 0.03189520 0.09310373 0.00700684
v 0.03124146 0.08014397 0.00100064
v 0.03124146 0.08014399 0.03892784
v -0.03437437 0.07363677 0.00480272
v -0.03437437 0.07363677 0.03512581
v -0.03437437 0.07363677 0.03512581
v -0.00914374 -0.01376096 0.01405355
v -0.00914374 -0.01376096 0.01405355
v -0.00914374 -0.01376096 0.01405355
v -0.00914374 -0.01376096 0.02587495
v -0.00914374 -0.01376096 0.02587495
v -0.00914374 -0.01376096 0.02587495
v -0.03601327 0.08567659 0.00604563
v -0.03601327 0.08567659 0.00604563
v -0.03601327 0.08567659 0.03388289
v -0.03601327 0.08567659 0.03388289
v -0.03196431 0.08693781 0.00303460
v -0.03196431 0.08693781 0.03689392
v -0.03200346 0.09824978 0.01996425
v 0.03662268 0.08947785 0.01064903
v 0.03662268 0.08947789 0.02927943
v -0.00784410 -0.00007619 0.01752528
v -0.00784410 -0.00007619 0.01752528
v -0.00784410 -0.00007619 0.02240323
v -0.00784410 -0.00007619 0.02240323
v -0.00778977 -0.08999117 0.02734319
v -0.00778977 -0.08999117 0.02734319
v -0.00778977 -0.08999117 0.01258531
v -0.00778977 -0.08999117 0.01258531
v 0.03189734 0.09248780 0.00762277
v 0.03189734 0.09248780 0.00762277
v 0.03189734 0.09248780 0.03230569
v 0.03189734 0.09248780 0.03230569
v 0.03189734 0.09248780 0.03230569
v -0.00743354 0.05301389 0.02483044
v -0.00743354 0.05301389 0.02483044
v -0.00743354 0.05301389 0.02483044
v -0.00743354 0.05301389 0.01509807
v -0.00743354 0.05301389 0.01509807
v -0.00743354 0.05301389 0.01509807
v 0.03604546 0.06509512 0.01996425
v 0.03604546 0.06509512 0.01996425
v 0.03670050 0.06698911 0.01996425
v 0.00891319 -0.05277523 0.01405353
v 0.00891319 -0.05277523 0.01405353
v 0.00891319 -0.05277523 0.02587493
v 0.00891319 -0.05277523 0.02587493
v -0.03599333 0.07991132 0.00489885
v -0.03599333 0.07991132 0.00489885
v -0.01100540 -0.09435649 0.02732780
v -0.01100540 -0.09435649 0.02732780
v -0.01100540 -0.09435649 0.02732780
v -0.01100540 -0.09435649 0.01260070
v -0.01100540 -0.09435649 0.01260070
v -0.01100540 -0.09435649 0.01260070
v 0.03441784 0.07387482 0.00480270
v 0.03441784 0.07387482 0.03512579
v 0.03441784 0.07387482 0.03512579
v 0.01036893 0.06195405 0.01421674
v 0.01036893 0.06195405 0.01421674
v 0.01036893 0.06195405 0.02571176
v 0.01036893 0.06195405 0.02571176
v 0.01127059 -0.09651048 0.01255621
v 0.01127059 -0.09651048 0.01255621
v 0.03603017 0.06950764 0.00931139
v 0.03603017 0.06950764 0.00931139
v 0.00004885 0.06591914 0.00584741
v 0.00004885 0.06591914 0.00584741
v 0.00004885 0.06591914 0.03408109
v 0.00004885 0.06591914 0.03408109
v 0.00909670 0.05757898 0.01462699
v 0.00909670 0.05757898 0.01462699
v 0.00909670 0.05757898 0.02530151
v 0.00909670 0.05757898 0.02530151
v -0.00731052 0.05414331 0.02566087
v -0.00669379 -0.09965792 0.02635308
v -0.00669379 -0.09965792 0.01357543
v -0.00669379 -0.09965792 0.01357543
v 0.03173543 0.08014570 0.03874066
v 0.03173543 0.08014570 0.03874066
v -0.01060705 -0.09885813 0.01540844
v -0.01060705 -0.09885813 0.01540844
v -0.01060705 -0.09885813 0.02452006
v -0.01060705 -0.09885813 0.02452006
v -0.00787991 -0.09836168 0.01240707
v -0.00787991 -0.09836168 0.02752143
v -0.00787991 -0.09836168 0.02752143
v 0.00691191 -0.00089283 0.01536628
v 0.00691191 -0.00089283 0.01536628
v 0.00691191 -0.00089283 0.02456223
v 0.00691191 -0.00089283 0.02456223
v -0.03668715 0.08922416 0.02927945
v -0.03668715 0.08922416 0.01064905
v 0.03179546 0.06279868 0.02714967
v 0.03179546 0.06279868 0.02714967
v 0.03179546 0.06279868 0.01277883
v 0.03179546 0.06279868 0.01277883
v 0.03128787 0.06673479 0.00655497
v 0.03128787 0.06673479 0.00655497
v 0.03128787 0.06673479 0.03337353
v 0.03128787 0.06673479 0.03337353
v -0.00767374 -0.09999817 0.01528996
v -0.00767374 -0.09999817 0.02463854
v 0.00433874 0.00054763 0.02395749
v 0.00433874 0.00054763 0.02395749
v 0.00433874 0.00054763 0.01597101
v 0.00433874 0.00054763 0.01597101
v -0.03443627 0.09152090 0.00836011
v -0.03443627 0.09152090 0.00836011
v -0.00781644 0.05301257 0.01596567
v -0.00781644 0.05301257 0.01596567
v -0.00781644 0.05301257 0.02396283
v -0.00781644 0.05301257 0.02396283
v -0.03660932 0.06673542 0.01996427
v -0.03191577 0.07291288 0.03689392
v -0.03178137 0.09320288 0.00668733
v -0.03178137 0.09320288 0.00668733
v -0.03178137 0.09320288 0.03324117
v -0.03178137 0.09320288 0.03324117
v -0.03178137 0.09320288 0.03324117
v -0.00623104 -0.09999317 0.02515534
v -0.00623104 -0.09999317 0.01477316
v -0.03167045 0.06114975 0.01996427
v -0.03167045 0.06114975 0.01996427
v -0.03594515 0.06599280 0.01419900
v -0.03594515 0.06599280 0.01419900
v -0.03594515 0.06599280 0.02572956
v -0.03594515 0.06599280 0.02572956
v -0.01115817 -0.09543736 0.02743402
v -0.01115817 -0.09543736 0.02743402
v -0.01115817 -0.09543736 0.01249448
v -0.01115817 -0.09543736 0.01249448
v 0.03435594 0.09175896 0.00836009
v 0.03435594 0.09175896 0.00836009
v -0.03199583 0.09605013 0.01328510
v -0.03199583 0.09605013 0.01328510
v -0.03199583 0.09605013 0.02664341
v -0.03199583 0.09605013 0.02664341
v -0.01079067 -0.09000154 0.01518052
v -0.01079067 -0.09000154 0.01518052
v -0.01079067 -0.09000154 0.01518052
v -0.01079067 -0.09000154 0.02474798
v -0.01079067 -0.09000154 0.02474798
v -0.01079067 -0.09000154 0.02474798
v 0.00646210 -0.09994925 0.01477316
v -0.00868855 -0.09966482 0.01428998
v -0.00868855 -0.09966482 0.01428998
v -0.00868855 -0.09966482 0.02563853
vt 0.41323400 0.82401300
vt 0.54272100 0.47196800
vt 0.89821100 0.05002900
vt 0.90383300 0.21663600
vt 0.01138800 0.13780200
vt 0.10340400 0.21871600
vt 0.30289400 0.94079000
vt 0.18495200 0.04695700
vt 0.10889400 0.56938200
vt 0.90066200 0.98914200
vt 0.14918000 0.56939600
vt 0.03373900 0.03821700
vt 0.68496400 0.81414400
vt 0.66044900 0.14081700
vt 0.70120400 0.14083100
vt 0.89836100 0.71842400
vt 0.85572000 0.06249000
vt 0.89601700 0.06244500
vt 0.18265200 0.31103200
vt 0.95258200 0.63337700
vt 0.59876700 0.14137600
vt 0.78782400 0.29967600
vt 0.51576000 0.16597100
vt 0.46814000 0.27300300
vt 0.56678500 0.16591300
vt 0.46814000 0.32569700
vt 0.79820000 0.80261900
vt 0.45568300 0.21712200
vt 0.33973600 0.20483100
vt 0.85213800 0.06282000
vt 0.89991900 0.06276600
vt 0.94749900 0.72618500
vt 0.67124300 0.89706900
vt 0.94756100 0.78501600
vt 0.68283500 0.95599700
vt 0.64133800 0.56046100
vt 0.11522800 0.65865300
vt 0.61706200 0.63733200
vt 0.78998500 0.46002500
vt 0.51098100 0.98930600
vt 0.64657600 0.98930600
vt 0.48059000 0.65864900
vt 0.81668000 0.59573000
vt 0.68376700 0.46198400
vt 0.68078800 0.92577900
vt 0.48218100 0.53594700
vt 0.30576200 0.96196900
vt 0.97684700 0.81361100
vt 0.95258200 0.36292500
vt 0.81773200 0.95988400
vt 0.76895900 0.12315200
vt 0.80789300 0.71059300
vt 0.04194100 0.98672800
vt 0.34315900 0.98680200
vt 0.17725800 0.98658200
vt 0.14327000 0.37441700
vt 0.14997400 0.98929800
vt 0.07746300 0.98937600
vt 0.12882300 0.44786000
vt 0.80380900 0.95052300
vt 0.78508000 0.85531200
vt 0.47601000 0.62826700
vt 0.48423300 0.32729900
vt 0.46814000 0.57344900
vt 0.48423300 0.27140200
vt 0.61416700 0.82400900
vt 0.41305100 0.98937600
vt 0.24259300 0.33281500
vt 0.20484100 0.52473000
vt 0.54407400 0.30660400
vt 0.33973600 0.16047100
vt 0.85213800 0.10717900
vt 0.89991900 0.10712600
vt 0.03911800 0.82396400
vt 0.18157500 0.82381000
vt 0.33962300 0.82401300
vt 0.67434800 0.28190600
vt 0.94435100 0.51730700
vt 0.96088200 0.19569500
vt 0.71345100 0.15543100
vt 0.67053200 0.41828400
vt 0.93493500 0.84263900
vt 0.81053300 0.12152600
vt 0.95258200 0.54078300
vt 0.38544500 0.06003100
vt 0.38544500 0.11088600
vt 0.76252700 0.98937600
vt 0.94435100 0.42282500
vt 0.11541000 0.98680800
vt 0.85494800 0.18223500
vt 0.37604700 0.22439000
vt 0.90832600 0.18223500
vt 0.04360200 0.13099400
vt 0.47079200 0.51872000
vt 0.73881400 0.69191500
vt 0.47836300 0.46598700
vt 0.68674500 0.69197400
vt 0.65088400 0.33378200
vt 0.29849200 0.37824600
vt 0.96523800 0.63733200
vt 0.58610000 0.14466600
vt 0.82318900 0.02364700
vt 0.27367800 0.50438900
vt 0.58616100 0.01721300
vt 0.13369700 0.04678200
vt 0.10889400 0.62121100
vt 0.84940700 0.98931300
vt 0.14918000 0.62122500
vt 0.02222300 0.10516800
vt 0.20305600 0.97756400
vt 0.02222300 0.02796600
vt 0.94421700 0.10203200
vt 0.44548800 0.12991200
vt 0.80830200 0.71541000
vt 0.94330900 0.20682100
vt 0.30668500 0.97768800
vt 0.77390500 0.30903700
vt 0.75517600 0.40424900
vt 0.82883700 0.52274700
vt 0.78868700 0.62076600
vt 0.75464800 0.44772700
vt 0.64133800 0.07640500
vt 0.76252700 0.83539100
vt 0.79051200 0.97765500
vt 0.94435100 0.39297600
vt 0.70043900 0.84127700
vt 0.64956800 0.01376100
vt 0.93942500 0.67016300
vt 0.95258200 0.45551900
vt 0.54386100 0.30917800
vt 0.41308000 0.98680200
vt 0.30222400 0.37572400
vt 0.70088600 0.03379500
vt 0.31861100 0.97158000
vt 0.70088600 0.11164000
vt 0.93836300 0.21888100
vt 0.12882300 0.40968600
vt 0.11521400 0.98937600
vt 0.92654800 0.72385500
vt 0.64801900 0.52363300
vt 0.92662000 0.79201100
vt 0.66144800 0.59190100
vt 0.64718200 0.13984200
vt 0.20797100 0.98676000
vt 0.64540500 0.24411800
vt 0.01300400 0.10179500
vt 0.95392400 0.10700200
vt 0.01300400 0.03133900
vt 0.71445100 0.24414100
vt 0.44984100 0.65864900
vt 0.78998600 0.62272300
vt 0.75510700 0.44541700
vt 0.58181300 0.63733200
vt 0.45023700 0.66122300
vt 0.79361600 0.36249100
vt 0.60698300 0.07903900
vt 0.78122000 0.72188200
vt 0.47308600 0.13638500
vt 0.10340400 0.19714200
vt 0.86204700 0.63479700
vt 0.91343100 0.63479700
vt 0.17709900 0.60490900
vt 0.31192000 0.44651400
vt 0.58606700 0.07736800
vt 0.21776900 0.94564400
vt 0.60151700 0.18479300
vt 0.58050500 0.18228200
vt 0.70421900 0.27984900
vt 0.67974900 0.40424900
vt 0.06665600 0.54000600
vt 0.02555700 0.54000600
vt 0.20616700 0.33957500
vt 0.96523800 0.53885500
vt 0.94757400 0.83814700
vt 0.82318900 0.12466300
vt 0.17374700 0.50438900
vt 0.47601000 0.46488600
vt 0.48423300 0.36858500
vt 0.46814000 0.51970300
vt 0.48423300 0.42448100
vt 0.64705400 0.66115500
vt 0.48129200 0.98680200
vt 0.61757600 0.30917800
vt 0.51010700 0.66115500
vt 0.15053000 0.66115300
vt 0.07729700 0.66123300
vt 0.61943500 0.27200100
vt 0.67365100 0.70762500
vt 0.75190800 0.70753700
vt 0.30401200 0.96418600
vt 0.48419200 0.53422300
vt 0.78404100 0.33378200
vt 0.77390500 0.38531000
vt 0.80230200 0.03028300
vt 0.76060600 0.41244800
vt 0.61687300 0.18243400
vt 0.21543600 0.96196900
vt 0.48217900 0.55719400
vt 0.02224400 0.09514800
vt 0.02224400 0.03798500
vt 0.77896700 0.68549100
vt 0.07179900 0.63464900
vt 0.17963900 0.63718300
vt 0.02041400 0.63464900
vt 0.89869800 0.18225600
vt 0.95301700 0.20185200
vt 0.64133800 0.14926700
vt 0.30177100 0.98688400
vt 0.67124300 0.70525600
vt 0.93214800 0.20648000
vt 0.06665600 0.44359000
vt 0.02555700 0.44359000
vt 0.30342900 0.94564400
vt 0.60151700 0.27141200
vt 0.58050500 0.26890000
vt 0.53878800 0.98678600
vt 0.61290400 0.98678600
vt 0.78942700 0.14591100
vt 0.86719000 0.24012800
vt 0.74918400 0.14595600
vt 0.90828800 0.24012800
vt 0.04360200 0.21447300
vt 0.50886700 0.10802100
vt 0.37604700 0.14091100
vt 0.56224600 0.10802100
vt 0.96523800 0.38787300
vt 0.78619300 0.61699200
vt 0.18982500 0.31156700
vt 0.26985200 0.31156700
vt 0.89378000 0.05519300
vt 0.90553500 0.71846900
vt 0.85795800 0.05523300
vt 0.30643600 0.31156700
vt 0.07714300 0.20728000
vt 0.73662000 0.16291700
vt 0.52298800 0.14244200
vt 0.88878400 0.12464400
vt 0.54812400 0.14244200
vt 0.86417100 0.12467100
vt 0.98949400 0.68944600
vt 0.78619300 0.46575800
vt 0.66222400 0.11164000
vt 0.98949400 0.81689900
vt 0.81100700 0.59190100
vt 0.96523800 0.35897000
vt 0.41204800 0.22864700
vt 0.79829400 0.24339000
vt 0.85213800 0.14591900
vt 0.07802400 0.12673700
vt 0.91113600 0.14591900
vt 0.74052500 0.24345500
vt 0.10271900 0.56154700
vt 0.77501000 0.79484500
vt 0.15608700 0.56156500
vt 0.47882900 0.20934800
vt 0.33962300 0.21570000
vt 0.85584600 0.05194600
vt 0.90828800 0.44374100
vt 0.86719000 0.44374100
vt 0.61778000 0.28535700
vt 0.48211800 0.45574800
vt 0.48425500 0.35856500
vt 0.31722000 0.96184500
vt 0.47142600 0.53021600
vt 0.48425500 0.43450000
vt 0.33962300 0.14960100
vt 0.85584600 0.11804500
vt 0.89621200 0.11799900
vt 0.69497700 0.04413600
vt 0.69497700 0.10129900
vt 0.78868600 0.46198400
vt 0.81473900 0.59442300
vt 0.94749900 0.75681400
vt 0.67124300 0.92769900
vt 0.37547900 0.98680200
vt 0.75377300 0.63057200
vt 0.96523800 0.42245400
vt 0.71780600 0.44772700
vt 0.71868100 0.45217900
vt 0.66222400 0.04303500
vt 0.75464900 0.63502300
vt 0.29531700 0.84599900
vt 0.42809400 0.34479200
vt 0.75873700 0.11800500
vt 0.75873700 0.07142500
vt 0.64133800 0.36249200
vt 0.92654800 0.89866000
vt 0.92661000 0.95749100
vt 0.65292900 0.30356400
vt 0.78129000 0.12014200
vt 0.78129000 0.06928700
vt 0.34546700 0.06216900
vt 0.34546700 0.10874800
vt 0.68376800 0.62076600
vt 0.95003600 0.10445400
vt 0.01661400 0.02961000
vt 0.20545100 0.98317400
vt 0.01661400 0.10352400
vt 0.41216700 0.21719800
vt 0.80219900 0.23193600
vt 0.07714300 0.13818600
vt 0.73662000 0.23201000
vt 0.95003600 0.21598500
vt 0.68934400 0.10967400
vt 0.31574700 0.98317400
vt 0.68934400 0.03576000
vt 0.90211600 0.10843700
vt 0.01050600 0.19621500
vt 0.34199800 0.15916900
vt 0.11044200 0.56445400
vt 0.18982500 0.04732300
vt 0.26937900 0.04073700
vt 0.93745600 0.20729500
vt 0.30715400 0.97170400
vt 0.71868200 0.63057200
vt 0.96523800 0.45744800
vt 0.92675300 0.66567000
vt 0.68626100 0.46575800
vt 0.66222400 0.01062400
vt 0.82443500 0.52363300
vt 0.98942900 0.74960100
vt 0.43955100 0.63648400
vt 0.91819600 0.24015100
vt 0.73948200 0.15076600
vt 0.79912900 0.15069900
vt 0.85728100 0.24015100
vt 0.30677500 0.54597800
vt 0.22588100 0.84599900
vt 0.35865800 0.34479200
vt 0.57484900 0.98680500
vt 0.73262200 0.27018400
vt 0.94435100 0.57347700
vt 0.42809400 0.43882400
vt 0.94330900 0.11361800
vt 0.21451400 0.97768800
vt 0.81193000 0.95599700
vt 0.96862900 0.80936700
vt 0.35108100 0.25360600
vt 0.77896700 0.66391000
vt 0.21830400 0.94079000
vt 0.46816100 0.33571600
vt 0.57648700 0.17070100
vt 0.60242500 0.17320700
vt 0.20631200 0.94552000
vt 0.46816100 0.26298400
vt 0.50605800 0.17078100
vt 0.71735600 0.44541700
vt 0.54407400 0.63733200
vt 0.22588100 0.74962500
vt 0.35865800 0.43882400
vt 0.15342300 0.82396400
vt 0.07632500 0.82404800
vt 0.51336000 0.14242000
vt 0.89821100 0.11989100
vt 0.01138800 0.20766400
vt 0.34187900 0.14771900
vt 0.85474400 0.11994000
vt 0.55775200 0.14242000
vt 0.65522400 0.13288700
vt 0.68575600 0.04750900
vt 0.70463200 0.13290400
vt 0.68575600 0.09792600
vt 0.90150800 0.14594000
vt 0.74995200 0.24818700
vt 0.86176600 0.14594000
vt 0.78886600 0.24814300
vt 0.95669300 0.21127200
vt 0.71334700 0.13986500
vt 0.80230200 0.05888200
vt 0.73262200 0.42416900
vt 0.76060600 0.28190600
vt 0.94435100 0.60332600
vt 0.67053200 0.27608400
vt 0.95258200 0.51250000
vt 0.93493500 0.98483400
vt 0.01050600 0.82381000
vt 0.50605800 0.47196800
vt 0.37364900 0.82401300
vt 0.01663500 0.09350500
vt 0.01663500 0.03962900
vt 0.51576000 0.28535700
vt 0.46814000 0.42288000
vt 0.56678500 0.28529900
vt 0.46814000 0.37018600
vt 0.45023700 0.98680200
vt 0.58197600 0.30917800
vt 0.59873600 0.07809800
vt 0.95258200 0.48380200
vt 0.70044000 0.98347600
vt 0.93942500 0.81235800
vt 0.65455100 0.15781300
vt 0.37312400 0.10937400
vt 0.37312400 0.06154300
vt 0.76896800 0.07079900
vt 0.76896800 0.11863100
vt 0.34187900 0.21758200
vt 0.85474400 0.05007800
vt 0.85944100 0.21663600
vt 0.71735700 0.63733200
vt 0.37582200 0.65864900
vt 0.01557500 0.65843000
vt 0.68247900 0.46002500
vt 0.50959200 0.63733200
vt 0.15425200 0.63518900
vt 0.47877400 0.13572400
vt 0.73546300 0.06935900
vt 0.03373900 0.09491600
vt 0.73986800 0.81408200
vt 0.70492800 0.15031200
vt 0.65719100 0.15029600
vt 0.62030100 0.17314700
vt 0.67748600 0.80647300
vt 0.48420100 0.63588000
vt 0.31632300 0.41014400
vt 0.30222400 0.48181900
vt 0.82022300 0.81414400
vt 0.38543600 0.05551000
vt 0.38543600 0.11540700
vt 0.43317900 0.22864700
vt 0.74131000 0.11800500
vt 0.74131000 0.07142500
vt 0.97678600 0.75033400
vt 0.82443500 0.55911800
vt 0.98944600 0.78501800
vt 0.98944600 0.71604100
vt 0.81100600 0.49084900
vt 0.17962700 0.60445600
vt 0.56494300 0.28224300
vt 0.91238900 0.63733200
vt 0.10605100 0.19813900
vt 0.51666900 0.28229800
vt 0.86308800 0.63733200
vt 0.90533000 0.21212400
vt 0.01541700 0.13553300
vt 0.85794400 0.21212400
vt 0.34639300 0.21985000
vt 0.64720100 0.29967700
vt 0.93480900 0.96143300
vt 0.93474100 0.89734900
vt 0.64540500 0.13768300
vt 0.31322800 0.98676000
vt 0.68573400 0.03748900
vt 0.95392400 0.21343700
vt 0.68573400 0.10794500
vt 0.71445100 0.13770600
vt 0.71780600 0.63502300
vt 0.64361700 0.56000300
vt 0.94756100 0.69779300
vt 0.68283400 0.86877100
vt 0.57410400 0.82402800
vt 0.76895900 0.06627800
vt 0.44543300 0.12509600
vt 0.93923200 0.72487300
vt 0.67710900 0.95988400
vt 0.93930000 0.78895700
vt 0.53916600 0.65863100
vt 0.30416400 0.48312800
vt 0.31861100 0.40968500
vt 0.61255000 0.65863100
vt 0.70090900 0.04381400
vt 0.70090900 0.10162000
vt 0.10271900 0.63035500
vt 0.77501000 0.72603800
vt 0.15608700 0.63037300
vt 0.47882900 0.14054000
vt 0.01453600 0.14698300
vt 0.34651200 0.20840100
vt 0.54962200 0.13793200
vt 0.52149100 0.13793200
vt 0.64820300 0.15541000
vt 0.13110200 0.44740000
vt 0.14520100 0.37572400
vt 0.11542400 0.66123300
vt 0.69927700 0.14754800
vt 0.66284100 0.14753600
vt 0.76061000 0.97971200
vt 0.73412300 0.84506200
vt 0.61943500 0.18420400
vt 0.67365100 0.79542100
vt 0.34720000 0.34387500
vt 0.01564900 0.54002700
vt 0.21442400 0.84587500
vt 0.07656400 0.54002700
vt 0.30429000 0.98329800
vt 0.94912900 0.20440000
vt 0.78081100 0.71706500
vt 0.74130000 0.12252600
vt 0.47303100 0.13156800
vt 0.74130000 0.06690400
vt 0.10605100 0.21872900
vt 0.30115700 0.94326100
vt 0.57803800 0.26659200
vt 0.43393300 0.25077000
vt 0.64133800 0.33186200
vt 0.92654800 0.92928900
vt 0.88857100 0.05229000
vt 0.27517200 0.31155500
vt 0.86316700 0.05231900
vt 0.30111700 0.31155500
vt 0.95578600 0.12075300
vt 0.64311500 0.23036000
vt 0.22156900 0.98937600
vt 0.34382000 0.65864900
vt 0.68247900 0.62272300
vt 0.17646600 0.65843000
vt 0.65578500 0.48701900
vt 0.04248400 0.65857500
vt 0.24257400 0.31155400
vt 0.88857100 0.11893500
vt 0.21663000 0.31155400
vt 0.86316700 0.11896400
vt 0.95258200 0.57368600
vt 0.81053300 0.09105100
vt 0.43955100 0.34387500
vt 0.91819600 0.54017900
vt 0.85728100 0.54017900
vt 0.30677400 0.84587500
vt 0.73412300 0.97971200
vt 0.70965200 0.85531200
vt 0.20684700 0.94066600
vt 0.08170700 0.63467000
vt 0.77460000 0.67538500
vt 0.17963900 0.62615600
vt 0.33962300 0.25268900
vt 0.01050600 0.63467000
vt 0.81394500 0.92577900
vt 0.80380900 0.87425100
vt 0.21690800 0.98329800
vt 0.94912900 0.11603900
vt 0.65088400 0.36056600
vt 0.66102000 0.30903800
vt 0.75517600 0.29009800
vt 0.73070600 0.41449800
vt 0.95578600 0.19968600
vt 0.64311500 0.15142700
vt 0.29962900 0.98937600
vt 0.95258200 0.42261600
vt 0.64956800 0.04423600
vt 0.64646800 0.65857900
vt 0.48059000 0.98937600
vt 0.30416400 0.37441700
vt 0.61706200 0.30660400
vt 0.27747000 0.51012100
vt 0.51087300 0.65857900
vt 0.37616700 0.21294100
vt 0.04272000 0.14244300
vt 0.86757200 0.21214500
vt 0.89570200 0.21214500
vt 0.34720000 0.43790600
vt 0.01564900 0.44361100
vt 0.21442400 0.74950200
vt 0.07656400 0.44361100
vt 0.34651200 0.15690000
vt 0.01453600 0.19848300
vt 0.73070600 0.27984900
vt 0.70421900 0.41449900
vt 0.21485100 0.96606100
vt 0.75358800 0.79768300
vt 0.67124300 0.79777500
vt 0.93214800 0.11395900
vt 0.57474200 0.66122600
vt 0.81473800 0.48832800
vt 0.82883800 0.56000300
vt 0.78122000 0.79900100
vt 0.47080300 0.57442900
vt 0.73881400 0.81098400
vt 0.47837300 0.62716200
vt 0.68674500 0.81104200
vt 0.51568600 0.07172900
vt 0.74995200 0.14671000
vt 0.55542700 0.07172900
vt 0.78886600 0.14666600
vt 0.07747800 0.65865300
vt 0.64133800 0.52228700
vt 0.65578500 0.59573000
vt 0.14998800 0.65857500
vt 0.59876700 0.04654300
vt 0.78782400 0.39469100
vt 0.59873600 0.11139900
vt 0.11646300 0.82404800
vt 0.17962700 0.59393100
vt 0.44486800 0.24989400
vt 0.57420200 0.27765300
vt 0.31209100 0.94314300
vt 0.50741000 0.27772800
vt 0.10188200 0.20778100
vt 0.78202500 0.30356400
vt 0.60701100 0.13713000
vt 0.31632300 0.44739900
vt 0.24213400 0.52242000
vt 0.61778000 0.17084800
vt 0.48211700 0.63740100
vt 0.48425400 0.33731800
vt 0.47142600 0.56293300
vt 0.48425400 0.26138300
vt 0.20397900 0.96184500
vt 0.06665600 0.23997700
vt 0.78942700 0.24889200
vt 0.02555700 0.23997700
vt 0.74918400 0.24893700
vt 0.86457600 0.18225600
vt 0.97680200 0.78363500
vt 0.97680200 0.71877900
vt 0.81773100 0.86486900
vt 0.93474100 0.93071200
vt 0.75358800 0.70516300
vt 0.30634700 0.96606100
vt 0.65771600 0.59442300
vt 0.64361700 0.52274700
vt 0.43567100 0.25360600
vt 0.79820000 0.71826400
vt 0.45568300 0.13276600
vt 0.34545900 0.05764800
vt 0.78081100 0.80381800
vt 0.47303100 0.21832000
vt 0.34545900 0.11326900
vt 0.44984100 0.98937600
vt 0.27747000 0.34742300
vt 0.24259300 0.52473000
vt 0.58181300 0.30660400
vt 0.43323500 0.12605800
vt 0.82063200 0.71155600
vt 0.68936700 0.04577900
vt 0.68936700 0.09965500
vt 0.41216700 0.14810400
vt 0.80219900 0.16284300
vt 0.59882400 0.02153700
vt 0.81053300 0.02654500
vt 0.76449300 0.41828300
vt 0.93923200 0.75823600
vt 0.37547900 0.66122300
vt 0.01477700 0.66100700
vt 0.50903500 0.63475800
vt 0.44548800 0.21997600
vt 0.80830200 0.80547300
vt 0.61687300 0.27377100
vt 0.58284700 0.47196800
vt 0.45235100 0.82401300
vt 0.79440100 0.84127700
vt 0.97684700 0.69377300
vt 0.64956800 0.10874200
vt 0.64133800 0.01780900
vt 0.70425200 0.84711300
vt 0.73223700 0.98937600
vt 0.94435100 0.45303100
vt 0.70352900 0.13506200
vt 0.68323700 0.09645600
vt 0.65700100 0.13504700
vt 0.68323700 0.04897800
vt 0.53614100 0.82400900
vt 0.21460700 0.04071500
vt 0.14389700 0.62819200
vt 0.11417700 0.62818200
vt 0.24459700 0.04071500
vt 0.02817600 0.09547000
vt 0.02817600 0.03766400
vt 0.92661000 0.87026800
vt 0.65292900 0.39079000
vt 0.56505500 0.07170700
vt 0.41204800 0.13665400
vt 0.79829400 0.15139800
vt 0.07802400 0.21872900
vt 0.50605800 0.07170700
vt 0.74052500 0.15146300
vt 0.80314700 0.16227900
vt 0.29531700 0.54610200
vt 0.42809300 0.63740100
vt 0.73546300 0.16235600
vt 0.90553500 0.98917300
vt 0.14763300 0.56446700
vt 0.30690900 0.04073700
vt 0.64133800 0.04578600
vt 0.73223700 0.83539100
vt 0.94736900 0.93181600
vt 0.13550400 0.41103000
vt 0.27367800 0.35315400
vt 0.96523800 0.60842900
vt 0.82318900 0.05678000
vt 0.24125800 0.51796800
vt 0.80789300 0.81029000
vt 0.37311600 0.05702200
vt 0.44543300 0.22479300
vt 0.37311600 0.11389500
vt 0.29531700 0.74962500
vt 0.79779100 0.80743600
vt 0.36288600 0.05764800
vt 0.36288600 0.11326900
vt 0.45562800 0.22193900
vt 0.35865800 0.63740100
vt 0.73546300 0.23256800
vt 0.80314700 0.23249200
vt 0.22588100 0.54610200
vt 0.51849500 0.10804400
vt 0.55261800 0.10804400
vt 0.69495400 0.03411600
vt 0.31814200 0.97756400
vt 0.27617200 0.50816300
vt 0.10898500 0.63716900
vt 0.73547300 0.11555000
vt 0.73547300 0.07388000
vt 0.14982100 0.63718300
vt 0.52396900 0.14466600
vt 0.88737500 0.12245500
vt 0.54714300 0.14466600
vt 0.86468300 0.12248000
vt 0.81192900 0.86877100
vt 0.96858700 0.72230800
vt 0.82352100 0.92769900
vt 0.96858700 0.78184800
vt 0.43323500 0.22383000
vt 0.82063200 0.80932700
vt 0.20529100 0.52242000
vt 0.20616700 0.51796800
vt 0.82318900 0.09225200
vt 0.24213400 0.33512300
vt 0.24125800 0.33957500
vt 0.96523800 0.57384900
vt 0.12967000 0.31136200
vt 0.24789400 0.31156700
vt 0.89378000 0.11602100
vt 0.84538000 0.71867000
vt 0.21131000 0.31156700
vt 0.85795800 0.11606100
vt 0.70647200 0.10106700
vt 0.68496400 0.68885600
vt 0.70647200 0.04436700
vt 0.73986800 0.68879500
vt 0.58197600 0.63475800
vt 0.88737500 0.04746500
vt 0.89322400 0.21888100
vt 0.86468300 0.04749100
vt 0.87005000 0.21888100
vt 0.14520100 0.48181900
vt 0.17125300 0.34938100
vt 0.36289400 0.06216900
vt 0.36289400 0.10874800
vt 0.94757400 0.98937600
vt 0.96523800 0.50877500
vt 0.17374700 0.35315400
vt 0.94744100 0.86344000
vt 0.14893300 0.47929800
vt 0.10455400 0.63517200
vt 0.77460000 0.72122100
vt 0.73546300 0.12007100
vt 0.07728300 0.98680800
vt 0.15051600 0.98672800
vt 0.37616700 0.15236000
vt 0.04272000 0.20302300
vt 0.74807300 0.80639400
vt 0.47393900 0.56439200
vt 0.93745600 0.11314400
vt 0.21404500 0.97170400
vt 0.21083700 0.04072500
vt 0.14763300 0.62615200
vt 0.84453300 0.98937600
vt 0.12882300 0.04711500
vt 0.11044200 0.62614000
vt 0.24836700 0.04072500
vt 0.86719000 0.54015700
vt 0.90828800 0.54015700
vt 0.74957000 0.69358200
vt 0.31780500 0.96593700
vt 0.70644900 0.03434800
vt 0.67526200 0.69366600
vt 0.93305500 0.21806500
vt 0.70644900 0.11108600
vt 0.66044900 0.24096000
vt 0.70120400 0.24097400
vt 0.01302500 0.09177500
vt 0.65522400 0.24892000
vt 0.01302500 0.04135800
vt 0.70463200 0.24893700
vt 0.70425300 0.97765500
vt 0.94435100 0.47899500
vt 0.69092400 0.95052300
vt 0.68078800 0.89899500
vt 0.34188400 0.24989400
vt 0.57420200 0.17351700
vt 0.17709900 0.62620300
vt 0.20910700 0.94314300
vt 0.77745300 0.67483900
vt 0.50741000 0.17359300
vt 0.14389700 0.56242400
vt 0.30314000 0.04072800
vt 0.11417700 0.56241400
vt 0.27314900 0.04072800
vt 0.96169600 0.20608900
vt 0.70980200 0.14503600
vt 0.65185100 0.14501700
vt 0.61279700 0.66120800
vt 0.53868200 0.66120800
vt 0.90211600 0.06147400
vt 0.01050600 0.14925100
vt 0.34199800 0.20613200
vt 0.31435200 0.94066600
vt 0.85213800 0.63482000
vt 0.09903600 0.20724500
vt 0.92333900 0.63482000
vt 0.44712800 0.25268900
vt 0.17709900 0.59388000
vt 0.46816300 0.36016700
vt 0.57648700 0.28049000
vt 0.60242500 0.28299700
vt 0.46816300 0.43289900
vt 0.31488600 0.94552000
vt 0.50605800 0.28056900
vt 0.34315900 0.66122300
vt 0.17727200 0.66100700
vt 0.04195500 0.66115300
vt 0.75377300 0.45217900
vt 0.66222400 0.07850700
vt 0.78508000 0.96946200
vt 0.76060900 0.84506200
vt 0.92654800 0.75933900
vt 0.64801900 0.55911800
vt 0.89621200 0.05190100
vt 0.62030100 0.28305800
vt 0.67748600 0.69656400
vt 0.48419200 0.45726600
vt 0.74807300 0.69648500
vt 0.47392800 0.52875400
vt 0.75190800 0.79533300
vt 0.21718700 0.96418600
vt 0.48420100 0.55891600
vt 0.01476300 0.98658200
vt 0.50903500 0.30917800
vt 0.69927700 0.23424700
vt 0.66284100 0.23423500
vt 0.20484100 0.33281500
vt 0.37582200 0.98937600
vt 0.01556100 0.98915300
vt 0.16996400 0.51012200
vt 0.50959200 0.30660400
vt 0.64718200 0.24194700
vt 0.95669300 0.10916700
vt 0.71334700 0.24196900
vt 0.29849200 0.47929700
vt 0.58610000 0.04380800
vt 0.31192000 0.41102900
vt 0.58606700 0.11278500
vt 0.57497900 0.98937600
vt 0.83112600 0.52228700
vt 0.65771600 0.48832800
vt 0.54386100 0.63475800
vt 0.41308000 0.66122300
vt 0.81053300 0.05769800
vt 0.95258200 0.60620100
vt 0.76449300 0.27608400
vt 0.34720000 0.63648400
vt 0.01564900 0.23999800
vt 0.73948200 0.24414900
vt 0.79912900 0.24408200
vt 0.21442400 0.54597800
vt 0.07656400 0.23999800
vt 0.67434800 0.41244800
vt 0.80230200 0.11747800
vt 0.70233200 0.27018400
vt 0.94435100 0.54327100
vt 0.17125300 0.50816300
vt 0.20529100 0.33512300
vt 0.13110200 0.41014400
vt 0.69092400 0.87425100
vt 0.70965300 0.96946200
vt 0.88878400 0.04529800
vt 0.89420500 0.21665600
vt 0.86417100 0.04532500
vt 0.86906900 0.21665600
vt 0.78162000 0.66388800
vt 0.22004200 0.94326100
vt 0.57803800 0.18457000
vt 0.35281800 0.25077000
vt 0.92662000 0.69096300
vt 0.66144800 0.49084900
vt 0.92675300 0.81689900
vt 0.96523800 0.48752700
vt 0.68626200 0.61699200
vt 0.15425200 0.55674800
vt 0.33962300 0.11081500
vt 0.47877400 0.21416500
vt 0.10455400 0.55673100
vt 0.77460000 0.79966200
vt 0.33962300 0.06010200
vt 0.82352100 0.89706900
vt 0.96857300 0.75127700
vt 0.81394500 0.89899500
vt 0.43955100 0.43790600
vt 0.91819600 0.44376400
vt 0.85728100 0.44376400
vt 0.30677500 0.74950200
vt 0.80230200 0.08950100
vt 0.70233200 0.42416900
vt 0.74957000 0.80927300
vt 0.03371800 0.10493600
vt 0.20339400 0.96593700
vt 0.03371800 0.02819800
vt 0.67526200 0.80935600
vt 0.93305500 0.10237400
vt 0.64956800 0.07758900
vt 0.79440100 0.98347600
vt 0.95258200 0.39010100
vt 0.82022300 0.70673900
vt 0.78128100 0.12466300
vt 0.78128100 0.06476700
vt 0.43317900 0.12124200
vt 0.69495400 0.11131800
vt 0.94421700 0.21840700
vt 0.64133800 0.10500400
vt 0.79051100 0.84711300
vt 0.62032600 0.47196800
vt 0.50605800 0.82395300
vt 0.65023100 0.82395300
vt 0.48504600 0.82401200
vt 0.79779100 0.71344700
vt 0.75872800 0.12252600
vt 0.75872800 0.06690400
vt 0.45562800 0.12795000
vt 0.47308600 0.21350400
vt 0.64820300 0.22636000
vt 0.96088200 0.12474400
vt 0.71345100 0.22638200
vt 0.41305100 0.65864900
vt 0.75510800 0.63733200
vt 0.01050600 0.04282800
vt 0.70352900 0.24676500
vt 0.01050600 0.09030600
vt 0.65700100 0.24674900
vt 0.95301700 0.11858700
vt 0.64133800 0.23253100
vt 0.21942800 0.98688400
vt 0.01541700 0.20993300
vt 0.51186300 0.13790900
vt 0.34639300 0.14545100
vt 0.55925000 0.13790900
vt 0.67974900 0.29009900
vt 0.66102000 0.38531000
vt 0.83112600 0.56046100
vt 0.61265800 0.98935800
vt 0.53927400 0.98935800
vt 0.81667900 0.48701900
vt 0.61757600 0.63475800
vt 0.51021300 0.98673400
vt 0.64716000 0.98673400
vt 0.48129200 0.66122300
vt 0.70492800 0.23148700
vt 0.65719100 0.23147100
vt 0.85255500 0.71857700
vt 0.85572000 0.10880900
vt 0.89601700 0.10876400
vt 0.13684600 0.31087600
vt 0.64720100 0.39469100
vt 0.93480900 0.86642100
vt 0.10898500 0.55473800
vt 0.33963200 0.06462300
vt 0.33963200 0.10629400
vt 0.14982200 0.55475100
vt 0.78404100 0.36056500
vt 0.27617200 0.34938000
vt 0.14327000 0.48312800
vt 0.04247000 0.98929800
vt 0.34382000 0.98937600
vt 0.16996400 0.34742400
vt 0.17645200 0.98915300
vt 0.65455100 0.22395200
vt 0.70756700 0.22397000
vt 0.31861100 0.44785900
vt 0.57487100 0.65865000
vt 0.78202500 0.39078900
vt 0.60701100 0.05007100
vt 0.79361600 0.33186200
vt 0.60698300 0.10961000
vt 0.02815500 0.10548900
vt 0.20258700 0.97158000
vt 0.02815500 0.02764400
vt 0.93836300 0.10155800
vt 0.67710800 0.86486900
vt 0.93930000 0.69394500
vt 0.94736900 0.89633200
vt 0.13550400 0.44651400
vt 0.94744100 0.96448800
vt 0.14893300 0.37824600
vt 0.56494300 0.16894800
vt 0.02145600 0.63718300
vt 0.17709900 0.63672600
vt 0.51666900 0.16900200
vt 0.78162000 0.68448400
vt 0.07075700 0.63718300
vt 0.70756700 0.15783000
vt 0.96169600 0.11435000
vt 0.70980200 0.23677500
vt 0.65185100 0.23675500
f 282/282 684/684 349/349
f 282/282 349/349 328/328
f 338/338 610/610 493/493
f 338/338 493/493 871/871
f 259/259 258/258 221/221
f 259/259 221/221 219/219
f 7/7 340/340 869/869
f 7/7 869/869 491/491
f 333/333 350/350 689/689
f 333/333 689/689 667/667
f 349/349 684/684 666/666
f 349/349 666/666 692/692
f 548/548 865/865 4/4
f 548/548 4/4 433/433
f 329/329 350/350 333/333
f 329/329 333/333 283/283
f 161/161 160/160 432/432
f 161/161 432/432 429/429
f 363/363 365/365 601/601
f 363/363 601/601 205/205
f 434/434 5/5 793/793
f 434/434 793/793 466/466
f 236/236 469/469 931/931
f 236/236 931/931 353/353
f 694/694 693/693 469/469
f 694/694 469/469 468/468
f 396/396 436/436 467/467
f 396/396 467/467 794/794
f 299/299 625/625 747/747
f 299/299 747/747 545/545
f 571/571 569/569 693/693
f 571/571 693/693 694/694
f 234/234 301/301 546/546
f 234/234 546/546 748/748
f 748/748 546/546 466/466
f 748/748 466/466 554/554
f 545/545 747/747 553/553
f 545/545 553/553 467/467
f 407/407 12/12 656/656
f 407/407 656/656 655/655
f 205/205 601/601 547/547
f 205/205 547/547 548/548
f 170/170 211/211 212/212
f 170/170 212/212 171/171
f 760/760 258/258 259/259
f 760/760 259/259 759/759
f 212/212 211/211 597/597
f 212/212 597/597 599/599
f 207/207 535/535 143/143
f 207/207 143/143 440/440
f 944/944 828/828 827/827
f 828/828 944/944 945/945
f 945/945 944/944 964/964
f 945/945 964/964 963/963
f 963/963 964/964 987/987
f 963/963 987/987 391/391
f 391/391 987/987 409/409
f 391/391 409/409 410/410
f 410/410 409/409 474/474
f 410/410 474/474 475/475
f 607/607 557/557 752/752
f 607/607 752/752 314/314
f 834/834 145/145 770/770
f 834/834 770/770 926/926
f 529/529 485/485 206/206
f 529/529 206/206 927/927
f 724/724 726/726 460/460
f 724/724 460/460 461/461
f 379/379 380/380 771/771
f 379/379 771/771 769/769
f 560/560 210/210 313/313
f 560/560 313/313 751/751
f 380/380 379/379 199/199
f 380/380 199/199 200/200
f 624/624 623/623 360/360
f 624/624 360/360 362/362
f 484/484 528/528 929/929
f 484/484 929/929 208/208
f 440/440 143/143 648/648
f 440/440 648/648 359/359
f 528/528 484/484 116/116
f 528/528 116/116 335/335
f 115/115 334/334 751/751
f 115/115 751/751 313/313
f 269/269 270/270 461/461
f 269/269 461/461 460/460
f 485/485 529/529 334/334
f 485/485 334/334 115/115
f 623/623 624/624 270/270
f 623/623 270/270 269/269
f 335/335 116/116 314/314
f 335/335 314/314 752/752
f 200/200 199/199 655/655
f 200/200 655/655 656/656
f 924/924 772/772 149/149
f 924/924 149/149 836/836
f 328/328 349/349 551/551
f 328/328 551/551 482/482
f 483/483 552/552 211/211
f 483/483 211/211 170/170
f 350/350 329/329 480/480
f 350/350 480/480 549/549
f 550/550 481/481 171/171
f 550/550 171/171 212/212
f 258/258 760/760 515/515
f 258/258 515/515 887/887
f 886/886 514/514 283/283
f 886/886 283/283 333/333
f 684/684 282/282 517/517
f 684/684 517/517 889/889
f 888/888 516/516 759/759
f 888/888 759/759 259/259
f 349/349 692/692 853/853
f 349/349 853/853 551/551
f 552/552 854/854 597/597
f 552/552 597/597 211/211
f 689/689 350/350 549/549
f 689/689 549/549 849/849
f 850/850 550/550 212/212
f 850/850 212/212 599/599
f 259/259 219/219 326/326
f 259/259 326/326 888/888
f 889/889 327/327 666/666
f 889/889 666/666 684/684
f 221/221 258/258 887/887
f 221/221 887/887 323/323
f 322/322 886/886 333/333
f 322/322 333/333 667/667
f 468/468 469/469 236/236
f 468/468 236/236 238/238
f 468/468 238/238 358/358
f 468/468 358/358 933/933
f 366/366 598/598 852/852
f 366/366 852/852 247/247
f 247/247 852/852 691/691
f 247/247 691/691 300/300
f 932/932 356/356 309/309
f 932/932 309/309 553/553
f 554/554 466/466 793/793
f 554/554 793/793 308/308
f 570/570 220/220 324/324
f 570/570 324/324 664/664
f 664/664 324/324 668/668
f 664/664 668/668 235/235
f 571/571 694/694 225/225
f 571/571 225/225 659/659
f 660/660 224/224 747/747
f 660/660 747/747 625/625
f 547/547 601/601 90/90
f 547/547 90/90 435/435
f 436/436 91/91 545/545
f 436/436 545/545 467/467
f 363/363 205/205 92/92
f 363/363 92/92 250/250
f 249/249 93/93 546/546
f 249/249 546/546 301/301
f 469/469 693/693 223/223
f 469/469 223/223 931/931
f 930/930 222/222 748/748
f 930/930 748/748 554/554
f 694/694 468/468 933/933
f 694/694 933/933 225/225
f 224/224 932/932 553/553
f 224/224 553/553 747/747
f 205/205 548/548 433/433
f 205/205 433/433 92/92
f 93/93 434/434 466/466
f 93/93 466/466 546/546
f 548/548 547/547 867/867
f 548/548 867/867 865/865
f 467/467 553/553 309/309
f 467/467 309/309 794/794
f 355/355 930/930 554/554
f 355/355 554/554 308/308
f 162/162 427/427 581/581
f 162/162 581/581 800/800
f 799/799 582/582 493/493
f 799/799 493/493 610/610
f 204/204 171/171 481/481
f 204/204 481/481 525/525
f 524/524 480/480 329/329
f 524/524 329/329 338/338
f 340/340 328/328 482/482
f 340/340 482/482 520/520
f 521/521 483/483 170/170
f 521/521 170/170 202/202
f 6/6 490/490 586/586
f 6/6 586/586 797/797
f 797/797 586/586 430/430
f 797/797 430/430 159/159
f 361/361 646/646 368/368
f 361/361 368/368 445/445
f 835/835 147/147 927/927
f 835/835 927/927 500/500
f 927/927 206/206 534/534
f 927/927 534/534 500/500
f 443/443 367/367 534/534
f 443/443 534/534 206/206
f 362/362 360/360 649/649
f 362/362 649/649 647/647
f 208/208 929/929 502/502
f 208/208 502/502 536/536
f 769/769 771/771 923/923
f 769/769 923/923 925/925
f 334/334 529/529 295/295
f 334/334 295/295 112/112
f 111/111 296/296 380/380
f 111/111 380/380 200/200
f 528/528 335/335 110/110
f 528/528 110/110 297/297
f 298/298 109/109 199/199
f 298/298 199/199 379/379
f 751/751 334/334 112/112
f 751/751 112/112 974/974
f 973/973 111/111 200/200
f 973/973 200/200 656/656
f 335/335 752/752 972/972
f 335/335 972/972 110/110
f 109/109 971/971 655/655
f 109/109 655/655 199/199
f 270/270 624/624 304/304
f 270/270 304/304 905/905
f 906/906 303/303 485/485
f 906/906 485/485 115/115
f 461/461 270/270 905/905
f 461/461 905/905 135/135
f 136/136 906/906 115/115
f 136/136 115/115 313/313
f 116/116 484/484 305/305
f 116/116 305/305 696/696
f 695/695 306/306 623/623
f 695/695 623/623 269/269
f 314/314 116/116 696/696
f 314/314 696/696 134/134
f 133/133 695/695 269/269
f 133/133 269/269 460/460
f 929/929 528/528 297/297
f 929/929 297/297 144/144
f 146/146 298/298 379/379
f 146/146 379/379 769/769
f 529/529 927/927 147/147
f 529/529 147/147 295/295
f 296/296 148/148 771/771
f 296/296 771/771 380/380
f 381/381 431/431 585/585
f 381/381 585/585 806/806
f 805/805 584/584 491/491
f 805/805 491/491 213/213
f 407/407 655/655 971/971
f 407/407 971/971 893/893
f 894/894 972/972 752/752
f 894/894 752/752 557/557
f 560/560 751/751 974/974
f 560/560 974/974 897/897
f 895/895 973/973 656/656
f 895/895 656/656 12/12
f 360/360 623/623 306/306
f 360/360 306/306 442/442
f 441/441 305/305 484/484
f 441/441 484/484 208/208
f 624/624 362/362 444/444
f 624/624 444/444 304/304
f 303/303 443/443 206/206
f 303/303 206/206 485/485
f 724/724 461/461 135/135
f 724/724 135/135 766/766
f 765/765 136/136 313/313
f 765/765 313/313 210/210
f 202/202 204/204 982/982
f 202/202 982/982 986/986
f 170/170 171/171 204/204
f 170/170 204/204 202/202
f 516/516 796/796 160/160
f 516/516 160/160 759/759
f 282/282 7/7 795/795
f 282/282 795/795 517/517
f 781/781 522/522 201/201
f 781/781 201/201 985/985
f 868/868 339/339 522/522
f 868/868 522/522 781/781
f 777/777 524/524 338/338
f 777/777 338/338 871/871
f 983/983 203/203 523/523
f 983/983 523/523 779/779
f 514/514 799/799 610/610
f 514/514 610/610 283/283
f 760/760 161/161 798/798
f 760/760 798/798 515/515
f 760/760 759/759 160/160
f 760/760 160/160 161/161
f 282/282 328/328 340/340
f 282/282 340/340 7/7
f 329/329 283/283 610/610
f 329/329 610/610 338/338
f 583/583 802/802 215/215
f 583/583 215/215 492/492
f 428/428 383/383 802/802
f 428/428 802/802 583/583
f 778/778 342/342 25/25
f 778/778 25/25 981/981
f 870/870 167/167 342/342
f 870/870 342/342 778/778
f 780/780 344/344 165/165
f 780/780 165/165 869/869
f 984/984 23/23 346/346
f 984/984 346/346 782/782
f 263/263 805/805 213/213
f 263/263 213/213 47/47
f 180/180 382/382 804/804
f 180/180 804/804 265/265
f 870/870 492/492 215/215
f 870/870 215/215 167/167
f 428/428 431/431 381/381
f 428/428 381/381 383/383
f 491/491 869/869 165/165
f 491/491 165/165 213/213
f 984/984 981/981 25/25
f 984/984 25/25 23/23
f 727/727 95/95 820/820
f 727/727 820/820 761/761
f 761/761 820/820 189/189
f 761/761 189/189 606/606
f 260/260 817/817 187/187
f 260/260 187/187 636/636
f 177/177 96/96 819/819
f 177/177 819/819 261/261
f 592/592 413/413 567/567
f 592/592 567/567 62/62
f 196/196 478/478 411/411
f 196/196 411/411 591/591
f 594/594 750/750 824/824
f 594/594 824/824 198/198
f 64/64 565/565 750/750
f 64/64 750/750 594/594
f 196/196 636/636 187/187
f 196/196 187/187 478/478
f 177/177 179/179 94/94
f 177/177 94/94 96/96
f 47/47 197/197 823/823
f 47/47 823/823 190/190
f 64/64 62/62 567/567
f 64/64 567/567 565/565
f 24/24 26/26 63/63
f 24/24 63/63 65/65
f 213/213 165/165 197/197
f 213/213 197/197 47/47
f 384/384 382/382 180/180
f 384/384 180/180 178/178
f 166/166 214/214 636/636
f 166/166 636/636 196/196
f 24/24 65/65 595/595
f 24/24 595/595 345/345
f 344/344 596/596 197/197
f 344/344 197/197 165/165
f 166/166 196/196 591/591
f 166/166 591/591 343/343
f 341/341 593/593 63/63
f 341/341 63/63 26/26
f 384/384 178/178 262/262
f 384/384 262/262 801/801
f 803/803 260/260 636/636
f 803/803 636/636 214/214
f 94/94 179/179 264/264
f 94/94 264/264 821/821
f 821/821 264/264 46/46
f 821/821 46/46 191/191
f 134/134 762/762 607/607
f 134/134 607/607 314/314
f 460/460 726/726 763/763
f 460/460 763/763 133/133
f 818/818 764/764 209/209
f 818/818 209/209 188/188
f 97/97 725/725 764/764
f 97/97 764/764 818/818
f 412/412 896/896 13/13
f 412/412 13/13 568/568
f 479/479 559/559 896/896
f 479/479 896/896 412/412
f 749/749 892/892 558/558
f 749/749 558/558 822/822
f 566/566 408/408 892/892
f 566/566 892/892 749/749
f 479/479 188/188 209/209
f 479/479 209/209 559/559
f 97/97 95/95 727/727
f 97/97 727/727 725/725
f 190/190 823/823 557/557
f 190/190 557/557 607/607
f 566/566 568/568 13/13
f 566/566 13/13 408/408
f 851/851 251/251 302/302
f 851/851 302/302 690/690
f 600/600 364/364 251/251
f 600/600 251/251 851/851
f 325/325 661/661 626/626
f 325/325 626/626 665/665
f 218/218 572/572 661/661
f 218/218 661/661 325/325
f 222/222 662/662 234/234
f 222/222 234/234 748/748
f 693/693 569/569 663/663
f 693/693 663/663 223/223
f 91/91 246/246 299/299
f 91/91 299/299 545/545
f 601/601 365/365 248/248
f 601/601 248/248 90/90
f 668/668 690/690 302/302
f 668/668 302/302 235/235
f 218/218 220/220 570/570
f 218/218 570/570 572/572
f 691/691 665/665 626/626
f 691/691 626/626 300/300
f 600/600 598/598 366/366
f 600/600 366/366 364/364
f 474/474 409/409 788/788
f 474/474 788/788 15/15
f 15/15 788/788 368/368
f 15/15 368/368 646/646
f 409/409 987/987 80/80
f 409/409 80/80 788/788
f 787/787 79/79 534/534
f 787/787 534/534 367/367
f 944/944 827/827 768/768
f 944/944 768/768 989/989
f 989/989 768/768 924/924
f 989/989 924/924 836/836
f 964/964 944/944 989/989
f 964/964 989/989 920/920
f 919/919 988/988 835/835
f 919/919 835/835 500/500
f 391/391 410/410 789/789
f 391/391 789/789 470/470
f 470/470 789/789 143/143
f 470/470 143/143 535/535
f 410/410 475/475 14/14
f 410/410 14/14 789/789
f 789/789 14/14 648/648
f 789/789 648/648 143/143
f 945/945 963/963 918/918
f 945/945 918/918 990/990
f 990/990 918/918 501/501
f 990/990 501/501 834/834
f 828/828 945/945 990/990
f 828/828 990/990 767/767
f 767/767 990/990 834/834
f 767/767 834/834 926/926
f 827/827 828/828 767/767
f 827/827 767/767 768/768
f 768/768 767/767 926/926
f 768/768 926/926 924/924
f 963/963 391/391 470/470
f 963/963 470/470 918/918
f 918/918 470/470 535/535
f 918/918 535/535 501/501
f 987/987 964/964 920/920
f 987/987 920/920 80/80
f 79/79 919/919 500/500
f 79/79 500/500 534/534
f 475/475 474/474 15/15
f 475/475 15/15 14/14
f 14/14 15/15 646/646
f 14/14 646/646 648/648
f 501/501 928/928 145/145
f 501/501 145/145 834/834
f 511/511 723/723 267/267
f 511/511 267/267 705/705
f 705/705 267/267 357/357
f 705/705 357/357 239/239
f 723/723 947/947 72/72
f 723/723 72/72 267/267
f 266/266 71/71 309/309
f 266/266 309/309 356/356
f 496/496 230/230 816/816
f 496/496 816/816 729/729
f 729/729 816/816 3/3
f 729/729 3/3 864/864
f 230/230 18/18 31/31
f 230/230 31/31 816/816
f 816/816 31/31 792/792
f 816/816 792/792 3/3
f 232/232 498/498 731/731
f 232/232 731/731 257/257
f 257/257 731/731 866/866
f 257/257 866/866 397/397
f 17/17 232/232 257/257
f 17/17 257/257 30/30
f 29/29 256/256 396/396
f 29/29 396/396 794/794
f 720/720 509/509 703/703
f 720/720 703/703 268/268
f 268/268 703/703 237/237
f 268/268 237/237 354/354
f 948/948 720/720 268/268
f 948/948 268/268 73/73
f 73/73 268/268 354/354
f 73/73 354/354 307/307
f 498/498 496/496 729/729
f 498/498 729/729 731/731
f 732/732 730/730 865/865
f 732/732 865/865 867/867
f 238/238 236/236 702/702
f 238/238 702/702 704/704
f 705/705 703/703 509/509
f 705/705 509/509 511/511
f 307/307 792/792 31/31
f 307/307 31/31 73/73
f 73/73 31/31 18/18
f 73/73 18/18 948/948
f 794/794 309/309 71/71
f 794/794 71/71 29/29
f 30/30 72/72 947/947
f 30/30 947/947 17/17
f 867/867 547/547 435/435
f 867/867 435/435 398/398
f 946/946 107/107 10/10
f 946/946 10/10 16/16
f 508/508 654/654 651/651
f 508/508 651/651 510/510
f 499/499 784/784 786/786
f 499/499 786/786 497/497
f 19/19 8/8 105/105
f 19/19 105/105 949/949
f 16/16 10/10 669/669
f 16/16 669/669 231/231
f 233/233 671/671 784/784
f 233/233 784/784 499/499
f 8/8 19/19 228/228
f 8/8 228/228 311/311
f 312/312 229/229 497/497
f 312/312 497/497 786/786
f 654/654 508/508 719/719
f 654/654 719/719 758/758
f 756/756 718/718 949/949
f 756/756 949/949 105/105
f 107/107 946/946 721/721
f 107/107 721/721 755/755
f 753/753 722/722 510/510
f 753/753 510/510 651/651
f 652/652 653/653 698/698
f 652/652 698/698 701/701
f 621/621 710/710 634/634
f 621/621 634/634 113/113
f 106/106 9/9 252/252
f 106/106 252/252 462/462
f 785/785 783/783 955/955
f 785/785 955/955 952/952
f 255/255 465/465 158/158
f 255/255 158/158 917/917
f 11/11 108/108 464/464
f 11/11 464/464 254/254
f 158/158 612/612 28/28
f 158/158 28/28 917/917
f 463/463 253/253 564/564
f 463/463 564/564 157/157
f 564/564 27/27 611/611
f 564/564 611/611 157/157
f 700/700 699/699 420/420
f 700/700 420/420 421/421
f 420/420 284/284 285/285
f 420/420 285/285 421/421
f 953/953 954/954 293/293
f 953/953 293/293 292/292
f 293/293 736/736 735/735
f 293/293 735/735 292/292
f 86/86 85/85 393/393
f 86/86 393/393 392/392
f 635/635 114/114 611/611
f 635/635 611/611 27/27
f 290/290 291/291 394/394
f 290/290 394/394 395/395
f 395/395 394/394 285/285
f 395/395 285/285 284/284
f 711/711 622/622 114/114
f 711/711 114/114 635/635
f 392/392 393/393 735/735
f 392/392 735/735 736/736
f 113/113 634/634 28/28
f 113/113 28/28 612/612
f 377/377 633/633 844/844
f 377/377 844/844 2/2
f 590/590 697/697 103/103
f 590/590 103/103 679/679
f 697/697 415/415 837/837
f 697/697 837/837 103/103
f 415/415 589/589 163/163
f 415/415 163/163 837/837
f 589/589 414/414 839/839
f 589/589 839/839 163/163
f 414/414 132/132 99/99
f 414/414 99/99 839/839
f 132/132 957/957 676/676
f 132/132 676/676 99/99
f 957/957 715/715 716/716
f 957/957 716/716 676/676
f 715/715 860/860 172/172
f 715/715 172/172 716/716
f 860/860 734/734 739/739
f 860/860 739/739 172/172
f 734/734 472/472 980/980
f 734/734 980/980 739/739
f 472/472 861/861 675/675
f 472/472 675/675 980/980
f 861/861 471/471 978/978
f 861/861 978/978 675/675
f 471/471 733/733 741/741
f 471/471 741/741 978/978
f 563/563 119/119 320/320
f 563/563 320/320 423/423
f 733/733 859/859 176/176
f 733/733 176/176 741/741
f 859/859 712/712 713/713
f 859/859 713/713 176/176
f 378/378 631/631 807/807
f 378/378 807/807 76/76
f 838/838 164/164 387/387
f 838/838 387/387 577/577
f 875/875 316/316 129/129
f 875/875 129/129 388/388
f 843/843 609/609 140/140
f 843/843 140/140 873/873
f 2/2 844/844 728/728
f 2/2 728/728 637/637
f 66/66 217/217 942/942
f 66/66 942/942 911/911
f 74/74 809/809 632/632
f 74/74 632/632 376/376
f 278/278 44/44 318/318
f 278/278 318/318 279/279
f 294/294 446/446 315/315
f 294/294 315/315 876/876
f 75/75 808/808 185/185
f 75/75 185/185 351/351
f 272/272 563/563 423/423
f 272/272 423/423 244/244
f 44/44 843/843 873/873
f 44/44 873/873 318/318
f 912/912 943/943 154/154
f 912/912 154/154 638/638
f 271/271 121/121 810/810
f 271/271 810/810 241/241
f 608/608 294/294 876/876
f 608/608 876/876 142/142
f 910/910 941/941 216/216
f 910/910 216/216 650/650
f 351/351 185/185 473/473
f 351/351 473/473 580/580
f 120/120 272/272 244/244
f 120/120 244/244 227/227
f 121/121 278/278 279/279
f 121/121 279/279 810/810
f 638/638 154/154 845/845
f 638/638 845/845 1/1
f 637/637 728/728 940/940
f 637/637 940/940 909/909
f 562/562 271/271 241/241
f 562/562 241/241 426/426
f 447/447 608/608 142/142
f 447/447 142/142 815/815
f 650/650 216/216 330/330
f 650/650 330/330 450/450
f 580/580 473/473 186/186
f 580/580 186/186 352/352
f 281/281 120/120 227/227
f 281/281 227/227 276/276
f 1/1 845/845 631/631
f 1/1 631/631 378/378
f 119/119 562/562 426/426
f 119/119 426/426 320/320
f 609/609 447/447 815/815
f 609/609 815/815 140/140
f 450/450 330/330 217/217
f 450/450 217/217 66/66
f 352/352 186/186 809/809
f 352/352 809/809 74/74
f 446/446 281/281 276/276
f 446/446 276/276 315/315
f 242/242 811/811 898/898
f 242/242 898/898 641/641
f 175/175 714/714 513/513
f 175/175 513/513 83/83
f 737/737 979/979 438/438
f 737/737 438/438 375/375
f 321/321 425/425 603/603
f 321/321 603/603 422/422
f 141/141 874/874 390/390
f 141/141 390/390 455/455
f 164/164 840/840 579/579
f 164/164 579/579 387/387
f 979/979 674/674 605/605
f 979/979 605/605 438/438
f 424/424 321/321 422/422
f 424/424 422/422 602/602
f 814/814 141/141 455/455
f 814/814 455/455 630/630
f 840/840 101/101 21/21
f 840/840 21/21 579/579
f 674/674 977/977 439/439
f 674/674 439/439 605/605
f 243/243 424/424 602/602
f 243/243 602/602 48/48
f 139/139 814/814 630/630
f 139/139 630/630 453/453
f 100/100 677/677 847/847
f 100/100 847/847 20/20
f 977/977 740/740 951/951
f 977/977 951/951 439/439
f 226/226 245/245 49/49
f 226/226 49/49 900/900
f 872/872 139/139 453/453
f 872/872 453/453 976/976
f 677/677 717/717 512/512
f 677/677 512/512 847/847
f 168/168 532/532 555/555
f 532/532 168/168 934/934
f 532/532 934/934 117/117
f 117/117 934/934 531/531
f 117/117 531/531 192/192
f 192/192 531/531 98/98
f 192/192 98/98 956/956
f 956/956 98/98 530/530
f 956/956 530/530 193/193
f 193/193 530/530 118/118
f 118/118 530/530 935/935
f 118/118 935/935 169/169
f 118/118 169/169 533/533
f 533/533 169/169 556/556
f 740/740 174/174 82/82
f 740/740 82/82 951/951
f 277/277 226/226 900/900
f 277/277 900/900 537/537
f 812/812 518/518 476/476
f 518/518 812/812 60/60
f 518/518 60/60 863/863
f 863/863 60/60 526/526
f 863/863 526/526 775/775
f 775/775 526/526 885/885
f 775/775 885/885 45/45
f 45/45 885/885 527/527
f 45/45 527/527 776/776
f 776/776 527/527 61/61
f 776/776 61/61 862/862
f 862/862 61/61 813/813
f 862/862 813/813 519/519
f 519/519 813/813 477/477
f 317/317 872/872 976/976
f 317/317 976/976 128/128
f 717/717 173/173 84/84
f 717/717 84/84 512/512
f 811/811 280/280 538/538
f 811/811 538/538 898/898
f 316/316 277/277 537/537
f 316/316 537/537 129/129
f 280/280 319/319 127/127
f 280/280 127/127 538/538
f 678/678 102/102 628/628
f 678/678 628/628 846/846
f 173/173 738/738 374/374
f 173/173 374/374 84/84
f 425/425 240/240 640/640
f 425/425 640/640 603/603
f 104/104 838/838 577/577
f 104/104 577/577 627/627
f 513/513 846/846 369/369
f 513/513 369/369 890/890
f 891/891 370/370 533/533
f 891/891 533/533 556/556
f 898/898 538/538 672/672
f 898/898 672/672 122/122
f 123/123 673/673 477/477
f 123/123 477/477 813/813
f 846/846 628/628 194/194
f 846/846 194/194 369/369
f 370/370 195/195 118/118
f 370/370 118/118 533/533
f 641/641 898/898 122/122
f 641/641 122/122 907/907
f 908/908 123/123 813/813
f 908/908 813/813 61/61
f 629/629 578/578 967/967
f 629/629 967/967 195/195
f 195/195 967/967 193/193
f 195/195 193/193 118/118
f 604/604 639/639 908/908
f 604/604 908/908 706/706
f 706/706 908/908 61/61
f 706/706 61/61 527/527
f 577/577 387/387 156/156
f 577/577 156/156 968/968
f 967/967 155/155 956/956
f 967/967 956/956 193/193
f 422/422 603/603 707/707
f 422/422 707/707 884/884
f 883/883 706/706 527/527
f 883/883 527/527 885/885
f 387/387 579/579 970/970
f 387/387 970/970 156/156
f 155/155 969/969 192/192
f 155/155 192/192 956/956
f 602/602 422/422 884/884
f 602/602 884/884 709/709
f 708/708 883/883 885/885
f 708/708 885/885 526/526
f 579/579 21/21 588/588
f 579/579 588/588 970/970
f 969/969 587/587 117/117
f 969/969 117/117 192/192
f 48/48 602/602 709/709
f 48/48 709/709 337/337
f 336/336 708/708 526/526
f 336/336 526/526 60/60
f 22/22 848/848 371/371
f 22/22 371/371 587/587
f 587/587 371/371 532/532
f 587/587 532/532 117/117
f 899/899 50/50 336/336
f 899/899 336/336 124/124
f 124/124 336/336 60/60
f 124/124 60/60 812/812
f 847/847 512/512 332/332
f 847/847 332/332 372/372
f 371/371 331/331 555/555
f 371/371 555/555 532/532
f 537/537 900/900 125/125
f 537/537 125/125 88/88
f 87/87 124/124 812/812
f 87/87 812/812 476/476
f 512/512 84/84 858/858
f 512/512 858/858 332/332
f 331/331 857/857 168/168
f 331/331 168/168 555/555
f 129/129 537/537 88/88
f 129/129 88/88 645/645
f 644/644 87/87 476/476
f 644/644 476/476 518/518
f 84/84 374/374 78/78
f 84/84 78/78 858/858
f 857/857 77/77 934/934
f 857/857 934/934 168/168
f 388/388 129/129 645/645
f 388/388 645/645 774/774
f 773/773 644/644 518/518
f 773/773 518/518 863/863
f 373/373 437/437 289/289
f 373/373 289/289 77/77
f 77/77 289/289 531/531
f 77/77 531/531 934/934
f 454/454 389/389 773/773
f 454/454 773/773 35/35
f 35/35 773/773 863/863
f 35/35 863/863 775/775
f 438/438 605/605 495/495
f 438/438 495/495 288/288
f 289/289 494/494 98/98
f 289/289 98/98 531/531
f 630/630 455/455 34/34
f 630/630 34/34 273/273
f 274/274 35/35 775/775
f 274/274 775/775 45/45
f 605/605 439/439 287/287
f 605/605 287/287 495/495
f 494/494 286/286 530/530
f 494/494 530/530 98/98
f 453/453 630/630 273/273
f 453/453 273/273 32/32
f 33/33 274/274 45/45
f 33/33 45/45 776/776
f 439/439 951/951 657/657
f 439/439 657/657 287/287
f 286/286 658/658 935/935
f 286/286 935/935 530/530
f 976/976 453/453 32/32
f 976/976 32/32 448/448
f 449/449 33/33 776/776
f 449/449 776/776 862/862
f 950/950 81/81 855/855
f 950/950 855/855 658/658
f 658/658 855/855 169/169
f 658/658 169/169 935/935
f 126/126 975/975 449/449
f 126/126 449/449 643/643
f 643/643 449/449 862/862
f 643/643 862/862 519/519
f 83/83 513/513 890/890
f 83/83 890/890 856/856
f 855/855 891/891 556/556
f 855/855 556/556 169/169
f 538/538 127/127 642/642
f 538/538 642/642 672/672
f 673/673 643/643 519/519
f 673/673 519/519 477/477
f 714/714 678/678 846/846
f 714/714 846/846 513/513
f 130/130 386/386 620/620
f 130/130 620/620 70/70
f 69/69 619/619 590/590
f 69/69 590/590 712/712
f 728/728 844/844 348/348
f 728/728 348/348 153/153
f 152/152 347/347 278/278
f 152/152 278/278 121/121
f 386/386 183/183 542/542
f 386/386 542/542 620/620
f 619/619 543/543 697/697
f 619/619 697/697 590/590
f 940/940 728/728 153/153
f 940/940 153/153 38/38
f 39/39 152/152 121/121
f 39/39 121/121 271/271
f 184/184 791/791 456/456
f 184/184 456/456 544/544
f 543/543 457/457 415/415
f 543/543 415/415 697/697
f 216/216 941/941 40/40
f 216/216 40/40 938/938
f 939/939 39/39 271/271
f 939/939 271/271 562/562
f 791/791 561/561 966/966
f 791/791 966/966 456/456
f 457/457 965/965 589/589
f 457/457 589/589 415/415
f 330/330 216/216 938/938
f 330/330 938/938 841/841
f 842/842 939/939 562/562
f 842/842 562/562 119/119
f 561/561 790/790 459/459
f 561/561 459/459 966/966
f 965/965 458/458 414/414
f 965/965 414/414 589/589
f 217/217 330/330 841/841
f 217/217 841/841 937/937
f 936/936 842/842 119/119
f 936/936 119/119 563/563
f 790/790 181/181 539/539
f 790/790 539/539 459/459
f 458/458 541/541 132/132
f 458/458 132/132 414/414
f 942/942 217/217 937/937
f 942/942 937/937 41/41
f 43/43 936/936 563/563
f 43/43 563/563 272/272
f 182/182 385/385 617/617
f 182/182 617/617 540/540
f 541/541 618/618 957/957
f 541/541 957/957 132/132
f 154/154 943/943 42/42
f 154/154 42/42 150/150
f 151/151 43/43 272/272
f 151/151 272/272 120/120
f 385/385 131/131 67/67
f 385/385 67/67 617/617
f 618/618 68/68 715/715
f 618/618 715/715 957/957
f 845/845 154/154 150/150
f 845/845 150/150 921/921
f 922/922 151/151 120/120
f 922/922 120/120 281/281
f 131/131 275/275 830/830
f 131/131 830/830 67/67
f 68/68 829/829 860/860
f 68/68 860/860 715/715
f 631/631 845/845 921/921
f 631/631 921/921 400/400
f 399/399 922/922 281/281
f 399/399 281/281 446/446
f 275/275 54/54 960/960
f 275/275 960/960 830/830
f 829/829 961/961 734/734
f 829/829 734/734 860/860
f 807/807 631/631 400/400
f 807/807 400/400 503/503
f 504/504 399/399 446/446
f 504/504 446/446 294/294
f 55/55 746/746 57/57
f 55/55 57/57 962/962
f 961/961 56/56 472/472
f 961/961 472/472 734/734
f 185/185 808/808 505/505
f 185/185 505/505 576/576
f 575/575 504/504 294/294
f 575/575 294/294 608/608
f 746/746 89/89 138/138
f 746/746 138/138 57/57
f 56/56 137/137 861/861
f 56/56 861/861 472/472
f 473/473 185/185 576/576
f 473/473 576/576 37/37
f 36/36 575/575 608/608
f 36/36 608/608 447/447
f 89/89 745/745 58/58
f 89/89 58/58 138/138
f 137/137 59/59 471/471
f 137/137 471/471 861/861
f 186/186 473/473 37/37
f 186/186 37/37 573/573
f 574/574 36/36 447/447
f 574/574 447/447 609/609
f 745/745 53/53 959/959
f 745/745 959/959 58/58
f 59/59 958/958 733/733
f 59/59 733/733 471/471
f 809/809 186/186 573/573
f 809/809 573/573 507/507
f 506/506 574/574 609/609
f 506/506 609/609 843/843
f 53/53 825/825 831/831
f 53/53 831/831 959/959
f 958/958 832/832 859/859
f 958/958 859/859 733/733
f 632/632 809/809 507/507
f 632/632 507/507 401/401
f 402/402 506/506 843/843
f 402/402 843/843 44/44
f 826/826 130/130 70/70
f 826/826 70/70 833/833
f 832/832 69/69 712/712
f 832/832 712/712 859/859
f 844/844 633/633 403/403
f 844/844 403/403 348/348
f 347/347 402/402 44/44
f 347/347 44/44 278/278
f 712/712 590/590 679/679
f 712/712 679/679 713/713
f 745/745 352/352 74/74
f 745/745 74/74 53/53
f 561/561 450/450 66/66
f 561/561 66/66 790/790
f 131/131 1/1 378/378
f 131/131 378/378 275/275
f 89/89 580/580 352/352
f 89/89 352/352 745/745
f 791/791 650/650 450/450
f 791/791 450/450 561/561
f 386/386 637/637 909/909
f 386/386 909/909 183/183
f 385/385 638/638 1/1
f 385/385 1/1 131/131
f 746/746 351/351 580/580
f 746/746 580/580 89/89
f 184/184 910/910 650/650
f 184/184 650/650 791/791
f 182/182 912/912 638/638
f 182/182 638/638 385/385
f 55/55 75/75 351/351
f 55/55 351/351 746/746
f 53/53 74/74 376/376
f 53/53 376/376 825/825
f 790/790 66/66 911/911
f 790/790 911/911 181/181
f 130/130 2/2 637/637
f 130/130 637/637 386/386
f 275/275 378/378 76/76
f 275/275 76/76 54/54
f 826/826 377/377 2/2
f 826/826 2/2 130/130
f 252/252 9/9 310/310
f 252/252 310/310 880/880
f 880/880 310/310 785/785
f 880/880 785/785 952/952
f 11/11 254/254 877/877
f 11/11 877/877 670/670
f 670/670 877/877 955/955
f 670/670 955/955 783/783
f 564/564 253/253 881/881
f 564/564 881/881 614/614
f 613/613 882/882 953/953
f 613/613 953/953 292/292
f 255/255 917/917 615/615
f 255/255 615/615 879/879
f 878/878 616/616 293/293
f 878/878 293/293 954/954
f 698/698 653/653 757/757
f 698/698 757/757 742/742
f 742/742 757/757 106/106
f 742/742 106/106 462/462
f 420/420 699/699 744/744
f 420/420 744/744 487/487
f 486/486 743/743 463/463
f 486/486 463/463 157/157
f 464/464 108/108 754/754
f 464/464 754/754 404/404
f 404/404 754/754 652/652
f 404/404 652/652 701/701
f 158/158 465/465 405/405
f 158/158 405/405 488/488
f 489/489 406/406 700/700
f 489/489 700/700 421/421
f 394/394 291/291 903/903
f 394/394 903/903 451/451
f 452/452 904/904 621/621
f 452/452 621/621 113/113
f 86/86 392/392 683/683
f 86/86 683/683 418/418
f 419/419 682/682 634/634
f 419/419 634/634 710/710
f 285/285 394/394 451/451
f 285/285 451/451 915/915
f 916/916 452/452 113/113
f 916/916 113/113 612/612
f 392/392 736/736 687/687
f 392/392 687/687 683/683
f 682/682 688/688 28/28
f 682/682 28/28 634/634
f 114/114 622/622 901/901
f 114/114 901/901 52/52
f 51/51 902/902 290/290
f 51/51 290/290 395/395
f 611/611 114/114 52/52
f 611/611 52/52 913/913
f 914/914 51/51 395/395
f 914/914 395/395 284/284
f 393/393 85/85 417/417
f 393/393 417/417 681/681
f 680/680 416/416 711/711
f 680/680 711/711 635/635
f 735/735 393/393 681/681
f 735/735 681/681 686/686
f 685/685 680/680 635/635
f 685/685 635/635 27/27
f 917/917 28/28 688/688
f 917/917 688/688 615/615
f 616/616 687/687 736/736
f 616/616 736/736 293/293
f 27/27 564/564 614/614
f 27/27 614/614 685/685
f 686/686 613/613 292/292
f 686/686 292/292 735/735
f 421/421 285/285 915/915
f 421/421 915/915 489/489
f 488/488 916/916 612/612
f 488/488 612/612 158/158
f 284/284 420/420 487/487
f 284/284 487/487 914/914
f 913/913 486/486 157/157
f 913/913 157/157 611/611