o convex_0
v 0.010575 -0.073024 0.024504
v -0.012196 -0.097275 0.014111
v -0.012196 -0.097275 0.025988
v 0.012060 -0.098267 0.014605
v -0.008234 -0.072030 0.013121
v 0.011069 -0.097275 0.027968
v -0.009223 -0.072030 0.026484
v 0.009584 -0.072030 0.013615
v 0.009584 -0.097770 0.011635
v -0.008234 -0.099750 0.026978
v -0.008728 -0.098267 0.011635
v 0.007604 -0.072030 0.026978
v -0.009223 -0.092817 0.028464
v 0.009090 -0.100248 0.014605
v -0.010214 -0.072030 0.015101
v -0.009223 -0.100248 0.015101
v 0.008101 -0.100248 0.025988
v 0.012557 -0.093809 0.014111
v 0.007110 -0.073518 0.012625
v 0.012557 -0.096778 0.025988
v -0.009719 -0.092817 0.011635
v -0.010708 -0.075499 0.024504
v 0.009090 -0.092326 0.028464
v -0.007243 -0.076491 0.027474
v -0.009223 -0.097275 0.028464
v -0.012196 -0.092817 0.014111
v 0.010575 -0.094306 0.011635
v 0.010575 -0.073024 0.015595
v -0.011699 -0.095292 0.012131
v -0.012196 -0.094306 0.026484
v -0.009223 -0.100248 0.024998
v 0.009584 -0.073024 0.026484
v -0.007243 -0.073518 0.012625
v 0.010575 -0.099750 0.024504
v 0.012557 -0.093809 0.025988
v 0.008595 -0.098759 0.027968
v 0.009090 -0.090837 0.011635
v 0.007110 -0.100248 0.013615
v -0.011202 -0.094306 0.027968
v 0.011566 -0.094801 0.027968
v 0.007604 -0.076491 0.027474
v 0.009584 -0.097275 0.028464
v 0.012060 -0.094801 0.012625
v -0.010214 -0.072030 0.024998
v -0.007243 -0.100248 0.013615
v -0.010708 -0.099253 0.014111
v -0.007740 -0.072030 0.026978
v 0.010081 -0.072030 0.024998
v -0.008728 -0.090837 0.011635
v -0.012196 -0.092326 0.025494
v -0.010708 -0.075499 0.015595
v -0.009719 -0.073518 0.013615
f 29 15 52 
f 5 7 8 
f 8 7 12 
f 9 4 14 
f 7 5 15 
f 16 14 17 
f 5 8 19 
f 4 18 20 
f 9 11 21 
f 13 23 24 
f 3 10 25 
f 23 13 25 
f 2 3 26 
f 19 8 27 
f 9 21 27 
f 1 18 28 
f 21 11 29 
f 5 21 29 
f 2 26 29 
f 26 15 29 
f 26 3 30 
f 10 3 31 
f 16 17 31 
f 17 10 31 
f 5 19 33 
f 21 5 33 
f 14 4 34 
f 17 14 34 
f 20 6 34 
f 4 20 34 
f 18 1 35 
f 20 18 35 
f 1 32 35 
f 10 17 36 
f 25 10 36 
f 17 34 36 
f 34 6 36 
f 19 27 37 
f 27 21 37 
f 33 19 37 
f 11 9 38 
f 9 14 38 
f 14 16 38 
f 3 25 39 
f 25 13 39 
f 7 30 39 
f 30 3 39 
f 6 20 40 
f 20 35 40 
f 35 32 40 
f 24 23 41 
f 12 24 41 
f 32 12 41 
f 23 40 41 
f 40 32 41 
f 23 25 42 
f 36 6 42 
f 25 36 42 
f 6 40 42 
f 40 23 42 
f 4 9 43 
f 18 4 43 
f 9 27 43 
f 27 8 43 
f 8 28 43 
f 28 18 43 
f 7 15 44 
f 15 22 44 
f 30 7 44 
f 22 30 44 
f 11 38 45 
f 38 16 45 
f 3 2 46 
f 2 29 46 
f 29 11 46 
f 31 3 46 
f 16 31 46 
f 11 45 46 
f 45 16 46 
f 12 7 47 
f 13 24 47 
f 24 12 47 
f 7 39 47 
f 39 13 47 
f 8 12 48 
f 1 28 48 
f 28 8 48 
f 32 1 48 
f 12 32 48 
f 21 33 49 
f 37 21 49 
f 33 37 49 
f 30 22 50 
f 26 30 50 
f 22 15 51 
f 15 26 51 
f 50 22 51 
f 26 50 51 
f 15 5 52 
f 5 29 52 
o convex_1
v 0.008596 0.054704 0.025989
v -0.009224 0.059652 0.013615
v -0.007738 0.053218 0.014111
v 0.010080 0.060149 0.014111
v -0.009719 0.060149 0.025989
v -0.007738 0.052724 0.025493
v 0.008100 0.052724 0.014606
v 0.010080 0.060149 0.025989
v 0.008596 0.052724 0.024504
v -0.007244 0.052228 0.015596
v -0.010215 0.060149 0.014111
v -0.009224 0.054208 0.024504
v 0.006616 0.052228 0.024504
v 0.009091 0.059652 0.013615
v 0.009586 0.055199 0.015100
v -0.009224 0.054208 0.015100
v 0.010577 0.059652 0.024998
v 0.006120 0.052228 0.015100
v -0.008235 0.053714 0.025989
v -0.006749 0.052228 0.024504
v -0.010215 0.058662 0.024998
v 0.008596 0.053714 0.014111
v 0.007605 0.052724 0.025493
f 71 58 75 
f 57 53 60 
f 56 57 60 
f 54 55 63 
f 56 54 63 
f 57 56 63 
f 62 58 64 
f 59 61 65 
f 55 54 66 
f 54 56 66 
f 61 59 67 
f 55 62 68 
f 63 55 68 
f 62 64 68 
f 60 53 69 
f 56 60 69 
f 53 61 69 
f 67 56 69 
f 61 67 69 
f 55 59 70 
f 62 55 70 
f 59 65 70 
f 65 62 70 
f 53 57 71 
f 64 58 71 
f 58 62 72 
f 65 58 72 
f 62 65 72 
f 57 63 73 
f 63 68 73 
f 68 64 73 
f 71 57 73 
f 64 71 73 
f 59 55 74 
f 55 66 74 
f 66 56 74 
f 56 67 74 
f 67 59 74 
f 61 53 75 
f 58 65 75 
f 65 61 75 
f 53 71 75 
o convex_2
v 0.036807 0.090839 0.029945
v -0.007735 0.079460 -0.000248
v -0.007735 0.080445 -0.000248
v -0.031497 0.079460 0.039353
v 0.031861 0.061142 0.022523
v -0.031995 0.099254 0.019559
v -0.031995 0.062131 0.012133
v 0.031861 0.093312 0.005696
v 0.031861 0.067084 0.005696
v 0.031861 0.072528 0.037867
v -0.031995 0.065597 0.032917
v -0.031995 0.087868 0.002232
v 0.031363 0.094305 0.033413
v -0.035952 0.091334 0.031431
v 0.031861 0.099254 0.018569
v -0.031995 0.072034 0.002232
v 0.036316 0.077482 0.004707
v 0.003644 0.087868 0.038857
v -0.031006 0.093810 0.033906
v -0.002291 0.098760 0.011640
v -0.036941 0.069557 0.010154
v -0.010211 0.060149 0.025987
v 0.009587 0.060149 0.013619
v 0.036807 0.066590 0.025987
v 0.008590 0.098760 0.027970
v 0.031861 0.081431 0.000746
v 0.031363 0.065601 0.032917
v -0.036941 0.089351 0.009161
v -0.036941 0.071045 0.030938
v 0.031861 0.080441 0.039353
v -0.002291 0.072034 0.038857
v -0.031995 0.093810 0.006193
v 0.002648 0.088362 0.001242
v -0.003778 0.066590 0.004707
v 0.007601 0.072034 0.001242
v -0.031995 0.060647 0.020540
v 0.036807 0.090839 0.010154
v 0.032352 0.062629 0.012133
v 0.007110 0.065597 0.034403
v -0.031497 0.097771 0.027966
v -0.001302 0.100248 0.021530
v 0.002157 0.079460 0.040343
v 0.036807 0.074012 0.033413
v -0.002291 0.094305 0.005204
v -0.031006 0.087868 0.037867
v -0.031497 0.072034 0.037867
v 0.010078 0.060149 0.025987
v 0.036807 0.066590 0.014112
v 0.031363 0.097767 0.011640
v -0.036941 0.093810 0.022519
v -0.031995 0.078966 0.000746
v 0.031363 0.098265 0.026977
v 0.031861 0.087868 0.037867
v -0.010211 0.094305 0.034403
v -0.031995 0.097771 0.012133
v -0.036450 0.064607 0.021033
v 0.031363 0.073521 0.001735
v -0.031995 0.066091 0.006193
v -0.036450 0.080936 0.035392
v -0.009222 0.060149 0.013619
v -0.036450 0.077976 0.004707
v 0.036316 0.095789 0.019559
v 0.031861 0.087868 0.002232
v -0.031497 0.062131 0.027966
f 131 111 139 
f 77 78 101 
f 80 99 102 
f 103 96 104 
f 87 103 107 
f 78 87 108 
f 101 78 108 
f 84 98 109 
f 91 77 110 
f 84 109 110 
f 109 91 110 
f 76 99 112 
f 80 98 113 
f 98 84 113 
f 86 97 114 
f 102 85 114 
f 85 106 114 
f 89 94 115 
f 115 100 116 
f 95 81 116 
f 90 95 116 
f 81 115 116 
f 85 105 117 
f 105 93 117 
f 79 106 117 
f 106 85 117 
f 99 76 118 
f 85 102 118 
f 102 99 118 
f 105 85 118 
f 87 107 119 
f 107 95 119 
f 108 87 119 
f 83 108 119 
f 94 89 120 
f 79 117 120 
f 117 93 120 
f 104 86 121 
f 106 79 121 
f 86 114 121 
f 114 106 121 
f 98 80 122 
f 97 98 122 
f 80 102 122 
f 114 97 122 
f 102 114 122 
f 84 92 123 
f 99 80 123 
f 112 99 123 
f 92 112 123 
f 113 84 123 
f 80 113 123 
f 95 90 124 
f 112 83 124 
f 83 119 124 
f 119 95 124 
f 103 104 125 
f 115 81 125 
f 89 115 125 
f 78 77 126 
f 87 78 126 
f 77 91 126 
f 88 76 127 
f 100 88 127 
f 116 100 127 
f 90 116 127 
f 76 88 128 
f 88 93 128 
f 93 105 128 
f 118 76 128 
f 105 118 128 
f 93 88 129 
f 88 100 129 
f 115 94 129 
f 100 115 129 
f 94 120 129 
f 120 93 129 
f 81 95 130 
f 95 107 130 
f 107 103 130 
f 125 81 130 
f 103 125 130 
f 96 82 131 
f 104 96 131 
f 86 104 131 
f 82 111 131 
f 92 84 132 
f 77 101 132 
f 101 92 132 
f 110 77 132 
f 84 110 132 
f 82 96 133 
f 96 91 133 
f 91 109 133 
f 79 120 134 
f 120 89 134 
f 121 79 134 
f 104 121 134 
f 125 104 134 
f 89 125 134 
f 98 97 135 
f 109 98 135 
f 111 82 135 
f 97 111 135 
f 82 133 135 
f 133 109 135 
f 91 96 136 
f 103 87 136 
f 96 103 136 
f 87 126 136 
f 126 91 136 
f 76 112 137 
f 124 90 137 
f 112 124 137 
f 127 76 137 
f 90 127 137 
f 92 101 138 
f 101 108 138 
f 108 83 138 
f 83 112 138 
f 112 92 138 
f 97 86 139 
f 111 97 139 
f 86 131 139 
o convex_3
v 0.007606 0.000738 0.017576
v -0.010215 -0.072030 0.015101
v -0.009719 -0.072030 0.014111
v 0.010082 -0.072030 0.024998
v -0.009224 -0.013618 0.026484
v 0.009090 -0.072030 0.013615
v -0.008235 -0.013618 0.013119
v -0.009224 -0.072030 0.026484
v 0.007109 -0.013618 0.026977
v 0.009090 -0.013618 0.013615
v -0.006254 0.002228 0.024008
v 0.010082 -0.013618 0.024504
v -0.007740 -0.000251 0.015101
v 0.007606 -0.072030 0.026977
v -0.010215 -0.011634 0.016091
v 0.005131 0.000243 0.025493
v -0.010215 -0.013618 0.024998
v 0.010082 -0.013618 0.015595
v 0.007606 -0.072030 0.013119
v -0.007740 -0.013618 0.026977
v -0.008235 -0.072030 0.013119
v 0.005131 -0.000745 0.014111
v 0.010082 -0.072030 0.015101
v 0.006615 -0.011634 0.013119
v -0.010215 -0.072030 0.024503
v 0.006120 0.002228 0.016091
v -0.007740 -0.072030 0.026977
v -0.008729 -0.000745 0.023019
v 0.006615 0.002228 0.023019
v -0.006254 0.002228 0.016091
v -0.005759 -0.002228 0.025988
v 0.008596 -0.013618 0.026485
v -0.009719 -0.013618 0.014111
v 0.008596 -0.002228 0.023019
v -0.005759 -0.000745 0.014111
v 0.009090 -0.053705 0.026485
v 0.008596 -0.002228 0.016585
v 0.007606 -0.001239 0.024998
v -0.008729 -0.000745 0.016585
v -0.008235 -0.002228 0.024998
v 0.008101 -0.029464 0.013120
v 0.007606 -0.001239 0.015101
v 0.006120 -0.007185 0.026484
v 0.009585 -0.072030 0.025988
v 0.009585 -0.027974 0.014111
v 0.009585 -0.013618 0.025495
v -0.005264 0.002228 0.015596
v -0.009719 -0.007185 0.023512
v -0.009224 -0.013618 0.013615
f 172 152 188 
f 141 142 143 
f 143 142 145 
f 141 143 147 
f 147 143 153 
f 147 144 156 
f 154 141 156 
f 151 143 157 
f 145 142 158 
f 144 147 159 
f 153 148 159 
f 158 142 160 
f 146 158 160 
f 143 145 162 
f 157 143 162 
f 158 146 163 
f 161 149 163 
f 141 147 164 
f 156 141 164 
f 147 156 164 
f 147 153 166 
f 159 147 166 
f 153 159 166 
f 150 155 168 
f 140 165 168 
f 165 150 168 
f 150 165 169 
f 167 150 169 
f 155 150 170 
f 144 159 170 
f 142 141 172 
f 141 154 172 
f 151 157 173 
f 140 168 173 
f 146 152 174 
f 163 146 174 
f 161 163 174 
f 148 153 175 
f 171 148 175 
f 157 149 176 
f 140 173 176 
f 173 157 176 
f 168 155 177 
f 151 173 177 
f 173 168 177 
f 169 152 178 
f 167 169 178 
f 152 172 178 
f 172 154 178 
f 156 144 179 
f 150 167 179 
f 170 150 179 
f 144 170 179 
f 149 145 180 
f 145 158 180 
f 158 163 180 
f 163 149 180 
f 149 161 181 
f 165 140 181 
f 161 165 181 
f 176 149 181 
f 140 176 181 
f 159 148 182 
f 155 170 182 
f 170 159 182 
f 148 171 182 
f 177 155 182 
f 171 177 182 
f 143 151 183 
f 153 143 183 
f 175 153 183 
f 145 149 184 
f 149 157 184 
f 162 145 184 
f 157 162 184 
f 171 175 185 
f 151 177 185 
f 177 171 185 
f 183 151 185 
f 175 183 185 
f 165 161 186 
f 152 169 186 
f 169 165 186 
f 174 152 186 
f 161 174 186 
f 154 156 187 
f 178 154 187 
f 167 178 187 
f 156 179 187 
f 179 167 187 
f 152 146 188 
f 160 142 188 
f 146 160 188 
f 142 172 188 
o convex_4
v 0.006616 0.052228 0.023515
v -0.006750 0.002228 0.016585
v -0.006254 0.002228 0.016090
v -0.006750 0.052228 0.016585
v -0.006254 0.002228 0.024009
v 0.006120 0.002228 0.016090
v 0.005626 0.052228 0.015595
v 0.006120 0.002228 0.024009
v -0.006254 0.052228 0.024009
v -0.005264 0.002228 0.015595
v -0.005264 0.052228 0.015595
v 0.006616 0.008169 0.016585
v -0.006750 0.043310 0.023514
v 0.006120 0.052228 0.024009
v 0.006616 0.052228 0.016585
v 0.005130 0.002228 0.015595
v 0.006616 0.002228 0.023019
v -0.006750 0.002228 0.023019
f 193 201 206 
f 191 190 192 
f 190 191 193 
f 193 191 194 
f 192 189 195 
f 193 194 196 
f 189 192 197 
f 193 196 197 
f 194 191 198 
f 195 198 199 
f 191 192 199 
f 192 195 199 
f 198 191 199 
f 194 195 200 
f 192 190 201 
f 197 192 201 
f 193 197 201 
f 196 189 202 
f 189 197 202 
f 197 196 202 
f 195 189 203 
f 189 200 203 
f 200 195 203 
f 195 194 204 
f 194 198 204 
f 198 195 204 
f 189 196 205 
f 196 194 205 
f 200 189 205 
f 194 200 205 
f 190 193 206 
f 201 190 206 
