o convex_0
v 0.006508 0.027883 0.012564
v -0.007950 0.061616 0.008778
v -0.007950 0.061616 0.012564
v 0.006163 0.068503 0.008778
v -0.007260 0.027883 0.008778
v 0.006163 0.068503 0.012564
v 0.006508 0.027883 0.008778
v -0.007260 0.027883 0.012564
v -0.007950 0.068503 0.012564
v -0.007950 0.068503 0.008778
v 0.006508 0.048877 0.008778
v 0.006508 0.048877 0.012564
v -0.007604 0.040276 0.008778
f 5 8 13 
f 2 4 5 
f 3 1 6 
f 1 5 7 
f 5 4 7 
f 1 3 8 
f 5 1 8 
f 2 3 9 
f 3 6 9 
f 6 4 9 
f 4 2 10 
f 2 9 10 
f 9 4 10 
f 4 6 11 
f 1 7 11 
f 7 4 11 
f 6 1 12 
f 1 11 12 
f 11 6 12 
f 3 2 13 
f 2 5 13 
f 8 3 13 
o convex_1
v -0.039619 0.093975 0.017381
v -0.032047 0.078141 0.008434
v -0.035488 0.078488 0.006714
v -0.029636 0.095351 0.001893
v -0.025507 0.090187 0.016692
v -0.038929 0.092598 0.001549
v -0.038929 0.082273 0.018071
v -0.029981 0.099484 0.011529
v -0.029636 0.082961 0.001206
v -0.024817 0.081931 0.013597
v -0.029981 0.089844 0.021515
v -0.024817 0.096728 0.007746
v -0.039619 0.083997 0.003271
v -0.037898 0.098794 0.007746
v -0.029981 0.080207 0.017725
v -0.029636 0.097760 0.016692
v -0.024817 0.081931 0.007746
v -0.029636 0.087780 -0.000172
v -0.037898 0.078831 0.013940
v -0.037553 0.092598 0.020481
v -0.036865 0.098105 0.016006
v -0.024817 0.096728 0.013597
v -0.036865 0.085716 0.000174
v -0.036520 0.086061 0.021166
v -0.039619 0.097071 0.008434
v -0.039619 0.080207 0.010155
v -0.029636 0.078141 0.012563
v -0.029636 0.085716 0.021166
v -0.025507 0.089500 0.004305
v -0.029636 0.099137 0.007402
v -0.037553 0.080554 0.003615
v -0.029981 0.078488 0.006370
v -0.036520 0.092941 0.000518
v -0.029636 0.095694 0.019103
v -0.037208 0.097418 0.004305
v -0.039619 0.088125 0.019103
v -0.036520 0.082273 0.019449
v -0.037898 0.098794 0.013250
v -0.029636 0.092941 0.000518
v -0.037208 0.078141 0.009814
v -0.029636 0.092598 0.020825
v -0.036176 0.078831 0.015316
v -0.029636 0.080207 0.003615
v -0.036865 0.089500 -0.000172
v -0.035143 0.095694 0.019103
v -0.029636 0.082620 0.019793
v -0.039619 0.094317 0.003959
v -0.029636 0.098105 0.004993
v -0.038929 0.096728 0.016350
v -0.038929 0.085716 0.001206
v -0.038929 0.079520 0.007058
v -0.036176 0.099484 0.010501
v -0.029981 0.099137 0.013940
v -0.025507 0.086404 0.004649
v -0.036865 0.082620 0.001549
v -0.025507 0.086750 0.016692
v -0.037553 0.089500 0.021166
v -0.039619 0.081241 0.014972
v -0.036865 0.095694 0.002239
v -0.038929 0.086061 0.020135
v -0.029636 0.078831 0.015316
v -0.038929 0.092251 0.019793
v -0.038929 0.097071 0.005337
v -0.029636 0.090187 -0.000172
f 57 46 77 
f 25 23 30 
f 18 23 35 
f 25 21 35 
f 23 25 35 
f 31 22 36 
f 26 14 38 
f 14 26 39 
f 30 23 40 
f 18 24 41 
f 24 37 41 
f 25 30 42 
f 21 25 43 
f 15 16 45 
f 40 15 45 
f 30 40 45 
f 35 29 47 
f 27 43 48 
f 14 39 49 
f 27 38 51 
f 17 25 52 
f 25 42 52 
f 46 17 52 
f 16 15 53 
f 15 40 53 
f 24 18 54 
f 33 24 54 
f 18 35 54 
f 35 47 54 
f 20 32 55 
f 50 20 55 
f 28 50 55 
f 32 53 55 
f 53 40 55 
f 22 30 56 
f 16 44 56 
f 45 16 56 
f 30 45 56 
f 31 36 57 
f 19 46 57 
f 29 34 58 
f 47 29 58 
f 33 54 58 
f 54 47 58 
f 28 23 59 
f 41 37 59 
f 50 28 59 
f 37 50 59 
f 19 26 60 
f 26 38 60 
f 25 17 61 
f 43 25 61 
f 48 43 61 
f 38 14 62 
f 34 51 62 
f 51 38 62 
f 58 34 62 
f 33 58 62 
f 26 19 63 
f 44 26 63 
f 19 57 63 
f 57 36 63 
f 39 26 64 
f 32 39 64 
f 44 16 64 
f 26 44 64 
f 16 53 64 
f 53 32 64 
f 21 43 65 
f 43 27 65 
f 27 51 65 
f 65 51 66 
f 34 29 66 
f 35 21 66 
f 29 35 66 
f 51 34 66 
f 21 65 66 
f 30 22 67 
f 22 31 67 
f 42 30 67 
f 31 42 67 
f 36 22 68 
f 22 56 68 
f 56 44 68 
f 63 36 68 
f 44 63 68 
f 23 18 69 
f 18 41 69 
f 59 23 69 
f 41 59 69 
f 24 33 70 
f 37 24 70 
f 32 20 71 
f 39 32 71 
f 20 49 71 
f 49 39 71 
f 46 19 72 
f 17 46 72 
f 61 17 72 
f 48 61 72 
f 49 20 73 
f 20 50 73 
f 50 37 73 
f 37 70 73 
f 23 28 74 
f 40 23 74 
f 28 55 74 
f 55 40 74 
f 14 49 75 
f 62 14 75 
f 33 62 75 
f 70 33 75 
f 49 73 75 
f 73 70 75 
f 38 27 76 
f 27 48 76 
f 19 60 76 
f 60 38 76 
f 72 19 76 
f 48 72 76 
f 42 31 77 
f 52 42 77 
f 46 52 77 
f 31 57 77 
o convex_2
v 0.008227 -0.069540 0.008091
v -0.018274 -0.087088 0.008091
v -0.018274 -0.087088 0.013251
v -0.011735 -0.055426 0.007403
v -0.000722 -0.055426 0.017040
v 0.004786 -0.098100 0.014973
v -0.003821 -0.098100 0.004305
v 0.005819 -0.055426 0.005338
v -0.004851 -0.097759 0.017040
v 0.007882 -0.055426 0.014973
v 0.005819 -0.096033 0.006026
v -0.010702 -0.056455 0.015318
v -0.004165 -0.055426 0.004649
v -0.016211 -0.085708 0.005682
v -0.015520 -0.086054 0.015661
v -0.004165 -0.100172 0.007402
v 0.006508 -0.096725 0.013595
v 0.004442 -0.096033 0.015661
v -0.015520 -0.090872 0.014973
v 0.007882 -0.055426 0.006370
v -0.016211 -0.090185 0.006370
v -0.011735 -0.055426 0.013596
v 0.003753 -0.099480 0.007747
v -0.003821 -0.100172 0.014285
v -0.002100 -0.055426 0.004305
v -0.011046 -0.056114 0.006025
v 0.008571 -0.057835 0.013252
v -0.017588 -0.086054 0.014973
v 0.006508 -0.096725 0.007746
v -0.018274 -0.085708 0.008091
v 0.005131 -0.057143 0.016005
v 0.003753 -0.096379 0.005338
v -0.000034 -0.058523 0.004305
v -0.005537 -0.097071 0.004305
v 0.007882 -0.077797 0.013252
v 0.007196 -0.077797 0.014973
v -0.017588 -0.085708 0.006370
v -0.007603 -0.097759 0.013251
v 0.007196 -0.075392 0.006026
v -0.001411 -0.055426 0.017040
v 0.003065 -0.095349 0.016005
v 0.008571 -0.055426 0.007746
v 0.002376 -0.099826 0.013251
v -0.014489 -0.087776 0.005336
v -0.018274 -0.085708 0.013251
v -0.015178 -0.091560 0.008091
v -0.003821 -0.099480 0.004994
v -0.004165 -0.099480 0.016005
v 0.005472 -0.074017 0.005338
v -0.012079 -0.056455 0.013251
v 0.007882 -0.077455 0.007746
v -0.017930 -0.088463 0.013596
v 0.004098 -0.098446 0.006026
v -0.010013 -0.055426 0.005682
v -0.009325 -0.055768 0.015661
v -0.004165 -0.097759 0.017040
v -0.005537 -0.087088 0.004305
v 0.006164 -0.069540 0.015662
v 0.005472 -0.096033 0.015317
v -0.013112 -0.085708 0.016006
v -0.005882 -0.099138 0.007747
v 0.005819 -0.098100 0.013251
v -0.003133 -0.097759 0.004305
v -0.016897 -0.088117 0.015318
f 129 96 141 
f 81 82 85 
f 85 82 87 
f 81 85 90 
f 85 87 97 
f 82 81 99 
f 90 85 102 
f 91 90 102 
f 92 89 105 
f 89 99 105 
f 79 80 107 
f 87 82 108 
f 84 102 110 
f 102 85 110 
f 102 84 111 
f 78 104 112 
f 94 106 112 
f 104 87 113 
f 94 112 113 
f 112 104 113 
f 98 79 114 
f 91 98 114 
f 81 103 114 
f 103 91 114 
f 79 107 114 
f 107 81 114 
f 85 97 116 
f 86 82 117 
f 82 99 117 
f 108 82 118 
f 97 87 119 
f 87 104 119 
f 104 78 119 
f 116 97 119 
f 93 100 120 
f 101 93 120 
f 98 91 121 
f 91 102 121 
f 111 98 121 
f 80 105 122 
f 105 99 122 
f 107 80 122 
f 115 96 123 
f 100 93 124 
f 111 84 124 
f 98 111 124 
f 86 96 125 
f 96 115 125 
f 115 101 125 
f 120 83 125 
f 101 120 125 
f 88 109 126 
f 110 85 126 
f 109 110 126 
f 85 116 126 
f 116 88 126 
f 99 81 127 
f 81 107 127 
f 122 99 127 
f 107 122 127 
f 106 88 128 
f 78 112 128 
f 112 106 128 
f 88 116 128 
f 119 78 128 
f 116 119 128 
f 80 79 129 
f 79 98 129 
f 105 80 129 
f 98 123 129 
f 123 96 129 
f 88 106 130 
f 106 100 130 
f 109 88 130 
f 100 124 130 
f 124 84 130 
f 81 90 131 
f 90 91 131 
f 103 81 131 
f 91 103 131 
f 89 92 132 
f 99 89 132 
f 92 117 132 
f 117 99 132 
f 82 86 133 
f 83 95 133 
f 118 82 133 
f 95 118 133 
f 125 83 133 
f 86 125 133 
f 102 111 134 
f 121 102 134 
f 111 121 134 
f 87 108 135 
f 113 87 135 
f 118 95 135 
f 108 118 135 
f 83 94 136 
f 95 83 136 
f 94 113 136 
f 135 95 136 
f 113 135 136 
f 92 86 137 
f 86 117 137 
f 117 92 137 
f 93 101 138 
f 101 115 138 
f 123 98 138 
f 115 123 138 
f 124 93 138 
f 98 124 138 
f 94 83 139 
f 106 94 139 
f 100 106 139 
f 120 100 139 
f 83 120 139 
f 84 110 140 
f 110 109 140 
f 130 84 140 
f 109 130 140 
f 86 92 141 
f 96 86 141 
f 92 105 141 
f 105 129 141 
o convex_3
v 0.008228 -0.055422 0.014285
v -0.011736 -0.055422 0.007746
v -0.011390 -0.055422 0.006714
v 0.007196 0.027883 0.008090
v -0.010014 0.013760 0.015318
v 0.006852 -0.055422 0.005682
v -0.009671 0.013417 0.005682
v 0.006506 0.025127 0.015661
v -0.001410 -0.055422 0.017040
v 0.000655 0.018930 0.004305
v -0.011046 -0.055422 0.014974
v -0.007261 0.027883 0.008780
v -0.002096 -0.055422 0.004305
v 0.008228 0.026505 0.006714
v -0.000722 0.019606 0.017040
v -0.011390 0.013760 0.013596
v 0.008574 0.026847 0.013596
v 0.008574 -0.055422 0.007746
v -0.007261 0.027883 0.012563
v -0.011390 0.013417 0.007402
v 0.005130 -0.055422 0.016006
v 0.005818 0.024434 0.005336
v -0.009671 -0.055422 0.005682
v -0.001410 0.019272 0.004305
v -0.011736 0.003779 0.013251
v -0.011736 -0.055422 0.013596
v 0.004099 -0.055071 0.004994
v -0.008981 0.013417 0.015661
v 0.007884 -0.055422 0.014974
v 0.008574 0.027190 0.007746
v 0.008574 -0.055071 0.013596
v -0.008981 -0.055422 0.015661
v 0.007884 0.026505 0.014974
v -0.010702 0.013417 0.006025
v -0.011736 -0.005175 0.007746
v -0.000033 -0.055422 0.004305
v 0.007884 0.027883 0.013252
v 0.005130 0.026847 0.006025
v -0.011046 0.013417 0.014629
v 0.001687 0.016866 0.016693
v 0.007884 -0.055422 0.006369
v 0.007540 0.026505 0.006025
v -0.000722 -0.055422 0.017040
v 0.005474 0.027190 0.014973
v -0.000033 0.021686 0.004649
v -0.010358 0.011003 0.015318
v 0.006506 -0.055422 0.015661
v -0.002096 -0.019265 0.004305
v -0.010702 -0.055422 0.006025
v -0.001066 0.015488 0.017040
v -0.000722 0.020993 0.016693
v -0.007949 -0.008608 0.005336
v -0.011046 -0.017904 0.014974
v 0.005130 0.023749 0.016006
v 0.005818 -0.055422 0.005336
v -0.005883 0.013075 0.004994
v -0.011736 0.003779 0.008090
v -0.010358 -0.055422 0.015318
v -0.004162 -0.055422 0.004649
f 193 189 200 
f 142 143 144 
f 142 144 147 
f 143 142 150 
f 143 150 152 
f 147 144 154 
f 142 147 159 
f 145 153 160 
f 153 157 160 
f 157 153 161 
f 150 142 162 
f 154 144 164 
f 151 154 165 
f 143 152 167 
f 166 143 167 
f 156 146 169 
f 162 142 170 
f 159 155 171 
f 158 159 171 
f 159 158 172 
f 142 159 172 
f 170 142 172 
f 158 170 172 
f 152 150 173 
f 150 169 173 
f 170 158 174 
f 149 170 174 
f 161 153 175 
f 148 164 175 
f 165 148 175 
f 153 165 175 
f 144 143 176 
f 143 166 176 
f 175 144 176 
f 161 175 176 
f 147 154 177 
f 154 151 177 
f 151 168 177 
f 145 160 178 
f 171 145 178 
f 158 171 178 
f 174 158 178 
f 153 145 179 
f 146 160 180 
f 160 157 180 
f 157 166 180 
f 155 159 182 
f 159 147 182 
f 147 163 183 
f 145 171 183 
f 171 155 183 
f 179 145 183 
f 163 179 183 
f 182 147 183 
f 155 182 183 
f 156 150 184 
f 150 162 184 
f 181 156 184 
f 162 181 184 
f 149 174 185 
f 178 160 185 
f 174 178 185 
f 163 151 186 
f 165 153 186 
f 151 165 186 
f 153 179 186 
f 179 163 186 
f 169 146 187 
f 173 169 187 
f 146 180 187 
f 149 162 188 
f 170 149 188 
f 162 170 188 
f 165 154 189 
f 164 144 190 
f 144 175 190 
f 175 164 190 
f 150 156 191 
f 169 150 191 
f 156 169 191 
f 146 156 192 
f 160 146 192 
f 149 185 192 
f 185 160 192 
f 164 148 193 
f 167 152 194 
f 166 167 194 
f 180 166 194 
f 152 187 194 
f 187 180 194 
f 162 149 195 
f 156 181 195 
f 181 162 195 
f 192 156 195 
f 149 192 195 
f 163 147 196 
f 151 163 196 
f 168 151 196 
f 147 177 196 
f 177 168 196 
f 148 165 197 
f 165 189 197 
f 193 148 197 
f 189 193 197 
f 157 161 198 
f 166 157 198 
f 176 166 198 
f 161 176 198 
f 152 173 199 
f 187 152 199 
f 173 187 199 
f 154 164 200 
f 189 154 200 
f 164 193 200 
o convex_4
v 0.019244 0.093975 0.015318
v 0.013393 0.085371 0.008779
v 0.013738 0.085027 0.008779
v 0.024408 0.090531 0.005682
v 0.024753 0.080551 0.012564
v 0.013393 0.096386 0.005682
v 0.013393 0.090875 0.015318
v 0.024753 0.090187 0.015318
v 0.024753 0.085027 0.005682
v 0.013393 0.096386 0.015318
v 0.013738 0.085027 0.012564
v 0.024063 0.085027 0.015318
v 0.024063 0.080551 0.008779
v 0.013393 0.090875 0.005682
v 0.015114 0.096038 0.005682
v 0.021653 0.092597 0.005682
v 0.024063 0.085027 0.005682
v 0.015114 0.096038 0.015318
v 0.024063 0.080551 0.012564
v 0.024753 0.090187 0.005682
v 0.021653 0.092597 0.015318
f 204 216 221 
f 206 202 207 
f 201 207 208 
f 206 204 209 
f 208 205 209 
f 207 201 210 
f 206 207 210 
f 202 203 211 
f 207 202 211 
f 207 211 212 
f 205 208 212 
f 208 207 212 
f 209 205 213 
f 211 203 213 
f 203 202 214 
f 202 206 214 
f 206 209 214 
f 204 206 215 
f 206 210 215 
f 215 201 216 
f 204 215 216 
f 213 203 217 
f 209 213 217 
f 203 214 217 
f 214 209 217 
f 210 201 218 
f 201 215 218 
f 215 210 218 
f 212 211 219 
f 205 212 219 
f 213 205 219 
f 211 213 219 
f 204 208 220 
f 209 204 220 
f 208 209 220 
f 201 208 221 
f 208 204 221 
f 216 201 221 
o convex_5
v 0.035079 0.078833 0.015318
v 0.024753 0.080206 0.008779
v 0.024753 0.080206 0.012564
v 0.037833 0.068503 0.013596
v 0.030261 0.085025 0.005682
v 0.039555 0.068849 0.005682
v 0.024753 0.089845 0.015318
v 0.024753 0.089845 0.005682
v 0.039555 0.068849 0.015318
v 0.034733 0.069881 0.008779
v 0.038865 0.072292 0.005682
v 0.024753 0.084679 0.005682
v 0.024753 0.084679 0.015318
v 0.030606 0.084679 0.015318
v 0.036112 0.071258 0.005682
v 0.032668 0.082270 0.005682
v 0.038865 0.072292 0.015318
v 0.034733 0.069881 0.012564
v 0.036112 0.071258 0.015318
v 0.025786 0.089498 0.015318
v 0.035767 0.077799 0.005682
v 0.025786 0.089498 0.005682
v 0.037833 0.068503 0.007747
v 0.039555 0.070226 0.005682
f 232 238 245 
f 223 224 228 
f 226 227 229 
f 223 228 229 
f 225 227 230 
f 222 228 230 
f 224 223 231 
f 227 226 232 
f 223 229 233 
f 229 227 233 
f 228 224 234 
f 230 228 234 
f 228 222 235 
f 231 223 236 
f 227 231 236 
f 223 233 236 
f 233 227 236 
f 232 226 237 
f 235 222 237 
f 226 235 237 
f 222 230 238 
f 224 231 239 
f 231 225 239 
f 225 230 240 
f 234 224 240 
f 230 234 240 
f 224 239 240 
f 239 225 240 
f 229 228 241 
f 235 226 241 
f 228 235 241 
f 237 222 242 
f 232 237 242 
f 222 238 242 
f 238 232 242 
f 226 229 243 
f 241 226 243 
f 229 241 243 
f 227 225 244 
f 225 231 244 
f 231 227 244 
f 230 227 245 
f 227 232 245 
f 238 230 245 
o convex_6
v -0.007948 0.068503 0.008778
v 0.005820 0.078485 0.012564
v 0.006164 0.070224 0.012564
v -0.010359 0.077795 0.012564
v 0.005820 0.078485 0.008778
v -0.010359 0.078485 0.008778
v 0.006164 0.068503 0.008778
v -0.007948 0.068503 0.012564
v 0.006164 0.068503 0.012564
v -0.010359 0.078485 0.012564
f 251 249 255 
f 248 247 249 
f 247 248 250 
f 247 250 251 
f 246 249 251 
f 250 246 251 
f 246 250 252 
f 250 248 252 
f 248 249 253 
f 249 246 253 
f 246 252 253 
f 253 252 254 
f 252 248 254 
f 248 253 254 
f 249 247 255 
f 247 251 255 
o convex_7
v 0.006163 0.079174 0.012564
v -0.015178 0.081583 0.008778
v -0.015178 0.081928 0.008778
v 0.007197 0.081928 0.008778
v 0.005819 0.078485 0.008778
v -0.015178 0.081928 0.012564
v -0.010702 0.078485 0.012564
v 0.007197 0.081928 0.012564
v -0.010702 0.078485 0.008778
v 0.005819 0.078485 0.012564
f 262 260 265 
f 257 258 259 
f 259 256 260 
f 257 259 260 
f 258 257 261 
f 259 258 261 
f 256 261 262 
f 261 257 262 
f 256 259 263 
f 259 261 263 
f 261 256 263 
f 257 260 264 
f 260 262 264 
f 262 257 264 
f 260 256 265 
f 256 262 265 
o convex_8
v -0.024127 0.089157 0.005682
v -0.003130 0.100172 0.015318
v -0.003130 0.094320 0.015318
v -0.024471 0.090536 0.015318
v -0.003130 0.081928 0.008779
v -0.003130 0.100172 0.005682
v -0.024817 0.096729 0.007747
v -0.024817 0.081928 0.013596
v -0.015867 0.100172 0.015318
v -0.003130 0.081928 0.012564
v -0.024817 0.081928 0.007747
v -0.013460 0.085716 0.005682
v -0.015867 0.100172 0.005682
v -0.013460 0.085716 0.015318
v -0.024817 0.096729 0.013596
v -0.003130 0.094320 0.005682
v -0.020684 0.085716 0.015318
v -0.019652 0.099138 0.007747
v -0.020684 0.085716 0.005682
v -0.024471 0.090191 0.005682
v -0.014146 0.082274 0.013596
v -0.014146 0.082274 0.007747
v -0.019652 0.099138 0.013596
f 283 280 288 
f 268 267 269 
f 267 268 270 
f 267 270 271 
f 269 267 274 
f 267 271 274 
f 270 268 275 
f 273 270 275 
f 270 273 276 
f 273 272 276 
f 266 271 277 
f 271 266 278 
f 274 271 278 
f 268 269 279 
f 275 268 279 
f 273 269 280 
f 272 273 280 
f 269 274 280 
f 271 270 281 
f 277 271 281 
f 270 277 281 
f 269 273 282 
f 279 269 282 
f 273 279 282 
f 278 272 283 
f 274 278 283 
f 272 280 283 
f 276 266 284 
f 266 277 284 
f 277 276 284 
f 266 276 285 
f 276 272 285 
f 278 266 285 
f 272 278 285 
f 273 275 286 
f 279 273 286 
f 275 279 286 
f 270 276 287 
f 277 270 287 
f 276 277 287 
f 280 274 288 
f 274 283 288 
o convex_9
v -0.003130 0.081928 0.008778
v 0.013393 0.087780 0.012564
v 0.013393 0.085369 0.012564
v -0.003130 0.087780 0.012564
v 0.013393 0.087780 0.008778
v -0.003130 0.087780 0.008778
v -0.003130 0.081928 0.012564
v 0.007540 0.081928 0.008778
v 0.007540 0.081928 0.012564
v 0.013393 0.085369 0.008778
f 291 296 298 
f 291 290 292 
f 290 291 293 
f 292 290 293 
f 289 292 294 
f 293 289 294 
f 292 293 294 
f 291 292 295 
f 292 289 295 
f 289 293 296 
f 295 289 296 
f 295 296 297 
f 291 295 297 
f 296 291 297 
f 293 291 298 
f 296 293 298 
o convex_10
v 0.013393 0.096384 0.005682
v -0.002441 0.100172 0.015318
v 0.004790 0.099137 0.015318
v -0.003130 0.087780 0.012564
v -0.003130 0.100172 0.005682
v 0.013393 0.087780 0.013596
v -0.003130 0.088124 0.007747
v 0.013393 0.090878 0.005682
v 0.013393 0.096384 0.015318
v -0.003130 0.094664 0.015318
v 0.013393 0.087780 0.007747
v 0.012704 0.090878 0.015318
v -0.002786 0.094319 0.005682
v 0.006851 0.098793 0.005682
v -0.003130 0.088124 0.013596
v -0.003130 0.100172 0.015318
v 0.013048 0.096728 0.015318
v -0.003130 0.087780 0.008779
v 0.006851 0.098793 0.015318
f 315 312 317 
f 302 303 305 
f 303 299 306 
f 299 304 306 
f 301 300 307 
f 304 299 307 
f 303 302 308 
f 307 300 308 
f 304 302 309 
f 305 306 309 
f 306 304 309 
f 304 307 310 
f 307 308 310 
f 305 303 311 
f 303 306 311 
f 306 305 311 
f 300 301 312 
f 299 303 312 
f 303 300 312 
f 302 304 313 
f 308 302 313 
f 304 310 313 
f 310 308 313 
f 300 303 314 
f 303 308 314 
f 308 300 314 
f 307 299 315 
f 301 307 315 
f 299 312 315 
f 302 305 316 
f 309 302 316 
f 305 309 316 
f 312 301 317 
f 301 315 317 
