o convex_0
v -0.007697 -0.099807 0.009622
v 0.009657 -0.076415 0.010754
v 0.009657 -0.076415 0.006982
v 0.015695 -0.098299 0.008491
v -0.003924 -0.076415 0.002831
v -0.004301 -0.076415 0.014904
v 0.011920 -0.097922 0.014526
v 0.008150 -0.097922 0.002831
v -0.005057 -0.098299 0.003210
v -0.005434 -0.097922 0.014526
v -0.008830 -0.077551 0.007359
v 0.006261 -0.076415 0.003210
v 0.014563 -0.095279 0.004341
v 0.006261 -0.076415 0.014526
v 0.016072 -0.095658 0.011508
v -0.009209 -0.096789 0.010377
v -0.007697 -0.078681 0.013017
v 0.005508 -0.100186 0.009245
v -0.008453 -0.096412 0.005473
v 0.003621 -0.098676 0.014904
v 0.007771 -0.099807 0.004719
v -0.007320 -0.078305 0.004341
v 0.016072 -0.094148 0.008491
v 0.008150 -0.099807 0.013017
v 0.011920 -0.097543 0.003210
v 0.004754 -0.076415 0.014904
v -0.006187 -0.099807 0.005473
v 0.014563 -0.095279 0.013394
v -0.003547 -0.099807 0.013394
v -0.007697 -0.096789 0.013394
v -0.002038 -0.098299 0.002831
v -0.008074 -0.076415 0.011131
v 0.008527 -0.076415 0.013017
v 0.004375 -0.076415 0.002831
v 0.013053 -0.099430 0.011508
v -0.009209 -0.097922 0.007737
v -0.008830 -0.077551 0.010377
v 0.013053 -0.099430 0.006228
v 0.008150 -0.076415 0.004341
v 0.015695 -0.094525 0.006228
v -0.005811 -0.076415 0.014526
v -0.002415 -0.098299 0.014904
v 0.009657 -0.094148 0.014904
v -0.008830 -0.098299 0.011508
v -0.003924 -0.100186 0.006605
v -0.005434 -0.076415 0.003210
v -0.007320 -0.097922 0.004341
v 0.012299 -0.095279 0.014526
v 0.015695 -0.097543 0.006228
v -0.002038 -0.099430 0.003587
v 0.012299 -0.095658 0.003210
v 0.014939 -0.098299 0.011885
v -0.001661 -0.100186 0.011885
v 0.011543 -0.098676 0.003587
v -0.007320 -0.099053 0.013017
v 0.016451 -0.096789 0.009245
v 0.007017 -0.099053 0.003210
v -0.008074 -0.076415 0.006605
f 32 46 58 
f 2 3 5 
f 2 5 6 
f 5 3 12 
f 2 6 14 
f 19 11 22 
f 3 2 23 
f 2 15 23 
f 7 20 24 
f 14 6 26 
f 6 20 26 
f 24 20 29 
f 5 8 31 
f 9 5 31 
f 6 5 32 
f 2 14 33 
f 15 2 33 
f 14 28 33 
f 28 15 33 
f 8 5 34 
f 5 12 34 
f 7 24 35 
f 24 18 35 
f 16 11 36 
f 11 19 36 
f 27 1 36 
f 11 16 37 
f 32 11 37 
f 17 32 37 
f 18 21 38 
f 4 35 38 
f 35 18 38 
f 12 3 39 
f 13 12 39 
f 13 39 40 
f 3 23 40 
f 39 3 40 
f 10 6 41 
f 30 10 41 
f 17 30 41 
f 6 32 41 
f 32 17 41 
f 6 10 42 
f 20 6 42 
f 10 29 42 
f 29 20 42 
f 20 7 43 
f 26 20 43 
f 30 17 44 
f 36 1 44 
f 16 36 44 
f 37 16 44 
f 17 37 44 
f 21 18 45 
f 1 27 45 
f 5 9 46 
f 32 5 46 
f 19 22 47 
f 9 27 47 
f 36 19 47 
f 27 36 47 
f 46 9 47 
f 22 46 47 
f 14 26 48 
f 28 14 48 
f 7 28 48 
f 43 7 48 
f 26 43 48 
f 25 13 49 
f 4 38 49 
f 13 40 49 
f 27 9 50 
f 9 31 50 
f 21 45 50 
f 45 27 50 
f 12 13 51 
f 25 8 51 
f 13 25 51 
f 8 34 51 
f 34 12 51 
f 28 7 52 
f 15 28 52 
f 7 35 52 
f 35 4 52 
f 18 24 53 
f 29 1 53 
f 24 29 53 
f 45 18 53 
f 1 45 53 
f 8 25 54 
f 38 21 54 
f 25 49 54 
f 49 38 54 
f 1 29 55 
f 29 10 55 
f 10 30 55 
f 44 1 55 
f 30 44 55 
f 23 15 56 
f 40 23 56 
f 4 49 56 
f 49 40 56 
f 52 4 56 
f 15 52 56 
f 31 8 57 
f 21 50 57 
f 50 31 57 
f 8 54 57 
f 54 21 57 
f 22 11 58 
f 11 32 58 
f 46 22 58 
o convex_1
v 0.009658 -0.017174 0.007737
v -0.011096 -0.050376 0.008492
v -0.011096 -0.050376 0.009245
v 0.009658 -0.076415 0.007360
v 0.004753 -0.076415 0.014904
v -0.003548 0.010377 0.014526
v -0.005058 0.006223 0.003210
v -0.003924 -0.076415 0.002831
v 0.005130 0.010377 0.003587
v 0.007016 0.010377 0.013017
v -0.005811 -0.076415 0.014526
v -0.008454 0.009621 0.011508
v 0.006261 -0.076415 0.003210
v 0.009658 -0.041319 0.011886
v -0.009962 -0.039807 0.004717
v -0.009207 -0.039807 0.013772
v -0.008831 -0.074521 0.006605
v -0.008454 0.009621 0.006227
v 0.002865 0.001695 0.014904
v 0.008526 -0.030767 0.004341
v 0.002865 0.000182 0.002831
v -0.006566 -0.034514 0.014904
v 0.008148 0.010377 0.006605
v 0.008148 -0.076415 0.013395
v 0.006640 -0.029638 0.014526
v -0.011096 -0.033019 0.009245
v -0.008831 -0.073764 0.011508
v -0.005811 -0.036035 0.002831
v -0.006189 0.010377 0.013772
v 0.008148 0.010377 0.011131
v -0.011096 -0.039807 0.011131
v -0.005811 -0.075659 0.003210
v -0.006566 0.010377 0.004341
v 0.004375 -0.076415 0.002831
v 0.006640 -0.033758 0.003210
v 0.010036 -0.034905 0.006982
v 0.008148 -0.076415 0.004341
v 0.009658 -0.076415 0.010376
v -0.011096 -0.039807 0.006605
v 0.008526 -0.028881 0.013395
v -0.007699 -0.035644 0.003210
v 0.010036 -0.034514 0.010754
v 0.005130 0.010377 0.014149
v -0.004303 -0.076415 0.014904
v -0.009207 -0.054148 0.013395
v -0.009207 -0.053009 0.004341
v -0.003548 0.003955 0.014904
v -0.008831 0.009995 0.008492
v -0.003171 0.003955 0.002831
v -0.008076 -0.076415 0.006605
v 0.007016 0.010377 0.004719
v 0.009658 -0.035644 0.005850
v 0.009658 -0.024345 0.011508
v 0.008526 0.010377 0.009244
v -0.008076 -0.039807 0.014526
v -0.009207 -0.028491 0.013395
v -0.005434 0.005467 0.014526
v -0.009207 -0.074521 0.009245
v -0.010717 -0.049620 0.006227
v -0.003171 0.010377 0.003210
v -0.010717 -0.049985 0.011508
v 0.010036 -0.023215 0.009244
v 0.009658 -0.025101 0.006228
v -0.006944 0.008483 0.004341
f 99 73 122 
f 62 63 66 
f 67 64 68 
f 66 63 69 
f 62 66 71 
f 63 77 80 
f 67 68 81 
f 63 62 82 
f 77 63 83 
f 63 82 83 
f 60 61 84 
f 79 66 86 
f 64 67 87 
f 81 68 88 
f 84 61 89 
f 70 84 89 
f 87 67 91 
f 71 66 92 
f 66 79 92 
f 92 79 93 
f 67 78 93 
f 79 67 93 
f 71 92 93 
f 62 71 95 
f 93 78 95 
f 71 93 95 
f 82 62 96 
f 72 82 96 
f 62 94 96 
f 76 73 97 
f 60 84 97 
f 82 72 98 
f 83 82 98 
f 86 66 99 
f 65 86 99 
f 66 90 99 
f 72 96 100 
f 96 94 100 
f 68 64 101 
f 64 77 101 
f 77 83 101 
f 83 98 101 
f 98 68 101 
f 69 63 102 
f 63 80 102 
f 85 69 103 
f 90 75 104 
f 99 90 104 
f 73 99 104 
f 77 64 105 
f 80 77 105 
f 84 70 106 
f 70 87 106 
f 91 76 106 
f 87 91 106 
f 76 97 106 
f 97 84 106 
f 86 65 107 
f 79 86 107 
f 66 69 108 
f 90 66 108 
f 75 90 108 
f 78 67 109 
f 67 81 109 
f 94 62 110 
f 62 95 110 
f 95 78 110 
f 88 68 111 
f 98 72 111 
f 68 98 111 
f 72 100 111 
f 59 81 112 
f 81 88 112 
f 88 111 112 
f 69 102 113 
f 102 80 113 
f 103 69 113 
f 74 103 113 
f 87 70 114 
f 70 89 114 
f 89 74 114 
f 74 113 114 
f 114 113 115 
f 64 87 115 
f 105 64 115 
f 80 105 115 
f 113 80 115 
f 87 114 115 
f 61 60 116 
f 60 75 116 
f 69 85 116 
f 108 69 116 
f 75 108 116 
f 75 60 117 
f 60 97 117 
f 97 73 117 
f 104 75 117 
f 73 104 117 
f 67 79 118 
f 65 91 118 
f 91 67 118 
f 107 65 118 
f 79 107 118 
f 74 89 119 
f 89 61 119 
f 103 74 119 
f 85 103 119 
f 61 116 119 
f 116 85 119 
f 94 59 120 
f 100 94 120 
f 111 100 120 
f 59 112 120 
f 112 111 120 
f 81 59 121 
f 59 94 121 
f 78 109 121 
f 109 81 121 
f 94 110 121 
f 110 78 121 
f 73 76 122 
f 91 65 122 
f 76 91 122 
f 65 99 122 
o convex_2
v 0.008527 0.010377 0.008491
v -0.009209 0.043584 0.008868
v -0.009209 0.043584 0.009245
v 0.008527 0.062075 0.005850
v 0.005884 0.062075 0.014528
v -0.005435 0.010377 0.014150
v -0.005435 0.010377 0.003585
v -0.006943 0.062075 0.003585
v -0.006943 0.062075 0.014150
v 0.005129 0.010377 0.003585
v 0.005129 0.010377 0.014150
v 0.005508 0.062075 0.003208
v -0.008452 0.010377 0.006982
v 0.008527 0.062075 0.011885
v -0.009209 0.062075 0.006227
v -0.008452 0.012644 0.011132
v 0.007016 0.010377 0.013018
v -0.009209 0.062075 0.011508
v -0.003548 0.010377 0.014528
v -0.003169 0.010377 0.003208
v 0.007016 0.010377 0.004718
v -0.006190 0.062075 0.014528
v -0.005812 0.062075 0.003208
v -0.007320 0.014907 0.004718
v -0.007320 0.012265 0.013018
v 0.003242 0.010377 0.014528
v 0.002865 0.010377 0.003208
v 0.008148 0.010377 0.011132
v 0.008148 0.010377 0.006604
v 0.006263 0.059054 0.003585
v -0.008831 0.016040 0.009245
v -0.008831 0.060188 0.012263
v -0.008831 0.060562 0.005473
v -0.008452 0.010377 0.010754
v -0.008452 0.013778 0.006604
v -0.008831 0.016420 0.008491
v 0.008527 0.014907 0.009623
f 136 150 159 
f 123 128 129 
f 127 126 130 
f 127 130 131 
f 123 129 132 
f 128 123 133 
f 130 126 134 
f 129 128 135 
f 123 126 136 
f 126 127 136 
f 124 125 137 
f 131 130 137 
f 133 123 139 
f 127 133 139 
f 136 127 139 
f 137 125 140 
f 131 137 140 
f 128 133 141 
f 132 129 142 
f 123 132 143 
f 131 128 144 
f 127 131 144 
f 128 141 144 
f 141 127 144 
f 129 130 145 
f 130 134 145 
f 142 129 145 
f 134 142 145 
f 130 129 146 
f 129 135 146 
f 128 131 147 
f 133 127 148 
f 127 141 148 
f 141 133 148 
f 134 132 149 
f 132 142 149 
f 142 134 149 
f 139 123 150 
f 136 139 150 
f 126 123 151 
f 123 143 151 
f 143 126 151 
f 134 126 152 
f 132 134 152 
f 126 143 152 
f 143 132 152 
f 125 124 153 
f 140 125 153 
f 138 140 153 
f 131 140 154 
f 140 138 154 
f 147 131 154 
f 138 147 154 
f 137 130 155 
f 130 146 155 
f 135 128 156 
f 128 147 156 
f 147 138 156 
f 153 135 156 
f 138 153 156 
f 146 135 157 
f 137 155 157 
f 155 146 157 
f 124 137 158 
f 153 124 158 
f 135 153 158 
f 157 135 158 
f 137 157 158 
f 123 136 159 
f 150 123 159 
o convex_3
v -0.035623 0.071889 0.002077
v -0.024682 0.083583 0.017170
v -0.024682 0.085471 0.016790
v -0.039398 0.063962 0.016790
v -0.024682 0.076413 0.000568
v -0.025060 0.087736 0.004341
v -0.024682 0.076413 0.017170
v -0.037888 0.062453 0.000946
v -0.031474 0.079054 0.014903
v -0.038264 0.062453 0.017170
v -0.024682 0.085093 0.000946
v -0.039398 0.063586 0.000946
v -0.028456 0.084338 0.009244
v -0.025060 0.087357 0.015281
v -0.031474 0.077923 0.000946
v -0.031852 0.077547 0.016790
v -0.034868 0.073399 0.014903
v -0.027702 0.084338 0.002454
v -0.039019 0.062831 0.000568
v -0.025060 0.083207 0.000568
v -0.031852 0.078678 0.004341
v -0.038264 0.066606 0.002454
v -0.024682 0.087357 0.002454
v -0.039398 0.062831 0.016790
v -0.037888 0.062453 0.006228
v -0.035244 0.070756 0.017170
v -0.028456 0.083207 0.015658
v -0.037888 0.067360 0.016035
f 181 163 187 
f 162 161 164 
f 164 161 166 
f 164 166 167 
f 166 161 169 
f 162 164 170 
f 165 172 173 
f 171 160 174 
f 161 162 175 
f 168 172 176 
f 175 168 176 
f 172 165 177 
f 170 174 177 
f 164 167 178 
f 171 174 178 
f 178 174 179 
f 170 164 179 
f 174 170 179 
f 164 178 179 
f 174 160 180 
f 160 176 180 
f 176 172 180 
f 172 177 180 
f 177 174 180 
f 160 171 181 
f 171 163 181 
f 162 170 182 
f 173 162 182 
f 165 173 182 
f 177 165 182 
f 170 177 182 
f 169 163 183 
f 167 169 183 
f 163 171 183 
f 178 167 183 
f 171 178 183 
f 167 166 184 
f 166 169 184 
f 169 167 184 
f 169 161 185 
f 163 169 185 
f 161 175 185 
f 175 163 185 
f 172 168 186 
f 173 172 186 
f 162 173 186 
f 175 162 186 
f 168 175 186 
f 163 175 187 
f 176 160 187 
f 175 176 187 
f 160 181 187 
o convex_4
v -0.017512 0.094525 0.005097
v -0.013737 0.090754 0.017170
v -0.014492 0.090754 0.017170
v -0.024681 0.076792 0.000568
v -0.013737 0.082077 0.000568
v -0.024681 0.076792 0.017170
v -0.024681 0.087736 0.015281
v -0.013737 0.082077 0.017170
v -0.024681 0.086603 0.001323
v -0.013737 0.094525 0.001700
v -0.014115 0.095659 0.014904
v -0.014115 0.090754 0.000568
v -0.024301 0.086227 0.016790
v -0.020529 0.092261 0.013395
v -0.024301 0.088489 0.003587
v -0.023924 0.076792 0.002454
v -0.014870 0.095282 0.002454
v -0.017889 0.093771 0.015281
v -0.024681 0.083587 0.000568
v -0.023924 0.076792 0.015281
v -0.013737 0.096038 0.013395
v -0.020529 0.091507 0.002077
v -0.015625 0.093393 0.016413
v -0.018266 0.091886 0.001323
v -0.024681 0.083962 0.017170
v -0.020529 0.092261 0.004341
v -0.014115 0.096038 0.003964
v -0.016003 0.095282 0.013016
v -0.024681 0.088111 0.013772
f 213 202 216 
f 189 190 193 
f 191 193 194 
f 192 189 195 
f 189 193 195 
f 191 194 196 
f 189 192 197 
f 192 191 199 
f 197 192 199 
f 191 192 203 
f 193 191 203 
f 192 195 203 
f 194 200 205 
f 201 194 205 
f 191 196 206 
f 199 191 206 
f 195 193 207 
f 193 203 207 
f 203 195 207 
f 189 197 208 
f 198 189 208 
f 196 202 209 
f 188 204 209 
f 190 189 210 
f 189 198 210 
f 200 190 210 
f 198 205 210 
f 205 200 210 
f 197 199 211 
f 204 197 211 
f 206 196 211 
f 199 206 211 
f 196 209 211 
f 209 204 211 
f 193 190 212 
f 194 193 212 
f 190 200 212 
f 200 194 212 
f 201 188 213 
f 188 209 213 
f 209 202 213 
f 197 204 214 
f 204 188 214 
f 208 197 214 
f 208 214 215 
f 188 201 215 
f 205 198 215 
f 201 205 215 
f 198 208 215 
f 214 188 215 
f 196 194 216 
f 194 201 216 
f 202 196 216 
f 201 213 216 
o convex_5
v -0.010340 0.070756 0.008115
v 0.010791 0.079811 0.014528
v 0.010791 0.079811 0.003208
v 0.008526 0.062075 0.011886
v -0.011096 0.079811 0.017168
v -0.011096 0.079811 0.000568
v -0.005810 0.062075 0.003208
v -0.006190 0.062075 0.014528
v 0.008526 0.069247 0.001322
v 0.008526 0.070756 0.016791
v -0.009206 0.062075 0.006227
v 0.005885 0.062075 0.003208
v 0.007393 0.079811 0.000189
v 0.008526 0.079811 0.017547
v -0.009206 0.069626 0.016414
v -0.008075 0.070756 0.000945
v 0.005885 0.062075 0.014528
v -0.009206 0.062075 0.011508
v 0.008526 0.062075 0.005850
v -0.004679 0.069626 0.016791
v 0.006262 0.070002 0.000945
v -0.008829 0.069247 0.001322
v -0.000529 0.077924 0.017547
v 0.009658 0.079433 0.000568
v 0.009281 0.069247 0.015659
v -0.003171 0.079433 0.000189
v 0.006262 0.069626 0.016791
v 0.009281 0.068869 0.002454
v 0.009658 0.079054 0.017168
v 0.010791 0.079054 0.014151
v -0.008452 0.074903 0.017168
v -0.004679 0.070002 0.000945
v 0.010791 0.079054 0.003585
v -0.011096 0.078678 0.014905
v -0.005810 0.079811 0.017547
f 247 239 251 
f 218 219 221 
f 221 219 222 
f 223 220 224 
f 217 222 227 
f 223 224 227 
f 220 223 228 
f 222 219 229 
f 218 221 230 
f 224 220 233 
f 217 227 234 
f 227 224 234 
f 224 231 234 
f 231 221 234 
f 220 228 235 
f 228 225 235 
f 231 224 236 
f 224 233 236 
f 228 223 237 
f 225 228 237 
f 229 225 237 
f 227 222 238 
f 223 227 238 
f 222 232 238 
f 229 219 240 
f 225 229 240 
f 233 220 241 
f 226 233 241 
f 222 229 242 
f 232 222 242 
f 229 237 242 
f 226 230 243 
f 233 226 243 
f 236 233 243 
f 230 239 243 
f 239 236 243 
f 235 225 244 
f 240 219 244 
f 225 240 244 
f 218 230 245 
f 230 226 245 
f 241 218 245 
f 226 241 245 
f 219 218 246 
f 220 235 246 
f 218 241 246 
f 241 220 246 
f 221 231 247 
f 231 236 247 
f 236 239 247 
f 237 223 248 
f 238 232 248 
f 223 238 248 
f 232 242 248 
f 242 237 248 
f 244 219 249 
f 235 244 249 
f 219 246 249 
f 246 235 249 
f 222 217 250 
f 221 222 250 
f 217 234 250 
f 234 221 250 
f 230 221 251 
f 239 230 251 
f 221 247 251 
o convex_6
v 0.007769 0.086983 -0.000189
v 0.011166 0.100187 0.012639
v 0.012674 0.099431 0.012639
v -0.011094 0.079811 0.017167
v -0.013734 0.095659 0.002455
v 0.010034 0.079815 0.016790
v -0.011094 0.079811 0.000568
v -0.013734 0.094147 0.016412
v 0.015695 0.093771 0.000567
v 0.014562 0.093396 0.017925
v 0.010034 0.079815 0.000944
v 0.016071 0.083964 0.012639
v 0.009657 0.099808 0.003208
v -0.013734 0.082077 0.000568
v -0.008073 0.097923 0.012261
v -0.010341 0.092640 0.000568
v -0.013734 0.082077 0.017167
v 0.016071 0.097546 0.012261
v 0.016071 0.087737 0.000944
v 0.005884 0.098677 0.015659
v 0.000226 0.099431 0.005474
v 0.014186 0.094149 -0.000189
v 0.014186 0.087360 0.017925
v -0.010341 0.089624 0.017547
v 0.016071 0.097546 0.005474
v -0.013358 0.096036 0.014903
v 0.002867 0.098300 0.002075
v 0.008525 0.079815 0.000189
v 0.016071 0.087360 0.016790
v 0.016071 0.083964 0.005474
v -0.006568 0.079811 0.017547
v 0.013430 0.094526 0.017925
v 0.001358 0.099431 0.013019
v -0.012602 0.096792 0.005852
v -0.008073 0.090374 0.000189
v 0.008901 0.079815 0.017545
v -0.005435 0.080190 0.000189
v 0.010789 0.079815 0.003208
v 0.014186 0.087360 -0.000189
v 0.011166 0.100187 0.005095
v -0.013734 0.090753 0.000568
v 0.006260 0.085851 0.017925
v 0.010034 0.099808 0.014527
v -0.006944 0.097544 0.002833
v -0.008073 0.097167 0.015281
v 0.016071 0.093771 0.016790
v -0.012982 0.084720 0.017547
v -0.008453 0.095280 0.001324
v 0.007016 0.100187 0.009999
v -0.009961 0.094147 0.016790
v 0.010789 0.079815 0.014527
v 0.009657 0.096790 0.000944
v -0.013734 0.096413 0.010753
v -0.013358 0.091507 0.017167
v -0.011470 0.079811 0.011508
v 0.004375 0.090753 0.017925
v -0.008073 0.097923 0.005474
v -0.009208 0.084341 0.000189
v -0.004303 0.096036 0.016412
v 0.000982 0.099054 0.014527
v -0.000151 0.099431 0.009620
v 0.012298 0.094149 -0.000189
v 0.004375 0.099431 0.003208
v 0.008148 0.100187 0.005095
f 314 272 315 
f 259 256 265 
f 259 265 268 
f 269 263 270 
f 254 269 276 
f 270 260 276 
f 269 270 276 
f 260 273 276 
f 273 264 276 
f 262 258 279 
f 257 263 280 
f 263 269 280 
f 261 274 280 
f 262 270 281 
f 270 263 281 
f 255 258 282 
f 274 261 283 
f 257 280 287 
f 280 274 287 
f 282 257 287 
f 258 265 288 
f 252 279 288 
f 279 258 288 
f 258 262 289 
f 262 281 289 
f 281 263 289 
f 282 258 289 
f 260 270 290 
f 270 262 290 
f 252 273 290 
f 273 260 290 
f 279 252 290 
f 262 279 290 
f 253 254 291 
f 254 276 291 
f 276 264 291 
f 265 256 292 
f 256 267 292 
f 267 286 292 
f 274 283 293 
f 287 274 293 
f 282 287 293 
f 254 253 294 
f 269 254 294 
f 271 283 294 
f 253 284 294 
f 277 259 296 
f 266 277 296 
f 261 280 297 
f 280 269 297 
f 283 261 297 
f 269 294 297 
f 294 283 297 
f 268 255 298 
f 255 282 298 
f 282 293 298 
f 267 256 299 
f 256 295 299 
f 295 278 299 
f 284 253 300 
f 253 291 300 
f 263 257 302 
f 257 282 302 
f 289 263 302 
f 282 289 302 
f 264 273 303 
f 278 264 303 
f 299 278 303 
f 256 259 304 
f 259 277 304 
f 277 266 304 
f 285 256 304 
f 266 285 304 
f 259 268 305 
f 275 283 305 
f 268 298 305 
f 298 275 305 
f 301 259 305 
f 283 301 305 
f 258 255 306 
f 265 258 306 
f 255 268 306 
f 268 265 306 
f 283 275 307 
f 293 283 307 
f 275 298 307 
f 298 293 307 
f 256 285 308 
f 285 266 308 
f 272 295 308 
f 295 256 308 
f 286 252 309 
f 288 265 309 
f 252 288 309 
f 265 292 309 
f 292 286 309 
f 283 271 310 
f 296 259 310 
f 271 296 310 
f 259 301 310 
f 301 283 310 
f 284 266 311 
f 271 294 311 
f 294 284 311 
f 296 271 311 
f 266 296 311 
f 266 284 312 
f 284 300 312 
f 300 272 312 
f 308 266 312 
f 272 308 312 
f 273 252 313 
f 252 286 313 
f 286 267 313 
f 267 299 313 
f 303 273 313 
f 299 303 313 
f 264 278 314 
f 295 272 314 
f 278 295 314 
f 291 264 315 
f 272 300 315 
f 300 291 315 
f 264 314 315 
o convex_7
v 0.016452 0.097546 0.011884
v 0.016074 0.083964 0.005472
v 0.016074 0.086983 0.001699
v 0.021734 0.084719 0.005472
v 0.016074 0.087737 0.016792
v 0.021734 0.096791 0.005852
v 0.021734 0.093773 0.015660
v 0.016074 0.093395 0.000943
v 0.021734 0.084719 0.012264
v 0.021734 0.087737 0.002076
v 0.016074 0.093773 0.016792
v 0.016074 0.097546 0.005852
v 0.016074 0.083964 0.012264
v 0.021734 0.093395 0.002076
v 0.021734 0.087737 0.015660
v 0.021734 0.096791 0.011884
v 0.016452 0.087737 0.000943
v 0.016452 0.095659 0.003208
f 329 323 333 
f 317 318 319 
f 318 317 320 
f 319 321 322 
f 318 320 323 
f 317 319 324 
f 319 322 324 
f 319 318 325 
f 321 319 325 
f 320 322 326 
f 323 320 326 
f 323 326 327 
f 316 321 327 
f 326 316 327 
f 320 317 328 
f 317 324 328 
f 324 320 328 
f 321 325 329 
f 322 320 330 
f 320 324 330 
f 324 322 330 
f 321 316 331 
f 322 321 331 
f 316 326 331 
f 326 322 331 
f 318 323 332 
f 325 318 332 
f 323 329 332 
f 329 325 332 
f 323 327 333 
f 327 321 333 
f 321 329 333 
o convex_8
v 0.039470 0.088494 0.003964
v 0.037205 0.092641 0.017925
v 0.029658 0.092641 0.017925
v 0.029658 0.099811 0.006981
v 0.021734 0.084340 0.006230
v 0.037205 0.082455 0.013019
v 0.021734 0.093395 0.002075
v 0.021734 0.087737 0.015659
v 0.037960 0.098301 0.003964
v 0.037583 0.085475 0.001322
v 0.021734 0.096792 0.012261
v 0.037960 0.098301 0.013770
v 0.029658 0.089246 -0.000189
v 0.029658 0.081698 0.009999
v 0.037960 0.087359 0.017169
v 0.037205 0.094904 0.000567
v 0.037205 0.082078 0.005850
v 0.029281 0.083209 0.003586
v 0.029658 0.097547 0.015283
v 0.039470 0.094526 0.013019
v 0.029658 0.085852 0.016790
v 0.021734 0.087737 0.002075
v 0.029281 0.096035 0.001322
v 0.039470 0.085852 0.011130
v 0.021734 0.093772 0.015659
v 0.021734 0.096792 0.005850
v 0.022113 0.084340 0.011886
v 0.037205 0.099811 0.010754
v 0.029281 0.099432 0.011886
v 0.029281 0.083209 0.014150
v 0.037583 0.090381 -0.000189
v 0.039092 0.096412 0.004717
v 0.029281 0.089246 0.017925
v 0.029658 0.092264 -0.000189
v 0.029281 0.085475 0.001322
v 0.029281 0.098301 0.003586
v 0.038715 0.083209 0.007359
v 0.037205 0.095657 0.016790
v 0.029281 0.082078 0.005850
v 0.039092 0.092264 0.015659
v 0.037583 0.099432 0.005850
v 0.037583 0.085475 0.016414
v 0.037583 0.081698 0.009620
v 0.028906 0.094904 0.017169
v 0.039092 0.097547 0.010375
v 0.038715 0.092641 0.001322
v 0.039092 0.085097 0.013019
v 0.037205 0.088868 0.017925
v 0.037583 0.083209 0.003586
v 0.039470 0.094904 0.005095
v 0.038715 0.086228 0.002453
v 0.037205 0.098677 0.013770
v 0.029281 0.099811 0.009620
v 0.037205 0.087737 0.000189
v 0.037583 0.096035 0.001322
v 0.029281 0.082078 0.011886
v 0.029281 0.094904 0.000567
v 0.028906 0.087737 0.000189
v 0.029658 0.081698 0.007737
v 0.039470 0.089625 0.014150
f 348 380 393 
f 340 338 341 
f 340 341 344 
f 338 340 355 
f 340 346 355 
f 351 338 355 
f 334 353 357 
f 344 341 358 
f 352 344 358 
f 340 344 359 
f 341 338 360 
f 338 347 360 
f 344 352 362 
f 354 341 363 
f 341 360 363 
f 335 336 366 
f 341 354 366 
f 336 358 366 
f 358 341 366 
f 346 340 367 
f 364 346 367 
f 349 364 367 
f 343 351 368 
f 351 355 368 
f 356 340 369 
f 359 337 369 
f 340 359 369 
f 334 357 370 
f 351 350 372 
f 338 351 372 
f 335 348 373 
f 353 345 373 
f 371 335 373 
f 345 371 373 
f 337 361 374 
f 365 342 374 
f 369 337 374 
f 342 369 374 
f 363 339 375 
f 354 363 375 
f 350 370 376 
f 336 335 377 
f 358 336 377 
f 352 358 377 
f 335 371 377 
f 371 352 377 
f 345 353 378 
f 361 345 378 
f 374 361 378 
f 365 374 378 
f 364 349 379 
f 370 357 380 
f 348 375 380 
f 375 339 380 
f 339 376 380 
f 376 370 380 
f 348 335 381 
f 335 366 381 
f 366 354 381 
f 375 348 381 
f 354 375 381 
f 350 351 382 
f 351 343 382 
f 370 350 382 
f 353 334 383 
f 378 353 383 
f 365 378 383 
f 334 379 383 
f 379 365 383 
f 343 364 384 
f 334 370 384 
f 379 334 384 
f 364 379 384 
f 382 343 384 
f 370 382 384 
f 345 361 385 
f 362 352 385 
f 361 362 385 
f 352 371 385 
f 371 345 385 
f 337 359 386 
f 359 344 386 
f 361 337 386 
f 344 362 386 
f 362 361 386 
f 364 343 387 
f 346 364 387 
f 343 368 387 
f 349 356 388 
f 342 365 388 
f 369 342 388 
f 356 369 388 
f 379 349 388 
f 365 379 388 
f 360 347 389 
f 339 363 389 
f 363 360 389 
f 376 339 389 
f 347 376 389 
f 340 356 390 
f 356 349 390 
f 367 340 390 
f 349 367 390 
f 355 346 391 
f 368 355 391 
f 346 387 391 
f 387 368 391 
f 347 338 392 
f 338 372 392 
f 372 350 392 
f 376 347 392 
f 350 376 392 
f 357 353 393 
f 373 348 393 
f 353 373 393 
f 380 357 393 
