o convex_0
v 0.018010 -0.090572 0.015340
v -0.007498 -0.098700 0.013495
v -0.007498 -0.098700 0.014231
v -0.004538 -0.060267 0.013125
v 0.012463 -0.098333 0.007579
v 0.010245 -0.060267 0.019778
v 0.009506 -0.060267 0.007579
v -0.000104 -0.098700 0.020148
v -0.003061 -0.098700 0.007949
v -0.001951 -0.060267 0.019407
v 0.014313 -0.098333 0.019778
v -0.001951 -0.060267 0.008319
v 0.013943 -0.060267 0.011276
v 0.018377 -0.098333 0.010907
v -0.005278 -0.099071 0.018299
v 0.016900 -0.099814 0.015710
v 0.013203 -0.061001 0.017928
v -0.006758 -0.099071 0.010907
v -0.000474 -0.100185 0.009798
v 0.000266 -0.060267 0.007579
v 0.000636 -0.060267 0.020148
v -0.004168 -0.061372 0.016820
v 0.016530 -0.095374 0.009057
v 0.018010 -0.097594 0.017190
v -0.002321 -0.100185 0.017558
v 0.011725 -0.098333 0.020148
v -0.001211 -0.098700 0.007579
v 0.011725 -0.060267 0.008319
v -0.004168 -0.060267 0.010907
v -0.006758 -0.096113 0.016820
v 0.014313 -0.099814 0.010168
v 0.013943 -0.060267 0.016451
v -0.002691 -0.094265 0.019778
v 0.009506 -0.063959 0.020148
v -0.005278 -0.097223 0.009057
v 0.014683 -0.098333 0.007949
v 0.011725 -0.061740 0.019407
v 0.018377 -0.092045 0.013495
v -0.006388 -0.088719 0.010907
v 0.016530 -0.097223 0.018669
v -0.005648 -0.100185 0.011647
v 0.017640 -0.090200 0.010907
v 0.012095 -0.099814 0.017928
v 0.014313 -0.060634 0.013863
v -0.003431 -0.062482 0.009428
v 0.018750 -0.098333 0.015340
v -0.007125 -0.092045 0.014231
v 0.013203 -0.060267 0.009798
v -0.004908 -0.095003 0.018669
v -0.003431 -0.060267 0.017928
v 0.018010 -0.092416 0.016451
v -0.005648 -0.100185 0.015710
v -0.001951 -0.070614 0.007949
v 0.016900 -0.099814 0.011647
v 0.002486 -0.100185 0.017558
v -0.004538 -0.060267 0.014601
f 22 50 56 
f 4 6 7 
f 6 4 10 
f 4 7 12 
f 7 6 13 
f 7 5 20 
f 12 7 20 
f 6 10 21 
f 11 16 24 
f 8 15 25 
f 21 8 26 
f 5 19 27 
f 19 9 27 
f 20 5 27 
f 9 20 27 
f 7 13 28 
f 4 12 29 
f 3 15 30 
f 19 5 31 
f 13 6 32 
f 6 17 32 
f 15 8 33 
f 21 10 33 
f 8 21 33 
f 6 21 34 
f 26 11 34 
f 21 26 34 
f 9 18 35 
f 5 7 36 
f 23 14 36 
f 7 28 36 
f 28 23 36 
f 31 5 36 
f 17 6 37 
f 6 34 37 
f 34 11 37 
f 18 2 39 
f 4 29 39 
f 35 18 39 
f 11 24 40 
f 24 17 40 
f 17 37 40 
f 37 11 40 
f 3 2 41 
f 2 18 41 
f 18 9 41 
f 9 19 41 
f 19 25 41 
f 14 23 42 
f 13 38 42 
f 38 14 42 
f 16 11 43 
f 11 26 43 
f 26 8 43 
f 32 1 44 
f 13 32 44 
f 38 13 44 
f 1 38 44 
f 29 12 45 
f 12 35 45 
f 39 29 45 
f 35 39 45 
f 24 16 46 
f 14 38 46 
f 38 1 46 
f 2 3 47 
f 3 30 47 
f 30 22 47 
f 39 2 47 
f 4 39 47 
f 28 13 48 
f 23 28 48 
f 42 23 48 
f 13 42 48 
f 30 15 49 
f 33 10 49 
f 15 33 49 
f 10 4 50 
f 22 30 50 
f 30 49 50 
f 49 10 50 
f 17 24 51 
f 1 32 51 
f 32 17 51 
f 46 1 51 
f 24 46 51 
f 15 3 52 
f 25 15 52 
f 3 41 52 
f 41 25 52 
f 20 9 53 
f 12 20 53 
f 9 35 53 
f 35 12 53 
f 19 31 54 
f 36 14 54 
f 31 36 54 
f 14 46 54 
f 46 16 54 
f 8 25 55 
f 25 19 55 
f 16 43 55 
f 43 8 55 
f 54 16 55 
f 19 54 55 
f 4 47 56 
f 47 22 56 
f 50 4 56 
o convex_1
v 0.014314 -0.038064 0.014231
v -0.006759 -0.022912 0.013495
v -0.006759 -0.022912 0.014231
v 0.008027 0.062107 0.010907
v -0.001212 0.062107 0.020148
v -0.001581 0.062107 0.007579
v 0.009508 -0.060259 0.007579
v 0.000636 -0.060259 0.020148
v -0.001953 -0.060259 0.008319
v 0.006550 0.062107 0.019407
v 0.011356 -0.060259 0.019407
v -0.004539 0.062107 0.016820
v 0.012094 -0.019211 0.008688
v -0.004910 -0.021810 0.018669
v 0.013942 -0.018851 0.016820
v 0.005071 0.062107 0.007579
v -0.004170 -0.059887 0.016820
v -0.006387 -0.019582 0.010907
v -0.004539 0.062107 0.010907
v 0.013573 -0.060259 0.010538
v 0.008767 -0.018109 0.020148
v 0.013942 -0.018851 0.010907
v -0.001581 -0.027356 0.007579
v 0.008027 0.062107 0.016820
v -0.004170 -0.060259 0.010907
v -0.004539 -0.021067 0.008688
v 0.011356 -0.019582 0.019407
v 0.013942 -0.060259 0.016080
v 0.014314 -0.018109 0.013495
v 0.007288 0.062107 0.009057
v 0.004700 0.062107 0.020148
v -0.006387 -0.021067 0.016820
v -0.002691 0.062107 0.019776
v -0.002322 -0.041765 0.019776
v -0.003429 0.062107 0.008688
v 0.008398 -0.060259 0.020148
v -0.000102 -0.060259 0.007579
v 0.009508 -0.019211 0.007579
v 0.011725 -0.058402 0.008319
v -0.001953 -0.060259 0.019407
v 0.012835 -0.019223 0.018299
v -0.003060 -0.022540 0.019776
v 0.008398 0.060622 0.013495
v -0.006759 -0.017737 0.014231
v 0.012835 -0.055072 0.018299
v -0.004539 -0.060259 0.014601
v 0.006181 0.062107 0.007949
v 0.010615 -0.017366 0.019778
v -0.003060 -0.026613 0.007949
v 0.013573 -0.019594 0.010167
v -0.003429 -0.058774 0.009428
v 0.013942 -0.060259 0.011646
v -0.002691 0.062107 0.007949
v 0.010984 -0.025870 0.007949
v 0.014314 -0.019223 0.014971
v 0.010984 -0.044723 0.019778
v -0.005649 -0.021438 0.009798
v -0.003429 -0.056929 0.018299
v -0.000843 -0.027356 0.020148
v -0.003801 0.062107 0.018299
v -0.006759 -0.019223 0.013125
v 0.014314 -0.019223 0.012756
v 0.012463 -0.017366 0.009057
v 0.010615 -0.015509 0.007949
f 69 110 120 
f 61 60 62 
f 63 64 65 
f 60 61 66 
f 64 63 67 
f 61 62 68 
f 62 60 72 
f 63 62 72 
f 68 62 75 
f 67 63 76 
f 61 64 77 
f 62 63 79 
f 60 66 80 
f 66 71 80 
f 65 64 81 
f 58 74 81 
f 67 76 84 
f 72 60 86 
f 60 78 86 
f 66 61 87 
f 61 77 87 
f 59 73 88 
f 61 68 89 
f 88 70 89 
f 75 62 91 
f 74 75 91 
f 64 67 92 
f 77 64 92 
f 63 65 93 
f 79 63 93 
f 63 72 94 
f 76 63 95 
f 81 64 96 
f 64 90 96 
f 90 70 96 
f 71 66 97 
f 66 83 97 
f 61 89 98 
f 89 70 98 
f 70 90 98 
f 60 80 99 
f 85 60 99 
f 58 59 100 
f 68 75 100 
f 59 88 100 
f 88 68 100 
f 84 71 101 
f 67 84 101 
f 71 97 101 
f 59 58 102 
f 73 59 102 
f 58 81 102 
f 96 73 102 
f 81 96 102 
f 72 86 103 
f 83 66 104 
f 66 87 104 
f 87 77 104 
f 62 79 105 
f 65 82 105 
f 93 65 105 
f 79 93 105 
f 78 76 106 
f 86 78 106 
f 76 95 106 
f 65 81 107 
f 81 74 107 
f 82 65 107 
f 76 78 108 
f 57 84 108 
f 84 76 108 
f 91 62 109 
f 82 91 109 
f 62 105 109 
f 105 82 109 
f 63 94 110 
f 95 63 110 
f 69 95 110 
f 80 71 111 
f 84 57 111 
f 71 84 111 
f 57 85 111 
f 99 80 111 
f 85 99 111 
f 92 67 112 
f 77 92 112 
f 97 83 112 
f 67 101 112 
f 101 97 112 
f 83 104 112 
f 104 77 112 
f 74 91 113 
f 91 82 113 
f 107 74 113 
f 82 107 113 
f 70 88 114 
f 88 73 114 
f 96 70 114 
f 73 96 114 
f 64 61 115 
f 90 64 115 
f 61 98 115 
f 98 90 115 
f 68 88 116 
f 89 68 116 
f 88 89 116 
f 74 58 117 
f 75 74 117 
f 58 100 117 
f 100 75 117 
f 78 60 118 
f 85 57 118 
f 60 85 118 
f 108 78 118 
f 57 108 118 
f 95 69 119 
f 103 86 119 
f 69 103 119 
f 86 106 119 
f 106 95 119 
f 94 72 120 
f 72 103 120 
f 103 69 120 
f 110 94 120 
o convex_2
v -0.013044 0.097225 0.015709
v -0.019328 0.080591 0.003884
v -0.019328 0.089832 0.003884
v -0.019328 0.089461 0.023843
v -0.010825 0.086139 0.021995
v -0.010825 0.086509 0.005363
v -0.019328 0.080591 0.023843
v -0.010825 0.096487 0.006842
v -0.010825 0.095378 0.021995
v -0.019328 0.092419 0.011646
v -0.010825 0.085398 0.012017
v -0.015999 0.094269 0.021254
v -0.015999 0.094637 0.007580
v -0.011195 0.095007 0.005363
v -0.018587 0.080591 0.021254
v -0.010825 0.097967 0.011277
v -0.019328 0.092419 0.016081
v -0.018587 0.080591 0.006472
v -0.011195 0.097594 0.017929
v -0.015631 0.095747 0.012755
v -0.011195 0.086139 0.022364
v -0.010825 0.085769 0.006842
v -0.018218 0.090201 0.003884
v -0.011195 0.085398 0.020146
v -0.019328 0.091312 0.021623
v -0.015999 0.095378 0.016450
v -0.013414 0.095747 0.006842
v -0.019328 0.091312 0.005732
v -0.018587 0.089832 0.023843
f 141 129 149 
f 123 122 124 
f 124 122 127 
f 125 126 128 
f 125 128 129 
f 123 124 130 
f 126 125 131 
f 128 126 134 
f 127 122 135 
f 129 128 136 
f 130 124 137 
f 135 122 138 
f 131 135 138 
f 121 132 139 
f 132 129 139 
f 136 121 139 
f 129 136 139 
f 133 130 140 
f 121 136 140 
f 136 133 140 
f 130 137 140 
f 127 125 141 
f 125 129 141 
f 122 126 142 
f 126 131 142 
f 138 122 142 
f 131 138 142 
f 122 123 143 
f 126 122 143 
f 123 134 143 
f 134 126 143 
f 125 127 144 
f 131 125 144 
f 127 135 144 
f 135 131 144 
f 124 132 145 
f 137 124 145 
f 137 145 146 
f 132 121 146 
f 121 140 146 
f 140 137 146 
f 145 132 146 
f 134 123 147 
f 128 134 147 
f 136 128 147 
f 133 136 147 
f 123 130 148 
f 130 133 148 
f 147 123 148 
f 133 147 148 
f 124 127 149 
f 129 132 149 
f 132 124 149 
f 127 141 149 
o convex_3
v -0.019328 0.091681 0.008687
v -0.038552 0.062850 -0.000185
v -0.038179 0.062477 -0.000185
v -0.038179 0.062850 0.011275
v -0.019328 0.080220 0.003883
v -0.019328 0.080961 0.013492
v -0.020438 0.091311 0.013492
v -0.020067 0.088723 0.003513
v -0.028202 0.080958 0.010166
v -0.037071 0.062477 0.010166
v -0.023767 0.086134 0.004991
v -0.034852 0.064700 0.000186
v -0.037810 0.065068 0.000186
v -0.038179 0.064330 0.010166
v -0.034852 0.066547 -0.000185
v -0.025615 0.073570 0.003142
v -0.019328 0.080220 0.009056
v -0.036333 0.066918 0.011644
v -0.027463 0.079850 0.002034
v -0.019328 0.092052 0.013492
v -0.028940 0.079850 0.011275
v -0.021548 0.090199 0.011644
v -0.037071 0.063959 0.011644
v -0.019328 0.090940 0.005732
v -0.021178 0.082067 0.013494
v -0.037071 0.062477 0.000186
v -0.020067 0.079850 0.003513
v -0.027463 0.080958 0.004252
v -0.019328 0.080591 0.013123
v -0.036333 0.063959 0.011644
v -0.019699 0.088723 0.003513
f 176 164 180 
f 151 152 153 
f 154 150 155 
f 153 152 159 
f 151 153 163 
f 162 151 163 
f 152 151 164 
f 161 152 164 
f 151 162 164 
f 161 154 165 
f 154 155 166 
f 165 154 166 
f 159 165 166 
f 163 153 167 
f 160 157 168 
f 157 164 168 
f 164 162 168 
f 155 150 169 
f 150 156 169 
f 158 162 170 
f 162 163 170 
f 167 156 170 
f 163 167 170 
f 156 150 171 
f 160 158 171 
f 170 156 171 
f 158 170 171 
f 167 153 172 
f 156 167 172 
f 150 154 173 
f 157 160 173 
f 171 150 173 
f 160 171 173 
f 155 169 174 
f 169 156 174 
f 172 155 174 
f 156 172 174 
f 159 152 175 
f 152 161 175 
f 165 159 175 
f 161 165 175 
f 154 161 176 
f 161 164 176 
f 158 160 177 
f 162 158 177 
f 160 168 177 
f 168 162 177 
f 166 155 178 
f 159 166 178 
f 153 159 179 
f 155 172 179 
f 172 153 179 
f 178 155 179 
f 159 178 179 
f 164 157 180 
f 173 154 180 
f 157 173 180 
f 154 176 180 
o convex_4
v -0.019699 0.091311 0.020518
v -0.038552 0.062850 0.019780
v -0.038179 0.062477 0.016822
v -0.019328 0.080220 0.023844
v -0.019328 0.080961 0.013495
v -0.038179 0.063591 0.027910
v -0.020438 0.091311 0.013495
v -0.019328 0.089461 0.023844
v -0.028940 0.079850 0.017192
v -0.037071 0.062477 0.027540
v -0.037071 0.062477 0.017192
v -0.024875 0.084655 0.022734
v -0.037810 0.063591 0.016083
v -0.037810 0.065068 0.027540
v -0.035223 0.066177 0.027910
v -0.019328 0.092052 0.013495
v -0.038179 0.064330 0.017562
v -0.025615 0.073570 0.024582
v -0.023396 0.085393 0.024582
v -0.019328 0.080220 0.018669
v -0.023027 0.088352 0.016083
v -0.028202 0.080958 0.016083
v -0.020809 0.083546 0.013496
v -0.020067 0.087981 0.024213
v -0.036333 0.066918 0.016083
v -0.037441 0.062850 0.016083
v -0.027831 0.080591 0.022734
v -0.019328 0.080591 0.014604
f 200 191 208 
f 184 185 188 
f 182 183 190 
f 186 182 190 
f 190 183 191 
f 182 186 194 
f 190 184 195 
f 186 190 195 
f 194 186 195 
f 187 181 196 
f 185 187 196 
f 181 188 196 
f 188 185 196 
f 183 182 197 
f 193 183 197 
f 182 194 197 
f 194 189 197 
f 184 190 198 
f 190 191 198 
f 188 181 199 
f 181 192 199 
f 192 194 199 
f 194 195 199 
f 185 184 200 
f 184 198 200 
f 198 191 200 
f 181 187 201 
f 192 181 201 
f 197 189 202 
f 201 187 202 
f 189 201 202 
f 187 185 203 
f 193 187 203 
f 184 188 204 
f 195 184 204 
f 188 199 204 
f 199 195 204 
f 187 193 205 
f 193 197 205 
f 202 187 205 
f 197 202 205 
f 185 191 206 
f 191 183 206 
f 183 193 206 
f 203 185 206 
f 193 203 206 
f 189 194 207 
f 194 192 207 
f 201 189 207 
f 192 201 207 
f 191 185 208 
f 185 200 208 
o convex_5
v 0.005810 0.068761 0.019778
v -0.002321 0.071348 0.007579
v -0.002321 0.072828 0.007579
v -0.004170 0.072087 0.018669
v -0.004540 0.062107 0.010907
v 0.006919 0.062107 0.008688
v -0.001213 0.062107 0.020148
v 0.007659 0.072828 0.010536
v 0.008029 0.062107 0.016820
v 0.005070 0.072828 0.020148
v -0.005280 0.072828 0.013495
v -0.001583 0.062107 0.007579
v 0.005070 0.072828 0.007579
v -0.004540 0.062107 0.016820
v 0.007659 0.072828 0.017190
v 0.004702 0.062107 0.020148
v -0.001583 0.072828 0.020148
v -0.004170 0.072828 0.009057
v 0.005070 0.062107 0.007579
v 0.008029 0.062107 0.010907
v -0.002691 0.062107 0.019778
v 0.008029 0.072828 0.012387
v -0.003431 0.062107 0.008688
v 0.006549 0.062107 0.019407
v -0.004910 0.072828 0.016820
v 0.007289 0.071719 0.009428
f 216 228 234 
f 213 214 215 
f 215 214 217 
f 216 211 218 
f 218 211 219 
f 210 211 220 
f 214 213 220 
f 211 216 221 
f 220 211 221 
f 213 215 222 
f 219 213 222 
f 218 209 223 
f 216 218 223 
f 215 217 224 
f 218 215 224 
f 215 218 225 
f 218 219 225 
f 211 210 226 
f 213 219 226 
f 219 211 226 
f 214 220 227 
f 221 214 227 
f 220 221 227 
f 217 214 228 
f 222 215 229 
f 212 222 229 
f 225 212 229 
f 215 225 229 
f 216 223 230 
f 223 217 230 
f 228 216 230 
f 217 228 230 
f 210 220 231 
f 220 213 231 
f 226 210 231 
f 213 226 231 
f 209 218 232 
f 217 223 232 
f 223 209 232 
f 224 217 232 
f 218 224 232 
f 222 212 233 
f 219 222 233 
f 212 225 233 
f 225 219 233 
f 214 221 234 
f 221 216 234 
f 228 214 234 
o convex_6
v 0.008026 0.099810 0.012386
v -0.010825 0.084661 0.013495
v -0.007496 0.073203 0.013495
v 0.011726 0.093158 0.021624
v 0.007288 0.073573 0.006101
v -0.010825 0.095375 0.005730
v -0.010825 0.095375 0.021996
v 0.006918 0.073203 0.021624
v 0.013574 0.091311 0.007211
v -0.005279 0.073203 0.021256
v -0.004909 0.072828 0.006471
v 0.013574 0.085031 0.016449
v 0.008396 0.097223 0.006101
v -0.005650 0.099074 0.018299
v 0.013574 0.097595 0.016080
v 0.005807 0.097965 0.021256
v 0.009875 0.073203 0.013495
v -0.010825 0.086506 0.021996
v -0.010825 0.086506 0.005730
v -0.009344 0.098334 0.009797
v 0.011726 0.090941 0.005732
v -0.002320 0.099440 0.009427
v 0.013574 0.089463 0.020146
v 0.013574 0.086140 0.009427
v 0.013574 0.096856 0.010168
v 0.003961 0.100185 0.015710
v -0.010825 0.098334 0.014231
v -0.005650 0.099810 0.013126
v -0.004909 0.097593 0.006101
v 0.006548 0.072828 0.020885
v 0.006548 0.072828 0.006472
v -0.006017 0.072828 0.019038
v 0.009137 0.073573 0.017928
v 0.010615 0.095745 0.021624
v 0.008396 0.099074 0.018298
v 0.003961 0.098704 0.007211
v -0.001212 0.098334 0.020885
v -0.006017 0.073203 0.007209
v -0.004909 0.073203 0.006101
v -0.004171 0.073203 0.021625
v 0.003961 0.100185 0.012016
v 0.008026 0.073203 0.007211
v -0.010825 0.096856 0.020517
v 0.011355 0.095006 0.006101
v 0.013574 0.095006 0.019407
v 0.011355 0.098704 0.011276
v -0.006388 0.073203 0.019407
v 0.008396 0.098704 0.008321
v 0.003961 0.099440 0.018669
v 0.013574 0.087985 0.007950
v 0.013574 0.087615 0.019407
v 0.009875 0.099440 0.014600
v 0.011726 0.090202 0.021624
v -0.010825 0.096856 0.007209
v 0.009875 0.087615 0.005732
v 0.007288 0.073573 0.021624
v 0.009875 0.073573 0.012016
v 0.013574 0.084661 0.013124
v -0.000842 0.100185 0.014971
v 0.008396 0.098334 0.020146
v -0.006017 0.097593 0.021256
f 248 277 295 
f 240 236 241 
f 246 243 249 
f 236 237 252 
f 241 236 252 
f 238 241 252 
f 237 236 253 
f 236 240 253 
f 240 247 255 
f 253 240 255 
f 246 249 257 
f 243 246 258 
f 249 243 259 
f 240 241 261 
f 256 254 262 
f 261 248 262 
f 254 261 262 
f 247 240 263 
f 254 256 263 
f 251 264 265 
f 264 245 265 
f 237 245 266 
f 245 264 266 
f 251 246 267 
f 242 264 267 
f 264 251 267 
f 241 238 268 
f 250 241 268 
f 247 263 270 
f 263 256 270 
f 245 237 272 
f 237 253 272 
f 272 253 273 
f 253 239 273 
f 239 265 273 
f 265 245 273 
f 245 272 273 
f 242 252 274 
f 252 244 274 
f 264 242 274 
f 244 266 274 
f 266 264 274 
f 260 235 275 
f 256 262 275 
f 270 256 275 
f 251 265 276 
f 265 239 276 
f 261 241 277 
f 248 261 277 
f 243 255 278 
f 255 247 278 
f 247 259 278 
f 259 243 278 
f 238 257 279 
f 257 249 279 
f 268 238 279 
f 249 268 279 
f 249 259 280 
f 252 237 281 
f 244 252 281 
f 237 266 281 
f 266 244 281 
f 259 247 282 
f 247 270 282 
f 275 235 282 
f 270 275 282 
f 235 280 282 
f 280 259 282 
f 269 260 283 
f 248 271 283 
f 271 250 283 
f 239 255 284 
f 255 243 284 
f 243 258 284 
f 276 239 284 
f 258 276 284 
f 246 257 285 
f 267 246 285 
f 235 260 286 
f 269 249 286 
f 260 269 286 
f 280 235 286 
f 249 280 286 
f 238 252 287 
f 257 238 287 
f 240 261 288 
f 261 254 288 
f 263 240 288 
f 254 263 288 
f 239 253 289 
f 255 239 289 
f 253 255 289 
f 252 242 290 
f 242 267 290 
f 285 257 290 
f 267 285 290 
f 287 252 290 
f 257 287 290 
f 276 258 291 
f 251 276 291 
f 246 251 292 
f 258 246 292 
f 251 291 292 
f 291 258 292 
f 262 248 293 
f 260 275 293 
f 275 262 293 
f 248 283 293 
f 283 260 293 
f 268 249 294 
f 250 268 294 
f 249 269 294 
f 283 250 294 
f 269 283 294 
f 241 250 295 
f 271 248 295 
f 250 271 295 
f 277 241 295 
o convex_7
v 0.020966 0.091311 0.007949
v 0.013946 0.092789 0.020148
v 0.013574 0.092789 0.020148
v 0.013946 0.084658 0.014231
v 0.024295 0.088355 0.018669
v 0.013574 0.097597 0.012015
v 0.024295 0.096856 0.016079
v 0.024295 0.087248 0.009798
v 0.013574 0.088355 0.007949
v 0.024295 0.096118 0.010168
v 0.013574 0.093530 0.007579
v 0.013574 0.087248 0.019037
v 0.013574 0.097226 0.016820
v 0.024295 0.093900 0.019037
v 0.024295 0.086137 0.016079
v 0.013574 0.085768 0.010168
v 0.024295 0.093160 0.008319
v 0.024295 0.086137 0.011647
v 0.024295 0.097226 0.013125
v 0.013946 0.095377 0.019037
v 0.014315 0.089836 0.020148
v 0.014315 0.095007 0.008319
v 0.013574 0.085768 0.017558
v 0.024295 0.090574 0.019407
v 0.024295 0.089836 0.008319
v 0.024295 0.095748 0.017928
v 0.013946 0.097597 0.015710
v 0.013574 0.096488 0.009798
f 317 306 323 
f 302 300 303 
f 298 301 304 
f 302 303 305 
f 304 301 306 
f 296 304 306 
f 298 304 307 
f 301 298 308 
f 300 302 309 
f 303 300 310 
f 304 303 311 
f 307 304 311 
f 305 303 312 
f 296 306 312 
f 310 299 313 
f 303 310 313 
f 299 311 313 
f 311 303 313 
f 305 301 314 
f 302 305 314 
f 298 297 315 
f 308 298 315 
f 297 309 315 
f 297 298 316 
f 298 307 316 
f 307 300 316 
f 305 312 317 
f 312 306 317 
f 300 307 318 
f 299 310 318 
f 310 300 318 
f 311 299 318 
f 307 311 318 
f 309 297 319 
f 300 309 319 
f 297 316 319 
f 316 300 319 
f 304 296 320 
f 303 304 320 
f 296 312 320 
f 312 303 320 
f 302 308 321 
f 309 302 321 
f 308 315 321 
f 315 309 321 
f 301 308 322 
f 308 302 322 
f 314 301 322 
f 302 314 322 
f 301 305 323 
f 306 301 323 
f 305 317 323 
o convex_8
v 0.035015 0.099444 0.014971
v 0.032427 0.084290 0.012017
v 0.033535 0.084290 0.012017
v 0.032056 0.089835 0.021257
v 0.024295 0.095007 0.009058
v 0.038343 0.092790 0.007210
v 0.024295 0.092790 0.019407
v 0.038343 0.092420 0.020515
v 0.024295 0.086509 0.010908
v 0.038343 0.085399 0.016080
v 0.024295 0.086138 0.016080
v 0.036493 0.088356 0.006840
v 0.037234 0.098334 0.010167
v 0.024295 0.097225 0.014971
v 0.031686 0.097225 0.019407
v 0.032056 0.092051 0.006100
v 0.038343 0.097596 0.017190
v 0.036493 0.085769 0.018668
v 0.031686 0.097596 0.008689
v 0.024295 0.088727 0.008689
v 0.038713 0.086509 0.011646
v 0.032056 0.086138 0.008319
v 0.036863 0.095007 0.020885
v 0.024295 0.088356 0.018668
v 0.031686 0.084661 0.016819
v 0.032056 0.099073 0.011278
v 0.036863 0.084661 0.010908
v 0.036863 0.095007 0.006840
v 0.031686 0.095007 0.020885
v 0.031322 0.086509 0.019407
v 0.036863 0.088727 0.020885
v 0.024295 0.096856 0.011278
v 0.024295 0.095378 0.018299
v 0.038343 0.097965 0.011278
v 0.031686 0.099444 0.014232
v 0.031322 0.095007 0.006840
v 0.031686 0.088356 0.006840
v 0.024665 0.091683 0.007948
v 0.036863 0.084290 0.014971
v 0.036863 0.098704 0.017190
v 0.031686 0.098704 0.017190
v 0.038343 0.087248 0.008689
v 0.036863 0.091683 0.006100
v 0.036863 0.099444 0.013494
v 0.024295 0.085769 0.013494
v 0.038343 0.086878 0.018668
v 0.038713 0.087986 0.016819
v 0.036863 0.093530 0.021257
v 0.032056 0.084661 0.010539
v 0.030951 0.092420 0.021257
v 0.036863 0.096856 0.007948
v 0.031322 0.084290 0.014601
v 0.024295 0.090204 0.019407
f 373 330 376 
f 330 328 332 
f 330 332 334 
f 328 330 337 
f 332 328 343 
f 332 343 345 
f 331 340 346 
f 330 334 347 
f 336 342 349 
f 344 333 350 
f 345 335 350 
f 346 338 352 
f 327 347 353 
f 347 334 353 
f 348 341 353 
f 334 348 353 
f 327 353 354 
f 353 341 354 
f 328 337 355 
f 342 328 355 
f 349 342 355 
f 337 330 356 
f 330 352 356 
f 352 338 356 
f 344 329 357 
f 355 337 358 
f 349 355 358 
f 328 342 359 
f 351 339 359 
f 335 345 360 
f 345 343 360 
f 343 328 361 
f 328 359 361 
f 359 339 361 
f 339 360 361 
f 360 343 361 
f 325 326 362 
f 333 341 362 
f 341 348 362 
f 326 350 362 
f 350 333 362 
f 338 346 363 
f 346 340 363 
f 337 356 364 
f 356 338 364 
f 324 358 364 
f 358 337 364 
f 338 363 364 
f 363 324 364 
f 329 344 365 
f 344 350 365 
f 350 335 365 
f 351 329 366 
f 339 351 366 
f 335 360 366 
f 360 339 366 
f 329 365 366 
f 365 335 366 
f 336 349 367 
f 357 336 367 
f 340 357 367 
f 358 324 367 
f 349 358 367 
f 363 340 367 
f 324 363 367 
f 334 332 368 
f 341 333 369 
f 331 354 369 
f 354 341 369 
f 340 331 370 
f 333 344 370 
f 357 340 370 
f 344 357 370 
f 369 333 370 
f 331 369 370 
f 331 346 371 
f 346 352 371 
f 354 331 371 
f 327 354 371 
f 326 325 372 
f 332 345 372 
f 350 326 372 
f 345 350 372 
f 325 368 372 
f 368 332 372 
f 352 330 373 
f 327 371 373 
f 371 352 373 
f 342 336 374 
f 329 351 374 
f 336 357 374 
f 357 329 374 
f 359 342 374 
f 351 359 374 
f 348 334 375 
f 325 362 375 
f 362 348 375 
f 368 325 375 
f 334 368 375 
f 347 327 376 
f 330 347 376 
f 327 373 376 
