# https://github.com/mikedh/trimesh
v 0.00242210 0.07008220 0.00786843
v -0.00558591 0.08024647 0.01614970
v 0.00742611 0.08547561 0.01129635
v 0.00742611 0.08547561 0.01129635
v 0.00148845 0.07583530 0.01541553
v 0.00148845 0.07583530 0.01541553
v 0.00148845 0.07583530 0.01541553
v 0.03853035 0.07404432 0.00859392
v 0.00225211 0.07404331 0.01417151
v -0.00755704 0.08961984 0.00647677
v 0.00918496 0.08661944 0.01129421
v 0.00918496 0.08661944 0.01129421
v -0.00021640 0.07641463 0.01614329
v -0.00672010 0.09416318 0.00647569
v 0.01094382 0.08776325 0.01129207
v 0.01094382 0.08776325 0.01129207
v -0.02246607 0.09457138 0.01240797
v 0.01046444 0.08767842 0.00885976
v -0.00497354 0.03499107 0.01305593
v -0.01592735 0.08445365 0.00998424
v -0.01592735 0.08445365 0.00998424
v -0.02641350 0.08404147 0.00873553
v -0.02246832 0.09457134 0.01054413
v -0.01561292 0.09086852 0.01616162
v -0.00018305 0.06962300 0.00724715
v -0.00384856 0.07666560 0.01614766
v 0.02281480 0.08878714 0.00761713
v 0.02281480 0.08878714 0.00761713
v 0.02864150 0.08711621 0.01039297
v -0.02715162 0.09285423 0.01440776
v 0.03876953 0.07370505 0.01446711
v 0.03876953 0.07370505 0.01446711
v 0.00478103 0.07627751 0.01245941
v 0.02676611 0.08544166 0.00902342
v -0.02955036 0.09280231 0.00851229
v -0.02955036 0.09280231 0.00851229
v 0.02677155 0.08544174 0.01352264
v -0.02780407 0.08543485 0.01489610
v 0.01059309 0.09462642 0.00645480
v -0.01862852 0.08663774 0.01514638
v -0.01862852 0.08663774 0.01514638
v 0.03798018 0.07514120 0.01536448
v 0.01066704 0.08783878 0.00754158
v -0.01538211 0.09408903 0.00648614
v 0.00057529 0.06932164 0.01510356
v 0.00057529 0.06932164 0.01510356
v -0.02940942 0.08143760 0.01134084
v -0.02940942 0.08143760 0.01134084
v -0.02940942 0.08143760 0.01134084
v -0.02940942 0.08143760 0.01134084
v -0.00718863 0.09989655 0.01131373
v -0.01223032 0.08646618 0.01615761
v -0.00932346 0.07959903 0.00764079
v -0.01865239 0.09495285 0.00940806
v -0.01714725 0.09365986 0.01548772
v -0.01714725 0.09365986 0.01548772
v -0.03090493 0.08338774 0.01589096
v 0.00062008 0.06962855 0.00737034
v 0.00131467 0.09440729 0.01614116
v -0.02976278 0.08566764 0.00601625
v -0.02976278 0.08566764 0.00601625
v 0.02195872 0.08743081 0.00854197
v -0.02241419 0.08450717 0.00976626
v -0.02720231 0.09409811 0.01133797
v 0.00702316 0.08538532 0.01341143
v 0.03610395 0.07766138 0.01333442
v -0.03112405 0.08528400 0.01680352
v -0.03802215 0.08738252 0.01135112
v 0.00998654 0.08759362 0.00766040
v 0.01215612 0.09752580 0.01612803
v 0.01220762 0.09776989 0.01579552
v 0.01220762 0.09776989 0.01579552
v -0.02241183 0.08460396 0.01413689
v -0.01582229 0.09364271 0.00648666
v 0.00178971 0.08140942 0.00646563
v 0.00578974 0.08209098 0.00812028
v 0.03767900 0.07485211 0.01350801
v 0.01665940 0.09644633 0.00644745
v 0.00382783 0.00011211 0.01310397
v 0.00557287 0.08971062 0.01613609
v -0.00456175 0.07596023 0.00715810
v -0.00401244 0.06959660 0.01432171
v 0.01220621 0.09789071 0.01532004
v -0.02666991 0.08573406 0.01515608
v -0.02666991 0.08573406 0.01515608
v 0.02676272 0.08628077 0.01102529
v 0.03174454 0.08268665 0.01538207
v 0.03174454 0.08268665 0.01538207
v 0.00453775 0.07616471 0.01320282
v 0.00451221 0.07599172 0.00940048
v 0.00451221 0.07599172 0.00940048
v -0.01859994 0.08495105 0.01284846
v -0.03802104 0.09443785 0.01363238
v -0.03802104 0.09443785 0.01363238
v 0.02676356 0.08628079 0.01171627
v -0.00448973 0.08397716 0.01614832
v -0.00754606 0.08261560 0.00701948
v -0.00754606 0.08261560 0.00701948
v 0.02852687 0.08697003 0.01188521
v 0.03160121 0.08250681 0.01239009
v -0.00258072 0.06929976 0.00750998
v -0.00258072 0.06929976 0.00750998
v 0.03037700 0.08548596 0.00820536
v 0.00432784 0.07407238 0.01130028
v 0.00432784 0.07407238 0.01130028
v 0.00263472 0.07571996 0.01444903
v 0.03037867 0.08548599 0.00959593
v 0.01729491 0.09008835 0.01612195
v 0.03173461 0.08268651 0.00715208
v 0.03173461 0.08268651 0.00715208
v 0.02487085 0.09144314 0.01063357
v -0.01864880 0.09495291 0.01239248
v 0.00119265 0.08693893 0.01614143
v 0.00351295 0.08713484 0.00646346
v 0.03761366 0.07478868 0.01373210
v -0.02250606 0.09342040 0.01454377
v 0.00454666 0.07627585 0.00939502
v -0.02962690 0.08384992 0.00687200
v -0.02962690 0.08384992 0.00687200
v 0.02194891 0.08925253 0.01084027
v 0.00762099 0.08879696 0.01557111
v 0.00762099 0.08879696 0.01557111
v 0.00224520 0.07404320 0.00843404
v -0.03875361 0.09369231 0.01244716
v 0.03038271 0.08548605 0.01294143
v -0.01332466 0.09716879 0.01410055
v -0.02720166 0.09409813 0.01188341
v -0.00559758 0.08024631 0.00647456
v 0.03160300 0.08250683 0.01388178
v -0.01333136 0.09716869 0.00854181
v -0.03795702 0.09389956 0.01488243
v -0.03795702 0.09389956 0.01488243
v 0.01060474 0.09462657 0.01612994
v -0.02717821 0.09410062 0.01022535
v 0.00736420 0.08890253 0.01607489
v -0.01557671 0.08761748 0.00681892
v -0.01557671 0.08761748 0.00681892
v -0.01557671 0.08761748 0.00681892
v -0.01557671 0.08761748 0.00681892
v 0.00315023 0.08163055 0.01551449
v 0.00315023 0.08163055 0.01551449
v -0.00632022 0.07574698 0.00919231
v 0.01368437 0.09187744 0.01612628
v 0.02493460 0.09212394 0.01453467
v 0.02213115 0.09339966 0.01178088
v 0.03569247 0.07729878 0.01298098
v 0.02333930 0.08961730 0.00643952
v 0.00701807 0.08538523 0.00918224
v -0.03163532 0.08968936 0.01708948
v 0.03843548 0.07395257 0.00860697
v -0.01581064 0.09364288 0.01616183
v -0.02950384 0.08231276 0.01435083
v -0.02950384 0.08231276 0.01435083
v 0.00598603 0.08720287 0.00703376
v 0.00598603 0.08720287 0.00703376
v -0.00411786 0.07401406 0.01452372
v -0.01165444 0.09590011 0.00681406
v -0.01165444 0.09590011 0.00681406
v 0.02856856 0.08770829 0.00695892
v 0.00026441 0.07564356 0.01543596
v 0.02471883 0.09120246 0.01083690
v 0.03854978 0.07406450 0.00739172
v -0.01653243 0.08466519 0.01336214
v -0.01653243 0.08466519 0.01336214
v 0.03799321 0.07515545 0.01394296
v 0.00972759 0.09174457 0.01613105
v -0.02953037 0.09386519 0.01367787
v -0.02953037 0.09386519 0.01367787
v -0.01863601 0.08654816 0.00756380
v -0.00599242 0.07400107 0.00957371
v -0.03802655 0.09443780 0.00906964
v -0.03802655 0.09443780 0.00906964
v 0.01186869 0.08820419 0.00885806
v 0.01186869 0.08820419 0.00885806
v -0.00263925 0.06960602 0.00737427
v -0.01001757 0.07940857 0.01131749
v -0.01001757 0.07940857 0.01131749
v 0.00830702 0.08644436 0.01460982
v -0.00968640 0.09743989 0.01582191
v -0.00968640 0.09743989 0.01582191
v -0.00003440 0.07006530 0.01593420
v -0.01868807 0.09398472 0.00786033
v 0.03845654 0.07397273 0.00877365
v -0.00030403 0.07564108 0.01546851
v 0.02864362 0.08711624 0.01214852
v -0.00295760 0.07596264 0.01560473
v 0.00084523 0.07007129 0.00681752
v -0.01533909 0.08774834 0.00648617
v 0.02868716 0.08743693 0.00975689
v -0.01865667 0.08937969 0.00750912
v -0.03757495 0.08348738 0.00707286
v 0.01214445 0.09752564 0.00645288
v -0.02696362 0.09033830 0.00751911
v -0.03714999 0.08685346 0.00554795
v -0.03714999 0.08685346 0.00554795
v -0.01868404 0.09409425 0.00803544
v -0.03741433 0.08913017 0.00560425
v -0.03741433 0.08913017 0.00560425
v -0.00026524 0.07606975 0.00699081
v -0.00026524 0.07606975 0.00699081
v 0.00661150 0.08529488 0.00830107
v 0.00379088 0.03505161 0.01130155
v 0.00379088 0.03505161 0.01130155
v 0.03215992 0.08322117 0.01537876
v -0.00493724 0.06959020 0.01294123
v 0.02852540 0.08697001 0.01065656
v -0.03048818 0.09551829 0.01045062
v -0.03048818 0.09551829 0.01045062
v -0.00283926 0.07562117 0.00721659
v 0.00292758 0.06964452 0.00967232
v 0.01830595 0.09091367 0.00644556
v 0.03846461 0.07398214 0.00739182
v 0.03846461 0.07398214 0.00739182
v 0.03160084 0.08250680 0.01209299
v 0.01964430 0.09131259 0.01128152
v 0.01964430 0.09131259 0.01128152
v 0.00034755 0.07598508 0.01561815
v -0.03040459 0.09446257 0.01482473
v -0.03040459 0.09446257 0.01482473
v 0.00036932 0.08118728 0.01614251
v -0.01332724 0.09738627 0.01320687
v -0.03667007 0.08282869 0.01589793
v -0.03667007 0.08282869 0.01589793
v 0.03758497 0.07476733 0.00817445
v -0.00296795 0.07596249 0.00701333
v -0.00296795 0.07596249 0.00701333
v -0.03869730 0.09322027 0.01367460
v 0.02216013 0.09414860 0.01485340
v 0.01219675 0.09776973 0.00678528
v 0.01219675 0.09776973 0.00678528
v -0.00399176 0.03499781 0.00808879
v -0.00497774 0.03499101 0.00956831
v -0.02715122 0.09299558 0.01425293
v 0.02866452 0.08781673 0.01501351
v 0.02866452 0.08781673 0.01501351
v 0.00735268 0.08890237 0.00651786
v 0.01186725 0.08820416 0.00765812
v 0.01186725 0.08820416 0.00765812
v 0.03609894 0.07766131 0.00918937
v 0.03855573 0.07406903 0.00844955
v -0.03817704 0.08877062 0.01657875
v 0.00764114 0.09860513 0.01613347
v 0.01728324 0.09008820 0.00644681
v 0.01607871 0.08834696 0.00885299
v 0.00190110 0.06933074 0.00839588
v 0.00190110 0.06933074 0.00839588
v -0.02640723 0.08404156 0.01393880
v 0.00016988 0.07404368 0.01550361
v 0.01713880 0.08985766 0.01561868
v 0.01713880 0.08985766 0.01561868
v 0.01608457 0.08834706 0.01371876
v 0.00661874 0.08529496 0.01429359
v 0.00062958 0.06962868 0.01523927
v 0.03791249 0.07507762 0.01374911
v 0.00280906 0.00010502 0.01463284
v 0.03582079 0.07740911 0.01570345
v 0.03582079 0.07740911 0.01570345
v 0.00494430 0.08507946 0.01555365
v 0.00494430 0.08507946 0.01555365
v 0.00453316 0.07616464 0.00939717
v -0.03056190 0.08084983 0.01134224
v -0.03056190 0.08084983 0.01134224
v 0.00279399 0.06933691 0.00972873
v 0.00279399 0.06933691 0.00972873
v -0.01409261 0.08330819 0.01132234
v -0.01409261 0.08330819 0.01132234
v -0.01859839 0.08495107 0.01411566
v -0.00282940 0.07562130 0.01540116
v -0.00534564 0.08676763 0.00647415
v -0.01868255 0.09312489 0.00750909
v -0.01868255 0.09312489 0.00750909
v 0.03568834 0.07729872 0.00954384
v -0.03007638 0.08989062 0.00574405
v -0.03007638 0.08989062 0.00574405
v 0.02970965 0.08463169 0.01543228
v 0.03617065 0.07772656 0.00726501
v 0.03617065 0.07772656 0.00726501
v -0.01332951 0.09738623 0.01132118
v -0.00380715 0.09885361 0.01614727
v 0.00147904 0.07637409 0.00709802
v 0.00147904 0.07637409 0.00709802
v 0.00147904 0.07637409 0.00709802
v 0.00040305 0.00008854 0.00681894
v 0.01187601 0.08820428 0.01492378
v 0.01187601 0.08820428 0.01492378
v 0.00649185 0.08220616 0.01129753
v 0.00649185 0.08220616 0.01129753
v -0.02717553 0.09410065 0.01245052
v -0.02247213 0.08634849 0.00751376
v -0.02247213 0.08634849 0.00751376
v -0.02715209 0.09410329 0.00963634
v 0.01607727 0.08834695 0.00765304
v -0.03875625 0.09369228 0.01025664
v -0.02249028 0.08897725 0.00751375
v -0.01191621 0.08261882 0.01482700
v 0.01916626 0.09506497 0.01128204
v 0.01916626 0.09506497 0.01128204
v 0.01916626 0.09506497 0.01128204
v 0.01916626 0.09506497 0.01128204
v -0.02904800 0.08543920 0.00752170
v -0.02904800 0.08543920 0.00752170
v -0.02904800 0.08543920 0.00752170
v -0.01139287 0.09579473 0.01615645
v -0.01585135 0.09073763 0.01582946
v -0.01585135 0.09073763 0.01582946
v 0.00382348 0.00011204 0.00950017
v -0.03796803 0.08686174 0.00607659
v -0.00296675 0.07605035 0.01560296
v -0.00296675 0.07605035 0.01560296
v 0.01474950 0.09428583 0.01612496
v -0.01860512 0.08495098 0.00853983
v -0.01562457 0.09086835 0.00648647
v 0.03856251 0.07406913 0.01406843
v 0.00579571 0.08739159 0.00650688
v -0.00511429 0.06928229 0.01131174
v -0.00511429 0.06928229 0.01131174
v -0.03048603 0.09551831 0.01223318
v -0.03048603 0.09551831 0.01223318
v 0.00958708 0.08973542 0.01562779
v 0.00958708 0.08973542 0.01562779
v 0.03842797 0.07394583 0.00815025
v -0.02956327 0.09386231 0.00973117
v -0.02956327 0.09386231 0.00973117
v 0.02942561 0.08427359 0.01475151
v 0.02942561 0.08427359 0.01475151
v 0.01667107 0.09644648 0.01612261
v 0.00455125 0.07627591 0.01320491
v -0.02633821 0.08404993 0.01133708
v -0.00795877 0.09903654 0.01483818
v -0.00795877 0.09903654 0.01483818
v -0.02837884 0.08390197 0.01372122
v -0.02250524 0.09247145 0.01515096
v -0.02250524 0.09247145 0.01515096
v -0.00480322 0.06928442 0.00973789
v -0.00480322 0.06928442 0.00973789
v -0.02715254 0.09402314 0.00954856
v 0.00042003 0.07641880 0.01614253
v -0.01244545 0.08628675 0.00699709
v -0.01244545 0.08628675 0.00699709
v -0.00969727 0.09743975 0.00681167
v -0.00969727 0.09743975 0.00681167
v -0.00455174 0.07596038 0.01546380
v -0.00455174 0.07596038 0.01546380
v 0.00035765 0.08118713 0.00646736
v -0.03809017 0.09500088 0.01053385
v -0.03809017 0.09500088 0.01053385
v 0.00109535 0.09927684 0.00679863
v 0.00109535 0.09927684 0.00679863
v 0.03218243 0.08325923 0.00945498
v -0.00297710 0.07605021 0.00701513
v -0.00297710 0.07605021 0.00701513
v -0.00297710 0.07605021 0.00701513
v -0.00719107 0.09989653 0.00929892
v -0.01860683 0.08503956 0.00848568
v -0.01866126 0.09137498 0.01514633
v -0.01862693 0.08654827 0.01509172
v -0.02838458 0.08390191 0.00895788
v -0.01734871 0.09000092 0.00716427
v -0.03865176 0.09276888 0.00798097
v -0.00540850 0.09190353 0.01614930
v 0.00115968 0.09901059 0.01614128
v -0.00031406 0.07564094 0.00714316
v 0.00391750 0.07406954 0.00956176
v -0.02875903 0.08376826 0.00908976
v -0.02875903 0.08376826 0.00908976
v 0.00274798 0.08156588 0.00646447
v -0.00631509 0.07574705 0.01343385
v -0.01164357 0.09590026 0.01582429
v -0.01164357 0.09590026 0.01582429
v 0.02869080 0.08743697 0.01278447
v 0.01311104 0.09071169 0.01612699
v 0.00757657 0.09899223 0.00726630
v -0.03741724 0.08214295 0.00837139
v -0.00027192 0.07580690 0.00695354
v -0.00027192 0.07580690 0.00695354
v -0.02958801 0.09385966 0.01134084
v -0.02958801 0.09385966 0.01134084
v -0.01592411 0.08445369 0.01266482
v -0.01592411 0.08445369 0.01266482
v 0.03008289 0.08511569 0.00710625
v -0.00246578 0.09432358 0.01614573
v -0.02720296 0.09409809 0.01079252
v -0.02634803 0.08404894 0.01006992
v -0.02835348 0.09295902 0.00849540
v -0.00951057 0.09726095 0.01615417
v -0.00185760 0.09199354 0.01614501
v 0.03855910 0.07406462 0.01512628
v 0.03215001 0.08322104 0.00715439
v 0.01712835 0.08985752 0.00695047
v 0.01712835 0.08985752 0.00695047
v -0.00952956 0.08440266 0.00647923
v 0.02676249 0.08628078 0.01082977
v -0.03776044 0.08507713 0.00636264
v -0.03138484 0.08741251 0.00554097
v 0.02676333 0.08628079 0.01152075
v -0.00301957 0.07639627 0.01614667
v 0.02819604 0.08724047 0.00695938
v 0.02868966 0.08784954 0.01419956
v -0.00591654 0.08012665 0.01557962
v -0.00591654 0.08012665 0.01557962
v -0.02246511 0.09457139 0.01320538
v 0.00310885 0.06933909 0.01130181
v 0.00310885 0.06933909 0.01130181
v 0.00310885 0.06933909 0.01130181
v 0.00310885 0.06933909 0.01130181
v 0.00033973 0.07581074 0.01563327
v 0.00033973 0.07581074 0.01563327
v -0.01687244 0.09458798 0.00770258
v 0.00279777 0.06933695 0.01287567
v 0.00279777 0.06933695 0.01287567
v 0.03797029 0.07514108 0.00715488
v -0.00976794 0.08424658 0.00700801
v -0.00976794 0.08424658 0.00700801
v 0.00450429 0.08498372 0.00646899
v 0.03569395 0.07729882 0.01420935
v -0.03810599 0.09506280 0.01135109
v -0.03810599 0.09506280 0.01135109
v -0.02642746 0.08413037 0.00867163
v -0.01867610 0.09409437 0.01461992
v -0.01367642 0.09191204 0.01615927
v -0.03041298 0.09446246 0.00785892
v -0.03041298 0.09446246 0.00785892
v 0.03568794 0.07729872 0.00921538
v -0.00753571 0.08261575 0.01560939
v -0.00753571 0.08261575 0.01560939
v 0.02969962 0.08463154 0.00710672
v -0.00494118 0.06959015 0.00968181
v -0.02834472 0.09391004 0.00926034
v 0.01473783 0.09428567 0.00644981
v -0.00487628 0.00005225 0.00951082
v -0.03072782 0.08178397 0.00831605
v -0.01863773 0.08663762 0.00750913
v -0.01863773 0.08663762 0.00750913
v 0.00758769 0.09887153 0.01580107
v 0.00758769 0.09887153 0.01580107
v -0.02954354 0.09280238 0.01416934
v -0.02954354 0.09280238 0.01416934
v -0.01369332 0.08386970 0.01427892
v -0.02868065 0.08377711 0.01133991
v -0.02868065 0.08377711 0.01133991
v -0.02868065 0.08377711 0.01133991
v 0.03798674 0.07515535 0.00857637
v 0.00758628 0.09899237 0.01532559
v -0.03870291 0.09322020 0.00902908
v -0.02974995 0.08566783 0.01666611
v -0.02974995 0.08566783 0.01666611
v -0.03727815 0.08143941 0.01135031
v -0.03727815 0.08143941 0.01135031
v 0.00874126 0.08653183 0.00902101
v -0.03795530 0.08686193 0.01662550
v -0.01586221 0.09073747 0.00681921
v -0.01586221 0.09073747 0.00681921
v 0.02752053 0.08639215 0.00696021
v 0.00040836 0.07641865 0.00646738
v 0.02493605 0.09154287 0.01240718
v 0.00422459 0.07581703 0.01310382
v -0.02868792 0.08377610 0.01251166
v -0.02868792 0.08377610 0.01251166
v 0.03213141 0.08319316 0.00971589
v 0.02046696 0.09241860 0.00644294
v -0.00754537 0.08961999 0.01615191
v -0.02934581 0.09018578 0.00752198
v -0.02934581 0.09018578 0.00752198
v 0.02488775 0.09206342 0.00738931
v 0.02488775 0.09206342 0.00738931
v -0.01860176 0.08495101 0.01132775
v -0.02247283 0.09448806 0.00936229
v 0.00616165 0.09445518 0.00646014
v 0.00579740 0.08209107 0.01447648
v -0.00670844 0.09416334 0.01615084
v -0.02666503 0.08564417 0.00758337
v 0.00938210 0.08993475 0.00645634
v -0.00401970 0.06959650 0.00829908
v 0.00314007 0.08163041 0.00708868
v 0.00314007 0.08163041 0.00708868
v -0.01867335 0.09312504 0.01514632
v -0.01867335 0.09312504 0.01514632
v -0.00542017 0.09190338 0.00647416
v -0.01266117 0.08221752 0.01132063
v -0.01266117 0.08221752 0.01132063
v 0.00246014 0.03504243 0.01452530
v -0.02917933 0.08818572 0.01515906
v -0.02917933 0.08818572 0.01515906
v -0.00951790 0.08440282 0.01615437
v -0.03852961 0.09170740 0.00705451
v -0.03741007 0.08214304 0.01432954
v -0.03780865 0.09263348 0.01598716
v -0.03780865 0.09263348 0.01598716
v 0.03038439 0.08548607 0.01433199
v -0.00263153 0.07402433 0.01536284
v 0.00999531 0.08759374 0.01492605
v 0.00109510 0.09939769 0.00727411
v -0.02251443 0.09247131 0.00751373
v -0.02251443 0.09247131 0.00751373
v -0.00479943 0.06928448 0.01288483
v -0.00479943 0.06928448 0.01288483
v 0.03218679 0.08325928 0.01307809
v -0.03204349 0.09319251 0.01598022
v -0.01584047 0.08432862 0.01132442
v -0.01584047 0.08432862 0.01132442
v -0.01584047 0.08432862 0.01132442
v -0.00385756 0.00005925 0.00798212
v -0.02248109 0.08897738 0.01515099
v -0.00036748 0.07403992 0.00698764
v 0.02205930 0.09299447 0.01087406
v -0.03690237 0.08472478 0.00588912
v -0.03690237 0.08472478 0.00588912
v 0.00451679 0.07599176 0.01319953
v 0.00451679 0.07599176 0.01319953
v 0.00033715 0.07598494 0.00699193
v -0.00022806 0.07641447 0.00646815
v -0.03006288 0.08989078 0.01693893
v -0.03006288 0.08989078 0.01693893
v -0.02680433 0.08841522 0.01515619
v 0.00243038 0.07008230 0.01473683
v -0.00020602 0.06931623 0.01522438
v -0.00020602 0.06931623 0.01522438
v 0.03876179 0.07370494 0.00805041
v 0.03876179 0.07370494 0.00805041
v 0.02868259 0.08784944 0.00834181
v 0.00499560 0.07616751 0.01129943
v 0.00499560 0.07616751 0.01129943
v 0.00148920 0.07637424 0.01550931
v 0.00148920 0.07637424 0.01550931
v 0.00148920 0.07637424 0.01550931
v -0.03796553 0.09389945 0.00781944
v -0.03796553 0.09389945 0.00781944
v -0.00386022 0.07666544 0.00647253
v -0.02781265 0.08543471 0.00778157
v -0.01537045 0.09408918 0.01616129
v -0.00391354 0.06929056 0.00840289
v -0.00391354 0.06929056 0.00840289
v -0.00796046 0.09909877 0.01379599
v 0.00015975 0.07404355 0.00710697
v 0.02194805 0.08925253 0.01012263
v -0.02991455 0.08770818 0.00569038
v -0.02991455 0.08770818 0.00569038
v -0.00988846 0.09364178 0.00647951
v 0.00580727 0.08739175 0.01608968
v -0.00232090 0.00006989 0.01565936
v 0.00384870 0.07009207 0.01130091
v 0.00384870 0.07009207 0.01130091
v -0.00663745 0.07608446 0.00901653
v -0.01864982 0.09489082 0.01334652
v 0.00130300 0.09440714 0.00646601
v 0.03159669 0.08250674 0.00865272
v 0.00347677 0.07008950 0.00944278
v 0.03218870 0.08327018 0.00756762
v 0.03218870 0.08327018 0.00756762
v 0.00056613 0.06932150 0.00750619
v 0.00056613 0.06932150 0.00750619
v 0.01608602 0.08834707 0.01491870
v 0.03802420 0.07519286 0.00745791
v 0.03802420 0.07519286 0.00745791
v -0.00598823 0.07400113 0.01305172
v 0.00280102 0.00010491 0.00797377
v -0.03137086 0.08741271 0.01714523
v 0.00617331 0.09445534 0.01613529
v 0.02216085 0.09356752 0.01213012
v -0.02246913 0.08625083 0.00757053
v -0.03840894 0.09066070 0.00631910
v -0.00709494 0.07608211 0.01131401
v -0.00709494 0.07608211 0.01131401
v -0.00257157 0.06929989 0.01510737
v -0.00257157 0.06929989 0.01510737
v 0.03569286 0.07729878 0.01330944
v 0.02196533 0.08743089 0.01401562
v -0.00592684 0.08012650 0.00704542
v -0.00592684 0.08012650 0.00704542
v 0.03844189 0.07395267 0.01391133
v 0.00129322 0.07669849 0.00646632
v 0.02493332 0.09154283 0.01014311
v 0.03581009 0.07740896 0.00682104
v 0.03581009 0.07740896 0.00682104
v 0.00127229 0.00009423 0.00695476
v 0.00293150 0.06964457 0.01293174
v 0.00262712 0.07571986 0.00815556
v -0.02948377 0.09194028 0.00752212
v -0.02948377 0.09194028 0.00752212
v -0.02948377 0.09194028 0.00752212
v -0.00450140 0.08397700 0.00647317
v 0.00190811 0.06933083 0.01421065
v 0.00190811 0.06933083 0.01421065
v 0.03219761 0.08327031 0.01496543
v 0.03219761 0.08327031 0.01496543
v -0.00661445 0.07591482 0.00905004
v -0.00661445 0.07591482 0.00905004
v 0.02216154 0.09402776 0.01532888
v 0.02216154 0.09402776 0.01532888
v -0.02875360 0.08376833 0.01359024
v -0.02875360 0.08376833 0.01359024
v -0.01865096 0.09495288 0.01060036
v -0.03649297 0.08122492 0.00832300
v -0.03649297 0.08122492 0.00832300
v 0.02492674 0.09212386 0.00801560
v -0.02251130 0.09327357 0.01471454
v 0.00757682 0.09887137 0.00679083
v 0.00757682 0.09887137 0.00679083
v -0.01562115 0.09419471 0.01582913
v -0.01562115 0.09419471 0.01582913
v -0.01562115 0.09419471 0.01582913
v 0.00758143 0.09899229 0.01129594
v 0.03846252 0.07397281 0.01374460
v -0.01243503 0.08628689 0.01564347
v -0.01243503 0.08628689 0.01564347
v -0.01645641 0.09549268 0.00845751
v 0.00138294 0.08968168 0.01614115
v 0.00599632 0.08720300 0.01556235
v 0.00599632 0.08720300 0.01556235
v -0.02251381 0.09342032 0.00812083
v -0.00035708 0.07404005 0.01562421
v -0.00770107 0.10000000 0.01332917
v 0.01219649 0.09789058 0.00726076
v -0.00404618 0.07633816 0.00712280
v -0.00404618 0.07633816 0.00712280
v 0.00025446 0.07564343 0.00717434
v 0.01681642 0.09678893 0.00725519
v 0.01681642 0.09678893 0.00725519
v -0.01606133 0.09374840 0.01582965
v -0.01606133 0.09374840 0.01582965
v 0.02200507 0.09380602 0.01566152
v 0.03857583 0.07408103 0.01490070
v 0.03857583 0.07408103 0.01490070
v 0.00325370 0.06964679 0.01130164
v 0.00325370 0.06964679 0.01130164
v 0.03760770 0.07478859 0.00878816
v -0.02709526 0.09202530 0.00751924
v -0.02709526 0.09202530 0.00751924
v 0.02857896 0.08770843 0.01558271
v 0.03616746 0.07771711 0.01361873
v -0.02708605 0.09202543 0.01515647
v -0.02708605 0.09202543 0.01515647
v -0.00987681 0.09364193 0.01615467
v -0.00711145 0.07619534 0.01131403
v -0.00711145 0.07619534 0.01131403
v -0.03234084 0.09562186 0.01134415
v -0.00796346 0.09909872 0.01131469
v 0.02335096 0.08961747 0.01611465
v 0.00275966 0.08156604 0.01613962
v 0.03618029 0.07772669 0.01525862
v 0.03618029 0.07772669 0.01525862
v 0.01367271 0.09187729 0.00645114
v 0.00148004 0.07599989 0.00713352
v 0.00148004 0.07599989 0.00713352
v 0.00012604 0.03502625 0.00696319
v -0.02246737 0.09457136 0.01133225
v -0.03044984 0.09497852 0.00905258
v -0.03044984 0.09497852 0.00905258
v 0.00149009 0.07600004 0.01547381
v 0.00149009 0.07600004 0.01547381
v -0.00026751 0.07598010 0.00697810
v 0.00501031 0.07627908 0.01129941
v 0.00501031 0.07627908 0.01129941
v -0.00412561 0.07401395 0.00809721
v 0.03790649 0.07507755 0.00877041
v -0.02833971 0.09391011 0.01341832
v -0.00250450 0.03500815 0.01551907
v 0.00013651 0.03502639 0.01564873
v -0.00294970 0.07578770 0.00700975
v -0.00294970 0.07578770 0.00700975
v -0.00294970 0.07578770 0.00700975
v -0.01084215 0.08147097 0.01519497
v -0.00287183 0.07004561 0.00682200
v -0.01517126 0.09494242 0.00733718
v -0.03022348 0.09205212 0.01671694
v -0.03022348 0.09205212 0.01671694
v 0.00085606 0.07007143 0.01579153
v -0.03191075 0.09194389 0.00583023
v -0.01532742 0.08774851 0.01616132
v -0.02961614 0.08385007 0.01581011
v -0.02961614 0.08385007 0.01581011
v 0.01682755 0.09666823 0.01578996
v 0.01682755 0.09666823 0.01578996
v 0.01682755 0.09666823 0.01578996
v -0.00454417 0.07579551 0.00721498
v -0.00454417 0.07579551 0.00721498
v -0.00770349 0.09999997 0.01131435
v 0.00465665 0.07582030 0.01129985
v 0.00465665 0.07582030 0.01129985
v 0.00971592 0.09174440 0.00645591
v -0.03225588 0.09499689 0.01362542
v 0.00261728 0.08440296 0.01613974
v 0.02487240 0.09144317 0.01191686
v -0.00523247 0.00004981 0.01131299
v -0.00025484 0.07606989 0.01562072
v -0.00025484 0.07606989 0.01562072
v 0.01831761 0.09091383 0.01612070
v -0.02246641 0.09457137 0.01212036
v 0.01316916 0.09043973 0.01562345
v 0.01316916 0.09043973 0.01562345
v 0.01316916 0.09043973 0.01562345
v -0.02958683 0.09385968 0.01231630
v -0.02958683 0.09385968 0.01231630
v -0.03808819 0.09500091 0.01216829
v -0.03808819 0.09500091 0.01216829
v 0.02705313 0.08579355 0.01472275
v 0.02705313 0.08579355 0.01472275
v -0.02933661 0.09018591 0.01515922
v -0.02933661 0.09018591 0.01515922
v 0.00098304 0.03503224 0.01551487
v -0.02715824 0.09299549 0.00842290
v 0.00422024 0.07581697 0.00949692
v 0.02215881 0.09356749 0.01042679
v 0.01682614 0.09678907 0.01531447
v 0.01682614 0.09678907 0.01531447
v 0.02419609 0.09097177 0.00643846
v 0.02212992 0.09339965 0.01077609
v 0.00344192 0.03504918 0.00955815
v 0.00035152 0.07607359 0.01561048
v 0.00035152 0.07607359 0.01561048
v 0.02206027 0.09299450 0.01168311
v -0.01860359 0.08495100 0.00980703
v -0.01805429 0.08678011 0.00737763
v -0.01805429 0.08678011 0.00737763
v -0.02869074 0.08377605 0.01016819
v -0.02869074 0.08377605 0.01016819
v -0.01419551 0.09617361 0.00762471
v -0.00707007 0.07591170 0.01131398
v -0.00707007 0.07591170 0.01131398
v -0.00707007 0.07591170 0.01131398
v -0.03713600 0.08685366 0.01715220
v -0.03713600 0.08685366 0.01715220
v 0.02195085 0.08925256 0.01243493
v -0.00975755 0.08424673 0.01562616
v -0.00975755 0.08424673 0.01562616
v -0.03113722 0.08528382 0.00588216
v -0.03219186 0.09445861 0.01487547
v 0.00451594 0.08498387 0.01613077
v -0.01333178 0.09738621 0.00943548
v -0.01859998 0.08503965 0.01416980
v 0.00109997 0.09939776 0.01130375
v -0.00796645 0.09909868 0.00883339
v 0.00137127 0.08968152 0.00646601
v -0.03044431 0.09497861 0.01363115
v -0.03044431 0.09497861 0.01363115
v -0.01867046 0.09137484 0.00750909
v -0.03668105 0.08282857 0.00680120
v -0.03668105 0.08282857 0.00680120
v 0.00128278 0.00009437 0.01565554
v -0.03220038 0.09445848 0.00781249
v 0.03759242 0.07476742 0.01434587
v 0.01967226 0.09432092 0.01128145
v 0.01967226 0.09432092 0.01128145
v 0.01967226 0.09432092 0.01128145
v 0.00762948 0.09860498 0.00645831
v -0.00403608 0.07633829 0.01549786
v -0.00403608 0.07633829 0.01549786
v -0.00403608 0.07633829 0.01549786
v 0.02282363 0.08878725 0.01493834
v 0.02282363 0.08878725 0.01493834
v -0.02714823 0.09402320 0.01312725
v 0.01360649 0.09171416 0.01128879
v 0.01360649 0.09171416 0.01128879
v 0.01360649 0.09171416 0.01128879
v 0.01360649 0.09171416 0.01128879
v 0.00392169 0.07406960 0.01303977
v -0.00533397 0.08676779 0.01614930
v 0.00493405 0.08507932 0.00704506
v 0.00493405 0.08507932 0.00704506
v -0.00435637 0.07563820 0.00746928
v -0.01418660 0.09617374 0.01501979
v -0.02834663 0.09295909 0.01418333
v -0.02246005 0.08625096 0.01509423
v 0.02199451 0.09380588 0.00689578
v -0.02249396 0.09083874 0.01515097
v -0.03072052 0.08178405 0.01436878
v -0.00660899 0.07591489 0.01357682
v -0.00660899 0.07591489 0.01357682
v 0.00041387 0.00008869 0.01579346
v -0.00770592 0.09999994 0.00929953
v -0.00286101 0.07004576 0.01579601
v 0.00032930 0.07581061 0.00697684
v 0.00032930 0.07581061 0.00697684
v 0.02215151 0.09414849 0.00770351
v 0.02215178 0.09402763 0.00722803
v 0.02215178 0.09402763 0.00722803
v 0.01115108 0.08792368 0.01384270
v -0.03226139 0.09499682 0.00906268
v 0.01047031 0.08767850 0.01372553
v -0.00004556 0.07006513 0.00667701
v -0.00017326 0.06962313 0.01536439
v -0.01563202 0.09419457 0.00681889
v -0.01563202 0.09419457 0.00681889
v -0.01563202 0.09419457 0.00681889
v 0.02194998 0.08925255 0.01171729
v -0.00549253 0.07002755 0.01317076
v -0.01167470 0.08112378 0.01131944
v -0.01167470 0.08112378 0.01131944
v -0.01867971 0.09398484 0.01479508
v -0.00663190 0.07608454 0.01361038
v -0.00586447 0.07002497 0.01131263
v 0.00556119 0.08971048 0.00646095
v -0.01607220 0.09374826 0.00681941
v -0.01607220 0.09374826 0.00681941
v -0.00381882 0.09885345 0.00647212
v -0.02642102 0.08413046 0.01400274
v -0.00251464 0.03500800 0.00709921
v -0.01864747 0.08937982 0.01514636
v -0.01736130 0.09256169 0.01548800
v -0.00386069 0.08049824 0.01614762
v 0.00034114 0.07607346 0.00699960
v 0.00034114 0.07607346 0.00699960
v -0.01653734 0.08466511 0.00928837
v -0.01653734 0.08466511 0.00928837
v -0.01733869 0.09000105 0.01548801
v 0.03616177 0.07771703 0.00890494
v 0.03856706 0.07408091 0.00761727
v 0.03856706 0.07408091 0.00761727
v 0.02288473 0.08889892 0.00695384
v -0.02695441 0.09033845 0.01515635
v -0.01140453 0.09579457 0.00648129
v -0.03189745 0.09194407 0.01685711
v -0.00444614 0.07003474 0.00787669
v 0.00245237 0.03504233 0.00808101
v -0.02634497 0.08404898 0.01260425
v -0.03756464 0.08348753 0.01562841
v -0.02947457 0.09194041 0.01515936
v -0.02947457 0.09194041 0.01515936
v -0.02947457 0.09194041 0.01515936
v -0.00384953 0.00005937 0.01464054
v 0.00101673 0.08405479 0.01614168
v 0.00874674 0.08653191 0.01356848
v 0.03009292 0.08511582 0.01543181
v -0.00293933 0.07578784 0.01560826
v -0.00293933 0.07578784 0.01560826
v -0.00487194 0.00005231 0.01311431
v -0.03632703 0.08029078 0.01134918
v -0.03632703 0.08029078 0.01134918
v -0.03632703 0.08029078 0.01134918
v -0.03632703 0.08029078 0.01134918
v -0.02714799 0.09410336 0.01303947
v 0.00260561 0.08440280 0.00646460
v -0.00549702 0.07002751 0.00945360
v -0.03164917 0.08968919 0.00559730
v 0.00147853 0.07583518 0.00719182
v 0.00147853 0.07583518 0.00719182
v 0.00147853 0.07583518 0.00719182
v 0.02471990 0.09120248 0.01171393
v -0.01715729 0.09365974 0.00716398
v -0.01715729 0.09365974 0.00716398
v -0.02715903 0.09285412 0.00826810
v 0.02704481 0.08579343 0.00782263
v 0.02704481 0.08579343 0.00782263
v 0.03803337 0.07519298 0.01506133
v 0.03803337 0.07519298 0.01506133
v -0.01864777 0.09495291 0.01324722
v -0.00639858 0.07399829 0.01131320
v -0.01192468 0.08261871 0.00781243
v -0.02990093 0.08770837 0.01699228
v -0.02990093 0.08770837 0.01699228
v 0.00829903 0.08644425 0.00798075
v -0.02241041 0.08450722 0.01289841
v -0.03032421 0.09324877 0.00680385
v -0.03032421 0.09324877 0.00680385
v 0.00097289 0.03503210 0.00709501
v 0.01220135 0.09789064 0.01129040
v 0.03770204 0.07488170 0.00715522
v 0.03770204 0.07488170 0.00715522
v -0.03767589 0.09138483 0.00583719
v -0.03767589 0.09138483 0.00583719
v 0.02289516 0.08889907 0.01560147
v -0.02958917 0.09385965 0.01036539
v -0.02958917 0.09385965 0.01036539
v -0.03023644 0.09205197 0.00596635
v -0.03023644 0.09205197 0.00596635
v 0.00130490 0.07669865 0.01614145
v 0.03767357 0.07485202 0.00901210
v 0.00118097 0.08693877 0.00646628
v 0.00477823 0.07627748 0.01013996
v -0.03688920 0.08472496 0.01681047
v -0.03688920 0.08472496 0.01681047
v -0.02953600 0.09386511 0.00900370
v -0.02953600 0.09386511 0.00900370
v -0.01804476 0.08678024 0.01527644
v -0.01804476 0.08678024 0.01527644
v 0.03847393 0.07398226 0.01512638
v 0.03847393 0.07398226 0.01512638
v -0.02667911 0.08573392 0.00751884
v -0.02667911 0.08573392 0.00751884
v 0.02489712 0.09206353 0.01516106
v 0.02489712 0.09206353 0.01516106
v 0.01315871 0.09043960 0.00695524
v 0.01315871 0.09043960 0.00695524
v 0.01315871 0.09043960 0.00695524
v -0.02246807 0.09448812 0.01330221
v 0.03771194 0.07488183 0.01536481
v 0.03771194 0.07488183 0.01536481
v -0.03851925 0.09170755 0.01564880
v 0.03159886 0.08250677 0.01044151
v 0.01681668 0.09666809 0.00677971
v 0.01681668 0.09666809 0.00677971
v 0.01681668 0.09666809 0.00677971
v -0.00021546 0.06931610 0.00738726
v -0.00021546 0.06931610 0.00738726
v -0.01085150 0.08147084 0.00744193
v -0.00434710 0.07563832 0.01515214
v 0.00761069 0.08879683 0.00702102
v 0.00761069 0.08879683 0.00702102
v -0.01117570 0.08943019 0.00648113
v -0.00664731 0.07619856 0.01363293
v -0.03049716 0.09557402 0.01134191
v -0.03049716 0.09557402 0.01134191
v 0.02712767 0.08589879 0.00696070
v 0.00114801 0.09901043 0.00646612
v 0.00344613 0.03504923 0.01304578
v -0.02246962 0.09457133 0.00945912
v -0.00725412 0.08281045 0.00647652
v -0.01864921 0.09495289 0.01205491
v -0.00247745 0.09432343 0.00647057
v -0.01644949 0.09549277 0.01419245
v 0.02820645 0.08724062 0.01558316
v 0.01067608 0.08783893 0.01504322
v -0.00665290 0.07619848 0.00899401
v -0.03818964 0.08877045 0.00612381
v -0.02251945 0.09327346 0.00795011
v -0.01370046 0.08386961 0.00836478
v 0.01309938 0.09071153 0.00645185
v -0.02665596 0.08564429 0.01509152
v -0.02246293 0.08634863 0.01515101
v -0.02246293 0.08634863 0.01515101
v 0.01188647 0.08952775 0.01129091
v 0.01188647 0.08952775 0.01129091
v -0.01516164 0.09494256 0.01530969
v -0.02241562 0.08450714 0.00858401
v 0.00957664 0.08973528 0.00695957
v 0.00957664 0.08973528 0.00695957
v -0.02918853 0.08818557 0.00752183
v -0.02918853 0.08818557 0.00752183
v 0.03612779 0.07768924 0.00682066
v -0.00264130 0.07402420 0.00725450
v -0.00952223 0.09726080 0.00647901
v -0.00186926 0.09199339 0.00646987
v -0.03864363 0.09276900 0.01472261
v -0.00532250 0.03498864 0.01131253
v -0.01686371 0.09458811 0.01494841
v 0.03213515 0.08319322 0.01281731
v -0.00796727 0.09903644 0.00779119
v -0.00796727 0.09903644 0.00779119
v 0.02477441 0.09188507 0.00695152
v -0.02903879 0.08543933 0.01515893
v -0.02903879 0.08543933 0.01515893
v -0.02903879 0.08543933 0.01515893
v -0.00398399 0.03499792 0.01453307
v -0.02681353 0.08841509 0.00751896
v -0.00390654 0.06929065 0.01421768
v -0.00390654 0.06929065 0.01421768
v -0.00303124 0.07639614 0.00647153
v 0.00348126 0.07008956 0.01315993
v -0.00025709 0.07598025 0.01563344
v -0.02246867 0.09457134 0.01025653
v -0.03205467 0.09319236 0.00670743
v 0.00614488 0.08214864 0.01309426
v -0.00453428 0.07579565 0.01540689
v -0.00453428 0.07579565 0.01540689
v -0.00453428 0.07579565 0.01540689
v -0.03781983 0.09263332 0.00671438
v -0.03781983 0.09263332 0.00671438
v -0.03232304 0.09555993 0.01216133
v -0.00387236 0.08049809 0.00647248
v 0.00201004 0.06963820 0.01431445
v 0.00497285 0.07599492 0.01129946
v 0.00497285 0.07599492 0.01129946
v 0.00497285 0.07599492 0.01129946
v 0.00497285 0.07599492 0.01129946
v -0.03876953 0.09381810 0.01135192
v -0.00026143 0.07580704 0.01565802
v -0.00026143 0.07580704 0.01565802
v -0.02250315 0.09083859 0.00751373
v 0.00200277 0.06963811 0.00829183
v 0.00180138 0.08140957 0.01614078
v 0.00614054 0.08214858 0.00950165
v -0.02241230 0.08450719 0.01133234
v -0.03740047 0.08913033 0.01709643
v -0.03740047 0.08913033 0.01709643
v 0.00100506 0.08405463 0.00646654
v 0.02941723 0.08427347 0.00778819
v 0.02941723 0.08427347 0.00778819
v -0.03648566 0.08122501 0.01437574
v -0.03648566 0.08122501 0.01437574
v -0.01865469 0.09489074 0.00930875
v -0.02241858 0.08460385 0.00852781
v -0.01865008 0.09495289 0.01132764
v 0.02865550 0.08781662 0.00752792
v 0.02865550 0.08781662 0.00752792
v 0.00110623 0.09927699 0.01580887
v 0.00110623 0.09927699 0.01580887
v 0.02478485 0.09188520 0.01559915
v -0.03232501 0.09555990 0.01052688
v -0.01368809 0.09191189 0.00648411
v -0.01556585 0.08761762 0.01582916
v -0.01556585 0.08761762 0.01582916
v -0.01556585 0.08761762 0.01582916
v -0.01556585 0.08761762 0.01582916
v 0.03613849 0.07768937 0.01570308
v -0.00931460 0.07959915 0.01499248
v -0.03031328 0.09324892 0.01587961
v -0.03031328 0.09324892 0.01587961
v -0.02951109 0.08231265 0.00833103
v -0.02951109 0.08231265 0.00833103
v -0.01224198 0.08646601 0.00648246
v 0.01967240 0.09476152 0.01128143
v 0.01967240 0.09476152 0.01128143
v 0.01967240 0.09476152 0.01128143
v 0.02753094 0.08639230 0.01558399
v 0.01187457 0.08820425 0.01372383
v 0.01187457 0.08820425 0.01372383
v -0.00443787 0.07003487 0.01474512
v -0.03839680 0.09066088 0.01638395
v 0.02713807 0.08589894 0.01558448
v -0.01116404 0.08943035 0.01615628
v 0.00939376 0.08993490 0.01613148
v -0.01737133 0.09256155 0.00716425
v -0.02955939 0.09386237 0.01295045
v -0.02955939 0.09386237 0.01295045
v 0.02420776 0.09097192 0.01611361
v -0.00262976 0.06960617 0.01524321
v 0.02047862 0.09241876 0.01611808
v 0.00110483 0.09939782 0.01533339
v -0.00718621 0.09989659 0.01332855
v -0.03091590 0.08338761 0.00679423
v 0.00418403 0.00011457 0.01130164
v 0.00418403 0.00011457 0.01130164
v 0.03568686 0.07729871 0.00831547
v 0.03843546 0.07394594 0.01436805
v -0.02240898 0.08450724 0.01408066
v 0.00352462 0.08713500 0.01613861
v -0.00675177 0.07574326 0.01131360
v -0.03774842 0.08507730 0.01633902
v -0.03766259 0.09138501 0.01686407
v -0.03766259 0.09138501 0.01686407
v -0.00233139 0.00006974 0.00695962
v -0.00526338 0.06958794 0.01131191
v 0.03159849 0.08250677 0.01014441
v -0.01865137 0.09495287 0.01026279
v 0.01114493 0.08792360 0.00874095
v -0.00724246 0.08281061 0.01615166
v 0.03853678 0.07404440 0.01392414
v 0.00912802 -0.06883106 0.01509577
v -0.00033739 -0.00194288 0.00408844
v 0.00528416 -0.00102653 0.00889637
v 0.00207753 -0.00192573 0.00503796
v -0.00044138 0.00008273 0.00689210
v 0.00187976 -0.09972180 0.01191576
v 0.00955869 -0.04579787 0.01533905
v -0.00381982 -0.02762492 0.01975408
v -0.00412671 -0.09592491 0.00104524
v -0.00412671 -0.09592491 0.00104524
v 0.00612038 -0.02755637 0.00483827
v 0.00013206 -0.04586312 0.00051763
v 0.00393070 -0.00103580 0.01574390
v 0.00987909 -0.06882589 0.01129589
v 0.00453303 -0.09904155 0.01540870
v 0.00810475 -0.02754263 0.00780043
v 0.00420338 -0.00018408 0.00934313
v 0.00309206 -0.00019181 0.00768409
v -0.00997480 -0.06896308 0.01131982
v -0.00997480 -0.06896308 0.01131982
v -0.00421173 -0.09910205 0.00720748
v 0.00528996 -0.00102644 0.01370429
v -0.00054261 -0.09973851 0.01302281
v 0.00437934 -0.09586615 0.00103499
v 0.00437934 -0.09586615 0.00103499
v 0.00420810 -0.00018401 0.01326011
v 0.00613595 -0.02755617 0.01776122
v 0.00253116 -0.09905538 0.01701171
v -0.00487228 0.00005231 0.01282474
v 0.00143046 -0.00020340 0.00657658
v 0.00911887 -0.06883118 0.00749783
v -0.01012388 -0.09596623 0.01557357
v -0.01012388 -0.09596623 0.01557357
v -0.00601584 -0.09911447 0.01131554
v 0.00021390 -0.09973328 0.01321706
v -0.00385018 0.00005935 0.01410549
v -0.00495506 -0.00109940 0.01575676
v 0.00020930 -0.09973334 0.00939902
v -0.00383568 -0.06892059 0.02048396
v -0.00232175 0.00006988 0.01496027
v 0.00384786 -0.04583728 0.02106381
v 0.00015807 -0.04586276 0.02209687
v -0.00997262 -0.04593288 0.00727630
v -0.00114500 -0.09974268 0.01254282
v -0.00414523 -0.00024156 0.00769308
v 0.00310079 -0.00019169 0.01492182
v -0.00678669 -0.02764544 0.01777681
v 0.00633712 -0.09902911 0.01130064
v -0.00114796 -0.09974272 0.01007654
v 0.00315351 -0.02757688 0.00286099
v 0.00280167 0.00010492 0.00850887
v -0.00220987 -0.09908821 0.00560448
v 0.00189440 -0.00104983 0.01710805
v -0.01097500 -0.09597215 0.01132147
v -0.01097500 -0.09597215 0.01132147
v -0.01097500 -0.09597215 0.01132147
v -0.00947085 -0.02766404 0.01131855
v -0.00947085 -0.02766404 0.01131855
v 0.00147543 -0.09972459 0.01007337
v 0.00698002 -0.06884587 0.01831897
v 0.00376208 -0.06886809 0.02047480
v 0.00382431 -0.04583760 0.00154179
v -0.00496578 -0.00109955 0.00686861
v 0.00800673 -0.09584095 0.01915734
v 0.00800673 -0.09584095 0.01915734
v -0.00309837 -0.00196134 0.01757671
v 0.00028773 -0.06889208 0.02149475
v 0.00696309 -0.06884611 0.00427981
v 0.00087304 -0.09972876 0.00959339
v 0.00128193 0.00009437 0.01495636
v 0.00586517 -0.09903239 0.00981605
v -0.00677339 -0.00198678 0.01391045
v 0.00050179 -0.09589295 0.00000000
v 0.00050179 -0.09589295 0.00000000
v 0.00725461 -0.04581389 0.00382791
v -0.00233055 0.00006976 0.00765870
v -0.00311347 -0.00196154 0.00504422
v 0.00382383 0.00011205 0.00978976
v -0.00705880 -0.06894287 0.01833590
v 0.01125239 -0.09581858 0.01129467
v 0.01125239 -0.09581858 0.01129467
v -0.00426178 -0.04589347 0.00155154
v -0.00003400 -0.02759877 0.02074936
v -0.00768655 -0.04591711 0.00384593
v 0.00575880 -0.00190022 0.01389535
v -0.00292872 -0.00108587 0.00550328
v 0.00586876 -0.09903234 0.01278638
v -0.00154934 -0.09974549 0.01070044
v -0.00680078 -0.00111190 0.01131490
v -0.00680078 -0.00111190 0.01131490
v -0.00631961 -0.00110862 0.01371932
v -0.00385779 -0.06892089 0.00214092
v 0.00317386 -0.02757661 0.01974564
v -0.00031999 -0.00194265 0.01852579
v -0.01077195 -0.04593837 0.01132042
v -0.01077195 -0.04593837 0.01132042
v 0.00016705 -0.10000000 0.01130810
v 0.01035803 -0.04579238 0.01129494
v -0.00035085 -0.00104125 0.01802192
v 0.00052906 -0.09589256 0.02261523
v 0.00052906 -0.09589256 0.02261523
v -0.00729279 -0.00199038 0.01131551
v -0.00729279 -0.00199038 0.01131551
v -0.00248640 -0.00023013 0.00658170
v 0.01040128 -0.09582450 0.00704256
v 0.01040128 -0.09582450 0.00704256
v 0.00187830 -0.09972181 0.01069630
v 0.00202023 -0.09972082 0.01130587
v 0.00030743 -0.09907084 0.00495162
v -0.00677965 -0.00198686 0.00871932
v -0.00487593 0.00005226 0.00980039
v -0.00410195 -0.09592458 0.02158115
v -0.00410195 -0.09592458 0.02158115
v 0.00811318 -0.02754252 0.01479428
v -0.00043073 0.00008288 0.01572231
v 0.00127313 0.00009425 0.00765393
v -0.00996287 -0.04593275 0.01536259
v -0.00766853 -0.04591687 0.01878744
v 0.00391999 -0.00103595 0.00686004
v -0.00530050 -0.00197657 0.01610909
v 0.00440410 -0.09586580 0.02157089
v 0.00440410 -0.09586580 0.02157089
v -0.00054674 -0.09973856 0.00959510
v -0.00921458 -0.06895779 0.01511788
v 0.00147840 -0.09972456 0.01253965
v 0.00251740 -0.09905557 0.00559878
v -0.01013414 -0.09596637 0.00706733
v -0.01013414 -0.09596637 0.00706733
v 0.01041153 -0.09582435 0.01554882
v 0.01041153 -0.09582435 0.01554882
v 0.00459528 -0.00018135 0.01130115
v 0.00452312 -0.09904170 0.00719695
v -0.00005677 -0.02759907 0.00186501
v 0.00798778 -0.09584120 0.00343985
v 0.00798778 -0.09584120 0.00343985
v -0.00040876 -0.00021575 0.01695407
v -0.00036704 -0.00104147 0.00459236
v -0.00523247 0.00004981 0.01131299
v -0.00523247 0.00004981 0.01131299
v 0.00188041 -0.00105002 0.00550080
v -0.00420184 -0.09910190 0.01541924
v -0.00219612 -0.09908803 0.01701741
v 0.00209265 -0.00192553 0.01757045
v -0.00291471 -0.00108568 0.01711717
v -0.00922374 -0.06895793 0.00751994
v 0.00427966 -0.00191051 0.00650557
v 0.00032275 -0.09907063 0.01766418
v -0.00680227 -0.02764565 0.00485385
v 0.00429123 -0.00191034 0.01609753
v 0.00727262 -0.04581364 0.01876943
v -0.00042237 -0.00021593 0.00566030
v 0.00576523 -0.00102318 0.01129975
v -0.00384017 -0.02762520 0.00286943
v -0.00385692 0.00005926 0.00851718
v 0.00627195 -0.00189671 0.01129915
v -0.00877106 -0.02765918 0.01481464
v -0.00525251 -0.00024916 0.00935466
v 0.00087716 -0.09972869 0.01302110
v -0.00524779 -0.00024910 0.01327139
v -0.00563967 -0.00025181 0.01131349
v -0.00563967 -0.00025181 0.01131349
v -0.00707573 -0.06894310 0.00429674
v -0.00413651 -0.00024143 0.01493028
v -0.00423825 -0.04589315 0.02107356
v -0.00877950 -0.02765929 0.00782079
v -0.00154787 -0.09974546 0.01191989
v -0.00554748 -0.09911124 0.00982981
v -0.00168980 -0.09974645 0.01131034
v -0.00772935 -0.09594979 0.00345879
v -0.00772935 -0.09594979 0.00345879
v 0.00026317 -0.06889243 0.00112019
v -0.00531206 -0.00197673 0.00651714
v 0.00280842 0.00010501 0.01409774
v 0.00144186 -0.00020324 0.01603334
v 0.00373997 -0.06886840 0.00213176
v -0.00771039 -0.09594954 0.01917630
v -0.00771039 -0.09594954 0.01917630
v -0.00632541 -0.00110870 0.00890932
v 0.00382747 0.00011210 0.01281438
v 0.00575254 -0.00190031 0.00870421
v 0.00418403 0.00011457 0.01130164
v 0.00954894 -0.04579800 0.00725276
v 0.00880454 -0.02753777 0.01129651
v -0.00247500 -0.00022997 0.01603766
v -0.00554389 -0.09911121 0.01280014
f 260 869 117
f 546 110 977
f 808 162 518
f 505 161 120
f 8 240 519
f 240 807 519
f 321 519 213
f 150 183 519
f 162 212 518
f 321 150 519
f 183 8 519
f 561 485 68
f 448 373 68
f 485 359 68
f 373 191 68
f 307 914 68
f 359 444 68
f 191 393 68
f 393 307 68
f 444 293 68
f 293 965 68
f 914 561 68
f 339 138 803
f 783 157 664
f 169 713 432
f 804 354 311
f 89 327 33
f 129 324 87
f 622 32 387
f 711 785 838
f 1001 296 742
f 1037 31 313
f 313 31 623
f 1024 876 31
f 570 31 603
f 387 32 877
f 1024 31 570
f 603 31 1037
f 1008 68 888
f 447 68 486
f 888 68 933
f 486 68 816
f 450 68 241
f 933 68 227
f 816 68 1028
f 1028 68 450
f 227 68 124
f 124 68 965
f 241 68 1008
f 604 163 990
f 600 923 368
f 356 40 874
f 164 267 730
f 664 839 783
f 923 600 55
f 992 164 874
f 804 136 713
f 522 260 90
f 522 90 964
f 468 745 904
f 468 904 545
f 427 1032 315
f 427 315 334
f 893 25 175
f 893 175 101
f 969 58 550
f 969 550 245
f 58 25 893
f 58 893 550
f 175 473 532
f 175 532 101
f 532 473 427
f 532 427 334
f 473 175 663
f 473 663 813
f 427 473 813
f 427 813 833
f 1032 427 833
f 1032 833 791
f 969 210 547
f 969 547 1
f 58 969 1
f 58 1 187
f 25 58 187
f 25 187 780
f 187 1 123
f 187 123 534
f 780 187 534
f 780 534 504
f 813 663 930
f 813 930 654
f 833 813 654
f 833 654 170
f 791 833 170
f 791 170 847
f 210 625 542
f 210 542 547
f 1 547 363
f 1 363 123
f 10 269 868
f 10 868 733
f 170 654 760
f 170 760 142
f 543 81 615
f 543 615 913
f 454 571 366
f 454 366 75
f 528 947 959
f 528 959 128
f 913 615 568
f 913 568 53
f 154 851 69
f 154 69 898
f 848 413 339
f 848 339 916
f 128 959 581
f 128 581 907
f 480 848 916
f 480 916 266
f 449 12 16
f 449 16 18
f 114 314 236
f 114 236 792
f 391 269 10
f 391 10 1000
f 868 114 792
f 868 792 733
f 510 643 281
f 510 281 802
f 511 454 75
f 511 75 344
f 654 930 209
f 654 209 760
f 869 653 287
f 869 287 971
f 635 913 53
f 635 53 177
f 847 170 142
f 847 142 1027
f 226 651 200
f 226 200 352
f 344 75 832
f 344 832 975
f 75 366 414
f 75 414 832
f 971 287 4
f 971 4 148
f 177 53 895
f 177 895 788
f 475 76 201
f 475 201 758
f 53 568 97
f 53 97 895
f 350 947 528
f 350 528 614
f 230 192 78
f 230 78 892
f 614 528 128
f 614 128 569
f 280 474 366
f 280 366 571
f 569 128 907
f 569 907 98
f 366 474 759
f 366 759 414
f 338 412 391
f 338 391 1000
f 414 759 155
f 414 155 314
f 350 199 511
f 350 511 947
f 282 117 76
f 282 76 475
f 733 792 468
f 733 468 545
f 1000 188 137
f 1000 137 338
f 794 74 44
f 794 44 782
f 347 904 745
f 347 745 597
f 801 454 511
f 801 511 199
f 597 745 192
f 597 192 230
f 776 764 939
f 776 939 464
f 549 388 929
f 549 929 276
f 472 926 884
f 472 884 917
f 917 884 390
f 917 390 243
f 243 390 28
f 243 28 809
f 809 28 843
f 809 843 903
f 903 843 976
f 903 976 109
f 110 546 1023
f 110 1023 573
f 573 1023 224
f 573 224 857
f 276 929 411
f 276 411 554
f 554 411 162
f 554 162 808
f 98 907 391
f 98 391 412
f 655 442 240
f 655 240 8
f 442 553 807
f 442 807 240
f 411 858 212
f 411 212 162
f 312 989 44
f 312 44 74
f 312 188 899
f 312 899 989
f 452 312 74
f 452 74 794
f 236 314 155
f 236 155 897
f 975 832 114
f 975 114 868
f 907 581 269
f 907 269 391
f 832 414 314
f 832 314 114
f 148 4 12
f 148 12 449
f 788 895 848
f 788 848 480
f 895 97 413
f 895 413 848
f 758 201 851
f 758 851 154
f 975 868 269
f 975 269 581
f 340 931 795
f 340 795 937
f 932 909 14
f 932 14 478
f 795 931 14
f 795 14 909
f 344 975 581
f 344 581 959
f 511 344 959
f 511 959 947
f 663 780 504
f 663 504 930
f 175 25 780
f 175 780 663
f 625 210 263
f 625 263 402
f 792 236 472
f 792 472 680
f 642 680 472
f 642 472 917
f 892 78 764
f 892 764 776
f 745 468 39
f 745 39 192
f 468 792 680
f 468 680 39
f 78 192 39
f 78 39 429
f 642 429 39
f 642 39 680
f 236 897 926
f 236 926 472
f 429 642 211
f 429 211 460
f 460 211 147
f 460 147 706
f 706 147 453
f 706 453 397
f 426 109 388
f 426 388 380
f 243 211 642
f 243 642 917
f 78 429 460
f 78 460 764
f 764 460 706
f 764 706 939
f 939 706 397
f 939 397 159
f 809 147 211
f 809 211 243
f 903 453 147
f 903 147 809
f 107 349 29
f 107 29 189
f 109 426 453
f 109 453 903
f 137 188 312
f 137 312 452
f 574 929 388
f 574 388 109
f 797 645 894
f 797 894 102
f 231 797 102
f 231 102 531
f 645 855 551
f 645 551 894
f 855 814 246
f 855 246 551
f 814 708 264
f 814 264 246
f 547 542 104
f 547 104 363
f 934 232 335
f 934 335 316
f 232 231 531
f 232 531 335
f 708 202 404
f 708 404 264
f 830 594 373
f 830 373 448
f 556 814 855
f 556 855 575
f 575 855 645
f 575 645 283
f 1031 797 231
f 1031 231 502
f 502 231 232
f 502 232 430
f 430 232 934
f 430 934 684
f 283 645 797
f 283 797 1031
f 1021 202 708
f 1021 708 306
f 306 708 814
f 306 814 556
f 201 148 449
f 201 449 851
f 76 971 148
f 76 148 201
f 117 869 971
f 117 971 76
f 851 449 18
f 851 18 69
f 504 534 616
f 504 616 362
f 69 18 1035
f 69 1035 43
f 43 1035 174
f 43 174 237
f 238 173 244
f 238 244 292
f 292 244 535
f 292 535 62
f 62 535 392
f 62 392 34
f 546 1033 423
f 546 423 1023
f 1023 423 626
f 1023 626 224
f 867 655 8
f 867 8 183
f 18 16 922
f 18 922 1035
f 216 244 173
f 216 173 755
f 120 535 244
f 120 244 216
f 86 392 535
f 86 535 120
f 34 392 1033
f 34 1033 546
f 272 423 1033
f 272 1033 889
f 867 626 423
f 867 423 272
f 69 43 925
f 69 925 898
f 925 43 237
f 925 237 883
f 882 238 292
f 882 292 389
f 389 292 62
f 389 62 27
f 27 62 34
f 27 34 842
f 464 939 159
f 464 159 983
f 1035 922 754
f 1035 754 174
f 644 260 117
f 644 117 282
f 81 225 351
f 81 351 615
f 930 504 362
f 930 362 209
f 123 363 702
f 123 702 577
f 651 510 802
f 651 802 200
f 534 123 577
f 534 577 616
f 869 260 522
f 869 522 653
f 563 543 913
f 563 913 635
f 961 91 702
f 961 702 678
f 104 678 702
f 104 702 363
f 651 226 660
f 651 660 375
f 374 661 209
f 374 209 362
f 225 81 675
f 225 675 659
f 661 676 760
f 661 760 209
f 81 543 586
f 81 586 675
f 676 587 142
f 676 142 760
f 643 510 773
f 643 773 835
f 836 772 616
f 836 616 577
f 510 651 375
f 510 375 773
f 772 374 362
f 772 362 616
f 260 644 837
f 260 837 90
f 91 836 577
f 91 577 702
f 543 563 719
f 543 719 586
f 587 720 1027
f 587 1027 142
f 553 442 806
f 553 806 277
f 891 775 774
f 891 774 618
f 348 598 372
f 348 372 492
f 380 388 159
f 380 159 397
f 229 890 617
f 229 617 613
f 598 229 613
f 598 613 372
f 465 984 520
f 465 520 595
f 775 465 595
f 775 595 774
f 120 161 206
f 120 206 86
f 618 774 703
f 618 703 299
f 353 492 731
f 353 731 51
f 595 520 189
f 595 189 572
f 272 239 655
f 272 655 867
f 492 372 602
f 492 602 731
f 889 459 239
f 889 239 272
f 613 617 297
f 613 297 856
f 349 107 103
f 349 103 548
f 774 595 572
f 774 572 703
f 889 1033 392
f 889 392 86
f 626 867 183
f 626 183 150
f 224 626 150
f 224 150 321
f 505 744 1003
f 505 1003 707
f 707 1003 299
f 707 299 703
f 206 161 111
f 206 111 29
f 29 111 572
f 29 572 189
f 86 206 459
f 86 459 889
f 459 206 29
f 459 29 349
f 655 239 806
f 655 806 442
f 277 806 349
f 277 349 548
f 161 505 707
f 161 707 111
f 111 707 703
f 111 703 572
f 239 459 349
f 239 349 806
f 857 224 321
f 857 321 213
f 216 744 505
f 216 505 120
f 983 159 388
f 983 388 549
f 520 103 107
f 520 107 189
f 984 548 103
f 984 103 520
f 858 411 929
f 858 929 574
f 842 34 546
f 842 546 977
f 372 613 856
f 372 856 602
f 397 453 426
f 397 426 380
f 732 770 677
f 732 677 637
f 714 358 190
f 714 190 433
f 130 729 592
f 130 592 1034
f 358 1012 736
f 358 736 190
f 839 664 182
f 839 182 271
f 729 278 982
f 729 982 592
f 20 804 311
f 20 311 712
f 1012 840 270
f 1012 270 736
f 294 968 193
f 294 193 944
f 290 294 944
f 290 944 879
f 60 118 365
f 60 365 301
f 872 322 647
f 872 647 421
f 560 289 878
f 560 878 471
f 301 928 536
f 301 536 60
f 23 646 64
f 23 64 382
f 1034 592 23
f 1034 23 950
f 273 865 668
f 273 668 834
f 169 432 289
f 169 289 560
f 190 736 968
f 190 968 294
f 592 982 646
f 592 646 23
f 433 190 294
f 433 294 290
f 48 999 431
f 48 431 261
f 980 54 906
f 980 906 467
f 466 712 63
f 466 63 972
f 906 950 134
f 906 134 291
f 862 376 901
f 862 901 207
f 972 63 383
f 972 383 328
f 462 578 864
f 462 864 274
f 467 906 291
f 467 291 336
f 322 862 207
f 322 207 647
f 950 23 382
f 950 382 134
f 928 462 274
f 928 274 536
f 968 494 628
f 968 628 193
f 63 924 22
f 63 22 383
f 440 716 998
f 440 998 49
f 485 561 860
f 485 860 956
f 778 988 346
f 778 346 172
f 726 394 194
f 726 194 506
f 594 738 191
f 594 191 373
f 988 636 417
f 988 417 346
f 261 431 593
f 261 593 827
f 208 902 636
f 208 636 988
f 712 311 924
f 712 924 63
f 422 648 778
f 422 778 740
f 61 537 394
f 61 394 726
f 736 270 494
f 736 494 968
f 648 208 988
f 648 988 778
f 54 1034 950
f 54 950 906
f 537 273 834
f 537 834 394
f 999 119 1020
f 999 1020 431
f 197 860 561
f 197 561 914
f 526 171 444
f 526 444 359
f 195 197 914
f 195 914 307
f 171 345 293
f 171 293 444
f 507 195 307
f 507 307 393
f 740 778 172
f 740 172 527
f 345 416 965
f 345 965 293
f 431 1020 737
f 431 737 593
f 834 668 859
f 834 859 198
f 394 834 198
f 394 198 194
f 22 418 357
f 22 357 364
f 291 134 323
f 291 323 873
f 384 36 841
f 384 841 701
f 879 944 927
f 879 927 302
f 382 64 377
f 382 377 863
f 193 628 579
f 193 579 463
f 134 382 863
f 134 863 323
f 300 529 471
f 300 471 878
f 266 916 21
f 266 21 501
f 341 938 130
f 341 130 717
f 916 339 803
f 916 803 21
f 793 784 840
f 793 840 1012
f 732 637 278
f 732 278 729
f 451 793 1012
f 451 1012 358
f 938 732 729
f 938 729 130
f 359 485 956
f 359 956 526
f 507 393 191
f 507 191 738
f 328 383 715
f 328 715 441
f 364 357 529
f 364 529 300
f 383 22 364
f 383 364 715
f 944 193 463
f 944 463 927
f 853 864 578
f 853 578 35
f 865 854 951
f 865 951 668
f 119 61 726
f 119 726 1020
f 668 951 957
f 668 957 859
f 1020 726 506
f 1020 506 737
f 311 354 981
f 311 981 924
f 354 169 560
f 354 560 981
f 271 182 915
f 271 915 493
f 493 915 841
f 493 841 627
f 924 981 418
f 924 418 22
f 981 560 471
f 981 471 418
f 499 20 712
f 499 712 466
f 538 989 899
f 538 899 10
f 811 44 989
f 811 989 538
f 10 899 188
f 10 188 1000
f 158 811 931
f 158 931 340
f 44 811 158
f 44 158 782
f 804 713 169
f 804 169 354
f 717 130 1034
f 717 1034 54
f 627 841 36
f 627 36 580
f 716 365 118
f 716 118 998
f 157 341 717
f 157 717 664
f 36 384 428
f 36 428 873
f 951 740 527
f 951 527 957
f 915 610 701
f 915 701 841
f 610 467 336
f 610 336 701
f 182 196 610
f 182 610 915
f 196 980 467
f 196 467 610
f 854 422 740
f 854 740 951
f 35 872 421
f 35 421 853
f 606 717 54
f 606 54 980
f 408 606 980
f 408 980 196
f 932 733 545
f 932 545 909
f 770 732 492
f 770 492 353
f 210 969 245
f 210 245 263
f 904 795 909
f 904 909 545
f 938 348 492
f 938 492 732
f 770 353 51
f 770 51 677
f 10 478 14
f 10 14 538
f 478 10 733
f 478 733 932
f 347 937 795
f 347 795 904
f 931 811 538
f 931 538 14
f 701 336 428
f 701 428 384
f 873 428 336
f 873 336 291
f 418 471 529
f 418 529 357
f 408 664 717
f 408 717 606
f 664 408 196
f 664 196 182
f 280 571 454
f 280 454 801
f 521 963 508
f 521 508 89
f 558 59 361
f 558 361 242
f 205 495 315
f 205 315 1032
f 516 564 1016
f 516 1016 781
f 960 582 45
f 960 45 253
f 253 45 516
f 253 516 781
f 1016 564 946
f 1016 946 82
f 946 495 205
f 946 205 82
f 82 1007 771
f 82 771 1016
f 205 786 1007
f 205 1007 82
f 1032 791 786
f 1032 786 205
f 960 515 948
f 960 948 576
f 253 667 515
f 253 515 960
f 781 181 667
f 781 667 253
f 667 248 9
f 667 9 515
f 181 611 248
f 181 248 667
f 1007 156 490
f 1007 490 771
f 786 555 156
f 786 156 1007
f 791 847 555
f 791 555 786
f 576 948 541
f 576 541 624
f 515 9 756
f 515 756 948
f 461 607 113
f 461 113 757
f 555 367 896
f 555 896 156
f 790 900 748
f 790 748 342
f 337 970 639
f 337 639 866
f 26 2 800
f 26 800 396
f 900 995 400
f 900 400 748
f 608 122 491
f 608 491 178
f 295 438 604
f 295 604 725
f 2 1036 96
f 2 96 800
f 479 265 438
f 479 438 295
f 822 779 15
f 822 15 11
f 1026 80 135
f 1026 135 539
f 484 52 461
f 484 461 757
f 113 607 80
f 113 80 1026
f 217 710 524
f 217 524 649
f 13 220 970
f 13 970 337
f 156 896 268
f 156 268 490
f 33 952 286
f 33 286 652
f 634 176 995
f 634 995 900
f 847 1027 367
f 847 367 555
f 186 309 686
f 186 686 949
f 220 821 682
f 220 682 970
f 970 682 728
f 970 728 639
f 952 65 3
f 952 3 286
f 176 787 662
f 176 662 995
f 141 258 252
f 141 252 469
f 995 662 424
f 995 424 400
f 308 746 26
f 308 26 396
f 72 673 326
f 72 326 70
f 746 399 2
f 746 2 26
f 523 866 639
f 523 639 140
f 399 425 1036
f 399 1036 2
f 639 728 259
f 639 259 140
f 605 52 484
f 605 484 724
f 728 539 609
f 728 609 259
f 308 396 13
f 308 13 685
f 525 141 469
f 525 469 327
f 607 59 558
f 607 558 80
f 52 605 993
f 52 993 669
f 620 599 530
f 620 530 151
f 985 434 242
f 985 242 361
f 709 685 13
f 709 13 337
f 434 72 70
f 434 70 242
f 588 880 987
f 588 987 621
f 584 640 994
f 584 994 204
f 1011 371 691
f 1011 691 319
f 371 108 250
f 371 250 691
f 108 861 749
f 108 749 250
f 861 1009 697
f 861 697 749
f 1009 88 325
f 1009 325 697
f 87 257 415
f 87 415 129
f 257 887 741
f 257 741 415
f 640 844 42
f 640 42 994
f 844 622 387
f 844 387 42
f 425 724 484
f 425 484 1036
f 254 1037 313
f 254 313 165
f 165 313 623
f 165 623 845
f 42 387 877
f 42 877 886
f 24 151 530
f 24 530 420
f 24 420 1010
f 24 1010 669
f 305 620 151
f 305 151 24
f 135 121 609
f 135 609 539
f 821 113 1026
f 821 1026 682
f 1036 484 757
f 1036 757 96
f 682 1026 539
f 682 539 728
f 65 822 11
f 65 11 3
f 787 479 295
f 787 295 662
f 662 295 725
f 662 725 424
f 258 608 178
f 258 178 252
f 821 96 757
f 821 757 113
f 179 329 279
f 179 279 385
f 386 360 470
f 386 470 381
f 279 381 470
f 279 470 385
f 220 800 96
f 220 96 821
f 13 396 800
f 13 800 220
f 771 490 611
f 771 611 181
f 1016 771 181
f 1016 181 781
f 624 403 409
f 624 409 576
f 80 166 1011
f 80 1011 135
f 143 371 1011
f 143 1011 166
f 673 588 621
f 673 621 326
f 242 70 133
f 242 133 558
f 558 133 166
f 558 166 80
f 326 310 133
f 326 133 70
f 143 166 133
f 143 133 310
f 135 1011 319
f 135 319 121
f 310 1017 687
f 310 687 143
f 1017 1015 638
f 1017 638 687
f 1015 911 1004
f 1015 1004 638
f 275 823 204
f 275 204 88
f 108 371 143
f 108 143 687
f 326 621 1017
f 326 1017 310
f 621 987 1015
f 621 1015 1017
f 987 629 911
f 987 911 1015
f 861 108 687
f 861 687 638
f 1009 861 638
f 1009 638 1004
f 125 370 185
f 125 185 497
f 88 1009 1004
f 88 1004 275
f 993 305 24
f 993 24 669
f 256 88 204
f 256 204 994
f 657 565 517
f 657 517 658
f 943 945 565
f 943 565 657
f 658 517 46
f 658 46 700
f 700 46 583
f 700 583 481
f 481 583 410
f 481 410 905
f 948 756 105
f 948 105 541
f 934 316 496
f 934 496 19
f 19 496 945
f 19 945 943
f 905 410 405
f 905 405 203
f 829 447 486
f 829 486 979
f 255 739 700
f 255 700 481
f 739 769 658
f 739 658 700
f 540 820 943
f 540 943 657
f 820 826 19
f 820 19 943
f 826 684 934
f 826 934 19
f 769 540 657
f 769 657 658
f 1022 79 905
f 1022 905 203
f 79 255 481
f 79 481 905
f 252 178 822
f 252 822 65
f 469 252 65
f 469 65 952
f 327 469 952
f 327 952 33
f 178 491 779
f 178 779 822
f 611 184 160
f 611 160 248
f 491 912 777
f 491 777 779
f 912 285 1005
f 912 1005 777
f 284 552 251
f 284 251 1006
f 552 567 723
f 552 723 251
f 567 37 95
f 567 95 723
f 129 415 566
f 129 566 100
f 415 741 115
f 415 115 566
f 77 603 1037
f 77 1037 254
f 779 777 921
f 779 921 15
f 215 752 1006
f 215 1006 251
f 785 215 251
f 785 251 723
f 395 785 723
f 395 723 95
f 37 129 100
f 37 100 95
f 146 214 100
f 146 100 566
f 77 146 566
f 77 566 115
f 491 122 320
f 491 320 912
f 320 689 285
f 320 285 912
f 690 249 552
f 690 552 284
f 249 750 567
f 249 567 552
f 750 696 37
f 750 37 567
f 880 234 629
f 880 629 987
f 777 1005 753
f 777 753 921
f 650 525 327
f 650 327 89
f 343 747 309
f 343 309 186
f 490 268 184
f 490 184 611
f 9 106 456
f 9 456 756
f 949 686 710
f 949 710 217
f 248 160 106
f 248 106 9
f 33 652 521
f 33 521 89
f 562 634 900
f 562 900 790
f 962 679 456
f 962 456 509
f 105 756 456
f 105 456 679
f 949 966 824
f 949 824 186
f 967 184 268
f 967 268 825
f 186 824 953
f 186 953 343
f 825 268 896
f 825 896 955
f 342 954 768
f 342 768 790
f 955 896 367
f 955 367 767
f 649 5 406
f 649 406 217
f 6 106 160
f 6 160 407
f 217 406 966
f 217 966 949
f 407 160 184
f 407 184 967
f 89 508 7
f 89 7 650
f 509 456 106
f 509 106 6
f 790 768 718
f 790 718 562
f 767 367 1027
f 767 1027 720
f 845 641 630
f 845 630 165
f 674 705 228
f 674 228 589
f 986 1018 443
f 986 443 435
f 823 911 629
f 823 629 204
f 71 83 704
f 71 704 672
f 435 443 83
f 435 83 71
f 881 144 398
f 881 398 235
f 589 228 144
f 589 144 881
f 785 395 99
f 785 99 838
f 705 298 559
f 705 559 228
f 1019 51 731
f 1019 731 1018
f 144 455 370
f 144 370 398
f 146 77 254
f 146 254 66
f 1018 731 602
f 1018 602 443
f 214 146 66
f 214 66 936
f 83 856 297
f 83 297 704
f 497 585 489
f 497 489 125
f 228 559 455
f 228 455 144
f 214 395 95
f 214 95 100
f 115 570 603
f 115 603 77
f 741 1024 570
f 741 570 115
f 711 145 1002
f 711 1002 743
f 145 559 298
f 145 298 1002
f 99 185 683
f 99 683 838
f 185 370 455
f 185 455 683
f 395 214 936
f 395 936 99
f 936 497 185
f 936 185 99
f 254 165 630
f 254 630 66
f 641 585 497
f 641 497 630
f 838 683 145
f 838 145 711
f 683 455 559
f 683 559 145
f 66 630 497
f 66 497 936
f 887 876 1024
f 887 1024 741
f 215 785 711
f 215 711 743
f 234 584 204
f 234 204 629
f 398 370 125
f 398 125 489
f 235 398 489
f 235 489 585
f 886 256 994
f 886 994 42
f 696 324 129
f 696 129 37
f 443 602 856
f 443 856 83
f 911 823 275
f 911 275 1004
f 533 637 677
f 533 677 612
f 875 41 798
f 875 798 805
f 126 112 908
f 126 908 221
f 805 798 355
f 805 355 799
f 55 477 789
f 55 789 923
f 221 908 982
f 221 982 278
f 378 92 267
f 378 267 164
f 799 355 476
f 799 476 56
f 503 514 810
f 503 810 765
f 919 84 514
f 919 514 503
f 445 942 591
f 445 591 670
f 167 218 734
f 167 734 1013
f 763 918 85
f 763 85 920
f 942 445 849
f 942 849 483
f 688 127 64
f 688 64 646
f 112 17 688
f 112 688 908
f 512 149 812
f 512 812 666
f 356 763 920
f 356 920 40
f 798 503 765
f 798 765 355
f 908 688 646
f 908 646 982
f 41 919 503
f 41 503 798
f 47 262 766
f 47 766 153
f 544 885 401
f 544 401 846
f 466 972 852
f 466 852 92
f 401 831 288
f 401 288 17
f 692 317 901
f 692 901 376
f 972 328 815
f 972 815 852
f 698 513 665
f 698 665 817
f 885 751 831
f 885 831 401
f 1013 734 317
f 1013 317 692
f 17 288 127
f 17 127 688
f 483 849 513
f 483 513 698
f 765 810 632
f 765 632 333
f 852 815 247
f 852 247 1025
f 439 50 152
f 439 152 458
f 888 487 1029
f 888 1029 1008
f 681 94 695
f 681 695 958
f 67 870 721
f 67 721 557
f 979 486 816
f 979 816 223
f 958 695 417
f 958 417 636
f 262 828 978
f 262 978 766
f 318 958 636
f 318 636 902
f 92 852 1025
f 92 1025 267
f 219 727 681
f 219 681 735
f 446 67 557
f 446 557 850
f 355 765 333
f 355 333 476
f 735 681 958
f 735 958 318
f 846 401 17
f 846 17 112
f 850 557 149
f 850 149 512
f 153 766 57
f 153 57 671
f 973 241 1008
f 973 1008 1029
f 131 933 227
f 131 227 93
f 722 450 241
f 722 241 973
f 93 227 124
f 93 124 694
f 871 1028 450
f 871 450 722
f 727 132 94
f 727 94 681
f 694 124 965
f 694 965 416
f 766 978 222
f 766 222 57
f 149 974 1030
f 149 1030 812
f 557 721 974
f 557 974 149
f 247 590 331
f 247 331 796
f 831 168 1014
f 831 1014 288
f 762 233 30
f 762 30 437
f 84 941 482
f 84 482 514
f 127 693 377
f 127 377 64
f 810 699 818
f 810 818 632
f 288 1014 693
f 288 693 127
f 940 85 918
f 940 918 38
f 265 500 379
f 265 379 438
f 180 761 126
f 180 126 330
f 438 379 163
f 438 163 604
f 619 799 56
f 619 56 601
f 533 221 278
f 533 278 637
f 304 805 799
f 304 799 619
f 330 126 221
f 330 221 533
f 451 358 714
f 451 714 139
f 933 131 487
f 933 487 888
f 871 223 816
f 871 816 1028
f 328 441 457
f 328 457 815
f 590 940 38
f 590 38 331
f 815 457 590
f 815 590 247
f 514 482 699
f 514 699 810
f 996 436 817
f 996 817 665
f 666 812 498
f 666 498 997
f 671 57 67
f 671 67 446
f 812 1030 488
f 812 488 498
f 57 222 870
f 57 870 67
f 267 1025 73
f 267 73 730
f 730 73 763
f 730 763 356
f 477 332 596
f 477 596 789
f 332 631 30
f 332 30 596
f 1025 247 796
f 1025 796 73
f 73 796 918
f 73 918 763
f 499 466 92
f 499 92 378
f 633 461 1010
f 633 1010 420
f 303 633 420
f 303 420 530
f 461 52 669
f 461 669 1010
f 369 179 385
f 369 385 303
f 530 599 369
f 530 369 303
f 164 730 356
f 164 356 874
f 761 846 112
f 761 112 126
f 631 819 437
f 631 437 30
f 458 152 670
f 458 670 591
f 368 923 761
f 368 761 180
f 437 168 656
f 437 656 762
f 498 488 132
f 498 132 727
f 596 30 233
f 596 233 116
f 116 233 751
f 116 751 885
f 789 596 116
f 789 116 419
f 419 116 885
f 419 885 544
f 997 498 727
f 997 727 219
f 436 996 218
f 436 218 167
f 910 544 846
f 910 846 761
f 935 419 544
f 935 544 910
f 386 381 59
f 386 59 607
f 612 1019 1018
f 612 1018 533
f 576 409 582
f 576 582 960
f 361 59 381
f 361 381 279
f 330 533 1018
f 330 1018 986
f 612 677 51
f 612 51 1019
f 461 633 470
f 461 470 360
f 360 386 607
f 360 607 461
f 985 361 279
f 985 279 329
f 385 470 633
f 385 633 303
f 233 762 656
f 233 656 751
f 168 831 751
f 168 751 656
f 796 331 38
f 796 38 918
f 935 910 761
f 935 761 923
f 923 789 419
f 923 419 935
f 523 709 337
f 523 337 866
f 875 805 304
f 875 304 991
f 1160 1086 1134
f 1144 1096 1134
f 1145 1144 1134
f 1075 1160 1134
f 1086 1125 1134
f 1096 1106 1134
f 1106 1075 1134
f 1125 1205 1134
f 1060 1134 1081
f 1043 1134 1162
f 1145 1134 1043
f 1072 1134 1060
f 1081 1134 1203
f 1162 1134 1195
f 1195 1134 1072
f 1203 1134 1205
f 1142 1068 1105
f 1142 1105 1171
f 1171 1105 1212
f 1171 1212 1061
f 1046 1129 1199
f 1046 1199 1207
f 1207 1199 1182
f 1207 1182 1165
f 1165 1182 1057
f 1165 1057 1093
f 1129 1046 1111
f 1129 1111 1208
f 1172 1062 1163
f 1172 1163 1169
f 1164 1091 1071
f 1164 1071 1204
f 1117 1051 1068
f 1117 1068 1142
f 1047 1206 1058
f 1047 1058 1089
f 1143 1172 1169
f 1143 1169 1108
f 1206 1164 1204
f 1206 1204 1058
f 1118 1143 1108
f 1118 1108 1085
f 1212 1105 1112
f 1212 1112 1099
f 1057 1182 1080
f 1057 1080 1132
f 1219 1135 1220
f 1219 1220 1053
f 1199 1129 1119
f 1199 1119 1121
f 1208 1212 1099
f 1208 1099 1049
f 1105 1068 1219
f 1105 1219 1112
f 1182 1199 1121
f 1182 1121 1080
f 1190 1170 1039
f 1190 1039 1114
f 1112 1219 1053
f 1112 1053 1048
f 1099 1112 1048
f 1099 1048 1087
f 1049 1099 1087
f 1049 1087 1170
f 1121 1119 1190
f 1121 1190 1185
f 1080 1121 1185
f 1080 1185 1202
f 1132 1080 1202
f 1132 1202 1095
f 1126 1215 1194
f 1126 1194 1197
f 1151 1122 1192
f 1151 1192 1220
f 1068 1051 1135
f 1068 1135 1219
f 1053 1220 1192
f 1053 1192 1217
f 1174 1177 1067
f 1174 1067 1188
f 1100 1123 1141
f 1100 1141 1082
f 1141 1188 1042
f 1141 1042 1113
f 1055 1054 1115
f 1055 1115 1088
f 1067 1055 1088
f 1067 1088 1153
f 1188 1067 1153
f 1188 1153 1042
f 1194 1082 1191
f 1194 1191 1148
f 1197 1194 1148
f 1197 1148 1175
f 1177 1156 1055
f 1177 1055 1067
f 1054 1168 1218
f 1054 1218 1115
f 1082 1141 1113
f 1082 1113 1191
f 1123 1174 1188
f 1123 1188 1141
f 1119 1049 1170
f 1119 1170 1190
f 1129 1208 1049
f 1129 1049 1119
f 1110 1047 1089
f 1110 1089 1146
f 1062 1110 1146
f 1062 1146 1163
f 1061 1212 1208
f 1061 1208 1111
f 1108 1144 1145
f 1108 1145 1085
f 1089 1160 1075
f 1089 1075 1146
f 1204 1125 1086
f 1204 1086 1058
f 1163 1106 1096
f 1163 1096 1169
f 1071 1205 1125
f 1071 1125 1204
f 1146 1075 1106
f 1146 1106 1163
f 1058 1086 1160
f 1058 1160 1089
f 1169 1096 1144
f 1169 1144 1108
f 1185 1190 1114
f 1185 1114 1209
f 1048 1053 1217
f 1048 1217 1183
f 1095 1202 1147
f 1095 1147 1140
f 1202 1185 1209
f 1202 1209 1147
f 1170 1087 1041
f 1170 1041 1039
f 1087 1048 1183
f 1087 1183 1041
f 1040 1189 1168
f 1040 1168 1054
f 1215 1100 1082
f 1215 1082 1194
f 1166 1101 1097
f 1166 1097 1038
f 1101 1158 1098
f 1101 1098 1097
f 1149 1213 1116
f 1149 1116 1076
f 1213 1070 1161
f 1213 1161 1116
f 1070 1092 1056
f 1070 1056 1161
f 1076 1104 1137
f 1076 1137 1149
f 1102 1052 1065
f 1102 1065 1159
f 1069 1222 1071
f 1069 1071 1091
f 1117 1166 1038
f 1117 1038 1051
f 1150 1179 1178
f 1150 1178 1214
f 1167 1124 1052
f 1167 1052 1102
f 1214 1178 1222
f 1214 1222 1069
f 1118 1085 1124
f 1118 1124 1167
f 1098 1078 1187
f 1098 1187 1097
f 1056 1133 1154
f 1056 1154 1161
f 1044 1151 1220
f 1044 1220 1135
f 1116 1155 1201
f 1116 1201 1076
f 1104 1079 1078
f 1104 1078 1098
f 1097 1187 1044
f 1097 1044 1038
f 1161 1154 1155
f 1161 1155 1116
f 1045 1103 1131
f 1045 1131 1120
f 1187 1064 1151
f 1187 1151 1044
f 1078 1130 1064
f 1078 1064 1187
f 1079 1120 1130
f 1079 1130 1078
f 1155 1084 1045
f 1155 1045 1201
f 1154 1193 1084
f 1154 1084 1155
f 1133 1094 1193
f 1133 1193 1154
f 1127 1198 1196
f 1127 1196 1128
f 1038 1044 1135
f 1038 1135 1051
f 1090 1211 1083
f 1090 1083 1050
f 1136 1173 1211
f 1136 1211 1090
f 1074 1200 1221
f 1074 1221 1181
f 1221 1077 1152
f 1221 1152 1173
f 1083 1210 1216
f 1083 1216 1063
f 1211 1107 1210
f 1211 1210 1083
f 1173 1152 1107
f 1173 1107 1211
f 1196 1066 1073
f 1196 1073 1200
f 1198 1176 1066
f 1198 1066 1196
f 1059 1063 1168
f 1059 1168 1189
f 1063 1216 1218
f 1063 1218 1168
f 1200 1073 1077
f 1200 1077 1221
f 1181 1221 1173
f 1181 1173 1136
f 1201 1045 1120
f 1201 1120 1079
f 1076 1201 1079
f 1076 1079 1104
f 1138 1184 1179
f 1138 1179 1150
f 1159 1065 1184
f 1159 1184 1138
f 1158 1137 1104
f 1158 1104 1098
f 1124 1085 1145
f 1124 1145 1043
f 1179 1184 1072
f 1179 1072 1060
f 1222 1178 1081
f 1222 1081 1203
f 1065 1052 1162
f 1065 1162 1195
f 1071 1222 1203
f 1071 1203 1205
f 1184 1065 1195
f 1184 1195 1072
f 1178 1179 1060
f 1178 1060 1081
f 1052 1124 1043
f 1052 1043 1162
f 1084 1157 1103
f 1084 1103 1045
f 1050 1083 1063
f 1050 1063 1059
f 1094 1139 1109
f 1094 1109 1193
f 1193 1109 1157
f 1193 1157 1084
f 1120 1131 1180
f 1120 1180 1130
f 1130 1180 1186
f 1130 1186 1064
f 1064 1186 1122
f 1064 1122 1151
f 1128 1196 1200
f 1128 1200 1074
f 1183 1217 1040
f 1183 1040 1156
f 1041 1183 1156
f 1041 1156 1177
f 1039 1041 1177
f 1039 1177 1174
f 1209 1114 1123
f 1209 1123 1100
f 1147 1209 1100
f 1147 1100 1215
f 1140 1147 1215
f 1140 1215 1126
f 1114 1039 1174
f 1114 1174 1123
f 1217 1192 1189
f 1217 1189 1040
f 1050 1059 1122
f 1050 1122 1186
f 1090 1050 1186
f 1090 1186 1180
f 1136 1090 1180
f 1136 1180 1131
f 1074 1181 1103
f 1074 1103 1157
f 1128 1074 1157
f 1128 1157 1109
f 1127 1128 1109
f 1127 1109 1139
f 1181 1136 1131
f 1181 1131 1103
f 1059 1189 1192
f 1059 1192 1122
f 1156 1040 1054
f 1156 1054 1055