o convex_0
v -0.001621 -0.005465 0.003700
v 0.000843 -0.089609 0.022711
v 0.000139 -0.089609 0.022711
v -0.000212 -0.096302 -0.000176
v 0.010701 -0.045605 0.011093
v -0.011129 -0.096292 0.012498
v -0.003029 -0.002291 0.018130
v 0.010701 -0.095947 0.006868
v -0.010072 -0.043141 0.006868
v 0.004716 -0.001946 0.016371
v 0.008237 -0.095947 0.019541
v 0.006476 -0.028354 0.004403
v -0.008663 -0.045260 0.018132
v -0.007606 -0.001591 0.011093
v -0.007255 -0.096302 0.002642
v 0.000490 -0.044550 0.022357
v -0.004789 -0.096292 0.021654
v 0.006123 -0.001591 0.008628
v -0.000212 -0.045615 0.000178
v 0.001546 -0.100176 0.011794
v 0.005420 -0.095937 0.001235
v 0.007533 -0.042796 0.018835
v -0.005142 -0.045260 0.001587
v 0.010701 -0.095947 0.015668
v -0.010776 -0.045260 0.013203
v -0.005495 -0.001591 0.006164
v 0.007533 -0.043495 0.003700
v -0.004438 -0.043495 0.021300
v -0.010072 -0.096292 0.016371
v -0.010423 -0.096292 0.006868
v 0.001546 -0.001591 0.004403
v 0.004363 -0.045605 0.021300
v -0.000212 -0.001591 0.018838
v 0.009644 -0.042796 0.015668
v 0.004010 -0.044550 0.001235
v -0.006902 -0.001946 0.014610
v 0.009644 -0.043141 0.006868
v -0.002325 0.000528 0.016019
v 0.004363 -0.095937 0.022006
v 0.006476 -0.001591 0.012146
v -0.007959 -0.043150 0.003697
v -0.006199 -0.099466 0.010741
v 0.000843 -0.099466 0.005107
v -0.007959 -0.096302 0.019541
v 0.011407 -0.095947 0.012498
v -0.010776 -0.045605 0.009332
v 0.001193 -0.099466 0.017429
v -0.003732 -0.095947 0.000530
v 0.008940 -0.095947 0.004051
v 0.000843 0.000528 0.006516
v -0.010072 -0.045260 0.016019
v 0.006827 -0.099111 0.012146
v -0.006902 -0.022726 0.017780
v 0.004010 0.000528 0.013553
v 0.001193 -0.093838 -0.000176
v -0.000915 -0.095947 0.022711
v -0.005495 0.000528 0.010741
v -0.007255 -0.003711 0.008277
v 0.004716 -0.002291 0.006164
v -0.000212 -0.002291 0.003697
v -0.004438 -0.099466 0.015668
v -0.007255 -0.044560 0.019541
v 0.003307 -0.024490 0.019893
v -0.004085 -0.025890 0.002642
f 41 26 64 
f 3 2 16 
f 11 22 32 
f 7 28 33 
f 28 16 33 
f 10 22 34 
f 22 11 34 
f 11 24 34 
f 12 27 35 
f 27 21 35 
f 14 25 36 
f 5 8 37 
f 18 5 37 
f 27 12 37 
f 7 33 38 
f 36 7 38 
f 16 2 39 
f 11 32 39 
f 32 16 39 
f 5 18 40 
f 34 5 40 
f 10 34 40 
f 23 15 41 
f 30 9 41 
f 15 30 41 
f 29 6 42 
f 6 30 42 
f 30 15 42 
f 4 21 43 
f 42 15 43 
f 20 42 43 
f 8 5 45 
f 5 34 45 
f 34 24 45 
f 6 25 46 
f 25 14 46 
f 30 6 46 
f 9 30 46 
f 11 39 47 
f 19 4 48 
f 15 23 48 
f 23 19 48 
f 4 43 48 
f 43 15 48 
f 21 27 49 
f 37 8 49 
f 27 37 49 
f 43 21 49 
f 25 6 51 
f 6 29 51 
f 36 25 51 
f 44 13 51 
f 29 44 51 
f 24 11 52 
f 20 43 52 
f 8 45 52 
f 45 24 52 
f 47 20 52 
f 11 47 52 
f 49 8 52 
f 43 49 52 
f 28 7 53 
f 7 36 53 
f 51 13 53 
f 36 51 53 
f 33 10 54 
f 38 33 54 
f 40 18 54 
f 10 40 54 
f 18 50 54 
f 50 38 54 
f 4 19 55 
f 21 4 55 
f 19 35 55 
f 35 21 55 
f 2 3 56 
f 3 16 56 
f 16 28 56 
f 28 17 56 
f 39 2 56 
f 17 47 56 
f 47 39 56 
f 26 14 57 
f 14 36 57 
f 36 38 57 
f 50 26 57 
f 38 50 57 
f 14 26 58 
f 41 9 58 
f 26 41 58 
f 9 46 58 
f 46 14 58 
f 12 35 59 
f 35 31 59 
f 18 37 59 
f 37 12 59 
f 50 18 59 
f 31 50 59 
f 19 1 60 
f 1 26 60 
f 35 19 60 
f 31 35 60 
f 26 50 60 
f 50 31 60 
f 42 20 61 
f 29 42 61 
f 17 44 61 
f 44 29 61 
f 20 47 61 
f 47 17 61 
f 17 28 62 
f 13 44 62 
f 44 17 62 
f 28 53 62 
f 53 13 62 
f 22 10 63 
f 16 32 63 
f 32 22 63 
f 10 33 63 
f 33 16 63 
f 1 19 64 
f 19 23 64 
f 26 1 64 
f 23 41 64 
o convex_1
v 0.004012 0.041721 0.011092
v -0.005494 0.000528 0.010740
v -0.005494 0.000528 0.011795
v -0.005143 0.069190 0.013204
v 0.001194 0.000528 0.016021
v 0.000843 0.000528 0.006515
v -0.003030 0.069190 0.007218
v 0.001546 0.069190 0.014963
v 0.001546 0.069190 0.007572
v 0.004012 0.000528 0.008980
v -0.002326 0.000528 0.016021
v -0.003030 0.000528 0.006867
v 0.004012 0.000528 0.013555
v -0.003030 0.069190 0.015317
v -0.005143 0.066724 0.009332
v 0.003308 0.068834 0.012499
v -0.004438 0.000528 0.014612
v 0.003308 0.060735 0.009332
v 0.000138 0.062147 0.015668
v -0.004438 0.018487 0.007923
v 0.002603 0.037850 0.014963
v 0.002955 0.008627 0.007572
v 0.001194 0.045593 0.006868
v -0.005494 0.064606 0.011093
v -0.004086 0.043133 0.014964
v -0.002678 0.045949 0.006867
v 0.004363 0.013211 0.011795
v -0.005143 0.000528 0.009332
v 0.003660 0.036795 0.013555
v -0.005143 0.000528 0.013555
v 0.000490 0.030470 0.016021
v -0.002678 0.052992 0.015668
v 0.002603 0.000528 0.015316
v 0.001546 0.037850 0.015668
v 0.002251 0.067429 0.014611
v 0.000138 0.055809 0.006868
v 0.003308 0.069190 0.010388
v -0.004086 0.035733 0.007571
v 0.002955 0.033280 0.007923
v -0.005494 0.037144 0.012499
v -0.004086 0.068834 0.007923
v -0.005143 0.038556 0.008980
v 0.004363 0.005461 0.010388
v -0.000565 0.004406 0.006515
v -0.005143 0.045243 0.013555
v 0.001899 0.000528 0.006868
v -0.004086 0.000528 0.007571
v 0.003660 0.043133 0.009332
v 0.000843 0.069190 0.007219
v -0.004438 0.069190 0.014260
v 0.003308 0.008627 0.014612
v 0.002603 0.069190 0.008628
v -0.005494 0.045949 0.010389
v -0.003030 0.036089 0.006867
v 0.001194 0.067429 0.015316
f 98 99 119 
f 67 66 69 
f 69 66 70 
f 71 68 72 
f 71 72 73 
f 69 70 74 
f 67 69 75 
f 70 66 76 
f 69 74 77 
f 72 68 78 
f 67 75 81 
f 66 67 88 
f 68 79 88 
f 81 75 89 
f 76 66 92 
f 65 80 93 
f 91 65 93 
f 77 91 93 
f 67 81 94 
f 75 69 95 
f 83 78 96 
f 78 89 96 
f 89 75 96 
f 75 95 96 
f 95 83 96 
f 69 77 97 
f 97 85 98 
f 95 69 98 
f 83 95 98 
f 69 97 98 
f 80 72 99 
f 93 80 99 
f 85 93 99 
f 98 85 99 
f 87 70 100 
f 90 71 100 
f 73 72 101 
f 72 80 101 
f 80 65 101 
f 65 82 101 
f 74 86 103 
f 87 73 103 
f 86 87 103 
f 88 67 104 
f 68 88 104 
f 67 94 104 
f 68 71 105 
f 79 68 105 
f 71 102 105 
f 105 102 106 
f 92 66 106 
f 84 92 106 
f 102 84 106 
f 79 105 106 
f 77 74 107 
f 65 91 107 
f 91 77 107 
f 70 76 108 
f 100 70 108 
f 90 100 108 
f 81 89 109 
f 94 81 109 
f 68 104 109 
f 104 94 109 
f 74 70 110 
f 86 74 110 
f 70 87 110 
f 87 86 110 
f 76 92 111 
f 92 84 111 
f 102 76 111 
f 84 102 111 
f 82 65 112 
f 103 82 112 
f 74 103 112 
f 107 74 112 
f 65 107 112 
f 71 73 113 
f 73 87 113 
f 100 71 113 
f 87 100 113 
f 78 68 114 
f 89 78 114 
f 68 109 114 
f 109 89 114 
f 77 93 115 
f 93 85 115 
f 97 77 115 
f 85 97 115 
f 73 101 116 
f 101 82 116 
f 103 73 116 
f 82 103 116 
f 66 88 117 
f 88 79 117 
f 106 66 117 
f 79 106 117 
f 71 90 118 
f 102 71 118 
f 76 102 118 
f 108 76 118 
f 90 108 118 
f 72 78 119 
f 78 83 119 
f 83 98 119 
f 99 72 119 
o convex_2
v -0.029792 0.082220 0.007572
v -0.031200 0.089964 0.017430
v -0.034016 0.089964 0.017430
v -0.033664 0.094893 0.007925
v -0.037536 0.081163 0.010036
v -0.038592 0.091371 0.006163
v -0.038592 0.093483 0.015316
v -0.028735 0.094189 0.013907
v -0.029440 0.081868 0.014612
v -0.037888 0.083277 0.016020
v -0.029792 0.090666 0.005459
v -0.037184 0.085036 0.005459
v -0.038240 0.095245 0.012498
v -0.028735 0.083630 0.007925
v -0.029440 0.085742 0.017077
v -0.030144 0.095596 0.009684
v -0.035776 0.080106 0.012146
v -0.030144 0.094893 0.014963
v -0.037536 0.086446 0.017430
v -0.028735 0.092076 0.007219
v -0.029440 0.085036 0.005810
v -0.036832 0.080811 0.008275
v -0.038945 0.093133 0.007572
v -0.029792 0.080811 0.010742
v -0.028735 0.082924 0.013907
v -0.037888 0.091723 0.017077
v -0.037888 0.091371 0.005459
v -0.036832 0.081868 0.015668
v -0.030144 0.092076 0.017077
v -0.030144 0.093133 0.006163
v -0.038240 0.086093 0.005810
v -0.038945 0.092076 0.015316
v -0.038240 0.094189 0.007572
v -0.032609 0.095951 0.010742
v -0.034719 0.082573 0.006515
v -0.037888 0.094189 0.015316
v -0.031200 0.083277 0.016373
v -0.028735 0.092427 0.015316
v -0.037184 0.084334 0.017077
v -0.038240 0.095245 0.010036
v -0.028735 0.094189 0.008980
v -0.036832 0.080811 0.014260
v -0.030144 0.095596 0.013204
v -0.032256 0.093483 0.016373
f 155 145 163 
f 121 122 138 
f 134 121 138 
f 127 133 139 
f 131 130 140 
f 133 120 140 
f 139 133 140 
f 130 139 140 
f 136 124 141 
f 126 132 142 
f 120 133 143 
f 128 136 143 
f 141 120 143 
f 136 141 143 
f 133 127 144 
f 134 128 144 
f 143 133 144 
f 128 143 144 
f 138 122 145 
f 130 131 146 
f 125 142 146 
f 122 121 148 
f 121 134 148 
f 145 122 148 
f 123 135 149 
f 139 130 149 
f 130 146 149 
f 124 129 150 
f 131 141 150 
f 141 124 150 
f 142 125 150 
f 125 146 150 
f 146 131 150 
f 129 138 151 
f 126 142 151 
f 145 126 151 
f 138 145 151 
f 150 129 151 
f 142 150 151 
f 146 142 152 
f 123 149 152 
f 149 146 152 
f 135 123 153 
f 140 120 154 
f 131 140 154 
f 120 141 154 
f 141 131 154 
f 132 126 155 
f 126 145 155 
f 128 134 156 
f 147 128 156 
f 127 137 157 
f 144 127 157 
f 134 144 157 
f 148 134 157 
f 137 148 157 
f 138 129 158 
f 134 138 158 
f 129 147 158 
f 156 134 158 
f 147 156 158 
f 142 132 159 
f 123 152 159 
f 152 142 159 
f 153 123 159 
f 132 153 159 
f 135 127 160 
f 127 139 160 
f 149 135 160 
f 139 149 160 
f 129 124 161 
f 124 136 161 
f 136 128 161 
f 147 129 161 
f 128 147 161 
f 127 135 162 
f 137 127 162 
f 135 153 162 
f 153 132 162 
f 132 155 162 
f 155 137 162 
f 148 137 163 
f 145 148 163 
f 137 155 163 
o convex_3
v -0.017820 0.095599 0.012851
v -0.028733 0.083275 0.011093
v -0.028733 0.083275 0.011444
v -0.017820 0.084684 0.014260
v -0.017820 0.086444 0.007219
v -0.028733 0.092076 0.007219
v -0.028733 0.092430 0.015316
v -0.017820 0.094190 0.007219
v -0.028733 0.085037 0.015316
v -0.017820 0.093485 0.015669
v -0.028733 0.094190 0.008980
v -0.028733 0.085388 0.007219
v -0.017820 0.084684 0.008276
v -0.017820 0.086797 0.015669
v -0.028733 0.094190 0.013556
v -0.018172 0.095599 0.009684
v -0.028733 0.083628 0.008628
v -0.026620 0.083628 0.013907
v -0.018172 0.095245 0.014260
f 164 178 182 
f 166 165 167 
f 164 167 168 
f 165 166 169 
f 169 166 170 
f 164 168 171 
f 168 169 171 
f 170 166 172 
f 170 172 173 
f 167 164 173 
f 169 170 174 
f 171 169 174 
f 165 169 175 
f 169 168 175 
f 167 165 176 
f 168 167 176 
f 175 168 176 
f 172 167 177 
f 173 172 177 
f 167 173 177 
f 174 170 178 
f 174 178 179 
f 164 171 179 
f 171 174 179 
f 178 164 179 
f 165 175 180 
f 176 165 180 
f 175 176 180 
f 166 167 181 
f 172 166 181 
f 167 172 181 
f 170 173 182 
f 173 164 182 
f 178 170 182 
o convex_4
v -0.014296 0.082923 0.010740
v -0.004790 0.100176 0.014259
v -0.004790 0.100176 0.008628
v 0.012111 0.087854 0.014963
v 0.012111 0.090318 0.006162
v -0.016056 0.094187 0.016372
v -0.016056 0.093836 0.006162
v 0.011756 0.098062 0.016372
v 0.004011 0.082923 0.016372
v 0.003659 0.082923 0.006162
v 0.011756 0.098062 0.006162
v -0.017817 0.086093 0.015316
v -0.017817 0.086444 0.007219
v -0.017817 0.095598 0.008628
v -0.008311 0.082923 0.016372
v -0.007959 0.082923 0.006162
v 0.006826 0.082923 0.009332
v -0.004438 0.099119 0.006162
v -0.017817 0.095598 0.013908
v 0.004362 0.099470 0.016019
v -0.007959 0.100176 0.008980
v 0.008587 0.099119 0.006868
v -0.004790 0.099119 0.016372
v 0.012111 0.087854 0.007572
v 0.012111 0.090318 0.016372
v -0.007959 0.100176 0.013555
v -0.017817 0.084684 0.014259
v -0.017817 0.084684 0.008628
v 0.012111 0.098062 0.016019
v 0.006474 0.082923 0.014611
v -0.015705 0.087501 0.016372
v -0.015705 0.087501 0.006162
v -0.009365 0.098415 0.006868
v -0.008662 0.099119 0.015316
v 0.005771 0.099470 0.015668
v -0.012887 0.082923 0.014963
v 0.012111 0.098062 0.006516
v -0.013238 0.082923 0.007924
v -0.017817 0.093836 0.015668
v -0.017817 0.093483 0.006868
v 0.010347 0.098766 0.015668
v 0.005420 0.099470 0.006868
v -0.016760 0.096302 0.012851
v 0.006474 0.082923 0.007924
f 206 199 226 
f 190 188 191 
f 189 187 192 
f 191 183 192 
f 187 189 193 
f 195 194 196 
f 191 188 197 
f 183 191 197 
f 192 183 198 
f 189 192 198 
f 191 192 199 
f 193 189 200 
f 196 194 201 
f 184 185 203 
f 185 200 203 
f 188 190 205 
f 202 184 205 
f 190 202 205 
f 187 186 206 
f 192 187 206 
f 186 199 206 
f 186 187 207 
f 190 191 207 
f 191 186 207 
f 184 203 208 
f 205 184 208 
f 194 195 209 
f 183 209 210 
f 209 195 210 
f 207 187 211 
f 190 207 211 
f 186 191 212 
f 199 186 212 
f 191 199 212 
f 197 188 213 
f 194 197 213 
f 189 198 214 
f 198 195 214 
f 189 196 215 
f 200 189 215 
f 203 200 215 
f 196 203 215 
f 201 188 216 
f 188 205 216 
f 208 201 216 
f 205 208 216 
f 185 184 217 
f 184 202 217 
f 183 197 218 
f 197 194 218 
f 209 183 218 
f 194 209 218 
f 187 193 219 
f 193 204 219 
f 211 187 219 
f 198 183 220 
f 195 198 220 
f 183 210 220 
f 210 195 220 
f 188 201 221 
f 201 194 221 
f 213 188 221 
f 194 213 221 
f 195 196 222 
f 196 189 222 
f 189 214 222 
f 214 195 222 
f 202 190 223 
f 190 211 223 
f 217 202 223 
f 204 217 223 
f 219 204 223 
f 211 219 223 
f 193 200 224 
f 200 185 224 
f 204 193 224 
f 185 217 224 
f 217 204 224 
f 196 201 225 
f 203 196 225 
f 208 203 225 
f 201 208 225 
f 199 192 226 
f 192 206 226 
o convex_5
v 0.038518 0.075178 0.007219
v 0.027956 0.084330 0.008276
v 0.027956 0.084330 0.014259
v 0.031478 0.084683 0.006867
v 0.032183 0.083977 0.015668
v 0.038518 0.073415 0.014964
v 0.037461 0.074472 0.006867
v 0.037815 0.076235 0.015668
v 0.028661 0.084683 0.015668
v 0.028661 0.084683 0.006867
v 0.032534 0.083626 0.007219
v 0.035350 0.077289 0.016021
v 0.036406 0.077995 0.006514
v 0.031478 0.084683 0.015668
v 0.038871 0.073415 0.007571
v 0.038871 0.074472 0.015316
f 232 241 242 
f 229 228 233 
f 232 229 233 
f 228 229 235 
f 233 228 236 
f 228 235 236 
f 235 230 236 
f 234 227 237 
f 231 234 237 
f 229 232 238 
f 234 231 238 
f 235 229 238 
f 227 233 239 
f 233 236 239 
f 236 230 239 
f 237 227 239 
f 230 237 239 
f 230 235 240 
f 237 230 240 
f 231 237 240 
f 238 231 240 
f 235 238 240 
f 233 227 241 
f 232 233 241 
f 227 234 242 
f 238 232 242 
f 234 238 242 
f 241 227 242 
o convex_6
v 0.005066 0.077289 0.013908
v -0.007605 0.082569 0.006162
v -0.011479 0.081513 0.007219
v -0.007605 0.082923 0.016372
v -0.006902 0.075176 0.012147
v 0.006122 0.082923 0.007924
v 0.000489 0.075176 0.006868
v 0.003657 0.082923 0.016372
v 0.000841 0.075176 0.015668
v -0.012534 0.082923 0.014963
v -0.004086 0.076233 0.016372
v 0.004714 0.075176 0.010037
v -0.004789 0.075529 0.006868
v 0.003657 0.082923 0.006162
v -0.013589 0.082923 0.010389
v 0.006825 0.082569 0.012498
v 0.001545 0.076586 0.006162
v -0.006550 0.075176 0.008980
v -0.010070 0.079752 0.015316
v 0.001545 0.076586 0.016372
v -0.003734 0.076233 0.006162
v -0.004789 0.075176 0.015316
v -0.013589 0.082569 0.012498
v 0.006122 0.081513 0.014611
v -0.012534 0.082923 0.007572
v 0.005066 0.075880 0.012851
v 0.005418 0.078346 0.008628
v -0.013589 0.082569 0.010389
v 0.006825 0.081866 0.011092
f 254 269 271 
f 248 246 250 
f 247 249 251 
f 246 248 252 
f 250 246 253 
f 251 249 254 
f 252 248 256 
f 252 256 257 
f 248 250 258 
f 254 249 259 
f 244 256 259 
f 256 248 259 
f 249 247 260 
f 245 255 260 
f 255 249 260 
f 246 252 261 
f 253 246 261 
f 250 253 262 
f 253 251 262 
f 245 244 263 
f 255 245 263 
f 249 255 263 
f 259 249 263 
f 244 259 263 
f 247 251 264 
f 251 253 264 
f 253 261 264 
f 261 247 264 
f 252 257 265 
f 261 252 265 
f 247 261 265 
f 258 250 266 
f 262 243 266 
f 250 262 266 
f 244 245 267 
f 256 244 267 
f 257 256 267 
f 251 254 268 
f 243 262 268 
f 262 251 268 
f 266 243 268 
f 258 266 268 
f 259 248 269 
f 254 259 269 
f 260 247 270 
f 245 260 270 
f 265 257 270 
f 247 265 270 
f 267 245 270 
f 257 267 270 
f 248 258 271 
f 268 254 271 
f 258 268 271 
f 269 248 271 
o convex_7
v 0.020914 0.089966 0.006162
v 0.013520 0.097710 0.016372
v 0.012816 0.098063 0.016019
v 0.012111 0.088206 0.015316
v 0.012111 0.097710 0.006162
v 0.020914 0.094894 0.016019
v 0.012111 0.088206 0.007219
v 0.020914 0.087500 0.014611
v 0.020914 0.095246 0.007219
v 0.020914 0.089966 0.016372
v 0.020914 0.087500 0.007924
v 0.012111 0.090318 0.016372
v 0.017391 0.097007 0.006868
v 0.012111 0.090318 0.006162
v 0.017391 0.097007 0.015668
v 0.012111 0.097710 0.016372
v 0.017744 0.096301 0.006162
v 0.013168 0.098063 0.006868
v 0.019152 0.087500 0.014611
f 282 279 290 
f 275 276 278 
f 272 277 279 
f 277 272 280 
f 277 273 281 
f 275 279 281 
f 279 277 281 
f 278 272 282 
f 272 279 282 
f 276 275 283 
f 281 273 283 
f 275 281 283 
f 276 272 285 
f 272 278 285 
f 278 276 285 
f 274 273 286 
f 273 277 286 
f 277 280 286 
f 280 284 286 
f 273 274 287 
f 274 276 287 
f 283 273 287 
f 276 283 287 
f 272 276 288 
f 280 272 288 
f 284 280 288 
f 284 288 289 
f 276 274 289 
f 274 286 289 
f 286 284 289 
f 288 276 289 
f 275 278 290 
f 279 275 290 
f 278 282 290 
o convex_8
v 0.023379 0.093837 0.007572
v 0.031124 0.085037 0.015668
v 0.031124 0.084684 0.015668
v 0.020915 0.089965 0.016372
v 0.020915 0.087501 0.007924
v 0.031124 0.084684 0.006868
v 0.020915 0.094893 0.015668
v 0.020915 0.094541 0.006516
v 0.027250 0.084684 0.013908
v 0.025843 0.091724 0.015316
v 0.020915 0.087501 0.014611
v 0.028659 0.088558 0.007219
v 0.021267 0.089613 0.006162
v 0.028307 0.084684 0.006868
v 0.024083 0.091724 0.016372
v 0.028307 0.084684 0.015668
v 0.024788 0.091020 0.006162
v 0.022324 0.094541 0.015316
v 0.031124 0.085389 0.015316
v 0.025140 0.092429 0.007219
v 0.021267 0.087148 0.008276
v 0.021619 0.094893 0.007219
f 310 298 312 
f 292 293 296 
f 295 294 297 
f 295 297 298 
f 296 293 299 
f 294 295 301 
f 295 298 303 
f 296 299 304 
f 295 303 304 
f 303 296 304 
f 293 292 305 
f 294 293 305 
f 297 294 305 
f 292 300 305 
f 293 294 306 
f 299 293 306 
f 294 301 306 
f 301 299 306 
f 302 296 307 
f 296 303 307 
f 303 298 307 
f 300 291 308 
f 297 305 308 
f 305 300 308 
f 292 296 309 
f 300 292 309 
f 296 302 309 
f 302 300 309 
f 291 300 310 
f 300 302 310 
f 307 298 310 
f 302 307 310 
f 301 295 311 
f 299 301 311 
f 295 304 311 
f 304 299 311 
f 298 297 312 
f 297 308 312 
f 308 291 312 
f 291 310 312 
o convex_9
v 0.000491 0.072710 0.016021
v -0.003029 0.069895 0.006515
v -0.003029 0.069190 0.007219
v -0.006551 0.075176 0.013555
v 0.004364 0.075176 0.009332
v 0.001194 0.069190 0.015316
v -0.004086 0.075176 0.007219
v -0.004790 0.069543 0.014611
v 0.002250 0.069895 0.007219
v 0.004364 0.075176 0.013204
v -0.005847 0.069895 0.009332
v 0.004010 0.069895 0.012499
v -0.003029 0.075176 0.015668
v 0.000491 0.075176 0.006868
v -0.006551 0.075176 0.008980
v -0.003381 0.069895 0.016021
v 0.002956 0.069190 0.008980
v -0.005493 0.069190 0.012146
v 0.001899 0.069895 0.015668
v 0.000842 0.075176 0.015668
v -0.006197 0.069895 0.011795
v 0.001194 0.069895 0.006515
v 0.003660 0.069895 0.008980
f 324 329 335 
f 316 317 319 
f 317 316 322 
f 314 315 323 
f 317 322 324 
f 322 316 325 
f 314 319 326 
f 319 317 326 
f 319 314 327 
f 316 319 327 
f 314 323 327 
f 316 320 328 
f 320 318 328 
f 325 316 328 
f 313 325 328 
f 318 315 329 
f 324 318 329 
f 315 318 330 
f 318 320 330 
f 323 315 330 
f 318 324 331 
f 324 322 331 
f 313 328 331 
f 328 318 331 
f 325 313 332 
f 322 325 332 
f 313 331 332 
f 331 322 332 
f 320 316 333 
f 316 327 333 
f 327 323 333 
f 330 320 333 
f 323 330 333 
f 315 314 334 
f 317 321 334 
f 314 326 334 
f 326 317 334 
f 329 315 334 
f 321 329 334 
f 321 317 335 
f 317 324 335 
f 329 321 335 
