o convex_0
v 0.012347 -0.065226 0.011178
v -0.010011 -0.083116 0.008741
v -0.010011 -0.083116 0.009957
v -0.006351 0.074187 0.007117
v 0.004622 -0.077022 0.000203
v 0.006655 0.072958 0.014430
v -0.004725 -0.088817 0.017681
v 0.007469 0.073368 0.004676
v -0.006351 -0.035148 0.001018
v 0.008688 -0.094894 0.016462
v -0.005132 0.072548 0.014023
v 0.009500 -0.094894 0.002644
v -0.006351 -0.097335 0.002644
v 0.003810 -0.019683 0.018088
v -0.001880 0.072139 0.003457
v -0.008384 -0.033919 0.016055
v 0.009500 -0.022141 0.001831
v 0.010721 -0.020126 0.015242
v 0.011940 -0.022550 0.007115
v -0.010011 -0.028252 0.008336
v 0.004215 -0.014408 0.000612
v -0.005537 -0.099794 0.013617
v 0.008688 0.074187 0.010365
v -0.004725 -0.020092 0.017681
v -0.009196 -0.048566 0.003457
v -0.000659 0.069715 0.015242
v 0.010314 -0.098155 0.007928
v 0.008281 -0.044895 0.017681
v 0.002184 -0.071730 0.018496
v -0.008384 -0.092863 0.014836
v 0.011533 -0.079053 0.004270
v -0.009603 -0.024991 0.012804
v -0.002285 -0.091258 0.000612
v -0.001880 -0.031478 0.000203
v -0.005132 0.074187 0.004676
v 0.011126 -0.084738 0.014836
v 0.005436 -0.099794 0.003457
v 0.005029 0.069715 0.003457
v -0.006351 0.074187 0.011178
v -0.007977 -0.084328 0.002237
v 0.005436 -0.099384 0.015649
v 0.011940 -0.025811 0.011991
v -0.008789 -0.023779 0.003457
v 0.011126 -0.022960 0.003863
v -0.008789 -0.096533 0.007523
v 0.008688 -0.070928 0.001018
v -0.000254 -0.094911 0.017681
v 0.011533 -0.093682 0.010363
v 0.008281 0.074187 0.006304
v -0.008789 -0.071730 0.015649
v 0.004622 -0.095321 0.001018
v -0.004725 -0.051007 0.018088
v 0.007469 -0.084755 0.017681
v 0.008281 0.074187 0.012397
v -0.001473 -0.019307 0.018088
v 0.006655 -0.027415 0.000612
v -0.003099 -0.069306 0.000203
v 0.008281 -0.020502 0.017275
v 0.005029 0.073777 0.014836
v -0.004318 -0.100203 0.005083
v 0.010721 -0.065226 0.016055
v 0.007062 -0.100203 0.012395
v -0.006351 -0.017651 0.001424
v -0.009603 -0.079855 0.005083
f 40 45 64 
f 2 3 20 
f 11 16 24 
f 11 24 26 
f 28 14 29 
f 19 1 31 
f 16 11 32 
f 20 3 32 
f 15 21 34 
f 8 15 35 
f 4 23 35 
f 12 27 37 
f 15 8 38 
f 8 17 38 
f 21 15 38 
f 4 20 39 
f 23 4 39 
f 32 11 39 
f 20 32 39 
f 25 9 40 
f 33 13 40 
f 1 19 42 
f 19 23 42 
f 20 4 43 
f 9 25 43 
f 25 20 43 
f 4 35 43 
f 17 8 44 
f 31 17 44 
f 19 31 44 
f 3 2 45 
f 30 3 45 
f 22 30 45 
f 40 13 45 
f 31 12 46 
f 17 31 46 
f 29 7 47 
f 7 30 47 
f 30 22 47 
f 41 10 47 
f 22 41 47 
f 10 27 48 
f 27 12 48 
f 12 31 48 
f 31 1 48 
f 1 36 48 
f 36 10 48 
f 23 19 49 
f 8 35 49 
f 35 23 49 
f 44 8 49 
f 19 44 49 
f 3 30 50 
f 30 7 50 
f 16 32 50 
f 32 3 50 
f 33 5 51 
f 13 33 51 
f 37 13 51 
f 12 37 51 
f 5 46 51 
f 46 12 51 
f 24 16 52 
f 7 29 52 
f 50 7 52 
f 16 50 52 
f 28 29 53 
f 29 47 53 
f 47 10 53 
f 6 18 54 
f 23 39 54 
f 18 42 54 
f 42 23 54 
f 14 26 55 
f 26 24 55 
f 29 14 55 
f 24 52 55 
f 52 29 55 
f 5 34 56 
f 34 21 56 
f 38 17 56 
f 21 38 56 
f 46 5 56 
f 17 46 56 
f 5 33 57 
f 9 34 57 
f 34 5 57 
f 40 9 57 
f 33 40 57 
f 18 6 58 
f 14 28 58 
f 11 26 59 
f 26 14 59 
f 39 11 59 
f 6 54 59 
f 54 39 59 
f 58 6 59 
f 14 58 59 
f 13 37 60 
f 45 13 60 
f 22 45 60 
f 36 1 61 
f 10 36 61 
f 1 42 61 
f 42 18 61 
f 28 53 61 
f 53 10 61 
f 18 58 61 
f 58 28 61 
f 27 10 62 
f 37 27 62 
f 10 41 62 
f 41 22 62 
f 60 37 62 
f 22 60 62 
f 34 9 63 
f 15 34 63 
f 35 15 63 
f 9 43 63 
f 43 35 63 
f 2 20 64 
f 20 25 64 
f 25 40 64 
f 45 2 64 
o convex_1
v -0.043748 0.081913 0.010771
v -0.032368 0.100203 0.010771
v -0.032368 0.100203 0.007521
v -0.020173 0.083944 0.006303
v -0.043342 0.091664 -0.000203
v -0.042936 0.093699 0.018495
v -0.020173 0.087604 0.016056
v -0.020173 0.094103 0.002643
v -0.020173 0.097357 0.012396
v -0.043342 0.099388 0.005084
v -0.032368 0.085571 0.001020
v -0.032368 0.083130 0.015243
v -0.042529 0.082321 0.004268
v -0.042936 0.086792 0.018089
v -0.031558 0.094916 0.018089
v -0.043342 0.098574 0.014835
v -0.031962 0.094509 0.000204
v -0.031962 0.081505 0.006301
v -0.020173 0.083944 0.012396
v -0.031962 0.088010 0.018495
v -0.020173 0.087604 0.002643
v -0.020173 0.097357 0.005897
v -0.020173 0.093697 0.016056
v -0.032368 0.098170 0.003049
v -0.032368 0.098980 0.014431
v -0.031962 0.081505 0.011988
v -0.043748 0.087198 0.001020
v -0.032368 0.089231 -0.000203
v -0.042936 0.096543 0.001424
v -0.043748 0.099388 0.011584
v -0.043342 0.083540 0.015648
v -0.043748 0.092070 0.018089
v -0.042123 0.081098 0.009959
v -0.042123 0.100203 0.011584
v -0.042936 0.087198 0.000204
v -0.031962 0.082726 0.003863
v -0.031962 0.085979 0.017681
v -0.042123 0.096951 0.016868
v -0.042529 0.090450 0.018902
v -0.031962 0.099796 0.005491
v -0.042936 0.083944 0.002237
v -0.043748 0.096951 0.002645
v -0.042123 0.081505 0.012398
v -0.031962 0.093699 0.018495
v -0.042529 0.100203 0.007115
v -0.043342 0.081913 0.005491
v -0.031558 0.087198 0.000204
v -0.031558 0.099796 0.012804
v -0.031962 0.096137 0.017274
v -0.032368 0.092478 -0.000203
v -0.042529 0.092885 -0.000203
v -0.042936 0.098574 0.003457
v -0.031152 0.081913 0.013208
v -0.042529 0.085163 0.017274
v -0.032368 0.096951 0.001831
v -0.043748 0.087602 0.017681
f 103 96 120 
f 71 68 72 
f 67 66 73 
f 71 72 73 
f 68 71 83 
f 71 76 83 
f 82 68 83 
f 72 68 85 
f 67 73 86 
f 73 72 86 
f 71 73 87 
f 84 71 87 
f 86 72 88 
f 82 83 90 
f 72 85 92 
f 91 65 94 
f 70 80 96 
f 94 65 96 
f 80 94 96 
f 82 90 97 
f 66 67 98 
f 80 89 98 
f 94 80 98 
f 91 69 99 
f 69 92 99 
f 68 82 100 
f 82 77 100 
f 85 68 100 
f 75 85 100 
f 76 71 101 
f 71 84 101 
f 84 78 101 
f 70 79 102 
f 80 70 102 
f 89 80 102 
f 78 84 103 
f 70 96 103 
f 67 86 104 
f 86 88 104 
f 99 75 105 
f 91 99 105 
f 75 100 105 
f 100 77 105 
f 69 91 106 
f 93 69 106 
f 94 74 106 
f 91 94 106 
f 76 95 107 
f 95 65 107 
f 65 97 107 
f 97 90 107 
f 79 70 108 
f 87 79 108 
f 84 87 108 
f 70 103 108 
f 103 84 108 
f 74 94 109 
f 98 67 109 
f 94 98 109 
f 67 104 109 
f 104 74 109 
f 77 82 110 
f 65 91 110 
f 97 65 110 
f 82 97 110 
f 105 77 110 
f 91 105 110 
f 85 75 111 
f 92 85 111 
f 75 99 111 
f 99 92 111 
f 73 66 112 
f 89 73 112 
f 66 98 112 
f 98 89 112 
f 87 73 113 
f 79 87 113 
f 73 89 113 
f 102 79 113 
f 89 102 113 
f 81 72 114 
f 72 92 114 
f 92 69 114 
f 69 93 115 
f 93 81 115 
f 81 114 115 
f 114 69 115 
f 88 93 116 
f 74 104 116 
f 104 88 116 
f 93 106 116 
f 106 74 116 
f 83 76 117 
f 90 83 117 
f 76 107 117 
f 107 90 117 
f 78 95 118 
f 95 76 118 
f 76 101 118 
f 101 78 118 
f 72 81 119 
f 88 72 119 
f 81 93 119 
f 93 88 119 
f 95 78 120 
f 65 95 120 
f 96 65 120 
f 78 103 120 
o convex_2
v -0.005538 0.074187 0.005082
v 0.012751 0.099797 0.013210
v 0.017629 0.099388 0.016463
v -0.020173 0.094101 0.016055
v -0.009194 0.099797 0.001829
v 0.021290 0.083946 0.001829
v 0.009094 0.075004 0.016463
v 0.020880 0.098576 0.001829
v -0.020173 0.088005 0.002236
v -0.007165 0.075004 0.016463
v 0.021290 0.083946 0.016463
v 0.009094 0.075004 0.001829
v -0.009600 0.099797 0.016463
v -0.020173 0.083944 0.012398
v -0.020173 0.097764 0.006303
v -0.006759 0.075004 0.001829
v 0.021290 0.098576 0.016463
v 0.008688 0.074187 0.009959
v -0.020173 0.083944 0.005895
v -0.018546 0.087601 0.016463
v 0.012751 0.099797 0.002236
v -0.017730 0.093698 0.001829
v -0.020173 0.097764 0.012398
v -0.007977 0.075004 0.007115
v -0.002287 0.074187 0.014835
v -0.014885 0.099388 0.005895
v -0.020173 0.093698 0.002236
v -0.020173 0.087601 0.016055
v 0.021290 0.098576 0.002236
v 0.005433 0.074187 0.003862
v 0.009906 0.075004 0.005082
v -0.012449 0.099797 0.013617
v 0.009906 0.075004 0.013617
v 0.017223 0.099388 0.001829
v -0.006349 0.074187 0.011178
v -0.007977 0.075004 0.011178
v 0.006249 0.074187 0.014431
v 0.012345 0.099797 0.016463
v -0.017730 0.087601 0.001829
v -0.018546 0.093698 0.016463
f 140 133 160 
f 126 125 128 
f 127 123 130 
f 123 127 131 
f 125 126 132 
f 122 125 133 
f 130 123 133 
f 124 129 134 
f 129 124 135 
f 125 132 136 
f 123 131 137 
f 131 126 137 
f 134 129 139 
f 129 136 139 
f 130 133 140 
f 122 123 141 
f 125 122 141 
f 125 136 142 
f 124 133 143 
f 135 124 143 
f 136 121 144 
f 134 139 144 
f 139 136 144 
f 127 130 145 
f 121 138 145 
f 125 135 146 
f 135 143 146 
f 129 135 147 
f 135 125 147 
f 142 129 147 
f 125 142 147 
f 124 134 148 
f 134 130 148 
f 140 124 148 
f 130 140 148 
f 126 128 149 
f 123 137 149 
f 137 126 149 
f 121 136 150 
f 136 132 150 
f 138 121 150 
f 132 138 150 
f 126 131 151 
f 132 126 151 
f 138 132 151 
f 133 125 152 
f 143 133 152 
f 125 146 152 
f 146 143 152 
f 131 127 153 
f 127 138 153 
f 151 131 153 
f 138 151 153 
f 128 125 154 
f 141 123 154 
f 125 141 154 
f 149 128 154 
f 123 149 154 
f 144 121 155 
f 145 130 155 
f 121 145 155 
f 130 134 156 
f 134 144 156 
f 144 155 156 
f 155 130 156 
f 138 127 157 
f 127 145 157 
f 145 138 157 
f 123 122 158 
f 133 123 158 
f 122 133 158 
f 136 129 159 
f 129 142 159 
f 142 136 159 
f 133 124 160 
f 124 140 160 
o convex_3
v 0.035111 0.091257 0.002642
v 0.021290 0.083946 0.001829
v 0.021290 0.083946 0.007927
v 0.043648 0.074598 0.004268
v 0.022107 0.098171 0.007927
v 0.043239 0.077037 0.008333
v 0.021290 0.098171 0.001829
v 0.033075 0.092886 0.007927
v 0.039173 0.085571 0.002236
v 0.042425 0.074187 0.007114
v 0.030235 0.094915 0.001829
v 0.042020 0.074598 0.003455
v 0.039173 0.085571 0.007927
v 0.029830 0.083134 0.001829
v 0.041615 0.075004 0.008333
v 0.021290 0.098171 0.007927
v 0.041208 0.081911 0.002642
v 0.026168 0.096948 0.007114
v 0.036330 0.079882 0.002236
v 0.024949 0.097354 0.001829
v 0.043648 0.076220 0.003455
v 0.036735 0.089224 0.007520
v 0.039582 0.080695 0.008333
f 176 163 183 
f 162 163 167 
f 163 162 170 
f 164 166 170 
f 162 167 171 
f 168 161 171 
f 161 169 171 
f 170 162 172 
f 164 170 172 
f 168 166 173 
f 162 171 174 
f 171 169 174 
f 163 170 175 
f 170 166 175 
f 167 163 176 
f 165 167 176 
f 173 166 177 
f 169 173 177 
f 165 168 178 
f 168 171 178 
f 172 162 179 
f 162 174 179 
f 174 169 179 
f 169 177 179 
f 167 165 180 
f 171 167 180 
f 165 178 180 
f 178 171 180 
f 166 164 181 
f 164 172 181 
f 177 166 181 
f 172 179 181 
f 179 177 181 
f 161 168 182 
f 169 161 182 
f 168 173 182 
f 173 169 182 
f 168 165 183 
f 166 168 183 
f 163 175 183 
f 175 166 183 
f 165 176 183 
o convex_4
v 0.035516 0.090447 0.016463
v 0.021290 0.083946 0.010773
v 0.029421 0.082728 0.010366
v 0.022107 0.098171 0.010773
v 0.021290 0.083946 0.016463
v 0.043648 0.074598 0.011179
v 0.021290 0.098171 0.016463
v 0.041615 0.075004 0.015243
v 0.036330 0.089224 0.010366
v 0.040394 0.083134 0.016056
v 0.031047 0.094508 0.011179
v 0.042020 0.074598 0.010366
v 0.026168 0.096948 0.016463
v 0.033892 0.081101 0.016463
v 0.040801 0.082728 0.010773
v 0.043648 0.076220 0.014837
v 0.021290 0.098171 0.010773
v 0.042425 0.074187 0.013212
v 0.033892 0.092475 0.016056
v 0.043648 0.076220 0.010366
v 0.037954 0.087602 0.015650
v 0.026985 0.096544 0.010773
v 0.036735 0.089224 0.011179
v 0.033892 0.091663 0.010366
v 0.031047 0.094508 0.016463
f 205 196 208 
f 188 184 190 
f 185 188 190 
f 185 186 195 
f 186 192 195 
f 187 190 196 
f 190 184 196 
f 184 188 197 
f 188 191 197 
f 193 184 197 
f 191 193 197 
f 193 191 199 
f 198 193 199 
f 186 185 200 
f 185 190 200 
f 190 187 200 
f 188 185 201 
f 191 188 201 
f 185 195 201 
f 195 189 201 
f 189 199 201 
f 199 191 201 
f 189 195 203 
f 195 192 203 
f 192 198 203 
f 199 189 203 
f 198 199 203 
f 184 193 204 
f 193 198 204 
f 202 184 204 
f 187 196 205 
f 198 192 206 
f 194 202 206 
f 204 198 206 
f 202 204 206 
f 192 186 207 
f 186 200 207 
f 200 187 207 
f 187 205 207 
f 205 194 207 
f 206 192 207 
f 194 206 207 
f 196 184 208 
f 184 202 208 
f 202 194 208 
f 194 205 208 
