o convex_0
v 0.006694 -0.063494 0.013214
v -0.011846 -0.098615 0.012821
v -0.011057 -0.099005 0.010455
v -0.009874 -0.000394 0.010848
v -0.002772 -0.007897 0.018736
v 0.000776 -0.000394 0.008088
v 0.001171 -0.098615 0.019131
v -0.000803 -0.098615 0.006903
v 0.004721 -0.000394 0.015582
v -0.009478 -0.067050 0.017554
v 0.005905 -0.099406 0.010455
v -0.006322 -0.059557 0.007299
v -0.009874 -0.000394 0.015186
v -0.006322 -0.098615 0.019131
v 0.004721 -0.000394 0.010850
v 0.005905 -0.099005 0.015975
v 0.003932 -0.061140 0.008482
v -0.003166 -0.000394 0.007694
v 0.003142 -0.000394 0.017159
v -0.006322 -0.000394 0.017948
v -0.009084 -0.099005 0.008482
v -0.011057 -0.099406 0.015582
v -0.011846 -0.068242 0.013609
v -0.008295 -0.000394 0.009272
v 0.001171 -0.067832 0.019131
v 0.004326 -0.063904 0.017552
v -0.003166 -0.066659 0.019525
v -0.011057 -0.061931 0.010455
v -0.000803 -0.067050 0.006903
v -0.006322 -0.099406 0.007299
v -0.001197 -0.100197 0.018736
v 0.001565 -0.098615 0.007299
v 0.005905 -0.059166 0.010455
v -0.006322 -0.068633 0.019131
v -0.011057 -0.067832 0.015975
v -0.000014 -0.000394 0.018342
v -0.009084 -0.063103 0.008482
v -0.008295 -0.002768 0.017159
v 0.005905 -0.064686 0.015975
v 0.005509 -0.006315 0.012821
v -0.004745 -0.100197 0.007694
v -0.010661 -0.009871 0.012821
v 0.006694 -0.098615 0.012427
v -0.004351 -0.067832 0.006903
v -0.005928 -0.000394 0.008088
v 0.001565 -0.068242 0.007299
v -0.009478 -0.098615 0.017554
v 0.003538 -0.009871 0.009272
v 0.005509 -0.100197 0.010850
v -0.001985 -0.098615 0.019525
v -0.011057 -0.100197 0.012821
v 0.004326 -0.099005 0.017552
v 0.003932 -0.099005 0.008482
v -0.001985 -0.065868 0.019525
v -0.005139 -0.000394 0.018342
v -0.011846 -0.067050 0.012821
v 0.006694 -0.064686 0.013609
v -0.002380 -0.054037 0.006903
v -0.008690 -0.100197 0.017158
v -0.009874 -0.003560 0.015582
v 0.005509 -0.100197 0.015186
v -0.004351 -0.098615 0.006903
v -0.011057 -0.098615 0.015975
v 0.006298 -0.098615 0.015186
f 61 43 64 
f 6 4 9 
f 9 4 13 
f 6 9 15 
f 4 6 18 
f 9 13 19 
f 19 13 20 
f 4 18 24 
f 19 25 26 
f 9 19 26 
f 25 7 26 
f 3 2 28 
f 21 3 28 
f 4 24 28 
f 21 12 30 
f 8 29 32 
f 11 17 33 
f 10 14 34 
f 14 27 34 
f 19 20 36 
f 25 19 36 
f 12 21 37 
f 21 28 37 
f 28 24 37 
f 20 13 38 
f 10 34 38 
f 34 20 38 
f 9 26 39 
f 26 16 39 
f 15 9 40 
f 1 33 40 
f 33 15 40 
f 30 8 41 
f 21 30 41 
f 8 32 41 
f 13 4 42 
f 4 28 42 
f 33 1 43 
f 11 33 43 
f 12 18 44 
f 29 8 44 
f 30 12 44 
f 18 12 45 
f 24 18 45 
f 12 37 45 
f 37 24 45 
f 6 17 46 
f 29 6 46 
f 17 32 46 
f 32 29 46 
f 14 10 47 
f 10 35 47 
f 6 15 48 
f 17 6 48 
f 15 33 48 
f 33 17 48 
f 31 41 49 
f 11 43 49 
f 7 25 50 
f 27 14 50 
f 31 7 50 
f 14 31 50 
f 2 3 51 
f 3 21 51 
f 22 2 51 
f 21 41 51 
f 41 31 51 
f 16 26 52 
f 26 7 52 
f 7 31 52 
f 17 11 53 
f 32 17 53 
f 41 32 53 
f 11 49 53 
f 49 41 53 
f 5 27 54 
f 36 5 54 
f 25 36 54 
f 50 25 54 
f 27 50 54 
f 27 5 55 
f 20 34 55 
f 34 27 55 
f 5 36 55 
f 36 20 55 
f 2 23 56 
f 28 2 56 
f 23 42 56 
f 42 28 56 
f 9 39 57 
f 1 40 57 
f 40 9 57 
f 43 1 57 
f 18 6 58 
f 6 29 58 
f 44 18 58 
f 29 44 58 
f 31 14 59 
f 14 47 59 
f 47 22 59 
f 22 51 59 
f 51 31 59 
f 35 10 60 
f 23 35 60 
f 38 13 60 
f 10 38 60 
f 13 42 60 
f 42 23 60 
f 31 49 61 
f 49 43 61 
f 16 52 61 
f 52 31 61 
f 8 30 62 
f 44 8 62 
f 30 44 62 
f 2 22 63 
f 23 2 63 
f 35 23 63 
f 22 47 63 
f 47 35 63 
f 39 16 64 
f 57 39 64 
f 43 57 64 
f 16 61 64 
o convex_1
v 0.005905 0.056403 0.015580
v -0.011846 0.070210 0.012821
v -0.011057 0.064693 0.010454
v -0.007901 -0.000394 0.017158
v 0.000776 -0.000394 0.008088
v 0.001565 0.071785 0.007299
v -0.003168 0.071785 0.019525
v 0.003142 -0.000394 0.017159
v -0.008295 -0.000394 0.009272
v 0.005115 0.000796 0.011638
v -0.006322 0.072185 0.007300
v 0.006694 0.071793 0.012427
v -0.009478 0.071785 0.017554
v -0.010268 0.000796 0.014398
v 0.003536 0.072185 0.017948
v -0.002380 0.005921 0.018736
v -0.003168 -0.000394 0.007694
v 0.004326 0.060352 0.008878
v -0.008690 0.073767 0.012427
v 0.001171 0.071001 0.019131
v -0.010268 -0.000394 0.012033
v 0.005115 -0.000394 0.014398
v -0.005928 0.007496 0.018342
v -0.001986 0.057593 0.006903
v -0.011057 0.071785 0.015975
v 0.003142 0.073767 0.011244
v -0.009084 0.071785 0.008482
v -0.002772 0.073767 0.017552
v 0.002749 0.002763 0.008878
v -0.000012 -0.000394 0.018342
v -0.005928 -0.000394 0.008088
v -0.005928 0.067844 0.019130
v 0.005905 0.072185 0.010454
v -0.009872 0.001188 0.015580
v 0.005905 0.071793 0.015976
v 0.005115 0.012629 0.010850
v -0.004349 0.070609 0.006903
v 0.006694 0.067060 0.013609
v -0.003956 0.073767 0.008878
v -0.009872 -0.000394 0.010848
v 0.004721 -0.000394 0.015582
v 0.004326 0.066660 0.017552
v -0.008295 0.000397 0.017158
v 0.005509 0.004346 0.012821
v -0.011846 0.071785 0.013609
v -0.005139 -0.000394 0.018342
v 0.003142 0.073767 0.015186
v -0.008690 0.063503 0.017948
v -0.009084 0.065869 0.008482
v -0.011057 0.072185 0.010454
v -0.006322 0.061535 0.007300
v -0.008295 0.072976 0.017554
v -0.010661 0.007896 0.013214
v 0.000776 0.005921 0.018342
v -0.001986 0.068635 0.019525
v 0.003932 0.072185 0.008482
v 0.005905 0.061136 0.010454
v -0.002380 0.072569 0.006903
v 0.003142 -0.000394 0.009272
v -0.008690 0.028803 0.008878
v 0.003536 0.026037 0.008878
v -0.001591 0.000796 0.007694
v 0.001171 0.059960 0.007299
v 0.003536 0.061535 0.017948
f 84 118 128 
f 68 69 72 
f 69 68 73 
f 69 73 81 
f 79 71 84 
f 66 67 85 
f 73 68 85 
f 68 78 85 
f 72 69 86 
f 71 79 92 
f 90 83 92 
f 68 72 94 
f 81 73 95 
f 71 77 96 
f 90 76 97 
f 78 68 98 
f 89 78 98 
f 76 74 100 
f 88 81 101 
f 65 86 102 
f 99 65 102 
f 76 99 102 
f 83 90 103 
f 85 67 104 
f 73 85 104 
f 86 65 105 
f 72 86 105 
f 65 99 105 
f 105 99 106 
f 99 79 106 
f 72 105 106 
f 77 89 107 
f 98 68 107 
f 89 98 107 
f 74 76 108 
f 86 74 108 
f 76 102 108 
f 102 86 108 
f 78 89 109 
f 89 83 109 
f 80 71 110 
f 68 94 110 
f 94 80 110 
f 71 96 110 
f 96 87 110 
f 107 68 110 
f 87 107 110 
f 76 90 111 
f 92 79 111 
f 90 92 111 
f 99 76 111 
f 79 99 111 
f 96 77 112 
f 87 96 112 
f 107 87 112 
f 77 107 112 
f 67 91 113 
f 91 75 113 
f 67 66 114 
f 91 67 114 
f 75 91 114 
f 103 75 114 
f 83 103 114 
f 66 109 114 
f 109 83 114 
f 81 95 115 
f 75 101 115 
f 101 81 115 
f 113 75 115 
f 77 71 116 
f 89 77 116 
f 83 89 116 
f 71 92 116 
f 92 83 116 
f 66 85 117 
f 85 78 117 
f 109 66 117 
f 78 109 117 
f 94 72 118 
f 80 94 118 
f 71 80 119 
f 84 71 119 
f 118 84 119 
f 80 118 119 
f 90 97 120 
f 97 76 121 
f 76 100 121 
f 82 120 121 
f 120 97 121 
f 70 88 122 
f 101 75 122 
f 88 101 122 
f 75 103 122 
f 103 90 122 
f 120 70 122 
f 90 120 122 
f 86 69 123 
f 74 86 123 
f 69 93 123 
f 100 74 123 
f 95 73 124 
f 104 67 124 
f 73 104 124 
f 67 113 124 
f 115 95 124 
f 113 115 124 
f 70 120 125 
f 120 82 125 
f 121 100 125 
f 82 121 125 
f 123 93 125 
f 100 123 125 
f 69 81 126 
f 81 88 126 
f 126 88 127 
f 88 70 127 
f 93 69 127 
f 70 125 127 
f 125 93 127 
f 69 126 127 
f 79 84 128 
f 106 79 128 
f 72 106 128 
f 118 72 128 
o convex_2
v 0.033518 0.085210 0.001777
v 0.041801 0.089149 0.024655
v 0.038645 0.089149 0.024655
v 0.042196 0.099014 0.011639
v 0.021290 0.094672 0.016763
v 0.024841 0.076532 0.016763
v 0.042986 0.077321 0.008484
v 0.024841 0.092701 0.002568
v 0.024448 0.079291 0.004935
v 0.042591 0.092307 0.002565
v 0.024841 0.092307 0.023862
v 0.042591 0.079291 0.021497
v 0.024841 0.082841 0.023862
v 0.042986 0.097435 0.018340
v 0.025631 0.098615 0.013608
v 0.021290 0.079688 0.009667
v 0.042196 0.082447 0.002565
v 0.021290 0.083631 0.020707
v 0.024841 0.096250 0.005329
v 0.021290 0.090728 0.005329
v 0.041801 0.075740 0.012824
v 0.024841 0.095856 0.021495
v 0.024841 0.076924 0.008090
v 0.024841 0.083631 0.002173
v 0.041801 0.095462 0.021891
v 0.042986 0.096250 0.006117
v 0.042986 0.083634 0.023468
v 0.024841 0.078897 0.021495
v 0.042196 0.076924 0.018342
v 0.034701 0.098221 0.017948
v 0.041801 0.078900 0.004932
v 0.041801 0.087965 0.001381
v 0.041801 0.082447 0.023864
v 0.024841 0.086789 0.024655
v 0.025236 0.097829 0.008090
v 0.021290 0.090334 0.021101
v 0.021290 0.094672 0.009667
v 0.041801 0.096647 0.005721
v 0.021290 0.084025 0.005329
v 0.021290 0.079688 0.016763
v 0.024841 0.088755 0.001777
v 0.024841 0.076138 0.012034
v 0.042591 0.091910 0.023864
v 0.042986 0.086393 0.002171
v 0.024841 0.097829 0.017946
v 0.041801 0.076532 0.008876
v 0.041801 0.098221 0.008088
v 0.041801 0.099014 0.014790
v 0.024841 0.079291 0.004538
v 0.041801 0.095066 0.004144
v 0.041801 0.085996 0.024655
v 0.042986 0.076924 0.016367
v 0.024053 0.097829 0.012822
v 0.041801 0.097829 0.018734
v 0.041801 0.091910 0.002171
v 0.039828 0.075740 0.013608
v 0.029179 0.076924 0.018340
v 0.024841 0.082447 0.002568
v 0.024841 0.085998 0.001777
v 0.034701 0.099014 0.012824
v 0.042986 0.087965 0.024258
v 0.041801 0.076532 0.017551
v 0.021290 0.093093 0.019524
f 164 139 191 
f 131 130 139 
f 133 144 146 
f 144 133 148 
f 147 136 148 
f 144 137 151 
f 129 145 152 
f 150 139 153 
f 132 142 154 
f 142 135 154 
f 135 142 155 
f 141 146 156 
f 140 156 157 
f 145 135 159 
f 145 129 160 
f 140 155 161 
f 156 140 161 
f 141 156 161 
f 130 131 162 
f 131 139 162 
f 146 141 162 
f 133 146 164 
f 162 139 164 
f 146 162 164 
f 148 133 165 
f 147 148 165 
f 163 147 165 
f 137 144 167 
f 144 148 167 
f 146 144 168 
f 134 156 168 
f 156 146 168 
f 148 136 169 
f 136 160 169 
f 167 148 169 
f 144 151 170 
f 151 149 170 
f 134 168 170 
f 168 144 170 
f 139 130 171 
f 153 139 171 
f 142 153 171 
f 135 145 172 
f 154 135 172 
f 138 154 172 
f 160 138 172 
f 145 160 172 
f 133 150 173 
f 158 143 173 
f 150 158 173 
f 135 149 174 
f 149 151 174 
f 159 135 174 
f 151 159 174 
f 132 154 175 
f 163 132 175 
f 147 163 175 
f 166 147 175 
f 154 166 175 
f 142 132 176 
f 143 158 176 
f 151 137 177 
f 145 159 177 
f 159 151 177 
f 136 147 178 
f 154 138 178 
f 147 166 178 
f 166 154 178 
f 141 161 179 
f 161 155 179 
f 130 162 179 
f 162 141 179 
f 149 135 180 
f 135 155 180 
f 155 140 180 
f 140 157 180 
f 143 163 181 
f 165 133 181 
f 163 165 181 
f 133 173 181 
f 173 143 181 
f 153 142 182 
f 150 153 182 
f 158 150 182 
f 142 176 182 
f 176 158 182 
f 160 136 183 
f 138 160 183 
f 136 178 183 
f 178 138 183 
f 134 170 184 
f 170 149 184 
f 156 134 185 
f 157 156 185 
f 152 145 186 
f 137 167 186 
f 167 152 186 
f 177 137 186 
f 145 177 186 
f 129 152 187 
f 160 129 187 
f 152 167 187 
f 169 160 187 
f 167 169 187 
f 132 163 188 
f 163 143 188 
f 176 132 188 
f 143 176 188 
f 155 142 189 
f 171 130 189 
f 142 171 189 
f 179 155 189 
f 130 179 189 
f 149 180 190 
f 180 157 190 
f 134 184 190 
f 184 149 190 
f 185 134 190 
f 157 185 190 
f 139 150 191 
f 150 133 191 
f 133 164 191 
o convex_3
v -0.033544 0.097041 0.011243
v -0.032360 0.077712 0.012429
v -0.031177 0.077712 0.012429
v -0.031573 0.089939 0.022682
v -0.042614 0.085208 0.017948
v -0.039065 0.087182 0.004142
v -0.027626 0.090728 0.006906
v -0.041036 0.094673 0.016764
v -0.027626 0.081659 0.017948
v -0.027626 0.094279 0.015975
v -0.039459 0.079290 0.016764
v -0.031177 0.080474 0.005720
v -0.041036 0.081263 0.008087
v -0.041036 0.092701 0.006906
v -0.038276 0.083630 0.021893
v -0.031177 0.091912 0.004142
v -0.037881 0.094279 0.020315
v -0.031177 0.080870 0.020709
v -0.027626 0.081263 0.008876
v -0.031177 0.096646 0.017159
v -0.031177 0.096646 0.008876
v -0.042614 0.089939 0.008482
v -0.031177 0.086786 0.003353
v -0.037881 0.096252 0.008876
v -0.041036 0.089545 0.020709
v -0.038276 0.078896 0.008876
v -0.038276 0.083237 0.004537
v -0.027626 0.091123 0.019129
v -0.042614 0.082448 0.012429
v -0.038276 0.096646 0.015184
v -0.031177 0.085208 0.022682
v -0.031177 0.094279 0.020709
v -0.037881 0.093884 0.005720
v -0.042614 0.092306 0.015184
v -0.031177 0.078501 0.017553
v -0.037486 0.087572 0.022682
v -0.041036 0.095068 0.010851
v -0.038276 0.080474 0.019920
v -0.038276 0.078107 0.013606
v -0.041036 0.084419 0.005720
v -0.027626 0.093884 0.009665
v -0.041036 0.082052 0.019129
v -0.027626 0.080081 0.014793
v -0.037881 0.090728 0.004142
v -0.041036 0.079685 0.012429
v -0.027626 0.084419 0.006906
v -0.038276 0.091517 0.021893
v -0.031177 0.078501 0.008876
v -0.031177 0.095463 0.006906
v -0.043009 0.085997 0.011638
v -0.042614 0.084419 0.008876
v -0.037486 0.080474 0.006115
v -0.030782 0.097041 0.013606
v -0.027626 0.085208 0.019525
v -0.031177 0.083237 0.004142
v -0.041036 0.093095 0.019129
v -0.041036 0.087967 0.005326
v -0.042614 0.089545 0.017948
v -0.041036 0.085604 0.020709
v -0.031177 0.083237 0.022287
v -0.038276 0.096252 0.017159
v -0.035910 0.078501 0.017159
v -0.037486 0.097041 0.013606
v -0.042614 0.092306 0.010851
f 213 241 255 
f 200 198 201 
f 198 200 210 
f 207 198 214 
f 192 212 215 
f 197 214 218 
f 200 201 219 
f 219 195 222 
f 201 211 223 
f 211 208 223 
f 195 219 223 
f 219 201 223 
f 205 215 224 
f 193 194 226 
f 200 209 226 
f 222 195 227 
f 206 222 227 
f 215 205 228 
f 199 221 228 
f 225 199 228 
f 226 209 229 
f 217 193 230 
f 218 204 231 
f 197 218 231 
f 201 198 232 
f 196 220 233 
f 202 229 233 
f 229 206 233 
f 194 210 234 
f 210 200 234 
f 226 194 234 
f 200 226 234 
f 214 197 235 
f 207 214 235 
f 205 224 235 
f 224 207 235 
f 204 217 236 
f 220 204 236 
f 217 230 236 
f 230 202 236 
f 233 220 236 
f 202 233 236 
f 198 210 237 
f 210 203 237 
f 214 198 237 
f 195 223 238 
f 223 208 238 
f 227 195 238 
f 216 227 238 
f 194 193 239 
f 210 194 239 
f 203 210 239 
f 193 217 239 
f 198 207 240 
f 215 212 240 
f 207 224 240 
f 224 215 240 
f 232 198 240 
f 212 232 240 
f 220 196 241 
f 204 220 242 
f 231 204 242 
f 220 241 242 
f 241 213 242 
f 217 204 243 
f 204 218 243 
f 218 203 243 
f 203 239 243 
f 239 217 243 
f 211 201 244 
f 212 192 244 
f 201 232 244 
f 232 212 244 
f 200 219 245 
f 219 222 245 
f 218 214 246 
f 203 218 246 
f 237 203 246 
f 214 237 246 
f 199 225 247 
f 238 208 247 
f 216 238 247 
f 213 205 248 
f 197 231 248 
f 235 197 248 
f 205 235 248 
f 242 213 248 
f 231 242 248 
f 196 216 249 
f 241 196 249 
f 225 241 249 
f 247 225 249 
f 216 247 249 
f 216 196 250 
f 206 227 250 
f 227 216 250 
f 196 233 250 
f 233 206 250 
f 209 200 251 
f 222 206 251 
f 206 229 251 
f 229 209 251 
f 200 245 251 
f 245 222 251 
f 208 211 252 
f 221 199 252 
f 199 247 252 
f 247 208 252 
f 193 226 253 
f 229 202 253 
f 226 229 253 
f 230 193 253 
f 202 230 253 
f 192 215 254 
f 215 228 254 
f 228 221 254 
f 211 244 254 
f 244 192 254 
f 252 211 254 
f 221 252 254 
f 205 213 255 
f 228 205 255 
f 225 228 255 
f 241 225 255 
o convex_4
v 0.009846 0.093096 0.025047
v -0.011447 0.086786 -0.000197
v -0.013027 0.087179 0.000199
v -0.012237 0.073767 0.019522
v 0.021290 0.080476 0.008483
v -0.027626 0.093096 0.017947
v 0.008271 0.099406 0.007693
v -0.015392 0.074556 0.007302
v 0.008663 0.074163 0.019918
v -0.011447 0.085210 0.026231
v -0.012237 0.100197 0.012824
v 0.021290 0.091515 0.020312
v 0.008663 0.081661 0.000593
v -0.027626 0.079689 0.013606
v -0.027626 0.092304 0.007696
v 0.021290 0.091122 0.005721
v 0.007083 0.073767 0.006905
v -0.011447 0.097038 0.023075
v -0.011447 0.095460 0.002171
v 0.008271 0.099406 0.018737
v 0.008271 0.093096 0.000593
v 0.008663 0.082054 0.025837
v 0.021290 0.081265 0.019131
v -0.027626 0.084025 0.006905
v -0.027626 0.084421 0.019525
v -0.011447 0.076533 0.003355
v 0.020892 0.095067 0.012821
v -0.011447 0.076926 0.023075
v -0.011447 0.091908 0.025837
v -0.011447 0.099408 0.007302
v 0.008663 0.087570 0.026627
v 0.008663 0.097038 0.003358
v -0.027626 0.094671 0.011640
v -0.012237 0.099408 0.018734
v 0.021290 0.079293 0.014003
v 0.008271 0.097038 0.023072
v -0.011447 0.081661 0.000593
v 0.020892 0.086392 0.004933
v 0.008663 0.088361 -0.000197
v 0.008663 0.076926 0.003358
v 0.020892 0.087179 0.021497
v 0.008663 0.076926 0.023072
v -0.011447 0.073767 0.006512
v -0.011447 0.092697 0.000593
v -0.011844 0.081267 0.025443
v -0.027626 0.082054 0.018340
v 0.021290 0.094278 0.009274
v -0.027626 0.087572 0.019918
v 0.009061 0.099801 0.012036
v 0.021290 0.094278 0.016762
v -0.014999 0.096643 0.004146
v -0.014999 0.092697 0.024653
v 0.008271 0.093489 0.025440
v 0.009061 0.074163 0.006905
v -0.027626 0.088754 0.006512
v -0.027626 0.080871 0.009274
v -0.015392 0.074556 0.018734
v 0.021290 0.083632 0.005721
v -0.014999 0.086786 0.025443
v -0.015392 0.078111 0.003749
v -0.015392 0.092697 0.001777
v -0.015789 0.098619 0.017944
v -0.015392 0.077715 0.022287
v 0.007083 0.073767 0.019522
f 272 309 319 
f 269 261 270 
f 267 260 271 
f 260 267 278 
f 269 270 279 
f 261 269 280 
f 266 262 285 
f 265 277 286 
f 284 265 286 
f 271 276 287 
f 276 274 287 
f 285 262 287 
f 274 285 287 
f 270 261 288 
f 266 285 288 
f 275 266 289 
f 273 275 289 
f 260 278 290 
f 278 264 290 
f 256 267 291 
f 275 273 291 
f 258 257 292 
f 257 268 292 
f 279 258 292 
f 268 281 292 
f 268 257 294 
f 276 271 294 
f 293 268 294 
f 271 293 294 
f 281 268 295 
f 272 281 295 
f 267 256 296 
f 278 267 296 
f 277 278 296 
f 256 286 296 
f 286 277 296 
f 278 277 297 
f 264 278 297 
f 259 263 298 
f 272 259 298 
f 263 281 298 
f 281 272 298 
f 257 258 299 
f 274 276 299 
f 294 257 299 
f 276 294 299 
f 277 265 300 
f 297 277 300 
f 283 297 300 
f 280 269 301 
f 267 271 302 
f 262 282 302 
f 271 287 302 
f 287 262 302 
f 261 280 303 
f 262 266 304 
f 266 275 304 
f 282 262 304 
f 275 282 304 
f 282 275 305 
f 291 267 305 
f 275 291 305 
f 267 302 305 
f 302 282 305 
f 285 274 306 
f 270 288 306 
f 288 285 306 
f 273 261 307 
f 284 273 307 
f 261 303 307 
f 273 284 308 
f 286 256 308 
f 284 286 308 
f 256 291 308 
f 291 273 308 
f 290 264 309 
f 260 290 309 
f 295 260 309 
f 272 295 309 
f 258 279 310 
f 279 270 310 
f 263 269 311 
f 269 279 311 
f 263 259 312 
f 269 263 312 
f 301 269 312 
f 271 260 313 
f 268 293 313 
f 293 271 313 
f 260 295 313 
f 295 268 313 
f 265 284 314 
f 300 265 314 
f 280 300 314 
f 303 280 314 
f 284 307 314 
f 307 303 314 
f 281 263 315 
f 279 292 315 
f 292 281 315 
f 263 311 315 
f 311 279 315 
f 299 258 316 
f 274 299 316 
f 306 274 316 
f 270 306 316 
f 258 310 316 
f 310 270 316 
f 261 273 317 
f 288 261 317 
f 266 288 317 
f 273 289 317 
f 289 266 317 
f 259 283 318 
f 300 280 318 
f 283 300 318 
f 280 301 318 
f 312 259 318 
f 301 312 318 
f 259 272 319 
f 283 259 319 
f 264 297 319 
f 297 283 319 
f 309 264 319 
