o convex_0
v 0.005861 0.052172 0.005437
v -0.006863 -0.062121 0.003124
v -0.006863 -0.062121 0.003585
v 0.006093 -0.062121 0.002661
v -0.005705 0.052172 0.001041
v -0.005705 0.052172 0.005668
v 0.005168 -0.062121 0.005668
v 0.005630 0.052172 0.001041
v -0.006168 -0.062121 0.001041
v -0.006168 -0.062121 0.005668
v 0.005168 -0.062121 0.001041
v 0.006556 0.051926 0.004049
v -0.006399 0.052172 0.003124
v 0.005630 0.052172 0.005668
v 0.006324 -0.059805 0.003585
v 0.006556 0.031341 0.002892
v 0.005399 -0.060946 0.005668
v 0.005399 -0.054245 0.001041
v -0.006168 0.052172 0.004512
v -0.005937 0.018162 0.001041
v 0.006093 0.052172 0.001735
v -0.006168 -0.038045 0.005668
v -0.006399 0.046836 0.003817
v 0.006556 0.004043 0.003124
v 0.006556 0.052172 0.002892
v 0.005861 0.039899 0.001273
v 0.005861 0.033198 0.005437
v -0.006168 -0.042665 0.001041
v -0.006168 0.048469 0.002198
v -0.005937 0.040817 0.005437
v 0.006556 0.000810 0.003586
v 0.006324 -0.056561 0.003124
v -0.006863 -0.058641 0.003585
v 0.006093 -0.062121 0.004049
v -0.006630 -0.000130 0.003124
f 33 23 35 
f 3 2 4 
f 1 5 6 
f 3 4 7 
f 5 1 8 
f 5 8 9 
f 4 2 9 
f 3 7 10 
f 7 6 10 
f 9 8 11 
f 4 9 11 
f 6 5 13 
f 1 6 14 
f 6 7 14 
f 14 7 17 
f 15 12 17 
f 4 11 18 
f 11 8 18 
f 6 13 19 
f 5 9 20 
f 8 1 21 
f 3 10 22 
f 10 6 22 
f 19 13 23 
f 16 12 24 
f 18 16 24 
f 1 12 25 
f 12 16 25 
f 21 1 25 
f 16 21 25 
f 18 8 26 
f 16 18 26 
f 8 21 26 
f 21 16 26 
f 12 1 27 
f 1 14 27 
f 17 12 27 
f 14 17 27 
f 9 2 28 
f 20 9 28 
f 13 5 29 
f 5 20 29 
f 6 19 30 
f 22 6 30 
f 19 23 30 
f 23 22 30 
f 12 15 31 
f 15 24 31 
f 24 12 31 
f 15 4 32 
f 4 18 32 
f 24 15 32 
f 18 24 32 
f 2 3 33 
f 3 22 33 
f 22 23 33 
f 7 4 34 
f 4 15 34 
f 17 7 34 
f 15 17 34 
f 23 13 35 
f 28 2 35 
f 20 28 35 
f 29 20 35 
f 13 29 35 
f 2 33 35 
o convex_1
v -0.003623 -0.065823 0.006594
v -0.002929 -0.065823 0.000116
v -0.002929 -0.065591 0.000116
v 0.006788 -0.065823 0.004048
v 0.005399 -0.062121 0.005667
v -0.006862 -0.062121 0.003124
v 0.005399 -0.062121 0.001042
v 0.006324 -0.065823 0.000811
v -0.007788 -0.065823 0.002893
v -0.006167 -0.062121 0.005667
v -0.006167 -0.062121 0.001042
v 0.006324 -0.065823 0.005899
v -0.007324 -0.065823 0.005667
v -0.007093 -0.065823 0.000811
v 0.006324 -0.062121 0.003355
v 0.000309 -0.065128 0.006594
v 0.001697 -0.065591 0.000116
v 0.002623 -0.065823 0.006594
v -0.007093 -0.064897 0.005899
v -0.007093 -0.065128 0.000811
v 0.000540 -0.065360 0.000116
f 42 52 56 
f 36 37 39 
f 41 40 42 
f 39 37 43 
f 37 36 44 
f 40 41 45 
f 41 42 46 
f 36 39 47 
f 44 36 48 
f 38 37 49 
f 37 44 49 
f 42 40 50 
f 39 43 50 
f 43 42 50 
f 47 39 50 
f 40 47 50 
f 45 36 51 
f 40 45 51 
f 37 38 52 
f 43 37 52 
f 42 43 52 
f 36 47 53 
f 47 40 53 
f 51 36 53 
f 40 51 53 
f 41 44 54 
f 45 41 54 
f 36 45 54 
f 48 36 54 
f 44 48 54 
f 44 41 55 
f 46 38 55 
f 41 46 55 
f 38 49 55 
f 49 44 55 
f 38 46 56 
f 46 42 56 
f 52 38 56 
o convex_2
v -0.000616 0.074148 0.006825
v -0.015654 0.074842 0.003354
v -0.015423 0.073919 0.003124
v -0.000616 0.074148 -0.000116
v -0.005706 0.052172 0.005668
v -0.000386 0.052172 0.001042
v -0.013339 0.070216 -0.000116
v -0.013803 0.077853 0.006825
v -0.005474 0.077853 -0.000116
v -0.000386 0.061659 0.006825
v -0.005706 0.052172 0.001042
v -0.013803 0.077853 -0.000116
v -0.013339 0.070216 0.006825
v -0.000386 0.061891 -0.000116
v -0.000386 0.052172 0.005668
v -0.005474 0.077853 0.006825
v -0.014496 0.069985 0.003585
v -0.006401 0.052172 0.003585
v -0.000386 0.073919 0.006825
v -0.009408 0.065128 0.006825
v -0.008481 0.064668 -0.000116
v -0.015191 0.077620 0.003124
v -0.014496 0.075307 -0.000116
v -0.014496 0.075076 0.006825
v -0.000386 0.073919 -0.000116
v -0.014496 0.069985 0.003124
v -0.005244 0.062585 0.006825
v -0.005937 0.052172 0.001505
v -0.005244 0.062818 -0.000116
v -0.015654 0.076001 0.003585
v -0.005937 0.052172 0.005205
v -0.006401 0.052172 0.003124
v -0.014728 0.077853 0.001736
f 79 86 89 
f 57 60 65 
f 60 63 65 
f 57 64 66 
f 62 61 67 
f 65 63 68 
f 64 65 68 
f 66 64 69 
f 63 60 70 
f 66 62 70 
f 62 67 70 
f 61 62 71 
f 66 61 71 
f 62 66 71 
f 64 57 72 
f 57 65 72 
f 65 64 72 
f 67 61 74 
f 60 57 75 
f 57 66 75 
f 66 70 75 
f 69 61 76 
f 66 69 76 
f 67 63 77 
f 63 70 77 
f 59 58 79 
f 63 59 79 
f 68 63 79 
f 69 64 80 
f 58 73 80 
f 73 69 80 
f 70 60 81 
f 60 75 81 
f 75 70 81 
f 58 59 82 
f 59 63 82 
f 73 58 82 
f 74 73 82 
f 61 66 83 
f 76 61 83 
f 66 76 83 
f 63 67 84 
f 67 74 84 
f 82 63 84 
f 70 67 85 
f 67 77 85 
f 77 70 85 
f 64 78 86 
f 79 58 86 
f 80 64 86 
f 58 80 86 
f 61 69 87 
f 69 73 87 
f 74 61 87 
f 73 74 87 
f 74 82 88 
f 84 74 88 
f 82 84 88 
f 64 68 89 
f 78 64 89 
f 68 79 89 
f 86 78 89 
o convex_3
v -0.005014 0.089188 0.000348
v -0.014959 0.077853 0.002892
v -0.014959 0.077853 0.003817
v -0.005707 0.077853 -0.000116
v -0.003624 0.088033 0.006825
v -0.005707 0.077853 0.006825
v -0.012646 0.081556 0.006825
v -0.013109 0.080861 -0.000116
v -0.009637 0.087108 0.003585
v -0.003624 0.088033 -0.000116
v -0.005476 0.088957 0.006825
v -0.013802 0.077853 0.006825
v -0.013802 0.077853 -0.000116
v -0.014034 0.081326 0.003585
v -0.004782 0.090116 0.003585
v -0.009176 0.085949 -0.000116
v -0.005938 0.090116 0.002892
v -0.003392 0.089884 0.003585
v -0.009407 0.085718 0.006825
v -0.010100 0.086643 0.003124
v -0.013340 0.080631 0.006825
v -0.005476 0.088957 -0.000116
v -0.003392 0.088959 0.001736
v -0.005938 0.090116 0.003817
v -0.014034 0.081094 0.002661
v -0.010563 0.085949 0.003817
v -0.003624 0.088727 0.006825
v -0.003624 0.088727 -0.000116
v -0.014497 0.078086 0.001274
f 114 97 118 
f 92 91 93 
f 92 93 95 
f 95 94 96 
f 93 97 99 
f 96 94 100 
f 92 95 101 
f 95 96 101 
f 93 91 102 
f 97 93 102 
f 91 92 103 
f 99 97 105 
f 90 106 107 
f 106 104 107 
f 96 100 108 
f 105 97 109 
f 98 106 109 
f 106 105 109 
f 92 101 110 
f 101 96 110 
f 103 92 110 
f 99 105 111 
f 106 90 111 
f 105 106 111 
f 94 95 112 
f 95 93 112 
f 93 99 112 
f 107 94 112 
f 100 104 113 
f 106 98 113 
f 104 106 113 
f 98 108 113 
f 108 100 113 
f 91 103 114 
f 109 97 114 
f 103 109 114 
f 96 108 115 
f 108 98 115 
f 109 103 115 
f 98 109 115 
f 110 96 115 
f 103 110 115 
f 100 94 116 
f 104 100 116 
f 94 107 116 
f 107 104 116 
f 90 107 117 
f 111 90 117 
f 99 111 117 
f 112 99 117 
f 107 112 117 
f 102 91 118 
f 97 102 118 
f 91 114 118 
o convex_4
v 0.007713 0.056570 0.003817
v -0.000384 0.052174 0.001042
v 0.005400 0.052172 0.001042
v 0.007713 0.074614 -0.000116
v -0.000384 0.073918 0.006825
v -0.000384 0.073918 -0.000116
v 0.007713 0.074614 0.006825
v -0.000384 0.052174 0.005668
v 0.005631 0.052172 0.005668
v 0.007713 0.062816 -0.000116
v 0.007713 0.062816 0.006825
v -0.000384 0.061660 0.006825
v -0.000384 0.061891 -0.000116
v 0.006556 0.052172 0.002892
v 0.007713 0.060272 0.000579
v 0.005862 0.061660 0.006825
v 0.006093 0.061893 -0.000116
v 0.007713 0.060272 0.006130
v 0.006556 0.052172 0.004048
v 0.005862 0.052172 0.001274
v 0.007250 0.074614 0.006825
v 0.007713 0.056337 0.003124
v 0.000310 0.061429 0.006825
f 134 130 141 
f 120 123 124 
f 119 122 125 
f 120 121 126 
f 123 120 126 
f 126 121 127 
f 122 119 128 
f 124 122 128 
f 119 125 129 
f 125 123 129 
f 123 126 130 
f 129 123 130 
f 121 120 131 
f 120 124 131 
f 124 128 131 
f 127 121 132 
f 128 119 133 
f 127 129 134 
f 129 130 134 
f 128 121 135 
f 121 131 135 
f 131 128 135 
f 119 129 136 
f 129 127 136 
f 127 132 137 
f 119 136 137 
f 136 127 137 
f 121 128 138 
f 132 121 138 
f 128 133 138 
f 133 132 138 
f 124 123 139 
f 122 124 139 
f 125 122 139 
f 123 125 139 
f 133 119 140 
f 132 133 140 
f 119 137 140 
f 137 132 140 
f 126 127 141 
f 130 126 141 
f 127 134 141 
o convex_5
v 0.013266 0.084791 0.002430
v 0.007713 0.057262 0.003124
v 0.007713 0.057262 0.003585
v 0.015116 0.068832 0.003124
v 0.010721 0.084794 0.006825
v 0.007713 0.075072 -0.000116
v 0.013959 0.069526 -0.000116
v 0.014190 0.070222 0.006825
v 0.007713 0.062820 0.006825
v 0.010721 0.084794 -0.000116
v 0.007713 0.075072 0.006825
v 0.007713 0.062820 -0.000116
v 0.015579 0.076232 0.003585
v 0.014653 0.075305 -0.000116
v 0.012803 0.083634 0.006825
v 0.014653 0.075538 0.006825
v 0.010721 0.064437 0.006825
v 0.012803 0.083634 -0.000116
v 0.010953 0.085951 0.003585
v 0.014885 0.080163 0.003124
v 0.010490 0.064204 -0.000116
v 0.013266 0.085024 0.004048
v 0.015116 0.068832 0.003585
v 0.007945 0.057262 0.003124
v 0.007945 0.060506 0.006130
v 0.007945 0.060506 0.000579
v 0.013959 0.069296 0.006825
v 0.007945 0.057262 0.003585
v 0.015579 0.072994 0.003585
v 0.013959 0.080163 0.006361
v 0.015579 0.075305 0.002661
v 0.013728 0.080396 -0.000116
v 0.014885 0.080163 0.003585
v 0.013728 0.068832 0.000117
v 0.012572 0.084331 0.006825
v 0.014653 0.074384 -0.000116
v 0.012572 0.084561 0.000579
f 151 160 178 
f 143 144 147 
f 149 146 150 
f 147 144 150 
f 148 147 151 
f 150 146 152 
f 147 150 152 
f 143 147 153 
f 147 148 153 
f 148 151 155 
f 146 149 156 
f 156 149 157 
f 149 150 158 
f 155 151 159 
f 151 147 160 
f 152 146 160 
f 147 152 160 
f 159 142 161 
f 153 148 162 
f 142 160 163 
f 161 142 163 
f 144 143 165 
f 145 164 165 
f 150 144 166 
f 158 150 166 
f 143 153 167 
f 153 162 167 
f 165 143 167 
f 162 165 167 
f 149 158 168 
f 164 149 168 
f 165 164 169 
f 144 165 169 
f 166 144 169 
f 158 166 169 
f 168 158 169 
f 164 168 169 
f 154 157 170 
f 157 149 170 
f 164 145 170 
f 149 164 170 
f 156 157 171 
f 161 154 172 
f 155 161 172 
f 170 145 172 
f 154 170 172 
f 155 159 173 
f 161 155 173 
f 159 161 173 
f 157 154 174 
f 154 161 174 
f 163 156 174 
f 161 163 174 
f 171 157 174 
f 156 171 174 
f 148 145 175 
f 162 148 175 
f 145 165 175 
f 165 162 175 
f 146 156 176 
f 160 146 176 
f 156 163 176 
f 163 160 176 
f 145 148 177 
f 148 155 177 
f 172 145 177 
f 155 172 177 
f 142 159 178 
f 159 151 178 
f 160 142 178 
o convex_6
v 0.003777 -0.066517 0.006825
v -0.008480 -0.069524 -0.000116
v -0.008711 -0.069524 0.000348
v 0.007711 -0.069524 0.006361
v 0.006323 -0.065823 0.000811
v -0.007324 -0.065823 0.005899
v -0.008480 -0.069524 0.006825
v 0.007479 -0.069524 -0.000116
v -0.005472 -0.065823 0.000348
v 0.006323 -0.065823 0.005899
v 0.000540 -0.066055 -0.000116
v -0.008017 -0.066055 0.003124
v 0.008174 -0.068830 0.003124
v -0.001309 -0.065823 0.006825
v 0.007479 -0.069524 0.006825
v -0.009406 -0.069293 0.003585
v -0.007324 -0.065823 0.000811
v 0.007016 -0.066055 0.003817
v -0.005242 -0.066749 0.006825
v 0.004010 -0.066749 -0.000116
v -0.005009 -0.066749 -0.000116
v -0.008480 -0.069061 0.006825
f 185 197 200 
f 181 180 182 
f 181 182 185 
f 182 180 186 
f 184 183 187 
f 183 184 188 
f 186 180 189 
f 187 183 189 
f 182 186 191 
f 186 183 191 
f 185 179 192 
f 179 188 192 
f 188 184 192 
f 179 185 193 
f 185 182 193 
f 188 179 193 
f 182 188 193 
f 181 185 194 
f 190 181 194 
f 184 190 194 
f 180 181 195 
f 184 187 195 
f 181 190 195 
f 190 184 195 
f 188 182 196 
f 183 188 196 
f 182 191 196 
f 191 183 196 
f 185 192 197 
f 192 184 197 
f 183 186 198 
f 186 189 198 
f 189 183 198 
f 189 180 199 
f 187 189 199 
f 180 195 199 
f 195 187 199 
f 184 194 200 
f 194 185 200 
f 197 184 200 
o convex_7
v -0.009639 -0.086182 0.003354
v -0.009870 -0.077623 0.006825
v -0.008714 -0.078318 0.006130
v -0.011952 -0.077623 -0.000116
v -0.006633 -0.084562 -0.000116
v -0.006633 -0.087107 0.006825
v -0.011258 -0.082019 0.006825
v -0.008946 -0.077855 0.000579
v -0.007326 -0.086875 -0.000116
v -0.011258 -0.082250 0.000117
v -0.012647 -0.077623 0.004280
v -0.006633 -0.083406 0.006130
v -0.011952 -0.082481 0.003124
v -0.006633 -0.088264 0.003124
v -0.011952 -0.077623 0.006825
v -0.008714 -0.085950 0.006825
v -0.006633 -0.083406 0.000579
v -0.009870 -0.077623 -0.000116
v -0.008714 -0.085950 -0.000116
v -0.012647 -0.078087 0.002430
v -0.006633 -0.084562 0.006825
v -0.006633 -0.087107 -0.000116
v -0.011721 -0.082712 0.004280
v -0.006863 -0.088264 0.003585
v -0.012647 -0.078549 0.004048
v -0.008946 -0.086875 0.003124
v -0.009177 -0.077623 0.006130
f 208 218 227 
f 206 202 207 
f 204 205 209 
f 202 204 211 
f 206 205 212 
f 210 201 213 
f 205 206 214 
f 207 202 215 
f 202 211 215 
f 206 207 216 
f 208 203 217 
f 205 208 217 
f 203 212 217 
f 212 205 217 
f 204 202 218 
f 205 204 218 
f 208 205 218 
f 204 209 219 
f 201 210 219 
f 210 204 219 
f 204 210 220 
f 211 204 220 
f 210 213 220 
f 203 202 221 
f 202 206 221 
f 212 203 221 
f 206 212 221 
f 209 205 222 
f 205 214 222 
f 214 209 222 
f 213 201 223 
f 201 216 223 
f 216 207 223 
f 214 206 224 
f 209 214 224 
f 206 216 224 
f 207 215 225 
f 215 211 225 
f 211 220 225 
f 220 213 225 
f 223 207 225 
f 213 223 225 
f 216 201 226 
f 219 209 226 
f 201 219 226 
f 209 224 226 
f 224 216 226 
f 202 203 227 
f 203 208 227 
f 218 202 227 
o convex_8
v -0.006631 -0.084795 0.006825
v -0.001310 -0.090116 0.003124
v -0.000847 -0.090116 0.003124
v -0.006400 -0.084795 -0.000116
v -0.001079 -0.085952 0.006130
v -0.006400 -0.087570 0.006825
v -0.000847 -0.087107 -0.000116
v -0.006631 -0.087339 -0.000116
v -0.000847 -0.089189 0.006825
v -0.006168 -0.083869 0.000579
v -0.005474 -0.089189 0.003585
v -0.001079 -0.089189 -0.000116
v -0.006631 -0.083869 0.006130
v -0.001079 -0.085952 0.000579
v -0.005011 -0.088496 0.000117
v -0.000847 -0.087107 0.006825
v -0.006631 -0.088264 0.004048
v -0.004780 -0.088496 0.006825
v -0.005474 -0.084101 0.006130
v -0.006631 -0.083869 0.000579
v -0.001310 -0.090116 0.003585
f 245 238 248 
f 231 234 235 
f 228 233 236 
f 230 234 236 
f 230 229 239 
f 234 230 239 
f 235 234 239 
f 235 228 240 
f 234 231 241 
f 232 234 241 
f 231 237 241 
f 229 238 242 
f 238 235 242 
f 239 229 242 
f 235 239 242 
f 234 232 243 
f 228 236 243 
f 236 234 243 
f 233 228 244 
f 228 235 244 
f 235 238 244 
f 238 233 244 
f 236 233 245 
f 233 238 245 
f 240 228 246 
f 237 240 246 
f 232 241 246 
f 241 237 246 
f 228 243 246 
f 243 232 246 
f 231 235 247 
f 237 231 247 
f 235 240 247 
f 240 237 247 
f 229 230 248 
f 230 236 248 
f 238 229 248 
f 236 245 248 
o convex_9
v -0.012647 -0.077390 0.002661
v -0.006633 -0.069524 0.006825
v -0.006633 -0.069524 -0.000116
v -0.008946 -0.077622 0.006130
v -0.011258 -0.073228 0.006593
v -0.008946 -0.077622 0.000579
v -0.008714 -0.069524 -0.000116
v -0.011952 -0.077622 -0.000116
v -0.011952 -0.077622 0.006825
v -0.006633 -0.072070 0.006130
v -0.011721 -0.072995 0.002430
v -0.008714 -0.069524 0.006825
v -0.006633 -0.072070 0.000579
v -0.009870 -0.069988 0.003585
v -0.011258 -0.073687 -0.000116
v -0.011952 -0.073228 0.003585
v -0.009870 -0.077622 -0.000116
v -0.009870 -0.077622 0.006825
v -0.012647 -0.077158 0.004048
v -0.006633 -0.070914 -0.000116
v -0.006633 -0.070914 0.006825
f 266 252 269 
f 250 251 255 
f 254 252 256 
f 255 251 256 
f 249 256 257 
f 256 252 257 
f 251 250 258 
f 252 254 258 
f 250 255 260 
f 257 250 260 
f 253 257 260 
f 251 258 261 
f 258 254 261 
f 255 259 262 
f 260 255 262 
f 253 260 262 
f 256 249 263 
f 255 256 263 
f 249 259 263 
f 259 255 263 
f 259 249 264 
f 253 262 264 
f 262 259 264 
f 256 251 265 
f 254 256 265 
f 250 257 266 
f 257 252 266 
f 249 257 267 
f 257 253 267 
f 264 249 267 
f 253 264 267 
f 251 261 268 
f 261 254 268 
f 265 251 268 
f 254 265 268 
f 258 250 269 
f 252 258 269 
f 250 266 269 
o convex_10
v -0.006631 -0.071607 0.000579
v -0.001773 -0.069524 0.006130
v -0.005011 -0.069524 0.006825
v -0.006631 -0.069524 -0.000116
v -0.001773 -0.069756 0.000579
v -0.006631 -0.071607 0.006130
v -0.006631 -0.069524 0.006825
v -0.002698 -0.070219 0.006130
v -0.006169 -0.071607 0.000579
v -0.001773 -0.069524 0.000579
v -0.006400 -0.070681 -0.000116
v -0.006169 -0.071607 0.006130
f 278 277 281 
f 272 271 273 
f 273 270 275 
f 272 273 276 
f 275 272 276 
f 273 275 276 
f 271 272 277 
f 274 271 277 
f 275 270 278 
f 274 277 278 
f 273 271 279 
f 271 274 279 
f 279 274 280 
f 270 273 280 
f 278 270 280 
f 274 278 280 
f 273 279 280 
f 272 275 281 
f 277 272 281 
f 275 278 281 
o convex_11
v 0.007944 -0.085952 0.006130
v -0.000847 -0.089189 -0.000116
v -0.000847 -0.087107 -0.000116
v -0.000847 -0.089189 0.006825
v 0.005168 -0.083869 0.006130
v 0.008868 -0.083869 -0.000116
v 0.004474 -0.089189 0.003124
v -0.000847 -0.086183 0.006130
v 0.005168 -0.083869 0.000579
v 0.008868 -0.083869 0.006825
v 0.007713 -0.085952 -0.000116
v 0.003781 -0.088496 0.006825
v 0.008406 -0.086414 0.003124
v -0.000152 -0.090116 0.003817
v -0.000847 -0.086183 0.000579
v 0.004013 -0.088496 0.000117
v 0.009795 -0.084332 0.003124
v -0.000847 -0.087107 0.006825
v -0.000847 -0.090116 0.002892
v 0.006324 -0.083869 -0.000116
v 0.006324 -0.083869 0.006825
v 0.004244 -0.089189 0.004048
v 0.007713 -0.085952 0.006825
v 0.008174 -0.086646 0.003817
v 0.009795 -0.084101 0.004280
v -0.000152 -0.090116 0.002892
f 295 300 307 
f 284 283 285 
f 283 284 287 
f 284 285 289 
f 289 286 290 
f 286 287 290 
f 287 286 291 
f 283 287 292 
f 291 285 293 
f 288 292 294 
f 293 285 295 
f 284 289 296 
f 289 290 296 
f 283 292 297 
f 292 288 297 
f 292 287 298 
f 294 292 298 
f 289 285 299 
f 285 291 299 
f 285 283 300 
f 295 285 300 
f 287 284 301 
f 290 287 301 
f 284 296 301 
f 296 290 301 
f 286 289 302 
f 291 286 302 
f 289 299 302 
f 299 291 302 
f 295 288 303 
f 293 295 303 
f 291 293 304 
f 293 303 304 
f 304 303 305 
f 288 294 305 
f 294 298 305 
f 303 288 305 
f 282 304 305 
f 305 298 306 
f 287 291 306 
f 298 287 306 
f 304 282 306 
f 291 304 306 
f 282 305 306 
f 288 295 307 
f 283 297 307 
f 297 288 307 
f 300 283 307 
o convex_12
v 0.009563 -0.083868 0.001274
v 0.011646 -0.078085 0.004048
v 0.010952 -0.078085 0.006825
v 0.007714 -0.078317 0.000579
v 0.005631 -0.083868 0.006130
v 0.009100 -0.083868 0.006825
v 0.005631 -0.083868 0.000579
v 0.010952 -0.078085 -0.000116
v 0.007945 -0.078085 0.006130
v 0.010721 -0.082943 0.003817
v 0.010026 -0.082480 -0.000116
v 0.006557 -0.083868 -0.000116
v 0.006557 -0.083637 0.006825
v 0.005862 -0.082711 0.006130
v 0.008869 -0.078085 -0.000116
v 0.010257 -0.081786 0.006825
v 0.011646 -0.079011 0.003354
v 0.008869 -0.078085 0.006825
v 0.005862 -0.082711 0.000579
v 0.009100 -0.083868 -0.000116
v 0.010721 -0.082711 0.002661
v 0.007714 -0.078317 0.006130
v 0.010026 -0.083868 0.003817
f 328 317 330 
f 312 308 313 
f 308 312 314 
f 310 309 315 
f 310 315 316 
f 308 314 319 
f 315 318 319 
f 313 310 320 
f 312 313 320 
f 314 312 321 
f 312 320 321 
f 311 316 322 
f 316 315 322 
f 315 319 322 
f 310 313 323 
f 313 317 323 
f 323 317 324 
f 309 310 324 
f 315 309 324 
f 310 323 324 
f 310 316 325 
f 320 310 325 
f 321 320 325 
f 319 314 326 
f 321 311 326 
f 314 321 326 
f 311 322 326 
f 322 319 326 
f 318 308 327 
f 308 319 327 
f 319 318 327 
f 318 315 328 
f 308 318 328 
f 324 317 328 
f 315 324 328 
f 316 311 329 
f 311 321 329 
f 325 316 329 
f 321 325 329 
f 313 308 330 
f 317 313 330 
f 308 328 330 
o convex_13
v 0.004242 -0.069987 -0.000116
v 0.005631 -0.069524 0.006825
v 0.004011 -0.069524 0.006825
v 0.005631 -0.071607 0.006130
v 0.000772 -0.069524 0.000579
v 0.005631 -0.071607 0.000579
v 0.000772 -0.069756 0.006130
v 0.005631 -0.069524 -0.000116
v 0.004474 -0.071375 0.000579
v 0.004474 -0.071375 0.006130
v 0.001698 -0.070219 0.000579
v 0.000772 -0.069524 0.006130
v 0.005399 -0.070681 0.006825
f 340 334 343 
f 333 332 335 
f 332 334 336 
f 331 335 338 
f 335 332 338 
f 332 336 338 
f 336 331 338 
f 331 336 339 
f 336 334 339 
f 339 334 340 
f 335 331 341 
f 337 335 341 
f 331 339 341 
f 340 337 341 
f 339 340 341 
f 333 335 342 
f 335 337 342 
f 337 333 342 
f 332 333 343 
f 334 332 343 
f 333 337 343 
f 337 340 343 
o convex_14
v 0.011646 -0.077852 0.002430
v 0.007714 -0.069525 0.006825
v 0.008408 -0.069525 0.004048
v 0.005862 -0.072764 0.000579
v 0.007945 -0.078085 0.006130
v 0.010952 -0.078085 -0.000116
v 0.007714 -0.069525 -0.000116
v 0.005631 -0.069525 0.006825
v 0.010952 -0.078085 0.006825
v 0.010952 -0.073458 0.003585
v 0.007945 -0.078085 0.000579
v 0.005631 -0.069525 -0.000116
v 0.005631 -0.072071 0.006130
v 0.010026 -0.072996 -0.000116
v 0.010257 -0.073227 0.006593
v 0.008869 -0.078085 -0.000116
v 0.008869 -0.078085 0.006825
v 0.011646 -0.077621 0.004280
v 0.010721 -0.072996 0.002661
v 0.005631 -0.070914 -0.000116
v 0.005631 -0.070914 0.006825
v 0.008639 -0.069757 0.002892
v 0.010952 -0.077158 -0.000116
f 357 362 366 
f 345 346 350 
f 345 350 351 
f 349 344 352 
f 348 349 352 
f 345 351 352 
f 348 347 354 
f 349 348 354 
f 350 349 355 
f 351 350 355 
f 351 355 356 
f 347 348 356 
f 349 350 357 
f 346 345 358 
f 345 352 358 
f 353 346 358 
f 349 354 359 
f 355 349 359 
f 348 352 360 
f 352 351 360 
f 352 344 361 
f 344 353 361 
f 358 352 361 
f 353 358 361 
f 353 344 362 
f 354 347 363 
f 356 355 363 
f 347 356 363 
f 359 354 363 
f 355 359 363 
f 351 356 364 
f 356 348 364 
f 348 360 364 
f 360 351 364 
f 350 346 365 
f 346 353 365 
f 357 350 365 
f 353 362 365 
f 362 357 365 
f 344 349 366 
f 349 357 366 
f 362 344 366 
