o convex_0
v 0.002693 -0.087384 0.006453
v 0.006181 0.028779 0.010291
v 0.004088 0.028779 0.010291
v 0.005832 0.028779 0.002616
v 0.005483 -0.082494 0.009593
v 0.002693 0.024936 0.004361
v 0.004785 -0.082494 0.002616
v 0.002693 -0.085269 0.010291
v 0.002693 -0.086326 0.002616
v 0.006530 0.026323 0.003314
v 0.002693 0.028779 0.008197
v 0.005483 -0.082142 0.003314
v 0.003740 0.023878 0.002616
v 0.006530 0.025277 0.009593
v 0.005832 -0.059116 0.008894
v 0.005135 -0.082494 0.009941
v 0.002693 -0.060174 0.010291
v 0.002693 -0.048303 0.002616
v 0.003740 0.028779 0.002966
v 0.004088 -0.086326 0.003314
v 0.004088 -0.086326 0.009593
v 0.005135 -0.033998 0.010291
v 0.006530 0.028779 0.009941
v 0.002693 0.023537 0.008546
v 0.005483 -0.061561 0.002966
v 0.003740 0.015157 0.010291
v 0.005832 -0.058423 0.009593
v 0.002693 0.028779 0.004710
v 0.006530 0.028779 0.003314
v 0.003042 -0.087384 0.009593
v 0.003042 -0.085269 0.010291
f 8 30 31 
f 3 2 4 
f 2 3 8 
f 6 1 8 
f 1 6 9 
f 4 7 9 
f 3 4 11 
f 6 8 11 
f 4 9 13 
f 5 12 15 
f 12 10 15 
f 10 14 15 
f 8 3 17 
f 11 8 17 
f 9 6 18 
f 6 13 18 
f 13 9 18 
f 11 4 19 
f 4 13 19 
f 13 6 19 
f 1 9 20 
f 9 7 20 
f 12 5 20 
f 7 12 20 
f 5 16 21 
f 20 5 21 
f 2 8 22 
f 16 2 22 
f 4 2 23 
f 14 10 23 
f 3 11 24 
f 11 17 24 
f 7 4 25 
f 4 10 25 
f 12 7 25 
f 10 12 25 
f 17 3 26 
f 3 24 26 
f 24 17 26 
f 5 15 27 
f 15 14 27 
f 2 16 27 
f 16 5 27 
f 23 2 27 
f 14 23 27 
f 6 11 28 
f 11 19 28 
f 19 6 28 
f 10 4 29 
f 4 23 29 
f 23 10 29 
f 8 1 30 
f 1 20 30 
f 20 21 30 
f 30 21 31 
f 21 16 31 
f 22 8 31 
f 16 22 31 
o convex_1
v -0.011959 0.086330 0.012384
v -0.023469 0.068542 0.002268
v -0.023469 0.068542 0.003664
v -0.011959 0.044826 0.008894
v -0.011959 0.087034 0.001570
v -0.023121 0.070983 0.012033
v -0.011959 0.046225 0.002966
v -0.020330 0.079356 0.002268
v -0.013005 0.060527 0.012384
v -0.022074 0.064363 0.012384
v -0.022074 0.064363 0.001570
v -0.019980 0.079702 0.011685
v -0.011959 0.058785 0.001570
v -0.019632 0.058085 0.003314
v -0.011959 0.046575 0.010638
v -0.014052 0.085984 0.010638
v -0.022771 0.074124 0.002268
v -0.022422 0.064013 0.010988
v -0.016145 0.084239 0.002268
v -0.012308 0.044826 0.003664
v -0.021725 0.075174 0.001570
v -0.012308 0.044826 0.008894
v -0.021725 0.075174 0.012384
v -0.022422 0.075174 0.008894
v -0.022771 0.064713 0.002268
v -0.012657 0.087384 0.003314
v -0.019632 0.058431 0.010988
v -0.023469 0.069937 0.010988
v -0.011959 0.058435 0.012033
v -0.012308 0.087384 0.011685
v -0.012308 0.045530 0.010290
v -0.016843 0.083543 0.006107
v -0.023469 0.070983 0.002268
v -0.016145 0.083193 0.012384
v -0.021027 0.062968 0.012384
v -0.017889 0.081452 0.001570
v -0.022422 0.074820 0.011685
v -0.022771 0.065409 0.011685
v -0.017889 0.082147 0.011685
v -0.021375 0.061572 0.002617
v -0.022771 0.070637 0.001570
v -0.019283 0.080752 0.002268
v -0.012308 0.046225 0.002966
f 51 42 74 
f 32 35 36 
f 36 35 38 
f 40 32 41 
f 36 38 44 
f 42 36 44 
f 35 32 46 
f 38 35 51 
f 36 42 52 
f 48 39 52 
f 51 35 53 
f 45 51 53 
f 37 41 54 
f 41 32 54 
f 43 39 55 
f 39 48 55 
f 34 33 56 
f 33 42 56 
f 36 50 57 
f 41 49 58 
f 49 45 58 
f 45 53 58 
f 33 34 59 
f 32 40 60 
f 46 32 60 
f 40 46 60 
f 32 36 61 
f 36 57 61 
f 57 47 61 
f 35 46 62 
f 53 35 62 
f 41 58 62 
f 58 53 62 
f 47 57 63 
f 57 50 63 
f 55 48 64 
f 33 59 64 
f 59 55 64 
f 54 32 65 
f 43 54 65 
f 32 61 65 
f 40 41 66 
f 46 40 66 
f 62 46 66 
f 41 62 66 
f 50 36 67 
f 36 52 67 
f 52 39 67 
f 37 54 68 
f 54 43 68 
f 43 55 68 
f 59 37 68 
f 55 59 68 
f 41 37 69 
f 49 41 69 
f 34 56 69 
f 56 49 69 
f 59 34 69 
f 37 59 69 
f 61 47 70 
f 63 43 70 
f 47 63 70 
f 43 65 70 
f 65 61 70 
f 45 49 71 
f 42 51 71 
f 51 45 71 
f 56 42 71 
f 49 56 71 
f 42 33 72 
f 52 42 72 
f 48 52 72 
f 33 64 72 
f 64 48 72 
f 39 43 73 
f 43 63 73 
f 63 50 73 
f 50 67 73 
f 67 39 73 
f 44 38 74 
f 42 44 74 
f 38 51 74 
o convex_2
v -0.004634 0.028770 0.004360
v -0.013005 -0.066095 0.003314
v -0.013005 -0.066095 0.004709
v -0.008471 -0.066095 0.004709
v -0.008819 0.028770 0.004709
v -0.005680 0.028770 0.002965
v -0.009865 -0.066095 0.002965
v -0.008122 0.028770 0.002965
v -0.004634 0.022491 0.004709
v -0.005680 0.020754 0.002965
v -0.012655 -0.064006 0.002965
v -0.008122 -0.059817 0.004360
v -0.008819 0.028770 0.003663
v -0.013005 -0.059817 0.003663
v -0.004634 0.022491 0.004360
v -0.013005 -0.060170 0.004709
v -0.004634 0.028770 0.004709
v -0.009516 -0.060170 0.002965
f 84 86 92 
f 77 76 78 
f 77 78 79 
f 79 75 80 
f 78 76 81 
f 80 81 82 
f 79 80 82 
f 79 78 83 
f 80 75 84 
f 81 80 84 
f 81 76 85 
f 82 81 85 
f 78 81 86 
f 83 78 86 
f 79 82 87 
f 82 85 87 
f 87 85 88 
f 76 77 88 
f 85 76 88 
f 79 87 88 
f 75 83 89 
f 84 75 89 
f 83 86 89 
f 86 84 89 
f 77 79 90 
f 88 77 90 
f 79 88 90 
f 75 79 91 
f 83 75 91 
f 79 83 91 
f 81 84 92 
f 86 81 92 
o convex_3
v -0.005331 0.028770 0.010291
v -0.013004 -0.066095 0.004709
v -0.013004 -0.066095 0.009942
v -0.002191 -0.066095 0.008197
v -0.002191 0.028770 0.004709
v -0.008818 0.028770 0.004709
v -0.002191 -0.066095 0.004709
v -0.008818 0.028770 0.009942
v -0.002191 0.028770 0.008546
v -0.009516 -0.066095 0.010291
v -0.013004 -0.060170 0.004709
v -0.002191 -0.054579 0.008546
v -0.012655 -0.062260 0.010291
v -0.008469 0.028770 0.010291
v -0.013004 -0.061916 0.009942
v -0.005331 0.023884 0.010291
v -0.002540 -0.062956 0.008546
f 108 102 109 
f 95 94 96 
f 97 94 98 
f 93 97 98 
f 96 94 99 
f 97 96 99 
f 94 97 99 
f 93 98 100 
f 97 93 101 
f 96 97 101 
f 95 96 102 
f 94 95 103 
f 98 94 103 
f 100 98 103 
f 101 93 104 
f 96 101 104 
f 102 93 105 
f 95 102 105 
f 93 100 106 
f 105 93 106 
f 105 106 107 
f 103 95 107 
f 100 103 107 
f 95 105 107 
f 106 100 107 
f 93 102 108 
f 104 93 108 
f 104 108 109 
f 102 96 109 
f 96 104 109 
o convex_4
v 0.002343 -0.047609 0.003663
v 0.002693 -0.032258 0.008895
v 0.002693 0.028779 0.008197
v -0.002190 0.028764 0.008546
v -0.002190 -0.047609 0.008197
v -0.002190 0.028764 0.004710
v 0.002693 0.028779 0.004710
v -0.002190 -0.047609 0.004710
v 0.002692 -0.047609 0.008895
v 0.002693 -0.040281 0.003663
v -0.002190 -0.046211 0.008546
v 0.000948 0.028764 0.008546
v 0.002692 -0.047609 0.003663
v 0.002343 -0.047609 0.008895
f 120 114 123 
f 113 112 115 
f 114 113 115 
f 112 111 116 
f 115 112 116 
f 110 114 117 
f 115 110 117 
f 114 115 117 
f 114 110 118 
f 110 115 119 
f 116 111 119 
f 115 116 119 
f 111 118 119 
f 113 114 120 
f 111 112 121 
f 112 113 121 
f 113 111 121 
f 118 110 122 
f 110 119 122 
f 119 118 122 
f 111 113 123 
f 118 111 123 
f 114 118 123 
f 113 120 123 
o convex_5
v -0.011958 0.043782 0.005757
v -0.007772 0.072032 0.012035
v -0.009516 0.074475 0.012034
v -0.003935 0.066450 0.001221
v -0.003935 0.028784 0.008545
v -0.011958 0.075523 0.001570
v -0.008470 0.028779 0.002966
v -0.011958 0.045526 0.010638
v -0.003935 0.066802 0.012035
v -0.008470 0.028779 0.010289
v -0.011958 0.075523 0.012034
v -0.003935 0.028784 0.004711
v -0.011958 0.058429 0.001570
v -0.003935 0.069941 0.005060
v -0.003935 0.049017 0.001570
v -0.003935 0.055633 0.012035
v -0.011958 0.058429 0.012034
v -0.005331 0.028784 0.010289
v -0.010562 0.075523 0.001570
v -0.011958 0.045526 0.002966
v -0.005680 0.028784 0.002965
v -0.009167 0.029479 0.003664
v -0.007424 0.057729 0.001221
v -0.003935 0.069941 0.008545
v -0.009167 0.030175 0.009940
v -0.010213 0.075523 0.011685
v -0.011958 0.044130 0.009940
v -0.006726 0.069589 0.001221
v -0.003935 0.047617 0.011336
v -0.003935 0.055986 0.001221
v -0.011958 0.043782 0.003664
f 143 145 154 
f 129 124 131 
f 126 125 132 
f 128 127 132 
f 130 128 133 
f 125 126 134 
f 129 131 134 
f 127 128 135 
f 128 130 135 
f 124 129 136 
f 132 127 137 
f 127 135 138 
f 132 125 139 
f 128 132 139 
f 131 133 140 
f 125 134 140 
f 134 131 140 
f 139 125 140 
f 133 139 140 
f 133 128 141 
f 139 133 141 
f 129 134 142 
f 137 127 142 
f 124 136 143 
f 136 130 143 
f 135 130 144 
f 138 135 144 
f 130 138 144 
f 130 133 145 
f 143 130 145 
f 136 129 146 
f 130 136 146 
f 138 130 146 
f 126 132 147 
f 132 137 147 
f 133 131 148 
f 145 133 148 
f 134 126 149 
f 142 134 149 
f 137 142 149 
f 126 147 149 
f 147 137 149 
f 131 124 150 
f 124 145 150 
f 148 131 150 
f 145 148 150 
f 142 127 151 
f 129 142 151 
f 127 146 151 
f 146 129 151 
f 128 139 152 
f 141 128 152 
f 139 141 152 
f 127 138 153 
f 146 127 153 
f 138 146 153 
f 124 143 154 
f 145 124 154 
o convex_6
v -0.010213 0.075875 0.008545
v -0.006378 0.089823 0.012035
v -0.006378 0.090173 0.011685
v -0.011958 0.087033 0.012035
v -0.011609 0.087383 0.001570
v -0.004633 0.088428 0.001920
v -0.011958 0.075525 0.001570
v -0.011958 0.075525 0.012035
v -0.004284 0.088778 0.011336
v -0.007424 0.090173 0.001920
v -0.010562 0.075525 0.001920
v -0.010562 0.075525 0.012035
v -0.011958 0.087731 0.002268
v -0.005680 0.089126 0.001221
v -0.004633 0.089475 0.001920
v -0.009865 0.088778 0.010987
v -0.004982 0.088428 0.012035
v -0.004284 0.089475 0.011336
v -0.006028 0.090173 0.001920
v -0.007075 0.090173 0.011685
v -0.011609 0.087731 0.011685
v -0.009865 0.076571 0.011685
v -0.010910 0.075525 0.001570
f 168 160 177 
f 156 158 162 
f 158 161 162 
f 155 160 163 
f 160 155 165 
f 162 161 165 
f 162 165 166 
f 156 162 166 
f 165 155 166 
f 161 158 167 
f 159 161 167 
f 164 159 167 
f 161 159 168 
f 159 164 168 
f 163 160 169 
f 160 168 169 
f 164 167 170 
f 156 166 171 
f 166 163 171 
f 157 156 172 
f 163 169 172 
f 156 171 172 
f 171 163 172 
f 164 157 173 
f 168 164 173 
f 169 168 173 
f 157 172 173 
f 172 169 173 
f 156 157 174 
f 158 156 174 
f 157 164 174 
f 164 170 174 
f 174 170 175 
f 167 158 175 
f 170 167 175 
f 158 174 175 
f 155 163 176 
f 163 166 176 
f 166 155 176 
f 160 165 177 
f 165 161 177 
f 161 168 177 
o convex_7
v 0.010018 0.080753 0.006106
v -0.003935 0.042384 0.004711
v 0.000950 0.045525 0.000873
v 0.012460 0.043434 0.010987
v -0.003935 0.066450 0.012034
v -0.003935 0.066099 0.001222
v 0.012460 0.048667 0.000873
v 0.004786 0.085288 0.011685
v 0.004786 0.085288 0.001222
v -0.001492 0.048667 0.013081
v 0.012110 0.070287 0.011685
v 0.012460 0.069592 0.001920
v 0.011762 0.042384 0.001920
v -0.002191 0.050407 -0.000174
v -0.003935 0.042384 0.008546
v -0.003935 0.069939 0.005059
v 0.006879 0.049362 0.013081
v 0.010716 0.075520 0.000873
v 0.004786 0.047274 -0.000174
v 0.010366 0.079356 0.011685
v 0.006529 0.042384 0.010638
v 0.004436 0.083192 0.012034
v 0.007575 0.084238 0.001571
v 0.007227 0.084941 0.011336
v -0.003935 0.047969 0.011685
v 0.012460 0.070634 0.010987
v 0.004436 0.085640 0.001571
v -0.003935 0.069939 0.008546
v 0.010366 0.080055 0.001571
v 0.004436 0.045525 0.012732
v -0.003935 0.048667 0.001222
v 0.012460 0.047969 0.011685
v 0.004436 0.085288 0.011336
v 0.010716 0.079708 0.010987
v 0.012460 0.042384 0.010289
v 0.005482 0.050064 -0.000174
v -0.000794 0.051809 0.013081
v 0.011762 0.070287 0.000873
v 0.012460 0.043781 0.001571
v 0.003043 0.044132 0.001222
v -0.002887 0.049014 0.000175
v -0.003237 0.050060 0.012732
v 0.005482 0.046224 0.013081
v 0.003741 0.043781 0.011685
v -0.002191 0.051457 -0.000174
v 0.005831 0.085640 0.001920
v -0.002191 0.047270 0.012383
v -0.001144 0.073424 0.001571
v 0.003391 0.045873 0.000175
v 0.006180 0.042384 0.002268
v 0.005831 0.085640 0.011336
v 0.004436 0.085640 0.006106
v 0.012460 0.059130 0.000873
v 0.010716 0.079009 0.002967
v 0.000950 0.052855 0.013081
v -0.003237 0.047621 0.000873
v 0.011762 0.042384 0.010638
v 0.000950 0.051457 -0.000174
v 0.006879 0.084589 0.001222
v 0.012460 0.059130 0.011685
v 0.004786 0.083192 0.012034
v 0.012460 0.042384 0.002617
v 0.007227 0.084941 0.005757
v 0.000950 0.077264 0.001222
f 225 204 241 
f 179 182 183 
f 181 184 189 
f 182 179 192 
f 179 190 192 
f 183 182 193 
f 194 188 197 
f 192 190 198 
f 185 182 199 
f 182 192 202 
f 181 189 203 
f 193 182 205 
f 204 193 205 
f 179 183 208 
f 181 203 209 
f 182 185 210 
f 205 182 210 
f 197 188 211 
f 201 197 211 
f 188 203 211 
f 206 178 211 
f 184 181 212 
f 198 190 212 
f 196 191 213 
f 184 196 213 
f 182 187 214 
f 187 194 214 
f 199 182 214 
f 206 189 215 
f 195 206 215 
f 213 195 215 
f 190 196 216 
f 196 184 216 
f 184 212 216 
f 179 180 217 
f 208 183 218 
f 187 182 219 
f 182 202 219 
f 194 187 220 
f 187 207 220 
f 181 209 220 
f 209 194 220 
f 192 198 221 
f 213 191 222 
f 218 183 222 
f 191 218 222 
f 186 204 223 
f 202 192 224 
f 207 187 224 
f 187 219 224 
f 219 202 224 
f 192 221 224 
f 221 207 224 
f 183 193 225 
f 193 204 225 
f 191 196 226 
f 196 190 226 
f 217 180 226 
f 190 217 226 
f 180 218 226 
f 218 191 226 
f 190 179 227 
f 179 217 227 
f 217 190 227 
f 185 201 228 
f 210 185 228 
f 201 223 228 
f 223 204 228 
f 204 205 229 
f 205 210 229 
f 210 228 229 
f 228 204 229 
f 189 184 230 
f 184 213 230 
f 215 189 230 
f 213 215 230 
f 203 189 231 
f 189 206 231 
f 211 203 231 
f 206 211 231 
f 214 194 232 
f 199 214 232 
f 180 179 233 
f 179 208 233 
f 218 180 233 
f 208 218 233 
f 212 181 234 
f 198 212 234 
f 220 207 234 
f 181 220 234 
f 221 198 234 
f 207 221 234 
f 186 195 235 
f 195 213 235 
f 222 186 235 
f 213 222 235 
f 195 186 236 
f 206 195 236 
f 200 206 236 
f 186 223 236 
f 223 200 236 
f 188 194 237 
f 203 188 237 
f 194 209 237 
f 209 203 237 
f 194 197 238 
f 185 199 238 
f 201 185 238 
f 197 201 238 
f 232 194 238 
f 199 232 238 
f 212 190 239 
f 190 216 239 
f 216 212 239 
f 178 206 240 
f 206 200 240 
f 211 178 240 
f 201 211 240 
f 200 223 240 
f 223 201 240 
f 204 186 241 
f 222 183 241 
f 186 222 241 
f 183 225 241 
o convex_8
v -0.013702 -0.082152 0.009941
v -0.007773 -0.089476 0.003314
v -0.007075 -0.089476 0.003314
v -0.011260 -0.082152 0.002965
v -0.007075 -0.086686 0.009592
v -0.009169 -0.089127 0.009941
v -0.012655 -0.085988 0.003663
v -0.010911 -0.082152 0.010291
v -0.012655 -0.085988 0.009941
v -0.007075 -0.087034 0.003314
v -0.013702 -0.082152 0.003663
v -0.007075 -0.089127 0.010291
v -0.010215 -0.082152 0.008895
v -0.010215 -0.088429 0.003663
v -0.012306 -0.085640 0.002965
v -0.010562 -0.082152 0.003314
v -0.012306 -0.085988 0.010291
v -0.007075 -0.089127 0.002965
v -0.013702 -0.082849 0.003663
v -0.007424 -0.089476 0.009941
f 253 247 261 
f 245 242 249 
f 246 244 251 
f 242 245 252 
f 244 246 253 
f 246 249 253 
f 245 249 254 
f 249 246 254 
f 246 251 254 
f 243 247 255 
f 247 250 255 
f 250 248 255 
f 252 245 256 
f 243 255 256 
f 255 248 256 
f 251 245 257 
f 245 254 257 
f 254 251 257 
f 249 242 258 
f 250 247 258 
f 242 250 258 
f 247 253 258 
f 253 249 258 
f 244 243 259 
f 251 244 259 
f 245 251 259 
f 243 256 259 
f 256 245 259 
f 250 242 260 
f 248 250 260 
f 242 252 260 
f 252 256 260 
f 256 248 260 
f 243 244 261 
f 247 243 261 
f 244 253 261 
o convex_9
v -0.006725 -0.089825 0.003663
v -0.002192 -0.087733 0.010291
v -0.002192 -0.089128 0.010291
v -0.002192 -0.089477 0.002965
v -0.007074 -0.087035 0.003314
v -0.007074 -0.089128 0.010291
v -0.002192 -0.087035 0.003314
v -0.007074 -0.087035 0.009941
v -0.003238 -0.090174 0.009592
v -0.002192 -0.087035 0.008895
v -0.003587 -0.090174 0.003314
v -0.007074 -0.089128 0.002965
v -0.005330 -0.090174 0.008546
v -0.002192 -0.089825 0.009592
v -0.002192 -0.087384 0.002965
f 265 273 276 
f 263 264 265 
f 264 263 267 
f 263 265 268 
f 268 266 269 
f 267 263 269 
f 266 267 269 
f 264 267 270 
f 263 268 271 
f 268 269 271 
f 269 263 271 
f 267 266 273 
f 262 267 273 
f 272 262 273 
f 265 272 273 
f 267 262 274 
f 270 267 274 
f 262 272 274 
f 272 270 274 
f 265 264 275 
f 264 270 275 
f 272 265 275 
f 270 272 275 
f 268 265 276 
f 266 268 276 
f 273 266 276 
o convex_10
v -0.013353 -0.082150 0.002965
v -0.009866 -0.066105 0.010291
v -0.007772 -0.066105 0.008546
v -0.012656 -0.066105 0.002965
v -0.013703 -0.082150 0.009941
v -0.007772 -0.076219 0.002965
v -0.007772 -0.076219 0.010291
v -0.013353 -0.068548 0.009941
v -0.010563 -0.082150 0.009941
v -0.007772 -0.066105 0.004710
v -0.013703 -0.073083 0.003663
v -0.010563 -0.082150 0.003663
v -0.012656 -0.066105 0.010291
v -0.009866 -0.066105 0.002965
v -0.013353 -0.066456 0.003663
v -0.013353 -0.082150 0.010291
v -0.013703 -0.082150 0.003314
v -0.007772 -0.072037 0.010291
v -0.007772 -0.072037 0.002965
v -0.013703 -0.076219 0.009941
v -0.007772 -0.076568 0.009941
v -0.011260 -0.082150 0.002965
v -0.007772 -0.076568 0.003314
f 297 288 299 
f 278 279 280 
f 277 280 282 
f 282 279 283 
f 281 277 285 
f 280 279 286 
f 279 282 286 
f 280 277 287 
f 285 277 288 
f 278 280 289 
f 283 278 289 
f 282 280 290 
f 280 286 290 
f 280 287 291 
f 287 284 291 
f 289 280 291 
f 284 289 291 
f 281 285 292 
f 285 283 292 
f 283 289 292 
f 277 281 293 
f 287 277 293 
f 281 287 293 
f 279 278 294 
f 283 279 294 
f 278 283 294 
f 286 282 295 
f 282 290 295 
f 290 286 295 
f 287 281 296 
f 284 287 296 
f 289 284 296 
f 281 292 296 
f 292 289 296 
f 282 283 297 
f 283 285 297 
f 285 288 297 
f 277 282 298 
f 288 277 298 
f 282 288 298 
f 288 282 299 
f 282 297 299 
o convex_11
v -0.007423 -0.075870 0.002965
v -0.006376 -0.072033 0.010291
v -0.002889 -0.066105 0.008546
v -0.002191 -0.075870 0.009592
v -0.002191 -0.075523 0.002965
v -0.007772 -0.066105 0.004710
v -0.007772 -0.076221 0.009941
v -0.002191 -0.066105 0.004710
v -0.007772 -0.066105 0.008546
v -0.007772 -0.072033 0.002965
v -0.002191 -0.072382 0.010291
v -0.002191 -0.072033 0.002965
v -0.007772 -0.076221 0.003314
v -0.007772 -0.075870 0.010291
v -0.002191 -0.066105 0.008197
v -0.002191 -0.075870 0.003314
v -0.002191 -0.075174 0.010291
v -0.007772 -0.072033 0.010291
f 308 313 317 
f 303 304 307 
f 305 302 307 
f 301 302 308 
f 302 305 308 
f 305 306 308 
f 304 300 309 
f 306 305 309 
f 305 307 309 
f 302 301 310 
f 303 307 310 
f 307 304 311 
f 304 309 311 
f 309 307 311 
f 303 306 312 
f 309 300 312 
f 306 309 312 
f 308 306 313 
f 310 301 313 
f 307 302 314 
f 302 310 314 
f 310 307 314 
f 300 304 315 
f 304 303 315 
f 312 300 315 
f 303 312 315 
f 306 303 316 
f 303 310 316 
f 313 306 316 
f 310 313 316 
f 301 308 317 
f 313 301 317 
o convex_12
v -0.001842 -0.088778 0.002616
v 0.002692 -0.083897 0.010291
v 0.002692 -0.082152 0.009941
v -0.002190 -0.087731 0.010291
v 0.002692 -0.087382 0.003314
v 0.001995 -0.081802 0.003314
v 0.000948 -0.089127 0.009593
v -0.002190 -0.087034 0.003314
v -0.002190 -0.089826 0.003314
v 0.002692 -0.082850 0.002616
v 0.002692 -0.086686 0.010291
v -0.002190 -0.089826 0.009593
v 0.001995 -0.081802 0.007848
v -0.000097 -0.089476 0.003314
v -0.002190 -0.087034 0.009593
v 0.002692 -0.086686 0.002616
v -0.000795 -0.089127 0.010291
v 0.002692 -0.087382 0.009593
v 0.002343 -0.081802 0.009593
v 0.002692 -0.081802 0.002966
v 0.001297 -0.088778 0.003314
f 335 324 338 
f 319 320 321 
f 320 319 322 
f 325 318 326 
f 321 325 326 
f 320 322 327 
f 318 325 327 
f 319 321 328 
f 322 319 328 
f 321 326 329 
f 323 325 330 
f 326 318 331 
f 324 329 331 
f 329 326 331 
f 325 321 332 
f 330 325 332 
f 318 327 333 
f 327 322 333 
f 331 318 333 
f 328 321 334 
f 324 328 334 
f 329 324 334 
f 321 329 334 
f 322 328 335 
f 328 324 335 
f 321 320 336 
f 323 330 336 
f 332 321 336 
f 330 332 336 
f 325 323 337 
f 320 327 337 
f 327 325 337 
f 336 320 337 
f 323 336 337 
f 324 331 338 
f 333 322 338 
f 331 333 338 
f 322 335 338 
o convex_13
v 0.003042 0.042033 0.008547
v -0.003935 0.028779 0.004709
v -0.003935 0.028779 0.008547
v -0.003935 0.042384 0.004709
v 0.003042 0.028779 0.004709
v -0.003935 0.042384 0.008547
v 0.003042 0.042384 0.004709
v 0.003042 0.028779 0.008197
v 0.000949 0.028779 0.008547
v 0.003042 0.042384 0.008547
f 339 345 348 
f 340 341 342 
f 341 340 343 
f 340 342 343 
f 341 339 344 
f 342 341 344 
f 342 344 345 
f 339 343 345 
f 343 342 345 
f 343 339 346 
f 341 343 346 
f 339 341 347 
f 346 339 347 
f 341 346 347 
f 344 339 348 
f 345 344 348 
o convex_14
v 0.012111 0.042384 0.010290
v 0.003042 0.028779 0.004361
v 0.003042 0.028779 0.008546
v 0.003042 0.042384 0.004710
v 0.011414 0.042384 0.001919
v 0.006881 0.028779 0.008894
v 0.005484 0.041686 0.010290
v 0.005834 0.028779 0.002618
v 0.004088 0.037848 0.002618
v 0.004088 0.028779 0.010290
v 0.003042 0.042384 0.008197
v 0.012111 0.042033 0.002618
v 0.006532 0.042384 0.002269
v 0.006881 0.029477 0.003315
v 0.004088 0.028779 0.002618
v 0.011763 0.042033 0.010639
v 0.006183 0.028779 0.010290
v 0.012111 0.041686 0.009941
v 0.007577 0.042384 0.010639
v 0.004437 0.038544 0.010290
v 0.012111 0.041686 0.004012
v 0.006881 0.028779 0.009592
f 366 364 370 
f 350 351 352 
f 352 349 353 
f 351 350 354 
f 354 350 356 
f 350 352 357 
f 351 354 358 
f 352 351 359 
f 349 352 359 
f 351 358 359 
f 353 349 360 
f 356 353 360 
f 352 353 361 
f 357 352 361 
f 354 356 362 
f 356 360 362 
f 356 350 363 
f 353 356 363 
f 350 357 363 
f 361 353 363 
f 357 361 363 
f 364 358 365 
f 358 354 365 
f 360 349 366 
f 349 364 366 
f 359 355 367 
f 349 359 367 
f 364 349 367 
f 358 364 367 
f 355 359 368 
f 359 358 368 
f 367 355 368 
f 358 367 368 
f 354 362 369 
f 362 360 369 
f 366 354 369 
f 360 366 369 
f 364 365 370 
f 365 354 370 
f 354 366 370 
o convex_15
v 0.014554 0.047617 0.000872
v 0.013507 0.057731 0.007151
v 0.012460 0.057731 0.007151
v 0.012460 0.043081 0.007151
v 0.018042 0.049711 0.007151
v 0.018042 0.056684 0.000872
v 0.012460 0.058779 0.000872
v 0.012460 0.043081 0.002268
v 0.018042 0.049711 0.001570
v 0.018042 0.057382 0.004012
v 0.013158 0.059477 0.004360
v 0.012460 0.048315 0.000872
v 0.013158 0.043433 0.007151
v 0.013158 0.059477 0.001570
v 0.018042 0.050408 0.000872
v 0.018042 0.050756 0.007151
v 0.012810 0.043081 0.002268
v 0.018042 0.056684 0.004709
v 0.012460 0.059477 0.004360
f 381 384 389 
f 372 373 374 
f 372 374 375 
f 374 373 377 
f 376 371 377 
f 374 377 378 
f 376 375 379 
f 375 376 380 
f 373 372 381 
f 372 380 381 
f 377 371 382 
f 371 378 382 
f 378 377 382 
f 375 374 383 
f 379 375 383 
f 376 377 384 
f 380 376 384 
f 381 380 384 
f 371 376 385 
f 376 379 385 
f 372 375 386 
f 375 380 386 
f 378 371 387 
f 374 378 387 
f 383 374 387 
f 379 383 387 
f 371 385 387 
f 385 379 387 
f 380 372 388 
f 372 386 388 
f 386 380 388 
f 377 373 389 
f 373 381 389 
f 384 377 389 
o convex_16
v 0.018740 0.057034 0.004011
v 0.018042 0.050059 0.001570
v 0.018042 0.050059 0.002267
v 0.023274 0.053547 0.001221
v 0.018042 0.056336 0.000872
v 0.022576 0.053895 0.004709
v 0.018042 0.055290 0.004709
v 0.023274 0.054941 0.001221
v 0.018740 0.050757 0.000872
v 0.023274 0.054941 0.004011
v 0.023274 0.053547 0.004011
v 0.018042 0.057034 0.001221
v 0.022925 0.054593 0.000872
v 0.018042 0.056685 0.004709
v 0.018042 0.050757 0.002965
v 0.019089 0.050408 0.001570
f 393 400 405 
f 391 392 394 
f 394 392 396 
f 391 394 398 
f 397 390 399 
f 393 397 399 
f 395 392 400 
f 399 395 400 
f 393 399 400 
f 394 396 401 
f 390 397 401 
f 401 397 402 
f 397 393 402 
f 393 398 402 
f 398 394 402 
f 394 401 402 
f 396 395 403 
f 399 390 403 
f 395 399 403 
f 390 401 403 
f 401 396 403 
f 392 395 404 
f 396 392 404 
f 395 396 404 
f 392 391 405 
f 391 398 405 
f 398 393 405 
f 400 392 405 
o convex_17
v 0.013507 0.059477 0.010988
v 0.012460 0.042733 0.007849
v 0.012460 0.042733 0.010290
v 0.018391 0.049711 0.010290
v 0.012460 0.057731 0.007151
v 0.018391 0.056684 0.007849
v 0.018391 0.056335 0.011686
v 0.018042 0.049711 0.007151
v 0.012460 0.047966 0.011686
v 0.012460 0.059126 0.011686
v 0.018391 0.050757 0.011686
v 0.012809 0.043083 0.007151
v 0.013158 0.059477 0.008198
v 0.018042 0.057384 0.010988
v 0.013507 0.045525 0.011337
v 0.012809 0.042733 0.010290
v 0.018042 0.057384 0.008198
v 0.012809 0.042733 0.007849
v 0.013507 0.057731 0.007151
f 418 422 424 
f 407 408 410 
f 409 411 412 
f 411 409 413 
f 410 408 414 
f 414 412 415 
f 410 414 415 
f 409 412 416 
f 412 414 416 
f 407 410 417 
f 410 413 417 
f 415 406 418 
f 410 415 418 
f 412 411 419 
f 415 412 419 
f 406 415 419 
f 414 408 420 
f 416 414 420 
f 416 420 421 
f 408 407 421 
f 409 416 421 
f 420 408 421 
f 418 406 422 
f 419 411 422 
f 406 419 422 
f 413 409 423 
f 407 417 423 
f 417 413 423 
f 421 407 423 
f 409 421 423 
f 413 410 424 
f 411 413 424 
f 410 418 424 
f 422 411 424 
o convex_18
v 0.023623 0.054593 0.010639
v 0.018391 0.050059 0.010290
v 0.018740 0.050059 0.010290
v 0.018740 0.055987 0.007500
v 0.018391 0.056336 0.011686
v 0.022576 0.053895 0.007500
v 0.018740 0.050757 0.011686
v 0.018391 0.057034 0.008198
v 0.022925 0.053547 0.011337
v 0.023274 0.054941 0.008198
v 0.023623 0.053547 0.009941
v 0.018740 0.057034 0.010988
v 0.018391 0.050757 0.009593
v 0.023274 0.053547 0.008198
v 0.023274 0.054941 0.010988
f 434 436 439 
f 426 427 431 
f 429 426 431 
f 426 429 432 
f 431 427 433 
f 429 431 433 
f 430 428 434 
f 428 432 434 
f 425 433 435 
f 433 427 435 
f 434 425 435 
f 432 429 436 
f 434 432 436 
f 427 426 437 
f 430 427 437 
f 428 430 437 
f 426 432 437 
f 432 428 437 
f 427 430 438 
f 430 434 438 
f 435 427 438 
f 434 435 438 
f 433 425 439 
f 429 433 439 
f 425 434 439 
f 436 429 439 
o convex_19
v -0.001144 -0.075523 0.002616
v 0.002692 -0.070292 0.010291
v 0.002692 -0.069593 0.009941
v 0.002692 -0.081802 0.002966
v -0.002190 -0.075175 0.010291
v 0.002692 -0.069244 0.002966
v -0.002190 -0.069244 0.004710
v 0.002692 -0.081453 0.009941
v -0.002190 -0.075871 0.003314
v -0.002190 -0.069244 0.008197
v 0.001995 -0.081802 0.008197
v -0.002190 -0.072037 0.002966
v -0.002190 -0.072384 0.010291
v 0.002692 -0.069944 0.002616
v 0.001995 -0.081802 0.003314
v -0.002190 -0.075871 0.009593
v 0.002692 -0.078662 0.010291
v 0.002692 -0.080058 0.002616
v 0.001995 -0.069244 0.009593
v 0.002343 -0.081802 0.009593
f 455 450 459 
f 442 441 443 
f 442 443 445 
f 443 441 447 
f 444 446 448 
f 446 444 449 
f 445 446 449 
f 446 445 451 
f 440 448 451 
f 448 446 451 
f 441 442 452 
f 444 441 452 
f 449 444 452 
f 445 443 453 
f 440 451 453 
f 451 445 453 
f 440 443 454 
f 448 440 454 
f 443 450 454 
f 450 448 454 
f 444 448 455 
f 448 450 455 
f 441 444 456 
f 447 441 456 
f 444 447 456 
f 443 440 457 
f 440 453 457 
f 453 443 457 
f 442 445 458 
f 445 449 458 
f 452 442 458 
f 449 452 458 
f 443 447 459 
f 447 444 459 
f 450 443 459 
f 444 455 459 
o convex_20
v 0.002692 -0.051107 0.003314
v 0.002692 -0.060171 0.009593
v 0.002343 -0.060171 0.009593
v 0.002692 -0.069242 0.002965
v -0.002190 -0.047621 0.004710
v -0.002190 -0.069242 0.008197
v 0.002343 -0.047968 0.009244
v -0.002190 -0.047621 0.008197
v -0.002190 -0.069242 0.004710
v 0.002692 -0.069242 0.009593
v 0.002692 -0.047621 0.003663
v 0.002343 -0.061566 0.002965
v 0.002692 -0.047621 0.008894
f 470 467 472 
f 460 461 463 
f 462 461 466 
f 465 462 467 
f 464 465 467 
f 462 466 467 
f 465 464 468 
f 463 465 468 
f 461 462 469 
f 463 461 469 
f 462 465 469 
f 465 463 469 
f 461 460 470 
f 460 464 470 
f 464 467 470 
f 460 463 471 
f 464 460 471 
f 463 468 471 
f 468 464 471 
f 466 461 472 
f 467 466 472 
f 461 470 472 
