# https://github.com/mikedh/trimesh
v 0.00943383 0.07218515 0.01598947
v 0.00943383 0.07218515 0.01598947
v 0.00943383 0.07218515 0.01491261
v 0.00799762 0.06871782 0.01598947
v 0.00799762 0.06871782 0.01598947
v 0.00799762 0.06871782 0.01491261
v -0.00406693 0.07202820 0.01628766
v -0.00406693 0.07202820 0.02690100
v -0.00406693 0.07772193 0.02652061
v -0.00406693 0.07772193 0.01630852
v -0.00406693 0.07609513 0.01628766
v -0.00406693 0.07609513 0.02690100
v -0.00406693 0.07040140 0.02652061
v -0.00406693 0.07040140 0.01630852
v -0.00406693 0.07406166 0.02710248
v -0.00406693 0.07406166 0.01628766
v 0.00170596 0.07051918 0.02724830
v 0.00170596 0.07051918 0.02724830
v 0.00383327 0.07318673 0.02724785
v 0.00383327 0.07318673 0.02724785
v -0.00534384 0.06606404 0.01598947
v -0.00534384 0.06606404 0.01598947
v -0.00534384 0.06606404 0.01491261
v -0.00534384 0.06606405 0.00568204
v -0.00534384 0.06606405 0.00460518
v -0.00534384 0.06606405 0.00460518
v 0.00680142 0.06726024 0.01598947
v 0.00680142 0.06726024 0.01598947
v 0.00680142 0.06726024 0.01491261
v 0.00368089 0.08294814 0.01598947
v 0.00368089 0.08294814 0.01598947
v 0.00368089 0.08294814 0.00568204
v 0.00368089 0.08294814 0.01491261
v 0.00368089 0.08294814 0.00460518
v 0.00368089 0.08294814 0.00460518
v -0.00961865 0.07406165 0.01598947
v -0.00961865 0.07406165 0.01598947
v -0.00961865 0.07406165 0.01491261
v 0.00888647 0.07774256 0.01598947
v 0.00888647 0.07774256 0.01598947
v 0.00888647 0.07774256 0.01491261
v -0.00680141 0.06726025 0.00568204
v -0.00680141 0.06726025 0.00460518
v -0.00680141 0.06726025 0.00460518
v -0.00170597 0.07051918 0.02724830
v -0.00170597 0.07051918 0.02724830
v -0.00170597 0.07760414 0.02724785
v -0.00170597 0.07760414 0.02724785
v 0.00406692 0.07202820 0.01628766
v 0.00406692 0.07202820 0.02690100
v 0.00406692 0.07772193 0.02652061
v 0.00406692 0.07772193 0.01630852
v 0.00406692 0.07609513 0.01628766
v 0.00406692 0.07609513 0.02690100
v 0.00406692 0.07040140 0.02652061
v 0.00406692 0.07040140 0.01630852
v 0.00406692 0.07406166 0.02710248
v 0.00406692 0.07406166 0.01628766
v 0.00553243 0.07406166 0.01578881
v 0.00553243 0.07406166 0.01628312
v 0.00553243 0.07406166 0.01628312
v 0.00187650 0.06462782 0.01598947
v 0.00187650 0.06462782 0.01598947
v 0.00187650 0.06462782 0.00568204
v 0.00187650 0.06462782 0.01491261
v 0.00187650 0.06462782 0.00460518
v 0.00187650 0.06462782 0.00460518
v -0.00366028 0.07812858 0.02652765
v -0.00366028 0.07812858 0.02652765
v -0.00366028 0.07812858 0.01630852
v -0.00366028 0.07812858 0.01630852
v -0.00366028 0.06999474 0.02652765
v -0.00366028 0.06999474 0.02652765
v -0.00366028 0.06999474 0.01630852
v -0.00366028 0.06999474 0.01630852
v -0.00799762 0.06871782 0.00568204
v -0.00799762 0.06871782 0.00460518
v -0.00799762 0.06871782 0.00460518
v -0.00307405 0.07161019 0.02724246
v -0.00307405 0.07161019 0.02724246
v -0.00307405 0.07651313 0.02724785
v -0.00307405 0.07651313 0.02724785
v 0.00534383 0.08205928 0.01598947
v 0.00534383 0.08205928 0.01598947
v 0.00534383 0.08205928 0.01491261
v 0.00943383 0.07218515 0.00568204
v 0.00943383 0.07218515 0.00460518
v 0.00943383 0.07218515 0.00460518
v 0.00943383 0.07593817 0.01598947
v 0.00943383 0.07593817 0.01598947
v 0.00943383 0.07593817 0.01491261
v 0.00943383 0.07593816 0.00568204
v 0.00943383 0.07593816 0.00460518
v 0.00943383 0.07593816 0.00460518
v -0.00943383 0.07218515 0.01598947
v -0.00943383 0.07218515 0.01598947
v -0.00943383 0.07218515 0.01491261
v -0.00526451 0.07255667 0.01580324
v -0.00526451 0.07255667 0.01628312
v -0.00526451 0.07255667 0.01628312
v -0.00799762 0.07940549 0.00568204
v -0.00799762 0.07940549 0.00460518
v -0.00799762 0.07940549 0.00460518
v 0.00799761 0.07940550 0.01598947
v 0.00799761 0.07940550 0.01598947
v 0.00799761 0.07940550 0.01491261
v 0.00368979 0.06996522 0.01649977
v 0.00368979 0.06996522 0.01649977
v 0.00368979 0.06996522 0.01590129
v 0.00154789 0.07930690 0.01580538
v 0.00154789 0.07930690 0.01628312
v 0.00154789 0.07930690 0.01628312
v -0.00187651 0.06462782 0.00568204
v -0.00187651 0.06462782 0.00568204
v -0.00187651 0.06462782 0.00460518
v -0.00187651 0.06462782 0.00460518
v -0.00187651 0.06462782 0.00460518
v -0.00187651 0.06462783 0.01598947
v -0.00187651 0.06462783 0.01598947
v -0.00187651 0.06462783 0.01598947
v -0.00187651 0.06462783 0.01491261
v -0.00187651 0.06462783 0.01491261
v -0.00408471 0.07038870 0.01649977
v -0.00408471 0.07038870 0.01649977
v -0.00408471 0.07038870 0.01590129
v 0.00410338 0.07774016 0.01649977
v 0.00410338 0.07774016 0.01649977
v 0.00410338 0.07774016 0.01590129
v -0.00961866 0.07406165 0.00568204
v -0.00961866 0.07406165 0.00460518
v -0.00961866 0.07406165 0.00460518
v 0.00203346 0.07812858 0.02693616
v 0.00203346 0.07812858 0.02693616
v 0.00203346 0.07812858 0.01628766
v 0.00203346 0.06999474 0.02686584
v 0.00203346 0.06999474 0.02686584
v 0.00203346 0.06999474 0.01628766
v 0.00160119 0.06884059 0.01580818
v 0.00160119 0.06884059 0.01628312
v 0.00160119 0.06884059 0.01628312
v -0.00368091 0.08294813 0.01598947
v -0.00368091 0.08294813 0.01598947
v -0.00368091 0.08294813 0.01491261
v -0.00154558 0.07930613 0.01580538
v -0.00154558 0.07930613 0.01628312
v -0.00154558 0.07930613 0.01628312
v 0.00799762 0.06871782 0.00568204
v 0.00799762 0.06871782 0.00460518
v 0.00799762 0.06871782 0.00460518
v -0.00368090 0.06517519 0.00568204
v -0.00368090 0.06517519 0.00460518
v -0.00368090 0.06517519 0.00460518
v -0.00534384 0.08205927 0.00568204
v -0.00534384 0.08205927 0.00460518
v -0.00534384 0.08205927 0.00460518
v 0.00187650 0.08349549 0.01598947
v 0.00187650 0.08349549 0.01598947
v 0.00187650 0.08349549 0.00568204
v 0.00187650 0.08349549 0.01491261
v 0.00187650 0.08349549 0.00460518
v 0.00187650 0.08349549 0.00460518
v 0.00368090 0.06517518 0.01598947
v 0.00368090 0.06517518 0.01598947
v 0.00368090 0.06517518 0.01491261
v 0.00409644 0.07037188 0.01649977
v 0.00409644 0.07037188 0.01649977
v 0.00409644 0.07037188 0.01590129
v -0.00187651 0.08349549 0.01598947
v -0.00187651 0.08349549 0.01598947
v -0.00187651 0.08349549 0.00568204
v -0.00187651 0.08349549 0.01491261
v -0.00187651 0.08349549 0.00460518
v -0.00187651 0.08349549 0.00460518
v -0.00680142 0.08086307 0.00568204
v -0.00680142 0.08086307 0.00460518
v -0.00680142 0.08086307 0.00460518
v -0.00203347 0.07812858 0.01609641
v -0.00203347 0.07812858 0.02693616
v -0.00203347 0.07812858 0.02693616
v -0.00203347 0.06999474 0.02693616
v -0.00203347 0.06999474 0.02693616
v -0.00203347 0.06999474 0.01628766
v -0.00160003 0.06884225 0.01580818
v -0.00160003 0.06884225 0.01580818
v -0.00160003 0.06884225 0.01628312
v -0.00160003 0.06884225 0.01628312
v -0.00160003 0.06884225 0.01628312
v -0.00888648 0.07774255 0.00568204
v -0.00888648 0.07774255 0.00460518
v -0.00888648 0.07774255 0.00460518
v -0.00300800 0.06950745 0.01588162
v -0.00300800 0.06950745 0.01628312
v -0.00300800 0.06950745 0.01628312
v -0.00367806 0.06998205 0.01649977
v -0.00367806 0.06998205 0.01649977
v -0.00367806 0.06998205 0.01590129
v 0.00680142 0.06726025 0.00568204
v 0.00680142 0.06726025 0.00460518
v 0.00680142 0.06726025 0.00460518
v -0.00680141 0.06726025 0.01598947
v -0.00680141 0.06726025 0.01598947
v -0.00680141 0.06726025 0.01491261
v -0.00383328 0.07493658 0.02724785
v -0.00383328 0.07493658 0.02724785
v -0.00383328 0.07318673 0.02724785
v -0.00383328 0.07318673 0.02724785
v -0.00300381 0.07861410 0.01588162
v -0.00300381 0.07861410 0.01628312
v -0.00300381 0.07861410 0.01628312
v -0.00000001 0.08368031 0.01598947
v -0.00000001 0.08368031 0.01598947
v -0.00000001 0.08368031 0.00568204
v -0.00000001 0.08368031 0.01491261
v -0.00000001 0.08368031 0.00460518
v -0.00000001 0.08368031 0.00460518
v -0.00799762 0.06871782 0.01598947
v -0.00799762 0.06871782 0.01598947
v -0.00799762 0.06871782 0.01491261
v 0.00888648 0.07038076 0.00568204
v 0.00888648 0.07038076 0.00460518
v 0.00888648 0.07038076 0.00460518
v -0.00455245 0.07706546 0.01588162
v -0.00455245 0.07706546 0.01628312
v -0.00455245 0.07706546 0.01628312
v 0.00170596 0.07760414 0.02724785
v 0.00170596 0.07760414 0.02724785
v 0.00170596 0.07760414 0.02724785
v 0.00383327 0.07493658 0.02724785
v 0.00383327 0.07493658 0.02724785
v 0.00301687 0.07861850 0.01588162
v 0.00301687 0.07861850 0.01628312
v 0.00301687 0.07861850 0.01628312
v -0.00680142 0.08086306 0.01598947
v -0.00680142 0.08086306 0.01598947
v -0.00680142 0.08086306 0.01491261
v 0.00301358 0.06949945 0.01588162
v 0.00301358 0.06949945 0.01628312
v 0.00301358 0.06949945 0.01628312
v 0.00888647 0.07774256 0.00568204
v 0.00888647 0.07774256 0.00460518
v 0.00888647 0.07774256 0.00460518
v 0.00534384 0.06606404 0.00568204
v 0.00534384 0.06606404 0.00460518
v 0.00534384 0.06606404 0.00460518
v 0.00534384 0.06606404 0.01598947
v 0.00534384 0.06606404 0.01598947
v 0.00534384 0.06606404 0.01491261
v 0.00525945 0.07558083 0.01580396
v 0.00525945 0.07558083 0.01628312
v 0.00525945 0.07558083 0.01628312
v 0.00369673 0.07814681 0.01649977
v 0.00369673 0.07814681 0.01649977
v 0.00369673 0.07814681 0.01590129
v 0.00961865 0.07406166 0.01598947
v 0.00961865 0.07406166 0.01598947
v 0.00961865 0.07406166 0.00568204
v 0.00961865 0.07406166 0.01491261
v 0.00961865 0.07406166 0.00460518
v 0.00961865 0.07406166 0.00460518
v -0.00553243 0.07406166 0.01578881
v -0.00553243 0.07406166 0.01628312
v -0.00553243 0.07406166 0.01628312
v -0.00368090 0.06517519 0.01598947
v -0.00368090 0.06517519 0.01598947
v -0.00368090 0.06517519 0.01491261
v -0.00534384 0.08205927 0.01598947
v -0.00534384 0.08205927 0.01598947
v -0.00534384 0.08205927 0.01491261
v -0.00407590 0.07773091 0.01649977
v -0.00407590 0.07773091 0.01649977
v -0.00407590 0.07773091 0.01590129
v 0.00368090 0.06517518 0.00568204
v 0.00368090 0.06517518 0.00460518
v 0.00368090 0.06517518 0.00460518
v 0.00888648 0.07038076 0.01598947
v 0.00888648 0.07038076 0.01598947
v 0.00888648 0.07038076 0.01491261
v 0.00534383 0.08205928 0.00568204
v 0.00534383 0.08205928 0.00460518
v 0.00534383 0.08205928 0.00460518
v -0.00943384 0.07218515 0.00568204
v -0.00943384 0.07218515 0.00460518
v -0.00943384 0.07218515 0.00460518
v -0.00943384 0.07593816 0.01598947
v -0.00943384 0.07593816 0.01598947
v -0.00943384 0.07593816 0.00568204
v -0.00943384 0.07593816 0.01491261
v -0.00943384 0.07593816 0.00460518
v -0.00943384 0.07593816 0.00460518
v -0.00888648 0.07774255 0.01598947
v -0.00888648 0.07774255 0.01598947
v -0.00888648 0.07774255 0.01491261
v -0.00526386 0.07556638 0.01580324
v -0.00526386 0.07556638 0.01628312
v -0.00526386 0.07556638 0.01628312
v 0.00525892 0.07254162 0.01580396
v 0.00525892 0.07254162 0.01628312
v 0.00525892 0.07254162 0.01628312
v -0.00799762 0.07940549 0.01598947
v -0.00799762 0.07940549 0.01598947
v -0.00799762 0.07940549 0.01491261
v 0.00799761 0.07940549 0.00568204
v 0.00799761 0.07940549 0.00460518
v 0.00799761 0.07940549 0.00460518
v -0.00000000 0.06444300 0.01598947
v -0.00000000 0.06444300 0.01598947
v -0.00000000 0.06444300 0.00568204
v -0.00000000 0.06444300 0.01491261
v -0.00000000 0.06444300 0.00460518
v -0.00000000 0.06444300 0.00460518
v -0.00000000 0.07014769 0.02724830
v -0.00000000 0.07014769 0.02724830
v -0.00000000 0.07799351 0.02724785
v -0.00000000 0.07799351 0.02724785
v -0.00000000 0.06852923 0.01578881
v -0.00000000 0.06852923 0.01628312
v -0.00000000 0.06852923 0.01628312
v -0.00000000 0.07959408 0.01578881
v -0.00000000 0.07959408 0.01628312
v -0.00000000 0.07959408 0.01628312
v -0.00000000 0.07406166 0.01598947
v -0.00000000 0.07406166 0.01643663
v -0.00000000 0.07406166 0.00460518
v -0.00000000 0.07406166 0.02724785
v -0.00000000 0.07406166 0.02724785
v -0.00000000 0.07812858 0.02710248
v -0.00000000 0.07812858 0.02710248
v -0.00000000 0.07812858 0.01628766
v -0.00000000 0.06999474 0.02710248
v -0.00000000 0.06999474 0.02710248
v -0.00000000 0.06999474 0.01628766
v 0.00456551 0.07706987 0.01588162
v 0.00456551 0.07706987 0.01628312
v 0.00456551 0.07706987 0.01628312
v -0.00368091 0.08294813 0.00568204
v -0.00368091 0.08294813 0.00460518
v -0.00368091 0.08294813 0.00460518
v -0.00455664 0.07105608 0.01588162
v -0.00455664 0.07105608 0.01628312
v -0.00455664 0.07105608 0.01628312
v 0.00680141 0.08086308 0.01598947
v 0.00680141 0.08086308 0.01598947
v 0.00680141 0.08086308 0.00568204
v 0.00680141 0.08086308 0.01491261
v 0.00680141 0.08086308 0.00460518
v 0.00680141 0.08086308 0.00460518
v 0.00307404 0.07161019 0.02724785
v 0.00307404 0.07161019 0.02724785
v 0.00307404 0.07651313 0.02724785
v 0.00307404 0.07651313 0.02724785
v 0.00307404 0.07651313 0.02724785
v -0.00888648 0.07038075 0.01598947
v -0.00888648 0.07038075 0.01598947
v -0.00888648 0.07038075 0.00568204
v -0.00888648 0.07038075 0.01491261
v -0.00888648 0.07038075 0.00460518
v -0.00888648 0.07038075 0.00460518
v 0.00456221 0.07104809 0.01588162
v 0.00456221 0.07104809 0.01628312
v 0.00456221 0.07104809 0.01628312
v -0.00366925 0.07813755 0.01649977
v -0.00366925 0.07813755 0.01649977
v -0.00366925 0.07813755 0.01590129
v 0.00366027 0.07812858 0.02652765
v 0.00366027 0.07812858 0.02652765
v 0.00366027 0.07812858 0.01630852
v 0.00366027 0.06999474 0.01630852
v 0.00366027 0.06999474 0.02651358
v 0.00366027 0.06999474 0.02651358
v 0.00282327 -0.03394019 0.01926052
v -0.00279820 -0.02259406 0.00290886
v -0.00662686 -0.06332205 0.01851646
v 0.00324006 -0.07430272 0.01925809
v 0.00325591 -0.05497531 0.00039376
v 0.00465403 -0.08595488 0.00463265
v 0.00465403 -0.08595488 0.00463265
v 0.00694524 -0.05493815 0.01859916
v -0.00537466 -0.02263487 0.00475613
v -0.00674061 -0.04636142 0.00264513
v 0.00648778 -0.07462784 0.00301214
v 0.00648778 -0.07462784 0.00301214
v -0.01001558 -0.03414053 0.01029424
v -0.01054316 -0.07438429 0.01029424
v 0.00577465 -0.08843365 0.01347185
v 0.00697374 -0.08601232 0.01409995
v 0.00754039 -0.02255907 0.01364956
v -0.00938359 -0.07432820 0.01481928
v 0.00000939 -0.02155829 0.01734624
v 0.00000939 -0.02155829 0.01734624
v 0.00000939 -0.02155829 0.01734624
v -0.00697375 -0.08601232 0.01409995
v -0.00697375 -0.08601232 0.01409995
v -0.00000448 -0.02258552 0.01851254
v 0.00000010 -0.08854213 0.00393036
v -0.00301964 -0.07430676 0.01914183
v 0.00334019 -0.06335993 0.02002151
v 0.01054315 -0.07438429 0.01029424
v -0.00803205 -0.02256362 0.01032379
v 0.01001558 -0.03414053 0.01029424
v 0.00511387 -0.08991805 0.01029424
v 0.00321491 -0.02258236 0.00298916
v 0.00216287 -0.08996150 0.00667371
v -0.00000159 -0.08854718 0.01656702
v 0.00703087 -0.04636005 0.00265619
v 0.00703087 -0.04636005 0.00265619
v 0.00653935 -0.04644001 0.01854602
v -0.00660564 -0.05494153 0.01860469
v 0.00920362 -0.03414033 0.00726154
v 0.00019640 -0.02155600 0.00351901
v 0.00019640 -0.02155600 0.00351901
v 0.00019640 -0.02155600 0.00351901
v -0.00705799 -0.08603502 0.00686326
v -0.00705799 -0.08603502 0.00686326
v -0.00244953 -0.02156012 0.00402832
v -0.00244953 -0.02156012 0.00402832
v -0.00244953 -0.02156012 0.00402832
v -0.01147613 -0.04630591 0.01029424
v -0.01039009 -0.06321763 0.01516182
v -0.00576765 -0.03418400 0.01778961
v -0.01037084 -0.05492023 0.01520243
v 0.00572930 -0.02261886 0.00490300
v 0.00572930 -0.02261886 0.00490300
v -0.00298093 -0.02260823 0.01786254
v 0.00764006 -0.02255941 0.00746742
v -0.00304697 -0.02155674 0.01407626
v 0.00890983 -0.03414026 0.01442422
v -0.00236901 -0.08853415 0.00466401
v 0.01165717 -0.05492023 0.01029424
v 0.00457138 -0.08994451 0.01219643
v -0.00256355 -0.04632343 0.00062117
v -0.00736118 -0.02257236 0.00723959
v 0.00782929 -0.08624288 0.01029424
v 0.00460269 -0.08994783 0.00841856
v 0.00956641 -0.07433704 0.00648268
v -0.00483988 -0.02156496 0.01524489
v -0.00483988 -0.02156496 0.01524489
v -0.00483988 -0.02156496 0.01524489
v -0.00236701 -0.07429641 0.00122140
v -0.00203122 -0.08995951 0.01392637
v -0.00304989 -0.04633927 0.01987726
v -0.00287652 -0.03393222 0.01908856
v 0.00256887 -0.08615888 0.00330483
v 0.00256887 -0.08615888 0.00330483
v -0.00342511 -0.02155674 0.01029424
v 0.00564366 -0.02259864 0.01625574
v 0.00652853 -0.02154694 0.00787370
v -0.00469401 -0.08604304 0.01640886
v -0.00469401 -0.08604304 0.01640886
v 0.01167763 -0.06321763 0.01029424
v 0.00646012 -0.02154791 0.01316861
v 0.00380870 -0.02155674 0.00656343
v -0.00633899 -0.02156799 0.01300085
v -0.00633899 -0.02156799 0.01300085
v -0.00633899 -0.02156799 0.01300085
v -0.00610918 -0.07435576 0.01807553
v -0.00292732 -0.06337368 0.01993486
v -0.01020931 -0.04630591 0.01500828
v 0.01057366 -0.05492023 0.00615995
v 0.00491788 -0.08600608 0.01640871
v -0.00302985 -0.05497764 0.02003478
v -0.00224459 -0.03463138 0.00144916
v -0.00260474 -0.05498192 0.00038367
v 0.00303162 -0.02259559 0.01793372
v -0.01040906 -0.04630591 0.00632348
v -0.00216322 -0.08618694 0.00326182
v -0.00216322 -0.08618694 0.00326182
v -0.00742584 -0.02257498 0.01346577
v 0.00577060 -0.03420689 0.01804930
v 0.00346767 -0.05497318 0.02010313
v -0.00262504 -0.02156230 0.01677586
v -0.00262504 -0.02156230 0.01677586
v -0.00262504 -0.02156230 0.01677586
v -0.00590017 -0.03439074 0.00328245
v -0.00546956 -0.08849246 0.00736849
v 0.00681094 -0.08849975 0.01029470
v 0.00396082 -0.08839135 0.00562856
v 0.00019467 -0.02258107 0.00235243
v 0.00714075 -0.06347818 0.00253445
v 0.00714075 -0.06347818 0.00253445
v 0.00212790 -0.08995917 0.01409765
v -0.00304697 -0.02155674 0.00651221
v 0.01040905 -0.04630591 0.00632348
v 0.00295771 -0.07429798 0.00122510
v 0.00508007 -0.02154990 0.00558969
v 0.00508007 -0.02154990 0.00558969
v 0.00938358 -0.07432820 0.01481928
v 0.00822313 -0.02254651 0.01052205
v -0.01057366 -0.05492023 0.00615995
v 0.01020930 -0.04630591 0.01500828
v 0.00283467 -0.02155207 0.00408324
v 0.00283467 -0.02155207 0.00408324
v 0.00283467 -0.02155207 0.00408324
v -0.00261098 -0.06337810 0.00053232
v -0.00644418 -0.08858695 0.01029470
v 0.00381838 -0.08996514 0.00732745
v -0.00559294 -0.02261958 0.01609484
v -0.00347305 -0.08840901 0.00565125
v -0.01167764 -0.06321763 0.01029424
v 0.00320443 -0.04632155 0.00064742
v -0.00474327 -0.02156353 0.00545501
v -0.00474327 -0.02156353 0.00545501
v -0.00474327 -0.02156353 0.00545501
v -0.00247278 -0.08625690 0.01733608
v -0.00247278 -0.08625690 0.01733608
v 0.00326371 -0.06336091 0.00053519
v 0.00613417 -0.03434848 0.00332932
v 0.00613417 -0.03434848 0.00332932
v 0.00279972 -0.03462673 0.00150292
v 0.00428138 -0.02155674 0.01029424
v -0.00626713 -0.02156705 0.00769400
v -0.00626713 -0.02156705 0.00769400
v -0.00626713 -0.02156705 0.00769400
v 0.00380117 -0.08995902 0.01323849
v 0.00407875 -0.02155674 0.01402504
v -0.00623192 -0.07462908 0.00300150
v -0.00683368 -0.05507804 0.00244762
v -0.00539398 -0.08847714 0.01334276
v 0.00585128 -0.08844991 0.00729365
v -0.00392791 -0.08997662 0.01193757
v -0.00436597 -0.09000000 0.01029424
v 0.00490093 -0.02155171 0.01536368
v 0.00490093 -0.02155171 0.01536368
v -0.00392185 -0.08997992 0.00862854
v -0.00306345 -0.08995917 0.01316378
v -0.00306151 -0.08996514 0.00740311
v -0.00782930 -0.08624288 0.01029424
v -0.00782930 -0.08624288 0.01029424
v -0.01059310 -0.06321763 0.00619415
v 0.00261069 -0.08850899 0.00460554
v -0.00000051 -0.03370685 0.01974128
v 0.00291933 -0.08616714 0.01731902
v 0.00291933 -0.08616714 0.01731902
v -0.00000000 -0.05499367 0.00000000
v -0.00000000 -0.05499367 0.02083743
v -0.00000000 -0.04632677 0.00020878
v -0.00000000 -0.04632677 0.02062865
v -0.00000000 -0.07431340 0.01998027
v -0.00000000 -0.07419616 0.00084127
v -0.00000000 -0.08621120 0.00268282
v -0.00000000 -0.08621120 0.00268282
v -0.00000000 -0.08621120 0.01790565
v -0.00000000 -0.08621120 0.01790565
v -0.00000000 -0.08995836 0.01029424
v -0.00000000 -0.02155674 0.01416731
v -0.00000000 -0.02155674 0.01029424
v -0.00000000 -0.02155674 0.00642116
v -0.00000000 -0.08995675 0.00625791
v -0.00000000 -0.06340867 0.02067594
v -0.00000000 -0.06340867 0.00016149
v -0.00000000 -0.08995917 0.01451904
v 0.00707926 -0.08604075 0.00695792
v -0.01165717 -0.05492023 0.01029424
v 0.01059310 -0.06321763 0.00619415
v 0.00703458 -0.02154636 0.01052780
v -0.00890984 -0.03414026 0.01442422
v 0.00641677 -0.07435605 0.01807362
v -0.00683711 -0.02156852 0.01034018
v -0.00683711 -0.02156852 0.01034018
v -0.00683711 -0.02156852 0.01034018
v 0.00265404 -0.02155402 0.01683669
v 0.00265404 -0.02155402 0.01683669
v 0.00265404 -0.02155402 0.01683669
v -0.00206778 -0.08996242 0.00685066
v 0.00320443 -0.04632155 0.02002148
v 0.00000727 -0.03464493 0.00098094
v 0.00696661 -0.06331335 0.01851478
v 0.01037083 -0.05492023 0.01520243
v -0.00905297 -0.03414029 0.00669885
v 0.01039008 -0.06321763 0.01516182
v 0.01147612 -0.04630591 0.01029424
v 0.00712891 -0.05507506 0.00245104
v 0.00712891 -0.05507506 0.00245104
v -0.00949776 -0.07433373 0.00621475
v -0.00617582 -0.04644108 0.01856086
v -0.00444712 -0.08598302 0.00462639
v -0.00444712 -0.08598302 0.00462639
v -0.00684532 -0.06348806 0.00253465
v -0.00248374 -0.08859759 0.01565668
v 0.00307937 -0.08856478 0.01567423
v 0.00208881 0.05267943 0.00417023
v 0.00023209 0.06014692 0.00554712
v 0.00023209 0.06014692 0.00554712
v 0.00023209 0.06014692 0.00613026
v 0.00728104 0.04738409 0.00554712
v 0.00728104 0.04738409 0.00554712
v 0.00728104 0.04738409 0.00613026
v -0.00079654 0.05856805 0.00499040
v -0.00079654 0.05856805 0.00499040
v 0.00501136 0.04764142 0.00417023
v 0.00054666 0.06949130 0.02047955
v 0.00054666 0.06949130 0.02047955
v 0.00054666 0.06949130 0.02299913
v 0.00054666 0.06949130 0.02299913
v 0.00131878 0.07075109 0.02305812
v 0.00131878 0.07075109 0.02042055
v 0.00131878 0.07075109 0.02042055
v 0.00131878 0.06943230 0.02173934
v 0.00220798 0.05817622 0.00558825
v 0.00012426 0.05697318 0.00451617
v 0.00048172 0.05455587 0.00558825
v 0.00695166 0.04677496 0.00554712
v 0.00695166 0.04677496 0.00554712
v 0.00695166 0.04677496 0.00613026
v 0.00071380 0.07075109 0.02001632
v 0.00071380 0.07075109 0.02346236
v 0.00071380 0.06902807 0.02173934
v 0.00327631 0.05352924 0.00443797
v 0.00546616 0.04731007 0.00417023
v 0.00546616 0.04731007 0.00417023
v 0.00546616 0.04731007 0.00417023
v 0.00587136 0.04754754 0.00417023
v 0.00587136 0.04754754 0.00417023
v 0.00587136 0.04754754 0.00417023
v -0.00186497 0.07075109 0.02173934
v -0.00110392 0.05730228 0.00472267
v 0.00132729 0.05488947 0.00558825
v -0.00042594 0.05491981 0.00520082
v -0.00042594 0.05491981 0.00520082
v 0.00726541 0.04807099 0.00554712
v 0.00726541 0.04807099 0.00554712
v 0.00726541 0.04807099 0.00613026
v 0.00057354 0.05450301 0.00555908
v 0.00582505 0.04810927 0.00417023
v 0.00582505 0.04810927 0.00417023
v 0.00582505 0.04810927 0.00417023
v 0.00482153 0.04596567 0.00555908
v 0.00482153 0.04596567 0.00555908
v 0.00076817 0.05937630 0.00558825
v 0.00171912 0.05789398 0.00499040
v 0.00171912 0.05789398 0.00499040
v 0.00591919 0.04772451 0.00417023
v 0.00591919 0.04772451 0.00417023
v 0.00591919 0.04772451 0.00417023
v 0.00464986 0.04722676 0.00442200
v -0.00227886 0.05761710 0.00558825
v -0.00227886 0.05761710 0.00558825
v 0.00482222 0.04596447 0.00554712
v 0.00482222 0.04596447 0.00554712
v 0.00482222 0.04596447 0.00613026
v 0.00482222 0.04596447 0.00613026
v -0.00009424 0.05887839 0.00504163
v -0.00009424 0.05887839 0.00504163
v -0.00107645 0.06967465 0.02066290
v -0.00107645 0.06967465 0.02066290
v -0.00107645 0.06967465 0.02281578
v -0.00107645 0.06967465 0.02281578
v 0.00034276 0.05506798 0.00504163
v 0.00034276 0.05506798 0.00504163
v 0.00064384 0.06912395 0.02238319
v 0.00064384 0.06912395 0.02109549
v 0.00064384 0.07010724 0.02011220
v 0.00064384 0.07010724 0.02336648
v 0.00726472 0.04807219 0.00555908
v 0.00180842 0.05379929 0.00417023
v 0.00180842 0.05379929 0.00417023
v 0.00180842 0.05379929 0.00417023
v 0.00172301 0.07075109 0.02102553
v 0.00172301 0.07075109 0.02245314
v 0.00172301 0.07003728 0.02173934
v -0.00147060 0.05605239 0.00499040
v 0.00152937 0.06002694 0.00554712
v 0.00152937 0.06002694 0.00554712
v 0.00152937 0.06002694 0.00613026
v -0.00051966 0.05457007 0.00558825
v -0.00051966 0.05457007 0.00558825
v 0.00043902 0.05355639 0.00555908
v 0.00043902 0.05355639 0.00555908
v -0.00020483 0.05574501 0.00472267
v 0.00067446 0.05902655 0.00520082
v 0.00067446 0.05902655 0.00520082
v -0.00107878 0.05905690 0.00558825
v 0.00135243 0.05664409 0.00472267
v 0.00241346 0.05370974 0.00417023
v 0.00241346 0.05370974 0.00417023
v 0.00241346 0.05370974 0.00417023
v -0.00179047 0.05849141 0.00558825
v 0.00126649 0.05408963 0.00445448
v -0.00172302 0.07075109 0.02102553
v -0.00172302 0.07075109 0.02245314
v -0.00172302 0.07003728 0.02173934
v 0.00064116 0.05254643 0.00555908
v -0.00023320 0.05939049 0.00558825
v 0.00290192 0.05314746 0.00417023
v 0.00290192 0.05314746 0.00417023
v 0.00290192 0.05314746 0.00417023
v -0.00064385 0.06912395 0.02238319
v -0.00064385 0.06912395 0.02109549
v -0.00064385 0.07010724 0.02011220
v -0.00064385 0.07010724 0.02336648
v -0.00195946 0.05577015 0.00558825
v 0.00131515 0.05335824 0.00443259
v 0.00131515 0.05335824 0.00443259
v 0.00107644 0.06967465 0.02066290
v 0.00107644 0.06967465 0.02066290
v 0.00107644 0.06967465 0.02281578
v 0.00104505 0.05537832 0.00499040
v 0.00104505 0.05537832 0.00499040
v 0.00634799 0.04820129 0.00443206
v 0.00551373 0.04594637 0.00555908
v -0.00321769 0.05728624 0.00554712
v -0.00321769 0.05728624 0.00554712
v -0.00321769 0.05728624 0.00613026
v -0.00321769 0.05728624 0.00613026
v -0.00037413 0.05783642 0.00463942
v 0.00506589 0.04687035 0.00442525
v 0.00506589 0.04687035 0.00442525
v -0.00141645 0.05811501 0.00504163
v -0.00141645 0.05811501 0.00504163
v -0.00267295 0.05846969 0.00554712
v -0.00267295 0.05846969 0.00554712
v -0.00267295 0.05846969 0.00613026
v 0.00126609 0.05851389 0.00504163
v 0.00126609 0.05851389 0.00504163
v 0.00184251 0.05338558 0.00417023
v 0.00184251 0.05338558 0.00417023
v -0.00192911 0.05752338 0.00520082
v -0.00192911 0.05752338 0.00520082
v 0.00186496 0.07075109 0.02173934
v 0.00550656 0.04675198 0.00444557
v 0.00098749 0.05747157 0.00463942
v 0.00239072 0.05939757 0.00554712
v 0.00239072 0.05939757 0.00554712
v 0.00239072 0.05939757 0.00613026
v 0.00423515 0.04632146 0.00554712
v 0.00423515 0.04632146 0.00613026
v 0.00157637 0.05254264 0.00442729
v 0.00164248 0.05888791 0.00558825
v -0.00071381 0.07075109 0.02001632
v -0.00071381 0.07075109 0.02346236
v -0.00071381 0.06902807 0.02173934
v -0.00178095 0.05675468 0.00504163
v 0.00201078 0.05533280 0.00555908
v 0.00367143 0.05429595 0.00555908
v -0.00131879 0.07075109 0.02305812
v -0.00131879 0.07075109 0.02042055
v -0.00131879 0.06943230 0.02173934
v -0.00131879 0.06943230 0.02173934
v -0.00054667 0.06949130 0.02047955
v -0.00054667 0.06949130 0.02047955
v -0.00054667 0.06949130 0.02299913
v -0.00054667 0.06949130 0.02299913
v 0.00203898 0.05545496 0.00558825
v 0.00551442 0.04594517 0.00554712
v 0.00551442 0.04594517 0.00554712
v 0.00551442 0.04594517 0.00613026
v 0.00045335 0.05820136 0.00472267
v 0.00728035 0.04738529 0.00555908
v 0.00529353 0.04736880 0.00417023
v 0.00529353 0.04736880 0.00417023
v 0.00125979 0.07020442 0.02047955
v 0.00125979 0.07020442 0.02047955
v 0.00125979 0.07020442 0.02299913
v 0.00125979 0.06949130 0.02119268
v 0.00125979 0.06949130 0.02228600
v 0.00423446 0.04632266 0.00555908
v 0.00269832 0.05416308 0.00444262
v 0.00695097 0.04677616 0.00555908
v -0.00139397 0.05505846 0.00558825
v -0.00310331 0.05622559 0.00554712
v -0.00310331 0.05622559 0.00613026
v 0.00632467 0.04721994 0.00445160
v 0.00202946 0.05719169 0.00504163
v 0.00202946 0.05719169 0.00504163
v -0.00162714 0.07010724 0.02238319
v -0.00162714 0.07010724 0.02109549
v 0.00289785 0.05497600 0.00555908
v -0.00073898 0.05647479 0.00463942
v -0.00000000 0.07075109 0.02360430
v -0.00000000 0.07075109 0.01987437
v -0.00000000 0.06888612 0.02173934
v -0.00000000 0.06943230 0.02305812
v -0.00000000 0.06943230 0.02305812
v -0.00000000 0.06943230 0.02042055
v -0.00000000 0.06943230 0.02042055
v -0.00000000 0.06902807 0.02102553
v -0.00000000 0.06902807 0.02245314
v -0.00000000 0.07003728 0.02001632
v -0.00000000 0.07003728 0.02346236
v 0.00217763 0.05642299 0.00520082
v 0.00217763 0.05642299 0.00520082
v 0.00162714 0.07010724 0.02238319
v 0.00162714 0.07010724 0.02109549
v 0.00252738 0.05632927 0.00558825
v 0.00644670 0.04766171 0.00443394
v -0.00101757 0.05543248 0.00504163
v 0.00208591 0.05456557 0.00445833
v 0.00254157 0.05733064 0.00558825
v 0.00208250 0.05394698 0.00417023
v 0.00208250 0.05394698 0.00417023
v 0.00208250 0.05394698 0.00417023
v 0.00166496 0.05583136 0.00504163
v 0.00166496 0.05583136 0.00504163
v -0.00125979 0.07020442 0.02047955
v -0.00125979 0.07020442 0.02299913
v -0.00125979 0.06949130 0.02119268
v -0.00125979 0.06949130 0.02119268
v -0.00125979 0.06949130 0.02228600
v -0.00125979 0.06949130 0.02228600
v -0.00229305 0.05661572 0.00558825
v 0.00062265 0.05610995 0.00463942
v 0.00444024 0.06962142 0.00468722
v 0.00444024 0.06962142 0.00256008
v 0.00444024 0.06962142 0.00256008
v 0.00313972 0.06862350 0.00468722
v 0.00313972 0.06862350 0.00256008
v 0.00313972 0.06862350 0.00256008
v -0.00313973 0.07949981 0.00468722
v -0.00313973 0.07949981 0.00256008
v -0.00313973 0.07949981 0.00256008
v 0.00606548 0.07568690 0.00468722
v 0.00606548 0.07568690 0.00256008
v 0.00606548 0.07568690 0.00256008
v -0.00606548 0.07568690 0.00468722
v -0.00606548 0.07568690 0.00256008
v -0.00606548 0.07568690 0.00256008
v 0.00162524 0.06799618 0.00468722
v 0.00162524 0.06799618 0.00256008
v 0.00162524 0.06799618 0.00256008
v 0.00543816 0.07092194 0.00468722
v 0.00543816 0.07092194 0.00256008
v 0.00543816 0.07092194 0.00256008
v -0.00313973 0.06862350 0.00468722
v -0.00313973 0.06862350 0.00256008
v -0.00313973 0.06862350 0.00256008
v -0.00444024 0.07850190 0.00468722
v -0.00444024 0.07850190 0.00256008
v -0.00444024 0.07850190 0.00256008
v 0.00162524 0.08012714 0.00468722
v 0.00162524 0.08012714 0.00256008
v 0.00162524 0.08012714 0.00256008
v -0.00444024 0.06962142 0.00468722
v -0.00444024 0.06962142 0.00256008
v -0.00444024 0.06962142 0.00256008
v -0.00000001 0.08034110 0.00468722
v -0.00000001 0.08034110 0.00256008
v -0.00000001 0.08034110 0.00256008
v 0.00606548 0.07243642 0.00468722
v 0.00606548 0.07243642 0.00256008
v 0.00606548 0.07243642 0.00256008
v -0.00162525 0.08012714 0.00468722
v -0.00162525 0.08012714 0.00256008
v -0.00162525 0.08012714 0.00256008
v 0.00313972 0.07949981 0.00468722
v 0.00313972 0.07949981 0.00256008
v 0.00313972 0.07949981 0.00256008
v -0.00543817 0.07720138 0.00468722
v -0.00543817 0.07720138 0.00256008
v -0.00543817 0.07720138 0.00256008
v -0.00162524 0.06799618 0.00468722
v -0.00162524 0.06799618 0.00468722
v -0.00162524 0.06799618 0.00256008
v -0.00162524 0.06799618 0.00256008
v -0.00162524 0.06799618 0.00256008
v 0.00543816 0.07720138 0.00468722
v 0.00543816 0.07720138 0.00256008
v 0.00543816 0.07720138 0.00256008
v -0.00627945 0.07406166 0.00468722
v -0.00627945 0.07406166 0.00256008
v -0.00627945 0.07406166 0.00256008
v 0.00444024 0.07850190 0.00468722
v 0.00444024 0.07850190 0.00256008
v 0.00444024 0.07850190 0.00256008
v 0.00627944 0.07406166 0.00468722
v 0.00627944 0.07406166 0.00256008
v 0.00627944 0.07406166 0.00256008
v -0.00000000 0.06778221 0.00468722
v -0.00000000 0.06778221 0.00256008
v -0.00000000 0.06778221 0.00256008
v -0.00000000 0.07406166 0.00256008
v -0.00543816 0.07092194 0.00468722
v -0.00543816 0.07092194 0.00256008
v -0.00543816 0.07092194 0.00256008
v -0.00606548 0.07243642 0.00468722
v -0.00606548 0.07243642 0.00256008
v -0.00606548 0.07243642 0.00256008
v -0.00323361 0.05952788 0.00542349
v -0.00323361 0.05952788 0.00542349
v -0.00323361 0.05952788 0.00542349
v -0.00323361 0.05952788 0.00542349
v -0.01537729 0.05836282 0.01223879
v -0.00409158 -0.01936569 0.01428445
v -0.00337247 -0.01265461 0.00682041
v -0.00337247 -0.01265461 0.00682041
v -0.00609935 0.08878677 0.01029400
v 0.01053776 0.04753576 0.01223927
v 0.00287382 0.03808924 0.00542349
v 0.00287382 0.03808924 0.00542349
v 0.00287382 0.03808924 0.00542349
v 0.00287382 0.03825240 0.01503625
v 0.00287382 0.03825240 0.01503625
v 0.00287382 0.03825240 0.01503625
v 0.00287382 0.03825240 0.01503625
v -0.01098093 0.04753576 0.01029749
v -0.01098093 0.04753576 0.01029749
v -0.01462261 0.07406165 0.01503625
v -0.01462261 0.07406165 0.01503625
v -0.01462261 0.07406165 0.01503625
v -0.01462261 0.07406165 0.01503625
v -0.01462261 0.07406165 0.00542349
v -0.01462261 0.07406165 0.00542349
v -0.01462261 0.07406165 0.00542349
v -0.01462261 0.07406165 0.00542349
v -0.00624355 0.03491415 0.01029844
v -0.00624355 0.03491415 0.01029844
v -0.00460218 -0.01485343 0.01209915
v 0.00579465 0.03310092 0.01024912
v -0.00751392 0.04186101 0.00834761
v -0.00751392 0.04186101 0.00834761
v -0.00389607 0.03491415 0.00662280
v -0.01135909 0.04889565 0.00834787
v -0.00076055 0.06145132 0.00542349
v -0.00076055 0.06145132 0.00542349
v -0.00076055 0.06145132 0.00542349
v -0.00076055 0.06135761 0.00604914
v 0.01226935 0.08225978 0.01503625
v 0.01226935 0.08225978 0.01503625
v 0.01226935 0.08225978 0.00542349
v 0.01226935 0.08225978 0.00542349
v 0.01411127 0.05354044 0.01029637
v 0.01411127 0.05354044 0.01029637
v 0.01447270 0.07694045 0.01503625
v 0.01447270 0.07694045 0.01503625
v 0.01447270 0.07694045 0.00542349
v 0.01447270 0.07694045 0.00542349
v 0.00287879 0.08853436 0.01503625
v 0.00287879 0.08853436 0.01503625
v 0.00287879 0.08853436 0.00542349
v 0.00287879 0.08853436 0.00542349
v -0.00000000 0.04753576 0.01503625
v -0.00000000 0.04753576 0.01503625
v -0.00000000 0.04753576 0.01503625
v -0.00000000 0.04753576 0.01503625
v -0.00000000 0.03325220 0.01500203
v -0.00000000 0.04892335 0.01503625
v -0.00000000 0.04892335 0.01503625
v -0.00287881 0.08853435 0.01503625
v -0.00287881 0.08853435 0.01503625
v -0.00287881 0.08853435 0.00542349
v -0.00287881 0.08853435 0.00542349
v -0.00440634 -0.01265461 0.00836771
v -0.00440634 -0.01265461 0.00836771
v 0.00213490 0.06070577 0.00604914
v 0.00301520 0.08922012 0.01389537
v -0.00818189 0.04753576 0.01503625
v -0.00818189 0.04753576 0.01503625
v -0.00818189 0.04753576 0.01503625
v -0.00818189 0.04753576 0.01503625
v 0.00534590 -0.01936569 0.00797852
v 0.00205454 -0.01738896 0.01515299
v -0.00989778 0.04901907 0.00604914
v -0.00989778 0.04901907 0.00604914
v -0.00567089 0.04186101 0.00604914
v -0.00567089 0.04186101 0.00604914
v -0.00567089 0.04186101 0.00604914
v -0.00460218 -0.01485343 0.00828659
v 0.01373796 0.05354044 0.01223906
v 0.01373796 0.05354044 0.01223906
v 0.00217586 0.06080152 0.00542349
v 0.00217586 0.06080152 0.00542349
v 0.00306866 0.08948890 0.00834734
v 0.00534023 0.03102443 0.01019287
v 0.00000240 0.03825240 0.00604914
v 0.00000240 0.03825240 0.00604914
v 0.00185790 0.02618760 0.00578653
v 0.00185790 0.02618760 0.00578653
v 0.00413704 -0.02009675 0.01432991
v 0.00413704 -0.02237172 0.01432991
v -0.00090826 0.03491415 0.01503625
v -0.00090826 0.03491415 0.01503625
v -0.00090826 0.03491415 0.01503625
v -0.00885488 0.08731390 0.01029400
v -0.01112242 0.08518407 0.00834734
v 0.00352235 -0.01485343 0.01371522
v 0.00568486 0.03491416 0.01223900
v 0.00568486 0.03491416 0.01223900
v 0.00568486 0.03491416 0.01223900
v -0.01055615 0.04753576 0.00834788
v -0.01055615 0.04753576 0.00834788
v -0.01191472 0.05354044 0.01503625
v -0.01191472 0.05354044 0.01503625
v -0.01191472 0.05354044 0.01503625
v -0.01191472 0.05354044 0.01503625
v -0.01191472 0.05354044 0.00542349
v -0.01191472 0.05354044 0.00542349
v -0.01191472 0.05354044 0.00542349
v -0.01191472 0.05354044 0.00542349
v 0.00310941 0.08969375 0.01029400
v 0.00692283 0.03825240 0.01029839
v 0.00692283 0.03825240 0.01029839
v -0.00223895 -0.02009675 0.01559818
v -0.00223895 -0.02237172 0.01559818
v -0.01177647 0.04889315 0.01029738
v -0.00374406 0.03306521 0.00672761
v 0.01047487 0.04890340 0.00656889
v -0.01558703 0.07406165 0.00834732
v -0.01558703 0.07406165 0.00834732
v 0.01427895 0.07997620 0.01389537
v 0.01462261 0.07406166 0.01503625
v 0.01462261 0.07406166 0.01503625
v 0.01462261 0.07406166 0.01503625
v 0.01462261 0.07406166 0.01503625
v 0.01462261 0.07406166 0.00542349
v 0.01462261 0.07406166 0.00542349
v 0.01462261 0.07406166 0.00542349
v 0.01462261 0.07406166 0.00542349
v 0.00540530 -0.02009675 0.00795392
v 0.00540530 -0.02009675 0.01243182
v 0.00540530 -0.02237172 0.00795392
v 0.00540530 -0.02237172 0.01243182
v 0.01305849 0.05354044 0.01392629
v -0.00591455 0.08834060 0.01389537
v 0.00221434 -0.01936569 0.00484696
v 0.01579402 0.07406166 0.01029398
v 0.01579402 0.07406166 0.01029398
v -0.01562044 0.05836282 0.01029424
v -0.01562044 0.05836282 0.01029424
v 0.00182516 -0.01265461 0.00578653
v 0.00182516 -0.01265461 0.00578653
v 0.01094245 0.08500413 0.00661642
v -0.01045315 0.04890002 0.01394440
v 0.00379631 -0.01738896 0.01398918
v 0.01098093 0.04753576 0.01029749
v 0.01098093 0.04753576 0.01029749
v -0.00352235 -0.01485343 0.01371522
v -0.00859744 0.08692862 0.00661643
v 0.00343296 0.02618760 0.01356533
v 0.00343296 0.02618760 0.01356533
v -0.01053776 0.04753576 0.01223926
v -0.01539375 0.05836282 0.00834741
v -0.01539375 0.05836282 0.00834741
v -0.00638459 0.04186101 0.00652930
v -0.00638459 0.04186101 0.00652930
v -0.01509776 0.05836282 0.00661442
v -0.01509776 0.05836282 0.00661442
v -0.00223896 -0.02009675 0.00478756
v -0.00223896 -0.02237172 0.00478756
v -0.00000000 0.03808924 0.00542349
v -0.00000000 0.03808924 0.00542349
v -0.00000000 0.03808924 0.00542349
v -0.00000000 0.03825240 0.01503625
v -0.00000000 0.03825240 0.01503625
v -0.00000000 0.03825240 0.01503625
v -0.00000000 0.03825240 0.01503625
v -0.00795900 0.04186101 0.01029794
v -0.00795900 0.04186101 0.01029794
v 0.00873882 0.08714024 0.00834734
v -0.01429701 0.07998366 0.00661643
v 0.01433115 0.05836282 0.01503625
v 0.01433115 0.05836282 0.01503625
v 0.01433115 0.05836282 0.01503625
v 0.01433115 0.05836282 0.01503625
v 0.01433115 0.05836282 0.00542349
v 0.01433115 0.05836282 0.00542349
v 0.01433115 0.05836282 0.00542349
v 0.01433115 0.05836282 0.00542349
v -0.00493374 0.03102443 0.01201804
v 0.01517763 0.07708067 0.00661643
v 0.01307858 0.08280049 0.00834734
v -0.01533484 0.07406165 0.00661641
v -0.01533484 0.07406165 0.00661641
v -0.00601942 0.08859379 0.00834734
v -0.00413705 -0.02009675 0.00605583
v -0.00413705 -0.02237172 0.00605583
v 0.00448538 0.02618760 0.00836570
v 0.00448538 0.02618760 0.00836570
v 0.00448538 0.02618760 0.01205078
v 0.00448538 0.02618760 0.01205078
v -0.00448539 0.02618760 0.01201804
v -0.00448539 0.02618760 0.01201804
v -0.00506963 0.02856387 0.01019287
v -0.00000000 0.05836282 0.01503625
v -0.00000000 0.05836282 0.01503625
v -0.00000000 0.05836282 0.01503625
v -0.00000000 0.05836282 0.01503625
v -0.00000000 0.03440968 0.00542349
v -0.00000000 0.03440968 0.00542349
v -0.00000000 0.03440968 0.00542349
v 0.00609933 0.08878678 0.01029400
v -0.00907548 0.04890621 0.01503625
v -0.00907548 0.04890621 0.01503625
v -0.00819813 0.08633101 0.01503625
v -0.00819813 0.08633101 0.01503625
v -0.00819813 0.08633101 0.00542349
v -0.00819813 0.08633101 0.00542349
v -0.01092864 0.08499029 0.01389537
v -0.00962845 0.04753576 0.00656364
v -0.00962845 0.04753576 0.00656364
v 0.00960861 0.04753576 0.01394972
v -0.00493374 0.03102443 0.00836771
v -0.01542723 0.07713032 0.00834734
v 0.01177646 0.04889315 0.01029738
v -0.00564697 0.08769463 0.01503625
v -0.00564697 0.08769463 0.01503625
v -0.00564697 0.08769463 0.00542349
v -0.00564697 0.08769463 0.00542349
v -0.01531548 0.07406165 0.01389536
v -0.01531548 0.07406165 0.01389536
v 0.01515846 0.07707687 0.01389537
v 0.00980549 0.04964470 0.00542349
v 0.00980549 0.04964470 0.00542349
v 0.00980549 0.04964470 0.00542349
v 0.01285071 0.08264823 0.01389537
v -0.01043424 0.08449589 0.01503625
v -0.01043424 0.08449589 0.01503625
v -0.01043424 0.08449589 0.00542349
v -0.01043424 0.08449589 0.00542349
v 0.00409158 -0.01936569 0.01428445
v -0.00342484 0.02618760 0.00681555
v -0.00342484 0.02618760 0.00681555
v 0.01557109 0.07406166 0.01223870
v 0.01557109 0.07406166 0.01223870
v 0.01557109 0.07406166 0.01223870
v 0.00578636 -0.01936569 0.01019287
v -0.00641291 0.03825240 0.01223900
v -0.00641291 0.03825240 0.01223900
v 0.00413704 -0.02009675 0.00605583
v 0.00413704 -0.02237172 0.00605583
v -0.00000001 -0.02009675 0.00434221
v -0.00000001 -0.01936569 0.00440650
v -0.00000001 -0.02237172 0.00434221
v 0.00536879 -0.01738896 0.01019287
v 0.01541144 0.07712719 0.01223873
v -0.00360937 0.03319380 0.01388461
v 0.00221434 -0.01936569 0.01553878
v 0.01509777 0.05836282 0.00661442
v 0.01509777 0.05836282 0.00661442
v -0.00496012 -0.01738896 0.01224742
v -0.01507796 0.05836282 0.01389747
v -0.00579395 0.03309772 0.01024903
v 0.00591453 0.08834062 0.01389537
v 0.00353288 0.02856387 0.00682342
v 0.00337246 -0.01265461 0.01356533
v 0.00337246 -0.01265461 0.01356533
v 0.00872988 0.08712684 0.01223873
v -0.00979423 0.04958865 0.00542349
v -0.00979423 0.04958865 0.00542349
v -0.00979423 0.04958865 0.00542349
v -0.00000001 0.08881789 0.01503625
v -0.00000001 0.08881789 0.01503625
v -0.00000001 0.08881789 0.00542349
v -0.00000001 0.08881789 0.00542349
v -0.00000001 0.08979112 0.00834734
v -0.00000001 0.08953662 0.00661643
v -0.00000001 0.09000000 0.01029400
v -0.00000001 0.08977502 0.01223873
v -0.00000001 0.08951708 0.01389537
v 0.01563210 0.07717108 0.01029400
v -0.00310943 0.08969375 0.01029400
v -0.00219125 0.06078299 0.00542349
v -0.00219125 0.06078299 0.00542349
v -0.00287382 0.03825240 0.01503625
v -0.00287382 0.03825240 0.01503625
v -0.00287382 0.03825240 0.01503625
v -0.00287382 0.03825240 0.01503625
v -0.00570226 0.03491415 0.00834761
v 0.00530988 0.03310213 0.00835784
v -0.00135132 0.03515372 0.00550565
v -0.00135132 0.03515372 0.00550565
v 0.01127011 0.08533178 0.01029400
v 0.00819812 0.08633102 0.01503625
v 0.00819812 0.08633102 0.01503625
v 0.00819812 0.08633102 0.00542349
v 0.00819812 0.08633102 0.00542349
v -0.00496012 -0.01738896 0.00813832
v -0.00468373 0.02856387 0.01201804
v 0.01562044 0.05836282 0.01029424
v 0.01562044 0.05836282 0.01029424
v -0.00365106 0.03102443 0.00674577
v -0.01453214 0.08008106 0.00834734
v 0.01537729 0.05836282 0.01223879
v -0.00377612 0.03102443 0.01356534
v -0.00474095 0.04186101 0.01503625
v -0.00474095 0.04186101 0.01503625
v -0.00474095 0.04186101 0.01503625
v -0.00474095 0.04186101 0.01503625
v 0.00570226 0.03491416 0.00834761
v 0.00570226 0.03491416 0.00834761
v 0.00570226 0.03491416 0.00834761
v -0.01305849 0.05354044 0.01392629
v 0.00354887 0.03102443 0.00683363
v 0.00301901 0.08923929 0.00661643
v -0.00306554 0.08947309 0.01223873
v 0.00358476 0.02856387 0.01356533
v 0.00476938 -0.01265461 0.01019287
v 0.00476938 -0.01265461 0.01019287
v 0.00601940 0.08859380 0.00834734
v -0.00536880 -0.01738896 0.01019287
v 0.00410362 0.03825240 0.00604914
v 0.00410362 0.03825240 0.00604914
v 0.00410362 0.03825240 0.00604914
v 0.00410362 0.03825240 0.00604914
v -0.00692283 0.03825240 0.01029839
v -0.00692283 0.03825240 0.01029839
v -0.01094247 0.08500411 0.00661643
v 0.01325225 0.08291654 0.01029400
v -0.00301521 0.08922010 0.01389537
v -0.00468373 0.02856387 0.00836771
v -0.00534024 0.03102443 0.01019287
v -0.00568486 0.03491415 0.01223900
v -0.00568486 0.03491415 0.01223900
v -0.00568486 0.03491415 0.01223900
v 0.00907548 0.04890622 0.01503625
v 0.00907548 0.04890622 0.01503625
v 0.00534590 -0.01936569 0.01240721
v 0.00749545 0.04186102 0.01223900
v -0.01111104 0.08517268 0.01223873
v -0.00534591 -0.01936569 0.01240722
v -0.00309736 0.05952788 0.00604914
v -0.01557109 0.07406165 0.01223870
v -0.01557109 0.07406165 0.01223870
v -0.01557109 0.07406165 0.01223870
v 0.00530624 0.03313259 0.01225039
v -0.01451727 0.08007490 0.01223873
v -0.01373796 0.05354044 0.01223906
v -0.00858658 0.08691236 0.01389537
v -0.00636563 0.04186101 0.01398425
v -0.00485495 0.02618760 0.01019287
v -0.00485495 0.02618760 0.01019287
v 0.00460217 -0.01485343 0.00828659
v -0.00205455 -0.01738896 0.00523275
v -0.00534591 -0.01936569 0.00797852
v 0.01092863 0.08499030 0.01389537
v -0.01472512 0.08016099 0.01029400
v -0.01411127 0.05354044 0.01029637
v -0.01411127 0.05354044 0.01029637
v -0.00498136 -0.01485343 0.01019287
v -0.01047487 0.04890340 0.00656889
v -0.00379631 -0.01738896 0.01398918
v 0.01306519 0.08279155 0.01223873
v 0.00377611 0.03102443 0.01356534
v 0.00409157 -0.01936569 0.00610129
v 0.00468372 0.02856387 0.00836067
v -0.01517763 0.07708067 0.00661642
v -0.00190629 -0.01485343 0.00559070
v -0.01433115 0.05836282 0.01503625
v -0.01433115 0.05836282 0.01503625
v -0.01433115 0.05836282 0.01503625
v -0.01433115 0.05836282 0.01503625
v -0.01433115 0.05836282 0.00542349
v -0.01433115 0.05836282 0.00542349
v -0.01433115 0.05836282 0.00542349
v -0.01433115 0.05836282 0.00542349
v 0.00624355 0.03491416 0.01029844
v 0.00624355 0.03491416 0.01029844
v 0.00204361 0.03102443 0.00578653
v 0.01111103 0.08517269 0.01223873
v -0.00363002 0.03491415 0.01412930
v -0.00363002 0.03491415 0.01412930
v -0.00125418 0.03326063 0.01484550
v 0.01286697 0.08265910 0.00661643
v -0.00337247 -0.01265461 0.01356533
v -0.00337247 -0.01265461 0.01356533
v 0.00389607 0.03491416 0.00662280
v 0.00389607 0.03491416 0.00662280
v 0.00337246 -0.01265461 0.00682040
v 0.00337246 -0.01265461 0.00682040
v 0.00496011 -0.01738896 0.01224742
v 0.00496011 -0.01738896 0.00813832
v 0.00368425 0.03306357 0.00677424
v -0.01286698 0.08265908 0.00661643
v 0.00564696 0.08769464 0.01503625
v 0.00564696 0.08769464 0.01503625
v 0.00564696 0.08769464 0.00542349
v 0.00564696 0.08769464 0.00542349
v -0.00530550 0.03307787 0.00835713
v 0.00885487 0.08731391 0.01029400
v -0.00287382 0.03808924 0.00542349
v -0.00287382 0.03808924 0.00542349
v -0.00287382 0.03808924 0.00542349
v 0.00474095 0.04186102 0.01503625
v 0.00474095 0.04186102 0.01503625
v 0.00474095 0.04186102 0.01503625
v 0.00474095 0.04186102 0.01503625
v -0.00413704 -0.02009675 0.01432991
v -0.00413704 -0.02237172 0.01432991
v 0.01375488 0.05354044 0.00834767
v 0.01375488 0.05354044 0.00834767
v -0.01134101 0.04889565 0.01223926
v -0.00873883 0.08714023 0.00834734
v -0.00182517 -0.01265461 0.00578653
v -0.00182517 -0.01265461 0.00578653
v 0.01363298 0.07970863 0.01503625
v 0.01363298 0.07970863 0.01503625
v 0.01363298 0.07970863 0.00542349
v 0.01363298 0.07970863 0.00542349
v -0.01306520 0.08279154 0.01223873
v 0.00363002 0.03491416 0.01412930
v 0.00363002 0.03491416 0.01412930
v 0.00498135 -0.01485343 0.01019287
v -0.00440634 -0.01265461 0.01201804
v -0.00440634 -0.01265461 0.01201804
v -0.01563210 0.07717107 0.01029400
v -0.01127012 0.08533177 0.01029400
v -0.00205455 -0.01738896 0.01515299
v -0.00306868 0.08948890 0.00834734
v 0.00641292 0.03825240 0.01223900
v 0.00641292 0.03825240 0.01223900
v 0.00592201 0.08835868 0.00661643
v 0.00859743 0.08692863 0.00661643
v -0.00592203 0.08835866 0.00661642
v 0.00485495 0.02618760 0.01019287
v 0.00485495 0.02618760 0.01019287
v 0.00190628 -0.01485343 0.01479504
v -0.00355622 0.02856387 0.00680337
v 0.01507796 0.05836282 0.01389747
v 0.00341818 0.02618760 0.00682127
v 0.00341818 0.02618760 0.00682127
v -0.00409159 -0.01936569 0.00610129
v 0.01191472 0.05354044 0.01503625
v 0.01191472 0.05354044 0.01503625
v 0.01191472 0.05354044 0.01503625
v 0.01191472 0.05354044 0.01503625
v 0.01191472 0.05354044 0.00542349
v 0.01191472 0.05354044 0.00542349
v 0.01191472 0.05354044 0.00542349
v 0.01191472 0.05354044 0.00542349
v -0.00190628 -0.01485343 0.01479504
v -0.00000000 0.05354044 0.01503625
v -0.00000000 0.05354044 0.01503625
v -0.00000000 0.05354044 0.01503625
v -0.00000000 0.05354044 0.01503625
v 0.01055615 0.04753576 0.00834787
v 0.01055615 0.04753576 0.00834787
v 0.00309735 0.05952788 0.00604914
v 0.00361183 0.03316168 0.01387988
v 0.00493373 0.03102443 0.00836770
v 0.00493373 0.03102443 0.01223649
v -0.00213491 0.06070577 0.00604914
v 0.01558703 0.07406166 0.00834732
v 0.01558703 0.07406166 0.00834732
v -0.00194007 0.02856387 0.00578653
v 0.00306552 0.08947310 0.01223873
v -0.00301903 0.08923929 0.00661642
v 0.01453213 0.08008107 0.00834734
v -0.00185791 0.02618760 0.00578653
v -0.00185791 0.02618760 0.00578653
v 0.00585066 -0.02009675 0.01019287
v 0.00585066 -0.02237172 0.01019287
v -0.00448539 0.02618760 0.00836771
v -0.00448539 0.02618760 0.00836771
v -0.01226936 0.08225977 0.01503625
v -0.01226936 0.08225977 0.01503625
v -0.01226936 0.08225977 0.00542349
v -0.01226936 0.08225977 0.00542349
v 0.01542723 0.07713033 0.00834734
v -0.00872989 0.08712684 0.01223873
v -0.01325226 0.08291652 0.01029400
v 0.00076054 0.06145132 0.00542349
v 0.00076054 0.06145132 0.00542349
v 0.00076054 0.06135761 0.00604914
v 0.01043423 0.08449589 0.01503625
v 0.01043423 0.08449589 0.01503625
v 0.01043423 0.08449589 0.00542349
v 0.01043423 0.08449589 0.00542349
v -0.00960861 0.04753576 0.01394972
v 0.00194006 0.02856387 0.00578653
v 0.00567090 0.04186102 0.00604914
v 0.00567090 0.04186102 0.00604914
v 0.00567090 0.04186102 0.00604914
v -0.00000001 0.02618760 0.00542349
v -0.00000001 0.02618760 0.00542349
v -0.00000001 0.03102443 0.00542349
v -0.00000001 0.02856387 0.00542349
v -0.00000001 -0.01485343 0.00521151
v -0.00000001 -0.01738896 0.00482408
v -0.00000001 -0.01265461 0.00542349
v -0.00000001 -0.01265461 0.00542349
v 0.00962845 0.04753576 0.00656364
v 0.00962845 0.04753576 0.00656364
v 0.00818189 0.04753576 0.01503625
v 0.00818189 0.04753576 0.01503625
v 0.00818189 0.04753576 0.01503625
v 0.00818189 0.04753576 0.01503625
v 0.00204362 0.03102443 0.01459921
v -0.00343297 0.02618760 0.01356533
v -0.00343297 0.02618760 0.01356533
v 0.00352235 -0.01485343 0.00667052
v -0.00476939 -0.01265461 0.01019287
v -0.00476939 -0.01265461 0.01019287
v -0.01447269 0.07694044 0.01503625
v -0.01447269 0.07694044 0.01503625
v -0.01447269 0.07694044 0.00542349
v -0.01447269 0.07694044 0.00542349
v -0.00182517 -0.01265461 0.01459921
v -0.00182517 -0.01265461 0.01459921
v -0.00182517 -0.01265461 0.01459921
v 0.01539375 0.05836282 0.00834741
v 0.01539375 0.05836282 0.00834741
v 0.01533484 0.07406166 0.00661641
v 0.01533484 0.07406166 0.00661641
v -0.00221435 -0.01936569 0.01553878
v 0.00323360 0.05952788 0.00542349
v 0.00323360 0.05952788 0.00542349
v 0.00323360 0.05952788 0.00542349
v 0.00323360 0.05952788 0.00542349
v -0.00540531 -0.02009675 0.01243182
v -0.00540531 -0.02237172 0.01243182
v 0.00638459 0.04186102 0.00652930
v 0.00638459 0.04186102 0.00652930
v 0.00134961 0.03515380 0.00549165
v 0.00134961 0.03515380 0.00549165
v 0.00134961 0.03515380 0.00549165
v -0.00530196 0.03310881 0.01213614
v 0.01451726 0.08007491 0.01223873
v -0.00379632 -0.01738896 0.00639656
v 0.00223894 -0.02009675 0.00478756
v 0.00223894 -0.02237172 0.00478756
v 0.00102400 0.03305753 0.00555121
v 0.01472511 0.08016101 0.01029400
v -0.00601326 0.08857892 0.01223873
v 0.00989778 0.04901906 0.00604914
v 0.00989778 0.04901906 0.00604914
v 0.00379631 -0.01738896 0.00639656
v -0.00540531 -0.02009675 0.00795392
v -0.00540531 -0.02237172 0.00795392
v -0.00194006 0.02856387 0.01459921
v -0.00578637 -0.01936569 0.01019287
v -0.00185791 0.02618760 0.01459921
v -0.00185791 0.02618760 0.01459921
v -0.00185791 0.02618760 0.01459921
v -0.00585066 -0.02009675 0.01019287
v -0.00585066 -0.02237172 0.01019287
v -0.01579402 0.07406165 0.01029397
v -0.01579402 0.07406165 0.01029397
v -0.01285072 0.08264823 0.01389537
v -0.00000000 0.04186102 0.01503625
v -0.00000000 0.04186102 0.01503625
v -0.00000000 0.04186102 0.01503625
v -0.00000000 0.04186102 0.01503625
v -0.00000000 0.03440968 0.01502369
v -0.00000000 0.03440968 0.01502369
v -0.00000000 0.03440968 0.01502369
v 0.00493873 0.03825240 0.00647399
v 0.00493873 0.03825240 0.00647399
v -0.00643254 0.03825240 0.00834761
v -0.00221435 -0.01936569 0.00484696
v 0.01429701 0.07998367 0.00661642
v -0.00352236 -0.01485343 0.00667052
v -0.00204363 0.03102443 0.00578653
v 0.00506962 0.02856387 0.01019287
v 0.00190628 -0.01485343 0.00559070
v -0.01363298 0.07970861 0.01503625
v -0.01363298 0.07970861 0.01503625
v -0.01363298 0.07970861 0.00542349
v -0.01363298 0.07970861 0.00542349
v 0.00601324 0.08857893 0.01223873
v -0.00491923 0.03825240 0.01404006
v 0.00185790 0.02618760 0.01459921
v 0.00185790 0.02618760 0.01459921
v 0.00194006 0.02856387 0.01459921
v -0.00000000 0.02618760 0.01496225
v -0.00000000 0.02618760 0.01496225
v -0.00000000 -0.02009675 0.01604353
v -0.00000000 0.03102443 0.01496225
v -0.00000000 0.06070577 0.00604914
v -0.00000000 -0.01936569 0.01597924
v -0.00000000 0.06151670 0.00542349
v -0.00000000 0.06151670 0.00542349
v -0.00000000 0.06151670 0.00542349
v -0.00000000 0.02856387 0.01496225
v -0.00000000 -0.01485343 0.01517423
v -0.00000000 -0.01738896 0.01556166
v -0.00000000 0.07406166 0.01503625
v -0.00000000 0.07406166 0.01503625
v -0.00000000 0.07406166 0.01503625
v -0.00000000 0.07406166 0.00542349
v -0.00000000 0.07406166 0.00542349
v -0.00000000 0.07406166 0.00542349
v -0.00000000 -0.01265461 0.01496225
v -0.00000000 -0.01265461 0.01496225
v -0.00000000 0.06144407 0.00604914
v -0.00000000 -0.02237172 0.01604353
v -0.01307761 0.05354044 0.00658649
v -0.01307761 0.05354044 0.00658649
v 0.00897568 0.04753576 0.00604914
v 0.00897568 0.04753576 0.00604914
v 0.00897568 0.04753576 0.00604914
v -0.01541145 0.07712718 0.01223873
v -0.00102396 0.03305745 0.00555210
v -0.01307858 0.08280047 0.00834734
v -0.00897568 0.04753576 0.00604914
v -0.00897568 0.04753576 0.00604914
v -0.00897568 0.04753576 0.00604914
v 0.01307761 0.05354044 0.00658649
v 0.01307761 0.05354044 0.00658649
v 0.00636563 0.04186102 0.01398425
v 0.00460217 -0.01485343 0.01209915
v -0.00358477 0.02856387 0.01356534
v 0.00205454 -0.01738896 0.00523275
v 0.00090826 0.03491416 0.01503625
v 0.00090826 0.03491416 0.01503625
v 0.00090826 0.03491416 0.01503625
v 0.00491923 0.03825240 0.01404007
v 0.00440633 -0.01265461 0.00836770
v 0.00440633 -0.01265461 0.00836770
v 0.00440633 -0.01265461 0.01201803
v 0.00440633 -0.01265461 0.01201803
v 0.01112241 0.08518408 0.00834734
v -0.01515846 0.07707685 0.01389537
v 0.01531548 0.07406166 0.01389537
v 0.01531548 0.07406166 0.01389537
v 0.00127442 0.03320328 0.01483918
v 0.00468372 0.02856387 0.01213293
v -0.00749544 0.04186101 0.01223900
v 0.01045315 0.04890003 0.01394440
v 0.00795900 0.04186101 0.01029794
v 0.00795900 0.04186101 0.01029794
v 0.00643255 0.03825240 0.00834761
v 0.00643255 0.03825240 0.00834761
v 0.00643255 0.03825240 0.00834761
v -0.00493499 0.03822512 0.00646787
v -0.01427896 0.07997618 0.01389537
v 0.01134102 0.04889565 0.01223926
v -0.01375488 0.05354044 0.00834767
v -0.01375488 0.05354044 0.00834767
v 0.01135909 0.04889564 0.00834787
v -0.00000003 0.03306094 0.00543790
v 0.00858657 0.08691238 0.01389537
v 0.00223895 -0.02009675 0.01559818
v 0.00223895 -0.02237172 0.01559818
v 0.00751392 0.04186102 0.00834761
v 0.00751392 0.04186102 0.00834761
v -0.00416925 0.03825240 0.00604914
v -0.00416925 0.03825240 0.00604914
v -0.00416925 0.03825240 0.00604914
v -0.00416925 0.03825240 0.00604914
v 0.00182516 -0.01265461 0.01459921
v 0.00182516 -0.01265461 0.01459921
v -0.00204362 0.03102443 0.01459921
f 186 192 322
f 192 194 322
f 194 123 322
f 123 340 322
f 340 100 322
f 100 261 322
f 261 295 322
f 295 224 322
f 224 269 322
f 269 362 322
f 362 208 322
f 208 145 322
f 145 320 322
f 320 112 322
f 112 231 322
f 231 252 322
f 252 127 322
f 127 333 322
f 333 249 322
f 249 60 322
f 60 297 322
f 297 359 322
f 359 165 322
f 165 108 322
f 108 237 322
f 237 139 322
f 139 317 322
f 317 186 322
f 50 55 348
f 325 347 17
f 347 325 20
f 325 17 312
f 20 325 228
f 325 312 45
f 351 228 324
f 325 45 79
f 227 350 324
f 325 79 206
f 313 225 325
f 325 206 203
f 313 325 47
f 325 203 82
f 47 325 82
f 15 205 8
f 8 205 80
f 204 15 12
f 9 81 12
f 229 349 54
f 229 57 19
f 19 50 348
f 51 349 365
f 15 204 205
f 348 55 368
f 54 349 51
f 69 81 9
f 80 13 8
f 80 72 13
f 119 263 321
f 263 22 321
f 22 201 321
f 201 217 321
f 217 353 321
f 353 96 321
f 96 36 321
f 36 285 321
f 285 290 321
f 290 299 321
f 299 234 321
f 234 267 321
f 267 142 321
f 142 168 321
f 168 211 321
f 211 157 321
f 157 31 321
f 31 84 321
f 84 341 321
f 341 104 321
f 104 40 321
f 40 89 321
f 89 254 321
f 254 1 321
f 1 276 321
f 276 5 321
f 5 27 321
f 27 246 321
f 246 162 321
f 162 62 321
f 62 306 321
f 306 119 321
f 151 116 323
f 26 151 323
f 44 26 323
f 78 44 323
f 357 78 323
f 283 357 323
f 130 283 323
f 289 130 323
f 189 289 323
f 102 189 323
f 176 102 323
f 155 176 323
f 337 155 323
f 172 337 323
f 215 172 323
f 161 215 323
f 35 161 323
f 280 35 323
f 345 280 323
f 303 345 323
f 241 303 323
f 93 241 323
f 258 93 323
f 87 258 323
f 221 87 323
f 149 221 323
f 198 149 323
f 244 198 323
f 273 244 323
f 66 273 323
f 310 66 323
f 116 310 323
f 204 12 81
f 229 54 57
f 19 57 50
f 184 191 193
f 184 193 187
f 191 196 195
f 191 195 193
f 196 125 124
f 196 124 195
f 125 338 339
f 125 339 124
f 338 98 99
f 338 99 339
f 98 260 262
f 98 262 99
f 260 293 294
f 260 294 262
f 293 222 223
f 293 223 294
f 222 271 270
f 222 270 223
f 271 363 361
f 271 361 270
f 363 207 209
f 363 209 361
f 207 144 146
f 207 146 209
f 144 318 319
f 144 319 146
f 318 110 111
f 318 111 319
f 110 230 232
f 110 232 111
f 230 253 251
f 230 251 232
f 253 128 126
f 253 126 251
f 128 332 334
f 128 334 126
f 332 248 250
f 332 250 334
f 248 59 61
f 248 61 250
f 59 296 298
f 59 298 61
f 296 358 360
f 296 360 298
f 358 167 166
f 358 166 360
f 167 109 107
f 167 107 166
f 109 236 238
f 109 238 107
f 236 138 140
f 236 140 238
f 138 315 316
f 138 316 140
f 315 183 185
f 315 185 316
f 330 311 18
f 330 18 135
f 365 349 226
f 365 226 133
f 311 330 180
f 311 180 46
f 180 72 80
f 180 80 46
f 314 326 133
f 314 133 226
f 56 367 369
f 56 369 55
f 50 49 56
f 50 56 55
f 369 367 137
f 369 137 136
f 57 58 49
f 57 49 50
f 136 137 331
f 136 331 329
f 329 331 182
f 329 182 181
f 54 53 58
f 54 58 57
f 326 314 48
f 326 48 179
f 181 182 75
f 181 75 73
f 51 52 53
f 51 53 54
f 366 52 51
f 366 51 364
f 13 72 74
f 13 74 14
f 134 366 364
f 134 364 132
f 7 8 13
f 7 13 14
f 328 134 132
f 328 132 327
f 177 328 327
f 177 327 178
f 11 12 15
f 11 15 16
f 68 70 177
f 68 177 178
f 10 9 12
f 10 12 11
f 69 9 10
f 69 10 71
f 348 368 135
f 348 135 18
f 69 179 48
f 69 48 81
f 122 265 264
f 122 264 120
f 265 23 21
f 265 21 264
f 23 202 200
f 23 200 21
f 202 218 216
f 202 216 200
f 218 355 352
f 218 352 216
f 355 97 95
f 355 95 352
f 97 38 37
f 97 37 95
f 38 287 284
f 38 284 37
f 287 292 291
f 287 291 284
f 292 301 300
f 292 300 291
f 301 235 233
f 301 233 300
f 235 268 266
f 235 266 233
f 268 143 141
f 268 141 266
f 143 171 169
f 143 169 141
f 171 213 210
f 171 210 169
f 213 159 156
f 213 156 210
f 159 33 30
f 159 30 156
f 33 85 83
f 33 83 30
f 85 344 342
f 85 342 83
f 344 106 105
f 344 105 342
f 106 41 39
f 106 39 105
f 41 91 90
f 41 90 39
f 91 257 255
f 91 255 90
f 257 3 2
f 257 2 255
f 3 277 275
f 3 275 2
f 277 6 4
f 277 4 275
f 6 29 28
f 6 28 4
f 29 247 245
f 29 245 28
f 247 164 163
f 247 163 245
f 164 65 63
f 164 63 163
f 65 308 305
f 65 305 63
f 308 121 118
f 308 118 305
f 117 152 150
f 117 150 114
f 152 25 24
f 152 24 150
f 25 43 42
f 25 42 24
f 43 77 76
f 43 76 42
f 77 356 354
f 77 354 76
f 356 282 281
f 356 281 354
f 282 131 129
f 282 129 281
f 131 288 286
f 131 286 129
f 288 190 188
f 288 188 286
f 190 103 101
f 190 101 188
f 103 175 174
f 103 174 101
f 175 154 153
f 175 153 174
f 154 336 335
f 154 335 153
f 336 173 170
f 336 170 335
f 173 214 212
f 173 212 170
f 214 160 158
f 214 158 212
f 160 34 32
f 160 32 158
f 34 279 278
f 34 278 32
f 279 346 343
f 279 343 278
f 346 304 302
f 346 302 343
f 304 240 239
f 304 239 302
f 240 94 92
f 240 92 239
f 94 259 256
f 94 256 92
f 259 88 86
f 259 86 256
f 88 220 219
f 88 219 86
f 220 148 147
f 220 147 219
f 148 199 197
f 148 197 147
f 199 243 242
f 199 242 197
f 243 274 272
f 243 272 242
f 274 67 64
f 274 64 272
f 67 309 307
f 67 307 64
f 309 115 113
f 309 113 307
f 8 7 16
f 8 16 15
f 503 578 447
f 578 517 447
f 517 391 447
f 532 459 579
f 579 459 384
f 384 459 385
f 550 403 480
f 550 439 403
f 517 578 524
f 520 494 519
f 520 523 494
f 525 497 474
f 518 476 495
f 400 475 433
f 400 429 475
f 513 579 384
f 543 402 547
f 543 547 563
f 444 481 546
f 444 546 545
f 570 482 458
f 570 458 428
f 549 505 374
f 549 374 533
f 498 528 488
f 498 488 552
f 548 456 460
f 548 460 534
f 486 569 449
f 486 449 397
f 395 456 548
f 395 548 537
f 573 528 498
f 573 498 383
f 483 505 549
f 483 549 538
f 543 523 520
f 543 520 519
f 543 439 550
f 543 550 480
f 543 429 400
f 543 400 433
f 546 451 509
f 546 509 545
f 509 514 544
f 509 544 545
f 544 425 444
f 544 444 545
f 458 553 449
f 458 449 428
f 449 569 567
f 449 567 428
f 567 489 570
f 567 570 428
f 374 499 535
f 374 535 533
f 535 430 462
f 535 462 533
f 462 493 549
f 462 549 533
f 488 464 417
f 488 417 552
f 417 457 420
f 417 420 552
f 420 418 498
f 420 498 552
f 460 440 536
f 460 536 534
f 536 564 469
f 536 469 534
f 469 396 548
f 469 548 534
f 449 553 434
f 449 434 397
f 434 551 432
f 434 432 397
f 432 385 486
f 432 486 397
f 548 396 373
f 548 373 537
f 373 531 542
f 373 542 537
f 542 504 395
f 542 395 537
f 498 418 387
f 498 387 383
f 387 392 527
f 387 527 383
f 527 413 573
f 527 573 383
f 549 493 438
f 549 438 538
f 438 466 540
f 438 540 538
f 540 442 483
f 540 483 538
f 461 430 535
f 461 535 565
f 535 499 508
f 535 508 565
f 555 457 417
f 555 417 382
f 417 464 568
f 417 568 382
f 370 564 536
f 370 536 530
f 536 440 441
f 536 441 530
f 408 482 570
f 408 570 399
f 570 489 426
f 570 426 399
f 419 574 457
f 419 457 555
f 420 457 574
f 420 574 407
f 407 372 418
f 407 418 420
f 387 418 372
f 387 372 455
f 455 448 392
f 455 392 387
f 541 532 579
f 541 579 403
f 486 385 459
f 486 459 556
f 556 566 569
f 556 569 486
f 567 569 566
f 567 566 377
f 377 406 489
f 377 489 567
f 426 489 406
f 426 406 468
f 539 394 529
f 539 529 443
f 539 465 427
f 539 427 394
f 474 497 576
f 474 576 412
f 526 391 517
f 526 517 494
f 395 504 448
f 395 448 455
f 455 372 456
f 455 456 395
f 460 456 372
f 460 372 407
f 407 574 440
f 407 440 460
f 441 440 574
f 441 574 419
f 468 406 564
f 468 564 370
f 469 564 406
f 469 406 377
f 377 566 396
f 377 396 469
f 373 396 566
f 373 566 556
f 556 459 531
f 556 531 373
f 432 551 518
f 432 518 475
f 376 476 518
f 376 518 551
f 543 480 513
f 543 513 429
f 543 519 524
f 543 524 439
f 543 563 525
f 543 525 523
f 543 433 495
f 543 495 402
f 529 476 376
f 529 376 443
f 526 494 474
f 526 474 412
f 541 403 578
f 541 578 503
f 422 484 490
f 422 490 401
f 485 421 424
f 485 424 446
f 446 424 487
f 446 487 554
f 445 521 450
f 445 450 386
f 522 445 463
f 522 463 560
f 561 463 393
f 561 393 389
f 496 436 471
f 496 471 423
f 435 496 467
f 435 467 453
f 454 467 398
f 454 398 559
f 378 501 511
f 378 511 431
f 500 378 371
f 500 371 415
f 416 371 477
f 416 477 409
f 410 477 401
f 410 401 491
f 554 487 386
f 554 386 450
f 388 393 423
f 388 423 472
f 558 398 431
f 558 431 512
f 477 371 461
f 477 461 565
f 398 467 555
f 398 555 382
f 393 463 370
f 393 370 530
f 487 424 408
f 487 408 399
f 508 401 477
f 508 477 565
f 568 431 398
f 568 398 382
f 441 423 393
f 441 393 530
f 426 386 487
f 426 487 399
f 468 445 386
f 468 386 426
f 544 514 562
f 544 562 390
f 390 470 425
f 390 425 544
f 408 424 421
f 408 421 506
f 506 404 482
f 506 482 408
f 458 482 404
f 458 404 571
f 571 478 553
f 571 553 458
f 434 553 478
f 434 478 381
f 381 376 551
f 381 551 434
f 573 413 575
f 573 575 515
f 515 577 528
f 515 528 573
f 488 528 577
f 488 577 516
f 516 379 464
f 516 464 488
f 568 464 379
f 568 379 473
f 473 378 431
f 473 431 568
f 546 481 414
f 546 414 411
f 411 492 451
f 411 451 546
f 461 371 378
f 461 378 473
f 473 379 430
f 473 430 461
f 462 430 379
f 462 379 516
f 516 577 493
f 516 493 462
f 438 493 577
f 438 577 515
f 515 575 466
f 515 466 438
f 419 496 423
f 419 423 441
f 425 470 437
f 425 437 452
f 444 425 452
f 444 452 557
f 557 510 481
f 557 481 444
f 414 481 510
f 414 510 502
f 370 463 445
f 370 445 468
f 483 442 375
f 483 375 380
f 380 479 505
f 380 505 483
f 374 505 479
f 374 479 572
f 572 405 499
f 572 499 374
f 508 499 405
f 508 405 507
f 507 422 401
f 507 401 508
f 451 492 485
f 451 485 446
f 509 451 446
f 509 446 554
f 554 450 514
f 554 514 509
f 562 514 450
f 562 450 521
f 497 427 465
f 497 465 576
f 555 467 496
f 555 496 419
f 432 475 384
f 432 384 385
f 403 579 513
f 403 513 480
f 578 403 439
f 578 439 524
f 494 517 524
f 494 524 519
f 474 494 523
f 474 523 525
f 525 563 427
f 525 427 497
f 394 427 563
f 394 563 547
f 529 394 547
f 529 547 402
f 402 495 476
f 402 476 529
f 475 518 495
f 475 495 433
f 384 475 429
f 384 429 513
f 604 769 777
f 604 777 651
f 651 777 774
f 651 774 590
f 591 773 775
f 591 775 650
f 775 770 606
f 775 606 650
f 650 606 597
f 650 597 753
f 753 597 659
f 753 659 782
f 659 718 657
f 659 657 782
f 782 657 596
f 782 596 751
f 750 595 604
f 750 604 651
f 750 651 590
f 750 590 693
f 591 650 753
f 591 753 694
f 753 782 751
f 753 751 694
f 606 770 776
f 606 776 649
f 649 776 771
f 649 771 593
f 592 772 778
f 592 778 652
f 778 768 605
f 778 605 652
f 652 605 594
f 652 594 752
f 752 594 658
f 752 658 781
f 658 718 659
f 658 659 781
f 781 659 597
f 781 597 754
f 754 597 606
f 754 606 649
f 754 649 593
f 754 593 695
f 592 652 752
f 592 752 695
f 752 781 754
f 752 754 695
f 776 770 730
f 776 730 686
f 686 730 736
f 686 736 797
f 798 737 680
f 798 680 764
f 680 614 679
f 680 679 764
f 764 679 734
f 764 734 794
f 794 734 729
f 794 729 689
f 729 768 778
f 729 778 689
f 689 778 772
f 689 772 740
f 741 771 776
f 741 776 686
f 741 686 797
f 741 797 645
f 798 764 794
f 798 794 646
f 794 689 740
f 794 740 646
f 730 770 775
f 730 775 687
f 687 775 773
f 687 773 739
f 738 774 777
f 738 777 688
f 777 769 728
f 777 728 688
f 688 728 735
f 688 735 793
f 793 735 678
f 793 678 765
f 678 614 680
f 678 680 765
f 765 680 737
f 765 737 796
f 795 736 730
f 795 730 687
f 795 687 739
f 795 739 643
f 738 688 793
f 738 793 644
f 793 765 796
f 793 796 644
f 682 671 588
f 682 588 641
f 642 587 704
f 642 704 746
f 704 599 720
f 704 720 746
f 746 720 629
f 746 629 712
f 713 630 598
f 713 598 727
f 628 682 641
f 628 641 670
f 642 746 712
f 642 712 669
f 713 727 628
f 713 628 670
f 720 599 800
f 720 800 672
f 672 800 697
f 672 697 791
f 792 696 616
f 792 616 742
f 787 598 630
f 787 630 763
f 762 629 720
f 762 720 672
f 762 672 791
f 762 791 779
f 792 742 783
f 792 783 780
f 783 787 763
f 783 763 780
f 767 599 704
f 767 704 615
f 615 704 587
f 615 587 708
f 707 588 671
f 707 671 676
f 799 690 660
f 799 660 731
f 731 660 767
f 731 767 615
f 731 615 708
f 731 708 716
f 707 676 636
f 707 636 717
f 635 799 731
f 635 731 716
f 600 616 696
f 600 696 648
f 647 697 800
f 647 800 668
f 800 599 767
f 800 767 668
f 668 767 660
f 668 660 785
f 785 660 690
f 785 690 758
f 664 600 648
f 664 648 617
f 647 668 785
f 647 785 618
f 785 758 665
f 785 665 618
f 723 722 620
f 723 620 621
f 759 760 725
f 759 725 724
f 603 602 744
f 603 744 745
f 711 709 581
f 711 581 583
f 581 662 663
f 581 663 583
f 662 722 723
f 662 723 663
f 711 703 701
f 711 701 709
f 702 760 759
f 702 759 700
f 620 585 586
f 620 586 621
f 585 602 603
f 585 603 586
f 725 640 638
f 725 638 724
f 639 745 744
f 639 744 637
f 700 661 582
f 700 582 710
f 724 619 721
f 724 721 759
f 759 721 661
f 759 661 700
f 601 584 638
f 601 638 743
f 638 584 619
f 638 619 724
f 607 684 625
f 607 625 698
f 683 607 756
f 683 756 674
f 698 623 633
f 698 633 784
f 786 788 673
f 786 673 756
f 790 786 677
f 790 677 656
f 654 677 692
f 654 692 714
f 726 580 715
f 726 715 691
f 580 726 634
f 580 634 589
f 589 634 706
f 589 706 748
f 613 761 784
f 613 784 631
f 761 612 610
f 761 610 719
f 719 609 749
f 719 749 705
f 733 607 698
f 733 698 653
f 726 681 755
f 726 755 634
f 757 761 719
f 757 719 699
f 622 677 786
f 622 786 732
f 786 756 766
f 786 766 732
f 756 607 733
f 756 733 766
f 622 667 692
f 622 692 677
f 666 681 726
f 666 726 691
f 698 784 747
f 698 747 653
f 784 761 757
f 784 757 747
f 755 627 706
f 755 706 634
f 626 699 719
f 626 719 705
f 715 675 789
f 715 789 655
f 589 624 685
f 589 685 580
f 580 685 675
f 580 675 715
f 611 632 748
f 611 748 608
f 748 632 624
f 748 624 589
f 824 852 869
f 833 824 869
f 871 833 869
f 874 871 869
f 858 874 869
f 815 858 869
f 847 815 869
f 826 847 869
f 808 826 869
f 841 808 869
f 836 841 869
f 830 836 869
f 844 830 869
f 861 844 869
f 855 861 869
f 812 855 869
f 864 812 869
f 838 864 869
f 821 838 869
f 803 821 869
f 806 803 869
f 817 806 869
f 868 817 869
f 852 868 869
f 853 823 822
f 853 822 850
f 823 832 831
f 823 831 822
f 832 872 870
f 832 870 831
f 872 875 873
f 872 873 870
f 875 859 857
f 875 857 873
f 859 814 813
f 859 813 857
f 814 848 846
f 814 846 813
f 848 827 825
f 848 825 846
f 827 809 807
f 827 807 825
f 809 842 840
f 809 840 807
f 842 835 834
f 842 834 840
f 835 829 828
f 835 828 834
f 829 845 843
f 829 843 828
f 845 862 860
f 845 860 843
f 862 856 854
f 862 854 860
f 856 811 810
f 856 810 854
f 811 865 863
f 811 863 810
f 865 839 837
f 865 837 863
f 839 820 819
f 839 819 837
f 820 802 801
f 820 801 819
f 802 805 804
f 802 804 801
f 805 818 816
f 805 816 804
f 818 867 866
f 818 866 816
f 867 851 849
f 867 849 866
f 1408 1402 1077
f 1479 1517 1077
f 887 1401 1253
f 1099 1314 1392
f 921 1000 1465
f 1283 921 1465
f 915 1283 1465
f 879 986 1136
f 1351 915 1465
f 1004 923 1468
f 1161 1351 1465
f 923 1285 1468
f 1262 1161 1465
f 1285 917 1468
f 926 1262 1465
f 917 1353 1468
f 1139 926 1465
f 897 1381 1465
f 936 1139 1465
f 1353 1163 1468
f 1381 1442 1465
f 1093 936 1465
f 1442 1341 1465
f 1082 1093 1465
f 1163 1264 1468
f 1341 1104 1465
f 1104 1082 1465
f 1264 928 1468
f 928 1141 1468
f 1395 1313 1053
f 1383 901 1468
f 1141 938 1468
f 1444 1383 1468
f 938 1095 1468
f 1343 1444 1468
f 1095 1084 1468
f 1106 1343 1468
f 1084 1106 1468
f 876 1242 985
f 1348 1467 1458
f 877 900 1241
f 1466 911 1457
f 1002 958 1394
f 1150 900 877
f 1002 1394 1052
f 1359 963 1189
f 1455 1324 942
f 1328 1208 1455
f 1455 1208 1324
f 963 954 1524
f 1359 954 963
f 1190 1253 1434
f 1517 1408 1077
f 1157 1479 1077
f 1412 1316 1101
f 1135 984 950
f 1526 909 1267
f 887 1253 1190
f 909 1523 1511
f 1157 1268 909
f 1495 1184 1301
f 1495 1301 1065
f 1470 1385 1419
f 1470 1419 1452
f 1184 1497 1067
f 1184 1067 1301
f 1528 1470 1452
f 1528 1452 1449
f 1497 1132 1026
f 1497 1026 1067
f 1132 1528 1449
f 1132 1449 1026
f 1281 882 1438
f 1281 1438 1234
f 882 941 955
f 882 955 1438
f 1366 1281 1234
f 1366 1234 1364
f 941 1379 1226
f 941 1226 955
f 1234 1438 1405
f 1234 1405 1220
f 1438 955 1164
f 1438 1164 1405
f 1018 1366 1364
f 1018 1364 1441
f 1379 1291 905
f 1379 905 1226
f 1364 1234 1220
f 1364 1220 1365
f 955 1226 1187
f 955 1187 1164
f 1220 1405 1308
f 1220 1308 1436
f 1405 1164 1221
f 1405 1221 1308
f 1436 1308 1062
f 1436 1062 1035
f 1308 1221 1414
f 1308 1414 1062
f 1365 1220 1436
f 1365 1436 1119
f 1164 1187 1417
f 1164 1417 1221
f 1441 1364 1365
f 1441 1365 1489
f 1226 905 1127
f 1226 1127 1187
f 1256 1018 1441
f 1256 1441 1377
f 1291 1252 1024
f 1291 1024 905
f 1119 1436 1035
f 1119 1035 1118
f 1221 1417 1421
f 1221 1421 1414
f 1035 1062 1063
f 1035 1063 1036
f 1062 1414 1415
f 1062 1415 1063
f 1489 1365 1119
f 1489 1119 1012
f 1187 1127 1207
f 1187 1207 1417
f 1118 1035 1036
f 1118 1036 1120
f 1414 1421 1422
f 1414 1422 1415
f 1377 1441 1489
f 1377 1489 1413
f 905 1024 1228
f 905 1228 1127
f 1494 1256 1377
f 1494 1377 1219
f 1252 1384 1317
f 1252 1317 1024
f 1012 1119 1118
f 1012 1118 1406
f 1417 1207 1396
f 1417 1396 1421
f 1406 1118 1120
f 1406 1120 1407
f 1421 1396 1397
f 1421 1397 1422
f 1413 1489 1012
f 1413 1012 1231
f 1127 1228 881
f 1127 881 1207
f 1185 1494 1219
f 1185 1219 1289
f 1384 1469 1461
f 1384 1461 1317
f 1219 1377 1413
f 1219 1413 1258
f 1024 1317 1294
f 1024 1294 1228
f 1231 1012 1406
f 1231 1406 1116
f 1207 881 1274
f 1207 1274 1396
f 1496 1185 1289
f 1496 1289 1487
f 1469 1527 1303
f 1469 1303 1461
f 1116 1406 1407
f 1116 1407 1117
f 1396 1274 1275
f 1396 1275 1397
f 1258 1413 1231
f 1258 1231 948
f 1228 1294 1391
f 1228 1391 881
f 1289 1219 1258
f 1289 1258 1121
f 1317 1461 1462
f 1317 1462 1294
f 1133 1496 1487
f 1133 1487 973
f 1527 1133 973
f 1527 973 1303
f 948 1231 1116
f 948 1116 1006
f 881 1391 990
f 881 990 1274
f 1487 1289 1121
f 1487 1121 1257
f 1461 1303 949
f 1461 949 1462
f 1121 1258 948
f 1121 948 1113
f 1294 1462 1456
f 1294 1456 1391
f 1006 1116 1117
f 1006 1117 1008
f 1274 990 991
f 1274 991 1275
f 973 1487 1257
f 973 1257 1021
f 1303 973 1021
f 1303 1021 949
f 1113 948 1006
f 1113 1006 1337
f 1391 1456 1453
f 1391 1453 990
f 1257 1121 1113
f 1257 1113 1204
f 1462 949 1124
f 1462 1124 1456
f 1337 1006 1008
f 1337 1008 1338
f 990 1453 1472
f 990 1472 991
f 1021 1257 1204
f 1021 1204 1107
f 949 1021 1107
f 949 1107 1124
f 1204 1113 1337
f 1204 1337 1007
f 1456 1124 1519
f 1456 1519 1453
f 1107 1204 1007
f 1107 1007 966
f 1124 1107 966
f 1124 966 1519
f 1007 1337 1338
f 1007 1338 1009
f 1453 1519 1520
f 1453 1520 1472
f 966 1007 1009
f 966 1009 967
f 1519 966 967
f 1519 967 1520
f 1386 1251 1375
f 1386 1375 1420
f 1255 1495 1065
f 1255 1065 1306
f 1251 1290 1068
f 1251 1068 1375
f 1017 1255 1306
f 1017 1306 964
f 1290 1378 1217
f 1290 1217 1068
f 1367 1017 964
f 1367 964 1361
f 1378 940 1339
f 1378 1339 1217
f 1280 1367 1361
f 1280 1361 1335
f 940 883 1109
f 940 1109 1339
f 883 1280 1335
f 883 1335 1109
f 1066 1027 1183
f 1066 1183 1503
f 1027 1448 1450
f 1027 1450 1183
f 1448 1451 1460
f 1448 1460 1450
f 1503 1183 1230
f 1503 1230 1327
f 1460 1451 1418
f 1460 1418 1416
f 1183 1450 1374
f 1183 1374 1230
f 1232 1064 1302
f 1232 1302 1440
f 1450 1460 1454
f 1450 1454 1374
f 1416 1418 1376
f 1416 1376 1488
f 1454 1460 1416
f 1454 1416 1529
f 1212 1325 1287
f 1212 1287 976
f 1064 1232 1131
f 1064 1131 1307
f 1287 1325 1502
f 1287 1502 1490
f 1326 1232 1440
f 1326 1440 961
f 906 1212 976
f 906 976 1244
f 1502 933 1432
f 1502 1432 1490
f 1488 1376 1069
f 1488 1069 1165
f 1529 1416 1488
f 1529 1488 1171
f 1307 1131 1356
f 1307 1356 965
f 1180 1131 1232
f 1180 1232 1326
f 974 1288 1493
f 974 1493 1297
f 1432 933 1249
f 1432 1249 970
f 1177 1156 906
f 1177 906 1244
f 1243 975 1296
f 1243 1296 989
f 1288 1491 890
f 1288 890 1493
f 1165 1069 1218
f 1165 1218 1070
f 1171 1488 1165
f 1171 1165 1056
f 1363 1360 965
f 1363 965 1356
f 1245 1356 1131
f 1245 1131 1180
f 1492 1431 1041
f 1492 1041 892
f 1493 889 1271
f 1493 1271 1486
f 1509 1176 1243
f 1509 1243 989
f 988 1297 1205
f 988 1205 1506
f 1254 1259 1156
f 1254 1156 1177
f 1043 1430 968
f 1043 968 1152
f 1336 1360 1363
f 1336 1363 1331
f 1248 970 1249
f 1248 1249 1123
f 1218 1340 1197
f 1218 1197 1070
f 1056 1165 1070
f 1056 1070 1198
f 1108 1336 1331
f 1108 1331 1304
f 1340 1108 1304
f 1340 1304 1197
f 1486 1270 1371
f 1486 1371 1088
f 1362 1363 1356
f 1362 1356 1245
f 1507 1205 885
f 1507 885 1022
f 1522 1510 988
f 1522 988 1506
f 1178 1508 1434
f 1178 1434 1253
f 1302 1066 1503
f 1302 1503 1440
f 1154 969 1247
f 1154 1247 1447
f 1331 1363 1362
f 1331 1362 1439
f 1123 1403 1200
f 1123 1200 1248
f 1070 1197 1089
f 1070 1089 1198
f 1505 1202 1310
f 1505 1310 1010
f 1513 1505 1010
f 1513 1010 957
f 1304 1331 1439
f 1304 1439 1168
f 1197 1304 1168
f 1197 1168 1089
f 1323 1521 1507
f 1323 1507 1022
f 1510 1522 1399
f 1510 1399 1433
f 1200 1403 1129
f 1200 1129 904
f 1091 1513 956
f 1091 956 919
f 1447 1247 1201
f 1447 1201 1115
f 1010 1309 1049
f 1010 1049 1305
f 1191 1433 1399
f 1191 1399 1358
f 1440 1503 1327
f 1440 1327 961
f 1521 1323 1369
f 1521 1369 1398
f 1129 1265 1155
f 1129 1155 904
f 1277 1516 1091
f 1277 1091 919
f 1175 1153 1447
f 1175 1447 1216
f 920 957 1170
f 920 1170 1166
f 1357 1398 1369
f 1357 1369 1477
f 1114 1199 903
f 1114 903 1192
f 1485 994 1516
f 1485 1516 1277
f 1388 1276 920
f 1388 920 1166
f 903 1155 1435
f 903 1435 1192
f 1368 994 1412
f 1368 1412 1476
f 1126 1484 1276
f 1126 1276 1388
f 1305 1048 998
f 1305 998 1501
f 1504 1115 1193
f 1504 1193 1045
f 1170 1305 1501
f 1170 1501 1110
f 947 1174 1216
f 947 1216 1355
f 1055 1315 1484
f 1055 1484 1126
f 1167 1170 1110
f 1167 1110 1013
f 1193 1435 908
f 1193 908 1045
f 1435 1511 1032
f 1435 1032 908
f 1329 1387 1167
f 1329 1167 1013
f 1028 1504 1044
f 1028 1044 894
f 1389 1125 1387
f 1389 1387 1329
f 1031 952 1483
f 1031 1483 1087
f 1003 1054 1125
f 1003 1125 1389
f 1044 907 978
f 1044 978 894
f 907 1031 1087
f 907 1087 978
f 982 1080 1020
f 982 1020 1179
f 1427 1273 891
f 1427 891 1040
f 1014 1111 1122
f 1014 1122 1147
f 1214 1278 992
f 1214 992 1225
f 1345 1330 1014
f 1345 1014 1147
f 930 1373 1272
f 930 1272 1426
f 992 910 1515
f 992 1515 1225
f 1173 1429 1042
f 1173 1042 1151
f 910 1227 1474
f 910 1474 1515
f 1238 981 1179
f 1238 1179 1128
f 950 984 1474
f 950 1474 1227
f 880 1214 1224
f 880 1224 1016
f 886 1038 1076
f 886 1076 1400
f 1319 1312 1203
f 1319 1203 934
f 1224 1514 1030
f 1224 1030 1016
f 1037 1268 1158
f 1037 1158 1075
f 1514 1473 1034
f 1514 1034 1030
f 1473 983 1240
f 1473 1240 1034
f 945 932 1428
f 945 1428 1172
f 896 1237 1128
f 896 1128 1096
f 1072 1051 1311
f 1072 1311 1318
f 1128 880 1209
f 1128 1209 1096
f 880 1015 1424
f 880 1424 1209
f 1424 1015 1029
f 1424 1029 996
f 1029 1033 1060
f 1029 1060 996
f 1033 1239 899
f 1033 899 1060
f 1332 943 1146
f 1332 1146 1145
f 953 1032 1511
f 953 1511 1526
f 960 1186 1078
f 960 1078 987
f 1146 1138 937
f 1146 937 1196
f 980 1321 935
f 980 935 1079
f 1196 937 1092
f 1196 1092 1011
f 1142 960 987
f 1142 987 1144
f 1478 1211 1423
f 1478 1423 1292
f 1144 1145 1182
f 1144 1182 1148
f 1410 1011 1215
f 1410 1215 1346
f 1423 995 1090
f 1423 1090 1292
f 1148 1182 1410
f 1148 1410 884
f 1295 1142 1144
f 1295 1144 1148
f 1463 999 1050
f 1463 1050 1071
f 1143 1142 1295
f 1143 1295 1333
f 1098 1500 1001
f 1098 1001 922
f 1300 1061 1279
f 1300 1279 1025
f 1122 1112 1500
f 1122 1500 1098
f 1236 1074 1320
f 1236 1320 979
f 997 1098 922
f 997 922 1282
f 1404 1122 1098
f 1404 1098 997
f 1393 959 942
f 1393 942 1324
f 1409 1147 1122
f 1409 1122 1404
f 1057 1390 1330
f 1057 1330 1345
f 1102 997 1282
f 1102 1282 916
f 959 1349 1350
f 959 1350 942
f 1345 1147 1409
f 1345 1409 1334
f 1525 1269 1039
f 1525 1039 962
f 924 1005 1390
f 924 1390 1057
f 1229 1404 997
f 1229 997 1102
f 1437 1057 1345
f 1437 1345 1334
f 1195 1409 1404
f 1195 1404 1229
f 913 1149 1328
f 913 1328 914
f 1149 878 1208
f 1149 1208 1328
f 1222 1102 916
f 1222 916 1352
f 1284 924 1057
f 1284 1057 1437
f 1334 1409 1195
f 1334 1195 1058
f 895 1464 1073
f 895 1073 1235
f 1246 1229 1102
f 1246 1102 1222
f 1250 1437 1334
f 1250 1334 1058
f 1159 1195 1229
f 1159 1229 1246
f 1518 1222 1352
f 1518 1352 1160
f 918 1284 1437
f 918 1437 1250
f 1058 1195 1159
f 1058 1159 1498
f 1134 1246 1222
f 1134 1222 1518
f 1019 1250 1058
f 1019 1058 1498
f 1266 1159 1246
f 1266 1246 1134
f 1130 1518 1160
f 1130 1160 1261
f 1354 918 1250
f 1354 1250 1019
f 1498 1159 1266
f 1498 1266 1046
f 1446 1134 1518
f 1446 1518 1130
f 1299 1019 1498
f 1299 1498 1046
f 1078 1266 1134
f 1078 1134 1446
f 943 1130 1261
f 943 1261 925
f 1162 1354 1019
f 1162 1019 1299
f 1046 1266 1078
f 1046 1078 1186
f 1332 1446 1130
f 1332 1130 943
f 1298 1299 1046
f 1298 1046 1186
f 1146 943 925
f 1146 925 1138
f 987 1078 1446
f 987 1446 1332
f 1263 1162 1299
f 1263 1299 1298
f 1097 1499 1380
f 1097 1380 898
f 1144 987 1332
f 1144 1332 1145
f 1181 1298 1186
f 1181 1186 960
f 1210 1478 1499
f 1210 1499 1097
f 1182 1145 1146
f 1182 1146 1196
f 927 1263 1298
f 927 1298 1181
f 1499 1512 1443
f 1499 1443 1380
f 1512 1425 1342
f 1512 1342 1443
f 1215 1011 1092
f 1215 1092 1081
f 1478 1213 1512
f 1478 1512 1499
f 1410 1182 1196
f 1410 1196 1011
f 1143 1181 960
f 1143 960 1142
f 1425 1085 1103
f 1425 1103 1342
f 1085 1215 1081
f 1085 1081 1103
f 1140 927 1181
f 1140 1181 1143
f 1213 1286 1425
f 1213 1425 1512
f 1292 1223 1213
f 1292 1213 1478
f 1206 1346 1215
f 1206 1215 1085
f 1286 1206 1085
f 1286 1085 1425
f 1059 1233 1090
f 1059 1090 995
f 1223 1347 1286
f 1223 1286 1213
f 971 884 1410
f 971 1410 1346
f 1169 1223 1292
f 1169 1292 1090
f 1295 1148 884
f 1295 884 1061
f 902 1382 1233
f 902 1233 1059
f 939 1140 1143
f 939 1143 1333
f 1293 971 1346
f 1293 1346 1206
f 1347 1293 1206
f 1347 1206 1286
f 1233 1047 1169
f 1233 1169 1090
f 1300 1333 1295
f 1300 1295 1061
f 1480 1347 1223
f 1480 1223 1169
f 1061 884 971
f 1061 971 1279
f 1382 1445 1047
f 1382 1047 1233
f 1094 939 1333
f 1094 1333 1300
f 1279 971 1293
f 1279 1293 972
f 972 1293 1347
f 972 1347 1480
f 1047 1260 1480
f 1047 1480 1169
f 1445 1344 1260
f 1445 1260 1047
f 1083 1094 1300
f 1083 1300 1025
f 1260 1194 972
f 1260 972 1480
f 1194 1025 1279
f 1194 1279 972
f 1344 1105 1194
f 1344 1194 1260
f 1105 1083 1025
f 1105 1025 1194
f 1350 1349 1459
f 1350 1459 1471
f 1324 1411 1100
f 1324 1100 1393
f 878 1137 951
f 878 951 1208
f 1471 1455 942
f 1471 942 1350
f 1002 1467 1348
f 1002 1348 958
f 1466 900 1150
f 1466 1150 911
f 1475 1481 954
f 1475 954 1359
f 1411 951 1481
f 1411 1481 1475
f 1471 1459 912
f 1471 912 914
f 1324 1208 951
f 1324 951 1411
f 1328 1455 1471
f 1328 1471 914
f 962 1039 888
f 962 888 1188
f 1156 1259 1180
f 1156 1180 1326
f 906 1156 1326
f 906 1326 961
f 961 1327 1212
f 961 1212 906
f 1327 1230 1325
f 1327 1325 1212
f 1502 1325 1230
f 1502 1230 1374
f 1374 1454 933
f 1374 933 1502
f 1249 933 1454
f 1249 1454 1529
f 1123 1249 1529
f 1123 1529 1171
f 1171 1056 1403
f 1171 1403 1123
f 1129 1403 1056
f 1129 1056 1198
f 1198 1089 1265
f 1198 1265 1129
f 1089 1168 993
f 1089 993 1265
f 1479 993 1168
f 1479 1168 1439
f 1439 1362 1517
f 1439 1517 1479
f 1245 1408 1517
f 1245 1517 1362
f 1259 1408 1245
f 1259 1245 1180
f 1254 1402 1408
f 1254 1408 1259
f 1516 994 1368
f 1516 1368 1322
f 1091 1516 1322
f 1091 1322 1023
f 1023 885 1513
f 1023 1513 1091
f 1088 1370 1202
f 1088 1202 1505
f 934 1203 1372
f 934 1372 929
f 1079 935 931
f 1079 931 944
f 1020 1080 946
f 1020 946 1355
f 992 1278 1028
f 992 1028 893
f 893 977 910
f 893 910 992
f 977 1086 1227
f 977 1227 910
f 950 1227 1086
f 950 1086 1482
f 1412 994 1485
f 1412 1485 1316
f 1216 1447 1115
f 1216 1115 1504
f 1355 1216 1504
f 1355 1504 1028
f 1020 1355 1028
f 1020 1028 1278
f 1179 1020 1278
f 1179 1278 1214
f 1128 1179 1214
f 1128 1214 880
f 1010 1305 1170
f 1010 1170 957
f 1088 1505 1513
f 1088 1513 885
f 1486 1088 885
f 1486 885 1205
f 1493 1486 1205
f 1493 1205 1297
f 993 909 1155
f 993 1155 1265
f 1435 1155 909
f 1435 909 1511
f 909 993 1479
f 909 1479 1157