o convex_0
v 0.009747 -0.036007 0.013884
v -0.011851 -0.065132 0.010116
v -0.011506 -0.068560 0.010116
v 0.003576 -0.050747 0.000174
v 0.005977 -0.088790 0.013884
v -0.003621 -0.022286 0.017998
v -0.002593 -0.013029 0.005659
v -0.000192 -0.073370 0.020399
v -0.006023 -0.075764 0.002573
v 0.009747 -0.074737 0.006002
v 0.008034 -0.022294 0.007373
v -0.007393 -0.085361 0.014569
v 0.000834 -0.086736 0.002573
v -0.010478 -0.045265 0.015255
v -0.006365 -0.035320 0.002916
v 0.003233 -0.022634 0.018341
v 0.010433 -0.065139 0.015599
v -0.008422 -0.022641 0.010116
v 0.010775 -0.046979 0.006002
v 0.004261 -0.013029 0.013198
v 0.003233 -0.022634 0.002575
v -0.006023 -0.088450 0.007030
v 0.000149 -0.050747 0.021086
v -0.007051 -0.064452 0.018685
v -0.010821 -0.048693 0.006002
v 0.007006 -0.053480 0.019026
v -0.002936 -0.050414 0.000174
v -0.003278 -0.013029 0.014225
v 0.003233 -0.086396 0.017655
v 0.011806 -0.065479 0.010457
v 0.002891 -0.074737 0.000859
v 0.006320 -0.088797 0.007373
v -0.002593 -0.090171 0.014225
v 0.003919 -0.013029 0.006687
v -0.010478 -0.064452 0.015597
v -0.000534 -0.024008 0.001886
v 0.011806 -0.045952 0.010457
v 0.007348 -0.065132 0.002230
v -0.009793 -0.074737 0.006002
v 0.006663 -0.075084 0.018341
v -0.002936 -0.086396 0.017655
v 0.007691 -0.022294 0.014227
v -0.011851 -0.047666 0.010457
v -0.006023 -0.044925 0.019026
v 0.008719 -0.083995 0.010798
v -0.007736 -0.022641 0.013884
v -0.007736 -0.022294 0.007030
v -0.006708 -0.055882 0.001889
v 0.007006 -0.041489 0.002573
v 0.010433 -0.044925 0.015255
v -0.002593 -0.064112 0.000174
v 0.001520 -0.090171 0.006000
v -0.008079 -0.086396 0.009429
v 0.006320 -0.078505 0.003260
v 0.005977 -0.033266 0.018341
v -0.004992 -0.013029 0.009086
v -0.006365 -0.075077 0.018341
v 0.009747 -0.074737 0.014912
v -0.003621 -0.022286 0.002916
v 0.003576 -0.062391 0.020399
v -0.000192 -0.033258 0.020056
v 0.003233 -0.045944 0.020399
v 0.000834 -0.013029 0.015255
v -0.001222 -0.086396 0.002573
f 52 22 64 
f 8 23 24 
f 20 7 28 
f 10 19 30 
f 5 29 33 
f 7 20 34 
f 20 11 34 
f 21 7 34 
f 11 21 34 
f 2 3 35 
f 3 12 35 
f 24 14 35 
f 7 21 36 
f 21 4 36 
f 4 27 36 
f 19 11 37 
f 17 30 37 
f 30 19 37 
f 19 10 38 
f 31 4 38 
f 3 2 39 
f 9 22 39 
f 2 25 39 
f 17 26 40 
f 29 5 40 
f 8 29 40 
f 29 8 41 
f 12 33 41 
f 33 29 41 
f 11 20 42 
f 20 16 42 
f 1 37 42 
f 37 11 42 
f 25 2 43 
f 2 35 43 
f 35 14 43 
f 6 14 44 
f 14 24 44 
f 24 23 44 
f 10 30 45 
f 32 10 45 
f 5 32 45 
f 14 6 46 
f 6 28 46 
f 43 14 46 
f 18 43 46 
f 15 25 47 
f 43 18 47 
f 25 43 47 
f 25 15 48 
f 15 27 48 
f 9 39 48 
f 39 25 48 
f 11 19 49 
f 21 11 49 
f 4 21 49 
f 38 4 49 
f 19 38 49 
f 26 17 50 
f 37 1 50 
f 17 37 50 
f 1 42 50 
f 27 4 51 
f 4 31 51 
f 9 48 51 
f 48 27 51 
f 13 32 52 
f 32 5 52 
f 33 22 52 
f 5 33 52 
f 12 3 53 
f 33 12 53 
f 22 33 53 
f 3 39 53 
f 39 22 53 
f 13 31 54 
f 10 32 54 
f 32 13 54 
f 38 10 54 
f 31 38 54 
f 42 16 55 
f 26 50 55 
f 50 42 55 
f 28 7 56 
f 46 28 56 
f 18 46 56 
f 7 47 56 
f 47 18 56 
f 8 24 57 
f 35 12 57 
f 24 35 57 
f 12 41 57 
f 41 8 57 
f 30 17 58 
f 40 5 58 
f 17 40 58 
f 5 45 58 
f 45 30 58 
f 27 15 59 
f 7 36 59 
f 36 27 59 
f 47 7 59 
f 15 47 59 
f 23 8 60 
f 8 40 60 
f 40 26 60 
f 16 6 61 
f 6 44 61 
f 44 23 61 
f 55 16 62 
f 26 55 62 
f 23 60 62 
f 60 26 62 
f 16 61 62 
f 61 23 62 
f 6 16 63 
f 16 20 63 
f 28 6 63 
f 20 28 63 
f 22 9 64 
f 31 13 64 
f 9 51 64 
f 51 31 64 
f 13 52 64 
o convex_1
v -0.002936 -0.013025 0.006000
v 0.000491 0.026396 0.015257
v 0.002205 0.026396 0.014913
v -0.001222 0.026396 0.005314
v 0.004949 -0.013025 0.009087
v -0.003965 -0.013025 0.013541
v -0.004993 0.026396 0.011484
v 0.004605 0.026396 0.007714
v 0.002205 -0.013025 0.014913
v 0.002548 -0.013025 0.005658
v 0.004949 0.026396 0.011827
v -0.004651 -0.013025 0.008058
v -0.004307 0.026396 0.007373
v -0.003279 0.026396 0.014228
v -0.002250 -0.013025 0.014914
v 0.004605 -0.013025 0.012513
v 0.001520 0.026396 0.005315
v -0.001566 -0.013025 0.005314
v -0.004993 -0.013025 0.011141
v 0.004263 0.026396 0.013199
v -0.004993 0.026396 0.009088
v 0.004263 -0.013025 0.007373
v -0.002936 0.026396 0.006000
v 0.000491 -0.013025 0.015257
v -0.000537 0.026396 0.015257
v 0.003234 -0.013025 0.014227
v 0.002891 0.026396 0.006000
v 0.001519 -0.013025 0.005314
v -0.004651 0.026396 0.012514
v 0.004949 0.026396 0.008744
v 0.004949 -0.013025 0.011485
v -0.004651 -0.013025 0.012514
v -0.004993 -0.013025 0.009088
v -0.004307 -0.013025 0.007373
v -0.001907 0.026396 0.014914
v 0.003234 0.026396 0.014227
v -0.000537 -0.013025 0.015257
v -0.003279 -0.013025 0.014228
v 0.003919 -0.013025 0.013542
v -0.003965 0.026396 0.013541
f 78 93 104 
f 66 67 68 
f 65 69 70 
f 66 68 71 
f 68 67 72 
f 67 66 73 
f 70 69 73 
f 69 65 74 
f 72 67 75 
f 65 70 76 
f 71 68 77 
f 66 71 78 
f 70 73 79 
f 73 69 80 
f 68 72 81 
f 74 65 82 
f 76 70 83 
f 75 67 84 
f 80 75 84 
f 71 77 85 
f 77 76 85 
f 83 71 85 
f 72 69 86 
f 69 74 86 
f 74 72 86 
f 65 77 87 
f 77 68 87 
f 82 65 87 
f 68 82 87 
f 73 66 88 
f 79 73 88 
f 66 78 89 
f 88 66 89 
f 67 73 90 
f 73 80 90 
f 72 74 91 
f 81 72 91 
f 74 81 91 
f 68 81 92 
f 81 74 92 
f 74 82 92 
f 82 68 92 
f 78 71 93 
f 69 72 94 
f 72 75 94 
f 75 69 94 
f 69 75 95 
f 80 69 95 
f 75 80 95 
f 83 70 96 
f 71 83 96 
f 70 93 96 
f 93 71 96 
f 76 83 97 
f 85 76 97 
f 83 85 97 
f 65 76 98 
f 76 77 98 
f 77 65 98 
f 78 79 99 
f 79 89 99 
f 89 78 99 
f 84 67 100 
f 67 90 100 
f 90 84 100 
f 79 88 101 
f 89 79 101 
f 88 89 101 
f 78 70 102 
f 70 79 102 
f 79 78 102 
f 80 84 103 
f 90 80 103 
f 84 90 103 
f 70 78 104 
f 93 70 104 
o convex_2
v 0.004263 0.076456 0.027257
v -0.000194 0.068571 0.021430
v -0.001222 0.068915 0.021087
v 0.004263 0.078171 0.016629
v -0.004308 0.077828 0.026914
v -0.004308 0.077828 0.016629
v 0.004263 0.069944 0.016629
v -0.004308 0.070287 0.026914
v 0.004263 0.069944 0.026569
v -0.004308 0.070287 0.016629
v 0.003920 0.078171 0.026914
v -0.002937 0.078171 0.027257
v 0.002548 0.069944 0.027257
v -0.003965 0.078171 0.016629
v -0.002593 0.069944 0.027257
v -0.003965 0.069944 0.016629
v 0.000149 0.068571 0.022112
v -0.003965 0.069944 0.026914
f 106 121 122 
f 110 108 111 
f 108 105 111 
f 109 110 112 
f 111 105 113 
f 110 111 114 
f 112 110 114 
f 105 108 115 
f 109 112 116 
f 105 115 116 
f 115 108 116 
f 113 105 117 
f 105 116 117 
f 110 109 118 
f 108 110 118 
f 109 116 118 
f 116 108 118 
f 116 112 119 
f 117 116 119 
f 106 107 120 
f 111 106 120 
f 114 111 120 
f 112 114 120 
f 106 111 121 
f 111 113 121 
f 113 117 121 
f 117 119 121 
f 121 119 122 
f 107 106 122 
f 119 112 122 
f 120 107 122 
f 112 120 122 
o convex_3
v -0.005337 0.027430 0.010456
v 0.008035 0.041829 0.011484
v 0.008035 0.041829 0.009088
v -0.008080 0.041829 0.009088
v 0.001520 0.026400 0.005314
v 0.000490 0.026400 0.015257
v -0.004993 0.041829 0.015257
v -0.006365 0.041829 0.006000
v 0.004948 0.026400 0.011827
v 0.004948 0.041829 0.015257
v 0.006320 0.041829 0.006000
v -0.003964 0.026744 0.006687
v 0.004605 0.026400 0.007714
v -0.003964 0.026400 0.013541
v -0.007736 0.041141 0.012514
v -0.003622 0.038397 0.005314
v 0.003233 0.026400 0.014228
v 0.006662 0.041484 0.014228
v -0.001221 0.026400 0.005314
v 0.003577 0.038397 0.005314
v -0.002250 0.026400 0.014914
v -0.006707 0.041484 0.014228
v -0.004993 0.026400 0.008744
v 0.005292 0.027087 0.009773
v 0.003577 0.026400 0.006343
v -0.007736 0.041141 0.008058
v 0.007005 0.041484 0.006687
v -0.004651 0.026400 0.012514
v -0.008080 0.040797 0.010456
v 0.002205 0.026400 0.014914
v 0.007691 0.041141 0.012514
v 0.004263 0.026400 0.013199
v 0.008035 0.040797 0.010799
v 0.007691 0.041141 0.008058
v -0.002936 0.026400 0.006000
f 141 145 157 
f 124 125 126 
f 124 126 129 
f 126 125 130 
f 128 127 131 
f 124 129 132 
f 129 128 132 
f 130 125 133 
f 131 127 135 
f 127 128 136 
f 130 133 138 
f 128 131 139 
f 124 132 140 
f 127 136 141 
f 138 127 141 
f 130 138 141 
f 133 127 142 
f 127 138 142 
f 138 133 142 
f 128 129 143 
f 136 128 143 
f 136 143 144 
f 129 126 144 
f 126 137 144 
f 143 129 144 
f 141 136 145 
f 131 135 146 
f 127 133 147 
f 135 127 147 
f 126 130 148 
f 130 134 148 
f 145 126 148 
f 134 145 148 
f 133 125 149 
f 147 133 149 
f 135 147 149 
f 137 123 150 
f 136 144 150 
f 144 137 150 
f 123 145 150 
f 145 136 150 
f 123 137 151 
f 137 126 151 
f 145 123 151 
f 126 145 151 
f 132 128 152 
f 128 139 152 
f 140 132 152 
f 139 140 152 
f 124 140 153 
f 153 140 154 
f 139 131 154 
f 140 139 154 
f 131 153 154 
f 125 124 155 
f 146 125 155 
f 131 146 155 
f 124 153 155 
f 153 131 155 
f 125 146 156 
f 146 135 156 
f 149 125 156 
f 135 149 156 
f 134 130 157 
f 130 141 157 
f 145 134 157 
o convex_4
v 0.011120 0.086050 0.010458
v -0.015965 0.058291 0.010115
v -0.015622 0.058291 0.007372
v 0.008376 0.041829 0.010802
v -0.007048 0.081251 0.016284
v -0.006021 0.088113 0.005314
v 0.014547 0.057605 0.005314
v 0.014547 0.057605 0.015256
v -0.005335 0.041829 0.015255
v -0.006365 0.041829 0.006001
v -0.014935 0.077821 0.014914
v 0.003576 0.088799 0.015255
v 0.014890 0.077480 0.005314
v -0.014935 0.077139 0.005314
v 0.014890 0.077139 0.015256
v -0.009105 0.087081 0.014227
v -0.014592 0.057951 0.015256
v 0.004606 0.070283 0.016629
v 0.006320 0.045945 0.005314
v 0.005290 0.041829 0.015255
v 0.005976 0.088113 0.005314
v 0.015920 0.057946 0.010115
v -0.008422 0.041829 0.010802
v -0.014592 0.057605 0.005314
v -0.013222 0.083310 0.007715
v -0.001908 0.090171 0.010116
v 0.006320 0.041829 0.006001
v -0.004308 0.069937 0.016629
v 0.015920 0.077480 0.010800
v -0.015965 0.077480 0.010115
v 0.008376 0.079538 0.016284
v 0.011803 0.083651 0.015256
v 0.013177 0.082969 0.006343
v 0.006320 0.089140 0.010802
v -0.005678 0.088113 0.015255
v 0.014204 0.052802 0.009772
v -0.014249 0.052807 0.010115
v -0.013222 0.081592 0.015256
v -0.009792 0.075767 0.016285
v 0.001863 0.079534 0.016629
v -0.015622 0.071309 0.014227
v 0.000833 0.089826 0.006343
v -0.007048 0.088799 0.010116
v 0.015577 0.068565 0.014227
v 0.015577 0.066511 0.006343
v -0.011849 0.050403 0.014227
v 0.013177 0.052802 0.014227
v -0.010478 0.049722 0.005314
v 0.008033 0.041829 0.008058
v -0.008765 0.043201 0.008058
v 0.013860 0.082283 0.012513
v -0.010822 0.085709 0.006343
v 0.009060 0.087081 0.014227
v 0.009747 0.071996 0.016284
v -0.013562 0.082969 0.011828
v -0.000534 0.089826 0.014227
v 0.000489 0.083991 0.016284
v -0.015622 0.075426 0.006343
v -0.015279 0.057951 0.014227
v 0.009060 0.087081 0.006343
v -0.013222 0.052807 0.006343
v 0.013860 0.054175 0.006343
v -0.014935 0.076108 0.015256
v -0.011508 0.085709 0.010801
f 212 173 221 
f 161 166 167 
f 164 163 170 
f 163 164 171 
f 171 164 176 
f 166 161 177 
f 165 175 177 
f 170 163 178 
f 167 166 180 
f 171 176 181 
f 161 167 184 
f 176 164 184 
f 167 176 184 
f 174 166 185 
f 166 177 185 
f 177 175 185 
f 182 171 187 
f 169 188 189 
f 188 172 189 
f 170 178 190 
f 186 170 190 
f 159 160 194 
f 162 192 195 
f 192 173 195 
f 185 162 196 
f 174 185 196 
f 162 195 196 
f 162 185 197 
f 185 175 197 
f 175 188 197 
f 187 159 198 
f 168 187 198 
f 178 163 199 
f 163 183 199 
f 191 178 199 
f 183 191 199 
f 183 163 200 
f 173 192 200 
f 172 165 201 
f 165 179 201 
f 186 172 201 
f 179 186 201 
f 164 170 202 
f 179 164 202 
f 170 186 202 
f 186 179 202 
f 166 174 203 
f 180 166 203 
f 194 180 203 
f 177 161 204 
f 165 177 204 
f 179 165 204 
f 161 193 204 
f 193 179 204 
f 176 167 205 
f 181 176 205 
f 161 184 206 
f 193 161 206 
f 167 180 207 
f 180 194 207 
f 172 186 208 
f 189 172 208 
f 190 158 208 
f 186 190 208 
f 163 171 209 
f 171 182 209 
f 200 163 209 
f 169 189 210 
f 158 191 210 
f 191 169 210 
f 208 158 210 
f 189 208 210 
f 165 172 211 
f 175 165 211 
f 172 188 211 
f 188 175 211 
f 187 168 212 
f 182 187 212 
f 168 195 212 
f 195 173 212 
f 169 191 213 
f 191 183 213 
f 192 169 213 
f 183 200 213 
f 200 192 213 
f 188 169 214 
f 192 162 214 
f 169 192 214 
f 162 197 214 
f 197 188 214 
f 160 159 215 
f 181 160 215 
f 171 181 215 
f 159 187 215 
f 187 171 215 
f 159 194 216 
f 198 159 216 
f 174 198 216 
f 203 174 216 
f 194 203 216 
f 158 190 217 
f 190 178 217 
f 191 158 217 
f 178 191 217 
f 160 181 218 
f 194 160 218 
f 205 167 218 
f 181 205 218 
f 167 207 218 
f 207 194 218 
f 164 179 219 
f 184 164 219 
f 179 193 219 
f 206 184 219 
f 193 206 219 
f 195 168 220 
f 174 196 220 
f 196 195 220 
f 198 174 220 
f 168 198 220 
f 173 200 221 
f 209 182 221 
f 200 209 221 
f 182 212 221 
o convex_5
v 0.007349 0.048345 0.005314
v -0.002251 0.056227 0.004971
v -0.002251 0.056227 0.005314
v 0.001178 0.059314 0.004971
v 0.004949 0.046972 0.003943
v 0.003920 0.046287 0.005314
v 0.003234 0.053827 0.003943
v -0.000879 0.057257 0.004286
v 0.002207 0.058286 0.005314
v 0.006663 0.048686 0.004286
v 0.001521 0.052460 0.003943
v -0.001908 0.058628 0.005314
v 0.006663 0.046287 0.004971
f 226 231 234 
f 223 226 227 
f 222 224 227 
f 224 223 227 
f 225 228 229 
f 224 222 230 
f 228 225 230 
f 228 230 231 
f 226 228 231 
f 230 222 231 
f 226 223 232 
f 228 226 232 
f 229 228 232 
f 223 229 232 
f 223 224 233 
f 229 223 233 
f 225 229 233 
f 224 230 233 
f 230 225 233 
f 227 226 234 
f 222 227 234 
f 231 222 234 
o convex_6
v 0.009749 0.076111 0.005314
v -0.009794 0.072344 0.004285
v -0.006362 0.072004 0.002229
v 0.002548 0.064461 0.005314
v -0.003621 0.083313 0.005314
v 0.006317 0.076111 0.002229
v 0.004261 0.068916 0.002229
v -0.003277 0.079883 0.002229
v 0.003920 0.083313 0.004285
v -0.005679 0.065831 0.005314
v 0.009405 0.070631 0.004285
v -0.009107 0.078170 0.005314
v -0.000880 0.067546 0.002229
v -0.008421 0.079542 0.004285
v -0.005679 0.065831 0.004285
v 0.007348 0.080913 0.005314
v 0.002548 0.064461 0.004285
v 0.002548 0.080228 0.002229
v -0.002594 0.083654 0.004285
v 0.008375 0.079542 0.004285
v 0.007348 0.067201 0.005314
v -0.006362 0.076111 0.002229
v -0.009107 0.069944 0.005314
v 0.007006 0.066861 0.004285
v -0.002594 0.064461 0.004285
v 0.009749 0.076111 0.004285
v 0.000490 0.084000 0.005314
v -0.008421 0.068572 0.004285
v -0.004306 0.068916 0.002229
v 0.006317 0.072004 0.002229
v -0.007051 0.081253 0.004285
v -0.009794 0.075770 0.004285
v 0.000490 0.084000 0.004285
v 0.009749 0.072004 0.005314
v 0.004261 0.079198 0.002229
v -0.000880 0.080568 0.002229
v -0.000193 0.064114 0.005314
f 259 251 271 
f 238 235 239 
f 237 240 241 
f 240 237 242 
f 238 239 244 
f 244 239 246 
f 237 241 247 
f 239 235 250 
f 247 241 251 
f 240 242 252 
f 250 235 254 
f 243 250 254 
f 235 238 255 
f 237 236 256 
f 242 237 256 
f 246 236 257 
f 244 246 257 
f 238 251 258 
f 251 241 258 
f 255 238 258 
f 245 255 258 
f 244 249 259 
f 247 251 259 
f 254 235 260 
f 240 254 260 
f 239 250 261 
f 250 243 261 
f 253 239 261 
f 236 237 262 
f 249 244 262 
f 257 236 262 
f 244 257 262 
f 237 247 263 
f 259 249 263 
f 247 259 263 
f 262 237 263 
f 249 262 263 
f 241 240 264 
f 258 241 264 
f 245 258 264 
f 260 245 264 
f 240 260 264 
f 246 239 265 
f 248 246 265 
f 239 253 265 
f 253 242 265 
f 242 256 265 
f 256 248 265 
f 236 246 266 
f 246 248 266 
f 256 236 266 
f 248 256 266 
f 243 252 267 
f 261 243 267 
f 253 261 267 
f 235 255 268 
f 255 245 268 
f 260 235 268 
f 245 260 268 
f 240 252 269 
f 252 243 269 
f 254 240 269 
f 243 254 269 
f 252 242 270 
f 242 253 270 
f 267 252 270 
f 253 267 270 
f 238 244 271 
f 251 238 271 
f 244 259 271 
