o convex_0
v -0.024042 0.062245 0.003535
v 0.000181 0.090168 0.008578
v 0.000852 0.089831 0.010933
v 0.004554 0.061234 0.002860
v 0.003880 0.061234 0.012953
v -0.023368 0.065947 0.012615
v -0.006212 0.087812 0.004207
v -0.019666 0.074356 0.002861
v -0.005875 0.088149 0.011943
v 0.003880 0.084107 0.004543
v -0.022022 0.061234 0.012279
v 0.005565 0.076706 0.008915
v -0.014958 0.081082 0.009588
v -0.015295 0.061234 0.002188
v 0.003546 0.085118 0.011943
v -0.021348 0.070994 0.012615
v 0.003546 0.061574 0.002524
v 0.001526 0.088820 0.004543
v -0.023368 0.065947 0.002525
v -0.005875 0.067632 0.012953
v 0.004891 0.063927 0.012279
v -0.022022 0.066284 0.012953
v -0.000493 0.084784 0.012279
v -0.012939 0.074356 0.002861
v -0.024379 0.061234 0.010261
v 0.005565 0.067629 0.005889
v -0.019666 0.074693 0.011943
v -0.024042 0.065610 0.006225
v -0.010919 0.084784 0.006562
v -0.004192 0.089494 0.004880
v -0.018994 0.065947 0.002188
v -0.021348 0.061234 0.002525
v 0.003880 0.085790 0.008915
v -0.017312 0.061234 0.012953
v 0.001526 0.086127 0.004206
v -0.002513 0.089831 0.011606
v 0.005228 0.062245 0.008242
v 0.005565 0.074695 0.006226
v -0.016641 0.079063 0.006562
v -0.006549 0.088149 0.010261
v 0.001189 0.089157 0.011943
v -0.006212 0.061571 0.002188
v -0.001502 0.090168 0.004880
v 0.005565 0.066284 0.009250
v -0.006883 0.087812 0.004543
v -0.020340 0.073682 0.007234
v 0.001863 0.089157 0.005552
v -0.022696 0.063930 0.002188
v -0.024379 0.061234 0.004880
v -0.011256 0.084447 0.010261
v 0.002537 0.088483 0.009588
v 0.004554 0.083436 0.007571
v -0.024379 0.064601 0.008242
v -0.018657 0.075701 0.012279
v -0.023368 0.063256 0.012615
v -0.021348 0.071331 0.003197
v -0.018994 0.075701 0.003871
v 0.005565 0.074695 0.009588
v -0.018994 0.067629 0.012953
v 0.004891 0.061234 0.010261
v -0.018320 0.073682 0.012615
v -0.021685 0.070657 0.011606
v 0.000852 0.065275 0.012953
v -0.001839 0.087812 0.004207
f 7 43 64 
f 4 5 11 
f 4 11 14 
f 10 4 17 
f 15 5 21 
f 16 6 22 
f 5 20 22 
f 5 15 23 
f 8 7 24 
f 14 11 25 
f 19 1 28 
f 8 24 31 
f 14 25 32 
f 11 5 34 
f 5 22 34 
f 10 17 35 
f 18 10 35 
f 3 2 36 
f 4 26 37 
f 4 10 38 
f 26 4 38 
f 12 26 38 
f 27 13 39 
f 13 29 39 
f 9 36 40 
f 36 30 40 
f 9 23 41 
f 23 15 41 
f 3 36 41 
f 36 9 41 
f 4 14 42 
f 17 4 42 
f 24 17 42 
f 14 31 42 
f 31 24 42 
f 7 30 43 
f 36 2 43 
f 30 36 43 
f 26 12 44 
f 37 26 44 
f 7 8 45 
f 30 7 45 
f 29 40 45 
f 40 30 45 
f 2 3 47 
f 10 18 47 
f 33 10 47 
f 43 2 47 
f 18 43 47 
f 1 19 48 
f 19 8 48 
f 31 14 48 
f 8 31 48 
f 32 1 48 
f 14 32 48 
f 28 1 49 
f 1 32 49 
f 32 25 49 
f 29 13 50 
f 9 40 50 
f 40 29 50 
f 15 33 51 
f 41 15 51 
f 3 41 51 
f 47 3 51 
f 33 47 51 
f 15 12 52 
f 10 33 52 
f 33 15 52 
f 38 10 52 
f 12 38 52 
f 25 6 53 
f 28 49 53 
f 49 25 53 
f 13 27 54 
f 27 16 54 
f 50 13 54 
f 9 50 54 
f 22 6 55 
f 6 25 55 
f 25 11 55 
f 11 34 55 
f 34 22 55 
f 8 19 56 
f 19 28 56 
f 28 46 56 
f 46 8 56 
f 27 39 57 
f 39 29 57 
f 45 8 57 
f 29 45 57 
f 46 27 57 
f 8 46 57 
f 12 15 58 
f 15 21 58 
f 44 12 58 
f 21 44 58 
f 22 20 59 
f 20 23 59 
f 5 4 60 
f 21 5 60 
f 4 37 60 
f 44 21 60 
f 37 44 60 
f 16 22 61 
f 23 9 61 
f 9 54 61 
f 54 16 61 
f 22 59 61 
f 59 23 61 
f 6 16 62 
f 16 27 62 
f 27 46 62 
f 46 28 62 
f 53 6 62 
f 28 53 62 
f 20 5 63 
f 23 20 63 
f 5 23 63 
f 24 7 64 
f 17 24 64 
f 35 17 64 
f 18 35 64 
f 43 18 64 
o convex_1
v 0.008593 -0.023560 0.007906
v -0.015631 -0.057869 0.006225
v -0.015631 -0.057869 0.009251
v -0.011593 0.005720 0.008242
v -0.000491 -0.000685 -0.000168
v 0.002871 0.005720 0.013289
v 0.007920 -0.057869 0.009252
v 0.003882 -0.057869 0.001852
v -0.011593 -0.056518 0.013626
v 0.007583 0.005720 0.004207
v -0.012266 -0.057191 0.001852
v 0.003545 -0.057869 0.013626
v -0.009909 0.005720 0.002860
v -0.003519 -0.001358 0.014298
v 0.007583 0.005377 0.010261
v -0.008565 0.005720 0.012279
v -0.005200 -0.032971 -0.000168
v 0.007920 -0.047773 0.004879
v -0.005874 0.004699 0.000506
v 0.000517 -0.030612 0.014636
v 0.003545 -0.025577 0.000842
v -0.014284 -0.043733 0.010933
v -0.014621 -0.037677 0.005217
v 0.006236 -0.038013 0.012279
v 0.003545 0.005720 0.001178
v -0.000491 -0.032293 -0.000168
v -0.005874 -0.034652 0.014636
v -0.015294 -0.043061 0.008242
v 0.005563 -0.039364 0.002188
v -0.012603 -0.046093 0.002188
v 0.007583 -0.044070 0.010935
v -0.011593 0.005035 0.005889
v -0.012940 -0.057869 0.012952
v 0.008256 0.005720 0.005889
v -0.008902 -0.024232 0.000843
v 0.006910 -0.057527 0.004207
v 0.002871 -0.024568 0.013962
v -0.010583 0.004699 0.010597
v -0.006210 0.005720 0.013289
v 0.008593 -0.041381 0.006225
v -0.000154 -0.000343 0.014298
v 0.004555 0.005720 0.012616
v -0.014621 -0.046093 0.004207
v -0.003853 -0.000685 -0.000168
v 0.005563 -0.057869 0.012616
v -0.007555 0.005720 0.001178
v 0.004892 0.005720 0.001852
v 0.008593 -0.044406 0.008578
v -0.014284 -0.057869 0.003534
v -0.002175 -0.034652 -0.000168
v -0.006210 -0.009767 0.013962
v -0.007218 -0.028932 0.000169
v 0.008256 0.005720 0.008578
v 0.008256 -0.055510 0.006899
v -0.014621 -0.037677 0.009587
v -0.002511 -0.037005 0.014636
v -0.012940 -0.049118 0.012616
v -0.011256 -0.049790 0.013626
v -0.010920 0.005720 0.004207
v 0.001527 -0.030276 0.000169
v 0.002198 0.003361 0.000506
v -0.014958 -0.037677 0.006561
v 0.007920 -0.036333 0.004543
v -0.011930 -0.057869 0.001852
f 81 114 128 
f 67 66 71 
f 71 66 72 
f 68 70 74 
f 67 71 76 
f 68 74 77 
f 70 68 80 
f 77 74 89 
f 81 69 90 
f 84 78 91 
f 66 67 92 
f 72 85 93 
f 79 88 95 
f 67 76 97 
f 76 73 97 
f 86 67 97 
f 74 70 98 
f 75 94 99 
f 71 72 100 
f 72 93 100 
f 93 82 100 
f 84 76 101 
f 76 88 101 
f 80 68 102 
f 70 80 103 
f 98 65 104 
f 78 84 105 
f 101 70 105 
f 84 101 105 
f 70 103 105 
f 103 78 105 
f 88 79 106 
f 98 70 106 
f 70 101 106 
f 101 88 106 
f 66 87 107 
f 77 94 107 
f 69 81 108 
f 83 69 108 
f 76 71 109 
f 88 76 109 
f 71 95 109 
f 95 88 109 
f 77 89 110 
f 89 83 110 
f 94 77 110 
f 83 99 110 
f 99 94 110 
f 89 74 111 
f 85 89 111 
f 74 93 111 
f 93 85 111 
f 95 71 112 
f 79 95 112 
f 104 65 112 
f 72 66 113 
f 94 75 113 
f 66 107 113 
f 107 94 113 
f 81 90 114 
f 90 72 114 
f 91 78 115 
f 78 103 115 
f 81 75 116 
f 75 99 116 
f 99 83 116 
f 108 81 116 
f 83 108 116 
f 65 98 117 
f 106 79 117 
f 98 106 117 
f 112 65 117 
f 79 112 117 
f 71 100 118 
f 100 82 118 
f 82 104 118 
f 112 71 118 
f 104 112 118 
f 67 86 119 
f 92 67 119 
f 68 92 119 
f 102 68 119 
f 86 102 119 
f 73 76 120 
f 76 84 120 
f 91 73 120 
f 84 91 120 
f 86 97 121 
f 80 102 121 
f 102 86 121 
f 73 91 122 
f 97 73 122 
f 103 80 122 
f 91 115 122 
f 115 103 122 
f 80 121 122 
f 121 97 122 
f 68 77 123 
f 96 68 123 
f 87 96 123 
f 107 87 123 
f 77 107 123 
f 85 72 124 
f 90 69 124 
f 72 90 124 
f 69 83 125 
f 83 89 125 
f 89 85 125 
f 124 69 125 
f 85 124 125 
f 87 66 126 
f 66 92 126 
f 92 68 126 
f 68 96 126 
f 96 87 126 
f 82 93 127 
f 93 74 127 
f 74 98 127 
f 104 82 127 
f 98 104 127 
f 75 81 128 
f 72 113 128 
f 113 75 128 
f 114 72 128 
o convex_2
v 0.006573 0.005720 0.003197
v -0.011930 0.025907 0.006222
v -0.011930 0.025907 0.007569
v 0.008928 0.032636 0.004879
v 0.007581 0.005720 0.009925
v -0.006882 0.005720 0.000842
v -0.010920 0.005720 0.009925
v 0.008592 0.032636 0.009925
v -0.002508 0.025569 0.000505
v -0.009237 0.032636 0.009588
v -0.009909 0.028931 0.002523
v 0.002199 0.013126 0.000505
v -0.010920 0.005720 0.004206
v -0.008901 0.032636 0.004206
v 0.009266 0.016827 0.006560
v -0.011256 0.028597 0.009925
v 0.005565 0.021868 0.001852
v 0.002874 0.005720 0.000842
v -0.004863 0.014807 0.000168
v 0.008256 0.018846 0.003534
v 0.008256 0.032636 0.004206
v 0.008256 0.006060 0.005551
v -0.006882 0.027587 0.001179
v -0.011592 0.028259 0.004542
v -0.011592 0.005720 0.006560
v 0.009266 0.018846 0.008915
v 0.001863 0.024220 0.000842
v -0.010245 0.024895 0.002523
v 0.000519 0.016827 0.000168
v -0.009573 0.005720 0.002523
v -0.011930 0.027922 0.008579
v 0.008256 0.005720 0.008579
v -0.006546 0.009759 0.000505
v 0.009266 0.018846 0.005215
v -0.009573 0.032636 0.005551
v -0.007891 0.032636 0.009925
v 0.004890 0.005720 0.001852
v -0.011256 0.026913 0.003534
v 0.008928 0.032636 0.009588
v -0.007554 0.025907 0.001179
v -0.004191 0.012786 0.000168
v 0.008592 0.016488 0.009925
v -0.011592 0.005720 0.007569
v 0.007581 0.005720 0.004206
v -0.003855 0.018846 0.000168
v 0.003546 0.023211 0.001179
v -0.011930 0.026578 0.005551
v -0.003519 0.026913 0.000842
v -0.005874 0.007740 0.000505
v -0.000828 0.024895 0.000505
v -0.011256 0.005720 0.009252
v -0.011592 0.026239 0.009588
v 0.000519 0.014807 0.000168
f 169 157 181 
f 129 133 134 
f 134 133 135 
f 135 133 136 
f 136 132 138 
f 134 135 141 
f 138 132 142 
f 135 136 144 
f 140 145 146 
f 129 134 146 
f 142 132 149 
f 132 148 149 
f 148 145 149 
f 139 142 151 
f 142 149 151 
f 142 139 152 
f 131 130 153 
f 141 135 153 
f 134 141 158 
f 130 131 159 
f 144 138 159 
f 133 129 160 
f 150 143 160 
f 143 154 160 
f 134 158 161 
f 158 156 161 
f 148 132 162 
f 143 150 162 
f 132 154 162 
f 154 143 162 
f 138 142 163 
f 142 152 163 
f 159 138 163 
f 152 159 163 
f 136 138 164 
f 144 136 164 
f 138 144 164 
f 146 145 165 
f 129 146 165 
f 148 129 165 
f 145 148 165 
f 152 139 166 
f 139 156 166 
f 158 141 166 
f 156 158 166 
f 132 136 167 
f 154 132 167 
f 139 151 168 
f 156 139 168 
f 147 161 168 
f 161 156 168 
f 147 157 169 
f 161 147 169 
f 136 133 170 
f 133 160 170 
f 160 154 170 
f 167 136 170 
f 154 167 170 
f 131 153 171 
f 153 135 171 
f 159 131 171 
f 129 148 172 
f 160 129 172 
f 150 160 172 
f 148 162 172 
f 162 150 172 
f 151 137 173 
f 157 147 173 
f 168 151 173 
f 147 168 173 
f 145 140 174 
f 149 145 174 
f 155 149 174 
f 140 157 174 
f 157 155 174 
f 153 130 175 
f 141 153 175 
f 130 159 175 
f 159 152 175 
f 166 141 175 
f 152 166 175 
f 149 137 176 
f 137 151 176 
f 151 149 176 
f 146 134 177 
f 134 161 177 
f 169 146 177 
f 161 169 177 
f 137 149 178 
f 149 155 178 
f 155 157 178 
f 173 137 178 
f 157 173 178 
f 171 135 179 
f 159 171 179 
f 135 144 180 
f 144 159 180 
f 179 135 180 
f 159 179 180 
f 140 146 181 
f 157 140 181 
f 146 169 181 
o convex_3
v 0.001526 0.017830 0.013626
v -0.011257 0.025903 0.009926
v -0.011257 0.025903 0.010262
v -0.010583 0.005720 0.010262
v 0.008593 0.020522 0.009925
v 0.007247 0.005720 0.009925
v -0.006209 0.005720 0.013290
v -0.004526 0.026578 0.013290
v 0.003881 0.005720 0.012953
v -0.008564 0.029271 0.009926
v 0.005564 0.022878 0.012280
v -0.009575 0.026240 0.011944
v -0.004190 0.014132 0.013963
v -0.010583 0.005720 0.009926
v 0.007583 0.018839 0.011271
v 0.001526 0.024559 0.013290
v 0.001862 0.025232 0.009926
v -0.008564 0.005720 0.012280
v 0.000180 0.015144 0.013963
v -0.010583 0.027588 0.011271
v 0.007247 0.005720 0.010598
v -0.003852 0.027252 0.012953
v 0.002871 0.005720 0.013290
v -0.008564 0.027925 0.012280
v -0.001165 0.024559 0.013626
v 0.003881 0.023215 0.012953
v 0.007583 0.022203 0.009925
v -0.010247 0.029271 0.010598
v -0.007892 0.026915 0.012617
v -0.003852 0.016824 0.013963
v -0.005535 0.012112 0.013626
v 0.008593 0.018166 0.010262
v 0.006572 0.005720 0.011271
v 0.007919 0.021532 0.010935
v 0.004554 0.023549 0.012280
v -0.007218 0.005720 0.012953
f 212 193 217 
f 184 183 185 
f 185 187 188 
f 188 187 190 
f 185 183 195 
f 183 187 195 
f 187 185 195 
f 192 190 196 
f 185 188 199 
f 182 197 200 
f 184 185 201 
f 185 199 201 
f 199 193 201 
f 190 187 202 
f 198 191 203 
f 188 190 204 
f 194 188 204 
f 182 200 204 
f 200 194 204 
f 201 193 205 
f 189 203 205 
f 200 197 206 
f 203 189 206 
f 197 203 206 
f 190 192 207 
f 192 197 207 
f 197 182 207 
f 204 190 207 
f 182 204 207 
f 187 183 208 
f 186 187 208 
f 183 191 208 
f 191 198 208 
f 183 184 209 
f 191 183 209 
f 184 201 209 
f 203 191 209 
f 201 205 209 
f 205 203 209 
f 189 205 210 
f 205 193 210 
f 194 200 211 
f 206 189 211 
f 200 206 211 
f 189 210 211 
f 210 194 211 
f 188 194 212 
f 210 193 212 
f 194 210 212 
f 187 186 213 
f 202 187 213 
f 202 213 214 
f 196 190 214 
f 190 202 214 
f 213 196 214 
f 192 196 215 
f 186 208 215 
f 208 192 215 
f 213 186 215 
f 196 213 215 
f 197 192 216 
f 203 197 216 
f 198 203 216 
f 192 208 216 
f 208 198 216 
f 199 188 217 
f 193 199 217 
f 188 212 217 
o convex_4
v 0.003209 -0.085116 0.005553
v -0.000827 -0.080406 0.014299
v -0.001163 -0.080406 0.014299
v 0.002874 -0.057875 0.001852
v 0.007583 -0.057875 0.009925
v -0.002510 -0.057875 0.002525
v -0.002510 -0.087472 0.002525
v -0.002510 -0.057875 0.012615
v 0.001192 -0.087810 0.011943
v -0.002510 -0.088818 0.012951
v 0.006237 -0.060900 0.003534
v 0.003546 -0.057875 0.013625
v 0.003883 -0.080071 0.011943
v 0.002538 -0.078389 0.002525
v 0.006910 -0.068636 0.007572
v -0.000153 -0.090168 0.006898
v 0.003546 -0.085458 0.008915
v 0.003209 -0.072003 0.013624
v 0.007920 -0.057875 0.006226
v 0.004892 -0.078389 0.005552
v -0.002173 -0.086463 0.002189
v 0.003546 -0.065611 0.001852
v 0.001192 -0.088145 0.004543
v 0.005900 -0.059554 0.012279
v -0.002510 -0.084443 0.014299
v 0.001192 -0.084108 0.013288
v -0.002510 -0.090168 0.005553
v 0.004892 -0.080071 0.009587
v 0.001192 -0.089492 0.009587
v 0.006910 -0.065949 0.009925
v 0.005229 -0.057875 0.002524
v 0.003209 -0.080744 0.003534
v 0.006573 -0.066954 0.005216
v -0.002173 -0.090168 0.010933
v -0.001500 -0.057875 0.012951
v 0.001865 -0.088818 0.006898
v 0.004892 -0.080409 0.007235
v 0.004892 -0.069648 0.003198
v 0.000855 -0.081418 0.002189
v 0.007920 -0.058880 0.008915
v 0.002201 -0.075025 0.013960
v 0.004556 -0.073682 0.012279
v -0.000153 -0.089153 0.004207
v 0.000518 -0.086463 0.003198
v 0.002872 -0.085790 0.010933
v -0.002510 -0.082761 0.002189
v 0.002538 -0.057875 0.013624
v -0.000827 -0.088818 0.012615
v 0.002872 -0.082088 0.012615
v -0.002510 -0.082761 0.014299
v 0.007246 -0.065611 0.006562
v 0.006573 -0.064264 0.010933
v 0.005565 -0.057875 0.012616
v 0.004556 -0.077716 0.004543
v 0.002201 -0.088480 0.009251
v -0.000490 -0.081418 0.014299
v -0.000827 -0.087472 0.013288
v 0.003883 -0.068304 0.002188
v 0.005229 -0.075025 0.010933
v 0.007246 -0.065949 0.008579
v -0.001836 -0.088818 0.003198
v 0.001865 -0.084781 0.003534
v 0.000182 -0.089827 0.010596
f 265 251 280 
f 222 221 223 
f 222 223 225 
f 223 224 225 
f 225 224 227 
f 220 219 229 
f 222 225 229 
f 221 222 236 
f 219 220 242 
f 225 227 242 
f 227 224 244 
f 221 236 248 
f 236 228 248 
f 239 221 248 
f 228 236 250 
f 227 244 251 
f 244 233 251 
f 229 225 252 
f 218 234 253 
f 240 218 253 
f 246 233 253 
f 234 218 254 
f 218 237 254 
f 232 245 254 
f 245 234 254 
f 249 231 255 
f 228 250 255 
f 239 231 256 
f 238 239 256 
f 236 222 257 
f 222 247 257 
f 235 229 258 
f 241 235 259 
f 233 244 260 
f 240 253 260 
f 253 233 260 
f 238 256 261 
f 240 260 261 
f 245 230 262 
f 234 245 262 
f 223 221 263 
f 224 223 263 
f 238 224 263 
f 239 238 263 
f 221 239 263 
f 220 229 264 
f 229 252 264 
f 227 251 265 
f 243 226 266 
f 235 258 266 
f 258 243 266 
f 230 259 266 
f 259 235 266 
f 226 262 266 
f 262 230 266 
f 242 220 267 
f 225 242 267 
f 252 225 267 
f 220 264 267 
f 264 252 267 
f 250 236 268 
f 237 250 268 
f 232 254 268 
f 254 237 268 
f 236 257 268 
f 222 241 269 
f 247 222 269 
f 241 259 269 
f 222 229 270 
f 229 235 270 
f 241 222 270 
f 235 241 270 
f 237 218 271 
f 218 249 271 
f 250 237 271 
f 249 255 271 
f 255 250 271 
f 226 246 272 
f 253 234 272 
f 246 253 272 
f 262 226 272 
f 234 262 272 
f 229 219 273 
f 219 242 273 
f 258 229 273 
f 243 258 273 
f 242 227 274 
f 226 243 274 
f 227 265 274 
f 265 226 274 
f 273 242 274 
f 243 273 274 
f 231 239 275 
f 248 228 275 
f 239 248 275 
f 255 231 275 
f 228 255 275 
f 230 245 276 
f 245 247 276 
f 259 230 276 
f 247 269 276 
f 269 259 276 
f 245 232 277 
f 247 245 277 
f 257 247 277 
f 232 268 277 
f 268 257 277 
f 224 238 278 
f 244 224 278 
f 260 244 278 
f 238 261 278 
f 261 260 278 
f 218 240 279 
f 231 249 279 
f 249 218 279 
f 256 231 279 
f 240 261 279 
f 261 256 279 
f 246 226 280 
f 233 246 280 
f 251 233 280 
f 226 265 280 
o convex_5
v -0.011930 0.041046 0.006225
v 0.002536 0.042056 0.008915
v 0.003546 0.035328 0.009925
v 0.003546 0.032636 0.004206
v -0.009238 0.032636 0.009588
v -0.011592 0.042056 0.009925
v -0.011256 0.042056 0.004206
v -0.008902 0.032636 0.004206
v 0.003546 0.040037 0.005215
v 0.003546 0.032636 0.009925
v -0.005201 0.042056 0.004206
v -0.006882 0.042056 0.010262
v -0.007891 0.032636 0.009925
v 0.002200 0.042056 0.006225
v -0.009574 0.032636 0.005552
v -0.011930 0.041046 0.008915
v -0.011930 0.041719 0.004879
v 0.003546 0.039700 0.008915
v 0.003546 0.034318 0.004206
v -0.009574 0.032636 0.008915
f 296 295 300 
f 286 282 287 
f 284 285 288 
f 287 284 288 
f 283 284 289 
f 284 283 290 
f 285 284 290 
f 287 282 291 
f 284 287 291 
f 283 282 292 
f 282 286 292 
f 290 283 292 
f 290 292 293 
f 286 285 293 
f 285 290 293 
f 292 286 293 
f 282 289 294 
f 291 282 294 
f 289 291 294 
f 288 285 295 
f 285 286 296 
f 281 295 296 
f 286 287 297 
f 287 288 297 
f 295 281 297 
f 288 295 297 
f 296 286 297 
f 281 296 297 
f 282 283 298 
f 283 289 298 
f 289 282 298 
f 289 284 299 
f 284 291 299 
f 291 289 299 
f 295 285 300 
f 285 296 300 
o convex_6
v 0.003546 0.042056 0.004879
v 0.014986 0.042056 0.009925
v 0.014986 0.042056 0.004542
v 0.009266 0.032636 0.009252
v 0.004892 0.042056 0.011271
v 0.003546 0.032636 0.004206
v 0.003546 0.032636 0.009925
v 0.008930 0.032636 0.004542
v 0.013976 0.041383 0.011271
v 0.014312 0.042056 0.003533
v 0.004219 0.042056 0.003870
v 0.003546 0.041383 0.008579
v 0.014986 0.041383 0.004879
v 0.008930 0.033982 0.010261
v 0.010611 0.040037 0.003533
v 0.008257 0.032636 0.004206
v 0.014986 0.041719 0.009925
v 0.009266 0.032636 0.005552
v 0.004219 0.042056 0.010598
v 0.008930 0.032636 0.009925
v 0.008257 0.041719 0.003533
v 0.014312 0.041383 0.003533
v 0.014312 0.042056 0.011271
v 0.011956 0.040710 0.011271
f 314 309 324 
f 301 302 303 
f 302 301 305 
f 301 306 307 
f 306 304 307 
f 304 306 308 
f 301 303 310 
f 306 301 311 
f 301 310 311 
f 301 307 312 
f 303 302 313 
f 305 307 314 
f 308 306 316 
f 306 315 316 
f 313 302 317 
f 304 313 317 
f 304 308 318 
f 313 304 318 
f 308 313 318 
f 305 301 319 
f 307 305 319 
f 301 312 319 
f 312 307 319 
f 307 304 320 
f 314 307 320 
f 309 314 320 
f 317 309 320 
f 304 317 320 
f 306 311 321 
f 311 310 321 
f 315 306 321 
f 310 315 321 
f 310 303 322 
f 303 313 322 
f 313 308 322 
f 315 310 322 
f 308 316 322 
f 316 315 322 
f 302 305 323 
f 305 309 323 
f 317 302 323 
f 309 317 323 
f 309 305 324 
f 305 314 324 
o convex_7
v 0.024406 0.051814 0.010934
v -0.014618 0.060896 0.002188
v -0.014618 0.061233 0.002188
v -0.021346 0.061233 0.012279
v -0.016299 0.051142 0.004880
v 0.022386 0.051140 0.002524
v 0.004889 0.061233 0.012279
v 0.011618 0.051142 0.013290
v 0.004889 0.061233 0.002862
v -0.016638 0.051142 0.009587
v -0.024040 0.060896 0.004543
v 0.023733 0.052823 0.003533
v -0.002508 0.051142 0.002861
v 0.023394 0.052823 0.012616
v -0.010922 0.051142 0.011270
v 0.004555 0.061233 0.012952
v -0.016638 0.060896 0.012953
v -0.020339 0.060559 0.002525
v -0.024040 0.060559 0.010597
v 0.023060 0.051140 0.012953
v 0.017673 0.051142 0.002189
v 0.004221 0.061233 0.002525
v -0.001500 0.054506 0.002188
v -0.010922 0.052488 0.003198
v -0.023705 0.061233 0.003870
v -0.024040 0.060223 0.006225
v -0.001834 0.054169 0.012953
v 0.007248 0.054842 0.013290
v -0.003854 0.060896 0.002188
v 0.024067 0.051140 0.003198
v 0.023394 0.052823 0.002861
v -0.021012 0.060559 0.012279
v 0.008929 0.051142 0.002189
v 0.016331 0.051815 0.013290
v 0.020032 0.054169 0.012953
v -0.024379 0.061233 0.009924
v -0.016972 0.051478 0.005888
v 0.021374 0.053832 0.012279
v 0.006575 0.060559 0.003870
v -0.012268 0.052824 0.011606
v 0.020705 0.053159 0.002524
v 0.024406 0.052487 0.003870
v 0.012291 0.054506 0.002189
v -0.024040 0.060223 0.009252
v -0.010249 0.051142 0.003534
v -0.016638 0.061233 0.012953
v 0.024067 0.051140 0.011943
f 344 354 371 
f 327 328 331 
f 327 331 333 
f 329 330 334 
f 331 328 340 
f 327 326 342 
f 334 330 344 
f 332 339 344 
f 339 334 344 
f 327 333 346 
f 326 327 347 
f 342 326 347 
f 329 342 348 
f 342 347 348 
f 347 337 348 
f 328 327 349 
f 329 335 349 
f 327 342 349 
f 342 329 349 
f 339 332 351 
f 332 341 351 
f 341 332 352 
f 327 346 353 
f 347 327 353 
f 345 347 353 
f 344 330 354 
f 333 336 355 
f 346 333 355 
f 354 330 355 
f 341 328 356 
f 328 343 356 
f 343 334 356 
f 330 337 357 
f 345 330 357 
f 337 347 357 
f 347 345 357 
f 332 344 358 
f 352 332 358 
f 340 352 358 
f 338 340 359 
f 344 338 359 
f 358 344 359 
f 340 358 359 
f 343 328 360 
f 328 349 360 
f 349 335 360 
f 335 350 360 
f 329 334 361 
f 335 329 361 
f 350 335 361 
f 331 340 362 
f 340 338 362 
f 333 331 363 
f 336 333 363 
f 331 362 363 
f 362 336 363 
f 334 339 364 
f 339 351 364 
f 351 341 364 
f 356 334 364 
f 341 356 364 
f 330 345 365 
f 346 355 365 
f 355 330 365 
f 338 325 366 
f 325 354 366 
f 355 336 366 
f 354 355 366 
f 336 362 366 
f 362 338 366 
f 353 346 367 
f 345 353 367 
f 365 345 367 
f 346 365 367 
f 334 343 368 
f 343 360 368 
f 360 350 368 
f 361 334 368 
f 350 361 368 
f 330 329 369 
f 337 330 369 
f 329 348 369 
f 348 337 369 
f 340 328 370 
f 328 341 370 
f 341 352 370 
f 352 340 370 
f 325 338 371 
f 338 344 371 
f 354 325 371 
o convex_8
v -0.002510 -0.071662 0.011269
v -0.015631 -0.064936 0.006898
v -0.015631 -0.064936 0.008241
v -0.002510 -0.057872 0.012616
v -0.002510 -0.057872 0.002524
v -0.011929 -0.074692 0.002188
v -0.011255 -0.074692 0.013963
v -0.014620 -0.057872 0.011269
v -0.013276 -0.057872 0.002525
v -0.002510 -0.070988 0.003198
v -0.014620 -0.074692 0.009924
v -0.012266 -0.057872 0.013288
v -0.007557 -0.074692 0.003534
v -0.002510 -0.070653 0.012615
v -0.014620 -0.074016 0.005553
v -0.015631 -0.057872 0.006226
v -0.011929 -0.057872 0.001853
v -0.010583 -0.072671 0.001853
v -0.007894 -0.074692 0.012615
v -0.013276 -0.073681 0.012615
v -0.014620 -0.064936 0.004207
v -0.010583 -0.071324 0.013963
v -0.002510 -0.064262 0.002524
v -0.015631 -0.061236 0.009251
v -0.012938 -0.070988 0.002525
v -0.011255 -0.061908 0.013625
v -0.012266 -0.066615 0.013625
v -0.014958 -0.074352 0.007235
v -0.014958 -0.065945 0.010597
v -0.008568 -0.074692 0.002525
v -0.002510 -0.070315 0.002862
v -0.012266 -0.067624 0.001853
v -0.010247 -0.074692 0.013963
v -0.013612 -0.074692 0.003871
v -0.010583 -0.057872 0.001853
v -0.015295 -0.063926 0.005216
v -0.014285 -0.057872 0.003534
v -0.002510 -0.071324 0.003871
v -0.015631 -0.057872 0.009251
v -0.015295 -0.068970 0.009251
f 400 395 411 
f 375 372 376 
f 375 376 379 
f 379 376 380 
f 376 372 381 
f 377 378 382 
f 375 379 383 
f 378 377 384 
f 372 375 385 
f 373 374 387 
f 379 380 387 
f 380 376 388 
f 378 384 390 
f 384 372 390 
f 372 385 390 
f 382 378 391 
f 376 381 394 
f 389 376 394 
f 387 374 395 
f 375 383 397 
f 393 375 397 
f 393 397 398 
f 383 379 398 
f 391 378 398 
f 379 391 398 
f 378 393 398 
f 397 383 398 
f 374 373 399 
f 373 386 399 
f 382 391 400 
f 391 379 400 
f 384 377 401 
f 381 384 401 
f 377 389 401 
f 401 389 402 
f 394 381 402 
f 389 394 402 
f 381 401 402 
f 380 388 403 
f 389 377 403 
f 388 389 403 
f 377 396 403 
f 396 380 403 
f 385 375 404 
f 378 390 404 
f 390 385 404 
f 375 393 404 
f 393 378 404 
f 377 382 405 
f 396 377 405 
f 392 396 405 
f 382 399 405 
f 399 386 405 
f 388 376 406 
f 376 389 406 
f 389 388 406 
f 386 373 407 
f 373 387 407 
f 405 386 407 
f 392 405 407 
f 387 380 408 
f 380 396 408 
f 396 392 408 
f 407 387 408 
f 392 407 408 
f 381 372 409 
f 372 384 409 
f 384 381 409 
f 379 387 410 
f 387 395 410 
f 400 379 410 
f 395 400 410 
f 395 374 411 
f 374 399 411 
f 399 382 411 
f 382 400 411 
o convex_9
v -0.016303 0.050467 0.005552
v -0.002846 0.051140 0.011944
v -0.002846 0.051140 0.003196
v -0.002846 0.042056 0.005215
v -0.011593 0.042056 0.009925
v -0.011593 0.042056 0.004206
v -0.016303 0.051140 0.009588
v -0.002846 0.042056 0.008915
v -0.009909 0.051140 0.003533
v -0.010582 0.050802 0.011271
v -0.005875 0.042056 0.010260
v -0.005202 0.043067 0.003869
v -0.012264 0.042056 0.008915
v -0.015967 0.051140 0.004880
v -0.002846 0.049120 0.003196
v -0.012264 0.042056 0.005888
v -0.016640 0.050802 0.008579
v -0.011256 0.045421 0.003869
v -0.002846 0.048785 0.011607
v -0.009577 0.042729 0.010260
v -0.006547 0.050802 0.003196
v -0.003520 0.050802 0.011944
f 421 431 433 
f 414 413 415 
f 415 416 417 
f 413 414 418 
f 415 413 419 
f 416 415 419 
f 418 414 420 
f 413 418 421 
f 418 416 421 
f 416 419 422 
f 415 417 423 
f 417 416 424 
f 416 418 424 
f 417 412 425 
f 418 420 425 
f 414 415 426 
f 415 423 426 
f 423 417 426 
f 412 417 427 
f 417 424 427 
f 427 424 428 
f 424 418 428 
f 425 412 428 
f 418 425 428 
f 412 427 428 
f 417 425 429 
f 425 420 429 
f 426 417 429 
f 419 413 430 
f 422 419 430 
f 422 430 431 
f 421 416 431 
f 416 422 431 
f 420 414 432 
f 414 426 432 
f 429 420 432 
f 426 429 432 
f 413 421 433 
f 430 413 433 
f 431 430 433 
o convex_10
v -0.010248 -0.088484 0.004207
v -0.007556 -0.082765 0.014298
v -0.007893 -0.082765 0.014298
v -0.011930 -0.074692 0.002189
v -0.014622 -0.075366 0.009924
v -0.007556 -0.074692 0.003534
v -0.006547 -0.087811 0.002525
v -0.010584 -0.089156 0.010596
v -0.007893 -0.074692 0.012615
v -0.006547 -0.089829 0.011943
v -0.013612 -0.082430 0.005890
v -0.011930 -0.074692 0.013624
v -0.006547 -0.080412 0.012615
v -0.012603 -0.083439 0.011606
v -0.006547 -0.083775 0.001852
v -0.014622 -0.074692 0.006226
v -0.012266 -0.087811 0.008242
v -0.006884 -0.090168 0.005890
v -0.011257 -0.083103 0.002862
v -0.009239 -0.085455 0.013624
v -0.013948 -0.081757 0.008915
v -0.010248 -0.089829 0.007235
v -0.006547 -0.085120 0.014298
v -0.013612 -0.077384 0.004207
v -0.006547 -0.079739 0.005217
v -0.008566 -0.074692 0.002525
v -0.007556 -0.085120 0.001852
v -0.010248 -0.074692 0.013960
v -0.012266 -0.085793 0.004879
v -0.009576 -0.088484 0.012279
v -0.012603 -0.077384 0.012951
v -0.006547 -0.089829 0.004207
v -0.007556 -0.074692 0.009587
v -0.006884 -0.087811 0.013624
v -0.006547 -0.083439 0.014298
v -0.011930 -0.086804 0.010933
v -0.011257 -0.084784 0.012615
v -0.011593 -0.088484 0.005890
v -0.010584 -0.079067 0.013960
v -0.014622 -0.077384 0.007235
v -0.013612 -0.074692 0.011943
v -0.012603 -0.082430 0.003871
v -0.008903 -0.088149 0.003198
v -0.013276 -0.082430 0.010933
v -0.009576 -0.080750 0.001852
v -0.012938 -0.085793 0.006898
v -0.009912 -0.074692 0.002189
v -0.012938 -0.085455 0.009587
v -0.007220 -0.090168 0.009924
f 455 451 482 
f 439 437 442 
f 442 437 445 
f 443 440 446 
f 446 440 448 
f 445 437 449 
f 441 450 455 
f 435 436 456 
f 443 446 456 
f 436 453 456 
f 449 437 457 
f 444 449 457 
f 448 439 458 
f 446 448 458 
f 437 439 459 
f 439 448 459 
f 448 440 460 
f 436 435 461 
f 442 445 461 
f 452 434 462 
f 441 443 463 
f 440 443 465 
f 443 451 465 
f 455 434 465 
f 451 455 465 
f 439 442 466 
f 442 446 466 
f 458 439 466 
f 446 458 466 
f 443 456 467 
f 456 453 467 
f 463 443 467 
f 453 463 467 
f 446 442 468 
f 435 456 468 
f 456 446 468 
f 461 435 468 
f 442 461 468 
f 450 441 469 
f 441 463 469 
f 469 463 470 
f 463 453 470 
f 464 447 470 
f 447 469 470 
f 434 455 471 
f 455 450 471 
f 462 434 471 
f 453 436 472 
f 436 461 472 
f 461 445 472 
f 445 464 472 
f 470 453 472 
f 464 470 472 
f 449 444 473 
f 438 449 473 
f 454 438 473 
f 444 454 473 
f 449 438 474 
f 445 449 474 
f 464 445 474 
f 437 452 475 
f 457 437 475 
f 444 457 475 
f 462 444 475 
f 452 462 475 
f 434 452 476 
f 460 440 476 
f 452 460 476 
f 465 434 476 
f 440 465 476 
f 438 454 477 
f 447 464 477 
f 469 447 477 
f 474 438 477 
f 464 474 477 
f 452 437 478 
f 448 460 478 
f 460 452 478 
f 454 444 479 
f 444 462 479 
f 471 450 479 
f 462 471 479 
f 437 459 480 
f 459 448 480 
f 478 437 480 
f 448 478 480 
f 450 469 481 
f 477 454 481 
f 469 477 481 
f 454 479 481 
f 479 450 481 
f 443 441 482 
f 451 443 482 
f 441 455 482 
o convex_11
v -0.006547 -0.080412 0.011606
v -0.006210 -0.090167 0.005217
v -0.006547 -0.089830 0.004207
v -0.002510 -0.080412 0.003198
v -0.002510 -0.088484 0.013288
v -0.002510 -0.089830 0.004207
v -0.006547 -0.084113 0.001852
v -0.002510 -0.079403 0.011943
v -0.006547 -0.086802 0.013960
v -0.006547 -0.080412 0.004543
v -0.006547 -0.089830 0.011943
v -0.002510 -0.082768 0.014298
v -0.002510 -0.086466 0.002189
v -0.002510 -0.090167 0.010933
v -0.006547 -0.083440 0.014298
v -0.005874 -0.088148 0.002525
v -0.006547 -0.080076 0.006226
v -0.002846 -0.084785 0.001852
v -0.004192 -0.086129 0.014298
v -0.006547 -0.081422 0.002862
v -0.002846 -0.079740 0.005890
v -0.006547 -0.081086 0.012951
v -0.006547 -0.090167 0.010596
v -0.006547 -0.085793 0.001852
v -0.005874 -0.089158 0.012951
f 501 491 507 
f 484 485 488 
f 486 487 488 
f 485 483 489 
f 487 486 490 
f 483 485 491 
f 489 483 492 
f 491 485 493 
f 487 490 494 
f 486 488 495 
f 484 488 496 
f 488 487 496 
f 483 491 497 
f 488 485 498 
f 495 488 498 
f 483 490 499 
f 492 483 499 
f 489 486 500 
f 486 495 500 
f 487 494 501 
f 497 491 501 
f 494 497 501 
f 486 489 502 
f 492 486 502 
f 489 492 502 
f 490 486 503 
f 486 492 503 
f 499 490 503 
f 492 499 503 
f 490 483 504 
f 494 490 504 
f 483 497 504 
f 497 494 504 
f 485 484 505 
f 493 485 505 
f 484 496 505 
f 496 493 505 
f 485 489 506 
f 498 485 506 
f 495 498 506 
f 489 500 506 
f 500 495 506 
f 491 493 507 
f 496 487 507 
f 493 496 507 
f 487 501 507 
o convex_12
v 0.023393 0.051140 0.012616
v -0.000148 0.046766 0.002189
v -0.000148 0.045760 0.002525
v -0.002843 0.051140 0.011942
v 0.004896 0.042056 0.011606
v 0.023733 0.051140 0.002862
v 0.014982 0.042056 0.003534
v -0.002843 0.051140 0.003198
v -0.002843 0.042056 0.005214
v 0.014311 0.042056 0.011606
v -0.001496 0.047102 0.012616
v 0.018010 0.046766 0.013289
v -0.002843 0.042056 0.008916
v 0.018343 0.046094 0.002189
v 0.011616 0.051140 0.013289
v 0.009607 0.051140 0.002189
v 0.016327 0.042729 0.006898
v 0.004558 0.043402 0.002525
v 0.023054 0.050129 0.012616
v 0.005567 0.043738 0.012616
v 0.023733 0.050802 0.002862
v 0.019019 0.050802 0.002189
v -0.002505 0.046094 0.011942
v 0.000523 0.049794 0.002189
v 0.004222 0.042056 0.003534
v 0.015320 0.042056 0.009589
v 0.020364 0.050129 0.013289
v -0.001160 0.050129 0.012616
v 0.005908 0.044412 0.002189
v 0.014982 0.042394 0.003198
v 0.021712 0.048449 0.005551
v -0.002843 0.049120 0.003198
v 0.020029 0.047437 0.012952
v 0.014311 0.047775 0.013289
v 0.005908 0.042729 0.012280
v 0.023733 0.050802 0.011942
v 0.000523 0.044412 0.011942
v 0.019693 0.046430 0.003870
v 0.019693 0.047102 0.002189
f 528 545 546 
f 511 508 513 
f 511 513 515 
f 509 510 516 
f 514 512 516 
f 511 515 516 
f 512 514 517 
f 511 516 520 
f 516 512 520 
f 508 511 522 
f 515 513 523 
f 521 509 523 
f 510 509 525 
f 516 510 525 
f 523 513 529 
f 521 523 529 
f 518 511 530 
f 511 520 530 
f 509 515 531 
f 523 509 531 
f 515 523 531 
f 514 516 532 
f 516 525 532 
f 517 514 533 
f 514 524 533 
f 524 526 533 
f 508 522 534 
f 522 519 534 
f 526 508 534 
f 511 518 535 
f 522 511 535 
f 518 522 535 
f 509 521 536 
f 525 509 536 
f 525 536 537 
f 514 532 537 
f 532 525 537 
f 536 521 537 
f 515 509 539 
f 509 516 539 
f 516 515 539 
f 519 517 540 
f 517 533 540 
f 533 526 540 
f 534 519 540 
f 526 534 540 
f 522 518 541 
f 519 522 541 
f 518 527 541 
f 527 519 541 
f 512 517 542 
f 517 519 542 
f 519 527 542 
f 513 508 543 
f 508 526 543 
f 526 524 543 
f 528 513 543 
f 524 538 543 
f 538 528 543 
f 520 512 544 
f 527 518 544 
f 518 530 544 
f 530 520 544 
f 512 542 544 
f 542 527 544 
f 524 514 545 
f 538 524 545 
f 528 538 545 
f 513 528 546 
f 529 513 546 
f 521 529 546 
f 514 537 546 
f 537 521 546 
f 545 514 546 
