o convex_0
v -0.006407 0.063570 0.003974
v 0.002919 0.090173 0.008809
v 0.003610 0.089826 0.009155
v 0.024335 0.068408 0.002937
v 0.024335 0.063570 0.009845
v -0.006064 0.063919 0.009501
v -0.002263 0.088787 0.003283
v 0.018115 0.083605 0.003974
v -0.006754 0.079806 0.009501
v 0.020191 0.080496 0.009500
v 0.024335 0.063570 0.002937
v -0.007445 0.076353 0.003283
v -0.001916 0.063570 0.002937
v 0.011208 0.087751 0.003283
v 0.013284 0.086715 0.009500
v -0.002263 0.088787 0.009501
v 0.024682 0.071861 0.008809
v 0.023301 0.075666 0.003629
v -0.007792 0.071520 0.009155
v -0.005717 0.083608 0.003629
v 0.001191 0.090173 0.003629
v 0.015009 0.063570 0.009845
v 0.014318 0.086715 0.008809
v 0.025029 0.069445 0.003974
v 0.024335 0.068065 0.009845
v -0.007445 0.070135 0.003283
v -0.006754 0.063570 0.007773
v 0.020535 0.080843 0.008809
v 0.011555 0.088097 0.003974
v 0.020191 0.080496 0.003283
v 0.025029 0.063570 0.008809
v -0.003991 0.086715 0.009155
v 0.010517 0.088444 0.008809
v 0.004991 0.089826 0.003974
v 0.023301 0.076007 0.008809
v 0.020882 0.080496 0.003974
v -0.007445 0.077731 0.009155
v -0.007792 0.071520 0.003629
v -0.005717 0.083608 0.009155
v 0.015356 0.086025 0.003974
v 0.018462 0.083259 0.008809
v 0.025029 0.063570 0.003974
v 0.000847 0.090173 0.008809
v -0.002607 0.088787 0.003629
v 0.011899 0.068065 0.002937
v 0.003610 0.089480 0.009501
v 0.001538 0.089824 0.003283
v -0.006064 0.063919 0.003283
v -0.006754 0.080499 0.003629
v -0.007445 0.069445 0.009501
v -0.007445 0.068065 0.003629
v 0.024682 0.071861 0.003974
v -0.004679 0.063570 0.009501
v 0.025029 0.069098 0.008809
v 0.015009 0.085678 0.003283
v 0.022607 0.076353 0.009500
v -0.005717 0.082915 0.003283
v -0.007792 0.073937 0.006047
v -0.007445 0.077731 0.003629
v -0.007445 0.068065 0.009155
v -0.002607 0.088787 0.009155
v -0.001228 0.089480 0.003629
v 0.023992 0.069101 0.002937
v 0.023301 0.076007 0.003974
f 35 52 64 
f 5 1 11 
f 11 1 13 
f 1 5 22 
f 16 9 22 
f 11 4 24 
f 10 15 25 
f 22 5 25 
f 16 22 25 
f 12 13 26 
f 1 22 27 
f 18 4 30 
f 5 11 31 
f 25 5 31 
f 2 3 33 
f 15 23 33 
f 23 29 33 
f 33 29 34 
f 21 2 34 
f 29 14 34 
f 2 33 34 
f 28 35 36 
f 30 8 36 
f 18 30 36 
f 12 26 38 
f 9 16 39 
f 16 32 39 
f 32 20 39 
f 37 9 39 
f 14 29 40 
f 29 23 40 
f 15 10 41 
f 23 15 41 
f 10 28 41 
f 28 36 41 
f 36 8 41 
f 8 40 41 
f 40 23 41 
f 11 24 42 
f 31 11 42 
f 24 31 42 
f 3 2 43 
f 2 21 43 
f 7 20 44 
f 20 32 44 
f 4 11 45 
f 13 7 45 
f 11 13 45 
f 25 15 46 
f 16 25 46 
f 33 3 46 
f 15 33 46 
f 3 43 46 
f 43 16 46 
f 7 21 47 
f 21 34 47 
f 34 14 47 
f 45 7 47 
f 13 1 48 
f 26 13 48 
f 39 20 49 
f 37 39 49 
f 6 22 50 
f 22 9 50 
f 9 37 50 
f 37 19 50 
f 1 27 51 
f 38 26 51 
f 19 38 51 
f 48 1 51 
f 26 48 51 
f 4 18 52 
f 24 4 52 
f 17 24 52 
f 35 17 52 
f 22 6 53 
f 6 27 53 
f 27 22 53 
f 24 17 54 
f 17 25 54 
f 31 24 54 
f 25 31 54 
f 8 30 55 
f 40 8 55 
f 14 40 55 
f 10 25 56 
f 25 17 56 
f 28 10 56 
f 17 35 56 
f 35 28 56 
f 7 13 57 
f 13 12 57 
f 20 7 57 
f 12 49 57 
f 49 20 57 
f 19 37 58 
f 38 19 58 
f 38 58 59 
f 12 38 59 
f 49 12 59 
f 37 49 59 
f 58 37 59 
f 27 6 60 
f 6 50 60 
f 50 19 60 
f 19 51 60 
f 51 27 60 
f 32 16 61 
f 16 43 61 
f 44 32 61 
f 44 61 62 
f 21 7 62 
f 43 21 62 
f 7 44 62 
f 61 43 62 
f 30 4 63 
f 4 45 63 
f 47 14 63 
f 45 47 63 
f 14 55 63 
f 55 30 63 
f 36 35 64 
f 18 36 64 
f 52 18 64 
o convex_1
v -0.007101 -0.084289 0.003282
v -0.005719 -0.000345 0.009501
v -0.006410 -0.000345 0.009501
v -0.005719 -0.000345 0.002937
v -0.002610 -0.088098 0.009501
v -0.008829 -0.079796 0.008810
v -0.002610 -0.000345 0.004664
v -0.002610 -0.088098 0.002937
v -0.007446 -0.003116 0.003974
v -0.002610 -0.000345 0.007773
v -0.008829 -0.067017 0.003628
v -0.007446 -0.002778 0.008810
v -0.008137 -0.079449 0.009501
v -0.008137 -0.079449 0.002937
v -0.004337 -0.000354 0.009501
v -0.004337 -0.000354 0.002937
v -0.006410 -0.086020 0.008810
v -0.008829 -0.065286 0.008810
v -0.006756 -0.006917 0.002937
v -0.008829 -0.079449 0.003628
v -0.002610 -0.067710 0.002937
v -0.002610 -0.067710 0.009501
v -0.004337 -0.088098 0.003974
v -0.007101 -0.000345 0.003628
v -0.007446 -0.033521 0.009501
v -0.008137 -0.082912 0.005355
v -0.003301 -0.088791 0.008810
v -0.008829 -0.064593 0.005355
v -0.007101 -0.084981 0.003628
v -0.007792 -0.083605 0.008810
v -0.006064 -0.085328 0.009501
v -0.008137 -0.067363 0.002937
v -0.007446 -0.006917 0.003628
v -0.002610 -0.088791 0.003628
v -0.007101 -0.000345 0.008810
v -0.006064 -0.085328 0.002937
v -0.006756 -0.002086 0.009501
v -0.008137 -0.065286 0.009501
f 89 82 102 
f 67 66 68 
f 66 67 69 
f 68 66 71 
f 71 66 74 
f 69 67 77 
f 68 72 78 
f 66 69 79 
f 74 66 79 
f 68 71 80 
f 72 68 80 
f 75 70 82 
f 70 77 82 
f 68 78 83 
f 70 75 84 
f 78 65 84 
f 75 78 84 
f 71 72 85 
f 80 71 85 
f 72 80 85 
f 69 74 86 
f 79 69 86 
f 74 79 86 
f 67 68 88 
f 73 76 88 
f 68 83 88 
f 77 67 89 
f 70 84 90 
f 81 87 91 
f 73 75 92 
f 76 73 92 
f 75 82 92 
f 82 76 92 
f 84 65 93 
f 87 81 93 
f 90 84 93 
f 90 93 94 
f 77 70 94 
f 70 90 94 
f 93 81 94 
f 94 81 95 
f 69 77 95 
f 91 69 95 
f 81 91 95 
f 77 94 95 
f 78 75 96 
f 75 83 96 
f 83 78 96 
f 75 73 97 
f 83 75 97 
f 73 88 97 
f 88 83 97 
f 72 71 98 
f 74 69 98 
f 71 74 98 
f 87 72 98 
f 69 91 98 
f 91 87 98 
f 67 88 99 
f 88 76 99 
f 65 78 100 
f 78 72 100 
f 72 87 100 
f 93 65 100 
f 87 93 100 
f 76 82 101 
f 89 67 101 
f 82 89 101 
f 67 99 101 
f 99 76 101 
f 82 77 102 
f 77 89 102 
o convex_2
v -0.000191 0.030057 0.003282
v -0.009174 0.029707 0.003974
v -0.007446 0.001039 0.003974
v -0.000191 0.032476 0.009501
v -0.004338 -0.000345 0.009501
v -0.000191 -0.000345 0.004664
v -0.008483 0.032476 0.009501
v -0.007446 0.001039 0.008810
v -0.006409 -0.000345 0.002937
v -0.008483 0.032476 0.002937
v -0.000191 -0.000345 0.007773
v -0.004338 -0.000345 0.002937
v -0.003647 0.032476 0.002937
v -0.009174 0.029707 0.008810
v -0.006409 -0.000345 0.009501
v -0.000191 0.025218 0.009501
v -0.000191 0.032476 0.003283
v -0.000191 0.024875 0.003282
v -0.009174 0.032476 0.003628
v -0.002265 0.023493 0.002937
v -0.007101 -0.000345 0.003628
v -0.006754 0.000348 0.009501
v -0.009174 0.032476 0.008810
v -0.007446 0.003111 0.003628
f 111 123 126 
f 103 106 108 
f 107 106 109 
f 104 105 110 
f 108 107 111 
f 109 106 112 
f 108 106 113 
f 107 108 113 
f 108 111 114 
f 111 112 114 
f 114 112 115 
f 112 106 115 
f 104 110 116 
f 107 109 117 
f 111 107 117 
f 106 107 118 
f 113 106 118 
f 107 113 118 
f 106 103 119 
f 115 106 119 
f 103 108 120 
f 108 114 120 
f 109 112 121 
f 104 116 121 
f 114 115 122 
f 119 103 122 
f 115 119 122 
f 103 120 122 
f 120 114 122 
f 110 105 123 
f 117 110 123 
f 111 117 123 
f 109 116 124 
f 116 110 124 
f 117 109 124 
f 110 117 124 
f 116 109 125 
f 109 121 125 
f 121 116 125 
f 105 104 126 
f 112 111 126 
f 104 121 126 
f 121 112 126 
f 123 105 126 
o convex_3
v -0.024027 0.053551 0.003629
v 0.025029 0.063570 0.008809
v 0.025029 0.063570 0.003974
v 0.022607 0.053551 0.008809
v -0.006408 0.063224 0.009500
v 0.021224 0.053551 0.002937
v -0.023336 0.053551 0.009500
v -0.002956 0.063570 0.002937
v 0.000844 0.053551 0.010537
v -0.024027 0.055624 0.002937
v 0.019498 0.062186 0.010192
v 0.022264 0.063570 0.002591
v 0.002571 0.053551 0.002246
v -0.025067 0.055969 0.008809
v -0.007100 0.063570 0.003974
v 0.019155 0.053551 0.009846
v 0.024338 0.063570 0.009846
v -0.007100 0.063570 0.008809
v 0.023647 0.055969 0.003974
v -0.023684 0.056662 0.003974
v -0.024375 0.055624 0.009500
v 0.007406 0.057352 0.002246
v 0.024681 0.060115 0.008809
v 0.024338 0.061842 0.002937
v -0.022992 0.053551 0.002937
v -0.010208 0.061497 0.002937
v 0.000153 0.053897 0.010537
v 0.022264 0.053897 0.009500
v 0.022607 0.053551 0.003629
v -0.025067 0.054588 0.003629
v -0.018844 0.058732 0.008809
v -0.025067 0.054588 0.008809
v 0.025029 0.061842 0.003974
v -0.024375 0.056317 0.003629
v -0.008134 0.063224 0.003974
v 0.023990 0.060459 0.009846
v -0.005373 0.063570 0.009500
v 0.007062 0.055624 0.002246
v 0.002227 0.055624 0.002246
v 0.023647 0.055969 0.008809
v 0.024681 0.059769 0.003974
f 149 166 167 
f 130 127 132 
f 127 130 133 
f 128 129 134 
f 133 130 135 
f 134 129 138 
f 132 127 139 
f 128 134 141 
f 135 130 142 
f 137 135 142 
f 128 141 143 
f 143 141 144 
f 134 138 148 
f 128 143 149 
f 138 129 150 
f 132 138 150 
f 139 127 151 
f 136 139 151 
f 141 134 152 
f 134 148 152 
f 133 135 153 
f 135 137 153 
f 131 147 153 
f 147 133 153 
f 142 130 154 
f 130 132 155 
f 145 130 155 
f 132 150 155 
f 150 145 155 
f 151 127 156 
f 136 151 156 
f 131 144 157 
f 146 140 157 
f 147 131 157 
f 140 147 157 
f 127 133 158 
f 133 147 158 
f 147 140 158 
f 156 127 158 
f 140 156 158 
f 129 128 159 
f 128 149 159 
f 150 129 159 
f 140 146 160 
f 152 136 160 
f 156 140 160 
f 136 156 160 
f 144 141 161 
f 141 152 161 
f 157 144 161 
f 146 157 161 
f 160 146 161 
f 152 160 161 
f 137 142 162 
f 143 137 162 
f 149 143 162 
f 142 154 162 
f 137 143 163 
f 143 144 163 
f 144 131 163 
f 131 153 163 
f 153 137 163 
f 138 132 164 
f 132 139 164 
f 148 138 164 
f 139 148 164 
f 139 136 165 
f 148 139 165 
f 136 152 165 
f 152 148 165 
f 130 145 166 
f 154 130 166 
f 149 162 166 
f 162 154 166 
f 145 150 167 
f 159 149 167 
f 150 159 167 
f 166 145 167 
o convex_4
v -0.000191 0.022111 0.004665
v 0.012937 0.032476 0.008809
v 0.012937 0.031784 0.008809
v 0.012246 0.032476 0.003283
v -0.000191 0.032476 0.009500
v 0.011209 0.022111 0.009500
v 0.011554 0.022111 0.003283
v -0.000191 0.032476 0.003283
v -0.000191 0.025221 0.009500
v -0.000191 0.025221 0.003283
v -0.000191 0.022111 0.007773
v 0.012246 0.032476 0.009500
v 0.012246 0.024186 0.003974
v 0.011899 0.022111 0.008809
v 0.012937 0.031784 0.003974
v 0.007407 0.022111 0.009500
v 0.007407 0.022111 0.003283
v 0.012246 0.024186 0.008809
f 173 181 185 
f 169 171 172 
f 173 168 174 
f 171 174 175 
f 168 172 175 
f 172 171 175 
f 172 168 176 
f 173 172 176 
f 175 174 177 
f 168 175 177 
f 168 173 178 
f 176 168 178 
f 170 169 179 
f 169 172 179 
f 172 173 179 
f 174 180 181 
f 173 174 181 
f 169 170 182 
f 171 169 182 
f 174 171 182 
f 170 180 182 
f 180 174 182 
f 173 176 183 
f 178 173 183 
f 176 178 183 
f 174 168 184 
f 168 177 184 
f 177 174 184 
f 170 179 185 
f 179 173 185 
f 180 170 185 
f 181 180 185 
o convex_5
v -0.005718 0.040422 0.010193
v 0.001189 0.053551 0.010538
v 0.001189 0.053551 0.010193
v 0.006027 0.044914 0.010193
v -0.003991 0.047331 0.013301
v 0.004644 0.046987 0.012955
v -0.008829 0.047331 0.010193
v -0.006409 0.043533 0.012955
v -0.007101 0.049403 0.012264
v 0.003954 0.050440 0.012610
v -0.004683 0.040769 0.011229
v -0.000883 0.052167 0.012264
v -0.006755 0.050787 0.010193
v 0.003608 0.052513 0.010193
v -0.000192 0.049750 0.013301
v 0.005681 0.044571 0.010883
v -0.007101 0.047331 0.012955
v 0.005681 0.047675 0.011229
v -0.007792 0.044224 0.011574
v -0.000192 0.053551 0.010883
v -0.003991 0.040422 0.010193
v -0.005373 0.042151 0.012264
f 196 191 207 
f 186 188 189 
f 188 186 192 
f 191 190 193 
f 188 192 198 
f 192 194 198 
f 188 187 199 
f 189 188 199 
f 187 195 199 
f 190 191 200 
f 191 195 200 
f 197 194 200 
f 195 197 200 
f 191 196 201 
f 193 190 202 
f 194 192 202 
f 190 200 202 
f 200 194 202 
f 195 191 203 
f 189 199 203 
f 199 195 203 
f 201 189 203 
f 191 201 203 
f 192 186 204 
f 186 193 204 
f 193 202 204 
f 202 192 204 
f 187 188 205 
f 195 187 205 
f 194 197 205 
f 197 195 205 
f 188 198 205 
f 198 194 205 
f 186 189 206 
f 196 186 206 
f 189 201 206 
f 201 196 206 
f 191 193 207 
f 193 186 207 
f 186 196 207 
o convex_6
v 0.007755 -0.000345 0.007774
v -0.002610 -0.064607 0.004664
v 0.007755 -0.064607 0.004664
v -0.002610 -0.064607 0.007774
v -0.002610 -0.000345 0.004664
v 0.007755 -0.064607 0.007774
v 0.007755 -0.000345 0.004664
v -0.002610 -0.000345 0.007774
f 212 211 215 
f 209 210 211 
f 210 209 212 
f 209 211 212 
f 210 208 213 
f 211 210 213 
f 208 211 213 
f 208 210 214 
f 212 208 214 
f 210 212 214 
f 211 208 215 
f 208 212 215 
o convex_7
v 0.012937 -0.064607 0.002937
v 0.010864 -0.000345 0.009501
v 0.009137 -0.000345 0.009501
v 0.011209 -0.064607 0.009501
v 0.007755 -0.064607 0.004664
v 0.009137 -0.000345 0.003282
v 0.013974 -0.062870 0.008810
v 0.011900 -0.002075 0.003974
v 0.007755 -0.024185 0.008118
v 0.007755 -0.000345 0.004664
v 0.007755 -0.064607 0.007773
v 0.013974 -0.064607 0.003974
v 0.011900 -0.002428 0.008810
v 0.009828 -0.042836 0.002937
v 0.011209 -0.000345 0.003282
v 0.013282 -0.064607 0.009501
v 0.007755 -0.000345 0.008118
v 0.009137 -0.025569 0.009501
v 0.011209 -0.064607 0.002937
v 0.012937 -0.055272 0.002937
v 0.013974 -0.062531 0.003974
v 0.009828 -0.045258 0.009501
v 0.011555 -0.000691 0.009155
v 0.011900 -0.005535 0.003628
v 0.009137 -0.033854 0.003282
v 0.013628 -0.055618 0.003628
v 0.011209 -0.001037 0.009501
v 0.013974 -0.064607 0.008810
f 222 231 243 
f 217 218 219 
f 216 219 220 
f 218 217 221 
f 218 221 225 
f 221 220 225 
f 220 224 225 
f 220 219 226 
f 224 220 226 
f 219 216 227 
f 222 223 228 
f 229 221 230 
f 221 217 230 
f 217 219 231 
f 219 227 231 
f 224 218 232 
f 218 225 232 
f 225 224 232 
f 219 218 233 
f 218 224 233 
f 224 226 233 
f 216 220 234 
f 229 216 234 
f 220 229 234 
f 227 216 235 
f 216 229 235 
f 229 230 235 
f 223 222 236 
f 222 227 236 
f 227 235 236 
f 226 219 237 
f 219 233 237 
f 233 226 237 
f 222 228 238 
f 228 223 238 
f 230 217 238 
f 223 230 238 
f 230 223 239 
f 235 230 239 
f 220 221 240 
f 229 220 240 
f 221 229 240 
f 223 236 241 
f 236 235 241 
f 239 223 241 
f 235 239 241 
f 217 231 242 
f 231 222 242 
f 222 238 242 
f 238 217 242 
f 227 222 243 
f 231 227 243 
o convex_8
v 0.006027 0.022109 0.007774
v -0.000191 -0.000343 0.004664
v -0.000191 -0.000343 0.007774
v -0.000191 0.022109 0.004664
v 0.006027 -0.000343 0.004664
v 0.006027 -0.000343 0.007774
v -0.000191 0.022109 0.007774
v 0.006027 0.022109 0.004664
f 248 247 251 
f 245 246 247 
f 246 245 248 
f 245 247 248 
f 244 246 249 
f 248 244 249 
f 246 248 249 
f 246 244 250 
f 247 246 250 
f 244 247 250 
f 247 244 251 
f 244 248 251 
o convex_9
v 0.009137 -0.000343 0.003283
v 0.011209 0.022109 0.009500
v 0.011901 0.022109 0.008809
v 0.007410 0.022109 0.003283
v 0.006027 -0.000343 0.007773
v 0.011555 -0.000343 0.008809
v 0.011901 0.022109 0.003628
v 0.006027 0.022109 0.008118
v 0.006027 -0.000343 0.004665
v 0.011555 -0.000343 0.003628
v 0.009137 -0.000343 0.009500
v 0.007756 0.022109 0.009500
v 0.006027 0.022109 0.004665
v 0.011555 0.022109 0.003283
v 0.010864 -0.000343 0.009500
v 0.011209 -0.000343 0.003283
v 0.011901 0.018654 0.008809
v 0.011901 0.018309 0.003974
f 268 257 269 
f 253 254 255 
f 256 252 257 
f 255 254 258 
f 253 255 259 
f 256 259 260 
f 255 252 260 
f 252 256 260 
f 257 252 261 
f 256 257 262 
f 253 259 263 
f 259 256 263 
f 262 253 263 
f 256 262 263 
f 259 255 264 
f 260 259 264 
f 255 260 264 
f 252 255 265 
f 255 258 265 
f 253 262 266 
f 262 257 266 
f 261 252 267 
f 258 261 267 
f 252 265 267 
f 265 258 267 
f 254 253 268 
f 258 254 268 
f 253 266 268 
f 266 257 268 
f 257 261 269 
f 261 258 269 
f 258 268 269 
o convex_10
v -0.017807 0.047674 0.002591
v 0.022611 0.053551 0.008809
v 0.022611 0.053204 0.008809
v -0.022991 0.053204 0.009501
v 0.012242 0.032476 0.009501
v 0.020880 0.053551 0.002937
v -0.008481 0.032476 0.002937
v 0.012591 0.032476 0.003282
v -0.008825 0.032476 0.009501
v -0.023685 0.053551 0.003628
v 0.009478 0.053551 0.010192
v -0.015392 0.044220 0.010192
v 0.012591 0.053551 0.002591
v -0.003990 0.039044 0.002591
v -0.004334 0.040078 0.010192
v 0.022611 0.053204 0.003974
v 0.019153 0.053204 0.009846
v -0.009519 0.032476 0.008809
v -0.022642 0.053551 0.002937
v 0.013280 0.033167 0.008809
v -0.023685 0.053551 0.008809
v -0.010556 0.050787 0.010192
v 0.006369 0.044911 0.010192
v -0.023336 0.052513 0.003974
v -0.009519 0.032823 0.003974
v 0.006025 0.043529 0.002591
v -0.023336 0.052513 0.008809
v 0.021918 0.052860 0.009500
v 0.012936 0.032476 0.003628
v 0.019498 0.049058 0.002937
v -0.011245 0.051478 0.002591
v 0.021918 0.051478 0.003974
v -0.000537 0.053551 0.010192
v -0.017463 0.047674 0.010192
v -0.014010 0.042498 0.002591
v 0.021224 0.051131 0.003282
v -0.003990 0.032476 0.002937
v 0.021573 0.050787 0.008809
v -0.022991 0.053551 0.009501
v -0.023336 0.053204 0.003282
v -0.009519 0.032476 0.007082
v 0.002572 0.053551 0.002591
v 0.017427 0.049749 0.009846
v -0.009174 0.032476 0.003628
f 310 294 313 
f 274 276 277 
f 276 274 278 
f 271 275 279 
f 271 279 280 
f 273 278 281 
f 279 275 282 
f 270 282 283 
f 278 274 284 
f 281 278 284 
f 280 281 284 
f 271 272 285 
f 275 271 285 
f 271 280 286 
f 276 278 287 
f 279 282 288 
f 280 279 290 
f 281 280 291 
f 284 274 292 
f 280 284 292 
f 286 280 292 
f 290 279 293 
f 277 283 295 
f 283 282 295 
f 278 273 296 
f 287 278 296 
f 273 290 296 
f 293 287 296 
f 290 293 296 
f 272 271 297 
f 271 286 297 
f 286 274 297 
f 274 289 297 
f 274 277 298 
f 289 274 298 
f 282 275 299 
f 277 295 299 
f 295 282 299 
f 282 270 300 
f 270 288 300 
f 285 272 301 
f 289 298 301 
f 280 290 302 
f 291 280 302 
f 273 281 303 
f 281 291 303 
f 276 270 304 
f 270 283 304 
f 283 276 304 
f 275 285 305 
f 298 277 305 
f 299 275 305 
f 277 299 305 
f 285 301 305 
f 301 298 305 
f 277 276 306 
f 276 283 306 
f 283 277 306 
f 272 297 307 
f 297 289 307 
f 301 272 307 
f 289 301 307 
f 290 273 308 
f 302 290 308 
f 291 302 308 
f 273 303 308 
f 303 291 308 
f 270 276 309 
f 288 270 309 
f 279 288 309 
f 293 279 309 
f 276 287 310 
f 287 293 310 
f 293 294 310 
f 288 282 311 
f 282 300 311 
f 300 288 311 
f 274 286 312 
f 292 274 312 
f 286 292 312 
f 294 293 313 
f 309 276 313 
f 293 309 313 
f 276 310 313 
o convex_11
v 0.000845 -0.090173 0.003974
v -0.002264 -0.083263 0.008810
v -0.002264 -0.083263 0.003628
v 0.004991 -0.085336 0.008810
v -0.002610 -0.089135 0.008810
v 0.004991 -0.086027 0.002937
v 0.004645 -0.089481 0.009501
v -0.002610 -0.088100 0.002937
v 0.004991 -0.089826 0.003628
v -0.002610 -0.084301 0.009501
v 0.000845 -0.090173 0.008810
v -0.002610 -0.084301 0.002937
v 0.004991 -0.085336 0.003628
v 0.004991 -0.086027 0.009501
v 0.004300 -0.089481 0.002937
v -0.002264 -0.088445 0.009501
v 0.004645 -0.090173 0.008810
v -0.001919 -0.089481 0.003974
v 0.004991 -0.089826 0.008810
v 0.004300 -0.090173 0.003628
v 0.001191 -0.089481 0.002937
f 328 333 334 
f 316 315 317 
f 319 317 322 
f 315 316 323 
f 321 318 323 
f 316 319 325 
f 319 321 325 
f 323 316 325 
f 321 323 325 
f 316 317 326 
f 319 316 326 
f 317 319 326 
f 317 315 327 
f 322 317 327 
f 315 323 327 
f 323 320 327 
f 321 319 328 
f 319 322 328 
f 320 323 329 
f 323 318 329 
f 318 324 329 
f 324 320 329 
f 324 314 330 
f 320 324 330 
f 318 321 331 
f 314 324 331 
f 324 318 331 
f 322 327 332 
f 327 320 332 
f 330 322 332 
f 320 330 332 
f 328 322 333 
f 330 314 333 
f 322 330 333 
f 321 328 334 
f 314 331 334 
f 331 321 334 
f 333 314 334 
o convex_12
v 0.012591 -0.083264 0.009501
v 0.004991 -0.089826 0.003628
v 0.004991 -0.089826 0.008810
v 0.010517 -0.078772 0.003628
v 0.012246 -0.085334 0.003628
v 0.004991 -0.085334 0.008810
v 0.013628 -0.078772 0.009501
v 0.004991 -0.086026 0.002937
v 0.013283 -0.078772 0.002937
v 0.009138 -0.088443 0.008810
v 0.010517 -0.078772 0.008810
v 0.007756 -0.088443 0.002937
v 0.013628 -0.082573 0.008810
v 0.004991 -0.086026 0.009501
v 0.013974 -0.080501 0.003628
v 0.008101 -0.089135 0.003974
v 0.007064 -0.088790 0.009501
v 0.010864 -0.087061 0.008810
v 0.004991 -0.085334 0.003628
v 0.012246 -0.083955 0.002937
v 0.010173 -0.087753 0.003974
v 0.011209 -0.078772 0.009501
v 0.006028 -0.089826 0.008810
v 0.013974 -0.078772 0.009155
v 0.013283 -0.083610 0.003974
v 0.012937 -0.084299 0.008810
v 0.011209 -0.078772 0.002937
v 0.013974 -0.078772 0.003628
v 0.004991 -0.089135 0.002937
f 342 346 363 
f 336 337 340 
f 336 340 342 
f 338 341 343 
f 338 340 345 
f 341 338 345 
f 342 343 346 
f 341 335 347 
f 340 337 348 
f 335 341 348 
f 345 340 348 
f 336 346 350 
f 348 337 351 
f 335 348 351 
f 335 351 352 
f 351 344 352 
f 340 338 353 
f 338 342 353 
f 342 340 353 
f 339 346 354 
f 346 343 354 
f 343 349 354 
f 346 339 355 
f 344 350 355 
f 350 346 355 
f 339 352 355 
f 352 344 355 
f 341 345 356 
f 348 341 356 
f 345 348 356 
f 337 336 357 
f 336 350 357 
f 350 344 357 
f 344 351 357 
f 351 337 357 
f 343 341 358 
f 341 347 358 
f 347 349 358 
f 349 347 359 
f 339 354 359 
f 354 349 359 
f 347 335 360 
f 335 352 360 
f 352 339 360 
f 339 359 360 
f 359 347 360 
f 342 338 361 
f 338 343 361 
f 343 342 361 
f 349 343 362 
f 343 358 362 
f 358 349 362 
f 336 342 363 
f 346 336 363 
o convex_13
v -0.002609 -0.072898 0.008810
v 0.007408 -0.064607 0.007773
v 0.007408 -0.064607 0.004664
v -0.002609 -0.064607 0.007773
v -0.002609 -0.071862 0.002937
v 0.007408 -0.071862 0.003628
v 0.007408 -0.071170 0.009501
v 0.000846 -0.065989 0.002937
v 0.000500 -0.065989 0.009501
v -0.002609 -0.064607 0.004664
v 0.007408 -0.067372 0.002937
v -0.002609 -0.071862 0.009501
v -0.002263 -0.072898 0.003628
v 0.006717 -0.066679 0.009501
v 0.007408 -0.071862 0.008810
v 0.007408 -0.071170 0.002937
v -0.002609 -0.067718 0.002937
v -0.002609 -0.067718 0.009501
v 0.004990 -0.065989 0.002937
v 0.005336 -0.064607 0.008118
v 0.005336 -0.064607 0.004319
f 382 371 384 
f 365 366 367 
f 364 367 368 
f 366 365 369 
f 369 365 370 
f 367 366 373 
f 368 367 373 
f 366 369 374 
f 368 371 374 
f 367 364 375 
f 364 370 375 
f 370 372 375 
f 364 368 376 
f 370 365 377 
f 372 370 377 
f 370 364 378 
f 369 370 378 
f 364 376 378 
f 376 369 378 
f 374 369 379 
f 368 374 379 
f 376 368 379 
f 369 376 379 
f 371 368 380 
f 368 373 380 
f 373 371 380 
f 372 367 381 
f 367 375 381 
f 375 372 381 
f 366 374 382 
f 374 371 382 
f 365 367 383 
f 367 372 383 
f 377 365 383 
f 372 377 383 
f 373 366 384 
f 371 373 384 
f 366 382 384 
o convex_14
v 0.014319 -0.072552 0.007082
v 0.007409 -0.072206 0.003628
v 0.010519 -0.078772 0.003628
v 0.007409 -0.071519 0.009501
v 0.012937 -0.064607 0.002937
v 0.011209 -0.064607 0.009501
v 0.013628 -0.078772 0.009501
v 0.007409 -0.064607 0.004664
v 0.014319 -0.078772 0.003974
v 0.013973 -0.064607 0.008810
v 0.010519 -0.078772 0.008810
v 0.007409 -0.067373 0.002937
v 0.013282 -0.078772 0.002937
v 0.013973 -0.065300 0.003628
v 0.007409 -0.064607 0.007773
v 0.014319 -0.078772 0.008810
v 0.007409 -0.067373 0.009501
v 0.011209 -0.078772 0.002937
v 0.013282 -0.064607 0.009501
v 0.011209 -0.078772 0.009501
v 0.007409 -0.072206 0.008810
v 0.007409 -0.071172 0.002937
v 0.014319 -0.075316 0.003628
v 0.011209 -0.064607 0.002937
v 0.013628 -0.075316 0.002937
v 0.014319 -0.072898 0.008810
f 394 403 410 
f 390 388 391 
f 386 388 392 
f 390 389 392 
f 391 387 393 
f 389 390 394 
f 386 387 395 
f 387 391 395 
f 386 392 396 
f 393 387 397 
f 396 389 397 
f 389 394 398 
f 394 385 398 
f 392 388 399 
f 390 392 399 
f 393 385 400 
f 391 393 400 
f 388 390 401 
f 399 388 401 
f 390 399 401 
f 397 387 402 
f 396 397 402 
f 390 391 403 
f 394 390 403 
f 391 388 404 
f 388 395 404 
f 395 391 404 
f 388 386 405 
f 386 395 405 
f 395 388 405 
f 387 386 406 
f 386 396 406 
f 402 387 406 
f 396 402 406 
f 385 393 407 
f 398 385 407 
f 392 389 408 
f 389 396 408 
f 396 392 408 
f 397 389 409 
f 393 397 409 
f 389 398 409 
f 407 393 409 
f 398 407 409 
f 385 394 410 
f 400 385 410 
f 391 400 410 
f 403 391 410 
o convex_15
v -0.016084 0.045260 0.002246
v -0.009865 0.050441 0.002591
v -0.009521 0.050095 0.002591
v -0.009865 0.050441 0.002246
v -0.008829 0.047678 0.002246
v -0.015392 0.044914 0.002591
v -0.016775 0.047678 0.002591
v -0.016775 0.047678 0.002246
v -0.008829 0.047678 0.002591
f 416 415 419 
f 412 413 414 
f 411 414 415 
f 414 413 415 
f 413 412 416 
f 411 415 416 
f 411 416 417 
f 412 414 417 
f 416 412 417 
f 417 414 418 
f 414 411 418 
f 411 417 418 
f 415 413 419 
f 413 416 419 
o convex_16
v -0.007792 0.044225 0.000519
v 0.004300 0.053551 0.002591
v 0.006027 0.046986 0.002591
v 0.003262 0.048712 -0.000172
v -0.005373 0.039386 0.002591
v -0.008136 0.048712 0.002591
v 0.004644 0.045607 0.000173
v -0.005027 0.041113 0.000173
v 0.005681 0.043534 0.001900
v -0.007792 0.047329 0.000864
v 0.002572 0.053551 0.002246
v -0.007101 0.044569 -0.000172
v -0.008829 0.046639 0.002591
v 0.005681 0.043534 0.002591
v -0.003991 0.039386 0.001900
v -0.001572 0.050094 0.000864
v -0.006409 0.042496 -0.000172
v 0.005335 0.048368 0.001209
v -0.006409 0.041113 0.000519
v 0.004300 0.053551 0.002246
v 0.001882 0.050441 0.000519
v -0.008136 0.048712 0.002246
v -0.003646 0.039386 0.002591
f 424 434 442 
f 422 421 424 
f 424 421 425 
f 427 426 428 
f 425 421 430 
f 420 429 431 
f 424 425 432 
f 429 420 432 
f 422 424 433 
f 428 422 433 
f 427 428 434 
f 429 430 435 
f 431 429 435 
f 423 426 436 
f 426 427 436 
f 420 431 436 
f 431 423 436 
f 426 423 437 
f 422 428 437 
f 428 426 437 
f 432 420 438 
f 424 432 438 
f 434 424 438 
f 427 434 438 
f 420 436 438 
f 436 427 438 
f 421 422 439 
f 430 421 439 
f 422 437 439 
f 437 423 439 
f 423 431 440 
f 435 430 440 
f 431 435 440 
f 430 439 440 
f 439 423 440 
f 425 430 441 
f 430 429 441 
f 432 425 441 
f 429 432 441 
f 433 424 442 
f 428 433 442 
f 434 428 442 
