o convex_0
v -0.004318 0.009648 0.006481
v -0.006519 -0.053676 0.001101
v -0.006519 -0.053676 0.005991
v 0.000328 -0.053676 0.005502
v 0.000328 0.009660 0.001590
v -0.006275 0.009648 0.001101
v 0.000328 -0.053676 0.001590
v 0.000328 0.009660 0.005502
v -0.006275 0.009648 0.005991
v -0.003829 -0.053676 0.000612
v -0.003829 -0.053676 0.006481
v -0.005785 0.009648 0.000612
v -0.006030 -0.053676 0.006481
v -0.004318 0.009648 0.000612
v -0.006030 -0.053676 0.000612
v -0.005785 0.009648 0.006481
v -0.006519 -0.049516 0.002080
f 3 9 17 
f 3 2 4 
f 4 2 7 
f 5 4 7 
f 4 5 8 
f 5 6 8 
f 8 6 9 
f 7 2 10 
f 5 7 10 
f 3 4 11 
f 8 1 11 
f 4 8 11 
f 2 6 12 
f 6 5 12 
f 9 3 13 
f 11 1 13 
f 3 11 13 
f 5 10 14 
f 12 5 14 
f 10 12 14 
f 10 2 15 
f 2 12 15 
f 12 10 15 
f 1 8 16 
f 8 9 16 
f 13 1 16 
f 9 13 16 
f 2 3 17 
f 6 2 17 
f 9 6 17 
o convex_1
v 0.007421 -0.051723 0.005013
v 0.000328 -0.053670 0.001590
v 0.003264 -0.053670 0.000612
v 0.000328 0.009648 0.001590
v 0.006197 0.008427 0.000612
v 0.003752 0.009648 0.006481
v 0.000328 -0.053670 0.005503
v 0.007421 -0.053682 0.001101
v 0.006442 0.009648 0.005991
v 0.006931 -0.053682 0.006481
v 0.000328 0.009648 0.005503
v 0.003264 -0.053670 0.006481
v 0.006687 0.007453 0.002080
v 0.003752 0.009648 0.000612
v 0.006931 -0.053682 0.000612
v 0.005953 0.009648 0.006481
v 0.007421 -0.053434 0.005991
v 0.006687 0.007701 0.005013
v 0.006442 0.009648 0.001101
v 0.007421 -0.051723 0.002080
v 0.006442 0.007695 0.000857
f 22 36 38 
f 20 19 21 
f 21 19 24 
f 21 23 26 
f 24 19 27 
f 23 21 28 
f 21 24 28 
f 28 24 29 
f 24 27 29 
f 27 23 29 
f 23 28 29 
f 20 21 31 
f 22 20 31 
f 21 26 31 
f 19 20 32 
f 20 22 32 
f 22 25 32 
f 27 19 32 
f 25 27 32 
f 26 23 33 
f 23 27 33 
f 33 27 34 
f 25 18 34 
f 27 25 34 
f 26 33 34 
f 26 34 35 
f 34 18 35 
f 35 30 36 
f 22 31 36 
f 31 26 36 
f 26 35 36 
f 18 25 37 
f 25 30 37 
f 35 18 37 
f 30 35 37 
f 25 22 38 
f 30 25 38 
f 36 30 38 
o convex_2
v -0.006519 0.051719 0.000857
v -0.004074 0.053438 0.006481
v -0.001873 0.053438 0.005502
v -0.001873 0.009660 0.005502
v -0.006275 0.009660 0.005991
v -0.001873 0.009660 0.001590
v -0.005785 0.009660 0.000612
v -0.001873 0.053438 0.001590
v -0.006519 0.053438 0.006236
v -0.004074 0.053438 0.000612
v -0.004318 0.009660 0.006481
v -0.006764 0.053438 0.001590
v -0.006275 0.009660 0.001101
v -0.004318 0.009660 0.000612
v -0.005785 0.009660 0.006481
v -0.006764 0.052940 0.005502
v -0.006275 0.053438 0.000612
v -0.006275 0.053438 0.006481
v -0.006764 0.051719 0.002080
f 54 50 57 
f 41 40 42 
f 41 42 44 
f 42 43 44 
f 44 43 45 
f 40 41 46 
f 41 44 46 
f 40 46 47 
f 47 46 48 
f 46 44 48 
f 42 40 49 
f 43 42 49 
f 47 48 50 
f 45 43 51 
f 39 45 51 
f 50 39 51 
f 44 45 52 
f 48 44 52 
f 45 48 52 
f 49 40 53 
f 43 49 53 
f 43 47 54 
f 47 50 54 
f 45 39 55 
f 48 45 55 
f 39 50 55 
f 50 48 55 
f 47 43 56 
f 40 47 56 
f 43 53 56 
f 53 40 56 
f 51 43 57 
f 50 51 57 
f 43 54 57 
o convex_3
v 0.007176 0.053438 0.005991
v -0.001873 0.009660 0.001590
v 0.003752 0.009660 0.000612
v 0.005953 0.009660 0.006481
v -0.001873 0.053438 0.005502
v 0.006686 0.053438 0.000612
v -0.001873 0.053438 0.001590
v -0.001873 0.009660 0.005502
v 0.006442 0.009660 0.001101
v 0.003263 0.053438 0.006481
v 0.003018 0.053438 0.000612
v 0.007176 0.052212 0.001101
v 0.006442 0.009660 0.005991
v 0.003752 0.009660 0.006481
v 0.006686 0.053438 0.006481
v 0.005953 0.009660 0.000612
v 0.007176 0.050746 0.005013
f 58 70 74 
f 59 60 61 
f 62 58 63 
f 59 62 64 
f 62 63 64 
f 59 61 65 
f 62 59 65 
f 61 60 66 
f 58 62 67 
f 62 65 67 
f 60 59 68 
f 63 60 68 
f 59 64 68 
f 64 63 68 
f 63 58 69 
f 58 61 70 
f 61 66 70 
f 65 61 71 
f 61 67 71 
f 67 65 71 
f 61 58 72 
f 58 67 72 
f 67 61 72 
f 60 63 73 
f 66 60 73 
f 63 69 73 
f 69 66 73 
f 69 58 74 
f 66 69 74 
f 70 66 74 
o convex_4
v -0.004565 -0.088898 0.001835
v -0.016056 -0.078628 0.002080
v -0.015567 -0.080342 0.001835
v -0.005787 -0.088654 0.007215
v -0.006520 -0.077894 0.006481
v -0.007010 -0.077894 -0.000122
v -0.015567 -0.077894 0.006235
v -0.008477 -0.088164 0.000612
v -0.012877 -0.084740 0.005991
v -0.015078 -0.077894 0.000612
v -0.005299 -0.089142 -0.000122
v -0.005787 -0.090122 0.005991
v -0.009455 -0.077894 0.007215
v -0.012877 -0.084740 0.001101
v -0.004809 -0.088164 0.006481
v -0.006520 -0.077894 0.000612
v -0.014588 -0.082787 0.005013
v -0.013855 -0.082054 0.006481
v -0.009699 -0.087674 0.005013
v -0.005787 -0.090122 0.000857
v -0.009699 -0.080586 -0.000122
v -0.013611 -0.082787 0.000612
v -0.006766 -0.077894 0.006970
v -0.004809 -0.089876 0.006481
v -0.015567 -0.080342 0.005258
v -0.005053 -0.087674 0.000123
v -0.012877 -0.084985 0.001835
v -0.008233 -0.088654 0.001346
v -0.014344 -0.082787 0.001101
v -0.006520 -0.089632 0.006481
v -0.008722 -0.083031 0.007215
v -0.004809 -0.089876 0.000612
v -0.005543 -0.086697 0.007215
v -0.016056 -0.077894 0.005503
v -0.004809 -0.087430 0.005747
v -0.014834 -0.079119 0.006481
v -0.012144 -0.084740 0.006481
v -0.009699 -0.077894 -0.000122
v -0.015078 -0.081076 0.005991
v -0.015811 -0.077894 0.001101
v -0.007010 -0.087186 -0.000122
v -0.007499 -0.077894 0.007215
v -0.012877 -0.084985 0.005258
f 101 93 117 
f 79 80 81 
f 81 80 84 
f 79 81 87 
f 80 79 90 
f 82 85 94 
f 80 85 95 
f 85 82 96 
f 82 88 96 
f 84 95 96 
f 79 87 97 
f 89 79 97 
f 75 89 98 
f 86 94 98 
f 76 77 99 
f 77 91 99 
f 85 80 100 
f 90 75 100 
f 80 90 100 
f 93 101 102 
f 88 82 102 
f 86 93 102 
f 82 94 102 
f 94 86 102 
f 101 88 102 
f 91 77 103 
f 84 96 103 
f 96 88 103 
f 88 101 103 
f 101 91 103 
f 83 93 104 
f 93 86 104 
f 98 78 104 
f 86 98 104 
f 78 87 105 
f 92 78 105 
f 94 85 106 
f 75 98 106 
f 98 94 106 
f 100 75 106 
f 85 100 106 
f 87 78 107 
f 89 97 107 
f 78 98 107 
f 98 89 107 
f 81 84 108 
f 76 99 108 
f 89 75 109 
f 79 89 109 
f 75 90 109 
f 90 79 109 
f 87 81 110 
f 105 87 110 
f 92 105 110 
f 78 92 111 
f 92 83 111 
f 104 78 111 
f 83 104 111 
f 84 80 112 
f 80 95 112 
f 95 84 112 
f 91 83 113 
f 83 92 113 
f 99 91 113 
f 81 108 113 
f 108 99 113 
f 110 81 113 
f 92 110 113 
f 77 76 114 
f 103 77 114 
f 84 103 114 
f 76 108 114 
f 108 84 114 
f 95 85 115 
f 85 96 115 
f 96 95 115 
f 97 87 116 
f 87 107 116 
f 107 97 116 
f 83 91 117 
f 93 83 117 
f 91 101 117 
o convex_5
v -0.000895 -0.067864 0.007215
v -0.016058 -0.077892 0.001590
v -0.015812 -0.077892 0.001101
v -0.006520 -0.053682 0.000857
v -0.000161 -0.071045 -0.000122
v -0.014834 -0.077892 0.006481
v -0.003830 -0.053682 0.006481
v -0.000161 -0.053682 0.001590
v -0.006520 -0.077892 0.006481
v -0.014834 -0.071289 0.005991
v -0.007009 -0.077892 -0.000122
v -0.006276 -0.053929 0.006481
v -0.000161 -0.071777 0.006481
v -0.000161 -0.053682 0.005502
v -0.014834 -0.072024 0.000857
v -0.009454 -0.077892 0.007215
v -0.006276 -0.053682 0.000612
v -0.009209 -0.074958 -0.000122
v -0.000161 -0.067132 -0.000122
v -0.014100 -0.069087 0.005013
v -0.016058 -0.074713 0.005258
v -0.006765 -0.053682 0.005013
v -0.015079 -0.071289 0.002080
v -0.006276 -0.077892 0.001835
v -0.014100 -0.071533 0.006481
v -0.000161 -0.070556 0.007215
v -0.000161 -0.071777 0.000612
v -0.003830 -0.053682 0.000612
v -0.015079 -0.074958 0.000612
v -0.000161 -0.058818 0.006481
v -0.007988 -0.073244 0.007215
v -0.015812 -0.077892 0.005991
v -0.016058 -0.074958 0.001590
v -0.000161 -0.058818 0.000612
v -0.006765 -0.053682 0.002080
v -0.009698 -0.077892 -0.000122
v -0.006276 -0.070310 -0.000122
v -0.006765 -0.077892 0.006970
v -0.014100 -0.071289 0.000612
v -0.013856 -0.068599 0.001835
v -0.015079 -0.077892 0.000612
v -0.006520 -0.053682 0.005991
v -0.015567 -0.075202 0.006235
v -0.014100 -0.069575 0.001101
v -0.005786 -0.070556 0.007215
v -0.006276 -0.077892 0.005258
v -0.000161 -0.067864 0.007215
v -0.015079 -0.071289 0.005013
f 140 138 165 
f 119 120 123 
f 121 124 125 
f 123 120 126 
f 126 120 128 
f 118 124 129 
f 122 125 130 
f 125 124 131 
f 130 125 131 
f 123 126 133 
f 121 125 134 
f 122 128 135 
f 122 135 136 
f 125 122 136 
f 124 121 139 
f 126 128 141 
f 129 127 142 
f 123 133 142 
f 130 131 143 
f 118 133 143 
f 128 122 144 
f 122 130 144 
f 141 128 144 
f 130 141 144 
f 134 125 145 
f 136 134 145 
f 131 124 147 
f 143 131 147 
f 133 118 148 
f 129 142 148 
f 142 133 148 
f 119 123 149 
f 138 119 149 
f 120 119 150 
f 119 138 150 
f 140 132 150 
f 138 140 150 
f 146 120 150 
f 132 146 150 
f 125 136 151 
f 145 125 151 
f 136 145 151 
f 139 121 152 
f 137 139 152 
f 128 120 153 
f 135 128 153 
f 146 135 153 
f 135 134 154 
f 136 135 154 
f 134 136 154 
f 126 130 155 
f 133 126 155 
f 130 143 155 
f 143 133 155 
f 132 134 156 
f 134 135 156 
f 146 132 156 
f 135 146 156 
f 140 137 157 
f 152 121 157 
f 137 152 157 
f 120 146 158 
f 153 120 158 
f 146 153 158 
f 129 124 159 
f 127 129 159 
f 137 127 159 
f 124 139 159 
f 139 137 159 
f 127 138 160 
f 123 142 160 
f 142 127 160 
f 149 123 160 
f 138 149 160 
f 121 134 161 
f 134 132 161 
f 132 140 161 
f 157 121 161 
f 140 157 161 
f 118 129 162 
f 148 118 162 
f 129 148 162 
f 130 126 163 
f 126 141 163 
f 141 130 163 
f 124 118 164 
f 118 143 164 
f 147 124 164 
f 143 147 164 
f 127 137 165 
f 138 127 165 
f 137 140 165 
o convex_6
v 0.008644 -0.055641 0.005503
v -0.000161 -0.071780 0.000857
v -0.000161 -0.071780 0.005991
v 0.008644 -0.073979 0.000857
v -0.000161 -0.053684 0.001590
v 0.008644 -0.073488 0.006970
v 0.007175 -0.053684 0.000612
v 0.003264 -0.053684 0.006481
v -0.000161 -0.067866 0.007215
v -0.000161 -0.067131 -0.000122
v 0.008644 -0.073000 -0.000122
v -0.000161 -0.053684 0.005503
v 0.006930 -0.053684 0.006481
v 0.008644 -0.056865 0.000612
v 0.008644 -0.068599 0.007215
v 0.003264 -0.053684 0.000612
v 0.008399 -0.067619 -0.000122
v -0.000161 -0.071045 -0.000122
v -0.000161 -0.070311 0.007215
v 0.008399 -0.073979 0.006235
v 0.008644 -0.056865 0.006481
v -0.000161 -0.058820 0.006481
v -0.000161 -0.058820 0.000612
v 0.007665 -0.053684 0.001590
v -0.000161 -0.071289 0.006970
v 0.008644 -0.072022 0.007215
v 0.004974 -0.067375 0.007215
v 0.007665 -0.053684 0.005503
v 0.008644 -0.055641 0.001590
v -0.000161 -0.071533 0.000123
v 0.006198 -0.066886 -0.000122
f 182 175 196 
f 167 168 170 
f 169 166 171 
f 172 170 173 
f 170 168 174 
f 167 170 175 
f 166 169 176 
f 173 170 177 
f 170 174 177 
f 172 173 178 
f 166 176 179 
f 171 166 180 
f 170 172 181 
f 176 175 182 
f 172 179 182 
f 179 176 182 
f 167 175 183 
f 175 176 183 
f 174 168 184 
f 180 174 184 
f 168 167 185 
f 167 169 185 
f 169 171 185 
f 180 166 186 
f 178 180 186 
f 174 173 187 
f 173 177 187 
f 177 174 187 
f 175 170 188 
f 170 181 188 
f 181 175 188 
f 172 178 189 
f 184 168 190 
f 171 184 190 
f 168 185 190 
f 185 171 190 
f 171 180 191 
f 184 171 191 
f 180 184 191 
f 173 174 192 
f 178 173 192 
f 174 180 192 
f 180 178 192 
f 186 166 193 
f 178 186 193 
f 166 189 193 
f 189 178 193 
f 166 179 194 
f 179 172 194 
f 189 166 194 
f 172 189 194 
f 169 167 195 
f 176 169 195 
f 167 183 195 
f 183 176 195 
f 181 172 196 
f 175 181 196 
f 172 182 196 
o convex_7
v 0.015246 -0.064691 0.001835
v 0.008644 -0.074223 0.000612
v 0.008644 -0.074223 0.006235
v 0.008644 -0.056130 0.001590
v 0.015980 -0.070312 0.005991
v 0.012313 -0.082536 0.000123
v 0.008888 -0.057110 0.006481
v 0.011823 -0.082536 0.006970
v 0.015735 -0.070069 0.000857
v 0.008888 -0.057110 0.000612
v 0.015246 -0.075936 0.005013
v 0.013779 -0.062243 0.005747
v 0.008644 -0.068849 0.007215
v 0.008644 -0.068113 -0.000122
v 0.015002 -0.067380 0.006481
v 0.011579 -0.083271 0.002080
v 0.012556 -0.072265 -0.000122
v 0.013290 -0.081803 0.001590
v 0.014513 -0.065178 0.000612
v 0.016225 -0.070802 0.001835
v 0.016225 -0.067380 0.005013
v 0.012556 -0.083271 0.005991
v 0.012313 -0.081070 0.007215
v 0.013779 -0.062000 0.001835
v 0.008644 -0.056130 0.005503
v 0.011579 -0.071778 0.007215
v 0.011579 -0.081559 -0.000122
v 0.015491 -0.074713 0.001591
v 0.011579 -0.083025 0.005991
v 0.012800 -0.062000 0.006481
v 0.016225 -0.067626 0.001835
v 0.008644 -0.073734 0.006970
v 0.014757 -0.076915 0.005991
v 0.008888 -0.056130 0.005503
v 0.012556 -0.080826 -0.000122
v 0.008644 -0.073244 -0.000122
v 0.012313 -0.083761 0.001835
v 0.016225 -0.071045 0.005013
v 0.015246 -0.065178 0.005991
v 0.013045 -0.062246 0.000612
v 0.008888 -0.056130 0.001590
v 0.013290 -0.081803 0.005503
v 0.013779 -0.062000 0.005258
v 0.011334 -0.069825 -0.000122
v 0.014513 -0.077158 0.000857
v 0.013535 -0.062000 0.001101
v 0.011579 -0.083025 0.001101
v 0.015491 -0.065178 0.005013
v 0.015491 -0.065914 0.001101
v 0.008644 -0.072265 0.007215
f 228 204 246 
f 198 199 200 
f 200 199 209 
f 198 200 210 
f 200 206 210 
f 199 198 212 
f 205 213 215 
f 201 211 219 
f 204 218 219 
f 200 209 221 
f 209 203 221 
f 203 209 222 
f 209 219 222 
f 219 211 222 
f 210 213 223 
f 207 214 224 
f 205 216 224 
f 199 212 225 
f 218 204 225 
f 208 203 226 
f 203 222 226 
f 222 211 226 
f 216 205 227 
f 217 216 227 
f 209 199 228 
f 199 225 228 
f 225 204 228 
f 201 219 229 
f 219 218 229 
f 203 208 230 
f 221 203 230 
f 200 221 230 
f 213 205 231 
f 202 223 231 
f 223 213 231 
f 198 210 232 
f 223 198 232 
f 210 223 232 
f 202 214 233 
f 225 212 233 
f 218 225 233 
f 217 201 234 
f 216 217 234 
f 207 224 234 
f 224 216 234 
f 201 229 234 
f 229 207 234 
f 211 201 235 
f 201 217 235 
f 208 226 235 
f 226 211 235 
f 215 213 236 
f 206 200 237 
f 200 230 237 
f 230 220 237 
f 214 207 238 
f 207 229 238 
f 229 218 238 
f 233 214 238 
f 218 233 238 
f 197 220 239 
f 230 208 239 
f 220 230 239 
f 208 235 239 
f 210 206 240 
f 213 210 240 
f 206 236 240 
f 236 213 240 
f 214 202 241 
f 205 224 241 
f 224 214 241 
f 231 205 241 
f 202 231 241 
f 220 197 242 
f 236 206 242 
f 215 236 242 
f 237 220 242 
f 206 237 242 
f 212 198 243 
f 198 223 243 
f 223 202 243 
f 202 233 243 
f 233 212 243 
f 227 197 244 
f 217 227 244 
f 235 217 244 
f 197 239 244 
f 239 235 244 
f 205 215 245 
f 197 227 245 
f 227 205 245 
f 242 197 245 
f 215 242 245 
f 204 219 246 
f 219 209 246 
f 209 228 246 
o convex_8
v -0.005298 0.090122 0.001101
v -0.016301 0.077894 0.001590
v -0.016301 0.077894 0.005258
v -0.006521 0.077894 0.004279
v -0.005298 0.089632 0.006970
v -0.007255 0.077894 -0.000122
v -0.013122 0.084740 0.001101
v -0.007744 0.077894 0.007215
v -0.012632 0.084985 0.006235
v -0.005298 0.087674 0.000123
v -0.015322 0.078385 0.000612
v -0.015078 0.078874 0.006481
v -0.007010 0.089632 0.005991
v -0.006277 0.088654 -0.000122
v -0.015078 0.082054 0.005258
v -0.004808 0.088898 0.005013
v -0.007010 0.087186 0.007215
v -0.009455 0.087920 0.001101
v -0.006765 0.077894 0.006481
v -0.009945 0.077894 -0.000122
v -0.013122 0.084985 0.005013
v -0.014833 0.082543 0.001590
v -0.005054 0.087674 0.000857
v -0.006765 0.077894 0.000612
v -0.009455 0.077894 0.007215
v -0.013855 0.082787 0.000612
v -0.006521 0.089876 0.000857
v -0.008967 0.083765 -0.000122
v -0.005298 0.087674 0.006970
v -0.013855 0.082543 0.006481
v -0.015812 0.080342 0.002080
v -0.016056 0.077894 0.005991
v -0.006032 0.090122 0.006235
v -0.010189 0.087430 0.005258
v -0.009211 0.081809 0.007215
v -0.005054 0.089876 0.000612
v -0.013122 0.084985 0.001835
v -0.009945 0.087186 0.000612
v -0.015566 0.080342 0.001101
v -0.015566 0.080342 0.005991
v -0.005054 0.089876 0.006481
v -0.006521 0.077894 0.002813
v -0.016301 0.078628 0.005013
f 278 286 289 
f 249 248 250 
f 250 248 252 
f 249 250 254 
f 256 252 260 
f 251 255 263 
f 254 250 265 
f 250 262 265 
f 252 248 266 
f 248 257 266 
f 260 252 266 
f 261 255 267 
f 261 267 268 
f 250 252 270 
f 252 256 270 
f 256 269 270 
f 249 254 271 
f 254 263 271 
f 268 253 272 
f 264 259 273 
f 266 257 274 
f 260 266 274 
f 272 260 274 
f 257 272 274 
f 251 263 275 
f 263 254 275 
f 254 265 275 
f 265 262 275 
f 263 255 276 
f 261 268 277 
f 249 271 278 
f 271 258 278 
f 255 251 279 
f 259 255 279 
f 247 273 279 
f 273 259 279 
f 255 259 280 
f 259 264 280 
f 267 255 280 
f 258 271 281 
f 271 263 281 
f 276 258 281 
f 263 276 281 
f 256 260 282 
f 269 256 282 
f 262 269 282 
f 273 247 282 
f 260 273 282 
f 264 253 283 
f 253 268 283 
f 268 267 283 
f 280 264 283 
f 267 280 283 
f 253 264 284 
f 272 253 284 
f 260 272 284 
f 273 260 284 
f 264 273 284 
f 257 248 285 
f 272 257 285 
f 268 272 285 
f 248 277 285 
f 277 268 285 
f 255 261 286 
f 276 255 286 
f 258 276 286 
f 278 258 286 
f 251 275 287 
f 275 262 287 
f 247 279 287 
f 279 251 287 
f 282 247 287 
f 262 282 287 
f 262 250 288 
f 269 262 288 
f 250 270 288 
f 270 269 288 
f 248 249 289 
f 277 248 289 
f 261 277 289 
f 249 278 289 
f 286 261 289 
o convex_9
v 0.008643 0.073979 0.006725
v 0.000329 0.053438 0.001590
v 0.003020 0.053438 0.000612
v 0.000329 0.070799 -0.000122
v 0.000329 0.069820 0.007215
v 0.006687 0.053438 0.006481
v 0.008643 0.073247 -0.000122
v 0.008643 0.056130 0.001101
v 0.000329 0.053438 0.005503
v 0.008643 0.057106 0.006481
v 0.006687 0.053438 0.000612
v 0.008643 0.069088 0.007215
v 0.000329 0.071533 0.005991
v 0.008399 0.074226 0.000612
v 0.003264 0.053438 0.006481
v 0.008643 0.067865 -0.000122
v 0.000329 0.066886 -0.000122
v 0.000329 0.071533 0.000857
v 0.000329 0.067865 0.007215
v 0.007419 0.053438 0.005013
v 0.000329 0.058576 0.006481
v 0.008399 0.074226 0.006235
v 0.008643 0.072022 0.007215
v 0.000329 0.058576 0.000612
v 0.000329 0.071045 0.006970
v 0.008643 0.057106 0.000612
v 0.008643 0.055885 0.005258
v 0.007419 0.053438 0.001835
v 0.004974 0.067620 0.007215
v 0.008399 0.073735 0.006970
v 0.005953 0.066886 -0.000122
f 306 305 320 
f 293 291 294 
f 291 292 295 
f 296 290 297 
f 294 291 298 
f 291 295 298 
f 297 290 299 
f 295 292 300 
f 299 290 301 
f 295 299 301 
f 293 294 302 
f 296 293 303 
f 290 296 303 
f 298 295 304 
f 293 296 305 
f 296 297 305 
f 291 293 306 
f 300 292 306 
f 293 305 306 
f 293 302 307 
f 303 293 307 
f 302 303 307 
f 294 298 308 
f 301 294 308 
f 295 300 309 
f 298 304 310 
f 308 298 310 
f 304 308 310 
f 290 303 311 
f 303 302 311 
f 301 290 312 
f 294 301 312 
f 292 291 313 
f 306 292 313 
f 291 306 313 
f 302 294 314 
f 311 302 314 
f 297 300 315 
f 305 297 315 
f 300 305 315 
f 299 295 316 
f 297 299 316 
f 295 309 316 
f 316 309 317 
f 300 297 317 
f 309 300 317 
f 297 316 317 
f 295 301 318 
f 304 295 318 
f 301 308 318 
f 308 304 318 
f 290 311 319 
f 312 290 319 
f 294 312 319 
f 314 294 319 
f 311 314 319 
f 305 300 320 
f 300 306 320 
o convex_10
v 0.013290 0.081316 0.002080
v 0.008644 0.056372 0.001835
v 0.008644 0.056372 0.005258
v 0.015980 0.067381 0.001835
v 0.011334 0.080825 0.007215
v 0.008644 0.073736 -0.000122
v 0.015735 0.067625 0.005991
v 0.008644 0.072513 0.007215
v 0.011823 0.082785 0.000123
v 0.013290 0.062247 0.000857
v 0.012556 0.062000 0.006481
v 0.015491 0.074224 0.005013
v 0.011579 0.083514 0.005747
v 0.015491 0.070556 0.000857
v 0.008644 0.057351 0.000612
v 0.012313 0.072267 -0.000122
v 0.013534 0.062000 0.005258
v 0.008644 0.057351 0.006481
v 0.012800 0.081562 0.006481
v 0.008644 0.074465 0.006481
v 0.011334 0.083273 0.001835
v 0.011334 0.072513 0.007215
v 0.015491 0.073733 0.001590
v 0.012313 0.081316 -0.000122
v 0.016225 0.069580 0.005013
v 0.014268 0.065177 0.000612
v 0.014757 0.067381 0.006481
v 0.015491 0.072511 0.005991
v 0.012068 0.081072 0.007215
v 0.012556 0.083026 0.005747
v 0.012313 0.083273 0.000857
v 0.013534 0.062000 0.001835
v 0.015246 0.065177 0.005258
v 0.008644 0.068113 -0.000122
v 0.008888 0.056372 0.001835
v 0.008644 0.074465 0.000612
v 0.014513 0.077160 0.001102
v 0.015980 0.071535 0.002080
v 0.008888 0.069092 0.007215
v 0.008888 0.056622 0.005991
v 0.015002 0.067625 0.000612
v 0.014757 0.076913 0.005013
v 0.015246 0.065177 0.001835
v 0.011579 0.082536 0.006970
v 0.011090 0.069827 -0.000122
v 0.013779 0.062735 0.005991
v 0.012313 0.061512 0.000612
v 0.015246 0.075200 0.002080
v 0.011334 0.083026 0.005991
v 0.011334 0.081562 -0.000122
v 0.015735 0.067381 0.001102
v 0.009133 0.056863 0.001101
v 0.015002 0.075200 0.005991
v 0.015980 0.067381 0.005013
v 0.008888 0.056372 0.005258
v 0.012068 0.083764 0.001590
f 350 351 376 
f 322 323 326 
f 326 323 328 
f 322 326 335 
f 328 323 338 
f 326 328 340 
f 325 328 342 
f 336 326 344 
f 342 331 347 
f 327 345 348 
f 345 332 348 
f 347 327 348 
f 347 348 349 
f 325 342 349 
f 342 347 349 
f 344 329 351 
f 350 321 351 
f 337 352 353 
f 335 326 354 
f 326 336 354 
f 323 322 355 
f 352 337 355 
f 326 340 356 
f 340 341 356 
f 343 334 357 
f 334 344 357 
f 351 321 357 
f 344 351 357 
f 334 343 358 
f 345 324 358 
f 332 345 358 
f 338 331 359 
f 328 338 359 
f 342 328 359 
f 331 342 359 
f 331 338 360 
f 338 323 360 
f 344 334 361 
f 336 344 361 
f 346 336 361 
f 321 350 362 
f 350 339 362 
f 352 330 363 
f 353 352 363 
f 324 353 363 
f 328 325 364 
f 340 328 364 
f 325 349 364 
f 349 339 364 
f 339 350 364 
f 350 333 364 
f 336 346 365 
f 335 354 365 
f 354 336 365 
f 327 347 366 
f 347 331 366 
f 337 353 366 
f 353 327 366 
f 331 360 366 
f 360 337 366 
f 346 330 367 
f 335 365 367 
f 365 346 367 
f 357 321 368 
f 343 357 368 
f 332 358 368 
f 358 343 368 
f 362 332 368 
f 321 362 368 
f 333 341 369 
f 341 340 369 
f 340 364 369 
f 364 333 369 
f 341 329 370 
f 329 344 370 
f 344 326 370 
f 326 356 370 
f 356 341 370 
f 330 346 371 
f 358 324 371 
f 334 358 371 
f 361 334 371 
f 346 361 371 
f 324 363 371 
f 363 330 371 
f 322 335 372 
f 330 352 372 
f 355 322 372 
f 352 355 372 
f 367 330 372 
f 335 367 372 
f 348 332 373 
f 349 348 373 
f 339 349 373 
f 332 362 373 
f 362 339 373 
f 324 345 374 
f 345 327 374 
f 353 324 374 
f 327 353 374 
f 323 355 375 
f 355 337 375 
f 337 360 375 
f 360 323 375 
f 341 333 376 
f 329 341 376 
f 333 350 376 
f 351 329 376 
o convex_11
v -0.010430 0.062730 0.005257
v 0.000326 0.063220 0.006481
v 0.000326 0.058817 0.006481
v 0.000326 0.063220 0.000612
v -0.006274 0.053438 0.000612
v -0.006274 0.053438 0.006481
v 0.000326 0.053438 0.001590
v -0.009942 0.063220 0.000612
v -0.009697 0.063220 0.006481
v 0.000326 0.053438 0.005502
v -0.006763 0.053438 0.001346
v 0.000326 0.058572 0.000612
v -0.010430 0.062974 0.001101
v -0.006763 0.053438 0.005747
v -0.004075 0.053438 0.006481
v -0.004075 0.053438 0.000612
v -0.010430 0.062974 0.005991
f 390 382 393 
f 378 379 380 
f 379 378 382 
f 380 379 383 
f 382 381 383 
f 378 380 384 
f 380 381 384 
f 382 378 385 
f 378 384 385 
f 383 379 386 
f 382 383 386 
f 381 382 387 
f 381 380 388 
f 380 383 388 
f 384 381 389 
f 381 387 389 
f 387 377 389 
f 387 382 390 
f 377 387 390 
f 379 382 391 
f 386 379 391 
f 382 386 391 
f 383 381 392 
f 381 388 392 
f 388 383 392 
f 382 385 393 
f 385 384 393 
f 384 389 393 
f 389 377 393 
f 377 390 393 
o convex_12
v -0.015078 0.070800 0.002080
v -0.006522 0.077894 0.005503
v -0.006522 0.077894 0.001590
v 0.000328 0.063220 0.006481
v 0.000328 0.067134 -0.000122
v -0.009944 0.063220 0.006481
v -0.015078 0.077894 0.006481
v -0.009944 0.063220 0.000612
v -0.015322 0.077894 0.000612
v 0.000328 0.071290 0.006970
v 0.000328 0.071290 0.000123
v 0.000328 0.063220 0.000612
v -0.009944 0.077894 -0.000122
v -0.009454 0.077894 0.007215
v -0.016056 0.074714 0.005991
v -0.000407 0.067868 0.007215
v -0.013855 0.068112 0.005013
v -0.016056 0.074714 0.001101
v -0.010920 0.063467 0.001835
v -0.007254 0.077894 -0.000122
v -0.016302 0.077894 0.005258
v -0.013365 0.069091 0.000612
v -0.007254 0.071288 -0.000122
v -0.013610 0.069826 0.006481
v -0.007254 0.072268 0.007215
v -0.007744 0.077894 0.007215
v 0.000328 0.071534 0.000612
v -0.010676 0.063220 0.005747
v -0.013365 0.067623 0.001101
v -0.016302 0.074714 0.005013
v -0.016302 0.077894 0.001590
v -0.013855 0.068602 0.005991
v 0.000328 0.071534 0.006481
v -0.015566 0.072024 0.005013
v 0.000328 0.070069 0.007215
v -0.007010 0.077894 0.006970
v -0.015322 0.074958 0.000612
v 0.000328 0.070800 -0.000122
v -0.016302 0.074714 0.002080
v -0.015078 0.074470 0.006481
v -0.009454 0.074958 -0.000122
v -0.004075 0.068602 -0.000122
v -0.013855 0.068112 0.002080
v -0.009209 0.075692 0.007215
v -0.015078 0.071288 0.001101
v -0.004319 0.069580 0.007215
f 409 418 439 
f 395 396 400 
f 397 399 401 
f 400 396 402 
f 397 398 403 
f 403 398 404 
f 398 397 405 
f 397 401 405 
f 401 398 405 
f 402 396 406 
f 395 400 407 
f 399 397 409 
f 398 406 413 
f 406 396 413 
f 400 402 414 
f 408 400 414 
f 406 398 416 
f 409 407 418 
f 395 407 419 
f 407 409 419 
f 396 395 420 
f 403 404 420 
f 413 396 420 
f 404 413 420 
f 401 399 421 
f 412 401 421 
f 410 412 421 
f 401 412 422 
f 415 401 422 
f 408 414 423 
f 423 414 424 
f 402 411 424 
f 414 402 424 
f 399 417 425 
f 417 408 425 
f 421 399 425 
f 410 421 425 
f 420 395 426 
f 403 420 426 
f 394 410 427 
f 408 423 427 
f 425 408 427 
f 410 425 427 
f 397 403 428 
f 409 397 428 
f 403 419 428 
f 419 409 428 
f 395 419 429 
f 419 403 429 
f 426 395 429 
f 403 426 429 
f 402 406 430 
f 411 402 430 
f 404 398 431 
f 413 404 431 
f 398 413 431 
f 423 424 432 
f 424 411 432 
f 394 427 432 
f 427 423 432 
f 407 400 433 
f 400 408 433 
f 408 417 433 
f 401 415 434 
f 416 401 434 
f 406 416 434 
f 430 406 434 
f 415 430 434 
f 398 401 435 
f 416 398 435 
f 401 416 435 
f 410 394 436 
f 412 410 436 
f 422 412 436 
f 417 399 437 
f 399 418 437 
f 418 407 437 
f 407 433 437 
f 433 417 437 
f 415 422 438 
f 411 430 438 
f 430 415 438 
f 394 432 438 
f 432 411 438 
f 436 394 438 
f 422 436 438 
f 399 409 439 
f 418 399 439 
