o convex_0
v 0.014141 0.023294 0.009582
v 0.005500 -0.008265 0.006576
v 0.005874 -0.021044 0.006576
v 0.014141 0.023294 0.003946
v 0.013764 -0.021044 0.009582
v 0.005500 0.023299 0.009582
v 0.013764 -0.021044 0.003946
v 0.005500 0.023299 0.003946
v 0.008881 -0.021044 0.009582
v 0.008881 -0.021044 0.003946
v 0.005500 0.003758 0.009582
v 0.005500 0.003758 0.003946
v 0.005874 -0.021044 0.007327
f 9 11 13 
f 4 1 5 
f 1 4 6 
f 5 1 6 
f 4 5 7 
f 5 3 7 
f 2 6 8 
f 6 4 8 
f 4 7 8 
f 3 5 9 
f 5 6 9 
f 7 3 10 
f 8 7 10 
f 6 2 11 
f 9 6 11 
f 3 2 12 
f 2 8 12 
f 10 3 12 
f 8 10 12 
f 2 3 13 
f 3 9 13 
f 11 2 13 
o convex_1
v 0.023534 0.078163 0.014092
v 0.007753 0.087932 -0.000188
v 0.007753 0.087932 0.014092
v 0.015269 0.068768 -0.000188
v 0.028045 0.069896 -0.000188
v 0.015269 0.068768 0.014092
v 0.013767 0.087557 -0.000188
v 0.028045 0.068770 0.014092
v 0.009634 0.090188 0.014092
v 0.022032 0.080040 -0.000188
v 0.018272 0.083797 0.014092
v 0.008130 0.090188 -0.000188
v 0.028045 0.068770 -0.000188
v 0.025789 0.074782 0.014092
v 0.025789 0.074782 -0.000188
v 0.007753 0.089810 0.014092
v 0.009634 0.090188 -0.000188
v 0.012639 0.088305 0.014092
v 0.018272 0.083797 -0.000188
v 0.028045 0.069896 0.014092
v 0.008130 0.086802 -0.000188
v 0.022032 0.080040 0.014092
v 0.008130 0.086802 0.014092
v 0.015644 0.086053 0.014092
v 0.027292 0.071775 0.009580
v 0.023534 0.078163 -0.000188
v 0.007753 0.089810 -0.000188
v 0.010385 0.089810 -0.000188
f 22 31 41 
f 17 15 18 
f 14 16 19 
f 18 15 20 
f 14 19 21 
f 19 17 21 
f 16 14 22 
f 18 20 23 
f 22 14 24 
f 20 15 25 
f 17 18 26 
f 18 21 26 
f 21 17 26 
f 14 21 27 
f 18 23 28 
f 14 27 28 
f 15 16 29 
f 16 22 29 
f 22 25 29 
f 20 25 30 
f 25 22 30 
f 22 24 31 
f 23 20 32 
f 24 23 32 
f 21 18 33 
f 27 21 33 
f 16 15 34 
f 15 17 34 
f 17 19 34 
f 14 23 35 
f 23 24 35 
f 24 14 35 
f 19 16 36 
f 16 34 36 
f 34 19 36 
f 20 31 37 
f 31 24 37 
f 32 20 37 
f 24 32 37 
f 18 28 38 
f 28 27 38 
f 33 18 38 
f 27 33 38 
f 23 14 39 
f 14 28 39 
f 28 23 39 
f 25 15 40 
f 15 29 40 
f 29 25 40 
f 20 30 41 
f 30 22 41 
f 31 20 41 
o convex_2
v -0.001642 -0.090188 0.009582
v -0.008406 -0.080419 0.004323
v -0.008406 -0.080419 0.009582
v 0.001740 -0.082672 0.006952
v -0.006526 -0.089434 0.003946
v 0.001740 -0.089058 0.003946
v -0.004270 -0.076284 0.003946
v -0.004270 -0.076284 0.009582
v -0.007654 -0.087931 0.009582
v 0.001740 -0.089058 0.009582
v -0.008406 -0.076284 0.003946
v -0.008406 -0.076284 0.009582
v 0.001740 -0.084174 0.003946
v 0.001740 -0.084174 0.009582
v -0.002770 -0.076284 0.006201
v -0.008029 -0.086804 0.003946
v -0.001642 -0.090188 0.003946
v -0.005022 -0.090188 0.009582
v -0.002770 -0.076284 0.007327
v -0.005022 -0.090188 0.003946
v -0.008029 -0.086804 0.009582
v 0.001364 -0.089434 0.009582
f 58 47 63 
f 47 46 48 
f 44 42 49 
f 42 44 50 
f 47 45 51 
f 49 42 51 
f 43 44 52 
f 48 46 52 
f 49 48 52 
f 49 52 53 
f 44 49 53 
f 52 44 53 
f 45 47 54 
f 47 48 54 
f 51 45 55 
f 49 51 55 
f 48 49 56 
f 45 54 56 
f 54 48 56 
f 44 43 57 
f 46 50 57 
f 43 52 57 
f 52 46 57 
f 46 47 58 
f 42 50 59 
f 50 46 59 
f 58 42 59 
f 55 45 60 
f 49 55 60 
f 56 49 60 
f 45 56 60 
f 46 58 61 
f 59 46 61 
f 58 59 61 
f 50 44 62 
f 44 57 62 
f 57 50 62 
f 47 51 63 
f 51 42 63 
f 42 58 63 
o convex_3
v 0.011510 -0.082671 0.009582
v 0.001740 -0.089061 0.003946
v 0.002492 -0.089061 0.003946
v 0.007376 -0.074405 0.003946
v 0.001740 -0.084174 0.009582
v 0.011886 -0.081546 0.003946
v 0.012638 -0.074405 0.009582
v 0.005876 -0.087932 0.009582
v 0.007376 -0.074405 0.009582
v 0.012638 -0.074405 0.003946
v 0.001740 -0.082671 0.006201
v 0.008502 -0.086428 0.003946
v 0.001740 -0.089061 0.009582
v 0.006251 -0.074405 0.007703
v 0.001740 -0.084174 0.003946
v 0.012261 -0.080419 0.009582
v 0.008502 -0.086428 0.009582
v 0.006251 -0.074405 0.005825
v 0.010006 -0.084926 0.003946
v 0.012638 -0.077037 0.003946
v 0.005876 -0.087932 0.003946
f 75 71 84 
f 66 65 67 
f 66 67 69 
f 68 64 70 
f 64 68 71 
f 70 67 72 
f 68 70 72 
f 69 67 73 
f 67 70 73 
f 65 68 74 
f 66 69 75 
f 65 66 76 
f 68 65 76 
f 66 71 76 
f 71 68 76 
f 72 67 77 
f 68 72 77 
f 74 68 77 
f 67 65 78 
f 65 74 78 
f 64 69 79 
f 70 64 79 
f 64 71 80 
f 71 75 80 
f 77 67 81 
f 74 77 81 
f 67 78 81 
f 78 74 81 
f 69 64 82 
f 75 69 82 
f 64 80 82 
f 80 75 82 
f 69 73 83 
f 73 70 83 
f 79 69 83 
f 70 79 83 
f 71 66 84 
f 66 75 84 
o convex_4
v 0.005122 0.001879 0.008079
v -0.006903 0.022544 0.003946
v -0.006903 0.022544 0.009582
v 0.005498 0.023299 0.003946
v -0.005775 0.001879 0.003946
v 0.005498 0.023299 0.009582
v -0.005775 0.001879 0.009582
v 0.005498 0.003760 0.003946
v 0.005498 0.003382 0.009582
v -0.006903 0.023299 0.009582
v 0.005498 0.001879 0.005825
v -0.006903 0.023299 0.003946
v -0.000139 0.001879 0.003946
v 0.000236 0.001879 0.009582
f 93 91 98 
f 87 86 89 
f 86 88 89 
f 89 85 91 
f 87 89 91 
f 90 87 91 
f 89 88 92 
f 88 90 92 
f 92 90 93 
f 90 91 93 
f 86 87 94 
f 87 90 94 
f 90 88 94 
f 85 89 95 
f 92 93 95 
f 93 85 95 
f 88 86 96 
f 86 94 96 
f 94 88 96 
f 89 92 97 
f 95 89 97 
f 92 95 97 
f 91 85 98 
f 85 93 98 
o convex_5
v -0.021932 0.078163 0.005449
v -0.029072 0.054864 0.005449
v -0.029072 0.054864 0.007704
v -0.012164 0.054864 0.005073
v -0.012164 0.057122 0.008079
v -0.020433 0.078163 0.007704
v -0.026065 0.069891 0.007704
v -0.020057 0.077408 0.005449
v -0.027568 0.065387 0.005449
v -0.017051 0.054864 0.008079
v -0.013670 0.060504 0.005073
v -0.022684 0.077787 0.007704
v -0.028695 0.060504 0.007704
v -0.023811 0.075531 0.005449
v -0.012164 0.054864 0.008079
v -0.015548 0.063884 0.008079
v -0.016676 0.056744 0.005073
v -0.012164 0.057122 0.005073
v -0.029072 0.057496 0.005449
f 107 115 117 
f 101 100 102 
f 104 103 106 
f 99 104 106 
f 101 102 108 
f 99 106 109 
f 104 99 110 
f 105 107 111 
f 101 108 111 
f 107 105 112 
f 110 99 112 
f 105 110 112 
f 102 103 113 
f 108 102 113 
f 103 108 113 
f 103 104 114 
f 108 103 114 
f 104 110 114 
f 110 105 114 
f 105 111 114 
f 111 108 114 
f 102 100 115 
f 109 102 115 
f 99 109 115 
f 107 112 115 
f 112 99 115 
f 103 102 116 
f 106 103 116 
f 102 109 116 
f 109 106 116 
f 100 101 117 
f 101 111 117 
f 111 107 117 
f 115 100 117 
o convex_6
v 0.010383 0.040960 0.008454
v 0.007377 0.023299 0.003946
v 0.014515 0.023299 0.003946
v 0.007377 0.023299 0.009581
v 0.021281 0.040583 0.010334
v 0.021281 0.040960 0.003570
v 0.007377 0.039456 0.005449
v 0.014515 0.023299 0.009581
v 0.012263 0.040960 0.003194
v 0.012263 0.040960 0.010710
v 0.007377 0.039456 0.008454
v 0.007377 0.027057 0.009958
v 0.016769 0.040960 0.010710
v 0.017145 0.040583 0.003194
v 0.007377 0.027809 0.003946
v 0.021281 0.040583 0.003570
v 0.011889 0.039081 0.003194
v 0.013014 0.039081 0.010710
v 0.021281 0.040960 0.010334
v 0.007377 0.039830 0.005825
f 124 128 137 
f 119 120 121 
f 119 121 124 
f 121 120 125 
f 120 122 125 
f 118 123 126 
f 123 118 127 
f 124 121 128 
f 127 118 128 
f 127 128 129 
f 121 125 129 
f 128 121 129 
f 125 122 130 
f 123 127 130 
f 126 123 131 
f 119 124 132 
f 124 126 132 
f 122 120 133 
f 123 122 133 
f 120 131 133 
f 131 123 133 
f 120 119 134 
f 131 120 134 
f 126 131 134 
f 119 132 134 
f 132 126 134 
f 127 129 135 
f 129 125 135 
f 125 130 135 
f 130 127 135 
f 122 123 136 
f 130 122 136 
f 123 130 136 
f 118 126 137 
f 126 124 137 
f 128 118 137 
o convex_7
v 0.028044 0.068766 0.014092
v 0.007377 0.041714 0.004699
v 0.007377 0.041714 0.008455
v 0.007377 0.062001 -0.000188
v 0.028795 0.055613 0.000940
v 0.007377 0.062001 0.014092
v 0.021279 0.040960 0.010333
v 0.028044 0.068766 -0.000188
v 0.015271 0.068768 0.014092
v 0.029172 0.058621 0.013716
v 0.017899 0.040960 0.003195
v 0.010383 0.050359 0.014092
v 0.010383 0.050359 -0.000188
v 0.015271 0.068768 -0.000188
v 0.021279 0.040960 0.003571
v 0.026917 0.056740 -0.000188
v 0.007377 0.043595 0.011085
v 0.007377 0.045095 0.001692
v 0.027668 0.052986 0.012210
v 0.026917 0.056740 0.014092
v 0.012263 0.040960 0.010708
v 0.028795 0.065385 -0.000188
v 0.022783 0.043217 0.003195
v 0.012263 0.040960 0.003195
v 0.007377 0.055237 0.014092
v 0.029172 0.058994 0.000188
v 0.028795 0.065385 0.014092
v 0.028795 0.055613 0.012964
v 0.007377 0.055237 -0.000188
v 0.022783 0.043217 0.010708
v 0.011512 0.050359 0.014092
v 0.012263 0.041339 0.011085
v 0.011512 0.050359 -0.000188
v 0.012263 0.041339 0.002819
v 0.029172 0.056740 0.004699
v 0.027293 0.052235 0.001692
v 0.021279 0.042090 0.003195
v 0.029172 0.060123 0.013716
v 0.010761 0.040960 0.008455
v 0.028419 0.067639 -0.000188
v 0.017899 0.040960 0.010708
v 0.007755 0.062377 0.014092
v 0.022032 0.042466 0.010708
f 168 178 180 
f 139 140 141 
f 141 140 143 
f 143 138 146 
f 138 145 146 
f 138 143 149 
f 141 145 150 
f 145 141 151 
f 146 145 151 
f 144 148 152 
f 150 145 153 
f 143 140 154 
f 139 141 155 
f 138 149 157 
f 148 144 158 
f 154 140 158 
f 153 145 159 
f 144 152 160 
f 153 142 160 
f 148 158 161 
f 149 143 162 
f 143 154 162 
f 154 149 162 
f 142 153 163 
f 153 159 163 
f 138 157 164 
f 157 147 164 
f 156 142 165 
f 147 157 165 
f 141 150 166 
f 155 141 166 
f 150 155 166 
f 144 160 167 
f 156 165 167 
f 165 157 167 
f 157 149 168 
f 149 154 169 
f 154 158 169 
f 168 149 169 
f 150 153 170 
f 139 155 171 
f 155 150 171 
f 161 139 171 
f 148 161 171 
f 170 148 171 
f 150 170 171 
f 142 163 172 
f 163 147 172 
f 165 142 172 
f 147 165 172 
f 142 156 173 
f 160 142 173 
f 167 160 173 
f 156 167 173 
f 152 148 174 
f 160 152 174 
f 153 160 174 
f 148 170 174 
f 170 153 174 
f 147 163 175 
f 163 159 175 
f 159 164 175 
f 164 147 175 
f 140 139 176 
f 158 140 176 
f 139 161 176 
f 161 158 176 
f 145 138 177 
f 159 145 177 
f 164 159 177 
f 138 164 177 
f 158 144 178 
f 169 158 178 
f 168 169 178 
f 141 143 179 
f 143 146 179 
f 151 141 179 
f 146 151 179 
f 144 167 180 
f 167 157 180 
f 157 168 180 
f 178 144 180 
o convex_8
v -0.008406 -0.043976 0.003946
v -0.004272 -0.021044 0.009582
v -0.004272 -0.021044 0.003946
v -0.004272 -0.076284 0.009582
v -0.007278 -0.021795 0.009582
v -0.008406 -0.076284 0.003946
v -0.008406 -0.076284 0.009582
v -0.004272 -0.076284 0.003946
v -0.007278 -0.021795 0.003946
v -0.008406 -0.043976 0.009582
v -0.006902 -0.021044 0.003946
v -0.006902 -0.021044 0.009582
f 191 185 192 
f 183 182 184 
f 184 182 185 
f 181 183 186 
f 184 185 187 
f 181 186 187 
f 186 184 187 
f 183 184 188 
f 186 183 188 
f 184 186 188 
f 183 181 189 
f 181 185 189 
f 185 181 190 
f 181 187 190 
f 187 185 190 
f 182 183 191 
f 183 189 191 
f 189 185 191 
f 185 182 192 
f 182 191 192 
o convex_9
v 0.013013 -0.067637 0.003946
v 0.013765 -0.021054 0.009582
v 0.008880 -0.021054 0.009582
v 0.008880 -0.074400 0.009582
v 0.008880 -0.021054 0.003946
v 0.013765 -0.021054 0.003946
v 0.008880 -0.074400 0.003946
v 0.012638 -0.074400 0.009582
v 0.013765 -0.049223 0.009582
v 0.012638 -0.074400 0.003946
v 0.013765 -0.049223 0.003946
v 0.013013 -0.067637 0.009582
f 201 200 204 
f 194 195 196 
f 195 194 197 
f 196 195 197 
f 193 197 198 
f 197 194 198 
f 197 193 199 
f 196 197 199 
f 194 196 200 
f 196 199 200 
f 198 194 201 
f 194 200 201 
f 199 193 202 
f 193 200 202 
f 200 199 202 
f 193 198 203 
f 198 201 203 
f 201 193 203 
f 200 193 204 
f 193 201 204 
o convex_10
v -0.000514 0.001879 0.009582
v -0.006903 -0.021044 0.003946
v -0.002394 -0.021044 0.003946
v -0.006903 -0.021044 0.009582
v -0.006151 0.001879 0.003946
v -0.006151 0.001879 0.009582
v -0.000514 0.001879 0.003946
v -0.000514 -0.021044 0.007327
v -0.002018 -0.021044 0.009582
v -0.006903 -0.013902 0.009582
v -0.000514 -0.021044 0.006576
v -0.006903 -0.013902 0.003946
v -0.002018 -0.020665 0.003946
f 211 215 217 
f 206 207 208 
f 207 206 209 
f 208 205 210 
f 205 209 210 
f 209 205 211 
f 207 209 211 
f 208 207 212 
f 211 205 212 
f 205 208 213 
f 208 212 213 
f 212 205 213 
f 206 208 214 
f 208 210 214 
f 210 209 214 
f 212 207 215 
f 211 212 215 
f 209 206 216 
f 206 214 216 
f 214 209 216 
f 207 211 217 
f 215 207 217 
o convex_11
v -0.016674 0.039084 -0.000188
v -0.029072 0.049226 0.005448
v -0.028697 0.046594 -0.000188
v -0.012164 0.054487 -0.000188
v -0.012164 0.031942 0.008831
v -0.012164 0.054487 0.008831
v -0.028321 0.040962 0.008831
v -0.029072 0.054864 0.007702
v -0.012541 0.031942 0.003194
v -0.026442 0.037957 0.005448
v -0.022309 0.039461 0.000188
v -0.029072 0.054864 0.005448
v -0.012164 0.040962 -0.000188
v -0.027194 0.049226 -0.000188
v -0.027194 0.049226 0.008831
v -0.026442 0.037957 0.007702
v -0.012164 0.054864 0.005073
v -0.028697 0.041713 0.004697
v -0.027945 0.039835 0.004697
v -0.012164 0.032319 0.002820
v -0.013293 0.054487 -0.000188
v -0.023812 0.040962 -0.000188
v -0.028697 0.041713 0.008455
v -0.021183 0.038332 0.000564
v -0.012164 0.054864 0.008079
v -0.012541 0.031942 0.008831
v -0.028697 0.047722 0.008831
v -0.028697 0.047722 -0.000188
v -0.018929 0.039084 -0.000188
v -0.027945 0.039835 0.008455
f 233 243 247 
f 218 220 221 
f 222 221 223 
f 222 223 224 
f 220 219 229 
f 219 225 229 
f 218 221 230 
f 221 222 230 
f 221 220 231 
f 224 223 232 
f 223 225 232 
f 227 226 233 
f 223 221 234 
f 229 225 234 
f 219 220 235 
f 227 233 236 
f 235 220 236 
f 222 226 237 
f 218 230 237 
f 230 222 237 
f 221 231 238 
f 231 229 238 
f 234 221 238 
f 229 234 238 
f 220 218 239 
f 228 227 239 
f 227 236 239 
f 236 220 239 
f 225 219 240 
f 219 235 240 
f 235 236 240 
f 226 227 241 
f 227 228 241 
f 237 226 241 
f 225 223 242 
f 223 234 242 
f 234 225 242 
f 222 224 243 
f 226 222 243 
f 233 226 243 
f 224 232 244 
f 232 225 244 
f 240 224 244 
f 225 240 244 
f 220 229 245 
f 231 220 245 
f 229 231 245 
f 218 237 246 
f 239 218 246 
f 228 239 246 
f 241 228 246 
f 237 241 246 
f 236 233 247 
f 224 240 247 
f 240 236 247 
f 243 224 247 
o convex_12
v -0.017051 0.039086 0.014091
v -0.028697 0.046596 0.008831
v -0.028697 0.046596 0.014091
v -0.012164 0.054489 0.008831
v -0.012164 0.031942 0.008831
v -0.012164 0.054489 0.014091
v -0.012164 0.040964 0.014091
v -0.027193 0.049225 0.014091
v -0.020430 0.037578 0.012964
v -0.027193 0.049225 0.008831
v -0.012542 0.032319 0.011086
v -0.020430 0.037578 0.008831
v -0.013293 0.054489 0.014091
v -0.025690 0.042842 0.014091
v -0.013293 0.054489 0.008831
v -0.025690 0.042842 0.008831
v -0.028697 0.047722 0.008831
v -0.013669 0.032696 0.011086
v -0.018930 0.039086 0.014091
v -0.028319 0.045844 0.014091
v -0.028697 0.047722 0.014091
f 255 264 268 
f 249 251 252 
f 250 248 253 
f 252 251 253 
f 252 253 254 
f 253 248 254 
f 250 253 255 
f 251 249 257 
f 252 254 258 
f 254 248 258 
f 249 252 259 
f 253 251 260 
f 255 253 260 
f 257 255 260 
f 248 250 261 
f 259 256 261 
f 251 257 262 
f 260 251 262 
f 257 260 262 
f 249 259 263 
f 259 261 263 
f 249 250 264 
f 257 249 264 
f 255 257 264 
f 252 258 265 
f 258 256 265 
f 259 252 265 
f 256 259 265 
f 258 248 266 
f 256 258 266 
f 248 261 266 
f 261 256 266 
f 250 249 267 
f 261 250 267 
f 249 263 267 
f 263 261 267 
f 250 255 268 
f 264 250 268 
o convex_13
v 0.000612 0.024051 0.009958
v -0.009157 0.028559 0.003571
v -0.009157 0.028935 0.003571
v 0.007377 0.023299 0.003946
v 0.007377 0.028935 0.008830
v -0.009157 0.028935 0.009958
v -0.006901 0.023299 0.003946
v 0.007377 0.028935 0.004698
v -0.006901 0.023299 0.009958
v 0.007377 0.023299 0.009582
v 0.007377 0.027432 0.009958
v 0.007377 0.027807 0.003946
v -0.009157 0.028183 0.009958
v -0.000515 0.028935 0.009958
v -0.007277 0.023675 0.005825
f 277 281 283 
f 270 271 272 
f 273 271 274 
f 271 270 274 
f 270 272 275 
f 273 272 276 
f 271 273 276 
f 269 274 277 
f 275 272 277 
f 272 273 278 
f 269 277 278 
f 277 272 278 
f 274 269 279 
f 269 278 279 
f 278 273 279 
f 272 271 280 
f 271 276 280 
f 276 272 280 
f 274 270 281 
f 277 274 281 
f 273 274 282 
f 279 273 282 
f 274 279 282 
f 270 275 283 
f 275 277 283 
f 281 270 283 
o convex_14
v 0.007377 0.035699 0.008455
v -0.012164 0.034195 0.002443
v -0.012164 0.035699 0.002443
v -0.012164 0.035699 0.011461
v 0.007377 0.028935 0.008831
v -0.009532 0.028935 0.010334
v 0.007377 0.028935 0.005073
v -0.009532 0.028935 0.003571
v 0.007377 0.035699 0.005449
v -0.001644 0.034195 0.010709
v -0.001644 0.033820 0.003195
v -0.012164 0.031566 0.010709
v -0.012164 0.031566 0.003195
v -0.000515 0.028935 0.003946
v -0.000515 0.028935 0.009958
v -0.001644 0.035699 0.003195
v -0.001644 0.035699 0.010709
v -0.010283 0.034947 0.011461
v -0.009157 0.035323 0.002443
f 299 294 302 
f 286 285 287 
f 284 286 287 
f 284 288 290 
f 288 289 290 
f 290 289 291 
f 286 284 292 
f 284 290 292 
f 287 285 295 
f 291 289 295 
f 291 295 296 
f 285 291 296 
f 295 285 296 
f 290 291 297 
f 291 285 297 
f 294 290 297 
f 289 288 298 
f 288 293 298 
f 286 292 299 
f 292 290 299 
f 290 294 299 
f 284 287 300 
f 288 284 300 
f 293 288 300 
f 293 300 301 
f 287 295 301 
f 295 289 301 
f 289 298 301 
f 298 293 301 
f 300 287 301 
f 285 286 302 
f 297 285 302 
f 294 297 302 
f 286 299 302 
o convex_15
v -0.012164 0.035699 0.002444
v -0.000514 0.058998 0.014092
v -0.000514 0.058998 -0.000188
v -0.000514 0.035699 0.009205
v -0.012164 0.054861 0.014092
v -0.012164 0.054861 -0.000188
v -0.012164 0.041339 0.014092
v -0.000514 0.042090 0.001316
v -0.012164 0.057119 0.005075
v -0.011035 0.041339 -0.000188
v -0.012164 0.035699 0.011461
v -0.005024 0.043969 0.014092
v -0.001642 0.035699 0.003195
v -0.001642 0.035699 0.010708
v -0.000514 0.052608 0.014092
v -0.005024 0.043969 -0.000188
v -0.012164 0.057119 0.006952
v -0.001267 0.058998 0.014092
v -0.000514 0.052608 -0.000188
v -0.012164 0.041339 -0.000188
v -0.001267 0.058998 -0.000188
v -0.000514 0.035699 0.004699
v -0.008030 0.035699 0.002444
v -0.008780 0.035699 0.011461
v -0.000514 0.040210 0.011085
v -0.011411 0.041339 0.014092
f 326 316 328 
f 305 304 306 
f 303 307 308 
f 307 303 309 
f 304 307 309 
f 305 306 310 
f 308 307 311 
f 308 305 312 
f 303 306 313 
f 309 303 313 
f 304 309 314 
f 306 303 315 
f 313 306 316 
f 314 316 317 
f 306 304 317 
f 304 314 317 
f 312 305 318 
f 310 315 318 
f 315 312 318 
f 311 307 319 
f 311 319 320 
f 304 305 320 
f 307 304 320 
f 319 307 320 
f 305 310 321 
f 318 305 321 
f 310 318 321 
f 303 308 322 
f 312 303 322 
f 308 312 322 
f 305 308 323 
f 308 311 323 
f 311 320 323 
f 320 305 323 
f 310 306 324 
f 306 315 324 
f 315 310 324 
f 303 312 325 
f 315 303 325 
f 312 315 325 
f 309 313 326 
f 313 316 326 
f 316 306 327 
f 317 316 327 
f 306 317 327 
f 314 309 328 
f 316 314 328 
f 309 326 328 
o convex_16
v 0.001740 -0.054482 0.010334
v -0.004272 -0.076284 0.006200
v -0.002769 -0.076284 0.006200
v -0.004272 -0.021044 0.006200
v -0.003521 -0.074402 0.010334
v 0.001740 -0.074029 0.006576
v -0.004272 -0.021044 0.009582
v 0.001740 -0.025553 0.006576
v 0.001740 -0.027435 0.009958
v 0.001740 -0.072526 0.010334
v 0.000989 -0.021044 0.007328
v -0.004272 -0.076284 0.009206
v -0.003145 -0.055239 0.010334
v -0.001266 -0.021044 0.006200
v -0.002018 -0.021044 0.009582
v -0.002769 -0.028938 0.009958
v 0.001740 -0.073272 0.009958
v -0.004272 -0.075148 0.009582
v -0.002393 -0.076284 0.007328
f 345 340 347 
f 331 330 332 
f 332 330 335 
f 329 334 336 
f 329 336 337 
f 329 333 338 
f 334 329 338 
f 332 335 339 
f 337 336 339 
f 330 331 340 
f 335 330 340 
f 333 329 341 
f 335 333 341 
f 329 337 341 
f 331 332 342 
f 334 331 342 
f 336 334 342 
f 332 339 342 
f 339 336 342 
f 335 337 343 
f 339 335 343 
f 337 339 343 
f 337 335 344 
f 335 341 344 
f 341 337 344 
f 338 333 345 
f 334 338 345 
f 333 340 345 
f 333 335 346 
f 335 340 346 
f 340 333 346 
f 331 334 347 
f 340 331 347 
f 334 345 347 
o convex_17
v 0.005498 -0.072520 0.006576
v 0.008128 -0.053733 0.010334
v 0.006250 -0.053733 0.010334
v 0.008880 -0.025180 0.002819
v 0.008880 -0.074400 0.003946
v 0.005498 -0.025938 0.002818
v 0.008880 -0.024804 0.009958
v 0.005498 -0.025562 0.009957
v 0.005498 -0.071768 0.002818
v 0.008880 -0.074400 0.009582
v 0.005498 -0.071015 0.010334
v 0.005874 -0.021054 0.006576
v 0.007753 -0.070639 0.002818
v 0.008880 -0.021044 0.008830
v 0.006250 -0.074400 0.007703
v 0.008880 -0.021044 0.005074
v 0.008880 -0.048850 0.002819
v 0.007377 -0.069511 0.010334
v 0.007377 -0.074400 0.003946
v 0.005874 -0.021054 0.007327
v 0.007377 -0.074400 0.009582
f 358 362 368 
f 350 349 354 
f 352 351 354 
f 353 348 355 
f 350 354 355 
f 348 353 356 
f 354 349 357 
f 352 354 357 
f 349 350 358 
f 355 348 358 
f 350 355 358 
f 353 355 359 
f 353 351 360 
f 352 356 360 
f 356 353 360 
f 354 351 361 
f 355 354 361 
f 348 356 362 
f 352 357 362 
f 358 348 362 
f 351 353 363 
f 353 359 363 
f 361 351 363 
f 359 361 363 
f 351 352 364 
f 360 351 364 
f 352 360 364 
f 357 349 365 
f 349 358 365 
f 358 357 365 
f 356 352 366 
f 362 356 366 
f 352 362 366 
f 359 355 367 
f 355 361 367 
f 361 359 367 
f 357 358 368 
f 362 357 368 
o convex_18
v 0.005498 -0.002255 0.007328
v -0.000514 -0.021044 0.006576
v 0.000989 -0.021044 0.006576
v 0.005498 -0.002255 0.006576
v -0.000514 -0.002255 0.006576
v -0.000514 -0.021044 0.007328
v -0.000514 -0.002255 0.007328
v 0.005498 -0.008271 0.007328
v 0.005498 -0.008271 0.006576
v 0.000989 -0.021044 0.007328
f 376 374 378 
f 371 370 372 
f 369 372 373 
f 372 370 373 
f 373 370 374 
f 370 371 374 
f 369 373 375 
f 373 374 375 
f 374 369 375 
f 372 369 376 
f 369 374 376 
f 371 372 377 
f 376 371 377 
f 372 376 377 
f 374 371 378 
f 371 376 378 
o convex_19
v 0.005122 0.001879 0.007703
v -0.000514 0.001503 0.004322
v -0.000514 0.001879 0.004322
v -0.000514 0.001879 0.009207
v 0.005498 -0.002255 0.006577
v -0.000514 -0.002255 0.007327
v 0.005498 0.001879 0.006201
v 0.005498 -0.002255 0.007327
v -0.000514 -0.002255 0.006201
v 0.000238 0.001503 0.009207
f 384 386 388 
f 381 380 382 
f 379 381 382 
f 382 380 384 
f 381 379 385 
f 380 381 385 
f 383 380 385 
f 383 385 386 
f 384 383 386 
f 385 379 386 
f 380 383 387 
f 384 380 387 
f 383 384 387 
f 379 382 388 
f 382 384 388 
f 386 379 388 
o convex_20
v 0.003618 0.060877 0.002070
v 0.007001 0.051106 0.003947
v -0.000514 0.051483 0.000940
v -0.000514 0.058997 0.014092
v 0.007377 0.062004 0.014092
v -0.000138 0.051483 0.013340
v 0.007377 0.062004 -0.000188
v 0.007377 0.053737 0.013340
v -0.000514 0.058997 -0.000188
v 0.007377 0.055242 -0.000188
v 0.007377 0.051106 0.009580
v -0.000514 0.052611 0.014092
v 0.000237 0.052611 -0.000188
v -0.000514 0.051106 0.008831
v 0.007377 0.055242 0.014092
v -0.000138 0.059374 0.014092
v 0.007377 0.053737 0.000564
v 0.006625 0.062004 0.003947
v 0.000613 0.059749 -0.000188
v 0.004745 0.061251 0.014092
v -0.000514 0.051106 0.004699
f 390 402 409 
f 395 393 396 
f 391 392 397 
f 397 395 398 
f 395 396 398 
f 398 396 399 
f 396 394 399 
f 392 391 400 
f 393 392 400 
f 394 396 400 
f 391 397 401 
f 397 398 401 
f 390 399 402 
f 399 394 402 
f 400 391 402 
f 394 400 402 
f 396 393 403 
f 393 400 403 
f 400 396 403 
f 392 393 404 
f 397 392 404 
f 390 391 405 
f 398 399 405 
f 399 390 405 
f 391 401 405 
f 401 398 405 
f 393 395 406 
f 395 397 407 
f 397 404 407 
f 389 406 407 
f 406 395 407 
f 404 393 408 
f 406 389 408 
f 393 406 408 
f 389 407 408 
f 407 404 408 
f 391 390 409 
f 402 391 409 
o convex_21
v 0.001740 -0.025557 0.006576
v 0.005498 -0.054108 0.010334
v 0.005498 -0.025934 0.009958
v 0.005498 -0.072522 0.006576
v 0.001740 -0.072522 0.010334
v 0.001740 -0.074029 0.006576
v 0.005498 -0.024050 0.006576
v 0.001740 -0.027059 0.009958
v 0.005498 -0.071392 0.010334
v 0.001740 -0.054485 0.010334
v 0.002116 -0.073276 0.009958
f 418 414 420 
f 412 411 413 
f 410 413 415 
f 414 410 415 
f 412 413 416 
f 413 410 416 
f 410 414 417 
f 416 410 417 
f 412 416 417 
f 413 411 418 
f 411 414 418 
f 411 412 419 
f 414 411 419 
f 412 417 419 
f 417 414 419 
f 415 413 420 
f 414 415 420 
f 413 418 420 
o convex_22
v 0.007377 0.037954 0.008455
v -0.000514 0.035699 0.005073
v -0.000514 0.037202 0.005073
v -0.000514 0.035699 0.008831
v 0.007377 0.035699 0.005449
v 0.007377 0.037954 0.005449
v 0.007377 0.035699 0.008455
v 0.002869 0.037954 0.008455
v -0.000514 0.037202 0.008831
v 0.002869 0.037954 0.005449
f 428 426 430 
f 423 422 424 
f 422 423 425 
f 424 422 425 
f 421 425 426 
f 425 423 426 
f 421 424 427 
f 425 421 427 
f 424 425 427 
f 421 426 428 
f 423 424 429 
f 424 421 429 
f 428 423 429 
f 421 428 429 
f 426 423 430 
f 423 428 430 
o convex_23
v -0.000514 0.039834 0.003196
v 0.006249 0.048098 0.011836
v 0.005874 0.048098 0.011836
v 0.007377 0.051106 0.003572
v 0.007377 0.037954 0.005450
v -0.000514 0.045093 0.011836
v -0.000514 0.051106 0.004698
v 0.007377 0.046219 0.001316
v -0.000514 0.039082 0.009581
v 0.007377 0.043968 0.011460
v 0.007377 0.051106 0.009957
v -0.000138 0.045845 0.001692
v -0.000514 0.051106 0.008454
v 0.007377 0.037954 0.008454
v -0.000514 0.041336 0.001692
v 0.000989 0.042089 0.011836
v -0.000514 0.038331 0.006577
v 0.006249 0.048851 0.001692
v 0.006625 0.043968 0.001692
v 0.000613 0.040587 0.002068
v 0.000613 0.045093 0.001316
v 0.003994 0.037954 0.005450
v 0.007377 0.049979 0.011084
v -0.000514 0.038331 0.008454
v 0.000613 0.040587 0.011084
v 0.007001 0.044716 0.011836
v -0.000514 0.046595 0.002068
v 0.005498 0.048851 0.011460
f 453 443 458 
f 432 433 436 
f 431 436 437 
f 434 435 438 
f 436 431 439 
f 435 434 440 
f 434 437 441 
f 440 434 441 
f 437 436 443 
f 441 437 443 
f 435 440 444 
f 431 437 445 
f 432 436 446 
f 444 440 446 
f 439 431 447 
f 437 434 448 
f 434 438 448 
f 438 435 449 
f 445 438 449 
f 445 449 450 
f 431 445 450 
f 449 435 450 
f 438 445 451 
f 445 442 451 
f 448 438 451 
f 442 448 451 
f 435 444 452 
f 447 431 452 
f 431 450 452 
f 450 435 452 
f 433 432 453 
f 440 441 453 
f 441 443 453 
f 444 439 454 
f 439 447 454 
f 452 444 454 
f 447 452 454 
f 436 439 455 
f 439 444 455 
f 446 436 455 
f 444 446 455 
f 432 446 456 
f 446 440 456 
f 453 432 456 
f 440 453 456 
f 445 437 457 
f 442 445 457 
f 437 448 457 
f 448 442 457 
f 436 433 458 
f 443 436 458 
f 433 453 458 
o convex_24
v -0.003520 -0.076277 0.004697
v -0.001642 -0.021044 0.006200
v -0.004272 -0.021044 0.006200
v -0.001266 -0.028560 0.002819
v -0.002393 -0.074023 0.006200
v -0.003896 -0.074774 0.002819
v -0.001266 -0.065761 0.002819
v -0.004272 -0.021044 0.003946
v -0.004272 -0.076277 0.006200
v -0.001266 -0.028192 0.006200
v -0.003521 -0.036454 0.002819
v -0.002393 -0.074774 0.002819
v -0.004272 -0.073650 0.003946
v -0.002393 -0.021044 0.003946
v -0.001266 -0.065761 0.003195
v -0.003145 -0.030068 0.002819
v -0.003896 -0.049599 0.002819
f 471 466 475 
f 460 461 463 
f 464 462 465 
f 461 460 466 
f 459 463 467 
f 463 461 467 
f 464 459 467 
f 461 466 467 
f 462 460 468 
f 460 463 468 
f 465 462 468 
f 462 464 469 
f 463 459 470 
f 459 464 470 
f 464 465 470 
f 464 467 471 
f 467 466 471 
f 460 462 472 
f 466 460 472 
f 462 466 472 
f 468 463 473 
f 465 468 473 
f 463 470 473 
f 470 465 473 
f 466 462 474 
f 462 469 474 
f 469 466 474 
f 469 464 475 
f 466 469 475 
f 464 471 475 
o convex_25
v 0.003619 -0.072150 0.006200
v -0.002393 -0.074779 0.003195
v -0.002393 -0.074779 0.003946
v -0.002393 -0.065763 0.003195
v 0.005498 -0.071775 0.002819
v -0.002393 -0.073651 0.006200
v 0.005498 -0.070647 0.006200
v 0.001740 -0.065763 0.002819
v -0.002393 -0.074403 0.002819
v 0.005498 -0.070271 0.002819
v -0.002393 -0.065763 0.002819
v 0.005122 -0.072150 0.003946
v -0.002016 -0.074403 0.005824
f 478 487 488 
f 477 478 479 
f 479 478 481 
f 479 481 482 
f 481 476 482 
f 479 482 483 
f 477 479 484 
f 480 477 484 
f 483 480 484 
f 482 480 485 
f 480 483 485 
f 483 482 485 
f 479 483 486 
f 484 479 486 
f 483 484 486 
f 478 477 487 
f 477 480 487 
f 482 476 487 
f 480 482 487 
f 476 481 488 
f 481 478 488 
f 487 476 488 
o convex_26
v -0.001265 -0.028935 0.003571
v 0.005497 -0.025178 0.006200
v 0.005497 -0.025178 0.004322
v 0.005497 -0.027807 0.003195
v -0.001265 -0.027807 0.006200
v -0.000889 -0.028183 0.002819
v -0.000889 -0.027056 0.005824
v 0.005497 -0.025929 0.002819
v 0.001741 -0.028935 0.002819
v -0.000138 -0.027807 0.006200
f 489 497 498 
f 491 490 492 
f 489 493 494 
f 494 493 495 
f 490 491 495 
f 493 490 495 
f 491 494 495 
f 491 492 496 
f 494 491 496 
f 494 496 497 
f 489 494 497 
f 496 492 497 
f 497 492 498 
f 492 490 498 
f 493 489 498 
f 490 493 498 
o convex_27
v 0.005497 -0.027808 0.003194
v -0.001265 -0.065757 0.002818
v 0.001741 -0.070271 0.002818
v -0.001265 -0.065757 0.003194
v -0.001265 -0.028943 0.002818
v 0.005497 -0.070271 0.002818
v 0.005497 -0.070271 0.003194
v 0.005497 -0.027808 0.002818
v -0.001265 -0.028943 0.003194
f 503 502 507 
f 500 501 502 
f 501 500 503 
f 500 502 503 
f 501 503 504 
f 502 501 505 
f 499 502 505 
f 501 504 505 
f 504 499 505 
f 503 499 506 
f 499 504 506 
f 504 503 506 
f 502 499 507 
f 499 503 507 
