o convex_0
v 0.007034 0.041724 0.006820
v -0.008211 -0.051887 0.001472
v 0.005696 -0.051887 0.001472
v 0.007034 0.041724 0.001472
v -0.007942 0.041724 0.001472
v -0.008211 -0.051887 0.006552
v -0.007942 0.041724 0.006820
v 0.005696 -0.051887 0.006552
v 0.006766 0.017386 0.006820
v 0.007034 0.032093 0.001472
v -0.007942 0.021116 0.006820
v 0.005964 0.009075 0.006820
v 0.007034 0.032359 0.006820
v -0.008211 -0.048937 0.003879
f 6 7 14 
f 3 2 4 
f 1 4 5 
f 4 2 5 
f 2 3 6 
f 1 5 7 
f 6 3 8 
f 1 7 9 
f 3 4 10 
f 4 1 10 
f 8 3 10 
f 7 6 11 
f 9 7 11 
f 9 11 12 
f 6 8 12 
f 8 9 12 
f 11 6 12 
f 9 8 13 
f 1 9 13 
f 10 1 13 
f 8 10 13 
f 5 2 14 
f 2 6 14 
f 7 5 14 
o convex_1
v -0.008746 -0.059911 0.001472
v 0.005697 -0.051887 0.006820
v 0.005697 -0.051887 0.001472
v 0.006232 -0.059911 0.006820
v -0.008211 -0.051887 0.006552
v -0.008746 -0.059911 0.006820
v 0.006232 -0.059911 0.001472
v -0.008211 -0.051887 0.001472
v -0.008478 -0.052958 0.006820
v -0.008746 -0.056701 0.001472
v 0.005963 -0.054028 0.006820
v 0.005963 -0.054028 0.001472
v -0.008746 -0.056701 0.006820
f 23 24 27 
f 16 17 19 
f 18 16 20 
f 15 18 20 
f 15 17 21 
f 18 15 21 
f 17 15 22 
f 19 17 22 
f 19 22 23 
f 16 19 23 
f 20 16 23 
f 15 20 24 
f 22 15 24 
f 23 22 24 
f 17 16 25 
f 16 18 25 
f 18 21 25 
f 25 21 26 
f 21 17 26 
f 17 25 26 
f 20 23 27 
f 24 20 27 
o convex_2
v -0.011956 0.085048 -0.000134
v -0.018106 0.071145 0.000938
v -0.018106 0.071145 0.007087
v -0.008479 0.050282 0.006819
v -0.011688 0.084782 0.008158
v -0.008479 0.058580 -0.000134
v -0.008479 0.074086 0.008158
v -0.016501 0.079698 0.008158
v -0.008746 0.050282 0.001472
v -0.008479 0.074086 -0.000134
v -0.016501 0.079698 -0.000134
v -0.015966 0.065799 0.008158
v -0.017304 0.067133 0.000669
v -0.014095 0.085587 0.007087
v -0.008479 0.058580 0.008158
v -0.017304 0.079698 0.000938
v -0.016501 0.065263 0.007087
v -0.011153 0.085051 0.000938
v -0.016769 0.067672 -0.000134
v -0.014095 0.085587 0.000938
v -0.018106 0.076222 0.007355
v -0.011153 0.085051 0.007355
v -0.017304 0.079698 0.007355
v -0.018106 0.075956 0.000669
v -0.008479 0.074884 0.000669
v -0.008746 0.050282 0.006819
v -0.012759 0.061251 -0.000134
v -0.017572 0.067672 0.007087
v -0.017304 0.070609 0.008158
v -0.015699 0.063656 0.000938
v -0.013828 0.085048 0.008158
v -0.011688 0.060180 0.008158
v -0.012224 0.085587 0.007355
v -0.008479 0.074884 0.007355
v -0.008479 0.051088 0.001205
v -0.014095 0.084516 -0.000134
v -0.014896 0.063926 -0.000134
v -0.017304 0.070876 -0.000134
v -0.012224 0.085587 0.000669
v -0.016234 0.081837 0.000938
v -0.017572 0.067672 0.000938
f 57 44 68 
f 31 33 34 
f 34 32 35 
f 33 28 37 
f 34 33 37 
f 28 33 38 
f 34 35 39 
f 31 34 42 
f 34 39 42 
f 37 28 45 
f 38 33 46 
f 29 30 48 
f 32 34 49 
f 48 35 50 
f 43 48 50 
f 43 38 51 
f 29 48 51 
f 48 43 51 
f 34 37 52 
f 37 45 52 
f 45 49 52 
f 36 31 53 
f 31 42 53 
f 39 44 53 
f 46 33 54 
f 30 29 55 
f 44 39 55 
f 39 35 56 
f 48 30 56 
f 35 48 56 
f 30 55 56 
f 55 39 56 
f 36 53 57 
f 53 44 57 
f 35 32 58 
f 50 35 58 
f 41 50 58 
f 42 39 59 
f 53 42 59 
f 39 53 59 
f 47 41 60 
f 32 49 60 
f 49 45 60 
f 58 32 60 
f 41 58 60 
f 49 34 61 
f 34 52 61 
f 52 49 61 
f 33 31 62 
f 31 36 62 
f 54 33 62 
f 36 54 62 
f 28 38 63 
f 38 43 63 
f 47 28 63 
f 40 46 64 
f 54 36 64 
f 46 54 64 
f 57 40 64 
f 36 57 64 
f 40 29 65 
f 38 46 65 
f 46 40 65 
f 51 38 65 
f 29 51 65 
f 45 28 66 
f 28 47 66 
f 47 60 66 
f 60 45 66 
f 41 47 67 
f 50 41 67 
f 43 50 67 
f 63 43 67 
f 47 63 67 
f 29 40 68 
f 55 29 68 
f 44 55 68 
f 40 57 68 
o convex_3
v 0.001417 0.071677 0.008158
v -0.008479 0.047613 0.001472
v -0.008210 0.044400 0.001472
v 0.001417 0.071677 -0.000134
v 0.001417 0.041724 0.006819
v -0.008479 0.073814 0.008158
v -0.008479 0.073814 -0.000134
v -0.007943 0.041724 0.006819
v 0.001417 0.041724 0.001472
v -0.007943 0.058304 -0.000134
v -0.008479 0.058569 0.008158
v 0.001417 0.057237 -0.000134
v 0.001417 0.057237 0.008158
v -0.007943 0.041724 0.001472
v -0.008210 0.074354 0.000669
v -0.008210 0.074354 0.007355
v -0.008479 0.047613 0.006819
v -0.008479 0.058569 -0.000134
v -0.003663 0.057237 0.008158
v -0.003397 0.057237 -0.000134
f 80 82 88 
f 72 69 73 
f 70 74 75 
f 72 73 77 
f 73 76 77 
f 75 72 78 
f 74 70 79 
f 69 74 79 
f 72 77 80 
f 78 72 80 
f 73 69 81 
f 76 73 81 
f 69 79 81 
f 76 71 82 
f 77 76 82 
f 80 77 82 
f 69 72 83 
f 72 75 83 
f 75 74 83 
f 74 69 84 
f 69 83 84 
f 83 74 84 
f 70 71 85 
f 71 76 85 
f 79 70 85 
f 76 79 85 
f 71 70 86 
f 70 75 86 
f 75 78 86 
f 82 71 86 
f 78 82 86 
f 79 76 87 
f 76 81 87 
f 81 79 87 
f 78 80 88 
f 82 78 88 
o convex_4
v 0.009975 0.056701 0.007087
v 0.001418 0.041724 0.001472
v 0.007034 0.041724 0.001472
v 0.001418 0.056701 0.000937
v 0.001418 0.041724 0.006819
v 0.001418 0.056701 0.007087
v 0.009975 0.056701 0.000937
v 0.007301 0.041993 0.006819
v 0.009975 0.055630 0.000937
v 0.009975 0.055630 0.007087
v 0.007301 0.041993 0.001472
v 0.001418 0.054559 0.000937
v 0.003290 0.053489 0.007087
v 0.007034 0.041724 0.006819
f 101 93 102 
f 90 91 93 
f 92 90 93 
f 89 92 94 
f 92 93 94 
f 92 89 95 
f 95 89 97 
f 92 95 97 
f 96 97 98 
f 89 94 98 
f 97 89 98 
f 96 91 99 
f 91 97 99 
f 97 96 99 
f 91 90 100 
f 90 92 100 
f 97 91 100 
f 92 97 100 
f 94 93 101 
f 98 94 101 
f 98 101 102 
f 93 91 102 
f 91 96 102 
f 96 98 102 
o convex_5
v 0.016661 0.077829 -0.000134
v 0.001417 0.056701 0.000669
v 0.001417 0.056701 0.007355
v 0.003023 0.088795 0.000669
v 0.012382 0.085317 0.008158
v 0.016929 0.065531 0.007355
v 0.003558 0.088795 0.008158
v 0.010243 0.056701 0.000938
v 0.009443 0.058311 0.008158
v 0.005698 0.089329 -0.000134
v 0.016395 0.066332 -0.000134
v 0.001417 0.071680 -0.000134
v 0.017732 0.077027 0.007355
v 0.001417 0.071680 0.008158
v 0.015057 0.083445 0.000938
v 0.001417 0.057238 -0.000134
v 0.018000 0.070076 0.000938
v 0.005698 0.090134 0.007087
v 0.010243 0.056701 0.007087
v 0.017196 0.070345 0.008158
v 0.012650 0.086118 0.000669
v 0.014255 0.061253 0.000938
v 0.013453 0.085317 0.007355
v 0.001417 0.057238 0.008158
v 0.017732 0.077292 0.000938
v 0.015859 0.082375 0.007355
v 0.003023 0.088795 0.007355
v 0.009709 0.058577 -0.000134
v 0.018000 0.070345 0.007355
v 0.017464 0.066601 0.000938
v 0.005698 0.090134 0.000938
v 0.014255 0.061253 0.007355
v 0.016661 0.078094 0.008158
v 0.003558 0.088795 -0.000134
v 0.013453 0.083978 -0.000134
v 0.012382 0.086387 0.007355
v 0.013453 0.061519 0.008158
v 0.004628 0.090134 0.000938
v 0.018000 0.073548 0.000669
v 0.015859 0.082375 0.000938
v 0.005698 0.089329 0.008158
v 0.004092 0.089865 0.007355
v 0.013720 0.062055 -0.000134
v 0.017464 0.066601 0.007355
v 0.017464 0.078362 0.007087
v 0.018000 0.074350 0.007355
v 0.017196 0.070878 -0.000134
v 0.016661 0.066869 0.008158
v 0.001417 0.071948 0.000669
v 0.010511 0.087457 0.000938
v 0.016127 0.064192 0.000938
v 0.017464 0.078362 0.000938
v 0.015057 0.082109 0.008158
f 135 128 155 
f 105 104 110 
f 107 109 111 
f 112 103 113 
f 112 113 114 
f 104 105 114 
f 111 109 116 
f 114 105 116 
f 110 104 118 
f 114 113 118 
f 104 114 118 
f 105 110 121 
f 107 111 122 
f 121 110 124 
f 117 123 125 
f 116 105 126 
f 111 116 126 
f 105 121 126 
f 121 111 126 
f 117 125 128 
f 116 109 129 
f 110 118 130 
f 118 113 130 
f 123 112 133 
f 121 124 134 
f 107 122 135 
f 115 128 135 
f 112 114 136 
f 114 106 136 
f 103 112 137 
f 112 123 137 
f 123 117 137 
f 107 125 138 
f 125 123 138 
f 111 121 139 
f 122 111 139 
f 121 134 139 
f 134 108 139 
f 133 112 140 
f 120 133 140 
f 112 136 140 
f 136 106 140 
f 103 127 141 
f 131 119 141 
f 117 128 142 
f 103 137 142 
f 137 117 142 
f 109 107 143 
f 107 138 143 
f 138 120 143 
f 106 129 144 
f 129 109 144 
f 140 106 144 
f 120 140 144 
f 109 143 144 
f 143 120 144 
f 124 110 145 
f 110 130 145 
f 130 113 145 
f 119 131 146 
f 131 122 146 
f 132 119 146 
f 108 132 146 
f 115 127 147 
f 128 115 147 
f 142 128 147 
f 127 115 148 
f 122 131 148 
f 135 122 148 
f 115 135 148 
f 141 127 148 
f 131 141 148 
f 113 103 149 
f 132 113 149 
f 119 132 149 
f 103 141 149 
f 141 119 149 
f 139 108 150 
f 122 139 150 
f 146 122 150 
f 108 146 150 
f 106 114 151 
f 114 116 151 
f 129 106 151 
f 116 129 151 
f 133 120 152 
f 123 133 152 
f 120 138 152 
f 138 123 152 
f 113 132 153 
f 132 108 153 
f 108 134 153 
f 134 124 153 
f 145 113 153 
f 124 145 153 
f 127 103 154 
f 103 142 154 
f 147 127 154 
f 142 147 154 
f 125 107 155 
f 128 125 155 
f 107 135 155 
o convex_6
v 0.003823 -0.060981 0.007354
v -0.006872 -0.063120 0.000403
v -0.010351 -0.063120 0.000937
v -0.008745 -0.059911 0.001205
v -0.010351 -0.063120 0.007087
v 0.007302 -0.063120 0.000937
v 0.006230 -0.059911 0.001472
v -0.009013 -0.059911 0.006819
v 0.007302 -0.063120 0.007087
v 0.006230 -0.059911 0.006819
v -0.005803 -0.063120 0.007890
v 0.001952 -0.062050 0.000403
v 0.003022 -0.062852 0.007890
v -0.005001 -0.061515 0.007622
v 0.007302 -0.062317 0.007087
v 0.006230 -0.060179 0.001205
v -0.004465 -0.061783 0.000403
v 0.003823 -0.063120 0.000403
v -0.009279 -0.060446 0.001205
v 0.007302 -0.062317 0.001205
f 161 171 175 
f 157 158 159 
f 158 157 160 
f 160 157 161 
f 162 159 163 
f 160 161 164 
f 162 163 165 
f 163 160 166 
f 160 164 166 
f 165 156 168 
f 166 164 168 
f 166 168 169 
f 156 165 169 
f 165 163 169 
f 163 166 169 
f 168 156 169 
f 164 161 170 
f 162 165 170 
f 168 164 170 
f 165 168 170 
f 159 162 171 
f 171 167 172 
f 157 159 172 
f 167 157 172 
f 159 171 172 
f 161 157 173 
f 157 167 173 
f 171 161 173 
f 167 171 173 
f 159 158 174 
f 158 160 174 
f 163 159 174 
f 160 163 174 
f 170 161 175 
f 162 170 175 
f 171 162 175 
o convex_7
v -0.014360 -0.069806 0.003878
v -0.001257 -0.063120 0.007890
v -0.001257 -0.063120 0.000134
v -0.009011 -0.074620 0.000134
v -0.010350 -0.063120 0.000936
v -0.009011 -0.074620 0.007890
v -0.011152 -0.064459 0.007355
v -0.001257 -0.067668 0.000134
v -0.014895 -0.074620 0.000402
v -0.014628 -0.074620 0.007890
v -0.001257 -0.067668 0.007890
v -0.013025 -0.069003 0.000134
v -0.006340 -0.063120 0.007890
v -0.013826 -0.068204 0.007087
v -0.013826 -0.068204 0.000936
v -0.015432 -0.073817 0.007087
v -0.010350 -0.063120 0.007087
v -0.015432 -0.073817 0.000936
v -0.012757 -0.068204 0.007890
v -0.007679 -0.063924 0.000134
v -0.015432 -0.074620 0.007355
v -0.014360 -0.074620 0.000134
v -0.010618 -0.063389 0.000936
f 189 192 198 
f 177 178 180 
f 178 177 183 
f 179 178 183 
f 181 179 183 
f 179 181 184 
f 184 181 185 
f 181 177 185 
f 177 181 186 
f 183 177 186 
f 181 183 186 
f 178 179 187 
f 177 180 188 
f 185 177 188 
f 176 189 190 
f 189 176 191 
f 188 180 192 
f 182 188 192 
f 189 182 192 
f 187 184 193 
f 176 190 193 
f 190 187 193 
f 191 176 193 
f 188 182 194 
f 185 188 194 
f 182 189 194 
f 180 178 195 
f 178 187 195 
f 187 180 195 
f 184 185 196 
f 189 191 196 
f 193 184 196 
f 191 193 196 
f 185 194 196 
f 194 189 196 
f 179 184 197 
f 187 179 197 
f 184 187 197 
f 180 187 198 
f 187 190 198 
f 190 189 198 
f 192 180 198 
o convex_8
v 0.011847 -0.074620 0.000402
v 0.007568 -0.063120 0.007087
v 0.007568 -0.063120 0.000936
v -0.001256 -0.067936 0.007890
v -0.001256 -0.063120 0.000134
v 0.012382 -0.074620 0.007355
v 0.005697 -0.074620 0.000134
v 0.005697 -0.074620 0.007890
v -0.001256 -0.063120 0.007890
v -0.001256 -0.067668 0.000134
v 0.011044 -0.068738 0.000936
v 0.010242 -0.069003 0.007890
v 0.009975 -0.069003 0.000134
v 0.011044 -0.068738 0.007087
v 0.012382 -0.073817 0.000936
v 0.005697 -0.064192 0.007890
v 0.005163 -0.064192 0.000134
v 0.011580 -0.074620 0.007890
v 0.011311 -0.074620 0.000134
v 0.012382 -0.073817 0.007087
v 0.009975 -0.066867 0.007087
f 210 212 219 
f 200 201 203 
f 199 204 205 
f 202 205 206 
f 205 204 206 
f 203 202 207 
f 200 203 207 
f 202 206 207 
f 202 203 208 
f 205 202 208 
f 203 205 208 
f 207 206 210 
f 205 203 211 
f 209 199 211 
f 201 209 211 
f 210 204 212 
f 204 199 213 
f 199 209 213 
f 209 212 213 
f 200 207 214 
f 210 200 214 
f 207 210 214 
f 203 201 215 
f 201 211 215 
f 211 203 215 
f 206 204 216 
f 204 210 216 
f 210 206 216 
f 199 205 217 
f 211 199 217 
f 205 211 217 
f 212 204 218 
f 204 213 218 
f 213 212 218 
f 201 200 219 
f 209 201 219 
f 200 210 219 
f 212 209 219 
o convex_9
v -0.007142 -0.087725 0.000134
v -0.008476 -0.079970 0.007890
v -0.007409 -0.080506 0.007890
v -0.009013 -0.087993 0.007355
v -0.014630 -0.079970 0.000936
v -0.001792 -0.083983 0.000134
v -0.001792 -0.089330 0.007890
v -0.013826 -0.080506 0.007890
v -0.001792 -0.090133 0.000936
v -0.008476 -0.079970 0.000134
v -0.001792 -0.083983 0.007890
v -0.014095 -0.082914 0.000936
v -0.008744 -0.088261 0.000936
v -0.014095 -0.082914 0.007087
v -0.002327 -0.090133 0.007087
v -0.013290 -0.082111 0.000134
v -0.014630 -0.079970 0.007355
v -0.008476 -0.087458 0.007890
v -0.001792 -0.089062 0.000134
v -0.002863 -0.083181 0.000134
v -0.013558 -0.079970 0.000134
v -0.007142 -0.088795 0.007087
v -0.002327 -0.090133 0.000936
v -0.013290 -0.082646 0.007890
v -0.002863 -0.083181 0.007890
v -0.014630 -0.080774 0.000936
v -0.008476 -0.087190 0.000134
f 231 235 246 
f 222 221 226 
f 226 221 227 
f 225 226 228 
f 221 222 229 
f 224 221 229 
f 225 220 229 
f 226 225 230 
f 222 226 230 
f 223 231 232 
f 231 223 233 
f 226 223 234 
f 228 226 234 
f 229 220 235 
f 221 224 236 
f 227 221 236 
f 223 226 237 
f 226 227 237 
f 220 225 238 
f 225 228 238 
f 229 222 239 
f 225 229 239 
f 230 225 239 
f 224 229 240 
f 229 235 240 
f 223 232 241 
f 234 223 241 
f 234 241 242 
f 232 220 242 
f 228 234 242 
f 220 238 242 
f 238 228 242 
f 241 232 242 
f 233 223 243 
f 227 236 243 
f 236 233 243 
f 223 237 243 
f 237 227 243 
f 222 230 244 
f 239 222 244 
f 230 239 244 
f 231 233 245 
f 235 231 245 
f 236 224 245 
f 233 236 245 
f 224 240 245 
f 240 235 245 
f 220 232 246 
f 232 231 246 
f 235 220 246 
o convex_10
v -0.015699 -0.076762 0.000936
v -0.008747 -0.077562 0.007890
v -0.009282 -0.074621 0.007890
v -0.009282 -0.074621 0.000134
v -0.008747 -0.079970 0.000134
v -0.014897 -0.079970 0.007087
v -0.015699 -0.074621 0.007087
v -0.013827 -0.079970 0.000134
v -0.008747 -0.079970 0.007890
v -0.014629 -0.074621 0.000134
v -0.014897 -0.076494 0.007890
v -0.014897 -0.079703 0.000936
v -0.013827 -0.079970 0.007890
v -0.015699 -0.074621 0.001204
v -0.015699 -0.076762 0.007087
v -0.008747 -0.077562 0.000134
v -0.014629 -0.074621 0.007890
f 253 257 263 
f 249 248 250 
f 249 250 253 
f 250 251 254 
f 251 252 254 
f 248 249 255 
f 251 248 255 
f 252 251 255 
f 253 250 256 
f 254 247 256 
f 250 254 256 
f 255 249 257 
f 252 247 258 
f 247 254 258 
f 254 252 258 
f 252 255 259 
f 257 252 259 
f 255 257 259 
f 247 253 260 
f 253 256 260 
f 256 247 260 
f 247 252 261 
f 253 247 261 
f 257 253 261 
f 252 257 261 
f 250 248 262 
f 251 250 262 
f 248 251 262 
f 249 253 263 
f 257 249 263 
o convex_11
v -0.001524 -0.089597 0.000402
v 0.005429 -0.080239 0.007890
v 0.005429 -0.080239 0.000134
v 0.005429 -0.088260 0.007355
v -0.001792 -0.083983 0.007890
v 0.005429 -0.087726 0.000402
v -0.001792 -0.083983 0.000134
v -0.001792 -0.090133 0.007355
v 0.003290 -0.089062 0.000936
v 0.004894 -0.087726 0.007890
v 0.003824 -0.080774 0.000134
v -0.001792 -0.089062 0.000134
v -0.001792 -0.089330 0.007890
v -0.000989 -0.090133 0.000936
v 0.004894 -0.080239 0.007890
v 0.003290 -0.089062 0.007087
v 0.005161 -0.087458 0.000134
v 0.005161 -0.088528 0.000936
v -0.000989 -0.090133 0.007087
v -0.001792 -0.090133 0.000936
f 277 271 283 
f 266 265 267 
f 266 267 269 
f 268 270 271 
f 267 265 273 
f 265 268 273 
f 271 267 273 
f 270 268 274 
f 266 270 274 
f 270 266 275 
f 271 270 275 
f 268 271 276 
f 273 268 276 
f 271 273 276 
f 264 272 277 
f 265 266 278 
f 268 265 278 
f 266 274 278 
f 274 268 278 
f 267 271 279 
f 277 272 279 
f 266 269 280 
f 272 264 280 
f 264 275 280 
f 275 266 280 
f 269 267 281 
f 267 279 281 
f 279 272 281 
f 280 269 281 
f 272 280 281 
f 271 277 282 
f 279 271 282 
f 277 279 282 
f 275 264 283 
f 271 275 283 
f 264 277 283 
o convex_12
v 0.010778 -0.083446 0.000936
v 0.011580 -0.074621 0.007890
v 0.012116 -0.074621 0.007622
v 0.005964 -0.074621 0.000134
v 0.005429 -0.088259 0.007355
v 0.005964 -0.074621 0.007890
v 0.005429 -0.086922 0.000134
v 0.011580 -0.074621 0.000134
v 0.010778 -0.083179 0.007355
v 0.012918 -0.076227 0.000936
v 0.005429 -0.077565 0.007890
v 0.012918 -0.076227 0.007087
v 0.005697 -0.088259 0.000936
v 0.005697 -0.087189 0.007890
v 0.005429 -0.077565 0.000134
v 0.009975 -0.082644 0.000134
v 0.009174 -0.085051 0.007087
v 0.010243 -0.082644 0.007890
v 0.012651 -0.074891 0.000936
v 0.011045 -0.082911 0.007087
v 0.005697 -0.088259 0.007355
v 0.011045 -0.082911 0.000936
v 0.011848 -0.076763 0.007890
f 301 292 306 
f 285 286 287 
f 285 287 289 
f 287 286 291 
f 290 287 291 
f 285 289 294 
f 289 287 294 
f 290 288 294 
f 288 290 296 
f 285 294 297 
f 294 288 297 
f 287 290 298 
f 294 287 298 
f 290 294 298 
f 290 291 299 
f 291 293 299 
f 284 296 299 
f 296 290 299 
f 296 284 300 
f 285 297 301 
f 297 292 301 
f 291 286 302 
f 293 291 302 
f 286 295 302 
f 295 293 302 
f 295 292 303 
f 293 295 303 
f 300 284 303 
f 292 300 303 
f 288 296 304 
f 292 297 304 
f 297 288 304 
f 300 292 304 
f 296 300 304 
f 284 299 305 
f 299 293 305 
f 303 284 305 
f 293 303 305 
f 286 285 306 
f 295 286 306 
f 292 295 306 
f 285 301 306 
