o convex_0
v 0.007239 -0.008089 0.007935
v -0.009233 -0.043428 0.001048
v 0.009036 -0.043428 0.001048
v 0.006939 -0.007488 0.001048
v -0.009233 -0.043428 0.007935
v -0.009233 -0.007488 0.007935
v 0.009036 -0.043428 0.007935
v -0.009233 -0.007488 0.001048
v 0.006939 -0.007488 0.007935
v 0.007239 -0.008089 0.001048
v 0.009036 -0.042224 0.007935
v 0.009036 -0.042224 0.001048
f 11 3 12 
f 3 2 4 
f 2 3 5 
f 2 5 6 
f 5 1 6 
f 1 5 7 
f 5 3 7 
f 4 2 8 
f 2 6 8 
f 6 4 8 
f 1 4 9 
f 4 6 9 
f 6 1 9 
f 3 4 10 
f 4 1 10 
f 1 7 11 
f 7 3 11 
f 10 1 11 
f 10 11 12 
f 3 10 12 
o convex_1
v 0.006940 -0.007488 0.001049
v -0.011629 0.048508 0.001048
v -0.011629 0.048508 0.007936
v 0.006940 0.050915 0.001049
v 0.006940 -0.007488 0.007937
v -0.009232 -0.007488 0.001048
v 0.006940 0.050915 0.007937
v -0.009232 -0.007488 0.007936
v -0.011629 0.050915 0.001048
v 0.006640 0.004198 0.000750
v -0.011629 0.050915 0.007936
v -0.009532 -0.005687 0.001048
v -0.009532 -0.005687 0.007936
v 0.006340 0.000899 0.000750
f 18 24 26 
f 13 16 17 
f 13 17 18 
f 17 16 19 
f 15 17 19 
f 18 17 20 
f 14 15 21 
f 19 16 21 
f 16 13 22 
f 21 16 22 
f 15 19 23 
f 21 15 23 
f 19 21 23 
f 15 14 24 
f 18 20 24 
f 17 15 25 
f 20 17 25 
f 15 24 25 
f 24 20 25 
f 13 18 26 
f 14 21 26 
f 22 13 26 
f 21 22 26 
f 24 14 26 
o convex_2
v -0.013727 -0.081161 0.008835
v -0.020914 -0.068882 0.001349
v -0.020613 -0.070380 0.001050
v -0.010432 -0.047025 0.001050
v -0.014026 -0.082059 -0.000149
v -0.018817 -0.058704 0.007636
v -0.010432 -0.051816 0.008835
v -0.010432 -0.067985 -0.000149
v -0.018817 -0.080562 0.007636
v -0.017320 -0.060802 -0.000149
v -0.019116 -0.067087 0.008835
v -0.010432 -0.067985 0.008835
v -0.016421 -0.083855 -0.000149
v -0.019116 -0.059304 0.001349
v -0.010731 -0.047025 0.007936
v -0.020914 -0.065589 0.007636
v -0.015823 -0.084157 0.008835
v -0.019416 -0.078766 0.001349
v -0.010432 -0.053016 -0.000149
v -0.020314 -0.074273 0.007636
v -0.020613 -0.063495 0.001349
v -0.018817 -0.070082 -0.000149
v -0.017020 -0.059904 0.008835
v -0.016720 -0.055411 0.001349
v -0.017320 -0.083557 0.001050
v -0.014925 -0.083855 -0.000149
v -0.016720 -0.083557 0.008835
v -0.020314 -0.062299 0.007636
v -0.010731 -0.047025 0.001050
v -0.014925 -0.083855 0.008835
v -0.018217 -0.077268 -0.000149
v -0.018517 -0.076669 0.008835
v -0.020914 -0.068882 0.007636
v -0.020314 -0.074273 0.001349
v -0.016720 -0.084157 0.007936
v -0.016720 -0.055411 0.007636
v -0.019715 -0.077566 0.007636
v -0.019116 -0.064397 0.000151
v -0.012827 -0.054513 -0.000149
v -0.010432 -0.047025 0.007936
v -0.013727 -0.081161 -0.000149
v -0.020914 -0.065589 0.001349
v -0.015224 -0.084157 -0.000149
v -0.017320 -0.083557 0.007636
v -0.017618 -0.057210 0.001050
v -0.018817 -0.080562 0.001349
f 39 51 72 
f 30 33 34 
f 34 31 36 
f 27 33 37 
f 33 27 38 
f 27 34 38 
f 34 33 38 
f 36 31 39 
f 27 37 43 
f 30 34 45 
f 34 36 45 
f 36 39 48 
f 37 33 49 
f 33 41 49 
f 40 32 50 
f 39 31 52 
f 43 37 53 
f 32 40 54 
f 42 37 54 
f 40 47 54 
f 47 42 54 
f 37 49 54 
f 49 32 54 
f 41 30 55 
f 30 45 55 
f 50 41 55 
f 31 27 56 
f 27 43 56 
f 52 31 56 
f 39 44 57 
f 29 48 57 
f 48 39 57 
f 53 37 58 
f 42 28 59 
f 37 42 59 
f 28 46 59 
f 58 37 59 
f 46 58 59 
f 28 29 60 
f 46 28 60 
f 29 57 60 
f 57 44 60 
f 51 39 61 
f 43 53 61 
f 49 41 62 
f 32 49 62 
f 50 32 62 
f 41 50 62 
f 44 35 63 
f 35 53 63 
f 58 46 63 
f 53 58 63 
f 46 60 63 
f 60 44 63 
f 40 36 64 
f 47 40 64 
f 48 29 64 
f 36 48 64 
f 45 36 65 
f 55 45 65 
f 36 55 65 
f 33 30 66 
f 30 41 66 
f 41 33 66 
f 27 31 67 
f 34 27 67 
f 31 34 67 
f 29 28 68 
f 28 42 68 
f 42 47 68 
f 64 29 68 
f 47 64 68 
f 39 52 69 
f 56 43 69 
f 52 56 69 
f 61 39 69 
f 43 61 69 
f 35 51 70 
f 53 35 70 
f 51 61 70 
f 61 53 70 
f 36 40 71 
f 40 50 71 
f 55 36 71 
f 50 55 71 
f 35 44 72 
f 44 39 72 
f 51 35 72 
o convex_3
v -0.002646 -0.049420 0.008835
v -0.010431 -0.067388 -0.000149
v -0.010131 -0.067388 -0.000149
v -0.009531 -0.043428 0.001050
v 0.002147 -0.050318 -0.000149
v 0.002147 -0.065589 0.008835
v -0.010431 -0.067388 0.008835
v 0.002147 -0.043428 0.007936
v -0.010431 -0.046127 0.007936
v 0.002147 -0.065589 -0.000149
v 0.002147 -0.043428 0.001050
v -0.010431 -0.052715 -0.000149
v -0.009531 -0.043428 0.007936
v -0.010431 -0.051815 0.008835
v 0.002147 -0.049720 0.008835
v -0.010431 -0.046127 0.001050
v -0.004441 -0.050020 -0.000149
f 77 84 89 
f 75 74 77 
f 74 75 79 
f 78 73 79 
f 75 78 79 
f 78 77 80 
f 74 79 81 
f 75 77 82 
f 78 75 82 
f 77 78 82 
f 76 80 83 
f 80 77 83 
f 77 74 84 
f 74 81 84 
f 73 80 85 
f 80 76 85 
f 76 81 85 
f 85 81 86 
f 79 73 86 
f 81 79 86 
f 73 85 86 
f 73 78 87 
f 80 73 87 
f 78 80 87 
f 81 76 88 
f 76 84 88 
f 84 81 88 
f 76 83 89 
f 83 77 89 
f 84 76 89 
o convex_4
v 0.019219 -0.073080 0.008535
v 0.006643 -0.089847 -0.000149
v 0.006941 -0.090150 -0.000149
v 0.006643 -0.089847 0.008835
v 0.009038 -0.072779 -0.000149
v 0.020417 -0.074877 0.001349
v 0.009038 -0.072779 0.008835
v 0.015924 -0.082660 0.007636
v 0.018319 -0.072779 -0.000149
v 0.010237 -0.088650 0.001050
v 0.006643 -0.085957 -0.000149
v 0.021016 -0.072780 0.007636
v 0.016822 -0.081464 0.001349
v 0.009038 -0.089847 0.007636
v 0.015924 -0.079670 0.008835
v 0.006643 -0.085957 0.008835
v 0.018020 -0.079670 0.007636
v 0.016224 -0.078771 -0.000149
v 0.021016 -0.072780 0.001349
v 0.007541 -0.090150 0.008835
v 0.011134 -0.086254 -0.000149
v 0.014127 -0.084756 0.001349
v 0.018618 -0.072779 0.008835
v 0.008738 -0.073979 -0.000149
v 0.020417 -0.074877 0.007636
v 0.008440 -0.090150 0.001349
v 0.014127 -0.084756 0.007636
v 0.018020 -0.079670 0.001349
v 0.007241 -0.082360 0.008835
v 0.011434 -0.085957 0.008835
v 0.008738 -0.073979 0.008835
f 113 118 120 
f 91 92 93 
f 92 91 94 
f 92 94 98 
f 94 96 98 
f 91 93 100 
f 94 91 100 
f 96 93 104 
f 93 96 105 
f 100 93 105 
f 97 102 106 
f 104 97 106 
f 92 98 107 
f 98 95 107 
f 95 98 108 
f 101 95 108 
f 93 92 109 
f 104 93 109 
f 99 92 110 
f 92 107 110 
f 107 102 110 
f 102 97 111 
f 99 110 111 
f 110 102 111 
f 98 96 112 
f 90 101 112 
f 104 90 112 
f 96 104 112 
f 108 98 112 
f 101 108 112 
f 96 94 113 
f 94 100 113 
f 101 90 114 
f 95 101 114 
f 90 104 114 
f 106 95 114 
f 104 106 114 
f 92 99 115 
f 99 103 115 
f 109 92 115 
f 103 109 115 
f 103 99 116 
f 109 103 116 
f 111 97 116 
f 99 111 116 
f 95 106 117 
f 106 102 117 
f 107 95 117 
f 102 107 117 
f 105 96 118 
f 100 105 118 
f 113 100 118 
f 97 104 119 
f 104 109 119 
f 109 116 119 
f 116 97 119 
f 96 113 120 
f 118 96 120 
o convex_5
v 0.021315 -0.068584 0.007936
v 0.002148 -0.065886 -0.000148
v 0.009638 -0.072776 -0.000149
v 0.009336 -0.043428 0.001050
v 0.002148 -0.065886 0.008834
v 0.002148 -0.043428 0.007935
v 0.021315 -0.063493 0.001049
v 0.009336 -0.043428 0.007935
v 0.018620 -0.072776 0.008835
v 0.002148 -0.050320 -0.000148
v 0.018320 -0.072776 -0.000149
v 0.009036 -0.072779 0.008834
v 0.008438 -0.052116 0.009135
v 0.021015 -0.062295 0.007636
v 0.017420 -0.060795 -0.000149
v 0.002148 -0.043428 0.001050
v 0.021315 -0.072477 0.001349
v 0.018020 -0.061396 0.008835
v 0.002148 -0.049722 0.008834
v 0.021915 -0.069483 0.007636
v 0.019517 -0.059597 0.001349
v 0.021015 -0.072779 0.007636
v 0.012031 -0.054213 -0.000149
v 0.021915 -0.066788 0.001349
v 0.009036 -0.072779 -0.000148
v 0.021615 -0.063493 0.007636
v 0.006043 -0.055109 0.009135
v 0.019517 -0.059597 0.007636
v 0.018918 -0.066487 -0.000149
v 0.019218 -0.066487 0.008835
v 0.021915 -0.069483 0.001349
v 0.021615 -0.063493 0.001349
v 0.007838 -0.051518 -0.000148
v 0.006341 -0.051518 0.009135
v 0.021015 -0.069483 0.000750
v 0.015624 -0.057807 0.008835
v 0.019218 -0.059597 0.001050
f 141 127 157 
f 122 125 126 
f 124 126 128 
f 123 122 130 
f 122 126 130 
f 125 122 132 
f 131 123 135 
f 126 124 136 
f 130 126 136 
f 124 130 136 
f 126 125 139 
f 121 129 140 
f 124 128 141 
f 129 132 142 
f 131 137 142 
f 140 129 142 
f 137 140 142 
f 123 130 143 
f 124 135 143 
f 135 123 143 
f 122 123 145 
f 123 131 145 
f 132 122 145 
f 131 142 145 
f 142 132 145 
f 134 138 146 
f 121 140 146 
f 140 144 146 
f 125 132 147 
f 132 129 147 
f 129 133 147 
f 139 125 147 
f 128 138 148 
f 138 134 148 
f 141 128 148 
f 134 141 148 
f 135 127 149 
f 131 135 149 
f 129 121 150 
f 133 129 150 
f 138 133 150 
f 121 146 150 
f 146 138 150 
f 140 137 151 
f 144 140 151 
f 127 141 152 
f 141 134 152 
f 144 127 152 
f 134 146 152 
f 146 144 152 
f 130 124 153 
f 143 130 153 
f 124 143 153 
f 128 126 154 
f 133 128 154 
f 126 139 154 
f 147 133 154 
f 139 147 154 
f 137 131 155 
f 127 144 155 
f 149 127 155 
f 131 149 155 
f 151 137 155 
f 144 151 155 
f 128 133 156 
f 138 128 156 
f 133 138 156 
f 135 124 157 
f 127 135 157 
f 124 141 157 
o convex_6
v -0.003543 0.068884 0.008835
v -0.021812 0.069779 0.001349
v -0.021512 0.069480 0.001050
v -0.011930 0.050915 0.007936
v -0.003543 0.055111 -0.000149
v -0.010431 0.075175 -0.000149
v -0.019116 0.074873 0.008835
v -0.011930 0.050915 0.001050
v -0.003543 0.050915 0.007936
v -0.003543 0.068884 -0.000149
v -0.020913 0.065890 0.007636
v -0.018815 0.074873 -0.000149
v -0.010431 0.075175 0.008835
v -0.014325 0.059003 0.008835
v -0.021211 0.075175 0.007636
v -0.015823 0.061399 -0.000149
v -0.018815 0.061399 0.001349
v -0.003543 0.050915 0.001050
v -0.003543 0.054513 0.008835
v -0.021211 0.075175 0.001349
v -0.018815 0.061399 0.007636
v -0.021812 0.071879 0.007636
v -0.018815 0.067087 0.008835
v -0.020913 0.065890 0.001349
v -0.019416 0.070081 -0.000149
v -0.008335 0.055710 -0.000149
v -0.021812 0.069779 0.007636
v -0.021512 0.074574 0.001349
v -0.009233 0.055408 0.008835
v -0.016719 0.062299 0.008835
v -0.017619 0.063195 0.000151
v -0.014325 0.059305 -0.000149
v -0.020913 0.066488 0.001050
f 182 188 190 
f 162 158 166 
f 161 165 166 
f 158 162 167 
f 162 163 167 
f 163 158 167 
f 163 162 169 
f 158 163 170 
f 164 158 170 
f 158 164 171 
f 170 163 172 
f 164 170 172 
f 169 162 173 
f 165 161 174 
f 165 162 175 
f 162 166 175 
f 166 165 175 
f 166 158 176 
f 161 166 176 
f 158 171 176 
f 163 169 177 
f 172 163 177 
f 174 161 178 
f 168 174 178 
f 164 172 179 
f 171 164 180 
f 168 159 181 
f 174 168 181 
f 169 173 182 
f 162 165 183 
f 173 162 183 
f 159 168 184 
f 179 159 184 
f 164 179 184 
f 180 164 184 
f 168 180 184 
f 160 159 185 
f 177 169 185 
f 172 177 185 
f 159 179 185 
f 179 172 185 
f 182 160 185 
f 169 182 185 
f 171 161 186 
f 161 176 186 
f 176 171 186 
f 161 171 187 
f 178 161 187 
f 168 178 187 
f 171 180 187 
f 180 168 187 
f 173 165 188 
f 165 174 188 
f 182 173 188 
f 165 173 189 
f 183 165 189 
f 173 183 189 
f 159 160 190 
f 181 159 190 
f 174 181 190 
f 160 182 190 
f 188 174 190 
o convex_7
v -0.010134 0.089849 0.005540
v -0.020913 0.075175 0.001349
v -0.020313 0.075175 0.000750
v -0.010433 0.075175 0.008835
v -0.010134 0.075475 -0.000149
v -0.007736 0.089550 -0.000149
v -0.020913 0.075774 0.007636
v -0.007736 0.089550 0.008835
v -0.016719 0.083260 0.001349
v -0.016719 0.083260 0.007636
v -0.018815 0.075175 0.008835
v -0.009235 0.090150 -0.000149
v -0.007736 0.086556 0.008835
v -0.018516 0.075175 -0.000149
v -0.009235 0.090150 0.008835
v -0.007736 0.086556 -0.000149
v -0.019115 0.079668 0.001349
v -0.012829 0.087453 0.001349
v -0.012829 0.087453 0.007636
v -0.010134 0.075475 0.008835
v -0.019115 0.079668 0.007636
v -0.014923 0.082363 -0.000149
v -0.010433 0.075175 -0.000149
v -0.015521 0.081765 0.008835
v -0.020313 0.077272 0.001349
v -0.014923 0.085355 0.001349
v -0.007736 0.089849 0.001050
v -0.020913 0.075175 0.007636
f 201 197 218 
f 192 193 194 
f 192 194 201 
f 194 198 201 
f 196 195 202 
f 198 194 203 
f 196 198 203 
f 194 193 204 
f 202 195 204 
f 201 198 205 
f 202 191 205 
f 195 196 206 
f 203 195 206 
f 196 203 206 
f 200 199 207 
f 191 202 208 
f 205 191 209 
f 200 205 209 
f 191 208 209 
f 194 195 210 
f 203 194 210 
f 195 203 210 
f 197 201 211 
f 200 207 211 
f 199 202 212 
f 204 193 212 
f 202 204 212 
f 193 207 212 
f 207 199 212 
f 195 194 213 
f 194 204 213 
f 204 195 213 
f 205 200 214 
f 201 205 214 
f 211 201 214 
f 200 211 214 
f 193 192 215 
f 192 197 215 
f 207 193 215 
f 197 211 215 
f 211 207 215 
f 199 200 216 
f 202 199 216 
f 208 202 216 
f 200 209 216 
f 209 208 216 
f 198 196 217 
f 196 202 217 
f 205 198 217 
f 202 205 217 
f 197 192 218 
f 192 201 218 
o convex_8
v 0.006041 0.069784 -0.000149
v -0.003543 0.050917 0.001050
v -0.003543 0.050917 0.007936
v 0.006341 0.050917 0.001050
v 0.006341 0.069784 0.008835
v -0.003543 0.068583 0.008835
v -0.003543 0.068583 -0.000149
v 0.006341 0.050917 0.007936
v 0.000651 0.055109 -0.000149
v 0.000051 0.054511 0.008835
v 0.006341 0.056607 -0.000149
v 0.006341 0.056308 0.008835
v -0.003543 0.055109 -0.000149
v -0.003543 0.054511 0.008835
v 0.006341 0.069784 -0.000149
f 223 229 233 
f 221 220 222 
f 220 221 224 
f 223 219 224 
f 224 219 225 
f 220 224 225 
f 221 222 226 
f 222 223 226 
f 222 220 227 
f 225 219 227 
f 223 224 228 
f 221 226 228 
f 223 222 229 
f 222 227 229 
f 227 219 229 
f 226 223 230 
f 223 228 230 
f 228 226 230 
f 220 225 231 
f 227 220 231 
f 225 227 231 
f 224 221 232 
f 221 228 232 
f 228 224 232 
f 219 223 233 
f 229 219 233 
o convex_9
v 0.015924 0.076071 0.001349
v 0.006341 0.050915 0.001050
v 0.006941 0.050915 0.001050
v 0.006341 0.056309 0.008835
v 0.010834 0.084757 -0.000149
v 0.016224 0.067392 0.007636
v 0.011133 0.084457 0.008835
v 0.006341 0.070082 -0.000149
v 0.015026 0.064397 0.000750
v 0.006341 0.070082 0.008835
v 0.013229 0.059006 0.007636
v 0.015026 0.079367 0.007636
v 0.006941 0.050915 0.007936
v 0.014128 0.066790 0.008835
v 0.013529 0.065293 -0.000149
v 0.012030 0.085058 -0.000149
v 0.015624 0.063796 0.001349
v 0.006341 0.056607 -0.000149
v 0.012330 0.084457 0.008835
v 0.013828 0.059902 0.001349
v 0.016224 0.073972 0.007636
v 0.016224 0.067392 0.001349
v 0.014128 0.076967 -0.000149
v 0.010834 0.084757 0.007636
v 0.015624 0.063796 0.007636
v 0.013229 0.083558 0.001349
v 0.012030 0.061399 0.008835
v 0.014427 0.076372 0.008835
v 0.012929 0.084457 0.007636
v 0.011432 0.061102 -0.000149
v 0.006341 0.050915 0.007936
v 0.015026 0.079367 0.001349
v 0.016224 0.073972 0.001349
v 0.014726 0.068886 0.000151
v 0.007240 0.051216 0.001050
v 0.013529 0.059902 0.001050
v 0.015924 0.076071 0.007636
v 0.008138 0.056607 0.008835
v 0.014427 0.061102 0.007636
v 0.007839 0.056908 -0.000149
f 263 268 273 
f 235 237 241 
f 237 240 243 
f 241 237 243 
f 238 241 243 
f 235 236 246 
f 240 237 247 
f 241 238 248 
f 248 238 249 
f 236 235 251 
f 235 241 251 
f 241 248 251 
f 240 247 252 
f 239 250 255 
f 250 242 255 
f 254 239 255 
f 249 234 256 
f 248 249 256 
f 238 243 257 
f 243 240 257 
f 249 238 257 
f 240 252 257 
f 239 247 258 
f 250 239 258 
f 246 244 260 
f 247 237 260 
f 258 247 260 
f 247 239 261 
f 252 247 261 
f 239 254 261 
f 252 245 262 
f 249 257 262 
f 257 252 262 
f 259 249 262 
f 251 248 263 
f 237 235 264 
f 235 246 264 
f 246 237 264 
f 245 234 265 
f 234 249 265 
f 249 259 265 
f 262 245 265 
f 259 262 265 
f 234 254 266 
f 254 255 266 
f 256 234 266 
f 256 266 267 
f 242 248 267 
f 255 242 267 
f 248 256 267 
f 266 255 267 
f 246 236 268 
f 244 246 268 
f 253 244 268 
f 268 263 269 
f 248 242 269 
f 242 250 269 
f 250 253 269 
f 263 248 269 
f 253 268 269 
f 234 245 270 
f 245 252 270 
f 254 234 270 
f 252 261 270 
f 261 254 270 
f 237 246 271 
f 260 237 271 
f 246 260 271 
f 244 253 272 
f 253 250 272 
f 250 258 272 
f 260 244 272 
f 258 260 272 
f 236 251 273 
f 251 263 273 
f 268 236 273 
