# https://github.com/mikedh/trimesh
mtllib material0.mtl
usemtl material0
v 0.00519505 -0.07882689 0.00901333
v 0.00519505 -0.07882689 0.00901333
v 0.00086666 0.08279480 0.01306131
v 0.00539664 0.05461322 0.00786465
v -0.00536725 -0.02988922 0.01387566
v -0.00536725 -0.02988922 0.01387566
v 0.00256593 0.07396467 0.01776149
v -0.00195200 0.06573375 0.00012421
v -0.00195200 0.06573375 0.00012421
v -0.01181043 0.07566561 0.00401033
v 0.00060276 -0.04972318 0.00305375
v -0.00385752 0.07772847 0.02256681
v -0.00385752 0.07772847 0.02256681
v -0.00763841 0.06031443 0.00256070
v -0.00763841 0.06031443 0.00256070
v -0.00475583 0.07872077 0.01327795
v 0.00350945 0.07474773 0.01861727
v 0.00350945 0.07474773 0.01861727
v -0.00199646 0.04980865 0.00452342
v -0.00199646 0.04980865 0.00452342
v -0.00457383 0.05974457 0.00217922
v -0.00457383 0.05974457 0.00217922
v 0.00107942 -0.08448394 0.01823232
v 0.00663658 -0.08454175 0.01488367
v -0.00413611 0.08865666 0.00351193
v 0.00071793 -0.01994178 0.01773366
v 0.00071793 -0.01994178 0.01773366
v 0.00103068 0.08303549 0.02193828
v 0.00103068 0.08303549 0.02193828
v -0.00339456 -0.08981484 0.01453010
v 0.00073488 -0.02512686 0.01713496
v 0.00073488 -0.02512686 0.01713496
v 0.00837542 -0.03035648 0.01012684
v 0.00837542 -0.03035648 0.01012684
v 0.00837542 -0.03035648 0.01012684
v 0.00506516 0.06164658 0.00100909
v 0.00506516 0.06164658 0.00100909
v 0.00753853 0.08653615 0.00335073
v -0.00000442 0.05838610 0.00213055
v -0.00000442 0.05838610 0.00213055
v 0.00333811 0.07586162 0.02302951
v -0.00320968 -0.01232470 0.01203443
v 0.00155958 0.08310410 0.02182307
v 0.00155958 0.08310410 0.02182307
v -0.00415848 0.08924730 0.00709906
v 0.00537212 -0.08990604 0.00924746
v 0.00408344 -0.01038043 0.00757758
v 0.00408344 -0.01038043 0.00757758
v 0.00003238 0.08853511 0.01277236
v 0.00459703 -0.02460449 0.01675015
v 0.00459703 -0.02460449 0.01675015
v -0.00261055 0.05726391 0.01344311
v -0.00699358 -0.04955429 0.01093894
v -0.00699358 -0.04955429 0.01093894
v -0.00433483 0.07991701 0.02212402
v -0.00433483 0.07991701 0.02212402
v -0.00471126 0.07515949 0.01377035
v -0.00471126 0.07515949 0.01377035
v 0.00347664 0.08238328 0.01341964
v 0.00347664 0.08238328 0.01341964
v -0.00119502 0.06847957 0.00284011
v -0.00119502 0.06847957 0.00284011
v -0.00006761 0.06897384 0.00184289
v -0.00006761 0.06897384 0.00184289
v -0.00006761 0.06897384 0.00184289
v 0.00125988 0.06502175 0.00008337
v 0.00125988 0.06502175 0.00008337
v 0.00077907 -0.03018758 0.01801204
v 0.00077907 -0.03018758 0.01801204
v -0.00004651 0.06848714 0.00281836
v -0.01098086 0.07934070 0.00210315
v -0.01098086 0.07934070 0.00210315
v 0.00752493 -0.04936993 0.01453515
v -0.00250306 0.05793365 0.01365478
v 0.00763345 -0.02991344 0.01012867
v 0.00763345 -0.02991344 0.01012867
v 0.00047222 -0.02550879 0.00313543
v 0.00047222 -0.02550879 0.00313543
v -0.00978336 0.06314964 0.01149516
v -0.00615244 0.06291600 0.00212232
v -0.00615244 0.06291600 0.00212232
v -0.00918085 0.08282426 0.01310103
v -0.00354343 0.07768393 0.02310892
v -0.00227321 0.06769168 0.00288183
v -0.00227321 0.06769168 0.00288183
v -0.00939601 0.06664119 0.01354656
v -0.00627768 0.05700766 0.00801836
v -0.00444865 0.05993314 0.00313432
v -0.00444865 0.05993314 0.00313432
v -0.00444413 -0.01642073 0.00713269
v 0.00271786 0.08155016 0.02233918
v 0.00271786 0.08155016 0.02233918
v 0.00737972 -0.04958105 0.00679635
v 0.01150125 0.07965729 0.00346404
v -0.00724721 0.06060808 0.00220583
v 0.00625458 -0.01628488 0.00978274
v 0.00650163 0.05707738 0.00777669
v -0.00515493 -0.01634710 0.00999851
v -0.00515493 -0.01634710 0.00999851
v 0.00349734 -0.07865106 0.01585827
v 0.00349734 -0.07865106 0.01585827
v -0.01059377 0.07906055 0.00176520
v 0.00150289 0.08335263 0.01120488
v -0.00207301 0.06698422 0.00009237
v -0.00207301 0.06698422 0.00009237
v 0.00091456 0.07457510 0.01985441
v 0.00091456 0.07457510 0.01985441
v -0.00596897 0.06093311 0.00217297
v -0.00596897 0.06093311 0.00217297
v -0.01061049 0.06645837 0.01144465
v 0.00430696 0.06161058 0.00075133
v 0.00421841 -0.02513335 0.01613096
v 0.00421841 -0.02513335 0.01613096
v -0.00239118 -0.08483176 0.00619284
v 0.00291503 0.07569907 0.01741872
v 0.00291503 0.07569907 0.01741872
v -0.00743626 0.06060837 0.01333486
v -0.00743626 0.06060837 0.01333486
v -0.01034936 0.08330491 0.01098015
v -0.00317230 -0.01999118 0.01677007
v -0.00317230 -0.01999118 0.01677007
v 0.00484265 0.07698904 0.02247066
v 0.00510943 0.07741604 0.02201505
v 0.00510943 0.07741604 0.02201505
v -0.00605313 0.05712750 0.00514943
v 0.00081570 0.07230197 0.01151925
v -0.00602901 -0.04965419 0.00704993
v -0.00950092 0.08237355 0.00165432
v 0.00497641 0.06329503 0.00311953
v -0.00298365 -0.03013611 0.00426534
v -0.00298365 -0.03013611 0.00426534
v -0.00594588 0.05728345 0.01086606
v -0.00066981 0.06534213 0.00100823
v -0.00066981 0.06534213 0.00100823
v -0.00934318 0.06314055 0.00251689
v -0.00934318 0.06314055 0.00251689
v -0.00311115 -0.03023699 0.01704844
v -0.00311115 -0.03023699 0.01704844
v -0.00962013 0.06639056 0.00209259
v 0.00363032 -0.08972563 0.01627015
v 0.00277760 -0.01224867 0.01351747
v -0.00344551 -0.07731237 0.00913818
v -0.01167538 0.07586198 0.01120809
v 0.00848950 -0.04946983 0.01064614
v 0.00848950 -0.04946983 0.01064614
v -0.00319343 0.07603522 0.01332190
v -0.00365238 -0.01036602 0.00980714
v -0.00365238 -0.01036602 0.00980714
v -0.00365238 -0.01036602 0.00980714
v -0.00278384 -0.02517155 0.01626338
v -0.00278384 -0.02517155 0.01626338
v 0.01117689 0.07606566 0.01256601
v 0.01117689 0.07606566 0.01256601
v 0.00116473 0.06864000 0.00182887
v 0.00116473 0.06864000 0.00182887
v 0.00437890 -0.03056044 0.00349804
v 0.00437890 -0.03056044 0.00349804
v 0.00026981 0.06617076 0.00070477
v 0.00782104 0.06069159 0.01304632
v 0.00782104 0.06069159 0.01304632
v 0.00862364 0.05996296 0.00765815
v 0.00290206 0.07314339 0.01368250
v 0.00290206 0.07314339 0.01368250
v 0.00840835 0.06019990 0.01103994
v 0.00152482 0.08333848 0.01343020
v 0.00152482 0.08333848 0.01343020
v 0.00493983 0.08073241 0.01121187
v 0.00616747 0.05719415 0.00491832
v 0.00744485 -0.08462547 0.01162483
v 0.00076254 -0.02976067 0.01726086
v 0.00076254 -0.02976067 0.01726086
v 0.00252977 -0.01043034 0.00608190
v 0.00252977 -0.01043034 0.00608190
v 0.00252977 -0.01043034 0.00608190
v -0.00342379 -0.02035686 0.00336608
v -0.00342379 -0.02035686 0.00336608
v 0.00779717 0.08702235 0.00693544
v 0.00045531 -0.02501957 0.00238257
v 0.00045531 -0.02501957 0.00238257
v -0.00304788 0.07731980 0.02344206
v -0.00067813 0.07309732 0.01335486
v 0.00088072 -0.08970638 0.00621917
v 0.00088072 -0.08970638 0.00621917
v 0.00675026 0.08549965 0.00126412
v 0.00236497 0.05879031 0.00207506
v 0.00236497 0.05879031 0.00207506
v -0.00282066 0.05470772 0.01230380
v -0.00282066 0.05470772 0.01230380
v 0.00272407 0.07374605 0.01865933
v -0.00004184 0.06770386 0.00283964
v 0.00226573 0.07462585 0.02019057
v -0.00028375 0.06856747 0.00001560
v -0.00028375 0.06856747 0.00001560
v -0.00336265 -0.03060267 0.00364445
v -0.00336265 -0.03060267 0.00364445
v -0.00622902 0.06183437 0.00311585
v -0.00622902 0.06183437 0.00311585
v 0.00931317 0.08292515 0.01275128
v 0.00546809 -0.08976650 0.01436249
v 0.00342391 0.07493231 0.01924488
v 0.00342391 0.07493231 0.01924488
v -0.00809360 0.06010988 0.01135201
v 0.00116720 0.08156030 0.02324728
v 0.00561994 0.07869922 0.01347993
v 0.00561994 0.07869922 0.01347993
v 0.00049988 -0.03014259 0.00326133
v 0.00049988 -0.03014259 0.00326133
v 0.00110202 0.06849210 0.00279667
v 0.00110202 0.06849210 0.00279667
v -0.00539491 -0.02525542 0.01374976
v -0.00539491 -0.02525542 0.01374976
v 0.00266991 0.06125408 0.00321849
v 0.01163630 0.07985366 0.01066180
v 0.00016551 0.06460319 0.00317404
v -0.01068429 0.08345488 0.00737952
v 0.00737748 -0.02466631 0.01386396
v 0.00737748 -0.02466631 0.01386396
v -0.00137652 0.07396299 0.02277806
v 0.00002068 0.05564689 0.00266768
v 0.00194617 0.07518271 0.02030880
v 0.00339764 0.07490230 0.01798239
v 0.00339764 0.07490230 0.01798239
v -0.01097533 0.07594483 0.01298494
v -0.01097533 0.07594483 0.01298494
v -0.00137916 0.06815074 0.00310631
v -0.00137916 0.06815074 0.00310631
v 0.00139528 0.08286591 0.01304945
v 0.00048868 -0.03060983 0.00253445
v 0.00048868 -0.03060983 0.00253445
v -0.00596943 0.06283899 0.00308358
v -0.00596943 0.06283899 0.00308358
v 0.00881651 0.06342351 0.00182762
v 0.00295941 0.07576359 0.01978362
v 0.00295941 0.07576359 0.01978362
v -0.00643568 0.06178882 0.00215838
v -0.00643568 0.06178882 0.00215838
v -0.00369214 0.08828302 0.01250762
v -0.00369214 0.08828302 0.01250762
v 0.00445746 0.05998172 0.00296589
v 0.00445746 0.05998172 0.00296589
v 0.00333533 -0.07888665 0.00722301
v 0.00333533 -0.07888665 0.00722301
v 0.00424607 -0.02976715 0.01625686
v 0.00424607 -0.02976715 0.01625686
v -0.00514336 0.05455573 0.00806397
v 0.00143947 0.06721491 0.00151318
v 0.01043764 0.07967283 0.01281891
v 0.00456924 -0.01994895 0.01662366
v 0.00456924 -0.01994895 0.01662366
v -0.00305509 -0.01030616 0.01187912
v -0.00305509 -0.01030616 0.01187912
v -0.00025353 0.08203518 0.02292849
v 0.00426214 -0.01240243 0.00753205
v -0.00471606 0.05470178 0.01050502
v 0.01167508 0.07579371 0.00356619
v 0.00501575 0.07664278 0.01315130
v -0.00482722 0.07924933 0.01326486
v 0.00720450 -0.02022190 0.00599868
v 0.00720450 -0.02022190 0.00599868
v 0.00760580 -0.02527963 0.01000277
v 0.00760580 -0.02527963 0.01000277
v -0.00064366 0.08347436 0.01346718
v -0.00064366 0.08347436 0.01346718
v 0.00349671 0.06062957 0.00165611
v -0.00062030 0.08155521 0.02328096
v -0.00298137 0.05447403 0.00373808
v -0.00298137 0.05447403 0.00373808
v -0.00308500 0.08064984 0.02247262
v -0.00308500 0.08064984 0.02247262
v -0.00432733 0.08133337 0.01359471
v -0.00432733 0.08133337 0.01359471
v -0.01077866 0.07963470 0.01287969
v -0.01077866 0.07963470 0.01287969
v 0.00114053 0.07418134 0.01977081
v 0.00114053 0.07418134 0.01977081
v -0.01205868 0.07573701 0.00761587
v 0.00949196 0.06353607 0.01293606
v 0.00949196 0.06353607 0.01293606
v 0.00399773 0.08929178 0.00694481
v -0.00163103 0.07334966 0.01336585
v 0.00131787 0.06510432 0.00313798
v 0.00565493 0.07864889 0.01125530
v 0.00485647 0.07645945 0.02204589
v 0.00485647 0.07645945 0.02204589
v -0.00275618 -0.02980535 0.01638928
v -0.00275618 -0.02980535 0.01638928
v 0.00195543 0.06618702 0.00309724
v 0.00163213 0.07426528 0.01723675
v 0.00726565 -0.03046770 0.00627705
v 0.00726565 -0.03046770 0.00627705
v 0.00220775 0.07454156 0.01710068
v -0.00401975 0.05001290 0.00816682
v 0.00109316 -0.08939750 0.01754162
v 0.00109316 -0.08939750 0.01754162
v 0.00139046 0.07485763 0.02020067
v -0.00165717 -0.07735213 0.00728182
v 0.00004450 0.05360876 0.00333904
v 0.00354467 0.08802977 0.00159673
v 0.00354467 0.08802977 0.00159673
v 0.00232569 0.05900150 0.00303263
v 0.00232569 0.05900150 0.00303263
v -0.00548780 0.05829173 0.00275473
v -0.00548780 0.05829173 0.00275473
v 0.00454848 0.05979432 0.00200670
v 0.00454848 0.05979432 0.00200670
v -0.00620424 -0.02029505 0.00625226
v -0.00620424 -0.02029505 0.00625226
v -0.00324856 -0.04971601 0.00416375
v -0.01074553 0.06626201 0.00424690
v 0.00527220 -0.07712953 0.01395256
v 0.00651491 -0.08471867 0.00839886
v 0.00218953 0.06771603 0.00279744
v 0.00218953 0.06771603 0.00279744
v -0.01048440 0.08310854 0.00378240
v 0.01045594 0.07574244 0.00146078
v -0.00149000 -0.07867826 0.01595259
v -0.00149000 -0.07867826 0.01595259
v 0.00100673 -0.07708516 0.01652286
v -0.00459942 -0.08460306 0.01509616
v 0.00834205 -0.02476622 0.00997496
v 0.00834205 -0.02476622 0.00997496
v -0.00281674 0.05696409 0.00245409
v 0.00975871 0.08315578 0.01239745
v 0.00975871 0.08315578 0.01239745
v -0.00014907 0.08936818 0.00341771
v -0.00014907 0.08936818 0.00341771
v 0.00271806 0.05765087 0.00209953
v 0.01032355 0.06306414 0.00754165
v -0.00349362 0.04995917 0.00607360
v -0.00301131 -0.02550231 0.00413944
v -0.00301131 -0.02550231 0.00413944
v -0.00385197 0.05217922 0.01032297
v 0.00273464 0.07578852 0.02337533
v 0.00082912 -0.07891846 0.00660222
v 0.00082912 -0.07891846 0.00660222
v 0.00296737 0.06122543 0.00105990
v 0.00296737 0.06122543 0.00105990
v 0.00249711 0.07550084 0.02016236
v 0.00074571 -0.02459732 0.01786015
v 0.00074571 -0.02459732 0.01786015
v 0.00828149 0.06001545 0.00427892
v 0.01006907 0.06325794 0.01111973
v -0.00984410 0.08275599 0.00198950
v -0.00984410 0.08275599 0.00198950
v 0.00993492 0.06306289 0.00397039
v -0.00614309 -0.03054084 0.00653063
v -0.00614309 -0.03054084 0.00653063
v -0.00393198 0.05661468 0.00309700
v -0.00393198 0.05661468 0.00309700
v 0.00109953 0.07412174 0.01758593
v 0.00109953 0.07412174 0.01758593
v 0.00074458 0.07404490 0.01816588
v 0.00323439 0.05474075 0.01218929
v 0.00323439 0.05474075 0.01218929
v 0.00283347 0.05699492 0.00234723
v 0.00455058 0.07447271 0.01138995
v 0.00310401 0.07441472 0.01945845
v -0.00158348 -0.01227245 0.01359995
v 0.00189710 0.06610413 0.00004188
v 0.00189710 0.06610413 0.00004188
v -0.00069572 0.08349040 0.01124237
v 0.00196304 0.07373231 0.01784725
v 0.00513539 0.06228392 0.00099053
v 0.00513539 0.06228392 0.00099053
v 0.01033746 0.07917473 0.00136936
v 0.00700761 0.08598444 0.00158640
v 0.00700761 0.08598444 0.00158640
v 0.00059095 0.07437813 0.01932275
v -0.00023087 0.06572769 0.00072291
v -0.00301586 0.07629340 0.02278568
v -0.00301586 0.07629340 0.02278568
v 0.00289927 0.07301584 0.01146068
v 0.00488731 -0.01233977 0.00970077
v -0.01154768 0.07972719 0.01110024
v -0.00201670 0.06706780 0.00314782
v 0.00323864 0.07589604 0.01795039
v 0.00059232 -0.01022967 0.01389342
v 0.00059232 -0.01022967 0.01389342
v -0.00230533 0.05897624 0.00312021
v -0.00230533 0.05897624 0.00312021
v -0.00138291 0.07243974 0.01155674
v -0.00271794 0.05762121 0.00220232
v -0.00148653 -0.08975356 0.01636692
v 0.00081035 0.07439244 0.02311702
v 0.00243590 0.05188597 0.00419702
v 0.00243590 0.05188597 0.00419702
v -0.00888491 0.06332695 0.00216238
v 0.00610564 -0.08983253 0.01179201
v -0.01011519 0.06631642 0.00244082
v -0.01011519 0.06631642 0.00244082
v 0.00306970 0.07437552 0.01780894
v 0.00761890 0.06039766 0.00227216
v 0.00761890 0.06039766 0.00227216
v 0.00496843 0.05462142 0.00541940
v -0.00181863 0.08123408 0.01315427
v -0.00181863 0.08123408 0.01315427
v 0.00042752 -0.02036403 0.00225608
v 0.00042752 -0.02036403 0.00225608
v -0.00143580 0.06806660 0.00005088
v -0.00143580 0.06806660 0.00005088
v -0.00143580 0.06806660 0.00005088
v 0.01073397 0.07945915 0.00169249
v 0.01073397 0.07945915 0.00169249
v 0.00486518 0.06290476 0.00097848
v 0.00486518 0.06290476 0.00097848
v 0.00056694 0.07434322 0.01804288
v -0.00458780 0.07896041 0.02215487
v -0.00458780 0.07896041 0.02215487
v -0.00843401 0.05986992 0.00798073
v 0.00357373 0.08786461 0.01272421
v -0.00220990 -0.01619682 0.01488327
v -0.01026643 0.07955989 0.01321045
v 0.00021825 0.05676033 0.01343590
v 0.01067128 0.07607779 0.01291260
v -0.00793059 0.08693656 0.00723288
v -0.00991750 0.06295459 0.00434583
v 0.00387291 0.06210085 0.00074613
v 0.00023483 0.04966464 0.01226613
v -0.00314452 -0.02464672 0.01689655
v -0.00314452 -0.02464672 0.01689655
v 0.00231619 0.06781979 0.00182964
v 0.00231619 0.06781979 0.00182964
v 0.00101620 -0.07864644 0.01657337
v 0.00101620 -0.07864644 0.01657337
v 0.00137906 0.07374382 0.01931567
v 0.00137906 0.07374382 0.01931567
v 0.00271824 0.08067114 0.02324244
v -0.00406468 -0.07880965 0.01168212
v -0.00406468 -0.07880965 0.01168212
v -0.00406468 -0.07880965 0.01168212
v -0.00406468 -0.07880965 0.01168212
v 0.00491465 0.08075417 0.01343711
v 0.00491465 0.08075417 0.01343711
v 0.00621502 0.06190225 0.00288052
v 0.00621502 0.06190225 0.00288052
v 0.00955655 0.08286183 0.00162261
v 0.00955655 0.08286183 0.00162261
v -0.00329147 -0.01244363 0.00767489
v 0.00362320 0.07733879 0.02331637
v 0.00434554 -0.02497016 0.00334616
v 0.00434554 -0.02497016 0.00334616
v 0.00509840 0.06308151 0.00155908
v 0.00340879 0.08748311 0.00127270
v -0.00004842 0.06880736 0.00280966
v -0.00004842 0.06880736 0.00280966
v -0.00004842 0.06880736 0.00280966
v -0.00218153 0.07484766 0.02261395
v -0.00218153 0.07484766 0.02261395
v 0.00543527 0.05911393 0.01347364
v 0.00077038 0.06661366 0.00067994
v -0.00216533 0.08065724 0.02333444
v 0.00372305 0.04999854 0.00593712
v 0.00336495 0.06165185 0.00076789
v 0.00482018 0.06114839 0.00318104
v 0.00594344 0.06290398 0.00285829
v 0.00594344 0.06290398 0.00285829
v 0.00217009 0.04983138 0.00444463
v 0.00217009 0.04983138 0.00444463
v 0.00307368 0.05450707 0.00362357
v 0.00307368 0.05450707 0.00362357
v 0.00135279 0.07371381 0.01805319
v 0.00135279 0.07371381 0.01805319
v -0.00443460 0.05209683 0.00811775
v -0.00277928 0.08277653 0.01130093
v -0.00277928 0.08277653 0.01130093
v -0.00466144 0.07948837 0.02203844
v -0.00466144 0.07948837 0.02203844
v -0.00104182 0.07326673 0.02214026
v -0.00104182 0.07326673 0.02214026
v 0.00608913 0.06298278 0.00189082
v 0.00608913 0.06298278 0.00189082
v 0.00198758 0.08278209 0.02192724
v 0.00198758 0.08278209 0.02192724
v -0.00001402 0.08956454 0.01061547
v -0.00001402 0.08956454 0.01061547
v -0.00165276 -0.08999526 0.00750741
v -0.00443059 0.08131966 0.01137166
v -0.00341547 0.05007280 0.01023867
v -0.00914107 0.06343443 0.01328844
v -0.00914107 0.06343443 0.01328844
v -0.00313324 -0.01041979 0.00771405
v -0.00313324 -0.01041979 0.00771405
v -0.00552936 -0.08469624 0.01187019
v -0.00552936 -0.08469624 0.01187019
v 0.00477294 0.07753713 0.02256517
v 0.00673334 -0.02518927 0.01352040
v 0.00673334 -0.02518927 0.01352040
v 0.00263593 -0.01245467 0.00596654
v 0.00007854 0.04943739 0.00393599
v -0.00339601 -0.02501240 0.00349257
v -0.00339601 -0.02501240 0.00349257
v -0.00150142 -0.01025626 0.01337480
v -0.00150142 -0.01025626 0.01337480
v -0.00150142 -0.01025626 0.01337480
v 0.00427604 0.06061892 0.00164177
v 0.00001246 0.05860687 0.00308679
v 0.00001246 0.05860687 0.00308679
v 0.00409593 -0.08479638 0.00607016
v -0.00523384 0.05874446 0.00221889
v 0.00471728 0.05214675 0.00794468
v 0.00337472 0.06084308 0.00321648
v -0.00605905 -0.02008392 0.01399105
v -0.00605905 -0.02008392 0.01399105
v 0.00721137 0.06068695 0.00193239
v -0.00393512 0.05205830 0.00589103
v 0.00551824 0.07645078 0.01131783
v 0.00397597 0.05665781 0.00294744
v 0.00397597 0.05665781 0.00294744
v 0.00665017 -0.08952105 0.01177329
v 0.00665017 -0.08952105 0.01177329
v 0.00439385 0.07866934 0.02238632
v 0.00439385 0.07866934 0.02238632
v 0.00398124 0.08889657 0.01055873
v -0.00020448 0.08232402 0.02237289
v -0.00020448 0.08232402 0.02237289
v -0.00193666 -0.08970113 0.00703119
v -0.00193666 -0.08970113 0.00703119
v 0.00627473 0.05735011 0.01063496
v -0.00580234 0.06108350 0.00312833
v -0.00580234 0.06108350 0.00312833
v -0.00094001 0.07362810 0.02267085
v 0.00343586 0.07562620 0.01911712
v 0.00579732 0.06114677 0.00290897
v 0.00579732 0.06114677 0.00290897
v 0.00046888 0.07429671 0.01868662
v -0.00599790 -0.03032972 0.01426943
v -0.00599790 -0.03032972 0.01426943
v 0.00279190 0.06104057 0.00165804
v -0.00152481 0.08132514 0.02317041
v -0.00397067 -0.08965592 0.00914254
v -0.00397067 -0.08965592 0.00914254
v -0.00111899 0.06479284 0.00013425
v -0.00111899 0.06479284 0.00013425
v 0.00076416 0.07407338 0.01920961
v -0.00528172 0.07938242 0.01366584
v -0.00528172 0.07938242 0.01366584
v 0.00218473 0.07491622 0.02272567
v 0.00218473 0.07491622 0.02272567
v 0.00453073 0.07458028 0.01361274
v 0.00453073 0.07458028 0.01361274
v -0.00423081 0.07886915 0.02269777
v -0.00553494 0.07714348 0.01150632
v 0.00084706 0.07243930 0.01374027
v 0.00084706 0.07243930 0.01374027
v -0.00344328 -0.07887402 0.00917669
v -0.00344328 -0.07887402 0.00917669
v 0.00021892 0.05386239 0.01263570
v 0.00831426 -0.02011068 0.00984847
v 0.00831426 -0.02011068 0.00984847
v 0.00074080 0.07407378 0.02258024
v 0.00074080 0.07407378 0.02258024
v 0.00293293 0.05796330 0.01355198
v -0.00412807 -0.08988835 0.01198555
v -0.00714103 -0.02485067 0.01026776
v -0.00714103 -0.02485067 0.01026776
v -0.00714103 -0.02485067 0.01026776
v -0.00714103 -0.02485067 0.01026776
v 0.00060803 -0.01224463 0.01414277
v 0.00451289 0.07655370 0.02259688
v 0.00533169 0.06156716 0.00159609
v 0.00662966 -0.03001403 0.00664653
v 0.00662966 -0.03001403 0.00664653
v -0.00374876 0.05688109 0.01286244
v -0.00374876 0.05688109 0.01286244
v 0.00338195 0.07985690 0.01309426
v 0.00022581 0.05149176 0.01231586
v 0.00528860 -0.07869088 0.01399890
v 0.00528860 -0.07869088 0.01399890
v 0.00920514 0.08247558 0.00130056
v 0.00000274 0.05718762 0.00216311
v 0.00346410 -0.08996733 0.00741064
v 0.00951512 0.06649494 0.00173071
v 0.00421758 0.05222324 0.01017036
v 0.01039534 0.08341806 0.01058784
v 0.00380120 0.05011216 0.01010219
v -0.00335212 -0.07717658 0.01411567
v -0.00282346 0.07641421 0.02332876
v 0.00517919 0.07688245 0.02192489
v 0.00517919 0.07688245 0.02192489
v 0.01110977 0.06640396 0.00743579
v 0.00146462 0.07355924 0.01868806
v 0.00146462 0.07355924 0.01868806
v 0.00266513 -0.01023353 0.01329601
v 0.00266513 -0.01023353 0.01329601
v 0.00266513 -0.01023353 0.01329601
v 0.00349486 -0.01616570 0.01477539
v 0.00494218 0.06093487 0.00162064
v -0.00766732 0.08664884 0.01083860
v 0.00336071 0.07597748 0.01858652
v -0.00146595 0.07359437 0.02224268
v -0.00146595 0.07359437 0.02224268
v -0.01168272 0.07953083 0.00390249
v 0.01022602 0.06672035 0.01283932
v 0.01022602 0.06672035 0.01283932
v 0.00549934 0.05835166 0.00254694
v 0.00549934 0.05835166 0.00254694
v 0.00723228 -0.02487744 0.00612517
v 0.00723228 -0.02487744 0.00612517
v 0.00361719 0.07912595 0.02326773
v 0.00318536 0.07536983 0.01970002
v 0.00318536 0.07536983 0.01970002
v 0.00410025 0.07874369 0.02293659
v 0.00279235 0.07498637 0.02005312
v 0.01181012 0.07599008 0.01076395
v 0.01085755 0.06657548 0.01103866
v -0.00866199 0.06361016 0.01361548
v 0.00583833 -0.08960240 0.00895703
v 0.00583833 -0.08960240 0.00895703
v -0.01117756 0.07565078 0.00220662
v -0.01117756 0.07565078 0.00220662
v 0.00589259 -0.07719380 0.01145120
v 0.00589259 -0.07719380 0.01145120
v -0.00541654 0.07721444 0.01372751
v -0.00541654 0.07721444 0.01372751
v 0.01205868 0.07586857 0.00715977
v 0.01093617 0.07975314 0.01246904
v 0.01093617 0.07975314 0.01246904
v 0.00183437 0.06743837 0.00306546
v 0.00432733 0.05005843 0.00800897
v 0.00044282 -0.01647157 0.00418790
v -0.00163678 -0.01045307 0.00616069
v -0.00163678 -0.01045307 0.00616069
v -0.00163678 -0.01045307 0.00616069
v 0.00569477 0.05863583 0.01296310
v 0.00569477 0.05863583 0.01296310
v 0.00010784 0.06452088 0.00011865
v 0.00010784 0.06452088 0.00011865
v 0.00676100 -0.02982307 0.01364630
v 0.00676100 -0.02982307 0.01364630
v -0.00022653 0.06865187 0.00307102
v -0.00472109 -0.08477997 0.00861134
v 0.00401859 -0.03009791 0.00413291
v 0.00401859 -0.03009791 0.00413291
v 0.00548513 0.07653122 0.01354161
v 0.00548513 0.07653122 0.01354161
v -0.00237848 0.05876443 0.00216477
v -0.00237848 0.05876443 0.00216477
v 0.00083607 -0.08483777 0.00526271
v -0.00164106 0.08149226 0.02261805
v -0.00164106 0.08149226 0.02261805
v -0.00164106 0.08149226 0.02261805
v -0.00017867 0.08866538 0.00165019
v -0.00017867 0.08866538 0.00165019
v -0.00017867 0.08866538 0.00165019
v 0.00303964 0.05729472 0.01333626
v 0.00687894 0.08590997 0.01271552
v 0.00372657 -0.08967025 0.00692409
v 0.00372657 -0.08967025 0.00692409
v 0.00001086 0.05645876 0.00238269
v 0.00463039 -0.03019475 0.01690203
v 0.00463039 -0.03019475 0.01690203
v 0.01059225 0.08357094 0.00697716
v 0.00044443 -0.01248250 0.00542371
v -0.00617646 -0.02495057 0.00637875
v -0.00617646 -0.02495057 0.00637875
v -0.00708230 0.08542420 0.00152571
v -0.00229383 0.05186017 0.00428646
v -0.00229383 0.05186017 0.00428646
v -0.00350075 0.08782602 0.01285800
v 0.00554377 -0.01621125 0.01264855
v -0.00549858 -0.03008019 0.00687590
v -0.00549858 -0.03008019 0.00687590
v -0.00008474 0.09000000 0.00700209
v -0.00008474 0.09000000 0.00700209
v -0.00588381 -0.04944306 0.01478872
v 0.00065682 -0.01616041 0.01559335
v 0.00093490 0.08270378 0.02249623
v -0.00703232 0.06092051 0.01365827
v -0.00132142 0.07257518 0.01377725
v -0.00132142 0.07257518 0.01377725
v 0.00021821 0.05593410 0.01319540
v -0.00269866 0.08277029 0.01352494
v -0.00269866 0.08277029 0.01352494
v -0.00269866 0.08277029 0.01352494
v 0.00928986 0.06324220 0.00216451
v 0.00928986 0.06324220 0.00216451
v -0.01045713 0.07596254 0.01331217
v 0.00638580 0.06185877 0.00191592
v 0.00638580 0.06185877 0.00191592
v 0.00431775 -0.02031463 0.00321968
v 0.00431775 -0.02031463 0.00321968
v 0.00200716 0.07465804 0.01326190
v -0.00529236 0.05857590 0.01317088
v -0.00529236 0.05857590 0.01317088
v 0.00902370 0.06370663 0.01328101
v -0.00165202 -0.07891384 0.00731732
v -0.00165202 -0.07891384 0.00731732
v 0.00314437 0.07531023 0.01751514
v 0.00314437 0.07531023 0.01751514
v -0.01099686 0.06628337 0.00785385
v 0.00374675 0.08832360 0.01236694
v 0.00374675 0.08832360 0.01236694
v -0.00086764 0.06517343 0.00161216
v -0.00239522 -0.01646628 0.00500586
v 0.00089281 -0.09000000 0.00677375
v 0.00341629 0.07559773 0.01807340
v -0.00149540 -0.07711693 0.01590308
v 0.00262951 0.08127172 0.02289521
v 0.00087020 0.07451059 0.01748951
v 0.00087020 0.07451059 0.01748951
v -0.00305388 0.07910697 0.02339341
v 0.00210914 0.07353034 0.01867676
v 0.00591000 -0.07875526 0.01149348
v 0.00591000 -0.07875526 0.01149348
v 0.00591000 -0.07875526 0.01149348
v 0.00273879 0.07490849 0.01719844
v -0.00218044 -0.08452533 0.01742486
v 0.00332209 -0.07732496 0.00718766
v 0.00002337 0.08895916 0.01241852
v 0.00002337 0.08895916 0.01241852
v 0.00002337 0.08895916 0.01241852
v -0.00214892 0.07577462 0.02346734
v 0.00468072 -0.01032057 0.00964956
v 0.00468072 -0.01032057 0.00964956
v 0.00419954 0.06086912 0.00104654
v 0.00419954 0.06086912 0.00104654
v 0.00081995 -0.07735673 0.00656789
v -0.01192332 0.07974334 0.00750402
v -0.00400107 0.08885304 0.01070969
v 0.00147809 0.08277228 0.02237602
v -0.00039276 0.07370247 0.02276670
v 0.00355506 0.06087718 0.00105855
v 0.00355506 0.06087718 0.00105855
v 0.00494435 0.07717133 0.01313822
v 0.00326266 0.07593096 0.01923026
v 0.00541574 0.06233788 0.00157350
v -0.00639870 -0.02535602 0.01026762
v -0.00639870 -0.02535602 0.01026762
v -0.00639870 -0.02535602 0.01026762
v -0.00639870 -0.02535602 0.01026762
v 0.00767357 0.08673251 0.01054849
v -0.00172515 -0.01247845 0.00604901
v 0.00348384 -0.07708977 0.01580892
v -0.00501896 0.05905690 0.01367134
v 0.00088863 0.07382835 0.01869153
v 0.00321580 0.07417355 0.01863844
v 0.00089315 -0.04930093 0.01853133
v 0.00453199 0.06204240 0.00073533
v 0.00416158 -0.01026680 0.01174265
v 0.00416158 -0.01026680 0.01174265
v 0.00415405 0.06083245 0.00320215
v 0.00742625 0.06099938 0.01338484
v -0.00733256 0.08590621 0.00185759
v -0.00733256 0.08590621 0.00185759
v 0.00384620 0.08870021 0.00336097
v -0.00991294 0.06661050 0.01322018
v -0.00991294 0.06661050 0.01322018
v -0.01017082 0.06295234 0.00792923
v -0.00822046 0.05992544 0.00459100
v 0.00415919 0.05692422 0.01271289
v 0.00415919 0.05692422 0.01271289
v 0.00529376 0.06255139 0.00313387
v 0.00006579 0.05125909 0.00378713
v -0.00406591 -0.07724811 0.01163954
v -0.00406591 -0.07724811 0.01163954
v -0.00349052 -0.08995438 0.00941506
v 0.00506038 0.05475512 0.01032013
v 0.00972149 0.06674548 0.01318502
v -0.00175269 -0.08943362 0.01683671
v -0.00175269 -0.08943362 0.01683671
v 0.00168569 0.07434317 0.02009143
v -0.00018177 0.08810055 0.00132323
v 0.00338773 0.08002423 0.02311374
v -0.00059791 0.07488545 0.02346249
v -0.00243748 0.06779385 0.00191954
v -0.00243748 0.06779385 0.00191954
v 0.00133248 0.07477335 0.01711078
v -0.00430457 0.07941133 0.02257621
v -0.00215148 0.05206715 0.01187331
v -0.00215148 0.05206715 0.01187331
v -0.00386445 -0.08950147 0.01480376
v -0.00386445 -0.08950147 0.01480376
v 0.00413442 0.05210231 0.00573843
v 0.00146851 0.06725732 0.00307726
v 0.00474448 -0.04930809 0.01742133
v 0.00260308 0.07400710 0.01954691
v -0.00327324 0.07353040 0.01378780
v -0.00327324 0.07353040 0.01378780
v -0.00189563 0.06581670 0.00317968
v -0.00389422 0.08798919 0.00173741
v -0.00389422 0.08798919 0.00173741
v 0.00434393 -0.01228349 0.01189158
v -0.00334973 -0.07873801 0.01416226
v -0.00334973 -0.07873801 0.01416226
v 0.00522039 0.05880149 0.00202119
v 0.00121930 0.06701375 0.00092718
v 0.00121930 0.06701375 0.00092718
v 0.00660200 -0.02538023 0.00652063
v 0.00660200 -0.02538023 0.00652063
v -0.00716882 -0.02019513 0.01014127
v -0.00716882 -0.02019513 0.01014127
v -0.00716882 -0.02019513 0.01014127
v -0.00716882 -0.02019513 0.01014127
v -0.00129589 0.06862658 0.00187540
v -0.00129589 0.06862658 0.00187540
v 0.00517880 -0.07726531 0.00897508
v 0.00520970 0.06178068 0.00315648
v 0.00191866 0.08244328 0.02248488
v -0.00376474 0.08744398 0.00140836
v 0.00181956 0.08254246 0.01305032
v -0.00186110 0.05000547 0.01173754
v -0.00186110 0.05000547 0.01173754
v 0.00477223 0.06109828 0.00102953
v 0.00477223 0.06109828 0.00102953
v 0.00543678 -0.01636683 0.00694584
v -0.00964194 0.08304995 0.01276434
v -0.00964194 0.08304995 0.01276434
v 0.01026030 0.08322170 0.00339009
v 0.00177609 0.06735460 0.00001004
v 0.00177609 0.06735460 0.00001004
v 0.00021761 0.05750005 0.01361557
v 0.00355952 0.08011507 0.02255805
v 0.00355952 0.08011507 0.02255805
v 0.00362132 0.07574797 0.02248051
v 0.00362132 0.07574797 0.02248051
v -0.00780237 0.08645248 0.00364085
v 0.00043603 -0.01045693 0.00556328
v 0.00043603 -0.01045693 0.00556328
v 0.00469245 0.07621874 0.01316894
v 0.00243914 0.07541654 0.01707247
v -0.00299707 -0.04935033 0.01756773
v 0.00208908 0.07511331 0.02327208
v -0.00450393 0.07967337 0.01324724
v 0.00734970 -0.02001077 0.01373748
v 0.00734970 -0.02001077 0.01373748
v -0.00397074 0.07985257 0.02266606
v -0.00480801 0.05456809 0.00560429
v 0.01072250 0.06637911 0.00384090
v -0.00710767 -0.03044095 0.01041965
v -0.00710767 -0.03044095 0.01041965
v -0.00710767 -0.03044095 0.01041965
v -0.00710767 -0.03044095 0.01041965
v 0.00108475 -0.08972090 0.01700382
v -0.00383485 -0.01238735 0.00986571
v -0.00383485 -0.01238735 0.00986571
v -0.00278130 0.08056602 0.02301599
v 0.00383620 0.06144501 0.00076468
v -0.01067128 0.07562719 0.00186032
v -0.00004492 0.06822011 0.00282561
v 0.00094307 0.06829551 0.00000000
v 0.00094307 0.06829551 0.00000000
v 0.00449298 -0.04967377 0.00401734
v 0.01002377 0.06642628 0.00205997
v 0.01002377 0.06642628 0.00205997
v -0.00603126 -0.02473945 0.01411754
v -0.00603126 -0.02473945 0.01411754
v -0.00433714 -0.01626515 0.01283542
v -0.00120675 0.07302619 0.01336671
v 0.00399094 -0.02546411 0.00400701
v 0.00399094 -0.02546411 0.00400701
v 0.00741085 -0.03025658 0.01401585
v 0.00741085 -0.03025658 0.01401585
v -0.00050904 0.07334095 0.02223164
v -0.00050904 0.07334095 0.02223164
v 0.00438042 0.06255040 0.00072432
v 0.00118961 0.07489054 0.02342882
v 0.00391054 -0.08940273 0.01672961
v 0.00391054 -0.08940273 0.01672961
v 0.00594455 -0.08944795 0.01461826
v 0.00594455 -0.08944795 0.01461826
v -0.00106219 0.06487531 0.00318973
v -0.00336185 0.07340823 0.01156744
v 0.00330953 -0.01643517 0.00489798
v 0.01187551 0.07987315 0.00705396
v -0.00552624 -0.02544638 0.00675000
v -0.00552624 -0.02544638 0.00675000
v -0.00083799 0.06521637 0.00317621
v -0.00637104 -0.02998983 0.01039352
v -0.00637104 -0.02998983 0.01039352
v -0.00637104 -0.02998983 0.01039352
v -0.00637104 -0.02998983 0.01039352
v -0.00713044 0.08620010 0.01263011
v -0.00713044 0.08620010 0.01263011
v -0.00467629 -0.08958282 0.01198750
v -0.00467629 -0.08958282 0.01198750
v -0.00467629 -0.08958282 0.01198750
v 0.00720974 0.08627832 0.01235892
v 0.00720974 0.08627832 0.01235892
v 0.00199735 0.07377150 0.01949677
v 0.00592934 0.06099802 0.00194796
v 0.00592934 0.06099802 0.00194796
v 0.00356035 0.07538118 0.01859903
v -0.00481986 0.07505997 0.01154974
v -0.00539826 0.07934159 0.01144379
v 0.00188342 0.07509147 0.01696433
v 0.00430667 -0.08448995 0.01730218
v 0.00257826 0.05209295 0.01178386
v 0.00257826 0.05209295 0.01178386
v -0.00678241 0.08583547 0.01297387
v 0.01097467 0.07577161 0.00178768
v 0.01097467 0.07577161 0.00178768
v 0.00348184 0.08238413 0.01119417
v 0.00100094 0.06837976 0.00305541
v 0.00230545 0.05002819 0.01165874
v 0.00230545 0.05002819 0.01165874
v -0.00207268 0.07515591 0.02315029
vt 0.13098300 0.82495800
vt 0.61924000 0.59890600
vt 0.35519000 0.07919400
vt 0.51438700 0.46368900
vt 0.36192900 0.68686300
vt 0.34277800 0.96181000
vt 0.71660100 0.09525700
vt 0.32920600 0.62094800
vt 0.02538800 0.47694100
vt 0.38999500 0.29690600
vt 0.65889700 0.37057600
vt 0.49389400 0.14095300
vt 0.28073400 0.05027400
vt 0.37477100 0.41299300
vt 0.15306600 0.44366500
vt 0.50368800 0.07919400
vt 0.72205700 0.10376700
vt 0.00901100 0.24090900
vt 0.11088000 0.52653900
vt 0.38088300 0.50559400
vt 0.12899400 0.44731600
vt 0.97833900 0.28875500
vt 0.17833800 0.91679000
vt 0.17861500 0.87078700
vt 0.39066900 0.18431900
vt 0.61550400 0.19042400
vt 0.00878600 0.89758000
vt 0.35517700 0.13828900
vt 0.22899200 0.06674400
vt 0.82773700 0.30480700
vt 0.30732700 0.90636100
vt 0.23943600 0.90713500
vt 0.56591300 0.22574600
vt 0.74879700 0.61403300
vt 0.35564500 0.82456400
vt 0.36079000 0.57012200
vt 0.01062800 0.59576100
vt 0.53900000 0.21384300
vt 0.97833900 0.25230800
vt 0.09429900 0.45791900
vt 0.24199200 0.01369700
vt 0.61939400 0.11176100
vt 0.35882000 0.13758600
vt 0.22493200 0.06515500
vt 0.41565700 0.18306600
vt 0.78852600 0.37210600
vt 0.53143800 0.98951500
vt 0.71435000 0.12966500
vt 0.27792800 0.23039200
vt 0.23288000 0.87946200
vt 0.04440200 0.86692900
vt 0.25637100 0.46973400
vt 0.56429100 0.76279800
vt 0.75017200 0.37392400
vt 0.27501100 0.06680600
vt 0.51095400 0.13828900
vt 0.06887600 0.79440000
vt 0.81533700 0.20201700
vt 0.82983400 0.27489700
vt 0.06887600 0.92835100
vt 0.98642500 0.36713800
vt 0.10053800 0.38891800
vt 0.97833900 0.12954700
vt 0.97833900 0.37506900
vt 0.09429900 0.37700600
vt 0.04348300 0.49008800
vt 0.32919800 0.59531800
vt 0.65542000 0.61403300
vt 0.35564500 0.74148200
vt 0.09361000 0.38891100
vt 0.37655800 0.26936200
vt 0.17789600 0.29734000
vt 0.71584200 0.76078600
vt 0.25723100 0.46438600
vt 0.36192900 0.82456400
vt 0.34277800 0.82318800
vt 0.30732700 0.74001500
vt 0.23943600 0.74125200
vt 0.44125600 0.38883400
vt 0.97833900 0.32011200
vt 0.14099000 0.42310900
vt 0.20751100 0.27357100
vt 0.27677100 0.04813800
vt 0.10707000 0.39363600
vt 0.98642500 0.35941100
vt 0.20495000 0.39738400
vt 0.41565900 0.44190600
vt 0.98642500 0.28875500
vt 0.12047200 0.44037400
vt 0.80337100 0.13516700
vt 0.37223700 0.14095300
vt 0.22360000 0.05016900
vt 0.59844400 0.37198800
vt 0.53935000 0.26960100
vt 0.14935700 0.44078300
vt 0.69850800 0.17962500
vt 0.51438700 0.44190500
vt 0.58319300 0.11543300
vt 0.81685100 0.11775600
vt 0.13268000 0.89313500
vt 0.67513600 0.98595700
vt 0.17402800 0.29961600
vt 0.05373900 0.94323500
vt 0.01847600 0.48196200
vt 0.32921300 0.62949100
vt 0.92369200 0.08175900
vt 0.73584800 0.08541700
vt 0.97833900 0.30714000
vt 0.13959300 0.43827600
vt 0.44151700 0.36448400
vt 0.01425000 0.59985200
vt 0.30732700 0.87863700
vt 0.23943600 0.87946200
vt 0.17735800 0.75437800
vt 0.01703700 0.24931000
vt 0.70835200 0.10516800
vt 0.21919000 0.44417400
vt 0.45654600 0.41299200
vt 0.44031000 0.24336300
vt 0.59182900 0.17454300
vt 0.00878600 0.92823200
vt 0.22826700 0.01463100
vt 0.22326700 0.01516400
vt 0.40467300 0.13828900
vt 0.39292200 0.44135700
vt 0.05373900 0.83905000
vt 0.71934900 0.37198800
vt 0.16544100 0.27455500
vt 0.34675800 0.55933300
vt 0.36192900 0.93407300
vt 0.34277800 0.71229100
vt 0.43839500 0.44135700
vt 0.36079000 0.63013500
vt 0.05394100 0.60885100
vt 0.16617700 0.42185600
vt 0.37607100 0.38859000
vt 0.62432500 0.61403300
vt 0.35564500 0.71386200
vt 0.16754500 0.39661600
vt 0.84208100 0.35812200
vt 0.66370800 0.14017000
vt 0.69941700 0.58685600
vt 0.44132100 0.29690600
vt 0.74654800 0.76279800
vt 0.56762200 0.37392400
vt 0.48256500 0.07919400
vt 0.61954100 0.08985400
vt 0.41565900 0.98950800
vt 0.78076000 0.08985400
vt 0.30732700 0.93408600
vt 0.23943600 0.93480700
vt 0.36322800 0.32605800
vt 0.47491300 0.29661800
vt 0.97833900 0.13747800
vt 0.08487900 0.37961000
vt 0.62782600 0.22574600
vt 0.35564500 0.88002500
vt 0.05394700 0.59984000
vt 0.33662900 0.44435900
vt 0.47350000 0.41299200
vt 0.51438700 0.41457900
vt 0.77745500 0.23989900
vt 0.06887600 0.85393400
vt 0.48938500 0.41411400
vt 0.06887600 0.94323500
vt 0.84212400 0.26668600
vt 0.05373900 0.91346800
vt 0.53712300 0.44135600
vt 0.17832300 0.84758500
vt 0.36192900 0.74148200
vt 0.34277800 0.90636100
vt 0.07780400 0.98953400
vt 0.54875500 0.98952900
vt 0.72933500 0.12569800
vt 0.00878600 0.68302000
vt 0.80683800 0.17654600
vt 0.51438700 0.21288000
vt 0.23288000 0.74125200
vt 0.04440200 0.71367100
vt 0.27430500 0.04411200
vt 0.45418800 0.07919400
vt 0.21497300 0.77674500
vt 0.76400500 0.33844400
vt 0.04173900 0.25146900
vt 0.97833900 0.23272900
vt 0.07624700 0.45490300
vt 0.45514700 0.46964500
vt 0.25416000 0.49119600
vt 0.72209200 0.09528100
vt 0.09361000 0.39363600
vt 0.73347400 0.09534000
vt 0.01847600 0.49821300
vt 0.32921300 0.56114400
vt 0.35564500 0.93407300
vt 0.68996700 0.22574600
vt 0.13114300 0.42884500
vt 0.98642500 0.31304400
vt 0.34840000 0.27370500
vt 0.82773000 0.37228400
vt 0.00990900 0.23641000
vt 0.72708500 0.10373200
vt 0.44066000 0.41411400
vt 0.23582000 0.05412400
vt 0.80084000 0.27489700
vt 0.06887600 0.89858400
vt 0.36192900 0.90704900
vt 0.34277800 0.74001500
vt 0.08668200 0.38891800
vt 0.98642500 0.13747800
vt 0.30732700 0.96181000
vt 0.23943600 0.96185700
vt 0.34675800 0.59068400
vt 0.48942500 0.26960100
vt 0.30841700 0.60386400
vt 0.41565700 0.24267600
vt 0.23288000 0.85241200
vt 0.04440200 0.83627700
vt 0.27707000 0.01824500
vt 0.09429900 0.47962000
vt 0.73803600 0.09538400
vt 0.71700400 0.10370800
vt 0.01056700 0.24524800
vt 0.19268100 0.32588900
vt 0.45513300 0.29661800
vt 0.30843800 0.55257900
vt 0.30843800 0.63805700
vt 0.35881700 0.07919400
vt 0.65889700 0.22574600
vt 0.35564500 0.90704900
vt 0.12954100 0.42279200
vt 0.98642500 0.32011200
vt 0.02671600 0.42004500
vt 0.01577400 0.23145900
vt 0.73570000 0.10516800
vt 0.97833900 0.31304400
vt 0.14316100 0.43173600
vt 0.24918900 0.23128800
vt 0.45417800 0.18450700
vt 0.98642500 0.21586200
vt 0.06674800 0.44037400
vt 0.13139200 0.80206800
vt 0.63902600 0.59774800
vt 0.36192900 0.76910200
vt 0.34277800 0.87863700
vt 0.41565900 0.46369000
vt 0.35666900 0.51988200
vt 0.35680600 0.29853100
vt 0.64129500 0.20226900
vt 0.00878600 0.86692900
vt 0.62978300 0.10122300
vt 0.43271000 0.98951500
vt 0.24200500 0.06226200
vt 0.71683800 0.14465900
vt 0.43575600 0.46408100
vt 0.54005000 0.29690600
vt 0.40831600 0.07919400
vt 0.50731400 0.07919400
vt 0.00878600 0.77497400
vt 0.72673300 0.21099800
vt 0.30732700 0.82318800
vt 0.23943600 0.82389500
vt 0.85033500 0.25439600
vt 0.06887600 0.95811800
vt 0.35666900 0.58537300
vt 0.24613000 0.05987000
vt 0.11808400 0.49039800
vt 0.37617100 0.46964600
vt 0.26397000 0.06659500
vt 0.52072900 0.14095300
vt 0.85033500 0.22540200
vt 0.06887600 0.74974900
vt 0.19452000 0.29758600
vt 0.45475700 0.26936100
vt 0.73228400 0.08632500
vt 0.92077100 0.08048700
vt 0.41565800 0.29728000
vt 0.47480000 0.38858900
vt 0.34966000 0.42239800
vt 0.51438700 0.18306700
vt 0.46144200 0.07919400
vt 0.30842100 0.59531800
vt 0.05373900 0.89858400
vt 0.41196000 0.13828900
vt 0.22881900 0.00963400
vt 0.36192900 0.71386200
vt 0.34277800 0.93408600
vt 0.30841700 0.58677100
vt 0.71108000 0.09093200
vt 0.59676900 0.22574600
vt 0.35564500 0.85302700
vt 0.71069500 0.09523100
vt 0.41565900 0.50253300
vt 0.85231100 0.33857800
vt 0.21497300 0.91779100
vt 0.73753400 0.09036900
vt 0.67922800 0.58560900
vt 0.09429900 0.49626200
vt 0.06580600 0.23145000
vt 0.55290900 0.18450800
vt 0.07964200 0.44621800
vt 0.98642500 0.23272900
vt 0.13694700 0.45979200
vt 0.37310200 0.43496700
vt 0.97833900 0.21586200
vt 0.05960300 0.44731800
vt 0.82784000 0.15641100
vt 0.00878600 0.65236800
vt 0.68901700 0.37089600
vt 0.38979900 0.36448400
vt 0.69578600 0.97512900
vt 0.17866600 0.82434500
vt 0.08015000 0.39363600
vt 0.98642500 0.14520600
vt 0.39100500 0.24336400
vt 0.01353100 0.32560200
vt 0.13176500 0.93656300
vt 0.63570400 0.98595700
vt 0.65542000 0.97342200
vt 0.17658100 0.96382700
vt 0.23288000 0.82389500
vt 0.04440200 0.80562600
vt 0.11586400 0.46892800
vt 0.47592900 0.24282500
vt 0.35258600 0.27150600
vt 0.54095500 0.15551600
vt 0.38909000 0.15551500
vt 0.07359100 0.46358800
vt 0.51438700 0.38903200
vt 0.39800400 0.50310500
vt 0.30732700 0.71229100
vt 0.23943600 0.71417700
vt 0.43429700 0.48557700
vt 0.24601400 0.01621700
vt 0.13146600 0.77988400
vt 0.65889600 0.59736600
vt 0.36079000 0.59068400
vt 0.01807500 0.60883500
vt 0.73743600 0.10038700
vt 0.23288000 0.90713500
vt 0.04440200 0.89758000
vt 0.53938900 0.41411400
vt 0.48878900 0.38883400
vt 0.16883100 0.27127100
vt 0.37719900 0.24282500
vt 0.53998500 0.38883400
vt 0.72102500 0.22574600
vt 0.35564500 0.96107100
vt 0.37274100 0.45201900
vt 0.12508200 0.47322800
vt 0.92188400 0.06475600
vt 0.71199100 0.08622300
vt 0.92307900 0.06924700
vt 0.47490000 0.46964500
vt 0.30168400 0.49119700
vt 0.07273400 0.46892800
vt 0.05373900 0.86881700
vt 0.72740000 0.09933500
vt 0.63240600 0.12331800
vt 0.04084300 0.49821300
vt 0.32919900 0.58677400
vt 0.05373900 0.95811800
vt 0.71674700 0.09121200
vt 0.36079000 0.56463500
vt 0.01361900 0.59240500
vt 0.01457900 0.29958200
vt 0.03927700 0.24723100
vt 0.55261200 0.21353400
vt 0.92479700 0.07739000
vt 0.05394700 0.60439600
vt 0.48256400 0.14228100
vt 0.28049700 0.03819600
vt 0.05373900 0.85393400
vt 0.69888800 0.14628900
vt 0.44062000 0.26960000
vt 0.30843000 0.62950900
vt 0.01751600 0.24482800
vt 0.65459200 0.11935300
vt 0.27792800 0.98953200
vt 0.10757800 0.44621800
vt 0.98642500 0.27188800
vt 0.05373900 0.82416700
vt 0.11500700 0.46358800
vt 0.84208000 0.31902500
vt 0.26200000 0.01369800
vt 0.55051700 0.48993500
vt 0.07558500 0.51081600
vt 0.16186700 0.42004200
vt 0.80813800 0.37733800
vt 0.37603000 0.36464000
vt 0.17219800 0.39739400
vt 0.71671200 0.09930200
vt 0.03552800 0.44367000
vt 0.55527500 0.41299300
vt 0.53448400 0.46408000
vt 0.33406800 0.07919400
vt 0.53206400 0.07919400
vt 0.00878600 0.71367100
vt 0.78227500 0.19256600
vt 0.01583600 0.49008800
vt 0.32922100 0.55260100
vt 0.32922100 0.63803400
vt 0.01071200 0.29730500
vt 0.55348700 0.26936200
vt 0.36079000 0.55933300
vt 0.01806900 0.59086700
vt 0.92543500 0.06838900
vt 0.50366900 0.13828900
vt 0.28062400 0.06135500
vt 0.41565900 0.41457900
vt 0.30492500 0.23573400
vt 0.61227600 0.14906500
vt 0.19915200 0.29840800
vt 0.27792800 0.47369100
vt 0.35850500 0.32601300
vt 0.41565700 0.21288000
vt 0.39006000 0.38883500
vt 0.01864400 0.59985100
vt 0.27792800 0.52985200
vt 0.23288000 0.93480700
vt 0.04440200 0.92823200
vt 0.97833900 0.14520600
vt 0.07610000 0.38593700
vt 0.13221500 0.91502100
vt 0.65542000 0.98557400
vt 0.72715800 0.08687000
vt 0.91782800 0.07680800
vt 0.22986900 0.04402600
vt 0.71829000 0.60063100
vt 0.59618800 0.98899100
vt 0.12462700 0.71542900
vt 0.12611000 0.97878700
vt 0.06887600 0.91346800
vt 0.81533700 0.27778100
vt 0.05607700 0.42884500
vt 0.98642500 0.19157300
vt 0.55284600 0.24282500
vt 0.01978000 0.27124500
vt 0.78007300 0.11250500
vt 0.23559500 0.02197900
vt 0.23288000 0.76832700
vt 0.04440200 0.74432300
vt 0.35666900 0.55933300
vt 0.06708200 0.23628300
vt 0.98642500 0.12954700
vt 0.98642500 0.37506900
vt 0.09361000 0.38697900
vt 0.47123300 0.14095300
vt 0.28078400 0.02613900
vt 0.31771400 0.45573900
vt 0.05394400 0.59528500
vt 0.25797600 0.06005900
vt 0.53204200 0.50310400
vt 0.01862100 0.60442800
vt 0.34675800 0.57499400
vt 0.05767900 0.42279200
vt 0.98642500 0.18450500
vt 0.07771900 0.52653900
vt 0.54916300 0.50559400
vt 0.55387400 0.46964500
vt 0.07051400 0.49039900
vt 0.71707700 0.08680800
vt 0.91848600 0.06797000
vt 0.41565900 0.48480100
vt 0.05373900 0.97300200
vt 0.05373900 0.73486600
vt 0.50731200 0.13758600
vt 0.27897000 0.06526900
vt 0.45781500 0.13758600
vt 0.27907800 0.01115000
vt 0.97833900 0.18450500
vt 0.04760000 0.42310500
vt 0.36246300 0.13828900
vt 0.22328100 0.06112200
vt 0.48782100 0.15551600
vt 0.44222400 0.15551500
vt 0.77417700 0.31897300
vt 0.05373900 0.74974900
vt 0.43331400 0.50310500
vt 0.20618000 0.42216800
vt 0.45524600 0.38858900
vt 0.76974700 0.10129600
vt 0.39860800 0.98951500
vt 0.17360700 0.70390800
vt 0.17471800 0.98949700
vt 0.22693300 0.01831400
vt 0.30732700 0.85091300
vt 0.23943600 0.85241200
vt 0.73436900 0.14039900
vt 0.09429900 0.52912200
vt 0.23288000 0.71417700
vt 0.04440200 0.68302000
vt 0.64143000 0.11112200
vt 0.26145900 0.98953400
vt 0.45002600 0.98952900
vt 0.35666900 0.57985800
vt 0.98642500 0.25230800
vt 0.09361000 0.44852300
vt 0.17853800 0.80107400
vt 0.13403800 0.45485600
vt 0.51438700 0.48480100
vt 0.34675800 0.58537300
vt 0.57105700 0.15438200
vt 0.00878600 0.95888300
vt 0.03923600 0.44078600
vt 0.39702100 0.48557700
vt 0.05373900 0.88370100
vt 0.06351500 0.47322900
vt 0.55730400 0.45201900
vt 0.21497300 0.84758200
vt 0.80811700 0.38226900
vt 0.39489800 0.14095300
vt 0.22329200 0.02624600
vt 0.48939900 0.18431900
vt 0.23998100 0.06628500
vt 0.34540300 0.14095300
vt 0.76999700 0.31653400
vt 0.21497300 0.75341100
vt 0.49165100 0.44135600
vt 0.12859600 0.43338900
vt 0.98642500 0.30714000
vt 0.27571200 0.01457300
vt 0.01466700 0.23700900
vt 0.05862400 0.43338900
vt 0.98642500 0.19747700
vt 0.92543500 0.07291200
vt 0.59320100 0.61403300
vt 0.35564500 0.68686300
vt 0.35666900 0.59068400
vt 0.25200100 0.06198000
vt 0.21497300 0.72992400
vt 0.78607900 0.30059600
vt 0.03393100 0.47694100
vt 0.32920200 0.61240400
vt 0.92258600 0.07620800
vt 0.06887600 0.76463300
vt 0.84212400 0.21311300
vt 0.25200200 0.01002500
vt 0.43306600 0.14228200
vt 0.78033900 0.25439600
vt 0.06887600 0.86881700
vt 0.27700000 0.05816500
vt 0.05373900 0.77951600
vt 0.78033900 0.22540200
vt 0.06887600 0.83905000
vt 0.12818600 0.73653900
vt 0.69855300 0.59890600
vt 0.27792800 0.49703300
vt 0.69768500 0.21283800
vt 0.00878600 0.80562600
vt 0.26408100 0.00970200
vt 0.44439600 0.14095300
vt 0.29863400 0.46441300
vt 0.80813800 0.29967000
vt 0.23288000 0.99037400
vt 0.23288000 0.65861000
vt 0.04440200 0.62171700
vt 0.04440200 0.98953400
vt 0.64723500 0.13311000
vt 0.23195600 0.01331100
vt 0.35666900 0.57012200
vt 0.36192900 0.85302700
vt 0.34277800 0.79546400
vt 0.24713300 0.47405800
vt 0.45857600 0.45201900
vt 0.38356700 0.07919400
vt 0.27792800 0.51568100
vt 0.69486900 0.98722800
vt 0.13211100 0.87087600
vt 0.02316800 0.27452900
vt 0.09429900 0.46706100
vt 0.77418300 0.35791900
vt 0.02102900 0.39661400
vt 0.49574900 0.48557600
vt 0.48973500 0.24336400
vt 0.49673200 0.50310400
vt 0.61505300 0.97512900
vt 0.27634500 0.03818600
vt 0.22487300 0.01122400
vt 0.40831700 0.13758600
vt 0.51438700 0.36460400
vt 0.72213100 0.08679400
vt 0.91693000 0.07230900
vt 0.66878600 0.12572400
vt 0.29439800 0.98953400
vt 0.48001900 0.98952900
vt 0.65267400 0.17151900
vt 0.35666900 0.57499400
vt 0.44027000 0.21384200
vt 0.01751600 0.24030600
vt 0.46145800 0.13828900
vt 0.28070700 0.01507100
vt 0.39069500 0.26960100
vt 0.47476000 0.36464000
vt 0.35561700 0.39785200
vt 0.05165000 0.45979400
vt 0.55694400 0.43496600
vt 0.23288000 0.79537700
vt 0.04440200 0.77497400
vt 0.22977300 0.03230700
vt 0.01285200 0.23273100
vt 0.73220700 0.10431400
vt 0.22727200 0.02832700
vt 0.73307100 0.09961300
vt 0.48872400 0.29690600
vt 0.48852800 0.36448400
vt 0.21059100 0.42059200
vt 0.21497300 0.82360900
vt 0.78607500 0.37633400
vt 0.17979500 0.32550000
vt 0.37618300 0.29661900
vt 0.59842900 0.58874300
vt 0.71574400 0.97706800
vt 0.82983400 0.20490100
vt 0.06887600 0.77951600
vt 0.51438700 0.29728100
vt 0.36144200 0.29771000
vt 0.47528800 0.26936200
vt 0.30841900 0.57822200
vt 0.51438700 0.50253200
vt 0.76663700 0.16320900
vt 0.11079500 0.98953400
vt 0.75750600 0.11117400
vt 0.38129200 0.98952900
vt 0.47183000 0.43496600
vt 0.32063700 0.46067200
vt 0.04084300 0.48196200
vt 0.32919900 0.60386100
vt 0.36192900 0.79610000
vt 0.34277800 0.85091300
vt 0.30843000 0.56112700
vt 0.17591800 0.73023400
vt 0.36192900 0.88002500
vt 0.34277800 0.76774000
vt 0.06887600 0.88370100
vt 0.78855100 0.26668600
vt 0.97833900 0.27188800
vt 0.11235200 0.45490300
vt 0.17761900 0.77786000
vt 0.33407300 0.14228200
vt 0.53205900 0.14228300
vt 0.25200200 0.06610700
vt 0.37541700 0.15720400
vt 0.55462700 0.15720500
vt 0.09430000 0.22644600
vt 0.29948400 0.46975400
vt 0.32996100 0.25091000
vt 0.76999800 0.36035700
vt 0.21497300 0.80018500
vt 0.09429900 0.47292000
vt 0.68651500 0.61403300
vt 0.35564500 0.76910200
vt 0.51438700 0.24267600
vt 0.75107800 0.13339600
vt 0.23288000 0.68712800
vt 0.04440200 0.65236800
vt 0.14686900 0.25148500
vt 0.11301400 0.51081600
vt 0.37952900 0.48993600
vt 0.25091100 0.23565800
vt 0.67521300 0.17748600
vt 0.36192900 0.96107100
vt 0.34277800 0.68456600
vt 0.51438800 0.15411600
vt 0.41565700 0.15411500
vt 0.59499800 0.76078600
vt 0.63134400 0.16217500
vt 0.23210800 0.06299400
vt 0.22294500 0.44131800
vt 0.06887600 0.82416700
vt 0.78855100 0.21311300
vt 0.27792800 0.48038800
vt 0.85321900 0.23989900
vt 0.06887600 0.97300200
vt 0.06887600 0.73486600
vt 0.55397400 0.38859000
vt 0.02240500 0.42186100
vt 0.19740000 0.32585000
vt 0.97833900 0.19157300
vt 0.04543100 0.43173500
vt 0.00878600 0.74432300
vt 0.75536200 0.20422700
vt 0.43306600 0.07919400
vt 0.23518000 0.46058300
vt 0.45821600 0.43496600
vt 0.34524800 0.42081900
vt 0.13033700 0.75814900
vt 0.67876600 0.59774800
vt 0.01396500 0.24846200
vt 0.71191200 0.10424900
vt 0.41565800 0.36460400
vt 0.47586600 0.18450800
vt 0.30665700 0.23136300
vt 0.35666900 0.63013500
vt 0.78627200 0.15044600
vt 0.76892400 0.33844300
vt 0.01516100 0.24397000
vt 0.63520200 0.97394600
vt 0.22756600 0.04812300
vt 0.92495600 0.06390800
vt 0.70843900 0.08527400
vt 0.26838900 0.05441300
vt 0.72210900 0.09139400
vt 0.13145300 0.84806700
vt 0.59950300 0.60063100
vt 0.71465200 0.98899000
vt 0.71104300 0.09953300
vt 0.17783300 0.94000600
vt 0.63856500 0.58560900
vt 0.47414800 0.15720500
vt 0.45589700 0.15720300
vt 0.27792800 0.22607300
vt 0.27434800 0.03226000
vt 0.51438700 0.98950800
vt 0.69890000 0.13076400
vt 0.36079000 0.57985800
vt 0.01057500 0.60393000
vt 0.65889600 0.58512000
vt 0.41565800 0.26930700
vt 0.44064500 0.18431800
vt 0.22835900 0.06167200
vt 0.27201900 0.01327300
vt 0.36079000 0.58537300
vt 0.01358300 0.60729800
vt 0.40468900 0.07919400
vt 0.01687900 0.23582800
vt 0.35666900 0.56463500
vt 0.30732700 0.98953400
vt 0.30732700 0.65684200
vt 0.23943600 0.99037400
vt 0.23943600 0.65861000
vt 0.48977500 0.21384300
vt 0.76643300 0.12390800
vt 0.67563700 0.97394600
vt 0.23812500 0.45564200
vt 0.92119100 0.07261100
vt 0.72207500 0.09916700
vt 0.65542000 0.75917700
vt 0.01541300 0.59681500
vt 0.49733600 0.98951500
vt 0.68355500 0.12971000
vt 0.34675800 0.57985800
vt 0.33288600 0.44150200
vt 0.37743300 0.21353300
vt 0.14933300 0.24724600
vt 0.53937600 0.18431900
vt 0.45528600 0.36464000
vt 0.20024600 0.39767300
vt 0.41565800 0.38903200
vt 0.39065700 0.41411400
vt 0.30870000 0.47407900
vt 0.47147000 0.45201900
vt 0.34675800 0.56463500
vt 0.09429900 0.51492900
vt 0.71936400 0.58874300
vt 0.59509500 0.97706800
vt 0.78851900 0.30482600
vt 0.49429000 0.46408000
vt 0.35090700 0.39756000
vt 0.84629500 0.31653800
vt 0.21497300 0.94082300
vt 0.73314000 0.09104400
vt 0.09429900 0.23143300
vt 0.22781300 0.03822200
vt 0.26841100 0.02197400
vt 0.97833900 0.35941100
vt 0.11246000 0.38596300
vt 0.70669500 0.09020400
vt 0.27562500 0.06182500
vt 0.25923900 0.51157900
vt 0.45178900 0.48993600
vt 0.21497300 0.96385900
vt 0.83014300 0.30059300
vt 0.53302500 0.48557600
vt 0.34675800 0.51988200
vt 0.68555300 0.75959200
vt 0.72754300 0.09530500
vt 0.80084000 0.20490100
vt 0.06887600 0.80928300
vt 0.30842300 0.62096100
vt 0.37713600 0.18450700
vt 0.12280000 0.23145600
vt 0.68100600 0.14459800
vt 0.61597100 0.98722800
vt 0.12969500 0.95769400
vt 0.05455900 0.45485800
vt 0.36079000 0.51988200
vt 0.05393600 0.59083000
vt 0.30732700 0.79546400
vt 0.23943600 0.79537700
vt 0.00878600 0.62171700
vt 0.00878600 0.98953400
vt 0.55465000 0.12986500
vt 0.84435800 0.13291300
vt 0.10370300 0.37962200
vt 0.97833900 0.36713800
vt 0.61837600 0.58685600
vt 0.34675800 0.57012200
vt 0.22697200 0.05795600
vt 0.12152300 0.23628900
vt 0.36244400 0.07919400
vt 0.26137400 0.52727600
vt 0.45043500 0.50559400
vt 0.36079000 0.57499400
vt 0.00916900 0.59985400
vt 0.72192800 0.17787100
vt 0.45411600 0.24282400
vt 0.20332300 0.27138000
vt 0.53904000 0.24336400
vt 0.03393100 0.50323400
vt 0.32920200 0.57823100
vt 0.27792800 0.46782600
vt 0.22370500 0.03827500
vt 0.38356800 0.14228100
vt 0.23989800 0.00969900
vt 0.42173500 0.14095300
vt 0.39104500 0.21384200
vt 0.74385200 0.11933800
vt 0.09429900 0.98953200
vt 0.41194300 0.07919400
vt 0.70665200 0.10022300
vt 0.62528600 0.75959200
vt 0.25200100 0.01419000
vt 0.51094100 0.07919400
vt 0.66895200 0.20987300
vt 0.00878600 0.83627700
vt 0.27192800 0.06309900
vt 0.39556200 0.46408100
vt 0.54024600 0.36448400
vt 0.75188100 0.22574600
vt 0.35564500 0.98953400
vt 0.35564500 0.65840000
vt 0.56204200 0.61403300
vt 0.84736500 0.33857800
vt 0.60860400 0.09922500
vt 0.79178400 0.09995000
vt 0.26194000 0.06260100
vt 0.01550400 0.60294000
vt 0.17507300 0.32564000
vt 0.09361000 0.39052200
vt 0.32920600 0.56968800
vt 0.02538800 0.50323400
vt 0.62877600 0.37089600
vt 0.01637400 0.39739200
vt 0.55401500 0.36464000
vt 0.23288000 0.96185700
vt 0.04440200 0.95888300
vt 0.59595600 0.13340800
vt 0.45781500 0.07919400
vt 0.30732700 0.76774000
vt 0.23943600 0.76832700
vt 0.71763800 0.61403300
vt 0.35564500 0.79610000
vt 0.45417200 0.13828900
vt 0.27513100 0.00958800
vt 0.01861800 0.59527500
vt 0.25798000 0.01621700
vt 0.84628900 0.36061100
vt 0.21497300 0.89463500
vt 0.21497300 0.87146400
vt 0.83012100 0.37650000
vt 0.30841900 0.61241300
vt 0.05373900 0.80928300
vt 0.74478700 0.17222300
vt 0.51438700 0.26930800
vt 0.30732700 0.68456600
vt 0.23943600 0.68712800
vt 0.34675800 0.63013500
vt 0.36192900 0.98953400
vt 0.36192900 0.65840000
vt 0.34277800 0.98953400
vt 0.34277800 0.65684200
vt 0.22273900 0.24726900
vt 0.45388100 0.21353300
vt 0.21497300 0.98735100
vt 0.21497300 0.70588200
vt 0.80813700 0.29473800
vt 0.33312000 0.24741800
vt 0.47616300 0.21353400
vt 0.72744000 0.09127300
vt 0.97833900 0.19747700
vt 0.04900100 0.43827700
vt 0.01327200 0.24060600
vt 0.05373900 0.79440000
vt 0.05373900 0.76463300
vt 0.70612700 0.09521100
vt 0.17872000 0.89385400
vt 0.29661400 0.51157500
vt 0.47825800 0.48993500
vt 0.22589600 0.25075800
vt 0.00880800 0.32546100
vt 0.55386200 0.29661900
vt 0.05373900 0.92835100
vt 0.30842300 0.56967400
vt 0.29448300 0.52727400
vt 0.47961100 0.50559400
vt 0.27682200 0.02825800
f 443/443 184/184 65/65
f 504/504 679/679 232/232
f 456/456 421/421 470/470
f 652/652 38/38 177/177
f 154/154 444/444 63/63
f 279/279 325/325 663/663
f 153/153 605/605 604/604
f 474/474 691/691 513/513
f 328/328 164/164 161/161
f 580/580 342/342 328/328
f 513/513 177/177 279/279
f 817/817 488/488 653/653
f 219/219 460/460 297/297
f 583/583 782/782 740/740
f 572/572 471/471 422/422
f 38/38 436/436 367/367
f 731/731 323/323 574/574
f 155/155 65/65 315/315
f 313/313 154/154 421/421
f 435/435 470/470 678/678
f 615/615 828/828 255/255
f 574/574 864/864 652/652
f 177/177 745/745 279/279
f 474/474 279/279 663/663
f 327/327 40/40 186/186
f 679/679 504/504 881/881
f 161/161 168/168 341/341
f 297/297 386/386 753/753
f 315/315 572/572 422/422
f 617/617 604/604 213/213
f 580/580 345/345 828/828
f 615/615 605/605 580/580
f 615/615 94/94 864/864
f 93/93 708/708 842/842
f 625/625 645/645 750/750
f 161/161 518/518 97/97
f 354/354 671/671 547/547
f 97/97 394/394 168/168
f 757/757 751/751 353/353
f 174/174 253/253 488/488
f 213/213 615/615 864/864
f 887/887 547/547 566/566
f 305/305 327/327 186/186
f 671/671 645/645 413/413
f 895/895 739/739 575/575
f 255/255 403/403 94/94
f 624/624 164/164 160/160
f 259/259 863/863 805/805
f 679/679 471/471 232/232
f 341/341 328/328 161/161
f 828/828 891/891 255/255
f 731/731 652/652 177/177
f 496/496 185/185 39/39
f 304/304 524/524 880/880
f 452/452 713/713 47/47
f 26/26 586/586 666/666
f 96/96 259/259 805/805
f 805/805 488/488 253/253
f 459/459 773/773 385/385
f 660/660 548/548 96/96
f 321/321 258/258 549/549
f 488/488 620/620 653/653
f 573/573 353/353 888/888
f 4/4 773/773 394/394
f 733/733 567/567 310/310
f 660/660 373/373 782/782
f 4/4 573/573 500/500
f 145/145 289/289 33/33
f 737/737 650/650 68/68
f 93/93 156/156 289/289
f 775/775 851/851 650/650
f 708/708 11/11 842/842
f 73/73 733/733 310/310
f 93/93 611/611 796/796
f 612/612 567/567 705/705
f 458/458 47/47 173/173
f 2/2 708/708 796/796
f 703/703 311/311 1/1
f 100/100 23/23 886/886
f 169/169 859/859 509/509
f 23/23 858/858 886/886
f 24/24 858/858 859/859
f 860/860 140/140 199/199
f 647/647 46/46 571/571
f 860/860 388/388 510/510
f 571/571 183/183 647/647
f 277/277 605/605 593/593
f 857/857 833/833 140/140
f 608/608 388/388 46/46
f 489/489 172/172 818/818
f 418/418 584/584 894/894
f 219/219 355/355 507/507
f 508/508 394/394 459/459
f 808/808 403/403 436/436
f 65/65 184/184 569/569
f 745/745 367/367 299/299
f 325/325 299/299 643/643
f 65/65 569/569 365/365
f 471/471 572/572 232/232
f 443/443 65/65 762/762
f 393/393 345/345 341/341
f 881/881 785/785 305/305
f 675/675 828/828 345/345
f 422/422 155/155 315/315
f 446/446 208/208 70/70
f 312/312 455/455 300/300
f 455/455 434/434 523/523
f 240/240 455/455 523/523
f 240/240 300/300 455/455
f 300/300 497/497 312/312
f 839/839 70/70 208/208
f 864/864 808/808 652/652
f 714/714 782/782 373/373
f 714/714 253/253 48/48
f 863/863 398/398 620/620
f 373/373 805/805 253/253
f 97/97 757/757 4/4
f 666/666 141/141 558/558
f 248/248 660/660 586/586
f 782/782 586/586 660/660
f 558/558 583/583 377/377
f 76/76 788/788 260/260
f 441/441 397/397 680/680
f 73/73 34/34 851/851
f 185/185 239/239 304/304
f 775/775 318/318 733/733
f 73/73 612/612 144/144
f 708/708 335/335 717/717
f 611/611 2/2 796/796
f 733/733 424/424 101/101
f 568/568 169/169 703/703
f 100/100 24/24 568/568
f 435/435 880/880 524/524
f 241/241 311/311 498/498
f 311/311 648/648 498/498
f 169/169 607/607 311/311
f 638/638 648/648 182/182
f 598/598 680/680 258/258
f 340/340 249/249 27/27
f 51/51 825/825 249/249
f 217/217 549/549 825/825
f 629/629 260/260 486/486
f 157/157 561/561 290/290
f 290/290 75/75 35/35
f 597/597 261/261 789/789
f 32/32 50/50 339/339
f 789/789 440/440 597/597
f 216/216 261/261 320/320
f 633/633 77/77 849/849
f 244/244 486/486 112/112
f 562/562 849/849 788/788
f 171/171 112/112 31/31
f 850/850 178/178 440/440
f 243/243 69/69 651/651
f 852/852 243/243 651/651
f 216/216 113/113 487/487
f 35/35 628/628 852/852
f 206/206 157/157 229/229
f 168/168 508/508 596/596
f 574/574 617/617 213/213
f 513/513 878/878 731/731
f 241/241 638/638 334/334
f 342/342 160/160 164/164
f 65/65 365/365 315/315
f 842/842 228/228 156/156
f 762/762 298/298 443/443
f 890/890 365/365 402/402
f 414/414 594/594 152/152
f 437/437 184/184 366/366
f 811/811 645/645 552/552
f 449/449 159/159 742/742
f 843/843 315/315 890/890
f 843/843 232/232 572/572
f 758/758 278/278 594/594
f 327/327 595/595 355/355
f 711/711 410/410 692/692
f 392/392 232/232 676/676
f 159/159 685/685 742/742
f 392/392 785/785 504/504
f 552/552 625/625 449/449
f 877/877 198/198 324/324
f 366/366 443/443 298/298
f 646/646 692/692 410/410
f 402/402 569/569 437/437
f 247/247 324/324 198/198
f 152/152 247/247 414/414
f 355/355 570/570 327/327
f 518/518 624/624 751/751
f 355/355 595/595 507/507
f 30/30 388/388 199/199
f 553/553 46/46 388/388
f 476/476 695/695 571/571
f 208/208 190/190 839/839
f 312/312 497/497 190/190
f 140/140 30/30 199/199
f 619/619 573/573 575/575
f 619/619 773/773 500/500
f 888/888 575/575 573/573
f 452/452 385/385 773/773
f 457/457 753/753 386/386
f 894/894 566/566 418/418
f 713/713 575/575 739/739
f 833/833 383/383 140/140
f 799/799 65/65 656/656
f 95/95 387/387 236/236
f 231/231 765/765 85/85
f 215/215 816/816 314/314
f 795/795 445/445 61/61
f 45/45 326/326 25/25
f 224/224 110/110 746/746
f 475/475 238/238 710/710
f 748/748 202/202 79/79
f 690/690 79/79 110/110
f 719/719 415/415 588/588
f 817/817 732/732 622/622
f 219/219 266/266 349/349
f 492/492 42/42 358/358
f 139/139 766/766 81/81
f 816/816 344/344 314/314
f 588/588 806/806 873/873
f 794/794 838/838 65/65
f 85/85 795/795 61/61
f 197/197 80/80 231/231
f 276/276 309/309 690/690
f 119/119 718/718 374/374
f 415/415 25/25 816/816
f 475/475 45/45 719/719
f 40/40 382/382 637/637
f 236/236 109/109 95/95
f 409/409 125/125 87/87
f 297/297 657/657 266/266
f 838/838 766/766 139/139
f 273/273 143/143 224/224
f 690/690 416/416 748/748
f 276/276 110/110 143/143
f 276/276 592/592 10/10
f 127/127 296/296 142/142
f 683/683 563/563 52/52
f 303/303 348/348 125/125
f 409/409 132/132 202/202
f 188/188 671/671 563/563
f 827/827 87/87 125/125
f 254/254 564/564 132/132
f 622/622 438/438 481/481
f 374/374 276/276 143/143
f 769/769 547/547 188/188
f 21/21 382/382 499/499
f 52/52 671/671 413/413
f 251/251 802/802 478/478
f 10/10 71/71 610/610
f 684/684 202/202 132/132
f 694/694 306/306 90/90
f 236/236 387/387 81/81
f 749/749 748/748 416/416
f 309/309 610/610 389/389
f 588/588 215/215 119/119
f 496/496 636/636 380/380
f 22/22 520/520 88/88
f 329/329 148/148 292/292
f 411/411 26/26 666/666
f 99/99 306/306 793/793
f 732/732 90/90 438/438
f 267/267 505/505 827/827
f 847/847 792/792 502/502
f 307/307 556/556 790/790
f 732/732 620/620 694/694
f 332/332 187/187 254/254
f 505/505 245/245 827/827
f 697/697 783/783 317/317
f 834/834 847/847 42/42
f 332/332 245/245 463/463
f 346/346 54/54 829/829
f 137/137 737/737 68/68
f 195/195 127/127 346/346
f 526/526 821/821 137/137
f 11/11 296/296 308/308
f 665/665 697/697 821/821
f 142/142 54/54 127/127
f 755/755 783/783 576/576
f 20/20 482/482 329/329
f 296/296 546/546 142/142
f 430/430 631/631 483/483
f 707/707 423/423 316/316
f 484/484 771/771 319/319
f 23/23 760/760 294/294
f 319/319 760/760 707/707
f 772/772 383/383 759/759
f 516/516 756/756 531/531
f 772/772 553/553 30/30
f 516/516 695/695 476/476
f 110/110 480/480 746/746
f 759/759 833/833 293/293
f 531/531 553/553 876/876
f 489/489 621/621 19/19
f 493/493 418/418 801/801
f 322/322 219/219 349/349
f 348/348 827/827 125/125
f 314/314 71/71 592/592
f 65/65 128/128 656/656
f 25/25 743/743 816/816
f 326/326 780/780 25/25
f 65/65 102/102 128/128
f 81/81 387/387 139/139
f 799/799 762/762 65/65
f 14/14 416/416 136/136
f 109/109 499/499 95/95
f 309/309 136/136 416/416
f 766/766 838/838 794/794
f 446/446 70/70 62/62
f 84/84 379/379 230/230
f 230/230 519/519 196/196
f 89/89 519/519 230/230
f 89/89 230/230 379/379
f 379/379 84/84 497/497
f 839/839 62/62 70/70
f 718/718 314/314 592/592
f 834/834 250/250 147/147
f 149/149 438/438 835/835
f 398/398 694/694 620/620
f 835/835 90/90 99/99
f 254/254 87/87 245/245
f 358/358 666/666 558/558
f 411/411 502/502 120/120
f 42/42 411/411 358/358
f 492/492 558/558 377/377
f 865/865 871/871 728/728
f 397/397 491/491 175/175
f 832/832 665/665 526/526
f 636/636 88/88 380/380
f 821/821 318/318 737/737
f 665/665 755/755 576/576
f 296/296 335/335 687/687
f 754/754 546/546 428/428
f 697/697 424/424 318/318
f 784/784 484/484 319/319
f 316/316 319/319 707/707
f 197/197 108/108 235/235
f 686/686 631/631 545/545
f 631/631 517/517 530/530
f 631/631 875/875 483/483
f 638/638 517/517 114/114
f 175/175 655/655 307/307
f 121/121 340/340 27/27
f 503/503 420/420 121/121
f 791/791 846/846 503/503
f 727/727 6/6 210/210
f 194/194 661/661 130/130
f 347/347 868/868 661/661
f 654/654 730/730 555/555
f 419/419 32/32 339/339
f 490/490 866/866 654/654
f 845/845 729/729 211/211
f 77/77 131/131 330/330
f 210/210 286/286 150/150
f 330/330 662/662 865/865
f 150/150 171/171 31/31
f 178/178 331/331 490/490
f 69/69 285/285 138/138
f 527/527 285/285 5/5
f 845/845 151/151 419/419
f 527/527 869/869 831/831
f 194/194 206/206 229/229
f 749/749 303/303 125/125
f 119/119 273/273 806/806
f 719/719 873/873 238/238
f 638/638 686/686 334/334
f 79/79 118/118 480/480
f 65/65 838/838 102/102
f 228/228 308/308 195/195
f 781/781 762/762 799/799
f 102/102 609/609 72/72
f 677/677 747/747 86/86
f 656/656 343/343 744/744
f 52/52 811/811 74/74
f 117/117 734/734 668/668
f 838/838 390/390 609/609
f 390/390 387/387 135/135
f 86/86 479/479 606/606
f 382/382 302/302 499/499
f 659/659 711/711 237/237
f 387/387 15/15 135/135
f 117/117 606/606 479/479
f 15/15 499/499 302/302
f 683/683 74/74 734/734
f 82/82 872/872 807/807
f 799/799 744/744 781/781
f 237/237 889/889 659/659
f 128/128 72/72 343/343
f 807/807 412/412 82/82
f 223/223 412/412 272/272
f 322/322 570/570 649/649
f 132/132 564/564 684/684
f 322/322 349/349 302/302
f 62/62 190/190 84/84
f 84/84 190/190 497/497
f 332/332 292/292 478/478
f 292/292 505/505 329/329
f 478/478 770/770 332/332
f 329/329 658/658 20/20
f 19/19 753/753 489/489
f 566/566 801/801 418/418
f 148/148 478/478 292/292
f 756/756 571/571 46/46
f 341/341 596/596 393/393
f 646/646 412/412 247/247
f 456/456 313/313 421/421
f 652/652 808/808 38/38
f 154/154 209/209 444/444
f 279/279 745/745 325/325
f 153/153 593/593 605/605
f 474/474 709/709 691/691
f 328/328 342/342 164/164
f 580/580 605/605 342/342
f 513/513 731/731 177/177
f 817/817 174/174 488/488
f 219/219 507/507 460/460
f 583/583 141/141 782/782
f 38/38 808/808 436/436
f 731/731 878/878 323/323
f 313/313 209/209 154/154
f 435/435 456/456 470/470
f 615/615 580/580 828/828
f 574/574 213/213 864/864
f 177/177 38/38 745/745
f 474/474 513/513 279/279
f 327/327 570/570 40/40
f 161/161 97/97 168/168
f 297/297 460/460 386/386
f 617/617 153/153 604/604
f 580/580 328/328 345/345
f 615/615 604/604 605/605
f 615/615 255/255 94/94
f 93/93 796/796 708/708
f 161/161 164/164 518/518
f 354/354 750/750 671/671
f 97/97 4/4 394/394
f 757/757 518/518 751/751
f 174/174 48/48 253/253
f 213/213 604/604 615/615
f 887/887 354/354 547/547
f 305/305 785/785 327/327
f 671/671 750/750 645/645
f 895/895 585/585 739/739
f 255/255 891/891 403/403
f 624/624 518/518 164/164
f 259/259 681/681 863/863
f 341/341 345/345 328/328
f 828/828 844/844 891/891
f 731/731 574/574 652/652
f 496/496 301/301 185/185
f 304/304 239/239 524/524
f 452/452 619/619 713/713
f 26/26 248/248 586/586
f 96/96 548/548 259/259
f 805/805 863/863 488/488
f 459/459 394/394 773/773
f 660/660 824/824 548/548
f 321/321 598/598 258/258
f 488/488 863/863 620/620
f 573/573 757/757 353/353
f 4/4 500/500 773/773
f 733/733 101/101 567/567
f 660/660 96/96 373/373
f 4/4 757/757 573/573
f 145/145 93/93 289/289
f 737/737 775/775 650/650
f 93/93 842/842 156/156
f 775/775 73/73 851/851
f 708/708 717/717 11/11
f 73/73 775/775 733/733
f 93/93 145/145 611/611
f 612/612 310/310 567/567
f 458/458 452/452 47/47
f 2/2 242/242 708/708
f 703/703 169/169 311/311
f 100/100 423/423 23/23
f 169/169 24/24 859/859
f 23/23 294/294 858/858
f 24/24 886/886 858/858
f 860/860 857/857 140/140
f 647/647 608/608 46/46
f 860/860 199/199 388/388
f 571/571 695/695 183/183
f 277/277 342/342 605/605
f 857/857 293/293 833/833
f 608/608 510/510 388/388
f 489/489 457/457 172/172
f 418/418 378/378 584/584
f 219/219 649/649 355/355
f 508/508 168/168 394/394
f 808/808 94/94 403/403
f 745/745 38/38 367/367
f 325/325 745/745 299/299
f 393/393 675/675 345/345
f 881/881 504/504 785/785
f 675/675 844/844 828/828
f 864/864 94/94 808/808
f 714/714 740/740 782/782
f 714/714 373/373 253/253
f 863/863 681/681 398/398
f 373/373 96/96 805/805
f 97/97 518/518 757/757
f 666/666 586/586 141/141
f 248/248 824/824 660/660
f 782/782 141/141 586/586
f 558/558 141/141 583/583
f 76/76 562/562 788/788
f 441/441 179/179 397/397
f 73/73 144/144 34/34
f 185/185 301/301 239/239
f 775/775 737/737 318/318
f 73/73 310/310 612/612
f 708/708 242/242 335/335
f 611/611 704/704 2/2
f 733/733 318/318 424/424
f 568/568 24/24 169/169
f 100/100 886/886 24/24
f 435/435 678/678 880/880
f 241/241 1/1 311/311
f 311/311 607/607 648/648
f 169/169 509/509 607/607
f 638/638 498/498 648/648
f 598/598 441/441 680/680
f 340/340 51/51 249/249
f 51/51 217/217 825/825
f 217/217 321/321 549/549
f 629/629 76/76 260/260
f 157/157 632/632 561/561
f 290/290 561/561 75/75
f 597/597 320/320 261/261
f 32/32 113/113 50/50
f 789/789 850/850 440/440
f 216/216 487/487 261/261
f 633/633 207/207 77/77
f 244/244 629/629 486/486
f 562/562 633/633 849/849
f 171/171 244/244 112/112
f 850/850 78/78 178/178
f 243/243 170/170 69/69
f 852/852 628/628 243/243
f 216/216 50/50 113/113
f 35/35 75/75 628/628
f 206/206 632/632 157/157
f 574/574 323/323 617/617
f 513/513 691/691 878/878
f 241/241 498/498 638/638
f 342/342 277/277 160/160
f 842/842 11/11 228/228
f 762/762 644/644 298/298
f 890/890 315/315 365/365
f 414/414 758/758 594/594
f 437/437 569/569 184/184
f 811/811 413/413 645/645
f 449/449 625/625 159/159
f 843/843 572/572 315/315
f 843/843 676/676 232/232
f 758/758 685/685 278/278
f 327/327 785/785 595/595
f 711/711 49/49 410/410
f 392/392 504/504 232/232
f 159/159 278/278 685/685
f 392/392 595/595 785/785
f 552/552 645/645 625/625
f 877/877 646/646 198/198
f 366/366 184/184 443/443
f 646/646 877/877 692/692
f 402/402 365/365 569/569
f 247/247 616/616 324/324
f 152/152 616/616 247/247
f 355/355 649/649 570/570
f 30/30 553/553 388/388
f 553/553 756/756 46/46
f 208/208 312/312 190/190
f 140/140 383/383 30/30
f 619/619 500/500 573/573
f 619/619 452/452 773/773
f 888/888 895/895 575/575
f 452/452 458/458 385/385
f 457/457 489/489 753/753
f 894/894 887/887 566/566
f 713/713 619/619 575/575
f 231/231 80/80 765/765
f 215/215 415/415 816/816
f 795/795 64/64 445/445
f 45/45 664/664 326/326
f 224/224 143/143 110/110
f 475/475 719/719 238/238
f 748/748 409/409 202/202
f 690/690 748/748 79/79
f 719/719 45/45 415/415
f 817/817 653/653 732/732
f 219/219 297/297 266/266
f 492/492 250/250 42/42
f 816/816 743/743 344/344
f 588/588 119/119 806/806
f 85/85 765/765 795/795
f 197/197 235/235 80/80
f 276/276 10/10 309/309
f 119/119 215/215 718/718
f 415/415 45/45 25/25
f 475/475 664/664 45/45
f 40/40 570/570 382/382
f 409/409 749/749 125/125
f 297/297 753/753 657/657
f 273/273 374/374 143/143
f 690/690 309/309 416/416
f 276/276 690/690 110/110
f 276/276 718/718 592/592
f 127/127 308/308 296/296
f 409/409 87/87 132/132
f 188/188 547/547 671/671
f 827/827 245/245 87/87
f 254/254 187/187 564/564
f 622/622 732/732 438/438
f 374/374 718/718 276/276
f 769/769 566/566 547/547
f 21/21 637/637 382/382
f 52/52 563/563 671/671
f 251/251 494/494 802/802
f 10/10 592/592 71/71
f 684/684 118/118 202/202
f 694/694 176/176 306/306
f 749/749 409/409 748/748
f 309/309 10/10 610/610
f 588/588 415/415 215/215
f 496/496 39/39 636/636
f 22/22 108/108 520/520
f 329/329 482/482 148/148
f 411/411 120/120 26/26
f 99/99 90/90 306/306
f 732/732 694/694 90/90
f 267/267 658/658 505/505
f 847/847 98/98 792/792
f 307/307 655/655 556/556
f 732/732 653/653 620/620
f 332/332 770/770 187/187
f 505/505 463/463 245/245
f 697/697 576/576 783/783
f 834/834 98/98 847/847
f 332/332 254/254 245/245
f 346/346 127/127 54/54
f 137/137 821/821 737/737
f 195/195 308/308 127/127
f 526/526 665/665 821/821
f 11/11 717/717 296/296
f 665/665 576/576 697/697
f 142/142 754/754 54/54
f 755/755 429/429 783/783
f 20/20 623/623 482/482
f 296/296 687/687 546/546
f 430/430 545/545 631/631
f 707/707 23/23 423/423
f 484/484 874/874 771/771
f 23/23 707/707 760/760
f 319/319 771/771 760/760
f 772/772 30/30 383/383
f 516/516 476/476 756/756
f 772/772 876/876 553/553
f 516/516 183/183 695/695
f 110/110 79/79 480/480
f 759/759 383/383 833/833
f 531/531 756/756 553/553
f 489/489 818/818 621/621
f 493/493 378/378 418/418
f 322/322 649/649 219/219
f 348/348 267/267 827/827
f 314/314 344/344 71/71
f 25/25 780/780 743/743
f 326/326 642/642 780/780
f 14/14 749/749 416/416
f 109/109 21/21 499/499
f 309/309 389/389 136/136
f 718/718 215/215 314/314
f 834/834 42/42 250/250
f 149/149 481/481 438/438
f 398/398 176/176 694/694
f 835/835 438/438 90/90
f 254/254 132/132 87/87
f 358/358 411/411 666/666
f 411/411 847/847 502/502
f 42/42 847/847 411/411
f 492/492 358/358 558/558
f 865/865 662/662 871/871
f 397/397 179/179 491/491
f 832/832 53/53 665/665
f 636/636 22/22 88/88
f 821/821 697/697 318/318
f 665/665 53/53 755/755
f 296/296 717/717 335/335
f 754/754 142/142 546/546
f 697/697 317/317 424/424
f 784/784 431/431 484/484
f 316/316 784/784 319/319
f 197/197 520/520 108/108
f 686/686 114/114 631/631
f 631/631 114/114 517/517
f 631/631 530/530 875/875
f 638/638 182/182 517/517
f 175/175 491/491 655/655
f 121/121 420/420 340/340
f 503/503 846/846 420/420
f 791/791 557/557 846/846
f 727/727 870/870 6/6
f 194/194 347/347 661/661
f 347/347 830/830 868/868
f 654/654 866/866 730/730
f 419/419 151/151 32/32
f 490/490 331/331 866/866
f 845/845 554/554 729/729
f 77/77 207/207 131/131
f 210/210 6/6 286/286
f 330/330 131/131 662/662
f 150/150 286/286 171/171
f 178/178 78/78 331/331
f 69/69 170/170 285/285
f 527/527 138/138 285/285
f 845/845 211/211 151/151
f 527/527 5/5 869/869
f 194/194 130/130 206/206
f 749/749 14/14 303/303
f 119/119 374/374 273/273
f 719/719 588/588 873/873
f 638/638 114/114 686/686
f 79/79 202/202 118/118
f 228/228 11/11 308/308
f 781/781 644/644 762/762
f 102/102 838/838 609/609
f 677/677 223/223 747/747
f 656/656 128/128 343/343
f 52/52 413/413 811/811
f 117/117 683/683 734/734
f 838/838 139/139 390/390
f 390/390 139/139 387/387
f 86/86 747/747 479/479
f 382/382 322/322 302/302
f 659/659 49/49 711/711
f 387/387 95/95 15/15
f 117/117 668/668 606/606
f 15/15 95/95 499/499
f 683/683 52/52 74/74
f 82/82 889/889 872/872
f 799/799 656/656 744/744
f 237/237 872/872 889/889
f 128/128 102/102 72/72
f 807/807 272/272 412/412
f 223/223 677/677 412/412
f 322/322 382/382 570/570
f 62/62 839/839 190/190
f 332/332 463/463 292/292
f 292/292 463/463 505/505
f 478/478 802/802 770/770
f 329/329 505/505 658/658
f 19/19 657/657 753/753
f 566/566 769/769 801/801
f 148/148 251/251 478/478
f 756/756 476/476 571/571
f 341/341 168/168 596/596
f 677/677 86/86 414/414
f 86/86 606/606 758/758
f 414/414 86/86 758/758
f 606/606 668/668 685/685
f 668/668 734/734 74/74
f 685/685 668/668 742/742
f 74/74 811/811 552/552
f 742/742 552/552 449/449
f 74/74 552/552 742/742
f 685/685 758/758 606/606
f 414/414 247/247 412/412
f 247/247 198/198 646/646
f 412/412 646/646 889/889
f 646/646 410/410 889/889
f 412/412 889/889 82/82
f 410/410 49/49 659/659
f 659/659 889/889 410/410
f 412/412 677/677 414/414
f 668/668 74/74 742/742
f 281/281 627/627 67/67
f 618/618 840/840 893/893
f 281/281 360/360 287/287
f 226/226 105/105 375/375
f 630/630 840/840 193/193
f 618/618 360/360 810/810
f 630/630 400/400 225/225
f 627/627 861/861 533/533
f 417/417 450/450 855/855
f 626/626 9/9 104/104
f 246/246 404/404 786/786
f 560/560 454/454 587/587
f 528/528 501/501 212/212
f 560/560 363/363 726/726
f 264/264 741/741 501/501
f 723/723 453/453 837/837
f 787/787 855/855 450/450
f 752/752 442/442 129/129
f 716/716 111/111 804/804
f 495/495 803/803 587/587
f 364/364 855/855 405/405
f 442/442 363/363 404/404
f 716/716 723/723 837/837
f 560/560 803/803 36/36
f 192/192 359/359 66/66
f 528/528 722/722 264/264
f 37/37 111/111 738/738
f 264/264 715/715 495/495
f 364/364 37/37 738/738
f 726/726 797/797 560/560
f 495/495 454/454 741/741
f 246/246 129/129 442/442
f 693/693 336/336 528/528
f 134/134 453/453 337/337
f 738/738 417/417 855/855
f 369/369 417/417 453/453
f 417/417 111/111 837/837
f 738/738 111/111 417/417
f 417/417 837/837 453/453
f 693/693 212/212 867/867
f 533/533 779/779 8/8
f 8/8 375/375 105/105
f 359/359 841/841 809/809
f 626/626 532/532 9/9
f 626/626 104/104 399/399
f 192/192 626/626 399/399
f 281/281 214/214 627/627
f 618/618 810/810 840/840
f 281/281 67/67 360/360
f 226/226 401/401 105/105
f 630/630 893/893 840/840
f 618/618 287/287 360/360
f 630/630 193/193 400/400
f 627/627 214/214 861/861
f 417/417 158/158 450/450
f 246/246 442/442 404/404
f 560/560 797/797 454/454
f 528/528 264/264 501/501
f 560/560 36/36 363/363
f 264/264 495/495 741/741
f 723/723 337/337 453/453
f 787/787 405/405 855/855
f 752/752 726/726 442/442
f 716/716 837/837 111/111
f 495/495 715/715 803/803
f 364/364 738/738 855/855
f 442/442 726/726 363/363
f 560/560 587/587 803/803
f 192/192 841/841 359/359
f 528/528 336/336 722/722
f 37/37 804/804 111/111
f 264/264 722/722 715/715
f 726/726 752/752 797/797
f 495/495 587/587 454/454
f 246/246 774/774 129/129
f 693/693 133/133 336/336
f 134/134 369/369 453/453
f 369/369 158/158 417/417
f 693/693 528/528 212/212
f 533/533 861/861 779/779
f 8/8 779/779 375/375
f 192/192 66/66 626/626
f 395/395 639/639 515/515
f 427/427 698/698 203/203
f 265/265 203/203 252/252
f 146/146 407/407 16/16
f 565/565 124/124 724/724
f 565/565 91/91 813/813
f 537/537 41/41 822/822
f 280/280 468/468 590/590
f 601/601 338/338 603/603
f 856/856 701/701 764/764
f 203/203 667/667 252/252
f 371/371 83/83 13/13
f 252/252 529/529 265/265
f 122/122 485/485 439/439
f 602/602 763/763 599/599
f 559/559 122/122 439/439
f 836/836 641/641 268/268
f 384/384 764/764 721/721
f 123/123 122/122 578/578
f 384/384 537/537 822/822
f 698/698 798/798 203/203
f 92/92 798/798 698/698
f 602/602 812/812 763/763
f 559/559 439/439 41/41
f 822/822 333/333 856/856
f 599/599 763/763 427/427
f 682/682 815/815 538/538
f 396/396 56/56 269/269
f 395/395 28/28 3/3
f 439/439 333/333 41/41
f 268/268 826/826 836/836
f 565/565 813/813 511/511
f 682/682 538/538 551/551
f 712/712 896/896 764/764
f 856/856 764/764 384/384
f 682/682 853/853 181/181
f 17/17 357/357 736/736
f 146/146 447/447 370/370
f 83/83 180/180 701/701
f 384/384 822/822 856/856
f 577/577 712/712 180/180
f 83/83 701/701 541/541
f 122/122 284/284 578/578
f 252/252 641/641 529/529
f 448/448 218/218 896/896
f 462/462 735/735 352/352
f 218/218 521/521 764/764
f 521/521 721/721 764/764
f 768/768 55/55 467/467
f 720/720 473/473 44/44
f 800/800 43/43 472/472
f 579/579 724/724 124/124
f 43/43 3/3 28/28
f 798/798 720/720 203/203
f 720/720 667/667 203/203
f 819/819 579/579 283/283
f 854/854 521/521 469/469
f 589/589 882/882 696/696
f 768/768 541/541 701/701
f 408/408 768/768 467/467
f 512/512 485/485 123/123
f 826/826 768/768 701/701
f 896/896 371/371 448/448
f 514/514 667/667 29/29
f 29/29 720/720 44/44
f 826/826 701/701 836/836
f 265/265 529/529 451/451
f 83/83 577/577 180/180
f 823/823 466/466 56/56
f 468/468 181/181 853/853
f 396/396 269/269 640/640
f 146/146 590/590 447/447
f 565/565 472/472 91/91
f 701/701 451/451 836/836
f 529/529 836/836 451/451
f 146/146 370/370 12/12
f 882/882 200/200 18/18
f 7/7 736/736 189/189
f 581/581 879/879 425/425
f 525/525 735/735 534/534
f 362/362 581/581 461/461
f 702/702 776/776 879/879
f 521/521 591/591 469/469
f 600/600 725/725 233/233
f 357/357 601/601 603/603
f 466/466 16/16 407/407
f 200/200 522/522 600/600
f 534/534 426/426 275/275
f 776/776 603/603 191/191
f 525/525 534/534 368/368
f 700/700 288/288 351/351
f 767/767 291/291 288/288
f 376/376 688/688 115/115
f 406/406 350/350 352/352
f 191/191 338/338 220/220
f 761/761 107/107 274/274
f 522/522 589/589 725/725
f 812/812 698/698 763/763
f 820/820 291/291 885/885
f 682/682 283/283 815/815
f 376/376 589/589 696/696
f 525/525 406/406 352/352
f 820/820 689/689 706/706
f 736/736 776/776 189/189
f 275/275 368/368 534/534
f 879/879 274/274 425/425
f 689/689 391/391 706/706
f 288/288 7/7 362/362
f 688/688 696/696 222/222
f 352/352 350/350 462/462
f 776/776 761/761 879/879
f 391/391 17/17 736/736
f 7/7 702/702 362/362
f 735/735 426/426 534/534
f 222/222 882/882 18/18
f 706/706 7/7 291/291
f 351/351 362/362 461/461
f 451/451 333/333 265/265
f 602/602 599/599 439/439
f 763/763 698/698 427/427
f 822/822 41/41 333/333
f 577/577 896/896 712/712
f 166/166 204/204 59/59
f 539/539 166/166 262/262
f 203/203 333/333 439/439
f 712/712 701/701 180/180
f 203/203 599/599 427/427
f 162/162 262/262 672/672
f 191/191 295/295 761/761
f 58/58 777/777 613/613
f 777/777 536/536 613/613
f 602/602 439/439 485/485
f 712/712 764/764 701/701
f 203/203 439/439 599/599
f 543/543 536/536 670/670
f 270/270 162/162 672/672
f 59/59 204/204 433/433
f 721/721 550/550 384/384
f 814/814 559/559 41/41
f 764/764 896/896 218/218
f 541/541 13/13 83/83
f 263/263 103/103 361/361
f 163/163 126/126 372/372
f 263/263 464/464 673/673
f 163/163 356/356 540/540
f 271/271 465/465 477/477
f 540/540 506/506 634/634
f 271/271 884/884 535/535
f 205/205 506/506 282/282
f 535/535 542/542 614/614
f 432/432 282/282 167/167
f 57/57 862/862 778/778
f 57/57 542/542 883/883
f 432/432 892/892 60/60
f 778/778 381/381 669/669
f 165/165 892/892 103/103
f 544/544 381/381 126/126
f 146/146 12/12 407/407
f 565/565 511/511 124/124
f 537/537 814/814 41/41
f 280/280 848/848 468/468
f 601/601 234/234 338/338
f 856/856 451/451 701/701
f 371/371 577/577 83/83
f 836/836 529/529 641/641
f 123/123 485/485 122/122
f 384/384 550/550 537/537
f 92/92 473/473 798/798
f 602/602 512/512 812/812
f 396/396 823/823 56/56
f 395/395 515/515 28/28
f 268/268 55/55 826/826
f 682/682 551/551 853/853
f 17/17 201/201 357/357
f 122/122 559/559 284/284
f 252/252 514/514 641/641
f 448/448 591/591 218/218
f 462/462 582/582 735/735
f 768/768 826/826 55/55
f 720/720 798/798 473/473
f 800/800 227/227 43/43
f 579/579 256/256 724/724
f 43/43 227/227 3/3
f 819/819 256/256 579/579
f 854/854 721/721 521/521
f 589/589 522/522 882/882
f 408/408 541/541 768/768
f 512/512 602/602 485/485
f 896/896 577/577 371/371
f 514/514 252/252 667/667
f 29/29 667/667 720/720
f 823/823 257/257 466/466
f 468/468 848/848 181/181
f 146/146 280/280 590/590
f 565/565 800/800 472/472
f 882/882 522/522 200/200
f 7/7 391/391 736/736
f 581/581 702/702 879/879
f 525/525 352/352 735/735
f 362/362 702/702 581/581
f 702/702 189/189 776/776
f 521/521 218/218 591/591
f 600/600 522/522 725/725
f 357/357 201/201 601/601
f 466/466 257/257 16/16
f 776/776 357/357 603/603
f 700/700 767/767 288/288
f 767/767 885/885 291/291
f 376/376 696/696 688/688
f 406/406 699/699 350/350
f 191/191 603/603 338/338
f 761/761 295/295 107/107
f 812/812 92/92 698/698
f 820/820 706/706 291/291
f 682/682 819/819 283/283
f 820/820 116/116 689/689
f 736/736 357/357 776/776
f 275/275 106/106 368/368
f 879/879 761/761 274/274
f 689/689 221/221 391/391
f 288/288 291/291 7/7
f 776/776 191/191 761/761
f 391/391 221/221 17/17
f 7/7 189/189 702/702
f 735/735 582/582 426/426
f 222/222 696/696 882/882
f 706/706 391/391 7/7
f 351/351 288/288 362/362
f 451/451 856/856 333/333
f 166/166 635/635 204/204
f 539/539 635/635 166/166
f 203/203 265/265 333/333
f 162/162 539/539 262/262
f 191/191 220/220 295/295
f 777/777 670/670 536/536
f 543/543 270/270 536/536
f 270/270 543/543 162/162
f 721/721 854/854 550/550
f 814/814 284/284 559/559
f 541/541 408/408 13/13
f 263/263 165/165 103/103
f 163/163 544/544 126/126
f 263/263 361/361 464/464
f 163/163 372/372 356/356
f 271/271 674/674 465/465
f 540/540 356/356 506/506
f 271/271 477/477 884/884
f 205/205 634/634 506/506
f 535/535 884/884 542/542
f 432/432 205/205 282/282
f 57/57 883/883 862/862
f 57/57 614/614 542/542
f 432/432 167/167 892/892
f 778/778 862/862 381/381
f 165/165 60/60 892/892
f 544/544 669/669 381/381