o convex_0
v -0.000068 0.039867 0.003901
v 0.000797 -0.010976 0.014302
v 0.000509 -0.010976 0.014302
v 0.000221 0.049403 0.012567
v 0.004554 0.049695 0.007657
v 0.004554 -0.011268 0.007657
v -0.003824 -0.011268 0.008813
v -0.004113 0.049695 0.009101
v 0.004554 -0.011268 0.011990
v -0.000068 -0.011268 0.005345
v -0.002090 0.049695 0.004190
v -0.003246 -0.011268 0.012278
v 0.002243 0.049695 0.004190
v 0.002821 0.049695 0.011700
v -0.002090 0.049695 0.011989
v -0.003535 0.012136 0.006791
v 0.002242 -0.011268 0.005635
v -0.003824 0.049695 0.006213
v -0.001801 -0.011268 0.005925
v 0.003976 0.048824 0.005634
v 0.002821 -0.011268 0.013723
v 0.003976 0.049116 0.010545
v -0.001801 -0.010689 0.013722
v -0.003535 0.043334 0.010834
v 0.004843 0.010692 0.009389
v 0.002821 -0.003176 0.005634
v -0.004113 0.017626 0.009101
v 0.002532 0.049403 0.011990
v -0.003535 -0.011268 0.011700
v 0.004843 -0.011268 0.008813
v -0.003535 -0.011268 0.007657
v 0.004554 0.049695 0.008524
v -0.004113 0.044778 0.007368
v 0.001375 0.049116 0.003901
v 0.001087 -0.011268 0.005345
v -0.003535 0.046514 0.005635
v -0.002090 0.010406 0.005346
v 0.002532 0.037844 0.004479
v -0.002090 0.040738 0.012279
v -0.003824 -0.011268 0.010545
v 0.004843 -0.010976 0.010834
v 0.004265 -0.005486 0.007079
v -0.001223 -0.011268 0.005635
v -0.000068 0.049116 0.012567
v 0.000509 0.049403 0.012567
v -0.000934 0.047672 0.003901
v -0.003535 0.049695 0.010545
v -0.002090 -0.006930 0.005924
v -0.003824 0.044778 0.006213
v 0.004265 0.049695 0.009677
v -0.002380 0.045357 0.004479
v 0.000509 0.040738 0.003901
v 0.003399 -0.010110 0.013145
f 28 21 53 
f 3 2 4 
f 7 6 9 
f 6 7 10 
f 8 5 11 
f 7 9 12 
f 11 5 13 
f 5 8 14 
f 14 8 15 
f 6 10 17 
f 8 11 18 
f 10 7 19 
f 5 6 20 
f 13 5 20 
f 2 3 21 
f 3 12 21 
f 12 9 21 
f 12 3 23 
f 12 23 24 
f 6 17 26 
f 2 21 28 
f 7 12 29 
f 24 8 29 
f 12 24 29 
f 6 5 30 
f 9 6 30 
f 5 25 30 
f 19 7 31 
f 5 14 32 
f 25 5 32 
f 8 18 33 
f 27 8 33 
f 7 27 33 
f 31 7 33 
f 11 13 34 
f 10 1 35 
f 17 10 35 
f 34 17 35 
f 18 11 36 
f 13 20 38 
f 26 17 38 
f 20 26 38 
f 34 13 38 
f 17 34 38 
f 15 24 39 
f 24 23 39 
f 8 27 40 
f 27 7 40 
f 7 29 40 
f 29 8 40 
f 9 30 41 
f 30 25 41 
f 25 32 41 
f 20 6 42 
f 6 26 42 
f 26 20 42 
f 1 10 43 
f 10 19 43 
f 37 11 43 
f 3 4 44 
f 4 15 44 
f 23 3 44 
f 15 39 44 
f 39 23 44 
f 4 2 45 
f 15 4 45 
f 14 15 45 
f 2 28 45 
f 28 14 45 
f 34 1 46 
f 11 34 46 
f 1 43 46 
f 43 11 46 
f 15 8 47 
f 24 15 47 
f 8 24 47 
f 31 16 48 
f 19 31 48 
f 16 36 48 
f 43 19 48 
f 37 43 48 
f 16 31 49 
f 33 18 49 
f 31 33 49 
f 18 36 49 
f 36 16 49 
f 22 9 50 
f 14 22 50 
f 32 14 50 
f 9 41 50 
f 41 32 50 
f 36 11 51 
f 11 37 51 
f 48 36 51 
f 37 48 51 
f 1 34 52 
f 35 1 52 
f 34 35 52 
f 21 9 53 
f 9 22 53 
f 22 14 53 
f 14 28 53 
o convex_1
v -0.001800 0.073099 0.014014
v 0.001953 0.083210 0.022102
v 0.001953 0.083210 0.019213
v 0.005421 0.076567 0.022102
v -0.004691 0.078587 0.022679
v 0.000509 0.082920 0.014014
v 0.005132 0.076277 0.014014
v -0.000067 0.073387 0.022968
v -0.004691 0.080031 0.014014
v -0.002090 0.081186 0.023546
v 0.003109 0.073677 0.018059
v 0.003687 0.079743 0.023546
v -0.002379 0.075121 0.023546
v 0.004265 0.079165 0.014014
v -0.004401 0.080321 0.022390
v -0.004980 0.078587 0.014014
v -0.001800 0.073387 0.022390
v -0.000645 0.072809 0.014014
v 0.002243 0.074833 0.023546
v 0.005421 0.077432 0.022102
v 0.000798 0.083210 0.022390
v 0.002243 0.082632 0.014014
v 0.002532 0.082632 0.022102
v 0.002532 0.073387 0.019213
v 0.000221 0.082920 0.015748
v 0.005132 0.077723 0.014592
v -0.004980 0.078587 0.017192
v 0.000798 0.081765 0.023546
v -0.000356 0.073099 0.022390
v -0.003535 0.079452 0.023546
v -0.004980 0.079452 0.020657
v 0.003977 0.077144 0.023546
v -0.003245 0.075411 0.014592
v 0.001664 0.083210 0.014881
v 0.004554 0.079165 0.022679
v 0.004554 0.075698 0.014014
f 64 71 89 
f 54 59 60 
f 59 54 62 
f 60 57 64 
f 65 63 66 
f 60 59 67 
f 62 54 69 
f 66 58 70 
f 61 66 70 
f 54 60 71 
f 70 54 71 
f 65 66 72 
f 66 61 72 
f 57 60 73 
f 55 56 74 
f 68 63 74 
f 67 59 75 
f 56 55 76 
f 55 65 76 
f 75 56 76 
f 64 57 77 
f 71 64 77 
f 57 72 77 
f 72 61 77 
f 59 62 78 
f 62 68 78 
f 68 74 78 
f 60 67 79 
f 73 60 79 
f 67 75 79 
f 75 76 79 
f 70 58 80 
f 65 55 81 
f 63 65 81 
f 55 74 81 
f 74 63 81 
f 61 70 82 
f 70 71 82 
f 71 77 82 
f 77 61 82 
f 66 63 83 
f 58 66 83 
f 68 58 83 
f 63 68 83 
f 58 68 84 
f 68 62 84 
f 62 69 84 
f 80 58 84 
f 69 80 84 
f 72 57 85 
f 65 72 85 
f 57 73 85 
f 73 65 85 
f 69 54 86 
f 54 70 86 
f 80 69 86 
f 70 80 86 
f 74 56 87 
f 56 75 87 
f 75 59 87 
f 59 78 87 
f 78 74 87 
f 65 73 88 
f 76 65 88 
f 73 79 88 
f 79 76 88 
f 60 64 89 
f 71 60 89 
o convex_2
v 0.001953 -0.084366 0.018347
v 0.000510 -0.085232 0.005057
v 0.000510 -0.084366 0.005057
v -0.005558 -0.084366 0.012856
v 0.005998 -0.077432 0.010547
v 0.006576 -0.089855 0.010547
v -0.004111 -0.077432 0.012567
v -0.004401 -0.090144 0.012278
v 0.004264 -0.089566 0.016900
v -0.001801 -0.077432 0.007080
v -0.002378 -0.089566 0.006791
v 0.003687 -0.077432 0.016034
v -0.002667 -0.084366 0.017478
v 0.006865 -0.084366 0.015167
v 0.004264 -0.083788 0.005925
v -0.004979 -0.084366 0.008525
v 0.003976 -0.090144 0.007080
v -0.001801 -0.089566 0.017189
v -0.001223 -0.077432 0.016323
v 0.003109 -0.077432 0.006791
v 0.006865 -0.084366 0.008524
v -0.002667 -0.084653 0.005925
v -0.004690 -0.084077 0.015456
v 0.007733 -0.084366 0.011413
v 0.006287 -0.089855 0.014011
v 0.004553 -0.084077 0.017478
v 0.005421 -0.077432 0.014301
v -0.004111 -0.089566 0.015167
v -0.003822 -0.077432 0.009392
v -0.004401 -0.089855 0.009392
v 0.001375 -0.089855 0.017478
v 0.001087 -0.089855 0.005925
v 0.005421 -0.077432 0.008814
v 0.005998 -0.090144 0.011125
v -0.005268 -0.088120 0.011702
v 0.000221 -0.084366 0.018347
v 0.005998 -0.089566 0.008524
v 0.004264 -0.085809 0.005925
v -0.003535 -0.077432 0.014300
v 0.001953 -0.077432 0.016611
v -0.002090 -0.090144 0.007080
v -0.000068 -0.077432 0.006503
v -0.005558 -0.083499 0.011702
v 0.007154 -0.088410 0.011990
v 0.001375 -0.089566 0.017767
v 0.005998 -0.077432 0.012278
v 0.006287 -0.089277 0.014879
v 0.006576 -0.084366 0.007947
v -0.004690 -0.086966 0.008525
v 0.004553 -0.085520 0.017478
v 0.001375 -0.084653 0.005057
v -0.005558 -0.084653 0.010547
v 0.003976 -0.089277 0.006503
v 0.006576 -0.086388 0.008235
v -0.003535 -0.077432 0.008814
v -0.004979 -0.089566 0.012278
v -0.004690 -0.086388 0.015167
v -0.004111 -0.090144 0.013145
f 123 120 147 
f 96 94 99 
f 94 96 101 
f 101 96 108 
f 99 94 109 
f 92 91 111 
f 91 100 111 
f 96 93 112 
f 110 94 113 
f 115 103 116 
f 94 101 116 
f 101 115 116 
f 107 102 117 
f 96 99 118 
f 114 98 120 
f 100 91 121 
f 109 94 122 
f 104 109 122 
f 94 110 122 
f 106 95 123 
f 97 106 123 
f 95 114 123 
f 114 120 123 
f 102 107 125 
f 108 102 125 
f 95 106 126 
f 108 96 128 
f 102 108 128 
f 96 112 128 
f 112 102 128 
f 101 108 129 
f 90 115 129 
f 115 101 129 
f 125 90 129 
f 108 125 129 
f 106 97 130 
f 97 119 130 
f 119 100 130 
f 100 121 130 
f 121 106 130 
f 99 109 131 
f 92 111 131 
f 111 99 131 
f 93 96 132 
f 96 118 132 
f 113 103 133 
f 95 113 133 
f 114 95 133 
f 120 98 134 
f 107 120 134 
f 125 107 134 
f 90 125 134 
f 113 94 135 
f 103 113 135 
f 116 103 135 
f 94 116 135 
f 98 114 136 
f 133 103 136 
f 114 133 136 
f 104 122 137 
f 122 110 137 
f 127 104 137 
f 111 100 138 
f 105 111 138 
f 100 119 138 
f 119 124 138 
f 115 90 139 
f 103 115 139 
f 90 134 139 
f 134 98 139 
f 98 136 139 
f 136 103 139 
f 91 92 140 
f 109 104 140 
f 121 91 140 
f 104 127 140 
f 127 121 140 
f 92 131 140 
f 131 109 140 
f 118 105 141 
f 124 93 141 
f 93 132 141 
f 132 118 141 
f 105 138 141 
f 138 124 141 
f 106 121 142 
f 126 106 142 
f 121 127 142 
f 142 127 143 
f 113 95 143 
f 110 113 143 
f 95 126 143 
f 137 110 143 
f 127 137 143 
f 126 142 143 
f 99 111 144 
f 111 105 144 
f 118 99 144 
f 105 118 144 
f 97 117 145 
f 119 97 145 
f 93 124 145 
f 124 119 145 
f 112 93 146 
f 102 112 146 
f 117 102 146 
f 93 145 146 
f 145 117 146 
f 117 97 147 
f 107 117 147 
f 120 107 147 
f 97 123 147 
o convex_3
v 0.000511 -0.058932 0.003903
v 0.001086 -0.042479 0.018636
v 0.000797 -0.042479 0.018636
v -0.000068 -0.011275 0.005346
v 0.008599 -0.019945 0.009681
v -0.006423 -0.019938 0.014012
v 0.001954 -0.077425 0.016613
v -0.006423 -0.050262 0.007369
v 0.005420 -0.077425 0.008813
v -0.003823 -0.077425 0.013722
v 0.004843 -0.019653 0.016901
v 0.007731 -0.049692 0.014878
v 0.004554 -0.019945 0.003034
v -0.003535 -0.020230 0.003034
v -0.002090 -0.077134 0.007080
v 0.007731 -0.049977 0.006792
v -0.003246 -0.050560 0.017768
v 0.001954 -0.011275 0.014012
v -0.002956 -0.020230 0.017190
v -0.006713 -0.019938 0.007080
v -0.007291 -0.048248 0.011122
v -0.003823 -0.011275 0.010833
v -0.003535 -0.049977 0.003901
v 0.004264 -0.049977 0.003613
v 0.005999 -0.077134 0.012566
v 0.005132 -0.050560 0.017478
v 0.000511 -0.038432 0.002457
v 0.004554 -0.011275 0.007659
v 0.008599 -0.051421 0.010545
v -0.006134 -0.050553 0.014878
v 0.003398 -0.077134 0.006790
v 0.007731 -0.019653 0.013434
v -0.004112 -0.077425 0.010545
v 0.007444 -0.019945 0.005925
v -0.001801 -0.075399 0.016322
v 0.005420 -0.077425 0.014301
v 0.000797 -0.021097 0.018057
v 0.001086 -0.052004 0.018636
v 0.001376 -0.020230 0.002167
v -0.007291 -0.019653 0.010259
v -0.006423 -0.020230 0.005925
v 0.004554 -0.011275 0.011989
v -0.003535 -0.011275 0.007659
v -0.001801 -0.011275 0.013722
v 0.000797 -0.049116 0.002746
v -0.004112 -0.073378 0.008525
v 0.000511 -0.076843 0.006213
v 0.004843 -0.050560 0.003901
v 0.003975 -0.073087 0.016322
v 0.006286 -0.076266 0.011122
v -0.006134 -0.051129 0.006790
v 0.000222 -0.019369 0.017767
v -0.003535 -0.019653 0.016901
v -0.006134 -0.060667 0.011410
v 0.008599 -0.050268 0.011410
v 0.007444 -0.032656 0.005925
v 0.002242 -0.011275 0.005634
v -0.000357 -0.020230 0.002167
v -0.006134 -0.038432 0.014878
v -0.000068 -0.077425 0.016613
v -0.003535 -0.076558 0.014589
v 0.007444 -0.021965 0.014299
v 0.002821 -0.049401 0.018345
v -0.007291 -0.024562 0.009392
f 167 188 211 
f 156 154 157 
f 164 150 166 
f 165 151 169 
f 159 158 173 
f 170 161 174 
f 151 165 175 
f 163 152 176 
f 153 168 177 
f 156 162 178 
f 156 157 180 
f 162 156 180 
f 152 163 181 
f 160 175 181 
f 175 152 181 
f 154 156 183 
f 156 172 183 
f 172 159 183 
f 150 149 184 
f 149 158 184 
f 166 150 184 
f 149 150 185 
f 150 164 185 
f 160 171 186 
f 168 153 187 
f 153 169 187 
f 161 170 188 
f 165 158 189 
f 152 175 189 
f 175 165 189 
f 179 152 189 
f 158 179 189 
f 151 161 190 
f 169 151 190 
f 167 187 190 
f 187 169 190 
f 161 188 190 
f 188 167 190 
f 165 169 191 
f 169 153 191 
f 148 170 192 
f 170 174 192 
f 178 148 192 
f 171 178 192 
f 186 171 192 
f 174 186 192 
f 170 162 193 
f 180 155 193 
f 162 180 193 
f 170 148 194 
f 162 170 194 
f 148 178 194 
f 178 162 194 
f 163 156 195 
f 171 160 195 
f 156 178 195 
f 178 171 195 
f 159 173 196 
f 154 183 196 
f 183 159 196 
f 156 163 197 
f 172 156 197 
f 163 176 197 
f 155 188 198 
f 188 170 198 
f 193 155 198 
f 170 193 198 
f 158 165 199 
f 184 158 199 
f 166 184 199 
f 165 191 199 
f 199 191 200 
f 164 166 200 
f 191 153 200 
f 166 199 200 
f 168 155 201 
f 157 177 201 
f 177 168 201 
f 180 157 201 
f 155 180 201 
f 159 172 202 
f 176 152 202 
f 152 179 202 
f 179 159 202 
f 172 197 202 
f 197 176 202 
f 181 163 203 
f 160 181 203 
f 163 195 203 
f 195 160 203 
f 151 175 204 
f 175 160 204 
f 186 151 204 
f 160 186 204 
f 161 151 205 
f 174 161 205 
f 151 186 205 
f 186 174 205 
f 153 177 206 
f 177 164 206 
f 164 200 206 
f 200 153 206 
f 157 154 207 
f 164 182 207 
f 185 164 207 
f 154 185 207 
f 164 177 208 
f 177 157 208 
f 182 164 208 
f 157 207 208 
f 207 182 208 
f 158 159 209 
f 159 179 209 
f 179 158 209 
f 158 149 210 
f 173 158 210 
f 149 185 210 
f 185 154 210 
f 196 173 210 
f 154 196 210 
f 155 168 211 
f 168 187 211 
f 187 167 211 
f 188 155 211 
o convex_4
v -0.012203 0.074256 0.007945
v 0.000796 0.090144 0.007369
v 0.000796 0.090144 0.006503
v 0.011487 0.069053 0.010256
v 0.010330 0.069053 0.001592
v -0.009889 0.069053 0.013723
v 0.010042 0.083497 0.012567
v -0.010469 0.069344 0.001879
v 0.006576 0.086098 0.001011
v -0.007290 0.086098 0.013145
v -0.007868 0.085809 0.001590
v 0.011777 0.080030 0.003324
v 0.008598 0.069053 0.013434
v 0.001953 0.082921 0.014013
v 0.003688 0.088697 0.012567
v -0.011623 0.080608 0.011123
v -0.011623 0.079741 0.002746
v 0.008021 0.087252 0.006214
v -0.008157 0.087254 0.007079
v -0.000646 0.088986 0.001592
v 0.011197 0.078878 0.012856
v -0.004112 0.088986 0.011412
v -0.011334 0.069053 0.003901
v -0.010469 0.080319 0.013434
v 0.009465 0.082629 0.001011
v -0.008445 0.084364 0.001301
v -0.004402 0.089275 0.005347
v 0.012067 0.080319 0.007945
v -0.002667 0.069053 0.001592
v 0.005132 0.076279 0.014013
v -0.011046 0.083499 0.007079
v 0.003975 0.088986 0.003036
v 0.012067 0.075412 0.004479
v -0.011046 0.069053 0.011989
v 0.010620 0.083786 0.005058
v -0.004689 0.080030 0.014012
v -0.000646 0.088986 0.012856
v 0.010620 0.069053 0.013145
v 0.012067 0.075699 0.011123
v 0.004265 0.089566 0.007369
v 0.008021 0.086965 0.010545
v -0.010469 0.083499 0.011700
v 0.001086 0.072234 0.014013
v -0.011623 0.075412 0.012277
v -0.012203 0.080030 0.007656
v 0.010330 0.071367 0.001303
v -0.010756 0.083210 0.003324
v 0.011777 0.069920 0.007081
v -0.010756 0.074834 0.001590
v -0.011913 0.075123 0.003324
v -0.004402 0.087832 0.001303
v 0.007731 0.086676 0.002747
v 0.010620 0.083786 0.010545
v 0.011197 0.074834 0.001592
v 0.007154 0.086387 0.012856
v 0.010620 0.078589 0.013145
v -0.007868 0.086965 0.011123
v 0.011197 0.069053 0.003325
v 0.001374 0.087541 0.001011
v -0.000068 0.089853 0.010834
v -0.004112 0.089564 0.007369
v -0.008157 0.086676 0.003613
v 0.011777 0.080319 0.011123
v -0.003534 0.088121 0.013145
f 248 233 275 
f 216 215 217 
f 217 215 224 
f 216 217 234 
f 214 231 238 
f 216 234 240 
f 234 219 240 
f 231 214 243 
f 220 231 243 
f 223 239 244 
f 212 234 245 
f 234 217 245 
f 223 236 246 
f 239 223 246 
f 235 217 247 
f 221 235 247 
f 224 215 249 
f 241 224 249 
f 244 239 250 
f 249 215 250 
f 232 249 250 
f 214 213 251 
f 243 214 251 
f 229 243 251 
f 251 226 252 
f 229 251 252 
f 235 221 253 
f 227 235 253 
f 242 227 253 
f 230 242 253 
f 217 224 254 
f 224 241 254 
f 241 225 254 
f 225 247 254 
f 247 217 254 
f 217 235 255 
f 235 227 255 
f 212 245 255 
f 245 217 255 
f 227 242 256 
f 212 255 256 
f 255 227 256 
f 216 240 257 
f 222 237 258 
f 237 228 258 
f 228 256 258 
f 256 242 258 
f 250 215 259 
f 244 250 259 
f 228 237 260 
f 240 219 260 
f 234 212 261 
f 219 234 261 
f 212 256 261 
f 256 228 261 
f 260 219 261 
f 228 260 261 
f 237 222 262 
f 238 231 262 
f 236 220 263 
f 243 229 263 
f 220 243 263 
f 229 246 263 
f 246 236 263 
f 246 229 264 
f 239 246 264 
f 252 218 264 
f 229 252 264 
f 236 223 265 
f 223 244 265 
f 257 236 265 
f 216 257 265 
f 248 225 266 
f 226 248 266 
f 218 252 266 
f 252 226 266 
f 232 218 267 
f 225 241 267 
f 249 232 267 
f 241 249 267 
f 218 266 267 
f 266 225 267 
f 221 233 268 
f 253 221 268 
f 230 253 268 
f 215 216 269 
f 259 215 269 
f 244 259 269 
f 216 265 269 
f 265 244 269 
f 231 220 270 
f 220 236 270 
f 236 257 270 
f 257 240 270 
f 260 237 270 
f 240 260 270 
f 262 231 270 
f 237 262 270 
f 248 226 271 
f 233 248 271 
f 251 213 271 
f 226 251 271 
f 213 214 272 
f 214 238 272 
f 238 230 272 
f 268 233 272 
f 230 268 272 
f 271 213 272 
f 233 271 272 
f 230 238 273 
f 242 230 273 
f 222 258 273 
f 258 242 273 
f 262 222 273 
f 238 262 273 
f 218 232 274 
f 232 250 274 
f 250 239 274 
f 264 218 274 
f 239 264 274 
f 233 221 275 
f 221 247 275 
f 247 225 275 
f 225 248 275 
o convex_5
v 0.001952 0.054896 0.012857
v -0.000645 0.054607 0.002745
v -0.000645 0.054896 0.002745
v -0.004980 0.054607 0.010834
v 0.004554 0.049695 0.008523
v -0.004113 0.049695 0.009101
v 0.005420 0.054896 0.005345
v 0.000218 0.049695 0.003612
v -0.000067 0.049984 0.012568
v -0.004980 0.054896 0.005057
v 0.005420 0.054607 0.010545
v -0.002090 0.049695 0.004190
v 0.002820 0.049695 0.011701
v -0.003246 0.054896 0.012568
v 0.002820 0.049695 0.004479
v 0.003397 0.054317 0.003323
v -0.002090 0.049695 0.011989
v -0.003824 0.049695 0.006213
v -0.005558 0.054896 0.007657
v -0.003246 0.054607 0.003323
v 0.003975 0.049695 0.005634
v 0.003687 0.054896 0.012279
v -0.000356 0.054607 0.013146
v 0.005710 0.054896 0.008523
v -0.003535 0.049695 0.010545
v 0.003975 0.049695 0.010257
f 286 288 301 
f 278 276 282 
f 280 281 283 
f 276 278 285 
f 283 281 287 
f 281 280 288 
f 276 284 288 
f 276 285 289 
f 280 283 290 
f 290 283 291 
f 277 278 291 
f 278 282 291 
f 283 277 291 
f 281 288 292 
f 288 284 292 
f 289 279 292 
f 284 289 292 
f 287 281 293 
f 285 287 293 
f 281 279 294 
f 279 289 294 
f 289 285 294 
f 293 281 294 
f 285 293 294 
f 278 277 295 
f 277 283 295 
f 285 278 295 
f 283 287 295 
f 287 285 295 
f 282 280 296 
f 280 290 296 
f 290 291 296 
f 291 282 296 
f 282 276 297 
f 276 288 297 
f 288 286 297 
f 284 276 298 
f 276 289 298 
f 289 284 298 
f 280 282 299 
f 286 280 299 
f 282 297 299 
f 297 286 299 
f 279 281 300 
f 292 279 300 
f 281 292 300 
f 280 286 301 
f 288 280 301 
o convex_6
v -0.005845 0.055185 0.008234
v 0.011489 0.069053 0.009966
v 0.011489 0.069053 0.005636
v -0.011336 0.069053 0.003901
v -0.009891 0.069053 0.013724
v 0.003687 0.055185 0.003035
v 0.003687 0.054896 0.012566
v 0.001086 0.068474 -0.000144
v -0.008157 0.060676 0.002167
v 0.009755 0.063274 0.013144
v 0.009176 0.062407 0.001878
v -0.007867 0.060965 0.013724
v 0.008888 0.069053 0.013435
v -0.010467 0.062983 0.008521
v 0.005709 0.054896 0.006503
v 0.010331 0.069053 0.001590
v -0.000934 0.054896 0.002746
v -0.001512 0.064718 -0.000144
v -0.002668 0.056919 0.013724
v -0.010179 0.069053 0.001878
v 0.010620 0.062986 0.007079
v 0.004842 0.060965 0.000723
v -0.003246 0.054896 0.012566
v 0.006576 0.059810 0.013724
v -0.004980 0.054896 0.004768
v -0.011046 0.067606 0.011701
v -0.010179 0.062695 0.004191
v 0.005709 0.055185 0.010257
v -0.009891 0.062983 0.012278
v -0.005268 0.054896 0.010545
v 0.010043 0.062408 0.003902
v -0.002668 0.056629 0.002167
v 0.010331 0.062986 0.011411
v -0.009312 0.063562 0.001878
v 0.010620 0.069053 0.013144
v -0.000646 0.068762 -0.000144
v 0.001953 0.065586 -0.000144
v 0.010910 0.066162 0.003324
v 0.005420 0.054896 0.005056
v -0.011336 0.066450 0.007656
v 0.000510 0.055474 0.013435
v 0.008888 0.059810 0.008811
v 0.008309 0.060676 0.013146
v -0.011336 0.069053 0.010257
v -0.008733 0.060098 0.004191
v -0.003534 0.054896 0.003323
v 0.011489 0.067030 0.007654
v -0.009312 0.060676 0.008234
v 0.008019 0.060676 0.001878
v 0.000510 0.056919 0.001878
v -0.010179 0.066162 0.013435
v -0.008445 0.059810 0.011123
v 0.011198 0.066741 0.011122
v -0.002091 0.065295 -0.000144
v -0.010467 0.065874 0.002457
v 0.008598 0.059810 0.004191
v 0.010043 0.066452 0.001590
v -0.005845 0.068762 0.013724
v -0.006423 0.058942 0.002167
v 0.010043 0.066452 0.013435
v -0.011046 0.066162 0.004191
v -0.002091 0.067606 -0.000144
v 0.008888 0.060388 0.011412
v 0.002820 0.057207 0.013724
f 320 342 365 
f 303 304 305 
f 303 305 306 
f 303 306 314 
f 305 304 317 
f 316 308 318 
f 306 313 320 
f 305 317 321 
f 318 308 324 
f 320 313 324 
f 306 320 325 
f 318 324 326 
f 308 316 329 
f 327 315 330 
f 324 313 331 
f 302 326 331 
f 326 324 331 
f 310 328 335 
f 303 314 336 
f 317 309 337 
f 309 319 337 
f 321 317 337 
f 309 317 338 
f 319 309 338 
f 323 319 338 
f 317 304 339 
f 332 312 339 
f 322 332 339 
f 318 307 340 
f 316 318 340 
f 315 327 341 
f 328 315 341 
f 324 308 342 
f 320 324 342 
f 329 316 343 
f 322 334 343 
f 325 308 344 
f 311 325 344 
f 308 329 344 
f 306 305 345 
f 327 306 345 
f 305 341 345 
f 341 327 345 
f 326 302 346 
f 310 326 346 
f 328 310 346 
f 326 310 347 
f 318 326 347 
f 333 318 347 
f 304 303 348 
f 339 304 348 
f 322 339 348 
f 315 328 349 
f 346 302 349 
f 328 346 349 
f 307 323 350 
f 323 312 350 
f 340 307 350 
f 307 318 351 
f 323 307 351 
f 319 323 351 
f 333 319 351 
f 318 333 351 
f 313 306 352 
f 306 327 352 
f 330 313 352 
f 327 330 352 
f 313 330 353 
f 330 315 353 
f 331 313 353 
f 302 331 353 
f 315 349 353 
f 349 302 353 
f 311 334 354 
f 334 322 354 
f 303 336 354 
f 336 311 354 
f 348 303 354 
f 322 348 354 
f 310 335 355 
f 335 321 355 
f 337 319 355 
f 305 321 356 
f 321 335 356 
f 335 328 356 
f 312 332 357 
f 332 322 357 
f 316 340 357 
f 343 316 357 
f 322 343 357 
f 350 312 357 
f 340 350 357 
f 312 323 358 
f 338 317 358 
f 323 338 358 
f 317 339 358 
f 339 312 358 
f 314 306 359 
f 325 314 359 
f 306 325 359 
f 319 333 360 
f 347 310 360 
f 333 347 360 
f 310 355 360 
f 355 319 360 
f 325 311 361 
f 314 325 361 
f 336 314 361 
f 311 336 361 
f 341 305 362 
f 328 341 362 
f 305 356 362 
f 356 328 362 
f 321 337 363 
f 355 321 363 
f 337 355 363 
f 334 311 364 
f 329 343 364 
f 343 334 364 
f 311 344 364 
f 344 329 364 
f 308 325 365 
f 325 320 365 
f 342 308 365 
