o convex_0
v -0.011095 0.016218 0.003361
v 0.008772 0.029075 0.008620
v 0.008772 0.028197 0.008620
v -0.011974 0.029075 0.008619
v 0.008772 0.029075 0.003361
v 0.005848 0.016218 0.008912
v -0.011974 0.029075 0.003361
v 0.007018 0.016218 0.003361
v -0.010220 0.016218 0.008912
v 0.005556 0.016218 0.003068
v 0.007018 0.016218 0.008620
v -0.011095 0.016218 0.008619
v -0.009927 0.019141 0.008912
v 0.004095 0.018557 0.003068
v -0.011974 0.027320 0.008619
v 0.005556 0.019141 0.008912
v -0.011974 0.027320 0.003361
v 0.008772 0.028197 0.003361
f 8 10 18 
f 2 3 5 
f 4 2 5 
f 3 2 6 
f 4 5 7 
f 6 1 8 
f 1 6 9 
f 8 1 10 
f 3 6 11 
f 8 3 11 
f 6 8 11 
f 1 9 12 
f 2 4 13 
f 4 9 13 
f 9 6 13 
f 7 5 14 
f 10 1 14 
f 5 10 14 
f 4 7 15 
f 9 4 15 
f 1 12 15 
f 12 9 15 
f 6 2 16 
f 2 13 16 
f 13 6 16 
f 14 1 17 
f 7 14 17 
f 1 15 17 
f 15 7 17 
f 5 3 18 
f 3 8 18 
f 10 5 18 
o convex_1
v -0.022491 0.075536 0.003654
v -0.002331 0.090145 0.009788
v -0.002331 0.090145 0.002193
v -0.009931 0.072614 0.010664
v -0.009931 0.072614 0.001316
v -0.019571 0.080504 0.010664
v -0.014896 0.085177 0.001901
v -0.023370 0.072614 0.010958
v -0.023370 0.072614 0.001316
v -0.010806 0.087807 0.010080
v -0.021323 0.077875 0.001316
v -0.007591 0.089268 0.002193
v -0.002624 0.088976 0.010080
v -0.002916 0.088391 0.001900
v -0.014896 0.085177 0.010372
v -0.018693 0.081671 0.001608
v -0.008761 0.074954 0.010665
v -0.022491 0.075244 0.010958
v -0.006423 0.089561 0.010080
v -0.011976 0.087222 0.001901
v -0.002331 0.089561 0.002193
v -0.021031 0.078458 0.010664
v -0.017231 0.072909 0.010958
v -0.017231 0.083131 0.010080
v -0.003501 0.090145 0.002193
v -0.009053 0.074369 0.001608
v -0.005254 0.083715 0.010373
v -0.018109 0.081379 0.010664
v -0.023370 0.073201 0.001316
v -0.023076 0.074076 0.010958
v -0.002916 0.088976 0.001900
v -0.017231 0.083131 0.001608
v -0.007591 0.089268 0.010080
v -0.003209 0.087514 0.010080
f 35 39 52 
f 23 22 26 
f 23 26 27 
f 23 27 29 
f 22 23 35 
f 31 20 37 
f 28 30 38 
f 25 33 38 
f 33 28 38 
f 21 20 39 
f 20 31 39 
f 32 21 39 
f 29 19 40 
f 24 34 40 
f 34 29 40 
f 36 24 40 
f 26 22 41 
f 22 35 41 
f 36 26 41 
f 24 33 42 
f 33 25 42 
f 34 24 42 
f 20 21 43 
f 37 20 43 
f 30 37 43 
f 38 30 43 
f 23 32 44 
f 35 23 44 
f 32 39 44 
f 39 35 44 
f 35 31 45 
f 41 35 45 
f 36 41 45 
f 33 24 46 
f 24 36 46 
f 31 37 46 
f 37 33 46 
f 45 31 46 
f 36 45 46 
f 27 26 47 
f 19 29 47 
f 29 27 47 
f 26 36 48 
f 40 19 48 
f 36 40 48 
f 47 26 48 
f 19 47 48 
f 23 29 49 
f 32 23 49 
f 21 32 49 
f 43 21 49 
f 38 43 49 
f 29 34 50 
f 25 38 50 
f 42 25 50 
f 34 42 50 
f 49 29 50 
f 38 49 50 
f 30 28 51 
f 28 33 51 
f 37 30 51 
f 33 37 51 
f 31 35 52 
f 39 31 52 
o convex_2
v 0.010818 -0.082258 0.008620
v 0.000298 -0.089854 0.003361
v 0.001468 -0.089854 0.003361
v 0.010524 -0.077873 0.003068
v 0.000298 -0.085469 0.008620
v 0.007019 -0.077873 0.008620
v 0.000298 -0.085177 0.003653
v 0.004391 -0.089269 0.008620
v 0.008480 -0.086054 0.003361
v 0.006725 -0.077873 0.003653
v 0.011402 -0.077873 0.008620
v 0.000298 -0.089854 0.008620
v 0.010818 -0.082258 0.003361
v 0.008771 -0.085762 0.008620
v 0.000298 -0.086930 0.003068
v 0.004682 -0.088977 0.003361
v 0.007310 -0.086054 0.003068
v 0.011402 -0.079044 0.003361
v 0.006725 -0.077873 0.008328
v 0.008187 -0.077873 0.003068
v 0.007310 -0.087222 0.003361
v 0.000298 -0.085177 0.008035
v 0.007310 -0.087222 0.008620
v 0.000883 -0.088977 0.003068
f 69 68 76 
f 57 53 58 
f 54 57 59 
f 53 57 60 
f 58 56 62 
f 58 53 63 
f 56 58 63 
f 54 55 64 
f 57 54 64 
f 55 60 64 
f 60 57 64 
f 53 60 66 
f 61 65 66 
f 65 53 66 
f 54 59 67 
f 60 55 68 
f 56 65 69 
f 65 61 69 
f 67 56 69 
f 63 53 70 
f 56 63 70 
f 65 56 70 
f 53 65 70 
f 57 58 71 
f 58 62 71 
f 62 59 71 
f 62 56 72 
f 59 62 72 
f 67 59 72 
f 56 67 72 
f 60 68 73 
f 69 61 73 
f 68 69 73 
f 59 57 74 
f 57 71 74 
f 71 59 74 
f 66 60 75 
f 61 66 75 
f 60 73 75 
f 73 61 75 
f 55 54 76 
f 54 67 76 
f 68 55 76 
f 67 69 76 
o convex_3
v 0.008187 -0.007167 0.007742
v 0.000298 -0.070561 0.003653
v 0.000298 -0.070561 0.008035
v 0.011402 -0.077864 0.003361
v 0.000298 0.016208 0.003946
v 0.011402 -0.077864 0.008620
v 0.003514 0.016218 0.008912
v 0.007019 0.016218 0.003361
v 0.000298 0.016208 0.008035
v 0.000298 -0.069980 0.008620
v 0.007019 0.016218 0.008619
v 0.003806 0.016218 0.003068
v 0.008480 -0.077864 0.003068
v 0.000298 -0.069980 0.003361
v 0.007019 -0.077873 0.008619
v 0.008187 -0.036962 0.008912
v 0.011402 -0.073185 0.003361
v 0.010525 -0.074070 0.003068
v 0.011402 -0.072900 0.008620
v 0.006726 -0.077873 0.003653
v 0.005850 0.015923 0.003068
v 0.006143 0.012119 0.008912
v 0.006726 -0.038703 0.008912
v 0.002345 0.016218 0.003361
v 0.006726 -0.077873 0.008035
v 0.007311 0.010664 0.004822
v 0.008187 -0.077569 0.003068
v 0.002345 0.016218 0.008619
v 0.000298 -0.066471 0.008620
v 0.000298 -0.066471 0.003361
f 100 88 106 
f 78 79 81 
f 81 79 85 
f 85 79 86 
f 84 83 87 
f 83 84 88 
f 78 81 90 
f 80 82 91 
f 86 79 91 
f 82 80 93 
f 89 88 94 
f 80 89 94 
f 93 80 94 
f 84 93 94 
f 77 87 95 
f 92 82 95 
f 82 93 95 
f 79 78 96 
f 89 80 96 
f 78 90 96 
f 80 91 96 
f 88 84 97 
f 84 94 97 
f 94 88 97 
f 87 83 98 
f 83 92 98 
f 95 87 98 
f 92 95 98 
f 83 86 99 
f 91 82 99 
f 86 91 99 
f 92 83 99 
f 82 92 99 
f 81 85 100 
f 83 88 100 
f 91 79 101 
f 79 96 101 
f 96 91 101 
f 87 77 102 
f 84 87 102 
f 93 84 102 
f 77 95 102 
f 95 93 102 
f 88 89 103 
f 90 88 103 
f 89 96 103 
f 96 90 103 
f 100 85 104 
f 83 100 104 
f 86 83 105 
f 85 86 105 
f 83 104 105 
f 104 85 105 
f 90 81 106 
f 88 90 106 
f 81 100 106 
o convex_4
v -0.002039 0.029075 0.008619
v 0.007311 0.038133 0.008912
v 0.007311 0.038133 0.003361
v 0.007311 0.029075 0.008619
v -0.002039 0.038133 0.007158
v -0.002039 0.029075 0.003361
v 0.007311 0.029075 0.003361
v -0.002039 0.038133 0.004822
v -0.002039 0.030829 0.008619
v -0.002039 0.030829 0.003361
v 0.006143 0.038133 0.003361
f 109 116 117 
f 109 108 110 
f 108 107 110 
f 108 109 111 
f 110 107 112 
f 107 111 112 
f 109 110 113 
f 112 109 113 
f 110 112 113 
f 111 109 114 
f 112 111 114 
f 107 108 115 
f 111 107 115 
f 108 111 115 
f 109 112 116 
f 112 114 116 
f 116 114 117 
f 114 109 117 
o convex_5
v 0.011695 0.081377 0.009789
v 0.007311 0.029075 0.003362
v 0.012864 0.043982 0.001024
v 0.019584 0.047488 0.010957
v 0.014615 0.081957 0.002192
v 0.007311 0.043397 0.011541
v 0.007311 0.071439 0.001609
v 0.019584 0.047488 0.001024
v 0.019584 0.068226 0.010373
v 0.009065 0.029075 0.008619
v 0.007311 0.071439 0.010372
v 0.019584 0.068226 0.001607
v 0.017246 0.077286 0.010080
v 0.007311 0.059171 0.001025
v 0.012572 0.083425 0.002192
v 0.018999 0.044274 0.005114
v 0.009065 0.029075 0.003362
v 0.013156 0.083425 0.009789
v 0.017830 0.075823 0.001901
v 0.007311 0.029075 0.008619
v 0.007311 0.050706 0.001025
v 0.016077 0.043104 0.010957
v 0.007605 0.046030 0.011541
v 0.019584 0.054792 0.010957
v 0.012280 0.081084 0.010080
v 0.018707 0.044274 0.008912
v 0.019291 0.054500 0.001024
v 0.016077 0.043104 0.001024
v 0.018999 0.071732 0.010080
v 0.011403 0.079329 0.001901
v 0.009650 0.045445 0.001024
v 0.018707 0.044274 0.003070
v 0.016661 0.078744 0.009789
v 0.017538 0.076993 0.003654
v 0.007311 0.067640 0.010664
v 0.019584 0.045445 0.006283
v 0.018999 0.071732 0.001901
v 0.014909 0.081664 0.008619
v 0.016661 0.078744 0.002192
v 0.018999 0.044274 0.006866
v 0.017538 0.076993 0.009204
v 0.013156 0.083425 0.002192
v 0.012572 0.083127 0.009789
f 142 135 160 
f 119 123 124 
f 121 125 126 
f 124 123 128 
f 126 125 129 
f 119 124 131 
f 128 118 132 
f 124 128 132 
f 133 127 134 
f 127 119 134 
f 123 119 137 
f 119 127 137 
f 127 123 137 
f 119 131 138 
f 121 123 139 
f 123 127 139 
f 127 121 139 
f 123 121 140 
f 121 126 141 
f 126 130 141 
f 140 121 141 
f 130 135 142 
f 141 130 142 
f 140 141 142 
f 121 127 143 
f 125 120 144 
f 129 125 144 
f 119 120 145 
f 120 125 145 
f 134 119 145 
f 125 134 145 
f 126 129 146 
f 130 126 146 
f 131 124 147 
f 124 132 147 
f 136 129 147 
f 129 144 147 
f 144 131 147 
f 120 119 148 
f 119 138 148 
f 138 131 148 
f 144 120 148 
f 131 144 148 
f 125 133 149 
f 133 134 149 
f 134 125 149 
f 135 130 150 
f 128 123 152 
f 123 140 152 
f 142 128 152 
f 140 142 152 
f 125 121 153 
f 133 125 153 
f 121 143 153 
f 129 136 154 
f 146 129 154 
f 136 151 154 
f 151 146 154 
f 135 150 155 
f 155 150 156 
f 136 122 156 
f 151 136 156 
f 150 151 156 
f 122 155 156 
f 127 133 157 
f 143 127 157 
f 133 153 157 
f 153 143 157 
f 130 146 158 
f 150 130 158 
f 146 151 158 
f 151 150 158 
f 132 135 159 
f 122 136 159 
f 147 132 159 
f 136 147 159 
f 155 122 159 
f 135 155 159 
f 118 128 160 
f 132 118 160 
f 135 132 160 
f 128 142 160 
o convex_6
v -0.004962 -0.088392 0.003068
v -0.005546 -0.083425 0.008035
v -0.005546 -0.083425 0.003945
v -0.011390 -0.084011 0.008619
v 0.000298 -0.090145 0.008619
v 0.000298 -0.085472 0.003361
v -0.011390 -0.083425 0.003361
v -0.006129 -0.088977 0.008619
v 0.000298 -0.085764 0.008619
v 0.000298 -0.090145 0.003361
v -0.009343 -0.086931 0.003361
v -0.004669 -0.089561 0.003361
v -0.010221 -0.083425 0.008912
v -0.009343 -0.086931 0.008619
v 0.000298 -0.085180 0.008035
v -0.007883 -0.083425 0.003068
v -0.001456 -0.090145 0.008619
v 0.000298 -0.086931 0.003068
v -0.006713 -0.086640 0.008912
v -0.011390 -0.084011 0.003361
v 0.000298 -0.085180 0.003945
v -0.006129 -0.083425 0.008619
v -0.006129 -0.088977 0.003361
f 161 172 183 
f 162 163 167 
f 165 166 169 
f 166 165 170 
f 161 170 172 
f 162 167 173 
f 167 164 173 
f 164 171 174 
f 171 168 174 
f 173 164 174 
f 163 162 175 
f 169 166 175 
f 163 166 176 
f 167 163 176 
f 170 165 177 
f 168 172 177 
f 172 170 177 
f 166 170 178 
f 170 161 178 
f 161 176 178 
f 176 166 178 
f 165 169 179 
f 169 173 179 
f 174 168 179 
f 173 174 179 
f 177 165 179 
f 168 177 179 
f 164 167 180 
f 171 164 180 
f 161 171 180 
f 176 161 180 
f 167 176 180 
f 166 163 181 
f 163 175 181 
f 175 166 181 
f 162 173 182 
f 173 169 182 
f 175 162 182 
f 169 175 182 
f 171 161 183 
f 168 171 183 
f 172 168 183 
o convex_7
v -0.006423 -0.083425 0.008619
v -0.011974 -0.078459 0.003068
v -0.013143 -0.078459 0.003361
v -0.008468 -0.077874 0.008619
v -0.011974 -0.083132 0.008619
v -0.006423 -0.083425 0.003361
v -0.011681 -0.083425 0.003361
v -0.013143 -0.077874 0.008619
v -0.008177 -0.077874 0.003945
v -0.005838 -0.083132 0.008035
v -0.010220 -0.083425 0.008912
v -0.009927 -0.077874 0.003068
v -0.005838 -0.083132 0.003945
v -0.008177 -0.083425 0.003068
v -0.010220 -0.077874 0.008912
v -0.013143 -0.077874 0.003361
v -0.012266 -0.082256 0.003361
v -0.008177 -0.077874 0.008035
v -0.012558 -0.081087 0.008619
f 200 188 202 
f 189 184 190 
f 191 187 192 
f 187 184 193 
f 184 189 193 
f 190 184 194 
f 188 190 194 
f 192 189 195 
f 191 192 195 
f 189 192 196 
f 193 189 196 
f 192 193 196 
f 189 190 197 
f 190 185 197 
f 185 195 197 
f 195 189 197 
f 184 187 198 
f 187 191 198 
f 194 184 198 
f 191 194 198 
f 185 186 199 
f 186 191 199 
f 195 185 199 
f 191 195 199 
f 186 185 200 
f 185 190 200 
f 190 188 200 
f 192 187 201 
f 187 193 201 
f 193 192 201 
f 191 186 202 
f 188 194 202 
f 194 191 202 
f 186 200 202 
o convex_8
v -0.007591 0.016218 0.008620
v -0.013143 -0.077873 0.003361
v -0.013143 -0.077873 0.005990
v -0.007299 -0.074650 0.003946
v -0.011390 0.015923 0.003361
v -0.007299 -0.073775 0.008620
v -0.011390 0.015628 0.008619
v -0.007299 0.016218 0.003653
v -0.011974 -0.077873 0.008912
v -0.009929 -0.077873 0.003068
v -0.012851 -0.062382 0.008619
v -0.008468 0.016218 0.008912
v -0.007591 0.016218 0.003361
v -0.007299 -0.073775 0.003361
v -0.007299 0.016218 0.008327
v -0.008176 -0.077873 0.008035
v -0.011097 -0.031979 0.003068
v -0.010221 0.016218 0.008912
v -0.010221 -0.077873 0.008912
v -0.009637 -0.028212 0.003068
v -0.012851 -0.077873 0.008619
v -0.011974 -0.067641 0.003068
v -0.008176 -0.077873 0.003945
v -0.010513 0.011834 0.008912
v -0.011097 0.016218 0.003361
v -0.012851 -0.061792 0.004237
v -0.011974 -0.077873 0.003068
f 224 212 229 
f 208 206 210 
f 205 204 211 
f 211 204 212 
f 208 203 214 
f 203 210 214 
f 214 210 215 
f 210 206 216 
f 215 210 216 
f 203 208 217 
f 210 203 217 
f 208 210 217 
f 206 208 218 
f 211 212 218 
f 211 214 220 
f 214 215 220 
f 208 214 221 
f 214 211 221 
f 218 208 221 
f 211 218 221 
f 216 212 222 
f 215 216 222 
f 219 207 222 
f 212 219 222 
f 205 211 223 
f 213 205 223 
f 211 213 223 
f 204 207 224 
f 207 219 224 
f 219 212 224 
f 216 206 225 
f 212 216 225 
f 206 218 225 
f 218 212 225 
f 209 213 226 
f 213 211 226 
f 220 209 226 
f 211 220 226 
f 207 209 227 
f 209 220 227 
f 220 215 227 
f 222 207 227 
f 215 222 227 
f 204 205 228 
f 207 204 228 
f 209 207 228 
f 205 213 228 
f 213 209 228 
f 212 204 229 
f 204 224 229 
o convex_9
v -0.004961 -0.066768 0.008620
v -0.007299 -0.074367 0.003946
v -0.007299 -0.074367 0.008035
v -0.007299 0.016218 0.003946
v 0.000298 -0.069978 0.003361
v 0.000298 0.016218 0.008035
v -0.007299 0.016218 0.008035
v 0.000298 0.016218 0.003946
v 0.000298 -0.069978 0.008620
v -0.007299 -0.067646 0.003361
v -0.007299 -0.073489 0.008620
v 0.000298 -0.070563 0.008035
v -0.007299 -0.073489 0.003361
v -0.000286 -0.066183 0.003361
v 0.000298 -0.070563 0.003946
v 0.000298 -0.066466 0.008620
v -0.007007 -0.074367 0.008035
v -0.007299 -0.067646 0.008620
f 236 240 247 
f 231 232 233 
f 233 232 236 
f 235 233 236 
f 233 235 237 
f 235 234 237 
f 234 235 238 
f 231 233 239 
f 236 232 240 
f 238 230 240 
f 234 238 241 
f 234 231 242 
f 231 239 242 
f 239 234 242 
f 233 237 243 
f 237 234 243 
f 239 233 243 
f 234 239 243 
f 231 234 244 
f 234 241 244 
f 236 230 245 
f 235 236 245 
f 230 238 245 
f 238 235 245 
f 232 231 246 
f 240 232 246 
f 238 240 246 
f 241 238 246 
f 231 244 246 
f 244 241 246 
f 230 236 247 
f 240 230 247 
o convex_10
v -0.012266 0.029367 0.003361
v -0.004085 0.040471 0.007159
v -0.002624 0.039886 0.007159
v -0.011974 0.029075 0.008620
v -0.016065 0.040471 0.003361
v -0.002039 0.029075 0.003361
v -0.016065 0.040471 0.008620
v -0.002039 0.029075 0.008620
v -0.008178 0.040471 0.003361
v -0.002039 0.039593 0.005114
v -0.007884 0.040471 0.008620
v -0.016065 0.039886 0.008620
v -0.002039 0.039593 0.007159
v -0.002039 0.030828 0.003361
v -0.011974 0.029075 0.003361
v -0.002039 0.030828 0.008620
v -0.016065 0.039886 0.003361
v -0.012266 0.029367 0.008620
v -0.004085 0.040471 0.004822
f 250 257 266 
f 248 252 253 
f 249 252 254 
f 251 253 255 
f 254 251 255 
f 252 249 256 
f 253 252 256 
f 255 253 257 
f 250 249 258 
f 249 254 258 
f 254 255 258 
f 251 254 259 
f 254 252 259 
f 257 250 260 
f 255 257 260 
f 250 258 260 
f 253 256 261 
f 257 253 261 
f 256 257 261 
f 251 248 262 
f 253 251 262 
f 248 253 262 
f 258 255 263 
f 255 260 263 
f 260 258 263 
f 252 248 264 
f 248 259 264 
f 259 252 264 
f 248 251 265 
f 259 248 265 
f 251 259 265 
f 249 250 266 
f 256 249 266 
f 257 256 266 
o convex_11
v -0.005546 0.052162 0.001024
v -0.007008 0.067058 0.010958
v -0.004377 0.065891 0.010958
v -0.021032 0.050700 0.008911
v -0.024831 0.067058 0.001024
v -0.002039 0.064724 0.001316
v -0.003795 0.050700 0.010664
v -0.024831 0.066767 0.010958
v -0.021032 0.050700 0.003361
v -0.024831 0.060925 0.001024
v -0.002039 0.050700 0.004823
v -0.002039 0.064724 0.010958
v -0.024831 0.060925 0.010958
v -0.007008 0.067058 0.001316
v -0.003208 0.050700 0.001608
v -0.002039 0.054790 0.010958
v -0.002039 0.062970 0.001024
v -0.005254 0.051869 0.010958
v -0.002039 0.054790 0.001024
v -0.024537 0.067058 0.010958
v -0.023370 0.056252 0.002485
v -0.002039 0.050700 0.008911
v -0.019571 0.050700 0.003070
v -0.021907 0.052453 0.008911
v -0.023952 0.060047 0.010958
v -0.011976 0.067058 0.001024
v -0.004085 0.051577 0.001024
v -0.021324 0.050993 0.003361
v -0.023952 0.060340 0.001024
v -0.023370 0.056252 0.008035
f 287 290 296 
f 269 268 274 
f 273 270 275 
f 271 267 276 
f 274 271 276 
f 273 275 277 
f 272 269 278 
f 269 274 278 
f 277 272 278 
f 274 276 279 
f 278 274 279 
f 268 269 280 
f 271 268 280 
f 269 272 280 
f 277 275 281 
f 277 278 282 
f 278 279 282 
f 267 271 283 
f 272 277 283 
f 280 272 283 
f 270 273 284 
f 273 282 284 
f 282 279 284 
f 277 281 285 
f 267 283 285 
f 283 277 285 
f 268 271 286 
f 274 268 286 
f 271 274 286 
f 279 276 287 
f 273 277 288 
f 282 273 288 
f 277 282 288 
f 281 275 289 
f 270 279 290 
f 279 270 291 
f 270 284 291 
f 284 279 291 
f 271 280 292 
f 283 271 292 
f 280 283 292 
f 267 285 293 
f 285 281 293 
f 289 267 293 
f 281 289 293 
f 275 270 294 
f 276 275 294 
f 287 276 294 
f 270 290 294 
f 290 287 294 
f 276 267 295 
f 275 276 295 
f 267 289 295 
f 289 275 295 
f 279 287 296 
f 290 279 296 
o convex_12
v 0.002636 0.039889 0.005700
v 0.000590 0.046903 0.012127
v 0.000007 0.046903 0.012127
v -0.002038 0.064721 0.001316
v 0.002636 0.065308 0.008034
v -0.002038 0.038133 0.004823
v -0.002038 0.064721 0.010958
v 0.002344 0.044565 -0.000146
v 0.002636 0.062678 0.001316
v 0.002636 0.043687 0.012127
v -0.002038 0.046026 -0.000146
v -0.002038 0.042810 0.011250
v 0.002636 0.062678 0.010958
v 0.001467 0.039889 0.009789
v 0.001174 0.041642 0.000731
v 0.002636 0.065308 0.004238
v 0.000590 0.038133 0.004823
v -0.002038 0.038133 0.007158
v 0.002636 0.061215 0.001023
v -0.002038 0.048946 0.011832
v 0.002636 0.040767 0.003361
v -0.002038 0.043102 0.000731
v 0.002344 0.041642 0.011542
v 0.002636 0.045148 0.000147
v 0.000590 0.038133 0.007158
v -0.000870 0.047193 -0.000146
v -0.002038 0.062968 0.001023
v -0.000870 0.045150 0.012127
v 0.001175 0.065308 0.008034
v 0.002636 0.041349 0.010958
f 310 321 326 
f 300 302 303 
f 299 298 303 
f 301 297 305 
f 298 299 306 
f 297 301 306 
f 302 300 307 
f 303 302 308 
f 303 298 309 
f 301 303 309 
f 298 306 309 
f 306 301 309 
f 307 304 311 
f 301 305 312 
f 305 300 312 
f 302 311 313 
f 308 302 314 
f 310 308 314 
f 302 313 314 
f 305 297 315 
f 300 305 315 
f 299 303 316 
f 303 308 316 
f 311 304 317 
f 297 313 317 
f 313 311 317 
f 315 297 317 
f 302 307 318 
f 311 302 318 
f 307 311 318 
f 308 310 319 
f 304 315 320 
f 317 304 320 
f 315 317 320 
f 313 297 321 
f 310 314 321 
f 314 313 321 
f 304 307 322 
f 315 304 322 
f 315 322 323 
f 307 300 323 
f 300 315 323 
f 322 307 323 
f 306 299 324 
f 299 316 324 
f 316 308 324 
f 319 306 324 
f 308 319 324 
f 300 303 325 
f 303 301 325 
f 312 300 325 
f 301 312 325 
f 297 306 326 
f 306 319 326 
f 319 310 326 
f 321 297 326 
o convex_13
v 0.003221 0.039597 0.001608
v 0.003805 0.045444 0.012127
v 0.002929 0.045444 0.012127
v 0.007019 0.070860 0.001608
v 0.007311 0.038133 0.008911
v 0.007311 0.070562 0.010373
v 0.002637 0.065600 0.004238
v 0.007311 0.038431 0.003069
v 0.002637 0.062384 0.010958
v 0.002637 0.046027 0.000439
v 0.002637 0.038133 0.007158
v 0.005558 0.043688 -0.000146
v 0.007019 0.042810 0.012127
v 0.002637 0.060923 0.001023
v 0.007311 0.059171 0.001024
v 0.002637 0.042519 0.011832
v 0.002637 0.065600 0.008034
v 0.004974 0.039889 0.011250
v 0.002637 0.038133 0.004529
v 0.007311 0.070860 0.001608
v 0.007311 0.050992 0.001024
v 0.007311 0.043102 0.011834
v 0.004098 0.044274 -0.000146
v 0.003805 0.038133 0.009204
v 0.006435 0.068230 0.010663
v 0.004098 0.040766 0.000439
v 0.007019 0.070562 0.010373
v 0.002637 0.062384 0.001316
v 0.002637 0.038719 0.002777
v 0.007311 0.038133 0.003361
v 0.003221 0.040766 0.000731
f 355 336 357 
f 332 331 334 
f 335 333 336 
f 335 336 337 
f 328 329 339 
f 336 333 340 
f 332 334 341 
f 329 335 342 
f 335 337 342 
f 339 329 342 
f 330 333 343 
f 333 335 343 
f 331 339 344 
f 339 342 344 
f 331 337 345 
f 337 336 345 
f 330 332 346 
f 332 341 346 
f 341 338 346 
f 334 338 347 
f 341 334 347 
f 338 341 347 
f 331 332 348 
f 332 339 348 
f 339 331 348 
f 340 330 349 
f 336 340 349 
f 330 346 349 
f 346 338 349 
f 337 331 350 
f 342 337 350 
f 331 344 350 
f 344 342 350 
f 329 328 351 
f 335 329 351 
f 328 339 351 
f 339 332 351 
f 338 334 352 
f 349 338 352 
f 332 330 353 
f 330 343 353 
f 343 335 353 
f 335 351 353 
f 351 332 353 
f 333 330 354 
f 330 340 354 
f 340 333 354 
f 345 336 355 
f 345 355 356 
f 334 331 356 
f 331 345 356 
f 327 352 356 
f 352 334 356 
f 355 327 356 
f 336 349 357 
f 352 327 357 
f 349 352 357 
f 327 355 357 
o convex_14
v 0.023967 0.053328 0.004237
v 0.019584 0.047776 0.001023
v 0.019877 0.047776 0.001023
v 0.019584 0.048361 0.005990
v 0.019584 0.055081 0.001315
v 0.024844 0.052450 0.001315
v 0.019584 0.055081 0.004529
v 0.024844 0.052450 0.004237
v 0.019877 0.051865 0.005990
v 0.019877 0.047776 0.004237
v 0.024258 0.051865 0.001023
v 0.019584 0.054204 0.001023
v 0.023382 0.053619 0.001315
v 0.020753 0.054788 0.004529
f 358 370 371 
f 359 361 362 
f 362 361 364 
f 363 358 365 
f 364 361 366 
f 361 365 366 
f 365 358 366 
f 359 360 367 
f 361 359 367 
f 365 361 367 
f 365 367 368 
f 360 359 368 
f 363 365 368 
f 367 360 368 
f 359 362 369 
f 368 359 369 
f 369 362 370 
f 358 363 370 
f 363 368 370 
f 368 369 370 
f 362 364 371 
f 366 358 371 
f 364 366 371 
f 370 362 371 
o convex_15
v 0.023967 0.052743 0.010958
v 0.019584 0.047776 0.007744
v 0.019584 0.047776 0.010958
v 0.019584 0.055081 0.007744
v 0.024844 0.052450 0.007744
v 0.019584 0.055081 0.010665
v 0.019877 0.048361 0.005991
v 0.019584 0.051865 0.005991
v 0.024844 0.052743 0.010665
v 0.023382 0.053619 0.007744
v 0.022506 0.050114 0.010958
v 0.019877 0.047776 0.007744
v 0.019584 0.054496 0.010958
f 377 374 384 
f 373 374 375 
f 375 374 377 
f 376 378 379 
f 373 375 379 
f 378 373 379 
f 377 372 380 
f 377 380 381 
f 375 377 381 
f 376 379 381 
f 379 375 381 
f 380 376 381 
f 372 374 382 
f 380 372 382 
f 376 380 382 
f 374 373 383 
f 373 378 383 
f 378 376 383 
f 382 374 383 
f 376 382 383 
f 374 372 384 
f 372 377 384 
o convex_16
v -0.019863 0.047484 0.004822
v -0.006422 0.050698 0.010081
v -0.006422 0.050698 0.001900
v -0.006422 0.040471 0.004238
v -0.016356 0.040471 0.008619
v -0.021033 0.050698 0.008911
v -0.016356 0.040471 0.003362
v -0.021033 0.050698 0.003362
v -0.007884 0.040471 0.008619
v -0.008176 0.040471 0.003362
v -0.006422 0.040471 0.007743
v -0.008176 0.050405 0.010081
v -0.007299 0.050405 0.001900
v -0.006422 0.049821 0.010081
v -0.018986 0.050405 0.003069
v -0.019571 0.046899 0.008619
v -0.020448 0.049236 0.008911
v -0.006422 0.050113 0.001900
f 391 397 402 
f 387 386 388 
f 386 387 390 
f 388 389 391 
f 385 390 392 
f 390 387 392 
f 391 385 392 
f 389 388 393 
f 388 391 394 
f 388 386 395 
f 393 388 395 
f 386 390 396 
f 392 387 397 
f 389 393 398 
f 395 386 398 
f 393 395 398 
f 386 396 398 
f 396 389 398 
f 391 392 399 
f 392 397 399 
f 397 391 399 
f 390 385 400 
f 385 391 400 
f 391 389 400 
f 396 390 401 
f 389 396 401 
f 400 389 401 
f 390 400 401 
f 387 388 402 
f 388 394 402 
f 394 391 402 
f 397 387 402 
o convex_17
v -0.002039 0.048944 0.011833
v -0.006422 0.040471 0.004239
v -0.006422 0.043393 0.002778
v -0.002039 0.043102 0.000731
v -0.006422 0.050698 0.001902
v -0.006422 0.050698 0.010080
v -0.002039 0.041055 0.009496
v -0.002039 0.050698 0.003947
v -0.004961 0.044270 0.011249
v -0.006422 0.040471 0.007743
v -0.003793 0.048651 0.000440
v -0.002332 0.040471 0.005115
v -0.005837 0.045147 0.001024
v -0.002039 0.050698 0.009788
v -0.002039 0.046607 0.000146
v -0.003208 0.050698 0.001316
v -0.003793 0.046607 0.012127
v -0.002039 0.042518 0.010665
v -0.002332 0.041348 0.002486
v -0.004961 0.048358 0.000440
v -0.002917 0.043979 0.000440
v -0.002039 0.047190 0.012127
v -0.002332 0.049821 0.011541
f 408 419 425 
f 405 404 407 
f 407 404 408 
f 406 403 409 
f 403 406 410 
f 407 408 410 
f 409 411 412 
f 408 404 412 
f 411 408 412 
f 406 409 414 
f 409 412 414 
f 412 404 414 
f 404 405 415 
f 405 407 415 
f 403 410 416 
f 410 408 416 
f 410 406 417 
f 407 410 418 
f 410 417 418 
f 417 413 418 
f 408 411 419 
f 419 411 420 
f 409 403 420 
f 411 409 420 
f 404 406 421 
f 414 404 421 
f 406 414 421 
f 415 407 422 
f 413 417 422 
f 407 418 422 
f 418 413 422 
f 406 404 423 
f 404 415 423 
f 417 406 423 
f 415 422 423 
f 422 417 423 
f 403 419 424 
f 419 420 424 
f 420 403 424 
f 403 416 425 
f 416 408 425 
f 419 403 425 
o convex_18
v -0.024538 0.067062 0.004237
v -0.009931 0.072614 0.004529
v -0.009639 0.072321 0.004529
v -0.012853 0.067354 0.001023
v -0.023661 0.072614 0.001315
v -0.023661 0.072614 0.005990
v -0.007007 0.067062 0.004529
v -0.009931 0.072614 0.001315
v -0.024538 0.067062 0.001023
v -0.007007 0.067062 0.001315
v -0.010223 0.072614 0.005990
v -0.024244 0.069983 0.005990
v -0.023952 0.071444 0.001023
v -0.024538 0.069983 0.004237
v -0.024244 0.067062 0.004529
v -0.010223 0.072321 0.005990
f 436 437 441 
f 427 430 431 
f 427 428 433 
f 430 427 433 
f 432 426 434 
f 432 434 435 
f 428 432 435 
f 433 428 435 
f 429 433 435 
f 434 429 435 
f 428 427 436 
f 427 431 436 
f 432 428 436 
f 436 431 437 
f 433 429 438 
f 430 433 438 
f 429 434 438 
f 431 430 439 
f 434 426 439 
f 437 431 439 
f 426 437 439 
f 438 434 439 
f 430 438 439 
f 426 432 440 
f 432 437 440 
f 437 426 440 
f 432 436 441 
f 437 432 441 
o convex_19
v -0.024244 0.069983 0.005991
v -0.009931 0.072614 0.010665
v -0.007885 0.068231 0.010958
v -0.024538 0.067062 0.010958
v -0.007007 0.067062 0.007744
v -0.023661 0.072614 0.010958
v -0.010223 0.072614 0.005991
v -0.023661 0.072614 0.005991
v -0.024538 0.067062 0.007744
v -0.007007 0.067062 0.010958
v -0.024538 0.069983 0.008036
v -0.009639 0.072321 0.007744
v -0.016647 0.072614 0.010958
v -0.010223 0.072321 0.005991
f 448 446 455 
f 445 444 447 
f 447 443 448 
f 447 448 449 
f 448 442 449 
f 442 446 450 
f 446 445 450 
f 443 444 451 
f 444 445 451 
f 445 446 451 
f 445 447 452 
f 447 449 452 
f 449 442 452 
f 442 450 452 
f 450 445 452 
f 446 448 453 
f 448 443 453 
f 443 451 453 
f 451 446 453 
f 444 443 454 
f 443 447 454 
f 447 444 454 
f 446 442 455 
f 442 448 455 
