o convex_0
v -0.008126 -0.038016 0.002394
v -0.012070 -0.052949 0.002676
v -0.012070 -0.052949 0.008592
v -0.007281 0.034366 0.002958
v -0.000803 -0.052958 0.007464
v -0.003621 0.034366 0.008309
v -0.000803 0.034366 0.004085
v -0.000803 -0.052958 0.003804
v -0.007281 0.034366 0.008309
v -0.000803 0.034366 0.007182
v -0.003621 0.034366 0.002958
v -0.007562 -0.051829 0.008592
v -0.007562 -0.050693 0.002394
v -0.005874 -0.012946 0.008592
v -0.012070 -0.050693 0.002958
v -0.011788 -0.052949 0.002394
v -0.012070 -0.050693 0.008309
v -0.000803 0.013518 0.003804
v -0.007562 0.010133 0.002676
v -0.008690 -0.008458 0.008592
v -0.000803 -0.006201 0.007464
v -0.005310 -0.002825 0.002676
v -0.007562 0.029853 0.006619
v -0.005310 0.009014 0.002676
v -0.007845 -0.052958 0.002394
v -0.011224 -0.044495 0.002394
v -0.006718 -0.006484 0.008592
v -0.007845 -0.052958 0.008592
f 25 5 28 
f 4 6 7 
f 7 5 8 
f 6 4 9 
f 7 6 10 
f 5 7 10 
f 4 7 11 
f 5 6 14 
f 3 12 14 
f 12 5 14 
f 2 3 15 
f 4 2 15 
f 2 4 16 
f 1 13 16 
f 3 9 17 
f 15 3 17 
f 7 8 18 
f 11 7 18 
f 8 11 18 
f 4 11 19 
f 9 3 20 
f 3 14 20 
f 6 5 21 
f 5 10 21 
f 10 6 21 
f 11 8 22 
f 8 13 22 
f 9 4 23 
f 4 15 23 
f 17 9 23 
f 15 17 23 
f 13 1 24 
f 1 19 24 
f 19 11 24 
f 11 22 24 
f 22 13 24 
f 3 2 25 
f 8 5 25 
f 13 8 25 
f 2 16 25 
f 16 13 25 
f 16 4 26 
f 1 16 26 
f 19 1 26 
f 4 19 26 
f 6 9 27 
f 14 6 27 
f 9 20 27 
f 20 14 27 
f 12 3 28 
f 5 12 28 
f 3 25 28 
o convex_1
v 0.006802 -0.004500 0.008592
v -0.000803 -0.040282 0.003803
v 0.003141 -0.040282 0.002676
v -0.000803 0.034366 0.004085
v 0.008492 0.034366 0.002959
v -0.000803 0.034366 0.007183
v 0.007083 -0.040282 0.008592
v 0.008492 0.034366 0.008310
v -0.000803 -0.040282 0.007465
v 0.007366 -0.040282 0.002676
v 0.003705 -0.011828 0.008592
v 0.004267 0.034366 0.002958
v 0.007648 -0.034926 0.006901
v 0.004267 0.034366 0.008310
v 0.008775 0.034081 0.003240
v 0.003986 0.001967 0.002676
v 0.003141 -0.040282 0.008592
v -0.000803 0.013234 0.003803
v 0.008775 0.033796 0.007746
v 0.007366 -0.039434 0.008592
v -0.000803 -0.006187 0.007465
v 0.007083 0.005628 0.002676
v 0.007648 -0.034926 0.004085
v 0.007648 -0.031265 0.008028
v 0.007648 -0.032113 0.003239
v 0.008775 0.033234 0.004649
v 0.005394 0.007323 0.002676
f 50 44 55 
f 32 30 34 
f 33 32 34 
f 30 31 35 
f 33 34 36 
f 34 30 37 
f 30 35 37 
f 35 31 38 
f 35 29 39 
f 32 33 40 
f 29 36 42 
f 36 34 42 
f 39 29 42 
f 34 39 42 
f 33 36 43 
f 38 33 43 
f 38 31 44 
f 37 35 45 
f 35 39 45 
f 31 30 46 
f 30 32 46 
f 32 40 46 
f 44 31 46 
f 40 44 46 
f 43 36 47 
f 29 35 48 
f 36 29 48 
f 35 38 48 
f 38 41 48 
f 47 36 48 
f 34 37 49 
f 39 34 49 
f 37 45 49 
f 45 39 49 
f 33 38 50 
f 38 44 50 
f 41 38 51 
f 41 47 52 
f 48 41 52 
f 47 48 52 
f 38 43 53 
f 51 38 53 
f 43 51 53 
f 47 41 54 
f 43 47 54 
f 41 51 54 
f 51 43 54 
f 40 33 55 
f 44 40 55 
f 33 50 55 
o convex_2
v -0.008691 0.072669 0.002958
v -0.021084 0.057188 0.004368
v -0.021084 0.057188 0.006900
v -0.008127 0.041127 0.002959
v -0.008127 0.068448 0.011126
v -0.016014 0.078871 0.000986
v -0.014886 0.080559 0.009999
v -0.012071 0.048734 0.010844
v -0.014606 0.054651 -0.000141
v -0.008127 0.069294 0.000142
v -0.019112 0.070700 0.010281
v -0.008127 0.041413 0.008872
v -0.019394 0.057188 0.000142
v -0.019112 0.057188 0.011126
v -0.012635 0.081690 0.001832
v -0.019112 0.072673 0.001550
v -0.012353 0.080840 0.010281
v -0.008127 0.049016 0.000423
v -0.017704 0.077180 0.008873
v -0.008127 0.054651 0.011126
v -0.015732 0.060849 0.011408
v -0.008127 0.071263 0.010563
v -0.016014 0.061690 -0.000141
v -0.011507 0.048171 0.000423
v -0.016014 0.079999 0.002395
v -0.008410 0.041127 0.008310
v -0.008127 0.059999 -0.000141
v -0.019112 0.072955 0.009154
v -0.012071 0.080559 0.000986
v -0.008410 0.041413 0.002395
v -0.017423 0.073519 0.010563
v -0.018548 0.072109 0.000705
v -0.017986 0.076334 0.001550
v -0.008127 0.049580 0.010844
v -0.008127 0.071263 0.000423
v -0.009536 0.063660 0.011408
v -0.012635 0.050708 0.011126
v -0.013198 0.081690 0.009435
v -0.020802 0.056620 0.004648
v -0.019112 0.056620 0.010844
v -0.014886 0.076616 0.000705
v -0.008410 0.041127 0.002959
v -0.019675 0.057748 0.010563
v -0.017704 0.076616 0.009999
v -0.016014 0.079999 0.008873
v -0.012071 0.080559 0.009999
v -0.014886 0.080840 0.001550
v -0.019112 0.056620 0.000142
v -0.010099 0.049866 0.000142
v -0.008973 0.064783 -0.000141
v -0.019112 0.070982 0.000986
v -0.014324 0.080277 0.010281
v -0.008410 0.041695 0.002115
v -0.020520 0.056342 0.006900
v -0.008410 0.041413 0.008872
v -0.017140 0.078307 0.002395
v -0.017423 0.058597 -0.000141
v -0.018831 0.074079 0.002113
v -0.021084 0.057470 0.004368
v -0.018548 0.071263 0.010563
v -0.010099 0.048456 0.010844
v -0.013479 0.080840 0.000986
f 102 70 117 
f 60 59 65 
f 59 60 67 
f 65 59 73 
f 67 60 75 
f 60 65 77 
f 72 60 77 
f 59 67 81 
f 65 73 82 
f 64 78 82 
f 58 66 83 
f 61 87 88 
f 87 71 88 
f 67 75 89 
f 56 77 90 
f 77 65 90 
f 84 56 90 
f 65 84 90 
f 60 72 91 
f 75 60 91 
f 91 76 92 
f 69 63 92 
f 76 69 92 
f 89 75 92 
f 75 91 92 
f 62 72 93 
f 72 70 93 
f 58 57 94 
f 63 69 95 
f 87 61 96 
f 78 87 96 
f 59 81 97 
f 85 59 97 
f 81 94 97 
f 66 58 98 
f 69 66 98 
f 95 69 98 
f 58 95 98 
f 83 66 99 
f 74 83 99 
f 62 93 100 
f 99 62 100 
f 74 99 100 
f 70 72 101 
f 77 56 101 
f 72 77 101 
f 56 84 101 
f 84 70 101 
f 61 80 102 
f 93 70 102 
f 80 100 102 
f 100 93 102 
f 57 68 103 
f 64 79 103 
f 94 57 103 
f 85 97 103 
f 97 94 103 
f 79 64 104 
f 73 79 104 
f 64 82 104 
f 82 73 104 
f 65 82 105 
f 82 78 105 
f 96 65 105 
f 78 96 105 
f 71 87 106 
f 87 68 106 
f 72 62 107 
f 86 76 107 
f 91 72 107 
f 76 91 107 
f 62 99 107 
f 99 86 107 
f 73 59 108 
f 79 73 108 
f 59 85 108 
f 103 79 108 
f 85 103 108 
f 58 94 109 
f 94 81 109 
f 95 58 109 
f 95 109 110 
f 81 67 110 
f 63 95 110 
f 109 81 110 
f 80 61 111 
f 61 88 111 
f 88 74 111 
f 74 100 111 
f 100 80 111 
f 78 64 112 
f 68 87 112 
f 87 78 112 
f 103 68 112 
f 64 103 112 
f 71 83 113 
f 83 74 113 
f 74 88 113 
f 88 71 113 
f 57 58 114 
f 68 57 114 
f 58 83 114 
f 83 71 114 
f 106 68 114 
f 71 106 114 
f 66 69 115 
f 69 76 115 
f 76 86 115 
f 99 66 115 
f 86 99 115 
f 67 89 116 
f 92 63 116 
f 89 92 116 
f 63 110 116 
f 110 67 116 
f 84 65 117 
f 70 84 117 
f 65 96 117 
f 96 61 117 
f 61 102 117 
o convex_3
v 0.020041 0.076621 0.002395
v 0.004270 0.090141 0.009718
v 0.004270 0.090141 0.001550
v 0.008493 0.074648 0.010845
v 0.008493 0.074648 0.000141
v 0.016942 0.081691 0.011127
v 0.013563 0.085632 0.000141
v 0.020041 0.074648 0.011127
v 0.002577 0.088732 0.010845
v 0.020041 0.074648 0.000141
v 0.002860 0.088450 0.000141
v 0.011311 0.087322 0.011127
v 0.008775 0.088732 0.000423
v 0.018070 0.080564 0.000987
v 0.008775 0.074648 0.011127
v 0.014126 0.085352 0.010000
v 0.018633 0.079721 0.009155
v 0.002577 0.088450 0.000705
v 0.002577 0.090141 0.000987
v 0.005959 0.089575 0.011127
v 0.011311 0.087605 0.008026
v 0.020606 0.074930 0.007463
v 0.009057 0.088732 0.010000
v 0.002577 0.090141 0.010000
v 0.013845 0.085634 0.000987
v 0.016662 0.082534 0.008872
v 0.006241 0.089575 0.000141
v 0.002577 0.088450 0.010562
v 0.002860 0.089013 0.011127
v 0.011592 0.087322 0.000423
v 0.019760 0.076621 0.010845
v 0.018915 0.078312 0.000141
v 0.016662 0.082534 0.002113
v 0.009057 0.088732 0.001269
v 0.006522 0.089575 0.010562
v 0.019478 0.078030 0.008872
v 0.018350 0.080282 0.002395
v 0.020606 0.074648 0.003523
f 139 125 155 
f 121 122 125 
f 122 124 127 
f 125 122 127 
f 124 122 128 
f 125 123 129 
f 121 125 132 
f 126 121 132 
f 125 129 132 
f 129 123 133 
f 122 121 135 
f 128 122 135 
f 128 135 136 
f 119 120 136 
f 135 126 136 
f 132 129 137 
f 129 133 138 
f 129 138 140 
f 119 136 141 
f 136 126 141 
f 137 119 141 
f 131 124 142 
f 138 133 142 
f 133 123 143 
f 123 134 143 
f 124 128 144 
f 128 136 144 
f 136 120 144 
f 121 126 145 
f 135 121 145 
f 126 135 145 
f 126 132 146 
f 132 137 146 
f 141 126 146 
f 137 141 146 
f 142 124 147 
f 138 142 147 
f 124 144 147 
f 144 130 147 
f 123 125 148 
f 134 123 148 
f 125 139 148 
f 118 127 149 
f 127 124 149 
f 131 118 149 
f 124 131 149 
f 131 142 150 
f 142 133 150 
f 133 143 150 
f 140 138 151 
f 130 144 151 
f 147 130 151 
f 138 147 151 
f 120 119 152 
f 119 137 152 
f 137 129 152 
f 129 140 152 
f 144 120 152 
f 140 151 152 
f 151 144 152 
f 139 118 153 
f 134 148 153 
f 148 139 153 
f 118 131 154 
f 143 134 154 
f 131 150 154 
f 150 143 154 
f 153 118 154 
f 134 153 154 
f 127 118 155 
f 125 127 155 
f 118 139 155 
o convex_4
v 0.005394 -0.085352 0.008590
v -0.000803 -0.089859 0.002394
v -0.000521 -0.089859 0.002394
v 0.003141 -0.079718 0.002394
v -0.000803 -0.086195 0.008873
v 0.005957 -0.083944 0.002394
v 0.006520 -0.079718 0.008873
v 0.000043 -0.089576 0.008873
v 0.003141 -0.079718 0.008873
v 0.003141 -0.088169 0.002958
v 0.006803 -0.079718 0.002677
v -0.000803 -0.086195 0.002394
v 0.006520 -0.082818 0.007465
v 0.003141 -0.087887 0.008873
v -0.000803 -0.089859 0.008590
v 0.004831 -0.086477 0.002958
v 0.001169 -0.089294 0.008028
v 0.003422 -0.087887 0.008590
v 0.006239 -0.083662 0.002958
v 0.006803 -0.080283 0.008590
v 0.006803 -0.081409 0.003803
v 0.005394 -0.085633 0.008028
v 0.002859 -0.088169 0.002394
f 171 165 178 
f 158 157 159 
f 158 159 161 
f 162 160 163 
f 159 160 164 
f 162 159 164 
f 160 162 164 
f 161 159 166 
f 159 162 166 
f 159 157 167 
f 160 159 167 
f 157 160 167 
f 156 162 169 
f 162 163 169 
f 157 158 170 
f 160 157 170 
f 163 160 170 
f 158 165 172 
f 170 158 172 
f 163 170 172 
f 156 169 173 
f 169 163 173 
f 165 171 173 
f 172 165 173 
f 163 172 173 
f 161 166 174 
f 171 161 174 
f 162 156 175 
f 166 162 175 
f 156 168 175 
f 175 168 176 
f 174 166 176 
f 168 174 176 
f 166 175 176 
f 168 156 177 
f 156 173 177 
f 173 171 177 
f 174 168 177 
f 171 174 177 
f 158 161 178 
f 165 158 178 
f 161 171 178 
o convex_5
v 0.005394 -0.052959 0.008873
v -0.000803 -0.074924 0.003803
v 0.003141 -0.079718 0.002394
v 0.005113 -0.040845 0.002394
v -0.000803 -0.040282 0.007465
v 0.006520 -0.079718 0.008873
v -0.000803 -0.074642 0.008873
v 0.007366 -0.040282 0.002677
v 0.007366 -0.040282 0.008309
v 0.006802 -0.079718 0.002677
v -0.000803 -0.040282 0.003803
v -0.000803 -0.070419 0.002394
v 0.003141 -0.040282 0.008590
v 0.007084 -0.076055 0.006901
v 0.003141 -0.079718 0.008873
v 0.006802 -0.076900 0.002394
v 0.003422 -0.043385 0.002394
v 0.007366 -0.054372 0.003803
v -0.000803 -0.070419 0.008873
v 0.007084 -0.040282 0.008590
v 0.007366 -0.051832 0.008028
v -0.000803 -0.074642 0.002394
v 0.006802 -0.079718 0.008590
v 0.007084 -0.073237 0.003240
v 0.006802 -0.047331 0.002394
v 0.006520 -0.057190 0.008873
v 0.007084 -0.065065 0.008590
v 0.003141 -0.040282 0.002677
v 0.003703 -0.054372 0.008873
f 191 197 207 
f 184 179 185 
f 183 180 185 
f 186 183 187 
f 184 181 188 
f 180 183 189 
f 183 186 189 
f 182 181 190 
f 180 189 190 
f 187 183 191 
f 180 181 193 
f 181 184 193 
f 184 185 193 
f 185 180 193 
f 181 182 194 
f 188 181 194 
f 182 190 195 
f 190 189 195 
f 186 187 196 
f 185 179 197 
f 183 185 197 
f 191 183 197 
f 191 179 198 
f 187 191 198 
f 196 187 199 
f 192 196 199 
f 181 180 200 
f 190 181 200 
f 180 190 200 
f 184 188 201 
f 188 192 201 
f 192 188 202 
f 194 186 202 
f 188 194 202 
f 186 196 202 
f 196 192 202 
f 182 186 203 
f 194 182 203 
f 186 194 203 
f 179 184 204 
f 198 179 204 
f 184 198 204 
f 198 184 205 
f 187 198 205 
f 199 187 205 
f 192 199 205 
f 184 201 205 
f 201 192 205 
f 186 182 206 
f 189 186 206 
f 182 195 206 
f 195 189 206 
f 179 191 207 
f 197 179 207 
o convex_6
v -0.007281 0.049581 0.000423
v -0.007281 0.068728 0.011127
v -0.007845 0.070423 0.010844
v -0.007281 0.034366 0.008310
v -0.004465 0.064786 0.000142
v -0.004465 0.034366 0.008310
v -0.004465 0.064786 0.011127
v -0.008127 0.070423 0.000423
v -0.004465 0.034934 0.002678
v -0.008127 0.040564 0.002395
v -0.008127 0.049864 0.010844
v -0.007281 0.034366 0.002958
v -0.004465 0.056616 0.011127
v -0.004465 0.065912 0.004087
v -0.008127 0.060279 -0.000141
v -0.004465 0.055490 0.000142
v -0.008127 0.068728 0.011127
v -0.008127 0.040006 0.008310
v -0.008127 0.049299 0.000423
v -0.007845 0.070423 0.000423
v -0.004465 0.063378 -0.000141
v -0.008127 0.054646 0.011127
v -0.005310 0.034366 0.002678
v -0.006437 0.050707 0.010844
v -0.004465 0.065912 0.007182
v -0.008127 0.069290 0.000142
v -0.005592 0.050986 0.000423
f 223 216 234 
f 210 209 214 
f 213 212 214 
f 212 213 216 
f 211 213 218 
f 215 217 218 
f 213 211 219 
f 214 209 220 
f 213 214 220 
f 214 212 221 
f 217 215 222 
f 212 216 223 
f 209 210 224 
f 210 215 224 
f 215 218 224 
f 220 209 224 
f 211 218 225 
f 218 217 225 
f 219 211 225 
f 217 219 225 
f 219 217 226 
f 217 222 226 
f 223 208 226 
f 222 223 226 
f 215 210 227 
f 210 221 227 
f 221 212 227 
f 212 223 228 
f 223 222 228 
f 227 212 228 
f 224 218 229 
f 220 224 229 
f 208 216 230 
f 216 213 230 
f 213 219 230 
f 226 208 230 
f 219 226 230 
f 218 213 231 
f 213 220 231 
f 229 218 231 
f 220 229 231 
f 210 214 232 
f 221 210 232 
f 214 221 232 
f 222 215 233 
f 215 227 233 
f 228 222 233 
f 227 228 233 
f 216 208 234 
f 208 223 234 
o convex_7
v 0.001451 0.046758 0.007745
v 0.001169 0.034366 0.004085
v 0.004268 0.034366 0.002958
v 0.008493 0.034366 0.008309
v 0.012154 0.047324 0.002114
v 0.012154 0.047324 0.009155
v 0.001169 0.046478 0.003240
v 0.001169 0.038592 0.008590
v 0.008774 0.034366 0.003240
v 0.001169 0.040565 0.002395
v 0.001169 0.034366 0.007182
v 0.007365 0.047324 0.002114
v 0.012437 0.046478 0.006055
v 0.007929 0.047324 0.009155
v 0.007929 0.035494 0.002677
v 0.001169 0.043098 0.008590
v 0.003141 0.047324 0.003240
v 0.008774 0.034366 0.008027
v 0.004268 0.034366 0.008309
v 0.008211 0.036620 0.008590
v 0.012437 0.047041 0.002395
v 0.010746 0.044787 0.002114
v 0.012437 0.046758 0.008309
v 0.003141 0.047324 0.007745
v 0.001169 0.046478 0.008027
v 0.001169 0.037749 0.002677
v 0.010182 0.045350 0.009155
v 0.001169 0.042252 0.002395
f 246 244 262 
f 236 237 238 
f 241 236 242 
f 238 237 243 
f 236 241 244 
f 236 238 245 
f 242 236 245 
f 240 239 246 
f 240 246 248 
f 243 237 249 
f 239 243 249 
f 241 242 250 
f 242 248 250 
f 241 235 251 
f 246 241 251 
f 248 246 251 
f 240 238 252 
f 238 243 252 
f 243 247 252 
f 245 238 253 
f 242 245 253 
f 238 240 254 
f 253 238 254 
f 242 253 254 
f 239 240 255 
f 243 239 255 
f 247 243 255 
f 246 239 256 
f 244 246 256 
f 239 249 256 
f 249 244 256 
f 240 252 257 
f 252 247 257 
f 255 240 257 
f 247 255 257 
f 251 235 258 
f 248 251 258 
f 235 241 259 
f 241 250 259 
f 250 248 259 
f 258 235 259 
f 248 258 259 
f 237 236 260 
f 236 244 260 
f 249 237 260 
f 244 249 260 
f 248 242 261 
f 240 248 261 
f 254 240 261 
f 242 254 261 
f 244 241 262 
f 241 246 262 
o convex_8
v 0.021169 0.070703 0.003523
v 0.001169 0.047607 0.004086
v 0.003986 0.047324 0.003241
v 0.019196 0.061968 0.010845
v 0.001169 0.067886 0.011127
v 0.001169 0.067886 0.000141
v 0.013000 0.048736 0.001832
v 0.012154 0.047888 0.009435
v 0.020041 0.074648 0.011127
v 0.008495 0.074648 0.000141
v 0.020041 0.074648 0.000141
v 0.001169 0.050988 0.010000
v 0.008775 0.074648 0.011127
v 0.019759 0.063096 0.000423
v 0.001169 0.058314 0.000141
v 0.018914 0.059159 0.007463
v 0.001733 0.059156 0.011127
v 0.020887 0.066196 0.009718
v 0.001169 0.050424 0.001269
v 0.012718 0.047324 0.003241
v 0.003986 0.047324 0.008026
v 0.015535 0.060566 0.000141
v 0.016099 0.061128 0.011127
v 0.012718 0.047324 0.008026
v 0.020887 0.066196 0.001550
v 0.011872 0.047610 0.001832
v 0.018914 0.059159 0.003805
v 0.020887 0.073238 0.008590
v 0.001169 0.068165 0.009435
v 0.006241 0.056624 0.010845
v 0.020605 0.068167 0.011127
v 0.020605 0.067886 0.000141
v 0.020605 0.064225 0.002678
v 0.007931 0.047324 0.009155
v 0.006521 0.056340 0.000423
v 0.020605 0.074648 0.002113
v 0.008495 0.074648 0.010845
v 0.001169 0.047607 0.006337
v 0.007367 0.047324 0.002113
v 0.021169 0.068451 0.008590
v 0.001169 0.068165 0.001832
v 0.020887 0.071548 0.000705
v 0.020605 0.064225 0.008590
v 0.018350 0.062251 0.000141
v 0.012718 0.047888 0.009155
v 0.001169 0.050143 0.009718
v 0.020887 0.071267 0.010562
v 0.020041 0.063380 0.010562
v 0.001169 0.049298 0.001832
v 0.021169 0.067886 0.003523
v 0.017506 0.056340 0.006901
v 0.012718 0.047610 0.002395
v 0.020605 0.074648 0.009155
v 0.001169 0.059156 0.011127
f 292 279 316 
f 264 267 268 
f 272 271 273 
f 268 272 273 
f 267 264 274 
f 267 271 275 
f 271 272 275 
f 264 268 277 
f 268 273 277 
f 271 267 279 
f 264 277 281 
f 264 265 283 
f 265 282 283 
f 277 273 284 
f 270 266 285 
f 271 279 285 
f 283 282 286 
f 268 267 291 
f 274 270 292 
f 270 285 292 
f 285 279 292 
f 285 266 293 
f 271 285 293 
f 284 273 294 
f 287 276 294 
f 276 287 295 
f 289 276 295 
f 278 289 295 
f 270 274 296 
f 286 270 296 
f 283 286 296 
f 281 277 297 
f 277 284 297 
f 288 281 297 
f 284 288 297 
f 273 271 298 
f 290 263 298 
f 267 275 299 
f 275 272 299 
f 291 267 299 
f 272 291 299 
f 274 264 300 
f 264 283 300 
f 282 265 301 
f 281 288 301 
f 288 282 301 
f 263 290 302 
f 272 268 303 
f 268 291 303 
f 291 272 303 
f 294 273 304 
f 287 294 304 
f 273 298 304 
f 298 263 304 
f 278 295 305 
f 276 269 306 
f 269 288 306 
f 288 284 306 
f 294 276 306 
f 284 294 306 
f 266 270 307 
f 270 286 307 
f 286 278 307 
f 296 274 308 
f 283 296 308 
f 274 300 308 
f 300 283 308 
f 293 280 309 
f 271 293 309 
f 280 302 309 
f 302 290 309 
f 293 266 310 
f 280 293 310 
f 278 305 310 
f 305 280 310 
f 266 307 310 
f 307 278 310 
f 265 264 311 
f 264 281 311 
f 301 265 311 
f 281 301 311 
f 295 287 312 
f 263 302 312 
f 302 280 312 
f 304 263 312 
f 287 304 312 
f 280 305 312 
f 305 295 312 
f 278 286 313 
f 286 282 313 
f 282 289 313 
f 289 278 313 
f 269 276 314 
f 288 269 314 
f 282 288 314 
f 276 289 314 
f 289 282 314 
f 298 271 315 
f 290 298 315 
f 271 309 315 
f 309 290 315 
f 267 274 316 
f 279 267 316 
f 274 292 316 
o convex_9
v -0.001366 -0.090141 0.004367
v -0.011507 -0.086198 0.002394
v -0.011225 -0.086761 0.002677
v -0.005874 -0.085915 0.008873
v -0.000803 -0.086198 0.002394
v -0.006718 -0.089577 0.008873
v -0.000803 -0.086479 0.008873
v -0.005874 -0.089858 0.002394
v -0.011507 -0.085915 0.008590
v -0.000803 -0.089858 0.008873
v -0.000803 -0.089858 0.002394
v -0.005874 -0.085915 0.002394
v -0.008688 -0.088732 0.008590
v -0.005029 -0.090141 0.008590
v -0.008688 -0.088732 0.002677
v -0.010380 -0.087606 0.008309
v -0.011507 -0.085915 0.002394
v -0.000803 -0.086198 0.008590
v -0.005029 -0.090141 0.002677
v -0.011225 -0.086198 0.008873
v -0.006999 -0.089577 0.002677
f 335 330 337 
f 320 322 323 
f 318 321 324 
f 318 319 325 
f 323 322 326 
f 321 323 326 
f 324 321 327 
f 326 317 327 
f 321 326 327 
f 320 321 328 
f 321 318 328 
f 325 320 328 
f 317 326 330 
f 326 322 330 
f 319 318 331 
f 318 324 331 
f 331 329 332 
f 325 319 332 
f 319 331 332 
f 318 325 333 
f 328 318 333 
f 325 328 333 
f 321 320 334 
f 320 323 334 
f 323 321 334 
f 327 317 335 
f 324 327 335 
f 317 330 335 
f 322 320 336 
f 320 325 336 
f 329 322 336 
f 332 329 336 
f 325 332 336 
f 322 329 337 
f 330 322 337 
f 331 324 337 
f 329 331 337 
f 324 335 337 
o convex_10
v -0.011507 -0.085915 0.008873
v -0.013197 -0.081690 0.002394
v -0.013197 -0.080845 0.002394
v -0.006155 -0.085633 0.002394
v -0.009254 -0.080845 0.008873
v -0.006155 -0.085915 0.008590
v -0.011788 -0.085915 0.002677
v -0.013197 -0.080845 0.008590
v -0.009254 -0.080845 0.002394
v -0.012915 -0.083380 0.008590
v -0.006155 -0.085915 0.002394
v -0.012633 -0.083943 0.002394
v -0.006437 -0.085915 0.008873
v -0.012352 -0.085070 0.007746
v -0.012915 -0.080845 0.008873
v -0.006155 -0.085633 0.008590
f 350 343 353 
f 339 340 341 
f 343 338 344 
f 340 339 345 
f 342 340 345 
f 341 340 346 
f 342 341 346 
f 340 342 346 
f 345 339 347 
f 339 341 348 
f 341 343 348 
f 343 344 348 
f 348 344 349 
f 347 339 349 
f 339 348 349 
f 342 338 350 
f 338 343 350 
f 344 338 351 
f 338 347 351 
f 349 344 351 
f 347 349 351 
f 338 342 352 
f 342 345 352 
f 347 338 352 
f 345 347 352 
f 341 342 353 
f 343 341 353 
f 342 350 353 
o convex_11
v -0.013479 -0.079996 0.008028
v -0.009536 -0.056061 0.008873
v -0.007845 -0.052958 0.008590
v -0.011789 -0.052958 0.002394
v -0.007564 -0.076333 0.002394
v -0.007564 -0.076333 0.008873
v -0.013197 -0.080840 0.002394
v -0.007845 -0.052958 0.002394
v -0.012070 -0.052958 0.008590
v -0.009254 -0.080840 0.008873
v -0.013197 -0.070983 0.002958
v -0.012915 -0.080840 0.008873
v -0.009254 -0.080840 0.002394
v -0.007563 -0.052960 0.007746
v -0.012352 -0.056061 0.002677
v -0.013197 -0.070983 0.008309
v -0.007563 -0.052960 0.003522
v -0.013479 -0.077742 0.002958
v -0.012352 -0.055496 0.008028
v -0.012633 -0.067885 0.008873
v -0.013197 -0.073519 0.002394
v -0.012070 -0.052958 0.002677
v -0.008409 -0.057751 0.008873
f 355 359 376 
f 357 358 360 
f 357 356 361 
f 358 357 361 
f 355 356 362 
f 356 357 362 
f 358 359 363 
f 359 355 363 
f 354 360 365 
f 363 355 365 
f 360 363 365 
f 360 358 366 
f 358 363 366 
f 363 360 366 
f 356 359 367 
f 359 358 367 
f 361 356 367 
f 354 365 369 
f 358 361 370 
f 367 358 370 
f 361 367 370 
f 360 354 371 
f 369 364 371 
f 354 369 371 
f 368 364 372 
f 364 369 372 
f 369 362 372 
f 355 362 373 
f 365 355 373 
f 369 365 373 
f 362 369 373 
f 357 360 374 
f 368 357 374 
f 364 368 374 
f 360 371 374 
f 371 364 374 
f 362 357 375 
f 357 368 375 
f 372 362 375 
f 368 372 375 
f 356 355 376 
f 359 356 376 
o convex_12
v -0.004465 0.054932 0.000423
v 0.001169 0.067605 0.011127
v 0.001169 0.067887 0.010844
v 0.001169 0.054648 0.002678
v 0.001169 0.067605 0.000142
v -0.004465 0.064787 0.011127
v -0.004465 0.054932 0.010844
v -0.004465 0.065070 0.000142
v 0.001169 0.057465 0.010844
v 0.001169 0.058310 0.000142
v 0.001169 0.054648 0.007463
v -0.004465 0.065632 0.007182
v 0.000605 0.067887 0.002678
v -0.004465 0.062815 -0.000141
v 0.000324 0.058594 0.011127
v -0.004465 0.054648 0.007463
v 0.000887 0.054648 0.001831
v -0.000240 0.054648 0.008872
v -0.004465 0.056902 0.011127
v -0.003901 0.055777 0.000142
v -0.004465 0.065632 0.004087
v 0.000887 0.067887 0.000423
v 0.000887 0.067887 0.010844
v -0.004465 0.054648 0.003803
f 393 392 400 
f 379 378 380 
f 379 380 381 
f 382 377 383 
f 377 382 384 
f 380 378 385 
f 381 380 386 
f 380 385 387 
f 384 382 388 
f 377 384 390 
f 384 381 390 
f 381 386 390 
f 378 382 391 
f 385 378 391 
f 383 385 391 
f 383 377 392 
f 380 387 392 
f 386 380 393 
f 380 392 393 
f 385 383 394 
f 387 385 394 
f 383 392 394 
f 392 387 394 
f 382 383 395 
f 391 382 395 
f 383 391 395 
f 377 390 396 
f 390 386 396 
f 393 377 396 
f 386 393 396 
f 384 388 397 
f 388 389 397 
f 397 389 398 
f 379 381 398 
f 381 384 398 
f 389 379 398 
f 384 397 398 
f 378 379 399 
f 382 378 399 
f 388 382 399 
f 389 388 399 
f 379 389 399 
f 392 377 400 
f 377 393 400 
o convex_13
v -0.007281 -0.076056 0.002394
v -0.000803 -0.069577 0.007746
v -0.001367 -0.070141 0.008873
v -0.007563 -0.069577 0.003521
v -0.007563 -0.076056 0.008873
v -0.000803 -0.074647 0.002394
v -0.000803 -0.074647 0.008873
v -0.001085 -0.070141 0.002394
v -0.007563 -0.070423 0.008590
v -0.007563 -0.070423 0.002394
v -0.007563 -0.069577 0.007746
v -0.000803 -0.069577 0.003521
v -0.007563 -0.076056 0.002394
v -0.007563 -0.070987 0.008873
f 409 405 414 
f 401 406 407 
f 402 403 407 
f 405 401 407 
f 403 405 407 
f 406 402 407 
f 406 401 408 
f 404 405 409 
f 405 404 410 
f 404 408 410 
f 408 401 410 
f 403 402 411 
f 402 404 411 
f 409 403 411 
f 404 409 411 
f 404 402 412 
f 402 406 412 
f 408 404 412 
f 406 408 412 
f 401 405 413 
f 410 401 413 
f 405 410 413 
f 405 403 414 
f 403 409 414 
o convex_14
v -0.005873 -0.068449 0.007746
v -0.007563 -0.069577 0.003522
v -0.000803 -0.069577 0.003522
v -0.007563 -0.052959 0.003522
v -0.000803 -0.052959 0.007464
v -0.007563 -0.052959 0.007464
v -0.000803 -0.053242 0.003522
v -0.000803 -0.069577 0.007464
v -0.007563 -0.069577 0.007746
v -0.001085 -0.052959 0.003522
f 419 421 424 
f 417 416 418 
f 418 416 420 
f 415 419 420 
f 419 418 420 
f 417 418 421 
f 419 417 421 
f 416 417 422 
f 419 415 422 
f 417 419 422 
f 420 416 423 
f 415 420 423 
f 416 422 423 
f 422 415 423 
f 418 419 424 
f 421 418 424 
o convex_15
v -0.003338 0.034366 0.002958
v -0.003619 0.046761 0.009437
v -0.004465 0.046761 0.009437
v -0.004182 0.046761 0.001549
v 0.001169 0.046478 0.003240
v 0.001169 0.034366 0.007183
v -0.004465 0.034366 0.008309
v 0.001169 0.043098 0.008590
v 0.001169 0.038029 0.002676
v -0.004465 0.034930 0.002676
v 0.001169 0.046478 0.007746
v 0.001169 0.038592 0.008590
v 0.001169 0.034366 0.004085
v -0.004465 0.046478 0.001549
v 0.001169 0.042253 0.002395
v -0.001085 0.046761 0.004649
v -0.004182 0.045352 0.009437
v 0.001169 0.036902 0.008309
v 0.000887 0.041689 0.008873
f 441 436 443 
f 427 426 428 
f 425 430 431 
f 430 429 432 
f 429 430 433 
f 431 427 434 
f 425 431 434 
f 433 425 434 
f 426 432 435 
f 432 429 435 
f 430 432 436 
f 430 425 437 
f 425 433 437 
f 433 430 437 
f 427 428 438 
f 428 433 438 
f 434 427 438 
f 433 434 438 
f 428 429 439 
f 433 428 439 
f 429 433 439 
f 428 426 440 
f 429 428 440 
f 426 435 440 
f 435 429 440 
f 426 427 441 
f 427 431 441 
f 431 436 441 
f 431 430 442 
f 436 431 442 
f 430 436 442 
f 432 426 443 
f 436 432 443 
f 426 441 443 
o convex_16
v -0.004465 0.054365 0.003239
v -0.004465 0.046761 0.001550
v -0.004465 0.047889 0.001269
v 0.001169 0.053802 0.001269
v 0.001169 0.050704 0.010000
v -0.004465 0.046761 0.009717
v 0.001169 0.047324 0.004649
v -0.001085 0.054648 0.009155
v -0.004465 0.051267 0.010000
v 0.001169 0.054648 0.007464
v 0.001169 0.050424 0.001269
v -0.004465 0.054648 0.007464
v 0.001169 0.047606 0.007464
v -0.004465 0.050424 0.000986
v -0.000240 0.054648 0.001831
v 0.000605 0.053239 0.010000
v -0.001085 0.046761 0.006619
v 0.001169 0.047889 0.003239
v -0.004465 0.052394 0.001550
v 0.000042 0.048452 0.009155
v -0.003901 0.046761 0.001550
v -0.003619 0.053239 0.009436
v 0.001169 0.054648 0.002396
v -0.000803 0.046761 0.004085
f 464 461 467 
f 446 445 444 
f 444 445 449 
f 447 448 450 
f 449 448 452 
f 444 449 452 
f 448 447 453 
f 447 450 454 
f 444 452 455 
f 451 453 455 
f 450 448 456 
f 446 444 457 
f 454 446 457 
f 447 454 457 
f 444 455 458 
f 455 453 458 
f 452 448 459 
f 448 453 459 
f 453 451 459 
f 449 445 460 
f 456 449 460 
f 450 456 460 
f 454 450 461 
f 457 444 462 
f 447 457 462 
f 458 447 462 
f 444 458 462 
f 448 449 463 
f 456 448 463 
f 449 456 463 
f 445 446 464 
f 446 454 464 
f 460 445 464 
f 454 461 464 
f 455 452 465 
f 451 455 465 
f 452 459 465 
f 459 451 465 
f 453 447 466 
f 447 458 466 
f 458 453 466 
f 450 460 467 
f 461 450 467 
f 460 464 467 
