o convex_0
v -0.006375 -0.063127 -0.000186
v 0.006287 0.053816 0.020297
v 0.006659 0.053816 0.019924
v -0.006748 0.053816 0.000187
v -0.006748 -0.063127 0.019924
v 0.006659 -0.063127 0.000187
v 0.006287 0.053816 -0.000186
v 0.006659 -0.063127 0.019924
v -0.006748 0.053816 0.019924
v -0.006375 -0.063127 0.020297
v 0.006659 0.053816 0.000187
v -0.006748 -0.063127 0.000187
v -0.006375 0.053816 0.020297
v -0.006375 0.053816 -0.000186
v 0.006287 -0.063127 -0.000186
v 0.006287 -0.063127 0.020297
f 10 8 16 
f 2 3 4 
f 5 1 6 
f 4 3 7 
f 3 2 8 
f 6 3 8 
f 5 6 8 
f 2 4 9 
f 4 5 9 
f 9 5 10 
f 5 8 10 
f 3 6 11 
f 7 3 11 
f 6 7 11 
f 4 1 12 
f 1 5 12 
f 5 4 12 
f 2 9 13 
f 9 10 13 
f 10 2 13 
f 1 4 14 
f 4 7 14 
f 7 1 14 
f 6 1 15 
f 1 7 15 
f 7 6 15 
f 8 2 16 
f 2 10 16 
o convex_1
v 0.010384 -0.072812 0.020297
v 0.006659 -0.086962 0.000187
v 0.006659 -0.086588 -0.000186
v 0.006659 -0.066851 0.019924
v 0.009638 -0.070575 0.000187
v 0.006659 -0.086588 0.020297
v 0.011501 -0.080627 0.000187
v 0.006659 -0.067225 -0.000186
v 0.010756 -0.083237 0.019924
v 0.011501 -0.075420 0.019924
v 0.008522 -0.086588 0.000187
v 0.011501 -0.075790 -0.000186
v 0.008522 -0.086588 0.019924
v 0.007777 -0.067597 0.019924
v 0.011501 -0.080627 0.019924
v 0.010756 -0.072812 0.019924
v 0.010756 -0.083237 0.000187
v 0.007777 -0.067597 0.000187
v 0.010756 -0.072812 0.000187
v 0.006659 -0.067225 0.020297
v 0.011128 -0.080627 0.020297
v 0.009638 -0.070575 0.019924
v 0.007032 -0.066851 0.000187
v 0.007032 -0.086962 0.019924
v 0.010384 -0.083237 -0.000186
f 33 27 41 
f 19 18 20 
f 20 18 22 
f 19 20 24 
f 18 19 27 
f 19 24 28 
f 24 21 28 
f 26 23 28 
f 27 25 29 
f 25 23 31 
f 23 26 31 
f 17 26 32 
f 23 25 33 
f 25 27 33 
f 21 24 34 
f 30 21 34 
f 28 21 35 
f 26 28 35 
f 32 26 35 
f 21 32 35 
f 22 17 36 
f 20 22 36 
f 17 30 36 
f 30 20 36 
f 17 22 37 
f 26 17 37 
f 22 29 37 
f 29 25 37 
f 25 31 37 
f 31 26 37 
f 30 17 38 
f 21 30 38 
f 17 32 38 
f 32 21 38 
f 24 20 39 
f 20 30 39 
f 34 24 39 
f 30 34 39 
f 22 18 40 
f 18 27 40 
f 29 22 40 
f 27 29 40 
f 27 19 41 
f 19 28 41 
f 28 23 41 
f 23 33 41 
o convex_2
v -0.006749 0.053816 0.000187
v -0.005631 0.077279 0.020297
v -0.005259 0.077279 0.019924
v -0.015686 0.077279 0.000187
v -0.000044 0.073926 -0.000186
v -0.006377 0.053816 0.020297
v -0.000044 0.053816 0.020297
v -0.015686 0.072809 0.019924
v -0.000044 0.053816 -0.000186
v -0.000044 0.073554 0.020297
v -0.015313 0.077279 0.020297
v -0.014568 0.069454 0.000187
v -0.005631 0.077279 -0.000186
v -0.014568 0.069454 0.019924
v -0.015313 0.072433 -0.000186
v -0.006749 0.053816 0.019924
v -0.000790 0.074667 0.019924
v -0.002652 0.075788 0.000187
v -0.015686 0.072809 0.000187
v -0.006377 0.053816 -0.000186
v -0.015686 0.077279 0.019924
v -0.014195 0.069454 0.020297
v -0.015313 0.077279 -0.000186
v -0.005259 0.077279 0.000187
v -0.000790 0.074667 0.000187
f 59 58 66 
f 43 44 45 
f 47 42 48 
f 43 47 48 
f 48 42 50 
f 46 48 50 
f 43 48 51 
f 48 46 51 
f 43 45 52 
f 47 43 52 
f 45 44 54 
f 46 50 54 
f 53 42 55 
f 49 53 55 
f 54 50 56 
f 42 47 57 
f 55 42 57 
f 47 55 57 
f 44 43 58 
f 43 51 58 
f 51 46 58 
f 46 54 59 
f 44 58 59 
f 49 45 60 
f 53 49 60 
f 45 56 60 
f 56 53 60 
f 50 42 61 
f 42 53 61 
f 56 50 61 
f 53 56 61 
f 45 49 62 
f 52 45 62 
f 49 52 62 
f 47 52 63 
f 52 49 63 
f 55 47 63 
f 49 55 63 
f 45 54 64 
f 56 45 64 
f 54 56 64 
f 54 44 65 
f 44 59 65 
f 59 54 65 
f 58 46 66 
f 46 59 66 
o convex_3
v -0.007866 0.088824 0.020297
v -0.014940 0.077279 -0.000186
v -0.005631 0.077279 -0.000186
v -0.006376 0.090686 0.000187
v -0.005259 0.077279 0.019924
v -0.015314 0.077652 0.019924
v -0.003396 0.089568 0.019924
v -0.013823 0.082123 0.000187
v -0.003396 0.088451 0.000187
v -0.011588 0.085472 0.019924
v -0.006376 0.090686 0.019924
v -0.004514 0.090313 -0.000186
v -0.014940 0.077279 0.020297
v -0.011588 0.085472 0.000187
v -0.014568 0.080631 0.019551
v -0.005259 0.077279 0.000187
v -0.015314 0.077652 0.000187
v -0.005631 0.077279 0.020297
v -0.004514 0.090686 0.019924
v -0.003396 0.088451 0.019924
v -0.003396 0.089568 0.000187
v -0.004514 0.090686 0.000187
v -0.014568 0.080631 0.000187
v -0.003769 0.089567 0.020297
v -0.011216 0.085472 -0.000186
v -0.013823 0.082123 0.019551
f 81 76 92 
f 68 69 71 
f 76 67 77 
f 70 76 77 
f 69 68 78 
f 75 69 78 
f 68 71 79 
f 72 68 79 
f 67 76 79 
f 76 70 80 
f 74 76 80 
f 72 79 81 
f 79 76 81 
f 71 69 82 
f 69 75 82 
f 75 71 82 
f 68 72 83 
f 72 81 83 
f 67 79 84 
f 79 71 84 
f 70 77 85 
f 71 75 86 
f 75 73 86 
f 84 71 86 
f 73 75 87 
f 75 78 87 
f 85 73 87 
f 85 87 88 
f 78 70 88 
f 70 85 88 
f 87 78 88 
f 81 74 89 
f 68 83 89 
f 83 81 89 
f 77 67 90 
f 67 84 90 
f 73 85 90 
f 85 77 90 
f 86 73 90 
f 84 86 90 
f 78 68 91 
f 70 78 91 
f 74 80 91 
f 80 70 91 
f 68 89 91 
f 89 74 91 
f 76 74 92 
f 74 81 92 
o convex_4
v 0.006287 0.053816 -0.000186
v 0.008149 0.075415 0.020297
v 0.008149 0.075789 0.019924
v -0.000044 0.073180 0.020297
v -0.000044 0.073552 -0.000186
v -0.000044 0.053816 0.020297
v 0.008149 0.075415 -0.000186
v 0.007776 0.055681 0.019924
v -0.000044 0.053816 -0.000186
v 0.008149 0.059032 0.000187
v 0.006287 0.053816 0.020297
v 0.008149 0.059406 0.020297
v 0.007776 0.055681 0.000187
v 0.007776 0.075789 0.000187
v -0.000044 0.073552 0.019924
v 0.006659 0.053816 0.019924
v 0.007776 0.075789 0.019924
v 0.006659 0.053816 0.000187
v 0.008149 0.059406 -0.000186
f 102 105 111 
f 94 96 98 
f 96 97 98 
f 95 94 99 
f 93 97 99 
f 97 93 101 
f 93 98 101 
f 98 97 101 
f 99 94 102 
f 94 98 103 
f 98 93 103 
f 103 100 104 
f 102 94 104 
f 100 102 104 
f 94 103 104 
f 102 100 105 
f 95 99 106 
f 99 97 106 
f 97 96 107 
f 106 97 107 
f 103 93 108 
f 100 103 108 
f 105 100 108 
f 94 95 109 
f 96 94 109 
f 95 106 109 
f 107 96 109 
f 106 107 109 
f 93 105 110 
f 108 93 110 
f 105 108 110 
f 93 99 111 
f 99 102 111 
f 105 93 111 
o convex_5
v 0.012245 0.064619 -0.000186
v 0.012618 0.085097 0.020297
v 0.010756 0.085097 0.020297
v 0.008149 0.059777 0.020297
v 0.008149 0.077276 0.000187
v 0.015598 0.072440 0.019924
v 0.014853 0.081373 0.000187
v 0.008149 0.059405 0.000187
v 0.010756 0.085469 -0.000186
v 0.008149 0.077276 0.019551
v 0.015598 0.072440 0.000187
v 0.012618 0.064619 0.019924
v 0.014853 0.081373 0.019551
v 0.014853 0.068716 0.000187
v 0.013736 0.084354 0.000187
v 0.010385 0.085469 0.019924
v 0.015598 0.076534 0.019924
v 0.009639 0.060523 0.000187
v 0.014853 0.068716 0.019551
v 0.009639 0.060523 0.019924
v 0.012245 0.085842 0.000187
v 0.015598 0.076534 0.000187
v 0.010385 0.085469 0.000187
v 0.013736 0.084354 0.019924
v 0.012618 0.064619 0.000187
v 0.015225 0.072440 0.020297
v 0.008149 0.059777 -0.000186
v 0.015225 0.076534 -0.000186
v 0.012245 0.085842 0.019551
v 0.008149 0.075788 0.020297
v 0.008522 0.059405 0.019924
v 0.010756 0.085842 0.000187
v 0.008149 0.075788 -0.000186
v 0.010756 0.085842 0.019551
f 140 143 145 
f 113 114 115 
f 115 116 119 
f 116 115 121 
f 122 117 125 
f 124 118 126 
f 114 113 127 
f 116 121 127 
f 117 122 128 
f 118 124 128 
f 125 117 130 
f 123 125 130 
f 123 115 131 
f 129 123 131 
f 126 120 132 
f 128 122 133 
f 118 128 133 
f 120 116 134 
f 116 127 134 
f 124 126 135 
f 113 128 135 
f 128 124 135 
f 126 132 135 
f 112 125 136 
f 125 123 136 
f 129 112 136 
f 123 129 136 
f 113 115 137 
f 115 123 137 
f 128 113 137 
f 117 128 137 
f 130 117 137 
f 123 130 137 
f 119 116 138 
f 120 112 138 
f 112 129 138 
f 129 119 138 
f 112 120 139 
f 125 112 139 
f 122 125 139 
f 120 126 139 
f 126 118 139 
f 118 133 139 
f 133 122 139 
f 127 113 140 
f 113 135 140 
f 135 132 140 
f 115 114 141 
f 121 115 141 
f 114 127 141 
f 127 121 141 
f 115 119 142 
f 119 129 142 
f 131 115 142 
f 129 131 142 
f 132 120 143 
f 120 134 143 
f 134 127 143 
f 140 132 143 
f 116 120 144 
f 138 116 144 
f 120 138 144 
f 127 140 145 
f 143 127 145 
o convex_6
v -0.008983 -0.069458 0.020297
v -0.008983 -0.086962 0.000187
v -0.010845 -0.085097 0.000187
v -0.008610 -0.069085 -0.000186
v -0.012707 -0.073555 0.019924
v -0.008610 -0.086962 0.019924
v -0.012707 -0.073555 0.000187
v -0.012707 -0.082493 0.019551
v -0.012707 -0.082493 0.000187
v -0.008610 -0.086589 -0.000186
v -0.008610 -0.069085 0.019924
v -0.011217 -0.071322 -0.000186
v -0.010472 -0.085469 0.019924
v -0.011589 -0.071693 0.019924
v -0.012334 -0.082118 0.020297
v -0.008983 -0.069085 0.019924
v -0.008610 -0.086589 0.020297
v -0.012334 -0.082493 -0.000186
v -0.008983 -0.069085 -0.000186
v -0.012334 -0.073555 0.020297
v -0.008983 -0.086962 0.019924
f 162 158 166 
f 150 152 153 
f 153 152 154 
f 148 153 154 
f 147 148 155 
f 151 147 155 
f 149 151 155 
f 151 149 156 
f 149 155 157 
f 153 148 158 
f 152 150 159 
f 157 152 159 
f 150 153 160 
f 153 158 160 
f 146 156 161 
f 156 149 161 
f 159 146 161 
f 156 146 162 
f 151 156 162 
f 146 160 162 
f 160 158 162 
f 148 154 163 
f 154 152 163 
f 155 148 163 
f 152 157 163 
f 157 155 163 
f 149 157 164 
f 157 159 164 
f 161 149 164 
f 159 161 164 
f 146 159 165 
f 159 150 165 
f 160 146 165 
f 150 160 165 
f 148 147 166 
f 147 151 166 
f 158 148 166 
f 151 162 166 
o convex_7
v -0.008610 -0.080259 0.020297
v -0.005630 -0.089569 0.000187
v -0.002279 -0.089569 0.000187
v -0.008610 -0.079887 -0.000186
v -0.002279 -0.085471 0.019924
v -0.008610 -0.087333 0.019924
v -0.002279 -0.089569 0.019924
v -0.002279 -0.085471 -0.000186
v -0.008610 -0.086961 -0.000186
v -0.005630 -0.089569 0.019551
v -0.008238 -0.079887 0.019924
v -0.008238 -0.079887 -0.000186
v -0.008238 -0.087706 0.000187
v -0.005259 -0.089196 0.020297
v -0.002279 -0.085843 0.020297
v -0.002279 -0.089196 -0.000186
f 175 174 182 
f 167 170 172 
f 168 169 173 
f 169 171 173 
f 171 169 174 
f 172 170 175 
f 170 174 175 
f 168 173 176 
f 170 167 177 
f 171 174 177 
f 177 174 178 
f 174 170 178 
f 170 177 178 
f 175 168 179 
f 172 175 179 
f 168 176 179 
f 176 172 179 
f 167 172 180 
f 172 176 180 
f 176 173 180 
f 173 171 181 
f 177 167 181 
f 171 177 181 
f 167 180 181 
f 180 173 181 
f 169 168 182 
f 174 169 182 
f 168 175 182 
o convex_8
v -0.007865 -0.073183 0.020297
v -0.008610 -0.079885 0.000187
v -0.008610 -0.075045 -0.000186
v -0.007493 -0.074300 -0.000186
v -0.008238 -0.079885 0.019924
v -0.008610 -0.073183 0.020297
v -0.007493 -0.074673 0.019924
v -0.008610 -0.073183 -0.000186
v -0.008610 -0.079885 0.019924
v -0.008238 -0.079885 0.000187
v -0.007493 -0.073183 -0.000186
v -0.007493 -0.073183 0.019924
f 189 193 194 
f 185 184 188 
f 187 183 188 
f 183 187 189 
f 186 185 190 
f 185 188 190 
f 188 183 190 
f 184 187 191 
f 188 184 191 
f 187 188 191 
f 184 185 192 
f 185 186 192 
f 187 184 192 
f 186 189 192 
f 189 187 192 
f 189 186 193 
f 186 190 193 
f 190 183 193 
f 183 189 194 
f 193 183 194 
o convex_9
v -0.006748 -0.063128 0.020297
v -0.008610 -0.073182 -0.000186
v -0.008610 -0.068712 -0.000186
v -0.002279 -0.070202 -0.000186
v -0.008610 -0.073182 0.020297
v -0.002279 -0.070574 0.019924
v -0.002279 -0.063128 -0.000186
v -0.002279 -0.063128 0.020297
v -0.007865 -0.063873 0.000187
v -0.008610 -0.066480 0.019924
v -0.007120 -0.073182 0.000187
v -0.006748 -0.063128 -0.000186
v -0.007120 -0.073182 0.019924
v -0.007865 -0.063873 0.019551
v -0.002279 -0.070574 0.000187
v -0.008610 -0.066480 0.000187
v -0.002279 -0.070202 0.020297
v -0.007120 -0.063128 0.000187
f 203 208 212 
f 196 197 198 
f 197 196 199 
f 198 197 201 
f 200 198 201 
f 195 199 202 
f 201 195 202 
f 200 201 202 
f 199 195 204 
f 197 199 204 
f 196 198 205 
f 199 196 205 
f 195 201 206 
f 201 197 206 
f 197 203 206 
f 199 205 207 
f 205 200 207 
f 204 195 208 
f 203 204 208 
f 198 200 209 
f 205 198 209 
f 200 205 209 
f 203 197 210 
f 197 204 210 
f 204 203 210 
f 202 199 211 
f 200 202 211 
f 199 207 211 
f 207 200 211 
f 195 206 212 
f 206 203 212 
f 208 195 212 
o convex_10
v -0.001533 -0.090686 0.019551
v 0.006659 -0.083983 0.020297
v 0.005542 -0.083983 0.020297
v 0.006659 -0.083983 -0.000186
v -0.002279 -0.085473 -0.000186
v 0.004425 -0.089568 0.000187
v -0.002279 -0.085473 0.019924
v 0.006659 -0.087334 0.019924
v -0.002279 -0.089940 0.000187
v 0.004425 -0.089568 0.019924
v 0.000328 -0.090686 0.000187
v 0.006659 -0.086963 -0.000186
v -0.002279 -0.089195 0.020297
v 0.002562 -0.084356 0.000187
v 0.000328 -0.090686 0.019924
v -0.001533 -0.090313 -0.000186
v 0.002562 -0.084356 0.019924
v 0.004797 -0.083983 0.000187
v -0.001533 -0.090686 0.000187
v 0.004425 -0.089195 0.020297
v 0.006659 -0.087334 0.000187
v -0.002279 -0.089940 0.019551
f 225 221 234 
f 215 214 216 
f 216 214 220 
f 219 217 221 
f 218 220 222 
f 218 222 223 
f 217 216 224 
f 216 220 224 
f 214 215 225 
f 215 219 225 
f 219 221 225 
f 217 219 226 
f 213 223 227 
f 223 222 227 
f 225 213 227 
f 221 217 228 
f 218 223 228 
f 217 224 228 
f 224 218 228 
f 219 215 229 
f 226 219 229 
f 226 229 230 
f 215 216 230 
f 216 217 230 
f 217 226 230 
f 229 215 230 
f 213 221 231 
f 223 213 231 
f 221 228 231 
f 228 223 231 
f 220 214 232 
f 222 220 232 
f 214 225 232 
f 227 222 232 
f 225 227 232 
f 220 218 233 
f 224 220 233 
f 218 224 233 
f 221 213 234 
f 213 225 234 
o convex_11
v 0.005915 -0.083610 0.020297
v 0.005542 -0.083982 -0.000186
v 0.006659 -0.083982 -0.000186
v 0.006287 -0.079886 0.000187
v 0.006659 -0.079886 0.019924
v 0.005170 -0.083610 0.019551
v 0.006659 -0.083982 0.020297
v 0.005170 -0.083610 0.000187
v 0.006659 -0.079886 0.000187
v 0.006287 -0.079886 0.019924
v 0.005170 -0.083982 0.019551
f 240 242 245 
f 237 236 238 
f 236 237 241 
f 239 235 241 
f 237 239 241 
f 238 236 242 
f 240 238 242 
f 237 238 243 
f 238 239 243 
f 239 237 243 
f 235 239 244 
f 239 238 244 
f 240 235 244 
f 238 240 244 
f 235 240 245 
f 236 241 245 
f 241 235 245 
f 242 236 245 
o convex_12
v -0.002279 -0.063127 0.020297
v 0.005542 -0.072436 -0.000186
v 0.005915 -0.072436 -0.000186
v -0.002279 -0.063127 -0.000186
v 0.005915 -0.063127 0.020297
v -0.002279 -0.070574 0.019924
v 0.005915 -0.063127 -0.000186
v 0.005915 -0.072436 0.019924
v -0.002279 -0.070574 0.000187
v 0.005542 -0.072064 0.020297
v -0.002279 -0.070202 -0.000186
v -0.002279 -0.070202 0.020297
v 0.005542 -0.072436 0.019924
f 257 251 258 
f 248 247 249 
f 249 246 250 
f 246 249 251 
f 248 249 252 
f 249 250 252 
f 250 248 252 
f 247 248 253 
f 248 250 253 
f 247 251 254 
f 251 249 254 
f 250 246 255 
f 253 250 255 
f 249 247 256 
f 247 254 256 
f 254 249 256 
f 246 251 257 
f 255 246 257 
f 255 257 258 
f 251 247 258 
f 247 253 258 
f 253 255 258 
o convex_13
v 0.006659 -0.063127 0.019924
v 0.006287 -0.079886 0.000187
v 0.005915 -0.072807 -0.000186
v 0.005915 -0.072436 0.020297
v 0.006659 -0.079886 0.019924
v 0.006659 -0.063127 0.000187
v 0.005915 -0.063127 -0.000186
v 0.005915 -0.063127 0.020297
v 0.006659 -0.079886 0.000187
v 0.006287 -0.079886 0.019924
f 260 263 268 
f 259 262 263 
f 259 263 264 
f 259 264 265 
f 261 262 265 
f 264 261 265 
f 265 262 266 
f 262 259 266 
f 259 265 266 
f 260 261 267 
f 263 260 267 
f 264 263 267 
f 261 264 267 
f 261 260 268 
f 262 261 268 
f 263 262 268 
