o convex_0
v -0.008328 0.068664 -0.000138
v -0.022086 0.067018 -0.000138
v -0.021812 0.065922 -0.000138
v -0.015482 0.055737 0.010596
v -0.016306 0.084908 0.010596
v -0.008328 0.049128 0.009495
v -0.016306 0.084908 -0.000138
v -0.008602 0.049128 0.000964
v -0.021812 0.074447 0.010596
v -0.008328 0.068664 0.010596
v -0.019885 0.082152 -0.000138
v -0.020711 0.062343 0.010596
v -0.018234 0.058763 -0.000138
v -0.015207 0.084632 0.010596
v -0.019609 0.082702 0.010596
v -0.015207 0.084632 -0.000138
v -0.008328 0.057114 -0.000138
v -0.021812 0.074447 -0.000138
v -0.022086 0.067018 0.010596
v -0.008328 0.055461 0.010596
v -0.013557 0.053811 -0.000138
v -0.020711 0.079952 0.010596
v -0.020711 0.062343 -0.000138
v -0.011080 0.051331 0.010046
v -0.017408 0.084632 -0.000138
v -0.020986 0.078849 -0.000138
v -0.018234 0.058763 0.010596
v -0.008328 0.051335 0.000413
v -0.022086 0.070871 0.010596
v -0.017408 0.084632 0.010596
v -0.010805 0.053261 0.010596
v -0.022086 0.070871 -0.000138
v -0.018509 0.083805 -0.000138
v -0.015757 0.056014 -0.000138
v -0.011080 0.051331 0.000413
f 21 28 35 
f 3 2 1 
f 1 2 7 
f 4 5 9 
f 5 4 10 
f 6 1 10 
f 7 2 11 
f 4 9 12 
f 3 1 13 
f 7 5 14 
f 10 1 14 
f 5 10 14 
f 9 5 15 
f 1 7 16 
f 14 1 16 
f 7 14 16 
f 1 6 17 
f 13 1 17 
f 11 2 18 
f 2 3 19 
f 3 12 19 
f 12 9 19 
f 10 4 20 
f 6 10 20 
f 13 17 21 
f 9 15 22 
f 15 11 22 
f 12 3 23 
f 3 13 23 
f 13 12 23 
f 8 6 24 
f 5 7 25 
f 7 11 25 
f 18 9 26 
f 11 18 26 
f 9 22 26 
f 22 11 26 
f 4 12 27 
f 12 13 27 
f 6 8 28 
f 17 6 28 
f 21 17 28 
f 9 18 29 
f 2 19 29 
f 19 9 29 
f 15 5 30 
f 5 25 30 
f 20 4 31 
f 6 20 31 
f 24 6 31 
f 4 24 31 
f 18 2 32 
f 2 29 32 
f 29 18 32 
f 11 15 33 
f 25 11 33 
f 15 30 33 
f 30 25 33 
f 21 4 34 
f 13 21 34 
f 4 27 34 
f 27 13 34 
f 4 21 35 
f 8 24 35 
f 24 4 35 
f 28 8 35 
o convex_1
v 0.006260 -0.059587 0.008394
v -0.006950 -0.062890 0.001790
v -0.006950 -0.062890 0.008669
v 0.008463 -0.062890 0.001790
v -0.006674 -0.059312 0.002341
v 0.008463 -0.062890 0.008669
v 0.007636 -0.059312 0.002341
v -0.006674 -0.059312 0.008118
v 0.007636 -0.059312 0.008118
v -0.006123 -0.061238 0.008669
v 0.005159 -0.061789 0.001790
v 0.007912 -0.059587 0.008118
v -0.005573 -0.060138 0.002065
f 42 46 48 
f 38 37 39 
f 37 38 40 
f 38 39 41 
f 42 40 43 
f 40 38 43 
f 36 41 44 
f 42 43 44 
f 43 36 44 
f 41 36 45 
f 38 41 45 
f 36 43 45 
f 43 38 45 
f 39 37 46 
f 42 39 46 
f 41 39 47 
f 39 42 47 
f 44 41 47 
f 42 44 47 
f 37 40 48 
f 40 42 48 
f 46 37 48 
o convex_2
v 0.001307 -0.059312 0.007293
v -0.007225 0.007838 0.002339
v -0.007225 0.007838 0.008119
v 0.001307 0.034807 0.003165
v -0.006674 -0.059312 0.002339
v 0.000481 0.034817 0.007568
v -0.006674 -0.059312 0.008119
v 0.001307 -0.059312 0.003165
v -0.007225 0.034817 0.002339
v -0.007225 0.034817 0.008119
v -0.003922 0.034817 0.002339
v -0.003647 -0.059312 0.008119
v 0.001307 0.034807 0.007293
v -0.003647 -0.059312 0.002339
v -0.003922 0.034817 0.008119
v -0.006950 -0.031237 0.008119
v -0.006950 -0.031237 0.002339
f 53 64 65 
f 53 49 55 
f 52 49 56 
f 49 53 56 
f 50 51 57 
f 53 50 57 
f 54 57 58 
f 51 55 58 
f 57 51 58 
f 54 52 59 
f 53 57 59 
f 57 54 59 
f 49 54 60 
f 55 49 60 
f 58 55 60 
f 49 52 61 
f 54 49 61 
f 52 54 61 
f 52 56 62 
f 56 53 62 
f 59 52 62 
f 53 59 62 
f 54 58 63 
f 60 54 63 
f 58 60 63 
f 51 50 64 
f 53 55 64 
f 55 51 64 
f 50 53 65 
f 64 50 65 
o convex_3
v 0.007086 0.017743 0.008119
v 0.001307 -0.059312 0.003165
v 0.005160 -0.059312 0.002339
v 0.003509 0.034817 0.002339
v 0.001307 0.034817 0.007293
v 0.005160 -0.059312 0.008119
v 0.007636 -0.059312 0.002339
v 0.006811 0.034817 0.002339
v 0.001307 -0.059312 0.007293
v 0.007636 -0.059312 0.008119
v 0.001307 0.034817 0.003165
v 0.003509 0.034817 0.008119
v 0.006811 0.034817 0.008119
v 0.007636 -0.033707 0.002339
v 0.007636 -0.033707 0.008119
v 0.007086 0.017743 0.002339
f 79 73 81 
f 68 67 69 
f 67 68 71 
f 71 68 72 
f 68 69 72 
f 69 70 73 
f 72 69 73 
f 70 67 74 
f 67 71 74 
f 66 71 75 
f 71 72 75 
f 69 67 76 
f 70 69 76 
f 67 70 76 
f 71 66 77 
f 73 70 77 
f 70 74 77 
f 74 71 77 
f 66 73 78 
f 77 66 78 
f 73 77 78 
f 72 73 79 
f 75 72 79 
f 75 79 80 
f 66 75 80 
f 79 66 80 
f 73 66 81 
f 66 79 81 
o convex_4
v 0.018370 0.080780 0.010596
v 0.005435 0.089035 -0.000138
v 0.005435 0.089035 0.010596
v 0.009289 0.073349 -0.000138
v 0.021949 0.074175 -0.000138
v 0.009289 0.073349 0.010596
v 0.010664 0.088486 -0.000138
v 0.021949 0.073349 0.010596
v 0.007638 0.090138 0.010596
v 0.017546 0.081880 -0.000138
v 0.010664 0.088486 0.010596
v 0.021949 0.073349 -0.000138
v 0.020572 0.077753 0.010596
v 0.005986 0.090138 -0.000138
v 0.020572 0.077753 -0.000138
v 0.005986 0.086282 -0.000138
v 0.013692 0.085733 0.010596
v 0.007638 0.090138 -0.000138
v 0.005435 0.089860 0.010596
v 0.005986 0.086282 0.010596
v 0.021949 0.074175 0.010596
v 0.013692 0.085733 -0.000138
v 0.017546 0.081880 0.010596
f 91 98 104 
f 85 83 86 
f 82 84 87 
f 86 83 88 
f 82 87 89 
f 87 85 89 
f 84 82 90 
f 86 88 91 
f 90 82 92 
f 88 90 92 
f 85 86 93 
f 86 89 93 
f 89 85 93 
f 82 89 94 
f 88 83 95 
f 91 82 96 
f 86 91 96 
f 82 94 96 
f 94 86 96 
f 84 83 97 
f 83 85 97 
f 85 87 97 
f 88 92 98 
f 92 82 98 
f 90 88 99 
f 88 95 99 
f 95 90 99 
f 83 84 100 
f 84 90 100 
f 95 83 100 
f 90 95 100 
f 87 84 101 
f 84 97 101 
f 97 87 101 
f 89 86 102 
f 94 89 102 
f 86 94 102 
f 91 88 103 
f 98 91 103 
f 88 98 103 
f 82 91 104 
f 98 82 104 
o convex_5
v 0.007087 0.071143 0.010596
v -0.008326 0.046381 0.001240
v -0.008050 0.043078 0.001514
v 0.007087 0.061787 -0.000138
v 0.006810 0.034824 0.008119
v -0.008326 0.068668 0.010596
v -0.008326 0.068668 -0.000138
v -0.007500 0.035922 0.008394
v 0.006810 0.034824 0.002340
v 0.007087 0.071143 -0.000138
v -0.008326 0.055731 0.010596
v -0.007225 0.034820 0.002340
v 0.007087 0.054351 0.010321
v -0.008326 0.053526 0.000138
v 0.007087 0.052708 0.000413
v -0.007225 0.034820 0.008119
v -0.008326 0.052157 0.010321
v 0.006810 0.035919 0.008394
v -0.008050 0.057381 -0.000138
v 0.007087 0.059586 0.010596
v 0.007087 0.044450 0.008944
v -0.008326 0.046381 0.009219
v 0.006536 0.071143 -0.000138
v -0.007500 0.035371 0.002340
v 0.007087 0.044450 0.001514
v 0.006810 0.037021 0.002065
v 0.006536 0.071143 0.010596
v -0.003646 0.035645 0.008394
f 109 122 132 
f 106 110 111 
f 105 108 114 
f 108 111 114 
f 110 106 115 
f 105 110 115 
f 113 109 116 
f 108 105 117 
f 107 106 118 
f 106 111 118 
f 108 117 119 
f 116 109 120 
f 115 106 121 
f 117 115 121 
f 117 121 122 
f 111 108 123 
f 118 111 123 
f 108 119 123 
f 119 118 123 
f 105 115 124 
f 117 105 124 
f 115 117 124 
f 109 113 125 
f 119 117 125 
f 117 122 125 
f 122 109 125 
f 121 106 126 
f 112 121 126 
f 111 110 127 
f 105 114 127 
f 114 111 127 
f 106 107 128 
f 107 118 128 
f 118 116 128 
f 120 112 128 
f 116 120 128 
f 126 106 128 
f 112 126 128 
f 113 119 129 
f 125 113 129 
f 119 125 129 
f 113 116 130 
f 116 118 130 
f 119 113 130 
f 118 119 130 
f 110 105 131 
f 105 127 131 
f 127 110 131 
f 120 109 132 
f 112 120 132 
f 121 112 132 
f 122 121 132 
o convex_6
v 0.022223 0.069219 0.010596
v 0.007087 0.049128 0.000964
v 0.007087 0.049128 0.009495
v 0.007087 0.071419 -0.000138
v 0.022223 0.069219 -0.000138
v 0.009015 0.073349 0.010596
v 0.021948 0.073349 -0.000138
v 0.014243 0.056836 -0.000138
v 0.021948 0.073349 0.010596
v 0.015343 0.058213 0.010596
v 0.007087 0.071419 0.010596
v 0.009015 0.073349 -0.000138
v 0.019746 0.063991 -0.000138
v 0.007087 0.059313 0.010596
v 0.019746 0.063991 0.010596
v 0.007087 0.061511 -0.000138
v 0.010114 0.052158 0.010046
v 0.007914 0.049683 0.000964
v 0.009015 0.054361 0.000138
v 0.010941 0.055463 0.010596
v 0.007363 0.053808 0.010321
v 0.021396 0.067291 -0.000138
v 0.007363 0.049128 0.009495
v 0.014243 0.056836 0.010596
f 152 149 156 
f 134 135 136 
f 133 137 139 
f 137 136 139 
f 136 137 140 
f 138 133 141 
f 133 139 141 
f 139 138 141 
f 133 138 142 
f 136 135 143 
f 138 136 143 
f 142 138 143 
f 136 138 144 
f 139 136 144 
f 138 139 144 
f 140 137 145 
f 142 140 145 
f 143 135 146 
f 142 143 146 
f 133 142 147 
f 142 145 147 
f 134 136 148 
f 136 140 148 
f 134 140 150 
f 140 149 150 
f 140 134 151 
f 134 148 151 
f 148 140 151 
f 142 146 152 
f 149 152 153 
f 146 135 153 
f 135 149 153 
f 152 146 153 
f 137 133 154 
f 145 137 154 
f 133 147 154 
f 147 145 154 
f 135 134 155 
f 149 135 155 
f 134 150 155 
f 150 149 155 
f 140 142 156 
f 149 140 156 
f 142 152 156 
o convex_7
v -0.002272 -0.064817 0.009495
v -0.010803 -0.069771 0.001239
v -0.010803 -0.069771 0.009495
v -0.006950 -0.062890 0.001790
v -0.003373 -0.067844 0.001239
v -0.006950 -0.062890 0.008944
v -0.001446 -0.062890 0.001790
v -0.007225 -0.069771 0.009495
v -0.001446 -0.065643 0.009495
v -0.001446 -0.062890 0.008944
v -0.001446 -0.065643 0.001239
v -0.007225 -0.069771 0.001239
v -0.003373 -0.067844 0.009495
v -0.010803 -0.069219 0.001239
v -0.008325 -0.065093 0.009495
v -0.007499 -0.063991 0.001239
v -0.010803 -0.069219 0.009495
f 171 170 173 
f 160 162 163 
f 157 159 164 
f 159 158 164 
f 157 164 165 
f 165 163 166 
f 162 157 166 
f 163 162 166 
f 157 165 166 
f 161 158 167 
f 165 161 167 
f 163 165 167 
f 158 161 168 
f 164 158 168 
f 161 164 168 
f 164 161 169 
f 161 165 169 
f 165 164 169 
f 158 159 170 
f 167 158 170 
f 159 157 171 
f 157 162 171 
f 162 160 171 
f 160 170 171 
f 160 163 172 
f 163 167 172 
f 170 160 172 
f 167 170 172 
f 170 159 173 
f 159 171 173 
o convex_8
v 0.011765 -0.067844 0.009495
v -0.001446 -0.065643 0.001239
v -0.001446 -0.064817 0.001239
v 0.012591 -0.069771 0.001239
v 0.008461 -0.062890 0.001790
v -0.001446 -0.065643 0.009495
v 0.008461 -0.062890 0.008944
v 0.009011 -0.069771 0.009495
v -0.001446 -0.062890 0.008944
v -0.001446 -0.062890 0.001790
v 0.009011 -0.069771 0.001239
v 0.012591 -0.069771 0.009495
v 0.009288 -0.063991 0.001239
v -0.001169 -0.065919 0.009495
v 0.009838 -0.064817 0.009495
v -0.001169 -0.065919 0.001239
v 0.011765 -0.067844 0.001239
f 186 188 190 
f 175 176 177 
f 176 175 179 
f 174 179 181 
f 176 179 182 
f 180 178 182 
f 176 182 183 
f 182 178 183 
f 175 177 184 
f 177 181 184 
f 177 174 185 
f 181 177 185 
f 174 181 185 
f 177 176 186 
f 178 180 186 
f 176 183 186 
f 183 178 186 
f 179 175 187 
f 181 179 187 
f 184 181 187 
f 179 174 188 
f 182 179 188 
f 180 182 188 
f 186 180 188 
f 175 184 189 
f 187 175 189 
f 184 187 189 
f 174 177 190 
f 177 186 190 
f 188 174 190 
o convex_9
v 0.003509 -0.087385 0.009495
v -0.006950 -0.087935 0.001239
v -0.006950 -0.084633 0.001239
v 0.003784 -0.090138 0.001239
v -0.003647 -0.089862 0.009495
v -0.006950 -0.084633 0.009495
v 0.001031 -0.086009 0.001239
v 0.003784 -0.090138 0.009495
v -0.003096 -0.090138 0.001239
v -0.006950 -0.087935 0.009495
v 0.001031 -0.086009 0.009495
v 0.003784 -0.087660 0.001239
v -0.005297 -0.084633 0.001239
v -0.005297 -0.084633 0.009495
v -0.003096 -0.090138 0.009495
f 199 198 205 
f 192 193 194 
f 193 192 196 
f 195 191 196 
f 194 193 197 
f 191 195 198 
f 192 194 199 
f 195 192 199 
f 194 198 199 
f 192 195 200 
f 196 192 200 
f 195 196 200 
f 196 191 201 
f 191 197 201 
f 194 197 202 
f 197 191 202 
f 191 198 202 
f 198 194 202 
f 193 196 203 
f 197 193 203 
f 201 197 203 
f 201 203 204 
f 196 201 204 
f 203 196 204 
f 198 195 205 
f 195 199 205 
o convex_10
v 0.004610 -0.090136 0.001239
v 0.014518 -0.079404 0.009495
v 0.014518 -0.079404 0.001239
v 0.004885 -0.085182 0.009495
v 0.010663 -0.086833 0.009495
v 0.009286 -0.081056 0.001239
v 0.010939 -0.086558 0.001239
v 0.003784 -0.090136 0.009495
v 0.003784 -0.087109 0.001239
v 0.011764 -0.079404 0.009495
v 0.014518 -0.080506 0.009495
v 0.011764 -0.079404 0.001239
v 0.014518 -0.080506 0.001239
v 0.004885 -0.085182 0.001239
v 0.003784 -0.087109 0.009495
v 0.009286 -0.081056 0.009495
v 0.004610 -0.090136 0.009495
v 0.003784 -0.090136 0.001239
v 0.008739 -0.087935 0.001239
f 210 222 224 
f 207 209 210 
f 208 206 211 
f 206 208 212 
f 210 209 213 
f 211 206 214 
f 207 208 215 
f 209 207 215 
f 208 207 216 
f 207 210 216 
f 210 212 216 
f 208 211 217 
f 215 208 217 
f 211 215 217 
f 212 208 218 
f 208 216 218 
f 216 212 218 
f 209 211 219 
f 211 214 219 
f 214 209 219 
f 213 209 220 
f 209 214 220 
f 214 213 220 
f 211 209 221 
f 209 215 221 
f 215 211 221 
f 213 206 222 
f 210 213 222 
f 206 213 223 
f 214 206 223 
f 213 214 223 
f 206 212 224 
f 212 210 224 
f 222 206 224 
o convex_11
v 0.011765 -0.079402 0.001239
v 0.012866 -0.069771 0.009495
v 0.009013 -0.069771 0.009495
v 0.009013 -0.069771 0.001239
v 0.014518 -0.072799 0.001239
v 0.014518 -0.079402 0.009495
v 0.010389 -0.076926 0.009495
v 0.014518 -0.079402 0.001239
v 0.012866 -0.069771 0.001239
v 0.014518 -0.072799 0.009495
v 0.011765 -0.079402 0.009495
v 0.010389 -0.076926 0.001239
v 0.009013 -0.070873 0.009495
v 0.009013 -0.070873 0.001239
f 236 237 238 
f 227 226 228 
f 225 228 229 
f 226 227 230 
f 230 227 231 
f 225 229 232 
f 229 230 232 
f 230 225 232 
f 228 226 233 
f 229 228 233 
f 226 229 233 
f 229 226 234 
f 226 230 234 
f 230 229 234 
f 225 230 235 
f 230 231 235 
f 231 225 235 
f 228 225 236 
f 225 231 236 
f 236 231 237 
f 227 228 237 
f 231 227 237 
f 237 228 238 
f 228 236 238 
o convex_12
v -0.007776 -0.087384 0.001239
v -0.010252 -0.079128 0.009495
v -0.012730 -0.079128 0.009495
v -0.006950 -0.087659 0.009495
v -0.007776 -0.081056 0.001239
v -0.012730 -0.079128 0.001239
v -0.009428 -0.086283 0.009495
v -0.007776 -0.081056 0.009495
v -0.012730 -0.080506 0.001239
v -0.006950 -0.084632 0.001239
v -0.009428 -0.086283 0.001239
v -0.010252 -0.079128 0.001239
v -0.012730 -0.080506 0.009495
v -0.006950 -0.084632 0.009495
v -0.006950 -0.087659 0.001239
f 248 242 253 
f 240 241 242 
f 241 240 244 
f 243 239 244 
f 242 241 245 
f 239 242 245 
f 240 242 246 
f 243 240 246 
f 244 239 247 
f 241 244 247 
f 239 243 248 
f 243 246 248 
f 239 245 249 
f 247 239 249 
f 245 247 249 
f 240 243 250 
f 244 240 250 
f 243 244 250 
f 245 241 251 
f 241 247 251 
f 247 245 251 
f 246 242 252 
f 242 248 252 
f 248 246 252 
f 242 239 253 
f 239 248 253 
o convex_13
v -0.009977 -0.079128 0.001239
v -0.007225 -0.069771 0.009495
v -0.011078 -0.069771 0.009495
v -0.007225 -0.069771 0.001239
v -0.012729 -0.072523 0.001239
v -0.012729 -0.079128 0.009495
v -0.009428 -0.078027 0.009495
v -0.012729 -0.079128 0.001239
v -0.012729 -0.072523 0.009495
v -0.011078 -0.069771 0.001239
v -0.007225 -0.071423 0.001239
v -0.007225 -0.071423 0.009495
v -0.009977 -0.079128 0.009495
v -0.008877 -0.076651 0.001239
f 264 265 267 
f 256 255 257 
f 257 254 258 
f 255 256 259 
f 255 259 260 
f 258 254 261 
f 259 258 261 
f 254 259 261 
f 256 258 262 
f 259 256 262 
f 258 259 262 
f 256 257 263 
f 257 258 263 
f 258 256 263 
f 257 255 264 
f 254 257 264 
f 255 260 265 
f 264 255 265 
f 259 254 266 
f 254 260 266 
f 260 259 266 
f 260 254 267 
f 254 264 267 
f 265 260 267 
