o convex_0
v 0.003762 -0.084584 0.020330
v -0.015037 -0.074534 -0.000219
v -0.014162 -0.081522 0.000220
v 0.009008 0.033883 -0.000219
v -0.011975 0.028187 0.020330
v 0.009008 0.033883 0.020330
v 0.007260 -0.069277 0.000220
v -0.010226 0.033883 0.000220
v -0.015037 -0.074094 0.020330
v 0.008133 -0.059666 0.019889
v 0.000264 -0.090280 -0.000219
v -0.010664 -0.089840 0.019889
v -0.015037 -0.037822 -0.000219
v -0.011975 0.028187 -0.000219
v -0.015037 -0.037382 0.019889
v -0.010226 0.033883 0.019889
v -0.011102 -0.089401 -0.000219
v 0.008133 -0.059227 -0.000219
v -0.000174 -0.090719 0.019889
v -0.012413 0.028187 0.000220
v 0.004197 -0.084584 0.000220
v 0.009008 0.013770 0.020330
v 0.006384 -0.075400 0.019889
v -0.013289 -0.086340 0.019889
v -0.012413 0.028187 0.019889
v -0.006729 -0.090719 0.000220
v 0.009008 0.013331 0.000220
v 0.002011 -0.088523 0.019889
v -0.007167 -0.090280 0.020330
v -0.013289 -0.086340 0.000220
v 0.007695 -0.059666 0.020330
v 0.004197 -0.084584 0.019889
v 0.006384 -0.075400 0.000220
v -0.006729 -0.090719 0.019889
v 0.002011 -0.088523 -0.000219
v 0.007260 -0.069277 0.019889
v -0.015037 -0.037822 0.020330
v -0.000174 -0.090719 0.000220
v -0.012413 -0.088084 0.019889
v -0.014162 -0.081522 0.019889
v -0.009789 0.033883 0.020330
v -0.009789 0.033883 -0.000219
v -0.011975 -0.088084 0.020330
v -0.010664 -0.089840 0.000220
v -0.015037 -0.037382 0.000220
v -0.012413 -0.088084 0.000220
v 0.005073 -0.080205 -0.000219
v -0.000174 -0.090280 0.020330
v 0.003324 -0.086340 0.019889
v 0.008133 -0.059666 0.000220
f 27 10 50 
f 5 1 6 
f 6 4 8 
f 1 5 9 
f 2 4 11 
f 4 2 13 
f 2 9 13 
f 4 13 14 
f 13 9 15 
f 6 8 16 
f 2 11 17 
f 11 4 18 
f 8 14 20 
f 14 13 20 
f 16 8 20 
f 6 1 22 
f 4 6 22 
f 5 16 25 
f 20 15 25 
f 16 20 25 
f 17 11 26 
f 18 4 27 
f 4 22 27 
f 22 10 27 
f 19 11 28 
f 1 9 29 
f 3 2 30 
f 2 17 30 
f 24 3 30 
f 22 1 31 
f 10 22 31 
f 1 23 31 
f 23 1 32 
f 21 23 32 
f 18 7 33 
f 7 23 33 
f 23 21 33 
f 12 26 34 
f 26 19 34 
f 19 29 34 
f 29 12 34 
f 11 18 35 
f 28 11 35 
f 7 10 36 
f 23 7 36 
f 10 31 36 
f 31 23 36 
f 9 5 37 
f 15 9 37 
f 5 25 37 
f 25 15 37 
f 11 19 38 
f 26 11 38 
f 19 26 38 
f 17 12 39 
f 24 30 39 
f 2 3 40 
f 9 2 40 
f 3 24 40 
f 24 9 40 
f 5 6 41 
f 16 5 41 
f 6 16 41 
f 8 4 42 
f 4 14 42 
f 14 8 42 
f 9 24 43 
f 29 9 43 
f 12 29 43 
f 39 12 43 
f 24 39 43 
f 12 17 44 
f 17 26 44 
f 26 12 44 
f 13 15 45 
f 20 13 45 
f 15 20 45 
f 30 17 46 
f 17 39 46 
f 39 30 46 
f 18 33 47 
f 33 21 47 
f 35 18 47 
f 21 35 47 
f 28 1 48 
f 19 28 48 
f 1 29 48 
f 29 19 48 
f 1 28 49 
f 32 1 49 
f 21 32 49 
f 28 35 49 
f 35 21 49 
f 10 7 50 
f 7 18 50 
f 18 27 50 
o convex_1
v 0.009444 0.033883 -0.000219
v 0.007255 0.060552 0.019889
v 0.007255 0.060552 0.000220
v -0.023781 0.060113 0.019889
v 0.009006 0.033883 0.020330
v -0.010224 0.033883 0.000220
v 0.024310 0.052243 0.019889
v -0.023344 0.060552 -0.000219
v -0.010224 0.033883 0.019889
v 0.023873 0.050494 -0.000219
v -0.023344 0.060552 0.020330
v 0.023873 0.050494 0.020330
v 0.019937 0.054866 0.000220
v -0.023781 0.060113 0.000220
v 0.024310 0.050494 0.019889
v -0.009791 0.033883 -0.000219
v -0.009791 0.033883 0.020330
v 0.024310 0.050494 0.000220
v 0.010320 0.034760 0.019889
v 0.019937 0.054866 0.019889
v 0.023873 0.052679 0.000220
v 0.006817 0.060552 -0.000219
v 0.007255 0.060113 0.020330
v 0.010320 0.034760 0.000220
v 0.023873 0.052243 0.020330
v 0.023873 0.052243 -0.000219
v 0.024310 0.052243 0.000220
v 0.023873 0.052679 0.019889
f 70 75 78 
f 51 55 56 
f 52 53 58 
f 54 56 59 
f 56 55 59 
f 51 58 60 
f 52 58 61 
f 58 54 61 
f 61 55 62 
f 53 52 63 
f 56 54 64 
f 54 58 64 
f 57 62 65 
f 51 56 66 
f 58 51 66 
f 56 64 66 
f 64 58 66 
f 54 59 67 
f 59 55 67 
f 55 61 67 
f 61 54 67 
f 51 60 68 
f 57 65 68 
f 68 65 69 
f 55 51 69 
f 62 55 69 
f 65 62 69 
f 63 52 70 
f 63 70 71 
f 58 53 72 
f 60 58 72 
f 53 63 72 
f 52 61 73 
f 61 62 73 
f 70 52 73 
f 51 68 74 
f 68 69 74 
f 69 51 74 
f 62 57 75 
f 73 62 75 
f 70 73 75 
f 68 60 76 
f 63 71 76 
f 60 72 76 
f 72 63 76 
f 57 68 77 
f 71 57 77 
f 68 76 77 
f 76 71 77 
f 71 70 78 
f 57 71 78 
f 75 57 78 
o convex_2
v -0.024217 0.060552 0.000220
v -0.000175 0.090719 0.019889
v 0.002012 0.089405 0.020330
v 0.002012 0.089405 -0.000219
v 0.005510 0.060552 0.019889
v -0.023780 0.060552 0.020330
v 0.005510 0.060552 -0.000219
v -0.019406 0.076288 0.000220
v -0.019406 0.076288 0.019889
v 0.006382 0.075417 0.019889
v -0.004983 0.089842 0.000220
v 0.006382 0.075417 0.000220
v -0.012849 0.083720 0.019889
v -0.023780 0.065799 -0.000219
v -0.024217 0.065365 0.019889
v 0.004198 0.085471 0.000220
v -0.004983 0.089405 0.020330
v 0.005073 0.060552 0.020330
v -0.013290 0.083283 0.000220
v 0.006382 0.066676 0.019889
v 0.004198 0.085471 0.019889
v -0.000175 0.090719 0.000220
v 0.006382 0.066676 0.000220
v -0.012849 0.083283 -0.000219
v -0.004983 0.089842 0.019889
v -0.024217 0.065365 0.000220
v -0.018969 0.076288 0.020330
v 0.002012 0.089842 0.019889
v -0.023780 0.060552 -0.000219
v -0.001925 0.090719 0.019889
v -0.022030 0.070612 0.019889
v -0.024217 0.060552 0.019889
v 0.005948 0.075417 0.020330
v 0.002012 0.089842 0.000220
v 0.005948 0.075417 -0.000219
v -0.020281 0.074543 0.000220
v -0.001925 0.090719 0.000220
v -0.004983 0.089405 -0.000219
v -0.012849 0.083720 0.000220
v -0.018969 0.076288 -0.000219
f 92 114 118 
f 79 83 84 
f 83 79 85 
f 82 85 92 
f 88 90 94 
f 81 80 95 
f 84 81 95 
f 81 84 96 
f 84 83 96 
f 86 87 97 
f 87 91 97 
f 83 85 98 
f 90 88 98 
f 96 83 98 
f 88 94 99 
f 98 85 101 
f 90 98 101 
f 82 92 102 
f 89 91 103 
f 91 95 103 
f 92 79 104 
f 79 93 104 
f 91 87 105 
f 93 84 105 
f 84 95 105 
f 95 91 105 
f 80 81 106 
f 81 99 106 
f 99 94 106 
f 100 80 106 
f 85 79 107 
f 79 92 107 
f 92 85 107 
f 95 80 108 
f 80 100 108 
f 89 103 108 
f 103 95 108 
f 104 93 109 
f 105 87 109 
f 93 105 109 
f 79 84 110 
f 93 79 110 
f 84 93 110 
f 81 96 111 
f 98 88 111 
f 96 98 111 
f 99 81 111 
f 88 99 111 
f 94 82 112 
f 82 100 112 
f 106 94 112 
f 100 106 112 
f 85 82 113 
f 82 94 113 
f 94 90 113 
f 101 85 113 
f 90 101 113 
f 87 86 114 
f 92 104 114 
f 109 87 114 
f 104 109 114 
f 100 82 115 
f 108 100 115 
f 89 108 115 
f 82 102 116 
f 102 89 116 
f 115 82 116 
f 89 115 116 
f 91 89 117 
f 97 91 117 
f 89 102 117 
f 102 97 117 
f 86 97 118 
f 102 92 118 
f 97 102 118 
f 114 86 118 
