o convex_0
v -0.006302 -0.051144 0.000192
v 0.005864 0.029089 0.020341
v 0.006244 0.029089 0.019960
v 0.007005 -0.051136 0.019960
v 0.007004 0.021094 -0.000188
v -0.006304 0.029089 0.019580
v -0.006304 0.029089 0.000194
v -0.005923 -0.051136 0.020341
v 0.007005 -0.051136 -0.000186
v 0.005864 0.029089 -0.000186
v 0.007004 0.021479 0.019962
v -0.005923 -0.051136 -0.000186
v -0.005543 0.029089 0.020341
v -0.006302 -0.051144 0.019962
v 0.006624 -0.051136 0.020341
v -0.005923 0.029089 -0.000186
v 0.006244 0.029089 0.000194
v 0.006624 0.021479 0.020341
f 15 11 18 
f 2 3 6 
f 1 6 7 
f 6 3 7 
f 4 1 9 
f 7 3 10 
f 3 2 11 
f 4 9 11 
f 9 5 11 
f 9 1 12 
f 5 9 12 
f 2 6 13 
f 8 2 13 
f 6 8 13 
f 1 4 14 
f 6 1 14 
f 8 6 14 
f 8 14 15 
f 2 8 15 
f 4 11 15 
f 14 4 15 
f 1 7 16 
f 10 5 16 
f 7 10 16 
f 12 1 16 
f 5 12 16 
f 5 10 17 
f 10 3 17 
f 3 11 17 
f 11 5 17 
f 11 2 18 
f 2 15 18 
o convex_1
v 0.011948 0.059514 -0.000188
v 0.012708 0.082320 0.020341
v 0.013090 0.082323 0.019960
v 0.010808 0.082320 0.000194
v 0.007005 0.054188 0.020341
v 0.016131 0.066736 0.019960
v 0.016131 0.072436 0.000194
v 0.007005 0.072433 -0.000188
v 0.007005 0.072433 0.019960
v 0.007005 0.053806 0.000194
v 0.016131 0.066736 0.000194
v 0.012708 0.082320 -0.000188
v 0.010808 0.082320 0.019960
v 0.015370 0.076238 0.019580
v 0.014229 0.062555 0.019580
v 0.008147 0.054569 0.019960
v 0.015370 0.076238 0.000194
v 0.016131 0.072436 0.019960
v 0.015750 0.066736 0.020341
v 0.014229 0.062555 0.000194
v 0.008147 0.054569 0.000194
v 0.012708 0.082705 0.000194
v 0.007005 0.072054 0.020341
v 0.015750 0.066357 -0.000188
v 0.007005 0.054188 -0.000188
v 0.012328 0.059893 0.019580
v 0.013090 0.082323 0.000194
v 0.011189 0.082705 0.019960
v 0.007386 0.053806 0.019960
v 0.015370 0.064835 0.000194
v 0.012328 0.059893 0.000194
v 0.011189 0.082705 0.000194
v 0.012708 0.082705 0.019960
f 40 46 51 
f 26 23 27 
f 22 26 27 
f 23 26 28 
f 25 24 29 
f 26 22 30 
f 19 26 30 
f 22 27 31 
f 21 20 32 
f 25 30 35 
f 21 32 35 
f 32 25 35 
f 24 25 36 
f 32 20 36 
f 25 32 36 
f 20 23 37 
f 33 24 37 
f 23 34 37 
f 34 33 37 
f 36 20 37 
f 24 36 37 
f 23 20 41 
f 27 23 41 
f 20 31 41 
f 31 27 41 
f 25 29 42 
f 30 25 42 
f 19 30 42 
f 38 19 42 
f 26 19 43 
f 28 26 43 
f 19 39 43 
f 39 28 43 
f 33 34 44 
f 38 33 44 
f 34 39 44 
f 35 30 45 
f 21 35 45 
f 40 21 45 
f 30 40 45 
f 31 20 46 
f 22 31 46 
f 23 28 47 
f 34 23 47 
f 28 39 47 
f 39 34 47 
f 29 24 48 
f 24 33 48 
f 33 38 48 
f 42 29 48 
f 38 42 48 
f 19 38 49 
f 39 19 49 
f 38 44 49 
f 44 39 49 
f 30 22 50 
f 40 30 50 
f 22 46 50 
f 46 40 50 
f 20 21 51 
f 21 40 51 
f 46 20 51 
o convex_2
v -0.006302 0.029089 0.000194
v 0.007005 0.056848 0.020341
v -0.006683 0.056848 0.020341
v 0.007005 0.056848 -0.000188
v 0.006244 0.029089 0.019960
v -0.007064 0.056848 -0.000188
v 0.005864 0.029089 -0.000188
v -0.006302 0.029089 0.019580
v 0.007005 0.034415 0.000194
v -0.007064 0.048479 0.019960
v -0.005542 0.029089 0.020341
v 0.007005 0.034415 0.019960
v -0.007064 0.048859 -0.000188
v 0.005864 0.029089 0.020341
v -0.005922 0.029089 -0.000188
v -0.007064 0.056848 0.019960
v 0.006244 0.029089 0.000194
f 58 60 68 
f 54 53 55 
f 54 55 57 
f 57 55 58 
f 56 52 58 
f 52 56 59 
f 55 53 60 
f 58 55 60 
f 52 59 61 
f 61 59 62 
f 53 54 62 
f 59 56 62 
f 54 61 62 
f 60 53 63 
f 56 60 63 
f 57 58 64 
f 52 61 64 
f 61 57 64 
f 53 62 65 
f 62 56 65 
f 63 53 65 
f 56 63 65 
f 58 52 66 
f 64 58 66 
f 52 64 66 
f 54 57 67 
f 57 61 67 
f 61 54 67 
f 56 58 68 
f 60 56 68 
o convex_3
v -0.016189 -0.078142 0.019960
v -0.005925 -0.090689 0.000194
v -0.008966 -0.088788 0.000194
v -0.006685 -0.078142 0.000194
v -0.004783 -0.090308 0.019960
v -0.006685 -0.078142 0.019580
v -0.016189 -0.078142 0.000194
v -0.015048 -0.082706 0.019580
v -0.004783 -0.085745 0.000194
v -0.015048 -0.082326 -0.000188
v -0.008966 -0.088788 0.019580
v -0.004783 -0.085745 0.019960
v -0.005164 -0.090308 -0.000188
v -0.005925 -0.090308 0.020341
v -0.007445 -0.078142 0.020341
v -0.014667 -0.082326 0.020341
v -0.007066 -0.078142 -0.000188
v -0.015048 -0.082706 0.000194
v -0.016189 -0.079284 0.019960
v -0.004783 -0.090308 0.000194
v -0.005925 -0.090689 0.019960
v -0.016189 -0.079284 0.000194
v -0.015808 -0.078142 -0.000188
v -0.015808 -0.078142 0.020341
v -0.005164 -0.090689 0.019960
f 82 89 93 
f 72 69 74 
f 69 72 75 
f 72 74 77 
f 71 70 79 
f 76 71 79 
f 73 77 80 
f 77 74 80 
f 70 71 81 
f 71 78 81 
f 73 80 82 
f 82 80 83 
f 74 69 83 
f 80 74 83 
f 76 79 84 
f 79 82 84 
f 82 83 84 
f 75 72 85 
f 72 77 85 
f 77 81 85 
f 81 78 85 
f 71 76 86 
f 78 71 86 
f 69 75 87 
f 76 84 87 
f 86 76 87 
f 77 73 88 
f 70 81 88 
f 81 77 88 
f 79 70 89 
f 82 79 89 
f 78 86 90 
f 87 75 90 
f 86 87 90 
f 75 85 91 
f 85 78 91 
f 90 75 91 
f 78 90 91 
f 83 69 92 
f 84 83 92 
f 69 87 92 
f 87 84 92 
f 73 82 93 
f 70 88 93 
f 88 73 93 
f 89 70 93 
o convex_4
v -0.016190 -0.078139 0.000194
v -0.000600 -0.051146 0.020341
v -0.000600 -0.051146 -0.000188
v -0.000600 -0.072056 0.019960
v -0.016190 -0.073576 0.019960
v -0.000600 -0.071676 -0.000188
v -0.007064 -0.051524 0.000194
v -0.007064 -0.078139 0.020341
v -0.007064 -0.051524 0.019960
v -0.006684 -0.078139 0.000194
v -0.015809 -0.078139 0.020341
v -0.015049 -0.070915 -0.000188
v -0.006304 -0.051146 0.020341
v -0.014287 -0.068634 0.000194
v -0.016190 -0.073576 0.000194
v -0.006304 -0.051146 -0.000188
v -0.015809 -0.078139 -0.000188
v -0.014287 -0.068634 0.019960
v -0.000600 -0.071676 0.020341
v -0.000600 -0.072056 0.000194
v -0.006684 -0.078139 0.019960
v -0.016190 -0.078139 0.019960
v -0.007064 -0.078139 -0.000188
v -0.014669 -0.070534 0.020341
f 102 111 117 
f 96 95 97 
f 96 97 99 
f 101 94 103 
f 101 95 104 
f 94 101 104 
f 96 99 105 
f 95 96 106 
f 100 102 106 
f 104 95 106 
f 102 100 107 
f 100 105 107 
f 107 105 108 
f 94 98 108 
f 98 107 108 
f 96 105 109 
f 105 100 109 
f 106 96 109 
f 100 106 109 
f 103 94 110 
f 105 99 110 
f 108 105 110 
f 94 108 110 
f 107 98 111 
f 102 107 111 
f 97 95 112 
f 95 101 112 
f 101 97 112 
f 99 97 113 
f 97 103 113 
f 97 101 114 
f 103 97 114 
f 101 103 114 
f 98 94 115 
f 94 104 115 
f 104 98 115 
f 103 110 116 
f 110 99 116 
f 99 113 116 
f 113 103 116 
f 98 104 117 
f 106 102 117 
f 104 106 117 
f 111 98 117 
o convex_5
v 0.008146 -0.073196 -0.000188
v 0.006625 -0.051144 0.020341
v -0.000600 -0.051144 0.020341
v -0.000600 -0.051144 -0.000188
v -0.000600 -0.071675 0.019960
v 0.008146 -0.072814 0.020341
v 0.008145 -0.054570 0.000194
v -0.000600 -0.071295 -0.000188
v 0.007004 -0.051144 -0.000188
v 0.008145 -0.054570 0.019960
v 0.007765 -0.073196 0.019960
v -0.000600 -0.071675 0.000194
v -0.000600 -0.071295 0.020341
v 0.007004 -0.051144 0.019960
v 0.007765 -0.073196 -0.000188
f 128 129 132 
f 120 119 121 
f 120 121 122 
f 119 120 123 
f 123 118 124 
f 121 118 125 
f 122 121 125 
f 121 119 126 
f 118 121 126 
f 124 118 126 
f 124 126 127 
f 119 123 127 
f 123 124 127 
f 118 123 128 
f 122 125 129 
f 128 122 129 
f 120 122 130 
f 123 120 130 
f 122 128 130 
f 128 123 130 
f 126 119 131 
f 127 126 131 
f 119 127 131 
f 125 118 132 
f 118 128 132 
f 129 125 132 
o convex_6
v 0.013088 -0.083463 0.000194
v 0.008527 -0.056470 0.020341
v 0.008527 -0.056093 0.019960
v 0.016131 -0.066737 0.019960
v 0.012708 -0.060274 -0.000188
v 0.011949 -0.083463 0.019960
v 0.008146 -0.073576 -0.000188
v 0.016131 -0.073576 0.000194
v 0.008146 -0.056093 -0.000188
v 0.008146 -0.073195 0.020341
v 0.016131 -0.073576 0.019580
v 0.015371 -0.063694 0.000194
v 0.015371 -0.063694 0.019580
v 0.010808 -0.081561 0.000194
v 0.013088 -0.083463 0.019960
v 0.008146 -0.056093 0.019960
v 0.015750 -0.073195 0.020341
v 0.010808 -0.081561 0.019580
v 0.016131 -0.066737 0.000194
v 0.012328 -0.083463 -0.000188
v 0.013088 -0.060654 0.019960
v 0.015750 -0.073576 -0.000188
v 0.012328 -0.083082 0.020341
v 0.008527 -0.056093 -0.000188
v 0.014610 -0.063694 0.020341
v 0.012328 -0.083846 0.000194
v 0.015371 -0.076238 0.000194
v 0.008146 -0.073576 0.019960
f 150 142 160 
f 137 139 141 
f 141 139 142 
f 140 136 143 
f 136 144 145 
f 134 135 148 
f 135 141 148 
f 141 142 148 
f 142 134 148 
f 134 142 149 
f 143 136 149 
f 147 143 149 
f 138 142 150 
f 146 138 150 
f 139 146 150 
f 136 140 151 
f 144 136 151 
f 137 144 151 
f 139 137 152 
f 146 139 152 
f 135 134 153 
f 137 135 153 
f 144 137 153 
f 145 144 153 
f 137 151 154 
f 151 140 154 
f 133 152 154 
f 152 137 154 
f 142 138 155 
f 138 147 155 
f 149 142 155 
f 147 149 155 
f 135 137 156 
f 141 135 156 
f 137 141 156 
f 136 145 157 
f 134 149 157 
f 149 136 157 
f 153 134 157 
f 145 153 157 
f 138 146 158 
f 133 147 158 
f 147 138 158 
f 152 133 158 
f 146 152 158 
f 140 143 159 
f 147 133 159 
f 143 147 159 
f 133 154 159 
f 154 140 159 
f 142 139 160 
f 139 150 160 
o convex_7
v -0.014288 0.068638 0.000194
v -0.005164 0.090306 0.020341
v -0.004783 0.090306 0.019960
v -0.003642 0.056848 0.020341
v -0.016189 0.073583 0.019960
v -0.005164 0.090306 -0.000188
v -0.003642 0.056848 -0.000188
v -0.015048 0.082322 -0.000188
v -0.008206 0.057610 0.019960
v -0.013147 0.085363 0.019960
v -0.003643 0.075097 0.000194
v -0.007444 0.056848 0.000194
v -0.015809 0.080421 0.020341
v -0.016189 0.073583 0.000194
v -0.008966 0.088785 0.000194
v -0.003643 0.075097 0.019580
v -0.016189 0.080421 0.000194
v -0.005924 0.090690 0.019960
v -0.014288 0.068638 0.019960
v -0.013147 0.085363 0.000194
v -0.004783 0.090306 0.000194
v -0.007065 0.056848 0.020341
v -0.016189 0.080421 0.019960
v -0.008206 0.057610 0.000194
v -0.015048 0.070920 -0.000188
v -0.005924 0.090690 0.000194
v -0.015048 0.082703 0.019580
v -0.008966 0.088785 0.019580
v -0.013907 0.068638 0.020341
v -0.003643 0.073580 0.020341
v -0.015048 0.082703 0.000194
v -0.007825 0.057610 -0.000188
v -0.012766 0.085744 0.019960
v -0.005164 0.090690 0.019960
v -0.003643 0.073958 -0.000188
f 166 181 195 
f 166 167 168 
f 164 167 171 
f 167 164 172 
f 164 162 173 
f 161 165 174 
f 166 168 175 
f 171 163 176 
f 164 171 176 
f 174 165 177 
f 168 174 177 
f 165 161 179 
f 161 169 179 
f 175 168 180 
f 163 171 181 
f 172 164 182 
f 169 172 182 
f 164 173 182 
f 165 173 183 
f 173 170 183 
f 177 165 183 
f 169 161 184 
f 172 169 184 
f 168 167 185 
f 161 174 185 
f 174 168 185 
f 166 175 186 
f 175 178 186 
f 181 166 186 
f 170 180 187 
f 183 170 187 
f 177 183 187 
f 178 175 188 
f 173 165 189 
f 165 179 189 
f 179 169 189 
f 169 182 189 
f 182 173 189 
f 163 162 190 
f 162 164 190 
f 176 163 190 
f 164 176 190 
f 168 177 191 
f 180 168 191 
f 177 187 191 
f 187 180 191 
f 167 172 192 
f 184 161 192 
f 172 184 192 
f 185 167 192 
f 161 185 192 
f 173 162 193 
f 170 173 193 
f 162 178 193 
f 180 170 193 
f 175 180 193 
f 188 175 193 
f 178 188 193 
f 162 163 194 
f 178 162 194 
f 163 181 194 
f 186 178 194 
f 181 186 194 
f 167 166 195 
f 171 167 195 
f 181 171 195 
o convex_8
v -0.002119 0.073575 0.019960
v -0.003641 0.056848 -0.000188
v -0.003641 0.073575 -0.000188
v 0.007005 0.062172 -0.000188
v 0.007004 0.056848 0.020341
v 0.007005 0.072056 0.019960
v -0.003641 0.056848 0.020341
v 0.007005 0.072056 -0.000188
v 0.007004 0.056848 -0.000188
v -0.003641 0.073195 0.020341
v -0.003260 0.073959 0.000194
v 0.007005 0.071676 0.020341
v -0.003260 0.073959 0.019580
f 206 198 208 
f 197 198 199 
f 198 197 202 
f 197 200 202 
f 199 198 203 
f 201 199 203 
f 197 199 204 
f 199 200 204 
f 200 197 204 
f 198 202 205 
f 202 200 205 
f 203 198 206 
f 201 203 206 
f 200 199 207 
f 201 196 207 
f 199 201 207 
f 196 205 207 
f 205 200 207 
f 196 201 208 
f 205 196 208 
f 198 205 208 
f 201 206 208 
