o convex_0
v 0.012434 -0.080529 0.020136
v -0.007922 -0.087170 0.000223
v -0.007478 -0.087620 -0.000221
v 0.013763 0.021231 -0.000221
v -0.005708 0.021242 0.020136
v -0.007478 -0.087620 0.020136
v -0.005708 0.021242 0.000223
v 0.011549 -0.083181 -0.000221
v 0.013763 0.021231 0.020136
v 0.013763 -0.066369 0.000223
v -0.007922 -0.030980 0.019691
v 0.001373 -0.089834 0.019691
v -0.007922 -0.030980 0.000223
v 0.013763 -0.066369 0.019691
v -0.001726 -0.090721 0.000223
v 0.007567 -0.087620 0.020136
v -0.005266 0.021242 -0.000221
v 0.007567 -0.087620 0.000223
v -0.004381 -0.090721 0.020136
v -0.007922 -0.087170 0.019691
v 0.012876 -0.080090 0.000223
v 0.011549 -0.083630 0.020136
v -0.006149 -0.089834 0.000223
v 0.012876 -0.080090 0.019691
v 0.013319 -0.066369 -0.000221
v -0.006593 -0.089384 0.020136
v -0.007478 -0.030542 -0.000221
v -0.004823 -0.090272 -0.000221
v -0.001726 -0.090721 0.020136
v 0.011549 -0.083630 0.000223
v -0.007478 -0.030542 0.020136
v 0.013319 -0.066818 0.020136
v -0.004381 -0.090721 0.000223
v 0.001373 -0.089834 0.000223
v 0.007123 -0.087620 -0.000221
f 18 34 35 
f 1 5 6 
f 3 4 8 
f 5 1 9 
f 4 9 10 
f 5 7 11 
f 3 2 13 
f 2 11 13 
f 11 7 13 
f 10 9 14 
f 1 6 16 
f 4 3 17 
f 7 5 17 
f 9 4 17 
f 5 9 17 
f 16 12 18 
f 16 6 19 
f 11 2 20 
f 6 11 20 
f 10 14 21 
f 1 16 22 
f 16 18 22 
f 2 3 23 
f 14 1 24 
f 21 14 24 
f 1 22 24 
f 22 21 24 
f 8 4 25 
f 4 10 25 
f 21 8 25 
f 10 21 25 
f 19 6 26 
f 20 2 26 
f 6 20 26 
f 2 23 26 
f 23 19 26 
f 3 13 27 
f 13 7 27 
f 17 3 27 
f 7 17 27 
f 3 8 28 
f 23 3 28 
f 15 12 29 
f 12 16 29 
f 19 15 29 
f 16 19 29 
f 8 21 30 
f 22 18 30 
f 21 22 30 
f 6 5 31 
f 11 6 31 
f 5 11 31 
f 9 1 32 
f 1 14 32 
f 14 9 32 
f 15 19 33 
f 19 23 33 
f 28 15 33 
f 23 28 33 
f 12 15 34 
f 18 12 34 
f 28 8 35 
f 15 28 35 
f 8 30 35 
f 30 18 35 
f 34 15 35 
o convex_1
v -0.027834 0.039834 0.000223
v -0.020312 0.077444 0.020136
v -0.020754 0.077888 0.019691
v -0.008809 0.056645 -0.000221
v -0.008809 0.029208 0.020136
v -0.028721 0.041606 0.020136
v -0.022524 0.077440 -0.000221
v -0.008809 0.029208 -0.000221
v -0.008809 0.056645 0.020136
v -0.028721 0.060624 0.019691
v -0.028721 0.060624 0.000223
v -0.019427 0.076558 0.000223
v -0.026064 0.038061 0.019691
v -0.025622 0.071688 0.019691
v -0.026507 0.038504 -0.000221
v -0.028721 0.041606 0.000223
v -0.025622 0.071688 0.000223
v -0.022524 0.077440 0.020136
v -0.019427 0.076558 0.020136
v -0.009251 0.029208 -0.000221
v -0.028277 0.060624 -0.000221
v -0.009251 0.029208 0.020136
v -0.026064 0.038061 0.000223
v -0.028721 0.060181 0.020136
v -0.020754 0.077888 0.000223
v -0.027834 0.064164 0.000223
v -0.027392 0.039391 0.020136
v -0.023852 0.075224 0.000223
v -0.022082 0.077888 0.019691
v -0.027834 0.064164 0.019691
v -0.019427 0.076110 -0.000221
v -0.028277 0.041606 -0.000221
v -0.023852 0.075224 0.019691
f 53 63 68 
f 40 37 41 
f 39 40 43 
f 42 39 43 
f 40 39 44 
f 37 40 44 
f 41 45 46 
f 38 37 47 
f 44 39 47 
f 42 43 50 
f 48 36 50 
f 36 41 51 
f 41 46 51 
f 41 37 53 
f 37 44 54 
f 47 37 54 
f 44 47 54 
f 43 40 55 
f 50 43 55 
f 42 50 56 
f 51 46 56 
f 52 42 56 
f 40 41 57 
f 55 40 57 
f 48 55 57 
f 48 50 58 
f 55 48 58 
f 50 55 58 
f 45 41 59 
f 41 53 59 
f 53 49 59 
f 38 47 60 
f 46 45 61 
f 49 52 61 
f 56 46 61 
f 52 56 61 
f 41 36 62 
f 36 48 62 
f 57 41 62 
f 48 57 62 
f 42 52 63 
f 52 49 63 
f 53 42 63 
f 37 38 64 
f 53 37 64 
f 42 53 64 
f 38 60 64 
f 60 42 64 
f 45 59 65 
f 59 49 65 
f 61 45 65 
f 49 61 65 
f 39 42 66 
f 47 39 66 
f 42 60 66 
f 60 47 66 
f 50 36 67 
f 36 51 67 
f 56 50 67 
f 51 56 67 
f 49 53 68 
f 63 49 68 
o convex_2
v 0.028809 0.054432 0.019691
v -0.008807 0.027442 0.000223
v -0.008807 0.027442 0.019691
v -0.008807 0.056642 -0.000221
v 0.014644 0.021688 -0.000221
v 0.028364 0.065939 -0.000221
v -0.008807 0.056642 0.020136
v 0.014202 0.021242 0.020136
v 0.013761 0.065939 0.020136
v -0.005265 0.021242 -0.000221
v 0.028364 0.065939 0.020136
v 0.028809 0.054432 0.000223
v -0.005707 0.021242 0.020136
v 0.013761 0.065939 0.000223
v 0.027922 0.051776 0.019691
v 0.028809 0.065939 0.000223
v 0.014202 0.021242 -0.000221
v 0.027922 0.051776 0.000223
v 0.014644 0.021688 0.020136
v -0.006590 0.022572 -0.000221
v 0.028809 0.065939 0.019691
v 0.027480 0.051335 0.020136
v 0.028364 0.054432 -0.000221
v 0.014202 0.065939 -0.000221
v -0.006590 0.022572 0.020136
v -0.008807 0.028772 -0.000221
v -0.008807 0.028772 0.020136
f 93 75 95 
f 70 71 72 
f 73 72 74 
f 72 71 75 
f 75 76 77 
f 72 75 77 
f 72 73 78 
f 77 76 79 
f 74 77 79 
f 76 75 81 
f 78 76 81 
f 77 74 82 
f 72 77 82 
f 80 69 83 
f 74 79 84 
f 69 80 84 
f 80 74 84 
f 73 76 85 
f 78 73 85 
f 76 78 85 
f 83 73 86 
f 80 83 86 
f 76 73 87 
f 79 76 87 
f 73 83 87 
f 71 70 88 
f 72 78 88 
f 78 81 88 
f 79 69 89 
f 69 84 89 
f 84 79 89 
f 69 79 90 
f 83 69 90 
f 79 87 90 
f 87 83 90 
f 73 74 91 
f 74 80 91 
f 86 73 91 
f 80 86 91 
f 74 72 92 
f 72 82 92 
f 82 74 92 
f 81 75 93 
f 71 88 93 
f 88 81 93 
f 70 72 94 
f 88 70 94 
f 72 88 94 
f 75 71 95 
f 71 93 95 
o convex_3
v 0.016420 0.085853 0.019691
v 0.007125 0.088504 0.000223
v 0.007125 0.088504 0.019691
v 0.014208 0.065939 0.020136
v 0.028809 0.065939 0.000223
v 0.014208 0.065939 0.000223
v 0.028809 0.065939 0.019691
v 0.023940 0.078330 0.000223
v 0.009782 0.090275 -0.000221
v 0.025710 0.075232 0.020136
v 0.009339 0.090721 0.020136
v 0.014647 0.087623 0.000223
v 0.027922 0.071251 0.000223
v 0.028366 0.065939 -0.000221
v 0.023940 0.078330 0.019691
v 0.014647 0.065939 -0.000221
v 0.028809 0.068154 0.019691
v 0.008453 0.090721 0.000223
v 0.014647 0.087623 0.019691
v 0.027922 0.071251 0.019691
v 0.023499 0.078330 -0.000221
v 0.007125 0.089389 0.019691
v 0.028366 0.065939 0.020136
v 0.011109 0.089836 0.000223
v 0.028809 0.068154 0.000223
v 0.007568 0.089389 -0.000221
v 0.007568 0.088504 0.020136
v 0.008453 0.090721 0.019691
v 0.007125 0.089389 0.000223
v 0.009339 0.090721 0.000223
v 0.011109 0.089836 0.019691
f 114 119 126 
f 98 97 99 
f 99 97 101 
f 100 99 101 
f 99 100 102 
f 99 105 106 
f 96 103 107 
f 103 105 108 
f 100 101 109 
f 103 96 110 
f 96 105 110 
f 105 103 110 
f 101 97 111 
f 109 101 111 
f 104 109 111 
f 102 100 112 
f 105 96 114 
f 106 105 114 
f 96 107 114 
f 108 105 115 
f 105 112 115 
f 112 108 115 
f 107 103 116 
f 104 107 116 
f 103 108 116 
f 109 104 116 
f 108 109 116 
f 97 98 117 
f 99 102 118 
f 105 99 118 
f 102 112 118 
f 112 105 118 
f 107 104 119 
f 114 107 119 
f 100 109 120 
f 109 108 120 
f 112 100 120 
f 108 112 120 
f 111 97 121 
f 104 111 121 
f 113 104 121 
f 98 99 122 
f 99 106 122 
f 117 98 122 
f 106 117 122 
f 106 113 123 
f 117 106 123 
f 113 117 123 
f 97 117 124 
f 117 113 124 
f 121 97 124 
f 113 121 124 
f 104 113 125 
f 113 106 125 
f 119 104 125 
f 106 119 125 
f 106 114 126 
f 119 106 126 
