o convex_0
v -0.006036 -0.056483 -0.000184
v 0.005857 0.038653 0.020256
v 0.006229 0.038653 0.019884
v 0.005857 -0.056493 0.020256
v 0.006229 -0.056493 0.000188
v 0.005857 0.038653 -0.000184
v -0.005292 0.038653 0.019882
v -0.005664 -0.056483 0.020256
v -0.005292 0.038653 0.000188
v -0.006036 -0.022667 0.019882
v 0.006229 0.038653 0.000186
v 0.006229 -0.056493 0.019882
v -0.006036 -0.022667 -0.000184
v 0.005857 -0.056493 -0.000184
v -0.004921 0.038653 0.020256
v -0.006036 -0.056483 0.019882
v -0.004921 0.038653 -0.000184
f 13 9 17 
f 3 2 4 
f 2 3 6 
f 2 6 7 
f 4 2 8 
f 7 6 9 
f 7 9 10 
f 3 5 11 
f 6 3 11 
f 3 4 12 
f 4 5 12 
f 5 3 12 
f 6 1 13 
f 10 9 13 
f 1 10 13 
f 4 1 14 
f 5 4 14 
f 1 6 14 
f 11 5 14 
f 6 11 14 
f 2 7 15 
f 8 2 15 
f 7 10 15 
f 10 8 15 
f 1 4 16 
f 4 8 16 
f 10 1 16 
f 8 10 16 
f 9 6 17 
f 6 13 17 
o convex_1
v -0.012354 0.061699 0.000188
v -0.013469 0.085479 0.020256
v -0.013469 0.085854 0.019882
v -0.005294 0.072471 0.020256
v -0.011983 0.084362 -0.000184
v -0.017185 0.070617 0.019882
v -0.005294 0.051292 -0.000184
v -0.005665 0.051664 0.020256
v -0.017185 0.079535 0.000188
v -0.005294 0.072471 -0.000184
v -0.017185 0.070617 0.000188
v -0.017185 0.079535 0.019882
v -0.015327 0.084362 0.000188
v -0.016070 0.067646 0.019882
v -0.006036 0.051664 0.019882
v -0.015699 0.067274 -0.000184
v -0.005294 0.051292 0.019882
v -0.011983 0.084362 0.019882
v -0.015327 0.084362 0.019882
v -0.013841 0.085854 0.000188
v -0.006036 0.051664 -0.000184
v -0.016814 0.070617 0.020256
v -0.005294 0.072843 0.000188
v -0.005294 0.072843 0.019882
v -0.016814 0.079535 -0.000184
v -0.016070 0.067646 0.000188
v -0.013097 0.085479 -0.000184
v -0.016814 0.079535 0.020256
f 29 39 45 
f 21 19 25 
f 24 22 27 
f 21 24 27 
f 23 26 28 
f 26 23 29 
f 26 29 30 
f 23 28 31 
f 25 31 32 
f 31 18 32 
f 22 24 33 
f 24 21 34 
f 21 25 34 
f 32 24 34 
f 25 32 34 
f 20 19 35 
f 19 21 35 
f 22 20 35 
f 19 20 36 
f 30 29 36 
f 30 36 37 
f 36 20 37 
f 32 18 38 
f 24 32 38 
f 33 24 38 
f 25 19 39 
f 29 23 39 
f 23 31 39 
f 31 25 39 
f 21 27 40 
f 27 22 40 
f 22 35 40 
f 40 35 41 
f 35 21 41 
f 21 40 41 
f 28 26 42 
f 26 30 42 
f 22 33 42 
f 33 28 42 
f 18 31 43 
f 31 28 43 
f 28 33 43 
f 38 18 43 
f 33 38 43 
f 20 22 44 
f 30 37 44 
f 37 20 44 
f 42 30 44 
f 22 42 44 
f 19 36 45 
f 36 29 45 
f 39 19 45 
o convex_2
v 0.013290 -0.082136 0.000188
v 0.007716 -0.061699 0.020256
v 0.007344 -0.061699 0.020256
v 0.007344 -0.087338 0.020256
v 0.014034 -0.078417 0.019882
v 0.007344 -0.061327 -0.000184
v 0.007344 -0.087713 -0.000184
v 0.013290 -0.069876 0.000188
v 0.013290 -0.069876 0.019882
v 0.011060 -0.085478 0.019882
v 0.014034 -0.072849 -0.000184
v 0.010317 -0.064672 0.000188
v 0.010689 -0.085850 0.000188
v 0.012919 -0.082136 0.020256
v 0.014034 -0.072477 0.019882
v 0.010317 -0.064672 0.019882
v 0.014034 -0.078048 -0.000184
v 0.007716 -0.087713 0.019882
v 0.013290 -0.082136 0.019882
v 0.008088 -0.061699 0.000188
v 0.012175 -0.067644 0.000188
v 0.013662 -0.072477 0.020256
v 0.007716 -0.061327 0.019882
v 0.012175 -0.067644 0.019882
v 0.007716 -0.087713 -0.000184
f 58 63 70 
f 47 48 49 
f 49 48 51 
f 49 51 52 
f 52 51 56 
f 46 55 58 
f 47 49 59 
f 49 55 59 
f 53 54 60 
f 50 56 60 
f 56 53 60 
f 50 46 62 
f 56 50 62 
f 52 56 62 
f 49 52 63 
f 55 49 63 
f 58 55 63 
f 46 50 64 
f 55 46 64 
f 50 59 64 
f 59 55 64 
f 57 51 65 
f 61 57 65 
f 54 53 66 
f 56 51 66 
f 53 56 66 
f 51 57 66 
f 57 61 66 
f 47 59 67 
f 59 50 67 
f 60 54 67 
f 50 60 67 
f 48 47 68 
f 51 48 68 
f 47 61 68 
f 65 51 68 
f 61 65 68 
f 61 47 69 
f 54 66 69 
f 66 61 69 
f 47 67 69 
f 67 54 69 
f 46 58 70 
f 62 46 70 
f 52 62 70 
f 63 52 70 
o convex_3
v -0.005293 0.072471 -0.000184
v 0.004371 0.073217 0.020256
v 0.004371 0.073589 0.019882
v 0.004371 0.038653 -0.000184
v -0.005293 0.038653 0.019882
v 0.004371 0.038653 0.020256
v -0.005293 0.072471 0.020256
v 0.004371 0.073217 -0.000184
v -0.005293 0.038653 0.000188
v -0.005293 0.072844 0.000188
v -0.004920 0.038653 0.020256
v -0.004920 0.038653 -0.000184
v 0.003999 0.073589 0.000188
v -0.005293 0.072844 0.019882
f 73 83 84 
f 73 72 74 
f 74 72 76 
f 75 74 76 
f 72 73 77 
f 71 75 77 
f 76 72 77 
f 73 74 78 
f 74 71 78 
f 75 71 79 
f 74 75 79 
f 71 77 80 
f 75 76 81 
f 77 75 81 
f 76 77 81 
f 71 74 82 
f 79 71 82 
f 74 79 82 
f 78 71 83 
f 73 78 83 
f 71 80 83 
f 83 80 84 
f 77 73 84 
f 80 77 84 
o convex_4
v 0.007344 0.053890 0.019882
v 0.004371 0.038654 -0.000184
v 0.004371 0.053890 -0.000184
v 0.004371 0.038654 0.020256
v 0.007344 0.041628 0.000188
v 0.004371 0.053890 0.020256
v 0.007344 0.053890 0.000188
v 0.007344 0.041628 0.019882
v 0.006228 0.038654 0.000188
v 0.006228 0.038654 0.019882
v 0.006972 0.041628 0.020256
v 0.006972 0.041628 -0.000184
v 0.006972 0.053890 0.020256
v 0.006972 0.053890 -0.000184
f 91 96 98 
f 87 86 88 
f 85 87 90 
f 87 88 90 
f 87 85 91 
f 85 89 91 
f 89 85 92 
f 89 92 93 
f 88 86 93 
f 88 93 94 
f 93 92 94 
f 94 92 95 
f 90 88 95 
f 92 85 95 
f 88 94 95 
f 86 87 96 
f 91 89 96 
f 89 93 96 
f 93 86 96 
f 85 90 97 
f 95 85 97 
f 90 95 97 
f 87 91 98 
f 96 87 98 
o convex_5
v 0.017006 0.072472 0.000188
v 0.006973 0.090308 0.020256
v 0.006973 0.090686 0.019882
v 0.004372 0.053891 -0.000184
v 0.007717 0.054637 0.020256
v 0.005115 0.090308 -0.000184
v 0.017006 0.079535 0.019882
v 0.004372 0.073589 0.020256
v 0.014032 0.084361 -0.000184
v 0.004372 0.053891 0.020256
v 0.017006 0.072472 0.019882
v 0.008088 0.054637 0.000188
v 0.004743 0.090308 0.019882
v 0.017006 0.079164 -0.000184
v 0.004372 0.073956 0.000188
v 0.013661 0.084361 0.020256
v 0.009576 0.088824 0.000188
v 0.016263 0.070617 0.019882
v 0.004743 0.090308 0.000188
v 0.008088 0.054637 0.019882
v 0.006973 0.053891 -0.000184
v 0.014032 0.084361 0.019882
v 0.016263 0.081394 0.000188
v 0.006973 0.090686 0.000188
v 0.016635 0.072472 0.020256
v 0.009576 0.088824 0.019882
v 0.016263 0.070617 0.000188
v 0.007344 0.053891 0.019882
v 0.016263 0.081394 0.019882
v 0.005115 0.090686 0.019882
v 0.017006 0.072843 -0.000184
v 0.005115 0.090686 0.000188
v 0.005115 0.090308 0.020256
f 128 111 131 
f 103 100 106 
f 102 104 107 
f 106 102 108 
f 103 106 108 
f 99 105 109 
f 105 99 112 
f 102 107 112 
f 104 102 113 
f 102 106 113 
f 106 111 113 
f 100 103 114 
f 99 109 116 
f 104 113 117 
f 113 111 117 
f 116 103 118 
f 110 116 118 
f 108 102 119 
f 102 112 119 
f 107 115 120 
f 105 112 121 
f 112 107 121 
f 107 120 121 
f 107 104 122 
f 101 115 122 
f 115 107 122 
f 109 105 123 
f 114 103 123 
f 105 114 123 
f 116 109 123 
f 103 116 123 
f 101 100 124 
f 100 114 124 
f 115 101 124 
f 114 120 124 
f 120 115 124 
f 99 116 125 
f 116 110 125 
f 103 108 126 
f 118 103 126 
f 110 118 126 
f 108 119 126 
f 119 110 126 
f 114 105 127 
f 120 114 127 
f 105 121 127 
f 121 120 127 
f 100 101 128 
f 117 111 128 
f 101 122 128 
f 112 99 129 
f 110 119 129 
f 119 112 129 
f 99 125 129 
f 125 110 129 
f 104 117 130 
f 122 104 130 
f 117 128 130 
f 128 122 130 
f 106 100 131 
f 111 106 131 
f 100 128 131 
o convex_6
v -0.013840 -0.073218 0.020256
v -0.006780 -0.088828 0.000188
v -0.010868 -0.085481 -0.000184
v -0.007895 -0.073218 0.000188
v -0.005293 -0.088455 0.020256
v -0.007895 -0.073218 0.019882
v -0.014213 -0.073218 0.000188
v -0.014213 -0.080280 0.019882
v -0.005293 -0.083622 -0.000184
v -0.010868 -0.085853 0.019882
v -0.014213 -0.080280 0.000188
v -0.005293 -0.083252 0.019882
v -0.005293 -0.088455 -0.000184
v -0.006780 -0.088828 0.019882
v -0.011239 -0.085481 0.000188
v -0.013840 -0.073218 -0.000184
v -0.014213 -0.073218 0.019882
v -0.013097 -0.082506 0.019882
v -0.008266 -0.073218 0.020256
v -0.010868 -0.085481 0.020256
v -0.005293 -0.088828 0.000188
v -0.008266 -0.073218 -0.000184
v -0.005665 -0.081765 0.000188
v -0.013097 -0.082506 0.000188
f 146 149 155 
f 135 132 137 
f 132 135 138 
f 139 138 142 
f 136 140 143 
f 133 134 144 
f 134 140 144 
f 140 136 144 
f 141 133 145 
f 134 133 146 
f 133 141 146 
f 138 135 147 
f 140 134 147 
f 134 142 147 
f 142 138 147 
f 132 138 148 
f 139 132 148 
f 138 139 148 
f 139 142 149 
f 146 141 149 
f 132 136 150 
f 137 132 150 
f 143 137 150 
f 136 143 150 
f 136 132 151 
f 132 139 151 
f 145 136 151 
f 141 145 151 
f 139 149 151 
f 149 141 151 
f 133 144 152 
f 144 136 152 
f 145 133 152 
f 136 145 152 
f 135 140 153 
f 147 135 153 
f 140 147 153 
f 135 137 154 
f 140 135 154 
f 137 143 154 
f 143 140 154 
f 142 134 155 
f 134 146 155 
f 149 142 155 
o convex_7
v -0.000832 -0.090313 -0.000184
v 0.007344 -0.081024 0.020256
v 0.007344 -0.087712 0.020256
v -0.005293 -0.088827 0.020256
v -0.005293 -0.083254 0.000188
v 0.007344 -0.080651 -0.000184
v -0.005293 -0.083254 0.019882
v 0.007344 -0.088083 -0.000184
v 0.001026 -0.090685 0.019882
v -0.004919 -0.089569 0.000188
v 0.005113 -0.089569 0.000188
v 0.006970 -0.080651 0.019882
v 0.006601 -0.088827 0.019882
v -0.000832 -0.090685 0.019882
v 0.001026 -0.090685 0.000188
v -0.005293 -0.088827 -0.000184
v -0.004919 -0.089569 0.019882
v -0.000832 -0.090685 0.000188
v 0.005113 -0.089569 0.019882
v -0.005293 -0.083625 0.020256
v -0.005293 -0.083625 -0.000184
v 0.006970 -0.080651 -0.000184
v 0.001026 -0.090313 0.020256
f 164 174 178 
f 158 157 159 
f 157 158 161 
f 160 159 162 
f 156 161 163 
f 161 158 163 
f 157 161 167 
f 160 162 167 
f 163 158 168 
f 166 163 168 
f 156 163 170 
f 163 166 170 
f 166 164 170 
f 164 169 170 
f 159 160 171 
f 161 156 171 
f 156 165 171 
f 165 159 171 
f 159 165 172 
f 169 159 172 
f 165 169 172 
f 165 156 173 
f 169 165 173 
f 170 169 173 
f 156 170 173 
f 164 166 174 
f 168 158 174 
f 166 168 174 
f 159 157 175 
f 162 159 175 
f 157 167 175 
f 167 162 175 
f 171 160 176 
f 161 171 176 
f 167 161 177 
f 160 167 177 
f 176 160 177 
f 161 176 177 
f 158 159 178 
f 159 169 178 
f 169 164 178 
f 174 158 178 
o convex_8
v -0.005665 -0.056493 0.020256
v -0.013839 -0.073216 -0.000184
v -0.008267 -0.073216 -0.000184
v -0.013839 -0.073216 0.020256
v -0.003063 -0.067641 0.019882
v -0.003063 -0.056494 -0.000184
v -0.007152 -0.057611 0.000188
v -0.003063 -0.067641 0.000188
v -0.007895 -0.073216 0.019882
v -0.012353 -0.067641 0.019882
v -0.003063 -0.056494 0.020256
v -0.014210 -0.071728 0.000188
v -0.007152 -0.057611 0.019882
v -0.006038 -0.056493 -0.000184
v -0.014210 -0.071728 0.019882
v -0.003063 -0.067269 0.020256
v -0.012353 -0.067641 0.000188
v -0.007895 -0.073216 0.000188
v -0.014210 -0.073216 0.000188
v -0.003063 -0.067269 -0.000184
v -0.008267 -0.073216 0.020256
f 187 194 199 
f 180 181 182 
f 181 180 184 
f 184 183 186 
f 182 181 187 
f 186 183 187 
f 182 179 188 
f 179 182 189 
f 183 184 189 
f 184 179 189 
f 188 179 191 
f 185 188 191 
f 184 180 192 
f 179 184 192 
f 191 179 192 
f 185 191 192 
f 182 188 193 
f 188 190 193 
f 187 183 194 
f 189 182 194 
f 183 189 194 
f 188 185 195 
f 180 190 195 
f 190 188 195 
f 192 180 195 
f 185 192 195 
f 187 181 196 
f 186 187 196 
f 180 182 197 
f 190 180 197 
f 182 193 197 
f 193 190 197 
f 181 184 198 
f 184 186 198 
f 196 181 198 
f 186 196 198 
f 182 187 199 
f 194 182 199 
o convex_9
v 0.006229 -0.056494 0.019882
v 0.006972 -0.070615 0.000188
v -0.003063 -0.067641 0.000188
v 0.005856 -0.056494 -0.000184
v -0.003063 -0.067269 0.020256
v -0.003063 -0.056494 0.020256
v 0.007344 -0.070615 0.019882
v -0.003063 -0.056494 -0.000184
v 0.007344 -0.057608 0.000186
v 0.007344 -0.061325 0.020256
v 0.007344 -0.070243 -0.000184
v -0.003063 -0.067641 0.019882
v 0.007344 -0.057608 0.019511
v -0.003063 -0.067269 -0.000184
v 0.007344 -0.070243 0.020256
v 0.006972 -0.070615 0.019882
v 0.005856 -0.056494 0.020256
f 209 212 216 
f 202 204 205 
f 200 203 205 
f 202 205 207 
f 205 203 207 
f 203 200 208 
f 206 208 209 
f 205 204 209 
f 206 201 210 
f 207 203 210 
f 203 208 210 
f 208 206 210 
f 202 201 211 
f 204 202 211 
f 208 200 212 
f 209 208 212 
f 201 202 213 
f 202 207 213 
f 210 201 213 
f 207 210 213 
f 206 209 214 
f 209 204 214 
f 201 206 215 
f 211 201 215 
f 204 211 215 
f 214 204 215 
f 206 214 215 
f 200 205 216 
f 205 209 216 
f 212 200 216 
