# https://github.com/mikedh/trimesh
mtllib material0.mtl
usemtl material0
v -0.01123237 0.06152375 0.00506573
v -0.01294726 -0.08162359 0.00062535
v -0.01294726 -0.08162359 0.00062535
v 0.00531582 -0.08430776 0.00475508
v 0.00531582 -0.08430776 0.00475508
v -0.00012494 -0.08803416 0.00000120
v -0.01058715 -0.07424689 0.00567646
v -0.01058715 -0.07424689 0.00567646
v 0.00260999 0.02549367 0.00621044
v 0.00673230 0.04997556 0.00263077
v -0.00977653 -0.08021069 0.00692634
v -0.00977653 -0.08021069 0.00692634
v -0.00013753 -0.09000000 0.00691583
v -0.00013753 -0.09000000 0.00691583
v 0.01314689 0.06670351 0.00173142
v 0.01314689 0.06670351 0.00173142
v 0.01013299 -0.06560946 0.00570748
v 0.00317758 -0.08709224 0.00000059
v -0.00917751 -0.06779628 0.00754956
v -0.00623207 0.05444792 0.00505891
v 0.00200523 -0.05216926 0.00175142
v -0.01676445 0.07659406 0.00728390
v -0.00461474 -0.02273981 0.00622047
v 0.00385019 -0.08925468 0.00691484
v 0.00385019 -0.08925468 0.00691484
v -0.00562964 -0.05211054 0.00256488
v -0.00455826 0.05006116 0.00561881
v -0.00455826 0.05006116 0.00561881
v 0.00616752 -0.02282188 0.00380962
v -0.00615054 -0.05642277 0.00379090
v -0.00879647 0.06387576 0.00677490
v -0.00879647 0.06387576 0.00677490
v -0.00879647 0.06387576 0.00677490
v 0.00538305 -0.02281744 0.00621659
v -0.00411560 -0.08918847 0.00061672
v -0.00411560 -0.08918847 0.00061672
v -0.00535299 -0.05211236 0.00203996
v -0.00535299 -0.05211236 0.00203996
v 0.01296315 0.08457146 0.00727816
v 0.00648010 -0.08615034 0.00000000
v -0.01610786 0.06868986 0.00098265
v -0.01610786 0.06868986 0.00098265
v -0.01610786 0.06868986 0.00098265
v -0.01058667 -0.07424775 0.00693081
v -0.01058667 -0.07424775 0.00693081
v -0.01058667 -0.07424775 0.00693081
v -0.01058667 -0.07424775 0.00693081
v 0.00809573 -0.06891526 0.00188053
v -0.00295926 -0.06557501 0.00063271
v -0.00295926 -0.06557501 0.00063271
v 0.00673279 0.04997471 0.00386008
v -0.01620774 0.08070491 0.00389025
v 0.01279823 -0.08182787 0.00691658
v 0.01279823 -0.08182787 0.00691658
v 0.00373771 0.06414190 0.00047477
v -0.01354128 0.08580393 0.00377751
v -0.01354128 0.08580393 0.00377751
v 0.00305826 -0.06562173 0.00063038
v 0.00305826 -0.06562173 0.00063038
v 0.00223504 -0.02279297 0.00621782
v -0.01062836 -0.07090899 0.00754793
v 0.01058017 0.06305003 0.00584386
v 0.00278271 0.05438011 0.00188853
v -0.00562915 -0.05211142 0.00379371
v 0.00004950 -0.06559838 0.00063156
v 0.00004950 -0.06559838 0.00063156
v 0.01063493 0.08719242 0.00678367
v 0.01063493 0.08719242 0.00678367
v 0.00946258 -0.06519758 0.00105247
v 0.00946258 -0.06519758 0.00105247
v -0.01289496 0.06485724 0.00131903
v 0.00613829 0.08497780 0.00728107
v -0.01620665 0.08070282 0.00678942
v -0.01620665 0.08070282 0.00678942
v 0.00594661 0.04998225 0.00182025
v 0.00740135 -0.06448489 0.00693073
v -0.00782387 -0.08249986 0.00692399
v -0.00782387 -0.08249986 0.00692399
v -0.00461658 -0.02273644 0.00140712
v 0.01394601 -0.07778107 0.00376836
v 0.00781382 0.05801813 0.00188917
v -0.01345864 0.08538949 0.00728861
v 0.00538121 -0.02281409 0.00140324
v -0.01401829 -0.07372711 0.00693247
v -0.01401829 -0.07372711 0.00693247
v -0.01401829 -0.07372711 0.00693247
v -0.01401829 -0.07372711 0.00693247
v -0.00295878 -0.06557589 0.00188705
v 0.01633803 0.07157609 0.00677068
v 0.01633803 0.07157609 0.00677068
v 0.01633803 0.07157609 0.00677068
v -0.00442722 0.00140348 0.00631973
v 0.01134739 0.06321463 0.00267682
v 0.00305874 -0.06562261 0.00188473
v 0.00751198 0.05434203 0.00386284
v 0.00463843 0.08911621 0.00678736
v 0.00463843 0.08911621 0.00678736
v 0.00639268 -0.05652016 0.00378606
v -0.00810003 0.05814143 0.00217207
v -0.00810003 0.05814143 0.00217207
v -0.00540105 -0.02273208 0.00381409
v -0.00184290 0.06339270 0.00726906
v -0.01078020 -0.08483326 0.00377291
v 0.00611652 -0.05651920 0.00548547
v 0.00611652 -0.05651920 0.00548547
v -0.01493112 0.08464471 0.00099343
v -0.01493112 0.08464471 0.00099343
v 0.00371704 0.06140988 0.00189305
v 0.00634757 -0.08146033 0.00475665
v 0.00634757 -0.08146033 0.00475665
v 0.01018640 0.08708756 0.00728094
v -0.00295769 -0.06557790 0.00477125
v -0.00295769 -0.06557790 0.00477125
v -0.01292699 0.06493182 0.00644994
v 0.00305984 -0.06562462 0.00476893
v 0.00305984 -0.06562462 0.00476893
v 0.01287511 -0.06989214 0.00692487
v 0.01287511 -0.06989214 0.00692487
v 0.00546274 0.08747756 0.00728305
v 0.00711089 0.08947565 0.00049122
v -0.00455962 0.05006362 0.00211013
v -0.00455962 0.05006362 0.00211013
v 0.00557056 0.00132585 0.00631586
v -0.00404960 0.05005702 0.00590443
v 0.01654560 0.07356784 0.00047646
v 0.00242256 0.00135030 0.00631709
v 0.00594818 0.04997939 0.00590056
v 0.00803446 0.07638270 0.00097880
v 0.00803446 0.07638270 0.00097880
v 0.00281277 0.05805420 0.00584338
v 0.01010363 -0.07738671 0.00692070
v 0.01010363 -0.07738671 0.00692070
v 0.00461837 -0.06873698 0.00279028
v 0.00461837 -0.06873698 0.00279028
v -0.01115453 -0.08082765 0.00754121
v 0.01308501 0.06851146 0.00097139
v 0.01308501 0.06851146 0.00097139
v 0.01205128 -0.07420908 0.00753696
v 0.00639317 -0.05652099 0.00497682
v -0.01078143 -0.08483107 0.00062231
v -0.01078143 -0.08483107 0.00062231
v 0.01058284 -0.08500133 0.00691522
v 0.01058284 -0.08500133 0.00691522
v 0.00809608 -0.06891591 0.00278884
v 0.00809608 -0.06891591 0.00278884
v -0.01676705 0.07659877 0.00049127
v -0.00341246 -0.08704106 0.00000316
v -0.01007178 0.07657933 0.00388503
v -0.00184817 0.06302714 0.00097326
v -0.00184817 0.06302714 0.00097326
v -0.01061089 -0.06658146 0.00693073
v -0.01061089 -0.06658146 0.00693073
v 0.01073626 -0.06666241 0.00141215
v 0.00989593 -0.06546288 0.00133663
v 0.00989593 -0.06546288 0.00133663
v 0.00989593 -0.06546288 0.00133663
v 0.00280018 0.05000383 0.00590176
v -0.01095661 0.06152362 0.00217562
v -0.01095661 0.06152362 0.00217562
v -0.00208607 -0.05645566 0.00576551
v -0.00483530 0.05006367 0.00509389
v -0.00595631 0.05444779 0.00216875
v -0.00595631 0.05444779 0.00216875
v -0.01461121 0.08442580 0.00728845
v 0.00645526 0.04997807 0.00210588
v 0.00645526 0.04997807 0.00210588
v -0.01007068 0.07657727 0.00678416
v -0.01007068 0.07657727 0.00678416
v 0.01296055 0.08457619 0.00048550
v 0.00578094 0.08488426 0.00098554
v 0.00578094 0.08488426 0.00098554
v -0.00101592 0.05440963 0.00189000
v 0.00380358 0.07228472 0.00727310
v 0.00809765 -0.06891879 0.00692738
v 0.00809765 -0.06891879 0.00692738
v 0.00588986 -0.02281827 0.00172997
v 0.00588986 -0.02281827 0.00172997
v -0.00295843 -0.06557651 0.00279536
v -0.00295843 -0.06557651 0.00279536
v -0.01294486 -0.08162798 0.00692656
v -0.01294486 -0.08162798 0.00692656
v -0.00130687 0.00138271 0.00134013
v -0.00521415 0.00141239 0.00229452
v -0.00521415 0.00141239 0.00229452
v -0.01122483 0.08066415 0.00678736
v -0.01122483 0.08066415 0.00678736
v 0.00752774 -0.08780870 0.00061324
v 0.00752774 -0.08780870 0.00061324
v 0.00305909 -0.06562323 0.00279304
v 0.00305909 -0.06562323 0.00279304
v 0.00626638 0.02546551 0.00588657
v 0.00626638 0.02546551 0.00588657
v 0.00737370 -0.06079263 0.00378272
v 0.01713592 0.07630801 0.00677365
v 0.01713592 0.07630801 0.00677365
v 0.00981084 0.06680125 0.00726698
v 0.00010619 -0.06169728 0.00659381
v 0.00010619 -0.06169728 0.00659381
v 0.00613570 0.08498253 0.00048836
v -0.00295734 -0.06557852 0.00567956
v -0.00719665 -0.06067949 0.00378836
v 0.00286508 -0.06626936 0.00476855
v 0.00286508 -0.06626936 0.00476855
v -0.01590289 0.06818645 0.00176763
v 0.00306019 -0.06562523 0.00567724
v 0.00006340 -0.06415455 0.00754854
v 0.01057867 0.06305279 0.00189160
v 0.00537409 0.09000000 0.00098931
v 0.00537409 0.09000000 0.00098931
v 0.00537409 0.09000000 0.00098931
v -0.01157287 0.06555897 0.00677715
v -0.01157287 0.06555897 0.00677715
v -0.00184550 0.06339744 0.00047635
v 0.00537519 0.08999797 0.00388848
v 0.00537519 0.08999797 0.00388848
v -0.00391124 -0.06223725 0.00063541
v -0.01346124 0.08539422 0.00049633
v 0.01018380 0.08709229 0.00048836
v -0.00990029 -0.06523355 0.00378622
v -0.00295686 -0.06557940 0.00693391
v -0.00295686 -0.06557940 0.00693391
v 0.01399182 -0.07394024 0.00062043
v 0.01399182 -0.07394024 0.00062043
v 0.00235554 -0.05648741 0.00181146
v -0.00868514 0.06423868 0.00727225
v 0.00546015 0.08748230 0.00049034
v 0.00306067 -0.06562612 0.00693158
v 0.00306067 -0.06562612 0.00693158
v -0.00964185 -0.06506433 0.00617765
v -0.00964185 -0.06506433 0.00617765
v -0.00964185 -0.06506433 0.00617765
v 0.00005191 -0.06560277 0.00693276
v 0.00005191 -0.06560277 0.00693276
v -0.00550352 -0.08422377 0.00475925
v -0.00550352 -0.08422377 0.00475925
v -0.00998819 -0.06607634 0.00063506
v 0.00566320 -0.05220031 0.00554299
v 0.00566320 -0.05220031 0.00554299
v -0.00502664 0.02555563 0.00239648
v -0.00411442 -0.08919064 0.00376732
v 0.00726000 0.08982987 0.00388766
v -0.00098586 0.05808370 0.00584485
v -0.00149245 -0.02276406 0.00621926
v 0.00648299 -0.08615559 0.00753078
v 0.00616808 -0.02282289 0.00528889
v -0.00502554 0.02555362 0.00529865
v 0.00726109 0.08982778 0.00678675
v 0.00726109 0.08982778 0.00678675
v 0.01050433 -0.06651060 0.00090379
v 0.01050433 -0.06651060 0.00090379
v 0.00593984 -0.05220208 0.00501805
v -0.01461381 0.08443053 0.00049603
v 0.01008098 -0.06623652 0.00692848
v 0.01008098 -0.06623652 0.00692848
v -0.01713480 0.07663415 0.00388779
v -0.01063122 -0.07090375 0.00001714
v -0.00669997 -0.08604800 0.00000511
v -0.00964370 -0.06506098 0.00139479
v -0.00964370 -0.06506098 0.00139479
v -0.00964370 -0.06506098 0.00139479
v 0.01655718 0.07361849 0.00726914
v 0.00567395 -0.08487428 0.00061600
v 0.00567395 -0.08487428 0.00061600
v -0.00092890 0.05003562 0.00182290
v 0.00932390 -0.07166097 0.00062380
v 0.00932390 -0.07166097 0.00062380
v -0.01098611 0.06546537 0.00048132
v 0.00003747 -0.06735430 0.00476887
v 0.00003747 -0.06735430 0.00476887
v 0.00375649 0.07263653 0.00387701
v -0.01713370 0.07663209 0.00678696
v -0.01713370 0.07663209 0.00678696
v -0.00582945 0.06310435 0.00097484
v -0.00582945 0.06310435 0.00097484
v 0.00349463 -0.06417599 0.00001645
v 0.01050652 -0.06651458 0.00665128
v 0.01050652 -0.06651458 0.00665128
v 0.00980824 0.06680596 0.00047432
v 0.00859994 0.05801064 0.00386498
v -0.00149430 -0.02276069 0.00140592
v -0.01027414 0.06799623 0.00048282
v -0.00540158 -0.02273101 0.00233482
v 0.00607895 0.00132214 0.00597977
v 0.00607895 0.00132214 0.00597977
v 0.00607895 0.00132214 0.00597977
v 0.00380099 0.07228945 0.00048039
v -0.00550427 -0.08422238 0.00278336
v -0.00550427 -0.08422238 0.00278336
v -0.01077902 -0.08483546 0.00692351
v -0.01077902 -0.08483546 0.00692351
v 0.00698028 0.08062762 0.00098214
v 0.00698028 0.08062762 0.00098214
v 0.00375758 0.07263447 0.00677621
v 0.00375758 0.07263447 0.00677621
v -0.01208206 -0.07401648 0.00001554
v 0.00463728 0.08911825 0.00388816
v 0.01341883 0.06674095 0.00545525
v 0.00758443 -0.06935436 0.00476462
v 0.00758443 -0.06935436 0.00476462
v 0.00567443 -0.08487517 0.00187034
v -0.01042597 0.07647645 0.00048887
v 0.01323508 0.08482639 0.00098270
v 0.01323508 0.08482639 0.00098270
v -0.01065189 -0.06649634 0.00142041
v 0.00698138 0.08062562 0.00388134
v 0.00635498 0.00132149 0.00382636
v 0.00635498 0.00132149 0.00382636
v 0.01341821 0.06674205 0.00386923
v 0.01073805 -0.06666570 0.00614254
v 0.00567553 -0.08487717 0.00475454
v 0.00567553 -0.08487717 0.00475454
v 0.01012986 -0.06560395 0.00377831
v -0.00837625 0.05814240 0.00387156
v 0.01323618 0.08482438 0.00388188
v 0.00698247 0.08062358 0.00678055
v 0.00698247 0.08062358 0.00678055
v -0.00340957 -0.08704630 0.00753394
v -0.00337363 -0.06412267 0.00001909
v -0.00354820 0.07160179 0.00727543
v 0.01341760 0.06674314 0.00228321
v 0.00753014 -0.08781309 0.00691444
v 0.00753014 -0.08781309 0.00691444
v -0.01558325 0.06842054 0.00727781
v 0.00723577 0.05434299 0.00556225
v 0.00723577 0.05434299 0.00556225
v 0.00844578 0.07625378 0.00048140
v 0.00003672 -0.06735293 0.00279298
v 0.00003672 -0.06735293 0.00279298
v 0.01633675 0.07144992 0.00598519
v -0.01403327 -0.07756163 0.00062859
v -0.01403327 -0.07756163 0.00062859
v 0.01323728 0.08482233 0.00678105
v 0.01323728 0.08482233 0.00678105
v -0.00777272 -0.08768989 0.00061915
v -0.00777272 -0.08768989 0.00061915
v 0.00796937 0.06540055 0.00097118
v 0.00796937 0.06540055 0.00097118
v 0.01619750 0.08055603 0.00097859
v 0.01619750 0.08055603 0.00097859
v -0.00442912 0.00140696 0.00134134
v -0.00693471 -0.06074894 0.00554869
v -0.00693471 -0.06074894 0.00554869
v -0.01283757 -0.06969029 0.00378422
v -0.00356654 0.07204372 0.00098019
v -0.00356654 0.07204372 0.00098019
v -0.00521297 0.00141025 0.00536714
v -0.00521297 0.00141025 0.00536714
v -0.00566822 0.06762415 0.00048076
v 0.01064892 -0.07107420 0.00753969
v -0.00098736 0.05808645 0.00189254
v 0.01058046 -0.08499695 0.00061402
v 0.01058046 -0.08499695 0.00061402
v 0.00758368 -0.06935300 0.00278873
v 0.00758368 -0.06935300 0.00278873
v 0.01294742 0.06881268 0.00726716
v -0.00876598 0.07241976 0.00388164
v -0.00587360 -0.08478462 0.00062046
v -0.00587360 -0.08478462 0.00062046
v -0.00390883 -0.06224163 0.00693661
v -0.01123283 0.06152458 0.00387501
v 0.01691570 0.07354837 0.00097342
v 0.01691570 0.07354837 0.00097342
v 0.01619860 0.08055406 0.00387779
v 0.01399423 -0.07394463 0.00692163
v 0.01399423 -0.07394463 0.00692163
v 0.01134830 0.06321297 0.00505827
v 0.00924661 -0.06793935 0.00754242
v -0.00536591 -0.05642745 0.00181445
v -0.00876489 0.07241773 0.00678084
v -0.00876489 0.07241773 0.00678084
v -0.00876489 0.07241773 0.00678084
v 0.00242066 0.00135377 0.00133869
v -0.00916256 -0.07993416 0.00476363
v -0.00916256 -0.07993416 0.00476363
v -0.00998578 -0.06608072 0.00693626
v 0.01600630 0.07164348 0.00726799
v -0.00623253 0.05444875 0.00386816
v 0.00406196 -0.06229915 0.00063233
v 0.00567587 -0.08487779 0.00566285
v -0.00587312 -0.08478550 0.00187481
v -0.00615099 -0.05642194 0.00260015
v -0.01705134 0.07248608 0.00098567
v -0.01705134 0.07248608 0.00098567
v -0.00550063 -0.06718641 0.00693378
v -0.00550063 -0.06718641 0.00693378
v 0.00702561 -0.06370676 0.00655017
v 0.00702561 -0.06370676 0.00655017
v 0.00664053 -0.06100793 0.00593898
v 0.00809527 -0.06891441 0.00062618
v 0.00809527 -0.06891441 0.00062618
v -0.00587202 -0.08478751 0.00475901
v -0.00587202 -0.08478751 0.00475901
v -0.01251314 0.08548004 0.00099321
v -0.01251314 0.08548004 0.00099321
v -0.01705024 0.07248408 0.00388485
v 0.00391696 -0.06180176 0.00660745
v 0.00391696 -0.06180176 0.00660745
v 0.00965038 -0.08035804 0.00187195
v 0.01073717 -0.06666404 0.00377735
v 0.00567635 -0.08487867 0.00691720
v 0.00567635 -0.08487867 0.00691720
v -0.00424161 0.02555017 0.00148146
v -0.00101439 0.05440687 0.00584231
v 0.00932630 -0.07166535 0.00692500
v 0.00932630 -0.07166535 0.00692500
v -0.01704915 0.07248202 0.00678402
v -0.01704915 0.07248202 0.00678402
v -0.00502608 0.02555461 0.00384757
v -0.00693608 -0.06074648 0.00202772
v -0.00693608 -0.06074648 0.00202772
v -0.01354235 0.08580588 0.00099378
v -0.01354235 0.08580588 0.00099378
v -0.01354235 0.08580588 0.00099378
v -0.00355079 0.07160652 0.00048277
v 0.00575618 0.02547254 0.00147759
v -0.01585112 0.08060457 0.00728637
v -0.01134482 0.06585107 0.00727438
v -0.01558584 0.06842528 0.00048515
v 0.00965148 -0.08036004 0.00475615
v 0.00965148 -0.08036004 0.00475615
v 0.00616693 -0.02282083 0.00233035
v 0.00809685 -0.06891727 0.00476473
v 0.00809685 -0.06891727 0.00476473
v -0.00772739 -0.07225969 0.00476845
v -0.00772739 -0.07225969 0.00476845
v -0.00013874 -0.08999778 0.00376523
v -0.01251094 0.08547597 0.00679114
v -0.01251094 0.08547597 0.00679114
v -0.00916331 -0.07993279 0.00278774
v -0.00916331 -0.07993279 0.00278774
v 0.00461915 -0.06873834 0.00476617
v 0.00461915 -0.06873834 0.00476617
v 0.00751153 0.05434286 0.00267208
v 0.00384899 -0.08925246 0.00376424
v 0.00607732 0.00132513 0.00167317
v 0.00607732 0.00132513 0.00167317
v 0.00607732 0.00132513 0.00167317
v 0.00260817 0.02549698 0.00147882
v -0.00405115 0.05005988 0.00182413
v -0.00669708 -0.08605325 0.00753589
v -0.01610564 0.06868582 0.00678105
v -0.01610564 0.06868582 0.00678105
v -0.01610564 0.06868582 0.00678105
v 0.01107762 0.06315540 0.00556690
v 0.01107762 0.06315540 0.00556690
v -0.00590016 0.06385999 0.00727091
v 0.00349752 -0.06418123 0.00754723
v 0.01294483 0.06881742 0.00047450
v -0.00645467 -0.06087446 0.00593767
v -0.00172075 -0.05214316 0.00583154
v -0.00587277 -0.08478612 0.00278312
v -0.00587277 -0.08478612 0.00278312
v -0.00483624 0.05006539 0.00263526
v 0.01279703 -0.08182568 0.00376598
v 0.00766433 -0.08262012 0.00691800
v 0.00766433 -0.08262012 0.00691800
v 0.00235707 -0.05649019 0.00576377
v 0.00279863 0.05000669 0.00182146
v -0.01207917 -0.07402173 0.00754632
v -0.01207917 -0.07402173 0.00754632
v 0.00989780 -0.06546628 0.00622036
v 0.00989780 -0.06546628 0.00622036
v 0.00989780 -0.06546628 0.00622036
v -0.00587168 -0.08478815 0.00566732
v 0.01600371 0.07164821 0.00047533
v -0.01403086 -0.07756602 0.00692979
v -0.01403086 -0.07756602 0.00692979
v 0.00223323 -0.02278965 0.00140447
v -0.00777031 -0.08769428 0.00692035
v -0.00777031 -0.08769428 0.00692035
v 0.00965073 -0.08035868 0.00278025
v 0.00965073 -0.08035868 0.00278025
v -0.00598182 0.06148516 0.00189682
v 0.01394481 -0.07777888 0.00061776
v 0.01394481 -0.07777888 0.00061776
v 0.00672583 0.05434949 0.00188697
v -0.00772814 -0.07225832 0.00279256
v -0.00772814 -0.07225832 0.00279256
v -0.00904255 0.07207309 0.00727783
v -0.01401950 -0.07372492 0.00378186
v -0.01401950 -0.07372492 0.00378186
v -0.00483576 0.05006453 0.00386458
v 0.01633512 0.07145286 0.00175760
v 0.01153616 -0.07760445 0.00753480
v 0.00626483 0.02546837 0.00179985
v 0.00626483 0.02546837 0.00179985
v -0.00337074 -0.06412791 0.00754988
v 0.00965183 -0.08036069 0.00566445
v -0.00010697 -0.08585282 0.00278017
v -0.00010697 -0.08585282 0.00278017
v -0.00587119 -0.08478901 0.00692166
v -0.00587119 -0.08478901 0.00692166
v 0.00809720 -0.06891791 0.00567304
v 0.00946466 -0.06520138 0.00650521
v 0.00946466 -0.06520138 0.00650521
v -0.01492890 0.08464064 0.00679162
v -0.01492890 0.08464064 0.00679162
v 0.00803559 0.07638075 0.00387800
v 0.01287391 -0.06988995 0.00377427
v 0.00637204 -0.06606029 0.00754482
v 0.00737325 -0.06079180 0.00259197
v 0.00553513 0.08961176 0.00728449
v 0.01013152 -0.06560678 0.00184914
v 0.01055254 -0.07440753 0.00062142
v 0.01055254 -0.07440753 0.00062142
v -0.00719710 -0.06067866 0.00259761
v -0.01585371 0.08060930 0.00049376
v 0.01117209 -0.06732103 0.00692730
v 0.01117209 -0.06732103 0.00692730
v 0.00803668 0.07637866 0.00677720
v 0.00803668 0.07637866 0.00677720
v 0.01308723 0.06850743 0.00676977
v 0.01308723 0.06850743 0.00676977
v 0.00965231 -0.08036157 0.00691880
v 0.00965231 -0.08036157 0.00691880
v -0.00277295 -0.06622558 0.00477075
v -0.00277295 -0.06622558 0.00477075
v 0.00406436 -0.06230354 0.00693351
v 0.00373515 0.06378717 0.00097166
v 0.00373515 0.06378717 0.00097166
v 0.01064606 -0.07106899 0.00000890
v -0.00572072 0.06346231 0.00047793
v -0.00512342 -0.02273563 0.00589376
v -0.00512342 -0.02273563 0.00589376
v -0.00184595 0.06302310 0.00677167
v -0.00184595 0.06302310 0.00677167
v -0.00992237 -0.07434589 0.00279194
v -0.00992237 -0.07434589 0.00279194
v -0.00992237 -0.07434589 0.00279194
v -0.00988643 -0.06520766 0.00190834
v -0.00587304 -0.05642609 0.00549010
v -0.00587304 -0.05642609 0.00549010
v 0.00578206 0.08488225 0.00388477
v 0.01055302 -0.07440841 0.00187577
v 0.00874914 -0.08357247 0.00000094
v -0.01157969 0.08056617 0.00728460
v 0.00924375 -0.06793411 0.00001163
v -0.00535166 -0.05211479 0.00554725
v -0.00535166 -0.05211479 0.00554725
v 0.00723449 0.05434537 0.00216364
v 0.00723449 0.05434537 0.00216364
v 0.00663889 -0.06100491 0.00162667
v 0.00593890 -0.05220036 0.00256044
v 0.00578316 0.08488022 0.00678400
v 0.00578316 0.08488022 0.00678400
v -0.01109363 -0.06714815 0.00693594
v -0.01109363 -0.06714815 0.00693594
v 0.01055412 -0.07441042 0.00475997
v 0.01055412 -0.07441042 0.00475997
v -0.01065098 -0.06649798 0.00378561
v -0.01294606 -0.08162578 0.00377596
v -0.01129620 0.06522258 0.00097840
v -0.01129620 0.06522258 0.00097840
v -0.01161686 -0.07742469 0.00754378
v 0.00589146 -0.02282118 0.00588949
v 0.00589146 -0.02282118 0.00588949
v 0.00575797 0.02546925 0.00620921
v -0.00277370 -0.06622422 0.00279486
v -0.00277370 -0.06622422 0.00279486
v 0.00537631 0.08999596 0.00678766
v 0.00537631 0.08999596 0.00678766
v 0.00537631 0.08999596 0.00678766
v 0.00593939 -0.05220122 0.00378925
v 0.00515321 -0.05219371 0.00175022
v 0.01633594 0.07145142 0.00387140
v -0.00111933 0.02552592 0.00148026
v -0.01668171 0.07253366 0.00728107
v -0.00493590 0.00140766 0.00598402
v -0.00493590 0.00140766 0.00598402
v -0.00493590 0.00140766 0.00598402
v -0.00931555 -0.07152063 0.00693220
v -0.00931555 -0.07152063 0.00693220
v -0.00011298 -0.08652481 0.00061704
v -0.00011298 -0.08652481 0.00061704
v 0.00998297 0.06648610 0.00097115
v 0.00998297 0.06648610 0.00097115
v -0.01590128 0.06818350 0.00599522
v -0.00904514 0.07207779 0.00048517
v 0.00711565 -0.06086922 0.00554551
v 0.00711565 -0.06086922 0.00554551
v -0.00456513 -0.06866705 0.00476973
v -0.00456513 -0.06866705 0.00476973
v -0.00645630 -0.06087147 0.00163820
v 0.00278050 -0.08569956 0.00061650
v 0.00278050 -0.08569956 0.00061650
v 0.00553254 0.08961647 0.00049183
v 0.00859949 0.05801147 0.00267428
v 0.01063271 0.08719645 0.00098538
v 0.01063271 0.08719645 0.00098538
v -0.00753966 -0.06923694 0.00477048
v -0.00753966 -0.06923694 0.00477048
v 0.00904105 -0.08007549 0.00475660
v 0.00904105 -0.08007549 0.00475660
v -0.00536439 -0.05643021 0.00576677
v -0.01251209 0.08547809 0.00378406
v -0.01620887 0.08070686 0.00099107
v -0.01620887 0.08070686 0.00099107
v 0.01055337 -0.07440903 0.00278408
v 0.01055337 -0.07440903 0.00278408
v 0.00836954 -0.07712227 0.00475890
v 0.00836954 -0.07712227 0.00475890
v -0.00011250 -0.08652566 0.00187138
v -0.00484300 -0.05211891 0.00583277
v 0.00998516 0.06648204 0.00676955
v 0.00998516 0.06648204 0.00676955
v 0.01063381 0.08719445 0.00388453
v 0.00504415 0.08902641 0.00728431
v -0.00759162 0.05813769 0.00189502
v 0.01394721 -0.07778327 0.00691896
v 0.01394721 -0.07778327 0.00691896
v -0.00988499 -0.06521028 0.00566411
v 0.00376740 0.06762760 0.00726987
v 0.01633581 0.07158013 0.00097227
v 0.01633581 0.07158013 0.00097227
v 0.01633581 0.07158013 0.00097227
v 0.00515478 -0.05219654 0.00582886
v 0.01055447 -0.07441103 0.00566825
v 0.00463621 0.08912025 0.00098896
v 0.00463621 0.08912025 0.00098896
v -0.00011141 -0.08652767 0.00475558
v -0.00011141 -0.08652767 0.00475558
v -0.01362345 0.06460996 0.00549630
v 0.00733862 0.08071753 0.00727762
v -0.00837670 0.05814323 0.00268072
v -0.00615008 -0.05642360 0.00498166
v -0.01158229 0.08057090 0.00049221
v 0.00531505 -0.08430637 0.00277918
v 0.00531505 -0.08430637 0.00277918
v 0.01676135 0.07629710 0.00727094
v 0.00645660 0.04997564 0.00561453
v 0.00645660 0.04997564 0.00561453
v 0.00200678 -0.05217210 0.00583009
v -0.01362407 0.06461108 0.00387805
v 0.01585598 0.08040141 0.00727414
v -0.00540046 -0.02273309 0.00529336
v -0.01018402 -0.07722482 0.00062736
v -0.01018402 -0.07722482 0.00062736
v 0.00566186 -0.05219785 0.00203574
v 0.00566186 -0.05219785 0.00203574
v 0.00673324 0.04997385 0.00508940
v 0.01055495 -0.07441191 0.00692260
v 0.01055495 -0.07441191 0.00692260
v -0.00456588 -0.06866566 0.00279384
v -0.00456588 -0.06866566 0.00279384
v -0.00370672 -0.06158889 0.00099260
v -0.00370672 -0.06158889 0.00099260
v -0.01362468 0.06461223 0.00225981
v -0.00754041 -0.06923555 0.00279459
v -0.00754041 -0.06923555 0.00279459
v -0.01044820 0.06151985 0.00189855
v -0.00562870 -0.05211225 0.00502255
v 0.00904030 -0.08007410 0.00278071
v 0.00904030 -0.08007410 0.00278071
v -0.00186005 0.06145318 0.00189521
v 0.01107633 0.06315775 0.00216835
v 0.01107633 0.06315775 0.00216835
v 0.01153329 -0.07759920 0.00000401
v -0.00544790 0.05444402 0.00189171
v 0.00766195 -0.08261573 0.00061680
v 0.00766195 -0.08261573 0.00061680
v 0.00012635 -0.06169399 0.00097583
v 0.00012635 -0.06169399 0.00097583
v 0.00836879 -0.07712088 0.00278301
v 0.00836879 -0.07712088 0.00278301
v -0.00566868 0.06761968 0.00727348
v 0.00635439 0.00132256 0.00229005
v 0.00635439 0.00132256 0.00229005
v 0.01101814 -0.08099457 0.00000185
v 0.00711428 -0.06086676 0.00201999
v 0.00711428 -0.06086676 0.00201999
v -0.01123328 0.06152541 0.00268428
v -0.01493005 0.08464273 0.00380363
v -0.00844530 -0.07699169 0.00476542
v -0.00844530 -0.07699169 0.00476542
v -0.00604239 0.06350676 0.00677359
v -0.00604239 0.06350676 0.00677359
v -0.01007290 0.07658131 0.00098591
v -0.01007290 0.07658131 0.00098591
v -0.00660204 0.06148725 0.00584937
v 0.01134784 0.06321380 0.00386755
v -0.00011215 -0.08652631 0.00277969
v -0.00011215 -0.08652631 0.00277969
v 0.00751244 0.05434120 0.00505359
v -0.01668431 0.07253839 0.00048841
v -0.00623298 0.05444958 0.00267741
v -0.01122705 0.08066819 0.00098928
v -0.01122705 0.08066819 0.00098928
v 0.00752894 -0.08781087 0.00376384
v -0.01008379 0.06797631 0.00727537
v 0.01713370 0.07631205 0.00097530
v 0.01713370 0.07631205 0.00097530
v -0.00011106 -0.08652831 0.00566389
v 0.00988673 -0.07450110 0.00476016
v 0.00988673 -0.07450110 0.00476016
v 0.00875202 -0.08357771 0.00753172
v -0.01122595 0.08066618 0.00388832
v -0.00521356 0.00141132 0.00383083
v -0.00521356 0.00141132 0.00383083
v -0.00356542 0.07204169 0.00387939
v -0.00727931 -0.06437091 0.00693642
v 0.00504156 0.08903115 0.00049159
v 0.01713480 0.07631007 0.00387447
v 0.00376480 0.06763233 0.00047721
v 0.00797159 0.06539651 0.00676955
v 0.00797159 0.06539651 0.00676955
v 0.00672736 0.05434673 0.00583929
v 0.00832245 0.05801398 0.00216584
v 0.00832245 0.05801398 0.00216584
v 0.00560806 -0.05651543 0.00576252
v 0.00634680 -0.08145894 0.00278076
v 0.00634680 -0.08145894 0.00278076
v 0.01691683 0.07354639 0.00387263
v 0.00654190 0.02546580 0.00239202
v 0.01619972 0.08055197 0.00677699
v 0.01619972 0.08055197 0.00677699
v 0.00391480 -0.06179783 0.00095922
v 0.00391480 -0.06179783 0.00095922
v -0.01283877 -0.06968810 0.00063362
v -0.01283877 -0.06968810 0.00063362
v 0.00733602 0.08072226 0.00048496
v -0.00356432 0.07203968 0.00677859
v -0.00356432 0.07203968 0.00677859
v 0.00964993 -0.08035718 0.00061760
v 0.00964993 -0.08035718 0.00061760
v -0.00649093 -0.08136064 0.00476163
v -0.00649093 -0.08136064 0.00476163
v -0.01337788 0.06472324 0.00606416
v -0.01337788 0.06472324 0.00606416
v -0.00011058 -0.08652919 0.00691824
v -0.00011058 -0.08652919 0.00691824
v -0.00844605 -0.07699032 0.00278953
v -0.00844605 -0.07699032 0.00278953
v -0.00299331 -0.08565471 0.00061875
v -0.00299331 -0.08565471 0.00061875
v -0.00111754 0.02552263 0.00621188
v 0.01675876 0.07630183 0.00047828
v -0.00493753 0.00141062 0.00167743
v -0.00493753 0.00141062 0.00167743
v -0.00493753 0.00141062 0.00167743
v 0.00007536 -0.06226819 0.00063386
v 0.01691792 0.07354433 0.00677183
v 0.01691792 0.07354433 0.00677183
v 0.00654300 0.02546377 0.00529419
v 0.01399302 -0.07394244 0.00377103
v -0.00892868 -0.08343521 0.00000778
v 0.01585339 0.08040615 0.00048148
v 0.00278290 -0.08570395 0.00691770
v 0.00278290 -0.08570395 0.00691770
v -0.00012208 -0.08803941 0.00753199
v -0.01042341 0.07647172 0.00728136
v -0.00411322 -0.08919286 0.00691792
v -0.00411322 -0.08919286 0.00691792
v -0.00181301 0.06724260 0.00727174
v -0.00172230 -0.05214036 0.00175287
v 0.00737416 -0.06079346 0.00497348
v -0.00587432 -0.05642371 0.00209150
v -0.00587432 -0.05642371 0.00209150
v -0.01281433 0.08518548 0.00728821
v -0.01109601 -0.06714376 0.00063474
v -0.01109601 -0.06714376 0.00063474
v -0.01161972 -0.07741945 0.00001300
v 0.00844835 0.07624904 0.00727406
v 0.00988598 -0.07449973 0.00278427
v 0.00988598 -0.07449973 0.00278427
v 0.00725887 0.08983182 0.00098856
v 0.00725887 0.08983182 0.00098856
v -0.00719619 -0.06068032 0.00497912
v 0.00318044 -0.08709748 0.00753137
v 0.00779114 0.06572223 0.00726700
v -0.00804679 -0.06878904 0.00063241
v -0.00804679 -0.06878904 0.00063241
v -0.01018161 -0.07722921 0.00692856
v -0.01018161 -0.07722921 0.00692856
v -0.00918040 -0.06779104 0.00001877
v 0.01134354 -0.06770723 0.00080455
v 0.01134354 -0.06770723 0.00080455
v -0.00649168 -0.08135925 0.00278574
v -0.00649168 -0.08135925 0.00278574
v 0.00639226 -0.05651934 0.00259531
v -0.00809875 0.05813908 0.00557083
v -0.00809875 0.05813908 0.00557083
v -0.00920265 -0.06480065 0.00110871
v -0.00920265 -0.06480065 0.00110871
v -0.00010619 -0.08585418 0.00475607
v -0.00010619 -0.08585418 0.00475607
v -0.01713592 0.07663616 0.00098861
v -0.01713592 0.07663616 0.00098861
v 0.01314852 0.06670057 0.00600720
v 0.01314852 0.06670057 0.00600720
v 0.00230123 -0.08401657 0.00475641
v 0.00230123 -0.08401657 0.00475641
v -0.00931793 -0.07151624 0.00063102
v -0.00931793 -0.07151624 0.00063102
v -0.01354013 0.08580185 0.00679180
v -0.01354013 0.08580185 0.00679180
v -0.01354013 0.08580185 0.00679180
v 0.00281125 0.05805696 0.00189107
v 0.00286430 -0.06626800 0.00279266
v 0.00286430 -0.06626800 0.00279266
v -0.00804631 -0.06878993 0.00188676
v -0.00475002 0.02555386 0.00180408
v -0.00475002 0.02555386 0.00180408
v -0.00977893 -0.08020631 0.00062514
v -0.00977893 -0.08020631 0.00062514
v -0.00013994 -0.08999561 0.00061463
v -0.00013994 -0.08999561 0.00061463
v 0.00375536 0.07263851 0.00097781
v 0.00375536 0.07263851 0.00097781
v -0.01065007 -0.06649963 0.00615081
v 0.00384778 -0.08925030 0.00061364
v 0.00384778 -0.08925030 0.00061364
v 0.01264987 0.06663032 0.00137511
v -0.00208759 -0.05645291 0.00181319
v -0.00804521 -0.06879193 0.00477096
v -0.00804521 -0.06879193 0.00477096
v 0.00557917 -0.06727244 0.00692947
v 0.00557917 -0.06727244 0.00692947
v -0.01058907 -0.07424336 0.00062961
v -0.01058907 -0.07424336 0.00062961
v -0.01058907 -0.07424336 0.00062961
v -0.00992160 -0.07434728 0.00476780
v -0.00992160 -0.07434728 0.00476780
v -0.00992160 -0.07434728 0.00476780
v -0.01095533 0.06152124 0.00557417
v -0.01095533 0.06152124 0.00557417
v 0.00560656 -0.05651268 0.00181020
v -0.00977845 -0.08020719 0.00187949
v -0.00474844 0.02555105 0.00589085
v -0.00474844 0.02555105 0.00589085
v 0.01279582 -0.08182348 0.00061538
v 0.01279582 -0.08182348 0.00061538
v -0.00595503 0.05444541 0.00556735
v -0.00595503 0.05444541 0.00556735
v -0.00130497 0.00137923 0.00631853
v -0.00512497 -0.02273277 0.00173420
v -0.00512497 -0.02273277 0.00173420
v -0.01590209 0.06818498 0.00388142
v 0.00635557 0.00132043 0.00536267
v 0.00635557 0.00132043 0.00536267
v 0.01102103 -0.08099981 0.00753263
v -0.00879949 0.06377816 0.00097645
v -0.00879949 0.06377816 0.00097645
v -0.00879949 0.06377816 0.00097645
v 0.00832376 0.05801160 0.00556433
v 0.00832376 0.05801160 0.00556433
v -0.00920059 -0.06480437 0.00646379
v -0.00920059 -0.06480437 0.00646379
v -0.00092735 0.05003279 0.00590320
v -0.00977735 -0.08020919 0.00476369
v -0.00977735 -0.08020919 0.00476369
v -0.00248479 -0.08397943 0.00475826
v -0.00248479 -0.08397943 0.00475826
v 0.00230048 -0.08401521 0.00278052
v 0.00230048 -0.08401521 0.00278052
v -0.01403207 -0.07756383 0.00377919
v -0.00181560 0.06724733 0.00047902
v -0.00782628 -0.08249548 0.00062279
v -0.00782628 -0.08249548 0.00062279
v -0.00777151 -0.08769208 0.00376975
v -0.01281692 0.08519021 0.00049598
v 0.00860040 0.05800981 0.00505568
v -0.01058859 -0.07424424 0.00188395
v -0.01058859 -0.07424424 0.00188395
v -0.00759010 0.05813494 0.00584750
v -0.01115741 -0.08082241 0.00001043
v 0.00778855 0.06572693 0.00047434
v 0.01204839 -0.07420384 0.00000618
v -0.01283636 -0.06969249 0.00693482
v -0.01283636 -0.06969249 0.00693482
v 0.01058166 -0.08499914 0.00376462
v 0.00772522 -0.07237968 0.00476246
v 0.00772522 -0.07237968 0.00476246
v 0.00278421 0.05437735 0.00584084
v -0.01058749 -0.07424625 0.00476815
v -0.01058749 -0.07424625 0.00476815
v -0.01058749 -0.07424625 0.00476815
v -0.00804596 -0.06879057 0.00279507
v -0.00804596 -0.06879057 0.00279507
v -0.01402070 -0.07372273 0.00063126
v -0.01402070 -0.07372273 0.00063126
v -0.01402070 -0.07372273 0.00063126
v -0.01336753 0.06469877 0.00169649
v -0.01336753 0.06469877 0.00169649
v -0.00299090 -0.08565910 0.00691995
v -0.00299090 -0.08565910 0.00691995
v 0.00374031 0.06413716 0.00726743
v 0.00007776 -0.06227257 0.00693506
v 0.01287271 -0.06988775 0.00062367
v 0.01287271 -0.06988775 0.00062367
v -0.00370458 -0.06159277 0.00658017
v -0.00370458 -0.06159277 0.00658017
v -0.00876711 0.07242177 0.00098244
v -0.00876711 0.07242177 0.00098244
v -0.00876711 0.07242177 0.00098244
v 0.00781532 0.05801537 0.00584138
v -0.00804487 -0.06879257 0.00567927
v -0.00837580 0.05814157 0.00506239
v 0.01010122 -0.07738233 0.00061953
v 0.01010122 -0.07738233 0.00061953
v -0.01044667 0.06151709 0.00585082
v 0.00611521 -0.05651682 0.00208687
v 0.00611521 -0.05651682 0.00208687
v -0.00185852 0.06145043 0.00584753
v -0.00627411 -0.06596210 0.00754972
v -0.00977810 -0.08020780 0.00278780
v -0.00977810 -0.08020780 0.00278780
v -0.00423979 0.02554688 0.00621309
v -0.00248553 -0.08397804 0.00278237
v -0.00248553 -0.08397804 0.00278237
v 0.00371854 0.06140713 0.00584536
v -0.00544638 0.05444126 0.00584402
v 0.00373737 0.06378310 0.00677006
v 0.00373737 0.06378310 0.00677006
v 0.00654246 0.02546479 0.00384310
v -0.01061330 -0.06657708 0.00064038
v -0.01061330 -0.06657708 0.00064038
v -0.00679159 -0.06339666 0.00651479
v -0.00679159 -0.06339666 0.00651479
v -0.00892579 -0.08344045 0.00753854
v 0.00556864 0.00132933 0.00133746
v 0.00567475 -0.08487578 0.00277865
v 0.00567475 -0.08487578 0.00277865
v -0.00804439 -0.06879343 0.00693362
v -0.00804439 -0.06879343 0.00693362
v -0.00977701 -0.08020984 0.00567200
v -0.00868851 0.06414176 0.00047953
v 0.00006052 -0.06414930 0.00001778
v -0.00484455 -0.05211607 0.00175407
v 0.00772447 -0.07237831 0.00278657
v 0.00772447 -0.07237831 0.00278657
v -0.01058824 -0.07424489 0.00279226
v -0.01058824 -0.07424489 0.00279226
v -0.01058824 -0.07424489 0.00279226
v 0.00711348 0.08947092 0.00728372
v 0.01265179 0.06662684 0.00636378
vt 0.96325500 0.62083900
vt 0.94563900 0.75402500
vt 0.38310900 0.83185200
vt 0.08702700 0.84282700
vt 0.60520700 0.39981200
vt 0.34168800 0.74773900
vt 0.86093800 0.41231300
vt 0.86093800 0.83926700
vt 0.30116400 0.09674500
vt 0.01129100 0.68942400
vt 0.25979300 0.81423300
vt 0.86903500 0.79998300
vt 0.90438600 0.67345600
vt 0.32201600 0.75068600
vt 0.00360000 0.83212700
vt 0.95897100 0.80245600
vt 0.91236800 0.49063200
vt 0.34799500 0.72620700
vt 0.18061200 0.81069000
vt 0.96325500 0.56709000
vt 0.18927000 0.87325100
vt 0.75471800 0.83940600
vt 0.61281300 0.14095200
vt 0.31509500 0.72578400
vt 0.90438500 0.65388400
vt 0.04704800 0.79722800
vt 0.95778800 0.48127300
vt 0.14296900 0.14602600
vt 0.92501400 0.16260600
vt 0.05533000 0.89358200
vt 0.05284400 0.17225400
vt 0.83742300 0.78824600
vt 0.83771200 0.78736200
vt 0.61281200 0.07642200
vt 0.33650500 0.77273500
vt 0.94563900 0.69283600
vt 0.18927100 0.92253400
vt 0.04158500 0.79722800
vt 0.70164700 0.64761400
vt 0.35430300 0.70467500
vt 0.05579500 0.39456800
vt 0.98768500 0.66652100
vt 0.96220800 0.99098400
vt 0.22158300 0.82003400
vt 0.22248300 0.82005300
vt 0.86903500 0.41231300
vt 0.86903500 0.83926700
vt 0.88781200 0.56481800
vt 0.48823000 0.76740100
vt 0.87972600 0.48683100
vt 0.01883000 0.68942400
vt 0.97154400 0.74727400
vt 0.90438400 0.59277000
vt 0.26993300 0.66588800
vt 0.03605700 0.26586900
vt 0.10914300 0.81461600
vt 0.97154400 0.78174800
vt 0.48823000 0.72807800
vt 0.87972600 0.52581400
vt 0.61281200 0.09674100
vt 0.20053700 0.82041600
vt 0.05855800 0.04554100
vt 0.87695000 0.87358200
vt 0.05533000 0.79722800
vt 0.48823000 0.74774000
vt 0.87972600 0.50632300
vt 0.03714700 0.96476300
vt 0.68119300 0.66652600
vt 0.10574500 0.82403500
vt 0.49151300 0.68625200
vt 0.93933100 0.97117500
vt 0.69927400 0.69169000
vt 0.95778800 0.74727400
vt 0.72777000 0.83759700
vt 0.84872900 0.85294100
vt 0.15838200 0.70275500
vt 0.27385000 0.80109700
vt 0.86903500 0.78023000
vt 0.37889000 0.91746400
vt 0.92501100 0.57042600
vt 0.90065400 0.84128900
vt 0.69822800 0.81851100
vt 0.37889000 0.85293500
vt 0.90438600 0.80229000
vt 0.21817800 0.84297400
vt 0.21896500 0.84337600
vt 0.07324000 0.99950000
vt 0.88781200 0.48683100
vt 0.00776400 0.01344300
vt 0.03716000 0.86354600
vt 0.78996500 0.62810800
vt 0.45698800 0.14095300
vt 0.01129800 0.80445800
vt 0.88781200 0.52581400
vt 0.01883000 0.72898000
vt 0.12837800 0.51732300
vt 0.67231600 0.70250000
vt 0.92501500 0.40737000
vt 0.90070400 0.94579900
vt 0.98768500 0.59410900
vt 0.05533000 0.64488200
vt 0.83885600 0.74657700
vt 0.92501200 0.73312100
vt 0.83027000 0.06822200
vt 0.91203500 0.40737000
vt 0.16597300 0.39351900
vt 0.98768500 0.77125200
vt 0.92239800 0.87357300
vt 0.08702700 0.82353200
vt 0.58678600 0.39329900
vt 0.68035000 0.67361500
vt 0.85507500 0.48834800
vt 0.48479100 0.45412600
vt 0.04984800 0.19641200
vt 0.85507500 0.52722400
vt 0.48479100 0.41530300
vt 0.90438000 0.52386100
vt 0.19517400 0.66939500
vt 0.68472700 0.69556400
vt 0.19744500 0.25010700
vt 0.84873400 0.92253900
vt 0.98768500 0.48127300
vt 0.45698800 0.07642500
vt 0.14296900 0.14095700
vt 0.09724200 0.18993000
vt 0.45698800 0.09674200
vt 0.14297400 0.07642800
vt 0.11368400 0.24471900
vt 0.09088800 0.59116300
vt 0.09102800 0.09706900
vt 0.24094600 0.68417300
vt 0.86903500 0.62441000
vt 0.82627600 0.52369100
vt 0.07445400 0.70639700
vt 0.26435800 0.82360300
vt 0.05669100 0.21756700
vt 0.96373400 0.81521400
vt 0.22048100 0.67102300
vt 0.91719400 0.40737000
vt 0.36346800 0.81479200
vt 0.94563900 0.73312100
vt 0.28905300 0.68338500
vt 0.90438400 0.61354100
vt 0.82529600 0.50124600
vt 0.89366800 0.56481800
vt 0.11325500 0.40390100
vt 0.34799500 0.76927100
vt 0.10914300 0.74252700
vt 0.93405300 0.90792600
vt 0.02515100 0.31078900
vt 0.17172300 0.82046300
vt 0.07324000 0.96626800
vt 0.94049900 0.49964000
vt 0.10321300 0.81963500
vt 0.48887800 0.68185600
vt 0.94280200 0.49064700
vt 0.14297300 0.09674600
vt 0.92241400 0.96437900
vt 0.98768500 0.62083900
vt 0.83028500 0.12296200
vt 0.96325500 0.48127300
vt 0.87696200 0.93177600
vt 0.98768500 0.56709000
vt 0.70428300 0.82579300
vt 0.84872900 0.84787200
vt 0.00631800 0.68942400
vt 0.12837800 0.74252700
vt 0.75397400 0.79466400
vt 0.16632000 0.21210800
vt 0.09088800 0.53498700
vt 0.16774100 0.26007300
vt 0.87695800 0.89810100
vt 0.78136700 0.70565100
vt 0.18765500 0.69818900
vt 0.86903500 0.56610000
vt 0.93840000 0.16260600
vt 0.37889000 0.84786500
vt 0.84628600 0.57272800
vt 0.89366800 0.48683100
vt 0.90438600 0.75402500
vt 0.27000700 0.83550100
vt 0.53471600 0.89731300
vt 0.98150600 0.19945200
vt 0.04684700 0.50752100
vt 0.12837800 0.76998700
vt 0.72765500 0.80237300
vt 0.34382600 0.69774700
vt 0.94563900 0.63431100
vt 0.84628600 0.53390600
vt 0.89366800 0.52581400
vt 0.03169100 0.52509100
vt 0.30116400 0.07135800
vt 0.92501400 0.44762900
vt 0.03715200 0.89049600
vt 0.75465600 0.61893500
vt 0.81758600 0.66648900
vt 0.14065900 0.75040400
vt 0.86448400 0.10852900
vt 0.16869400 0.25618400
vt 0.86093800 0.48834800
vt 0.05533000 0.91964000
vt 0.48896000 0.41652700
vt 0.08702700 0.68699200
vt 0.98331200 0.65977200
vt 0.86093800 0.52722400
vt 0.15776800 0.75058200
vt 0.93314100 0.82205300
vt 0.00051300 0.99539100
vt 0.09088800 0.50999600
vt 0.20188500 0.26163700
vt 0.82652700 0.80629800
vt 0.04276400 0.19047500
vt 0.02911500 0.31107200
vt 0.10914300 0.50999600
vt 0.01883000 0.99539100
vt 0.50994000 0.77379100
vt 0.16974500 0.38300700
vt 0.18411100 0.23382900
vt 0.05533000 0.94637900
vt 0.16797700 0.76988800
vt 0.86903500 0.48834800
vt 0.94563900 0.54808300
vt 0.43455800 0.65621200
vt 0.16141500 0.87075000
vt 0.83374400 0.78657600
vt 0.18296000 0.25998300
vt 0.16796400 0.73128000
vt 0.86903500 0.52722400
vt 0.16251400 0.81573000
vt 0.88681800 0.17327300
vt 0.07324000 0.94637900
vt 0.16797100 0.75058400
vt 0.86903500 0.50778600
vt 0.08702700 0.92220500
vt 0.60520800 0.46961300
vt 0.48460600 0.81330600
vt 0.80243000 0.07135000
vt 0.91203400 0.36558100
vt 0.98144400 0.33947700
vt 0.92501200 0.69283600
vt 0.01883000 0.98497600
vt 0.09100100 0.12159200
vt 0.61281300 0.12080000
vt 0.29691000 0.70791900
vt 0.91678500 0.16260600
vt 0.96310700 0.33947700
vt 0.66683400 0.68419200
vt 0.03714700 0.98497600
vt 0.48460600 0.68217400
vt 0.94564200 0.50455700
vt 0.91719300 0.36558100
vt 0.16368900 0.39028900
vt 0.16914200 0.68504100
vt 0.17515400 0.68443300
vt 0.97154400 0.72321000
vt 0.45282400 0.81726100
vt 0.35430300 0.79080400
vt 0.10488000 0.94978600
vt 0.49056800 0.81264800
vt 0.04158500 0.94637900
vt 0.77010200 0.62533600
vt 0.36286100 0.71000900
vt 0.87972600 0.68113200
vt 0.84873300 0.89731800
vt 0.87972600 0.58428400
vt 0.44917900 0.68683000
vt 0.04309200 0.36595200
vt 0.49610100 0.43471400
vt 0.08702700 0.66662500
vt 0.10914300 0.62326000
vt 0.95778800 0.72321000
vt 0.75436300 0.84337600
vt 0.02786000 0.33256600
vt 0.93659900 0.92958300
vt 0.49739500 0.72529900
vt 0.90437700 0.49964000
vt 0.17178200 0.68069500
vt 0.05038500 0.23098400
vt 0.01883000 0.76236100
vt 0.37889000 0.89731200
vt 0.05832700 0.36147300
vt 0.04688200 0.64488200
vt 0.03181900 0.36885800
vt 0.91153900 0.00050000
vt 0.45698800 0.07135600
vt 0.08660300 0.27014500
vt 0.72586900 0.58821500
vt 0.07445400 0.92220500
vt 0.28909700 0.81799600
vt 0.90438600 0.73312100
vt 0.14035400 0.25217000
vt 0.09088800 0.56309700
vt 0.12837800 0.62326000
vt 0.77778100 0.70733700
vt 0.43246000 0.82658300
vt 0.10914300 0.51732300
vt 0.02889000 0.83053700
vt 0.08702700 0.72485500
vt 0.50862600 0.38592700
vt 0.88781200 0.68113200
vt 0.11281000 0.36297800
vt 0.00051200 0.93980500
vt 0.16904400 0.20920800
vt 0.04501200 0.96626800
vt 0.10914300 0.56309700
vt 0.92501300 0.00050000
vt 0.01883000 0.36885800
vt 0.01883000 0.83116900
vt 0.90952100 0.49964000
vt 0.85507500 0.68271700
vt 0.60886200 0.39746300
vt 0.92501100 0.49059900
vt 0.97154400 0.59410900
vt 0.01883000 0.93980600
vt 0.12837800 0.56309700
vt 0.72761500 0.68767600
vt 0.30278500 0.77206900
vt 0.49739500 0.77018100
vt 0.78699600 0.74579100
vt 0.00864400 0.83181000
vt 0.30817300 0.70088300
vt 0.90438500 0.63431100
vt 0.80655600 0.83051900
vt 0.03134200 0.72898000
vt 0.11475700 0.06654900
vt 0.11248800 0.24087000
vt 0.83497600 0.55331700
vt 0.07445400 0.66662500
vt 0.03219400 0.86354600
vt 0.94563900 0.77815800
vt 0.40883300 0.83556000
vt 0.69892400 0.64471400
vt 0.03714800 0.93980500
vt 0.34382600 0.79773200
vt 0.94563900 0.71221700
vt 0.94907000 0.84064400
vt 0.04121400 0.24294600
vt 0.00051100 0.91243800
vt 0.14119000 0.18969900
vt 0.53471600 0.91746500
vt 0.85746600 0.15594600
vt 0.07324000 0.91964000
vt 0.05533000 0.98288400
vt 0.08495400 0.31045700
vt 0.09088800 0.66091300
vt 0.06638400 0.50752100
vt 0.96305400 0.19945200
vt 0.05614100 0.33174200
vt 0.20054300 0.68075100
vt 0.90069900 0.89810500
vt 0.36346800 0.68068700
vt 0.94563800 0.61354000
vt 0.82245000 0.50453000
vt 0.07445400 0.72485500
vt 0.80780600 0.65534600
vt 0.10914300 0.70112500
vt 0.36286100 0.78546900
vt 0.87972600 0.75842400
vt 0.14497700 0.77633400
vt 0.97154400 0.62083900
vt 0.00050400 0.87650700
vt 0.09671500 0.18616600
vt 0.01883000 0.91243800
vt 0.90438200 0.54808300
vt 0.21856600 0.65809600
vt 0.02636200 0.80445800
vt 0.18060600 0.69047800
vt 0.16142600 0.92060600
vt 0.12837800 0.70112500
vt 0.77957900 0.78754100
vt 0.78073200 0.78603700
vt 0.53471600 0.87325500
vt 0.08702700 0.96132800
vt 0.57771900 0.49343200
vt 0.16908800 0.81611600
vt 0.78423000 0.62848200
vt 0.97154400 0.56709000
vt 0.50994000 0.72168800
vt 0.86093800 0.68271700
vt 0.88781200 0.75842400
vt 0.04704800 0.89358200
vt 0.08650500 0.40706700
vt 0.98768500 0.69800900
vt 0.86903500 0.46919600
vt 0.17785400 0.78644200
vt 0.87673100 0.06355200
vt 0.15266700 0.70504300
vt 0.85905400 0.06620800
vt 0.46702100 0.69499700
vt 0.87972600 0.56481800
vt 0.85507500 0.76047600
vt 0.60886300 0.47196200
vt 0.09088800 0.79942900
vt 0.17150800 0.37632300
vt 0.97154400 0.69800900
vt 0.14112700 0.72564300
vt 0.86497700 0.08398200
vt 0.88781200 0.64252200
vt 0.92501000 0.49963800
vt 0.28791800 0.71340700
vt 0.86903500 0.68271700
vt 0.69054200 0.91746700
vt 0.11474300 0.12158800
vt 0.20484200 0.68970800
vt 0.86903500 0.58553700
vt 0.95778800 0.69800900
vt 0.78146800 0.84257200
vt 0.97154400 0.33947700
vt 0.13423300 0.93245900
vt 0.04158500 0.91964000
vt 0.09088800 0.81461600
vt 0.98768500 0.78174800
vt 0.17369100 0.38379600
vt 0.08097500 0.31028600
vt 0.69054000 0.85293900
vt 0.72886300 0.83374800
vt 0.82348000 0.80380600
vt 0.06084800 0.39575900
vt 0.85507500 0.64384600
vt 0.57952200 0.37204000
vt 0.93324200 0.16260600
vt 0.85507500 0.56610000
vt 0.50578000 0.38264300
vt 0.08702700 0.58718700
vt 0.52813500 0.48456100
vt 0.92501200 0.67345600
vt 0.12837800 0.79942900
vt 0.69646500 0.81182800
vt 0.75335800 0.61203500
vt 0.07445400 0.96132800
vt 0.08702700 0.70639700
vt 0.50480000 0.40508800
vt 0.01129100 0.72898000
vt 0.92501200 0.65388300
vt 0.00584100 0.36885800
vt 0.93848800 0.00050000
vt 0.53471600 0.84786800
vt 0.69054100 0.87325700
vt 0.84873400 0.91747000
vt 0.29691100 0.79345300
vt 0.02705200 0.21887900
vt 0.95778800 0.65977200
vt 0.80954200 0.83444000
vt 0.03133100 0.80445800
vt 0.05749100 0.04042700
vt 0.83604600 0.76856100
vt 0.15776700 0.72844300
vt 0.06002800 0.21959800
vt 0.85885100 0.15109100
vt 0.80243200 0.12079900
vt 0.72221400 0.59056400
vt 0.89366800 0.75842400
vt 0.98127000 0.48127300
vt 0.92501100 0.59277000
vt 0.27389000 0.70026300
vt 0.86903500 0.66328100
vt 0.83028400 0.09423800
vt 0.84873100 0.87325900
vt 0.22046200 0.83014200
vt 0.22050900 0.83035100
vt 0.16420600 0.68444200
vt 0.90722000 0.49064600
vt 0.88848500 0.04312300
vt 0.86093800 0.76047600
vt 0.08327500 0.19215100
vt 0.90438600 0.77815800
vt 0.24448600 0.83943800
vt 0.37889000 0.87325300
vt 0.30818600 0.80049200
vt 0.90438600 0.71221700
vt 0.75155400 0.49064200
vt 0.89366800 0.64252200
vt 0.92240900 0.93051400
vt 0.94563900 0.57042600
vt 0.40883300 0.65991900
vt 0.87694600 0.84813100
vt 0.80294200 0.60316400
vt 0.07445400 0.58718700
vt 0.78342200 0.78936200
vt 0.92501200 0.80229000
vt 0.05533000 0.99950000
vt 0.97154400 0.48127300
vt 0.00546600 0.86354500
vt 0.24241800 0.67439500
vt 0.00596900 0.52509100
vt 0.69054000 0.84787000
vt 0.15777000 0.77272100
vt 0.86093800 0.64384600
vt 0.07445400 0.88160800
vt 0.71562100 0.55331500
vt 0.28790700 0.78796100
vt 0.86903500 0.76047600
vt 0.86093800 0.56610000
vt 0.16172100 0.68887900
vt 0.88595300 0.04752300
vt 0.95778800 0.77125200
vt 0.70200000 0.82902300
vt 0.10914300 0.59116300
vt 0.92501000 0.52386100
vt 0.16918600 0.70946000
vt 0.93283100 0.44763000
vt 0.66978100 0.69559400
vt 0.93765500 0.49063300
vt 0.87972600 0.60374900
vt 0.43133700 0.67866200
vt 0.04704800 0.91964000
vt 0.13910900 0.39824300
vt 0.90437800 0.50455600
vt 0.17653000 0.67840100
vt 0.12837800 0.59116300
vt 0.75428500 0.68022600
vt 0.02885700 0.03981900
vt 0.81222200 0.65417600
vt 0.25986300 0.68711900
vt 0.86903500 0.64384600
vt 0.48896000 0.45290100
vt 0.08702700 0.64656600
vt 0.14498300 0.72481600
vt 0.03224500 0.26476600
vt 0.94057800 0.86233200
vt 0.45282400 0.67821900
vt 0.03177200 0.33186000
vt 0.07324000 0.64488200
vt 0.61281300 0.14602100
vt 0.05764500 0.13141300
vt 0.84282000 0.74629400
vt 0.78936500 0.61721400
vt 0.07445400 0.99950000
vt 0.07445400 0.56773900
vt 0.04563800 0.94637900
vt 0.83027100 0.14915600
vt 0.07324000 0.89358200
vt 0.10914300 0.53498700
vt 0.88781200 0.60374900
vt 0.37122200 0.68997900
vt 0.72886100 0.80619200
vt 0.47318800 0.68754100
vt 0.80243100 0.14602200
vt 0.07324000 0.79722800
vt 0.00631900 0.72898000
vt 0.87694500 0.84306200
vt 0.13264500 0.84272000
vt 0.93283600 0.36558200
vt 0.12837800 0.53498700
vt 0.70022700 0.69557800
vt 0.07324000 0.96964100
vt 0.17643800 0.82274800
vt 0.54109500 0.36651500
vt 0.85507500 0.60497400
vt 0.05533000 0.96626800
vt 0.92501200 0.75402500
vt 0.94791600 0.96514800
vt 0.04034500 0.36897200
vt 0.24243400 0.82697700
vt 0.91162700 0.16260600
vt 0.61281200 0.07135300
vt 0.30116400 0.07642700
vt 0.84211700 0.57150400
vt 0.07445400 0.64656600
vt 0.12837800 0.50999600
vt 0.66608200 0.69714200
vt 0.03714700 0.99539100
vt 0.92501400 0.36558100
vt 0.18927100 0.85293200
vt 0.01883000 0.86354600
vt 0.69054100 0.89731500
vt 0.78083100 0.83863700
vt 0.95778800 0.19945200
vt 0.45698800 0.14602200
vt 0.07324000 0.50752100
vt 0.20510700 0.81152400
vt 0.86903500 0.43117900
vt 0.87972600 0.71966500
vt 0.35180900 0.74773900
vt 0.95451300 0.82674500
vt 0.04696100 0.22896300
vt 0.96151500 0.65977200
vt 0.08455000 0.35385700
vt 0.85745800 0.06141800
vt 0.91204200 0.44762900
vt 0.08702700 0.62627700
vt 0.50480000 0.46434100
vt 0.13284800 0.92760300
vt 0.87972600 0.70039900
vt 0.35733500 0.72887400
vt 0.19818700 0.26008900
vt 0.01129400 0.76236100
vt 0.00051300 0.96332100
vt 0.18575000 0.22976100
vt 0.08702700 0.60675700
vt 0.50862500 0.48350100
vt 0.08702700 0.80390400
vt 0.57771700 0.37599200
vt 0.83027400 0.14409400
vt 0.10914300 0.79942900
vt 0.14020200 0.40209300
vt 0.98768500 0.74727400
vt 0.78998200 0.48511800
vt 0.89366800 0.60374900
vt 0.08702700 0.78354300
vt 0.55869900 0.38047200
vt 0.88781200 0.71966500
vt 0.80243100 0.14095200
vt 0.82100900 0.66446900
vt 0.03718500 0.05023200
vt 0.01883000 0.96404200
vt 0.67329300 0.69860800
vt 0.90070400 0.94073000
vt 0.90438300 0.57042600
vt 0.24424900 0.66199200
vt 0.06795900 0.94637900
vt 0.81129600 0.71205100
vt 0.00050000 0.86354500
vt 0.08133400 0.18870200
vt 0.98709000 0.78600900
vt 0.80243000 0.07642000
vt 0.86093800 0.60497400
vt 0.09088800 0.51732300
vt 0.19565200 0.26699400
vt 0.61980000 0.43471200
vt 0.85507500 0.72159100
vt 0.96228300 0.63497300
vt 0.72662800 0.68381700
vt 0.98127000 0.59410900
vt 0.06612200 0.89358200
vt 0.13911100 0.37068700
vt 0.72586900 0.51841400
vt 0.07445400 0.84282700
vt 0.75475900 0.62289600
vt 0.03134200 0.68942400
vt 0.14297500 0.07135900
vt 0.80243100 0.09673800
vt 0.97154400 0.63409400
vt 0.72836000 0.62884300
vt 0.06633800 0.64488200
vt 0.41192300 0.81401900
vt 0.87972600 0.81591200
vt 0.18927100 0.84786200
vt 0.93799500 0.36558200
vt 0.02636900 0.68942400
vt 0.22202900 0.68122600
vt 0.86903500 0.60497400
vt 0.82627700 0.58294300
vt 0.07445400 0.62627700
vt 0.51434000 0.77248900
vt 0.12770700 0.90958900
vt 0.98241100 0.63323800
vt 0.82245200 0.60210400
vt 0.07445400 0.60675700
vt 0.92241300 0.95931400
vt 0.06612200 0.79722800
vt 0.75335900 0.49459500
vt 0.07445400 0.80390400
vt 0.92240400 0.89813900
vt 0.00632900 0.80445800
vt 0.93420800 0.81693900
vt 0.41030000 0.67209000
vt 0.87696200 0.92670600
vt 0.87972600 0.66182700
vt 0.37768400 0.69713300
vt 0.51384200 0.74743700
vt 0.12721200 0.88489800
vt 0.77237700 0.49907500
vt 0.07445400 0.78354300
vt 0.81182900 0.76726700
vt 0.01081300 0.36885800
vt 0.93333000 0.00050000
vt 0.38814100 0.67528400
vt 0.13424100 0.83793100
vt 0.93798700 0.44763000
vt 0.98127000 0.62083900
vt 0.97154400 0.77125200
vt 0.08702700 0.98041700
vt 0.55870100 0.48895300
vt 0.05493400 0.15447800
vt 0.83993500 0.76948700
vt 0.11399800 0.35916000
vt 0.09088800 0.74252700
vt 0.06928800 0.15801000
vt 0.01883000 0.80445800
vt 0.71127600 0.55331500
vt 0.89366800 0.71966500
vt 0.02636900 0.72898000
vt 0.08714100 0.40313200
vt 0.98127000 0.56709000
vt 0.14031700 0.36686800
vt 0.09088800 0.76998700
vt 0.92501200 0.63431100
vt 0.80973400 0.79576600
vt 0.00050700 0.89049600
vt 0.11331300 0.18342900
vt 0.86093800 0.72159100
vt 0.54171300 0.37081600
vt 0.08702700 0.76334800
vt 0.28063300 0.69284300
vt 0.10914300 0.76998700
vt 0.05533000 0.50752100
vt 0.97154400 0.19945200
vt 0.10914300 0.66091300
vt 0.15835000 0.79839800
vt 0.19467400 0.26310300
vt 0.01883000 0.89049600
vt 0.05667500 0.27654600
vt 0.82675700 0.67845200
vt 0.04262800 0.06413100
vt 0.11475600 0.07161900
vt 0.90065100 0.83621900
vt 0.00632200 0.76236100
vt 0.83027300 0.07328400
vt 0.74429000 0.51190100
vt 0.07445400 0.82353200
vt 0.01883000 0.87673800
vt 0.01094100 0.52509100
vt 0.72677900 0.62520400
vt 0.03714900 0.91243800
vt 0.51334900 0.72267600
vt 0.12672200 0.86049400
vt 0.04158500 0.98288400
vt 0.45819800 0.82844500
vt 0.14134100 0.24831100
vt 0.12837800 0.66091300
vt 0.78301800 0.74596200
vt 0.39250800 0.68425800
vt 0.87972600 0.64252200
vt 0.08702700 0.94194600
vt 0.58678700 0.47612600
vt 0.05348900 0.19946500
vt 0.95778800 0.63540000
vt 0.29804700 0.75068500
vt 0.86903500 0.72159100
vt 0.77237600 0.60755500
vt 0.07445400 0.98041700
vt 0.87972600 0.73904500
vt 0.35733500 0.76660400
vt 0.30116300 0.12080300
vt 0.11321000 0.18739000
vt 0.98768500 0.19945200
vt 0.04158500 0.50752100
vt 0.53471600 0.92253500
vt 0.50994000 0.74774000
vt 0.77070900 0.62158200
vt 0.03715600 0.87696800
vt 0.02671800 0.52509100
vt 0.92501000 0.54808300
vt 0.37122200 0.80550000
vt 0.13960800 0.19333800
vt 0.29298200 0.73204600
vt 0.86903500 0.70215400
vt 0.30866000 0.75068600
vt 0.75516200 0.79848300
vt 0.31510100 0.77558900
vt 0.90438600 0.69283700
vt 0.81408500 0.73657800
vt 0.18927000 0.89731200
vt 0.91719700 0.44762900
vt 0.16142900 0.92566800
vt 0.04158500 0.89358200
vt 0.69935400 0.81462600
vt 0.04158500 0.96964100
vt 0.47704000 0.81982000
vt 0.41030000 0.82338900
vt 0.75548100 0.67637600
vt 0.78936300 0.48941900
vt 0.07445400 0.76334800
vt 0.00051300 0.98497600
vt 0.20113400 0.24868700
vt 0.06612200 0.91964000
vt 0.30278500 0.72930200
vt 0.82326500 0.68031800
vt 0.46702100 0.80048200
vt 0.87972600 0.44757100
vt 0.24068800 0.81713300
vt 0.86903500 0.81962500
vt 0.47318800 0.80793900
vt 0.47524900 0.67680900
vt 0.94564200 0.51139700
vt 0.74429000 0.59472900
vt 0.07445400 0.94194600
vt 0.93283600 0.40737000
vt 0.95778800 0.59410900
vt 0.09099500 0.16928700
vt 0.10738700 0.94537100
vt 0.49317800 0.80823800
vt 0.61545500 0.43471200
vt 0.08702700 0.88160800
vt 0.11360900 0.40787100
vt 0.98768500 0.72321000
vt 0.03387300 0.83022300
vt 0.03443200 0.02694000
vt 0.08702700 0.86221700
vt 0.60348000 0.41927400
vt 0.87972600 0.42778700
vt 0.44917900 0.80865000
vt 0.12837800 0.81461600
vt 0.69428200 0.81930000
vt 0.95778800 0.78174800
vt 0.90067200 0.87358200
vt 0.84211700 0.53513000
vt 0.07445400 0.68699200
vt 0.88781200 0.44757100
vt 0.98768500 0.33947700
vt 0.69054200 0.92253600
vt 0.39250800 0.81122100
vt 0.87972600 0.79666400
vt 0.32918300 0.74773900
vt 0.94563900 0.67345600
vt 0.09019000 0.27183200
vt 0.09088800 0.62326000
vt 0.06877500 0.96626800
vt 0.33650500 0.72274300
vt 0.94563900 0.65388300
vt 0.95793300 0.80811200
vt 0.16141500 0.89947500
vt 0.85507500 0.45004400
vt 0.50578000 0.48678500
vt 0.17781000 0.71473500
vt 0.86903500 0.54666200
vt 0.87972600 0.83515900
vt 0.87972600 0.40800200
vt 0.43133700 0.81681700
vt 0.54171200 0.49861200
vt 0.08702700 0.99950000
vt 0.08702700 0.56773900
vt 0.95778800 0.62083900
vt 0.06928400 0.18786600
vt 0.16142700 0.84979600
vt 0.88781200 0.79666400
vt 0.95778800 0.33947700
vt 0.30116200 0.14602400
vt 0.94563800 0.59277000
vt 0.38310900 0.66362700
vt 0.95778800 0.56709000
vt 0.11473900 0.15526300
vt 0.45698800 0.12080100
vt 0.04158500 0.64488200
vt 0.37889000 0.92253400
vt 0.97154400 0.65977200
vt 0.02684700 0.36885800
vt 0.91669700 0.00050000
vt 0.26435600 0.67776700
vt 0.03025900 0.35185700
vt 0.03054900 0.35274100
vt 0.93885400 0.94876600
vt 0.03133800 0.76236100
vt 0.09105000 0.05970700
vt 0.16006200 0.81127500
vt 0.88431200 0.16885900
vt 0.14297000 0.12080500
vt 0.85507500 0.79998300
vt 0.57952400 0.49738500
vt 0.08702700 0.90158600
vt 0.60348000 0.45015100
vt 0.72759700 0.53787600
vt 0.07445400 0.86221700
vt 0.92501200 0.77815800
vt 0.05388600 0.30107200
vt 0.87972600 0.77754400
vt 0.37768400 0.79834500
vt 0.92501200 0.71221700
vt 0.16861900 0.37912200
vt 0.02636700 0.76236100
vt 0.88781200 0.83515900
vt 0.88781200 0.40800200
vt 0.09099500 0.16421800
vt 0.38814100 0.82019600
vt 0.04470500 0.24481200
vt 0.43246000 0.66889600
vt 0.19495000 0.83171900
vt 0.07324000 0.98288400
vt 0.92501100 0.61354000
vt 0.08702700 0.74391700
vt 0.52813600 0.38486700
vt 0.11475200 0.09706900
vt 0.54109400 0.50291200
vt 0.85507500 0.41231300
vt 0.85507500 0.83926700
vt 0.82529800 0.60538800
vt 0.89366800 0.44757100
vt 0.04158500 0.99950000
vt 0.94563900 0.80229000
vt 0.43455800 0.83926700
vt 0.93541400 0.97392500
vt 0.98768500 0.63282300
vt 0.29297700 0.76932300
vt 0.86903500 0.74103400
vt 0.83191400 0.70137500
vt 0.14498000 0.75057500
vt 0.45819800 0.66703400
vt 0.94564100 0.52386200
vt 0.14019000 0.77516500
vt 0.86399200 0.13307700
vt 0.08724100 0.35053300
vt 0.08839300 0.35203600
vt 0.09088800 0.70112500
vt 0.09104700 0.06477700
vt 0.86093800 0.45004400
vt 0.96325500 0.59410900
vt 0.41192300 0.68146000
vt 0.87972600 0.62313600
vt 0.06928500 0.18280200
vt 0.16142900 0.84473400
vt 0.93799500 0.40737000
vt 0.06929400 0.12162700
vt 0.16919100 0.79170500
vt 0.75155300 0.61598700
vt 0.89366800 0.79666400
vt 0.30116200 0.14095500
vt 0.72759600 0.56875300
vt 0.07445400 0.90158600
vt 0.06930100 0.09706000
vt 0.11473900 0.15019400
vt 0.83572600 0.70027100
vt 0.05112100 0.08582000
vt 0.01883000 0.52509100
vt 0.04158500 0.96626800
vt 0.48183800 0.81762300
vt 0.87540500 0.15317500
vt 0.15135200 0.79544800
vt 0.28063500 0.80852800
vt 0.53471600 0.85293700
vt 0.72221400 0.51606500
vt 0.89366800 0.68113200
vt 0.18773200 0.80299600
vt 0.86903500 0.45004400
vt 0.86093800 0.79998300
vt 0.03422800 0.35107100
vt 0.49739500 0.74774000
vt 0.18927100 0.91746500
vt 0.80294000 0.50347000
vt 0.07445400 0.74391700
vt 0.78998400 0.62151500
vt 0.89366800 0.83515900
vt 0.89366800 0.40800200
vt 0.67052300 0.68561300
vt 0.03529400 0.03423700
f 749/749 24/24 768/768
f 24/24 749/749 14/14
f 142/142 244/244 321/321
f 244/244 142/142 695/695
f 54/54 610/610 840/840
f 610/610 484/484 840/840
f 138/138 118/118 349/349
f 365/365 118/118 138/138
f 500/500 367/367 253/253
f 500/500 253/253 76/76
f 518/518 887/887 447/447
f 447/447 887/887 206/206
f 904/904 487/487 700/700
f 359/359 700/700 487/487
f 61/61 547/547 868/868
f 547/547 61/61 19/19
f 547/547 19/19 151/151
f 460/460 467/467 554/554
f 467/467 460/460 86/86
f 181/181 289/289 135/135
f 289/289 919/919 135/135
f 317/317 440/440 751/751
f 469/469 751/751 440/440
f 557/557 127/127 157/157
f 557/557 157/157 9/9
f 557/557 126/126 123/123
f 126/126 557/557 9/9
f 123/123 60/60 34/34
f 60/60 123/123 126/126
f 34/34 632/632 616/616
f 632/632 34/34 60/60
f 709/709 616/616 457/457
f 616/616 632/632 457/457
f 848/848 735/735 157/157
f 9/9 157/157 735/735
f 735/735 126/126 9/9
f 126/126 735/735 834/834
f 834/834 60/60 126/126
f 60/60 834/834 243/243
f 243/243 632/632 60/60
f 632/632 243/243 450/450
f 632/632 160/160 457/457
f 160/160 632/632 450/450
f 848/848 907/907 735/735
f 907/907 848/848 124/124
f 735/735 92/92 834/834
f 92/92 735/735 907/907
f 834/834 23/23 243/243
f 23/23 834/834 92/92
f 243/243 603/603 450/450
f 603/603 243/243 23/23
f 160/160 450/450 603/603
f 160/160 603/603 594/594
f 914/914 640/640 743/743
f 640/640 914/914 51/51
f 563/563 29/29 251/251
f 245/245 251/251 29/29
f 30/30 767/767 625/625
f 767/767 30/30 201/201
f 101/101 651/651 635/635
f 651/651 101/101 64/64
f 697/697 635/635 346/346
f 635/635 697/697 101/101
f 73/73 496/496 52/52
f 496/496 672/672 52/52
f 127/127 706/706 873/873
f 127/127 873/873 157/157
f 873/873 848/848 157/157
f 848/848 873/873 403/403
f 403/403 124/124 848/848
f 124/124 403/403 911/911
f 895/895 130/130 706/706
f 706/706 130/130 873/873
f 861/861 683/683 95/95
f 861/861 95/95 279/279
f 242/242 911/911 403/403
f 242/242 864/864 911/911
f 130/130 403/403 873/873
f 403/403 130/130 242/242
f 62/62 910/910 895/895
f 895/895 910/910 130/130
f 861/861 680/680 366/366
f 680/680 861/861 279/279
f 173/173 753/753 612/612
f 753/753 173/173 319/319
f 261/261 629/629 762/762
f 194/194 712/712 702/702
f 712/712 194/194 742/742
f 479/479 323/323 689/689
f 323/323 479/479 567/567
f 699/699 369/369 721/721
f 369/369 699/699 356/356
f 750/750 536/536 22/22
f 536/536 416/416 22/22
f 634/634 39/39 623/623
f 39/39 72/72 623/623
f 715/715 702/702 363/363
f 702/702 715/715 194/194
f 111/111 934/934 119/119
f 934/934 607/607 119/119
f 607/607 934/934 502/502
f 634/634 762/762 629/629
f 762/762 634/634 623/623
f 758/758 164/164 536/536
f 536/536 164/164 416/416
f 164/164 758/758 82/82
f 750/750 567/567 479/479
f 567/567 750/750 22/22
f 167/167 356/356 148/148
f 356/356 167/167 369/369
f 397/397 709/709 457/457
f 709/709 397/397 388/388
f 198/198 160/160 891/891
f 160/160 198/198 457/457
f 397/397 457/457 198/198
f 891/891 160/160 594/594
f 891/891 594/594 449/449
f 64/64 625/625 651/651
f 625/625 64/64 30/30
f 20/20 897/897 313/313
f 20/20 313/313 377/377
f 360/360 313/313 1/1
f 897/897 1/1 313/313
f 406/406 395/395 442/442
f 395/395 577/577 442/442
f 577/577 395/395 837/837
f 333/333 363/363 314/314
f 363/363 333/333 715/715
f 248/248 606/606 241/241
f 606/606 248/248 67/67
f 510/510 315/315 498/498
f 315/315 305/305 498/498
f 406/406 271/271 395/395
f 271/271 255/255 395/395
f 185/185 148/148 696/696
f 148/148 185/185 167/167
f 307/307 743/743 838/838
f 743/743 307/307 914/914
f 29/29 306/306 245/245
f 839/839 245/245 306/306
f 98/98 563/563 139/139
f 251/251 139/139 563/563
f 408/408 698/698 246/246
f 347/347 246/246 698/698
f 482/482 408/408 161/161
f 246/246 161/161 408/408
f 377/377 482/482 20/20
f 161/161 20/20 482/482
f 270/270 721/721 293/293
f 721/721 270/270 699/699
f 293/293 510/510 270/270
f 510/510 498/498 270/270
f 51/51 683/683 640/640
f 683/683 51/51 95/95
f 562/562 248/248 215/215
f 248/248 241/241 215/215
f 271/271 73/73 255/255
f 73/73 52/52 255/255
f 315/315 544/544 305/305
f 544/544 533/533 305/305
f 544/544 96/96 533/533
f 96/96 296/296 533/533
f 193/193 98/98 755/755
f 139/139 755/755 98/98
f 397/397 386/386 388/388
f 495/495 388/388 386/386
f 449/449 847/847 917/917
f 449/449 917/917 891/891
f 196/196 612/612 769/769
f 355/355 612/612 196/196
f 376/376 612/612 355/355
f 769/769 612/612 886/886
f 900/900 864/864 679/679
f 910/910 242/242 130/130
f 242/242 910/910 903/903
f 622/622 577/577 837/837
f 622/622 837/837 633/633
f 612/612 753/753 886/886
f 753/753 102/102 886/886
f 323/323 417/417 689/689
f 212/212 441/441 114/114
f 913/913 525/525 910/910
f 910/910 525/525 903/903
f 89/89 512/512 935/935
f 173/173 762/762 511/511
f 173/173 511/511 294/294
f 319/319 173/173 294/294
f 319/319 294/294 722/722
f 319/319 370/370 479/479
f 370/370 319/319 722/722
f 750/750 479/479 371/371
f 750/750 371/371 168/168
f 536/536 750/750 168/168
f 536/536 168/168 186/186
f 758/758 536/536 186/186
f 186/186 428/428 758/758
f 758/758 795/795 82/82
f 795/795 758/758 428/428
f 164/164 82/82 795/795
f 795/795 497/497 164/164
f 164/164 74/74 416/416
f 74/74 164/164 497/497
f 416/416 272/272 22/22
f 272/272 416/416 74/74
f 567/567 22/22 272/272
f 567/567 272/272 407/407
f 567/567 443/443 323/323
f 443/443 567/567 407/407
f 443/443 211/211 323/323
f 417/417 323/323 211/211
f 225/225 676/676 446/446
f 676/676 225/225 33/33
f 886/886 102/102 526/526
f 886/886 526/526 912/912
f 912/912 769/769 886/886
f 769/769 912/912 704/704
f 376/376 355/355 513/513
f 513/513 91/91 376/376
f 261/261 195/195 629/629
f 195/195 261/261 741/741
f 634/634 629/629 195/195
f 195/195 714/714 634/634
f 39/39 634/634 714/714
f 714/714 332/332 39/39
f 111/111 247/247 934/934
f 247/247 111/111 68/68
f 247/247 561/561 502/502
f 247/247 502/502 934/934
f 502/502 97/97 607/607
f 97/97 502/502 561/561
f 119/119 545/545 72/72
f 545/545 119/119 97/97
f 119/119 607/607 97/97
f 623/623 72/72 545/545
f 623/623 545/545 316/316
f 623/623 511/511 762/762
f 511/511 623/623 316/316
f 400/400 747/747 768/768
f 400/400 768/768 244/244
f 695/695 514/514 455/455
f 514/514 695/695 840/840
f 484/484 138/138 641/641
f 484/484 641/641 131/131
f 349/349 367/367 174/174
f 174/174 404/404 349/349
f 227/227 816/816 500/500
f 227/227 500/500 447/447
f 206/206 220/220 232/232
f 220/220 206/206 487/487
f 904/904 19/19 923/923
f 904/904 923/923 385/385
f 45/45 571/571 61/61
f 45/45 61/61 459/459
f 554/554 11/11 772/772
f 11/11 554/554 135/135
f 919/919 440/440 491/491
f 919/919 491/491 77/77
f 317/317 749/749 729/729
f 729/729 884/884 317/317
f 375/375 700/700 846/846
f 918/918 846/846 700/700
f 197/197 890/890 887/887
f 887/887 890/890 359/359
f 518/518 76/76 387/387
f 518/518 387/387 396/396
f 309/309 399/399 17/17
f 17/17 399/399 312/312
f 201/201 219/219 767/767
f 611/611 767/767 219/219
f 611/611 550/550 809/809
f 550/550 611/611 219/219
f 25/25 688/688 322/322
f 688/688 25/25 434/434
f 143/143 870/870 53/53
f 53/53 870/870 454/454
f 609/609 744/744 364/364
f 744/744 609/609 80/80
f 499/499 508/508 117/117
f 508/508 499/499 309/309
f 309/309 499/499 399/399
f 869/869 343/343 87/87
f 87/87 343/343 481/481
f 466/466 551/551 180/180
f 551/551 466/466 855/855
f 290/290 103/103 470/470
f 470/470 103/103 859/859
f 752/752 240/240 13/13
f 13/13 240/240 426/426
f 755/755 17/17 312/312
f 755/755 312/312 193/193
f 297/297 565/565 329/329
f 565/565 297/297 308/308
f 560/560 296/296 96/96
f 296/296 560/560 214/214
f 810/810 805/805 6/6
f 6/6 18/18 810/810
f 351/351 187/187 40/40
f 351/351 40/40 535/535
f 475/475 668/668 657/657
f 668/668 475/475 831/831
f 867/867 521/521 888/888
f 867/867 888/888 223/223
f 537/537 275/275 249/249
f 378/378 249/249 275/275
f 740/740 275/275 927/927
f 275/275 740/740 378/378
f 318/318 774/774 236/236
f 236/236 216/216 318/318
f 236/236 774/774 916/916
f 774/774 760/760 916/916
f 256/256 760/760 774/774
f 760/760 256/256 719/719
f 331/331 881/881 295/295
f 331/331 295/295 761/761
f 140/140 865/865 745/745
f 865/865 140/140 3/3
f 257/257 147/147 35/35
f 257/257 35/35 334/334
f 438/438 75/75 415/415
f 75/75 438/438 458/458
f 372/372 415/415 920/920
f 415/415 372/372 438/438
f 468/468 920/920 83/83
f 920/920 468/468 372/372
f 21/21 83/83 564/564
f 83/83 21/21 468/468
f 224/224 21/21 564/564
f 224/224 564/564 826/826
f 264/264 438/438 566/566
f 438/438 264/264 458/458
f 566/566 372/372 182/182
f 372/372 566/566 438/438
f 182/182 468/468 280/280
f 468/468 182/182 372/372
f 280/280 21/21 754/754
f 21/21 280/280 468/468
f 813/813 21/21 224/224
f 21/21 813/813 754/754
f 402/402 264/264 566/566
f 264/264 402/402 439/439
f 340/340 566/566 182/182
f 566/566 340/340 402/402
f 340/340 280/280 79/79
f 280/280 340/340 182/182
f 928/928 280/280 754/754
f 280/280 928/928 79/79
f 928/928 813/813 368/368
f 813/813 928/928 754/754
f 914/914 10/10 51/51
f 10/10 914/914 713/713
f 543/543 29/29 563/563
f 29/29 543/543 421/421
f 201/201 30/30 381/381
f 201/201 381/381 506/506
f 101/101 26/26 64/64
f 26/26 101/101 282/282
f 697/697 282/282 101/101
f 282/282 697/697 184/184
f 458/458 63/63 75/75
f 63/63 476/476 75/75
f 264/264 172/172 63/63
f 264/264 63/63 458/458
f 439/439 658/658 172/172
f 439/439 172/172 264/264
f 63/63 797/797 476/476
f 797/797 81/81 476/476
f 95/95 587/587 279/279
f 587/587 95/95 433/433
f 608/608 350/350 658/658
f 658/658 350/350 172/172
f 350/350 63/63 172/172
f 63/63 350/350 797/797
f 797/797 108/108 81/81
f 108/108 207/207 81/81
f 680/680 587/587 93/93
f 587/587 680/680 279/279
f 856/856 286/286 703/703
f 286/286 856/856 414/414
f 326/326 736/736 125/125
f 712/712 690/690 702/702
f 690/690 712/712 361/361
f 348/348 414/414 856/856
f 578/578 348/348 281/281
f 348/348 578/578 414/414
f 699/699 894/894 356/356
f 894/894 699/699 345/345
f 626/626 146/146 507/507
f 146/146 626/626 301/301
f 199/199 169/169 720/720
f 746/746 720/720 169/169
f 702/702 338/338 363/363
f 338/338 702/702 690/690
f 120/120 701/701 586/586
f 226/226 120/120 218/218
f 120/120 226/226 701/701
f 720/720 746/746 326/326
f 326/326 746/746 736/736
f 252/252 626/626 507/507
f 252/252 860/860 626/626
f 860/860 252/252 217/217
f 684/684 146/146 301/301
f 684/684 301/301 578/578
f 356/356 678/678 148/148
f 678/678 356/356 894/894
f 717/717 224/224 826/826
f 717/717 826/826 542/542
f 813/813 662/662 646/646
f 662/662 224/224 717/717
f 662/662 813/813 224/224
f 813/813 646/646 368/368
f 368/368 646/646 583/583
f 64/64 381/381 30/30
f 381/381 64/64 26/26
f 313/313 685/685 377/377
f 685/685 313/313 624/624
f 313/313 360/360 671/671
f 313/313 671/671 624/624
f 395/395 204/204 837/837
f 395/395 42/42 204/204
f 42/42 395/395 383/383
f 363/363 302/302 314/314
f 302/302 363/363 338/338
f 606/606 765/765 241/241
f 765/765 606/606 588/588
f 305/305 292/292 498/498
f 498/498 292/292 129/129
f 255/255 787/787 395/395
f 395/395 787/787 383/383
f 148/148 687/687 696/696
f 687/687 148/148 678/678
f 307/307 713/713 914/914
f 713/713 307/307 666/666
f 421/421 306/306 29/29
f 306/306 421/421 667/667
f 779/779 563/563 98/98
f 563/563 779/779 543/543
f 698/698 408/408 239/239
f 698/698 239/239 183/183
f 408/408 482/482 453/453
f 408/408 453/453 239/239
f 482/482 377/377 685/685
f 482/482 685/685 453/453
f 270/270 345/345 699/699
f 345/345 270/270 808/808
f 129/129 270/270 498/498
f 270/270 129/129 808/808
f 51/51 433/433 95/95
f 433/433 51/51 10/10
f 241/241 765/765 215/215
f 215/215 765/765 208/208
f 52/52 597/597 255/255
f 255/255 597/597 787/787
f 533/533 170/170 305/305
f 305/305 170/170 292/292
f 296/296 618/618 533/533
f 533/533 618/618 170/170
f 98/98 193/193 501/501
f 98/98 501/501 779/779
f 69/69 717/717 542/542
f 646/646 782/782 583/583
f 703/703 465/465 448/448
f 866/866 703/703 278/278
f 55/55 703/703 866/866
f 448/448 278/278 703/703
f 473/473 350/350 608/608
f 350/350 473/473 654/654
f 350/350 108/108 797/797
f 108/108 350/350 654/654
f 204/204 647/647 837/837
f 633/633 837/837 647/647
f 55/55 213/213 856/856
f 856/856 703/703 55/55
f 522/522 856/856 213/213
f 856/856 522/522 348/348
f 274/274 654/654 473/473
f 654/654 274/274 149/149
f 108/108 654/654 149/149
f 149/149 520/520 108/108
f 137/137 615/615 812/812
f 326/326 286/286 128/128
f 807/807 128/128 286/286
f 286/286 414/414 807/807
f 344/344 807/807 414/414
f 414/414 893/893 344/344
f 893/893 414/414 578/578
f 578/578 301/301 892/892
f 677/677 892/892 301/301
f 301/301 626/626 677/677
f 686/686 677/677 626/626
f 626/626 860/860 686/686
f 394/394 686/686 860/860
f 860/860 413/413 394/394
f 413/413 860/860 217/217
f 217/217 252/252 413/413
f 106/106 413/413 252/252
f 252/252 596/596 106/106
f 596/596 252/252 507/507
f 507/507 786/786 596/596
f 786/786 507/507 146/146
f 146/146 684/684 786/786
f 382/382 786/786 684/684
f 684/684 41/41 382/382
f 41/41 684/684 418/418
f 842/842 553/553 267/267
f 842/842 267/267 926/926
f 150/150 522/522 213/213
f 522/522 150/150 273/273
f 213/213 55/55 150/150
f 519/519 150/150 55/55
f 519/519 866/866 337/337
f 866/866 519/519 55/55
f 448/448 465/465 136/136
f 614/614 136/136 465/465
f 691/691 125/125 736/736
f 125/125 691/691 362/362
f 736/736 746/746 691/691
f 339/339 691/691 746/746
f 746/746 169/169 339/339
f 303/303 339/339 169/169
f 766/766 589/589 218/218
f 218/218 120/120 766/766
f 120/120 586/586 766/766
f 210/210 766/766 586/586
f 586/586 619/619 210/210
f 619/619 586/586 701/701
f 701/701 226/226 619/619
f 171/171 619/619 226/226
f 171/171 226/226 199/199
f 199/199 720/720 171/171
f 291/291 171/171 720/720
f 720/720 128/128 291/291
f 128/128 720/720 326/326
f 585/585 262/262 18/18
f 40/40 18/18 262/262
f 668/668 535/535 723/723
f 535/535 660/660 723/723
f 505/505 657/657 898/898
f 657/657 505/505 867/867
f 389/389 521/521 266/266
f 521/521 389/389 537/537
f 537/537 58/58 275/275
f 58/58 537/537 389/389
f 318/318 927/927 49/49
f 49/49 927/927 65/65
f 774/774 318/318 49/49
f 774/774 49/49 770/770
f 793/793 820/820 256/256
f 295/295 256/256 820/820
f 865/865 761/761 803/803
f 761/761 636/636 803/803
f 745/745 357/357 257/257
f 357/357 745/745 858/858
f 574/574 147/147 734/734
f 147/147 574/574 6/6
f 216/216 236/236 783/783
f 216/216 783/783 645/645
f 661/661 716/716 740/740
f 740/740 716/716 378/378
f 249/249 378/378 70/70
f 716/716 70/70 378/378
f 399/399 503/503 312/312
f 399/399 153/153 503/503
f 219/219 201/201 506/506
f 219/219 506/506 530/530
f 530/530 550/550 219/219
f 304/304 550/550 530/530
f 688/688 811/811 188/188
f 811/811 688/688 434/434
f 454/454 870/870 830/830
f 870/870 352/352 830/830
f 744/744 474/474 222/222
f 474/474 744/744 80/80
f 776/776 250/250 153/153
f 481/481 343/343 879/879
f 343/343 718/718 879/879
f 551/551 330/330 2/2
f 330/330 551/551 855/855
f 859/859 103/103 335/335
f 103/103 141/141 335/335
f 426/426 240/240 806/806
f 240/240 36/36 806/806
f 503/503 501/501 312/312
f 193/193 312/312 501/501
f 565/565 308/308 320/320
f 565/565 320/320 483/483
f 296/296 209/209 618/618
f 209/209 296/296 214/214
f 185/185 696/696 427/427
f 427/427 696/696 595/595
f 794/794 595/595 56/56
f 595/595 794/794 427/427
f 672/672 496/496 796/796
f 796/796 57/57 672/672
f 595/595 687/687 393/393
f 687/687 595/595 696/696
f 595/595 393/393 56/56
f 56/56 393/393 411/411
f 107/107 672/672 57/57
f 57/57 412/412 107/107
f 52/52 672/672 597/597
f 672/672 107/107 597/597
f 376/376 762/762 173/173
f 762/762 376/376 261/261
f 173/173 612/612 376/376
f 376/376 741/741 261/261
f 741/741 376/376 91/91
f 742/742 329/329 712/712
f 329/329 742/742 90/90
f 329/329 565/565 712/712
f 712/712 483/483 361/361
f 483/483 712/712 565/565
f 361/361 483/483 613/613
f 362/362 614/614 465/465
f 362/362 465/465 125/125
f 465/465 286/286 326/326
f 326/326 125/125 465/465
f 286/286 465/465 703/703
f 705/705 913/913 910/910
f 62/62 935/935 705/705
f 705/705 910/910 62/62
f 680/680 308/308 366/366
f 297/297 366/366 308/308
f 308/308 680/680 93/93
f 308/308 93/93 320/320
f 108/108 336/336 207/207
f 336/336 108/108 520/520
f 336/336 812/812 207/207
f 114/114 900/900 212/212
f 900/900 31/31 212/212
f 417/417 32/32 225/225
f 32/32 417/417 211/211
f 665/665 225/225 446/446
f 417/417 225/225 689/689
f 225/225 665/665 689/689
f 665/665 479/479 689/689
f 479/479 665/665 319/319
f 753/753 319/319 665/665
f 71/71 43/43 552/552
f 553/553 41/41 418/418
f 553/553 418/418 267/267
f 267/267 418/418 281/281
f 684/684 578/578 418/418
f 418/418 578/578 281/281
f 633/633 671/671 360/360
f 671/671 633/633 647/647
f 1/1 622/622 633/633
f 1/1 633/633 360/360
f 72/72 39/39 111/111
f 72/72 111/111 119/119
f 332/332 68/68 39/39
f 111/111 39/39 68/68
f 67/67 314/314 606/606
f 314/314 67/67 333/333
f 606/606 314/314 588/588
f 314/314 302/302 588/588
f 169/169 589/589 303/303
f 589/589 169/169 218/218
f 199/199 218/218 169/169
f 199/199 226/226 218/218
f 24/24 244/244 768/768
f 244/244 24/24 321/321
f 840/840 695/695 142/142
f 142/142 54/54 840/840
f 610/610 365/365 138/138
f 610/610 138/138 484/484
f 367/367 349/349 509/509
f 367/367 509/509 254/254
f 509/509 349/349 118/118
f 447/447 500/500 76/76
f 76/76 518/518 447/447
f 206/206 887/887 487/487
f 887/887 359/359 487/487
f 151/151 19/19 375/375
f 19/19 904/904 375/375
f 700/700 375/375 904/904
f 868/868 459/459 61/61
f 459/459 868/868 85/85
f 135/135 554/554 467/467
f 467/467 181/181 135/135
f 289/289 469/469 440/440
f 289/289 440/440 919/919
f 749/749 751/751 14/14
f 751/751 749/749 317/317
f 747/747 729/729 768/768
f 729/729 749/749 768/768
f 244/244 695/695 400/400
f 400/400 695/695 455/455
f 484/484 514/514 840/840
f 514/514 484/484 131/131
f 349/349 641/641 138/138
f 641/641 349/349 404/404
f 367/367 500/500 174/174
f 816/816 174/174 500/500
f 447/447 206/206 227/227
f 227/227 206/206 232/232
f 904/904 220/220 487/487
f 220/220 904/904 385/385
f 571/571 923/923 61/61
f 923/923 19/19 61/61
f 460/460 554/554 44/44
f 772/772 44/44 554/554
f 135/135 919/919 11/11
f 11/11 919/919 77/77
f 317/317 491/491 440/440
f 491/491 317/317 884/884
f 890/890 918/918 359/359
f 700/700 359/359 918/918
f 396/396 887/887 518/518
f 887/887 396/396 197/197
f 494/494 387/387 76/76
f 76/76 253/253 494/494
f 25/25 13/13 434/434
f 13/13 426/426 434/434
f 143/143 322/322 870/870
f 322/322 688/688 870/870
f 609/609 53/53 80/80
f 53/53 454/454 80/80
f 117/117 744/744 499/499
f 744/744 117/117 364/364
f 869/869 546/546 343/343
f 343/343 809/809 550/550
f 809/809 343/343 546/546
f 466/466 84/84 855/855
f 84/84 480/480 855/855
f 290/290 180/180 103/103
f 180/180 551/551 103/103
f 752/752 859/859 240/240
f 859/859 752/752 470/470
f 810/810 40/40 187/187
f 40/40 810/810 18/18
f 831/831 351/351 668/668
f 668/668 351/351 535/535
f 223/223 475/475 867/867
f 657/657 867/867 475/475
f 521/521 775/775 888/888
f 775/775 537/537 249/249
f 775/775 521/521 537/537
f 216/216 740/740 318/318
f 318/318 740/740 927/927
f 719/719 295/295 881/881
f 719/719 256/256 295/295
f 331/331 865/865 3/3
f 865/865 331/331 761/761
f 334/334 140/140 257/257
f 257/257 140/140 745/745
f 147/147 6/6 35/35
f 6/6 805/805 35/35
f 574/574 18/18 6/6
f 18/18 574/574 585/585
f 535/535 40/40 262/262
f 535/535 262/262 660/660
f 723/723 898/898 657/657
f 657/657 668/668 723/723
f 521/521 505/505 266/266
f 505/505 521/521 867/867
f 58/58 65/65 927/927
f 927/927 275/275 58/58
f 770/770 256/256 774/774
f 256/256 770/770 793/793
f 761/761 295/295 820/820
f 761/761 820/820 636/636
f 803/803 858/858 745/745
f 745/745 865/865 803/803
f 147/147 357/357 734/734
f 357/357 147/147 257/257
f 434/434 806/806 811/811
f 806/806 434/434 426/426
f 870/870 188/188 352/352
f 188/188 870/870 688/688
f 80/80 830/830 474/474
f 830/830 80/80 454/454
f 499/499 744/744 889/889
f 744/744 222/222 889/889
f 343/343 759/759 718/718
f 759/759 343/343 304/304
f 304/304 343/343 550/550
f 855/855 880/880 330/330
f 880/880 855/855 480/480
f 103/103 551/551 141/141
f 551/551 2/2 141/141
f 240/240 335/335 36/36
f 335/335 240/240 859/859
f 645/645 740/740 216/216
f 740/740 645/645 661/661
f 309/309 276/276 508/508
f 509/509 277/277 254/254
f 546/546 152/152 809/809
f 304/304 915/915 759/759
f 631/631 557/557 192/192
f 557/557 631/631 127/127
f 285/285 192/192 557/557
f 285/285 557/557 123/123
f 285/285 34/34 556/556
f 34/34 285/285 123/123
f 237/237 556/556 34/34
f 237/237 34/34 616/616
f 237/237 709/709 104/104
f 709/709 237/237 616/616
f 907/907 124/124 28/28
f 907/907 28/28 829/829
f 92/92 907/907 829/829
f 92/92 829/829 569/569
f 23/23 92/92 569/569
f 23/23 569/569 524/524
f 603/603 23/23 524/524
f 603/603 524/524 538/538
f 594/594 603/603 538/538
f 594/594 538/538 531/531
f 630/630 191/191 743/743
f 630/630 743/743 640/640
f 238/238 245/245 555/555
f 245/245 238/238 251/251
f 532/532 767/767 342/342
f 767/767 532/532 625/625
f 539/539 523/523 635/635
f 539/539 635/635 651/651
f 523/523 570/570 346/346
f 523/523 346/346 635/635
f 631/631 325/325 706/706
f 631/631 706/706 127/127
f 911/911 28/28 124/124
f 28/28 911/911 833/833
f 325/325 845/845 895/895
f 325/325 895/895 706/706
f 844/844 324/324 683/683
f 844/844 683/683 861/861
f 864/864 833/833 911/911
f 833/833 864/864 781/781
f 845/845 445/445 62/62
f 845/845 62/62 895/895
f 444/444 844/844 861/861
f 444/444 861/861 366/366
f 104/104 388/388 579/579
f 388/388 104/104 709/709
f 531/531 341/341 449/449
f 449/449 594/594 531/531
f 532/532 539/539 651/651
f 532/532 651/651 625/625
f 832/832 780/780 897/897
f 832/832 897/897 20/20
f 824/824 897/897 780/780
f 897/897 824/824 1/1
f 191/191 283/283 838/838
f 191/191 838/838 743/743
f 555/555 839/839 284/284
f 839/839 555/555 245/245
f 105/105 251/251 238/238
f 251/251 105/105 139/139
f 828/828 347/347 568/568
f 347/347 828/828 246/246
f 27/27 246/246 828/828
f 246/246 27/27 161/161
f 832/832 161/161 27/27
f 161/161 832/832 20/20
f 324/324 630/630 640/640
f 324/324 640/640 683/683
f 105/105 580/580 755/755
f 105/105 755/755 139/139
f 579/579 495/495 463/463
f 495/495 579/579 388/388
f 341/341 230/230 847/847
f 847/847 449/449 341/341
f 781/781 900/900 825/825
f 900/900 781/781 864/864
f 728/728 442/442 577/577
f 728/728 577/577 622/622
f 114/114 441/441 727/727
f 89/89 935/935 789/789
f 229/229 375/375 846/846
f 229/229 151/151 375/375
f 309/309 462/462 276/276
f 462/462 309/309 17/17
f 342/342 611/611 231/231
f 611/611 342/342 767/767
f 231/231 809/809 152/152
f 809/809 231/231 611/611
f 17/17 580/580 462/462
f 580/580 17/17 755/755
f 788/788 329/329 90/90
f 329/329 788/788 297/297
f 415/415 75/75 165/165
f 415/415 165/165 486/486
f 415/415 437/437 920/920
f 437/437 415/415 486/486
f 83/83 920/920 437/437
f 83/83 437/437 177/177
f 177/177 564/564 83/83
f 564/564 177/177 638/638
f 826/826 564/564 638/638
f 826/826 638/638 901/901
f 121/121 402/402 802/802
f 402/402 121/121 439/439
f 802/802 340/340 739/739
f 340/340 802/802 402/402
f 739/739 79/79 836/836
f 79/79 739/739 340/340
f 836/836 928/928 37/37
f 928/928 836/836 79/79
f 37/37 368/368 756/756
f 368/368 37/37 928/928
f 713/713 166/166 10/10
f 166/166 713/713 485/485
f 421/421 543/543 639/639
f 421/421 639/639 176/176
f 506/506 381/381 757/757
f 506/506 757/757 410/410
f 282/282 38/38 26/26
f 38/38 282/282 835/835
f 184/184 835/835 282/282
f 835/835 184/184 738/738
f 476/476 165/165 75/75
f 165/165 476/476 541/541
f 121/121 162/162 658/658
f 121/121 658/658 439/439
f 81/81 541/541 476/476
f 541/541 81/81 707/707
f 433/433 708/708 587/587
f 708/708 433/433 540/540
f 162/162 608/608 658/658
f 162/162 99/99 608/608
f 207/207 707/707 81/81
f 707/707 207/207 656/656
f 587/587 655/655 93/93
f 655/655 587/587 708/708
f 901/901 669/669 542/542
f 542/542 826/826 901/901
f 756/756 583/583 409/409
f 583/583 756/756 368/368
f 26/26 757/757 381/381
f 757/757 26/26 38/38
f 624/624 163/163 685/685
f 163/163 624/624 100/100
f 624/624 671/671 159/159
f 624/624 159/159 100/100
f 666/666 485/485 713/713
f 485/485 666/666 435/435
f 667/667 421/421 176/176
f 667/667 176/176 436/436
f 543/543 779/779 902/902
f 543/543 902/902 639/639
f 183/183 239/239 801/801
f 183/183 801/801 737/737
f 239/239 453/453 122/122
f 239/239 122/122 801/801
f 453/453 685/685 163/163
f 453/453 163/163 122/122
f 10/10 540/540 433/433
f 540/540 10/10 166/166
f 501/501 902/902 779/779
f 902/902 501/501 670/670
f 669/669 154/154 69/69
f 69/69 542/542 669/669
f 409/409 782/782 258/258
f 782/782 409/409 583/583
f 99/99 650/650 608/608
f 99/99 158/158 650/650
f 204/204 883/883 647/647
f 883/883 204/204 42/42
f 158/158 71/71 650/650
f 71/71 158/158 882/882
f 812/812 615/615 16/16
f 236/236 259/259 783/783
f 259/259 236/236 916/916
f 249/249 70/70 155/155
f 153/153 156/156 503/503
f 156/156 153/153 250/250
f 410/410 260/260 530/530
f 530/530 506/506 410/410
f 304/304 530/530 260/260
f 304/304 260/260 915/915
f 503/503 670/670 501/501
f 670/670 503/503 156/156
f 15/15 613/613 483/483
f 483/483 320/320 15/15
f 445/445 789/789 935/935
f 935/935 62/62 445/445
f 444/444 297/297 788/788
f 297/297 444/444 366/366
f 320/320 93/93 655/655
f 320/320 655/655 15/15
f 812/812 656/656 207/207
f 656/656 812/812 16/16
f 825/825 114/114 727/727
f 114/114 825/825 900/900
f 43/43 71/71 882/882
f 647/647 159/159 671/671
f 159/159 647/647 883/883
f 824/824 728/728 622/622
f 824/824 622/622 1/1
f 461/461 253/253 277/277
f 253/253 461/461 494/494
f 242/242 679/679 864/864
f 679/679 242/242 903/903
f 903/903 675/675 679/679
f 675/675 903/903 525/525
f 446/446 526/526 102/102
f 526/526 446/446 676/676
f 753/753 446/446 102/102
f 446/446 753/753 665/665
f 608/608 650/650 473/473
f 843/843 473/473 650/650
f 473/473 843/843 274/274
f 273/273 841/841 926/926
f 273/273 926/926 522/522
f 281/281 348/348 926/926
f 281/281 926/926 267/267
f 926/926 348/348 522/522
f 552/552 843/843 650/650
f 650/650 71/71 552/552
f 675/675 31/31 679/679
f 900/900 679/679 31/31
f 748/748 692/692 730/730
f 379/379 748/748 401/401
f 748/748 379/379 692/692
f 456/456 379/379 401/401
f 488/488 456/456 515/515
f 456/456 488/488 379/379
f 132/132 488/488 515/515
f 617/617 132/132 642/642
f 132/132 617/617 488/488
f 405/405 617/617 642/642
f 493/493 405/405 175/175
f 405/405 493/493 617/617
f 817/817 493/493 175/175
f 205/205 817/817 228/228
f 817/817 205/205 493/493
f 233/233 205/205 228/228
f 200/200 233/233 221/221
f 233/233 200/200 205/205
f 572/572 896/896 924/924
f 7/7 572/572 46/46
f 572/572 7/7 896/896
f 773/773 8/8 47/47
f 925/925 773/773 12/12
f 773/773 925/925 8/8
f 78/78 925/925 12/12
f 464/464 78/78 492/492
f 78/78 464/464 925/925
f 885/885 464/464 492/492
f 692/692 885/885 730/730
f 885/885 692/692 464/464
f 384/384 200/200 221/221
f 896/896 384/384 924/924
f 384/384 896/896 200/200
f 263/263 584/584 300/300
f 602/602 300/300 584/584
f 602/602 584/584 573/573
f 659/659 300/300 398/398
f 398/398 724/724 659/659
f 300/300 659/659 263/263
f 504/504 899/899 534/534
f 398/398 534/534 899/899
f 398/398 899/899 724/724
f 390/390 265/265 48/48
f 534/534 48/48 265/265
f 534/534 265/265 504/504
f 48/48 94/94 59/59
f 48/48 59/59 390/390
f 50/50 66/66 88/88
f 94/94 88/88 66/66
f 94/94 66/66 59/59
f 819/819 792/792 863/863
f 800/800 863/863 792/792
f 800/800 792/792 771/771
f 804/804 637/637 827/827
f 862/862 827/827 637/637
f 862/862 637/637 818/818
f 857/857 827/827 380/380
f 380/380 358/358 857/857
f 827/827 857/857 804/804
f 573/573 733/733 602/602
f 380/380 602/602 733/733
f 380/380 733/733 358/358
f 88/88 800/800 771/771
f 88/88 771/771 50/50
f 512/512 605/605 935/935
f 812/812 575/575 137/137
f 935/935 605/605 705/705
f 336/336 575/575 812/812
f 704/704 196/196 769/769
f 196/196 704/704 604/604
f 604/604 355/355 196/196
f 355/355 604/604 513/513
f 866/866 278/278 337/337
f 576/576 337/337 278/278
f 576/576 448/448 136/136
f 448/448 576/576 278/278
f 399/399 776/776 153/153
f 776/776 399/399 499/499
f 776/776 499/499 889/889
f 379/379 621/621 692/692
f 621/621 379/379 310/310
f 379/379 488/488 419/419
f 379/379 419/419 310/310
f 617/617 419/419 488/488
f 419/419 617/617 549/549
f 617/617 493/493 422/422
f 617/617 422/422 549/549
f 493/493 205/205 115/115
f 493/493 115/115 422/422
f 112/112 205/205 200/200
f 205/205 112/112 115/115
f 896/896 7/7 875/875
f 896/896 875/875 814/814
f 925/925 876/876 8/8
f 876/876 925/925 849/849
f 925/925 464/464 391/391
f 925/925 391/391 849/849
f 464/464 692/692 621/621
f 464/464 621/621 391/391
f 200/200 896/896 814/814
f 200/200 814/814 112/112
f 822/822 673/673 528/528
f 673/673 732/732 528/528
f 373/373 725/725 430/430
f 725/725 778/778 430/430
f 5/5 620/620 311/311
f 620/620 5/5 784/784
f 311/311 420/420 5/5
f 5/5 420/420 593/593
f 693/693 593/593 548/548
f 420/420 548/548 593/593
f 299/299 548/548 423/423
f 548/548 299/299 693/693
f 116/116 299/299 423/423
f 299/299 116/116 202/202
f 116/116 113/113 202/202
f 202/202 113/113 516/516
f 591/591 113/113 815/815
f 113/113 591/591 516/516
f 821/821 815/815 874/874
f 815/815 821/821 591/591
f 874/874 374/374 821/821
f 374/374 874/874 850/850
f 235/235 850/850 392/392
f 850/850 235/235 374/374
f 784/784 392/392 620/620
f 392/392 784/784 235/235
f 673/673 373/373 732/732
f 373/373 430/430 732/732
f 725/725 234/234 778/778
f 234/234 288/288 778/778
f 5/5 791/791 784/784
f 593/593 110/110 5/5
f 693/693 601/601 593/593
f 299/299 872/872 693/693
f 202/202 432/432 299/299
f 516/516 268/268 202/202
f 591/591 582/582 516/516
f 821/821 425/425 591/591
f 374/374 674/674 821/821
f 235/235 726/726 374/374
f 784/784 852/852 235/235
f 785/785 489/489 851/851
f 851/851 489/489 909/909
f 628/628 790/790 4/4
f 790/790 628/628 854/854
f 592/592 653/653 109/109
f 109/109 653/653 711/711
f 694/694 764/764 600/600
f 600/600 764/764 664/664
f 298/298 354/354 871/871
f 871/871 354/354 930/930
f 799/799 431/431 203/203
f 431/431 799/799 134/134
f 517/517 559/559 269/269
f 269/269 559/559 328/328
f 590/590 649/649 581/581
f 581/581 649/649 644/644
f 529/529 424/424 823/823
f 424/424 529/529 478/478
f 909/909 234/234 851/851
f 234/234 909/909 288/288
f 854/854 785/785 790/790
f 785/785 854/854 489/489
f 711/711 4/4 109/109
f 4/4 711/711 628/628
f 664/664 592/592 600/600
f 592/592 664/664 653/653
f 930/930 694/694 871/871
f 694/694 930/930 764/764
f 431/431 134/134 298/298
f 298/298 134/134 354/354
f 328/328 203/203 269/269
f 203/203 328/328 799/799
f 644/644 517/517 581/581
f 517/517 644/644 559/559
f 424/424 478/478 590/590
f 590/590 478/478 649/649
f 300/300 682/682 922/922
f 682/682 300/300 602/602
f 398/398 300/300 472/472
f 922/922 472/472 300/300
f 534/534 472/472 599/599
f 472/472 534/534 398/398
f 48/48 534/534 145/145
f 599/599 145/145 534/534
f 94/94 48/48 190/190
f 145/145 190/190 48/48
f 88/88 190/190 179/179
f 190/190 88/88 94/94
f 863/863 800/800 933/933
f 878/878 933/933 800/800
f 827/827 932/932 906/906
f 932/932 827/827 862/862
f 380/380 827/827 452/452
f 906/906 452/452 827/827
f 602/602 380/380 682/682
f 452/452 682/682 380/380
f 800/800 88/88 878/878
f 179/179 878/878 88/88
f 681/681 627/627 921/921
f 627/627 681/681 490/490
f 471/471 921/921 627/627
f 471/471 627/627 652/652
f 598/598 652/652 763/763
f 652/652 598/598 471/471
f 598/598 353/353 144/144
f 353/353 598/598 763/763
f 189/189 144/144 353/353
f 189/189 353/353 798/798
f 178/178 798/798 558/558
f 798/798 178/178 189/189
f 648/648 178/178 558/558
f 178/178 648/648 877/877
f 877/877 527/527 931/931
f 527/527 877/877 648/648
f 931/931 429/429 905/905
f 429/429 931/931 527/527
f 287/287 905/905 429/429
f 905/905 287/287 451/451
f 451/451 490/490 681/681
f 490/490 451/451 287/287
f 627/627 490/490 853/853
f 652/652 627/627 710/710
f 763/763 652/652 663/663
f 353/353 763/763 929/929
f 798/798 353/353 133/133
f 558/558 798/798 327/327
f 648/648 558/558 643/643
f 527/527 648/648 477/477
f 429/429 527/527 731/731
f 287/287 429/429 777/777
f 490/490 287/287 908/908