o convex_0
v 0.006537 0.041405 0.006257
v -0.010238 -0.057372 0.001464
v -0.007575 -0.057382 0.001464
v 0.006537 0.041405 0.001464
v 0.005205 -0.057382 0.006257
v -0.007575 0.041405 0.006257
v -0.010238 -0.057372 0.006257
v -0.007575 0.041405 0.001464
v 0.005205 -0.057382 0.001464
v 0.006537 0.027548 0.006257
v 0.006537 0.027548 0.001464
v -0.010238 -0.055235 0.006257
v -0.007841 0.033147 0.001464
v -0.010238 -0.055235 0.001464
v -0.007841 0.033147 0.006257
f 13 12 15 
f 3 2 4 
f 1 4 6 
f 5 1 6 
f 5 6 7 
f 2 3 7 
f 3 5 7 
f 4 2 8 
f 6 4 8 
f 3 4 9 
f 5 3 9 
f 5 9 10 
f 4 1 10 
f 1 5 10 
f 4 10 11 
f 9 4 11 
f 10 9 11 
f 7 6 12 
f 2 7 12 
f 8 2 13 
f 6 8 13 
f 12 13 14 
f 2 12 14 
f 13 2 14 
f 12 6 15 
f 6 13 15 
o convex_1
v -0.006511 -0.090130 0.006789
v -0.017693 -0.074685 0.000933
v -0.017693 -0.074685 0.006789
v -0.004647 -0.057385 0.001465
v -0.005713 -0.089062 0.000134
v -0.004647 -0.063241 0.007588
v -0.010506 -0.057651 0.006256
v -0.013433 -0.086668 0.000933
v -0.014231 -0.067236 0.000134
v -0.013167 -0.085870 0.007588
v -0.004647 -0.062975 0.000134
v -0.010506 -0.057651 0.001199
v -0.005181 -0.089062 0.006789
v -0.015830 -0.069899 0.007588
v -0.016628 -0.079478 0.000134
v -0.017161 -0.079744 0.006789
v -0.016628 -0.069899 0.000933
v -0.005713 -0.089062 0.007588
v -0.004647 -0.057385 0.006256
v -0.004647 -0.075218 0.000134
v -0.007842 -0.089861 0.000400
v -0.013433 -0.086668 0.006789
v -0.016628 -0.069899 0.006789
v -0.004647 -0.075218 0.007588
v -0.005181 -0.089062 0.000933
v -0.017161 -0.079744 0.000667
v -0.007842 -0.090130 0.006789
v -0.011570 -0.064572 0.007588
v -0.016628 -0.079212 0.007588
v -0.013167 -0.086136 0.000134
v -0.016894 -0.073358 0.000134
v -0.010239 -0.057382 0.006256
v -0.010772 -0.064040 0.000134
v -0.007842 -0.090130 0.000933
v -0.007842 -0.089595 0.007588
v -0.005979 -0.089861 0.000667
v -0.013966 -0.085870 0.006789
v -0.017693 -0.074153 0.006789
v -0.010239 -0.057382 0.001465
v -0.004647 -0.057651 0.001199
v -0.016894 -0.073624 0.007588
v -0.010506 -0.058452 0.006523
v -0.016361 -0.070166 0.000400
v -0.013966 -0.085870 0.000933
f 52 41 59 
f 19 21 26 
f 20 24 26 
f 25 21 29 
f 24 20 30 
f 18 17 31 
f 22 27 32 
f 21 25 33 
f 16 28 33 
f 21 19 34 
f 26 21 35 
f 20 26 35 
f 29 22 38 
f 22 32 38 
f 21 33 39 
f 33 28 39 
f 35 21 39 
f 28 35 39 
f 20 35 40 
f 35 28 40 
f 17 30 41 
f 31 17 41 
f 37 23 42 
f 29 21 43 
f 25 29 44 
f 18 31 44 
f 31 25 44 
f 30 20 45 
f 20 36 45 
f 36 23 45 
f 41 30 45 
f 30 17 46 
f 24 30 46 
f 27 22 47 
f 34 19 47 
f 26 24 48 
f 24 27 48 
f 27 26 48 
f 23 36 49 
f 16 42 49 
f 42 23 49 
f 16 33 50 
f 33 25 50 
f 25 37 50 
f 42 16 50 
f 37 42 50 
f 28 16 51 
f 36 20 51 
f 40 28 51 
f 20 40 51 
f 49 36 51 
f 16 49 51 
f 25 31 52 
f 37 25 52 
f 23 37 52 
f 31 41 52 
f 17 18 53 
f 32 17 53 
f 38 32 53 
f 27 47 54 
f 47 19 54 
f 19 26 55 
f 26 27 55 
f 54 19 55 
f 27 54 55 
f 29 38 56 
f 18 44 56 
f 44 29 56 
f 53 18 56 
f 38 53 56 
f 22 29 57 
f 21 34 57 
f 43 21 57 
f 29 43 57 
f 47 22 57 
f 34 47 57 
f 27 24 58 
f 17 32 58 
f 32 27 58 
f 46 17 58 
f 24 46 58 
f 45 23 59 
f 41 45 59 
f 23 52 59 
o convex_2
v -0.011038 0.084007 0.000933
v -0.018759 0.071230 0.000933
v -0.018759 0.071230 0.006788
v -0.008375 0.050991 0.001465
v -0.008375 0.073090 0.007855
v -0.013966 0.085071 0.007855
v -0.008642 0.050991 0.006257
v -0.008375 0.073090 -0.000133
v -0.016895 0.080280 -0.000133
v -0.016096 0.064307 0.007855
v -0.016096 0.064307 -0.000133
v -0.017693 0.080012 0.007056
v -0.013966 0.085071 -0.000133
v -0.008375 0.057920 0.007855
v -0.016629 0.063775 0.000666
v -0.011304 0.084803 0.007056
v -0.008375 0.057649 -0.000133
v -0.017160 0.064839 0.006788
v -0.017693 0.080280 0.000666
v -0.017959 0.073886 0.007855
v -0.014233 0.085607 0.007056
v -0.018759 0.074954 0.006788
v -0.012369 0.085071 -0.000133
v -0.008908 0.051526 0.001198
v -0.018226 0.068035 0.000933
v -0.017959 0.071230 -0.000133
v -0.018492 0.077085 0.000933
v -0.014233 0.085607 0.000666
v -0.012369 0.085607 0.000666
v -0.008375 0.073622 0.007321
v -0.016361 0.063243 0.006788
v -0.011837 0.084539 0.007855
v -0.012636 0.060048 0.007855
v -0.013168 0.060312 -0.000133
v -0.016629 0.082140 0.006788
v -0.018226 0.068035 0.006788
v -0.012369 0.085607 0.007056
v -0.017160 0.079213 0.007855
v -0.008375 0.073622 0.000400
v -0.008375 0.050991 0.006257
v -0.016361 0.063243 0.000933
v -0.018226 0.078416 0.006788
v -0.011304 0.084803 0.000666
v -0.018759 0.074954 0.000933
v -0.017428 0.068299 0.007855
v -0.017959 0.075218 -0.000133
v -0.008642 0.050991 0.001465
v -0.016096 0.082943 0.000933
v -0.010239 0.058185 0.007855
f 73 92 108 
f 64 63 67 
f 64 65 69 
f 68 67 70 
f 67 68 72 
f 63 64 73 
f 64 69 73 
f 67 63 76 
f 70 67 76 
f 72 68 78 
f 69 65 79 
f 61 62 81 
f 62 79 81 
f 67 72 82 
f 74 70 83 
f 76 63 83 
f 62 61 84 
f 70 74 84 
f 74 77 84 
f 68 70 85 
f 84 61 85 
f 70 84 85 
f 72 78 87 
f 82 72 87 
f 82 87 88 
f 87 80 88 
f 64 67 89 
f 60 75 89 
f 75 64 89 
f 66 69 90 
f 69 77 90 
f 77 74 90 
f 65 64 91 
f 64 75 91 
f 69 66 92 
f 73 69 92 
f 70 76 93 
f 83 70 93 
f 76 83 93 
f 71 65 94 
f 78 71 94 
f 65 80 94 
f 77 69 95 
f 62 84 95 
f 84 77 95 
f 80 65 96 
f 75 88 96 
f 88 80 96 
f 65 91 96 
f 91 75 96 
f 65 71 97 
f 79 65 97 
f 81 79 97 
f 60 89 98 
f 89 67 98 
f 66 63 99 
f 63 73 99 
f 73 66 99 
f 66 90 100 
f 90 74 100 
f 71 78 101 
f 78 86 101 
f 86 81 101 
f 97 71 101 
f 81 97 101 
f 75 60 102 
f 67 82 102 
f 82 88 102 
f 88 75 102 
f 60 98 102 
f 98 67 102 
f 61 81 103 
f 85 61 103 
f 81 86 103 
f 79 62 104 
f 69 79 104 
f 95 69 104 
f 62 95 104 
f 78 68 105 
f 68 85 105 
f 86 78 105 
f 85 103 105 
f 103 86 105 
f 63 66 106 
f 83 63 106 
f 74 83 106 
f 66 100 106 
f 100 74 106 
f 87 78 107 
f 80 87 107 
f 78 94 107 
f 94 80 107 
f 66 73 108 
f 92 66 108 
o convex_3
v -0.008108 0.073358 0.007056
v -0.008375 0.048865 0.001465
v -0.007575 0.041405 0.001465
v 0.001211 0.070959 -0.000133
v 0.001211 0.041405 0.006257
v 0.001211 0.070959 0.007855
v -0.008375 0.072823 -0.000133
v -0.007575 0.041405 0.006257
v 0.001211 0.041405 0.001465
v -0.008375 0.057648 0.007855
v -0.007842 0.057382 -0.000133
v 0.001211 0.056850 0.007855
v 0.001211 0.056850 -0.000133
v -0.008375 0.072823 0.007855
v -0.008108 0.073358 0.000400
v 0.001211 0.071225 0.007588
v -0.008375 0.048865 0.006257
v -0.008375 0.057648 -0.000133
v 0.001211 0.071225 0.000134
v -0.006510 0.057116 0.007855
v -0.004380 0.056850 -0.000133
f 119 121 129 
f 113 112 114 
f 110 111 116 
f 111 113 116 
f 112 113 117 
f 113 111 117 
f 115 110 118 
f 115 112 119 
f 113 114 120 
f 116 113 120 
f 114 118 120 
f 117 111 121 
f 112 117 121 
f 119 112 121 
f 109 115 122 
f 118 114 122 
f 115 118 122 
f 115 109 123 
f 112 115 123 
f 114 112 124 
f 109 122 124 
f 122 114 124 
f 123 109 124 
f 110 116 125 
f 118 110 125 
f 116 118 125 
f 111 110 126 
f 110 115 126 
f 119 111 126 
f 115 119 126 
f 112 123 127 
f 124 112 127 
f 123 124 127 
f 118 116 128 
f 116 120 128 
f 120 118 128 
f 111 119 129 
f 121 111 129 
o convex_4
v 0.008134 0.050725 0.006257
v 0.001211 0.041405 0.001464
v 0.006536 0.041405 0.001464
v 0.001211 0.050991 0.001464
v 0.001211 0.041405 0.006257
v 0.001211 0.050991 0.006257
v 0.008134 0.050991 0.001464
v 0.006803 0.041672 0.006257
v 0.006803 0.041672 0.001464
v 0.008134 0.050991 0.006257
v 0.006536 0.041405 0.006257
f 132 137 140 
f 132 131 133 
f 131 132 134 
f 133 131 134 
f 134 130 135 
f 133 134 135 
f 132 133 136 
f 133 135 136 
f 130 134 137 
f 136 130 138 
f 132 136 138 
f 130 137 138 
f 137 132 138 
f 135 130 139 
f 130 136 139 
f 136 135 139 
f 134 132 140 
f 137 134 140 
o convex_5
v 0.015322 0.083207 0.007056
v 0.001212 0.050995 0.001198
v 0.008135 0.050995 0.001198
v 0.004408 0.089329 -0.000133
v 0.001212 0.056852 0.007855
v 0.017985 0.072822 -0.000133
v 0.017187 0.066436 0.007855
v 0.003875 0.088532 0.007855
v 0.001212 0.071225 -0.000133
v 0.008135 0.050995 0.006257
v 0.012660 0.086402 0.000666
v 0.015322 0.063242 -0.000133
v 0.018252 0.066436 0.006788
v 0.001212 0.056852 -0.000133
v 0.017985 0.078415 0.006788
v 0.006271 0.089861 0.007056
v 0.001212 0.071225 0.007855
v 0.003343 0.088796 0.000666
v 0.017985 0.078415 0.000933
v 0.001212 0.050995 0.006257
v 0.018252 0.066436 0.000933
v 0.015056 0.082142 0.007855
v 0.009732 0.057653 0.007855
v 0.018785 0.073355 0.006789
v 0.015056 0.082407 -0.000133
v 0.012395 0.086666 0.006788
v 0.005739 0.090129 0.000666
v 0.003343 0.088796 0.007056
v 0.009732 0.057385 -0.000133
v 0.018785 0.072290 0.000666
v 0.015589 0.061912 0.006788
v 0.015856 0.082675 0.000666
v 0.015056 0.061112 0.000933
v 0.017719 0.073887 0.007855
v 0.007604 0.088532 0.007855
v 0.014258 0.061644 0.007855
v 0.004939 0.090129 0.006788
v 0.008667 0.051527 0.006257
v 0.007337 0.088796 -0.000133
v 0.015322 0.083475 0.006788
v 0.018785 0.071225 0.006789
v 0.008667 0.051796 0.006523
v 0.017452 0.067237 -0.000133
v 0.008667 0.051527 0.001198
v 0.004408 0.089861 0.000666
v 0.011861 0.085870 0.007855
v 0.009467 0.088264 0.000933
v 0.017187 0.077879 -0.000133
v 0.001212 0.071493 0.000666
v 0.004673 0.056588 -0.000133
v 0.016921 0.078415 0.007855
v 0.003875 0.088532 -0.000133
v 0.011595 0.086138 -0.000133
v 0.013726 0.085337 0.000933
v 0.018785 0.073355 0.000933
v 0.005739 0.056852 0.007855
f 182 163 196 
f 145 147 148 
f 142 145 149 
f 144 146 149 
f 142 143 150 
f 149 146 152 
f 142 149 154 
f 149 152 154 
f 145 148 157 
f 149 145 157 
f 145 142 160 
f 142 150 160 
f 148 147 162 
f 147 145 163 
f 159 155 164 
f 146 144 165 
f 157 148 168 
f 154 152 169 
f 153 147 171 
f 161 153 171 
f 155 159 172 
f 165 151 172 
f 152 161 173 
f 161 171 173 
f 162 147 174 
f 164 155 174 
f 156 148 175 
f 148 162 175 
f 166 156 175 
f 147 163 176 
f 171 147 176 
f 148 156 177 
f 156 167 177 
f 168 148 177 
f 150 143 178 
f 173 171 178 
f 165 144 179 
f 144 167 179 
f 167 151 179 
f 141 155 180 
f 166 141 180 
f 155 172 180 
f 147 153 181 
f 153 161 181 
f 161 170 181 
f 170 164 181 
f 174 147 181 
f 164 174 181 
f 145 160 182 
f 160 150 182 
f 176 163 182 
f 171 176 182 
f 150 178 182 
f 178 171 182 
f 152 146 183 
f 161 152 183 
f 146 170 183 
f 170 161 183 
f 143 169 184 
f 169 152 184 
f 152 173 184 
f 178 143 184 
f 173 178 184 
f 144 158 185 
f 167 144 185 
f 158 168 185 
f 177 167 185 
f 168 177 185 
f 162 141 186 
f 141 166 186 
f 175 162 186 
f 166 175 186 
f 166 151 187 
f 156 166 187 
f 151 167 187 
f 167 156 187 
f 146 165 188 
f 170 146 188 
f 159 170 188 
f 172 159 188 
f 165 172 188 
f 149 157 189 
f 158 149 189 
f 157 168 189 
f 168 158 189 
f 143 142 190 
f 142 154 190 
f 169 143 190 
f 154 169 190 
f 155 141 191 
f 141 162 191 
f 162 174 191 
f 174 155 191 
f 144 149 192 
f 149 158 192 
f 158 144 192 
f 151 165 193 
f 165 179 193 
f 179 151 193 
f 151 166 194 
f 172 151 194 
f 166 180 194 
f 180 172 194 
f 159 164 195 
f 170 159 195 
f 164 170 195 
f 163 145 196 
f 145 182 196 
o convex_6
v 0.000412 -0.063242 0.000134
v 0.000145 -0.063242 0.007588
v -0.004646 -0.063242 0.007588
v -0.004646 -0.075222 0.007588
v 0.002542 -0.075222 0.007588
v -0.004646 -0.075222 0.000134
v -0.004646 -0.057383 0.001465
v 0.002542 -0.057383 0.006256
v 0.002542 -0.075222 0.000134
v 0.002542 -0.057651 0.001199
v -0.004646 -0.057383 0.006256
v -0.004646 -0.062976 0.000134
v 0.002542 -0.063774 0.007588
v 0.002542 -0.063774 0.000134
v 0.002542 -0.057383 0.001465
v -0.004646 -0.057651 0.001199
f 206 208 212 
f 198 199 200 
f 198 200 201 
f 200 199 202 
f 201 200 202 
f 202 199 203 
f 199 198 204 
f 202 197 205 
f 201 202 205 
f 204 201 205 
f 204 205 206 
f 203 199 207 
f 199 204 207 
f 204 203 207 
f 197 202 208 
f 202 203 208 
f 206 197 208 
f 198 201 209 
f 204 198 209 
f 201 204 209 
f 205 197 210 
f 206 205 210 
f 197 206 210 
f 203 204 211 
f 204 206 211 
f 206 203 211 
f 203 206 212 
f 208 203 212 
o convex_7
v 0.011595 -0.076816 0.007588
v 0.002543 -0.075485 0.000667
v 0.002543 -0.075485 0.007055
v 0.005473 -0.057387 0.001465
v 0.008933 -0.085872 0.000134
v 0.002543 -0.057387 0.006256
v 0.011595 -0.073625 0.000134
v 0.006804 -0.086402 0.007055
v 0.002543 -0.063775 0.000134
v 0.011595 -0.071231 0.006789
v 0.011595 -0.081342 0.006789
v 0.005473 -0.057387 0.006256
v 0.002543 -0.063775 0.007588
v 0.006271 -0.085869 0.000667
v 0.008666 -0.086136 0.007588
v 0.011862 -0.080279 0.000933
v 0.009466 -0.068035 0.007588
v 0.002543 -0.057651 0.001199
v 0.011595 -0.071231 0.000933
v 0.012128 -0.074155 0.007055
v 0.002543 -0.075219 0.000134
v 0.002543 -0.075219 0.007588
v 0.009466 -0.068035 0.000134
v 0.008666 -0.086672 0.000667
v 0.012128 -0.073625 0.000933
v 0.006271 -0.085869 0.006789
v 0.011595 -0.081342 0.000667
v 0.008933 -0.086402 0.006789
v 0.012128 -0.077082 0.006789
v 0.005473 -0.064308 0.000134
v 0.006537 -0.085602 0.000134
v 0.005473 -0.064308 0.007588
v 0.006804 -0.085869 0.007588
v 0.011329 -0.080812 0.000134
v 0.005473 -0.057918 0.001199
v 0.012128 -0.076549 0.000667
v 0.007336 -0.086672 0.000667
v 0.011329 -0.080545 0.007588
v 0.008666 -0.086672 0.007055
v 0.011063 -0.071498 0.007588
v 0.010530 -0.083475 0.000933
f 223 240 253 
f 214 215 218 
f 214 218 221 
f 219 217 221 
f 216 218 224 
f 222 216 224 
f 218 215 225 
f 224 218 225 
f 215 214 226 
f 213 225 227 
f 222 224 229 
f 225 213 229 
f 218 216 230 
f 221 218 230 
f 216 222 231 
f 214 221 233 
f 221 217 233 
f 226 214 233 
f 225 215 234 
f 227 225 234 
f 219 221 235 
f 216 231 235 
f 231 219 235 
f 219 231 237 
f 231 222 237 
f 222 232 237 
f 215 226 238 
f 226 220 238 
f 234 215 238 
f 228 223 239 
f 223 228 241 
f 232 213 241 
f 237 232 241 
f 235 221 242 
f 233 217 243 
f 226 233 243 
f 224 225 244 
f 229 224 244 
f 225 229 244 
f 227 234 245 
f 238 220 245 
f 234 238 245 
f 217 219 246 
f 239 217 246 
f 230 216 247 
f 221 230 247 
f 216 235 247 
f 242 221 247 
f 235 242 247 
f 219 237 248 
f 228 239 248 
f 241 228 248 
f 237 241 248 
f 246 219 248 
f 239 246 248 
f 220 226 249 
f 217 236 249 
f 243 217 249 
f 226 243 249 
f 213 227 250 
f 227 223 250 
f 241 213 250 
f 223 241 250 
f 223 227 251 
f 236 240 251 
f 240 223 251 
f 245 220 251 
f 227 245 251 
f 220 249 251 
f 249 236 251 
f 229 213 252 
f 222 229 252 
f 213 232 252 
f 232 222 252 
f 236 217 253 
f 217 239 253 
f 239 223 253 
f 240 236 253 
