o convex_0
v -0.019626 -0.078636 0.000211
v -0.009642 -0.045358 0.020180
v -0.009642 -0.044942 0.019761
v -0.020875 -0.062834 0.019761
v -0.014635 -0.083631 0.020180
v -0.009642 -0.045358 -0.000204
v -0.009642 -0.066569 -0.000204
v -0.020875 -0.062834 0.000211
v -0.014635 -0.083215 -0.000204
v -0.009642 -0.066569 0.020180
v -0.020875 -0.074060 0.019761
v -0.017547 -0.083631 0.019761
v -0.010891 -0.045771 0.000211
v -0.017547 -0.056592 0.020180
v -0.017547 -0.083215 -0.000204
v -0.020875 -0.074060 0.000211
v -0.014220 -0.083215 0.000211
v -0.017547 -0.056592 -0.000204
v -0.010891 -0.045771 0.019761
v -0.012139 -0.076140 0.019761
v -0.019626 -0.078223 0.020180
v -0.017547 -0.083631 0.000211
v -0.015883 -0.053680 0.000211
v -0.018795 -0.081132 0.019761
v -0.020459 -0.074477 -0.000204
v -0.012139 -0.076140 0.000211
v -0.014220 -0.083215 0.019761
v -0.018795 -0.058672 0.000211
v -0.015883 -0.053680 0.019761
v -0.020459 -0.062417 0.020180
v -0.014635 -0.083631 0.000211
v -0.018795 -0.081132 0.000211
v -0.018795 -0.058672 0.019761
v -0.010058 -0.044942 0.000211
f 13 19 34 
f 3 2 6 
f 6 2 7 
f 6 7 9 
f 2 5 10 
f 7 2 10 
f 4 8 11 
f 5 2 14 
f 6 9 15 
f 1 11 16 
f 11 8 16 
f 9 7 17 
f 13 6 18 
f 6 15 18 
f 2 3 19 
f 14 2 19 
f 10 5 20 
f 7 10 20 
f 12 5 21 
f 5 14 21 
f 5 12 22 
f 15 9 22 
f 13 18 23 
f 19 13 23 
f 11 1 24 
f 21 11 24 
f 12 21 24 
f 22 12 24 
f 1 16 25 
f 16 8 25 
f 8 18 25 
f 18 15 25 
f 17 7 26 
f 7 20 26 
f 20 17 26 
f 5 17 27 
f 20 5 27 
f 17 20 27 
f 8 4 28 
f 18 8 28 
f 23 18 28 
f 23 28 29 
f 14 19 29 
f 19 23 29 
f 4 11 30 
f 11 21 30 
f 21 14 30 
f 17 5 31 
f 9 17 31 
f 5 22 31 
f 22 9 31 
f 15 22 32 
f 24 1 32 
f 22 24 32 
f 1 25 32 
f 25 15 32 
f 28 4 33 
f 29 28 33 
f 14 29 33 
f 4 30 33 
f 30 14 33 
f 3 6 34 
f 6 13 34 
f 19 3 34 
o convex_1
v -0.010889 0.014567 0.000211
v 0.006586 0.050763 0.020180
v 0.006586 0.050763 -0.000204
v 0.006584 -0.003745 0.020180
v -0.011722 0.050763 0.019761
v 0.006584 -0.003745 -0.000204
v -0.009641 -0.003745 0.020180
v -0.011304 0.050763 -0.000204
v -0.009225 -0.003745 -0.000204
v -0.010889 0.014567 0.019761
v -0.011304 0.050763 0.020180
v -0.011722 0.046601 0.000211
v -0.009641 -0.003745 0.000211
v -0.011722 0.046601 0.019761
v -0.011722 0.050763 0.000211
f 46 39 49 
f 37 36 38 
f 36 37 39 
f 37 38 40 
f 40 38 41 
f 38 36 41 
f 39 37 42 
f 37 40 42 
f 42 40 43 
f 40 41 43 
f 35 42 43 
f 35 41 44 
f 44 41 45 
f 36 39 45 
f 41 36 45 
f 42 35 46 
f 35 44 46 
f 41 35 47 
f 43 41 47 
f 35 43 47 
f 44 45 48 
f 45 39 48 
f 39 46 48 
f 46 44 48 
f 39 42 49 
f 42 46 49 
o convex_2
v 0.017819 -0.080298 0.000211
v 0.009084 -0.043276 0.020180
v 0.009084 -0.042857 0.019761
v 0.008668 -0.089876 -0.000204
v 0.009084 -0.089876 0.020180
v 0.021564 -0.063665 0.020180
v 0.009084 -0.043276 -0.000204
v 0.021564 -0.063665 -0.000204
v 0.020732 -0.075309 0.019761
v 0.021564 -0.072396 -0.000204
v 0.008668 -0.043276 0.020180
v 0.016571 -0.082383 0.020180
v 0.019900 -0.059919 0.000211
v 0.008668 -0.043276 -0.000204
v 0.008668 -0.089876 0.020180
v 0.019900 -0.059919 0.019761
v 0.009916 -0.043691 0.000211
v 0.016571 -0.082383 -0.000204
v 0.021564 -0.072396 0.020180
v 0.009916 -0.043691 0.019761
v 0.020732 -0.075309 0.000211
v 0.009084 -0.089876 -0.000204
v 0.021564 -0.063251 0.019761
f 62 65 72 
f 51 54 55 
f 53 56 57 
f 53 57 59 
f 57 55 59 
f 51 52 60 
f 54 51 60 
f 55 54 61 
f 50 58 61 
f 57 56 62 
f 52 56 63 
f 56 53 63 
f 60 52 63 
f 53 60 63 
f 53 54 64 
f 60 53 64 
f 54 60 64 
f 51 55 65 
f 65 62 66 
f 56 52 66 
f 62 56 66 
f 53 59 67 
f 50 61 67 
f 61 54 67 
f 59 55 68 
f 58 59 68 
f 55 61 68 
f 61 58 68 
f 52 51 69 
f 51 65 69 
f 65 66 69 
f 66 52 69 
f 58 50 70 
f 59 58 70 
f 50 67 70 
f 67 59 70 
f 54 53 71 
f 53 67 71 
f 67 54 71 
f 55 57 72 
f 57 62 72 
f 65 55 72 
o convex_3
v 0.005754 -0.067823 0.000211
v 0.005337 -0.003745 0.020180
v -0.009641 -0.003745 0.020180
v 0.005337 -0.003745 -0.000204
v -0.009641 -0.066569 -0.000204
v -0.009641 -0.066569 0.020180
v 0.005754 -0.067403 0.020180
v -0.009641 -0.003745 0.000211
v 0.005754 -0.003751 -0.000204
v 0.005754 -0.003751 0.020180
v 0.005754 -0.067403 -0.000204
v -0.009224 -0.003745 -0.000204
v 0.004505 -0.067823 0.019761
v 0.004505 -0.067823 0.000211
f 85 77 86 
f 75 74 76 
f 75 77 78 
f 74 75 78 
f 74 78 79 
f 75 76 80 
f 77 75 80 
f 76 74 81 
f 77 76 81 
f 79 73 81 
f 79 81 82 
f 74 79 82 
f 81 74 82 
f 81 73 83 
f 77 81 83 
f 76 77 84 
f 80 76 84 
f 77 80 84 
f 78 77 85 
f 73 79 85 
f 79 78 85 
f 83 73 86 
f 77 83 86 
f 73 85 86 
o convex_4
v 0.008250 -0.090708 0.000211
v 0.006587 -0.003745 0.020180
v 0.005754 -0.003745 0.020180
v 0.005754 -0.003745 -0.000204
v 0.006170 -0.089457 0.019761
v 0.008667 -0.030380 0.019761
v 0.007834 -0.009576 0.000211
v 0.005754 -0.067401 -0.000204
v 0.008667 -0.090282 0.020180
v 0.008667 -0.042860 -0.000204
v 0.006170 -0.089457 0.000211
v 0.005754 -0.067401 0.020180
v 0.008667 -0.090282 -0.000204
v 0.007834 -0.009576 0.019761
v 0.008667 -0.030380 0.000211
v 0.006587 -0.003745 -0.000204
v 0.007418 -0.090708 0.019761
v 0.008667 -0.042860 0.020180
v 0.007418 -0.090708 0.000211
v 0.006587 -0.089457 0.020180
v 0.006587 -0.089457 -0.000204
f 105 97 107 
f 89 88 90 
f 89 90 94 
f 88 89 95 
f 92 95 96 
f 94 90 96 
f 91 94 97 
f 89 94 98 
f 94 91 98 
f 95 89 98 
f 95 87 99 
f 96 95 99 
f 94 96 99 
f 93 88 100 
f 92 93 100 
f 93 92 101 
f 92 96 101 
f 96 93 101 
f 90 88 102 
f 88 93 102 
f 96 90 102 
f 93 96 102 
f 87 95 103 
f 91 97 103 
f 88 95 104 
f 95 92 104 
f 100 88 104 
f 92 100 104 
f 99 87 105 
f 87 103 105 
f 103 97 105 
f 98 91 106 
f 95 98 106 
f 103 95 106 
f 91 103 106 
f 97 94 107 
f 94 99 107 
f 99 105 107 
o convex_5
v -0.015882 0.056593 0.019761
v -0.010475 0.074480 0.020180
v -0.010475 0.074480 -0.000204
v -0.003400 0.050763 0.020180
v -0.021708 0.067407 0.000211
v -0.003400 0.050763 -0.000204
v -0.021708 0.074480 0.019761
v -0.003400 0.068653 0.019761
v -0.011722 0.050763 -0.000204
v -0.003400 0.068653 0.000211
v -0.021290 0.074480 -0.000204
v -0.011722 0.050763 0.020180
v -0.020459 0.064493 0.020180
v -0.019626 0.062415 0.000211
v -0.021708 0.067407 0.019761
v -0.012554 0.051599 -0.000204
v -0.004649 0.069902 0.000211
v -0.020875 0.064906 0.019761
v -0.021708 0.074480 0.000211
v -0.003400 0.068238 0.020180
v -0.003400 0.068238 -0.000204
v -0.021290 0.074480 0.020180
v -0.019626 0.062415 0.019761
v -0.020459 0.064493 -0.000204
v -0.004649 0.069902 0.019761
v -0.012554 0.051599 0.020180
v -0.020875 0.064906 0.000211
f 131 121 134 
f 109 110 114 
f 111 113 115 
f 110 113 116 
f 113 111 116 
f 115 113 117 
f 114 110 118 
f 110 116 118 
f 111 109 119 
f 116 111 119 
f 119 109 120 
f 114 112 122 
f 118 116 123 
f 116 119 123 
f 108 121 123 
f 110 109 124 
f 115 117 124 
f 120 122 125 
f 122 112 125 
f 112 114 126 
f 114 118 126 
f 118 112 126 
f 109 111 127 
f 111 115 127 
f 113 110 128 
f 117 113 128 
f 110 124 128 
f 124 117 128 
f 109 114 129 
f 120 109 129 
f 122 120 129 
f 114 122 129 
f 121 108 130 
f 120 125 130 
f 125 121 130 
f 112 118 131 
f 118 123 131 
f 123 121 131 
f 124 109 132 
f 115 124 132 
f 109 127 132 
f 127 115 132 
f 119 120 133 
f 108 123 133 
f 123 119 133 
f 130 108 133 
f 120 130 133 
f 121 125 134 
f 125 112 134 
f 112 131 134 
o convex_6
v -0.008394 0.090292 0.020180
v -0.020874 0.074480 -0.000204
v -0.010474 0.074480 -0.000204
v -0.009228 0.090708 0.000211
v -0.021292 0.074897 0.019761
v -0.010474 0.074480 0.020180
v -0.017546 0.082388 0.020180
v -0.007145 0.088626 0.000211
v -0.017546 0.082388 -0.000204
v -0.007145 0.088626 0.019761
v -0.009228 0.090708 0.019761
v -0.020874 0.076145 0.000211
v -0.020874 0.074480 0.020180
v -0.007562 0.089460 -0.000204
v -0.018794 0.080308 0.019761
v -0.009228 0.079475 0.000211
v -0.007145 0.089460 0.000211
v -0.008394 0.090708 0.019761
v -0.007145 0.089460 0.019761
v -0.008394 0.090708 0.000211
v -0.009228 0.079475 0.019761
v -0.020874 0.076145 0.019761
v -0.021292 0.074480 0.000211
v -0.018794 0.080308 0.000211
f 146 149 158 
f 136 137 140 
f 140 135 141 
f 137 136 143 
f 141 138 143 
f 135 140 144 
f 138 141 145 
f 141 135 145 
f 143 136 146 
f 136 140 147 
f 140 141 147 
f 142 137 148 
f 137 143 148 
f 143 138 148 
f 141 143 149 
f 140 137 150 
f 137 142 150 
f 142 144 150 
f 144 142 151 
f 142 148 151 
f 145 135 152 
f 138 145 152 
f 151 152 153 
f 135 144 153 
f 144 151 153 
f 152 135 153 
f 148 138 154 
f 151 148 154 
f 138 152 154 
f 152 151 154 
f 144 140 155 
f 140 150 155 
f 150 144 155 
f 146 139 156 
f 139 147 156 
f 147 141 156 
f 141 149 156 
f 149 146 156 
f 146 136 157 
f 139 146 157 
f 136 147 157 
f 147 139 157 
f 143 146 158 
f 149 143 158 
o convex_7
v 0.006586 0.070320 0.019761
v -0.003400 0.050765 -0.000204
v -0.003400 0.068237 -0.000204
v -0.003400 0.050765 0.020180
v 0.006586 0.050765 -0.000204
v 0.006586 0.050765 0.020180
v 0.006586 0.070320 0.000211
v -0.003400 0.068652 0.019761
v 0.006170 0.069902 0.020180
v -0.003400 0.068652 0.000211
v 0.006586 0.069902 -0.000204
v -0.003400 0.068237 0.020180
v 0.006170 0.070320 0.000211
f 165 169 171 
f 161 160 162 
f 160 161 163 
f 162 160 163 
f 163 159 164 
f 162 163 164 
f 159 163 165 
f 161 162 166 
f 164 159 167 
f 162 164 167 
f 159 166 167 
f 161 166 168 
f 163 161 169 
f 165 163 169 
f 166 162 170 
f 162 167 170 
f 167 166 170 
f 159 165 171 
f 166 159 171 
f 161 168 171 
f 168 166 171 
f 169 161 171 
o convex_8
v 0.008251 0.052430 -0.000204
v 0.012411 0.084465 0.020180
v 0.012411 0.084883 0.019761
v 0.016572 0.067409 0.000211
v 0.010331 0.084465 0.000211
v 0.006586 0.051181 0.020180
v 0.015740 0.063665 0.019761
v 0.006586 0.070735 0.019761
v 0.006586 0.070318 -0.000204
v 0.015740 0.078223 0.000211
v 0.016572 0.074479 0.020180
v 0.006586 0.050763 0.000211
v 0.010331 0.084465 0.019761
v 0.013659 0.059504 0.000211
v 0.008667 0.052430 0.019761
v 0.013243 0.083634 -0.000204
v 0.014908 0.081135 0.019761
v 0.016572 0.074062 -0.000204
v 0.016572 0.067823 0.020180
v 0.013659 0.059504 0.019761
v 0.014908 0.061584 0.000211
v 0.013659 0.083630 0.000211
v 0.008667 0.052430 0.000211
v 0.012411 0.084883 0.000211
v 0.006586 0.070318 0.020180
v 0.007003 0.050763 0.019761
v 0.014908 0.081135 0.000211
v 0.013659 0.083630 0.019761
v 0.006586 0.070735 0.000211
v 0.009499 0.081553 0.020180
v 0.015323 0.063665 -0.000204
v 0.015740 0.063665 0.000211
v 0.010746 0.084883 0.019761
v 0.014908 0.061584 0.019761
v 0.010746 0.084465 -0.000204
v 0.011579 0.056595 0.020180
f 191 205 207 
f 177 179 180 
f 173 177 182 
f 177 180 183 
f 180 172 183 
f 172 180 187 
f 173 182 188 
f 182 181 188 
f 182 175 189 
f 181 182 189 
f 172 187 189 
f 178 175 190 
f 182 177 190 
f 175 182 190 
f 186 185 191 
f 191 185 192 
f 183 172 194 
f 172 185 194 
f 185 186 194 
f 174 193 195 
f 193 187 195 
f 177 173 196 
f 179 177 196 
f 177 183 197 
f 186 177 197 
f 183 194 197 
f 194 186 197 
f 188 181 198 
f 181 189 198 
f 189 187 198 
f 187 193 198 
f 193 188 198 
f 174 173 199 
f 173 188 199 
f 193 174 199 
f 188 193 199 
f 180 179 200 
f 176 180 200 
f 184 176 201 
f 196 173 201 
f 179 196 201 
f 176 200 201 
f 200 179 201 
f 185 172 202 
f 189 175 202 
f 172 189 202 
f 192 185 202 
f 192 202 203 
f 175 178 203 
f 178 192 203 
f 202 175 203 
f 173 174 204 
f 176 184 204 
f 174 195 204 
f 195 176 204 
f 201 173 204 
f 184 201 204 
f 178 190 205 
f 192 178 205 
f 191 192 205 
f 180 176 206 
f 187 180 206 
f 176 195 206 
f 195 187 206 
f 177 186 207 
f 190 177 207 
f 186 191 207 
f 205 190 207 
