# https://github.com/mikedh/trimesh
mtllib material0.mtl
usemtl material0
v 0.02155347 -0.06420671 0.00735125
v 0.02155347 -0.06420671 0.00735125
v 0.01165122 -0.08679681 0.00148786
v 0.01165122 -0.08679681 0.00148786
v -0.00103351 0.05582395 0.00882637
v -0.01232059 -0.07326409 0.00005719
v 0.01429393 -0.05738909 0.00006259
v -0.01992312 -0.06211873 0.00148117
v -0.01992312 -0.06211873 0.00148117
v 0.01164971 -0.05454890 0.00006203
v -0.01844262 0.07425879 0.00882265
v -0.01306577 0.05409001 0.00767855
v -0.01306577 0.05409001 0.00767855
v -0.00934346 0.08996035 0.00732119
v -0.00934346 0.08996035 0.00732119
v 0.00885336 -0.08953177 0.00734878
v 0.00885336 -0.08953177 0.00734878
v 0.00713612 -0.08992527 0.00877405
v -0.00961241 0.07257702 0.00882449
v 0.00797245 -0.08050476 0.00735970
v 0.00797245 -0.08050476 0.00735970
v 0.00713763 -0.08992530 0.00147579
v 0.00713763 -0.08992530 0.00147579
v 0.00799663 -0.09000000 0.00147597
v 0.00799663 -0.09000000 0.00147597
v -0.00961090 0.07257698 0.00148240
v -0.00961090 0.07257698 0.00148240
v -0.01409778 -0.08125945 0.00147135
v -0.01409778 -0.08125945 0.00147135
v 0.00740961 -0.05215433 0.00006114
v 0.00945246 0.07847873 0.00882840
v -0.01490011 -0.08312405 0.00735499
v -0.01490011 -0.08312405 0.00735499
v -0.00788261 0.05626474 0.00000236
v -0.00731750 -0.06561573 0.00005817
v -0.00669799 0.06984325 0.00734461
v -0.00669799 0.06984325 0.00734461
v 0.01111881 0.08450635 0.00148661
v 0.01111881 0.08450635 0.00148661
v -0.00154326 0.06820654 0.00734570
v -0.00154326 0.06820654 0.00734570
v -0.00154326 0.06820654 0.00734570
v -0.01866350 0.07967990 0.00148053
v -0.01866350 0.07967990 0.00148053
v 0.01719449 -0.07491698 0.00006331
v -0.00861317 -0.04159571 0.00110615
v -0.00861317 -0.04159571 0.00110615
v 0.00881758 -0.08809023 0.00877439
v 0.00436168 -0.06652039 0.00006059
v 0.01180404 0.08478954 0.00000624
v -0.00731901 -0.06561568 0.00735644
v -0.00731901 -0.06561568 0.00735644
v 0.00911297 -0.07280739 0.00877436
v 0.01367059 -0.08164038 0.00006262
v -0.01453500 -0.08235894 0.00735506
v -0.01453500 -0.08235894 0.00735506
v -0.01453348 -0.08235899 0.00005679
v 0.00709025 0.07060397 0.00000536
v 0.00641030 0.00316680 0.00104527
v 0.00641030 0.00316680 0.00104527
v 0.00101835 0.06801847 0.00148462
v 0.00101835 0.06801847 0.00148462
v 0.00323194 0.05617299 0.00000466
v -0.00832560 0.07114294 0.00148267
v -0.00832560 0.07114294 0.00148267
v -0.01049839 0.07530562 0.00148220
v -0.01049839 0.07530562 0.00148220
v 0.01329862 0.08250089 0.00734861
v 0.01329862 0.08250089 0.00734861
v -0.01357655 -0.07932954 0.00735524
v -0.01357655 -0.07932954 0.00735524
v 0.01005831 0.08063761 0.00148641
v 0.01005831 0.08063761 0.00148641
v -0.01357504 -0.07932959 0.00005697
v 0.01281510 0.08053120 0.00882908
v 0.00761655 -0.08219126 0.00735964
v 0.00761655 -0.08219126 0.00735964
v -0.01831425 -0.07098193 0.00005593
v 0.00761806 -0.08219130 0.00006137
v -0.01143548 0.08818850 0.00734347
v -0.01143548 0.08818850 0.00734347
v -0.02086555 0.06667681 0.00734165
v -0.02086555 0.06667681 0.00734165
v 0.01384786 0.07281053 0.00882934
v 0.00888249 0.07626853 0.00000570
v -0.01539982 -0.08403390 0.00876935
v -0.00497024 0.06895394 0.00000288
v -0.01539831 -0.08403395 0.00147109
v -0.01539831 -0.08403395 0.00147109
v 0.00848359 -0.07803581 0.00735979
v 0.00848359 -0.07803581 0.00735979
v -0.00786302 0.08951190 0.00148264
v -0.00786302 0.08951190 0.00148264
v 0.00848510 -0.07803585 0.00006153
v 0.00603277 -0.06766963 0.00147542
v 0.00603277 -0.06766963 0.00147542
v 0.00664396 -0.08867494 0.00147568
v 0.00664396 -0.08867494 0.00147568
v 0.01868275 -0.06910781 0.00006358
v 0.00888098 0.07626858 0.00734780
v 0.00888098 0.07626858 0.00734780
v -0.00877291 0.08369378 0.00734409
v -0.00877291 0.08369378 0.00734409
v 0.01987540 -0.07532949 0.00148949
v 0.01987540 -0.07532949 0.00148949
v -0.00877140 0.08369373 0.00000201
v 0.00397831 0.06835979 0.00882733
v 0.00397982 0.06835974 0.00148522
v 0.00397982 0.06835974 0.00148522
v -0.01007538 -0.06685892 0.00735587
v -0.01007538 -0.06685892 0.00735587
v 0.01429533 0.08032915 0.00148734
v 0.01429533 0.08032915 0.00148734
v -0.01007387 -0.06685897 0.00005762
v -0.00347188 0.06854269 0.00734530
v -0.00347188 0.06854269 0.00734530
v -0.00861452 -0.04159567 0.00766751
v -0.00861452 -0.04159567 0.00766751
v -0.01726795 -0.08302517 0.00148185
v -0.01726795 -0.08302517 0.00148185
v 0.01291223 0.06502300 0.00000660
v 0.01800426 -0.07907387 0.00735061
v 0.01800426 -0.07907387 0.00735061
v -0.01685345 -0.06103088 0.00005618
v -0.00786081 0.08939886 0.00882474
v -0.01852838 -0.05889570 0.00148144
v -0.01852838 -0.05889570 0.00148144
v 0.01054500 0.08239520 0.00000601
v -0.00600937 -0.06525625 0.00877118
v -0.01027791 0.07386727 0.00882435
v 0.00435978 -0.06651997 0.00735886
v 0.00435978 -0.06651997 0.00735886
v 0.00943518 0.05499732 0.00734799
v 0.00943518 0.05499732 0.00734799
v -0.00801747 0.08673132 0.00882473
v -0.01027640 0.07386723 0.00148224
v -0.01027640 0.07386723 0.00148224
v 0.00710750 -0.08491737 0.00735954
v 0.00710750 -0.08491737 0.00735954
v 0.00668292 -0.08768014 0.00147568
v 0.00668292 -0.08768014 0.00147568
v 0.00759631 0.05739772 0.00000555
v -0.01961834 -0.07656167 0.00734281
v -0.01961834 -0.07656167 0.00734281
v 0.00759075 -0.06913674 0.00006128
v -0.02005049 -0.07384998 0.00734270
v -0.02005049 -0.07384998 0.00734270
v 0.01373669 0.06935357 0.00882934
v -0.00103170 0.05582389 0.00000378
v 0.00789597 -0.08908479 0.00006147
v -0.01381162 0.05964430 0.00882370
v -0.01101856 0.04500259 0.00767904
v -0.01101856 0.04500259 0.00767904
v 0.01165001 -0.08679677 0.00734934
v 0.01165001 -0.08679677 0.00734934
v -0.00377565 0.05130835 0.00768049
v -0.00112036 -0.06496483 0.00735771
v -0.00112036 -0.06496483 0.00735771
v -0.00112036 -0.06496483 0.00735771
v -0.00111885 -0.06496487 0.00005945
v 0.01105064 0.06159520 0.00882884
v -0.00938017 0.00303404 0.00768648
v -0.00938017 0.00303404 0.00768648
v -0.00961211 0.07257701 0.00734400
v -0.00961211 0.07257701 0.00734400
v -0.01607157 -0.08365351 0.00876921
v 0.01352866 0.05998657 0.00148732
v 0.01352866 0.05998657 0.00148732
v -0.00434178 -0.05053658 0.00877143
v 0.01111760 0.08450639 0.00734821
v 0.01111760 0.08450639 0.00734821
v 0.01562790 0.07584306 0.00148765
v 0.01562790 0.07584306 0.00148765
v 0.00224887 0.06805647 0.00148487
v 0.00224887 0.06805647 0.00148487
v 0.00991637 -0.08852904 0.00148751
v 0.00991637 -0.08852904 0.00148751
v -0.00872770 -0.06608134 0.00005789
v -0.01647075 -0.05574706 0.00734332
v -0.01647075 -0.05574706 0.00734332
v 0.01607591 0.06870726 0.00148779
v 0.01607591 0.06870726 0.00148779
v -0.01049809 0.07530562 0.00000170
v 0.00696287 0.05141659 0.00768272
v 0.00696287 0.05141659 0.00768272
v 0.01384164 0.07604219 0.00882932
v -0.01679286 -0.08371842 0.00147080
v -0.01679286 -0.08371842 0.00147080
v 0.01319343 -0.05280111 0.00734945
v 0.01319343 -0.05280111 0.00734945
v 0.01606430 -0.05593274 0.00148858
v 0.01606430 -0.05593274 0.00148858
v 0.00101865 0.06801847 0.00000412
v -0.01976044 0.07758193 0.00148032
v -0.01976044 0.07758193 0.00148032
v -0.00832529 0.07114294 0.00000217
v 0.00874886 -0.08809260 0.00006164
v 0.01803360 -0.07224693 0.00877620
v 0.01005862 0.08063761 0.00000591
v -0.01088744 -0.06797465 0.00735572
v -0.01088744 -0.06797465 0.00735572
v -0.01088593 -0.06797470 0.00005745
v 0.01717385 -0.06142489 0.00877595
v -0.01065804 0.08756480 0.00882417
v 0.01429213 -0.05738903 0.00877533
v 0.00602401 -0.06767648 0.00877369
v 0.00819832 0.07364692 0.00882816
v -0.01489890 -0.08312408 0.00147119
v -0.01489890 -0.08312408 0.00147119
v 0.00397862 0.06835978 0.00734683
v 0.00397862 0.06835978 0.00734683
v 0.01329385 0.07822255 0.00882919
v 0.00398013 0.06835973 0.00000473
v 0.00885457 -0.08953182 0.00148729
v 0.00885457 -0.08953182 0.00148729
v 0.00797367 -0.08050479 0.00147590
v 0.00797367 -0.08050479 0.00147590
v -0.01636455 -0.08316936 0.00876915
v -0.01435947 -0.05757189 0.00876940
v -0.01490041 -0.08312404 0.00876946
v -0.00731779 -0.06561572 0.00147265
v -0.00731779 -0.06561572 0.00147265
v -0.02051550 -0.06445088 0.00148106
v -0.02051550 -0.06445088 0.00148106
v 0.01719268 -0.07491692 0.00877605
v -0.00669678 0.06984320 0.00148301
v -0.00669678 0.06984320 0.00148301
v -0.00154204 0.06820650 0.00148410
v -0.00154204 0.06820650 0.00148410
v -0.00154204 0.06820650 0.00148410
v -0.01381881 0.05964589 0.00000111
v -0.01726915 -0.08302513 0.00734334
v -0.01726915 -0.08302513 0.00734334
v 0.00580815 0.04518568 0.00118408
v 0.00580815 0.04518568 0.00118408
v -0.00948606 0.08078071 0.00882447
v -0.00731930 -0.06561567 0.00877091
v 0.01570436 -0.08236899 0.00735015
v 0.01570436 -0.08236899 0.00735015
v -0.00785900 0.08939880 0.00000215
v -0.01453529 -0.08235893 0.00876953
v -0.01453378 -0.08235898 0.00147126
v -0.01453378 -0.08235898 0.00147126
v -0.01852958 -0.05889565 0.00734292
v -0.01852958 -0.05889565 0.00734292
v 0.00668350 -0.08767948 0.00006121
v -0.01357684 -0.07932953 0.00876971
v -0.01705815 -0.08057363 0.00876899
v -0.02086433 0.06667677 0.00148016
v -0.02086433 0.06667677 0.00148016
v 0.01510320 0.07800555 0.00734901
v 0.01510320 0.07800555 0.00734901
v -0.01831605 -0.07098187 0.00876867
v 0.00761626 -0.08219124 0.00877411
v -0.01027760 0.07386725 0.00734386
v -0.01027760 0.07386725 0.00734386
v 0.00761777 -0.08219129 0.00147584
v 0.00761777 -0.08219129 0.00147584
v -0.00801717 0.08673131 0.00734422
v -0.00801717 0.08673131 0.00734422
v -0.01143426 0.08818846 0.00148197
v -0.01143426 0.08818846 0.00148197
v 0.01951123 -0.06026295 0.00735080
v 0.01951123 -0.06026295 0.00735080
v 0.00888219 0.07626854 0.00148619
v 0.00888219 0.07626854 0.00148619
v 0.01254483 0.08456656 0.00734847
v 0.01254483 0.08456656 0.00734847
v 0.00848480 -0.07803585 0.00147600
v 0.00848480 -0.07803585 0.00147600
v 0.00129024 -0.06531376 0.00735822
v 0.00129024 -0.06531376 0.00735822
v -0.01435980 0.08205151 0.00882345
v 0.01554867 0.06456403 0.00734919
v 0.01554867 0.06456403 0.00734919
v 0.02166136 -0.06916862 0.00735130
v 0.02166136 -0.06916862 0.00735130
v -0.00909353 0.08991851 0.00000190
v -0.01007567 -0.06685891 0.00877035
v 0.01105245 0.06159514 0.00000624
v -0.01007416 -0.06685897 0.00147209
v -0.01007416 -0.06685897 0.00147209
v 0.00872629 -0.07104508 0.00735979
v 0.00872629 -0.07104508 0.00735979
v -0.02048562 -0.07057688 0.00734259
v -0.02048562 -0.07057688 0.00734259
v -0.00347067 0.06854264 0.00148369
v -0.00347067 0.06854264 0.00148369
v 0.00640892 0.00316684 0.00768975
v 0.00640892 0.00316684 0.00768975
v 0.01036997 -0.08632928 0.00877470
v -0.01187100 -0.05410323 0.00876990
v -0.00100927 -0.04654994 0.00766911
v 0.00224917 0.06805646 0.00000438
v 0.00897382 -0.07519120 0.00006161
v -0.00782787 0.05627080 0.00882497
v -0.01803156 0.06761164 0.00000019
v 0.01800547 -0.07907391 0.00148912
v 0.01800547 -0.07907391 0.00148912
v 0.01384346 0.07604213 0.00000673
v -0.01791219 -0.07664524 0.00005605
v 0.00759553 -0.06913018 0.00735954
v 0.00759553 -0.06913018 0.00735954
v 0.02092669 -0.07259950 0.00148969
v 0.02092669 -0.07259950 0.00148969
v 0.00275481 -0.06578054 0.00735853
v 0.00275481 -0.06578054 0.00735853
v 0.00275632 -0.06578058 0.00006026
v 0.00671058 -0.08942521 0.00735950
v 0.00671058 -0.08942521 0.00735950
v -0.01843904 -0.08048860 0.00734308
v -0.01843904 -0.08048860 0.00734308
v 0.00671209 -0.08942527 0.00006123
v 0.00436099 -0.06652000 0.00147507
v 0.00436099 -0.06652000 0.00147507
v 0.00943640 0.05499728 0.00148650
v 0.00943640 0.05499728 0.00148650
v -0.01658609 -0.08227625 0.00005637
v -0.01153411 0.05085756 0.00767889
v -0.01153411 0.05085756 0.00767889
v -0.01232208 -0.07326405 0.00735545
v -0.01232208 -0.07326405 0.00735545
v -0.01961713 -0.07656172 0.00148132
v -0.01961713 -0.07656172 0.00148132
v 0.01612526 0.07255520 0.00734926
v 0.01612526 0.07255520 0.00734926
v -0.02004927 -0.07385003 0.00148122
v -0.02004927 -0.07385003 0.00148122
v -0.01409901 -0.08125943 0.00735514
v -0.01409901 -0.08125943 0.00735514
v 0.00797349 -0.08051025 0.00006143
v -0.01409749 -0.08125946 0.00005687
v 0.00819863 0.07364691 0.00734767
v 0.00819863 0.07364691 0.00734767
v 0.00945398 0.07847867 0.00148630
v 0.00945398 0.07847867 0.00148630
v -0.00112066 -0.06496482 0.00877219
v -0.01685607 0.08247616 0.00734238
v -0.01685607 0.08247616 0.00734238
v -0.01273939 0.08451936 0.00882377
v -0.00111915 -0.06496486 0.00147392
v -0.00111915 -0.06496486 0.00147392
v -0.00111915 -0.06496486 0.00147392
v -0.01646953 -0.05574710 0.00148184
v -0.01646953 -0.05574710 0.00148184
v -0.01587194 0.07950356 0.00882315
v -0.00669647 0.06984320 0.00000251
v -0.00872950 -0.06608129 0.00877063
v -0.00154174 0.06820650 0.00000360
v -0.01709886 0.07705516 0.00882291
v -0.00872799 -0.06608134 0.00147236
v -0.00872799 -0.06608134 0.00147236
v -0.00948575 0.08078070 0.00734396
v -0.00948575 0.08078070 0.00734396
v -0.02051671 -0.06445083 0.00734255
v -0.02051671 -0.06445083 0.00734255
v -0.01332922 -0.05181353 0.00766659
v -0.01332922 -0.05181353 0.00766659
v -0.01904603 -0.07880692 0.00148146
v -0.01904603 -0.07880692 0.00148146
v 0.01319464 -0.05280115 0.00148797
v 0.01319464 -0.05280115 0.00148797
v -0.01815833 -0.07403006 0.00005599
v -0.01705634 -0.08057367 0.00005625
v -0.01088773 -0.06797465 0.00877019
v -0.01088622 -0.06797470 0.00147193
v -0.01088622 -0.06797470 0.00147193
v -0.02166258 0.07060162 0.00734146
v -0.02166258 0.07060162 0.00734146
v -0.00845656 -0.05201077 0.00877059
v 0.00911595 -0.07281701 0.00735989
v 0.00911595 -0.07281701 0.00735989
v -0.01825860 -0.06500891 0.00005591
v -0.01742178 -0.07875800 0.00876891
v 0.00611108 0.06943794 0.00882776
v 0.01570557 -0.08236902 0.00148866
v 0.01570557 -0.08236902 0.00148866
v -0.00934356 0.09000000 0.00150508
v -0.00934356 0.09000000 0.00150508
v 0.00708842 0.07060403 0.00882795
v -0.00347036 0.06854264 0.00000320
v 0.00323011 0.05617303 0.00882726
v -0.02121944 0.07432262 0.00734152
v -0.02121944 0.07432262 0.00734152
v -0.00098052 -0.04738393 0.00110775
v -0.00600909 -0.06525626 0.00735671
v -0.00600909 -0.06525626 0.00735671
v 0.00746816 -0.05197494 0.00885219
v -0.01770488 -0.08215884 0.00148176
v -0.01770488 -0.08215884 0.00148176
v -0.00600758 -0.06525631 0.00005844
v 0.00668169 -0.08767942 0.00877395
v 0.01043574 -0.08642532 0.00000390
v -0.01006533 0.07825943 0.00882436
v -0.00497207 0.06895400 0.00882547
v 0.01510441 0.07800552 0.00148753
v 0.01510441 0.07800552 0.00148753
v -0.00801595 0.08673128 0.00148263
v -0.00801595 0.08673128 0.00148263
v 0.02092549 -0.07259947 0.00735117
v 0.02092549 -0.07259947 0.00735117
v 0.01554988 0.06456398 0.00148771
v 0.01554988 0.06456398 0.00148771
v -0.00433999 -0.05053664 0.00005869
v 0.02166258 -0.06916865 0.00148982
v 0.02166258 -0.06916865 0.00148982
v 0.01951245 -0.06026299 0.00148931
v 0.01951245 -0.06026299 0.00148931
v 0.01325545 -0.08513977 0.00734966
v 0.01325545 -0.08513977 0.00734966
v 0.00128995 -0.06531375 0.00877269
v -0.01606978 -0.08365357 0.00005647
v 0.00129146 -0.06531379 0.00147443
v 0.00129146 -0.06531379 0.00147443
v -0.01626168 -0.08408078 0.00735470
v -0.01626168 -0.08408078 0.00735470
v 0.00945429 0.07847867 0.00000581
v 0.00872751 -0.07104512 0.00147600
v 0.00872751 -0.07104512 0.00147600
v 0.01204639 -0.08412532 0.00877503
v -0.02048440 -0.07057691 0.00148111
v -0.02048440 -0.07057691 0.00148111
v -0.01844079 0.07425873 0.00000006
v -0.00961058 0.07257697 0.00000190
v 0.00945278 0.07847871 0.00734790
v 0.00945278 0.07847871 0.00734790
v -0.01709704 0.07705511 0.00000032
v 0.00871892 -0.07103910 0.00006153
v 0.01111913 0.08450635 0.00000611
v 0.01030017 -0.04793836 0.00111009
v 0.01030017 -0.04793836 0.00111009
v 0.00897201 -0.07519115 0.00877435
v -0.01891702 0.06215930 0.00734207
v -0.01891702 0.06215930 0.00734207
v -0.01306449 0.05408997 0.00148185
v -0.01306449 0.05408997 0.00148185
v -0.00786292 0.08947228 0.00734425
v -0.00786292 0.08947228 0.00734425
v -0.01904724 -0.07880688 0.00734295
v -0.01904724 -0.07880688 0.00734295
v 0.00759675 -0.06913020 0.00147575
v 0.00759675 -0.06913020 0.00147575
v 0.00275452 -0.06578052 0.00877300
v 0.00847285 -0.04150439 0.00110968
v 0.00847285 -0.04150439 0.00110968
v 0.01384969 0.07281047 0.00000675
v 0.00275603 -0.06578058 0.00147473
v 0.00275603 -0.06578058 0.00147473
v 0.00671028 -0.08942521 0.00877397
v -0.01884882 0.07025899 0.00882259
v 0.00671179 -0.08942526 0.00147570
v 0.00671179 -0.08942526 0.00147570
v -0.01314635 -0.07737924 0.00735531
v -0.01314635 -0.07737924 0.00735531
v -0.01843783 -0.08048865 0.00148159
v -0.01843783 -0.08048865 0.00148159
v 0.01281693 0.08053114 0.00000648
v -0.01314484 -0.07737927 0.00005704
v 0.00602580 -0.06767654 0.00006095
v 0.00897422 -0.07519110 0.00735987
v 0.00897422 -0.07519110 0.00735987
v -0.01435768 -0.05757195 0.00005666
v -0.01489861 -0.08312409 0.00005672
v -0.01232238 -0.07326404 0.00876992
v -0.01332794 -0.05181356 0.00148247
v -0.01332794 -0.05181356 0.00148247
v -0.01232087 -0.07326409 0.00147167
v -0.01232087 -0.07326409 0.00147167
v 0.00797168 -0.08051020 0.00877417
v -0.01409930 -0.08125941 0.00876961
v 0.01612648 0.07255516 0.00148778
v 0.01612648 0.07255516 0.00148778
v 0.01113040 0.08410847 0.00864271
v -0.01658790 -0.08227619 0.00876911
v 0.00819984 0.07364687 0.00148606
v 0.00819984 0.07364687 0.00148606
v -0.01636276 -0.08316942 0.00005641
v 0.00611290 0.06943788 0.00000517
v -0.01685486 0.08247611 0.00148090
v -0.01685486 0.08247611 0.00148090
v 0.00611139 0.06943793 0.00734728
v 0.00611139 0.06943793 0.00734728
v -0.00948453 0.08078067 0.00148237
v -0.00948453 0.08078067 0.00148237
v 0.01029881 -0.04793832 0.00767146
v 0.01029881 -0.04793832 0.00767146
v 0.00708872 0.07060402 0.00734747
v 0.00708872 0.07060402 0.00734747
v 0.00101682 0.06801853 0.00882672
v -0.02071419 -0.06720392 0.00734252
v -0.02071419 -0.06720392 0.00734252
v 0.00435988 -0.06652033 0.00877333
v -0.00832712 0.07114300 0.00882476
v 0.01833273 -0.06574559 0.00006349
v -0.01049992 0.07530568 0.00882429
v 0.01194352 0.08439589 0.00864288
v -0.01006351 0.07825937 0.00000177
v -0.01770608 -0.08215881 0.00734324
v -0.01770608 -0.08215881 0.00734324
v -0.00427417 -0.06498214 0.00735707
v -0.00427417 -0.06498214 0.00735707
v -0.01816014 -0.07403002 0.00876873
v -0.00427266 -0.06498219 0.00005880
v 0.01246228 0.08242052 0.00882899
v 0.01005679 0.08063767 0.00882851
v -0.01006502 0.07825943 0.00734387
v -0.01006502 0.07825943 0.00734387
v -0.02166136 0.07060157 0.00147998
v -0.02166136 0.07060157 0.00147998
v 0.00847149 -0.04150435 0.00767104
v 0.00847149 -0.04150435 0.00767104
v -0.00377430 0.05130832 0.00118205
v -0.01357532 -0.07932959 0.00147144
v -0.01357532 -0.07932959 0.00147144
v -0.00497176 0.06895399 0.00734498
v -0.00497176 0.06895399 0.00734498
v -0.01027608 0.07386722 0.00000175
v -0.01430664 0.08547717 0.00734289
v -0.01430664 0.08547717 0.00734289
v 0.00664319 -0.08867431 0.00006121
v -0.00801564 0.08673126 0.00000214
v -0.01101722 0.04500254 0.00118060
v -0.01101722 0.04500254 0.00118060
v 0.00711689 -0.08493869 0.00006128
v -0.01280876 -0.07564514 0.00735537
v -0.01280876 -0.07564514 0.00735537
v 0.00911716 -0.07281706 0.00147609
v 0.00911716 -0.07281706 0.00147609
v -0.01280725 -0.07564519 0.00005710
v 0.00848331 -0.07803579 0.00877426
v 0.00266601 -0.05084414 0.00006014
v -0.01826040 -0.06500885 0.00876865
v 0.01868095 -0.06910775 0.00877631
v 0.01232197 0.08455916 0.00148688
v 0.01232197 0.08455916 0.00148688
v -0.01065410 -0.04792395 0.00110576
v -0.01065410 -0.04792395 0.00110576
v 0.01373852 0.06935351 0.00000675
v -0.01850772 -0.06795251 0.00005587
v -0.01186920 -0.05410328 0.00005716
v 0.00696422 0.05141654 0.00118427
v 0.00696422 0.05141654 0.00118427
v 0.01580727 -0.07846540 0.00006304
v 0.00580680 0.04518572 0.00768252
v 0.00580680 0.04518572 0.00768252
v -0.01559632 0.05784880 0.00734279
v -0.01559632 0.05784880 0.00734279
v -0.01177304 -0.07081335 0.00735555
v -0.01177304 -0.07081335 0.00735555
v -0.01685525 -0.06103082 0.00876892
v -0.02121822 0.07432257 0.00148004
v -0.02121822 0.07432257 0.00148004
v -0.01177153 -0.07081340 0.00005729
v -0.00600787 -0.06525629 0.00147292
v -0.00600787 -0.06525629 0.00147292
v 0.01054348 0.08239526 0.00734811
v 0.01054348 0.08239526 0.00734811
v -0.01992433 -0.06211869 0.00734265
v -0.01992433 -0.06211869 0.00734265
v -0.01884700 0.07025895 0.00000000
v 0.00710873 -0.08491742 0.00147575
v 0.00710873 -0.08491742 0.00147575
v -0.01626046 -0.08408080 0.00147091
v -0.01626046 -0.08408080 0.00147091
v -0.00909536 0.08991857 0.00882449
v 0.00713641 -0.08992527 0.00735958
v 0.00713641 -0.08992527 0.00735958
v 0.00799541 -0.08999995 0.00735976
v 0.00799541 -0.08999995 0.00735976
v -0.01065621 0.08756474 0.00000158
v 0.01325667 -0.08513982 0.00148818
v 0.01325667 -0.08513982 0.00148818
v 0.01386030 -0.08163403 0.00877540
v 0.00713792 -0.08992531 0.00006131
v -0.01065545 -0.04792392 0.00766712
v -0.01065545 -0.04792392 0.00766712
v -0.01643347 0.06358632 0.00882314
v 0.00758895 -0.06913668 0.00877402
v 0.00820015 0.07364686 0.00000557
v 0.00911478 -0.07280745 0.00006162
v -0.01866471 0.07967994 0.00734201
v -0.01866471 0.07967994 0.00734201
v 0.00224734 0.06805652 0.00882697
v 0.01329568 0.07822250 0.00000660
v -0.00872922 -0.06608130 0.00735616
v -0.00872922 -0.06608130 0.00735616
v -0.00948423 0.08078067 0.00000188
v 0.00101713 0.06801852 0.00734623
v 0.00101713 0.06801852 0.00734623
v -0.00832681 0.07114299 0.00734427
v -0.00832681 0.07114299 0.00734427
v 0.00871712 -0.07103904 0.00877426
v -0.01049961 0.07530567 0.00734380
v -0.01049961 0.07530567 0.00734380
v -0.01891581 0.06215927 0.00148059
v -0.01891581 0.06215927 0.00148059
v -0.01803339 0.06761170 0.00882278
v -0.00845476 -0.05201083 0.00005785
v 0.01005709 0.08063765 0.00734801
v 0.01005709 0.08063765 0.00734801
v 0.02155467 -0.06420675 0.00148976
v 0.02155467 -0.06420675 0.00148976
v -0.01539953 -0.08403390 0.00735488
v -0.01539953 -0.08403390 0.00735488
v -0.01539802 -0.08403395 0.00005661
v -0.01314665 -0.07737922 0.00876978
v 0.00603155 -0.06766960 0.00735921
v 0.00603155 -0.06766960 0.00735921
v 0.00664275 -0.08867489 0.00735947
v 0.00664275 -0.08867489 0.00735947
v -0.01314514 -0.07737926 0.00147151
v -0.01314514 -0.07737926 0.00147151
v -0.01435797 0.08205145 0.00000085
v 0.00897544 -0.07519114 0.00147608
v 0.00897544 -0.07519114 0.00147608
v -0.01741999 -0.07875806 0.00005617
v 0.01429411 0.08032918 0.00734884
v 0.01429411 0.08032918 0.00734884
v 0.01987419 -0.07532945 0.00735097
v 0.01987419 -0.07532945 0.00735097
v 0.00611260 0.06943789 0.00148565
v 0.00611260 0.06943789 0.00148565
v -0.00669830 0.06984326 0.00882511
v -0.00154357 0.06820655 0.00882619
v 0.01164055 -0.05454512 0.00877476
v 0.00708994 0.07060398 0.00148585
v 0.00708994 0.07060398 0.00148585
v 0.01833092 -0.06574553 0.00877622
v -0.02071297 -0.06720396 0.00148104
v -0.02071297 -0.06720396 0.00148104
v -0.01006381 0.07825939 0.00148227
v -0.01006381 0.07825939 0.00148227
v 0.01329982 0.08250084 0.00148713
v 0.01329982 0.08250084 0.00148713
v -0.00427446 -0.06498214 0.00877154
v -0.00427295 -0.06498219 0.00147327
v -0.00427295 -0.06498219 0.00147327
v 0.00668170 -0.08768009 0.00735947
v 0.00668170 -0.08768009 0.00735947
v -0.01153276 0.05085751 0.00118046
v -0.01153276 0.05085751 0.00118046
v 0.00664139 -0.08867425 0.00877395
v -0.00497054 0.06895395 0.00148338
v -0.00497054 0.06895395 0.00148338
v 0.00795746 -0.08908265 0.00877422
v -0.00937885 0.00303400 0.00130084
v -0.00937885 0.00303400 0.00130084
v 0.00711508 -0.08493864 0.00877402
v -0.01430542 0.08547713 0.00148140
v -0.01430542 0.08547713 0.00148140
v 0.00888067 0.07626859 0.00882829
v 0.00129174 -0.06531381 0.00005996
v -0.01643165 0.06358626 0.00000054
v -0.00877170 0.08369373 0.00148251
v -0.00877170 0.08369373 0.00148251
v -0.01280906 -0.07564513 0.00876984
v 0.00266420 -0.05084408 0.00877288
v -0.01280755 -0.07564519 0.00147157
v -0.01280755 -0.07564519 0.00147157
v 0.01352744 0.05998661 0.00734880
v 0.01352744 0.05998661 0.00734880
v -0.00877321 0.08369379 0.00882460
v -0.00347219 0.06854270 0.00882579
v -0.01850953 -0.06795245 0.00876861
v -0.01273756 0.08451930 0.00000118
v 0.00224765 0.06805651 0.00734648
v 0.00224765 0.06805651 0.00734648
v 0.01248308 0.08259099 0.00000641
v 0.00991515 -0.08852900 0.00734899
v 0.00991515 -0.08852900 0.00734899
v 0.01607469 0.06870729 0.00734927
v 0.01607469 0.06870729 0.00734927
v 0.01562668 0.07584309 0.00734913
v 0.01562668 0.07584309 0.00734913
v 0.01580546 -0.07846534 0.00877578
v 0.01179077 -0.08436891 0.00002484
v -0.01559511 0.05784876 0.00148131
v -0.01559511 0.05784876 0.00148131
v -0.01679407 -0.08371837 0.00735460
v -0.01679407 -0.08371837 0.00735460
v 0.01606309 -0.05593270 0.00735007
v 0.01606309 -0.05593270 0.00735007
v -0.01976165 0.07758197 0.00734180
v -0.01976165 0.07758197 0.00734180
v -0.01587011 0.07950351 0.00000055
v 0.01291041 0.06502305 0.00882920
v 0.01054469 0.08239522 0.00148650
v 0.01054469 0.08239522 0.00148650
v 0.01717566 -0.06142495 0.00006321
v -0.01177334 -0.07081334 0.00877003
v 0.01803541 -0.07224699 0.00006346
v -0.01177183 -0.07081338 0.00147176
v -0.01177183 -0.07081338 0.00147176
v -0.01791399 -0.07664518 0.00876879
v 0.00759449 0.05739777 0.00882814
v 0.01054318 0.08239526 0.00882860
vt 0.14445000 0.26694000
vt 0.27347400 0.36844600
vt 0.61704300 0.74338200
vt 0.09860100 0.16905200
vt 0.45068000 0.83963900
vt 0.85351400 0.68904800
vt 0.63245500 0.62868500
vt 0.90082000 0.64154900
vt 0.22740600 0.23111200
vt 0.65208500 0.61786400
vt 0.59207100 0.90585000
vt 0.54406700 0.82963600
vt 0.17894800 0.69912300
vt 0.18175300 0.86533000
vt 0.55670500 0.97402700
vt 0.33992600 0.26419300
vt 0.14445100 0.15372500
vt 0.35505400 0.26522700
vt 0.52239700 0.90337900
vt 0.37405300 0.30018400
vt 0.14453900 0.10746800
vt 0.65364900 0.75941700
vt 0.09851400 0.14612000
vt 0.64506500 0.75944000
vt 0.09851400 0.14945000
vt 0.80998300 0.11392100
vt 0.22742800 0.93855000
vt 0.22749100 0.12593700
vt 0.87033300 0.72123900
vt 0.68635900 0.60912300
vt 0.34646500 0.92356100
vt 0.18146600 0.13387300
vt 0.58586700 0.29299600
vt 0.80106000 0.17393100
vt 0.79966400 0.66074900
vt 0.18157700 0.95434100
vt 0.49108700 0.89781200
vt 0.62059700 0.07443800
vt 0.09859300 0.88270800
vt 0.18157800 0.97595100
vt 0.14444300 0.97511900
vt 0.45239100 0.89212100
vt 0.90333000 0.09487200
vt 0.22742400 0.81091300
vt 0.59548800 0.69319800
vt 0.23036000 0.32328700
vt 0.80818200 0.56563900
vt 0.34413700 0.27203100
vt 0.70624300 0.66539000
vt 0.61568200 0.07914800
vt 0.18146400 0.05485400
vt 0.50012000 0.35487100
vt 0.36695000 0.33131100
vt 0.61305400 0.72098800
vt 0.18146600 0.13049000
vt 0.57993000 0.29563600
vt 0.88362500 0.72146500
vt 0.67328000 0.12310400
vt 0.09514800 0.54737600
vt 0.68986300 0.39042100
vt 0.72987800 0.12941400
vt 0.09859200 0.96508300
vt 0.71305400 0.17850700
vt 0.80000700 0.11881400
vt 0.22742800 0.94624200
vt 0.81917800 0.10451000
vt 0.22742700 0.92666800
vt 0.14444400 0.87008600
vt 0.30413100 0.93559000
vt 0.18146600 0.11801200
vt 0.56609500 0.30712900
vt 0.64414900 0.08640500
vt 0.09859300 0.89756700
vt 0.87223900 0.71116400
vt 0.31821300 0.92714900
vt 0.37412200 0.29343100
vt 0.14453900 0.11414000
vt 0.89477200 0.67634100
vt 0.65973300 0.72723000
vt 0.18157500 0.85478400
vt 0.57159000 0.96489900
vt 0.18157200 0.75736900
vt 0.60901300 0.87565300
vt 0.32538200 0.89824300
vt 0.65200700 0.10530200
vt 0.59522100 0.29579700
vt 0.77816400 0.13151700
vt 0.89056200 0.72985500
vt 0.22749100 0.13757700
vt 0.37415800 0.30955800
vt 0.14453900 0.09811000
vt 0.83590000 0.04768000
vt 0.22742600 0.87159500
vt 0.65974200 0.71100600
vt 0.69905300 0.67396100
vt 0.09851500 0.05353600
vt 0.09851400 0.13998300
vt 0.66551800 0.75478400
vt 0.58976700 0.67060600
vt 0.36503600 0.91859000
vt 0.14444400 0.91527000
vt 0.18157500 0.89313000
vt 0.52602000 0.95023100
vt 0.57160500 0.69319200
vt 0.09860100 0.22477700
vt 0.83414300 0.07143600
vt 0.40868600 0.88686700
vt 0.70871500 0.12837200
vt 0.09859200 0.95339900
vt 0.18146400 0.06688900
vt 0.52020100 0.35086600
vt 0.59779000 0.09495600
vt 0.09859400 0.86066700
vt 0.82313500 0.66539300
vt 0.18157800 0.96828000
vt 0.46681900 0.89338500
vt 0.51134100 0.45527800
vt 0.17903500 0.32328700
vt 0.90858700 0.72490800
vt 0.22740400 0.14645300
vt 0.63661700 0.15085200
vt 0.28501500 0.31215200
vt 0.14445100 0.20811600
vt 0.87291200 0.63975500
vt 0.54397600 0.96867800
vt 0.88630800 0.62921700
vt 0.22740700 0.24594000
vt 0.62760500 0.08375300
vt 0.49230900 0.36128300
vt 0.52949400 0.90861400
vt 0.41448600 0.35059200
vt 0.14454000 0.04587000
vt 0.36823900 0.83219200
vt 0.14444500 0.75377100
vt 0.53989300 0.96167400
vt 0.81566700 0.10958400
vt 0.22742800 0.93265700
vt 0.37390000 0.28227300
vt 0.14453900 0.12506900
vt 0.66883900 0.75039400
vt 0.09851400 0.13613200
vt 0.68481400 0.17708800
vt 0.18155500 0.17372000
vt 0.62203000 0.32454400
vt 0.67932400 0.67540000
vt 0.18155500 0.18449600
vt 0.62096500 0.33534400
vt 0.33164300 0.88572300
vt 0.74748400 0.18127600
vt 0.64612300 0.75261300
vt 0.54626400 0.85220300
vt 0.52853500 0.79441800
vt 0.17894700 0.66214400
vt 0.32037300 0.27745700
vt 0.14445100 0.16905200
vt 0.47187800 0.81920700
vt 0.18146300 0.03040100
vt 0.14454000 0.02378500
vt 0.45385700 0.35637400
vt 0.74941700 0.65900700
vt 0.35617500 0.85800500
vt 0.51617300 0.63005100
vt 0.17888800 0.49787500
vt 0.51337100 0.90697500
vt 0.18157700 0.93855100
vt 0.59852500 0.29648900
vt 0.63417200 0.17101000
vt 0.09859400 0.77817400
vt 0.47682500 0.41948700
vt 0.14444400 0.88270800
vt 0.32380600 0.94646100
vt 0.59798500 0.11300500
vt 0.09859400 0.84252800
vt 0.72101300 0.12922000
vt 0.09859200 0.96026800
vt 0.62801500 0.75176100
vt 0.09860100 0.15953300
vt 0.81126700 0.66252400
vt 0.18155700 0.25981100
vt 0.57366000 0.40257700
vt 0.60578400 0.13982200
vt 0.09859400 0.81427200
vt 0.83043000 0.10610900
vt 0.38915100 0.81947500
vt 0.14706700 0.73680000
vt 0.32155700 0.90959100
vt 0.90360700 0.72793700
vt 0.22749100 0.14318900
vt 0.34029600 0.41204100
vt 0.14445000 0.32378500
vt 0.09860000 0.30701600
vt 0.61375800 0.62024100
vt 0.72981900 0.13516500
vt 0.90836700 0.10335300
vt 0.22742300 0.80165300
vt 0.80739200 0.12315400
vt 0.64080300 0.74881000
vt 0.29523300 0.33812700
vt 0.63485400 0.08984800
vt 0.18146400 0.07415600
vt 0.52954200 0.34641500
vt 0.83442400 0.67085100
vt 0.31387900 0.37679800
vt 0.55837500 0.96178400
vt 0.33570300 0.39216000
vt 0.39566000 0.35122500
vt 0.36567200 0.90612700
vt 0.88228800 0.72799500
vt 0.22749100 0.13387300
vt 0.41193300 0.89252000
vt 0.14444300 0.95339900
vt 0.31958100 0.91822200
vt 0.70546100 0.13402400
vt 0.09860100 0.15372500
vt 0.63658700 0.75664700
vt 0.67073300 0.72066300
vt 0.09851400 0.10746800
vt 0.60032300 0.29767900
vt 0.55559400 0.39368300
vt 0.59085900 0.29736700
vt 0.79674500 0.66604200
vt 0.22748900 0.05485400
vt 0.90754600 0.64941200
vt 0.22740600 0.22223400
vt 0.29878400 0.32764000
vt 0.78776400 0.12312100
vt 0.22742800 0.95434000
vt 0.74918700 0.12877600
vt 0.09859200 0.97511900
vt 0.22742900 0.97595000
vt 0.84221200 0.16725400
vt 0.18155400 0.14645300
vt 0.61215800 0.29610300
vt 0.69485400 0.22590000
vt 0.09623500 0.71173100
vt 0.53713200 0.93761700
vt 0.50303000 0.36016500
vt 0.29711400 0.29809000
vt 0.14445100 0.19263200
vt 0.84028000 0.05218100
vt 0.58718500 0.29952800
vt 0.87635900 0.72535100
vt 0.22749100 0.13048900
vt 0.58956400 0.39179200
vt 0.18155700 0.24594100
vt 0.65800800 0.74864700
vt 0.57576900 0.30982100
vt 0.60347200 0.30742300
vt 0.90572200 0.14512700
vt 0.22742200 0.75736900
vt 0.14444400 0.85103100
vt 0.30089900 0.91627400
vt 0.59820400 0.34466600
vt 0.36305600 0.29361500
vt 0.18157700 0.93265800
vt 0.51908000 0.91130400
vt 0.67079800 0.72741600
vt 0.09851400 0.11414000
vt 0.18157500 0.88064300
vt 0.52892200 0.96385700
vt 0.22742500 0.85478400
vt 0.86791100 0.05592600
vt 0.28490200 0.38065100
vt 0.14445000 0.28073100
vt 0.09859300 0.91527000
vt 0.66182600 0.10231100
vt 0.31155600 0.94458900
vt 0.14444400 0.87845900
vt 0.67084400 0.71129000
vt 0.09851500 0.09810900
vt 0.43651700 0.35495800
vt 0.14454000 0.03308100
vt 0.57445500 0.93694200
vt 0.31998100 0.86463900
vt 0.14444400 0.79604700
vt 0.26883800 0.35130800
vt 0.14445000 0.24924900
vt 0.84756000 0.05069800
vt 0.52651800 0.35554500
vt 0.65296800 0.16290300
vt 0.22748900 0.06688900
vt 0.81680800 0.67006800
vt 0.14454000 0.07053300
vt 0.38196400 0.33539900
vt 0.18155500 0.19749500
vt 0.61894400 0.34809000
vt 0.76356300 0.12757400
vt 0.22742900 0.96828000
vt 0.39302100 0.63050500
vt 0.14712300 0.54737600
vt 0.33569000 0.27938800
vt 0.53544800 0.40648400
vt 0.45076500 0.43249200
vt 0.71973200 0.13493500
vt 0.66072400 0.69898200
vt 0.50648800 0.84354000
vt 0.88177300 0.13987100
vt 0.58170900 0.70868300
vt 0.09860100 0.20811500
vt 0.61834400 0.11130800
vt 0.90057900 0.69812800
vt 0.39095200 0.34184800
vt 0.14454000 0.06186700
vt 0.56827300 0.68217000
vt 0.09860000 0.23623100
vt 0.14454000 0.03898500
vt 0.42612500 0.35329100
vt 0.71877900 0.66243200
vt 0.36280400 0.26263700
vt 0.14453900 0.14367100
vt 0.18155400 0.15763100
vt 0.61963000 0.30792700
vt 0.65448000 0.75450000
vt 0.71117800 0.67026200
vt 0.09851500 0.04586900
vt 0.09859500 0.75377100
vt 0.66508500 0.18872800
vt 0.89804500 0.72005200
vt 0.53206700 0.81726900
vt 0.17894800 0.68513300
vt 0.18146500 0.09395000
vt 0.54711100 0.32950700
vt 0.91853900 0.69647600
vt 0.22740500 0.17371900
vt 0.14444400 0.83012400
vt 0.30345000 0.89592600
vt 0.91750400 0.68567700
vt 0.22740500 0.18449600
vt 0.18146600 0.12593700
vt 0.57389200 0.29974400
vt 0.65967400 0.72054100
vt 0.87915700 0.71791900
vt 0.14444400 0.92577300
vt 0.37510900 0.90933800
vt 0.65307000 0.09424900
vt 0.09859300 0.90625100
vt 0.45274000 0.36186100
vt 0.18157400 0.82393800
vt 0.59850100 0.93771200
vt 0.56764500 0.94773700
vt 0.75052400 0.66449500
vt 0.09851500 0.02378500
vt 0.22748800 0.03040000
vt 0.87043000 0.61841900
vt 0.22740700 0.25981000
vt 0.58135400 0.92610500
vt 0.79355100 0.12813300
vt 0.51464000 0.35840300
vt 0.75063500 0.13449200
vt 0.58561900 0.91708300
vt 0.80690400 0.66760900
vt 0.22748900 0.06066200
vt 0.18157600 0.90479800
vt 0.52549000 0.93807100
vt 0.18155600 0.22223400
vt 0.61087700 0.37161700
vt 0.54879000 0.41601800
vt 0.17903400 0.27860600
vt 0.91809100 0.70570200
vt 0.22740500 0.16472500
vt 0.09859900 0.32378500
vt 0.63702000 0.60881400
vt 0.89832100 0.68800000
vt 0.89993300 0.71358200
vt 0.53782700 0.35009800
vt 0.82613100 0.67452800
vt 0.22748900 0.07415500
vt 0.18157200 0.77303300
vt 0.61818700 0.89016200
vt 0.50881400 0.41414000
vt 0.14453900 0.07733000
vt 0.37762500 0.32967200
vt 0.88659100 0.65403500
vt 0.60371800 0.31450300
vt 0.39038600 0.89101800
vt 0.59379900 0.72274600
vt 0.09860100 0.19263200
vt 0.85298300 0.04681700
vt 0.22724800 0.86533000
vt 0.37649700 0.89779200
vt 0.76630500 0.13316600
vt 0.41625200 0.84240800
vt 0.18157300 0.78768900
vt 0.61857600 0.90438500
vt 0.74760600 0.58843000
vt 0.18146400 0.04958500
vt 0.49053100 0.35586300
vt 0.38957400 0.41172300
vt 0.91225400 0.72108900
vt 0.22740400 0.15013300
vt 0.78894700 0.65961900
vt 0.36134300 0.27219700
vt 0.63236100 0.74145200
vt 0.53665800 0.92698700
vt 0.48145700 0.88943800
vt 0.59768700 0.10462700
vt 0.09859400 0.85103100
vt 0.82525000 0.05702000
vt 0.22742600 0.88064200
vt 0.27155900 0.33866600
vt 0.14445000 0.23623100
vt 0.61677400 0.15627100
vt 0.09859400 0.79604700
vt 0.77367400 0.60137300
vt 0.56556200 0.66952800
vt 0.09860000 0.24924900
vt 0.58164400 0.64019100
vt 0.09860000 0.28073100
vt 0.31100600 0.28545500
vt 0.14445100 0.17818300
vt 0.43374000 0.36034000
vt 0.89495500 0.72451100
vt 0.73319600 0.66590200
vt 0.09851500 0.03308100
vt 0.18146600 0.14036700
vt 0.60105000 0.29152300
vt 0.64325400 0.09733800
vt 0.67866100 0.68545000
vt 0.09851500 0.07053300
vt 0.32798300 0.28879500
vt 0.91552000 0.67293400
vt 0.22740500 0.19749500
vt 0.88866800 0.11494400
vt 0.81902300 0.11750600
vt 0.14444400 0.90625100
vt 0.35627900 0.92665200
vt 0.88216700 0.10372200
vt 0.66885900 0.68281100
vt 0.61967400 0.07962600
vt 0.65820700 0.59458400
vt 0.09564800 0.34189900
vt 0.36403100 0.32186500
vt 0.18157100 0.73812700
vt 0.59164900 0.85911900
vt 0.84139400 0.19138500
vt 0.22742000 0.69912200
vt 0.53961700 0.97318500
vt 0.18157500 0.87159600
vt 0.18155400 0.16472600
vt 0.62160800 0.31531700
vt 0.09851500 0.06186700
vt 0.68765000 0.67900300
vt 0.42208700 0.35842400
vt 0.67550600 0.56538400
vt 0.09564800 0.37248200
vt 0.62216800 0.12265700
vt 0.72281100 0.66756600
vt 0.09851500 0.03898500
vt 0.35781900 0.26634400
vt 0.59318600 0.89053000
vt 0.65946200 0.75820700
vt 0.09851400 0.14367100
vt 0.18146600 0.11035300
vt 0.55975500 0.31432200
vt 0.91609200 0.71309000
vt 0.22740400 0.15763000
vt 0.61500100 0.09375000
vt 0.86623000 0.70425800
vt 0.69236000 0.66962600
vt 0.14453900 0.08642000
vt 0.37503900 0.32113200
vt 0.85234000 0.62730400
vt 0.88729300 0.72362800
vt 0.55697800 0.33192100
vt 0.84634900 0.60464400
vt 0.22740800 0.27860500
vt 0.22749000 0.09395000
vt 0.84364100 0.69145400
vt 0.36299300 0.30030500
vt 0.58270700 0.30307000
vt 0.60023800 0.12497700
vt 0.09859400 0.83012400
vt 0.32288300 0.94127300
vt 0.60160200 0.30095100
vt 0.67189600 0.11156200
vt 0.09859200 0.92577300
vt 0.89675600 0.72332300
vt 0.68716500 0.12987600
vt 0.22742400 0.82393700
vt 0.89495100 0.08307900
vt 0.39655700 0.89596200
vt 0.14444300 0.94401200
vt 0.82194300 0.08280900
vt 0.22742700 0.90479800
vt 0.36137000 0.42631300
vt 0.14697300 0.34189900
vt 0.38488800 0.90171200
vt 0.14444300 0.93512400
vt 0.43305500 0.88572300
vt 0.61544000 0.36080600
vt 0.18155600 0.21074500
vt 0.40954700 0.35546400
vt 0.51073300 0.89774800
vt 0.59481300 0.65804600
vt 0.53386300 0.91476000
vt 0.31889100 0.94175100
vt 0.83316500 0.09387900
vt 0.61581500 0.29992400
vt 0.18155400 0.15013400
vt 0.18146400 0.04273600
vt 0.47771500 0.35656700
vt 0.60178600 0.33300700
vt 0.77486700 0.65882600
vt 0.31694000 0.93417100
vt 0.33806400 0.93105100
vt 0.18157600 0.91507400
vt 0.52507000 0.92767500
vt 0.91484700 0.13060400
vt 0.22742200 0.77303200
vt 0.14697300 0.37248200
vt 0.37865700 0.45553100
vt 0.76872500 0.20171600
vt 0.86255700 0.71384800
vt 0.22749000 0.11801200
vt 0.18157700 0.96238900
vt 0.47741900 0.89482300
vt 0.82609300 0.11226100
vt 0.18157400 0.83933900
vt 0.58614900 0.95137000
vt 0.65682500 0.75193400
vt 0.83623100 0.05918900
vt 0.82536700 0.22651100
vt 0.22977900 0.66214400
vt 0.65951100 0.73809100
vt 0.18146500 0.10330800
vt 0.55429400 0.32089400
vt 0.67432000 0.69117700
vt 0.09851500 0.07733000
vt 0.86082600 0.69776600
vt 0.36305600 0.30984000
vt 0.71953900 0.60273100
vt 0.58994200 0.36696900
vt 0.29304600 0.35023300
vt 0.60834600 0.07631000
vt 0.09859300 0.87845900
vt 0.23035900 0.29840800
vt 0.82344700 0.58906100
vt 0.62842900 0.13517900
vt 0.89182300 0.66483700
vt 0.83222200 0.61450800
vt 0.09623500 0.73680000
vt 0.68596900 0.20146100
vt 0.60157500 0.70743900
vt 0.39801300 0.79503100
vt 0.14706800 0.71173100
vt 0.56511700 0.84333000
vt 0.18157100 0.71684500
vt 0.53941000 0.33795000
vt 0.18146500 0.08448600
vt 0.57620700 0.38124000
vt 0.91517800 0.11638000
vt 0.22742300 0.78768800
vt 0.84532100 0.68024200
vt 0.78716100 0.66503800
vt 0.22748800 0.04958500
vt 0.33809500 0.94122800
vt 0.14444400 0.89013700
vt 0.18155600 0.23111200
vt 0.60411900 0.37947400
vt 0.88984700 0.13025800
vt 0.67057000 0.73857400
vt 0.09851400 0.12506900
vt 0.89746600 0.72947900
vt 0.22749100 0.14036700
vt 0.55126400 0.97015200
vt 0.14453900 0.14612100
vt 0.35699000 0.26142600
vt 0.34840600 0.26140200
vt 0.14453900 0.14945100
vt 0.85471200 0.05905700
vt 0.60768200 0.73538300
vt 0.09860100 0.17818300
vt 0.31637000 0.29985100
vt 0.65171500 0.75561600
vt 0.52661800 0.43184900
vt 0.17903500 0.29840900
vt 0.56885200 0.86689700
vt 0.38262300 0.34545000
vt 0.66245800 0.11477100
vt 0.66364800 0.68953700
vt 0.18157300 0.81091300
vt 0.60682500 0.92590900
vt 0.42296400 0.88595400
vt 0.61636800 0.10267600
vt 0.18146400 0.06066300
vt 0.51028600 0.35331400
vt 0.83358700 0.08324800
vt 0.14444300 0.96508400
vt 0.43309400 0.89147400
vt 0.18157700 0.94624200
vt 0.50336400 0.90209800
vt 0.37215900 0.33803700
vt 0.18157600 0.92666800
vt 0.52261700 0.91637400
vt 0.88834100 0.16167800
vt 0.22742100 0.73812600
vt 0.58508000 0.88092000
vt 0.80567900 0.60674100
vt 0.34735700 0.93449600
vt 0.14444400 0.89756800
vt 0.57020900 0.65239300
vt 0.09860000 0.26694000
vt 0.18146600 0.13757700
vt 0.59414700 0.29114200
vt 0.89164900 0.72520100
vt 0.56974000 0.31672200
vt 0.14454000 0.05353600
vt 0.40235800 0.34689100
vt 0.36885800 0.26606000
vt 0.14453900 0.13998300
vt 0.85623900 0.70665100
vt 0.22749000 0.11035300
vt 0.87091000 0.08387800
vt 0.67173100 0.69971700
vt 0.09851500 0.08642000
vt 0.90019900 0.70650300
vt 0.14444400 0.86066700
vt 0.30100100 0.92594500
vt 0.14445100 0.22477700
vt 0.27489900 0.32764300
vt 0.69334100 0.12493300
vt 0.09859200 0.94401200
vt 0.49685800 0.89279300
vt 0.45388000 0.88639600
vt 0.35532500 0.40297700
vt 0.68167400 0.11918600
vt 0.09859200 0.93512300
vt 0.29808200 0.36279500
vt 0.91206300 0.66022300
vt 0.22740600 0.21074500
vt 0.82157400 0.09320500
vt 0.22742700 0.91507300
vt 0.60092000 0.08530900
vt 0.09859300 0.87008600
vt 0.47821100 0.36206100
vt 0.77435900 0.66432100
vt 0.22748800 0.04273500
vt 0.37217600 0.27045200
vt 0.14453900 0.13613200
vt 0.82890000 0.20367700
vt 0.22978000 0.68513200
vt 0.36016200 0.26890900
vt 0.77413000 0.12613200
vt 0.22742900 0.96238900
vt 0.34946000 0.26822900
vt 0.81303800 0.39087000
vt 0.22818800 0.49787400
vt 0.36284000 0.28275400
vt 0.88253400 0.06943800
vt 0.22742400 0.83933800
vt 0.35521900 0.91559600
vt 0.73042700 0.66052000
vt 0.86558000 0.15389000
vt 0.82241400 0.07064900
vt 0.22742600 0.89312900
vt 0.56431700 0.32320900
vt 0.42273200 0.41811500
vt 0.85079700 0.70007300
vt 0.22749000 0.10330700
vt 0.33736800 0.84990600
vt 0.14444500 0.77817400
vt 0.53774600 0.94942900
vt 0.46960600 0.88780900
vt 0.59521600 0.35616900
vt 0.86404800 0.07309200
vt 0.42423100 0.89166900
vt 0.14444300 0.96026800
vt 0.61373000 0.08672700
vt 0.14445100 0.15953300
vt 0.33135100 0.26907900
vt 0.30899500 0.88108300
vt 0.14444400 0.81427200
vt 0.14444400 0.84252800
vt 0.30119700 0.90789600
vt 0.30488100 0.31339900
vt 0.62466000 0.73204500
vt 0.86166200 0.17743700
vt 0.22742100 0.71684500
vt 0.18146600 0.14319000
vt 0.60718700 0.29307000
vt 0.31700900 0.40061100
vt 0.14445000 0.30701600
vt 0.18157300 0.80165400
vt 0.61182300 0.91742100
vt 0.87786000 0.09470600
vt 0.33982800 0.87005300
vt 0.63488700 0.07967200
vt 0.09859300 0.89013700
vt 0.61062000 0.64404600
vt 0.54875600 0.34071800
vt 0.59194400 0.68271200
vt 0.83596800 0.68300400
vt 0.22748900 0.08448500
vt 0.60407400 0.32287900
vt 0.38800800 0.84382100
vt 0.33081400 0.93714700
f 149/149 512/512 34/34
f 8/8 126/126 124/124
f 385/385 531/531 404/404
f 563/563 187/187 412/412
f 24/24 22/22 574/574
f 5/5 296/296 156/156
f 244/244 559/559 550/550
f 293/293 169/169 657/657
f 416/416 166/166 680/680
f 568/568 18/18 567/567
f 445/445 59/59 290/290
f 445/445 290/290 510/510
f 613/613 665/665 106/106
f 613/613 106/106 587/587
f 587/587 497/497 685/685
f 587/587 685/685 613/613
f 665/665 570/570 521/521
f 665/665 521/521 106/106
f 521/521 570/570 278/278
f 521/521 278/278 240/240
f 497/497 183/183 427/427
f 497/497 427/427 685/685
f 183/183 517/517 423/423
f 183/183 423/423 427/427
f 517/517 424/424 560/560
f 517/517 560/560 423/423
f 668/668 128/128 429/429
f 668/668 429/429 50/50
f 668/668 457/457 199/199
f 668/668 199/199 128/128
f 417/417 199/199 457/457
f 417/417 457/457 584/584
f 584/584 300/300 85/85
f 584/584 85/85 417/417
f 300/300 446/446 579/579
f 300/300 579/579 85/85
f 446/446 538/538 58/58
f 446/446 58/58 579/579
f 538/538 121/121 478/478
f 538/538 478/478 58/58
f 121/121 280/280 213/213
f 121/121 213/213 478/478
f 280/280 142/142 294/294
f 280/280 294/294 213/213
f 63/63 149/149 349/349
f 63/63 349/349 193/193
f 653/653 297/297 196/196
f 653/653 196/196 347/347
f 231/231 653/653 347/347
f 231/231 347/347 87/87
f 34/34 231/231 87/87
f 34/34 87/87 381/381
f 381/381 349/349 149/149
f 381/381 149/149 34/34
f 378/378 278/278 570/570
f 378/378 570/570 262/262
f 262/262 570/570 665/665
f 262/262 665/665 649/649
f 613/613 480/480 649/649
f 613/613 649/649 665/665
f 685/685 43/43 480/480
f 685/685 480/480 613/613
f 43/43 685/685 427/427
f 43/43 427/427 194/194
f 423/423 551/551 194/194
f 423/423 194/194 427/427
f 560/560 508/508 551/551
f 560/560 551/551 423/423
f 297/297 653/653 595/595
f 297/297 595/595 249/249
f 231/231 677/677 595/595
f 231/231 595/595 653/653
f 677/677 231/231 34/34
f 677/677 34/34 435/435
f 50/50 534/534 633/633
f 50/50 633/633 668/668
f 112/112 457/457 668/668
f 112/112 668/668 633/633
f 457/457 112/112 396/396
f 457/457 396/396 584/584
f 172/172 300/300 584/584
f 172/172 584/584 396/396
f 300/300 172/172 471/471
f 300/300 471/471 446/446
f 181/181 538/538 446/446
f 181/181 446/446 471/471
f 538/538 181/181 402/402
f 538/538 402/402 121/121
f 121/121 402/402 167/167
f 121/121 167/167 280/280
f 512/512 640/640 435/435
f 512/512 435/435 34/34
f 280/280 167/167 317/317
f 280/280 317/317 142/142
f 63/63 542/542 512/512
f 63/63 512/512 149/149
f 444/444 47/47 646/646
f 444/444 646/646 60/60
f 463/463 477/477 318/318
f 463/463 318/318 57/57
f 332/332 57/57 318/318
f 332/332 318/318 364/364
f 364/364 616/616 74/74
f 364/364 74/74 332/332
f 616/616 301/301 458/458
f 616/616 458/458 74/74
f 301/301 363/363 529/529
f 301/301 529/529 458/458
f 363/363 78/78 6/6
f 363/363 6/6 529/529
f 78/78 539/539 553/553
f 78/78 553/553 6/6
f 539/539 373/373 202/202
f 539/539 202/202 553/553
f 114/114 202/202 373/373
f 114/114 373/373 124/124
f 124/124 462/462 178/178
f 124/124 178/178 114/114
f 574/574 313/313 520/520
f 574/574 520/520 150/150
f 246/246 524/524 393/393
f 246/246 393/393 197/197
f 524/524 79/79 676/676
f 524/524 676/676 393/393
f 79/79 331/331 54/54
f 79/79 54/54 676/676
f 331/331 94/94 543/543
f 331/331 543/543 54/54
f 94/94 295/295 45/45
f 94/94 45/45 543/543
f 295/295 580/580 691/691
f 295/295 691/691 45/45
f 580/580 428/428 99/99
f 580/580 99/99 691/691
f 428/428 145/145 494/494
f 428/428 494/494 99/99
f 145/145 459/459 689/689
f 145/145 689/689 494/494
f 7/7 689/689 459/459
f 7/7 459/459 49/49
f 10/10 7/7 49/49
f 10/10 49/49 308/308
f 30/30 10/10 308/308
f 30/30 308/308 652/652
f 540/540 598/598 391/391
f 540/540 391/391 35/35
f 404/404 531/531 160/160
f 404/404 160/160 503/503
f 531/531 30/30 652/652
f 531/531 652/652 160/160
f 150/150 215/215 24/24
f 150/150 24/24 574/574
f 176/176 197/197 393/393
f 176/176 393/393 3/3
f 676/676 571/571 3/3
f 676/676 3/3 393/393
f 54/54 376/376 571/571
f 54/54 571/571 676/676
f 543/543 298/298 376/376
f 543/543 376/376 54/54
f 45/45 104/104 298/298
f 45/45 298/298 543/543
f 104/104 45/45 691/691
f 104/104 691/691 304/304
f 304/304 691/691 99/99
f 304/304 99/99 405/405
f 494/494 601/601 405/405
f 494/494 405/405 99/99
f 689/689 407/407 601/601
f 689/689 601/601 494/494
f 407/407 689/689 7/7
f 407/407 7/7 192/192
f 192/192 7/7 10/10
f 192/192 10/10 362/362
f 30/30 430/430 362/362
f 30/30 362/362 10/10
f 477/477 119/119 389/389
f 477/477 389/389 318/318
f 318/318 389/389 455/455
f 318/318 455/455 364/364
f 364/364 455/455 359/359
f 364/364 359/359 616/616
f 616/616 359/359 323/323
f 616/616 323/323 301/301
f 301/301 323/323 327/327
f 301/301 327/327 363/363
f 363/363 327/327 421/421
f 363/363 421/421 78/78
f 78/78 421/421 629/629
f 78/78 629/629 539/539
f 539/539 629/629 223/223
f 539/539 223/223 373/373
f 373/373 223/223 8/8
f 373/373 8/8 124/124
f 462/462 540/540 35/35
f 462/462 35/35 178/178
f 344/344 462/462 124/124
f 344/344 124/124 126/126
f 465/465 540/540 462/462
f 465/465 462/462 344/344
f 598/598 404/404 503/503
f 598/598 503/503 391/391
f 598/598 540/540 465/465
f 598/598 465/465 537/537
f 385/385 404/404 598/598
f 385/385 598/598 537/537
f 531/531 385/385 430/430
f 531/531 430/430 30/30
f 297/297 560/560 424/424
f 297/297 424/424 196/196
f 508/508 560/560 297/297
f 508/508 297/297 249/249
f 142/142 63/63 193/193
f 142/142 193/193 294/294
f 317/317 542/542 63/63
f 317/317 63/63 142/142
f 197/197 176/176 215/215
f 197/197 215/215 150/150
f 520/520 246/246 197/197
f 520/520 197/197 150/150
f 412/412 187/187 119/119
f 412/412 119/119 477/477
f 605/605 412/412 477/477
f 605/605 477/477 463/463
f 38/38 534/534 50/50
f 38/38 50/50 429/429
f 687/687 38/38 429/429
f 687/687 429/429 128/128
f 72/72 687/687 128/128
f 72/72 128/128 199/199
f 335/335 72/72 199/199
f 335/335 199/199 417/417
f 266/266 335/335 417/417
f 266/266 417/417 85/85
f 475/475 266/266 85/85
f 475/475 85/85 579/579
f 626/626 475/475 579/579
f 626/626 579/579 58/58
f 621/621 626/626 58/58
f 621/621 58/58 478/478
f 108/108 621/621 478/478
f 108/108 478/478 213/213
f 174/174 108/108 213/213
f 174/174 213/213 294/294
f 61/61 174/174 294/294
f 61/61 294/294 193/193
f 228/228 61/61 193/193
f 228/228 193/193 349/349
f 287/287 228/228 349/349
f 287/287 349/349 381/381
f 643/643 287/287 381/381
f 643/643 381/381 87/87
f 226/226 643/643 87/87
f 226/226 87/87 347/347
f 64/64 226/226 347/347
f 64/64 347/347 196/196
f 26/26 64/64 196/196
f 26/26 196/196 424/424
f 136/136 26/26 424/424
f 136/136 424/424 517/517
f 66/66 136/136 517/517
f 66/66 517/517 183/183
f 631/631 66/66 183/183
f 631/631 183/183 497/497
f 483/483 631/631 497/497
f 483/483 497/497 587/587
f 654/654 483/483 587/587
f 654/654 587/587 106/106
f 398/398 654/654 106/106
f 398/398 106/106 521/521
f 92/92 398/398 521/521
f 92/92 521/521 240/240
f 378/378 92/92 240/240
f 378/378 240/240 278/278
f 88/88 563/563 412/412
f 88/88 412/412 605/605
f 208/208 88/88 605/605
f 208/208 605/605 463/463
f 242/242 208/208 463/463
f 242/242 463/463 57/57
f 29/29 242/242 57/57
f 29/29 57/57 332/332
f 513/513 29/29 332/332
f 513/513 332/332 74/74
f 611/611 513/513 74/74
f 611/611 74/74 458/458
f 658/658 611/611 458/458
f 658/658 458/458 529/529
f 468/468 658/658 529/529
f 468/468 529/529 6/6
f 692/692 468/468 6/6
f 692/692 6/6 553/553
f 366/366 692/692 553/553
f 366/366 553/553 202/202
f 282/282 366/366 202/202
f 282/282 202/202 114/114
f 351/351 282/282 114/114
f 351/351 114/114 178/178
f 221/221 351/351 178/178
f 221/221 178/178 35/35
f 554/554 221/221 35/35
f 554/554 35/35 391/391
f 636/636 554/554 391/391
f 636/636 391/391 503/503
f 341/341 636/636 503/503
f 341/341 503/503 160/160
f 413/413 341/341 160/160
f 413/413 160/160 652/652
f 447/447 413/413 652/652
f 447/447 652/652 308/308
f 314/314 447/447 308/308
f 314/314 308/308 49/49
f 95/95 314/314 49/49
f 95/95 49/49 459/459
f 442/442 95/95 459/459
f 442/442 459/459 145/145
f 418/418 442/442 145/145
f 418/418 145/145 428/428
f 527/527 418/418 428/428
f 527/527 428/428 580/580
f 614/614 527/527 580/580
f 614/614 580/580 295/295
f 269/269 614/614 295/295
f 269/269 295/295 94/94
f 216/216 269/269 94/94
f 216/216 94/94 331/331
f 257/257 216/216 331/331
f 257/257 331/331 79/79
f 561/561 257/257 79/79
f 561/561 79/79 524/524
f 140/140 561/561 524/524
f 140/140 524/524 246/246
f 98/98 140/140 246/246
f 98/98 246/246 520/520
f 451/451 98/98 520/520
f 451/451 520/520 313/313
f 22/22 451/451 313/313
f 22/22 313/313 574/574
f 523/523 647/647 163/163
f 523/523 163/163 153/153
f 646/646 522/522 234/234
f 646/646 234/234 60/60
f 273/273 236/236 662/662
f 273/273 662/662 340/340
f 236/236 273/273 346/346
f 236/236 346/346 394/394
f 340/340 662/662 135/135
f 340/340 135/135 204/204
f 135/135 125/125 565/565
f 135/135 565/565 204/204
f 394/394 346/346 350/350
f 394/394 350/350 495/495
f 495/495 350/350 11/11
f 495/495 11/11 130/130
f 130/130 11/11 450/450
f 130/130 450/450 19/19
f 504/504 496/496 473/473
f 504/504 473/473 696/696
f 504/504 696/696 505/505
f 504/504 505/505 75/75
f 31/31 212/212 75/75
f 31/31 75/75 505/505
f 212/212 31/31 651/651
f 212/212 651/651 186/186
f 186/186 651/651 207/207
f 186/186 207/207 84/84
f 84/84 207/207 380/380
f 84/84 380/380 148/148
f 148/148 380/380 375/375
f 148/148 375/375 686/686
f 686/686 375/375 107/107
f 686/686 107/107 161/161
f 161/161 107/107 583/583
f 161/161 583/583 695/695
f 382/382 489/489 624/624
f 382/382 624/624 5/5
f 577/577 623/623 493/493
f 577/577 493/493 597/597
f 151/151 395/395 623/623
f 151/151 623/623 577/577
f 296/296 663/663 395/395
f 296/296 395/395 151/151
f 663/663 296/296 5/5
f 663/663 5/5 624/624
f 15/15 81/81 204/204
f 15/15 204/204 565/565
f 81/81 519/519 340/340
f 81/81 340/340 204/204
f 273/273 340/340 519/519
f 273/273 519/519 339/339
f 346/346 273/273 339/339
f 346/346 339/339 582/582
f 582/582 684/684 350/350
f 582/582 350/350 346/346
f 11/11 350/350 684/684
f 11/11 684/684 384/384
f 450/450 11/11 384/384
f 450/450 384/384 369/369
f 597/597 83/83 434/434
f 597/597 434/434 577/577
f 151/151 577/577 434/434
f 151/151 434/434 546/546
f 546/546 12/12 296/296
f 546/546 296/296 151/151
f 496/496 504/504 69/69
f 496/496 69/69 267/267
f 618/618 69/69 504/504
f 618/618 504/504 75/75
f 75/75 212/212 252/252
f 75/75 252/252 618/618
f 674/674 252/252 212/212
f 674/674 212/212 186/186
f 186/186 84/84 326/326
f 186/186 326/326 674/674
f 671/671 326/326 84/84
f 671/671 84/84 148/148
f 148/148 686/686 274/274
f 148/148 274/274 671/671
f 686/686 161/161 660/660
f 686/686 660/660 274/274
f 156/156 296/296 12/12
f 156/156 12/12 319/319
f 161/161 695/695 133/133
f 161/161 133/133 660/660
f 382/382 5/5 156/156
f 382/382 156/156 184/184
f 511/511 289/289 162/162
f 511/511 162/162 117/117
f 220/220 241/241 474/474
f 220/220 474/474 218/218
f 470/470 248/248 474/474
f 470/470 474/474 241/241
f 248/248 470/470 247/247
f 248/248 247/247 374/374
f 374/374 247/247 606/606
f 374/374 606/606 694/694
f 694/694 606/606 656/656
f 694/694 656/656 502/502
f 502/502 656/656 464/464
f 502/502 464/464 253/253
f 253/253 464/464 690/690
f 253/253 690/690 664/664
f 664/664 690/690 365/365
f 664/664 365/365 532/532
f 279/279 550/550 532/532
f 279/279 532/532 365/365
f 550/550 279/279 348/348
f 550/550 348/348 219/219
f 18/18 645/645 642/642
f 18/18 642/642 449/449
f 392/392 48/48 291/291
f 392/392 291/291 648/648
f 648/648 291/291 420/420
f 648/648 420/420 254/254
f 254/254 420/420 573/573
f 254/254 573/573 469/469
f 469/469 573/573 675/675
f 469/469 675/675 530/530
f 530/530 675/675 225/225
f 530/530 225/225 432/432
f 432/432 225/225 198/198
f 432/432 198/198 53/53
f 53/53 198/198 533/533
f 53/53 533/533 592/592
f 592/592 533/533 628/628
f 592/592 628/628 578/578
f 578/578 628/628 203/203
f 578/578 203/203 206/206
f 205/205 492/492 206/206
f 205/205 206/206 203/203
f 625/625 443/443 492/492
f 625/625 492/492 205/205
f 388/388 411/411 443/443
f 388/388 443/443 625/625
f 292/292 237/237 129/129
f 292/292 129/129 370/370
f 169/169 635/635 337/337
f 169/169 337/337 657/657
f 657/657 337/337 411/411
f 657/657 411/411 388/388
f 645/645 18/18 568/568
f 645/645 568/568 16/16
f 670/670 154/154 291/291
f 670/670 291/291 48/48
f 420/420 291/291 154/154
f 420/420 154/154 409/409
f 573/573 420/420 409/409
f 573/573 409/409 238/238
f 675/675 573/573 238/238
f 675/675 238/238 122/122
f 225/225 675/675 122/122
f 225/225 122/122 620/620
f 620/620 400/400 198/198
f 620/620 198/198 225/225
f 400/400 276/276 533/533
f 400/400 533/533 198/198
f 628/628 533/533 276/276
f 628/628 276/276 2/2
f 203/203 628/628 2/2
f 203/203 2/2 263/263
f 263/263 681/681 205/205
f 263/263 205/205 203/203
f 681/681 189/189 625/625
f 681/681 625/625 205/205
f 388/388 625/625 189/189
f 388/388 189/189 485/485
f 218/218 474/474 498/498
f 218/218 498/498 233/233
f 474/474 248/248 312/312
f 474/474 312/312 498/498
f 248/248 374/374 440/440
f 248/248 440/440 312/312
f 374/374 694/694 144/144
f 374/374 144/144 440/440
f 694/694 502/502 147/147
f 694/694 147/147 144/144
f 502/502 253/253 286/286
f 502/502 286/286 147/147
f 253/253 664/664 490/490
f 253/253 490/490 286/286
f 664/664 532/532 356/356
f 664/664 356/356 490/490
f 532/532 550/550 559/559
f 532/532 559/559 356/356
f 219/219 348/348 237/237
f 219/219 237/237 292/292
f 550/550 219/219 180/180
f 550/550 180/180 244/244
f 219/219 292/292 357/357
f 219/219 357/357 180/180
f 370/370 129/129 635/635
f 370/370 635/635 169/169
f 292/292 370/370 575/575
f 292/292 575/575 357/357
f 293/293 575/575 370/370
f 293/293 370/370 169/169
f 657/657 388/388 485/485
f 657/657 485/485 293/293
f 597/597 493/493 19/19
f 597/597 19/19 450/450
f 369/369 83/83 597/597
f 369/369 597/597 450/450
f 695/695 583/583 489/489
f 695/695 489/489 382/382
f 133/133 695/695 382/382
f 133/133 382/382 184/184
f 48/48 645/645 16/16
f 48/48 16/16 670/670
f 642/642 645/645 48/48
f 642/642 48/48 392/392
f 166/166 218/218 233/233
f 166/166 233/233 680/680
f 86/86 220/220 218/218
f 86/86 218/218 166/166
f 171/171 473/473 496/496
f 171/171 496/496 267/267
f 556/556 696/696 473/473
f 556/556 473/473 171/171
f 599/599 505/505 696/696
f 599/599 696/696 556/556
f 426/426 31/31 505/505
f 426/426 505/505 599/599
f 100/100 651/651 31/31
f 100/100 31/31 426/426
f 334/334 207/207 651/651
f 334/334 651/651 100/100
f 487/487 380/380 207/207
f 487/487 207/207 334/334
f 481/481 375/375 380/380
f 481/481 380/380 487/487
f 210/210 107/107 375/375
f 210/210 375/375 481/481
f 666/666 583/583 107/107
f 666/666 107/107 210/210
f 589/589 489/489 583/583
f 589/589 583/583 666/666
f 42/42 624/624 489/489
f 42/42 489/489 589/589
f 116/116 663/663 624/624
f 116/116 624/624 42/42
f 516/516 395/395 663/663
f 516/516 663/663 116/116
f 37/37 623/623 395/395
f 37/37 395/395 516/516
f 591/591 493/493 623/623
f 591/591 623/623 37/37
f 164/164 19/19 493/493
f 164/164 493/493 591/591
f 256/256 130/130 19/19
f 256/256 19/19 164/164
f 594/594 495/495 130/130
f 594/594 130/130 256/256
f 507/507 394/394 495/495
f 507/507 495/495 594/594
f 354/354 236/236 394/394
f 354/354 394/394 507/507
f 103/103 662/662 236/236
f 103/103 236/236 354/354
f 260/260 135/135 662/662
f 260/260 662/662 103/103
f 437/437 125/125 135/135
f 437/437 135/135 260/260
f 15/15 565/565 125/125
f 15/15 125/125 437/437
f 604/604 86/86 166/166
f 604/604 166/166 416/416
f 33/33 220/220 86/86
f 33/33 86/86 604/604
f 56/56 241/241 220/220
f 56/56 220/220 33/33
f 330/330 470/470 241/241
f 330/330 241/241 56/56
f 71/71 247/247 470/470
f 71/71 470/470 330/330
f 454/454 606/606 247/247
f 454/454 247/247 71/71
f 526/526 656/656 606/606
f 526/526 606/606 454/454
f 322/322 464/464 656/656
f 322/322 656/656 526/526
f 548/548 690/690 464/464
f 548/548 464/464 322/322
f 201/201 365/365 690/690
f 201/201 690/690 548/548
f 111/111 279/279 365/365
f 111/111 365/365 201/201
f 586/586 348/348 279/279
f 586/586 279/279 111/111
f 52/52 237/237 348/348
f 52/52 348/348 586/586
f 387/387 129/129 237/237
f 387/387 237/237 52/52
f 501/501 635/635 129/129
f 501/501 129/129 387/387
f 159/159 337/337 635/635
f 159/159 635/635 501/501
f 271/271 411/411 337/337
f 271/271 337/337 159/159
f 307/307 443/443 411/411
f 307/307 411/411 271/271
f 131/131 492/492 443/443
f 131/131 443/443 307/307
f 608/608 206/206 492/492
f 608/608 492/492 131/131
f 302/302 578/578 206/206
f 302/302 206/206 608/608
f 284/284 592/592 578/578
f 284/284 578/578 302/302
f 372/372 53/53 592/592
f 372/372 592/592 284/284
f 461/461 432/432 53/53
f 461/461 53/53 372/372
f 90/90 530/530 432/432
f 90/90 432/432 461/461
f 20/20 469/469 530/530
f 20/20 530/530 90/90
f 76/76 254/254 469/469
f 76/76 469/469 20/20
f 138/138 648/648 254/254
f 138/138 254/254 76/76
f 638/638 392/392 648/648
f 638/638 648/648 138/138
f 609/609 642/642 392/392
f 609/609 392/392 638/638
f 309/309 449/449 642/642
f 309/309 642/642 609/609
f 567/567 18/18 449/449
f 567/567 449/449 309/309
f 162/162 289/289 544/544
f 162/162 544/544 152/152
f 261/261 80/80 14/14
f 261/261 14/14 379/379
f 650/650 518/518 80/80
f 650/650 80/80 261/261
f 479/479 338/338 518/518
f 479/479 518/518 650/650
f 44/44 581/581 338/338
f 44/44 338/338 479/479
f 195/195 683/683 581/581
f 195/195 581/581 44/44
f 552/552 383/383 683/683
f 552/552 683/683 195/195
f 509/509 368/368 383/383
f 509/509 383/383 552/552
f 250/250 82/82 368/368
f 250/250 368/368 509/509
f 678/678 547/547 433/433
f 678/678 433/433 596/596
f 436/436 13/13 547/547
f 436/436 547/547 678/678
f 535/535 268/268 68/68
f 535/535 68/68 634/634
f 634/634 68/68 617/617
f 634/634 617/617 113/113
f 113/113 617/617 251/251
f 113/113 251/251 397/397
f 397/397 251/251 673/673
f 397/397 673/673 173/173
f 173/173 673/673 325/325
f 173/173 325/325 472/472
f 472/472 325/325 672/672
f 472/472 672/672 182/182
f 182/182 672/672 275/275
f 182/182 275/275 403/403
f 403/403 275/275 661/661
f 403/403 661/661 168/168
f 641/641 320/320 13/13
f 641/641 13/13 436/436
f 316/316 134/134 185/185
f 316/316 185/185 541/541
f 523/523 153/153 320/320
f 523/523 320/320 641/641
f 541/541 185/185 545/545
f 541/541 545/545 235/235
f 46/46 118/118 163/163
f 46/46 163/163 647/647
f 243/243 55/55 32/32
f 243/243 32/32 209/209
f 89/89 603/603 415/415
f 89/89 415/415 564/564
f 28/28 329/329 55/55
f 28/28 55/55 243/243
f 514/514 70/70 329/329
f 514/514 329/329 28/28
f 612/612 453/453 70/70
f 612/612 70/70 514/514
f 659/659 525/525 453/453
f 659/659 453/453 612/612
f 467/467 321/321 525/525
f 467/467 525/525 659/659
f 693/693 549/549 321/321
f 693/693 321/321 467/467
f 367/367 200/200 549/549
f 367/367 549/549 693/693
f 281/281 110/110 200/200
f 281/281 200/200 367/367
f 352/352 585/585 110/110
f 352/352 110/110 281/281
f 452/452 310/310 610/610
f 452/452 610/610 97/97
f 23/23 566/566 310/310
f 23/23 310/310 452/452
f 141/141 639/639 139/139
f 141/141 139/139 562/562
f 562/562 139/139 77/77
f 562/562 77/77 258/258
f 258/258 77/77 21/21
f 258/258 21/21 217/217
f 217/217 21/21 91/91
f 217/217 91/91 270/270
f 270/270 91/91 460/460
f 270/270 460/460 615/615
f 615/615 460/460 371/371
f 615/615 371/371 528/528
f 528/528 371/371 283/283
f 528/528 283/283 419/419
f 419/419 283/283 303/303
f 419/419 303/303 441/441
f 441/441 303/303 607/607
f 441/441 607/607 96/96
f 96/96 607/607 132/132
f 96/96 132/132 315/315
f 315/315 132/132 306/306
f 315/315 306/306 448/448
f 448/448 306/306 272/272
f 448/448 272/272 414/414
f 555/555 386/386 51/51
f 555/555 51/51 222/222
f 343/343 157/157 500/500
f 343/343 500/500 637/637
f 414/414 272/272 158/158
f 414/414 158/158 342/342
f 25/25 569/569 566/566
f 25/25 566/566 23/23
f 214/214 17/17 569/569
f 214/214 569/569 25/25
f 4/4 155/155 669/669
f 4/4 669/669 177/177
f 572/572 410/410 155/155
f 572/572 155/155 4/4
f 377/377 239/239 410/410
f 377/377 410/410 572/572
f 299/299 123/123 239/239
f 299/299 239/239 377/377
f 105/105 619/619 123/123
f 105/105 123/123 299/299
f 305/305 401/401 619/619
f 305/305 619/619 105/105
f 406/406 277/277 401/401
f 406/406 401/401 305/305
f 602/602 1/1 277/277
f 602/602 277/277 406/406
f 408/408 264/264 1/1
f 408/408 1/1 602/602
f 191/191 682/682 264/264
f 191/191 264/264 408/408
f 361/361 190/190 682/682
f 361/361 682/682 191/191
f 431/431 486/486 190/190
f 431/431 190/190 361/361
f 120/120 232/232 499/499
f 120/120 499/499 390/390
f 564/564 415/415 679/679
f 564/564 679/679 188/188
f 390/390 499/499 311/311
f 390/390 311/311 456/456
f 456/456 311/311 439/439
f 456/456 439/439 360/360
f 360/360 439/439 143/143
f 360/360 143/143 324/324
f 324/324 143/143 146/146
f 324/324 146/146 328/328
f 328/328 146/146 285/285
f 328/328 285/285 422/422
f 422/422 285/285 491/491
f 422/422 491/491 630/630
f 630/630 491/491 355/355
f 630/630 355/355 224/224
f 224/224 355/355 558/558
f 224/224 558/558 9/9
f 127/127 9/9 558/558
f 127/127 558/558 245/245
f 222/222 51/51 585/585
f 222/222 585/585 352/352
f 345/345 127/127 245/245
f 345/345 245/245 179/179
f 466/466 345/345 179/179
f 466/466 179/179 358/358
f 46/46 536/536 576/576
f 46/46 576/576 118/118
f 637/637 500/500 386/386
f 637/637 386/386 555/555
f 576/576 536/536 466/466
f 576/576 466/466 358/358
f 445/445 510/510 486/486
f 445/445 486/486 431/431
f 596/596 433/433 82/82
f 596/596 82/82 250/250
f 168/168 661/661 134/134
f 168/168 134/134 316/316
f 177/177 669/669 17/17
f 177/177 17/17 214/214
f 188/188 679/679 232/232
f 188/188 232/232 120/120
f 209/209 32/32 603/603
f 209/209 603/603 89/89
f 39/39 170/170 268/268
f 39/39 268/268 535/535
f 688/688 557/557 170/170
f 688/688 170/170 39/39
f 73/73 600/600 557/557
f 73/73 557/557 688/688
f 336/336 425/425 600/600
f 336/336 600/600 73/73
f 265/265 101/101 425/425
f 265/265 425/425 336/336
f 476/476 333/333 101/101
f 476/476 101/101 265/265
f 627/627 488/488 333/333
f 627/627 333/333 476/476
f 622/622 482/482 488/488
f 622/622 488/488 627/627
f 109/109 211/211 482/482
f 109/109 482/482 622/622
f 175/175 667/667 211/211
f 175/175 211/211 109/109
f 62/62 588/588 667/667
f 62/62 667/667 175/175
f 229/229 41/41 588/588
f 229/229 588/588 62/62
f 288/288 115/115 40/40
f 288/288 40/40 230/230
f 644/644 515/515 115/115
f 644/644 115/115 288/288
f 227/227 36/36 515/515
f 227/227 515/515 644/644
f 65/65 590/590 36/36
f 65/65 36/36 227/227
f 27/27 165/165 590/590
f 27/27 590/590 65/65
f 137/137 255/255 165/165
f 137/137 165/165 27/27
f 67/67 593/593 255/255
f 67/67 255/255 137/137
f 632/632 506/506 593/593
f 632/632 593/593 67/67
f 484/484 353/353 506/506
f 484/484 506/506 632/632
f 655/655 102/102 353/353
f 655/655 353/353 484/484
f 399/399 259/259 102/102
f 399/399 102/102 655/655
f 93/93 438/438 259/259
f 93/93 259/259 399/399
f 379/379 14/14 438/438
f 379/379 438/438 93/93
f 97/97 610/610 639/639
f 97/97 639/639 141/141
f 235/235 545/545 290/290
f 235/235 290/290 59/59
f 512/512 522/522 640/640
f 522/522 512/512 234/234
f 234/234 512/512 542/542
f 47/47 385/385 537/537
f 385/385 47/47 444/444
f 385/385 444/444 430/430
f 152/152 156/156 319/319
f 156/156 152/152 544/544
f 156/156 544/544 184/184
f 293/293 117/117 575/575
f 117/117 293/293 511/511
f 511/511 293/293 485/485