o convex_0
v -0.011571 -0.026295 -0.000219
v 0.007272 0.025857 0.020379
v -0.011131 0.025857 0.020379
v -0.011131 -0.026295 0.020379
v 0.008588 -0.026295 -0.000219
v -0.011571 0.025857 -0.000219
v 0.008588 -0.026295 0.019939
v 0.007710 0.025857 0.000220
v -0.011571 0.025857 0.019939
v 0.008588 -0.008326 0.019939
v 0.008588 -0.008765 -0.000219
v -0.011571 -0.026295 0.019939
v 0.008148 -0.026295 0.020379
v 0.007710 0.025857 0.019939
v 0.007272 0.025857 -0.000219
f 11 6 15 
f 2 3 4 
f 4 1 5 
f 3 2 6 
f 5 1 6 
f 4 5 7 
f 6 2 8 
f 4 3 9 
f 6 1 9 
f 3 6 9 
f 7 5 10 
f 8 10 11 
f 5 6 11 
f 10 5 11 
f 1 4 12 
f 4 9 12 
f 9 1 12 
f 2 4 13 
f 4 7 13 
f 10 2 13 
f 7 10 13 
f 8 2 14 
f 2 10 14 
f 10 8 14 
f 6 8 15 
f 8 11 15 
o convex_1
v 0.011218 -0.073628 0.020379
v 0.010780 -0.078886 0.000220
v 0.010780 -0.078447 -0.000219
v 0.011656 -0.078009 -0.000219
v 0.010780 -0.073190 -0.000219
v 0.010780 -0.078886 0.019939
v 0.011656 -0.078447 0.019939
v 0.011656 -0.073628 -0.000219
v 0.010780 -0.073190 0.019939
v 0.011656 -0.073628 0.019939
f 24 16 25 
f 17 18 19 
f 18 17 20 
f 19 18 20 
f 20 17 21 
f 17 19 22 
f 21 17 22 
f 16 21 22 
f 19 20 23 
f 22 19 23 
f 21 16 24 
f 20 21 24 
f 23 20 24 
f 23 24 25 
f 16 22 25 
f 22 23 25 
o convex_2
v -0.001930 0.064860 0.019939
v -0.024718 0.059599 0.000220
v -0.024718 0.059599 0.019939
v -0.001930 0.025857 -0.000219
v -0.011133 0.025857 0.020379
v -0.009380 0.071436 -0.000219
v -0.023402 0.071436 0.020379
v -0.001930 0.025857 0.020379
v -0.011573 0.025857 -0.000219
v -0.001930 0.064422 -0.000219
v -0.024279 0.070557 -0.000219
v -0.009820 0.071436 0.020379
v -0.021651 0.050400 0.019939
v -0.024718 0.070557 0.019939
v -0.021651 0.050400 0.000220
v -0.023841 0.071436 0.000220
v -0.011573 0.025857 0.019939
v -0.001930 0.064422 0.020379
v -0.024718 0.070557 0.000220
v -0.024279 0.059599 0.020379
v -0.022525 0.053469 -0.000219
v -0.001930 0.064860 0.000220
v -0.009380 0.071436 0.019939
v -0.023841 0.056534 0.019939
v -0.023841 0.056534 0.000220
f 40 49 50 
f 29 26 33 
f 30 29 33 
f 32 30 33 
f 29 30 34 
f 31 29 34 
f 26 29 35 
f 29 31 35 
f 31 34 36 
f 31 32 37 
f 32 33 37 
f 27 28 39 
f 34 38 40 
f 32 31 41 
f 31 36 41 
f 39 32 41 
f 34 30 42 
f 30 38 42 
f 38 34 42 
f 33 26 43 
f 26 37 43 
f 37 33 43 
f 36 27 44 
f 27 39 44 
f 41 36 44 
f 39 41 44 
f 30 32 45 
f 38 30 45 
f 39 28 45 
f 32 39 45 
f 27 36 46 
f 36 34 46 
f 34 40 46 
f 31 26 47 
f 26 35 47 
f 35 31 47 
f 26 31 48 
f 37 26 48 
f 31 37 48 
f 28 27 49 
f 40 38 49 
f 45 28 49 
f 38 45 49 
f 27 46 50 
f 46 40 50 
f 49 27 50 
o convex_3
v -0.003247 0.090279 0.020379
v -0.023403 0.071436 -0.000219
v -0.023843 0.071436 0.000220
v -0.009820 0.071436 0.020379
v -0.002368 0.089841 -0.000219
v -0.020774 0.079326 0.019939
v -0.009383 0.071436 -0.000219
v -0.013324 0.086774 0.000220
v -0.023403 0.071436 0.020379
v -0.013324 0.086774 0.019939
v -0.022525 0.076696 0.000220
v -0.003247 0.086774 0.019939
v -0.007190 0.089841 0.000220
v -0.023843 0.073189 0.019939
v -0.007190 0.089841 0.019939
v -0.009383 0.071436 0.019939
v -0.002368 0.090719 0.019939
v -0.020774 0.079326 0.000220
v -0.003247 0.086774 0.000220
v -0.003247 0.090719 0.000220
v -0.013324 0.086336 -0.000219
v -0.013324 0.086336 0.020379
v -0.022525 0.076696 0.019939
v -0.023843 0.073189 0.000220
v -0.002368 0.089403 0.019939
v -0.022525 0.076259 -0.000219
v -0.022087 0.076696 0.020379
v -0.003247 0.090719 0.019939
v -0.002368 0.090719 0.000220
v -0.023843 0.071436 0.019939
f 59 64 80 
f 53 52 54 
f 54 52 57 
f 52 55 57 
f 53 54 59 
f 54 51 59 
f 58 56 60 
f 51 54 62 
f 58 60 63 
f 63 60 65 
f 54 57 66 
f 62 54 66 
f 57 62 66 
f 56 58 68 
f 61 56 68 
f 57 55 69 
f 62 57 69 
f 55 63 70 
f 63 65 70 
f 55 52 71 
f 63 55 71 
f 58 63 71 
f 68 58 71 
f 59 51 72 
f 60 56 72 
f 51 65 72 
f 65 60 72 
f 56 61 73 
f 61 64 73 
f 52 53 74 
f 53 64 74 
f 64 61 74 
f 51 62 75 
f 67 51 75 
f 55 67 75 
f 69 55 75 
f 62 69 75 
f 61 68 76 
f 71 52 76 
f 68 71 76 
f 52 74 76 
f 74 61 76 
f 64 59 77 
f 59 72 77 
f 72 56 77 
f 56 73 77 
f 73 64 77 
f 65 51 78 
f 51 67 78 
f 70 65 78 
f 67 70 78 
f 67 55 79 
f 55 70 79 
f 70 67 79 
f 53 59 80 
f 64 53 80 
o convex_4
v 0.004644 0.065293 -0.000219
v 0.004205 0.065297 0.020379
v 0.001575 0.065297 0.020379
v 0.004644 0.025857 0.020379
v -0.001930 0.025857 -0.000219
v -0.001930 0.064423 0.020379
v 0.004644 0.025857 -0.000219
v -0.001930 0.064423 -0.000219
v -0.001930 0.025857 0.020379
v 0.004644 0.065735 0.019939
v 0.001575 0.065738 0.000220
v -0.001930 0.064856 0.019939
v 0.001575 0.065738 0.019939
v -0.001930 0.064856 0.000220
v 0.004644 0.065735 0.000220
f 91 90 95 
f 82 83 84 
f 84 83 86 
f 81 84 87 
f 85 81 87 
f 84 85 87 
f 81 85 88 
f 85 86 88 
f 85 84 89 
f 84 86 89 
f 86 85 89 
f 82 84 90 
f 84 81 90 
f 81 88 91 
f 88 86 92 
f 83 82 93 
f 86 83 93 
f 82 90 93 
f 90 91 93 
f 91 92 93 
f 92 86 93 
f 91 88 94 
f 92 91 94 
f 88 92 94 
f 90 81 95 
f 81 91 95 
o convex_5
v 0.010341 -0.083703 -0.000219
v 0.010341 -0.047777 0.020379
v 0.010341 -0.047335 0.019939
v 0.009903 -0.083703 -0.000219
v 0.009903 -0.047335 -0.000219
v 0.009903 -0.083262 0.020379
v 0.010780 -0.083262 0.000220
v 0.010780 -0.047777 0.000220
v 0.010780 -0.083262 0.019939
v 0.009903 -0.047777 0.020379
v 0.010780 -0.047777 0.019939
v 0.010780 -0.078883 0.020379
v 0.010780 -0.072745 -0.000219
f 103 102 108 
f 96 99 100 
f 99 96 101 
f 100 99 101 
f 100 98 103 
f 102 103 104 
f 101 96 104 
f 96 102 104 
f 97 98 105 
f 98 100 105 
f 101 97 105 
f 100 101 105 
f 98 97 106 
f 103 98 106 
f 104 103 106 
f 104 106 107 
f 97 101 107 
f 101 104 107 
f 106 97 107 
f 96 100 108 
f 102 96 108 
f 100 103 108 
o convex_6
v 0.008588 0.026304 0.000220
v 0.013407 0.083265 0.020379
v 0.013407 0.083707 0.019939
v 0.019545 0.045580 -0.000219
v 0.012532 0.083265 -0.000219
v 0.004644 0.025857 0.020379
v 0.019545 0.045580 0.019939
v 0.004644 0.065734 -0.000219
v 0.004644 0.065298 0.020379
v 0.019545 0.069681 0.000220
v 0.004644 0.025857 -0.000219
v 0.019545 0.069681 0.019939
v 0.008588 0.026304 0.019939
v 0.016915 0.079324 0.000220
v 0.011220 0.081510 0.019939
v 0.016476 0.079318 0.020379
v 0.019106 0.045580 0.020379
v 0.011220 0.081510 0.000220
v 0.005084 0.067047 0.019939
v 0.016915 0.079324 0.019939
v 0.014723 0.082388 0.000220
v 0.019545 0.069239 -0.000219
v 0.007713 0.025857 -0.000219
v 0.018668 0.073622 0.019939
v 0.008151 0.074500 0.000220
v 0.007713 0.025857 0.020379
v 0.012095 0.083265 0.019939
v 0.012532 0.083707 0.000220
v 0.018668 0.073622 0.000220
v 0.019106 0.069681 0.020379
v 0.008151 0.074500 0.019939
v 0.013407 0.083707 0.000220
v 0.014723 0.082388 0.019939
v 0.005084 0.067047 0.000220
v 0.016476 0.079318 -0.000219
f 113 140 143 
f 109 112 115 
f 113 112 116 
f 116 114 117 
f 114 110 117 
f 115 112 118 
f 116 112 119 
f 114 116 119 
f 115 118 120 
f 109 115 121 
f 117 110 123 
f 110 114 124 
f 115 120 125 
f 121 115 125 
f 124 114 125 
f 113 116 126 
f 116 117 127 
f 128 122 129 
f 112 113 130 
f 118 112 130 
f 112 109 131 
f 119 112 131 
f 114 119 131 
f 109 121 131 
f 120 118 132 
f 122 128 132 
f 128 124 132 
f 126 116 133 
f 123 126 133 
f 125 114 134 
f 121 125 134 
f 114 131 134 
f 131 121 134 
f 110 111 135 
f 123 110 135 
f 126 123 135 
f 126 135 136 
f 113 126 136 
f 135 111 136 
f 118 130 137 
f 132 118 137 
f 122 132 137 
f 125 120 138 
f 124 125 138 
f 120 132 138 
f 132 124 138 
f 117 123 139 
f 127 117 139 
f 123 133 139 
f 133 127 139 
f 111 129 140 
f 113 136 140 
f 136 111 140 
f 111 110 141 
f 110 124 141 
f 124 128 141 
f 129 111 141 
f 128 129 141 
f 116 127 142 
f 133 116 142 
f 127 133 142 
f 129 122 143 
f 130 113 143 
f 137 130 143 
f 122 137 143 
f 140 129 143 
o convex_7
v 0.021298 0.054782 0.019939
v 0.019545 0.047770 0.000220
v 0.019545 0.048208 -0.000219
v 0.023927 0.050838 0.000220
v 0.019545 0.055220 0.000220
v 0.019545 0.047770 0.019939
v 0.023927 0.050838 0.019939
v 0.023489 0.053466 -0.000219
v 0.019545 0.054782 0.020379
v 0.023927 0.053028 0.019939
v 0.019984 0.047770 0.000220
v 0.019984 0.047770 0.019939
v 0.023050 0.053905 0.000220
v 0.023489 0.050401 -0.000219
v 0.023927 0.053028 0.000220
v 0.023489 0.050838 0.020379
v 0.023050 0.053905 0.019939
v 0.021298 0.054782 0.000220
v 0.019984 0.055220 0.019939
f 161 148 162 
f 146 145 148 
f 148 145 149 
f 146 148 151 
f 148 149 152 
f 150 147 153 
f 145 146 154 
f 149 145 154 
f 149 154 155 
f 147 150 157 
f 146 151 157 
f 151 147 157 
f 154 146 157 
f 150 155 157 
f 155 154 157 
f 147 151 158 
f 153 147 158 
f 151 156 158 
f 156 153 158 
f 152 149 159 
f 150 153 159 
f 155 150 159 
f 149 155 159 
f 144 152 160 
f 156 144 160 
f 153 156 160 
f 152 159 160 
f 159 153 160 
f 151 148 161 
f 144 156 161 
f 156 151 161 
f 152 144 162 
f 148 152 162 
f 144 161 162 
o convex_8
v -0.010694 -0.085451 0.000220
v -0.001931 -0.026295 0.020379
v -0.001931 -0.026295 -0.000219
v -0.011570 -0.026302 0.019939
v -0.001931 -0.089395 0.020379
v -0.012886 -0.081072 0.019939
v -0.012886 -0.035943 0.000220
v -0.001931 -0.089395 -0.000219
v -0.011570 -0.026302 -0.000219
v -0.012886 -0.081072 0.000220
v -0.012448 -0.035943 0.020379
v -0.007626 -0.088524 0.019939
v -0.012886 -0.035943 0.019939
v -0.005437 -0.089843 0.000220
v -0.012448 -0.081507 -0.000219
v -0.010257 -0.085451 0.020379
v -0.005437 -0.089843 0.019939
v -0.010694 -0.085451 0.019939
v -0.001931 -0.089843 0.000220
v -0.007626 -0.088524 0.000220
v -0.012448 -0.081072 0.020379
v -0.011133 -0.026302 0.020379
v -0.001931 -0.089843 0.019939
v -0.007189 -0.088524 -0.000219
v -0.012448 -0.035508 -0.000219
f 171 177 187 
f 164 165 166 
f 165 164 167 
f 165 167 170 
f 166 165 171 
f 169 166 171 
f 165 170 171 
f 163 168 172 
f 168 169 172 
f 167 164 173 
f 169 168 175 
f 166 169 175 
f 168 173 175 
f 171 170 177 
f 163 172 177 
f 172 169 177 
f 167 173 178 
f 178 174 179 
f 174 176 179 
f 167 178 179 
f 168 163 180 
f 163 174 180 
f 178 168 180 
f 174 178 180 
f 170 167 181 
f 176 170 181 
f 179 176 181 
f 174 163 182 
f 176 174 182 
f 173 168 183 
f 168 178 183 
f 178 173 183 
f 164 166 184 
f 173 164 184 
f 166 175 184 
f 175 173 184 
f 167 179 185 
f 181 167 185 
f 179 181 185 
f 170 176 186 
f 177 170 186 
f 163 177 186 
f 182 163 186 
f 176 182 186 
f 169 171 187 
f 177 169 187 
o convex_9
v 0.000701 -0.090279 -0.000219
v 0.009903 -0.080641 0.020379
v 0.006835 -0.080641 0.020379
v -0.001491 -0.090719 0.019939
v -0.001929 -0.085461 -0.000219
v 0.009903 -0.084147 -0.000219
v 0.008587 -0.086774 0.019939
v 0.006397 -0.080641 -0.000219
v -0.001929 -0.085461 0.019939
v 0.004206 -0.089841 0.000220
v -0.001929 -0.090279 0.000220
v 0.004206 -0.089841 0.019939
v 0.009903 -0.080641 -0.000219
v 0.008587 -0.086774 0.000220
v 0.009903 -0.083708 0.020379
v -0.001929 -0.089841 0.020379
v 0.000262 -0.090719 0.000220
v 0.006397 -0.080641 0.019939
v 0.000262 -0.090719 0.019939
v 0.004206 -0.089403 0.020379
v -0.001491 -0.090719 0.000220
v -0.001929 -0.085898 0.020379
f 196 203 209 
f 188 192 193 
f 190 189 195 
f 193 192 195 
f 195 192 196 
f 188 193 197 
f 192 188 198 
f 196 192 198 
f 197 194 199 
f 189 193 200 
f 195 189 200 
f 193 195 200 
f 193 194 201 
f 197 193 201 
f 194 197 201 
f 189 190 202 
f 193 189 202 
f 194 193 202 
f 198 191 203 
f 196 198 203 
f 202 190 203 
f 188 197 204 
f 197 199 204 
f 190 195 205 
f 196 190 205 
f 195 196 205 
f 203 191 206 
f 191 204 206 
f 204 199 206 
f 199 194 207 
f 194 202 207 
f 202 203 207 
f 206 199 207 
f 203 206 207 
f 198 188 208 
f 191 198 208 
f 188 204 208 
f 204 191 208 
f 190 196 209 
f 203 190 209 
o convex_10
v 0.006397 -0.080639 -0.000219
v 0.008150 -0.026295 0.020379
v 0.008587 -0.026295 0.019939
v -0.001930 -0.026301 -0.000219
v -0.001930 -0.070117 0.020379
v 0.009903 -0.080639 0.020379
v 0.009903 -0.027615 0.000220
v -0.001930 -0.026301 0.020379
v -0.001930 -0.070553 -0.000219
v 0.009903 -0.080639 -0.000219
v 0.009903 -0.027615 0.019939
v 0.006397 -0.080639 0.019939
v 0.008587 -0.026295 -0.000219
v -0.001930 -0.070553 0.019939
v 0.009464 -0.027615 0.020379
v 0.009464 -0.027615 -0.000219
v 0.006835 -0.080639 0.020379
f 221 215 226 
f 211 214 215 
f 211 213 217 
f 213 214 217 
f 214 211 217 
f 213 210 218 
f 214 213 218 
f 210 213 219 
f 215 210 219 
f 216 215 219 
f 212 211 220 
f 216 212 220 
f 215 216 220 
f 210 215 221 
f 218 210 221 
f 211 212 222 
f 213 211 222 
f 212 216 222 
f 219 213 222 
f 214 218 223 
f 221 214 223 
f 218 221 223 
f 211 215 224 
f 220 211 224 
f 215 220 224 
f 216 219 225 
f 222 216 225 
f 219 222 225 
f 215 214 226 
f 214 221 226 
