o convex_0
v 0.007872 -0.079108 0.000208
v -0.012838 -0.083238 0.000208
v -0.012422 -0.083238 -0.000207
v -0.006209 0.035608 -0.000207
v -0.006625 0.035608 0.020088
v -0.001655 -0.090707 0.020088
v 0.008700 0.035620 0.020088
v 0.008285 0.035620 -0.000207
v -0.012838 -0.083238 0.019671
v 0.007872 -0.079108 0.019671
v -0.010765 -0.022783 0.000208
v 0.001243 -0.089458 -0.000207
v -0.012838 -0.061710 0.019671
v -0.007866 0.029400 0.019671
v 0.008700 -0.017404 0.000208
v -0.009523 -0.088630 0.000208
v 0.006628 -0.084475 0.020088
v -0.007866 0.029400 0.000208
v -0.011594 -0.086144 0.020088
v 0.008700 -0.017404 0.020088
v -0.012838 -0.061710 0.000208
v 0.004558 -0.087381 -0.000207
v 0.008700 0.035620 0.000208
v -0.004552 -0.090707 0.000208
v -0.007038 -0.089866 0.019671
v 0.004144 -0.087801 0.019671
v -0.011594 -0.038524 0.020088
v 0.006215 -0.084475 -0.000207
v -0.011594 -0.038932 -0.000207
v 0.001243 -0.089866 0.000208
v -0.011594 -0.086552 0.000208
v -0.009523 -0.088630 0.019671
v 0.007456 -0.079516 -0.000207
v 0.001243 -0.089866 0.019671
v 0.006628 -0.084475 0.000208
v -0.010765 -0.022783 0.019671
v -0.006625 0.035608 0.000208
v -0.001655 -0.090707 0.000208
v -0.004552 -0.090707 0.019671
v -0.007451 -0.089458 -0.000207
v -0.011594 -0.086552 0.019671
v -0.007451 0.029400 -0.000207
v -0.012422 -0.061289 0.020088
v -0.007038 -0.089866 0.000208
v 0.007456 -0.079516 0.020088
v 0.008285 -0.017404 -0.000207
v -0.008695 0.011173 0.020088
v 0.004558 -0.087381 0.020088
f 34 26 48 
f 5 6 7 
f 3 4 8 
f 5 7 8 
f 3 8 12 
f 2 9 13 
f 10 1 15 
f 7 6 17 
f 1 10 17 
f 11 14 18 
f 14 5 18 
f 6 5 19 
f 15 7 20 
f 10 15 20 
f 7 17 20 
f 3 2 21 
f 2 13 21 
f 13 11 21 
f 12 8 22 
f 8 7 23 
f 15 8 23 
f 7 15 23 
f 6 19 25 
f 19 5 27 
f 22 8 28 
f 4 3 29 
f 11 18 29 
f 3 21 29 
f 21 11 29 
f 12 22 30 
f 22 26 30 
f 2 3 31 
f 9 2 31 
f 16 25 32 
f 25 19 32 
f 31 16 32 
f 15 1 33 
f 28 8 33 
f 6 30 34 
f 30 26 34 
f 1 17 35 
f 17 22 35 
f 22 28 35 
f 33 1 35 
f 28 33 35 
f 11 13 36 
f 14 11 36 
f 13 27 36 
f 27 14 36 
f 8 4 37 
f 5 8 37 
f 4 18 37 
f 18 5 37 
f 6 24 38 
f 24 12 38 
f 12 30 38 
f 30 6 38 
f 24 6 39 
f 25 24 39 
f 6 25 39 
f 3 12 40 
f 12 24 40 
f 31 3 40 
f 16 31 40 
f 19 9 41 
f 9 31 41 
f 32 19 41 
f 31 32 41 
f 18 4 42 
f 4 29 42 
f 29 18 42 
f 13 9 43 
f 9 19 43 
f 27 13 43 
f 19 27 43 
f 25 16 44 
f 24 25 44 
f 40 24 44 
f 16 40 44 
f 17 10 45 
f 10 20 45 
f 20 17 45 
f 8 15 46 
f 15 33 46 
f 33 8 46 
f 5 14 47 
f 14 27 47 
f 27 5 47 
f 17 6 48 
f 22 17 48 
f 26 22 48 
f 6 34 48 
o convex_1
v -0.011595 0.045564 -0.000207
v -0.012839 0.081595 0.020088
v -0.012424 0.081595 0.019671
v -0.008282 0.041836 0.020088
v -0.020706 0.056748 0.020088
v -0.011595 0.080348 -0.000207
v -0.018635 0.074548 0.000208
v -0.008282 0.072479 0.000208
v -0.020706 0.056748 0.000208
v -0.008282 0.072479 0.019671
v -0.008282 0.041419 0.000208
v -0.017807 0.077450 0.019671
v -0.015322 0.080761 0.000208
v -0.008697 0.041419 0.019671
v -0.011181 0.080348 0.019671
v -0.018635 0.074135 0.020088
v -0.017393 0.077450 -0.000207
v -0.008697 0.041419 0.000208
v -0.015737 0.080348 0.020088
v -0.012424 0.081595 0.000208
v -0.009111 0.075381 0.000208
v -0.020291 0.056331 -0.000207
v -0.008282 0.071236 -0.000207
v -0.020706 0.057574 0.019671
v -0.008282 0.072062 0.020088
v -0.017807 0.077450 0.000208
v -0.011181 0.080348 0.000208
v -0.008282 0.042665 -0.000207
v -0.009111 0.075381 0.019671
v -0.016564 0.079522 0.000208
v -0.013667 0.081595 0.019671
v -0.020706 0.057574 0.000208
v -0.018635 0.074548 0.019671
v -0.013252 0.081595 -0.000207
v -0.016564 0.079522 0.020088
f 67 78 83 
f 52 50 53 
f 52 56 58 
f 56 52 59 
f 52 53 62 
f 53 57 62 
f 59 52 62 
f 51 50 63 
f 53 50 64 
f 54 49 65 
f 62 57 66 
f 59 62 66 
f 64 50 67 
f 50 51 68 
f 51 63 68 
f 58 56 69 
f 65 49 70 
f 55 65 70 
f 49 66 70 
f 66 57 70 
f 49 54 71 
f 56 59 71 
f 54 69 71 
f 69 56 71 
f 57 53 72 
f 53 64 72 
f 50 52 73 
f 52 58 73 
f 63 50 73 
f 55 60 74 
f 65 55 74 
f 54 68 75 
f 68 63 75 
f 69 54 75 
f 63 69 75 
f 66 49 76 
f 59 66 76 
f 49 71 76 
f 71 59 76 
f 58 69 77 
f 69 63 77 
f 73 58 77 
f 63 73 77 
f 67 61 78 
f 74 60 78 
f 65 74 78 
f 61 67 79 
f 67 50 79 
f 50 68 79 
f 55 70 80 
f 70 57 80 
f 57 72 80 
f 72 55 80 
f 60 55 81 
f 64 60 81 
f 55 72 81 
f 72 64 81 
f 54 65 82 
f 68 54 82 
f 78 61 82 
f 65 78 82 
f 61 79 82 
f 79 68 82 
f 60 64 83 
f 64 67 83 
f 78 60 83 
o convex_2
v -0.006624 0.035620 -0.000207
v -0.007866 0.070826 0.020088
v -0.008281 0.070826 0.020088
v 0.000002 0.035620 0.020088
v 0.000002 0.066267 -0.000207
v -0.008281 0.070826 -0.000207
v -0.007866 0.036868 0.019671
v 0.000002 0.066684 0.020088
v 0.000002 0.035620 -0.000207
v -0.008281 0.041420 -0.000207
v -0.008281 0.041420 0.020088
v -0.006624 0.035620 0.020088
v 0.000002 0.066684 0.000208
v -0.007866 0.036868 0.000208
v -0.007866 0.070826 -0.000207
f 96 88 98 
f 85 86 87 
f 86 85 89 
f 88 84 89 
f 85 87 91 
f 87 88 91 
f 87 84 92 
f 84 88 92 
f 88 87 92 
f 89 84 93 
f 86 89 93 
f 93 90 94 
f 87 86 94 
f 86 93 94 
f 87 94 95 
f 84 87 95 
f 90 84 95 
f 94 90 95 
f 85 91 96 
f 91 88 96 
f 84 90 97 
f 93 84 97 
f 90 93 97 
f 89 85 98 
f 88 89 98 
f 85 96 98 
o convex_3
v 0.021540 0.073721 0.019671
v 0.000002 0.035620 -0.000207
v 0.008288 0.035620 -0.000207
v 0.000002 0.035620 0.020088
v 0.000002 0.067096 0.000208
v 0.021540 0.073310 -0.000207
v 0.000002 0.067096 0.020088
v 0.009529 0.036450 0.020088
v 0.019883 0.059642 0.000208
v 0.008703 0.074140 -0.000207
v 0.021540 0.065441 0.020088
v 0.008288 0.074140 0.020088
v 0.019883 0.059642 0.019671
v 0.009529 0.036450 0.000208
v 0.021125 0.074136 0.000208
v 0.021540 0.065852 -0.000207
v 0.008703 0.035620 0.020088
v 0.020712 0.074136 0.020088
v 0.000002 0.066682 -0.000207
v 0.001659 0.068752 0.000208
v 0.008288 0.074140 0.000208
v 0.001659 0.068752 0.019671
v 0.009529 0.036864 -0.000207
v 0.021540 0.065441 0.000208
f 114 109 122 
f 100 101 102 
f 100 102 103 
f 101 100 104 
f 103 102 105 
f 105 102 106 
f 104 100 108 
f 104 99 109 
f 105 106 109 
f 105 109 110 
f 106 107 111 
f 109 106 111 
f 107 109 111 
f 107 106 112 
f 99 104 113 
f 104 108 113 
f 108 110 113 
f 101 104 114 
f 104 109 114 
f 102 101 115 
f 106 102 115 
f 101 112 115 
f 112 106 115 
f 109 99 116 
f 110 109 116 
f 99 113 116 
f 113 110 116 
f 100 103 117 
f 108 100 117 
f 108 117 118 
f 103 105 118 
f 117 103 118 
f 118 110 119 
f 110 108 119 
f 108 118 119 
f 105 110 120 
f 118 105 120 
f 110 118 120 
f 112 101 121 
f 107 112 121 
f 101 114 121 
f 114 107 121 
f 109 107 122 
f 107 114 122 
o convex_4
v 0.004560 0.090707 0.000208
v 0.020710 0.076212 0.020088
v 0.020710 0.074140 0.020088
v 0.002489 0.088635 0.020088
v 0.008287 0.074140 0.000208
v 0.020710 0.076212 0.000208
v 0.008287 0.074140 0.020088
v 0.013669 0.086565 0.019671
v 0.016568 0.083666 0.000208
v 0.002489 0.088635 -0.000207
v 0.020296 0.074140 -0.000207
v 0.004146 0.090707 0.020088
v 0.010358 0.088635 0.000208
v 0.018641 0.080352 0.020088
v 0.002489 0.090707 0.000208
v 0.010358 0.088635 0.020088
v 0.013253 0.086565 -0.000207
v 0.002489 0.088221 0.000208
v 0.016568 0.083666 0.019671
v 0.008702 0.074140 -0.000207
v 0.019882 0.078281 0.000208
v 0.002489 0.090707 0.019671
v 0.002489 0.088221 0.019671
v 0.013669 0.086565 0.000208
v 0.007045 0.089878 0.019671
v 0.020710 0.074140 0.000208
v 0.019882 0.078281 0.019671
v 0.018225 0.080768 -0.000207
v 0.004560 0.090292 -0.000207
f 135 139 151 
f 125 124 126 
f 124 125 128 
f 125 126 129 
f 127 125 129 
f 125 127 133 
f 126 124 134 
f 134 124 136 
f 132 126 137 
f 134 123 137 
f 130 135 138 
f 136 130 138 
f 134 136 138 
f 133 132 139 
f 127 129 140 
f 126 132 140 
f 132 127 140 
f 131 130 141 
f 136 131 141 
f 130 136 141 
f 127 132 142 
f 132 133 142 
f 133 127 142 
f 124 128 143 
f 131 136 143 
f 126 134 144 
f 137 126 144 
f 134 137 144 
f 129 126 145 
f 126 140 145 
f 140 129 145 
f 130 131 146 
f 135 130 146 
f 131 139 146 
f 139 135 146 
f 123 134 147 
f 135 123 147 
f 134 138 147 
f 138 135 147 
f 128 125 148 
f 125 133 148 
f 133 128 148 
f 136 124 149 
f 124 143 149 
f 143 136 149 
f 128 133 150 
f 139 131 150 
f 133 139 150 
f 143 128 150 
f 131 143 150 
f 123 135 151 
f 137 123 151 
f 132 137 151 
f 139 132 151 
