o convex_0
v -0.009218 -0.089047 0.020360
v -0.001404 0.026944 0.020360
v -0.005927 0.026944 0.020360
v 0.005999 0.026944 -0.000204
v -0.013331 -0.060671 0.000209
v 0.005178 -0.084521 0.000209
v 0.005999 -0.070541 0.019948
v -0.008395 0.026933 0.000209
v -0.013331 -0.060671 0.019948
v 0.005999 0.026944 0.019948
v -0.012920 -0.084521 -0.000202
v 0.003944 -0.086168 0.020360
v -0.009218 0.015417 0.019948
v -0.003870 -0.090291 -0.000202
v -0.013331 -0.084118 0.019948
v 0.005999 -0.070126 -0.000202
v 0.000653 -0.089877 0.019537
v -0.011276 -0.019558 0.000209
v -0.007984 0.026933 -0.000202
v -0.008395 0.026933 0.019537
v -0.008806 -0.089877 0.000209
v 0.000653 -0.089877 0.000209
v -0.004693 -0.090706 0.019948
v 0.005589 0.026933 0.020360
v -0.012920 -0.060671 0.020360
v 0.005178 -0.084521 0.019948
v -0.011276 -0.019558 0.019948
v -0.013331 -0.084118 0.000209
v -0.012099 -0.086583 0.019948
v 0.004355 -0.086168 0.000209
v -0.009218 0.015417 0.000209
v -0.008806 -0.089877 0.019537
v -0.004281 -0.090706 0.000209
v -0.008806 0.015417 0.020360
v -0.012099 -0.086583 0.000209
v 0.005589 -0.070541 0.020360
v -0.012920 -0.060671 -0.000202
v 0.003944 -0.086168 -0.000202
v 0.004355 -0.086168 0.019948
v -0.012920 -0.084118 0.020360
v 0.001064 -0.089059 0.020360
v -0.005104 -0.090706 0.000209
v -0.010042 -0.002687 -0.000202
v -0.007572 0.026933 0.020360
f 20 34 44 
f 1 2 3 
f 3 2 4 
f 3 4 8 
f 4 2 10 
f 7 4 10 
f 2 1 12 
f 11 4 14 
f 9 5 15 
f 4 7 16 
f 7 6 16 
f 5 9 18 
f 8 4 19 
f 3 8 20 
f 8 13 20 
f 11 14 21 
f 10 2 24 
f 7 10 24 
f 2 12 24 
f 1 3 25 
f 9 15 25 
f 6 7 26 
f 18 9 27 
f 13 18 27 
f 9 25 27 
f 5 11 28 
f 15 5 28 
f 15 28 29 
f 17 22 30 
f 6 26 30 
f 13 8 31 
f 18 13 31 
f 8 19 31 
f 23 1 32 
f 29 21 32 
f 1 29 32 
f 14 22 33 
f 22 17 33 
f 17 23 33 
f 20 13 34 
f 25 3 34 
f 13 27 34 
f 27 25 34 
f 11 21 35 
f 28 11 35 
f 21 29 35 
f 29 28 35 
f 7 24 36 
f 24 12 36 
f 26 7 36 
f 12 26 36 
f 4 11 37 
f 11 5 37 
f 14 4 38 
f 4 16 38 
f 16 6 38 
f 22 14 38 
f 6 30 38 
f 30 22 38 
f 26 12 39 
f 17 30 39 
f 30 26 39 
f 1 25 40 
f 25 15 40 
f 29 1 40 
f 15 29 40 
f 12 1 41 
f 23 17 41 
f 1 23 41 
f 39 12 41 
f 17 39 41 
f 21 14 42 
f 23 32 42 
f 32 21 42 
f 14 33 42 
f 33 23 42 
f 5 18 43 
f 19 4 43 
f 18 31 43 
f 31 19 43 
f 4 37 43 
f 37 5 43 
f 3 20 44 
f 34 3 44 
o convex_1
v 0.022866 0.054093 0.020360
v 0.012172 0.042987 0.000209
v 0.012172 0.043400 -0.000204
v 0.012172 0.059853 0.019948
v 0.020808 0.056561 -0.000204
v 0.012172 0.042987 0.019948
v 0.012172 0.059853 -0.000204
v 0.023278 0.053682 0.000209
v 0.021220 0.056561 0.019537
v 0.013818 0.059853 0.000209
v 0.023278 0.053682 0.019948
v 0.012584 0.042987 0.000209
v 0.013818 0.059853 0.019948
v 0.012584 0.042987 0.019948
v 0.012172 0.059441 0.020360
v 0.012584 0.043400 0.020360
v 0.023278 0.054504 0.000209
v 0.021220 0.056561 0.000209
v 0.023278 0.054504 0.019537
v 0.022866 0.053682 -0.000204
f 61 52 64 
f 47 46 48 
f 48 46 50 
f 47 48 51 
f 49 47 51 
f 51 48 54 
f 49 51 54 
f 46 47 56 
f 50 46 56 
f 52 55 56 
f 45 53 57 
f 54 48 57 
f 53 54 57 
f 50 56 58 
f 56 55 58 
f 48 50 59 
f 45 57 59 
f 57 48 59 
f 55 45 60 
f 50 58 60 
f 58 55 60 
f 45 59 60 
f 59 50 60 
f 55 52 61 
f 49 54 62 
f 54 53 62 
f 61 49 62 
f 53 61 62 
f 53 45 63 
f 45 55 63 
f 61 53 63 
f 55 61 63 
f 47 49 64 
f 56 47 64 
f 52 56 64 
f 49 61 64 
o convex_2
v 0.006823 0.027359 -0.000204
v 0.006000 0.085355 0.020360
v 0.006000 0.085769 0.019948
v -0.003872 0.026950 -0.000204
v 0.006000 0.026944 0.020360
v 0.011349 0.078359 0.000209
v -0.003872 0.070545 0.019948
v -0.003872 0.070545 -0.000204
v 0.012170 0.042992 0.020360
v -0.003872 0.026950 0.020360
v 0.012170 0.042992 -0.000204
v 0.012172 0.073424 0.019948
v 0.005177 0.085355 -0.000204
v 0.003944 0.084531 0.019948
v 0.012172 0.073424 0.000209
v 0.009291 0.082476 0.019948
v 0.007234 0.027768 0.019948
v 0.009291 0.082476 0.000209
v 0.012170 0.041760 0.000209
v 0.002712 0.082476 0.000209
v -0.003872 0.070130 0.020360
v 0.010937 0.078359 0.020360
v 0.012170 0.041760 0.019948
v 0.010937 0.078359 -0.000204
v 0.006411 0.026944 -0.000204
v 0.006000 0.085769 0.000209
v 0.007234 0.027768 0.000209
v 0.011349 0.078359 0.019948
v 0.005177 0.085769 0.000209
v 0.002712 0.082476 0.019948
v 0.005177 0.085769 0.019948
v 0.003944 0.084531 0.000209
f 93 77 96 
f 65 68 72 
f 68 71 72 
f 66 69 73 
f 68 69 74 
f 69 66 74 
f 71 68 74 
f 65 72 75 
f 75 72 77 
f 70 76 79 
f 67 66 80 
f 73 69 81 
f 67 80 82 
f 80 70 82 
f 65 75 83 
f 75 79 83 
f 79 76 83 
f 72 71 84 
f 74 66 85 
f 71 74 85 
f 66 78 85 
f 66 73 86 
f 73 76 86 
f 80 66 86 
f 76 73 87 
f 73 81 87 
f 83 76 87 
f 81 83 87 
f 75 77 88 
f 79 75 88 
f 70 79 88 
f 77 82 88 
f 82 70 88 
f 68 65 89 
f 69 68 89 
f 81 69 89 
f 67 82 90 
f 82 77 90 
f 65 83 91 
f 83 81 91 
f 89 65 91 
f 81 89 91 
f 76 70 92 
f 70 80 92 
f 86 76 92 
f 80 86 92 
f 67 90 93 
f 90 77 93 
f 84 71 94 
f 78 84 94 
f 71 85 94 
f 85 78 94 
f 66 67 95 
f 78 66 95 
f 67 93 95 
f 93 78 95 
f 77 72 96 
f 72 84 96 
f 84 78 96 
f 78 93 96 
o convex_3
v -0.022793 0.065618 -0.000204
v -0.011276 0.087412 0.020360
v -0.011276 0.087822 0.019948
v -0.011277 0.044226 -0.000204
v -0.017857 0.055746 0.020360
v -0.011276 0.087822 -0.000204
v -0.022382 0.076306 0.019537
v -0.011277 0.044640 0.020360
v -0.018269 0.082478 0.000209
v -0.023206 0.065618 0.019948
v -0.023206 0.073425 0.000209
v -0.013334 0.046693 0.000209
v -0.016213 0.084531 0.019948
v -0.013334 0.046693 0.019948
v -0.022793 0.073425 0.020360
v -0.018269 0.055746 0.000209
v -0.023206 0.065618 0.000209
v -0.022382 0.076306 0.000209
v -0.018269 0.082478 0.019948
v -0.023206 0.073425 0.019948
v -0.018269 0.055746 0.019948
v -0.011688 0.087822 -0.000204
v -0.012099 0.044640 0.019948
v -0.021970 0.076306 -0.000204
v -0.016213 0.084531 0.000209
v -0.012099 0.044640 -0.000204
v -0.011688 0.087822 0.019948
v -0.017857 0.082478 0.020360
v -0.022793 0.065618 0.020360
f 111 106 125 
f 99 98 102 
f 98 100 102 
f 100 97 102 
f 100 98 104 
f 98 101 104 
f 104 101 110 
f 101 98 111 
f 108 110 112 
f 106 107 113 
f 107 97 113 
f 97 112 113 
f 112 106 113 
f 103 105 114 
f 107 103 114 
f 105 103 115 
f 109 105 115 
f 103 107 116 
f 107 106 116 
f 106 111 116 
f 111 103 116 
f 101 106 117 
f 110 101 117 
f 106 112 117 
f 112 110 117 
f 102 97 118 
f 99 102 118 
f 100 104 119 
f 104 110 119 
f 110 108 119 
f 97 107 120 
f 114 105 120 
f 107 114 120 
f 118 97 120 
f 105 118 120 
f 105 109 121 
f 109 118 121 
f 118 105 121 
f 97 100 122 
f 112 97 122 
f 108 112 122 
f 100 119 122 
f 119 108 122 
f 98 99 123 
f 109 98 123 
f 99 118 123 
f 118 109 123 
f 98 109 124 
f 111 98 124 
f 103 111 124 
f 115 103 124 
f 109 115 124 
f 106 101 125 
f 101 111 125 
o convex_4
v -0.008397 0.026944 0.000209
v -0.010042 0.075074 0.020360
v -0.009630 0.075074 0.019948
v -0.003872 0.026944 0.020360
v -0.003872 0.070546 -0.000204
v -0.011276 0.075074 -0.000204
v -0.011276 0.038882 0.019948
v -0.003872 0.070137 0.020360
v -0.003872 0.026944 -0.000204
v -0.011276 0.038463 0.000209
v -0.009219 0.028593 0.019948
v -0.011276 0.075074 0.020360
v -0.007574 0.026944 0.020360
v -0.009630 0.075074 0.000209
v -0.010042 0.033531 -0.000204
v -0.009219 0.028593 0.000209
v -0.010864 0.038882 0.020360
v -0.003872 0.070546 0.019948
v -0.008397 0.026944 0.019537
v -0.011276 0.038463 0.019537
v -0.011276 0.043810 -0.000204
v -0.007985 0.026944 -0.000204
f 141 140 147 
f 127 128 131 
f 127 129 133 
f 130 133 134 
f 129 126 134 
f 131 130 134 
f 133 129 134 
f 132 131 135 
f 129 127 137 
f 127 131 137 
f 131 132 137 
f 126 129 138 
f 129 137 138 
f 128 130 139 
f 131 128 139 
f 130 131 139 
f 131 134 140 
f 136 135 141 
f 126 136 141 
f 135 140 141 
f 132 136 142 
f 137 132 142 
f 138 137 142 
f 136 138 142 
f 128 127 143 
f 130 128 143 
f 127 133 143 
f 133 130 143 
f 136 126 144 
f 126 138 144 
f 138 136 144 
f 132 135 145 
f 136 132 145 
f 135 136 145 
f 135 131 146 
f 131 140 146 
f 140 135 146 
f 134 126 147 
f 140 134 147 
f 126 141 147 
o convex_5
v -0.004283 0.089058 0.020360
v -0.011276 0.075074 -0.000204
v -0.011276 0.088235 -0.000204
v -0.003872 0.088648 0.000209
v -0.010041 0.075074 0.020360
v -0.011276 0.088235 0.019948
v -0.006751 0.090706 0.000209
v -0.009629 0.075074 0.000209
v -0.011276 0.075074 0.020360
v -0.004695 0.086590 0.019948
v -0.005929 0.090706 0.019948
v -0.004283 0.089471 -0.000204
v -0.009629 0.075074 0.019948
v -0.008807 0.089881 0.019537
v -0.003872 0.089471 0.019948
v -0.011276 0.087826 0.020360
v -0.004283 0.089881 0.000209
v -0.008807 0.089881 0.000209
v -0.006751 0.090706 0.019948
v -0.010864 0.088648 0.019948
v -0.005929 0.090706 0.000209
v -0.003872 0.088648 0.019948
v -0.004695 0.086590 0.000209
f 155 159 170 
f 150 149 153 
f 152 149 155 
f 152 148 156 
f 149 152 156 
f 153 149 156 
f 148 152 157 
f 149 150 159 
f 150 154 159 
f 155 149 159 
f 152 155 160 
f 157 152 160 
f 155 157 160 
f 158 148 162 
f 156 148 163 
f 153 156 163 
f 151 159 164 
f 162 151 164 
f 158 162 164 
f 154 150 165 
f 161 154 165 
f 148 158 166 
f 158 154 166 
f 154 161 166 
f 163 148 166 
f 163 166 167 
f 150 153 167 
f 153 163 167 
f 165 150 167 
f 161 165 167 
f 166 161 167 
f 154 158 168 
f 159 154 168 
f 158 164 168 
f 164 159 168 
f 148 157 169 
f 157 151 169 
f 162 148 169 
f 151 162 169 
f 151 157 170 
f 157 155 170 
f 159 151 170 
