o convex_0
v -0.006123 -0.057219 -0.000195
v 0.006719 0.035032 0.020046
v -0.006513 0.035032 0.020046
v 0.007498 -0.057219 0.020046
v 0.007498 0.031131 -0.000195
v -0.006513 0.035032 -0.000195
v -0.006514 -0.057210 0.020046
v 0.007888 -0.057210 0.000196
v 0.007888 0.031131 0.019656
v 0.006719 0.035032 0.000196
v -0.006514 -0.057210 -0.000195
v 0.007888 0.031131 0.000198
v 0.007888 -0.057210 0.020046
v 0.007498 -0.057219 -0.000195
v 0.007498 0.031529 0.020046
v 0.006330 0.035032 -0.000195
f 10 5 16 
f 2 3 4 
f 3 2 6 
f 5 1 6 
f 3 6 7 
f 4 3 7 
f 1 4 7 
f 6 2 10 
f 2 9 10 
f 6 1 11 
f 7 6 11 
f 1 7 11 
f 8 5 12 
f 9 8 12 
f 5 10 12 
f 10 9 12 
f 2 4 13 
f 4 8 13 
f 8 9 13 
f 4 1 14 
f 1 5 14 
f 8 4 14 
f 5 8 14 
f 9 2 15 
f 2 13 15 
f 13 9 15 
f 5 6 16 
f 6 10 16 
o convex_1
v -0.017024 0.056834 0.000196
v -0.015467 0.084463 0.020046
v -0.015855 0.084852 0.019656
v -0.007682 0.068507 -0.000195
v -0.007682 0.049049 0.020046
v -0.021692 0.065787 0.020046
v -0.019748 0.082518 0.000196
v -0.007682 0.049438 -0.000195
v -0.007682 0.068507 0.020046
v -0.021304 0.065394 -0.000195
v -0.014300 0.083296 0.000196
v -0.021692 0.075511 0.019656
v -0.017801 0.057612 0.019656
v -0.021692 0.075511 0.000196
v -0.010407 0.050216 0.000196
v -0.019748 0.082518 0.019656
v -0.017413 0.084463 -0.000195
v -0.013132 0.081351 0.019656
v -0.020525 0.062281 0.000196
v -0.010407 0.050216 0.019656
v -0.020525 0.080572 0.020046
v -0.021692 0.065787 0.000196
v -0.017413 0.084852 0.019656
v -0.013132 0.081351 0.000196
v -0.020525 0.062281 0.019656
v -0.015855 0.084852 0.000196
v -0.020525 0.080180 -0.000195
v -0.008071 0.049049 0.000196
v -0.017801 0.057612 0.000196
v -0.017413 0.084852 0.000196
v -0.017413 0.057612 -0.000195
v -0.014300 0.083296 0.020046
v -0.017413 0.057612 0.020046
v -0.020525 0.080572 0.000196
v -0.014688 0.083296 -0.000195
f 33 42 51 
f 21 18 22 
f 20 21 24 
f 21 20 25 
f 18 21 25 
f 20 24 26 
f 22 28 30 
f 20 26 33 
f 25 20 34 
f 29 17 36 
f 17 31 36 
f 22 18 37 
f 28 22 37 
f 30 28 37 
f 32 23 37 
f 22 30 38 
f 30 26 38 
f 26 35 38 
f 35 22 38 
f 18 19 39 
f 23 32 39 
f 37 18 39 
f 32 37 39 
f 34 20 40 
f 27 34 40 
f 22 35 41 
f 35 29 41 
f 19 27 42 
f 39 19 42 
f 26 30 43 
f 33 26 43 
f 23 33 43 
f 24 21 44 
f 31 24 44 
f 21 36 44 
f 36 31 44 
f 17 29 45 
f 29 35 45 
f 33 23 46 
f 23 39 46 
f 42 33 46 
f 39 42 46 
f 26 24 47 
f 31 17 47 
f 24 31 47 
f 35 26 47 
f 17 45 47 
f 45 35 47 
f 19 18 48 
f 18 25 48 
f 27 19 48 
f 25 34 48 
f 34 27 48 
f 21 22 49 
f 29 36 49 
f 36 21 49 
f 22 41 49 
f 41 29 49 
f 37 23 50 
f 30 37 50 
f 43 30 50 
f 23 43 50 
f 20 33 51 
f 40 20 51 
f 27 40 51 
f 42 27 51 
o convex_2
v -0.007291 0.036592 -0.000195
v 0.006331 0.070450 0.020046
v 0.006331 0.070840 0.019656
v 0.006331 0.035036 -0.000195
v -0.006513 0.035036 0.020046
v -0.007682 0.068505 -0.000195
v -0.007682 0.068505 0.020046
v 0.006331 0.070450 -0.000195
v 0.006331 0.035036 0.020046
v -0.007682 0.036592 0.020046
v -0.006513 0.035036 -0.000195
v -0.007682 0.036592 0.000196
v 0.005942 0.070840 0.000196
v 0.005942 0.070840 0.019656
f 54 64 65 
f 54 53 55 
f 55 52 57 
f 56 53 58 
f 54 55 59 
f 55 57 59 
f 55 53 60 
f 56 55 60 
f 53 56 60 
f 58 57 61 
f 56 58 61 
f 52 55 62 
f 55 56 62 
f 56 61 62 
f 62 61 63 
f 57 52 63 
f 61 57 63 
f 52 62 63 
f 57 58 64 
f 54 59 64 
f 59 57 64 
f 53 54 65 
f 58 53 65 
f 64 58 65 
o convex_3
v 0.014505 -0.077460 0.020046
v 0.008667 -0.087970 0.000196
v 0.008667 -0.087579 -0.000195
v 0.014505 -0.081353 -0.000195
v 0.011392 -0.077460 0.000196
v 0.008667 -0.087970 0.020046
v 0.009446 -0.081353 0.019656
v 0.011780 -0.086411 0.019656
v 0.014505 -0.077460 -0.000195
v 0.011392 -0.077460 0.020046
v 0.008667 -0.084077 0.000196
v 0.011392 -0.086801 0.000196
v 0.014505 -0.081743 0.019656
v 0.013726 -0.083298 0.000196
v 0.008667 -0.084077 0.019656
v 0.009446 -0.081353 0.000196
v 0.013726 -0.083298 0.020046
v 0.009056 -0.087970 0.020046
v 0.009446 -0.081743 -0.000195
f 76 81 84 
f 68 67 71 
f 69 68 74 
f 66 69 74 
f 70 66 74 
f 66 70 75 
f 71 66 75 
f 70 72 75 
f 68 71 76 
f 67 68 77 
f 68 69 77 
f 69 66 78 
f 77 69 79 
f 73 77 79 
f 69 78 79 
f 71 75 80 
f 75 72 80 
f 76 71 80 
f 72 76 80 
f 72 70 81 
f 76 72 81 
f 66 71 82 
f 78 66 82 
f 73 79 82 
f 79 78 82 
f 71 67 83 
f 67 77 83 
f 77 73 83 
f 82 71 83 
f 73 82 83 
f 74 68 84 
f 70 74 84 
f 68 76 84 
f 81 70 84 
o convex_4
v 0.009056 -0.063059 0.020046
v 0.011780 -0.077457 -0.000195
v 0.014505 -0.077457 -0.000195
v 0.014505 -0.077457 0.020046
v 0.014505 -0.071231 0.000196
v 0.008667 -0.063450 -0.000195
v 0.009446 -0.071620 0.019656
v 0.014505 -0.071231 0.019656
v 0.011392 -0.077457 0.020046
v 0.008667 -0.068898 0.000196
v 0.011780 -0.066562 0.000196
v 0.008667 -0.068509 0.020046
v 0.011392 -0.077457 0.000196
v 0.011780 -0.066562 0.019656
v 0.009835 -0.063839 0.000196
v 0.008667 -0.063059 0.020046
v 0.014505 -0.071620 -0.000195
v 0.009056 -0.063059 0.000196
v 0.009446 -0.071620 0.000196
v 0.014505 -0.071620 0.020046
f 92 98 104 
f 86 87 88 
f 88 87 89 
f 87 86 90 
f 88 89 92 
f 86 88 93 
f 88 85 93 
f 90 86 94 
f 92 89 95 
f 93 85 96 
f 91 93 96 
f 94 91 96 
f 90 94 96 
f 86 93 97 
f 93 91 97 
f 92 95 98 
f 98 95 99 
f 85 98 99 
f 96 85 100 
f 90 96 100 
f 89 87 101 
f 87 90 101 
f 95 89 101 
f 99 95 101 
f 90 99 101 
f 85 99 102 
f 99 90 102 
f 100 85 102 
f 90 100 102 
f 91 94 103 
f 94 86 103 
f 86 97 103 
f 97 91 103 
f 85 88 104 
f 88 92 104 
f 98 85 104 
o convex_5
v 0.006721 0.035811 -0.000195
v 0.007110 0.090695 0.020046
v 0.007499 0.090695 0.019656
v 0.007499 0.036591 0.020046
v 0.008277 0.089523 -0.000195
v 0.006331 0.090297 0.000196
v 0.006331 0.035032 0.020046
v 0.008277 0.050217 0.020046
v 0.007888 0.036983 0.000196
v 0.006331 0.090297 0.020046
v 0.008277 0.089523 0.020046
v 0.006331 0.035811 -0.000195
v 0.008277 0.050604 -0.000195
v 0.007888 0.036983 0.019656
v 0.006721 0.090297 -0.000195
v 0.006721 0.035032 0.000196
v 0.007499 0.090695 0.000196
v 0.006721 0.035032 0.020046
f 120 118 122 
f 108 106 111 
f 106 108 112 
f 106 110 114 
f 110 111 114 
f 111 106 114 
f 107 106 115 
f 109 107 115 
f 106 112 115 
f 112 109 115 
f 109 105 116 
f 111 110 116 
f 105 109 117 
f 109 112 117 
f 112 113 117 
f 113 105 117 
f 112 108 118 
f 113 112 118 
f 109 116 119 
f 116 110 119 
f 105 113 120 
f 116 105 120 
f 111 116 120 
f 113 118 120 
f 106 107 121 
f 107 109 121 
f 110 106 121 
f 109 119 121 
f 119 110 121 
f 108 111 122 
f 118 108 122 
f 111 120 122 
o convex_6
v 0.022289 0.068510 -0.000195
v 0.009446 0.089523 0.020046
v 0.008277 0.089523 0.020046
v 0.008668 0.050606 0.020046
v 0.008277 0.089523 -0.000195
v 0.022680 0.074343 0.020046
v 0.008277 0.050998 -0.000195
v 0.017617 0.082514 0.000196
v 0.020733 0.064617 0.019656
v 0.015673 0.057611 0.000196
v 0.022680 0.074343 0.000196
v 0.017617 0.082514 0.019656
v 0.011392 0.088742 0.000196
v 0.008277 0.050606 0.020046
v 0.015673 0.057611 0.020046
v 0.022680 0.068510 0.019656
v 0.020733 0.064617 0.000196
v 0.020342 0.078624 -0.000195
v 0.011392 0.088742 0.019656
v 0.008668 0.050606 0.000196
v 0.020733 0.078236 0.019656
v 0.022680 0.068510 0.000196
v 0.020733 0.078236 0.000196
v 0.009446 0.089523 -0.000195
v 0.022680 0.068899 0.020046
v 0.015284 0.057611 -0.000195
v 0.017617 0.082129 0.020046
f 143 134 149 
f 124 125 126 
f 125 124 127 
f 124 126 128 
f 127 123 129 
f 125 127 129 
f 134 130 135 
f 126 125 136 
f 125 129 136 
f 128 126 137 
f 126 132 137 
f 132 131 137 
f 133 128 138 
f 131 132 139 
f 138 131 139 
f 123 127 140 
f 133 123 140 
f 135 130 140 
f 134 135 141 
f 135 124 141 
f 132 126 142 
f 126 136 142 
f 136 129 142 
f 128 133 143 
f 130 134 143 
f 123 133 144 
f 133 138 144 
f 139 123 144 
f 138 139 144 
f 133 140 145 
f 140 130 145 
f 143 133 145 
f 130 143 145 
f 127 124 146 
f 124 135 146 
f 140 127 146 
f 135 140 146 
f 128 137 147 
f 137 131 147 
f 131 138 147 
f 138 128 147 
f 129 123 148 
f 123 139 148 
f 139 132 148 
f 132 142 148 
f 142 129 148 
f 124 128 149 
f 141 124 149 
f 134 141 149 
f 128 143 149 
o convex_7
v -0.012353 -0.080575 0.020046
v -0.003011 -0.089916 -0.000195
v -0.002622 -0.089916 -0.000195
v -0.009626 -0.079406 -0.000195
v -0.002622 -0.086412 0.020046
v -0.010795 -0.084467 0.000196
v -0.004568 -0.089525 0.020046
v -0.009237 -0.079406 0.019656
v -0.002622 -0.086412 -0.000195
v -0.012742 -0.079406 0.000196
v -0.010795 -0.084467 0.019656
v -0.007682 -0.087580 0.000196
v -0.002622 -0.089916 0.020046
v -0.012742 -0.079406 0.019656
v -0.007682 -0.087580 0.019656
v -0.012742 -0.080186 0.000196
v -0.009237 -0.079406 0.000196
v -0.004568 -0.089525 0.000196
v -0.010406 -0.084467 -0.000195
v -0.012742 -0.080186 0.019656
f 163 165 169 
f 152 151 153 
f 154 150 156 
f 150 154 157 
f 157 154 158 
f 152 153 158 
f 154 152 158 
f 157 153 159 
f 156 150 160 
f 160 155 161 
f 151 152 162 
f 152 154 162 
f 156 151 162 
f 154 156 162 
f 150 157 163 
f 157 159 163 
f 156 160 164 
f 161 156 164 
f 160 161 164 
f 155 160 165 
f 163 159 165 
f 153 157 166 
f 157 158 166 
f 158 153 166 
f 151 156 167 
f 156 161 167 
f 161 151 167 
f 153 151 168 
f 159 153 168 
f 151 161 168 
f 161 155 168 
f 155 165 168 
f 165 159 168 
f 160 150 169 
f 150 163 169 
f 165 160 169 
o convex_8
v 0.006331 -0.089526 -0.000195
v 0.008667 -0.084467 0.020046
v 0.005552 -0.084467 0.020046
v 0.004384 -0.090693 0.020046
v -0.002622 -0.086414 0.000196
v -0.002622 -0.090304 0.020046
v 0.008667 -0.084467 -0.000195
v -0.002231 -0.090693 0.000196
v -0.002622 -0.086414 0.020046
v 0.008667 -0.088358 0.020046
v 0.008667 -0.088358 0.000196
v 0.004384 -0.090693 0.000196
v 0.005552 -0.084467 0.000196
v -0.002622 -0.090304 -0.000195
v -0.002231 -0.090693 0.020046
v 0.008276 -0.088748 0.000196
v -0.002622 -0.086803 -0.000195
v 0.008276 -0.088748 0.019656
f 185 179 187 
f 171 172 173 
f 173 172 175 
f 172 171 176 
f 172 174 178 
f 175 172 178 
f 174 175 178 
f 171 173 179 
f 176 171 179 
f 176 179 180 
f 170 176 180 
f 173 177 181 
f 174 172 182 
f 172 176 182 
f 175 174 183 
f 176 170 183 
f 177 175 183 
f 170 181 183 
f 181 177 183 
f 173 175 184 
f 177 173 184 
f 175 177 184 
f 180 179 185 
f 170 180 185 
f 173 181 185 
f 181 170 185 
f 174 182 186 
f 182 176 186 
f 183 174 186 
f 176 183 186 
f 179 173 187 
f 173 185 187 
o convex_9
v -0.007294 -0.063450 0.020046
v -0.012352 -0.079405 -0.000195
v -0.009629 -0.079405 -0.000195
v -0.006903 -0.063061 0.000196
v -0.012741 -0.072787 0.019656
v -0.009239 -0.079405 0.019656
v -0.012741 -0.072787 0.000196
v -0.006903 -0.068898 0.000196
v -0.012741 -0.079405 0.019656
v -0.006903 -0.068898 0.020046
v -0.007683 -0.063450 0.000196
v -0.010795 -0.068898 0.019656
v -0.009239 -0.079405 0.000196
v -0.007294 -0.071233 0.020046
v -0.012741 -0.079405 0.000196
v -0.006903 -0.063061 0.019656
v -0.007683 -0.063450 0.019656
v -0.012352 -0.079405 0.020046
v -0.007294 -0.063450 -0.000195
v -0.010795 -0.068898 0.000196
v -0.007294 -0.071233 0.000196
v -0.012352 -0.072398 0.020046
v -0.012352 -0.072398 -0.000195
f 194 207 210 
f 189 190 193 
f 189 193 196 
f 192 194 196 
f 195 191 197 
f 194 192 199 
f 193 190 200 
f 197 188 201 
f 195 197 201 
f 193 200 201 
f 194 189 202 
f 189 196 202 
f 196 194 202 
f 188 197 203 
f 197 191 203 
f 191 198 203 
f 203 198 204 
f 198 199 204 
f 199 188 204 
f 188 203 204 
f 192 196 205 
f 196 193 205 
f 201 188 205 
f 193 201 205 
f 190 189 206 
f 195 190 206 
f 191 195 206 
f 198 191 206 
f 198 206 207 
f 194 199 207 
f 199 198 207 
f 190 195 208 
f 200 190 208 
f 195 201 208 
f 201 200 208 
f 188 199 209 
f 199 192 209 
f 205 188 209 
f 192 205 209 
f 189 194 210 
f 206 189 210 
f 207 206 210 
o convex_10
v -0.006903 -0.063057 -0.000195
v 0.008667 -0.057610 0.020046
v 0.008277 -0.057220 0.020046
v -0.006903 -0.068508 0.020046
v 0.008667 -0.068508 -0.000195
v -0.006513 -0.057220 -0.000195
v 0.008667 -0.068508 0.020046
v -0.006513 -0.057220 0.020046
v 0.008277 -0.057220 0.000196
v -0.006903 -0.068508 -0.000195
v 0.008667 -0.057610 0.000196
v 0.007888 -0.057220 -0.000195
v -0.006903 -0.062670 0.019656
f 218 216 223 
f 212 213 214 
f 215 211 216 
f 212 214 217 
f 214 215 217 
f 215 212 217 
f 214 213 218 
f 213 216 218 
f 213 212 219 
f 216 213 219 
f 214 211 220 
f 211 215 220 
f 215 214 220 
f 212 215 221 
f 219 212 221 
f 219 221 222 
f 215 216 222 
f 216 219 222 
f 221 215 222 
f 211 214 223 
f 216 211 223 
f 214 218 223 
