o convex_0
v 0.009385 0.087408 0.020360
v -0.015703 0.056565 0.000209
v -0.015703 0.056565 0.019948
v 0.005685 0.026533 0.000209
v -0.001717 0.090291 -0.000204
v 0.005272 0.026533 0.020360
v 0.015554 0.079185 -0.000204
v -0.013236 0.083293 0.020360
v 0.015554 0.056565 0.019948
v -0.004597 0.026533 -0.000204
v -0.015703 0.078356 0.000209
v -0.005830 0.028593 0.019948
v 0.015554 0.056565 -0.000204
v 0.015554 0.079594 0.019948
v -0.001307 0.090706 0.019948
v 0.009385 0.087822 0.000209
v -0.009533 0.087408 -0.000204
v -0.015703 0.078356 0.019948
v -0.004187 0.026533 0.020360
v -0.005420 0.089883 0.019537
v 0.005272 0.089883 0.000209
v -0.013236 0.083708 -0.000204
v 0.013498 0.083708 0.019948
v 0.005272 0.089883 0.019537
v -0.005830 0.028593 0.000209
v 0.015144 0.056565 0.020360
v 0.005685 0.026533 0.019948
v -0.014882 0.053688 0.000209
v 0.013498 0.083708 0.000209
v -0.009123 0.087822 0.019948
v -0.005420 0.089883 0.000209
v -0.015293 0.056565 0.020360
v -0.015293 0.056565 -0.000204
v 0.014734 0.053688 0.019948
v 0.001569 0.090706 0.000209
v 0.005272 0.026533 -0.000204
v -0.014882 0.081239 0.019537
v -0.014882 0.053688 0.019537
v 0.014734 0.053688 0.000209
v 0.009385 0.087822 0.019948
v 0.015144 0.079594 0.020360
v -0.001307 0.090291 0.020360
v -0.013646 0.083293 0.019948
v -0.014882 0.081239 0.000209
v 0.001569 0.090706 0.019948
v -0.001307 0.090706 0.000209
v 0.009385 0.087408 -0.000204
v -0.015293 0.078356 -0.000204
v -0.015293 0.078356 0.020360
v -0.004597 0.026533 0.019948
v 0.015554 0.079594 0.000209
v -0.009123 0.087822 0.000209
f 30 31 52 
f 6 1 8 
f 4 6 10 
f 5 7 10 
f 2 3 11 
f 7 9 13 
f 10 7 13 
f 9 7 14 
f 5 10 17 
f 11 3 18 
f 6 8 19 
f 10 6 19 
f 17 10 22 
f 16 21 24 
f 10 12 25 
f 1 6 26 
f 9 14 26 
f 6 4 27 
f 3 2 28 
f 10 25 28 
f 25 12 28 
f 23 14 29 
f 16 23 29 
f 5 17 31 
f 20 15 31 
f 30 20 31 
f 3 12 32 
f 18 3 32 
f 19 8 32 
f 12 19 32 
f 2 11 33 
f 22 10 33 
f 28 2 33 
f 10 28 33 
f 13 9 34 
f 26 6 34 
f 9 26 34 
f 27 4 34 
f 6 27 34 
f 21 5 35 
f 24 21 35 
f 4 10 36 
f 13 4 36 
f 10 13 36 
f 11 18 37 
f 12 3 38 
f 3 28 38 
f 28 12 38 
f 4 13 39 
f 34 4 39 
f 13 34 39 
f 1 23 40 
f 23 16 40 
f 24 1 40 
f 16 24 40 
f 23 1 41 
f 14 23 41 
f 1 26 41 
f 26 14 41 
f 8 1 42 
f 15 20 42 
f 30 8 42 
f 20 30 42 
f 18 8 43 
f 8 30 43 
f 30 22 43 
f 37 18 43 
f 37 43 44 
f 11 37 44 
f 43 22 44 
f 1 24 45 
f 35 15 45 
f 24 35 45 
f 42 1 45 
f 15 42 45 
f 5 31 46 
f 31 15 46 
f 35 5 46 
f 15 35 46 
f 7 5 47 
f 5 21 47 
f 21 16 47 
f 29 7 47 
f 16 29 47 
f 33 11 48 
f 22 33 48 
f 11 44 48 
f 44 22 48 
f 8 18 49 
f 18 32 49 
f 32 8 49 
f 12 10 50 
f 10 19 50 
f 19 12 50 
f 14 7 51 
f 7 29 51 
f 29 14 51 
f 17 22 52 
f 22 30 52 
f 31 17 52 
o convex_1
v 0.010210 -0.077532 0.020360
v -0.011592 -0.068486 0.000209
v -0.011592 -0.068486 0.019948
v 0.005684 -0.015015 0.019948
v 0.011443 -0.040524 -0.000204
v -0.005833 -0.015845 0.000209
v 0.005684 -0.090283 -0.000204
v -0.008712 -0.023654 0.019948
v -0.004599 -0.090706 0.019537
v 0.005273 -0.015015 -0.000204
v -0.007477 -0.087401 -0.000204
v 0.011856 -0.040939 0.019948
v 0.011856 -0.071368 0.000209
v -0.011592 -0.043821 -0.000204
v 0.007740 -0.088231 0.019948
v -0.004599 -0.015015 0.020360
v -0.008301 -0.084527 0.020360
v 0.009797 -0.026543 0.000209
v -0.011592 -0.043406 0.019948
v 0.011856 -0.071368 0.019948
v 0.009386 -0.026536 0.020360
v -0.008712 -0.023654 0.000209
v -0.004599 -0.090706 0.000209
v 0.005273 -0.090706 0.019948
v -0.010768 -0.076302 0.000209
v 0.008564 -0.085349 -0.000204
v 0.011856 -0.040939 0.000209
v -0.007888 -0.087401 0.019537
v -0.005009 -0.015015 -0.000204
v -0.010768 -0.076302 0.019948
v -0.010768 -0.035590 0.000209
v 0.009797 -0.026543 0.019948
v 0.009797 -0.081244 0.019948
v -0.011179 -0.043406 0.020360
v -0.005833 -0.015845 0.019948
v 0.008564 -0.022424 0.000209
v -0.010768 -0.035590 0.019948
v -0.007888 -0.087401 0.000209
v 0.005273 -0.090283 0.020360
v 0.007740 -0.088231 0.000209
v 0.005273 -0.090706 0.000209
v 0.009797 -0.081244 0.000209
v 0.005684 -0.015015 0.000209
v 0.008564 -0.022424 0.019948
v 0.011443 -0.040939 0.020360
v -0.004185 -0.090283 0.020360
v 0.005273 -0.015015 0.020360
v -0.011592 -0.068078 -0.000204
v 0.011443 -0.071368 -0.000204
v -0.008712 -0.084534 0.019948
v -0.011179 -0.068486 0.020360
v -0.008301 -0.023654 0.020360
v 0.010621 -0.077532 0.000209
v -0.008712 -0.084534 0.000209
v 0.008564 -0.022831 -0.000204
v -0.008301 -0.023654 -0.000204
v 0.011443 -0.071368 0.020360
v -0.004599 -0.090283 -0.000204
v 0.010621 -0.077532 0.019948
f 85 105 111 
f 57 59 62 
f 62 59 63 
f 54 55 66 
f 62 63 66 
f 56 62 68 
f 53 68 69 
f 66 55 71 
f 65 64 72 
f 68 53 73 
f 60 58 74 
f 61 75 76 
f 55 54 77 
f 59 57 78 
f 65 57 79 
f 64 65 79 
f 57 70 79 
f 70 64 79 
f 75 61 80 
f 62 66 81 
f 68 62 81 
f 55 77 82 
f 66 71 83 
f 60 74 83 
f 64 70 84 
f 73 64 84 
f 53 67 85 
f 69 68 86 
f 71 55 86 
f 58 60 87 
f 81 58 87 
f 68 81 87 
f 84 70 88 
f 83 71 89 
f 60 83 89 
f 71 86 89 
f 63 75 90 
f 75 80 90 
f 67 53 91 
f 53 69 91 
f 76 67 91 
f 67 76 92 
f 59 78 92 
f 85 67 92 
f 75 59 93 
f 76 75 93 
f 92 76 93 
f 59 92 93 
f 92 78 94 
f 85 92 94 
f 62 56 95 
f 56 88 95 
f 73 84 96 
f 88 56 96 
f 84 88 96 
f 72 64 97 
f 73 53 97 
f 64 73 97 
f 61 76 98 
f 69 80 98 
f 80 61 98 
f 91 69 98 
f 76 91 98 
f 56 68 99 
f 68 73 99 
f 96 56 99 
f 73 96 99 
f 54 66 100 
f 66 63 100 
f 77 54 100 
f 63 77 100 
f 57 65 101 
f 78 57 101 
f 80 69 102 
f 69 82 102 
f 82 77 102 
f 90 80 102 
f 55 82 103 
f 82 69 103 
f 86 55 103 
f 69 86 103 
f 86 68 104 
f 87 60 104 
f 68 87 104 
f 60 89 104 
f 89 86 104 
f 65 72 105 
f 94 78 105 
f 85 94 105 
f 101 65 105 
f 78 101 105 
f 77 63 106 
f 63 90 106 
f 102 77 106 
f 90 102 106 
f 57 62 107 
f 70 57 107 
f 88 70 107 
f 62 95 107 
f 95 88 107 
f 74 58 108 
f 81 66 108 
f 58 81 108 
f 66 83 108 
f 83 74 108 
f 53 72 109 
f 97 53 109 
f 72 97 109 
f 63 59 110 
f 59 75 110 
f 75 63 110 
f 72 53 111 
f 53 85 111 
f 105 72 111 
o convex_2
v -0.004599 -0.015015 -0.000204
v 0.005274 0.026533 0.020360
v 0.005685 0.026533 0.019950
v -0.004599 0.026533 -0.000204
v 0.005685 -0.015015 0.000209
v -0.004187 -0.015015 0.020360
v -0.004599 0.026533 0.019948
v 0.005685 0.026533 0.000207
v 0.005685 -0.015015 0.019948
v -0.004599 -0.015015 0.019948
v 0.005274 -0.015015 -0.000204
v 0.005274 0.026533 -0.000204
v 0.005274 -0.015015 0.020360
v -0.004187 0.026533 0.020360
f 113 118 125 
f 113 114 115 
f 112 116 117 
f 113 115 118 
f 115 112 118 
f 115 114 119 
f 114 116 119 
f 116 114 120 
f 117 116 120 
f 112 117 121 
f 118 112 121 
f 117 118 121 
f 112 115 122 
f 116 112 122 
f 119 116 122 
f 119 122 123 
f 115 119 123 
f 122 115 123 
f 114 113 124 
f 113 117 124 
f 120 114 124 
f 117 120 124 
f 117 113 125 
f 118 117 125 
