o convex_0
v 0.011743 0.020868 0.019986
v -0.007586 -0.053817 -0.000220
v 0.012622 -0.053817 -0.000220
v 0.012622 -0.053817 0.020428
v 0.011303 0.020868 -0.000220
v -0.007586 0.020868 0.019986
v -0.007586 -0.053817 0.019986
v -0.007586 0.020868 -0.000220
v 0.013501 -0.035358 0.000221
v 0.013501 -0.035358 0.019986
v -0.007147 0.020868 0.020428
v 0.013501 -0.053809 -0.000220
v -0.007147 -0.053817 0.020428
v 0.011303 0.020868 0.020428
v 0.011743 0.020868 0.000221
v 0.013501 -0.053809 0.019986
v 0.013062 -0.035358 0.020428
v 0.013501 -0.035796 -0.000220
f 15 9 18 
f 2 3 4 
f 3 2 5 
f 1 5 6 
f 2 4 7 
f 6 2 7 
f 5 2 8 
f 2 6 8 
f 6 5 8 
f 9 1 10 
f 1 6 11 
f 6 7 11 
f 4 3 12 
f 3 5 12 
f 9 10 12 
f 7 4 13 
f 4 11 13 
f 11 7 13 
f 10 1 14 
f 1 11 14 
f 11 4 14 
f 5 1 15 
f 1 9 15 
f 4 12 16 
f 12 10 16 
f 10 14 17 
f 14 4 17 
f 4 16 17 
f 16 10 17 
f 12 5 18 
f 9 12 18 
f 5 15 18 
o convex_1
v -0.022522 0.051620 -0.000220
v -0.009784 0.061284 0.020428
v -0.009784 0.061725 0.019986
v -0.009784 0.034926 0.000221
v -0.024720 0.054694 0.019986
v -0.009784 0.061725 -0.000220
v -0.010223 0.034926 0.019986
v -0.024280 0.056890 0.000221
v -0.012419 0.061725 0.019986
v -0.024280 0.056890 0.019549
v -0.009784 0.035367 0.020428
v -0.011540 0.036248 0.000221
v -0.012419 0.061725 0.000221
v -0.022522 0.051177 0.019549
v -0.024280 0.056011 0.020428
v -0.009784 0.035367 -0.000220
v -0.024720 0.054694 0.000221
v -0.022522 0.051177 0.000221
v -0.011540 0.036248 0.019986
v -0.024280 0.056452 -0.000220
v -0.024720 0.056452 0.019986
v -0.024720 0.056452 0.000221
v -0.024280 0.054694 0.020428
f 37 29 41 
f 21 20 22 
f 21 22 24 
f 20 21 27 
f 21 24 27 
f 27 26 28 
f 22 20 29 
f 25 22 29 
f 22 25 30 
f 27 24 31 
f 26 27 31 
f 20 27 33 
f 29 20 33 
f 24 22 34 
f 19 24 34 
f 30 19 34 
f 22 30 34 
f 32 23 35 
f 32 35 36 
f 19 30 36 
f 30 32 36 
f 35 19 36 
f 25 29 37 
f 30 25 37 
f 23 32 37 
f 32 30 37 
f 24 19 38 
f 31 24 38 
f 26 31 38 
f 19 35 38 
f 28 26 39 
f 27 28 39 
f 33 27 39 
f 23 33 39 
f 35 23 39 
f 35 39 40 
f 26 38 40 
f 38 35 40 
f 39 26 40 
f 33 23 41 
f 29 33 41 
f 23 37 41 
o convex_2
v 0.017453 0.084121 0.020428
v -0.009783 0.032738 0.000221
v -0.009783 0.032738 0.019986
v 0.012622 0.021312 0.000221
v -0.001433 0.089393 -0.000220
v 0.024482 0.073578 -0.000220
v 0.012183 0.021312 0.020428
v -0.006265 0.080607 0.020428
v 0.024921 0.057770 0.019549
v -0.007585 0.020868 -0.000220
v -0.009783 0.062159 -0.000220
v -0.007146 0.020868 0.020428
v 0.001642 0.090720 0.019986
v 0.013499 0.087636 0.000221
v 0.024921 0.057770 0.000221
v 0.025802 0.068313 0.019988
v -0.009783 0.061715 0.020428
v -0.006707 0.080607 0.000221
v 0.011744 0.020868 -0.000220
v -0.003631 0.087636 0.019986
v 0.020529 0.081489 0.019986
v 0.020529 0.081489 -0.000220
v 0.011744 0.088518 0.019986
v 0.002520 0.090720 0.000221
v 0.023165 0.076655 0.020428
v 0.025799 0.064792 0.000221
v -0.008902 0.024827 0.019549
v -0.007585 0.076655 0.019986
v 0.012622 0.021312 0.019986
v -0.003631 0.087636 0.000221
v 0.023604 0.076655 0.019986
v 0.024043 0.057332 0.020428
v 0.012183 0.020868 0.019986
v -0.001433 0.089393 0.020428
v 0.024921 0.073140 0.000221
v -0.005826 0.083239 0.019986
v 0.007351 0.089838 0.000221
v -0.008902 0.024827 0.000221
v 0.017453 0.084566 0.019986
v -0.001433 0.089838 0.000221
v 0.024482 0.057770 -0.000220
v 0.007351 0.089838 0.019986
v 0.023604 0.076655 0.000221
v -0.007585 0.076217 -0.000220
v 0.017453 0.084566 -0.000220
v 0.025799 0.064792 0.019986
v 0.025802 0.068313 0.000221
v 0.024921 0.073140 0.019549
v -0.001433 0.089838 0.019986
v 0.011301 0.088518 -0.000220
v -0.005826 0.083239 0.000221
v 0.013499 0.087636 0.019986
v -0.007585 0.020868 0.019986
v -0.009783 0.034932 0.020428
v -0.009783 0.034932 -0.000220
v 0.007351 0.089400 0.020428
v -0.007585 0.076655 0.000221
v -0.006707 0.080607 0.019986
v -0.009783 0.062159 0.019986
v 0.011744 0.088518 0.000221
v 0.025360 0.068313 0.020428
v 0.002520 0.090720 0.019986
v 0.001642 0.090720 0.000221
v 0.012622 0.021750 -0.000220
f 60 82 105 
f 48 42 49 
f 46 47 51 
f 43 44 52 
f 46 51 52 
f 48 49 53 
f 50 45 56 
f 52 44 58 
f 53 49 58 
f 51 47 60 
f 53 51 60 
f 47 46 63 
f 42 48 66 
f 62 42 66 
f 50 56 67 
f 44 43 68 
f 58 49 69 
f 45 50 70 
f 63 62 72 
f 66 57 72 
f 62 66 72 
f 66 48 73 
f 70 50 73 
f 48 70 73 
f 48 53 74 
f 60 45 74 
f 53 60 74 
f 45 70 74 
f 70 48 74 
f 49 42 75 
f 61 49 75 
f 49 61 77 
f 61 71 77 
f 68 43 79 
f 51 68 79 
f 42 62 80 
f 62 63 80 
f 46 71 81 
f 71 61 81 
f 60 47 82 
f 67 56 82 
f 64 78 83 
f 78 65 83 
f 47 63 84 
f 63 72 84 
f 76 47 84 
f 72 76 84 
f 46 52 85 
f 63 46 86 
f 55 80 86 
f 80 63 86 
f 50 67 87 
f 67 57 87 
f 73 50 87 
f 57 67 88 
f 47 76 88 
f 76 57 88 
f 82 47 88 
f 67 82 88 
f 72 57 89 
f 57 76 89 
f 76 72 89 
f 75 54 90 
f 61 75 90 
f 54 81 90 
f 81 61 90 
f 46 65 91 
f 65 78 91 
f 86 46 91 
f 55 86 91 
f 71 46 92 
f 59 77 92 
f 77 71 92 
f 46 85 92 
f 85 59 92 
f 55 64 93 
f 42 80 93 
f 80 55 93 
f 51 53 94 
f 68 51 94 
f 53 68 94 
f 58 44 95 
f 53 58 95 
f 44 68 95 
f 68 53 95 
f 43 52 96 
f 52 51 96 
f 79 43 96 
f 51 79 96 
f 75 42 97 
f 54 75 97 
f 64 83 97 
f 42 93 97 
f 93 64 97 
f 52 69 98 
f 69 59 98 
f 85 52 98 
f 59 85 98 
f 69 49 99 
f 59 69 99 
f 49 77 99 
f 77 59 99 
f 52 58 100 
f 69 52 100 
f 58 69 100 
f 64 55 101 
f 78 64 101 
f 55 91 101 
f 91 78 101 
f 57 66 102 
f 66 73 102 
f 87 57 102 
f 73 87 102 
f 65 54 103 
f 83 65 103 
f 54 97 103 
f 97 83 103 
f 65 46 104 
f 54 65 104 
f 46 81 104 
f 81 54 104 
f 56 45 105 
f 45 60 105 
f 82 56 105 
o convex_3
v 0.014380 -0.063922 0.020428
v 0.013501 -0.081055 -0.000220
v 0.013501 -0.063044 -0.000220
v 0.014819 -0.080173 0.000221
v 0.013501 -0.080614 0.020428
v 0.014819 -0.063485 0.000221
v 0.014819 -0.080173 0.019986
v 0.013501 -0.062603 0.019549
v 0.014819 -0.063485 0.019549
v 0.013941 -0.081055 0.019986
v 0.013941 -0.062603 0.000221
v 0.014380 -0.080614 -0.000220
f 109 115 117 
f 108 107 110 
f 109 111 112 
f 106 110 112 
f 110 106 113 
f 108 110 113 
f 112 111 114 
f 106 112 114 
f 113 106 114 
f 110 107 115 
f 109 112 115 
f 112 110 115 
f 111 108 116 
f 108 113 116 
f 114 111 116 
f 113 114 116 
f 107 108 117 
f 108 111 117 
f 111 109 117 
f 115 107 117 
o convex_4
v -0.008025 -0.080616 0.020428
v 0.000760 -0.089840 -0.000220
v 0.001200 -0.089840 -0.000220
v -0.004511 -0.076663 -0.000220
v 0.001200 -0.085008 0.019986
v -0.007586 -0.083690 0.000221
v -0.001437 -0.089840 0.019986
v -0.004072 -0.076663 0.019549
v -0.008904 -0.076663 0.000221
v 0.001200 -0.085008 0.000221
v -0.006706 -0.085447 0.019986
v -0.003633 -0.088522 0.000221
v -0.008904 -0.076663 0.019549
v 0.001200 -0.089400 0.020428
v -0.008904 -0.080178 0.019549
v -0.008464 -0.080616 -0.000220
v -0.004949 -0.076663 0.020428
v -0.004072 -0.076663 0.000221
v -0.001437 -0.089840 0.000221
v -0.003633 -0.088522 0.019986
v -0.006706 -0.085447 0.000221
v -0.008904 -0.080178 0.000221
v 0.001200 -0.089840 0.019986
v -0.003633 -0.088082 0.020428
v -0.007586 -0.083690 0.019986
v -0.003193 -0.088522 -0.000220
f 138 133 143 
f 120 119 121 
f 119 120 124 
f 125 121 126 
f 120 121 127 
f 122 120 127 
f 125 122 127 
f 125 126 130 
f 120 122 131 
f 118 130 132 
f 130 126 132 
f 121 119 133 
f 126 121 133 
f 122 125 134 
f 130 118 134 
f 125 130 134 
f 118 131 134 
f 131 122 134 
f 121 125 135 
f 127 121 135 
f 125 127 135 
f 119 124 136 
f 124 129 136 
f 129 124 137 
f 128 129 137 
f 128 123 138 
f 129 128 138 
f 123 133 138 
f 123 132 139 
f 132 126 139 
f 126 133 139 
f 133 123 139 
f 124 120 140 
f 120 131 140 
f 131 124 140 
f 118 128 141 
f 131 118 141 
f 124 131 141 
f 128 137 141 
f 137 124 141 
f 128 118 142 
f 123 128 142 
f 132 123 142 
f 118 132 142 
f 133 119 143 
f 119 136 143 
f 136 129 143 
f 129 138 143 
o convex_5
v -0.008904 -0.076657 0.000221
v 0.001200 -0.053817 0.020428
v 0.001200 -0.053817 -0.000220
v -0.008904 -0.054698 0.019549
v 0.001200 -0.070508 0.019986
v -0.008025 -0.076657 0.020428
v -0.008904 -0.054698 0.000221
v 0.001200 -0.070508 -0.000220
v -0.004072 -0.076657 0.000221
v -0.007586 -0.053819 0.020428
v -0.004072 -0.076657 0.019549
v -0.008904 -0.076657 0.019549
v -0.007586 -0.053819 -0.000220
v -0.008464 -0.076657 -0.000220
v 0.001200 -0.070070 0.020428
v -0.004949 -0.076657 0.020428
v -0.008025 -0.053819 0.019986
f 146 156 160 
f 146 145 148 
f 144 147 150 
f 146 148 151 
f 149 144 152 
f 151 148 152 
f 149 145 153 
f 147 149 153 
f 152 148 154 
f 149 152 154 
f 147 144 155 
f 149 147 155 
f 144 149 155 
f 146 151 156 
f 144 150 157 
f 152 144 157 
f 151 152 157 
f 150 156 157 
f 156 151 157 
f 148 145 158 
f 145 149 158 
f 154 148 158 
f 154 158 159 
f 149 154 159 
f 158 149 159 
f 145 146 160 
f 150 147 160 
f 153 145 160 
f 147 153 160 
f 156 150 160 
o convex_6
v 0.004277 -0.090720 0.000221
v 0.013501 -0.080616 0.020428
v 0.010864 -0.080616 0.020428
v 0.013501 -0.080616 -0.000220
v 0.001200 -0.085448 -0.000220
v 0.001640 -0.090720 0.019986
v 0.009547 -0.088522 0.019986
v 0.001200 -0.085448 0.019986
v 0.012621 -0.085448 -0.000220
v 0.001200 -0.090279 -0.000220
v 0.010426 -0.080616 -0.000220
v 0.013501 -0.083692 0.019986
v 0.009547 -0.088522 -0.000220
v 0.007351 -0.089839 0.019986
v 0.001200 -0.089839 0.020428
v 0.012621 -0.085448 0.019986
v 0.013501 -0.083692 0.000221
v 0.004277 -0.090720 0.019986
v 0.010426 -0.080616 0.019986
v 0.007351 -0.089839 0.000221
v 0.009547 -0.088082 0.020428
v 0.001640 -0.090720 0.000221
v 0.001200 -0.085887 0.020428
f 168 175 183 
f 163 162 164 
f 165 164 169 
f 168 165 170 
f 165 169 170 
f 163 164 171 
f 164 165 171 
f 165 168 171 
f 164 162 172 
f 169 167 173 
f 161 170 173 
f 170 169 173 
f 173 167 174 
f 162 163 175 
f 170 166 175 
f 168 170 175 
f 167 169 176 
f 172 162 176 
f 169 172 176 
f 169 164 177 
f 164 172 177 
f 172 169 177 
f 166 161 178 
f 161 174 178 
f 175 166 178 
f 168 163 179 
f 163 171 179 
f 171 168 179 
f 161 173 180 
f 174 161 180 
f 173 174 180 
f 174 167 181 
f 162 175 181 
f 176 162 181 
f 167 176 181 
f 178 174 181 
f 175 178 181 
f 161 166 182 
f 170 161 182 
f 166 170 182 
f 163 168 183 
f 175 163 183 
o convex_7
v 0.010426 -0.080610 -0.000220
v 0.013062 -0.053817 0.020428
v 0.001200 -0.053817 0.020428
v 0.010864 -0.080610 0.020428
v 0.013501 -0.053819 -0.000220
v 0.001200 -0.070509 -0.000220
v 0.001200 -0.053817 -0.000220
v 0.001200 -0.070509 0.019986
v 0.013501 -0.080610 0.020428
v 0.013501 -0.080610 -0.000220
v 0.013501 -0.053819 0.019986
v 0.010426 -0.080610 0.019986
v 0.001200 -0.070068 0.020428
f 195 187 196 
f 185 186 187 
f 188 184 189 
f 188 189 190 
f 186 185 190 
f 185 188 190 
f 189 186 190 
f 186 189 191 
f 189 184 191 
f 185 187 192 
f 187 184 192 
f 188 192 193 
f 184 188 193 
f 192 184 193 
f 188 185 194 
f 185 192 194 
f 192 188 194 
f 184 187 195 
f 191 184 195 
f 191 195 196 
f 187 186 196 
f 186 191 196 
