o convex_0
v -0.009538 -0.052867 -0.000199
v 0.006388 0.043903 0.020111
v 0.006786 0.043903 0.019709
v -0.007548 0.043903 -0.000199
v -0.009538 -0.023787 0.020111
v 0.004796 -0.052867 0.000200
v 0.004397 -0.052867 0.020111
v 0.006388 0.043903 -0.000199
v -0.007548 0.043903 0.020111
v -0.009538 -0.052867 0.020111
v 0.006786 0.015628 0.019709
v 0.006786 0.015628 0.000200
v -0.008742 0.017219 0.000200
v 0.005592 -0.035334 0.020111
v 0.005592 -0.035334 -0.000199
v -0.008742 0.017219 0.019709
v -0.009538 -0.023787 -0.000199
v 0.006786 0.043903 0.000200
v 0.004796 -0.052867 0.019709
v 0.004397 -0.052867 -0.000199
v -0.009538 -0.023389 0.000200
f 13 17 21 
f 2 3 4 
f 1 6 7 
f 2 5 7 
f 4 3 8 
f 1 4 8 
f 2 4 9 
f 5 2 9 
f 5 1 10 
f 1 7 10 
f 7 5 10 
f 3 2 11 
f 3 11 12 
f 9 4 13 
f 2 7 14 
f 11 2 14 
f 12 11 14 
f 12 14 15 
f 1 8 15 
f 8 12 15 
f 14 6 15 
f 5 9 16 
f 9 13 16 
f 4 1 17 
f 1 5 17 
f 13 4 17 
f 8 3 18 
f 3 12 18 
f 12 8 18 
f 7 6 19 
f 6 14 19 
f 14 7 19 
f 6 1 20 
f 1 15 20 
f 15 6 20 
f 5 16 21 
f 16 13 21 
f 17 5 21 
o convex_1
v 0.018335 0.076555 -0.000199
v 0.007586 0.089300 0.020111
v 0.007586 0.089699 0.019709
v 0.000018 0.043903 -0.000199
v 0.007586 0.045902 0.020111
v 0.003204 0.089300 0.000200
v 0.000018 0.070979 0.020111
v 0.018735 0.076555 0.019709
v 0.018735 0.067796 0.000200
v 0.000018 0.043903 0.020111
v 0.006789 0.043903 0.000200
v 0.011565 0.087700 0.000200
v 0.018735 0.067796 0.019709
v 0.000018 0.070979 -0.000199
v 0.003204 0.089300 0.019709
v 0.015547 0.083325 0.020111
v 0.015547 0.083325 -0.000199
v 0.006789 0.043903 0.019709
v 0.007586 0.089300 -0.000199
v 0.011565 0.087700 0.019709
v 0.007586 0.045902 -0.000199
v 0.018735 0.076555 0.000200
v 0.015547 0.083724 0.019709
v 0.018335 0.067397 0.020111
v 0.017538 0.079738 0.000200
v 0.003601 0.089699 0.000200
v 0.007586 0.089699 0.000200
v 0.015547 0.083724 0.000200
v 0.018335 0.067397 -0.000199
v 0.003601 0.089699 0.019709
v 0.017538 0.079738 0.019709
v 0.003601 0.089300 0.020111
v 0.003601 0.089300 -0.000199
f 47 40 54 
f 26 23 28 
f 28 25 31 
f 26 28 31 
f 31 25 32 
f 30 29 34 
f 32 30 34 
f 22 25 35 
f 25 28 35 
f 28 27 35 
f 27 28 36 
f 23 26 37 
f 22 35 38 
f 26 31 39 
f 31 32 39 
f 32 34 39 
f 33 38 40 
f 38 35 40 
f 24 23 41 
f 33 24 41 
f 23 37 41 
f 25 22 42 
f 32 25 42 
f 29 30 43 
f 30 22 43 
f 33 41 44 
f 41 37 44 
f 34 29 45 
f 37 26 45 
f 29 37 45 
f 26 39 45 
f 39 34 45 
f 22 38 46 
f 29 43 46 
f 43 22 46 
f 27 36 47 
f 40 47 48 
f 24 33 48 
f 33 40 48 
f 47 24 48 
f 38 33 49 
f 33 44 49 
f 46 38 49 
f 44 46 49 
f 22 30 50 
f 30 32 50 
f 42 22 50 
f 32 42 50 
f 23 24 51 
f 24 47 51 
f 47 36 51 
f 37 29 52 
f 44 37 52 
f 29 46 52 
f 46 44 52 
f 28 23 53 
f 36 28 53 
f 23 51 53 
f 51 36 53 
f 35 27 54 
f 40 35 54 
f 27 47 54 
o convex_2
v -0.012726 -0.087111 -0.000199
v -0.004364 -0.052867 0.020111
v -0.004364 -0.052867 -0.000199
v -0.017504 -0.071583 0.020111
v -0.005160 -0.089103 0.019709
v -0.010736 -0.053667 0.000200
v -0.005160 -0.089103 0.000200
v -0.017504 -0.071583 -0.000199
v -0.014716 -0.085518 0.019709
v -0.009939 -0.052867 0.020111
v -0.017504 -0.079545 0.000200
v -0.007549 -0.090299 0.020111
v -0.004364 -0.075560 -0.000199
v -0.017504 -0.079545 0.020111
v -0.004364 -0.075560 0.020111
v -0.007549 -0.090699 0.000200
v -0.010736 -0.053667 0.019709
v -0.012726 -0.087507 0.019709
v -0.014716 -0.085518 0.000200
v -0.009540 -0.052867 -0.000199
v -0.006355 -0.090299 -0.000199
v -0.007549 -0.090699 0.019709
v -0.012726 -0.087507 0.000200
v -0.006753 -0.090699 0.019709
v -0.016707 -0.081537 0.000200
v -0.017504 -0.079149 -0.000199
v -0.016707 -0.081537 0.019709
v -0.009540 -0.089499 0.020111
f 72 77 82 
f 57 55 62 
f 58 60 62 
f 56 57 64 
f 58 56 64 
f 58 62 65 
f 56 58 66 
f 55 57 67 
f 57 56 67 
f 59 61 67 
f 58 65 68 
f 66 58 68 
f 56 66 69 
f 66 59 69 
f 67 56 69 
f 59 67 69 
f 60 58 71 
f 58 64 71 
f 64 60 71 
f 72 63 73 
f 57 62 74 
f 62 60 74 
f 64 57 74 
f 60 64 74 
f 55 67 75 
f 67 61 75 
f 70 55 75 
f 55 70 77 
f 73 55 77 
f 72 73 77 
f 61 59 78 
f 59 66 78 
f 75 61 78 
f 70 75 78 
f 76 70 78 
f 66 76 78 
f 68 65 79 
f 73 63 79 
f 73 79 80 
f 62 55 80 
f 65 62 80 
f 55 73 80 
f 79 65 80 
f 63 68 81 
f 68 79 81 
f 79 63 81 
f 68 63 82 
f 66 68 82 
f 63 72 82 
f 70 76 82 
f 76 66 82 
f 77 70 82 
o convex_3
v -0.009541 0.052268 0.000200
v -0.011531 0.085316 0.020111
v -0.011531 0.085717 0.019709
v -0.018698 0.069786 0.000200
v -0.017504 0.064614 0.020111
v -0.011134 0.085316 0.000200
v -0.008745 0.052268 0.020111
v -0.017504 0.081731 0.019709
v -0.008745 0.073368 -0.000199
v -0.017504 0.081333 -0.000199
v -0.008745 0.073765 0.020111
v -0.017504 0.064614 -0.000199
v -0.018698 0.077351 0.019709
v -0.014318 0.085717 0.000200
v -0.008745 0.052268 -0.000199
v -0.014318 0.085717 0.019709
v -0.009541 0.052268 0.019709
v -0.018698 0.077351 0.000200
v -0.009142 0.077351 0.019709
v -0.018698 0.069786 0.019709
v -0.017504 0.064216 0.019709
v -0.009142 0.077351 0.000200
v -0.017504 0.064216 0.000200
v -0.017504 0.081333 0.020111
v -0.011134 0.085316 0.019709
v -0.011531 0.085316 -0.000199
v -0.017504 0.081731 0.000200
v -0.011531 0.085717 0.000200
v -0.008745 0.051867 0.019709
v -0.014716 0.085316 0.019709
f 96 109 112 
f 84 87 89 
f 84 89 93 
f 89 91 93 
f 86 92 94 
f 92 91 94 
f 91 89 97 
f 83 94 97 
f 94 91 97 
f 84 85 98 
f 85 96 98 
f 89 87 99 
f 92 86 100 
f 86 95 100 
f 95 90 100 
f 84 93 101 
f 95 86 102 
f 87 95 102 
f 83 99 103 
f 99 87 103 
f 102 86 103 
f 87 102 103 
f 93 91 104 
f 88 101 104 
f 101 93 104 
f 94 83 105 
f 86 94 105 
f 83 103 105 
f 103 86 105 
f 87 84 106 
f 95 87 106 
f 90 95 106 
f 84 98 106 
f 85 84 107 
f 88 85 107 
f 84 101 107 
f 101 88 107 
f 91 92 108 
f 92 96 108 
f 88 104 108 
f 104 91 108 
f 96 92 109 
f 92 100 109 
f 100 90 109 
f 85 88 110 
f 96 85 110 
f 88 108 110 
f 108 96 110 
f 83 97 111 
f 97 89 111 
f 99 83 111 
f 89 99 111 
f 98 96 112 
f 90 106 112 
f 106 98 112 
f 109 90 112 
o convex_4
v -0.007548 0.043903 -0.000199
v -0.008345 0.073372 0.020111
v -0.008345 0.073372 0.000200
v 0.000018 0.070579 -0.000199
v 0.000018 0.043906 0.020111
v -0.008743 0.047488 0.019709
v 0.000018 0.070579 0.020111
v 0.000018 0.043906 -0.000199
v -0.008743 0.051870 -0.000199
v -0.007548 0.043903 0.020111
v -0.008743 0.072971 -0.000199
v -0.008743 0.073372 0.020111
v -0.008743 0.047488 0.000200
f 118 121 125 
f 115 114 116 
f 116 114 119 
f 117 116 119 
f 114 117 119 
f 113 116 120 
f 117 113 120 
f 116 117 120 
f 116 113 121 
f 113 117 122 
f 117 114 122 
f 118 113 122 
f 115 116 123 
f 116 121 123 
f 121 118 123 
f 114 115 124 
f 122 114 124 
f 118 122 124 
f 115 123 124 
f 123 118 124 
f 113 118 125 
f 121 113 125 
o convex_5
v -0.004363 -0.075566 -0.000199
v 0.002805 -0.052867 0.020111
v 0.002805 -0.052867 -0.000199
v -0.004363 -0.052867 0.020111
v 0.002805 -0.075566 0.020111
v -0.004363 -0.052867 -0.000199
v 0.002805 -0.075566 -0.000199
v -0.004363 -0.075566 0.020111
f 130 129 133 
f 127 128 129 
f 128 127 130 
f 127 129 130 
f 128 126 131 
f 129 128 131 
f 126 129 131 
f 126 128 132 
f 130 126 132 
f 128 130 132 
f 129 126 133 
f 126 130 133 
o convex_6
v 0.008380 -0.086316 -0.000199
v 0.004399 -0.052867 0.020111
v 0.002805 -0.052867 0.020111
v 0.007584 -0.086316 0.020111
v 0.011566 -0.070388 0.019709
v 0.004797 -0.052867 0.000200
v 0.002805 -0.075962 0.000200
v 0.011566 -0.070786 -0.000199
v 0.002805 -0.075564 0.020111
v 0.011566 -0.081140 0.020111
v 0.002805 -0.052867 -0.000199
v 0.011566 -0.081538 0.000200
v 0.006390 -0.086313 0.000200
v 0.006390 -0.086313 0.020111
v 0.009575 -0.085517 0.019709
v 0.004797 -0.052867 0.019709
v 0.008380 -0.086717 0.000200
v 0.002805 -0.075564 -0.000199
v 0.011566 -0.070388 0.000200
v 0.009575 -0.085517 0.000200
v 0.005195 -0.083128 0.019709
v 0.008380 -0.086717 0.019709
v 0.011566 -0.070786 0.020111
v 0.006788 -0.086717 0.000200
v 0.005195 -0.083128 0.000200
v 0.002805 -0.075962 0.019709
v 0.011566 -0.081538 0.019709
v 0.011566 -0.081140 -0.000199
v 0.006788 -0.086717 0.019709
f 157 155 162 
f 135 136 137 
f 136 135 139 
f 137 136 142 
f 136 140 142 
f 135 137 143 
f 141 138 143 
f 136 139 144 
f 140 136 144 
f 141 134 144 
f 139 141 144 
f 141 143 145 
f 137 142 147 
f 143 137 148 
f 139 135 149 
f 138 139 149 
f 140 144 151 
f 144 134 151 
f 134 146 151 
f 139 138 152 
f 138 141 152 
f 141 139 152 
f 145 148 153 
f 150 134 153 
f 148 150 153 
f 147 142 154 
f 146 147 154 
f 148 137 155 
f 150 148 155 
f 135 143 156 
f 143 138 156 
f 149 135 156 
f 138 149 156 
f 146 134 157 
f 147 146 157 
f 134 150 157 
f 150 155 157 
f 140 151 158 
f 151 146 158 
f 154 140 158 
f 146 154 158 
f 142 140 159 
f 140 154 159 
f 154 142 159 
f 145 143 160 
f 143 148 160 
f 148 145 160 
f 134 141 161 
f 141 145 161 
f 153 134 161 
f 145 153 161 
f 137 147 162 
f 155 137 162 
f 147 157 162 
