o convex_0
v 0.005541 -0.052491 -0.000197
v 0.007117 0.043220 0.020284
v -0.007455 0.043220 0.020284
v -0.007455 -0.052491 0.020284
v -0.007455 0.043220 -0.000197
v 0.007511 0.043220 -0.000197
v -0.007850 -0.052491 0.000198
v 0.005541 -0.052491 0.019890
v 0.006723 -0.026484 0.019890
v -0.007850 0.043220 0.019890
v 0.006723 -0.026484 0.000198
v 0.007511 0.026272 0.019890
v -0.007850 -0.052491 0.019890
v -0.007850 0.043220 0.000198
v 0.005147 -0.052491 0.020284
v -0.007455 -0.052491 -0.000197
v 0.007511 0.026675 -0.000197
v 0.007511 0.043220 0.019890
v 0.006329 -0.026484 0.020284
f 15 9 19 
f 2 3 4 
f 3 2 5 
f 1 5 6 
f 5 2 6 
f 1 4 7 
f 4 1 8 
f 8 1 9 
f 4 3 10 
f 3 5 10 
f 9 1 11 
f 9 11 12 
f 7 4 13 
f 4 10 13 
f 10 7 13 
f 5 7 14 
f 10 5 14 
f 7 10 14 
f 2 4 15 
f 4 8 15 
f 8 9 15 
f 5 1 16 
f 1 7 16 
f 7 5 16 
f 1 6 17 
f 11 1 17 
f 12 11 17 
f 6 12 17 
f 6 2 18 
f 2 12 18 
f 12 6 18 
f 9 12 19 
f 12 2 19 
f 2 15 19 
o convex_1
v -0.008638 -0.053673 0.000198
v 0.006723 -0.054461 0.019890
v 0.006723 -0.060763 0.019890
v -0.008638 -0.053673 0.019890
v 0.005541 -0.052491 -0.000197
v -0.008638 -0.060763 0.000198
v 0.006723 -0.060763 0.000198
v -0.008244 -0.060763 0.020284
v -0.007456 -0.052491 0.020284
v 0.005147 -0.052491 0.020284
v -0.007456 -0.052491 -0.000197
v 0.006723 -0.054461 0.000198
v -0.008244 -0.060763 -0.000197
v -0.008638 -0.060763 0.019890
v 0.006329 -0.060763 0.020284
v 0.006329 -0.060763 -0.000197
v -0.007850 -0.052491 0.000198
v 0.005541 -0.052491 0.019890
f 24 29 37 
f 23 20 25 
f 21 22 26 
f 22 25 26 
f 25 22 27 
f 23 27 28 
f 28 27 29 
f 24 28 29 
f 28 24 30 
f 24 21 31 
f 21 26 31 
f 25 20 32 
f 26 25 32 
f 20 30 32 
f 30 24 32 
f 23 25 33 
f 27 23 33 
f 25 27 33 
f 22 21 34 
f 27 22 34 
f 29 27 34 
f 21 29 34 
f 24 31 35 
f 31 26 35 
f 32 24 35 
f 26 32 35 
f 20 23 36 
f 23 28 36 
f 30 20 36 
f 28 30 36 
f 21 24 37 
f 29 21 37 
o convex_2
v -0.017302 0.067640 -0.000197
v -0.011789 0.085363 0.020284
v -0.011789 0.085755 0.019890
v -0.007850 0.048343 -0.000197
v -0.010608 0.084575 -0.000197
v -0.007850 0.048735 0.020284
v -0.017695 0.079452 0.019890
v -0.007850 0.073940 0.019890
v -0.017695 0.067640 0.019890
v -0.017695 0.079452 0.000198
v -0.007850 0.073544 -0.000197
v -0.013364 0.085755 0.000198
v -0.008639 0.048735 0.000198
v -0.015726 0.083392 0.019890
v -0.008639 0.048735 0.019890
v -0.010214 0.084180 0.019890
v -0.017695 0.067640 0.000198
v -0.017302 0.067640 0.020284
v -0.008245 0.076302 0.000198
v -0.015726 0.083392 0.000198
v -0.013364 0.085755 0.019890
v -0.010214 0.084180 0.000198
v -0.007850 0.073544 0.020284
v -0.016515 0.081422 -0.000197
v -0.011789 0.085755 0.000198
v -0.008245 0.076302 0.019890
v -0.017302 0.079452 0.020284
f 44 55 64 
f 41 38 42 
f 43 41 45 
f 46 44 47 
f 41 42 48 
f 45 41 48 
f 38 41 50 
f 47 44 51 
f 41 43 52 
f 50 41 52 
f 46 50 52 
f 40 39 53 
f 42 40 53 
f 46 47 54 
f 47 38 54 
f 38 50 54 
f 50 46 54 
f 43 39 55 
f 44 46 55 
f 52 43 55 
f 46 52 55 
f 48 42 56 
f 45 48 56 
f 47 51 57 
f 51 49 57 
f 39 40 58 
f 40 49 58 
f 51 39 58 
f 49 51 58 
f 42 53 59 
f 56 42 59 
f 53 56 59 
f 39 43 60 
f 43 45 60 
f 53 39 60 
f 42 38 61 
f 38 47 61 
f 49 42 61 
f 47 57 61 
f 57 49 61 
f 40 42 62 
f 49 40 62 
f 42 49 62 
f 45 56 63 
f 56 53 63 
f 60 45 63 
f 53 60 63 
f 39 51 64 
f 51 44 64 
f 55 39 64 
o convex_3
v -0.007850 0.047952 -0.000197
v -0.007456 0.073153 0.020284
v -0.007456 0.073548 0.019890
v 0.001997 0.043220 -0.000197
v -0.007456 0.043220 0.020284
v 0.001997 0.071577 0.019890
v 0.001997 0.071577 -0.000197
v 0.001997 0.043220 0.020284
v -0.007850 0.073153 -0.000197
v -0.007850 0.043220 0.000198
v -0.007850 0.073153 0.020284
v -0.007850 0.043220 0.019890
v 0.001997 0.071182 0.020284
v -0.007456 0.073548 0.000198
v -0.007456 0.043220 -0.000197
f 68 74 79 
f 67 66 70 
f 70 68 71 
f 68 65 71 
f 67 70 71 
f 69 68 72 
f 66 69 72 
f 68 70 72 
f 71 65 73 
f 68 69 74 
f 73 65 74 
f 73 74 75 
f 66 67 75 
f 69 66 75 
f 67 73 75 
f 69 75 76 
f 74 69 76 
f 75 74 76 
f 70 66 77 
f 66 72 77 
f 72 70 77 
f 67 71 78 
f 73 67 78 
f 71 73 78 
f 65 68 79 
f 74 65 79 
o convex_4
v 0.010662 0.056613 0.000198
v 0.007511 0.089301 0.020284
v 0.007511 0.089697 0.019890
v 0.001997 0.043220 -0.000197
v 0.007116 0.043220 0.020284
v 0.003573 0.089301 -0.000197
v 0.001997 0.071577 0.020284
v 0.010661 0.087331 0.019890
v 0.010661 0.086935 -0.000197
v 0.001997 0.043220 0.020284
v 0.010662 0.057801 0.020284
v 0.007511 0.043220 -0.000197
v 0.003179 0.089301 0.019890
v 0.001997 0.071972 -0.000197
v 0.008692 0.045586 0.019890
v 0.007511 0.089697 0.000198
v 0.009873 0.050704 0.000198
v 0.003179 0.089301 0.000198
v 0.009873 0.050704 0.019890
v 0.008692 0.045586 0.000198
v 0.003573 0.089697 0.000198
v 0.009480 0.088514 0.000198
v 0.010662 0.057801 -0.000197
v 0.010661 0.086935 0.020284
v 0.003573 0.089697 0.019890
v 0.003573 0.089301 0.020284
v 0.009480 0.088514 0.019890
v 0.007511 0.043220 0.019890
v 0.010662 0.056613 0.019890
f 90 98 108 
f 84 81 86 
f 83 85 88 
f 83 84 89 
f 86 83 89 
f 84 86 89 
f 81 84 90 
f 84 83 91 
f 83 88 91 
f 86 92 93 
f 85 83 93 
f 83 86 93 
f 90 84 94 
f 88 85 95 
f 93 92 97 
f 85 93 97 
f 90 94 98 
f 96 80 98 
f 94 96 98 
f 94 91 99 
f 91 96 99 
f 96 94 99 
f 82 95 100 
f 95 85 100 
f 97 92 100 
f 85 97 100 
f 87 88 101 
f 95 82 101 
f 88 95 101 
f 88 87 102 
f 90 80 102 
f 87 90 102 
f 91 88 102 
f 80 96 102 
f 96 91 102 
f 81 90 103 
f 90 87 103 
f 81 82 104 
f 82 100 104 
f 100 92 104 
f 86 81 105 
f 92 86 105 
f 81 104 105 
f 104 92 105 
f 82 81 106 
f 101 82 106 
f 87 101 106 
f 81 103 106 
f 103 87 106 
f 84 91 107 
f 94 84 107 
f 91 94 107 
f 80 90 108 
f 98 80 108 
o convex_5
v 0.017357 0.065675 -0.000197
v 0.011057 0.086540 0.020284
v 0.011057 0.086937 0.019890
v 0.010662 0.058193 -0.000197
v 0.016175 0.063310 0.020284
v 0.010662 0.086540 -0.000197
v 0.017751 0.079452 0.019890
v 0.010662 0.058193 0.020284
v 0.016570 0.082607 0.000198
v 0.018539 0.070795 -0.000197
v 0.018539 0.070401 0.019890
v 0.012632 0.086540 0.019890
v 0.016569 0.063310 0.000198
v 0.010662 0.086540 0.020284
v 0.017751 0.065675 0.019890
v 0.011057 0.057799 0.019890
v 0.012632 0.086540 0.000198
v 0.016570 0.082607 0.019890
v 0.017751 0.079452 0.000198
v 0.018539 0.073547 0.019890
v 0.011057 0.057799 0.000198
v 0.017751 0.065675 0.000198
v 0.016569 0.063310 0.019890
v 0.017357 0.079452 0.020284
v 0.018539 0.073154 -0.000197
v 0.016570 0.082210 -0.000197
v 0.010662 0.086937 0.000198
v 0.018145 0.070401 0.020284
f 128 132 136 
f 109 112 114 
f 113 110 116 
f 114 112 116 
f 109 114 118 
f 111 110 120 
f 112 109 121 
f 110 111 122 
f 116 110 122 
f 114 116 122 
f 116 112 124 
f 113 116 124 
f 111 120 125 
f 120 117 125 
f 115 117 126 
f 120 110 126 
f 117 120 126 
f 117 115 127 
f 119 118 128 
f 127 115 128 
f 112 121 129 
f 124 112 129 
f 121 124 129 
f 109 118 130 
f 118 119 130 
f 121 109 130 
f 119 123 130 
f 123 121 130 
f 123 113 131 
f 121 123 131 
f 113 124 131 
f 124 121 131 
f 110 113 132 
f 126 110 132 
f 115 126 132 
f 128 115 132 
f 118 114 133 
f 128 118 133 
f 127 128 133 
f 114 125 134 
f 125 117 134 
f 117 127 134 
f 133 114 134 
f 127 133 134 
f 122 111 135 
f 114 122 135 
f 111 125 135 
f 125 114 135 
f 113 123 136 
f 123 119 136 
f 119 128 136 
f 132 113 136 
o convex_6
v -0.009425 -0.061551 -0.000197
v 0.008693 -0.063520 0.019890
v 0.008693 -0.065095 0.019890
v -0.010607 -0.065095 0.019890
v 0.008298 -0.065095 -0.000197
v 0.006329 -0.060763 0.020284
v 0.006722 -0.060763 -0.000197
v -0.009032 -0.060763 0.019890
v -0.010607 -0.065095 -0.000197
v -0.009032 -0.060763 0.000198
v 0.008693 -0.063520 0.000198
v -0.010607 -0.063520 0.019890
v -0.010212 -0.065095 0.020284
v -0.009819 -0.061551 0.000198
v 0.007510 -0.061551 0.019890
v 0.008298 -0.065095 0.020284
v -0.008637 -0.060763 0.020284
v -0.010607 -0.063520 0.000198
v -0.009819 -0.061551 0.019890
v 0.007510 -0.061551 -0.000197
v 0.008693 -0.065095 0.000198
f 141 147 157 
f 139 140 141 
f 141 137 143 
f 142 143 144 
f 137 141 145 
f 141 140 145 
f 143 137 146 
f 144 143 146 
f 138 139 147 
f 145 140 148 
f 140 139 149 
f 148 140 149 
f 146 137 150 
f 144 146 150 
f 142 138 151 
f 143 142 151 
f 138 147 151 
f 139 138 152 
f 138 142 152 
f 149 139 152 
f 142 149 152 
f 142 144 153 
f 149 142 153 
f 148 149 153 
f 137 145 154 
f 145 148 154 
f 150 137 154 
f 148 150 154 
f 144 150 155 
f 150 148 155 
f 153 144 155 
f 148 153 155 
f 141 143 156 
f 147 141 156 
f 143 151 156 
f 151 147 156 
f 139 141 157 
f 147 139 157 
o convex_7
v -0.002336 -0.089909 0.000198
v 0.000027 -0.089515 0.019890
v -0.000367 -0.089515 0.020284
v -0.000761 -0.090697 0.019890
v 0.000027 -0.089909 -0.000197
v -0.002336 -0.089515 0.019890
v -0.001548 -0.090697 0.000198
v -0.001942 -0.089515 -0.000197
v -0.001548 -0.090697 0.019890
v 0.000027 -0.089515 -0.000197
v -0.000761 -0.090697 0.000198
f 161 164 168 
f 159 160 161 
f 159 161 162 
f 160 159 163 
f 163 159 165 
f 158 163 165 
f 164 158 165 
f 162 164 165 
f 161 160 166 
f 160 163 166 
f 163 158 166 
f 158 164 166 
f 164 161 166 
f 159 162 167 
f 165 159 167 
f 162 165 167 
f 162 161 168 
f 164 162 168 
o convex_8
v -0.013363 -0.083608 -0.000197
v -0.004700 -0.083608 0.020284
v -0.004700 -0.089120 0.020284
v -0.014546 -0.081639 0.019890
v -0.008245 -0.079668 0.000198
v -0.004700 -0.089515 -0.000197
v -0.008245 -0.088727 0.019890
v -0.008638 -0.079668 0.020284
v -0.014546 -0.079668 -0.000197
v -0.004700 -0.083608 -0.000197
v -0.008245 -0.088727 0.000198
v -0.014151 -0.079668 0.020284
v -0.013757 -0.083214 0.019890
v -0.004700 -0.083214 0.019890
v -0.014546 -0.081639 0.000198
v -0.005489 -0.089515 0.019890
v -0.004700 -0.083214 0.000198
v -0.008245 -0.079668 0.019890
v -0.013363 -0.083214 0.020284
v -0.014546 -0.079668 0.019890
v -0.005489 -0.089515 0.000198
f 184 179 189 
f 170 171 174 
f 171 170 176 
f 176 173 177 
f 174 169 177 
f 174 177 178 
f 170 174 178 
f 177 173 178 
f 169 174 179 
f 175 169 179 
f 171 176 180 
f 176 177 180 
f 169 175 181 
f 176 170 182 
f 170 178 182 
f 177 169 183 
f 172 177 183 
f 169 181 183 
f 181 172 183 
f 174 171 184 
f 171 175 184 
f 175 179 184 
f 178 173 185 
f 173 182 185 
f 182 178 185 
f 173 176 186 
f 176 182 186 
f 182 173 186 
f 175 171 187 
f 171 180 187 
f 180 172 187 
f 172 181 187 
f 181 175 187 
f 177 172 188 
f 172 180 188 
f 180 177 188 
f 179 174 189 
f 174 184 189 
o convex_9
v 0.002392 -0.089120 0.020284
v 0.011840 -0.079668 0.019890
v 0.011447 -0.079668 0.020284
v -0.004696 -0.083608 -0.000197
v 0.007510 -0.087545 0.000198
v -0.004696 -0.083214 0.019890
v 0.011840 -0.079668 -0.000197
v -0.004696 -0.089515 -0.000197
v 0.005146 -0.079668 0.000198
v -0.004696 -0.089515 0.019890
v 0.009872 -0.085181 0.019890
v 0.005541 -0.079668 0.020284
v 0.002392 -0.089515 -0.000197
v 0.011840 -0.082426 0.000198
v 0.005541 -0.088727 0.019890
v 0.011840 -0.082426 0.019890
v 0.002392 -0.089515 0.019890
v -0.004696 -0.083214 0.000198
v -0.004696 -0.083608 0.020284
v 0.005541 -0.088727 0.000198
v 0.009872 -0.085181 0.000198
v 0.007510 -0.087545 0.019890
v 0.005146 -0.079668 0.019890
v 0.009478 -0.085181 0.020284
v 0.009478 -0.085181 -0.000197
v -0.004696 -0.089120 0.020284
f 208 199 215 
f 192 191 196 
f 195 193 197 
f 193 196 197 
f 196 193 198 
f 192 196 198 
f 195 197 199 
f 190 192 201 
f 192 198 201 
f 197 196 202 
f 199 197 202 
f 196 191 203 
f 191 192 205 
f 203 191 205 
f 200 203 205 
f 190 199 206 
f 199 202 206 
f 204 190 206 
f 202 204 206 
f 193 195 207 
f 195 198 207 
f 198 193 207 
f 195 199 208 
f 190 201 208 
f 201 195 208 
f 202 194 209 
f 194 204 209 
f 204 202 209 
f 200 194 210 
f 203 200 210 
f 194 200 211 
f 204 194 211 
f 198 195 212 
f 195 201 212 
f 201 198 212 
f 192 190 213 
f 190 204 213 
f 205 192 213 
f 200 205 213 
f 211 200 213 
f 204 211 213 
f 194 202 214 
f 202 196 214 
f 196 203 214 
f 210 194 214 
f 203 210 214 
f 199 190 215 
f 190 208 215 
o convex_10
v -0.014545 -0.071792 0.019890
v -0.014545 -0.079668 -0.000197
v -0.008639 -0.079668 -0.000197
v -0.014151 -0.079668 0.020284
v -0.008244 -0.071792 -0.000197
v -0.008244 -0.071792 0.019890
v -0.008244 -0.079668 0.019890
v -0.014545 -0.071792 -0.000197
v -0.015727 -0.077305 0.019890
v -0.015727 -0.074549 0.000198
v -0.015727 -0.074549 0.019890
v -0.015727 -0.077305 0.000198
v -0.008244 -0.079668 0.000198
v -0.008639 -0.071792 0.020284
v -0.014151 -0.071792 0.020284
v -0.014545 -0.079668 0.019890
v -0.008639 -0.079668 0.020284
f 222 229 232 
f 217 218 219 
f 218 217 220 
f 220 216 221 
f 219 218 222 
f 220 221 222 
f 216 220 223 
f 220 217 223 
f 223 217 225 
f 216 223 225 
f 225 224 226 
f 224 219 226 
f 216 225 226 
f 217 224 227 
f 225 217 227 
f 224 225 227 
f 218 220 228 
f 222 218 228 
f 220 222 228 
f 221 216 229 
f 222 221 229 
f 216 226 230 
f 226 219 230 
f 229 216 230 
f 219 229 230 
f 217 219 231 
f 224 217 231 
f 219 224 231 
f 219 222 232 
f 229 219 232 
o convex_11
v -0.014546 -0.070609 0.019890
v -0.002730 -0.065095 0.020284
v -0.010605 -0.065095 0.020284
v -0.002730 -0.065095 -0.000197
v -0.007851 -0.071791 -0.000197
v -0.012575 -0.066671 -0.000197
v -0.002730 -0.068640 0.019890
v -0.014546 -0.071791 -0.000197
v -0.008246 -0.071791 0.020284
v -0.002730 -0.068640 0.000198
v -0.011000 -0.065095 -0.000197
v -0.014152 -0.071791 0.020284
v -0.012575 -0.066671 0.019890
v -0.013757 -0.068640 0.000198
v -0.007851 -0.071791 0.019890
v -0.014546 -0.070609 -0.000197
v -0.013757 -0.068640 0.019890
v -0.011000 -0.065095 0.019890
f 243 245 250 
f 235 234 236 
f 236 237 238 
f 236 234 239 
f 238 237 240 
f 234 235 241 
f 239 234 241 
f 240 237 241 
f 237 236 242 
f 236 239 242 
f 239 237 242 
f 235 236 243 
f 236 238 243 
f 233 240 244 
f 241 235 244 
f 240 241 244 
f 243 238 245 
f 245 238 246 
f 237 239 247 
f 239 241 247 
f 241 237 247 
f 240 233 248 
f 238 240 248 
f 233 246 248 
f 246 238 248 
f 233 244 249 
f 244 235 249 
f 235 245 249 
f 246 233 249 
f 245 246 249 
f 235 243 250 
f 245 235 250 
o convex_12
v 0.011449 -0.071792 0.020284
v 0.005542 -0.079668 -0.000197
v 0.012237 -0.079668 -0.000197
v 0.005542 -0.071792 -0.000197
v 0.005148 -0.079668 0.019890
v 0.012631 -0.079274 0.019890
v 0.012631 -0.072580 0.000198
v 0.005148 -0.071792 0.019890
v 0.012631 -0.072580 0.019890
v 0.005148 -0.071792 0.000198
v 0.011449 -0.071792 -0.000197
v 0.011843 -0.079668 0.020284
v 0.005148 -0.079668 0.000198
v 0.012631 -0.079274 0.000198
v 0.005542 -0.079668 0.020284
v 0.005542 -0.071792 0.020284
v 0.011843 -0.071792 0.019890
f 257 261 267 
f 253 252 254 
f 252 253 255 
f 251 254 258 
f 256 257 259 
f 254 252 260 
f 258 254 260 
f 255 258 260 
f 253 254 261 
f 254 251 261 
f 257 253 261 
f 255 253 262 
f 253 256 262 
f 259 251 262 
f 256 259 262 
f 252 255 263 
f 260 252 263 
f 255 260 263 
f 256 253 264 
f 253 257 264 
f 257 256 264 
f 258 255 265 
f 262 251 265 
f 255 262 265 
f 251 258 266 
f 265 251 266 
f 258 265 266 
f 251 259 267 
f 259 257 267 
f 261 251 267 
o convex_13
v -0.002728 -0.068246 -0.000197
v 0.011842 -0.068640 0.019890
v 0.011842 -0.071791 0.019890
v -0.002728 -0.068246 0.020284
v 0.009085 -0.065095 0.000198
v 0.011447 -0.071791 -0.000197
v -0.002728 -0.065095 0.020284
v 0.004754 -0.071791 0.019890
v 0.008692 -0.065095 0.020284
v -0.002728 -0.065095 -0.000197
v 0.004754 -0.071791 0.000198
v 0.011842 -0.068640 0.000198
v -0.002728 -0.068640 0.000198
v -0.002728 -0.068640 0.019890
v 0.011447 -0.071791 0.020284
v 0.009872 -0.065884 0.019890
v 0.008692 -0.065095 -0.000197
v 0.011842 -0.071791 0.000198
v 0.009872 -0.065884 0.000198
f 279 284 286 
f 268 271 274 
f 273 270 275 
f 274 271 276 
f 272 274 276 
f 273 268 277 
f 268 274 277 
f 274 272 277 
f 268 273 278 
f 273 275 278 
f 269 270 279 
f 271 268 280 
f 268 278 280 
f 278 275 280 
f 275 271 281 
f 271 280 281 
f 280 275 281 
f 270 269 282 
f 275 270 282 
f 271 275 282 
f 269 276 282 
f 276 271 282 
f 276 269 283 
f 272 276 283 
f 269 279 283 
f 277 272 284 
f 273 277 284 
f 279 273 284 
f 270 273 285 
f 279 270 285 
f 273 279 285 
f 272 283 286 
f 283 279 286 
f 284 272 286 
