o convex_0
v 0.010986 0.083435 0.020091
v -0.012180 0.070774 0.000182
v -0.011817 0.070774 -0.000181
v 0.004108 0.051223 0.020091
v 0.011347 0.063895 0.000182
v -0.011817 0.081628 0.020091
v 0.000848 0.090681 0.000182
v -0.004215 0.051223 0.000182
v -0.010008 0.061362 0.019728
v 0.010986 0.083076 -0.000181
v -0.000958 0.090681 0.019728
v -0.009284 0.086336 0.000182
v 0.011347 0.063895 0.019728
v 0.003747 0.051223 -0.000181
v -0.003852 0.051223 0.020091
v 0.007728 0.087784 0.019728
v 0.012073 0.080179 0.020091
v -0.010008 0.061362 0.000182
v -0.011817 0.081265 -0.000181
v -0.007836 0.087784 0.019728
v -0.012180 0.070774 0.019728
v 0.007728 0.087784 0.000182
v -0.004940 0.089592 0.000182
v 0.012073 0.072582 0.000182
v 0.005193 0.052671 0.000182
v -0.012180 0.081265 0.000182
v 0.012073 0.080542 0.000182
v -0.011093 0.064618 0.020091
v 0.003747 0.089592 0.020091
v -0.005300 0.052671 0.019728
v 0.012073 0.072582 0.020091
v 0.009174 0.059550 0.019728
v -0.012180 0.081265 0.019728
v -0.004576 0.089592 0.020091
v -0.000958 0.090318 -0.000181
v 0.009177 0.086336 0.000182
v -0.004940 0.052671 -0.000181
v -0.011093 0.064618 0.000182
v -0.009284 0.086336 0.019728
v 0.010986 0.063895 -0.000181
v 0.004108 0.089592 0.000182
v -0.005300 0.052671 0.000182
v 0.011347 0.083076 0.000182
v 0.009174 0.059550 0.000182
v 0.000848 0.090681 0.019728
v -0.000958 0.090681 0.000182
v 0.009177 0.086336 0.019728
v 0.005193 0.052671 0.019728
v -0.007836 0.087784 0.000182
v -0.011093 0.083435 0.019728
v 0.011347 0.083076 0.019728
v -0.009284 0.059913 0.019728
v -0.004940 0.089592 0.019728
v 0.004108 0.089592 0.019728
v 0.010986 0.063536 0.020091
v -0.011093 0.083435 0.000182
v -0.007836 0.087421 -0.000181
v 0.007728 0.087417 -0.000181
v -0.010008 0.061725 -0.000181
v -0.009284 0.059913 0.000182
v 0.004108 0.051223 0.000182
v -0.004215 0.051223 0.019728
v 0.011710 0.072582 -0.000181
f 24 40 63 
f 4 1 6 
f 4 8 14 
f 3 10 14 
f 4 6 15 
f 8 4 15 
f 1 4 17 
f 3 2 19 
f 10 3 19 
f 13 5 24 
f 19 2 26 
f 2 21 26 
f 17 24 27 
f 15 6 28 
f 18 9 28 
f 21 2 28 
f 6 21 28 
f 6 1 29 
f 1 16 29 
f 17 4 31 
f 13 24 31 
f 24 17 31 
f 5 13 32 
f 21 6 33 
f 26 21 33 
f 6 29 34 
f 29 11 34 
f 10 19 35 
f 22 16 36 
f 3 14 37 
f 14 8 37 
f 2 3 38 
f 28 2 38 
f 18 28 38 
f 20 12 39 
f 6 34 39 
f 34 20 39 
f 14 10 40 
f 24 5 40 
f 16 22 41 
f 8 30 42 
f 37 8 42 
f 27 10 43 
f 10 36 43 
f 25 14 44 
f 5 32 44 
f 32 25 44 
f 14 40 44 
f 40 5 44 
f 7 11 45 
f 11 29 45 
f 41 7 45 
f 11 7 46 
f 23 11 46 
f 7 35 46 
f 35 23 46 
f 16 1 47 
f 36 16 47 
f 43 36 47 
f 4 25 48 
f 32 4 48 
f 25 32 48 
f 12 20 49 
f 20 23 49 
f 33 6 50 
f 26 33 50 
f 39 12 50 
f 6 39 50 
f 1 17 51 
f 17 27 51 
f 27 43 51 
f 47 1 51 
f 43 47 51 
f 9 18 52 
f 15 28 52 
f 28 9 52 
f 30 15 52 
f 42 30 52 
f 11 23 53 
f 23 20 53 
f 20 34 53 
f 34 11 53 
f 29 16 54 
f 16 41 54 
f 45 29 54 
f 41 45 54 
f 31 4 55 
f 13 31 55 
f 4 32 55 
f 32 13 55 
f 12 19 56 
f 19 26 56 
f 50 12 56 
f 26 50 56 
f 19 12 57 
f 35 19 57 
f 23 35 57 
f 12 49 57 
f 49 23 57 
f 10 35 58 
f 35 7 58 
f 36 10 58 
f 22 36 58 
f 41 22 58 
f 7 41 58 
f 3 37 59 
f 38 3 59 
f 18 38 59 
f 37 42 59 
f 59 42 60 
f 52 18 60 
f 42 52 60 
f 18 59 60 
f 4 14 61 
f 25 4 61 
f 14 25 61 
f 8 15 62 
f 30 8 62 
f 15 30 62 
f 10 27 63 
f 27 24 63 
f 40 10 63 
o convex_1
v 0.005918 -0.090307 -0.000181
v 0.004470 -0.011041 0.020091
v -0.003854 -0.011041 0.020091
v -0.003854 -0.011041 -0.000181
v -0.005302 -0.089231 0.019728
v 0.007005 -0.089223 0.020091
v 0.008090 -0.018650 0.000184
v -0.006027 -0.085247 -0.000181
v -0.007112 -0.018650 0.020091
v 0.008090 -0.018650 0.020091
v -0.007112 -0.018650 0.000182
v 0.008090 -0.058454 0.000182
v -0.007112 -0.055195 0.020091
v 0.004108 -0.011041 -0.000181
v -0.003854 -0.090681 0.000182
v 0.008090 -0.058088 0.020091
v -0.007112 -0.055562 0.000182
v 0.007005 -0.089223 -0.000181
v 0.005918 -0.090681 0.019728
v -0.006027 -0.085247 0.020091
v -0.003854 -0.090681 0.019728
v 0.005193 -0.011766 0.000182
v -0.004217 -0.011041 0.000182
v 0.007728 -0.018650 -0.000181
v -0.005302 -0.089231 0.000182
v -0.006750 -0.018650 -0.000181
v 0.005918 -0.090681 0.000182
v 0.005193 -0.011766 0.019728
v -0.004217 -0.011041 0.019728
v 0.007005 -0.089582 0.019728
v -0.003854 -0.090307 0.020091
v -0.006027 -0.085606 0.019728
v -0.003854 -0.090307 -0.000181
v 0.007005 -0.089582 0.000182
v -0.006027 -0.085606 0.000182
v 0.007728 -0.058454 -0.000181
v -0.006750 -0.055562 -0.000181
v -0.007112 -0.055562 0.019728
v 0.008090 -0.058454 0.019728
f 93 75 102 
f 66 65 67 
f 65 66 69 
f 67 64 71 
f 69 66 72 
f 65 69 73 
f 70 73 75 
f 69 72 76 
f 72 74 76 
f 67 65 77 
f 64 67 77 
f 73 69 79 
f 75 73 79 
f 76 74 80 
f 64 77 81 
f 69 76 83 
f 68 78 84 
f 78 82 84 
f 73 70 85 
f 77 65 85 
f 66 67 86 
f 74 72 86 
f 70 75 87 
f 81 77 87 
f 85 70 87 
f 77 85 87 
f 78 68 88 
f 67 71 89 
f 80 74 89 
f 86 67 89 
f 74 86 89 
f 78 64 90 
f 64 81 90 
f 82 78 90 
f 65 73 91 
f 85 65 91 
f 73 85 91 
f 72 66 92 
f 66 86 92 
f 86 72 92 
f 69 82 93 
f 82 90 93 
f 82 69 94 
f 83 68 94 
f 69 83 94 
f 68 84 94 
f 84 82 94 
f 68 83 95 
f 88 68 95 
f 71 64 96 
f 64 78 96 
f 88 71 96 
f 78 88 96 
f 81 75 97 
f 90 81 97 
f 75 93 97 
f 93 90 97 
f 80 71 98 
f 71 88 98 
f 95 80 98 
f 88 95 98 
f 75 81 99 
f 87 75 99 
f 81 87 99 
f 71 80 100 
f 89 71 100 
f 80 89 100 
f 76 80 101 
f 83 76 101 
f 80 95 101 
f 95 83 101 
f 79 69 102 
f 75 79 102 
f 69 93 102 
o convex_2
v -0.004217 -0.011041 0.000184
v 0.004109 0.051223 0.020091
v 0.004109 0.051223 0.000184
v 0.004109 -0.011041 0.020091
v -0.004217 0.051223 0.019728
v 0.004109 -0.011041 0.000182
v -0.004217 0.051223 0.000182
v -0.004217 -0.011041 0.019728
v 0.003746 0.051223 -0.000181
v -0.003854 -0.011041 -0.000181
v -0.003854 0.051223 0.020091
v -0.003854 -0.011041 0.020091
v -0.003854 0.051223 -0.000181
v 0.003746 -0.011041 -0.000181
f 108 112 116 
f 105 104 106 
f 104 105 107 
f 105 106 108 
f 106 103 108 
f 103 107 109 
f 107 105 109 
f 103 106 110 
f 107 103 110 
f 105 108 111 
f 109 105 111 
f 108 103 112 
f 103 109 112 
f 106 104 113 
f 104 107 113 
f 107 110 113 
f 113 110 114 
f 110 106 114 
f 106 113 114 
f 109 111 115 
f 112 109 115 
f 111 112 115 
f 111 108 116 
f 112 111 116 
