o convex_0
v 0.006416 -0.079824 0.020200
v -0.010334 -0.089349 -0.000160
v -0.010334 -0.085735 -0.000160
v 0.011672 -0.089349 0.000167
v -0.007378 -0.090664 0.019871
v 0.005760 -0.079167 -0.000160
v -0.005736 -0.079167 0.019871
v 0.011344 -0.089677 0.019871
v -0.005736 -0.079167 0.000167
v -0.010664 -0.085735 0.019871
v 0.008386 -0.090664 0.000167
v 0.011672 -0.085735 0.019871
v 0.011672 -0.085735 0.000167
v -0.007378 -0.090664 0.000167
v -0.010334 -0.089349 0.020200
v 0.008386 -0.090664 0.019871
v 0.006088 -0.079167 0.019871
v 0.011344 -0.089349 -0.000160
v 0.011344 -0.089349 0.020200
v -0.010664 -0.085735 0.000167
v -0.010664 -0.089349 0.000167
v 0.006744 -0.079824 0.000167
v -0.005406 -0.079167 0.020200
v -0.010334 -0.089677 0.019871
v -0.005406 -0.079167 -0.000160
v -0.010664 -0.089349 0.019871
v 0.011672 -0.089349 0.019871
v 0.011344 -0.089677 0.000167
v -0.010334 -0.089677 0.000167
v 0.006744 -0.079824 0.019871
v -0.007378 -0.090334 0.020200
v -0.007378 -0.090334 -0.000160
v 0.011344 -0.085735 -0.000160
v -0.010334 -0.085735 0.020200
v 0.011344 -0.085735 0.020200
f 19 12 35 
f 2 3 6 
f 7 6 9 
f 7 9 10 
f 12 4 13 
f 11 5 14 
f 5 11 16 
f 11 8 16 
f 6 7 17 
f 2 6 18 
f 13 4 18 
f 1 15 19 
f 16 8 19 
f 3 2 20 
f 9 3 20 
f 10 9 20 
f 10 20 21 
f 20 2 21 
f 12 13 22 
f 6 17 22 
f 7 10 23 
f 15 1 23 
f 1 17 23 
f 17 7 23 
f 14 5 24 
f 5 15 24 
f 6 3 25 
f 3 9 25 
f 9 6 25 
f 15 10 26 
f 10 21 26 
f 24 15 26 
f 21 24 26 
f 8 4 27 
f 4 12 27 
f 12 19 27 
f 19 8 27 
f 4 8 28 
f 8 11 28 
f 11 18 28 
f 18 4 28 
f 2 14 29 
f 21 2 29 
f 14 24 29 
f 24 21 29 
f 1 12 30 
f 17 1 30 
f 12 22 30 
f 22 17 30 
f 15 5 31 
f 5 16 31 
f 19 15 31 
f 16 19 31 
f 14 2 32 
f 11 14 32 
f 2 18 32 
f 18 11 32 
f 18 6 33 
f 13 18 33 
f 6 22 33 
f 22 13 33 
f 10 15 34 
f 23 10 34 
f 15 23 34 
f 12 1 35 
f 1 19 35 
o convex_1
v 0.000504 -0.079167 -0.000160
v 0.000175 0.090315 0.020200
v 0.000504 0.090332 0.019871
v 0.005759 -0.079150 0.019871
v -0.005736 -0.079150 0.019873
v -0.000480 0.090315 -0.000160
v 0.005759 0.037118 0.000165
v -0.005736 0.031200 0.000167
v -0.005736 0.031200 0.019871
v -0.005736 -0.079150 0.000165
v 0.005759 0.037118 0.019873
v 0.005759 -0.079150 0.000167
v 0.001818 0.088021 0.000167
v -0.001795 0.086059 0.019543
v 0.001818 0.088021 0.019543
v -0.001795 0.086059 0.000167
v 0.005431 -0.079150 0.020200
v -0.005408 -0.079150 0.020200
v 0.005431 0.037102 -0.000160
v -0.005408 -0.079150 -0.000160
v -0.005408 0.031200 0.020200
v 0.005431 0.037102 0.020200
v -0.005408 0.031200 -0.000160
v 0.005431 -0.079150 -0.000160
v -0.000809 0.090315 0.019543
v 0.000175 0.090664 0.000167
v -0.001137 0.086375 0.020200
v 0.001489 0.088021 -0.000160
v -0.000809 0.090315 0.000167
v 0.001161 0.088354 0.020200
v -0.000480 0.090664 0.019543
v -0.001466 0.086059 -0.000160
v 0.000504 0.090332 0.000167
f 63 41 68 
f 43 40 44 
f 36 40 45 
f 40 43 45 
f 39 42 46 
f 39 36 47 
f 42 39 47 
f 46 42 48 
f 43 44 49 
f 48 38 50 
f 46 48 50 
f 43 49 51 
f 36 39 52 
f 39 46 52 
f 40 36 53 
f 36 52 53 
f 52 37 53 
f 36 41 54 
f 41 36 55 
f 36 45 55 
f 44 40 56 
f 40 53 56 
f 53 37 56 
f 37 52 57 
f 52 46 57 
f 45 43 58 
f 43 51 58 
f 41 55 58 
f 55 45 58 
f 47 36 59 
f 42 47 59 
f 36 54 59 
f 54 42 59 
f 51 49 60 
f 49 44 62 
f 44 56 62 
f 56 37 62 
f 37 60 62 
f 60 49 62 
f 48 42 63 
f 54 41 63 
f 42 54 63 
f 41 51 64 
f 51 60 64 
f 61 41 64 
f 38 37 65 
f 50 38 65 
f 46 50 65 
f 37 57 65 
f 57 46 65 
f 37 38 66 
f 60 37 66 
f 38 61 66 
f 64 60 66 
f 61 64 66 
f 51 41 67 
f 41 58 67 
f 58 51 67 
f 38 48 68 
f 61 38 68 
f 41 61 68 
f 48 63 68 
