o convex_0
v -0.002335 -0.003154 0.000177
v 0.001882 0.090317 0.020209
v 0.002234 0.090317 0.019856
v 0.001882 -0.003163 0.020209
v 0.002234 -0.003163 0.000177
v -0.001983 0.090317 -0.000176
v -0.002335 0.090317 0.019854
v 0.002234 0.090317 0.000177
v -0.002335 -0.003154 0.019856
v 0.002234 -0.003163 0.019854
v -0.002335 0.090317 0.000177
v 0.001882 -0.003163 -0.000176
v -0.001983 -0.003163 0.020209
v -0.001983 0.090317 0.020209
v -0.001983 -0.003163 -0.000176
v 0.001882 0.090317 -0.000176
v -0.001983 0.090676 0.019854
v 0.001882 0.090676 0.000177
v -0.001983 0.090676 0.000177
v 0.001882 0.090676 0.019854
f 18 17 20 
f 3 2 4 
f 3 5 8 
f 7 1 9 
f 3 4 10 
f 4 5 10 
f 5 3 10 
f 6 1 11 
f 1 7 11 
f 5 4 12 
f 8 5 12 
f 4 2 13 
f 9 1 13 
f 12 4 13 
f 7 9 14 
f 13 2 14 
f 9 13 14 
f 1 6 15 
f 6 12 15 
f 13 1 15 
f 12 13 15 
f 12 6 16 
f 8 12 16 
f 11 7 17 
f 14 2 17 
f 7 14 17 
f 3 8 18 
f 16 6 18 
f 8 16 18 
f 17 18 19 
f 6 11 19 
f 11 17 19 
f 18 6 19 
f 2 3 20 
f 17 2 20 
f 3 18 20 
o convex_1
v 0.009964 -0.084349 0.020209
v -0.012173 -0.073453 0.000177
v -0.012173 -0.073453 0.019854
v 0.007154 -0.025656 0.000177
v -0.006904 -0.025656 0.020209
v 0.006803 -0.089263 -0.000176
v 0.008208 -0.028826 0.019854
v -0.007255 -0.025656 0.000177
v 0.012072 -0.050611 0.000177
v -0.007958 -0.088206 0.020209
v -0.009011 -0.087156 -0.000176
v -0.012173 -0.050611 0.019854
v 0.012072 -0.050611 0.019856
v 0.012072 -0.073447 0.000177
v -0.011822 -0.050611 -0.000176
v 0.001882 -0.090676 0.019854
v 0.006803 -0.025656 0.020209
v -0.001983 -0.090676 0.000177
v 0.012072 -0.073447 0.019854
v 0.007857 -0.028826 -0.000176
v 0.010316 -0.084349 0.000177
v 0.006803 -0.089619 0.019854
v -0.010065 -0.084343 0.019854
v -0.012173 -0.050611 0.000177
v 0.010316 -0.039715 0.000177
v -0.005847 -0.089619 0.019854
v -0.007255 -0.025656 0.019854
v 0.009262 -0.087156 0.019854
v -0.006904 -0.025656 -0.000176
v -0.007958 -0.088563 0.000177
v 0.001882 -0.090676 0.000177
v 0.011721 -0.073447 -0.000176
v -0.011822 -0.050611 0.020209
v -0.011119 -0.044642 0.019854
v -0.011119 -0.079423 0.000177
v 0.009262 -0.087156 0.000177
v 0.008208 -0.028826 0.000177
v 0.010316 -0.084349 0.019854
v 0.011721 -0.050611 0.020209
v -0.001983 -0.090676 0.019854
v 0.010316 -0.039715 0.019854
v -0.009011 -0.087506 0.019854
v -0.011119 -0.044642 0.000177
v 0.006803 -0.089619 0.000177
v -0.010065 -0.084343 0.000177
v 0.006803 -0.089263 0.020209
v -0.005847 -0.089619 0.000177
v -0.011822 -0.073453 0.020209
v 0.011721 -0.050611 -0.000176
v -0.011822 -0.073453 -0.000176
v -0.007958 -0.088563 0.019854
v -0.011119 -0.079423 0.019854
v 0.007154 -0.025656 0.019854
v -0.001983 -0.090319 -0.000176
v 0.006803 -0.025656 -0.000176
v -0.009011 -0.087506 0.000177
v 0.011721 -0.073447 0.020209
v -0.001983 -0.090319 0.020209
v 0.009964 -0.084343 -0.000176
f 41 56 79 
f 25 24 28 
f 21 25 30 
f 22 23 32 
f 29 33 34 
f 26 31 35 
f 25 21 37 
f 24 25 37 
f 34 33 39 
f 26 35 40 
f 34 39 41 
f 22 32 44 
f 35 22 44 
f 33 29 45 
f 25 28 47 
f 28 24 49 
f 40 35 49 
f 36 38 51 
f 42 36 51 
f 29 34 52 
f 26 40 52 
f 34 41 52 
f 30 25 53 
f 32 23 53 
f 32 53 54 
f 44 32 54 
f 25 47 54 
f 47 28 54 
f 53 25 54 
f 23 22 55 
f 41 48 56 
f 48 42 56 
f 24 27 57 
f 40 24 57 
f 27 45 57 
f 45 40 57 
f 39 21 58 
f 41 39 58 
f 21 48 58 
f 48 41 58 
f 37 21 59 
f 27 37 59 
f 38 36 60 
f 46 38 60 
f 45 27 61 
f 33 45 61 
f 27 59 61 
f 59 33 61 
f 30 43 62 
f 35 44 63 
f 28 49 63 
f 49 35 63 
f 44 54 63 
f 54 28 63 
f 51 26 64 
f 42 51 64 
f 26 56 64 
f 56 42 64 
f 55 31 65 
f 43 55 65 
f 62 43 65 
f 21 30 66 
f 36 42 66 
f 48 21 66 
f 42 48 66 
f 38 46 67 
f 50 31 67 
f 46 50 67 
f 43 30 68 
f 53 23 68 
f 30 53 68 
f 45 29 69 
f 40 45 69 
f 29 52 69 
f 52 40 69 
f 35 31 70 
f 22 35 70 
f 55 22 70 
f 31 55 70 
f 46 30 71 
f 50 46 71 
f 30 62 71 
f 62 50 71 
f 23 55 72 
f 55 43 72 
f 68 23 72 
f 43 68 72 
f 27 24 73 
f 24 37 73 
f 37 27 73 
f 31 26 74 
f 26 51 74 
f 51 38 74 
f 67 31 74 
f 38 67 74 
f 24 40 75 
f 49 24 75 
f 40 49 75 
f 31 50 76 
f 50 62 76 
f 65 31 76 
f 62 65 76 
f 21 39 77 
f 39 33 77 
f 33 59 77 
f 59 21 77 
f 30 46 78 
f 60 36 78 
f 46 60 78 
f 66 30 78 
f 36 66 78 
f 26 52 79 
f 52 41 79 
f 56 26 79 
o convex_2
v -0.007254 -0.025654 0.000177
v 0.002234 -0.003165 0.020209
v -0.002335 -0.003165 0.020209
v 0.002234 -0.003165 -0.000176
v 0.007154 -0.025654 0.019854
v 0.009261 -0.007381 0.000177
v -0.007254 -0.025654 0.019854
v -0.009011 -0.004572 0.000177
v 0.006801 -0.025654 -0.000176
v 0.009261 -0.004570 0.019854
v -0.009011 -0.004572 0.019854
v 0.007857 -0.003165 0.000177
v -0.007605 -0.003518 -0.000176
v -0.009011 -0.007031 -0.000176
v 0.006801 -0.025654 0.020209
v -0.007605 -0.003165 0.019854
v -0.006902 -0.025654 0.020209
v 0.007857 -0.003165 0.019854
v 0.007154 -0.025654 0.000177
v 0.009261 -0.007381 0.019854
v -0.009011 -0.007383 0.019854
v 0.008911 -0.004570 -0.000176
v -0.006902 -0.025654 -0.000176
v -0.007605 -0.003165 0.000177
v 0.008911 -0.004570 0.020209
v -0.008660 -0.004572 0.020209
v 0.009261 -0.004570 0.000177
v -0.009011 -0.007383 0.000177
f 100 93 107 
f 82 81 83 
f 80 84 86 
f 84 80 88 
f 83 81 91 
f 83 88 92 
f 90 87 93 
f 87 92 93 
f 92 88 93 
f 81 82 94 
f 86 84 94 
f 82 83 95 
f 87 90 95 
f 94 82 96 
f 86 94 96 
f 91 81 97 
f 89 91 97 
f 85 84 98 
f 84 88 98 
f 88 85 98 
f 84 85 99 
f 85 89 99 
f 94 84 99 
f 80 86 100 
f 90 93 100 
f 86 96 100 
f 88 83 101 
f 85 88 101 
f 83 91 101 
f 88 80 102 
f 80 93 102 
f 93 88 102 
f 83 92 103 
f 92 87 103 
f 95 83 103 
f 87 95 103 
f 81 94 104 
f 97 81 104 
f 89 97 104 
f 99 89 104 
f 94 99 104 
f 82 95 105 
f 95 90 105 
f 96 82 105 
f 90 100 105 
f 100 96 105 
f 89 85 106 
f 91 89 106 
f 85 101 106 
f 101 91 106 
f 93 80 107 
f 80 100 107 
