o convex_0
v -0.002285 -0.090668 0.000171
v 0.001407 0.000000 0.020314
v -0.002622 0.000000 0.020314
v 0.001742 0.000000 -0.000168
v 0.008792 -0.084278 0.019643
v -0.008668 -0.084287 0.019979
v -0.008666 -0.000683 0.000171
v 0.008794 -0.000675 0.000171
v 0.008792 -0.084278 0.000171
v 0.008794 -0.000675 0.019645
v -0.008331 -0.084287 -0.000168
v -0.008666 -0.000683 0.019977
v 0.005100 -0.089319 0.020314
v -0.005309 -0.089319 0.020314
v 0.005435 -0.089319 -0.000168
v -0.008668 -0.084287 0.000171
v 0.008122 -0.000683 0.020314
v 0.002413 -0.090668 0.019643
v -0.005644 -0.089319 0.000171
v 0.008457 -0.000683 -0.000168
v -0.008331 -0.000683 -0.000168
v -0.008331 -0.000683 0.020314
v 0.008122 -0.084278 0.020314
v -0.002285 -0.090668 0.019977
v 0.002413 -0.090668 0.000171
v 0.005435 -0.089656 0.019643
v -0.008331 -0.000346 0.000171
v 0.008457 -0.000337 0.019643
v 0.008457 -0.084278 -0.000168
v -0.008331 -0.084287 0.020314
v 0.007786 -0.086292 0.000171
v -0.005309 -0.089656 0.019977
v -0.007659 -0.086292 0.019977
v 0.008457 -0.000337 0.000171
v -0.008331 -0.000346 0.019977
v 0.005435 -0.089656 0.000171
v -0.002957 0.000000 0.000171
v 0.007786 -0.086292 0.019643
v -0.002285 -0.090331 -0.000168
v -0.007659 -0.086292 0.000171
v -0.005309 -0.089656 0.000171
v 0.005770 -0.089319 0.019643
v 0.002077 0.000000 0.019643
v -0.005644 -0.089319 0.019977
v 0.005770 -0.089319 0.000171
v 0.002077 -0.090331 0.020314
f 24 18 46 
f 3 2 4 
f 8 5 9 
f 5 8 10 
f 7 6 12 
f 2 3 13 
f 13 3 14 
f 11 4 15 
f 6 7 16 
f 2 13 17 
f 15 4 20 
f 4 11 21 
f 16 7 21 
f 11 16 21 
f 12 6 22 
f 14 3 22 
f 5 10 23 
f 10 17 23 
f 17 13 23 
f 1 18 24 
f 18 1 25 
f 18 25 26 
f 13 18 26 
f 7 12 27 
f 4 21 27 
f 21 7 27 
f 10 8 28 
f 2 17 28 
f 17 10 28 
f 8 9 29 
f 20 8 29 
f 15 20 29 
f 22 6 30 
f 14 22 30 
f 9 5 31 
f 29 9 31 
f 15 29 31 
f 24 14 32 
f 1 24 32 
f 6 16 33 
f 30 6 33 
f 14 30 33 
f 20 4 34 
f 8 20 34 
f 28 8 34 
f 22 3 35 
f 12 22 35 
f 27 12 35 
f 25 15 36 
f 26 25 36 
f 3 4 37 
f 4 27 37 
f 35 3 37 
f 27 35 37 
f 5 23 38 
f 23 13 38 
f 31 5 38 
f 11 15 39 
f 25 1 39 
f 15 25 39 
f 16 11 40 
f 11 19 40 
f 33 16 40 
f 19 33 40 
f 19 11 41 
f 1 32 41 
f 32 19 41 
f 11 39 41 
f 39 1 41 
f 13 26 42 
f 26 36 42 
f 38 13 42 
f 31 38 42 
f 4 2 43 
f 2 28 43 
f 34 4 43 
f 28 34 43 
f 32 14 44 
f 19 32 44 
f 33 19 44 
f 14 33 44 
f 15 31 45 
f 36 15 45 
f 42 36 45 
f 31 42 45 
f 13 14 46 
f 18 13 46 
f 14 24 46 
o convex_1
v 0.001406 0.000000 -0.000168
v 0.001070 0.090331 0.020314
v 0.001742 0.090331 0.019643
v -0.002287 0.087295 -0.000168
v -0.002623 0.000000 0.019979
v 0.002749 0.085290 0.000171
v 0.001742 0.000000 0.019643
v -0.002623 0.000000 0.000171
v -0.002623 0.087304 0.019977
v 0.002749 0.085290 0.019643
v 0.002749 0.067832 0.000171
v -0.001280 0.090668 0.000171
v -0.002623 0.087304 0.000171
v 0.001742 0.000000 0.000171
v 0.001406 0.090331 -0.000168
v 0.002749 0.067832 0.019643
v 0.001070 0.000000 0.020314
v -0.001280 0.090331 0.020314
v -0.002287 0.000000 0.020314
v -0.002287 0.000000 -0.000168
v 0.002078 0.067495 0.020314
v 0.002413 0.067832 -0.000168
v 0.001406 0.090668 0.019643
v 0.001742 0.090331 0.000171
v -0.001616 0.090331 0.019977
v -0.002287 0.087295 0.020314
v -0.001280 0.090668 0.019977
v 0.001406 0.090668 0.000171
v -0.001616 0.090331 0.000171
v 0.002078 0.085290 0.020314
v 0.002413 0.085290 -0.000168
f 68 61 77 
f 51 47 53 
f 47 51 54 
f 54 51 55 
f 49 48 56 
f 52 49 56 
f 52 56 57 
f 50 54 59 
f 54 55 59 
f 53 47 60 
f 57 53 60 
f 47 57 60 
f 47 50 61 
f 50 58 61 
f 53 57 62 
f 57 56 62 
f 51 53 63 
f 63 48 64 
f 63 64 65 
f 51 63 65 
f 50 47 66 
f 47 54 66 
f 54 50 66 
f 53 62 67 
f 62 56 67 
f 48 63 67 
f 63 53 67 
f 57 47 68 
f 52 57 68 
f 47 61 68 
f 48 49 69 
f 49 52 70 
f 52 61 70 
f 69 49 70 
f 59 55 71 
f 55 64 71 
f 55 51 72 
f 64 55 72 
f 65 64 72 
f 51 65 72 
f 64 48 73 
f 48 69 73 
f 69 58 73 
f 58 71 73 
f 71 64 73 
f 61 58 74 
f 58 69 74 
f 70 61 74 
f 69 70 74 
f 58 50 75 
f 50 59 75 
f 59 71 75 
f 71 58 75 
f 56 48 76 
f 48 67 76 
f 67 56 76 
f 61 52 77 
f 52 68 77 
