o convex_0
v 0.015996 -0.081270 0.020218
v -0.016196 -0.081270 0.000199
v -0.015801 -0.081657 -0.000194
v 0.006573 -0.003144 0.000199
v -0.013839 -0.010617 0.020218
v 0.015996 -0.081270 -0.000194
v 0.014034 -0.010608 0.020218
v -0.013839 -0.086366 0.020218
v -0.013839 -0.010617 -0.000194
v 0.014034 -0.010608 -0.000194
v 0.001077 -0.090696 0.000199
v -0.007558 -0.003144 0.019825
v 0.008930 -0.089508 0.020218
v -0.016196 -0.052602 0.019825
v 0.016392 -0.053790 0.000199
v -0.007950 -0.003540 -0.000194
v 0.006969 -0.003549 0.020218
v 0.012857 -0.087554 -0.000194
v 0.016392 -0.053790 0.019825
v -0.009127 -0.089517 0.000199
v -0.000882 -0.090696 0.019825
v -0.016196 -0.052602 0.000199
v -0.016196 -0.081270 0.019825
v -0.014231 -0.010617 0.019825
v 0.016392 -0.081270 0.019825
v -0.014231 -0.086366 0.000199
v -0.009127 -0.089517 0.019825
v -0.014231 -0.010617 0.000199
v 0.012857 -0.087554 0.020218
v 0.012857 -0.008249 0.019825
v 0.003042 -0.002748 -0.000194
v 0.016392 -0.081270 0.000199
v 0.008930 -0.089508 -0.000194
v 0.003042 -0.002748 0.020218
v 0.013250 -0.008645 0.000199
v -0.013054 -0.008645 0.020218
v -0.003239 -0.002748 0.000199
v 0.015211 -0.084403 0.000199
v -0.013054 -0.087545 0.019825
v -0.013054 -0.008645 -0.000194
v -0.015801 -0.052602 0.020218
v -0.012662 -0.087545 -0.000194
v 0.015211 -0.084403 0.019825
v -0.002847 -0.002748 0.020218
v -0.014231 -0.086366 0.019825
v -0.000882 -0.090696 0.000199
v 0.001077 -0.090696 0.019825
v 0.006573 -0.003144 0.019825
v 0.010892 -0.088725 0.019825
v -0.007558 -0.003144 0.000199
v -0.008735 -0.089517 0.020218
v -0.013054 -0.087545 0.000199
v -0.015801 -0.052602 -0.000194
v -0.015801 -0.081270 0.020218
v 0.015996 -0.053790 -0.000194
v 0.015996 -0.053790 0.020218
v -0.000882 -0.090300 -0.000194
v 0.010892 -0.088725 0.000199
v 0.013250 -0.087158 0.000199
v 0.006969 -0.003549 -0.000194
v 0.012857 -0.008249 0.000199
v 0.013250 -0.008645 0.019825
v -0.007950 -0.003540 0.020218
f 36 44 63 
f 5 1 7 
f 1 5 8 
f 6 3 9 
f 6 9 10 
f 1 8 13 
f 10 7 15 
f 10 9 16 
f 5 7 17 
f 3 6 18 
f 15 7 19 
f 3 2 22 
f 2 14 22 
f 14 2 23 
f 14 5 24 
f 22 14 24 
f 19 1 25 
f 15 19 25 
f 2 3 26 
f 23 2 26 
f 20 21 27 
f 9 22 28 
f 22 24 28 
f 1 13 29 
f 17 7 30 
f 10 16 31 
f 6 15 32 
f 15 25 32 
f 13 11 33 
f 3 18 33 
f 5 17 34 
f 4 31 34 
f 7 10 35 
f 24 5 36 
f 28 24 36 
f 5 34 36 
f 31 16 37 
f 34 31 37 
f 18 6 38 
f 6 32 38 
f 32 25 38 
f 20 27 39 
f 16 9 40 
f 9 28 40 
f 36 12 40 
f 28 36 40 
f 8 5 41 
f 5 14 41 
f 14 23 41 
f 26 3 42 
f 3 33 42 
f 25 1 43 
f 1 29 43 
f 38 25 43 
f 36 34 44 
f 37 12 44 
f 34 37 44 
f 8 23 45 
f 23 26 45 
f 26 39 45 
f 39 8 45 
f 11 21 46 
f 21 20 46 
f 11 13 47 
f 21 11 47 
f 30 4 48 
f 17 30 48 
f 4 34 48 
f 34 17 48 
f 29 13 49 
f 18 29 49 
f 13 33 49 
f 12 37 50 
f 37 16 50 
f 16 40 50 
f 40 12 50 
f 13 8 51 
f 27 21 51 
f 8 39 51 
f 39 27 51 
f 47 13 51 
f 21 47 51 
f 20 39 52 
f 39 26 52 
f 42 20 52 
f 26 42 52 
f 9 3 53 
f 3 22 53 
f 22 9 53 
f 23 8 54 
f 8 41 54 
f 41 23 54 
f 6 10 55 
f 15 6 55 
f 10 15 55 
f 7 1 56 
f 1 19 56 
f 19 7 56 
f 33 11 57 
f 20 42 57 
f 42 33 57 
f 11 46 57 
f 46 20 57 
f 33 18 58 
f 18 49 58 
f 49 33 58 
f 29 18 59 
f 18 38 59 
f 43 29 59 
f 38 43 59 
f 31 4 60 
f 10 31 60 
f 4 30 61 
f 35 10 61 
f 30 35 61 
f 60 4 61 
f 10 60 61 
f 30 7 62 
f 7 35 62 
f 35 30 62 
f 12 36 63 
f 44 12 63 
o convex_1
v 0.003042 -0.002748 -0.000194
v -0.000099 0.090294 0.020218
v -0.000099 0.090696 0.019825
v -0.003240 -0.002748 0.000199
v 0.003042 -0.002748 0.020218
v 0.003042 0.083232 -0.000194
v -0.003240 -0.002748 0.019825
v -0.003240 0.083223 0.000199
v 0.003042 0.083232 0.020218
v -0.003240 0.083223 0.019825
v -0.000884 0.090294 -0.000194
v -0.002062 0.088336 0.020218
v 0.002257 0.087156 0.000199
v -0.002847 -0.002748 -0.000194
v -0.002847 -0.002748 0.020218
v 0.002257 0.087156 0.019825
v -0.002062 0.088336 -0.000194
v 0.001079 0.089507 0.000199
v -0.001276 0.090294 0.019825
v -0.000884 0.090696 0.000199
v 0.001079 0.089507 0.019825
v -0.002847 0.083626 -0.000194
v -0.002847 0.083223 0.020218
v -0.000099 0.090696 0.000199
v 0.003042 0.083626 0.019825
v -0.001276 0.090294 0.000199
f 83 74 89 
f 67 64 68 
f 68 64 69 
f 67 68 70 
f 67 70 71 
f 65 68 72 
f 68 69 72 
f 71 70 73 
f 69 64 74 
f 68 65 75 
f 71 73 75 
f 64 67 77 
f 67 71 77 
f 74 64 77 
f 70 68 78 
f 73 70 78 
f 68 75 78 
f 65 72 79 
f 71 75 80 
f 74 77 80 
f 69 74 81 
f 76 69 81 
f 79 76 81 
f 65 66 82 
f 75 65 82 
f 80 75 82 
f 82 66 83 
f 66 65 84 
f 65 79 84 
f 81 66 84 
f 79 81 84 
f 77 71 85 
f 71 80 85 
f 80 77 85 
f 75 73 86 
f 73 78 86 
f 78 75 86 
f 66 81 87 
f 81 74 87 
f 74 83 87 
f 83 66 87 
f 72 69 88 
f 69 76 88 
f 79 72 88 
f 76 79 88 
f 74 80 89 
f 80 82 89 
f 82 83 89 
