o convex_0
v 0.012937 -0.079248 -0.000184
v -0.016184 -0.069297 0.000185
v -0.016184 -0.069297 0.019720
v 0.007037 -0.037232 0.020091
v 0.003719 -0.089570 0.020091
v -0.006966 -0.037237 -0.000184
v 0.016256 -0.056773 0.000185
v 0.016256 -0.069302 0.019720
v -0.005861 -0.088471 -0.000184
v -0.012866 -0.047554 0.020091
v 0.007037 -0.037232 -0.000184
v -0.010284 -0.084412 0.019720
v -0.016184 -0.056778 0.000185
v -0.007334 -0.037237 0.019720
v 0.015147 -0.052718 0.019720
v 0.004091 -0.089570 0.000185
v 0.011092 -0.083308 0.020091
v -0.012129 -0.081466 0.000185
v -0.003648 -0.089570 0.020091
v 0.016256 -0.069302 0.000185
v -0.016184 -0.056778 0.019720
v -0.014339 -0.049773 0.000185
v 0.013306 -0.047926 0.000185
v -0.000701 -0.090679 0.000185
v -0.014339 -0.076302 0.019720
v 0.010724 -0.083674 -0.000184
v 0.015884 -0.056406 0.020091
v 0.013306 -0.079248 0.019720
v -0.015813 -0.069297 -0.000184
v 0.013306 -0.047926 0.019720
v 0.005564 -0.088838 0.019720
v 0.000772 -0.090679 0.019720
v -0.014339 -0.049773 0.019720
v -0.012129 -0.081095 0.020091
v -0.005861 -0.088838 0.019720
v -0.008074 -0.038341 0.000185
v -0.010284 -0.084412 0.000185
v -0.014339 -0.076302 0.000185
v 0.013306 -0.079248 0.000185
v 0.015884 -0.056773 -0.000184
v 0.009251 -0.040554 0.019720
v 0.016256 -0.056773 0.019720
v 0.005932 -0.088471 -0.000184
v -0.005861 -0.088838 0.000185
v -0.013234 -0.047554 0.019720
v -0.015813 -0.069669 0.020091
v 0.008142 -0.038713 0.000185
v -0.006966 -0.037237 0.020091
v -0.013971 -0.049773 -0.000184
v 0.015147 -0.052718 0.000185
v -0.000701 -0.090679 0.019720
v 0.015147 -0.073352 0.019720
v 0.000772 -0.090679 0.000185
v -0.012129 -0.081466 0.019720
v 0.015884 -0.069302 0.020091
v -0.013234 -0.047554 0.000185
v 0.012197 -0.081461 0.000185
v -0.008074 -0.038341 0.019720
v -0.011761 -0.081466 -0.000184
v 0.015147 -0.073352 0.000185
v -0.015813 -0.056406 0.020091
v -0.015076 -0.052352 0.019720
v -0.004016 -0.089570 0.019720
v 0.009251 -0.040554 0.000185
f 47 41 64 
f 6 1 9 
f 5 4 10 
f 1 6 11 
f 2 3 13 
f 11 6 14 
f 4 11 14 
f 4 5 17 
f 5 10 19 
f 7 8 20 
f 13 3 21 
f 3 2 25 
f 9 1 26 
f 4 17 27 
f 6 9 29 
f 2 13 29 
f 15 23 30 
f 4 27 30 
f 27 15 30 
f 5 16 31 
f 17 5 31 
f 16 5 32 
f 5 19 32 
f 19 10 34 
f 34 12 35 
f 19 34 35 
f 14 6 36 
f 12 18 37 
f 35 12 37 
f 25 2 38 
f 18 25 38 
f 2 29 38 
f 26 1 39 
f 1 11 40 
f 20 1 40 
f 7 20 40 
f 11 23 40 
f 4 30 41 
f 30 23 41 
f 8 7 42 
f 7 15 42 
f 27 8 42 
f 15 27 42 
f 24 9 43 
f 9 26 43 
f 26 17 43 
f 31 16 43 
f 17 31 43 
f 9 24 44 
f 37 9 44 
f 35 37 44 
f 33 10 45 
f 22 33 45 
f 21 3 46 
f 3 25 46 
f 34 10 46 
f 25 34 46 
f 11 4 47 
f 4 41 47 
f 10 4 48 
f 4 14 48 
f 13 22 49 
f 6 29 49 
f 29 13 49 
f 15 7 50 
f 23 15 50 
f 7 40 50 
f 40 23 50 
f 32 19 51 
f 24 32 51 
f 20 8 52 
f 28 39 52 
f 16 32 53 
f 32 24 53 
f 43 16 53 
f 24 43 53 
f 18 12 54 
f 25 18 54 
f 12 34 54 
f 34 25 54 
f 8 27 55 
f 27 17 55 
f 17 28 55 
f 52 8 55 
f 28 52 55 
f 36 6 56 
f 22 45 56 
f 45 36 56 
f 49 22 56 
f 6 49 56 
f 17 26 57 
f 28 17 57 
f 26 39 57 
f 39 28 57 
f 14 36 58 
f 45 10 58 
f 36 45 58 
f 10 48 58 
f 48 14 58 
f 29 9 59 
f 9 37 59 
f 37 18 59 
f 18 38 59 
f 38 29 59 
f 1 20 60 
f 39 1 60 
f 20 52 60 
f 52 39 60 
f 10 33 61 
f 21 46 61 
f 46 10 61 
f 13 21 62 
f 22 13 62 
f 33 22 62 
f 61 33 62 
f 21 61 62 
f 19 35 63 
f 44 24 63 
f 35 44 63 
f 51 19 63 
f 24 51 63 
f 23 11 64 
f 41 23 64 
f 11 47 64 
o convex_1
v 0.002247 0.018063 0.000185
v 0.000036 0.090315 0.020091
v 0.000036 0.090684 0.019720
v -0.002176 0.018063 0.000187
v -0.000701 0.090315 -0.000184
v -0.002176 0.018063 0.019721
v 0.002247 0.018063 0.019720
v 0.002247 0.085154 0.000187
v -0.002176 0.086256 0.019720
v 0.002247 0.085154 0.019721
v -0.002176 0.086256 0.000185
v 0.001879 0.018063 -0.000184
v 0.001879 0.018063 0.020091
v -0.001070 0.090315 0.020091
v -0.001807 0.018063 -0.000184
v -0.001807 0.018063 0.020091
v 0.001141 0.088466 0.000185
v 0.001879 0.085516 -0.000184
v 0.001879 0.085516 0.020091
v 0.000036 0.090684 0.000185
v -0.001070 0.090315 0.000185
v -0.001807 0.086256 -0.000184
v 0.001141 0.088466 0.019720
v -0.001807 0.086625 0.020091
v -0.000701 0.090684 0.000185
f 85 78 89 
f 68 65 70 
f 70 65 71 
f 71 65 72 
f 68 70 73 
f 71 72 74 
f 68 73 75 
f 65 68 76 
f 70 71 77 
f 71 74 77 
f 66 67 78 
f 75 73 78 
f 77 66 78 
f 68 75 79 
f 76 68 79 
f 69 76 79 
f 70 77 80 
f 77 78 80 
f 74 72 81 
f 72 65 82 
f 65 76 82 
f 76 69 82 
f 81 72 82 
f 66 77 83 
f 77 74 83 
f 67 81 84 
f 82 69 84 
f 81 82 84 
f 69 75 85 
f 75 78 85 
f 75 69 86 
f 79 75 86 
f 69 79 86 
f 67 66 87 
f 81 67 87 
f 74 81 87 
f 66 83 87 
f 83 74 87 
f 73 70 88 
f 78 73 88 
f 70 80 88 
f 80 78 88 
f 78 67 89 
f 67 84 89 
f 84 69 89 
f 69 85 89 
o convex_2
v -0.007337 -0.037232 0.000185
v 0.006670 0.007741 0.020091
v -0.006968 0.007741 0.020091
v -0.006968 0.007741 -0.000184
v 0.007040 -0.037232 -0.000184
v 0.007040 -0.037232 0.020091
v 0.007040 0.007737 -0.000184
v -0.007337 -0.037232 0.019720
v -0.007337 0.007741 0.000185
v 0.007040 0.007737 0.020091
v -0.007337 0.007741 0.019720
v -0.006968 -0.037232 0.020091
v -0.006968 -0.037232 -0.000184
f 93 94 102 
f 92 91 93 
f 91 92 95 
f 90 94 95 
f 93 91 96 
f 94 93 96 
f 95 94 96 
f 90 95 97 
f 92 93 98 
f 93 90 98 
f 90 97 98 
f 91 95 99 
f 96 91 99 
f 95 96 99 
f 97 92 100 
f 92 98 100 
f 98 97 100 
f 95 92 101 
f 92 97 101 
f 97 95 101 
f 90 93 102 
f 94 90 102 
o convex_3
v -0.009180 0.014376 0.000185
v 0.009252 0.014375 0.019720
v 0.009252 0.011798 0.019720
v 0.009252 0.014375 0.000185
v -0.006966 0.007741 -0.000184
v -0.005861 0.017694 0.019720
v -0.007335 0.007741 0.019720
v 0.007408 0.007741 0.000185
v 0.002246 0.018063 -0.000184
v 0.007040 0.007741 0.020091
v 0.005932 0.017694 0.019720
v -0.008810 0.014376 0.020091
v -0.005861 0.017694 0.000185
v 0.005932 0.017694 0.000185
v -0.009180 0.011797 0.019720
v -0.002175 0.018063 0.020091
v -0.008072 0.008479 0.000185
v 0.008882 0.011798 -0.000184
v 0.008144 0.008479 0.000185
v 0.008144 0.008479 0.019720
v -0.009180 0.011797 0.000185
v 0.002246 0.018063 0.020091
v -0.002175 0.018063 -0.000184
v -0.008072 0.008848 0.020091
v -0.009180 0.014376 0.019720
v 0.009252 0.011798 0.000185
v 0.008882 0.014375 0.020091
v -0.008810 0.014376 -0.000184
v 0.007040 0.007741 -0.000184
v -0.008072 0.008479 0.019720
v 0.005932 0.017326 -0.000184
f 120 111 133 
f 104 105 106 
f 109 107 110 
f 109 110 112 
f 104 106 113 
f 103 108 115 
f 113 106 116 
f 111 113 116 
f 114 112 118 
f 108 114 118 
f 115 108 118 
f 107 109 119 
f 107 111 120 
f 105 112 122 
f 112 110 122 
f 121 105 122 
f 110 121 122 
f 117 103 123 
f 107 119 123 
f 119 117 123 
f 113 111 124 
f 118 112 124 
f 111 118 124 
f 111 107 125 
f 118 111 125 
f 115 118 125 
f 109 112 126 
f 112 114 126 
f 114 117 126 
f 108 103 127 
f 114 108 127 
f 103 117 127 
f 117 114 127 
f 106 105 128 
f 120 106 128 
f 105 121 128 
f 121 120 128 
f 105 104 129 
f 112 105 129 
f 104 113 129 
f 124 112 129 
f 113 124 129 
f 103 115 130 
f 123 103 130 
f 107 123 130 
f 125 107 130 
f 115 125 130 
f 110 107 131 
f 107 120 131 
f 121 110 131 
f 120 121 131 
f 119 109 132 
f 117 119 132 
f 109 126 132 
f 126 117 132 
f 116 106 133 
f 111 116 133 
f 106 120 133 
