o convex_0
v 0.001842 0.004006 -0.000180
v 0.000749 0.090317 0.020212
v 0.000749 0.090682 0.019845
v -0.002164 0.004006 0.000183
v 0.001842 0.004006 0.020212
v 0.003299 0.087399 0.000185
v -0.002164 0.088485 0.019845
v -0.002164 0.088485 0.000185
v -0.002164 0.004006 0.019845
v 0.003299 0.085575 0.019845
v 0.002206 0.004006 0.000185
v 0.002206 0.004006 0.019845
v -0.000707 0.090317 -0.000180
v -0.001799 0.004006 0.020212
v -0.001799 0.004006 -0.000180
v 0.001842 0.089223 -0.000180
v 0.002934 0.087399 0.020212
v -0.000707 0.090317 0.020212
v 0.000749 0.090682 0.000185
v 0.002206 0.089223 0.019845
v -0.000707 0.090682 0.019845
v 0.003299 0.085575 0.000185
v 0.002934 0.087399 -0.000180
v -0.001799 0.088485 0.020212
v -0.001799 0.088485 -0.000180
v 0.003299 0.087399 0.019847
v 0.002206 0.089223 0.000185
v -0.000707 0.090682 0.000185
v -0.001071 0.090317 0.019845
f 28 8 29 
f 4 1 5 
f 4 7 8 
f 4 5 9 
f 7 4 9 
f 5 1 11 
f 5 11 12 
f 10 5 12 
f 11 10 12 
f 5 2 14 
f 9 5 14 
f 7 9 14 
f 1 4 15 
f 13 1 15 
f 1 13 16 
f 2 5 17 
f 5 10 17 
f 2 3 18 
f 14 2 18 
f 16 13 19 
f 3 2 20 
f 2 17 20 
f 19 3 20 
f 18 3 21 
f 3 19 21 
f 6 10 22 
f 10 11 22 
f 11 1 22 
f 16 6 23 
f 1 16 23 
f 22 1 23 
f 6 22 23 
f 7 14 24 
f 18 7 24 
f 14 18 24 
f 4 8 25 
f 8 13 25 
f 15 4 25 
f 13 15 25 
f 10 6 26 
f 17 10 26 
f 20 17 26 
f 6 20 26 
f 6 16 27 
f 16 19 27 
f 20 6 27 
f 19 20 27 
f 13 8 28 
f 19 13 28 
f 21 19 28 
f 21 28 29 
f 8 7 29 
f 7 18 29 
f 18 21 29 
o convex_1
v 0.013131 -0.075383 0.019845
v -0.014182 -0.069191 0.000185
v -0.013815 -0.069554 -0.000180
v 0.009123 -0.034603 0.000185
v -0.008719 -0.034603 0.020212
v 0.009854 -0.084490 -0.000180
v -0.008719 -0.085577 0.020212
v 0.009854 -0.035695 0.020212
v -0.008719 -0.034603 -0.000180
v 0.015317 -0.059728 0.000185
v -0.014182 -0.053541 0.019845
v -0.005078 -0.089584 0.000185
v 0.002932 -0.090309 0.020212
v 0.015317 -0.059728 0.019845
v -0.014182 -0.053541 0.000185
v -0.014182 -0.069191 0.019845
v -0.010174 -0.083392 0.000185
v 0.002932 -0.090677 0.000185
v 0.008032 -0.087399 0.019845
v 0.014223 -0.071376 0.000185
v 0.012767 -0.047712 -0.000180
v -0.001797 -0.090677 0.019845
v -0.010174 -0.036788 0.019845
v -0.012360 -0.077206 0.019845
v 0.009123 -0.034603 0.019845
v 0.013131 -0.047712 0.000185
v 0.009854 -0.084490 0.020212
v -0.010174 -0.036788 0.000185
v 0.010218 -0.035695 0.019845
v 0.010218 -0.084490 0.000185
v 0.014223 -0.052811 0.019845
v 0.010218 -0.035695 0.000185
v -0.001797 -0.090309 -0.000180
v -0.005075 -0.089579 0.019845
v 0.014223 -0.071376 0.019845
v 0.007668 -0.087762 0.000185
v -0.009083 -0.085577 0.019845
v -0.013815 -0.069554 0.020212
v -0.012360 -0.077206 0.000185
v 0.014950 -0.059728 0.020212
v -0.009083 -0.085577 0.000185
v 0.005118 -0.089579 0.019845
v 0.008759 -0.034603 -0.000180
v 0.010218 -0.084490 0.019845
v -0.001797 -0.090677 0.000185
v 0.014950 -0.060458 -0.000180
v 0.002932 -0.090677 0.019845
v 0.014223 -0.052811 0.000185
v -0.010174 -0.083392 0.019845
v -0.008719 -0.085577 -0.000180
v 0.013131 -0.047712 0.019845
v 0.013131 -0.075383 0.000185
v -0.013815 -0.053541 0.020212
v -0.013815 -0.053541 -0.000180
v -0.009083 -0.034603 0.019845
v 0.005118 -0.089579 0.000185
v 0.015317 -0.060096 0.019845
v -0.009083 -0.034603 0.000185
v 0.011309 -0.081208 0.019845
v 0.005118 -0.089216 -0.000180
v 0.013859 -0.071376 0.020212
v 0.013859 -0.071376 -0.000180
v -0.005075 -0.089216 0.020212
v 0.015317 -0.060096 0.000185
f 86 49 93 
f 34 36 37 
f 34 33 38 
f 35 32 38 
f 37 36 42 
f 32 31 44 
f 31 40 44 
f 40 31 45 
f 35 38 50 
f 44 40 52 
f 45 31 53 
f 33 34 54 
f 34 37 54 
f 37 42 56 
f 42 48 56 
f 44 52 57 
f 33 54 58 
f 54 37 58 
f 43 39 60 
f 55 50 61 
f 33 58 61 
f 58 55 61 
f 32 35 62 
f 41 51 63 
f 30 49 64 
f 35 59 65 
f 59 48 65 
f 41 63 66 
f 36 34 67 
f 40 45 67 
f 45 53 67 
f 53 36 67 
f 31 32 68 
f 53 31 68 
f 46 53 68 
f 37 56 69 
f 60 37 69 
f 43 60 69 
f 41 66 70 
f 66 46 70 
f 48 42 71 
f 65 48 71 
f 38 33 72 
f 50 38 72 
f 33 61 72 
f 61 50 72 
f 56 48 73 
f 48 59 73 
f 51 41 74 
f 47 51 74 
f 41 62 74 
f 62 47 74 
f 35 50 75 
f 42 51 76 
f 51 47 76 
f 71 42 76 
f 47 71 76 
f 50 55 77 
f 60 39 77 
f 55 60 77 
f 39 75 77 
f 75 50 77 
f 36 53 78 
f 53 46 78 
f 46 66 78 
f 66 36 78 
f 32 62 79 
f 62 41 79 
f 68 32 79 
f 46 68 79 
f 70 46 79 
f 41 70 79 
f 58 37 80 
f 55 58 80 
f 37 60 80 
f 60 55 80 
f 49 30 81 
f 59 35 81 
f 34 52 82 
f 52 40 82 
f 67 34 82 
f 40 67 82 
f 38 32 83 
f 32 44 83 
f 57 38 83 
f 44 57 83 
f 34 38 84 
f 52 34 84 
f 57 52 84 
f 71 47 85 
f 65 71 85 
f 39 43 86 
f 64 49 86 
f 43 69 86 
f 38 57 87 
f 84 38 87 
f 57 84 87 
f 30 56 88 
f 56 73 88 
f 73 59 88 
f 81 30 88 
f 59 81 88 
f 62 35 89 
f 47 62 89 
f 35 65 89 
f 85 47 89 
f 65 85 89 
f 56 30 90 
f 30 64 90 
f 69 56 90 
f 64 86 90 
f 86 69 90 
f 35 75 91 
f 75 49 91 
f 49 81 91 
f 81 35 91 
f 42 36 92 
f 51 42 92 
f 63 51 92 
f 36 66 92 
f 66 63 92 
f 49 75 93 
f 75 39 93 
f 39 86 93 
o convex_2
v 0.002568 0.004006 0.019845
v -0.010176 -0.005467 0.000185
v -0.010176 -0.005467 0.019845
v 0.009124 -0.034598 0.000185
v -0.008719 -0.034598 0.020212
v 0.008032 0.003273 -0.000180
v 0.009124 -0.034598 0.019845
v -0.008719 -0.034598 -0.000180
v 0.010218 0.000360 0.019845
v -0.006898 0.003639 0.000185
v -0.007990 0.002181 0.020212
v 0.010218 -0.008381 0.000185
v 0.007667 0.003273 0.020212
v -0.009811 -0.000733 -0.000180
v -0.009082 -0.034598 0.019845
v 0.010218 0.000360 0.000185
v 0.008761 -0.034598 0.020212
v 0.008761 -0.034598 -0.000180
v -0.006896 0.003639 0.019845
v -0.010176 -0.000733 0.019845
v -0.009082 -0.034598 0.000185
v -0.002163 0.004006 -0.000180
v 0.010218 -0.008381 0.019845
v 0.008032 0.003639 0.000185
v 0.008032 0.003639 0.019845
v -0.008353 0.002181 0.000185
v -0.010176 -0.000733 0.000185
v -0.002163 0.004006 0.020212
v 0.002568 0.004006 0.000185
v 0.009853 0.000360 0.020212
v -0.008353 0.002181 0.019845
v 0.009853 0.000360 -0.000180
v -0.009811 -0.000733 0.020212
f 104 113 126 
f 98 97 100 
f 97 98 101 
f 100 97 105 
f 104 98 106 
f 101 95 107 
f 99 101 107 
f 96 95 108 
f 98 96 108 
f 101 98 108 
f 102 105 109 
f 98 100 110 
f 106 98 110 
f 97 101 111 
f 101 99 111 
f 105 97 111 
f 95 96 113 
f 95 101 114 
f 108 95 114 
f 101 108 114 
f 99 107 115 
f 107 103 115 
f 100 105 116 
f 105 102 116 
f 110 100 116 
f 109 99 117 
f 102 109 117 
f 99 115 117 
f 117 94 118 
f 102 117 118 
f 103 107 119 
f 113 119 120 
f 107 95 120 
f 95 113 120 
f 119 107 120 
f 104 106 121 
f 103 112 121 
f 112 104 121 
f 94 115 121 
f 115 103 121 
f 118 94 121 
f 106 118 121 
f 115 94 122 
f 94 117 122 
f 117 115 122 
f 106 110 123 
f 116 102 123 
f 110 116 123 
f 118 106 123 
f 102 118 123 
f 112 103 124 
f 104 112 124 
f 113 104 124 
f 103 119 124 
f 119 113 124 
f 99 109 125 
f 109 105 125 
f 111 99 125 
f 105 111 125 
f 96 98 126 
f 98 104 126 
f 113 96 126 
