o convex_0
v 0.010939 0.001086 0.020212
v -0.010182 -0.086307 0.000183
v -0.009816 -0.086307 -0.000180
v -0.009816 0.001448 -0.000180
v 0.011305 -0.085214 0.000185
v -0.009816 -0.086307 0.020212
v -0.010182 0.001448 0.019845
v 0.010939 0.001448 -0.000180
v 0.010939 -0.085214 0.020212
v 0.002928 -0.090311 -0.000180
v -0.002169 0.004006 0.020212
v -0.001805 -0.090682 0.019845
v 0.008026 0.003635 0.000185
v 0.011305 0.001086 0.019845
v -0.007995 0.003635 0.000185
v 0.007662 -0.088856 0.019845
v -0.010182 -0.086307 0.019845
v -0.005812 -0.089588 0.000185
v -0.010182 0.001448 0.000185
v 0.011305 -0.085214 0.019845
v 0.011305 0.001086 0.000183
v 0.008026 0.003635 0.019845
v -0.007995 0.003274 0.020212
v 0.007662 -0.088485 -0.000180
v 0.003291 0.004006 -0.000180
v 0.002928 -0.090682 0.019845
v -0.005812 -0.089588 0.019845
v -0.001805 -0.090682 0.000185
v 0.010939 -0.085214 -0.000180
v 0.002928 -0.090682 0.000185
v 0.007662 -0.088856 0.000185
v -0.008725 -0.087753 0.019845
v -0.009816 0.001448 0.020212
v -0.007995 0.003635 0.019845
v 0.003291 0.004006 0.020212
v 0.002928 -0.090311 0.020212
v -0.002169 0.004006 -0.000180
v 0.009847 0.002542 0.019845
v -0.008725 -0.087753 0.000185
v 0.009847 0.002542 0.000185
v -0.006175 -0.089218 -0.000180
v -0.005812 -0.089218 0.020212
f 12 36 42 
f 3 2 4 
f 3 4 8 
f 1 6 9 
f 3 8 10 
f 6 1 11 
f 1 9 14 
f 6 7 17 
f 7 2 17 
f 4 2 19 
f 2 7 19 
f 15 4 19 
f 7 15 19 
f 5 14 20 
f 14 9 20 
f 16 5 20 
f 9 16 20 
f 14 5 21 
f 6 11 23 
f 10 8 24 
f 8 4 25 
f 13 8 25 
f 22 13 25 
f 18 12 27 
f 12 18 28 
f 26 12 28 
f 21 5 29 
f 8 21 29 
f 24 8 29 
f 10 24 30 
f 16 26 30 
f 28 10 30 
f 26 28 30 
f 5 16 31 
f 29 5 31 
f 24 29 31 
f 30 24 31 
f 16 30 31 
f 6 17 32 
f 17 2 32 
f 18 27 32 
f 7 6 33 
f 6 23 33 
f 23 7 33 
f 15 7 34 
f 11 15 34 
f 7 23 34 
f 23 11 34 
f 11 1 35 
f 1 22 35 
f 25 11 35 
f 22 25 35 
f 9 6 36 
f 16 9 36 
f 12 26 36 
f 26 16 36 
f 4 15 37 
f 15 11 37 
f 25 4 37 
f 11 25 37 
f 1 14 38 
f 14 21 38 
f 22 1 38 
f 13 22 38 
f 2 3 39 
f 32 2 39 
f 18 32 39 
f 8 13 40 
f 21 8 40 
f 13 38 40 
f 38 21 40 
f 3 10 41 
f 28 18 41 
f 10 28 41 
f 39 3 41 
f 18 39 41 
f 27 12 42 
f 6 32 42 
f 32 27 42 
f 36 6 42 
o convex_1
v 0.002928 0.004006 -0.000180
v 0.000743 0.090317 0.020212
v 0.000743 0.090682 0.019845
v -0.002169 0.004006 0.000183
v 0.002928 0.004006 0.020212
v 0.003292 0.086304 0.000183
v -0.002169 0.086304 0.019845
v -0.002169 0.086304 0.000185
v -0.002169 0.004006 0.019845
v 0.003292 0.086304 0.019845
v 0.003292 0.004006 0.019845
v -0.000713 0.090317 -0.000180
v 0.003292 0.004006 0.000185
v -0.001805 0.004006 0.020212
v -0.001805 0.004006 -0.000180
v -0.001077 0.090317 0.019845
v 0.000743 0.090317 -0.000180
v -0.001805 0.086304 0.020212
v 0.002928 0.086304 0.020212
v 0.002928 0.086304 -0.000180
v 0.001107 0.090317 0.000185
v -0.000713 0.090682 0.000185
v -0.001805 0.086304 -0.000180
v 0.002200 0.088485 0.019845
v -0.001077 0.090317 0.000185
v -0.000713 0.090682 0.019845
v 0.000743 0.090682 0.000185
v 0.002200 0.088485 0.000185
f 63 66 70 
f 46 43 47 
f 46 49 50 
f 46 47 51 
f 49 46 51 
f 48 52 53 
f 47 43 53 
f 52 47 53 
f 43 48 55 
f 48 53 55 
f 53 43 55 
f 47 44 56 
f 51 47 56 
f 49 51 56 
f 43 46 57 
f 54 43 57 
f 50 49 58 
f 43 54 59 
f 56 44 60 
f 49 56 60 
f 44 58 60 
f 58 49 60 
f 44 47 61 
f 47 52 61 
f 48 43 62 
f 43 59 62 
f 59 54 64 
f 46 50 65 
f 50 54 65 
f 57 46 65 
f 54 57 65 
f 45 44 66 
f 52 48 66 
f 44 61 66 
f 61 52 66 
f 63 45 66 
f 54 50 67 
f 50 58 67 
f 64 54 67 
f 58 64 67 
f 44 45 68 
f 58 44 68 
f 45 64 68 
f 64 58 68 
f 45 63 69 
f 63 59 69 
f 59 64 69 
f 64 45 69 
f 48 62 70 
f 62 59 70 
f 59 63 70 
f 66 48 70 
