o convex_0
v 0.011380 -0.083426 0.020325
v -0.017714 -0.051342 0.000214
v -0.017283 -0.051771 -0.000214
v 0.011808 0.010260 0.019897
v 0.017370 -0.054337 -0.000214
v -0.017283 -0.028682 0.020325
v -0.004448 0.016250 -0.000214
v -0.007445 -0.088567 -0.000214
v -0.011721 -0.082578 0.019897
v -0.014717 0.006407 0.019897
v 0.014805 0.006407 0.000214
v 0.017801 -0.026536 0.019897
v -0.014717 0.006407 0.000214
v 0.010525 -0.085143 -0.000214
v 0.004535 0.016250 0.020325
v 0.001539 -0.090285 0.020325
v 0.016515 -0.063321 0.020325
v -0.016855 -0.060326 0.019897
v -0.013862 -0.076159 0.000214
v 0.004535 0.016250 -0.000214
v -0.004448 0.016250 0.020325
v 0.017801 -0.026536 0.000214
v 0.014377 0.006407 0.020325
v -0.017714 -0.028682 0.000214
v 0.005391 -0.089845 0.000214
v 0.015660 -0.068463 0.000214
v -0.007445 -0.088138 0.020325
v 0.017801 -0.054337 0.019897
v -0.017714 -0.028682 0.019897
v 0.007532 -0.088567 0.019897
v -0.001451 -0.090703 0.000214
v -0.017714 -0.051342 0.019897
v 0.017801 -0.054337 0.000214
v 0.011808 -0.083426 0.019897
v -0.009583 -0.086421 -0.000214
v -0.005303 -0.089845 0.019897
v 0.014805 0.006407 0.019897
v -0.015572 -0.068452 -0.000214
v -0.013862 -0.076159 0.019897
v 0.011380 0.010260 -0.000214
v -0.014290 0.006407 -0.000214
v 0.011808 -0.083426 0.000214
v -0.004875 0.016250 0.000214
v 0.001539 -0.090703 0.019897
v -0.015145 -0.068452 0.020325
v 0.015660 -0.068463 0.019897
v -0.014290 0.006407 0.020325
v -0.009583 -0.086421 0.019897
v 0.014377 0.006407 -0.000214
v -0.011721 -0.082578 0.000214
v 0.004963 0.016250 0.000214
v 0.010525 -0.085573 0.000214
v -0.016855 -0.060326 0.000214
v 0.011808 0.010260 0.000214
v -0.004875 0.016250 0.019897
v -0.015572 -0.068452 0.019897
v 0.017370 -0.026536 0.020325
v 0.005391 -0.089845 0.019897
v -0.005303 -0.089845 0.000214
v 0.016515 -0.063751 0.000214
v 0.001539 -0.090703 0.000214
v 0.007532 -0.088567 0.000214
v 0.010525 -0.085573 0.019897
v -0.001451 -0.090703 0.019897
f 31 44 64 
f 5 3 7 
f 3 5 8 
f 8 5 14 
f 6 1 15 
f 1 6 16 
f 15 1 17 
f 5 7 20 
f 7 15 20 
f 6 15 21 
f 15 7 21 
f 11 12 22 
f 4 15 23 
f 15 17 23 
f 3 2 24 
f 10 13 24 
f 14 5 26 
f 16 6 27 
f 22 12 28 
f 24 2 29 
f 10 24 29 
f 1 16 30 
f 2 18 32 
f 6 29 32 
f 29 2 32 
f 5 22 33 
f 22 28 33 
f 3 8 35 
f 27 8 36 
f 16 27 36 
f 11 4 37 
f 12 11 37 
f 4 23 37 
f 23 12 37 
f 3 35 38 
f 35 19 38 
f 19 9 39 
f 38 19 39 
f 5 20 40 
f 7 3 41 
f 13 7 41 
f 3 24 41 
f 24 13 41 
f 14 26 42 
f 26 34 42 
f 7 13 43 
f 13 10 43 
f 21 7 43 
f 9 27 45 
f 27 6 45 
f 32 18 45 
f 6 32 45 
f 39 9 45 
f 17 1 46 
f 1 34 46 
f 34 26 46 
f 6 21 47 
f 21 10 47 
f 29 6 47 
f 10 29 47 
f 8 27 48 
f 27 9 48 
f 35 8 48 
f 9 35 48 
f 22 5 49 
f 11 22 49 
f 40 11 49 
f 5 40 49 
f 9 19 50 
f 35 9 50 
f 19 35 50 
f 15 4 51 
f 20 15 51 
f 40 20 51 
f 14 42 52 
f 42 34 52 
f 2 3 53 
f 18 2 53 
f 3 38 53 
f 38 18 53 
f 4 11 54 
f 11 40 54 
f 51 4 54 
f 40 51 54 
f 10 21 55 
f 43 10 55 
f 21 43 55 
f 18 38 56 
f 38 39 56 
f 45 18 56 
f 39 45 56 
f 12 23 57 
f 23 17 57 
f 28 12 57 
f 17 28 57 
f 30 16 58 
f 25 30 58 
f 16 44 58 
f 44 25 58 
f 8 31 59 
f 36 8 59 
f 31 36 59 
f 26 5 60 
f 28 17 60 
f 5 33 60 
f 33 28 60 
f 17 46 60 
f 46 26 60 
f 8 14 61 
f 14 25 61 
f 31 8 61 
f 25 44 61 
f 44 31 61 
f 25 14 62 
f 30 25 62 
f 14 52 62 
f 52 30 62 
f 1 30 63 
f 34 1 63 
f 30 52 63 
f 52 34 63 
f 16 36 64 
f 36 31 64 
f 44 16 64 
o convex_1
v -0.004877 0.016260 0.000214
v 0.000257 0.090277 0.020325
v 0.000257 0.090714 0.019897
v 0.004537 0.016260 -0.000214
v 0.004108 0.016260 0.020325
v 0.004537 0.085146 -0.000214
v -0.004877 0.084293 0.019897
v -0.004877 0.084293 0.000214
v -0.004877 0.016260 0.019897
v 0.004537 0.085576 0.019897
v -0.000598 0.090277 -0.000214
v 0.004537 0.016260 0.019897
v -0.004449 0.016260 0.020325
v -0.004449 0.016260 -0.000214
v -0.002737 0.088571 0.019897
v 0.003681 0.087281 0.000214
v -0.004449 0.084293 0.020325
v -0.003593 0.086421 -0.000214
v 0.004108 0.085576 0.020325
v 0.000257 0.090714 0.000214
v -0.002737 0.088571 0.000214
v -0.000598 0.090714 0.019897
v 0.003681 0.087281 0.019897
v -0.000598 0.090714 0.000214
v -0.004449 0.084293 -0.000214
f 82 78 89 
f 65 68 69 
f 65 71 72 
f 65 69 73 
f 71 65 73 
f 68 70 74 
f 70 68 75 
f 69 68 76 
f 68 74 76 
f 74 69 76 
f 69 66 77 
f 73 69 77 
f 71 73 77 
f 68 65 78 
f 65 72 78 
f 75 68 78 
f 72 71 79 
f 74 70 80 
f 77 66 81 
f 71 77 81 
f 66 79 81 
f 79 71 81 
f 75 78 82 
f 66 69 83 
f 69 74 83 
f 70 75 84 
f 67 80 84 
f 80 70 84 
f 72 79 85 
f 82 72 85 
f 75 82 85 
f 66 67 86 
f 79 66 86 
f 67 84 86 
f 85 79 86 
f 67 66 87 
f 80 67 87 
f 74 80 87 
f 66 83 87 
f 83 74 87 
f 84 75 88 
f 75 85 88 
f 86 84 88 
f 85 86 88 
f 78 72 89 
f 72 82 89 
