o convex_0
v -0.005622 -0.089693 0.000159
v 0.001985 -0.009827 0.020129
v -0.002134 -0.009827 0.020129
v 0.001985 -0.009827 -0.000158
v 0.007057 -0.087478 0.019809
v -0.007207 -0.087169 0.019809
v -0.008158 -0.012691 0.000159
v 0.007057 -0.087478 0.000159
v 0.008008 -0.012683 0.019809
v 0.008008 -0.012683 0.000159
v -0.008158 -0.012691 0.019809
v -0.006889 -0.087161 -0.000158
v 0.002936 -0.090334 0.020129
v 0.005788 -0.089385 -0.000158
v -0.006889 -0.010784 -0.000158
v -0.005622 -0.089385 0.020129
v 0.006739 -0.010784 0.020129
v -0.007207 -0.087169 0.000159
v -0.002769 -0.090658 0.000159
v -0.006889 -0.010784 0.020129
v 0.006739 -0.010784 -0.000158
v 0.008008 -0.018388 0.000159
v -0.008158 -0.018396 0.019809
v -0.002769 -0.090658 0.019809
v 0.002936 -0.090658 0.000159
v 0.005788 -0.089385 0.020129
v 0.007057 -0.010468 0.000159
v 0.008008 -0.018388 0.019809
v -0.008158 -0.018396 0.000159
v -0.006889 -0.010468 0.000159
v -0.002452 -0.009827 0.000479
v 0.007057 -0.010468 0.019809
v 0.002936 -0.090658 0.019809
v -0.006889 -0.087161 0.020129
v 0.005788 -0.089693 0.000159
v 0.007690 -0.018388 0.020129
v 0.007690 -0.018388 -0.000158
v -0.006889 -0.010468 0.019809
v -0.006256 -0.089068 0.019809
v 0.006106 -0.089385 0.019809
v -0.007840 -0.018396 0.020129
v -0.007840 -0.018396 -0.000158
v -0.005622 -0.089693 0.019809
v 0.006739 -0.087478 0.020129
v 0.006739 -0.087478 -0.000158
v -0.002769 -0.090334 -0.000158
v -0.006256 -0.089068 0.000159
v -0.007207 -0.010784 0.019809
v 0.005788 -0.089693 0.019809
v 0.002302 -0.009827 0.019809
v 0.006106 -0.089385 0.000159
v -0.007207 -0.010784 0.000159
f 48 30 52 
f 3 2 4 
f 2 3 13 
f 12 4 14 
f 4 12 15 
f 13 3 16 
f 2 13 17 
f 16 3 20 
f 14 4 21 
f 5 8 22 
f 10 9 22 
f 11 7 23 
f 18 6 23 
f 13 16 24 
f 1 19 24 
f 24 19 25 
f 17 13 26 
f 9 10 27 
f 21 4 27 
f 10 21 27 
f 5 22 28 
f 22 9 28 
f 23 7 29 
f 18 23 29 
f 4 15 30 
f 3 4 31 
f 4 30 31 
f 2 17 32 
f 17 9 32 
f 9 27 32 
f 13 24 33 
f 24 25 33 
f 26 13 33 
f 16 20 34 
f 25 14 35 
f 33 25 35 
f 9 17 36 
f 17 26 36 
f 28 9 36 
f 5 28 36 
f 14 21 37 
f 21 10 37 
f 22 8 37 
f 10 22 37 
f 20 3 38 
f 3 31 38 
f 31 30 38 
f 6 18 39 
f 34 6 39 
f 16 34 39 
f 8 5 40 
f 5 26 40 
f 20 11 41 
f 11 23 41 
f 23 6 41 
f 6 34 41 
f 34 20 41 
f 7 15 42 
f 15 12 42 
f 12 18 42 
f 29 7 42 
f 18 29 42 
f 1 24 43 
f 24 16 43 
f 39 1 43 
f 16 39 43 
f 26 5 44 
f 5 36 44 
f 36 26 44 
f 8 14 45 
f 37 8 45 
f 14 37 45 
f 1 12 46 
f 12 14 46 
f 19 1 46 
f 25 19 46 
f 14 25 46 
f 12 1 47 
f 18 12 47 
f 1 39 47 
f 39 18 47 
f 7 11 48 
f 11 20 48 
f 20 38 48 
f 38 30 48 
f 26 33 49 
f 33 35 49 
f 40 26 49 
f 35 40 49 
f 4 2 50 
f 27 4 50 
f 2 32 50 
f 32 27 50 
f 14 8 51 
f 35 14 51 
f 8 40 51 
f 40 35 51 
f 15 7 52 
f 30 15 52 
f 7 48 52 
o convex_1
v -0.001818 -0.009814 -0.000158
v 0.001985 0.077962 0.020129
v 0.002302 0.077979 0.019809
v -0.002136 0.077962 0.000159
v -0.002136 -0.009822 0.019811
v 0.002302 -0.009814 0.000479
v 0.002302 0.077979 0.000479
v 0.002302 -0.009814 0.019809
v -0.002136 0.077962 0.019809
v -0.002136 -0.009822 0.000159
v 0.001668 0.077962 -0.000158
v -0.001818 -0.009814 0.020129
v 0.001668 -0.009814 -0.000158
v -0.001818 0.077962 0.020129
v 0.001985 -0.009814 0.020129
v -0.001818 0.077962 -0.000158
f 59 63 68 
f 56 55 59 
f 55 58 59 
f 55 54 60 
f 58 55 60 
f 57 58 60 
f 55 56 61 
f 56 57 61 
f 56 53 62 
f 57 56 62 
f 58 57 62 
f 59 58 63 
f 62 53 65 
f 58 62 65 
f 53 63 65 
f 63 58 65 
f 54 55 66 
f 55 61 66 
f 61 57 66 
f 64 54 66 
f 57 64 66 
f 60 54 67 
f 57 60 67 
f 54 64 67 
f 64 57 67 
f 53 56 68 
f 56 59 68 
f 63 53 68 
o convex_2
v 0.002936 0.089074 0.020129
v -0.002135 0.077979 -0.000158
v 0.001985 0.077979 -0.000158
v -0.001818 0.090658 0.000159
v -0.003087 0.078614 0.019809
v -0.003087 0.089390 0.019809
v 0.003253 0.078932 0.019809
v 0.003253 0.089074 0.000159
v -0.003087 0.089390 0.000159
v 0.001668 0.090658 0.019809
v 0.003253 0.078932 0.000159
v -0.003087 0.078614 0.000159
v 0.001985 0.077979 0.020129
v 0.001668 0.090341 -0.000158
v -0.001818 0.090341 0.020129
v 0.003253 0.089074 0.019811
v -0.002135 0.077979 0.020129
v 0.001668 0.090658 0.000159
v -0.001818 0.090658 0.019809
v -0.002770 0.089390 -0.000158
v 0.002302 0.077979 0.000159
v -0.002452 0.077979 0.019809
v 0.002936 0.089074 -0.000158
v 0.002302 0.077979 0.019809
v -0.002770 0.089390 0.020129
f 83 87 93 
f 73 74 77 
f 74 72 77 
f 76 75 79 
f 73 77 80 
f 70 71 81 
f 75 69 81 
f 71 70 82 
f 69 78 83 
f 81 69 83 
f 69 75 84 
f 75 76 84 
f 78 69 84 
f 76 78 84 
f 70 81 85 
f 81 83 85 
f 72 78 86 
f 78 76 86 
f 82 72 86 
f 72 74 87 
f 78 72 87 
f 83 78 87 
f 77 72 88 
f 70 80 88 
f 80 77 88 
f 82 70 88 
f 72 82 88 
f 71 79 89 
f 79 75 89 
f 81 71 89 
f 80 70 90 
f 73 80 90 
f 70 85 90 
f 85 73 90 
f 79 71 91 
f 76 79 91 
f 71 82 91 
f 86 76 91 
f 82 86 91 
f 75 81 92 
f 89 75 92 
f 81 89 92 
f 74 73 93 
f 73 85 93 
f 85 83 93 
f 87 74 93 
