o convex_0
v -0.008607 0.086815 0.015895
v -0.013987 0.046223 0.006114
v 0.000197 0.046223 0.006114
v -0.007139 0.046223 0.017853
v -0.000293 0.089753 0.008071
v 0.000197 0.057965 0.017853
v -0.013987 0.076059 0.006114
v -0.013987 0.076542 0.017363
v -0.013987 0.046223 0.017363
v 0.000197 0.046223 0.017363
v 0.000197 0.066282 0.017363
v -0.010073 0.085349 0.007582
v 0.000197 0.066282 0.006114
v -0.002738 0.090245 0.011984
v -0.012031 0.081928 0.016873
v -0.003717 0.090245 0.008071
v -0.012519 0.080950 0.006604
v -0.005675 0.088771 0.014429
v -0.000293 0.086328 0.007582
v -0.012031 0.078994 0.017363
v -0.009584 0.049649 0.017853
v -0.001272 0.090245 0.010517
v -0.006652 0.088771 0.008071
v -0.008607 0.084858 0.016385
v -0.000782 0.068721 0.006114
v -0.006652 0.088771 0.014429
f 16 23 26 
f 2 3 4 
f 3 2 7 
f 7 2 8 
f 2 4 9 
f 8 2 9 
f 4 3 10 
f 3 6 10 
f 6 4 10 
f 6 3 11 
f 3 7 13 
f 5 11 13 
f 11 3 13 
f 1 12 15 
f 7 8 17 
f 8 15 17 
f 15 12 17 
f 11 14 18 
f 5 13 19 
f 16 5 19 
f 7 17 19 
f 17 16 19 
f 6 11 20 
f 15 8 20 
f 4 6 21 
f 9 4 21 
f 8 9 21 
f 6 20 21 
f 20 8 21 
f 11 5 22 
f 14 11 22 
f 5 16 22 
f 16 14 22 
f 17 12 23 
f 16 17 23 
f 1 15 24 
f 18 1 24 
f 11 18 24 
f 20 11 24 
f 15 20 24 
f 13 7 25 
f 7 19 25 
f 19 13 25 
f 12 1 26 
f 14 16 26 
f 1 18 26 
f 18 14 26 
f 23 12 26 
o convex_1
v 0.008512 0.086815 0.008071
v 0.000198 0.046223 0.006114
v 0.010957 0.046223 0.006114
v 0.000198 0.056013 0.017853
v 0.013892 0.046223 0.017363
v 0.013403 0.078502 0.017363
v 0.000198 0.089753 0.009049
v 0.014382 0.072142 0.006115
v 0.007045 0.087301 0.015407
v 0.000198 0.046223 0.017363
v 0.000688 0.068721 0.006114
v 0.013892 0.046223 0.006115
v 0.000198 0.066282 0.017363
v 0.011935 0.081437 0.006605
v 0.014382 0.072142 0.017363
v 0.001177 0.090245 0.008071
v 0.003622 0.089753 0.012962
v 0.009979 0.084858 0.016385
v 0.000198 0.086328 0.007582
v 0.013892 0.076055 0.006115
v 0.004601 0.089753 0.008071
v 0.007045 0.088280 0.014429
v 0.014382 0.067747 0.006115
v 0.001177 0.090245 0.010517
v 0.011935 0.078994 0.017363
v 0.008022 0.083880 0.016385
v 0.010468 0.084371 0.007582
v 0.013403 0.078502 0.006605
f 46 40 54 
f 28 29 31 
f 28 30 33 
f 30 28 36 
f 31 30 36 
f 28 31 36 
f 29 28 37 
f 31 29 38 
f 33 30 39 
f 30 31 41 
f 32 30 41 
f 39 35 43 
f 28 33 45 
f 37 28 45 
f 40 37 45 
f 33 42 45 
f 42 40 45 
f 34 29 46 
f 29 37 46 
f 37 40 46 
f 32 41 46 
f 41 34 46 
f 27 40 47 
f 40 42 47 
f 47 43 48 
f 43 35 48 
f 44 27 48 
f 35 44 48 
f 27 47 48 
f 29 34 49 
f 38 29 49 
f 31 38 49 
f 41 31 49 
f 34 41 49 
f 33 39 50 
f 42 33 50 
f 39 43 50 
f 47 42 50 
f 43 47 50 
f 30 32 51 
f 39 30 51 
f 32 44 51 
f 51 44 52 
f 35 39 52 
f 44 35 52 
f 39 51 52 
f 40 27 53 
f 32 40 53 
f 27 44 53 
f 44 32 53 
f 40 32 54 
f 32 46 54 
o convex_2
v 0.012914 -0.064810 0.026168
v 0.011936 -0.069701 0.002696
v 0.011936 -0.067255 0.002696
v 0.014871 -0.056007 0.004650
v 0.013892 -0.055517 0.024210
v 0.012914 -0.069701 0.025676
v 0.012914 -0.069701 0.002696
v 0.011936 -0.067743 0.025676
v 0.014871 -0.056007 0.024210
v 0.013892 -0.055517 0.004650
v 0.011936 -0.069701 0.025676
v 0.014871 -0.055027 0.004650
v 0.014382 -0.059921 0.024210
v 0.012914 -0.064810 0.002203
f 64 66 68 
f 60 56 61 
f 57 56 62 
f 55 59 62 
f 59 57 62 
f 59 55 63 
f 55 60 63 
f 57 59 64 
f 56 60 65 
f 60 55 65 
f 62 56 65 
f 55 62 65 
f 59 63 66 
f 63 58 66 
f 64 59 66 
f 61 58 67 
f 60 61 67 
f 58 63 67 
f 63 60 67 
f 56 57 68 
f 61 56 68 
f 58 61 68 
f 57 64 68 
f 66 58 68 
o convex_3
v 0.024652 -0.060893 0.002201
v 0.012914 -0.021281 0.001712
v 0.012914 -0.021281 0.002201
v 0.028076 -0.028614 0.001712
v 0.014872 -0.049639 0.001223
v 0.013894 -0.058447 0.002201
v 0.025142 -0.052089 0.001223
v 0.029056 -0.033996 0.002201
v 0.019274 -0.029109 0.001223
v 0.023674 -0.019321 0.002201
v 0.022696 -0.062853 0.001712
v 0.029056 -0.052571 0.001712
v 0.023674 -0.019321 0.001712
v 0.025142 -0.035466 0.001223
v 0.013894 -0.058447 0.001712
v 0.014382 -0.031065 0.001223
v 0.029056 -0.052571 0.002201
v 0.012914 -0.019321 0.001712
f 77 84 86 
f 69 71 74 
f 71 70 74 
f 71 69 76 
f 75 73 77 
f 71 76 78 
f 76 72 78 
f 69 74 79 
f 73 75 79 
f 79 75 80 
f 72 76 80 
f 69 79 80 
f 78 72 81 
f 75 77 82 
f 80 75 82 
f 72 80 82 
f 77 81 82 
f 81 72 82 
f 74 70 83 
f 73 79 83 
f 79 74 83 
f 77 73 84 
f 83 70 84 
f 73 83 84 
f 76 69 85 
f 69 80 85 
f 80 76 85 
f 70 71 86 
f 71 78 86 
f 81 77 86 
f 78 81 86 
f 84 70 86 
o convex_4
v -0.014479 -0.049160 0.001223
v -0.028170 -0.061381 0.002201
v -0.027682 -0.062844 0.002201
v -0.014968 -0.039864 0.003668
v -0.013990 -0.071658 0.003179
v -0.028170 -0.039864 0.001712
v -0.028170 -0.061381 0.002690
v -0.014969 -0.039864 0.001223
v -0.024257 -0.053075 0.001223
v -0.021323 -0.069694 0.002201
v -0.022303 -0.071658 0.003179
v -0.028170 -0.039864 0.002201
v -0.013990 -0.059427 0.003668
v -0.013990 -0.067248 0.002201
v -0.025234 -0.039864 0.001223
v -0.028170 -0.053075 0.002690
v -0.028170 -0.054541 0.001712
v -0.016924 -0.061378 0.001712
v -0.013990 -0.054547 0.001712
v -0.015457 -0.039864 0.003668
v -0.013990 -0.071658 0.002690
v -0.023280 -0.062844 0.001712
f 104 96 108 
f 88 89 93 
f 92 88 93 
f 92 90 94 
f 94 87 95 
f 93 89 97 
f 89 96 97 
f 90 92 98 
f 92 93 98 
f 97 91 99 
f 99 91 100 
f 92 94 101 
f 94 95 101 
f 93 97 102 
f 98 93 102 
f 89 88 103 
f 88 92 103 
f 92 101 103 
f 101 95 103 
f 95 87 104 
f 87 100 104 
f 100 96 104 
f 87 94 105 
f 94 90 105 
f 90 99 105 
f 100 87 105 
f 99 100 105 
f 90 98 106 
f 99 90 106 
f 97 99 106 
f 102 97 106 
f 98 102 106 
f 91 97 107 
f 97 96 107 
f 100 91 107 
f 96 100 107 
f 96 89 108 
f 89 103 108 
f 103 95 108 
f 95 104 108 
o convex_5
v -0.012521 -0.064320 0.026168
v -0.013988 -0.069211 0.002694
v -0.013988 -0.066765 0.002203
v -0.012031 -0.069211 0.002694
v -0.013499 -0.058941 0.002203
v -0.013988 -0.069211 0.025678
v -0.013988 -0.058941 0.026168
v -0.012031 -0.069211 0.025678
v -0.012031 -0.066765 0.002694
v -0.013988 -0.058941 0.002203
v -0.013499 -0.058941 0.026168
v -0.012031 -0.066765 0.025678
f 119 109 120 
f 110 111 112 
f 112 111 113 
f 111 110 114 
f 110 112 114 
f 114 109 115 
f 111 114 115 
f 114 112 116 
f 109 114 116 
f 112 113 117 
f 116 112 117 
f 113 111 118 
f 115 113 118 
f 111 115 118 
f 115 109 119 
f 113 115 119 
f 117 113 119 
f 117 119 120 
f 109 116 120 
f 116 117 120 
o convex_6
v -0.008121 0.003180 0.003668
v -0.021324 -0.023718 0.001712
v -0.021324 -0.023718 0.002201
v -0.019855 0.014426 0.002201
v -0.005676 0.014429 0.001712
v -0.013499 -0.024699 0.001712
v -0.021324 -0.001228 0.003179
v -0.013499 -0.024699 0.003179
v -0.017899 0.014429 0.001712
v -0.019855 0.014426 0.002690
v -0.005676 0.014429 0.002201
v -0.006653 0.007091 0.002201
v -0.021324 -0.011006 0.001712
v -0.008611 -0.001224 0.003668
v -0.021324 -0.004652 0.003179
f 128 134 135 
f 123 122 126 
f 122 123 127 
f 123 126 128 
f 126 122 129 
f 125 126 129 
f 127 121 130 
f 124 127 130 
f 129 124 130 
f 129 130 131 
f 125 129 131 
f 130 121 131 
f 125 131 132 
f 126 125 132 
f 128 126 132 
f 122 127 133 
f 127 124 133 
f 129 122 133 
f 124 129 133 
f 121 127 134 
f 131 121 134 
f 132 131 134 
f 128 132 134 
f 127 123 135 
f 123 128 135 
f 134 127 135 
o convex_7
v 0.002643 0.046223 0.017363
v -0.002738 0.040842 0.006115
v 0.002643 0.040842 0.006115
v -0.002738 0.046223 0.006115
v -0.002738 0.041333 0.017363
v 0.002643 0.040842 0.017363
v 0.002643 0.046223 0.006115
v -0.002738 0.046223 0.017363
f 139 140 143 
f 138 137 139 
f 139 137 140 
f 140 137 141 
f 138 136 141 
f 137 138 141 
f 136 140 141 
f 136 138 142 
f 138 139 142 
f 139 136 142 
f 136 139 143 
f 140 136 143 
o convex_8
v 0.012914 -0.085842 0.021278
v 0.019762 -0.079973 0.024212
v 0.019762 -0.081930 0.024212
v 0.019762 -0.085352 0.020788
v 0.012914 -0.080952 0.023722
v 0.012914 -0.084375 0.023722
v 0.019272 -0.085352 0.022744
f 149 144 150 
f 145 146 147 
f 147 144 148 
f 146 145 148 
f 145 147 148 
f 148 144 149 
f 146 148 149 
f 147 146 150 
f 144 147 150 
f 146 149 150 
o convex_9
v 0.031012 -0.051117 0.004647
v 0.026611 -0.077525 0.006603
v 0.026611 -0.077525 0.007092
v 0.026611 -0.055030 0.002201
v 0.031012 -0.050628 0.007092
v 0.027100 -0.068720 0.002690
v 0.030522 -0.063835 0.006603
v 0.029056 -0.050628 0.002201
v 0.026611 -0.074589 0.007092
v 0.028078 -0.062366 0.002201
v 0.031989 -0.053074 0.007092
v 0.026611 -0.055030 0.002690
v 0.028567 -0.073122 0.006603
v 0.026611 -0.068720 0.002690
f 160 156 164 
f 152 153 154 
f 155 151 158 
f 154 153 159 
f 153 155 159 
f 151 157 160 
f 157 156 160 
f 158 151 160 
f 154 158 160 
f 151 155 161 
f 155 153 161 
f 157 151 161 
f 155 158 162 
f 158 154 162 
f 154 159 162 
f 159 155 162 
f 153 152 163 
f 152 156 163 
f 156 157 163 
f 161 153 163 
f 157 161 163 
f 152 154 164 
f 156 152 164 
f 154 160 164 
o convex_10
v 0.026610 -0.056008 0.002201
v 0.019762 -0.082418 0.004157
v 0.021719 -0.082418 0.004157
v 0.026121 -0.071165 0.004647
v 0.019762 -0.061390 0.002690
v 0.026610 -0.070188 0.002690
v 0.019762 -0.069213 0.002201
v 0.019762 -0.080459 0.004647
v 0.024653 -0.079970 0.003668
v 0.026610 -0.075079 0.004647
v 0.026610 -0.056008 0.002690
v 0.021231 -0.079479 0.003179
v 0.024653 -0.067259 0.002201
v 0.024164 -0.081436 0.004647
v 0.019762 -0.061390 0.002201
f 171 169 179 
f 166 169 171 
f 168 169 172 
f 169 166 172 
f 170 165 174 
f 168 172 174 
f 173 170 174 
f 165 169 175 
f 169 168 175 
f 174 165 175 
f 168 174 175 
f 167 166 176 
f 166 171 176 
f 173 167 176 
f 170 173 176 
f 165 170 177 
f 171 165 177 
f 170 176 177 
f 176 171 177 
f 166 167 178 
f 172 166 178 
f 167 173 178 
f 174 172 178 
f 173 174 178 
f 169 165 179 
f 165 171 179 
o convex_11
v -0.013987 -0.024699 0.003184
v -0.009097 -0.001228 0.024212
v -0.008119 0.003179 0.023722
v -0.009586 -0.000734 0.003670
v -0.013987 -0.021274 0.024212
v -0.013498 -0.024699 0.024212
v -0.008119 0.000734 0.003670
v -0.013987 -0.021274 0.003184
v -0.008119 0.000734 0.023722
v -0.009586 -0.000734 0.023722
v -0.013498 -0.024699 0.003184
v -0.008608 0.003179 0.003670
v -0.008608 0.003179 0.023722
v -0.010565 -0.005138 0.024212
v -0.013987 -0.024699 0.024212
v -0.010076 -0.008566 0.003184
v -0.008119 0.003179 0.003670
f 186 195 196 
f 181 184 185 
f 180 184 187 
f 182 181 188 
f 181 185 188 
f 186 182 188 
f 185 180 190 
f 180 187 190 
f 187 183 191 
f 183 189 191 
f 191 189 192 
f 181 182 192 
f 182 191 192 
f 181 192 193 
f 184 181 193 
f 187 184 193 
f 183 187 193 
f 189 183 193 
f 192 189 193 
f 184 180 194 
f 180 185 194 
f 185 184 194 
f 188 185 195 
f 186 188 195 
f 185 190 195 
f 190 187 195 
f 187 191 195 
f 195 191 196 
f 182 186 196 
f 191 182 196 
o convex_12
v 0.031012 -0.048669 0.020787
v 0.026121 -0.065296 0.023233
v 0.026121 -0.065296 0.023723
v 0.028078 -0.035465 0.023233
v 0.029544 -0.064318 0.017365
v 0.032480 -0.035465 0.017365
v 0.031501 -0.060407 0.017854
v 0.029056 -0.050623 0.023723
v 0.029057 -0.035465 0.023723
v 0.031012 -0.035465 0.018343
v 0.027589 -0.064805 0.023233
v 0.032480 -0.049650 0.018343
v 0.030522 -0.065296 0.017365
v 0.032480 -0.035465 0.018343
v 0.027100 -0.064805 0.021276
v 0.032480 -0.051604 0.017365
f 203 209 212 
f 198 199 200 
f 200 199 205 
f 202 200 205 
f 199 204 205 
f 204 197 205 
f 200 202 206 
f 202 201 206 
f 204 199 207 
f 203 204 207 
f 204 203 208 
f 197 204 208 
f 199 198 209 
f 198 201 209 
f 201 202 209 
f 207 199 209 
f 203 207 209 
f 205 197 210 
f 202 205 210 
f 208 202 210 
f 197 208 210 
f 198 200 211 
f 201 198 211 
f 200 206 211 
f 206 201 211 
f 202 208 212 
f 208 203 212 
f 209 202 212 
o convex_13
v -0.016922 -0.001223 0.025679
v -0.018879 -0.039864 0.026168
v -0.014966 -0.039864 0.024212
v -0.009097 -0.003674 0.025190
v -0.014477 -0.039864 0.026657
v -0.018879 -0.001223 0.024702
v -0.009097 -0.001227 0.024212
v -0.018879 -0.023713 0.026657
v -0.014477 -0.039864 0.024212
v -0.016922 -0.025188 0.026657
v -0.009097 -0.001227 0.025190
v -0.018879 -0.002690 0.025679
v -0.014477 -0.024209 0.024212
v -0.018879 -0.039864 0.026657
f 220 214 226 
f 214 215 217 
f 215 214 218 
f 218 213 219 
f 218 214 220 
f 216 217 221 
f 217 215 221 
f 215 219 221 
f 219 216 221 
f 213 220 222 
f 220 217 222 
f 217 216 223 
f 216 219 223 
f 219 213 223 
f 213 222 223 
f 222 217 223 
f 213 218 224 
f 220 213 224 
f 218 220 224 
f 215 218 225 
f 219 215 225 
f 218 219 225 
f 214 217 226 
f 217 220 226 
o convex_14
v 0.011935 -0.069701 0.025678
v 0.012425 -0.089266 0.011495
v 0.012914 -0.089266 0.011495
v 0.011935 -0.069701 0.002690
v 0.009980 -0.081441 0.024699
v 0.009980 -0.080462 0.004160
v 0.012914 -0.077038 0.025678
v 0.012914 -0.069701 0.002690
v 0.010469 -0.074106 0.025678
v 0.010958 -0.087307 0.019807
v 0.012914 -0.083887 0.004652
v 0.010469 -0.086328 0.007096
v 0.012914 -0.084375 0.023720
v 0.012914 -0.069701 0.025678
v 0.010959 -0.072147 0.003181
v 0.012914 -0.089266 0.017364
v 0.011447 -0.070193 0.025678
v 0.010469 -0.085352 0.022742
v 0.011935 -0.078505 0.003181
v 0.010469 -0.074106 0.012474
v 0.011936 -0.089266 0.016385
v 0.010469 -0.083887 0.004652
v 0.012914 -0.087307 0.007584
f 248 237 249 
f 230 227 234 
f 233 229 234 
f 232 231 235 
f 233 227 235 
f 231 233 235 
f 234 229 237 
f 231 232 238 
f 229 233 239 
f 233 231 239 
f 227 233 240 
f 234 227 240 
f 233 234 240 
f 228 229 242 
f 229 239 242 
f 227 230 243 
f 235 227 243 
f 230 241 243 
f 241 235 243 
f 231 238 244 
f 238 236 244 
f 239 231 244 
f 236 242 244 
f 242 239 244 
f 230 234 245 
f 234 237 245 
f 241 230 245 
f 232 241 245 
f 232 235 246 
f 241 232 246 
f 235 241 246 
f 238 228 247 
f 236 238 247 
f 228 242 247 
f 242 236 247 
f 238 232 248 
f 232 245 248 
f 245 237 248 
f 229 228 249 
f 237 229 249 
f 228 238 249 
f 238 248 249 
o convex_15
v -0.021814 0.014432 0.017364
v -0.028172 0.029590 0.011495
v -0.028172 0.029590 0.011985
v -0.026215 0.037905 0.016385
v -0.023282 0.018345 0.011495
v -0.027194 0.030079 0.016874
v -0.027683 0.037905 0.011495
v -0.023771 0.014432 0.012962
v -0.021814 0.019324 0.016874
v -0.027194 0.037905 0.017364
v -0.022793 0.015410 0.017364
v -0.028172 0.030569 0.014429
v -0.023282 0.014432 0.011495
v -0.028172 0.037905 0.013941
v -0.026215 0.037905 0.017364
f 253 259 264 
f 254 251 256 
f 252 251 257 
f 256 253 258 
f 254 256 258 
f 253 256 259 
f 257 250 260 
f 250 259 260 
f 259 255 260 
f 251 252 261 
f 252 257 261 
f 255 259 261 
f 257 260 261 
f 260 255 261 
f 251 254 262 
f 257 251 262 
f 250 257 262 
f 258 250 262 
f 254 258 262 
f 256 251 263 
f 259 256 263 
f 251 261 263 
f 261 259 263 
f 250 258 264 
f 258 253 264 
f 259 250 264 
o convex_16
v -0.025235 0.039377 0.004160
v -0.015455 0.045244 0.017362
v -0.017901 0.045734 0.017363
v -0.026703 0.037908 0.017363
v -0.015455 0.042798 0.003179
v -0.019371 0.045734 0.010028
v -0.027681 0.039375 0.014916
v -0.023769 0.037908 0.003179
v -0.017901 0.044266 0.003179
v -0.015455 0.044266 0.017362
v -0.028172 0.038888 0.008559
v -0.016923 0.044755 0.004160
v -0.028172 0.037908 0.008559
v -0.026214 0.037908 0.017363
v -0.015455 0.042798 0.005138
v -0.019371 0.045734 0.014427
v -0.018881 0.045244 0.006603
v -0.024747 0.040845 0.017363
v -0.026703 0.040354 0.010517
v -0.025235 0.038399 0.003179
v -0.015455 0.043777 0.003179
f 273 276 285 
f 267 266 270 
f 269 272 273 
f 266 267 274 
f 269 266 274 
f 270 266 276 
f 268 271 277 
f 272 268 277 
f 271 275 277 
f 267 268 278 
f 268 272 278 
f 274 267 278 
f 274 278 279 
f 272 269 279 
f 269 274 279 
f 278 272 279 
f 267 270 280 
f 273 265 281 
f 265 275 281 
f 275 270 281 
f 270 276 281 
f 276 273 281 
f 268 267 282 
f 271 268 282 
f 267 280 282 
f 280 271 282 
f 270 275 283 
f 275 271 283 
f 280 270 283 
f 271 280 283 
f 273 272 284 
f 265 273 284 
f 275 265 284 
f 272 277 284 
f 277 275 284 
f 266 269 285 
f 269 273 285 
f 276 266 285 
o convex_17
v 0.028076 -0.024703 0.002201
v 0.022698 -0.019810 0.002201
v 0.022698 -0.019810 0.002690
v 0.028076 -0.034484 0.002201
v 0.028076 -0.020300 0.004157
v 0.029054 -0.034484 0.004157
v 0.030032 -0.033992 0.003179
v 0.026610 -0.019321 0.002201
v 0.026610 -0.019321 0.004157
f 293 288 294 
f 288 287 289 
f 287 286 289 
f 288 289 291 
f 289 286 292 
f 286 290 292 
f 290 291 292 
f 291 289 292 
f 286 287 293 
f 287 288 293 
f 290 286 293 
f 290 293 294 
f 288 291 294 
f 291 290 294 
o convex_18
v 0.025143 -0.007583 0.004648
v 0.025633 0.002690 0.011984
v 0.025633 0.002690 0.011494
v 0.031012 -0.019321 0.011494
v 0.025143 -0.019321 0.002691
v 0.029544 -0.018338 0.006605
v 0.025143 -0.000736 0.011984
v 0.030033 -0.019321 0.011984
v 0.026611 -0.019321 0.002202
v 0.025633 -0.004159 0.006116
v 0.028566 -0.010513 0.009049
v 0.025633 -0.013936 0.002202
v 0.025143 0.001221 0.009538
f 297 304 307 
f 297 296 298 
f 295 299 301 
f 301 299 302 
f 298 296 302 
f 299 298 302 
f 296 301 302 
f 298 299 303 
f 300 298 303 
f 304 297 305 
f 297 298 305 
f 298 300 305 
f 300 304 305 
f 299 295 306 
f 303 299 306 
f 300 303 306 
f 304 300 306 
f 295 304 306 
f 296 297 307 
f 295 301 307 
f 301 296 307 
f 304 295 307 
o convex_19
v 0.029544 -0.012470 0.011984
v 0.025633 -0.017850 0.024699
v 0.025143 -0.017850 0.024699
v 0.025633 0.003177 0.012963
v 0.025143 -0.000247 0.011984
v 0.030033 -0.019318 0.011984
v 0.030033 -0.018827 0.017855
v 0.025143 -0.019318 0.023232
v 0.025633 -0.001713 0.017855
v 0.030522 -0.017850 0.015898
v 0.025143 0.000242 0.016388
v 0.031012 -0.019318 0.011984
v 0.029055 -0.015406 0.018342
v 0.026121 -0.019318 0.024211
v 0.025143 0.003177 0.011984
f 312 318 322 
f 312 308 313 
f 310 312 315 
f 312 313 315 
f 310 309 316 
f 308 311 317 
f 311 316 317 
f 312 310 318 
f 310 316 318 
f 316 311 318 
f 313 308 319 
f 315 313 319 
f 317 314 319 
f 308 317 319 
f 309 314 320 
f 316 309 320 
f 314 317 320 
f 317 316 320 
f 309 310 321 
f 314 309 321 
f 310 315 321 
f 315 319 321 
f 319 314 321 
f 311 308 322 
f 308 312 322 
f 318 311 322 
o convex_20
v -0.013987 -0.080464 0.024701
v -0.013987 -0.089755 0.011495
v -0.013498 -0.089755 0.011495
v -0.010075 -0.081441 0.004158
v -0.010075 -0.082419 0.024208
v -0.013987 -0.081441 0.004158
v -0.011543 -0.088775 0.017365
v -0.010565 -0.086820 0.007582
v -0.013987 -0.087308 0.020786
v -0.010075 -0.080464 0.024701
v -0.010075 -0.080464 0.013943
v -0.013987 -0.085354 0.005626
v -0.010565 -0.085351 0.022742
v -0.013498 -0.084376 0.023720
v -0.013987 -0.089754 0.016875
v -0.010075 -0.082419 0.004158
v -0.012520 -0.089755 0.012963
f 329 337 339 
f 324 323 328 
f 323 324 331 
f 327 326 332 
f 328 323 333 
f 326 328 333 
f 323 332 333 
f 332 326 333 
f 325 324 334 
f 324 328 334 
f 330 325 334 
f 330 327 335 
f 329 330 335 
f 331 335 336 
f 323 331 336 
f 332 323 336 
f 327 332 336 
f 335 327 336 
f 331 324 337 
f 329 335 337 
f 335 331 337 
f 326 327 338 
f 328 326 338 
f 327 330 338 
f 334 328 338 
f 330 334 338 
f 324 325 339 
f 330 329 339 
f 325 330 339 
f 337 324 339 
o convex_21
v -0.013990 -0.090245 0.012472
v -0.022303 -0.087310 0.008560
v -0.022303 -0.086821 0.008560
v -0.022303 -0.088777 0.015408
v -0.013990 -0.087310 0.009049
v -0.013990 -0.089266 0.015408
v -0.018878 -0.089755 0.010517
v -0.019367 -0.090245 0.015408
v -0.013990 -0.088288 0.008560
v -0.022303 -0.089266 0.011984
v -0.021324 -0.086821 0.009538
f 345 344 350 
f 342 341 343 
f 340 344 345 
f 340 345 347 
f 345 343 347 
f 346 340 347 
f 341 342 348 
f 344 340 348 
f 342 344 348 
f 346 341 348 
f 340 346 348 
f 343 341 349 
f 341 346 349 
f 347 343 349 
f 346 347 349 
f 342 343 350 
f 344 342 350 
f 343 345 350 
o convex_22
v -0.013988 -0.024213 0.024211
v -0.015455 -0.039863 0.003670
v -0.015455 -0.034970 0.003670
v -0.013988 -0.029593 0.003670
v -0.014477 -0.039863 0.024211
v -0.015455 -0.039372 0.022743
v -0.014477 -0.024213 0.003670
v -0.014966 -0.028127 0.024211
v -0.014966 -0.039863 0.003670
v -0.013988 -0.024213 0.003670
v -0.013988 -0.028616 0.024211
v -0.014477 -0.024213 0.024211
f 357 358 362 
f 352 353 354 
f 352 355 356 
f 353 352 356 
f 354 353 357 
f 355 351 358 
f 356 355 358 
f 353 356 358 
f 357 353 358 
f 352 354 359 
f 354 355 359 
f 355 352 359 
f 351 354 360 
f 354 357 360 
f 357 351 360 
f 354 351 361 
f 351 355 361 
f 355 354 361 
f 351 357 362 
f 358 351 362 
o convex_23
v 0.020252 0.014429 0.002201
v 0.028077 0.038397 0.011984
v 0.028077 0.038397 0.008560
v 0.023186 0.038397 0.002201
v 0.023188 0.017369 0.011984
v 0.028077 0.030570 0.008071
v 0.024652 0.031058 0.002201
v 0.023677 0.014436 0.011984
v 0.019762 0.019811 0.002691
v 0.028566 0.030570 0.011984
v 0.023677 0.014436 0.009049
v 0.023186 0.038397 0.003180
v 0.027587 0.038397 0.011984
v 0.019762 0.014429 0.003669
v 0.026609 0.038397 0.005135
v 0.026121 0.029102 0.004647
v 0.022698 0.014924 0.006116
v 0.024652 0.037902 0.002201
v 0.024164 0.022746 0.011984
f 375 374 381 
f 364 365 366 
f 363 366 369 
f 364 367 370 
f 366 363 371 
f 365 364 372 
f 368 365 372 
f 364 370 372 
f 372 370 373 
f 370 363 373 
f 368 372 373 
f 364 366 374 
f 366 371 374 
f 371 367 374 
f 367 364 375 
f 364 374 375 
f 363 370 376 
f 370 367 376 
f 371 363 376 
f 367 371 376 
f 366 365 377 
f 365 368 377 
f 369 377 378 
f 363 369 378 
f 377 368 378 
f 378 368 379 
f 373 363 379 
f 368 373 379 
f 363 378 379 
f 369 366 380 
f 366 377 380 
f 377 369 380 
f 374 367 381 
f 367 375 381 
o convex_24
v -0.006162 0.035952 0.002690
v -0.015455 0.041818 0.002690
v -0.015455 0.041818 0.003180
v -0.004694 0.028617 0.003180
v -0.003717 0.037907 0.006114
v -0.015455 0.042796 0.006114
v -0.003717 0.028617 0.006114
v -0.003227 0.036929 0.003669
v -0.014476 0.043286 0.002690
v -0.010072 0.033996 0.002690
v -0.003227 0.028617 0.002690
v -0.014966 0.043776 0.006114
v -0.003227 0.028617 0.006114
f 392 389 394 
f 383 384 387 
f 386 387 388 
f 386 389 390 
f 382 383 390 
f 389 382 390 
f 383 382 391 
f 384 383 391 
f 387 384 391 
f 388 387 391 
f 385 388 391 
f 388 385 392 
f 382 389 392 
f 391 382 392 
f 385 391 392 
f 383 387 393 
f 387 386 393 
f 386 390 393 
f 390 383 393 
f 386 388 394 
f 389 386 394 
f 388 392 394 
o convex_25
v -0.005673 0.012961 0.023723
v -0.008118 0.002691 0.002201
v -0.008118 0.006604 0.002201
v -0.005673 0.012961 0.002201
v -0.007629 0.002691 0.023723
v -0.006651 0.013449 0.023723
v -0.008118 0.005137 0.023723
v -0.006162 0.014428 0.002201
v -0.006651 0.007094 0.002201
v -0.006651 0.006604 0.023723
v -0.007629 0.002691 0.002201
v -0.005673 0.014428 0.023723
v -0.006651 0.013449 0.002201
v -0.008118 0.002691 0.023723
f 401 396 408 
f 396 397 398 
f 399 395 400 
f 399 400 401 
f 397 396 401 
f 400 397 401 
f 398 397 402 
f 396 398 403 
f 398 395 404 
f 395 399 404 
f 403 398 404 
f 399 396 405 
f 396 403 405 
f 404 399 405 
f 403 404 405 
f 395 398 406 
f 400 395 406 
f 398 402 406 
f 402 400 406 
f 397 400 407 
f 402 397 407 
f 400 402 407 
f 396 399 408 
f 399 401 408 
o convex_26
v -0.010564 0.004649 0.025190
v -0.015455 -0.001221 0.024701
v -0.009586 -0.001221 0.023723
v -0.015455 0.014427 0.024212
v -0.005673 0.014428 0.023723
v -0.005673 0.014428 0.024701
v -0.009098 -0.001221 0.025190
v -0.015455 0.007579 0.025190
v -0.006651 0.006603 0.023723
v -0.015455 0.014427 0.024701
v -0.015455 -0.001221 0.025190
f 415 416 419 
f 411 410 412 
f 411 412 413 
f 413 412 414 
f 410 411 415 
f 414 409 415 
f 412 410 416 
f 409 414 416 
f 415 409 416 
f 411 413 417 
f 413 414 417 
f 415 411 417 
f 414 415 417 
f 414 412 418 
f 412 416 418 
f 416 414 418 
f 410 415 419 
f 416 410 419 
o convex_27
v -0.011054 -0.071660 0.005136
v -0.013987 -0.081439 0.004157
v -0.013987 -0.081439 0.004647
v -0.010075 -0.081439 0.004157
v -0.013987 -0.069212 0.002690
v -0.011543 -0.071660 0.002690
v -0.012520 -0.069212 0.005136
v -0.013987 -0.078993 0.003180
v -0.010075 -0.081439 0.005136
v -0.011543 -0.069703 0.002690
f 424 426 429 
f 422 421 423 
f 421 422 424 
f 424 422 426 
f 423 421 427 
f 421 424 427 
f 424 425 427 
f 425 423 427 
f 422 423 428 
f 423 420 428 
f 420 426 428 
f 426 422 428 
f 420 423 429 
f 425 424 429 
f 423 425 429 
f 426 420 429 
o convex_28
v -0.011542 -0.069704 0.023721
v -0.010564 -0.081439 0.005138
v -0.011053 -0.079972 0.005138
v -0.011542 -0.069704 0.005138
v -0.012520 -0.070192 0.023721
v -0.010075 -0.080460 0.023721
v -0.012520 -0.069212 0.005138
v -0.010564 -0.074105 0.007095
v -0.010564 -0.080460 0.023721
v -0.010564 -0.073615 0.023721
v -0.010075 -0.079481 0.005138
v -0.010075 -0.077036 0.023721
v -0.012520 -0.070192 0.005138
f 434 436 442 
f 431 432 433 
f 430 434 435 
f 433 432 436 
f 430 433 436 
f 434 430 436 
f 432 431 438 
f 434 432 438 
f 435 434 438 
f 431 435 438 
f 433 430 439 
f 430 435 439 
f 437 433 439 
f 431 433 440 
f 435 431 440 
f 433 437 440 
f 435 440 441 
f 439 435 441 
f 437 439 441 
f 440 437 441 
f 432 434 442 
f 436 432 442 
o convex_29
v -0.031595 -0.063339 0.015897
v -0.027685 -0.039864 0.024701
v -0.027685 -0.039864 0.023720
v -0.025239 -0.066276 0.024701
v -0.028663 -0.051601 0.024211
v -0.032574 -0.039864 0.015897
v -0.029639 -0.065785 0.016387
v -0.033063 -0.049647 0.016877
v -0.026706 -0.064807 0.024701
v -0.031595 -0.039864 0.019810
v -0.031107 -0.061873 0.018343
v -0.025239 -0.064807 0.024211
v -0.030617 -0.066276 0.017364
v -0.031595 -0.050136 0.019810
v -0.029151 -0.039864 0.023720
v -0.032085 -0.039864 0.016387
v -0.033063 -0.039864 0.015897
v -0.030128 -0.066276 0.015897
f 446 455 460 
f 444 445 448 
f 446 444 451 
f 444 447 451 
f 444 448 452 
f 450 443 453 
f 451 447 453 
f 445 444 454 
f 444 446 454 
f 449 445 454 
f 446 449 454 
f 446 451 455 
f 453 443 455 
f 451 453 455 
f 452 450 456 
f 450 453 456 
f 453 447 456 
f 447 444 457 
f 444 452 457 
f 456 447 457 
f 452 456 457 
f 448 445 458 
f 449 448 458 
f 445 449 458 
f 448 443 459 
f 443 450 459 
f 452 448 459 
f 450 452 459 
f 443 448 460 
f 448 449 460 
f 449 446 460 
f 455 443 460 
o convex_30
v -0.015946 -0.068237 0.026168
v -0.022303 -0.078016 0.023723
v -0.010565 -0.080459 0.023723
v -0.012032 -0.069214 0.023723
v -0.022303 -0.063342 0.025679
v -0.020345 -0.078016 0.025190
v -0.010075 -0.077036 0.025679
v -0.013990 -0.063342 0.026168
v -0.022303 -0.065791 0.026168
v -0.013988 -0.079970 0.025190
v -0.022303 -0.076056 0.023723
v -0.015457 -0.076547 0.025679
v -0.010565 -0.073614 0.023723
v -0.022303 -0.065303 0.025190
v -0.013990 -0.063342 0.025679
f 468 464 475 
f 463 462 464 
f 461 467 468 
f 465 462 469 
f 462 466 469 
f 461 468 469 
f 468 465 469 
f 462 463 470 
f 466 462 470 
f 463 467 470 
f 464 462 471 
f 462 465 471 
f 467 461 472 
f 469 466 472 
f 461 469 472 
f 466 470 472 
f 470 467 472 
f 463 464 473 
f 467 463 473 
f 468 467 473 
f 464 468 473 
f 465 464 474 
f 464 471 474 
f 471 465 474 
f 464 465 475 
f 465 468 475 
o convex_31
v -0.022304 -0.001223 0.002690
v -0.030129 -0.039857 0.003179
v -0.030129 -0.039857 0.003668
v -0.021326 -0.039864 0.001712
v -0.028661 -0.031055 0.001712
v -0.021815 -0.002202 0.003668
v -0.021326 -0.012963 0.001712
v -0.028172 -0.022257 0.003668
v -0.025237 -0.039864 0.001223
v -0.029150 -0.039857 0.003668
v -0.024260 -0.008073 0.002201
v -0.021326 -0.039864 0.001223
v -0.029150 -0.039857 0.001712
v -0.023282 -0.002202 0.003668
v -0.029150 -0.027148 0.003179
v -0.024260 -0.032526 0.001223
v -0.021326 -0.001223 0.003179
f 489 481 492 
f 478 477 484 
f 479 478 484 
f 478 479 485 
f 481 478 485 
f 479 481 485 
f 476 482 486 
f 482 480 486 
f 482 479 487 
f 479 484 487 
f 477 480 488 
f 484 477 488 
f 480 484 488 
f 478 481 489 
f 483 478 489 
f 476 486 489 
f 486 483 489 
f 477 478 490 
f 480 477 490 
f 478 483 490 
f 486 480 490 
f 483 486 490 
f 480 482 491 
f 484 480 491 
f 482 487 491 
f 487 484 491 
f 481 479 492 
f 479 482 492 
f 482 476 492 
f 476 489 492 
o convex_32
v 0.031502 -0.065296 0.012473
v 0.032479 -0.035465 0.017364
v 0.032968 -0.035465 0.016874
v 0.032968 -0.035465 0.012473
v 0.030034 -0.062849 0.017364
v 0.033458 -0.049648 0.015407
v 0.031502 -0.061871 0.017364
v 0.033458 -0.052092 0.012473
v 0.030524 -0.064805 0.013452
v 0.031990 -0.035465 0.016385
v 0.033458 -0.035465 0.012473
v 0.031502 -0.065296 0.014918
v 0.032479 -0.053070 0.017364
v 0.030034 -0.065296 0.017364
f 493 504 506 
f 494 495 496 
f 494 497 499 
f 493 496 500 
f 496 493 501 
f 501 497 502 
f 494 496 502 
f 497 494 502 
f 496 501 502 
f 496 495 503 
f 495 498 503 
f 500 496 503 
f 498 500 503 
f 498 499 504 
f 493 500 504 
f 500 498 504 
f 495 494 505 
f 498 495 505 
f 499 498 505 
f 494 499 505 
f 499 497 506 
f 501 493 506 
f 497 501 506 
f 504 499 506 
o convex_33
v -0.032574 -0.039864 0.007093
v -0.031596 -0.025679 0.011494
v -0.028173 -0.025679 0.004648
v -0.031596 -0.026658 0.007093
v -0.033063 -0.039864 0.011494
v -0.029641 -0.039864 0.003670
v -0.033553 -0.034481 0.011004
v -0.029641 -0.028127 0.003670
v -0.030619 -0.036439 0.003670
v -0.032574 -0.039864 0.011004
v -0.032574 -0.026169 0.011494
v -0.032574 -0.034971 0.007093
v -0.029152 -0.025679 0.003670
f 510 517 519 
f 511 507 512 
f 507 511 513 
f 514 512 515 
f 512 507 515 
f 510 514 515 
f 509 508 516 
f 508 511 516 
f 512 509 516 
f 511 512 516 
f 511 508 517 
f 510 513 517 
f 513 511 517 
f 513 510 518 
f 507 513 518 
f 515 507 518 
f 510 515 518 
f 508 509 519 
f 509 512 519 
f 514 510 519 
f 512 514 519 
f 517 508 519 
o convex_34
v -0.013989 -0.024213 0.003668
v -0.021324 -0.039864 0.001223
v -0.014967 -0.039864 0.001223
v -0.014967 -0.039864 0.003668
v -0.021324 -0.023723 0.001712
v -0.013989 -0.023723 0.001712
v -0.021324 -0.031062 0.002201
v -0.019367 -0.029106 0.001223
v -0.021324 -0.023723 0.002201
v -0.021324 -0.039864 0.001712
v -0.014478 -0.034972 0.001223
v -0.015456 -0.039864 0.003668
f 526 529 531 
f 521 522 523 
f 524 521 526 
f 522 521 527 
f 521 524 527 
f 524 525 527 
f 520 525 528 
f 525 524 528 
f 524 526 528 
f 521 523 529 
f 526 521 529 
f 523 522 530 
f 520 523 530 
f 525 520 530 
f 522 527 530 
f 527 525 530 
f 523 520 531 
f 520 528 531 
f 528 526 531 
f 529 523 531 
o convex_35
v 0.014381 0.043776 0.022744
v 0.005088 0.033997 0.023233
v 0.005088 0.033997 0.023723
v 0.005088 0.040352 0.020300
v 0.013891 0.042798 0.017365
v 0.014871 0.038398 0.023723
v 0.005578 0.040842 0.023723
v 0.005578 0.038398 0.017365
v 0.013891 0.044753 0.017365
v 0.005088 0.039864 0.017365
v 0.010467 0.043286 0.023233
v 0.014871 0.038398 0.023233
v 0.014871 0.044753 0.017365
v 0.014871 0.041331 0.023723
v 0.014871 0.044753 0.021276
f 532 545 546 
f 533 534 535 
f 534 533 537 
f 534 537 538 
f 535 534 538 
f 535 538 540 
f 536 539 540 
f 540 539 541 
f 533 535 541 
f 539 533 541 
f 535 540 541 
f 540 538 542 
f 537 533 543 
f 533 539 543 
f 539 536 543 
f 536 540 544 
f 537 543 544 
f 543 536 544 
f 538 537 545 
f 532 542 545 
f 542 538 545 
f 537 544 545 
f 545 544 546 
f 542 532 546 
f 540 542 546 
f 544 540 546 
o convex_36
v -0.031596 -0.039863 0.019809
v -0.027684 -0.027637 0.023233
v -0.027684 -0.027637 0.022254
v -0.033063 -0.028616 0.012475
v -0.033063 -0.039863 0.011497
v -0.028662 -0.039863 0.022254
v -0.033063 -0.034971 0.016876
v -0.032085 -0.030572 0.011497
v -0.031107 -0.027637 0.019319
v -0.029151 -0.032529 0.023233
v -0.032085 -0.027637 0.011497
v -0.033552 -0.039863 0.014431
v -0.029151 -0.039863 0.023233
v -0.033552 -0.033994 0.011497
v -0.032574 -0.027637 0.015409
v -0.030129 -0.035461 0.022254
f 559 556 562 
f 549 548 552 
f 547 551 552 
f 549 552 554 
f 552 551 554 
f 548 549 555 
f 548 555 556 
f 549 554 557 
f 554 551 557 
f 555 549 557 
f 551 547 558 
f 547 553 558 
f 552 548 559 
f 547 552 559 
f 548 556 559 
f 553 550 560 
f 550 557 560 
f 557 551 560 
f 551 558 560 
f 558 553 560 
f 550 553 561 
f 553 555 561 
f 557 550 561 
f 555 557 561 
f 553 547 562 
f 555 553 562 
f 556 555 562 
f 547 559 562 
o convex_37
v -0.021814 -0.003182 0.024701
v -0.029151 -0.039864 0.023234
v -0.029151 -0.039864 0.023723
v -0.018879 -0.012476 0.025190
v -0.027682 -0.039864 0.025679
v -0.020836 -0.001223 0.023234
v -0.028173 -0.026652 0.023723
v -0.025726 -0.021273 0.025679
v -0.018879 -0.003670 0.025679
v -0.028173 -0.039864 0.023234
v -0.026704 -0.039864 0.025679
v -0.024747 -0.011984 0.023234
v -0.027682 -0.033014 0.025679
v -0.018879 -0.012476 0.025679
v -0.018879 -0.001223 0.024212
v -0.020836 -0.002690 0.023234
f 577 566 578 
f 565 564 567 
f 564 565 569 
f 563 569 570 
f 563 570 571 
f 570 567 571 
f 567 564 572 
f 564 568 572 
f 571 567 573 
f 572 566 573 
f 567 572 573 
f 568 564 574 
f 563 568 574 
f 564 569 574 
f 569 563 574 
f 565 567 575 
f 569 565 575 
f 567 570 575 
f 570 569 575 
f 566 571 576 
f 573 566 576 
f 571 573 576 
f 568 563 577 
f 571 566 577 
f 563 571 577 
f 566 572 578 
f 572 568 578 
f 568 577 578 
o convex_38
v -0.022793 -0.016878 0.026168
v -0.027193 -0.039864 0.025679
v -0.027193 -0.039864 0.026168
v -0.018879 -0.039864 0.026168
v -0.018879 -0.011497 0.025679
v -0.018879 -0.023234 0.026658
v -0.025726 -0.039864 0.026658
v -0.018879 -0.039864 0.026658
v -0.018879 -0.024214 0.025679
v -0.022793 -0.021279 0.026658
v -0.025726 -0.026655 0.025679
v -0.020347 -0.011005 0.026168
v -0.025726 -0.026655 0.026168
f 579 589 591 
f 581 580 582 
f 582 583 584 
f 581 582 585 
f 584 585 586 
f 582 584 586 
f 585 582 586 
f 582 580 587 
f 583 582 587 
f 580 583 587 
f 585 584 588 
f 580 581 589 
f 583 580 589 
f 584 583 590 
f 579 588 590 
f 588 584 590 
f 589 579 590 
f 583 589 590 
f 581 585 591 
f 588 579 591 
f 585 588 591 
f 589 581 591 
o convex_39
v 0.019762 -0.066763 0.026168
v 0.012914 -0.081439 0.024212
v 0.016338 -0.081439 0.024212
v 0.014872 -0.043288 0.024212
v 0.014384 -0.045252 0.026657
v 0.019762 -0.043288 0.026168
v 0.019762 -0.077522 0.024212
v 0.012914 -0.077036 0.025679
v 0.012914 -0.061874 0.024212
v 0.019762 -0.059428 0.026657
v 0.019762 -0.078015 0.025190
v 0.013893 -0.056982 0.026657
v 0.019762 -0.043288 0.026657
v 0.012914 -0.061874 0.026168
v 0.015360 -0.043288 0.024212
v 0.014872 -0.043288 0.026657
f 596 604 607 
f 594 593 598 
f 593 595 598 
f 597 592 598 
f 593 594 599 
f 595 593 600 
f 596 595 600 
f 593 599 600 
f 592 597 601 
f 599 592 601 
f 598 592 602 
f 594 598 602 
f 592 599 602 
f 599 594 602 
f 601 596 603 
f 599 601 603 
f 597 595 604 
f 601 597 604 
f 596 601 604 
f 596 600 605 
f 600 599 605 
f 603 596 605 
f 599 603 605 
f 595 597 606 
f 598 595 606 
f 597 598 606 
f 595 596 607 
f 604 595 607 
o convex_40
v 0.025141 -0.014428 0.003179
v 0.005578 0.013937 0.001712
v 0.006068 0.010515 0.001712
v 0.005578 0.013937 0.003179
v 0.020251 0.014429 0.002201
v 0.012426 -0.019321 0.001712
v 0.023184 -0.019321 0.001712
v 0.012426 -0.019321 0.003179
v 0.020251 0.014429 0.003179
v 0.018295 0.014429 0.001712
v 0.025141 -0.011983 0.002201
v 0.025141 -0.019321 0.002690
v 0.025141 -0.010513 0.003179
v 0.007047 0.005133 0.003179
f 613 615 621 
f 609 610 611 
f 610 609 613 
f 613 609 614 
f 608 611 615 
f 613 614 615 
f 611 608 616 
f 616 612 617 
f 609 611 617 
f 614 609 617 
f 611 616 617 
f 614 617 618 
f 617 612 618 
f 608 615 619 
f 615 614 619 
f 614 618 619 
f 618 608 619 
f 616 608 620 
f 612 616 620 
f 608 618 620 
f 618 612 620 
f 611 610 621 
f 610 613 621 
f 615 611 621 
o convex_41
v 0.012424 -0.019321 0.003179
v 0.006068 0.014429 0.023723
v 0.005578 0.014429 0.023723
v 0.006558 0.014429 0.003179
v 0.013401 -0.018825 0.023723
v 0.006558 0.007581 0.003179
v 0.012424 -0.019314 0.023723
v 0.013402 -0.018828 0.003179
v 0.007046 0.005133 0.023723
v 0.006557 0.013937 0.023723
v 0.005579 0.013448 0.003670
v 0.005578 0.013448 0.023723
v 0.012913 -0.016377 0.023723
v 0.007046 0.005133 0.003179
v 0.005579 0.014429 0.003179
f 632 633 636 
f 624 623 625 
f 623 624 626 
f 625 622 627 
f 622 626 628 
f 626 624 628 
f 622 625 629 
f 626 622 629 
f 622 628 630 
f 628 624 630 
f 625 623 631 
f 623 626 631 
f 627 630 633 
f 630 624 633 
f 632 627 633 
f 629 625 634 
f 626 629 634 
f 625 631 634 
f 631 626 634 
f 627 622 635 
f 622 630 635 
f 630 627 635 
f 624 625 636 
f 625 627 636 
f 627 632 636 
f 633 624 636 
o convex_42
v 0.014871 0.043774 0.005625
v 0.003132 0.027639 0.002690
v 0.003132 0.027639 0.006114
v 0.003132 0.036928 0.006114
v 0.015849 0.041818 0.002690
v 0.003621 0.037417 0.003669
v 0.015849 0.042796 0.006114
v 0.009977 0.033506 0.003180
v 0.015360 0.043774 0.002690
v 0.007046 0.037417 0.002690
v 0.003621 0.027639 0.006114
v 0.004110 0.027639 0.002690
v 0.005578 0.038885 0.006114
v 0.003132 0.034974 0.003180
f 642 646 650 
f 638 639 640 
f 640 639 643 
f 641 643 644 
f 641 638 645 
f 637 643 645 
f 643 641 645 
f 645 638 646 
f 642 645 646 
f 639 638 647 
f 643 639 647 
f 644 643 647 
f 644 647 648 
f 638 641 648 
f 641 644 648 
f 647 638 648 
f 642 640 649 
f 640 643 649 
f 643 637 649 
f 645 642 649 
f 637 645 649 
f 638 640 650 
f 640 642 650 
f 646 638 650 
o convex_43
v 0.025142 -0.012962 0.003179
v 0.023674 0.014429 0.012473
v 0.023186 0.014429 0.012473
v 0.019763 0.014429 0.003179
v 0.023186 0.014429 0.007582
v 0.021719 -0.001712 0.003669
v 0.025142 0.002200 0.012473
v 0.025142 0.004646 0.009536
v 0.021230 0.014429 0.003669
v 0.025142 -0.009538 0.003179
v 0.024653 0.002200 0.012473
v 0.019763 0.012472 0.003669
v 0.024653 -0.012962 0.003669
v 0.023186 0.011493 0.012473
f 662 656 664 
f 653 652 654 
f 654 652 655 
f 654 651 656 
f 652 653 657 
f 655 652 658 
f 652 657 658 
f 657 651 658 
f 654 655 659 
f 659 655 660 
f 651 654 660 
f 658 651 660 
f 655 658 660 
f 654 659 660 
f 657 653 661 
f 653 654 662 
f 654 656 662 
f 656 651 663 
f 651 657 663 
f 661 656 663 
f 657 661 663 
f 656 661 664 
f 661 653 664 
f 653 662 664 
o convex_44
v 0.014382 -0.019321 0.025190
v 0.005577 0.013448 0.023723
v 0.005577 0.013448 0.024701
v 0.014382 0.014429 0.024701
v 0.013403 -0.019321 0.023723
v 0.011446 -0.014917 0.025679
v 0.014382 0.014429 0.024212
v 0.014382 -0.004157 0.025679
v 0.012424 -0.019321 0.023723
v 0.009001 0.011981 0.023723
v 0.012424 -0.019321 0.025679
v 0.007045 0.005133 0.023723
v 0.005577 0.014429 0.024701
f 670 672 677 
f 668 665 671 
f 665 669 671 
f 665 668 672 
f 669 665 673 
f 666 669 673 
f 669 666 674 
f 666 671 674 
f 671 669 674 
f 665 672 675 
f 672 670 675 
f 673 665 675 
f 670 673 675 
f 667 666 676 
f 670 667 676 
f 666 673 676 
f 673 670 676 
f 666 667 677 
f 667 670 677 
f 671 666 677 
f 668 671 677 
f 672 668 677 
o convex_45
v 0.016829 0.037908 0.024212
v 0.018295 0.045245 0.017854
v 0.020253 0.041333 0.021765
v 0.026610 0.037908 0.017364
v 0.014871 0.044265 0.017364
v 0.014871 0.043287 0.022744
v 0.014871 0.037908 0.023722
v 0.022208 0.038398 0.023233
v 0.026119 0.039376 0.017854
v 0.025630 0.037908 0.017364
v 0.016339 0.043287 0.022744
v 0.014871 0.044754 0.020788
f 683 688 689 
f 679 681 682 
f 681 678 684 
f 683 682 684 
f 678 683 684 
f 678 681 685 
f 679 680 686 
f 681 679 686 
f 680 685 686 
f 685 681 686 
f 682 681 687 
f 681 684 687 
f 684 682 687 
f 680 679 688 
f 683 678 688 
f 685 680 688 
f 678 685 688 
f 679 682 689 
f 682 683 689 
f 688 679 689 
o convex_46
v -0.028663 -0.064317 0.003669
v -0.033063 -0.039864 0.011494
v -0.032574 -0.039864 0.011005
v -0.030130 -0.067253 0.011494
v -0.028174 -0.039870 0.002202
v -0.033063 -0.050138 0.008559
v -0.029641 -0.039870 0.002202
v -0.028174 -0.071165 0.006603
v -0.032085 -0.062360 0.010515
v -0.029152 -0.052095 0.001713
v -0.032574 -0.039864 0.007092
v -0.033553 -0.050138 0.011494
v -0.031107 -0.061872 0.007092
v -0.028174 -0.057960 0.002202
v -0.028663 -0.071165 0.006115
v -0.031107 -0.067253 0.011494
v -0.033553 -0.039864 0.010515
v -0.028174 -0.066763 0.006603
v -0.031596 -0.051118 0.005625
v -0.031107 -0.067253 0.010026
f 704 705 709 
f 692 691 693 
f 692 693 694 
f 696 694 699 
f 691 692 700 
f 692 694 700 
f 694 696 700 
f 693 691 701 
f 695 698 701 
f 698 695 702 
f 699 690 702 
f 697 690 703 
f 694 697 703 
f 690 699 703 
f 699 694 703 
f 690 697 704 
f 702 690 704 
f 697 693 705 
f 693 701 705 
f 701 698 705 
f 704 697 705 
f 691 700 706 
f 700 695 706 
f 695 701 706 
f 701 691 706 
f 694 693 707 
f 697 694 707 
f 693 697 707 
f 696 699 708 
f 700 696 708 
f 695 700 708 
f 702 695 708 
f 699 702 708 
f 698 702 709 
f 702 704 709 
f 705 698 709 
o convex_47
v -0.022793 -0.088775 0.016876
v -0.030617 -0.068237 0.015897
v -0.030128 -0.070681 0.015897
v -0.027194 -0.070192 0.022255
v -0.026704 -0.066770 0.021276
v -0.023282 -0.082904 0.022255
v -0.022303 -0.087795 0.015897
v -0.026217 -0.081927 0.018343
v -0.029639 -0.066770 0.015897
v -0.022303 -0.081927 0.022255
v -0.025728 -0.084373 0.015897
v -0.030128 -0.066770 0.018343
v -0.026704 -0.066279 0.022255
v -0.029150 -0.072150 0.018343
v -0.024750 -0.079971 0.022255
v -0.027683 -0.079483 0.016386
f 717 723 725 
f 712 711 716 
f 710 715 717 
f 714 716 718 
f 716 711 718 
f 715 710 719 
f 713 715 719 
f 716 714 719 
f 710 716 719 
f 716 710 720 
f 712 716 720 
f 710 717 720 
f 718 711 721 
f 718 721 722 
f 714 718 722 
f 713 719 722 
f 719 714 722 
f 721 713 722 
f 711 712 723 
f 721 711 723 
f 713 721 723 
f 715 713 724 
f 717 715 724 
f 723 717 724 
f 713 723 724 
f 712 720 725 
f 720 717 725 
f 723 712 725 
o convex_48
v -0.022304 -0.076546 0.024701
v -0.027194 -0.068235 0.022255
v -0.027194 -0.068235 0.022745
v -0.022304 -0.066277 0.025190
v -0.022304 -0.082906 0.022255
v -0.025237 -0.072148 0.024701
v -0.026215 -0.066277 0.022255
v -0.025727 -0.066277 0.025190
v -0.024260 -0.080460 0.022745
v -0.022793 -0.070192 0.025679
v -0.022304 -0.080949 0.022255
f 730 732 736 
f 729 726 730 
f 727 728 732 
f 730 727 732 
f 728 731 733 
f 732 728 733 
f 729 732 733 
f 728 727 734 
f 730 726 734 
f 727 730 734 
f 731 728 734 
f 726 731 734 
f 726 729 735 
f 731 726 735 
f 729 733 735 
f 733 731 735 
f 729 730 736 
f 732 729 736 
o convex_49
v -0.022793 -0.065786 0.026168
v -0.028172 -0.050627 0.024701
v -0.028172 -0.050627 0.025190
v -0.022303 -0.039864 0.026168
v -0.023282 -0.066277 0.024701
v -0.025726 -0.039864 0.026658
v -0.027194 -0.039864 0.024701
v -0.026215 -0.065295 0.025190
v -0.025238 -0.052093 0.026658
v -0.022303 -0.058448 0.026658
v -0.022303 -0.066277 0.025190
v -0.028172 -0.039864 0.025190
v -0.022303 -0.039864 0.026658
v -0.027683 -0.052093 0.025679
v -0.025726 -0.066277 0.024701
f 741 747 751 
f 742 740 743 
f 740 741 743 
f 741 738 743 
f 739 738 744 
f 744 737 745 
f 745 737 746 
f 742 745 746 
f 741 740 747 
f 746 737 747 
f 740 746 747 
f 738 739 748 
f 742 743 748 
f 743 738 748 
f 740 742 749 
f 746 740 749 
f 742 746 749 
f 739 744 750 
f 745 742 750 
f 744 745 750 
f 748 739 750 
f 742 748 750 
f 738 741 751 
f 744 738 751 
f 737 744 751 
f 747 737 751 
o convex_50
v -0.015456 -0.074104 0.002691
v -0.022303 -0.087308 0.008070
v -0.022303 -0.087308 0.008559
v -0.013990 -0.087798 0.008070
v -0.019857 -0.084375 0.004648
v -0.022303 -0.071658 0.003180
v -0.013990 -0.072638 0.003669
v -0.013990 -0.082905 0.004159
v -0.022303 -0.078508 0.003180
v -0.013990 -0.086820 0.008559
v -0.022303 -0.086330 0.008559
v -0.013990 -0.078996 0.003180
v -0.013990 -0.071658 0.002691
v -0.022303 -0.074593 0.002691
v -0.019857 -0.079973 0.003180
v -0.022303 -0.083396 0.004648
v -0.018878 -0.088288 0.008070
v -0.013990 -0.084863 0.005136
f 768 756 769 
f 753 754 757 
f 758 755 759 
f 753 757 760 
f 755 758 761 
f 761 758 762 
f 757 754 762 
f 758 757 762 
f 754 761 762 
f 758 759 763 
f 757 758 764 
f 763 752 764 
f 758 763 764 
f 760 757 765 
f 764 752 765 
f 757 764 765 
f 759 756 766 
f 752 763 766 
f 763 759 766 
f 760 765 766 
f 765 752 766 
f 756 753 767 
f 753 760 767 
f 766 756 767 
f 760 766 767 
f 754 753 768 
f 753 756 768 
f 761 754 768 
f 755 761 768 
f 759 755 769 
f 756 759 769 
f 755 768 769 
o convex_51
v 0.014870 0.038885 0.017363
v 0.002643 0.033996 0.006115
v 0.003133 0.027636 0.006115
v 0.015849 0.043776 0.006115
v 0.002643 0.046223 0.017363
v 0.003133 0.027636 0.017363
v 0.002643 0.046223 0.006115
v 0.013891 0.046223 0.017363
v 0.010956 0.033996 0.006115
v 0.013891 0.046223 0.006115
v 0.015849 0.044755 0.017363
v 0.014870 0.038885 0.006115
v 0.010467 0.033507 0.017363
v 0.002643 0.033996 0.017363
v 0.003621 0.027636 0.006115
v 0.003621 0.027636 0.017363
f 775 784 785 
f 772 771 773 
f 771 772 775 
f 770 774 775 
f 773 771 776 
f 771 774 776 
f 776 774 777 
f 774 770 777 
f 772 773 778 
f 773 776 779 
f 776 777 779 
f 779 777 780 
f 770 773 780 
f 777 770 780 
f 773 779 780 
f 773 770 781 
f 778 773 781 
f 770 778 781 
f 770 775 782 
f 778 770 782 
f 774 771 783 
f 771 775 783 
f 775 774 783 
f 775 772 784 
f 772 778 784 
f 778 782 784 
f 784 782 785 
f 782 775 785 
o convex_52
v -0.014966 -0.039864 0.025190
v -0.014477 -0.059429 0.003668
v -0.014966 -0.055026 0.003668
v -0.014966 -0.055026 0.025190
v -0.013988 -0.059429 0.025190
v -0.014477 -0.042802 0.009540
v -0.015455 -0.039864 0.003668
v -0.013988 -0.054536 0.003668
v -0.014477 -0.039864 0.025190
v -0.015455 -0.042802 0.025190
v -0.015455 -0.048674 0.003668
v -0.014966 -0.039864 0.003668
v -0.013988 -0.054536 0.025190
v -0.013988 -0.059429 0.003668
v -0.014477 -0.059429 0.025190
v -0.015455 -0.039864 0.024699
f 792 795 801 
f 788 787 789 
f 786 789 790 
f 787 788 792 
f 787 792 793 
f 786 790 794 
f 792 786 794 
f 793 791 794 
f 789 786 795 
f 795 792 796 
f 788 789 796 
f 792 788 796 
f 789 795 796 
f 791 793 797 
f 793 792 797 
f 792 794 797 
f 794 791 797 
f 790 793 798 
f 794 790 798 
f 793 794 798 
f 790 787 799 
f 787 793 799 
f 793 790 799 
f 789 787 800 
f 790 789 800 
f 787 790 800 
f 786 792 801 
f 795 786 801 
o convex_53
v -0.019856 -0.087797 0.019809
v -0.013990 -0.078016 0.025190
v -0.013990 -0.078016 0.024700
v -0.022303 -0.078016 0.024211
v -0.013990 -0.089265 0.015409
v -0.013990 -0.084863 0.023233
v -0.022303 -0.088287 0.015409
v -0.022303 -0.084373 0.022256
v -0.020345 -0.080464 0.024700
v -0.016435 -0.090244 0.016387
v -0.020834 -0.078016 0.023722
v -0.022303 -0.089265 0.016387
v -0.013990 -0.088775 0.018832
v -0.018389 -0.084863 0.023233
v -0.013990 -0.081442 0.024700
f 810 815 816 
f 803 804 805 
f 804 803 806 
f 806 803 807 
f 805 808 809 
f 803 805 810 
f 805 809 810 
f 808 806 811 
f 805 804 812 
f 804 806 812 
f 808 805 812 
f 806 808 812 
f 802 809 813 
f 809 808 813 
f 811 802 813 
f 808 811 813 
f 806 807 814 
f 802 811 814 
f 811 806 814 
f 809 802 815 
f 810 809 815 
f 802 814 815 
f 814 807 815 
f 807 803 816 
f 803 810 816 
f 815 807 816 
o convex_54
v -0.003227 0.028614 0.017363
v -0.015455 0.042798 0.006115
v -0.015455 0.042798 0.007583
v -0.002738 0.046223 0.006115
v -0.013988 0.046223 0.017363
v -0.003227 0.028614 0.006115
v -0.002738 0.046223 0.017363
v -0.014966 0.038885 0.017363
v -0.011052 0.033997 0.006115
v -0.013988 0.046223 0.006115
v -0.010563 0.033506 0.017363
v -0.014966 0.038885 0.006115
v -0.002738 0.033997 0.006115
v -0.015455 0.044754 0.017363
v -0.002738 0.034485 0.017363
v -0.003716 0.028614 0.006115
v -0.003716 0.028614 0.017363
f 832 817 833 
f 818 820 822 
f 821 817 823 
f 820 821 823 
f 819 818 824 
f 817 821 824 
f 818 822 825 
f 820 818 826 
f 821 820 826 
f 817 824 827 
f 824 825 827 
f 824 818 828 
f 818 825 828 
f 825 824 828 
f 817 822 829 
f 822 820 829 
f 820 823 829 
f 818 819 830 
f 819 824 830 
f 824 821 830 
f 826 818 830 
f 821 826 830 
f 823 817 831 
f 817 829 831 
f 829 823 831 
f 822 817 832 
f 825 822 832 
f 827 825 832 
f 827 832 833 
f 817 827 833 
o convex_55
v 0.023674 0.038392 0.002201
v 0.003132 0.024704 0.001712
v 0.003132 0.024704 0.002690
v 0.019762 0.014429 0.002201
v 0.022696 0.026659 -0.000244
v 0.015358 0.041327 0.001712
v 0.005579 0.014429 0.001712
v 0.015848 0.023727 -0.000244
v 0.015358 0.042799 0.002690
v 0.019762 0.014429 0.002690
v 0.021718 0.037900 0.000245
v 0.015848 0.034482 0.000245
v 0.005579 0.014429 0.002690
v 0.024163 0.028125 0.002201
v 0.010957 0.039369 0.002201
v 0.023184 0.033502 -0.000244
v 0.018294 0.014429 0.001711
v 0.004602 0.018348 0.001223
v 0.003132 0.028131 0.002690
v 0.003132 0.025684 0.001712
v 0.023674 0.038392 0.001223
v 0.011447 0.022746 0.000245
v 0.008515 0.015901 0.001223
f 840 851 856 
f 840 837 843 
f 834 842 843 
f 839 842 844 
f 839 844 845 
f 842 836 846 
f 840 843 846 
f 843 842 846 
f 837 838 847 
f 834 843 847 
f 843 837 847 
f 842 839 848 
f 839 845 848 
f 838 841 849 
f 841 845 849 
f 845 844 849 
f 847 838 849 
f 838 837 850 
f 837 840 850 
f 841 838 850 
f 836 835 851 
f 846 836 851 
f 840 846 851 
f 835 836 852 
f 836 842 852 
f 842 848 852 
f 852 848 853 
f 848 845 853 
f 851 835 853 
f 835 852 853 
f 842 834 854 
f 844 842 854 
f 834 847 854 
f 849 844 854 
f 847 849 854 
f 845 841 855 
f 841 851 855 
f 853 845 855 
f 851 853 855 
f 850 840 856 
f 841 850 856 
f 851 841 856 
o convex_56
v -0.014478 -0.039864 0.026657
v -0.022303 -0.063342 0.025680
v -0.013990 -0.063342 0.025680
v -0.014967 -0.039864 0.025190
v -0.022303 -0.039864 0.026657
v -0.017902 -0.060405 0.026657
v -0.013990 -0.059426 0.025190
v -0.022303 -0.039864 0.026168
v -0.022303 -0.058450 0.026657
v -0.013990 -0.056981 0.026657
v -0.013990 -0.063342 0.026168
v -0.022303 -0.063342 0.026168
f 867 862 868 
f 857 860 861 
f 857 861 862 
f 859 858 863 
f 858 860 863 
f 860 857 863 
f 860 858 864 
f 861 860 864 
f 858 861 864 
f 861 858 865 
f 862 861 865 
f 857 862 866 
f 863 857 866 
f 859 863 866 
f 858 859 867 
f 866 862 867 
f 859 866 867 
f 865 858 868 
f 862 865 868 
f 858 867 868 
o convex_57
v -0.022303 -0.001223 0.003669
v -0.032085 -0.025679 0.009538
v -0.032085 -0.025679 0.011494
v -0.027682 -0.025189 0.003669
v -0.025729 -0.003181 0.011494
v -0.026217 -0.004158 0.007093
v -0.028172 -0.020786 0.003669
v -0.026707 -0.002202 0.011494
v -0.031105 -0.024700 0.011494
v -0.022303 -0.002690 0.004158
v -0.023284 -0.001223 0.003669
v -0.027682 -0.025189 0.004158
v -0.030616 -0.024700 0.006115
v -0.030617 -0.017851 0.010027
v -0.026217 -0.001223 0.009538
v -0.025240 -0.001223 0.011005
v -0.029640 -0.018828 0.006603
v -0.028661 -0.025679 0.003669
f 881 875 886 
f 869 872 875 
f 871 873 876 
f 873 871 877 
f 872 869 878 
f 869 875 879 
f 877 871 880 
f 873 877 880 
f 872 878 880 
f 878 873 880 
f 870 871 882 
f 871 876 882 
f 869 879 883 
f 879 874 883 
f 882 876 883 
f 874 882 883 
f 876 873 884 
f 878 869 884 
f 873 878 884 
f 869 883 884 
f 883 876 884 
f 879 875 885 
f 874 879 885 
f 881 870 885 
f 875 881 885 
f 870 882 885 
f 882 874 885 
f 871 870 886 
f 875 872 886 
f 880 871 886 
f 872 880 886 
f 870 881 886 
o convex_58
v 0.015360 -0.048179 0.019808
v 0.014871 -0.029105 0.024212
v 0.014382 -0.029105 0.024212
v 0.014871 -0.029105 0.004649
v 0.014382 -0.055027 0.004649
v 0.014382 -0.055027 0.024212
v 0.015360 -0.050135 0.004649
v 0.015360 -0.036440 0.024212
v 0.014382 -0.029105 0.004649
v 0.015360 -0.033997 0.004649
v 0.014871 -0.055027 0.024212
v 0.014871 -0.055027 0.004649
f 893 897 898 
f 889 888 890 
f 889 891 892 
f 888 889 892 
f 891 890 893 
f 888 892 894 
f 887 893 894 
f 889 890 895 
f 890 891 895 
f 891 889 895 
f 890 888 896 
f 893 890 896 
f 888 894 896 
f 894 893 896 
f 892 891 897 
f 893 887 897 
f 894 892 897 
f 887 894 897 
f 891 893 898 
f 897 891 898 
o convex_59
v -0.026217 -0.001223 0.015407
v -0.032574 -0.027636 0.011496
v -0.032574 -0.027636 0.014918
v -0.024750 -0.002203 0.016385
v -0.025728 -0.002691 0.011496
v -0.031107 -0.027636 0.016875
v -0.030129 -0.014918 0.011496
v -0.029640 -0.015407 0.016875
v -0.031595 -0.026656 0.011496
v -0.026706 -0.001714 0.011984
v -0.030618 -0.016870 0.013451
v -0.024750 -0.001223 0.016875
v -0.032085 -0.026656 0.016875
v -0.032574 -0.025679 0.013451
f 911 906 912 
f 901 900 904 
f 903 900 905 
f 903 902 907 
f 900 903 907 
f 904 900 907 
f 902 904 907 
f 903 905 908 
f 908 905 909 
f 906 899 909 
f 899 908 909 
f 902 903 910 
f 904 902 910 
f 899 906 910 
f 906 904 910 
f 908 899 910 
f 903 908 910 
f 901 904 911 
f 904 906 911 
f 900 901 912 
f 905 900 912 
f 909 905 912 
f 906 909 912 
f 901 911 912 
o convex_60
v -0.021814 -0.001223 0.023234
v -0.031597 -0.027636 0.016875
v -0.031107 -0.027636 0.016875
v -0.027682 -0.027636 0.023234
v -0.024260 -0.002203 0.017364
v -0.029640 -0.017850 0.018343
v -0.021325 -0.003180 0.022744
v -0.025729 -0.001714 0.016875
v -0.028172 -0.025187 0.023234
v -0.027193 -0.027142 0.022744
v -0.022794 -0.002203 0.022744
v -0.031597 -0.027142 0.018343
v -0.030618 -0.026656 0.016875
v -0.025729 -0.002203 0.017854
v -0.030128 -0.018339 0.016875
v -0.025729 -0.014429 0.023234
f 923 918 928 
f 914 915 916 
f 913 916 919 
f 917 913 919 
f 915 914 920 
f 913 917 920 
f 916 913 921 
f 916 915 922 
f 919 916 922 
f 917 919 922 
f 914 916 924 
f 916 921 924 
f 921 918 924 
f 915 920 925 
f 920 917 925 
f 922 915 925 
f 917 922 925 
f 913 920 926 
f 923 913 926 
f 918 923 926 
f 920 914 927 
f 914 924 927 
f 924 918 927 
f 926 920 927 
f 918 926 927 
f 921 913 928 
f 918 921 928 
f 913 923 928 
o convex_61
v -0.023770 -0.001221 0.004648
v -0.022792 0.014428 0.009538
v -0.023281 0.014428 0.009538
v -0.019858 0.014428 0.002201
v -0.019858 -0.001221 0.003180
v -0.024748 -0.001221 0.009538
v -0.025237 -0.000731 0.007091
v -0.021815 0.014428 0.004648
v -0.022303 0.001225 0.002691
v -0.019858 0.014428 0.003669
v -0.022303 0.013449 0.009048
v -0.025726 -0.000242 0.009538
v -0.023281 0.014428 0.008070
v -0.019858 0.002693 0.002201
f 933 937 942 
f 931 930 932 
f 930 931 934 
f 929 933 934 
f 929 934 935 
f 931 932 936 
f 936 932 937 
f 933 929 937 
f 929 935 937 
f 935 936 937 
f 932 930 938 
f 933 932 938 
f 933 938 939 
f 930 934 939 
f 934 933 939 
f 938 930 939 
f 934 931 940 
f 935 934 940 
f 935 940 941 
f 936 935 941 
f 931 936 941 
f 940 931 941 
f 932 933 942 
f 937 932 942 
o convex_62
v -0.026216 -0.001221 0.014429
v -0.021814 0.014428 0.017363
v -0.021814 0.014428 0.016385
v -0.023771 0.014428 0.011006
v -0.024748 -0.000731 0.009539
v -0.024259 -0.000731 0.017363
v -0.022793 0.012470 0.009539
v -0.022793 0.013449 0.017363
v -0.025726 0.000246 0.009539
v -0.021814 0.011493 0.016874
v -0.025237 0.000246 0.017363
v -0.023771 0.012960 0.014918
v -0.023282 0.014428 0.009539
v -0.026216 -0.000731 0.010518
f 951 947 956 
f 944 945 946 
f 943 947 948 
f 944 946 950 
f 948 944 950 
f 949 947 951 
f 945 944 952 
f 948 947 952 
f 944 948 952 
f 949 945 952 
f 947 949 952 
f 943 948 953 
f 948 950 953 
f 953 950 954 
f 946 943 954 
f 950 946 954 
f 943 953 954 
f 946 945 955 
f 945 949 955 
f 951 946 955 
f 949 951 955 
f 943 946 956 
f 947 943 956 
f 946 951 956 
o convex_63
v 0.028076 -0.051117 0.025190
v 0.019762 -0.065291 0.025679
v 0.025632 -0.065291 0.023723
v 0.019762 -0.037421 0.026168
v 0.028566 -0.037421 0.023723
v 0.025632 -0.037421 0.026658
v 0.023675 -0.057957 0.026658
v 0.026121 -0.065291 0.025190
v 0.019762 -0.059425 0.026658
v 0.027587 -0.060890 0.023723
v 0.019762 -0.037421 0.026658
v 0.027099 -0.047205 0.026168
v 0.023186 -0.065291 0.026168
v 0.028566 -0.037421 0.024702
v 0.028076 -0.037421 0.023723
v 0.028566 -0.052089 0.024212
f 961 970 972 
f 959 958 960 
f 961 960 962 
f 958 959 964 
f 960 958 965 
f 963 962 965 
f 959 961 966 
f 964 959 966 
f 962 960 967 
f 960 965 967 
f 965 962 967 
f 962 963 968 
f 964 957 968 
f 963 964 968 
f 958 964 969 
f 964 963 969 
f 965 958 969 
f 963 965 969 
f 961 962 970 
f 968 957 970 
f 962 968 970 
f 959 960 971 
f 960 961 971 
f 961 959 971 
f 957 964 972 
f 966 961 972 
f 964 966 972 
f 970 957 972 
o convex_64
v 0.014383 -0.055030 0.002201
v 0.012914 -0.079481 0.003668
v 0.012914 -0.079481 0.004157
v 0.019762 -0.079481 0.003179
v 0.014872 -0.055030 0.004647
v 0.019762 -0.061390 0.002201
v 0.019762 -0.079481 0.004157
v 0.012914 -0.066280 0.002201
v 0.012914 -0.061878 0.004647
v 0.019762 -0.069210 0.002201
v 0.012914 -0.078991 0.003179
v 0.019762 -0.061390 0.002690
f 979 978 984 
f 975 974 976 
f 973 977 978 
f 975 976 979 
f 976 978 979 
f 974 975 980 
f 973 978 980 
f 977 973 981 
f 979 977 981 
f 975 979 981 
f 980 975 981 
f 973 980 981 
f 978 976 982 
f 980 978 982 
f 980 982 983 
f 976 974 983 
f 974 980 983 
f 982 976 983 
f 978 977 984 
f 977 979 984 
o convex_65
v -0.025238 -0.000242 0.017365
v -0.018879 0.000246 0.025189
v -0.019368 0.000246 0.025189
v -0.022303 0.014428 0.017365
v -0.023280 0.002202 0.017365
v -0.019368 0.014428 0.022744
v -0.019368 0.012960 0.020299
v -0.021815 -0.000731 0.023722
v -0.018879 -0.001221 0.024211
v -0.021326 0.012470 0.017365
v -0.025238 -0.000242 0.017854
v -0.024259 -0.001221 0.017365
v -0.018879 0.014428 0.021277
v -0.020347 0.014428 0.021277
f 995 992 998 
f 985 988 989 
f 987 986 990 
f 987 990 992 
f 986 987 993 
f 987 992 993 
f 989 988 994 
f 993 989 994 
f 991 993 994 
f 988 985 995 
f 985 989 996 
f 989 993 996 
f 993 992 996 
f 995 985 996 
f 992 995 996 
f 990 986 997 
f 988 990 997 
f 986 993 997 
f 993 991 997 
f 994 988 997 
f 991 994 997 
f 990 988 998 
f 992 990 998 
f 988 995 998 
o convex_66
v -0.018390 0.014428 0.023723
v -0.018879 -0.001221 0.024701
v -0.015455 -0.001221 0.024701
v -0.018879 0.011981 0.022255
v -0.015455 0.014428 0.024701
v -0.017901 -0.000731 0.025679
v -0.015455 0.014428 0.023723
v -0.018879 0.001714 0.025190
f 1000 1004 1006 
f 1001 1000 1002 
f 1001 1003 1004 
f 1000 1001 1004 
f 1001 1002 1005 
f 1002 999 1005 
f 999 1003 1005 
f 1003 1001 1005 
f 1002 1000 1006 
f 999 1002 1006 
f 1003 999 1006 
f 1004 1003 1006 
o convex_67
v 0.020251 -0.088286 0.008559
v 0.026610 -0.081439 0.012471
v 0.026121 -0.081439 0.012471
v 0.026610 -0.072638 0.004647
v 0.023675 -0.085352 0.006115
v 0.019762 -0.081928 0.005137
v 0.019762 -0.088775 0.012471
v 0.024164 -0.087797 0.012471
v 0.026610 -0.081928 0.009048
v 0.026121 -0.072638 0.005137
v 0.019762 -0.083885 0.004647
v 0.025141 -0.079974 0.004647
v 0.023675 -0.088286 0.011004
v 0.019762 -0.089754 0.011493
v 0.026610 -0.076062 0.004647
f 1015 1018 1021 
f 1008 1009 1013 
f 1008 1013 1014 
f 1010 1008 1015 
f 1008 1014 1015 
f 1009 1008 1016 
f 1008 1010 1016 
f 1010 1012 1016 
f 1013 1009 1016 
f 1012 1013 1016 
f 1011 1007 1017 
f 1012 1010 1017 
f 1013 1012 1017 
f 1015 1011 1018 
f 1011 1017 1018 
f 1017 1010 1018 
f 1007 1011 1019 
f 1011 1015 1019 
f 1015 1014 1019 
f 1014 1013 1020 
f 1017 1007 1020 
f 1013 1017 1020 
f 1007 1019 1020 
f 1019 1014 1020 
f 1010 1015 1021 
f 1018 1010 1021 
o convex_68
v 0.003132 0.036929 0.017365
v 0.005088 0.040353 0.023723
v 0.005088 0.040353 0.021765
v 0.004599 0.032528 0.017854
v 0.003132 0.032038 0.023723
v 0.005088 0.033506 0.023723
v 0.003132 0.038396 0.023723
v 0.005088 0.039863 0.017365
v 0.003132 0.032038 0.017365
v 0.003621 0.039375 0.017854
f 1024 1029 1031 
f 1023 1026 1027 
f 1024 1023 1027 
f 1026 1025 1027 
f 1022 1026 1028 
f 1026 1023 1028 
f 1024 1027 1029 
f 1027 1025 1029 
f 1026 1022 1030 
f 1025 1026 1030 
f 1022 1029 1030 
f 1029 1025 1030 
f 1023 1024 1031 
f 1022 1028 1031 
f 1028 1023 1031 
f 1029 1022 1031 
o convex_69
v -0.023280 0.039865 0.002201
v -0.016434 0.044266 0.003179
v -0.015455 0.043777 0.003179
v -0.021324 0.039376 0.000734
v -0.015455 0.037908 0.002201
v -0.024749 0.037908 0.003179
v -0.015455 0.041331 0.001712
v -0.023280 0.037908 0.000734
v -0.020346 0.041820 0.001223
f 1035 1039 1040 
f 1036 1034 1037 
f 1033 1032 1037 
f 1034 1033 1037 
f 1033 1034 1038 
f 1036 1035 1038 
f 1034 1036 1038 
f 1035 1036 1039 
f 1036 1037 1039 
f 1037 1032 1039 
f 1032 1033 1040 
f 1033 1038 1040 
f 1038 1035 1040 
f 1039 1032 1040 
o convex_70
v -0.003717 0.029100 0.002690
v -0.019857 0.014433 0.002201
v -0.018389 0.014433 0.001712
v -0.019857 0.036926 0.000245
v -0.015454 0.042307 0.002690
v -0.004697 0.018346 0.001223
v -0.019857 0.025192 -0.000244
v -0.005674 0.014430 0.002690
v -0.019857 0.017858 0.002690
v -0.015944 0.034970 0.000245
v -0.003227 0.026172 0.001712
v -0.013007 0.041325 0.002201
v -0.015454 0.023724 -0.000244
v -0.019857 0.037903 0.001712
v -0.005674 0.014430 0.001712
v -0.008120 0.015901 0.001223
v -0.010562 0.038882 0.002201
v -0.019857 0.014433 0.002690
f 1048 1049 1058 
f 1043 1042 1047 
f 1042 1044 1047 
f 1041 1045 1048 
f 1044 1042 1049 
f 1048 1045 1049 
f 1041 1048 1051 
f 1048 1046 1051 
f 1044 1045 1052 
f 1050 1044 1052 
f 1047 1044 1053 
f 1043 1047 1053 
f 1044 1050 1053 
f 1051 1046 1053 
f 1050 1051 1053 
f 1045 1044 1054 
f 1044 1049 1054 
f 1049 1045 1054 
f 1042 1043 1055 
f 1048 1042 1055 
f 1046 1048 1055 
f 1043 1053 1056 
f 1053 1046 1056 
f 1055 1043 1056 
f 1046 1055 1056 
f 1045 1041 1057 
f 1041 1051 1057 
f 1051 1050 1057 
f 1050 1052 1057 
f 1052 1045 1057 
f 1042 1048 1058 
f 1049 1042 1058 
o convex_71
v 0.015851 0.043288 0.003668
v 0.028076 0.038887 0.014427
v 0.027588 0.039376 0.014918
v 0.015851 0.044266 0.017364
v 0.019273 0.045734 0.010031
v 0.023674 0.038397 0.003668
v 0.025631 0.038397 0.017364
v 0.018295 0.045734 0.017364
v 0.024652 0.040842 0.005626
v 0.017317 0.044755 0.004158
v 0.028076 0.038887 0.008562
v 0.015851 0.045244 0.014918
v 0.015851 0.043288 0.007582
v 0.025140 0.038887 0.003668
v 0.028076 0.038397 0.008562
v 0.019273 0.045734 0.014918
v 0.018295 0.044266 0.003668
v 0.026608 0.040355 0.010031
v 0.026608 0.038887 0.017364
f 1066 1065 1077 
f 1062 1065 1066 
f 1061 1060 1069 
f 1059 1062 1070 
f 1062 1066 1070 
f 1066 1063 1070 
f 1068 1059 1070 
f 1063 1068 1070 
f 1062 1059 1071 
f 1059 1064 1071 
f 1065 1062 1071 
f 1064 1065 1071 
f 1064 1059 1072 
f 1067 1069 1072 
f 1072 1069 1073 
f 1060 1065 1073 
f 1065 1064 1073 
f 1069 1060 1073 
f 1064 1072 1073 
f 1063 1066 1074 
f 1066 1061 1074 
f 1063 1067 1075 
f 1059 1068 1075 
f 1068 1063 1075 
f 1072 1059 1075 
f 1067 1072 1075 
f 1067 1063 1076 
f 1061 1069 1076 
f 1069 1067 1076 
f 1074 1061 1076 
f 1063 1074 1076 
f 1060 1061 1077 
f 1065 1060 1077 
f 1061 1066 1077 
o convex_72
v -0.003227 0.024700 0.017364
v -0.006162 0.014429 0.002690
v -0.006162 0.016387 0.002690
v -0.003227 0.024700 0.002690
v -0.004206 0.028614 0.003180
v -0.006162 0.016387 0.017364
v -0.003716 0.028614 0.017364
v -0.005183 0.015897 0.017364
v -0.003227 0.028614 0.002690
v -0.005183 0.015897 0.002690
v -0.005672 0.014429 0.017364
v -0.003227 0.028614 0.017364
f 1086 1084 1089 
f 1079 1080 1081 
f 1082 1080 1083 
f 1080 1079 1083 
f 1083 1078 1084 
f 1082 1083 1084 
f 1081 1078 1085 
f 1078 1083 1085 
f 1081 1080 1086 
f 1078 1081 1086 
f 1080 1082 1086 
f 1082 1084 1086 
f 1079 1081 1087 
f 1081 1085 1087 
f 1087 1085 1088 
f 1083 1079 1088 
f 1085 1083 1088 
f 1079 1087 1088 
f 1084 1078 1089 
f 1078 1086 1089 
o convex_73
v -0.018391 0.020790 0.023234
v -0.026705 0.030080 0.017365
v -0.026705 0.030080 0.017854
v -0.022303 0.014429 0.017365
v -0.022792 0.024700 0.017365
v -0.022792 0.032037 0.023234
v -0.019369 0.014429 0.022744
v -0.022303 0.033016 0.021766
v -0.020836 0.014429 0.017854
v -0.025725 0.033016 0.017365
v -0.017901 0.018343 0.022744
v -0.017901 0.014429 0.023234
v -0.021326 0.032037 0.022744
v -0.026705 0.033016 0.017854
v -0.021814 0.014429 0.018833
v -0.021814 0.020790 0.017365
f 1100 1098 1105 
f 1092 1091 1093 
f 1093 1091 1094 
f 1095 1092 1096 
f 1096 1093 1098 
f 1094 1091 1099 
f 1097 1094 1099 
f 1098 1100 1101 
f 1090 1095 1101 
f 1095 1096 1101 
f 1096 1098 1101 
f 1100 1090 1101 
f 1095 1090 1102 
f 1094 1097 1102 
f 1097 1095 1102 
f 1090 1100 1102 
f 1100 1094 1102 
f 1091 1092 1103 
f 1092 1095 1103 
f 1095 1097 1103 
f 1099 1091 1103 
f 1097 1099 1103 
f 1092 1093 1104 
f 1096 1092 1104 
f 1093 1096 1104 
f 1093 1094 1105 
f 1098 1093 1105 
f 1094 1100 1105 
o convex_74
v -0.014967 0.021278 0.025679
v -0.022302 0.031548 0.023234
v -0.021324 0.026656 0.023234
v -0.014967 0.033016 0.024701
v -0.016924 0.014429 0.023234
v -0.020346 0.026168 0.024701
v -0.018391 0.033016 0.025190
v -0.018391 0.014429 0.023723
v -0.014967 0.014429 0.024212
v -0.021324 0.033016 0.023234
v -0.017413 0.024209 0.025679
v -0.016924 0.018343 0.023234
v -0.014967 0.027635 0.025679
v -0.021813 0.033016 0.024212
v -0.015946 0.014429 0.024701
f 1116 1113 1120 
f 1108 1107 1110 
f 1107 1108 1111 
f 1108 1110 1113 
f 1111 1108 1113 
f 1109 1106 1114 
f 1113 1110 1114 
f 1110 1107 1115 
f 1112 1109 1115 
f 1111 1113 1116 
f 1109 1114 1117 
f 1114 1110 1117 
f 1115 1109 1117 
f 1110 1115 1117 
f 1106 1109 1118 
f 1109 1112 1118 
f 1116 1106 1118 
f 1112 1116 1118 
f 1107 1111 1119 
f 1115 1107 1119 
f 1112 1115 1119 
f 1116 1112 1119 
f 1111 1116 1119 
f 1114 1106 1120 
f 1113 1114 1120 
f 1106 1116 1120 
o convex_75
v -0.016435 0.034485 0.025189
v -0.026704 0.033016 0.017365
v -0.026704 0.033016 0.017854
v -0.025237 0.039864 0.017365
v -0.022791 0.037418 0.023722
v -0.014967 0.039864 0.023233
v -0.014967 0.033016 0.024211
v -0.021813 0.033016 0.024211
v -0.023768 0.039374 0.017365
v -0.020348 0.039864 0.023233
v -0.026704 0.038885 0.017854
v -0.025725 0.033016 0.017365
v -0.014967 0.039374 0.024211
v -0.023768 0.035952 0.022744
f 1125 1131 1134 
f 1123 1122 1127 
f 1121 1125 1128 
f 1127 1121 1128 
f 1123 1127 1128 
f 1122 1124 1129 
f 1124 1126 1129 
f 1126 1127 1129 
f 1126 1124 1130 
f 1122 1123 1131 
f 1124 1122 1131 
f 1125 1130 1131 
f 1130 1124 1131 
f 1127 1122 1132 
f 1122 1129 1132 
f 1129 1127 1132 
f 1125 1121 1133 
f 1121 1127 1133 
f 1127 1126 1133 
f 1130 1125 1133 
f 1126 1130 1133 
f 1128 1125 1134 
f 1123 1128 1134 
f 1131 1123 1134 
o convex_76
v -0.013010 0.044266 0.022255
v -0.024745 0.039865 0.017365
v -0.024745 0.040353 0.017365
v -0.006651 0.039375 0.017365
v -0.016434 0.039865 0.023723
v -0.015458 0.045245 0.017365
v -0.006651 0.041332 0.023234
v -0.019369 0.041333 0.022743
v -0.018390 0.045245 0.017854
v -0.006651 0.040844 0.017365
v -0.006651 0.040354 0.023234
v -0.020345 0.039865 0.022743
v -0.013010 0.043287 0.023234
v -0.014967 0.044266 0.022255
f 1147 1135 1148 
f 1136 1137 1140 
f 1138 1136 1140 
f 1140 1135 1141 
f 1135 1140 1143 
f 1140 1137 1143 
f 1137 1142 1143 
f 1138 1140 1144 
f 1141 1138 1144 
f 1140 1141 1144 
f 1139 1138 1145 
f 1138 1141 1145 
f 1141 1139 1145 
f 1137 1136 1146 
f 1136 1138 1146 
f 1138 1139 1146 
f 1142 1137 1146 
f 1139 1142 1146 
f 1141 1135 1147 
f 1139 1141 1147 
f 1142 1139 1147 
f 1142 1147 1148 
f 1135 1143 1148 
f 1143 1142 1148 
o convex_77
v 0.013893 -0.090244 0.015898
v 0.019762 -0.085843 0.021276
v 0.018783 -0.085843 0.021765
v 0.012914 -0.088777 0.012473
v 0.019762 -0.089755 0.012473
v 0.012914 -0.085843 0.021765
v 0.018783 -0.089755 0.017363
v 0.019762 -0.085843 0.020297
v 0.012914 -0.086821 0.021276
v 0.012914 -0.089755 0.012473
v 0.012914 -0.085843 0.020297
v 0.019762 -0.089266 0.012473
v 0.019272 -0.090244 0.012473
v 0.019762 -0.087799 0.019809
f 1157 1155 1162 
f 1151 1150 1154 
f 1150 1153 1156 
f 1154 1150 1156 
f 1151 1154 1157 
f 1154 1152 1157 
f 1149 1155 1157 
f 1152 1153 1158 
f 1149 1157 1158 
f 1157 1152 1158 
f 1152 1154 1159 
f 1156 1152 1159 
f 1154 1156 1159 
f 1153 1152 1160 
f 1152 1156 1160 
f 1156 1153 1160 
f 1155 1149 1161 
f 1153 1155 1161 
f 1149 1158 1161 
f 1158 1153 1161 
f 1150 1151 1162 
f 1153 1150 1162 
f 1155 1153 1162 
f 1151 1157 1162 
o convex_78
v -0.011052 0.025682 0.025679
v -0.014966 0.014432 0.024212
v -0.006651 0.014432 0.024212
v -0.013498 0.042307 0.023234
v -0.006651 0.041328 0.023723
v -0.014966 0.033502 0.025190
v -0.006651 0.018345 0.025679
v -0.006651 0.035950 0.023234
v -0.014966 0.020790 0.025679
v -0.014966 0.038394 0.023234
v -0.010076 0.014432 0.025190
v -0.006651 0.028612 0.025190
v -0.014477 0.041816 0.023723
f 1166 1172 1175 
f 1165 1167 1169 
f 1165 1164 1170 
f 1166 1167 1170 
f 1167 1165 1170 
f 1168 1164 1171 
f 1163 1168 1171 
f 1169 1163 1171 
f 1164 1168 1172 
f 1170 1164 1172 
f 1166 1170 1172 
f 1164 1165 1173 
f 1165 1169 1173 
f 1171 1164 1173 
f 1169 1171 1173 
f 1168 1163 1174 
f 1167 1168 1174 
f 1163 1169 1174 
f 1169 1167 1174 
f 1167 1166 1175 
f 1168 1167 1175 
f 1172 1168 1175 
o convex_79
v -0.003227 0.038884 0.017365
v -0.006162 0.019813 0.025679
v -0.006651 0.019813 0.025679
v -0.005672 0.014431 0.017366
v -0.006651 0.040350 0.017365
v -0.003227 0.039861 0.023721
v -0.003227 0.024702 0.024700
v -0.006651 0.040839 0.023721
v -0.003227 0.024702 0.017366
v -0.006651 0.014431 0.025189
v -0.006162 0.014431 0.017366
v -0.005183 0.015899 0.025189
v -0.003716 0.025190 0.025189
v -0.006162 0.028122 0.025189
f 1188 1181 1189 
f 1176 1180 1181 
f 1176 1181 1182 
f 1180 1178 1183 
f 1181 1180 1183 
f 1179 1176 1184 
f 1176 1182 1184 
f 1177 1178 1185 
f 1178 1180 1185 
f 1176 1179 1186 
f 1180 1176 1186 
f 1179 1185 1186 
f 1185 1180 1186 
f 1179 1184 1187 
f 1184 1182 1187 
f 1177 1185 1187 
f 1185 1179 1187 
f 1182 1181 1188 
f 1177 1187 1188 
f 1187 1182 1188 
f 1178 1177 1189 
f 1183 1178 1189 
f 1181 1183 1189 
f 1177 1188 1189 
o convex_80
v 0.032478 -0.060410 0.012473
v 0.026610 -0.081926 0.011005
v 0.026610 -0.081926 0.012473
v 0.031501 -0.050628 0.007093
v 0.029056 -0.072144 0.007093
v 0.032478 -0.051118 0.012473
v 0.026610 -0.075566 0.007582
v 0.032968 -0.052096 0.009049
v 0.030034 -0.072634 0.010027
v 0.031012 -0.062855 0.007093
v 0.026610 -0.079969 0.012473
v 0.027100 -0.078011 0.007093
v 0.030034 -0.073121 0.012473
v 0.031012 -0.052586 0.007582
v 0.033458 -0.050628 0.012473
v 0.031990 -0.061878 0.009539
v 0.027100 -0.081926 0.011005
f 1198 1202 1206 
f 1192 1190 1195 
f 1191 1192 1196 
f 1194 1193 1199 
f 1193 1197 1199 
f 1198 1194 1199 
f 1192 1195 1200 
f 1196 1192 1200 
f 1193 1194 1201 
f 1196 1193 1201 
f 1191 1196 1201 
f 1194 1198 1201 
f 1190 1192 1202 
f 1198 1190 1202 
f 1195 1193 1203 
f 1193 1196 1203 
f 1200 1195 1203 
f 1196 1200 1203 
f 1195 1190 1204 
f 1193 1195 1204 
f 1190 1197 1204 
f 1197 1193 1204 
f 1197 1190 1205 
f 1190 1198 1205 
f 1199 1197 1205 
f 1198 1199 1205 
f 1192 1191 1206 
f 1191 1201 1206 
f 1201 1198 1206 
f 1202 1192 1206 
o convex_81
v 0.015850 -0.087308 0.007093
v 0.013893 -0.088775 0.012473
v 0.012914 -0.088775 0.012473
v 0.019762 -0.079485 0.004158
v 0.012914 -0.079485 0.003669
v 0.019762 -0.089754 0.012473
v 0.019762 -0.084376 0.004648
v 0.012914 -0.083887 0.004648
v 0.013404 -0.089265 0.010027
v 0.018783 -0.089265 0.009536
v 0.019762 -0.079975 0.003179
v 0.012914 -0.079485 0.004158
v 0.014872 -0.090242 0.012473
v 0.019762 -0.089265 0.012473
f 1212 1210 1220 
f 1209 1208 1210 
f 1208 1209 1212 
f 1210 1212 1213 
f 1209 1211 1214 
f 1213 1207 1214 
f 1209 1214 1215 
f 1214 1207 1215 
f 1213 1212 1216 
f 1207 1213 1216 
f 1215 1207 1216 
f 1211 1210 1217 
f 1210 1213 1217 
f 1214 1211 1217 
f 1213 1214 1217 
f 1209 1210 1218 
f 1210 1211 1218 
f 1211 1209 1218 
f 1212 1209 1219 
f 1209 1215 1219 
f 1216 1212 1219 
f 1215 1216 1219 
f 1210 1208 1220 
f 1208 1212 1220 
o convex_82
v 0.025631 -0.084864 0.015897
v 0.019763 -0.089755 0.012473
v 0.019763 -0.089265 0.012473
v 0.019763 -0.083887 0.022255
v 0.027098 -0.079973 0.012473
v 0.025142 -0.079973 0.021277
v 0.022698 -0.087310 0.019320
v 0.023675 -0.088776 0.012473
v 0.019763 -0.089755 0.016386
v 0.027587 -0.080952 0.014430
v 0.023187 -0.079973 0.021766
v 0.023187 -0.083398 0.022255
v 0.019763 -0.085352 0.022255
v 0.023187 -0.088776 0.016386
v 0.026609 -0.080952 0.018342
v 0.019763 -0.083887 0.021766
v 0.024653 -0.085352 0.018342
f 1235 1232 1237 
f 1223 1222 1224 
f 1222 1223 1225 
f 1222 1225 1228 
f 1224 1222 1229 
f 1222 1228 1229 
f 1225 1226 1230 
f 1221 1228 1230 
f 1228 1225 1230 
f 1226 1225 1231 
f 1226 1231 1232 
f 1231 1224 1232 
f 1232 1224 1233 
f 1229 1227 1233 
f 1224 1229 1233 
f 1227 1232 1233 
f 1228 1221 1234 
f 1227 1229 1234 
f 1229 1228 1234 
f 1221 1230 1235 
f 1230 1226 1235 
f 1226 1232 1235 
f 1223 1224 1236 
f 1225 1223 1236 
f 1224 1231 1236 
f 1231 1225 1236 
f 1232 1227 1237 
f 1234 1221 1237 
f 1227 1234 1237 
f 1221 1235 1237 
o convex_83
v 0.014383 -0.023726 0.024212
v 0.012914 -0.021770 0.024212
v 0.012914 -0.021770 0.025679
v 0.014872 -0.043286 0.026657
v 0.019762 -0.019323 0.026168
v 0.015360 -0.043286 0.024212
v 0.019762 -0.043286 0.026657
v 0.017316 -0.024704 0.026657
v 0.019762 -0.019323 0.025679
v 0.013893 -0.019323 0.026168
v 0.019762 -0.043286 0.026168
v 0.012914 -0.019323 0.024212
v 0.019762 -0.022748 0.026657
v 0.014872 -0.043286 0.024212
f 1243 1241 1251 
f 1240 1239 1241 
f 1239 1238 1243 
f 1241 1243 1244 
f 1241 1244 1245 
f 1243 1238 1246 
f 1242 1244 1246 
f 1240 1241 1247 
f 1241 1245 1247 
f 1242 1246 1247 
f 1244 1243 1248 
f 1243 1246 1248 
f 1246 1244 1248 
f 1238 1239 1249 
f 1239 1240 1249 
f 1246 1238 1249 
f 1240 1247 1249 
f 1247 1246 1249 
f 1244 1242 1250 
f 1245 1244 1250 
f 1247 1245 1250 
f 1242 1247 1250 
f 1241 1239 1251 
f 1239 1243 1251 
o convex_84
v 0.030524 -0.047198 0.003669
v 0.033458 -0.034484 0.012473
v 0.033458 -0.034484 0.010027
v 0.028566 -0.034484 0.003179
v 0.032968 -0.050623 0.012473
v 0.028566 -0.050623 0.003179
v 0.033458 -0.050134 0.010027
v 0.029546 -0.035465 0.002201
v 0.031990 -0.050623 0.006114
v 0.032479 -0.034484 0.007094
v 0.032968 -0.034484 0.012473
v 0.029056 -0.050623 0.002201
v 0.028566 -0.034484 0.002201
f 1259 1263 1264 
f 1253 1254 1255 
f 1256 1255 1257 
f 1254 1253 1258 
f 1253 1256 1258 
f 1256 1257 1260 
f 1258 1256 1260 
f 1255 1254 1261 
f 1254 1258 1261 
f 1252 1259 1261 
f 1260 1252 1261 
f 1258 1260 1261 
f 1253 1255 1262 
f 1255 1256 1262 
f 1256 1253 1262 
f 1259 1252 1263 
f 1252 1260 1263 
f 1260 1257 1263 
f 1257 1255 1264 
f 1255 1261 1264 
f 1261 1259 1264 
f 1263 1257 1264 
o convex_85
v 0.023675 -0.072148 0.025190
v 0.019763 -0.084375 0.022255
v 0.019763 -0.084375 0.022745
v 0.019763 -0.065299 0.026168
v 0.027587 -0.065299 0.022255
v 0.023187 -0.082905 0.022745
v 0.019763 -0.078013 0.025190
v 0.019763 -0.065790 0.025190
v 0.025631 -0.066768 0.025190
v 0.026609 -0.065299 0.022255
v 0.022698 -0.065299 0.026168
v 0.024653 -0.075567 0.024212
v 0.025631 -0.075567 0.022255
v 0.020742 -0.080459 0.024700
v 0.019763 -0.082905 0.022255
v 0.027098 -0.065790 0.023723
f 1276 1277 1280 
f 1266 1267 1268 
f 1267 1266 1270 
f 1268 1267 1271 
f 1266 1268 1272 
f 1268 1269 1274 
f 1269 1266 1274 
f 1272 1268 1274 
f 1269 1268 1275 
f 1268 1271 1275 
f 1271 1265 1275 
f 1265 1273 1275 
f 1273 1265 1276 
f 1266 1269 1277 
f 1270 1266 1277 
f 1276 1270 1277 
f 1267 1270 1278 
f 1271 1267 1278 
f 1265 1271 1278 
f 1270 1276 1278 
f 1276 1265 1278 
f 1266 1272 1279 
f 1274 1266 1279 
f 1272 1274 1279 
f 1269 1275 1280 
f 1275 1273 1280 
f 1273 1276 1280 
f 1277 1269 1280 
o convex_86
v 0.033458 -0.032526 0.012474
v 0.026611 -0.019321 0.023723
v 0.028567 -0.019810 0.020787
v 0.030033 -0.019321 0.012963
v 0.028078 -0.035462 0.023233
v 0.032480 -0.034969 0.018342
v 0.031013 -0.019810 0.015408
v 0.032968 -0.035462 0.012474
v 0.025632 -0.019810 0.022744
v 0.029056 -0.034482 0.023723
v 0.031500 -0.026661 0.018342
v 0.031013 -0.019321 0.012474
v 0.032480 -0.027151 0.015897
v 0.028078 -0.034969 0.022744
v 0.033458 -0.035462 0.015408
v 0.028567 -0.027151 0.023233
v 0.025632 -0.021278 0.023723
v 0.030033 -0.019810 0.012963
v 0.032480 -0.025190 0.013453
v 0.030523 -0.019321 0.016875
f 1293 1287 1300 
f 1282 1284 1289 
f 1285 1286 1290 
f 1284 1282 1292 
f 1281 1288 1292 
f 1291 1286 1293 
f 1288 1285 1294 
f 1286 1285 1295 
f 1288 1281 1295 
f 1285 1288 1295 
f 1281 1293 1295 
f 1293 1286 1295 
f 1283 1282 1296 
f 1282 1290 1296 
f 1290 1286 1296 
f 1286 1291 1296 
f 1291 1283 1296 
f 1282 1289 1297 
f 1290 1282 1297 
f 1285 1290 1297 
f 1294 1285 1297 
f 1289 1294 1297 
f 1289 1284 1298 
f 1284 1292 1298 
f 1292 1288 1298 
f 1288 1294 1298 
f 1294 1289 1298 
f 1292 1287 1299 
f 1281 1292 1299 
f 1293 1281 1299 
f 1287 1293 1299 
f 1282 1283 1300 
f 1283 1291 1300 
f 1292 1282 1300 
f 1287 1292 1300 
f 1291 1293 1300 
o convex_87
v -0.019858 0.022745 0.000245
v -0.026216 0.032526 0.004646
v -0.026216 0.032526 0.005136
v -0.019857 0.037905 0.001713
v -0.020836 0.014431 0.005136
v -0.022793 0.027144 -0.000244
v -0.023280 0.037416 0.000245
v -0.025237 0.037905 0.005136
v -0.021815 0.014431 0.004646
v -0.019858 0.014431 0.002202
v -0.019857 0.036929 0.000245
v -0.025726 0.028123 0.004646
v -0.020836 0.017855 0.005136
v -0.019858 0.017368 0.003668
v -0.025726 0.037905 0.003668
v -0.019857 0.031059 -0.000244
f 1314 1310 1316 
f 1303 1305 1308 
f 1305 1303 1309 
f 1309 1306 1310 
f 1306 1301 1310 
f 1305 1309 1310 
f 1307 1304 1311 
f 1303 1302 1312 
f 1302 1306 1312 
f 1309 1303 1312 
f 1306 1309 1312 
f 1304 1308 1313 
f 1308 1305 1313 
f 1305 1310 1314 
f 1304 1313 1314 
f 1313 1305 1314 
f 1302 1303 1315 
f 1306 1302 1315 
f 1304 1307 1315 
f 1307 1306 1315 
f 1303 1308 1315 
f 1308 1304 1315 
f 1301 1306 1316 
f 1306 1307 1316 
f 1310 1301 1316 
f 1311 1304 1316 
f 1307 1311 1316 
f 1304 1314 1316 
o convex_88
v 0.024164 0.011983 0.012473
v 0.018785 0.014429 0.023233
v 0.019763 0.014429 0.022254
v 0.025143 -0.015897 0.023233
v 0.024653 0.002199 0.012473
v 0.018295 0.011004 0.022744
v 0.025143 -0.003177 0.019321
v 0.023675 -0.012471 0.022744
v 0.022697 0.014429 0.012963
v 0.023186 0.014429 0.015896
v 0.025143 -0.012471 0.023233
v 0.020741 -0.001221 0.022744
v 0.025143 0.006115 0.012963
v 0.022696 0.013940 0.017365
v 0.023186 0.011004 0.012473
v 0.018295 0.014429 0.022254
v 0.020741 -0.001221 0.023233
v 0.025143 0.002199 0.012473
v 0.024653 -0.015897 0.022744
f 1334 1320 1335 
f 1318 1319 1325 
f 1317 1325 1326 
f 1325 1319 1326 
f 1319 1318 1327 
f 1318 1320 1327 
f 1320 1323 1327 
f 1322 1321 1328 
f 1321 1324 1328 
f 1323 1320 1329 
f 1317 1326 1329 
f 1326 1323 1329 
f 1323 1326 1330 
f 1326 1319 1330 
f 1319 1327 1330 
f 1327 1323 1330 
f 1317 1321 1331 
f 1321 1322 1331 
f 1325 1317 1331 
f 1322 1325 1331 
f 1322 1318 1332 
f 1318 1325 1332 
f 1325 1322 1332 
f 1320 1318 1333 
f 1318 1322 1333 
f 1322 1328 1333 
f 1328 1324 1333 
f 1321 1317 1334 
f 1317 1329 1334 
f 1329 1320 1334 
f 1324 1321 1335 
f 1320 1333 1335 
f 1333 1324 1335 
f 1321 1334 1335 
o convex_89
v 0.028077 0.038397 0.011985
v 0.021719 0.014429 0.016385
v 0.021719 0.014429 0.017364
v 0.028077 0.029590 0.011985
v 0.027098 0.038397 0.017364
v 0.027098 0.029590 0.016874
v 0.023676 0.014429 0.011985
v 0.022698 0.023236 0.016874
v 0.023676 0.020790 0.011985
v 0.026120 0.038397 0.016385
v 0.022698 0.014429 0.017364
v 0.028077 0.030570 0.014918
v 0.023676 0.014429 0.013941
v 0.027588 0.038397 0.011985
v 0.021719 0.018343 0.017364
f 1340 1345 1350 
f 1338 1337 1342 
f 1336 1339 1342 
f 1342 1337 1344 
f 1336 1342 1344 
f 1344 1343 1345 
f 1340 1336 1345 
f 1340 1338 1346 
f 1341 1340 1346 
f 1338 1342 1346 
f 1339 1336 1347 
f 1336 1340 1347 
f 1340 1341 1347 
f 1341 1346 1347 
f 1342 1339 1348 
f 1346 1342 1348 
f 1347 1346 1348 
f 1339 1347 1348 
f 1336 1344 1349 
f 1344 1345 1349 
f 1345 1336 1349 
f 1337 1338 1350 
f 1338 1340 1350 
f 1344 1337 1350 
f 1343 1344 1350 
f 1345 1343 1350 
o convex_90
v 0.016339 0.008070 0.025190
v 0.014382 -0.019321 0.025190
v 0.019272 0.004644 0.023234
v 0.019762 -0.019321 0.026168
v 0.014382 0.014429 0.024212
v 0.014382 -0.017362 0.026168
v 0.018783 0.014429 0.023723
v 0.019762 -0.011005 0.026168
v 0.016828 0.011981 0.023234
v 0.019762 -0.019321 0.025679
v 0.019762 0.009048 0.023234
v 0.014382 0.014429 0.024701
v 0.016339 0.014429 0.024701
f 1362 1351 1363 
f 1355 1352 1356 
f 1352 1354 1356 
f 1356 1354 1358 
f 1351 1356 1358 
f 1353 1352 1359 
f 1352 1355 1359 
f 1355 1357 1359 
f 1352 1353 1360 
f 1354 1352 1360 
f 1358 1354 1360 
f 1358 1360 1361 
f 1357 1358 1361 
f 1353 1359 1361 
f 1359 1357 1361 
f 1360 1353 1361 
f 1355 1356 1362 
f 1356 1351 1362 
f 1357 1355 1362 
f 1357 1362 1363 
f 1351 1358 1363 
f 1358 1357 1363 
o convex_91
v 0.026121 -0.023233 0.025679
v 0.019762 -0.037418 0.026168
v 0.027586 -0.035949 0.023723
v 0.019764 0.006603 0.023235
v 0.019764 -0.011008 0.026168
v 0.025631 -0.037418 0.026658
v 0.028076 -0.028124 0.023723
v 0.020253 0.005134 0.024212
v 0.020253 -0.000253 0.023235
v 0.022697 -0.020785 0.026658
v 0.028566 -0.037418 0.024702
v 0.019762 -0.037418 0.026658
v 0.025141 -0.013451 0.023235
v 0.027099 -0.027633 0.025679
v 0.026608 -0.020785 0.024212
v 0.028566 -0.037418 0.023723
v 0.019762 -0.022255 0.026658
f 1375 1373 1380 
f 1367 1368 1371 
f 1366 1365 1372 
f 1365 1367 1372 
f 1364 1371 1373 
f 1371 1368 1373 
f 1369 1365 1374 
f 1365 1369 1375 
f 1369 1373 1375 
f 1367 1371 1376 
f 1366 1372 1376 
f 1372 1367 1376 
f 1373 1369 1377 
f 1364 1373 1377 
f 1369 1374 1377 
f 1374 1370 1377 
f 1371 1364 1378 
f 1370 1376 1378 
f 1376 1371 1378 
f 1364 1377 1378 
f 1377 1370 1378 
f 1365 1366 1379 
f 1374 1365 1379 
f 1370 1374 1379 
f 1366 1376 1379 
f 1376 1370 1379 
f 1367 1365 1380 
f 1368 1367 1380 
f 1373 1368 1380 
f 1365 1375 1380 
o convex_92
v 0.029545 -0.025682 0.004158
v 0.031012 -0.019321 0.012473
v 0.030522 -0.019321 0.012473
v 0.032968 -0.034484 0.012473
v 0.027100 -0.020790 0.004647
v 0.029545 -0.034484 0.004158
v 0.032968 -0.033992 0.008559
v 0.030522 -0.019321 0.008559
v 0.032479 -0.026659 0.009538
v 0.032479 -0.033504 0.012473
v 0.028078 -0.019321 0.004158
v 0.033457 -0.032526 0.012473
v 0.031501 -0.027146 0.006604
v 0.030522 -0.034484 0.004158
v 0.030522 -0.021767 0.012473
v 0.029545 -0.034484 0.004647
f 1390 1385 1396 
f 1382 1383 1384 
f 1383 1382 1388 
f 1388 1382 1389 
f 1384 1383 1390 
f 1385 1383 1391 
f 1381 1386 1391 
f 1386 1385 1391 
f 1383 1388 1391 
f 1382 1384 1392 
f 1384 1387 1392 
f 1389 1382 1392 
f 1387 1389 1392 
f 1389 1387 1393 
f 1388 1389 1393 
f 1381 1391 1393 
f 1391 1388 1393 
f 1386 1381 1394 
f 1384 1386 1394 
f 1387 1384 1394 
f 1381 1393 1394 
f 1393 1387 1394 
f 1383 1385 1395 
f 1390 1383 1395 
f 1385 1390 1395 
f 1386 1384 1396 
f 1385 1386 1396 
f 1384 1390 1396 
o convex_93
v 0.028077 -0.079482 0.012473
v 0.027588 -0.065300 0.022255
v 0.028566 -0.065300 0.021277
v 0.024654 -0.079973 0.022255
v 0.023675 -0.078504 0.021766
v 0.030522 -0.065790 0.012473
v 0.030033 -0.072148 0.015897
v 0.027099 -0.078992 0.012473
v 0.026611 -0.065790 0.021766
v 0.031501 -0.066280 0.013451
v 0.026611 -0.079973 0.018831
v 0.029545 -0.070192 0.018342
v 0.031011 -0.065300 0.016386
v 0.026611 -0.073123 0.022255
v 0.023675 -0.079973 0.022255
v 0.030522 -0.071170 0.012473
f 1406 1403 1412 
f 1402 1397 1404 
f 1402 1404 1405 
f 1398 1402 1405 
f 1404 1401 1405 
f 1397 1403 1407 
f 1407 1403 1408 
f 1398 1399 1409 
f 1402 1398 1409 
f 1406 1402 1409 
f 1403 1406 1409 
f 1408 1403 1409 
f 1399 1408 1409 
f 1399 1398 1410 
f 1398 1400 1410 
f 1400 1407 1410 
f 1407 1408 1410 
f 1408 1399 1410 
f 1400 1398 1411 
f 1404 1397 1411 
f 1401 1404 1411 
f 1398 1405 1411 
f 1405 1401 1411 
f 1407 1400 1411 
f 1397 1407 1411 
f 1397 1402 1412 
f 1403 1397 1412 
f 1402 1406 1412 
o convex_94
v 0.003621 0.032038 0.023721
v 0.005577 0.014429 0.002692
v 0.005088 0.016387 0.017363
v 0.003132 0.024697 0.002692
v 0.003132 0.024701 0.023721
v 0.006066 0.016879 0.023721
v 0.006066 0.016877 0.002692
v 0.003621 0.027636 0.002692
v 0.003132 0.032038 0.017363
v 0.005577 0.014429 0.023721
v 0.003621 0.032038 0.017363
v 0.006066 0.014429 0.023721
v 0.006066 0.014429 0.002692
v 0.003132 0.032038 0.023721
f 1421 1417 1426 
f 1414 1415 1416 
f 1416 1415 1417 
f 1413 1417 1418 
f 1414 1416 1419 
f 1419 1416 1420 
f 1416 1417 1421 
f 1420 1416 1421 
f 1415 1414 1422 
f 1417 1415 1422 
f 1418 1417 1422 
f 1413 1418 1423 
f 1418 1419 1423 
f 1419 1420 1423 
f 1421 1413 1423 
f 1420 1421 1423 
f 1419 1418 1424 
f 1422 1414 1424 
f 1418 1422 1424 
f 1414 1419 1425 
f 1419 1424 1425 
f 1424 1414 1425 
f 1417 1413 1426 
f 1413 1421 1426 
o convex_95
v 0.023674 0.038397 0.001712
v 0.017807 0.044266 0.003668
v 0.017807 0.044266 0.003179
v 0.015849 0.038397 0.002201
v 0.024653 0.038397 0.003668
v 0.020251 0.041820 0.001223
v 0.015849 0.043288 0.003668
v 0.015849 0.041332 0.001712
v 0.020740 0.038397 0.000734
f 1430 1434 1435 
f 1430 1427 1431 
f 1429 1428 1431 
f 1431 1427 1432 
f 1429 1431 1432 
f 1428 1429 1433 
f 1430 1431 1433 
f 1431 1428 1433 
f 1429 1432 1434 
f 1433 1429 1434 
f 1430 1433 1434 
f 1427 1430 1435 
f 1432 1427 1435 
f 1434 1432 1435 
o convex_96
v -0.021325 0.018835 0.005136
v -0.028173 0.029593 0.011004
v -0.028173 0.029593 0.011493
v -0.025727 0.037905 0.006115
v -0.023282 0.018835 0.011493
v -0.022304 0.014432 0.005626
v -0.026216 0.029103 0.005136
v -0.027683 0.037905 0.011493
v -0.023771 0.014432 0.011493
v -0.028173 0.030570 0.008559
v -0.026216 0.037905 0.005136
v -0.028173 0.037905 0.008559
v -0.022793 0.014432 0.011493
v -0.023771 0.014432 0.010026
v -0.021325 0.014432 0.005136
v -0.021325 0.018835 0.005626
f 1450 1436 1451 
f 1440 1439 1443 
f 1438 1440 1443 
f 1438 1437 1444 
f 1440 1438 1444 
f 1437 1438 1445 
f 1442 1441 1445 
f 1439 1436 1446 
f 1436 1442 1446 
f 1443 1439 1446 
f 1442 1445 1446 
f 1438 1443 1447 
f 1445 1438 1447 
f 1443 1446 1447 
f 1446 1445 1447 
f 1440 1444 1448 
f 1444 1441 1448 
f 1444 1437 1449 
f 1441 1444 1449 
f 1445 1441 1449 
f 1437 1445 1449 
f 1442 1436 1450 
f 1441 1442 1450 
f 1448 1441 1450 
f 1448 1450 1451 
f 1436 1439 1451 
f 1439 1440 1451 
f 1440 1448 1451 
o convex_97
v 0.012912 0.032526 0.025190
v 0.003134 0.024702 0.023723
v 0.003134 0.024702 0.024701
v 0.014870 0.014429 0.024701
v 0.014869 0.039375 0.023723
v 0.006068 0.018346 0.025679
v 0.005579 0.014429 0.023723
v 0.003134 0.033012 0.024212
v 0.014870 0.020788 0.025679
v 0.014870 0.014429 0.024212
v 0.005579 0.014429 0.025190
v 0.003622 0.025193 0.025190
v 0.014869 0.027635 0.025679
v 0.007535 0.037414 0.024212
v 0.003134 0.033012 0.023723
v 0.014869 0.039375 0.024212
f 1456 1465 1467 
f 1454 1453 1458 
f 1453 1456 1458 
f 1453 1454 1459 
f 1455 1458 1461 
f 1458 1456 1461 
f 1456 1460 1461 
f 1460 1455 1461 
f 1458 1455 1462 
f 1454 1458 1462 
f 1455 1460 1462 
f 1460 1457 1462 
f 1459 1454 1463 
f 1454 1462 1463 
f 1462 1457 1463 
f 1457 1460 1464 
f 1452 1463 1464 
f 1463 1457 1464 
f 1463 1452 1465 
f 1459 1463 1465 
f 1456 1453 1466 
f 1453 1459 1466 
f 1465 1456 1466 
f 1459 1465 1466 
f 1460 1456 1467 
f 1452 1464 1467 
f 1464 1460 1467 
f 1465 1452 1467 
o convex_98
v 0.013893 -0.021278 0.024212
v 0.014382 -0.029103 0.004649
v 0.013893 -0.028614 0.004649
v 0.013404 -0.019321 0.004649
v 0.012914 -0.021766 0.024212
v 0.014871 -0.029103 0.024212
v 0.014871 -0.027634 0.004649
v 0.012914 -0.021278 0.004649
v 0.013893 -0.027634 0.024212
v 0.012914 -0.019321 0.024212
v 0.014382 -0.023234 0.014429
v 0.014871 -0.027146 0.024212
v 0.014382 -0.023234 0.004649
f 1478 1479 1480 
f 1469 1470 1471 
f 1470 1469 1473 
f 1468 1472 1473 
f 1469 1471 1474 
f 1473 1469 1474 
f 1471 1470 1475 
f 1470 1472 1475 
f 1472 1470 1476 
f 1470 1473 1476 
f 1473 1472 1476 
f 1468 1471 1477 
f 1472 1468 1477 
f 1471 1475 1477 
f 1475 1472 1477 
f 1471 1468 1478 
f 1468 1473 1479 
f 1473 1474 1479 
f 1478 1468 1479 
f 1474 1471 1480 
f 1471 1478 1480 
f 1479 1474 1480 
o convex_99
v 0.024164 0.037905 0.021766
v 0.018295 0.014432 0.022255
v 0.018295 0.014432 0.022744
v 0.026610 0.029590 0.017854
v 0.021720 0.020302 0.017365
v 0.021720 0.037905 0.022255
v 0.026120 0.037905 0.017365
v 0.022208 0.014432 0.017365
v 0.019273 0.014432 0.022744
v 0.023185 0.032037 0.022744
v 0.018785 0.021279 0.022255
v 0.021720 0.037905 0.022744
v 0.026610 0.037905 0.018343
v 0.021230 0.016389 0.017365
v 0.024164 0.036926 0.022255
v 0.021230 0.014432 0.019810
v 0.023185 0.037905 0.020299
v 0.026610 0.029590 0.017365
f 1487 1493 1498 
f 1486 1481 1487 
f 1483 1482 1488 
f 1485 1487 1488 
f 1483 1488 1489 
f 1489 1484 1490 
f 1483 1489 1490 
f 1482 1483 1491 
f 1486 1485 1491 
f 1486 1491 1492 
f 1481 1486 1492 
f 1483 1490 1492 
f 1491 1483 1492 
f 1487 1481 1493 
f 1488 1482 1494 
f 1485 1488 1494 
f 1482 1491 1494 
f 1491 1485 1494 
f 1490 1484 1495 
f 1481 1492 1495 
f 1492 1490 1495 
f 1493 1481 1495 
f 1484 1493 1495 
f 1488 1484 1496 
f 1484 1489 1496 
f 1489 1488 1496 
f 1485 1486 1497 
f 1487 1485 1497 
f 1486 1487 1497 
f 1484 1488 1498 
f 1488 1487 1498 
f 1493 1484 1498 
o convex_100
v 0.021719 0.036437 0.024212
v 0.014871 0.014432 0.024212
v 0.015360 0.014432 0.023723
v 0.014871 0.037905 0.023723
v 0.014871 0.027634 0.025679
v 0.023186 0.033992 0.022745
v 0.018784 0.014432 0.023723
v 0.017806 0.014921 0.022745
v 0.017317 0.023724 0.025679
v 0.019761 0.037905 0.022745
v 0.018296 0.034482 0.025190
v 0.020251 0.025681 0.024701
v 0.014871 0.014432 0.024701
v 0.023186 0.036926 0.023723
v 0.014871 0.037905 0.024212
v 0.018784 0.014432 0.022745
v 0.016338 0.037905 0.023234
f 1508 1506 1515 
f 1501 1500 1502 
f 1502 1500 1503 
f 1500 1501 1505 
f 1501 1502 1506 
f 1504 1506 1508 
f 1507 1499 1509 
f 1503 1507 1509 
f 1507 1505 1510 
f 1503 1500 1511 
f 1500 1505 1511 
f 1507 1503 1511 
f 1505 1507 1511 
f 1505 1504 1512 
f 1499 1507 1512 
f 1504 1508 1512 
f 1510 1505 1512 
f 1507 1510 1512 
f 1502 1503 1513 
f 1508 1502 1513 
f 1509 1499 1513 
f 1503 1509 1513 
f 1499 1512 1513 
f 1512 1508 1513 
f 1505 1501 1514 
f 1504 1505 1514 
f 1506 1504 1514 
f 1501 1506 1514 
f 1506 1502 1515 
f 1502 1508 1515 
o convex_101
v -0.032085 -0.063338 0.011984
v -0.032575 -0.039864 0.015897
v -0.032575 -0.039864 0.013940
v -0.030130 -0.065295 0.015897
v -0.033063 -0.052096 0.015897
v -0.030619 -0.064317 0.011495
v -0.033553 -0.039864 0.011495
v -0.033553 -0.050627 0.011495
v -0.031108 -0.066277 0.015897
v -0.033553 -0.039864 0.014429
v -0.031108 -0.067255 0.011495
v -0.033063 -0.039864 0.011495
v -0.033553 -0.050627 0.013940
v -0.032085 -0.061874 0.015407
v -0.030130 -0.066765 0.013452
f 1524 1526 1530 
f 1518 1517 1519 
f 1519 1517 1520 
f 1517 1518 1522 
f 1522 1521 1523 
f 1519 1520 1524 
f 1520 1517 1525 
f 1517 1522 1525 
f 1522 1523 1525 
f 1523 1521 1526 
f 1516 1523 1526 
f 1524 1516 1526 
f 1518 1521 1527 
f 1522 1518 1527 
f 1521 1522 1527 
f 1523 1516 1528 
f 1520 1525 1528 
f 1525 1523 1528 
f 1516 1524 1529 
f 1524 1520 1529 
f 1528 1516 1529 
f 1520 1528 1529 
f 1518 1519 1530 
f 1521 1518 1530 
f 1519 1524 1530 
f 1526 1521 1530 
o convex_102
v -0.022303 -0.085351 0.006603
v -0.028172 -0.073611 0.006114
v -0.027194 -0.074100 0.004647
v -0.027683 -0.057476 0.003180
v -0.022303 -0.074100 0.002691
v -0.024749 -0.079969 0.003669
v -0.028172 -0.063834 0.002691
v -0.022303 -0.068238 0.003180
v -0.027683 -0.069215 0.006603
v -0.024749 -0.082903 0.006603
v -0.028172 -0.057476 0.002691
v -0.022303 -0.083394 0.004647
v -0.025726 -0.076056 0.003180
f 1533 1537 1543 
f 1532 1533 1536 
f 1533 1532 1537 
f 1531 1535 1538 
f 1531 1538 1539 
f 1538 1534 1539 
f 1532 1536 1540 
f 1536 1531 1540 
f 1539 1532 1540 
f 1531 1539 1540 
f 1535 1537 1541 
f 1537 1532 1541 
f 1534 1538 1541 
f 1538 1535 1541 
f 1532 1539 1541 
f 1539 1534 1541 
f 1535 1531 1542 
f 1531 1536 1542 
f 1536 1535 1542 
f 1536 1533 1543 
f 1535 1536 1543 
f 1537 1535 1543 
o convex_103
v -0.024750 -0.084862 0.007584
v -0.030128 -0.067255 0.015897
v -0.030617 -0.067255 0.015897
v -0.022794 -0.089263 0.015897
v -0.028172 -0.068236 0.006603
v -0.030128 -0.072639 0.011492
v -0.022304 -0.084862 0.007093
v -0.027193 -0.081440 0.015897
v -0.022304 -0.088285 0.015897
v -0.029639 -0.067747 0.006603
v -0.025728 -0.084862 0.010517
v -0.023282 -0.085840 0.006603
v -0.028661 -0.073615 0.007093
v -0.029639 -0.067747 0.015897
v -0.023282 -0.089263 0.012961
v -0.031106 -0.068236 0.013451
v -0.027193 -0.081440 0.010517
v -0.022304 -0.088774 0.011008
v -0.030128 -0.071659 0.015897
v -0.027682 -0.080951 0.013451
v -0.030617 -0.067255 0.009049
v -0.028172 -0.068236 0.007093
v -0.025238 -0.085840 0.015407
v -0.030128 -0.072150 0.010029
f 1559 1564 1567 
f 1545 1546 1547 
f 1547 1546 1551 
f 1545 1547 1552 
f 1548 1550 1555 
f 1553 1548 1555 
f 1553 1555 1556 
f 1555 1544 1556 
f 1545 1552 1557 
f 1554 1544 1558 
f 1544 1555 1558 
f 1544 1554 1560 
f 1556 1544 1560 
f 1552 1547 1561 
f 1550 1552 1561 
f 1555 1550 1561 
f 1547 1558 1561 
f 1558 1555 1561 
f 1551 1546 1562 
f 1546 1559 1562 
f 1559 1549 1562 
f 1560 1554 1563 
f 1551 1562 1563 
f 1562 1549 1563 
f 1546 1545 1564 
f 1545 1548 1564 
f 1548 1553 1564 
f 1559 1546 1564 
f 1548 1545 1565 
f 1550 1548 1565 
f 1552 1550 1565 
f 1545 1557 1565 
f 1557 1552 1565 
f 1547 1551 1566 
f 1558 1547 1566 
f 1554 1558 1566 
f 1551 1563 1566 
f 1563 1554 1566 
f 1553 1556 1567 
f 1549 1559 1567 
f 1556 1560 1567 
f 1563 1549 1567 
f 1560 1563 1567 
f 1564 1553 1567 
o convex_104
v 0.014871 -0.028128 0.004647
v 0.012914 -0.021278 0.002201
v 0.012914 -0.021278 0.004647
v 0.014382 -0.055027 0.002201
v 0.015360 -0.033507 0.002201
v 0.014871 -0.055027 0.004647
v 0.013893 -0.020789 0.002201
v 0.015360 -0.050134 0.004647
v 0.015360 -0.050134 0.002201
v 0.014382 -0.055027 0.004647
v 0.013404 -0.019321 0.004647
f 1574 1569 1578 
f 1570 1569 1571 
f 1571 1569 1572 
f 1568 1570 1573 
f 1568 1572 1574 
f 1572 1569 1574 
f 1572 1568 1575 
f 1568 1573 1575 
f 1575 1573 1576 
f 1571 1572 1576 
f 1573 1571 1576 
f 1572 1575 1576 
f 1570 1571 1577 
f 1573 1570 1577 
f 1571 1573 1577 
f 1570 1568 1578 
f 1569 1570 1578 
f 1568 1574 1578 
