o convex_0
v -0.017672 0.026624 0.020467
v -0.048247 -0.088265 0.000250
v -0.047752 -0.088767 -0.000243
v -0.029999 -0.089258 0.020467
v -0.016683 -0.007396 -0.000243
v -0.040353 -0.022701 0.019971
v -0.029014 0.011331 -0.000243
v -0.029999 -0.089258 -0.000243
v -0.047752 -0.088265 0.020467
v -0.016683 -0.009371 0.019971
v -0.016683 0.029089 -0.000243
v -0.040353 -0.022701 0.000250
v -0.029014 0.011331 0.020467
v -0.025560 -0.069526 0.000250
v -0.026548 -0.075437 0.019971
v -0.048247 -0.085309 0.019971
v -0.016683 0.029580 0.019971
v -0.043312 -0.043403 0.000250
v -0.038381 -0.014803 0.019971
v -0.046764 -0.089749 0.019971
v -0.024083 0.019719 0.000250
v -0.035422 -0.005924 0.000250
v -0.042327 -0.035505 0.019971
v -0.029999 -0.089749 0.000250
v -0.016683 -0.009371 0.000250
v -0.046764 -0.089749 0.000250
v -0.028028 0.013796 0.019971
v -0.016683 -0.006906 0.020467
v -0.028522 -0.085309 0.000250
v -0.048247 -0.085309 0.000250
v -0.017177 0.029580 0.019971
v -0.039861 -0.022210 -0.000243
v -0.039861 -0.022701 0.020467
v -0.029999 -0.089749 0.019971
v -0.017177 0.029580 0.000250
v -0.029014 0.011822 0.019971
v -0.025560 -0.069526 0.019971
v -0.038381 -0.014803 0.000250
v -0.029014 0.011822 0.000250
v -0.028522 -0.085309 0.019971
v -0.035422 -0.005924 0.019971
v -0.041341 -0.028612 0.000250
v -0.043312 -0.043403 0.019971
v -0.048247 -0.088265 0.019971
v -0.024083 0.019719 0.019971
v -0.028028 0.013796 0.000250
v -0.026548 -0.075437 0.000250
v -0.026054 -0.069526 0.020467
v -0.026054 -0.069526 -0.000243
v -0.042821 -0.043403 -0.000243
v -0.042821 -0.043403 0.020467
f 23 43 51 
f 5 3 7 
f 3 5 8 
f 4 1 9 
f 5 7 11 
f 10 5 11 
f 9 1 13 
f 10 11 17 
f 12 6 19 
f 4 9 20 
f 11 7 21 
f 5 10 25 
f 14 5 25 
f 10 14 25 
f 3 8 26 
f 20 3 26 
f 8 24 26 
f 24 20 26 
f 1 4 28 
f 17 1 28 
f 10 17 28 
f 24 8 29 
f 3 2 30 
f 2 16 30 
f 16 18 30 
f 13 1 31 
f 1 17 31 
f 7 3 32 
f 9 13 33 
f 19 6 33 
f 13 19 33 
f 6 23 33 
f 4 20 34 
f 20 24 34 
f 24 29 34 
f 17 11 35 
f 11 21 35 
f 31 17 35 
f 21 31 35 
f 13 27 36 
f 14 10 37 
f 15 14 37 
f 10 28 37 
f 12 19 38 
f 22 7 38 
f 19 22 38 
f 7 32 38 
f 32 12 38 
f 7 22 39 
f 22 36 39 
f 36 27 39 
f 15 4 40 
f 29 15 40 
f 4 34 40 
f 34 29 40 
f 19 13 41 
f 22 19 41 
f 13 36 41 
f 36 22 41 
f 6 12 42 
f 23 6 42 
f 18 23 42 
f 12 32 42 
f 18 16 43 
f 23 18 43 
f 2 3 44 
f 16 2 44 
f 9 16 44 
f 3 20 44 
f 20 9 44 
f 27 13 45 
f 21 27 45 
f 13 31 45 
f 31 21 45 
f 21 7 46 
f 27 21 46 
f 7 39 46 
f 39 27 46 
f 14 15 47 
f 29 8 47 
f 15 29 47 
f 4 15 48 
f 28 4 48 
f 15 37 48 
f 37 28 48 
f 8 5 49 
f 5 14 49 
f 47 8 49 
f 14 47 49 
f 3 30 50 
f 30 18 50 
f 32 3 50 
f 18 42 50 
f 42 32 50 
f 16 9 51 
f 9 33 51 
f 33 23 51 
f 43 16 51 
o convex_1
v -0.016683 -0.006905 -0.000243
v 0.000086 0.090250 0.020467
v 0.000086 0.090747 0.019971
v 0.000086 0.017269 -0.000243
v -0.003860 0.090250 -0.000243
v -0.016683 -0.006398 0.020467
v -0.011256 0.070520 0.019971
v 0.000086 0.017766 0.020467
v -0.016683 0.029590 -0.000243
v 0.000086 0.090250 -0.000243
v -0.016683 0.029590 0.020467
v -0.011256 0.070520 0.000250
v -0.004354 0.090250 0.019971
v -0.015694 -0.006398 0.019971
v -0.015694 -0.006398 0.000250
v -0.010764 0.070520 0.020467
v -0.004354 0.090250 0.000250
v 0.000086 0.017269 0.019971
v -0.016683 0.030087 0.019971
v -0.003860 0.090747 0.000250
v -0.010764 0.070520 -0.000243
v -0.016683 0.030087 0.000250
v -0.003860 0.090747 0.019971
v -0.003860 0.090250 0.020467
v 0.000086 0.090747 0.000250
f 61 71 76 
f 54 53 55 
f 55 52 56 
f 55 53 59 
f 53 57 59 
f 56 52 60 
f 52 57 60 
f 54 55 61 
f 55 56 61 
f 57 53 62 
f 60 57 62 
f 63 58 64 
f 57 52 65 
f 59 57 65 
f 52 55 66 
f 65 52 66 
f 55 65 66 
f 62 53 67 
f 58 62 67 
f 64 58 67 
f 63 64 68 
f 55 59 69 
f 65 55 69 
f 59 65 69 
f 62 58 70 
f 60 62 70 
f 58 63 70 
f 61 56 71 
f 56 68 71 
f 68 64 71 
f 56 60 72 
f 60 63 72 
f 68 56 72 
f 63 68 72 
f 63 60 73 
f 60 70 73 
f 70 63 73 
f 53 54 74 
f 54 71 74 
f 71 64 74 
f 67 53 75 
f 64 67 75 
f 53 74 75 
f 74 64 75 
f 54 61 76 
f 71 54 76 
o convex_2
v 0.017841 -0.007891 -0.000243
v 0.002060 0.090245 0.020467
v 0.002060 0.090747 0.019971
v 0.000086 0.017270 -0.000243
v 0.017347 -0.007389 0.020467
v 0.010442 0.071504 0.000250
v 0.000086 0.017763 0.020467
v 0.017841 0.031570 0.020467
v 0.000086 0.090245 -0.000243
v 0.017841 0.031570 -0.000243
v 0.010442 0.071504 0.019971
v 0.000086 0.090245 0.020467
v 0.003046 0.089752 0.000250
v 0.016853 -0.007389 0.019971
v 0.017841 -0.007891 0.019971
v 0.016853 -0.007389 -0.000243
v 0.007484 0.079392 0.019971
v 0.000086 0.017270 0.019971
v 0.017841 0.032062 0.019971
v 0.009949 0.071504 -0.000243
v 0.003046 0.089752 0.019971
v 0.009455 0.074458 0.000250
v 0.009949 0.071504 0.020467
v 0.017841 0.032062 0.000250
v 0.000086 0.090747 0.000250
v 0.002060 0.090747 0.000250
v 0.007484 0.079392 0.000250
v 0.003046 0.089260 -0.000243
f 89 103 104 
f 81 78 83 
f 78 81 84 
f 77 80 85 
f 80 83 85 
f 84 77 86 
f 77 85 86 
f 78 79 88 
f 83 78 88 
f 85 83 88 
f 81 83 90 
f 77 84 91 
f 84 81 91 
f 90 77 91 
f 81 90 91 
f 80 77 92 
f 77 90 92 
f 90 80 92 
f 83 80 94 
f 80 90 94 
f 90 83 94 
f 84 86 95 
f 82 87 95 
f 87 84 95 
f 82 86 96 
f 86 85 96 
f 79 78 97 
f 89 79 97 
f 78 93 97 
f 93 89 97 
f 87 82 98 
f 93 87 98 
f 82 96 98 
f 78 84 99 
f 84 87 99 
f 93 78 99 
f 87 93 99 
f 86 82 100 
f 95 86 100 
f 82 95 100 
f 88 79 101 
f 85 88 101 
f 79 89 102 
f 101 79 102 
f 85 101 102 
f 89 93 103 
f 93 98 103 
f 103 98 104 
f 96 85 104 
f 98 96 104 
f 102 89 104 
f 85 102 104 
o convex_3
v 0.038553 -0.015296 0.020467
v 0.017841 -0.010364 -0.000243
v 0.017841 -0.010364 0.019971
v 0.030172 -0.090747 0.000250
v 0.030172 0.011331 -0.000243
v 0.048418 -0.089262 0.019971
v 0.047921 -0.083336 -0.000243
v 0.030172 -0.090244 0.020467
v 0.017841 0.031061 0.020467
v 0.041019 -0.022204 0.000250
v 0.017841 0.031061 -0.000243
v 0.028200 0.015772 0.019971
v 0.043486 -0.038966 0.019971
v 0.026718 -0.073482 0.019971
v 0.047921 -0.089753 0.000250
v 0.028694 -0.086293 0.000250
v 0.048418 -0.083838 0.000250
v 0.036087 -0.005443 0.019971
v 0.019322 0.030570 0.000250
v 0.030172 -0.090244 -0.000243
v 0.047921 -0.083838 0.020467
v 0.041019 -0.022204 0.019971
v 0.043486 -0.038966 0.000250
v 0.034114 -0.090747 0.019971
v 0.048418 -0.083838 0.019971
v 0.036087 -0.005443 -0.000243
v 0.019322 0.030570 0.019971
v 0.017841 -0.007897 0.020467
v 0.028694 -0.086293 0.019971
v 0.026718 -0.073482 0.000250
v 0.028200 0.015772 0.000250
v 0.030172 0.011331 0.019971
v 0.047921 -0.089753 0.019971
v 0.041019 -0.022695 -0.000243
v 0.028694 0.013797 0.020467
v 0.034114 -0.090747 0.000250
v 0.029678 -0.090244 0.019971
v 0.042007 -0.029591 0.020467
v 0.047921 -0.089262 -0.000243
v 0.048418 -0.089262 0.000250
v 0.047921 -0.089262 0.020467
v 0.039047 -0.015296 0.019971
v 0.030172 -0.090747 0.019971
v 0.018334 0.031564 0.019971
v 0.029678 -0.090244 0.000250
f 141 120 149 
f 106 109 111 
f 106 107 113 
f 112 105 113 
f 109 106 115 
f 106 113 115 
f 107 106 118 
f 109 115 123 
f 106 111 124 
f 120 106 124 
f 105 112 125 
f 117 114 126 
f 114 117 127 
f 121 111 127 
f 117 121 127 
f 110 121 129 
f 121 117 129 
f 125 110 129 
f 111 109 130 
f 109 122 130 
f 116 123 131 
f 113 107 132 
f 112 113 132 
f 107 118 132 
f 118 112 132 
f 112 118 133 
f 118 120 133 
f 118 106 134 
f 106 120 134 
f 120 118 134 
f 116 109 135 
f 109 123 135 
f 123 116 135 
f 109 116 136 
f 122 109 136 
f 119 110 137 
f 128 119 137 
f 127 111 138 
f 114 127 138 
f 111 130 138 
f 130 114 138 
f 113 105 139 
f 105 122 139 
f 131 113 139 
f 116 131 139 
f 136 116 139 
f 122 136 139 
f 108 124 140 
f 128 108 140 
f 119 128 140 
f 112 133 141 
f 133 120 141 
f 105 125 142 
f 126 105 142 
f 117 126 142 
f 129 117 142 
f 125 129 142 
f 111 121 143 
f 124 111 143 
f 140 124 143 
f 119 140 143 
f 110 119 144 
f 121 110 144 
f 143 121 144 
f 119 143 144 
f 125 112 145 
f 110 125 145 
f 112 128 145 
f 137 110 145 
f 128 137 145 
f 122 105 146 
f 105 126 146 
f 126 114 146 
f 114 130 146 
f 130 122 146 
f 108 128 147 
f 128 112 147 
f 141 108 147 
f 112 141 147 
f 115 113 148 
f 123 115 148 
f 113 131 148 
f 131 123 148 
f 124 108 149 
f 120 124 149 
f 108 141 149 
