o convex_0
v -0.019353 -0.087003 0.002995
v -0.016161 -0.045899 0.018559
v -0.016961 -0.045899 0.018559
v -0.019753 -0.045104 0.000999
v -0.009378 -0.086606 0.010577
v -0.024142 -0.067844 0.014566
v -0.013768 -0.045104 0.002596
v -0.026536 -0.045502 0.009382
v -0.016961 -0.087401 0.016161
v -0.012170 -0.045104 0.016562
v -0.014167 -0.084209 0.001799
v -0.024142 -0.065058 0.001799
v -0.010574 -0.085008 0.016562
v -0.024142 -0.078223 0.009777
v -0.022546 -0.045104 0.017760
v -0.011372 -0.045104 0.008583
v -0.020951 -0.068643 0.017760
v -0.024542 -0.045104 0.002196
v -0.010974 -0.088601 0.006587
v -0.017359 -0.090200 0.011771
v -0.026536 -0.060670 0.008184
v -0.009378 -0.086606 0.015364
v -0.026138 -0.057478 0.012570
v -0.021748 -0.085008 0.011374
v -0.012970 -0.073830 0.017758
v -0.024142 -0.076227 0.006189
v -0.016161 -0.045104 0.001001
v -0.022946 -0.056679 0.000999
v -0.010176 -0.081414 0.007785
v -0.013369 -0.045104 0.018157
v -0.012172 -0.086606 0.003794
v -0.020153 -0.084209 0.002196
v -0.015365 -0.089401 0.004193
v -0.010574 -0.089396 0.012570
v -0.019353 -0.085405 0.015364
v -0.024940 -0.046301 0.015364
v -0.011372 -0.045104 0.013368
v -0.023344 -0.059871 0.016960
v -0.025340 -0.070638 0.011374
v -0.016961 -0.084209 0.016960
v -0.025738 -0.053488 0.004592
v -0.022546 -0.082611 0.006587
v -0.020951 -0.061867 0.018158
v -0.009378 -0.082615 0.014167
v -0.017359 -0.085807 0.001799
v -0.017359 -0.059474 0.001001
v -0.012170 -0.045104 0.005788
v -0.016961 -0.090200 0.006189
v -0.019753 -0.088200 0.008982
v -0.022147 -0.079022 0.002596
v -0.010176 -0.080214 0.016562
v -0.022946 -0.080218 0.012172
v -0.025738 -0.045104 0.013767
v -0.018555 -0.066259 0.018157
v -0.024142 -0.045903 0.001398
v -0.025738 -0.066259 0.006587
v -0.021748 -0.073830 0.016163
v -0.012570 -0.088597 0.014965
v -0.024940 -0.060670 0.002596
v -0.011772 -0.089798 0.008184
v -0.018953 -0.088195 0.013767
v -0.014965 -0.045104 0.001400
v -0.026536 -0.059072 0.010974
v -0.013768 -0.065058 0.018157
f 54 25 64 
f 7 4 10 
f 10 4 15 
f 7 10 16 
f 15 4 18 
f 4 7 27 
f 16 5 29 
f 5 19 29 
f 3 2 30 
f 15 3 30 
f 10 15 30 
f 11 7 31 
f 7 29 31 
f 29 19 31 
f 12 28 32 
f 11 31 33 
f 31 19 33 
f 19 5 34 
f 5 22 34 
f 16 10 37 
f 10 22 37 
f 23 6 38 
f 15 36 38 
f 36 23 38 
f 6 23 39 
f 9 13 40 
f 13 25 40 
f 17 35 40 
f 35 9 40 
f 8 18 41 
f 21 8 41 
f 24 14 42 
f 14 26 42 
f 32 1 42 
f 3 15 43 
f 38 17 43 
f 15 38 43 
f 5 16 44 
f 22 5 44 
f 16 37 44 
f 37 22 44 
f 1 32 45 
f 32 28 45 
f 33 1 45 
f 11 33 45 
f 4 27 46 
f 27 11 46 
f 28 4 46 
f 11 45 46 
f 45 28 46 
f 7 16 47 
f 29 7 47 
f 16 29 47 
f 1 33 48 
f 24 42 49 
f 42 1 49 
f 1 48 49 
f 48 20 49 
f 26 12 50 
f 12 32 50 
f 42 26 50 
f 32 42 50 
f 13 22 51 
f 22 10 51 
f 25 13 51 
f 10 30 51 
f 14 24 52 
f 24 35 52 
f 39 14 52 
f 6 39 52 
f 18 8 53 
f 15 18 53 
f 36 15 53 
f 23 36 53 
f 2 3 54 
f 40 25 54 
f 17 40 54 
f 3 43 54 
f 43 17 54 
f 18 4 55 
f 28 12 55 
f 4 28 55 
f 12 26 56 
f 26 14 56 
f 14 39 56 
f 39 21 56 
f 35 17 57 
f 38 6 57 
f 17 38 57 
f 6 52 57 
f 52 35 57 
f 13 9 58 
f 9 20 58 
f 22 13 58 
f 20 34 58 
f 34 22 58 
f 41 18 59 
f 21 41 59 
f 18 55 59 
f 55 12 59 
f 12 56 59 
f 56 21 59 
f 33 19 60 
f 19 34 60 
f 34 20 60 
f 20 48 60 
f 48 33 60 
f 20 9 61 
f 9 35 61 
f 35 24 61 
f 49 20 61 
f 24 49 61 
f 7 11 62 
f 27 7 62 
f 11 27 62 
f 8 21 63 
f 21 39 63 
f 39 23 63 
f 53 8 63 
f 23 53 63 
f 30 2 64 
f 25 51 64 
f 51 30 64 
f 2 54 64 
o convex_1
v -0.010976 -0.008781 0.017758
v -0.026138 -0.045100 0.007385
v -0.025740 -0.045100 0.005790
v -0.012172 -0.045100 0.016562
v -0.003392 0.003193 0.003794
v -0.018156 0.003193 0.008583
v -0.016160 -0.045100 0.001000
v -0.022946 -0.041502 0.017359
v -0.003392 0.003193 0.015364
v -0.016957 -0.008781 0.002198
v -0.015761 0.003193 0.015364
v -0.011374 -0.045100 0.008184
v -0.024940 -0.031126 0.011771
v -0.023345 -0.035915 0.001799
v -0.013368 -0.045100 0.018157
v -0.014168 0.003193 0.003396
v -0.003392 -0.001600 0.010974
v -0.020152 -0.031126 0.018157
v -0.020152 -0.009982 0.014566
v -0.025740 -0.045100 0.013767
v -0.013769 -0.045100 0.002596
v -0.010176 -0.013574 0.001799
v -0.022146 -0.045100 0.001000
v -0.004588 0.003193 0.016562
v -0.024142 -0.030729 0.006189
v -0.018156 0.001193 0.006587
v -0.011374 -0.045100 0.013368
v -0.021348 -0.045100 0.018157
v -0.018555 -0.015569 0.017359
v -0.018555 0.001590 0.012172
v -0.010574 -0.020755 0.018157
v -0.006186 0.003193 0.002995
v -0.011773 0.003193 0.016562
v -0.018555 -0.032322 0.001000
v -0.024142 -0.036317 0.015364
v -0.016559 -0.032327 0.018559
v -0.002991 0.002791 0.004991
v -0.021747 -0.027137 0.001799
v -0.012172 -0.044698 0.005391
v -0.008578 -0.015966 0.002198
v -0.017358 -0.015167 0.017758
v -0.026138 -0.039110 0.009779
v -0.005787 -0.005992 0.016960
v -0.019753 -0.003997 0.008982
v -0.024541 -0.043100 0.002198
v -0.024940 -0.038709 0.004193
v -0.021348 -0.027935 0.001400
v -0.013769 -0.011981 0.001799
v -0.010976 -0.043894 0.010575
v -0.014963 -0.031523 0.001000
v -0.022545 -0.027534 0.002995
v -0.024940 -0.031126 0.009779
v -0.003392 -0.001600 0.008982
v -0.025740 -0.038709 0.012969
v -0.003392 0.001590 0.014566
v -0.020551 -0.025539 0.017359
v -0.018555 -0.007987 0.003794
v -0.016559 -0.040306 0.018559
v -0.003392 0.001590 0.004193
v -0.011374 0.002791 0.002995
v -0.012571 -0.044301 0.017758
v -0.014963 -0.017961 0.018157
v -0.014963 -0.045100 0.001400
v -0.014168 0.003193 0.016161
f 105 97 128 
f 66 67 68 
f 68 67 71 
f 69 70 73 
f 73 70 75 
f 68 71 76 
f 66 68 79 
f 70 69 80 
f 66 79 84 
f 76 71 85 
f 71 67 87 
f 73 75 88 
f 70 80 90 
f 68 76 91 
f 82 72 92 
f 84 79 92 
f 72 84 92 
f 75 83 93 
f 75 70 94 
f 83 75 94 
f 77 83 94 
f 88 65 95 
f 80 69 96 
f 65 88 97 
f 88 75 97 
f 71 87 98 
f 84 72 99 
f 82 92 100 
f 69 73 101 
f 76 85 103 
f 69 85 104 
f 96 69 104 
f 86 96 104 
f 93 82 105 
f 65 97 105 
f 66 84 106 
f 73 88 107 
f 95 79 107 
f 88 95 107 
f 90 89 108 
f 70 90 108 
f 94 70 108 
f 77 94 108 
f 87 67 109 
f 78 87 109 
f 67 66 110 
f 66 106 110 
f 109 67 110 
f 78 109 110 
f 87 78 111 
f 98 87 111 
f 78 102 111 
f 102 74 111 
f 96 86 112 
f 111 74 112 
f 98 111 112 
f 91 76 113 
f 81 91 113 
f 71 98 114 
f 104 71 114 
f 86 104 114 
f 112 86 114 
f 98 112 114 
f 89 90 115 
f 102 78 115 
f 90 102 115 
f 110 89 115 
f 78 110 115 
f 106 77 116 
f 108 89 116 
f 77 108 116 
f 89 110 116 
f 110 106 116 
f 76 101 117 
f 101 81 117 
f 113 76 117 
f 81 113 117 
f 83 77 118 
f 99 83 118 
f 84 99 118 
f 106 84 118 
f 77 106 118 
f 73 68 119 
f 68 91 119 
f 91 81 119 
f 101 73 119 
f 81 101 119 
f 72 82 120 
f 82 93 120 
f 93 83 120 
f 83 99 120 
f 99 72 120 
f 80 74 121 
f 90 80 121 
f 102 90 121 
f 74 102 121 
f 92 79 122 
f 79 95 122 
f 100 92 122 
f 95 100 122 
f 85 69 123 
f 69 101 123 
f 101 76 123 
f 103 85 123 
f 76 103 123 
f 74 80 124 
f 80 96 124 
f 112 74 124 
f 96 112 124 
f 68 73 125 
f 79 68 125 
f 73 107 125 
f 107 79 125 
f 95 65 126 
f 82 100 126 
f 100 95 126 
f 105 82 126 
f 65 105 126 
f 85 71 127 
f 104 85 127 
f 71 104 127 
f 75 93 128 
f 97 75 128 
f 93 105 128 
o convex_2
v -0.025339 0.015964 0.009382
v -0.001796 0.023548 0.010974
v -0.001796 0.023548 0.008183
v -0.002593 0.003193 0.008183
v -0.007382 0.009979 0.018957
v -0.014167 0.021153 -0.000200
v -0.017356 0.003193 0.006587
v -0.020149 0.020750 0.017760
v -0.015761 0.003193 0.015366
v -0.002593 0.010380 0.000999
v -0.001397 0.021153 0.017358
v -0.020149 0.013966 0.000999
v 0.000601 0.021551 0.005390
v -0.003792 0.003193 0.016162
v -0.023344 0.020352 0.005388
v -0.014167 0.003193 0.003394
v -0.013367 0.023548 0.014567
v -0.006184 0.022747 0.000601
v -0.020548 0.014765 0.018159
v -0.008979 0.022350 0.019357
v 0.000601 0.014765 0.009778
v -0.012968 0.023548 0.004590
v -0.003393 0.003193 0.003794
v -0.002992 0.011179 0.018957
v -0.014167 0.011976 0.000201
v -0.024938 0.016363 0.013367
v -0.018153 0.003193 0.011773
v -0.022942 0.015163 0.002595
v -0.018153 0.013966 0.018957
v -0.024141 0.020352 0.010576
v 0.000601 0.021551 0.012969
v -0.019352 0.020750 0.000999
v -0.002593 0.014365 0.000601
v -0.011775 0.003193 0.016562
v -0.002992 0.023548 0.014964
v -0.015363 0.021551 0.019357
v -0.023742 0.015163 0.015366
v -0.000996 0.020352 0.002197
v -0.004190 0.010380 0.000601
v -0.024938 0.015964 0.006187
v -0.002194 0.009979 0.001399
v -0.009378 0.020352 -0.000200
v -0.002593 0.009979 0.018159
v -0.002593 0.023548 0.004592
v -0.008979 0.013568 0.019357
v -0.002992 0.003193 0.013767
v -0.023344 0.019555 0.015366
v -0.018153 0.013966 0.000201
v -0.006983 0.023147 0.018557
v -0.006585 0.021153 0.019357
v -0.018153 0.003193 0.008581
v -0.024141 0.019156 0.004990
v 0.000601 0.018758 0.012969
v -0.003792 0.003193 0.003394
v 0.000601 0.018355 0.005788
v -0.002992 0.003193 0.004592
v -0.001796 0.018758 0.018159
v -0.025339 0.017957 0.010974
v -0.013367 0.022350 0.019357
v -0.004988 0.003193 0.016562
v -0.012968 0.021950 0.000201
v -0.020949 0.016761 0.000999
v -0.001397 0.015163 0.001399
v -0.022145 0.020750 0.014966
f 158 175 192 
f 135 132 137 
f 131 130 141 
f 137 132 142 
f 132 135 144 
f 130 131 145 
f 145 131 150 
f 132 144 151 
f 135 137 155 
f 154 129 155 
f 144 135 156 
f 140 144 156 
f 147 137 157 
f 150 143 158 
f 145 150 158 
f 141 130 159 
f 149 141 159 
f 143 150 160 
f 137 142 162 
f 133 157 162 
f 157 137 162 
f 130 145 163 
f 159 130 163 
f 139 159 163 
f 136 147 164 
f 147 157 164 
f 137 147 165 
f 155 137 165 
f 154 155 165 
f 161 146 166 
f 144 153 167 
f 161 138 167 
f 156 135 168 
f 134 146 170 
f 153 134 170 
f 146 161 170 
f 167 153 170 
f 161 167 170 
f 152 142 171 
f 131 141 172 
f 150 131 172 
f 146 150 172 
f 141 166 172 
f 166 146 172 
f 133 152 173 
f 157 133 173 
f 148 164 173 
f 164 157 173 
f 142 132 174 
f 132 149 174 
f 171 142 174 
f 149 171 174 
f 147 136 175 
f 165 147 175 
f 154 165 175 
f 144 140 176 
f 134 153 176 
f 153 144 176 
f 163 145 177 
f 139 163 177 
f 173 152 178 
f 148 173 178 
f 139 177 178 
f 177 148 178 
f 155 129 179 
f 135 155 179 
f 129 168 179 
f 168 135 179 
f 158 143 180 
f 143 160 180 
f 156 168 180 
f 159 139 181 
f 149 159 181 
f 171 149 181 
f 151 144 182 
f 144 167 182 
f 167 138 182 
f 138 169 182 
f 169 151 182 
f 141 149 183 
f 169 183 184 
f 149 132 184 
f 132 151 184 
f 151 169 184 
f 183 149 184 
f 152 171 185 
f 139 178 185 
f 178 152 185 
f 181 139 185 
f 171 181 185 
f 129 154 186 
f 168 129 186 
f 175 158 186 
f 154 175 186 
f 158 180 186 
f 180 168 186 
f 145 136 187 
f 136 164 187 
f 164 148 187 
f 148 177 187 
f 177 145 187 
f 152 133 188 
f 142 152 188 
f 162 142 188 
f 133 162 188 
f 146 134 189 
f 150 146 189 
f 134 160 189 
f 160 150 189 
f 140 156 190 
f 160 134 190 
f 176 140 190 
f 134 176 190 
f 180 160 190 
f 156 180 190 
f 138 161 191 
f 166 141 191 
f 161 166 191 
f 169 138 191 
f 141 183 191 
f 183 169 191 
f 136 145 192 
f 145 158 192 
f 175 136 192 
o convex_3
v -0.001395 0.089795 0.014967
v -0.013368 0.023554 0.006587
v -0.012967 0.023554 0.004591
v 0.000601 0.025949 0.014567
v 0.000601 0.089795 0.004591
v -0.013368 0.060260 0.014567
v 0.000601 0.025949 0.004591
v -0.012170 0.064651 0.004591
v -0.012967 0.023554 0.014967
v -0.003789 0.089789 0.005389
v 0.000601 0.089795 0.014567
v -0.004588 0.087799 0.014967
v -0.002992 0.023554 0.014967
v -0.013368 0.059457 0.005389
v -0.002194 0.023554 0.004990
v -0.011771 0.067045 0.013369
v 0.000601 0.031142 0.014967
v -0.013368 0.023554 0.014567
v -0.012170 0.061460 0.014967
v -0.004588 0.087799 0.004990
v -0.012967 0.063052 0.009779
v -0.013368 0.047100 0.004591
v -0.003789 0.089789 0.014567
v 0.000202 0.089397 0.014967
v -0.002593 0.090193 0.004990
v -0.001794 0.023554 0.010974
v -0.004987 0.086996 0.012172
v -0.005786 0.082207 0.004591
v 0.000601 0.090193 0.010575
v -0.012967 0.062654 0.014567
v 0.000601 0.025551 0.004990
v -0.012170 0.065049 0.005389
f 206 213 224 
f 197 196 199 
f 195 197 199 
f 197 195 200 
f 194 195 201 
f 196 197 203 
f 201 193 204 
f 201 195 205 
f 193 201 205 
f 194 198 206 
f 195 199 207 
f 205 195 207 
f 196 203 209 
f 193 205 209 
f 205 196 209 
f 198 194 210 
f 194 201 210 
f 201 198 210 
f 198 201 211 
f 201 204 211 
f 206 198 213 
f 195 194 214 
f 200 195 214 
f 194 206 214 
f 206 200 214 
f 204 193 215 
f 203 193 216 
f 193 209 216 
f 209 203 216 
f 212 202 217 
f 202 215 217 
f 196 205 218 
f 205 207 218 
f 208 204 219 
f 202 212 219 
f 212 208 219 
f 215 202 219 
f 204 215 219 
f 197 200 220 
f 200 212 220 
f 217 197 220 
f 212 217 220 
f 193 203 221 
f 203 197 221 
f 215 193 221 
f 197 217 221 
f 217 215 221 
f 204 208 222 
f 198 211 222 
f 211 204 222 
f 208 213 222 
f 213 198 222 
f 199 196 223 
f 207 199 223 
f 196 218 223 
f 218 207 223 
f 200 206 224 
f 212 200 224 
f 208 212 224 
f 213 208 224 
o convex_4
v 0.026544 -0.058273 0.010974
v 0.007386 -0.087402 0.006588
v 0.007788 -0.087805 0.006188
v 0.012176 -0.048692 0.001797
v 0.014970 -0.048692 0.017760
v 0.017362 -0.086601 0.016960
v 0.016965 -0.085004 0.002995
v 0.022152 -0.048692 0.001399
v 0.024147 -0.048692 0.017758
v 0.023748 -0.077825 0.007784
v 0.012575 -0.087004 0.016562
v 0.011379 -0.048692 0.011772
v 0.020955 -0.085809 0.014965
v 0.016965 -0.089800 0.008184
v 0.012575 -0.083414 0.002595
v 0.025745 -0.048692 0.005788
v 0.020157 -0.064663 0.001001
v 0.024547 -0.069842 0.015763
v 0.007386 -0.083008 0.004592
v 0.009383 -0.083414 0.012171
v 0.023748 -0.065456 0.004193
v 0.016965 -0.061866 0.018158
v 0.014970 -0.089800 0.014167
v 0.011379 -0.048692 0.003393
v 0.020955 -0.085406 0.007784
v 0.025745 -0.048692 0.014965
v 0.025745 -0.066651 0.008582
v 0.007788 -0.088199 0.008982
v 0.013374 -0.089394 0.005389
v 0.016168 -0.049891 0.001001
v 0.024547 -0.075427 0.011374
v 0.017362 -0.084606 0.017358
v 0.024946 -0.058671 0.016962
v 0.013771 -0.086207 0.017358
v 0.008185 -0.083809 0.003795
v 0.012974 -0.066659 0.001797
v 0.007386 -0.084606 0.007784
v 0.012575 -0.048692 0.014565
v 0.021353 -0.076228 0.004193
v 0.018561 -0.089000 0.014167
v 0.009383 -0.089394 0.010176
v 0.024147 -0.056679 0.003395
v 0.021353 -0.082211 0.016162
v 0.026544 -0.048692 0.008582
v 0.022152 -0.049493 0.018158
v 0.012575 -0.087805 0.003795
v 0.018561 -0.066659 0.001001
v 0.016567 -0.088601 0.004991
v 0.026144 -0.058273 0.007384
v 0.022951 -0.081419 0.012569
v 0.015769 -0.048692 0.018158
v 0.025745 -0.063460 0.014167
v 0.010979 -0.083809 0.014565
v 0.010182 -0.088601 0.013369
v 0.015769 -0.085004 0.002595
v 0.008185 -0.083008 0.009776
v 0.022951 -0.063866 0.017358
v 0.020556 -0.084211 0.006188
v 0.021353 -0.048692 0.001001
v 0.020556 -0.071037 0.002197
v 0.022951 -0.057874 0.002197
v 0.014173 -0.048692 0.016960
v 0.023748 -0.070642 0.016561
v 0.011778 -0.089800 0.007784
f 265 227 288 
f 228 229 232 
f 232 229 233 
f 229 228 236 
f 232 233 240 
f 236 228 248 
f 243 236 248 
f 228 243 248 
f 240 233 250 
f 234 245 251 
f 226 227 252 
f 234 251 255 
f 250 233 257 
f 229 235 258 
f 235 247 258 
f 247 230 258 
f 230 256 258 
f 256 246 258 
f 227 226 259 
f 226 243 259 
f 243 228 259 
f 228 254 260 
f 259 228 260 
f 239 259 260 
f 243 226 261 
f 236 243 261 
f 226 252 261 
f 229 236 262 
f 245 234 263 
f 237 230 264 
f 230 247 264 
f 247 238 264 
f 249 237 264 
f 238 249 264 
f 252 227 265 
f 232 240 266 
f 230 237 267 
f 237 242 267 
f 256 230 267 
f 250 225 268 
f 240 250 268 
f 246 256 269 
f 253 227 270 
f 227 259 270 
f 259 239 270 
f 254 241 271 
f 239 260 271 
f 260 254 271 
f 249 238 272 
f 238 253 272 
f 253 270 272 
f 225 251 273 
f 251 245 273 
f 266 240 273 
f 245 266 273 
f 268 225 273 
f 240 268 273 
f 242 237 274 
f 249 234 274 
f 237 249 274 
f 234 255 274 
f 255 242 274 
f 233 229 275 
f 229 258 275 
f 258 246 275 
f 269 233 275 
f 246 269 275 
f 225 250 276 
f 251 225 276 
f 242 255 276 
f 255 251 276 
f 257 242 276 
f 250 257 276 
f 247 235 278 
f 244 252 278 
f 265 247 278 
f 252 265 278 
f 235 277 278 
f 277 244 278 
f 241 231 279 
f 270 239 279 
f 239 271 279 
f 271 241 279 
f 231 272 279 
f 272 270 279 
f 252 244 280 
f 236 261 280 
f 261 252 280 
f 262 236 280 
f 244 262 280 
f 257 233 281 
f 233 269 281 
f 269 256 281 
f 234 249 282 
f 231 263 282 
f 263 234 282 
f 272 231 282 
f 249 272 282 
f 228 232 283 
f 232 241 283 
f 254 228 283 
f 241 254 283 
f 231 241 284 
f 263 231 284 
f 245 263 284 
f 241 232 285 
f 232 266 285 
f 266 245 285 
f 284 241 285 
f 245 284 285 
f 235 229 286 
f 229 262 286 
f 262 244 286 
f 277 235 286 
f 244 277 286 
f 242 257 287 
f 267 242 287 
f 256 267 287 
f 257 281 287 
f 281 256 287 
f 238 247 288 
f 253 238 288 
f 227 253 288 
f 247 265 288 
o convex_5
v 0.024946 -0.033118 0.012171
v 0.002996 0.001995 0.006188
v 0.003397 -0.000805 0.009381
v 0.011778 -0.048692 0.002197
v 0.015366 -0.048692 0.018158
v 0.018160 0.003991 0.007784
v 0.011778 0.003991 0.016561
v 0.022152 -0.048692 0.001399
v 0.024148 -0.048692 0.017758
v 0.010980 0.002392 0.002995
v 0.003397 0.003991 0.015763
v 0.011379 -0.048692 0.011772
v 0.016964 0.003991 0.014167
v 0.026144 -0.042699 0.006986
v 0.004195 0.003991 0.003393
v 0.018960 -0.024743 0.001399
v 0.021355 -0.026734 0.017758
v 0.009782 -0.012774 0.017758
v 0.011778 -0.027136 0.001399
v 0.018561 -0.007586 0.003795
v 0.026543 -0.048692 0.010176
v 0.023749 -0.035516 0.003795
v 0.022950 -0.026337 0.016162
v 0.014970 0.003991 0.003795
v 0.024148 -0.026337 0.007784
v 0.018561 0.002790 0.011374
v 0.010980 -0.048290 0.007786
v 0.016166 -0.048692 0.001001
v 0.012976 -0.048692 0.015363
v 0.017362 -0.024743 0.018158
v 0.004195 0.001995 0.016561
v 0.025344 -0.046691 0.016162
v 0.018160 -0.009979 0.016960
v 0.002996 0.003589 0.004193
v 0.002996 0.003192 0.013369
v 0.025344 -0.048284 0.004991
v 0.009383 -0.023547 0.001799
v 0.022950 -0.042297 0.018158
v 0.021355 -0.014775 0.005788
v 0.011379 -0.048692 0.003393
v 0.022152 -0.037512 0.001799
v 0.012176 -0.027136 0.018158
v 0.004195 -0.000408 0.016162
v 0.026144 -0.039507 0.008982
v 0.018160 -0.036310 0.001001
v 0.010980 -0.017168 0.001799
v 0.017761 -0.016765 0.017758
v 0.024148 -0.037512 0.016960
v 0.015366 0.003589 0.015763
v 0.017362 0.003991 0.005788
v 0.012976 -0.046294 0.001399
v 0.021355 -0.048284 0.001001
v 0.024547 -0.029529 0.011374
v 0.007387 0.001196 0.016960
v 0.017761 -0.017168 0.001799
v 0.025344 -0.039507 0.014167
v 0.005393 -0.006787 0.002995
v 0.024547 -0.043494 0.003795
v 0.018960 0.001593 0.008982
v 0.024946 -0.037109 0.005390
v 0.018160 0.002790 0.012969
v 0.013774 -0.048692 0.016561
v 0.020158 -0.015569 0.016561
v 0.018561 0.002392 0.007386
f 347 313 352 
f 293 292 296 
f 293 296 297 
f 295 294 299 
f 292 293 300 
f 294 295 301 
f 299 294 303 
f 297 296 309 
f 303 294 312 
f 298 303 312 
f 294 301 314 
f 291 290 315 
f 296 292 316 
f 300 293 317 
f 295 299 319 
f 297 309 320 
f 299 303 322 
f 290 291 323 
f 291 315 323 
f 315 300 323 
f 322 290 323 
f 299 322 323 
f 309 296 324 
f 302 309 324 
f 293 297 326 
f 318 293 326 
f 305 318 326 
f 310 308 327 
f 292 300 328 
f 315 290 328 
f 300 315 328 
f 290 322 328 
f 322 292 328 
f 304 308 329 
f 308 310 329 
f 293 318 330 
f 318 306 330 
f 319 293 330 
f 306 319 330 
f 300 317 331 
f 319 299 331 
f 293 319 331 
f 299 323 331 
f 323 300 331 
f 309 302 332 
f 302 313 332 
f 307 304 333 
f 316 307 333 
f 303 298 334 
f 304 307 334 
f 325 303 334 
f 307 325 334 
f 318 305 335 
f 306 318 335 
f 321 295 335 
f 305 321 335 
f 311 305 336 
f 297 320 336 
f 326 297 336 
f 305 326 336 
f 301 295 337 
f 295 321 337 
f 321 301 337 
f 312 294 338 
f 308 312 338 
f 327 308 338 
f 316 292 339 
f 307 316 339 
f 325 307 339 
f 292 325 339 
f 296 316 340 
f 329 296 340 
f 304 329 340 
f 333 304 340 
f 316 333 340 
f 311 289 341 
f 314 311 341 
f 289 332 341 
f 332 313 341 
f 295 319 342 
f 319 306 342 
f 335 295 342 
f 306 335 342 
f 308 304 343 
f 298 312 343 
f 312 308 343 
f 334 298 343 
f 304 334 343 
f 289 311 344 
f 320 309 344 
f 309 332 344 
f 332 289 344 
f 311 336 344 
f 336 320 344 
f 292 322 345 
f 322 303 345 
f 303 325 345 
f 325 292 345 
f 324 296 346 
f 302 324 346 
f 296 329 346 
f 329 310 346 
f 294 314 347 
f 314 341 347 
f 341 313 347 
f 313 302 348 
f 310 327 348 
f 327 313 348 
f 302 346 348 
f 346 310 348 
f 314 301 349 
f 311 314 349 
f 317 293 350 
f 293 331 350 
f 331 317 350 
f 305 311 351 
f 301 321 351 
f 321 305 351 
f 349 301 351 
f 311 349 351 
f 313 327 352 
f 338 294 352 
f 327 338 352 
f 294 347 352 
o convex_6
v 0.002600 0.003991 0.010576
v 0.013371 0.023548 0.014167
v 0.013371 0.023548 0.004990
v 0.025346 0.016361 0.008983
v 0.002600 0.013174 0.000599
v 0.001800 0.020753 0.017760
v 0.015767 0.003991 0.015364
v 0.014967 0.003991 0.003794
v 0.020555 0.020353 0.017759
v 0.019359 0.020353 0.000601
v 0.001401 0.021951 0.002195
v 0.003397 0.010779 0.018957
v 0.006989 0.023146 0.018957
v 0.019359 0.014765 0.018557
v 0.003796 0.003991 0.003394
v 0.019758 0.014367 0.000601
v 0.024547 0.020353 0.006589
v 0.008585 0.022349 -0.000200
v 0.018162 0.003991 0.007785
v 0.000601 0.014765 0.011374
v 0.024547 0.015961 0.014165
v 0.003397 0.003991 0.015762
v 0.002200 0.023548 0.006587
v 0.011378 0.011576 0.000201
v 0.023348 0.015563 0.002995
v 0.000601 0.022349 0.013367
v 0.022151 0.021151 0.015764
v 0.011378 0.003991 0.016562
v 0.002200 0.010379 0.001397
v 0.012177 0.021551 0.019357
v 0.018162 0.003991 0.011374
v 0.002200 0.013572 0.018559
v 0.000601 0.019955 0.004990
v 0.010181 0.011176 0.018957
v 0.014967 0.021549 -0.000200
v 0.002600 0.023548 0.014567
v 0.025346 0.018756 0.011771
v 0.016563 0.021949 0.018557
v 0.023348 0.015961 0.016162
v 0.001003 0.011176 0.008983
v 0.006591 0.023146 0.000999
v 0.022551 0.020353 0.002995
v 0.002600 0.004789 0.004990
v 0.025346 0.016761 0.006589
v 0.016563 0.012772 0.000201
v 0.004196 0.010779 0.000599
v 0.002600 0.016361 0.018957
v 0.017363 0.003991 0.005788
v 0.013771 0.003991 0.003394
v 0.000601 0.020355 0.014966
v 0.004196 0.003991 0.016562
v 0.016966 0.003991 0.014165
v 0.001800 0.016361 0.000999
v 0.021355 0.015165 0.017759
v 0.015767 0.017160 -0.000200
v 0.001401 0.021951 0.016960
v 0.014967 0.021949 0.000201
v 0.023748 0.020753 0.012969
v 0.025346 0.016361 0.011771
v 0.006192 0.022349 0.000201
v 0.024147 0.018358 0.014964
v 0.007785 0.019156 0.019357
v 0.016563 0.021549 0.018957
v 0.000601 0.021951 0.004990
f 385 378 416 
f 359 353 360 
f 360 353 367 
f 359 360 371 
f 353 359 374 
f 372 353 374 
f 354 355 375 
f 368 362 377 
f 359 366 380 
f 374 359 380 
f 371 356 383 
f 359 371 383 
f 374 364 384 
f 372 374 384 
f 372 378 385 
f 380 366 386 
f 364 380 386 
f 366 382 386 
f 365 354 388 
f 354 375 388 
f 375 378 388 
f 354 365 390 
f 379 354 390 
f 361 379 390 
f 353 372 392 
f 372 385 392 
f 385 381 392 
f 375 355 393 
f 363 375 393 
f 355 369 394 
f 377 362 394 
f 367 353 395 
f 381 367 395 
f 353 392 395 
f 392 381 395 
f 356 371 396 
f 371 377 396 
f 389 356 396 
f 369 389 396 
f 394 369 396 
f 377 394 396 
f 368 360 397 
f 357 370 398 
f 376 367 398 
f 370 376 398 
f 381 357 398 
f 367 381 398 
f 365 358 399 
f 384 364 399 
f 358 384 399 
f 360 368 400 
f 371 360 400 
f 368 377 400 
f 377 371 400 
f 360 367 401 
f 367 376 401 
f 397 360 401 
f 376 397 401 
f 378 372 402 
f 372 384 402 
f 364 374 403 
f 380 364 403 
f 374 380 403 
f 359 383 404 
f 383 373 404 
f 373 391 404 
f 357 381 405 
f 385 363 405 
f 381 385 405 
f 366 359 406 
f 361 366 406 
f 391 361 406 
f 359 404 406 
f 404 391 406 
f 362 368 407 
f 376 370 407 
f 387 362 407 
f 370 387 407 
f 368 397 407 
f 397 376 407 
f 358 365 408 
f 384 358 408 
f 365 388 408 
f 388 378 408 
f 378 402 408 
f 402 384 408 
f 362 387 409 
f 387 370 409 
f 370 393 409 
f 393 355 409 
f 355 394 409 
f 394 362 409 
f 355 354 410 
f 369 355 410 
f 354 379 410 
f 389 369 410 
f 383 356 411 
f 373 383 411 
f 356 389 411 
f 389 373 411 
f 370 357 412 
f 363 393 412 
f 393 370 412 
f 405 363 412 
f 357 405 412 
f 379 361 413 
f 373 389 413 
f 361 391 413 
f 391 373 413 
f 410 379 413 
f 389 410 413 
f 382 365 414 
f 364 386 414 
f 386 382 414 
f 365 399 414 
f 399 364 414 
f 366 361 415 
f 365 382 415 
f 382 366 415 
f 390 365 415 
f 361 390 415 
f 375 363 416 
f 378 375 416 
f 363 385 416 
o convex_7
v 0.005392 0.086201 0.007385
v 0.000602 0.025550 0.004990
v 0.000602 0.025550 0.013369
v 0.013373 0.023548 0.014167
v 0.000602 0.089789 0.014567
v 0.013373 0.025948 0.004591
v 0.012973 0.061059 0.014567
v 0.000602 0.089789 0.004591
v 0.012973 0.061456 0.004990
v 0.002597 0.023561 0.014967
v 0.002997 0.023561 0.004591
v 0.003396 0.089789 0.014567
v 0.012973 0.058266 0.014967
v 0.003795 0.089391 0.004591
v 0.000602 0.053889 0.014967
v 0.012973 0.023952 0.014967
v 0.013373 0.058266 0.012571
v 0.012973 0.023548 0.004591
v 0.011777 0.065847 0.013369
v 0.012175 0.063055 0.004591
v 0.013373 0.055076 0.004990
v 0.012175 0.065051 0.005788
v 0.004992 0.086201 0.014567
v 0.001002 0.067041 0.014967
v 0.000602 0.031539 0.014967
v 0.000602 0.025955 0.004591
v 0.003396 0.090193 0.004990
v 0.007386 0.079814 0.004990
v 0.004593 0.088203 0.010974
v 0.013373 0.048292 0.014567
v 0.011775 0.063453 0.014967
v 0.012973 0.062259 0.011773
v 0.002198 0.023561 0.004990
v 0.000602 0.090193 0.010974
v 0.000602 0.025955 0.014567
v 0.004992 0.087394 0.005788
f 443 445 452 
f 418 419 421 
f 418 421 424 
f 424 422 427 
f 422 424 430 
f 421 419 431 
f 426 429 431 
f 426 420 432 
f 429 426 432 
f 420 422 433 
f 422 420 434 
f 420 426 434 
f 427 422 434 
f 422 430 436 
f 433 422 437 
f 425 433 437 
f 422 436 437 
f 436 425 437 
f 423 435 439 
f 428 421 440 
f 421 431 440 
f 431 429 440 
f 431 419 441 
f 426 431 441 
f 418 424 442 
f 424 427 442 
f 430 424 443 
f 425 436 444 
f 436 430 444 
f 438 425 444 
f 435 417 445 
f 428 439 445 
f 439 435 445 
f 443 428 445 
f 423 429 446 
f 432 420 446 
f 429 432 446 
f 420 433 446 
f 433 423 446 
f 429 423 447 
f 439 428 447 
f 423 439 447 
f 428 440 447 
f 440 429 447 
f 433 425 448 
f 423 433 448 
f 435 423 448 
f 417 435 448 
f 425 438 448 
f 438 417 448 
f 419 418 449 
f 426 419 449 
f 434 426 449 
f 427 434 449 
f 418 442 449 
f 442 427 449 
f 424 421 450 
f 421 428 450 
f 443 424 450 
f 428 443 450 
f 419 426 451 
f 441 419 451 
f 426 441 451 
f 417 438 452 
f 430 443 452 
f 444 430 452 
f 438 444 452 
f 445 417 452 
