o convex_0
v -0.017009 -0.060710 0.007690
v -0.031735 -0.061366 0.005728
v -0.031406 -0.062346 0.006055
v -0.013737 -0.088194 0.001147
v -0.016355 -0.083285 0.012926
v -0.023879 -0.057764 -0.000162
v -0.025515 -0.057764 0.012926
v -0.020281 -0.086231 0.001802
v -0.010136 -0.081651 0.005728
v -0.020281 -0.085904 0.011289
v -0.011445 -0.083288 0.011290
v -0.019625 -0.058093 0.001147
v -0.029770 -0.057764 0.001147
v -0.029770 -0.061040 0.011617
v -0.019625 -0.058093 0.011617
v -0.013081 -0.090164 0.007035
v -0.012099 -0.080998 0.001147
v -0.017336 -0.082958 -0.000162
v -0.022899 -0.084594 0.006709
v -0.018318 -0.090164 0.005728
v -0.009480 -0.086234 0.006055
v -0.013408 -0.088524 0.011290
v -0.017662 -0.057767 0.006055
v -0.029443 -0.062020 0.001147
v -0.031735 -0.057764 0.007035
v -0.011445 -0.081978 0.011290
v -0.021590 -0.083288 0.001475
v -0.025844 -0.059730 -0.000162
v -0.010463 -0.079691 0.006709
v -0.011445 -0.081978 0.001474
v -0.016026 -0.080995 -0.000162
v -0.016026 -0.081322 0.012926
v -0.017989 -0.081322 0.012926
v -0.029770 -0.057764 0.011617
v -0.031735 -0.061366 0.007035
v -0.022243 -0.081651 0.011289
v -0.018318 -0.090164 0.007035
v -0.024206 -0.057764 0.012926
v -0.023226 -0.083615 0.005728
v -0.019954 -0.085904 0.001147
v -0.020934 -0.084268 0.011617
v -0.015046 -0.088194 0.011617
v -0.013081 -0.090164 0.005728
v -0.010136 -0.087217 0.007362
v -0.025515 -0.060386 0.012926
v -0.012754 -0.072819 0.005728
v -0.018645 -0.057767 0.003438
v -0.030097 -0.061040 0.011289
v -0.030097 -0.061040 0.001475
v -0.012099 -0.080998 0.011617
v -0.013408 -0.088524 0.001474
v -0.015046 -0.088194 0.001147
v -0.011445 -0.083288 0.001474
v -0.010136 -0.087217 0.005402
v -0.021590 -0.082635 0.001147
v -0.031406 -0.057764 0.004747
v -0.009809 -0.085251 0.007690
v -0.018972 -0.057767 0.009981
v -0.016026 -0.083285 -0.000162
v -0.019625 -0.086558 0.011289
v -0.023226 -0.083615 0.007035
f 41 36 61 
f 7 6 13 
f 19 8 20 
f 11 5 22 
f 7 13 25 
f 13 6 28 
f 6 18 28 
f 24 13 28 
f 18 24 28 
f 21 9 29 
f 23 1 29 
f 1 26 29 
f 17 12 30 
f 9 21 30 
f 6 12 31 
f 12 17 31 
f 18 6 31 
f 7 5 32 
f 5 11 32 
f 5 7 33 
f 14 7 34 
f 7 25 34 
f 2 3 35 
f 3 19 35 
f 25 2 35 
f 10 19 37 
f 20 16 37 
f 19 20 37 
f 16 22 37 
f 6 7 38 
f 23 6 38 
f 7 32 38 
f 32 15 38 
f 3 2 39 
f 19 3 39 
f 8 19 39 
f 27 8 39 
f 2 27 39 
f 20 8 40 
f 8 27 40 
f 19 10 41 
f 5 33 41 
f 33 14 41 
f 22 5 42 
f 37 22 42 
f 16 20 43 
f 11 22 44 
f 22 16 44 
f 16 43 44 
f 7 14 45 
f 33 7 45 
f 14 33 45 
f 29 9 46 
f 23 29 46 
f 9 30 46 
f 46 30 47 
f 12 6 47 
f 6 23 47 
f 30 12 47 
f 23 46 47 
f 14 34 48 
f 34 25 48 
f 25 35 48 
f 35 36 48 
f 41 14 48 
f 36 41 48 
f 13 24 49 
f 27 2 49 
f 11 26 50 
f 26 15 50 
f 32 11 50 
f 15 32 50 
f 43 20 51 
f 40 18 52 
f 20 40 52 
f 4 51 52 
f 51 20 52 
f 17 30 53 
f 30 21 53 
f 51 4 53 
f 51 53 54 
f 21 44 54 
f 44 43 54 
f 43 51 54 
f 53 21 54 
f 24 18 55 
f 18 40 55 
f 40 27 55 
f 49 24 55 
f 27 49 55 
f 2 25 56 
f 25 13 56 
f 49 2 56 
f 13 49 56 
f 26 11 57 
f 21 29 57 
f 29 26 57 
f 44 21 57 
f 11 44 57 
f 1 23 58 
f 26 1 58 
f 15 26 58 
f 23 38 58 
f 38 15 58 
f 31 17 59 
f 18 31 59 
f 4 52 59 
f 52 18 59 
f 17 53 59 
f 53 4 59 
f 10 37 60 
f 5 41 60 
f 41 10 60 
f 42 5 60 
f 37 42 60 
f 35 19 61 
f 36 35 61 
f 19 41 61 
o convex_1
v -0.018645 -0.035509 0.008999
v -0.031735 -0.057764 0.005728
v -0.031406 -0.057764 0.004747
v -0.017989 -0.057764 0.007363
v -0.023881 -0.035509 -0.000162
v -0.029770 -0.035509 0.011617
v -0.024209 -0.057764 0.012926
v -0.019954 -0.057764 0.001147
v -0.029770 -0.035509 0.001147
v -0.025844 -0.057764 -0.000162
v -0.019300 -0.035509 0.002128
v -0.019954 -0.035509 0.011617
v -0.029770 -0.057764 0.011617
v -0.031735 -0.035509 0.007035
v -0.019627 -0.057764 0.011290
v -0.025516 -0.035509 0.012926
v -0.029770 -0.057764 0.001147
v -0.017989 -0.035509 0.005400
v -0.017989 -0.057764 0.005400
v -0.019954 -0.035509 0.001147
v -0.031735 -0.035509 0.005728
v -0.031406 -0.057764 0.008017
v -0.025844 -0.035509 -0.000162
v -0.023881 -0.057764 -0.000162
v -0.024209 -0.035509 0.012926
v -0.025516 -0.057764 0.012926
v -0.030097 -0.035509 0.001475
v -0.030097 -0.035509 0.011289
v -0.017989 -0.035509 0.007363
v -0.020935 -0.057764 0.011945
v -0.019627 -0.057764 0.001474
v -0.030097 -0.057764 0.001475
v -0.030097 -0.057764 0.011289
v -0.022899 -0.035509 0.012598
v -0.031735 -0.057764 0.007035
v -0.019627 -0.035509 0.011290
v -0.027806 -0.035509 0.012271
f 87 77 98 
f 63 64 65 
f 62 66 67 
f 63 65 68 
f 65 64 69 
f 67 66 70 
f 69 64 71 
f 66 62 72 
f 62 67 73 
f 63 68 74 
f 67 70 75 
f 65 62 76 
f 68 65 76 
f 73 67 77 
f 71 64 78 
f 70 71 78 
f 72 62 79 
f 72 79 80 
f 65 69 80 
f 79 65 80 
f 69 66 81 
f 66 72 81 
f 64 63 82 
f 63 75 82 
f 75 70 82 
f 63 74 83 
f 70 66 84 
f 66 71 84 
f 71 70 84 
f 66 69 85 
f 69 71 85 
f 71 66 85 
f 73 77 86 
f 77 68 86 
f 74 68 87 
f 68 77 87 
f 70 78 88 
f 64 82 88 
f 82 70 88 
f 74 67 89 
f 67 75 89 
f 75 83 89 
f 62 65 90 
f 79 62 90 
f 65 79 90 
f 68 76 91 
f 76 73 91 
f 72 80 92 
f 80 69 92 
f 69 81 92 
f 81 72 92 
f 78 64 93 
f 64 88 93 
f 88 78 93 
f 83 74 94 
f 74 89 94 
f 89 83 94 
f 86 68 95 
f 73 86 95 
f 68 91 95 
f 91 73 95 
f 75 63 96 
f 63 83 96 
f 83 75 96 
f 62 73 97 
f 76 62 97 
f 73 76 97 
f 67 74 98 
f 77 67 98 
f 74 87 98 
o convex_2
v 0.000011 0.089832 0.005401
v -0.009480 0.039440 0.002127
v -0.009480 0.039440 0.010636
v 0.000011 0.011291 0.002127
v 0.000011 0.011291 0.010636
v -0.008497 0.011291 0.010636
v 0.000011 0.056780 0.010636
v -0.008497 0.011291 0.002127
v -0.001953 0.089175 0.007036
v 0.000011 0.057104 0.002127
v -0.007843 0.058741 0.006056
v -0.008825 0.048280 0.002455
v -0.008825 0.048280 0.010309
v 0.000011 0.088527 0.007690
v -0.001298 0.088851 0.005073
v -0.004244 0.056772 0.002127
v -0.003917 0.063644 0.009982
v -0.001953 0.089832 0.006056
v -0.001298 0.088527 0.007690
v -0.009152 0.046635 0.009982
v -0.003917 0.055468 0.010636
v -0.007515 0.060378 0.007036
v -0.009152 0.046635 0.002782
v -0.003590 0.064624 0.002782
v -0.007843 0.055143 0.003109
v -0.009480 0.042057 0.010309
v -0.000317 0.064632 0.009982
v 0.000011 0.088851 0.005073
v -0.007515 0.057753 0.008999
v -0.000317 0.090164 0.007363
f 117 112 128 
f 102 99 103 
f 103 101 104 
f 101 100 104 
f 102 103 104 
f 103 99 105 
f 101 103 105 
f 100 102 106 
f 104 100 106 
f 102 104 106 
f 102 100 108 
f 99 102 108 
f 105 99 112 
f 108 100 114 
f 100 110 114 
f 99 113 116 
f 107 111 117 
f 111 115 117 
f 101 105 119 
f 111 101 119 
f 105 115 119 
f 115 111 119 
f 107 116 120 
f 116 109 120 
f 109 118 120 
f 118 111 120 
f 109 110 121 
f 110 100 121 
f 118 109 121 
f 110 113 122 
f 114 110 122 
f 108 114 122 
f 110 109 123 
f 113 110 123 
f 109 116 123 
f 116 113 123 
f 100 101 124 
f 101 111 124 
f 111 118 124 
f 121 100 124 
f 118 121 124 
f 105 112 125 
f 115 105 125 
f 112 117 125 
f 117 115 125 
f 99 108 126 
f 113 99 126 
f 108 122 126 
f 122 113 126 
f 111 107 127 
f 107 120 127 
f 120 111 127 
f 112 99 128 
f 116 107 128 
f 99 116 128 
f 107 117 128 
o convex_3
v 0.009502 -0.010308 0.004747
v 0.009502 0.001799 0.012272
v 0.008191 0.001799 0.012272
v 0.000011 0.013582 0.002128
v 0.008519 0.013582 0.002128
v 0.000011 0.013582 0.010635
v 0.008519 0.013253 0.010635
v 0.009502 -0.000815 0.000491
v 0.001976 0.002777 0.007363
v 0.009173 -0.008016 0.011289
v 0.006883 -0.004090 0.001475
v 0.000011 0.007688 0.005074
v 0.009502 0.009651 0.002128
v 0.000011 0.010307 0.010635
v 0.004919 -0.003763 0.006056
v 0.000011 0.010307 0.002128
v 0.009502 0.009651 0.010635
v 0.009173 -0.008016 0.001475
v 0.009173 -0.010964 0.005729
v 0.008191 0.001799 0.000491
v 0.003613 0.002453 0.010962
v 0.005246 -0.003763 0.007690
v 0.009502 -0.005070 0.011944
v 0.008191 0.013582 0.010635
v 0.000011 0.007035 0.007035
v 0.001976 0.002777 0.005401
v 0.009173 -0.010964 0.007035
v 0.008846 -0.004743 0.000820
v 0.007537 -0.004090 0.011617
v 0.009502 0.001799 0.000491
v 0.003284 0.002453 0.002456
v 0.009502 -0.009654 0.008999
f 138 155 160 
f 131 130 134 
f 133 132 134 
f 130 129 136 
f 134 132 140 
f 130 136 141 
f 131 134 142 
f 134 140 142 
f 140 132 144 
f 135 130 145 
f 133 135 145 
f 130 141 145 
f 141 133 145 
f 136 129 146 
f 143 139 147 
f 146 129 147 
f 139 146 147 
f 132 133 148 
f 144 132 148 
f 142 137 149 
f 137 143 150 
f 149 137 150 
f 138 149 150 
f 129 130 151 
f 130 131 151 
f 134 130 152 
f 133 134 152 
f 130 135 152 
f 135 133 152 
f 137 142 153 
f 142 140 153 
f 143 137 153 
f 143 153 154 
f 140 144 154 
f 153 140 154 
f 147 129 155 
f 143 147 155 
f 150 143 155 
f 138 150 155 
f 139 144 156 
f 136 146 156 
f 146 139 156 
f 148 136 156 
f 144 148 156 
f 131 142 157 
f 149 138 157 
f 142 149 157 
f 151 131 157 
f 138 151 157 
f 133 141 158 
f 141 136 158 
f 148 133 158 
f 136 148 158 
f 139 143 159 
f 144 139 159 
f 143 154 159 
f 154 144 159 
f 129 151 160 
f 151 138 160 
f 155 129 160 
o convex_4
v 0.002303 0.087870 0.006707
v 0.000011 0.013582 0.002127
v 0.008192 0.013582 0.002127
v 0.000011 0.013582 0.010636
v 0.009502 0.040756 0.010636
v 0.009174 0.043364 0.002127
v 0.000011 0.088852 0.005073
v 0.000011 0.056775 0.010636
v 0.008192 0.013582 0.010636
v 0.000011 0.057105 0.002127
v 0.001320 0.088522 0.007690
v 0.007865 0.058409 0.006707
v 0.004266 0.059391 0.010309
v 0.004266 0.056775 0.002127
v 0.007538 0.056445 0.003109
v 0.008847 0.047945 0.010309
v 0.009502 0.039444 0.002127
v 0.000011 0.088522 0.007690
v 0.001320 0.090164 0.005401
v 0.009174 0.046311 0.002782
v 0.003285 0.082622 0.005728
v 0.003612 0.064624 0.002782
v 0.007538 0.060373 0.005728
v 0.008847 0.049909 0.008999
v 0.007865 0.054811 0.009654
v 0.003939 0.055463 0.010636
v 0.003612 0.067248 0.009654
v 0.009502 0.039444 0.010636
v 0.001648 0.085246 0.004747
v 0.008519 0.049257 0.002455
v 0.001648 0.090164 0.007036
v 0.000339 0.064624 0.009982
v 0.007211 0.062008 0.007036
v 0.000011 0.090164 0.007036
v 0.001975 0.089182 0.005728
f 191 161 195 
f 162 163 164 
f 163 162 166 
f 162 164 167 
f 167 164 168 
f 164 165 168 
f 164 163 169 
f 165 164 169 
f 166 162 170 
f 162 167 170 
f 166 170 174 
f 163 166 177 
f 169 163 177 
f 167 168 178 
f 177 166 180 
f 165 177 180 
f 170 167 182 
f 174 170 182 
f 172 180 183 
f 180 175 183 
f 181 161 183 
f 175 181 183 
f 176 165 184 
f 180 172 184 
f 165 180 184 
f 171 176 185 
f 176 184 185 
f 168 165 186 
f 173 168 186 
f 165 176 186 
f 176 173 186 
f 176 171 187 
f 173 176 187 
f 165 169 188 
f 177 165 188 
f 169 177 188 
f 167 179 189 
f 179 175 189 
f 182 167 189 
f 182 189 190 
f 166 174 190 
f 175 180 190 
f 180 166 190 
f 174 182 190 
f 189 175 190 
f 178 171 191 
f 185 161 191 
f 171 185 191 
f 168 173 192 
f 178 168 192 
f 171 178 192 
f 187 171 192 
f 173 187 192 
f 183 161 193 
f 172 183 193 
f 184 172 193 
f 161 185 193 
f 185 184 193 
f 167 178 194 
f 179 167 194 
f 178 191 194 
f 191 179 194 
f 175 179 195 
f 161 181 195 
f 181 175 195 
f 179 191 195 
o convex_5
v 0.031427 -0.032233 0.008017
v 0.009502 -0.011619 0.005728
v 0.009502 -0.011619 0.006709
v 0.009831 0.009327 0.002456
v 0.023901 -0.035836 -0.000162
v 0.024228 -0.035836 0.012926
v 0.009831 0.008996 0.010635
v 0.021282 -0.009006 0.001475
v 0.017686 -0.035505 0.006709
v 0.021282 -0.009006 0.011289
v 0.009502 -0.005730 0.011943
v 0.009831 -0.004749 0.000492
v 0.030118 -0.035836 0.001475
v 0.022918 -0.008675 0.006709
v 0.019649 -0.035836 0.001475
v 0.014412 -0.005403 0.012926
v 0.029791 -0.035836 0.011617
v 0.016703 -0.009006 -0.000162
v 0.019975 -0.035836 0.011617
v 0.029791 -0.032233 0.001147
v 0.031756 -0.031906 0.005728
v 0.009502 -0.008352 0.001475
v 0.029464 -0.031252 0.011617
v 0.009502 -0.008352 0.011289
v 0.009502 0.001794 0.000492
v 0.012122 -0.005076 0.012926
v 0.025537 -0.032888 0.012926
v 0.025537 -0.032560 -0.000162
v 0.009502 0.001794 0.012271
v 0.031756 -0.035836 0.007035
v 0.012122 -0.005076 -0.000162
v 0.017686 -0.010969 0.012926
v 0.009502 0.008996 0.002128
v 0.018013 -0.035836 0.005400
v 0.020956 -0.005730 0.005728
v 0.019320 -0.006057 0.001147
v 0.020629 -0.008347 0.011617
v 0.014085 -0.004749 -0.000162
v 0.009831 0.009327 0.010307
v 0.019649 -0.035178 0.001147
v 0.023245 -0.009656 0.005728
v 0.019320 -0.035836 0.010635
v 0.031756 -0.031906 0.007035
v 0.028809 -0.028635 0.001475
v 0.030118 -0.032233 0.011289
v 0.020956 -0.011296 0.000820
v 0.009502 0.009327 0.010307
v 0.019320 -0.005730 0.011289
v 0.018993 -0.014236 -0.000162
v 0.018339 -0.006057 0.011943
v 0.026846 -0.035836 0.000166
v 0.010157 0.008669 0.002128
v 0.023901 -0.011296 0.007035
v 0.020956 -0.005730 0.007035
v 0.022918 -0.035836 0.012598
v 0.009502 -0.007693 0.001147
v 0.009831 -0.004422 0.012271
v 0.020629 -0.006712 0.003111
v 0.009502 -0.009983 0.009326
v 0.031756 -0.035836 0.005728
f 216 225 255 
f 198 197 204 
f 197 198 206 
f 201 200 208 
f 200 201 210 
f 201 208 212 
f 210 201 214 
f 208 215 216 
f 197 206 217 
f 206 198 219 
f 214 206 219 
f 217 206 220 
f 201 211 221 
f 211 201 222 
f 201 212 222 
f 212 218 222 
f 200 213 223 
f 211 202 224 
f 220 206 224 
f 221 211 224 
f 212 208 225 
f 200 207 226 
f 213 200 226 
f 207 220 226 
f 211 222 227 
f 222 218 227 
f 220 224 228 
f 204 197 229 
f 210 214 229 
f 197 217 229 
f 217 210 229 
f 218 205 232 
f 227 218 232 
f 213 226 233 
f 226 220 233 
f 231 213 233 
f 230 199 234 
f 207 200 235 
f 200 210 235 
f 210 217 235 
f 209 216 236 
f 230 209 236 
f 219 204 237 
f 214 219 237 
f 204 229 237 
f 229 214 237 
f 216 209 238 
f 196 225 238 
f 225 216 238 
f 215 203 239 
f 216 215 239 
f 236 216 239 
f 203 236 239 
f 205 218 240 
f 218 212 240 
f 225 196 240 
f 212 225 240 
f 238 205 240 
f 196 238 240 
f 203 215 241 
f 231 203 241 
f 213 231 241 
f 224 202 242 
f 199 228 242 
f 228 224 242 
f 202 234 242 
f 234 199 242 
f 205 209 243 
f 202 232 243 
f 232 205 243 
f 234 202 243 
f 223 213 244 
f 215 223 244 
f 241 215 244 
f 213 241 244 
f 202 211 245 
f 211 227 245 
f 232 202 245 
f 227 232 245 
f 208 200 246 
f 215 208 246 
f 200 223 246 
f 223 215 246 
f 228 199 247 
f 220 228 247 
f 199 230 247 
f 233 220 247 
f 231 233 247 
f 209 205 248 
f 205 238 248 
f 238 209 248 
f 209 230 249 
f 230 234 249 
f 243 209 249 
f 234 243 249 
f 214 201 250 
f 201 221 250 
f 220 207 251 
f 217 220 251 
f 207 235 251 
f 235 217 251 
f 206 214 252 
f 224 206 252 
f 221 224 252 
f 214 250 252 
f 250 221 252 
f 203 231 253 
f 236 203 253 
f 230 236 253 
f 247 230 253 
f 231 247 253 
f 198 204 254 
f 219 198 254 
f 204 219 254 
f 208 216 255 
f 225 208 255 
o convex_6
v -0.012100 -0.017834 0.007363
v -0.031733 -0.035505 0.005728
v -0.031406 -0.035505 0.004747
v -0.012427 0.005396 0.003764
v -0.014390 -0.005404 0.012926
v -0.023881 -0.035505 -0.000162
v -0.019954 -0.035505 0.011617
v -0.029770 -0.031252 0.011289
v -0.022899 -0.009004 0.005400
v -0.012100 -0.004419 -0.000162
v -0.021263 -0.009657 0.001147
v -0.019299 -0.034852 0.001475
v -0.012427 0.004743 0.010635
v -0.029770 -0.031905 0.001147
v -0.025517 -0.035505 0.012926
v -0.020936 -0.009004 0.011617
v -0.012100 -0.005076 0.012926
v -0.031079 -0.029943 0.006709
v -0.017663 -0.035177 0.007035
v -0.012100 -0.012928 0.001475
v -0.017663 -0.010642 -0.000162
v -0.012100 -0.012928 0.011289
v -0.012100 0.004743 0.002128
v -0.022899 -0.008676 0.006709
v -0.012100 -0.018486 0.006055
v -0.025843 -0.035505 -0.000162
v -0.030097 -0.035505 0.011289
v -0.018316 -0.012604 0.012926
v -0.019299 -0.006061 0.001147
v -0.031733 -0.031905 0.005728
v -0.029770 -0.032233 0.011617
v -0.018316 -0.035505 0.004419
v -0.024208 -0.035505 0.012926
v -0.030097 -0.035505 0.001475
v -0.021263 -0.008676 0.010962
v -0.014063 -0.004751 -0.000162
v -0.020936 -0.005728 0.007035
v -0.019625 -0.034852 0.001147
v -0.012100 0.005396 0.008999
v -0.019299 -0.034852 0.011289
v -0.031733 -0.031905 0.007035
v -0.027806 -0.026015 0.001475
v -0.012427 0.005396 0.008999
v -0.025517 -0.032886 0.012926
v -0.019299 -0.006061 0.011617
v -0.025843 -0.033543 -0.000162
v -0.012427 0.004743 0.002128
v -0.020936 -0.005728 0.005728
v -0.012100 -0.005076 -0.000162
v -0.012427 0.000815 0.011943
v -0.015374 -0.028305 0.005728
v -0.025517 -0.015871 0.007363
v -0.012427 0.000815 0.000820
v -0.012100 -0.012275 0.011617
v -0.012100 -0.012275 0.001147
v -0.021263 -0.009004 0.001475
v -0.019625 -0.005728 0.002128
v -0.022899 -0.035505 0.012598
v -0.019954 -0.006061 0.010307
f 290 300 314 
f 257 258 261 
f 257 261 262 
f 257 262 270 
f 256 265 272 
f 260 270 272 
f 265 256 275 
f 265 261 276 
f 269 266 276 
f 256 272 277 
f 272 265 278 
f 264 273 279 
f 256 274 280 
f 275 256 280 
f 261 258 281 
f 276 261 281 
f 257 270 282 
f 270 260 283 
f 260 271 283 
f 276 266 284 
f 258 257 285 
f 273 264 285 
f 271 263 286 
f 282 270 286 
f 283 271 286 
f 262 261 287 
f 274 262 287 
f 270 262 288 
f 272 270 288 
f 281 258 289 
f 269 281 289 
f 258 285 289 
f 285 269 289 
f 263 271 290 
f 265 276 291 
f 276 284 291 
f 287 261 293 
f 267 287 293 
f 268 272 294 
f 278 259 294 
f 272 278 294 
f 274 256 295 
f 262 274 295 
f 256 277 295 
f 257 282 296 
f 285 257 296 
f 273 285 296 
f 282 286 296 
f 286 263 296 
f 266 269 297 
f 269 285 297 
f 285 264 297 
f 259 292 298 
f 292 268 298 
f 268 294 298 
f 294 259 298 
f 270 283 299 
f 286 270 299 
f 283 286 299 
f 271 260 300 
f 290 271 300 
f 269 276 301 
f 281 269 301 
f 276 281 301 
f 259 278 302 
f 264 279 303 
f 292 259 303 
f 279 292 303 
f 259 302 303 
f 261 265 304 
f 265 275 304 
f 293 261 304 
f 260 272 305 
f 272 268 305 
f 300 260 305 
f 268 300 305 
f 267 275 306 
f 280 274 306 
f 275 280 306 
f 287 267 306 
f 274 287 306 
f 279 273 307 
f 263 290 307 
f 290 279 307 
f 273 296 307 
f 296 263 307 
f 278 265 308 
f 265 291 308 
f 291 284 308 
f 302 278 308 
f 284 302 308 
f 272 262 309 
f 277 272 309 
f 262 295 309 
f 295 277 309 
f 275 267 310 
f 267 293 310 
f 304 275 310 
f 293 304 310 
f 284 266 311 
f 297 264 311 
f 266 297 311 
f 302 284 312 
f 264 303 312 
f 303 302 312 
f 311 264 312 
f 284 311 312 
f 262 272 313 
f 288 262 313 
f 272 288 313 
f 279 290 314 
f 268 292 314 
f 292 279 314 
f 300 268 314 
o convex_7
v -0.012098 -0.010306 0.000819
v -0.011116 -0.004088 0.012600
v -0.012098 -0.004088 0.012600
v 0.000011 0.011291 0.002128
v -0.012098 0.005399 0.002128
v -0.008497 0.011291 0.010635
v -0.000318 0.009652 0.010635
v -0.011770 -0.017182 0.007034
v -0.008497 0.011291 0.002128
v -0.001953 0.002779 0.005401
v -0.011770 -0.011945 0.011618
v -0.006862 -0.004088 0.001473
v -0.012098 0.005399 0.010309
v -0.012098 -0.004088 0.000164
v 0.000011 0.011291 0.010635
v 0.000011 0.007035 0.006708
v -0.006862 -0.003762 0.011290
v -0.012098 -0.017182 0.005729
v -0.008170 0.001798 0.000491
v -0.010789 0.001472 0.012273
v -0.001953 0.002779 0.007363
v -0.011770 -0.017182 0.005729
v -0.011770 -0.011945 0.001146
v 0.000011 0.010307 0.002128
v -0.011443 0.000817 0.000491
v -0.009806 -0.004740 0.000491
v -0.011770 0.006380 0.009327
v -0.008170 0.001798 0.012273
v -0.007517 -0.004088 0.011618
v -0.012098 -0.011945 0.011618
v -0.012098 0.001143 0.011944
v -0.005881 -0.003762 0.009327
v -0.001953 0.002453 0.006708
v -0.008825 0.010962 0.002128
v -0.005227 -0.003762 0.005073
f 336 326 349 
f 315 317 319 
f 320 318 323 
f 316 317 325 
f 319 317 327 
f 315 319 328 
f 318 320 329 
f 329 321 330 
f 318 329 330 
f 325 322 331 
f 317 315 332 
f 323 318 333 
f 330 321 335 
f 322 332 336 
f 336 332 337 
f 332 315 337 
f 326 336 337 
f 324 326 338 
f 318 330 338 
f 330 324 338 
f 333 318 338 
f 328 319 339 
f 323 333 339 
f 333 328 339 
f 315 328 340 
f 328 333 340 
f 337 315 340 
f 326 337 340 
f 338 326 340 
f 333 338 340 
f 319 327 341 
f 327 320 341 
f 317 316 342 
f 329 320 342 
f 321 329 342 
f 334 317 342 
f 320 334 342 
f 316 325 343 
f 331 321 343 
f 325 331 343 
f 342 316 343 
f 321 342 343 
f 325 317 344 
f 322 325 344 
f 317 332 344 
f 332 322 344 
f 327 317 345 
f 320 327 345 
f 317 334 345 
f 334 320 345 
f 321 331 346 
f 331 322 346 
f 322 335 346 
f 335 321 346 
f 324 330 347 
f 335 322 347 
f 330 335 347 
f 322 336 347 
f 336 324 347 
f 320 323 348 
f 339 319 348 
f 323 339 348 
f 319 341 348 
f 341 320 348 
f 326 324 349 
f 324 336 349 
o convex_8
v 0.028809 -0.060713 0.011943
v 0.009502 -0.086561 0.006055
v 0.009502 -0.086561 0.006709
v 0.017684 -0.057770 0.006055
v 0.029791 -0.061040 0.001147
v 0.022918 -0.084598 0.006709
v 0.016048 -0.083288 -0.000162
v 0.016048 -0.083288 0.012926
v 0.019649 -0.058093 0.011617
v 0.019975 -0.057767 0.001147
v 0.031756 -0.057767 0.007035
v 0.018339 -0.090164 0.005728
v 0.020956 -0.084268 0.001147
v 0.011467 -0.081978 0.001475
v 0.011467 -0.081978 0.011289
v 0.019649 -0.086561 0.011289
v 0.025537 -0.057767 -0.000162
v 0.013431 -0.088527 0.011289
v 0.025537 -0.057767 0.012926
v 0.013431 -0.088527 0.001475
v 0.031756 -0.061366 0.006709
v 0.010484 -0.079685 0.006709
v 0.030118 -0.061040 0.011290
v 0.013102 -0.090164 0.005728
v 0.021282 -0.083288 0.011617
v 0.031100 -0.063003 0.005728
v 0.030118 -0.057767 0.001474
v 0.017684 -0.082308 -0.000162
v 0.018013 -0.081325 0.012926
v 0.018013 -0.057770 0.007690
v 0.019649 -0.086561 0.001475
v 0.029791 -0.057767 0.011617
v 0.017357 -0.077072 -0.000162
v 0.016701 -0.079362 0.012926
v 0.019322 -0.057767 0.001802
v 0.011140 -0.077722 0.005728
v 0.023901 -0.057767 -0.000162
v 0.024228 -0.057767 0.012926
v 0.022918 -0.084598 0.006055
v 0.018339 -0.090164 0.006709
v 0.030118 -0.061040 0.001474
v 0.013102 -0.080671 0.000820
v 0.025537 -0.060383 -0.000162
v 0.012120 -0.080995 0.011617
v 0.021611 -0.083288 0.011289
v 0.015065 -0.088194 0.001147
v 0.021611 -0.083288 0.001475
v 0.013102 -0.090164 0.007035
v 0.014738 -0.088194 0.011617
v 0.025537 -0.060060 0.012926
v 0.011467 -0.083288 0.011289
v 0.011467 -0.083288 0.001475
v 0.031100 -0.062676 0.007362
v 0.019649 -0.058093 0.001147
v 0.010813 -0.080995 0.003764
v 0.031756 -0.061040 0.005728
v 0.012120 -0.074779 0.007035
v 0.020302 -0.086231 0.010962
v 0.020302 -0.086231 0.001802
v 0.018993 -0.058420 0.010635
v 0.029791 -0.061040 0.011617
v 0.015394 -0.089180 0.009981
v 0.017684 -0.059073 0.004747
f 404 385 412 
f 359 360 366 
f 360 359 368 
f 351 352 371 
f 352 364 371 
f 370 360 372 
f 352 351 373 
f 369 361 373 
f 351 369 373 
f 354 366 376 
f 366 360 376 
f 354 362 377 
f 356 366 377 
f 357 365 378 
f 368 357 378 
f 365 374 378 
f 377 362 380 
f 356 377 380 
f 368 350 381 
f 360 368 381 
f 372 360 381 
f 366 356 382 
f 357 368 383 
f 368 359 384 
f 353 379 384 
f 371 353 385 
f 359 366 386 
f 366 382 386 
f 379 358 387 
f 358 383 387 
f 383 368 387 
f 368 384 387 
f 384 379 387 
f 355 361 388 
f 370 355 388 
f 375 370 388 
f 361 355 389 
f 373 361 389 
f 362 354 390 
f 354 376 390 
f 382 356 391 
f 366 354 392 
f 354 377 392 
f 377 366 392 
f 358 364 393 
f 357 383 393 
f 383 358 393 
f 369 356 395 
f 361 369 395 
f 380 361 395 
f 356 380 395 
f 375 388 396 
f 362 390 396 
f 390 375 396 
f 367 352 397 
f 352 373 397 
f 373 389 397 
f 365 357 398 
f 357 367 398 
f 350 368 399 
f 378 350 399 
f 368 378 399 
f 364 352 400 
f 352 367 400 
f 367 357 400 
f 357 393 400 
f 393 364 400 
f 351 363 401 
f 356 369 401 
f 369 351 401 
f 391 356 401 
f 363 391 401 
f 355 370 402 
f 370 372 402 
f 394 355 402 
f 372 394 402 
f 363 384 403 
f 384 359 403 
f 359 386 403 
f 386 382 403 
f 391 363 403 
f 382 391 403 
f 363 351 404 
f 351 371 404 
f 384 363 404 
f 371 385 404 
f 360 370 405 
f 370 375 405 
f 376 360 405 
f 375 390 405 
f 390 376 405 
f 353 371 406 
f 371 364 406 
f 379 353 406 
f 374 365 407 
f 389 355 407 
f 365 389 407 
f 355 394 407 
f 394 374 407 
f 361 380 408 
f 380 362 408 
f 388 361 408 
f 362 396 408 
f 396 388 408 
f 364 358 409 
f 358 379 409 
f 406 364 409 
f 379 406 409 
f 350 378 410 
f 378 374 410 
f 381 350 410 
f 372 381 410 
f 394 372 410 
f 374 394 410 
f 389 365 411 
f 367 397 411 
f 397 389 411 
f 365 398 411 
f 398 367 411 
f 353 384 412 
f 385 353 412 
f 384 404 412 
o convex_9
v 0.031756 -0.035836 0.007035
v 0.018011 -0.057764 0.005400
v 0.019321 -0.057764 0.002128
v 0.030119 -0.057764 0.011290
v 0.019975 -0.035836 0.011617
v 0.019975 -0.035836 0.001147
v 0.029792 -0.057764 0.001147
v 0.019975 -0.057764 0.011617
v 0.029792 -0.035836 0.001147
v 0.025536 -0.035836 0.012926
v 0.023901 -0.057764 -0.000162
v 0.018011 -0.035836 0.007363
v 0.031756 -0.057764 0.005728
v 0.029792 -0.035836 0.011617
v 0.024230 -0.057764 0.012926
v 0.025536 -0.035836 -0.000162
v 0.018011 -0.035836 0.005400
v 0.018011 -0.057764 0.007363
v 0.025536 -0.057764 0.012926
v 0.019975 -0.057764 0.001147
v 0.031428 -0.035836 0.004747
v 0.026846 -0.057764 0.000166
v 0.023901 -0.035836 -0.000162
v 0.031756 -0.057764 0.007035
v 0.022919 -0.035836 0.012598
v 0.019321 -0.057764 0.010635
v 0.030119 -0.057764 0.001474
v 0.028811 -0.057764 0.011945
v 0.030119 -0.035836 0.011290
v 0.019321 -0.035836 0.002128
v 0.019321 -0.035836 0.010635
v 0.030119 -0.035836 0.001474
v 0.025536 -0.057764 -0.000162
v 0.031756 -0.035836 0.005728
v 0.024230 -0.035836 0.012926
v 0.031428 -0.057764 0.008017
f 441 416 448 
f 414 415 416 
f 417 413 418 
f 416 415 419 
f 414 416 420 
f 418 413 421 
f 413 417 422 
f 419 415 423 
f 417 418 424 
f 416 419 425 
f 413 422 426 
f 420 416 427 
f 418 421 428 
f 415 414 429 
f 414 424 429 
f 424 418 429 
f 414 420 430 
f 424 414 430 
f 427 416 431 
f 422 427 431 
f 415 418 432 
f 423 415 432 
f 418 423 432 
f 421 413 433 
f 421 419 434 
f 419 423 434 
f 428 421 434 
f 423 418 435 
f 418 428 435 
f 428 423 435 
f 425 413 436 
f 416 425 436 
f 417 420 437 
f 422 417 437 
f 420 427 437 
f 420 417 438 
f 430 420 438 
f 424 430 438 
f 419 421 439 
f 425 419 439 
f 433 425 439 
f 416 426 440 
f 426 422 440 
f 431 416 440 
f 422 431 440 
f 413 426 441 
f 426 416 441 
f 418 415 442 
f 415 429 442 
f 429 418 442 
f 417 424 443 
f 438 417 443 
f 424 438 443 
f 421 433 444 
f 439 421 444 
f 433 439 444 
f 423 428 445 
f 434 423 445 
f 428 434 445 
f 413 425 446 
f 433 413 446 
f 425 433 446 
f 427 422 447 
f 422 437 447 
f 437 427 447 
f 436 413 448 
f 416 436 448 
f 413 441 448 
