o convex_0
v -0.014666 -0.029631 -0.000225
v 0.000155 0.090263 0.020435
v 0.000155 0.090725 0.019985
v -0.012420 0.064222 0.019536
v -0.002989 0.090263 -0.000225
v 0.000155 0.034586 0.020435
v -0.014666 -0.029181 0.020435
v 0.000155 0.034586 -0.000225
v -0.012420 0.064222 0.000226
v -0.014666 0.022464 0.020435
v 0.000155 0.090263 -0.000225
v -0.006582 0.000905 0.019536
v -0.014666 0.022913 -0.000225
v -0.004337 0.088466 0.019985
v -0.013767 -0.029631 0.000226
v -0.006582 0.000905 0.000226
v -0.013767 -0.029631 0.019536
v -0.011521 0.064660 0.020435
v -0.004337 0.088466 0.000226
v -0.002989 0.090725 0.019985
v -0.011971 0.064222 -0.000225
v 0.000155 0.034136 0.019985
v -0.002989 0.090725 0.000226
v 0.000155 0.034136 0.000226
v -0.003888 0.088466 0.020435
v -0.014217 -0.029181 0.020435
v 0.000155 0.090725 0.000226
v -0.007032 0.000455 -0.000225
v -0.014666 -0.030092 0.019536
v -0.014666 0.022913 0.019985
f 13 10 30 
f 3 2 6 
f 6 2 7 
f 1 5 8 
f 3 6 8 
f 1 7 10 
f 7 2 10 
f 8 5 11 
f 3 8 11 
f 5 1 13 
f 4 9 13 
f 1 10 13 
f 9 4 14 
f 12 15 16 
f 15 12 17 
f 10 2 18 
f 4 10 18 
f 14 4 18 
f 9 14 19 
f 19 14 20 
f 2 3 20 
f 5 13 21 
f 13 9 21 
f 19 5 21 
f 9 19 21 
f 8 6 22 
f 6 12 22 
f 12 16 22 
f 11 5 23 
f 5 19 23 
f 19 20 23 
f 20 3 23 
f 16 8 24 
f 8 22 24 
f 22 16 24 
f 18 2 25 
f 14 18 25 
f 20 14 25 
f 2 20 25 
f 6 7 26 
f 12 6 26 
f 17 12 26 
f 3 11 27 
f 23 3 27 
f 11 23 27 
f 1 8 28 
f 15 1 28 
f 16 15 28 
f 8 16 28 
f 7 1 29 
f 1 15 29 
f 15 17 29 
f 26 7 29 
f 17 26 29 
f 10 4 30 
f 4 13 30 
o convex_1
v 0.014527 -0.030092 0.019985
v 0.002851 0.090263 0.020435
v 0.003299 0.090275 0.019985
v 0.000155 0.034574 -0.000225
v 0.012281 0.065570 0.000226
v 0.014976 -0.030092 -0.000225
v 0.000155 0.034574 0.020435
v 0.000155 0.090263 -0.000225
v 0.014976 0.022014 0.020435
v 0.012281 0.065570 0.019985
v 0.014976 0.022464 -0.000225
v 0.000155 0.090263 0.020435
v 0.007789 -0.003589 0.000226
v 0.004199 0.088466 0.000226
v 0.013629 -0.029181 0.019985
v 0.014976 -0.029631 0.020435
v 0.005995 0.004500 0.019985
v 0.013629 -0.029181 0.000226
v 0.011833 0.065570 -0.000225
v 0.005995 0.004500 -0.000225
v 0.002851 0.090725 0.000226
v 0.011833 0.065570 0.020435
v 0.004199 0.088466 0.019985
v 0.000155 0.034136 0.019985
v 0.014976 0.022913 0.019536
v 0.000155 0.090725 0.019985
v 0.000155 0.034136 0.000226
v 0.005097 0.085320 -0.000225
v 0.014077 -0.029181 0.020435
v 0.007789 -0.003589 0.019985
v 0.006443 0.082186 0.000226
v 0.000155 0.090725 0.000226
v 0.002851 0.090725 0.019985
v 0.014976 0.022913 0.000226
f 55 41 64 
f 34 37 38 
f 36 34 38 
f 32 37 39 
f 36 38 41 
f 39 36 41 
f 37 32 42 
f 38 37 42 
f 31 36 46 
f 36 39 46 
f 39 37 46 
f 36 31 48 
f 31 45 48 
f 45 43 48 
f 35 41 49 
f 41 38 49 
f 34 36 50 
f 43 47 50 
f 36 48 50 
f 48 43 50 
f 33 44 51 
f 32 39 52 
f 39 40 52 
f 52 40 53 
f 33 32 53 
f 44 33 53 
f 32 52 53 
f 37 34 54 
f 47 37 54 
f 50 47 54 
f 35 40 55 
f 40 39 55 
f 39 41 55 
f 42 32 56 
f 38 42 56 
f 34 50 57 
f 54 34 57 
f 50 54 57 
f 35 49 58 
f 49 38 58 
f 38 51 58 
f 51 44 58 
f 45 31 59 
f 31 46 59 
f 46 37 59 
f 37 47 59 
f 59 47 60 
f 43 45 60 
f 47 43 60 
f 45 59 60 
f 40 35 61 
f 53 40 61 
f 44 53 61 
f 35 58 61 
f 58 44 61 
f 51 38 62 
f 38 56 62 
f 56 51 62 
f 32 33 63 
f 33 51 63 
f 56 32 63 
f 51 56 63 
f 41 35 64 
f 35 55 64 
o convex_2
v -0.026791 -0.089820 0.000226
v -0.014666 0.003593 0.020435
v -0.014666 0.003593 -0.000225
v -0.015565 -0.086228 0.019536
v -0.029038 -0.038636 0.019985
v -0.014666 -0.077245 0.000226
v -0.028139 -0.030548 -0.000225
v -0.027690 -0.088472 0.020435
v -0.020057 0.003593 0.019985
v -0.017810 -0.090263 -0.000225
v -0.020057 0.003593 -0.000225
v -0.028139 -0.088472 -0.000225
v -0.018261 -0.090263 0.020435
v -0.014666 -0.077245 0.019985
v -0.029038 -0.038636 -0.000225
v -0.027690 -0.030548 0.020435
v -0.029038 -0.050749 0.019985
v -0.028139 -0.030548 0.019985
v -0.028139 -0.088472 0.019985
v -0.015565 -0.086228 0.000226
v -0.020955 -0.090725 0.019985
v -0.029038 -0.050749 0.000226
v -0.026791 -0.089820 0.019985
v -0.015116 -0.077245 0.020435
v -0.020955 -0.090725 0.000226
v -0.015116 -0.077698 -0.000225
v -0.016913 -0.089377 0.019985
v -0.019607 0.003593 0.020435
v -0.018261 -0.090725 0.019985
v -0.016913 -0.089377 -0.000225
v -0.028588 -0.038636 0.020435
v -0.018261 -0.090725 0.000226
f 74 94 96 
f 67 66 70 
f 66 67 73 
f 71 67 74 
f 67 71 75 
f 73 67 75 
f 71 73 75 
f 71 74 76 
f 74 65 76 
f 66 72 77 
f 70 66 78 
f 68 70 78 
f 69 71 79 
f 71 76 79 
f 72 66 80 
f 69 79 81 
f 71 69 82 
f 73 71 82 
f 69 80 82 
f 80 73 82 
f 76 65 83 
f 72 81 83 
f 81 76 83 
f 70 68 84 
f 79 76 86 
f 76 81 86 
f 81 79 86 
f 77 72 87 
f 83 65 87 
f 72 83 87 
f 65 85 87 
f 85 77 87 
f 66 77 88 
f 78 66 88 
f 68 78 88 
f 65 74 89 
f 85 65 89 
f 67 70 90 
f 74 67 90 
f 70 84 90 
f 84 68 91 
f 88 77 91 
f 68 88 91 
f 66 73 92 
f 80 66 92 
f 73 80 92 
f 77 85 93 
f 85 89 93 
f 91 77 93 
f 91 93 94 
f 74 90 94 
f 90 84 94 
f 84 91 94 
f 80 69 95 
f 72 80 95 
f 69 81 95 
f 81 72 95 
f 89 74 96 
f 93 89 96 
f 94 93 96 
o convex_3
v 0.018121 -0.090725 0.000226
v 0.019917 0.003593 0.020435
v 0.026204 -0.023356 0.019985
v 0.016324 -0.086681 0.020435
v 0.014976 0.003593 -0.000225
v 0.029349 -0.050296 0.000226
v 0.027102 -0.089367 0.019985
v 0.014976 0.003593 0.020435
v 0.014976 -0.077236 -0.000225
v 0.020366 0.003593 0.000226
v 0.027102 -0.089367 -0.000225
v 0.029349 -0.038626 0.019985
v 0.027999 -0.032792 -0.000225
v 0.014976 -0.077688 0.019985
v 0.019917 -0.090263 0.020435
v 0.028898 -0.050296 0.020435
v 0.015875 -0.086228 -0.000225
v 0.029349 -0.050296 0.019985
v 0.029349 -0.038626 0.000226
v 0.016774 -0.089377 0.019985
v 0.020366 0.003593 0.019985
v 0.019917 -0.090725 0.019985
v 0.026653 -0.089820 0.000226
v 0.026653 -0.089367 0.020435
v 0.015875 -0.086681 0.019985
v 0.026204 -0.023356 0.000226
v 0.019917 0.003593 -0.000225
v 0.016774 -0.089377 0.000226
v 0.026653 -0.089820 0.019985
v 0.028898 -0.038626 0.020435
v 0.018121 -0.090725 0.019985
v 0.028898 -0.050296 -0.000225
v 0.019917 -0.090725 0.000226
v 0.015427 -0.077688 0.020435
v 0.015875 -0.086681 0.000226
f 124 121 131 
f 100 98 104 
f 98 101 104 
f 104 101 105 
f 101 98 106 
f 102 103 107 
f 105 101 107 
f 107 101 109 
f 104 105 110 
f 98 100 111 
f 98 111 112 
f 107 97 113 
f 105 107 113 
f 103 102 114 
f 102 108 114 
f 108 112 114 
f 99 108 115 
f 108 102 115 
f 98 99 117 
f 99 106 117 
f 106 98 117 
f 107 103 119 
f 112 111 120 
f 103 114 120 
f 114 112 120 
f 111 118 120 
f 100 110 121 
f 116 100 121 
f 106 99 122 
f 109 106 122 
f 99 115 122 
f 115 109 122 
f 101 106 123 
f 106 109 123 
f 109 101 123 
f 113 97 124 
f 97 116 124 
f 116 121 124 
f 119 103 125 
f 118 119 125 
f 103 120 125 
f 120 118 125 
f 99 98 126 
f 108 99 126 
f 98 112 126 
f 112 108 126 
f 111 100 127 
f 100 116 127 
f 116 97 127 
f 97 118 127 
f 118 111 127 
f 102 107 128 
f 107 109 128 
f 115 102 128 
f 109 115 128 
f 97 107 129 
f 118 97 129 
f 107 119 129 
f 119 118 129 
f 100 104 130 
f 110 100 130 
f 104 110 130 
f 110 105 131 
f 105 113 131 
f 121 110 131 
f 113 124 131 
o convex_4
v -0.035326 0.013923 -0.000225
v -0.023649 0.016168 0.020435
v -0.023649 0.008983 0.020435
v -0.036225 0.016618 0.019985
v -0.023649 0.016618 -0.000225
v -0.023649 0.008533 -0.000225
v -0.035326 0.013474 0.019985
v -0.036225 0.016618 0.000226
v -0.024098 0.008533 0.019985
v -0.035326 0.013474 0.000226
v -0.023649 0.016618 0.019985
v -0.036225 0.014372 0.019985
v -0.035775 0.014372 0.020435
v -0.024098 0.008533 -0.000225
v -0.036225 0.014372 0.000226
f 141 143 146 
f 133 134 136 
f 132 136 137 
f 136 134 137 
f 136 132 139 
f 135 136 139 
f 137 134 140 
f 134 138 140 
f 140 138 141 
f 135 133 142 
f 136 135 142 
f 133 136 142 
f 135 139 143 
f 141 138 143 
f 134 133 144 
f 133 135 144 
f 138 134 144 
f 135 143 144 
f 143 138 144 
f 132 137 145 
f 137 140 145 
f 140 141 145 
f 141 132 145 
f 139 132 146 
f 132 141 146 
f 143 139 146 
o convex_5
v -0.023649 0.016616 0.019985
v -0.020054 0.003593 -0.000225
v -0.014666 0.003593 -0.000225
v -0.014666 0.022457 -0.000225
v -0.014666 0.003593 0.020435
v -0.014666 0.022457 0.019985
v -0.023649 0.016616 -0.000225
v -0.023649 0.008087 0.019985
v -0.023649 0.008087 -0.000225
v -0.019606 0.003593 0.020435
v -0.015116 0.022457 0.019985
v -0.023649 0.016168 0.020435
v -0.021402 0.004941 0.019985
v -0.014666 0.022006 0.020435
v -0.015116 0.022457 -0.000225
v -0.021402 0.004941 0.000226
f 148 159 162 
f 149 148 150 
f 148 149 151 
f 149 150 151 
f 151 150 152 
f 150 148 153 
f 147 153 154 
f 154 153 155 
f 153 148 155 
f 148 151 156 
f 152 150 157 
f 153 147 157 
f 147 154 158 
f 156 151 158 
f 154 156 158 
f 157 147 158 
f 154 155 159 
f 148 156 159 
f 156 154 159 
f 151 152 160 
f 152 157 160 
f 158 151 160 
f 157 158 160 
f 150 153 161 
f 157 150 161 
f 153 157 161 
f 155 148 162 
f 159 155 162 
o convex_6
v 0.024857 0.016168 0.020435
v 0.014976 0.003593 -0.000225
v 0.014976 0.022006 -0.000225
v 0.024857 0.009433 -0.000225
v 0.014976 0.003593 0.020435
v 0.014976 0.022457 0.019536
v 0.020365 0.003593 0.019985
v 0.024857 0.016616 -0.000225
v 0.024857 0.008983 0.019536
v 0.020365 0.003593 0.000226
v 0.014976 0.021555 0.020435
v 0.015427 0.022457 0.000226
v 0.024857 0.016616 0.019985
v 0.015427 0.022457 0.019536
v 0.024857 0.009884 0.020435
v 0.021263 0.004494 0.000226
v 0.024857 0.008983 0.000226
f 171 178 179 
f 164 165 166 
f 165 164 167 
f 165 167 168 
f 167 164 169 
f 166 165 170 
f 163 166 170 
f 166 163 171 
f 164 166 172 
f 169 164 172 
f 167 163 173 
f 168 167 173 
f 165 168 174 
f 170 165 174 
f 170 174 175 
f 163 170 175 
f 173 163 176 
f 168 173 176 
f 174 168 176 
f 175 174 176 
f 163 175 176 
f 163 167 177 
f 167 169 177 
f 171 163 177 
f 169 171 177 
f 171 169 178 
f 169 172 178 
f 172 166 178 
f 166 171 179 
f 178 166 179 
o convex_7
v 0.024857 0.009432 0.000226
v 0.036086 0.016617 0.019985
v 0.034287 0.017516 0.019985
v 0.035636 0.016617 -0.000225
v 0.024857 0.016617 -0.000225
v 0.024857 0.010331 0.020435
v 0.024857 0.016617 0.019985
v 0.035187 0.013474 0.019985
v 0.035187 0.013474 0.000226
v 0.025307 0.009432 0.019536
v 0.032940 0.017516 -0.000225
v 0.036086 0.014821 -0.000225
v 0.036086 0.014372 0.019985
v 0.034287 0.017067 0.020435
v 0.025307 0.009881 -0.000225
v 0.025307 0.009432 0.000226
v 0.034287 0.017516 0.000226
v 0.032940 0.017516 0.019985
v 0.024857 0.016168 0.020435
v 0.036086 0.016617 0.000226
f 183 196 199 
f 184 180 185 
f 184 185 186 
f 188 187 189 
f 185 180 189 
f 187 185 189 
f 183 184 190 
f 184 186 190 
f 184 183 191 
f 188 191 192 
f 187 188 192 
f 191 181 192 
f 187 192 193 
f 181 182 193 
f 185 187 193 
f 192 181 193 
f 180 184 194 
f 184 191 194 
f 191 188 194 
f 188 189 195 
f 189 180 195 
f 180 194 195 
f 194 188 195 
f 182 181 196 
f 190 182 196 
f 183 190 196 
f 182 190 197 
f 190 186 197 
f 193 182 197 
f 193 197 198 
f 186 185 198 
f 185 193 198 
f 197 186 198 
f 181 191 199 
f 191 183 199 
f 196 181 199 
