o convex_0
v 0.019086 -0.089784 0.009578
v 0.017382 -0.033203 0.023191
v 0.016107 -0.033203 0.023191
v 0.012276 0.009362 0.004470
v 0.028446 -0.035747 0.007873
v 0.019937 0.009362 0.019787
v 0.027169 -0.051479 0.020637
v 0.012276 -0.084248 0.019359
v 0.012276 0.009362 0.022339
v 0.013979 -0.084238 0.005746
v 0.022914 -0.076158 0.005320
v 0.021637 -0.084677 0.020635
v 0.019937 0.009362 0.007024
v 0.026317 -0.017881 0.020212
v 0.021637 -0.038730 0.003617
v 0.024190 -0.084248 0.012981
v 0.012276 -0.085525 0.007873
v 0.026743 -0.017452 0.007449
v 0.016107 -0.055738 0.003617
v 0.014831 -0.075739 0.021912
v 0.022914 -0.038730 0.022764
v 0.025468 -0.028096 0.004897
v 0.027595 -0.054032 0.007449
v 0.028446 -0.044246 0.018509
v 0.014405 -0.089784 0.016382
v 0.027169 -0.018310 0.018083
v 0.020785 -0.051059 0.023191
v 0.025468 -0.075310 0.017233
v 0.024616 -0.018729 0.021486
v 0.025042 -0.051059 0.004470
v 0.024190 -0.004684 0.009151
v 0.021211 -0.084238 0.005746
v 0.014831 0.009362 0.004470
v 0.020361 -0.089355 0.016807
v 0.025468 -0.074881 0.009151
v 0.012276 -0.012345 0.004470
v 0.013979 0.009362 0.022339
v 0.014831 -0.085105 0.021063
v 0.025892 -0.045952 0.021913
v 0.028446 -0.037453 0.019359
v 0.018660 -0.073604 0.004470
v 0.016107 -0.053184 0.023191
v 0.022914 -0.074023 0.021488
v 0.015681 -0.026819 0.003617
v 0.013554 -0.089355 0.010003
v 0.028446 -0.040006 0.007024
v 0.020361 0.009362 0.018511
v 0.024616 -0.017881 0.005320
v 0.028021 -0.051907 0.018083
v 0.018236 -0.077863 0.021912
v 0.020785 -0.053613 0.003617
v 0.022914 -0.086801 0.010427
v 0.012702 -0.014470 0.022339
v 0.013128 -0.076158 0.005746
v 0.025042 -0.008514 0.018934
v 0.028021 -0.051907 0.008725
v 0.023340 -0.085525 0.016807
v 0.028021 -0.027238 0.008725
v 0.016532 -0.084677 0.005320
v 0.012702 -0.088068 0.017658
v 0.027169 -0.052755 0.006171
v 0.026743 -0.039158 0.021486
v 0.012276 -0.082542 0.019785
v 0.020361 -0.035757 0.023191
f 29 37 64 
f 3 2 9 
f 6 4 9 
f 4 8 9 
f 4 6 13 
f 8 4 17 
f 2 3 27 
f 14 6 29 
f 15 22 30 
f 18 13 31 
f 26 18 31 
f 4 13 33 
f 22 15 33 
f 25 1 34 
f 28 16 35 
f 32 11 35 
f 17 4 36 
f 9 2 37 
f 6 9 37 
f 29 6 37 
f 34 12 38 
f 25 34 38 
f 21 27 39 
f 7 24 40 
f 24 5 40 
f 26 14 40 
f 11 32 41 
f 3 9 42 
f 27 3 42 
f 28 7 43 
f 12 28 43 
f 7 39 43 
f 39 27 43 
f 15 19 44 
f 4 33 44 
f 33 15 44 
f 36 4 44 
f 19 36 44 
f 17 10 45 
f 1 25 45 
f 18 5 46 
f 22 18 46 
f 5 24 46 
f 30 22 46 
f 13 6 47 
f 31 13 47 
f 13 18 48 
f 18 22 48 
f 33 13 48 
f 22 33 48 
f 24 7 49 
f 7 28 49 
f 20 38 50 
f 38 12 50 
f 42 20 50 
f 27 42 50 
f 12 43 50 
f 43 27 50 
f 19 15 51 
f 30 11 51 
f 15 30 51 
f 41 19 51 
f 11 41 51 
f 1 32 52 
f 34 1 52 
f 35 16 52 
f 32 35 52 
f 42 9 53 
f 20 42 53 
f 10 17 54 
f 19 10 54 
f 17 36 54 
f 36 19 54 
f 6 14 55 
f 14 26 55 
f 26 31 55 
f 47 6 55 
f 31 47 55 
f 35 23 56 
f 28 35 56 
f 46 24 56 
f 23 46 56 
f 24 49 56 
f 49 28 56 
f 28 12 57 
f 16 28 57 
f 12 34 57 
f 34 52 57 
f 52 16 57 
f 5 18 58 
f 18 26 58 
f 40 5 58 
f 26 40 58 
f 10 19 59 
f 32 1 59 
f 19 41 59 
f 41 32 59 
f 1 45 59 
f 45 10 59 
f 8 17 60 
f 38 8 60 
f 25 38 60 
f 17 45 60 
f 45 25 60 
f 11 30 61 
f 35 11 61 
f 23 35 61 
f 46 23 61 
f 30 46 61 
f 14 29 62 
f 29 21 62 
f 39 7 62 
f 21 39 62 
f 7 40 62 
f 40 14 62 
f 9 8 63 
f 8 38 63 
f 38 20 63 
f 53 9 63 
f 20 53 63 
f 2 27 64 
f 27 21 64 
f 21 29 64 
f 37 2 64 
o convex_1
v 0.025892 0.025104 0.021914
v 0.012276 0.009362 0.004471
v 0.012276 0.009788 0.004047
v 0.012276 0.031489 0.021485
v 0.025892 0.024678 0.001064
v 0.019510 0.009362 0.020211
v 0.013128 0.031915 0.005324
v 0.012276 0.015322 0.027021
v 0.025892 0.021700 0.025742
v 0.020360 0.009362 0.008301
v 0.012276 0.021700 -0.000210
v 0.027595 0.021274 0.012555
v 0.012276 0.009362 0.022338
v 0.025466 0.021700 0.000640
v 0.013554 0.022124 0.027021
v 0.014830 0.031915 0.015104
v 0.025892 0.024678 0.025742
v 0.013128 0.015322 -0.000210
v 0.027169 0.020426 0.018931
v 0.019084 0.009362 0.006174
v 0.027169 0.024678 0.011705
v 0.027169 0.020426 0.007451
v 0.015256 0.031489 0.005747
v 0.014404 0.031915 0.021061
v 0.012276 0.031489 0.005324
v 0.020360 0.009362 0.018507
v 0.016958 0.017450 0.027021
v 0.017382 0.022550 -0.000210
v 0.026744 0.022126 0.001917
v 0.018234 0.017874 -0.000210
v 0.026744 0.022126 0.024468
v 0.012276 0.021700 0.027021
v 0.014404 0.009362 0.022338
v 0.023766 0.024252 0.026168
v 0.027169 0.024678 0.015104
v 0.014830 0.009362 0.004471
v 0.026318 0.024678 0.002344
v 0.024190 0.020850 0.026168
v 0.012276 0.015322 -0.000210
v 0.025042 0.024252 0.000640
v 0.027595 0.023402 0.012555
v 0.013554 0.031063 0.021911
f 98 81 106 
f 67 66 68 
f 68 66 72 
f 70 66 74 
f 67 68 75 
f 66 70 77 
f 72 66 77 
f 74 66 84 
f 83 74 86 
f 76 83 86 
f 69 71 87 
f 71 80 87 
f 80 85 87 
f 71 68 88 
f 80 71 88 
f 81 65 88 
f 68 71 89 
f 75 68 89 
f 71 75 89 
f 73 70 90 
f 70 74 90 
f 74 83 90 
f 79 72 91 
f 75 71 92 
f 82 75 92 
f 78 69 93 
f 74 84 93 
f 84 78 93 
f 86 74 93 
f 76 86 93 
f 78 84 94 
f 82 92 94 
f 81 73 95 
f 73 90 95 
f 90 83 95 
f 68 72 96 
f 79 68 96 
f 72 79 96 
f 77 70 97 
f 72 77 97 
f 70 91 97 
f 91 72 97 
f 79 91 98 
f 65 81 99 
f 85 80 99 
f 88 65 99 
f 80 88 99 
f 81 95 99 
f 66 67 100 
f 67 82 100 
f 84 66 100 
f 94 84 100 
f 82 94 100 
f 69 87 101 
f 87 85 101 
f 93 69 101 
f 70 73 102 
f 73 81 102 
f 91 70 102 
f 81 98 102 
f 98 91 102 
f 67 75 103 
f 82 67 103 
f 75 82 103 
f 71 69 104 
f 69 78 104 
f 92 71 104 
f 78 94 104 
f 94 92 104 
f 83 76 105 
f 76 93 105 
f 95 83 105 
f 85 99 105 
f 99 95 105 
f 101 85 105 
f 93 101 105 
f 68 79 106 
f 88 68 106 
f 81 88 106 
f 79 98 106 
o convex_2
v 0.005041 0.084255 0.018083
v -0.007298 0.075745 0.009575
v -0.006872 0.075745 0.008723
v -0.003043 0.090213 0.008723
v 0.007170 0.075745 0.009150
v -0.006872 0.075745 0.017659
v -0.003469 0.089786 0.017659
v 0.003340 0.090213 0.008723
v 0.006743 0.075745 0.018085
v 0.003340 0.090213 0.018083
v 0.007170 0.077448 0.016808
v 0.006743 0.075745 0.008723
v -0.007298 0.076596 0.016808
v -0.003892 0.088508 0.008723
v -0.000064 0.090213 0.018085
v 0.007170 0.077448 0.009575
v 0.003765 0.089360 0.008723
v 0.001212 0.075745 0.018083
v -0.007298 0.076596 0.009575
v 0.003765 0.089360 0.018083
f 123 116 126 
f 108 109 111 
f 108 111 112 
f 109 110 114 
f 112 111 115 
f 114 110 116 
f 107 115 117 
f 115 111 117 
f 111 109 118 
f 109 114 118 
f 108 112 119 
f 112 113 119 
f 119 113 120 
f 110 109 120 
f 113 110 120 
f 110 113 121 
f 113 112 121 
f 116 110 121 
f 117 111 122 
f 117 122 123 
f 114 116 123 
f 111 118 123 
f 118 114 123 
f 122 111 123 
f 112 115 124 
f 121 112 124 
f 115 121 124 
f 109 108 125 
f 108 119 125 
f 119 120 125 
f 120 109 125 
f 115 107 126 
f 107 117 126 
f 121 115 126 
f 116 121 126 
f 117 123 126 
o convex_3
v 0.005468 0.004252 0.007448
v 0.012276 0.005106 0.021915
v 0.012276 0.005106 0.004897
v 0.012276 -0.020426 0.019358
v 0.005468 0.005106 0.019785
v 0.011850 -0.020426 0.007448
v 0.012276 -0.010211 0.004468
v 0.007170 0.005106 0.004897
v 0.011850 -0.011063 0.021915
v 0.011850 -0.020426 0.019358
v 0.007170 0.004679 0.021915
v 0.005468 0.004252 0.019358
v 0.012276 -0.020426 0.007448
v 0.011850 -0.015745 0.005746
v 0.010574 0.004679 0.004468
v 0.005468 0.004679 0.007023
v 0.009722 -0.012338 0.019358
v 0.012276 -0.011063 0.021915
f 135 130 144 
f 129 128 130 
f 128 129 131 
f 129 130 133 
f 131 129 134 
f 132 130 136 
f 130 135 136 
f 128 131 137 
f 135 128 137 
f 136 135 137 
f 131 127 138 
f 130 132 139 
f 133 130 139 
f 133 139 140 
f 134 133 140 
f 139 132 140 
f 129 133 141 
f 133 134 141 
f 134 129 141 
f 127 131 142 
f 132 127 142 
f 131 134 142 
f 140 132 142 
f 134 140 142 
f 127 132 143 
f 132 136 143 
f 137 131 143 
f 136 137 143 
f 138 127 143 
f 131 138 143 
f 130 128 144 
f 128 135 144 
o convex_4
v 0.002915 0.020000 0.026592
v 0.007169 0.005106 0.004471
v 0.008871 0.005106 0.004471
v 0.012276 0.031489 0.005324
v 0.000361 0.028083 0.005324
v 0.012276 0.005106 0.021911
v 0.012276 0.031489 0.021485
v 0.012276 0.015320 -0.000210
v 0.001214 0.013192 0.019358
v 0.000361 0.028509 0.021061
v 0.001640 0.014894 0.002344
v 0.005041 0.005106 0.019358
v 0.012276 0.021702 0.027021
v 0.002490 0.031489 0.008301
v 0.003341 0.019571 -0.000210
v 0.004617 0.013618 0.027021
v 0.012276 0.005106 0.004897
v 0.005041 0.005106 0.007451
v 0.005041 0.013192 -0.000210
v 0.000788 0.014894 0.007024
v 0.000788 0.017451 0.024039
v 0.012276 0.021702 -0.000210
v 0.002490 0.031489 0.018081
v 0.012276 0.015320 0.027021
v 0.007169 0.005106 0.021911
v 0.005041 0.028935 0.004471
v 0.002065 0.013192 0.024039
v 0.004192 0.028509 0.022338
v 0.000788 0.017451 0.002770
v 0.000361 0.023830 0.019358
v 0.001214 0.013192 0.007451
v 0.009297 0.013618 0.027021
v 0.002065 0.013192 0.002770
v 0.009297 0.013618 -0.000210
v 0.003341 0.019571 0.027021
v 0.000788 0.014894 0.019784
v 0.000361 0.023830 0.007451
v 0.002490 0.029361 0.005324
v 0.004617 0.029785 0.021485
v 0.003341 0.008513 0.019358
v 0.010999 0.021702 -0.000210
v 0.011850 0.031063 0.004897
f 166 185 186 
f 146 147 150 
f 150 148 151 
f 148 150 152 
f 146 150 156 
f 150 151 157 
f 151 148 158 
f 149 154 158 
f 150 147 161 
f 152 150 161 
f 146 156 162 
f 147 146 163 
f 159 152 163 
f 155 159 163 
f 145 154 165 
f 148 152 166 
f 152 159 166 
f 151 158 167 
f 158 154 167 
f 150 157 168 
f 157 160 168 
f 156 150 169 
f 150 160 169 
f 165 153 171 
f 160 165 171 
f 156 169 171 
f 169 160 171 
f 157 151 172 
f 149 159 173 
f 159 155 173 
f 154 149 174 
f 165 154 174 
f 153 164 175 
f 164 173 175 
f 160 150 176 
f 150 168 176 
f 168 160 176 
f 146 162 177 
f 163 146 177 
f 155 163 177 
f 173 155 177 
f 162 175 177 
f 175 173 177 
f 161 147 178 
f 152 161 178 
f 147 163 178 
f 163 152 178 
f 154 145 179 
f 160 157 179 
f 145 165 179 
f 165 160 179 
f 172 154 179 
f 157 172 179 
f 164 153 180 
f 153 165 180 
f 174 164 180 
f 165 174 180 
f 149 173 181 
f 173 164 181 
f 174 149 181 
f 164 174 181 
f 158 148 182 
f 149 158 182 
f 159 149 182 
f 170 159 182 
f 151 167 183 
f 167 154 183 
f 172 151 183 
f 154 172 183 
f 162 156 184 
f 171 153 184 
f 156 171 184 
f 175 162 184 
f 153 175 184 
f 166 159 185 
f 159 170 185 
f 185 170 186 
f 148 166 186 
f 182 148 186 
f 170 182 186 
o convex_5
v 0.010998 0.047228 0.008723
v -0.011128 0.041703 0.008298
v -0.011128 0.041703 0.008723
v -0.001767 0.062553 0.008298
v 0.011851 0.031489 0.008298
v -0.004319 0.061699 0.008723
v 0.002489 0.031489 0.008723
v 0.010571 0.048505 0.008298
v -0.005595 0.034044 0.008298
v 0.011851 0.031489 0.008723
v -0.010701 0.050634 0.008298
v -0.000914 0.062553 0.008723
v -0.007295 0.035324 0.008723
v -0.010701 0.050634 0.008723
f 192 197 200 
f 188 190 191 
f 189 187 192 
f 187 189 193 
f 187 191 194 
f 191 190 194 
f 188 191 195 
f 191 193 195 
f 191 187 196 
f 187 193 196 
f 193 191 196 
f 188 189 197 
f 190 188 197 
f 192 190 197 
f 192 187 198 
f 190 192 198 
f 187 194 198 
f 194 190 198 
f 189 188 199 
f 193 189 199 
f 188 195 199 
f 195 193 199 
f 189 192 200 
f 197 189 200 
o convex_6
v -0.028575 -0.039998 0.007447
v -0.028149 -0.039149 0.019361
v -0.028575 -0.039149 0.019361
v -0.027724 -0.029362 0.007447
v -0.027298 -0.035319 0.007447
v -0.027298 -0.029362 0.018509
v -0.028149 -0.029362 0.018084
v -0.028149 -0.043404 0.018082
v -0.028149 -0.043404 0.008726
v -0.028575 -0.036173 0.008726
v -0.028575 -0.043404 0.018082
v -0.028149 -0.029362 0.008725
v -0.027298 -0.029362 0.007447
v -0.027298 -0.031917 0.018509
f 208 205 214 
f 201 204 205 
f 203 202 206 
f 206 204 207 
f 203 206 207 
f 202 203 208 
f 201 205 209 
f 205 208 209 
f 201 203 210 
f 203 207 210 
f 203 201 211 
f 208 203 211 
f 201 209 211 
f 209 208 211 
f 204 201 212 
f 207 204 212 
f 201 210 212 
f 210 207 212 
f 205 204 213 
f 206 205 213 
f 204 206 213 
f 206 202 214 
f 205 206 214 
f 202 208 214 
o convex_7
v -0.012405 -0.087228 0.010428
v -0.013255 -0.074469 0.021064
v -0.013681 -0.074469 0.021064
v -0.013256 -0.054468 0.006171
v -0.013681 -0.083398 0.006173
v -0.013256 -0.054045 0.020211
v -0.012405 -0.072346 0.020208
v -0.013681 -0.048515 0.012980
v -0.013681 -0.088504 0.017657
v -0.012405 -0.072346 0.006598
v -0.012405 -0.085521 0.018933
v -0.013256 -0.048515 0.012980
v -0.013681 -0.054468 0.006171
v -0.013681 -0.054045 0.020211
v -0.013681 -0.089360 0.010428
v -0.012405 -0.084673 0.007452
v -0.012405 -0.068515 0.013405
v -0.013681 -0.084250 0.020208
v -0.012830 -0.088504 0.017230
v -0.013255 -0.078300 0.005747
f 230 219 234 
f 217 216 220 
f 220 216 221 
f 221 215 224 
f 221 216 225 
f 215 221 225 
f 220 221 226 
f 218 222 226 
f 222 220 226 
f 224 218 226 
f 222 218 227 
f 217 220 228 
f 220 222 228 
f 222 227 228 
f 227 219 229 
f 223 228 229 
f 228 227 229 
f 224 215 230 
f 215 229 230 
f 229 219 230 
f 221 224 231 
f 226 221 231 
f 224 226 231 
f 216 217 232 
f 225 216 232 
f 223 225 232 
f 228 223 232 
f 217 228 232 
f 215 225 233 
f 225 223 233 
f 229 215 233 
f 223 229 233 
f 218 224 234 
f 227 218 234 
f 219 227 234 
f 224 230 234 
o convex_8
v -0.021341 0.017021 0.021064
v -0.021767 0.014468 0.007448
v -0.021341 0.014468 0.007448
v -0.021767 0.017021 0.005745
v -0.023469 0.016595 0.019359
v -0.021341 0.014468 0.018936
v -0.023469 0.017021 0.007448
f 236 239 241 
f 237 236 238 
f 235 237 238 
f 239 236 240 
f 237 235 240 
f 236 237 240 
f 235 239 240 
f 238 236 241 
f 235 238 241 
f 239 235 241 
o convex_9
v -0.011128 0.031064 0.019787
v -0.011979 0.025106 0.010426
v -0.011554 0.025106 0.010426
v -0.011554 0.031915 0.010426
v -0.012830 0.031489 0.019787
v -0.011128 0.025106 0.018084
v -0.012830 0.031489 0.010426
v -0.011979 0.025106 0.018084
v -0.011128 0.031915 0.017659
f 242 247 250 
f 244 243 245 
f 243 244 247 
f 245 243 248 
f 246 245 248 
f 243 246 248 
f 242 246 249 
f 246 243 249 
f 243 247 249 
f 247 242 249 
f 244 245 250 
f 246 242 250 
f 245 246 250 
f 247 244 250 
o convex_10
v -0.016661 -0.064252 0.004468
v -0.023468 -0.047229 0.004043
v -0.023468 -0.047229 0.004468
v -0.015383 -0.029362 0.004468
v -0.015810 -0.052339 0.003617
v -0.019638 -0.029362 0.003617
v -0.022190 -0.029790 0.004468
v -0.020063 -0.055744 0.003617
v -0.015810 -0.029362 0.003617
v -0.019214 -0.064681 0.004043
v -0.015383 -0.060850 0.004043
v -0.023468 -0.037873 0.004043
v -0.021340 -0.037023 0.003617
v -0.020063 -0.062551 0.004468
f 252 260 264 
f 253 251 254 
f 254 256 257 
f 253 254 257 
f 256 255 258 
f 255 256 259 
f 256 254 259 
f 252 258 260 
f 258 255 260 
f 254 251 261 
f 259 254 261 
f 255 259 261 
f 251 260 261 
f 260 255 261 
f 252 253 262 
f 257 256 262 
f 253 257 262 
f 258 252 263 
f 256 258 263 
f 252 262 263 
f 262 256 263 
f 251 253 264 
f 253 252 264 
f 260 251 264 
o convex_11
v -0.023044 -0.087229 0.012556
v -0.026447 -0.060001 0.018510
v -0.026873 -0.060001 0.018510
v -0.026873 -0.060001 0.007447
v -0.021767 -0.082547 0.007447
v -0.021767 -0.084252 0.018510
v -0.025596 -0.074468 0.017232
v -0.025170 -0.076596 0.009151
v -0.025596 -0.061706 0.007447
v -0.026021 -0.060430 0.018510
v -0.023044 -0.084252 0.018510
v -0.022193 -0.085104 0.007447
v -0.021767 -0.088084 0.016381
v -0.023894 -0.085104 0.014680
v -0.026873 -0.062555 0.009150
v -0.023470 -0.085104 0.009577
v -0.021767 -0.088084 0.010426
v -0.024744 -0.074895 0.007447
v -0.026873 -0.062555 0.017658
v -0.025596 -0.074468 0.009577
v -0.024319 -0.083400 0.012978
v -0.025170 -0.074895 0.018510
v -0.026021 -0.060001 0.007447
v -0.023470 -0.084678 0.017657
f 286 271 288 
f 267 266 268 
f 266 267 270 
f 269 268 273 
f 266 270 274 
f 270 269 274 
f 269 273 274 
f 270 267 275 
f 268 269 276 
f 269 270 277 
f 270 275 277 
f 265 277 278 
f 267 268 279 
f 276 269 281 
f 269 277 281 
f 277 265 281 
f 265 280 281 
f 280 276 281 
f 272 268 282 
f 268 276 282 
f 276 280 282 
f 280 272 282 
f 267 279 283 
f 279 271 283 
f 268 272 284 
f 279 268 284 
f 271 279 284 
f 265 278 285 
f 278 271 285 
f 280 265 285 
f 272 280 285 
f 284 272 285 
f 271 284 285 
f 275 267 286 
f 267 283 286 
f 283 271 286 
f 268 266 287 
f 273 268 287 
f 266 274 287 
f 274 273 287 
f 277 275 288 
f 271 278 288 
f 278 277 288 
f 275 286 288 
o convex_12
v -0.006448 0.002979 0.007447
v -0.011978 -0.018298 0.007021
v -0.011553 -0.018298 0.007021
v -0.007724 0.002979 0.004894
v -0.011978 0.002979 0.005319
v -0.011978 -0.010638 0.004894
v -0.011978 -0.014891 0.007447
v -0.007724 0.001702 0.007447
v -0.006448 0.001702 0.007021
v -0.011978 0.002979 0.004894
f 292 294 298 
f 289 292 293 
f 290 293 294 
f 291 290 294 
f 292 291 294 
f 291 289 295 
f 290 291 295 
f 293 290 295 
f 293 295 296 
f 289 293 296 
f 295 289 296 
f 289 291 297 
f 291 292 297 
f 292 289 297 
f 293 292 298 
f 294 293 298 
o convex_13
v -0.011553 -0.018723 0.007448
v -0.006448 0.002979 0.018935
v -0.006448 0.002979 0.007448
v -0.011978 -0.016170 0.007874
v -0.011127 -0.017447 0.018935
v -0.008150 -0.001278 0.018935
v -0.006448 0.001275 0.007448
v -0.011978 -0.017020 0.018935
v -0.007299 0.002127 0.007448
v -0.006448 0.001275 0.018935
v -0.009851 -0.012765 0.007448
v -0.008576 -0.007664 0.018935
v -0.006874 0.002979 0.018935
v -0.011978 -0.018723 0.018935
v -0.008576 -0.002555 0.007448
f 304 307 313 
f 303 300 304 
f 299 301 305 
f 301 300 305 
f 303 304 306 
f 304 302 306 
f 301 299 307 
f 300 303 308 
f 305 300 308 
f 303 299 309 
f 299 305 309 
f 303 309 310 
f 308 303 310 
f 305 308 310 
f 309 305 310 
f 300 301 311 
f 304 300 311 
f 301 307 311 
f 307 304 311 
f 302 299 312 
f 299 303 312 
f 306 302 312 
f 303 306 312 
f 299 302 313 
f 302 304 313 
f 307 299 313 
o convex_14
v -0.008574 0.029787 0.019787
v -0.003894 0.031915 0.018085
v -0.003894 0.031915 0.017660
v -0.003894 0.025106 0.018936
v -0.011128 0.025106 0.017660
v -0.011128 0.031915 0.017660
v -0.003894 0.025106 0.017660
v -0.011128 0.031064 0.019787
v -0.003894 0.029361 0.019787
v -0.010277 0.026384 0.018936
f 321 318 323 
f 316 315 317 
f 316 318 319 
f 315 316 319 
f 316 317 320 
f 317 318 320 
f 318 316 320 
f 319 318 321 
f 315 319 321 
f 317 315 322 
f 314 317 322 
f 315 321 322 
f 321 314 322 
f 317 314 323 
f 318 317 323 
f 314 321 323 
o convex_15
v -0.007299 0.002552 0.021063
v -0.011978 -0.018723 0.018936
v -0.011553 -0.018723 0.018936
v -0.006873 0.002979 0.018936
v -0.011978 0.002979 0.021915
v -0.011553 -0.009784 0.021915
v -0.011978 0.002979 0.021489
v -0.008150 0.001702 0.021915
v -0.009851 -0.012765 0.019362
v -0.011978 -0.015743 0.018936
v -0.006448 0.001275 0.018936
v -0.011553 -0.014041 0.021063
v -0.011978 -0.009784 0.021915
f 335 329 336 
f 326 325 327 
f 324 327 328 
f 328 327 330 
f 325 328 330 
f 324 328 331 
f 328 329 331 
f 324 331 332 
f 327 325 333 
f 325 330 333 
f 330 327 333 
f 326 327 334 
f 327 324 334 
f 332 326 334 
f 324 332 334 
f 325 326 335 
f 331 329 335 
f 332 331 335 
f 326 332 335 
f 328 325 336 
f 329 328 336 
f 325 335 336 
o convex_16
v -0.011979 0.013191 0.024468
v -0.005171 0.013617 0.026596
v -0.003894 0.010212 0.022341
v -0.007724 0.005957 0.022341
v -0.014532 0.010212 0.021915
v -0.011553 0.013617 0.023192
v -0.009426 0.013191 0.026170
v -0.014105 0.008936 0.022341
v -0.003894 0.010212 0.021915
v -0.006873 0.005957 0.021915
v -0.005171 0.013617 0.025744
f 345 342 347 
f 341 337 342 
f 342 337 343 
f 340 338 343 
f 338 342 343 
f 337 341 344 
f 343 337 344 
f 340 343 344 
f 338 339 345 
f 341 342 345 
f 339 338 346 
f 338 340 346 
f 344 341 346 
f 340 344 346 
f 345 339 346 
f 341 345 346 
f 342 338 347 
f 338 345 347 
o convex_17
v -0.001767 0.075745 0.008723
v -0.011979 0.051065 0.008723
v -0.011553 0.050641 0.008723
v -0.006022 0.053621 0.018085
v -0.000064 0.049787 0.008723
v -0.001767 0.075745 0.017659
v -0.008149 0.073615 0.016808
v -0.000064 0.049787 0.018085
v -0.011979 0.051065 0.017659
v -0.007298 0.075745 0.009150
v -0.000064 0.071489 0.015957
v -0.011979 0.060426 0.010852
v -0.006872 0.075745 0.017659
v -0.009424 0.049787 0.018085
v -0.000916 0.074893 0.008723
v -0.011979 0.060426 0.015531
v -0.010276 0.049787 0.008723
v -0.008149 0.071062 0.008723
v -0.011979 0.054897 0.017659
v -0.000916 0.074893 0.017659
v -0.000064 0.055321 0.008723
v -0.011979 0.054470 0.008723
v -0.000064 0.054897 0.018085
v -0.008149 0.073615 0.010001
v -0.010701 0.049787 0.017659
f 364 361 372 
f 350 349 348 
f 350 348 352 
f 353 348 357 
f 355 352 358 
f 349 356 359 
f 353 357 360 
f 357 354 360 
f 355 351 361 
f 352 355 361 
f 351 360 361 
f 352 348 362 
f 348 353 362 
f 359 356 363 
f 354 359 363 
f 350 352 364 
f 352 361 364 
f 348 349 365 
f 357 348 365 
f 359 357 365 
f 360 354 366 
f 356 361 366 
f 361 360 366 
f 354 363 366 
f 363 356 366 
f 362 353 367 
f 358 362 367 
f 358 352 368 
f 352 362 368 
f 362 358 368 
f 349 359 369 
f 365 349 369 
f 359 365 369 
f 351 355 370 
f 355 358 370 
f 360 351 370 
f 353 360 370 
f 367 353 370 
f 358 367 370 
f 354 357 371 
f 359 354 371 
f 357 359 371 
f 349 350 372 
f 356 349 372 
f 361 356 372 
f 350 364 372 
o convex_18
v -0.015809 -0.057444 0.004468
v -0.013682 -0.029364 0.007446
v -0.013682 -0.029364 0.006595
v -0.016234 -0.032770 0.004894
v -0.014107 -0.054464 0.007446
v -0.013682 -0.057444 0.005745
v -0.015383 -0.029364 0.004468
v -0.014958 -0.040003 0.007021
v -0.016234 -0.047232 0.004894
v -0.014958 -0.057444 0.004468
v -0.014533 -0.032344 0.007446
v -0.013682 -0.054464 0.007446
f 377 378 384 
f 375 374 378 
f 377 373 378 
f 374 375 379 
f 376 374 379 
f 373 376 379 
f 375 378 379 
f 377 380 381 
f 376 373 381 
f 373 377 381 
f 380 376 381 
f 378 373 382 
f 373 379 382 
f 379 378 382 
f 374 376 383 
f 377 374 383 
f 376 380 383 
f 380 377 383 
f 374 377 384 
f 378 374 384 
o convex_19
v -0.002192 0.029361 0.019787
v -0.000916 0.024681 0.007448
v -0.000490 0.024681 0.007448
v -0.003894 0.031915 0.008725
v -0.003894 0.025107 0.018933
v -0.003894 0.025107 0.007874
v -0.000490 0.028510 0.019787
v -0.000490 0.028510 0.007448
v -0.000490 0.024681 0.019787
v -0.002617 0.031915 0.018082
v -0.003894 0.031915 0.018082
v -0.002617 0.031915 0.008725
v -0.003894 0.029361 0.007448
v -0.003468 0.024681 0.018933
v -0.003894 0.028935 0.019787
f 395 389 399 
f 389 388 390 
f 387 386 392 
f 391 387 392 
f 386 387 393 
f 387 391 393 
f 391 385 393 
f 385 391 394 
f 391 392 394 
f 388 389 395 
f 385 394 395 
f 394 388 395 
f 388 394 396 
f 394 392 396 
f 386 390 397 
f 390 388 397 
f 392 386 397 
f 388 396 397 
f 396 392 397 
f 390 386 398 
f 389 390 398 
f 386 393 398 
f 393 389 398 
f 393 385 399 
f 389 393 399 
f 385 395 399 
o convex_20
v -0.011978 0.026810 0.007873
v -0.003894 0.031915 0.009149
v -0.003894 0.025106 0.009149
v -0.012830 0.031489 0.010426
v -0.011127 0.031489 0.007447
v -0.011978 0.025106 0.010426
v -0.003894 0.028935 0.007447
v -0.005171 0.025106 0.007873
v -0.012830 0.031489 0.007447
v -0.011552 0.031915 0.010426
v -0.011978 0.025106 0.008724
f 405 408 410 
f 401 402 406 
f 404 401 406 
f 402 405 407 
f 400 406 407 
f 406 402 407 
f 401 404 408 
f 405 403 408 
f 406 400 408 
f 404 406 408 
f 402 401 409 
f 405 402 409 
f 403 405 409 
f 401 408 409 
f 408 403 409 
f 400 407 410 
f 407 405 410 
f 408 400 410 
o convex_21
v -0.014532 -0.025957 0.020211
v -0.011979 -0.014894 0.020211
v -0.011979 -0.014894 0.019786
v -0.013256 -0.028935 0.019360
v -0.013256 -0.019151 0.006596
v -0.013256 -0.028934 0.007447
v -0.011979 -0.021278 0.007447
v -0.014532 -0.029362 0.006596
v -0.011979 -0.015320 0.006596
v -0.011979 -0.021278 0.019360
v -0.012405 -0.014894 0.020211
v -0.014532 -0.029362 0.020211
v -0.014532 -0.026807 0.006596
v -0.013681 -0.029362 0.006596
v -0.012405 -0.015320 0.006596
v -0.012831 -0.016596 0.019786
f 425 415 426 
f 413 412 417 
f 414 416 417 
f 418 415 419 
f 413 417 419 
f 412 414 420 
f 417 412 420 
f 414 417 420 
f 411 412 421 
f 412 413 421 
f 412 411 422 
f 414 412 422 
f 411 418 422 
f 411 415 423 
f 418 411 423 
f 415 418 423 
f 416 414 424 
f 417 416 424 
f 418 419 424 
f 419 417 424 
f 414 422 424 
f 422 418 424 
f 419 415 425 
f 413 419 425 
f 421 413 425 
f 421 425 426 
f 415 411 426 
f 411 421 426 
o convex_22
v -0.001769 0.024682 0.023191
v -0.011552 0.031489 0.021065
v -0.011552 0.031489 0.019788
v -0.021341 0.024682 0.024893
v -0.001343 0.024682 0.019788
v -0.021341 0.026385 0.021064
v -0.000916 0.028936 0.021065
v -0.015383 0.031063 0.021916
v -0.011552 0.025533 0.024468
v -0.004323 0.028510 0.022340
v -0.000490 0.028510 0.019788
v -0.021341 0.025959 0.024467
v -0.021341 0.024682 0.024042
v -0.012830 0.031489 0.019788
v -0.014105 0.025107 0.024893
v -0.020914 0.027234 0.021064
v -0.012403 0.030211 0.022340
v -0.000916 0.027234 0.022340
f 437 433 444 
f 427 430 431 
f 429 428 433 
f 433 428 436 
f 431 429 437 
f 429 433 437 
f 432 430 438 
f 431 430 439 
f 432 431 439 
f 430 432 439 
f 428 429 440 
f 429 431 440 
f 431 432 440 
f 434 428 440 
f 430 427 441 
f 427 435 441 
f 438 430 441 
f 434 438 441 
f 432 438 442 
f 438 434 442 
f 440 432 442 
f 434 440 442 
f 428 434 443 
f 436 428 443 
f 435 436 443 
f 434 441 443 
f 441 435 443 
f 427 431 444 
f 435 427 444 
f 433 436 444 
f 436 435 444 
f 431 437 444 
o convex_23
v -0.026872 0.023404 0.004895
v -0.021767 0.017021 0.004895
v -0.021341 0.017021 0.004895
v -0.026872 0.023404 0.012553
v -0.021341 0.023404 0.000639
v -0.023044 0.017021 0.012553
v -0.026447 0.021701 0.001916
v -0.027298 0.020425 0.009998
v -0.021767 0.020000 0.000213
v -0.023894 0.017021 0.007445
v -0.025170 0.023404 0.000639
v -0.027298 0.020425 0.012553
v -0.023044 0.017448 0.012553
v -0.021341 0.017448 0.006594
v -0.021341 0.023404 0.001064
f 457 458 459 
f 445 448 449 
f 446 447 450 
f 448 445 452 
f 445 451 452 
f 447 446 453 
f 449 447 453 
f 446 451 453 
f 446 450 454 
f 451 446 454 
f 452 451 454 
f 445 449 455 
f 451 445 455 
f 449 453 455 
f 453 451 455 
f 450 448 456 
f 448 452 456 
f 454 450 456 
f 452 454 456 
f 448 450 457 
f 457 450 458 
f 447 449 458 
f 450 447 458 
f 458 449 459 
f 449 448 459 
f 448 457 459 
o convex_24
v -0.026872 0.024681 0.008297
v -0.021341 0.023830 0.026169
v -0.021341 0.023404 0.026169
v -0.021341 0.023404 0.000641
v -0.021341 0.026809 0.004044
v -0.021767 0.026809 0.022763
v -0.026447 0.023404 0.024892
v -0.026447 0.023404 0.001918
v -0.026020 0.024681 0.025317
v -0.026020 0.024681 0.001065
v -0.026447 0.025106 0.015959
v -0.027298 0.023404 0.015959
v -0.021341 0.026383 0.024040
v -0.021767 0.026809 0.004044
f 470 465 473 
f 461 462 463 
f 461 463 464 
f 463 462 466 
f 463 466 467 
f 462 461 468 
f 466 462 468 
f 464 463 469 
f 463 467 469 
f 467 460 469 
f 468 465 470 
f 468 470 471 
f 467 466 471 
f 460 467 471 
f 466 468 471 
f 470 460 471 
f 461 464 472 
f 464 465 472 
f 468 461 472 
f 465 468 472 
f 465 464 473 
f 469 460 473 
f 464 469 473 
f 460 470 473 
o convex_25
v -0.027298 -0.056594 0.007447
v -0.027723 -0.040427 0.018510
v -0.027298 -0.044256 0.007873
v -0.026448 -0.060000 0.018510
v -0.028149 -0.050211 0.018084
v -0.026022 -0.058295 0.007447
v -0.028149 -0.040000 0.007447
v -0.028149 -0.050211 0.008725
v -0.027298 -0.058720 0.008725
v -0.027298 -0.058720 0.017658
v -0.028149 -0.040427 0.018510
v -0.026448 -0.056594 0.018510
v -0.026873 -0.060000 0.007447
v -0.027723 -0.040000 0.007447
f 479 480 487 
f 476 475 479 
f 479 474 480 
f 480 474 481 
f 478 480 481 
f 481 474 482 
f 478 481 482 
f 477 478 483 
f 478 482 483 
f 477 475 484 
f 478 477 484 
f 475 480 484 
f 480 478 484 
f 475 477 485 
f 479 475 485 
f 477 479 485 
f 474 479 486 
f 479 477 486 
f 482 474 486 
f 477 483 486 
f 483 482 486 
f 475 476 487 
f 476 479 487 
f 480 475 487 
o convex_26
v -0.009851 0.049359 0.018085
v -0.011979 0.031915 0.017234
v -0.002618 0.031915 0.017234
v -0.009000 0.049787 0.017234
v -0.000064 0.032767 0.018085
v -0.000064 0.049787 0.017660
v -0.011979 0.031915 0.018085
v -0.000064 0.049787 0.018085
v -0.000064 0.033192 0.017234
v -0.011128 0.046381 0.017234
v -0.011979 0.040428 0.018085
f 488 497 498 
f 490 489 491 
f 489 490 494 
f 492 488 494 
f 490 492 494 
f 491 488 495 
f 488 492 495 
f 492 493 495 
f 493 491 495 
f 490 491 496 
f 492 490 496 
f 493 492 496 
f 491 493 496 
f 491 489 497 
f 488 491 497 
f 489 494 498 
f 494 488 498 
f 497 489 498 
o convex_27
v 0.010999 0.047232 0.018085
v -0.000064 0.032767 0.016383
v 0.002490 0.031489 0.016383
v 0.010148 0.048936 0.016383
v -0.000064 0.048936 0.018085
v 0.011851 0.031489 0.018085
v -0.000064 0.032767 0.018085
v 0.011851 0.031489 0.016383
v -0.000064 0.048936 0.017659
v 0.011851 0.040423 0.016383
v 0.010148 0.048936 0.018085
v 0.002490 0.031489 0.018085
f 504 505 510 
f 501 500 502 
f 499 503 504 
f 500 501 505 
f 503 500 505 
f 504 503 505 
f 501 502 506 
f 504 501 506 
f 502 500 507 
f 503 502 507 
f 500 503 507 
f 502 499 508 
f 499 504 508 
f 506 502 508 
f 504 506 508 
f 499 502 509 
f 503 499 509 
f 502 503 509 
f 501 504 510 
f 505 501 510 
o convex_28
v 0.010999 0.062556 0.010001
v 0.006744 0.075316 0.010001
v 0.006744 0.075316 0.015531
v 0.010999 0.057872 0.010001
v 0.012276 0.060001 0.015531
v 0.007596 0.075745 0.010001
v 0.011425 0.058301 0.015531
v 0.007596 0.075745 0.015531
v 0.012276 0.060001 0.011277
v 0.012276 0.057872 0.010852
v 0.010574 0.059149 0.010426
f 514 517 521 
f 512 511 514 
f 511 512 516 
f 512 513 516 
f 515 513 517 
f 513 515 518 
f 516 513 518 
f 515 516 518 
f 516 515 519 
f 511 516 519 
f 514 511 520 
f 517 514 520 
f 515 517 520 
f 511 519 520 
f 519 515 520 
f 513 512 521 
f 512 514 521 
f 517 513 521 
o convex_29
v -0.022617 -0.002133 0.007021
v -0.027298 -0.029355 0.006595
v -0.026447 -0.029355 0.005745
v -0.017937 -0.027656 0.004468
v -0.018789 -0.019144 0.004043
v -0.019639 0.001273 0.007021
v -0.019214 0.002976 0.005745
v -0.024744 -0.022977 0.004893
v -0.026447 -0.029355 0.007021
v -0.019639 -0.029362 0.003618
v -0.017937 0.002976 0.005745
v -0.025596 -0.014038 0.006595
v -0.017937 -0.029362 0.003618
v -0.017937 -0.002982 0.006170
v -0.021342 0.002124 0.006595
v -0.023467 -0.013193 0.005319
v -0.026447 -0.018296 0.007021
v -0.023893 -0.029362 0.004468
v -0.026021 -0.018296 0.006170
f 538 533 540 
f 527 522 530 
f 525 527 530 
f 529 526 531 
f 526 528 532 
f 525 530 534 
f 531 526 534 
f 532 525 534 
f 526 532 534 
f 527 525 535 
f 525 532 535 
f 532 527 535 
f 522 527 536 
f 527 532 536 
f 532 528 536 
f 533 522 536 
f 533 536 537 
f 528 526 537 
f 526 529 537 
f 536 528 537 
f 523 530 538 
f 530 522 538 
f 522 533 538 
f 523 524 539 
f 524 529 539 
f 530 523 539 
f 529 531 539 
f 534 530 539 
f 531 534 539 
f 524 523 540 
f 529 524 540 
f 533 537 540 
f 537 529 540 
f 523 538 540 
o convex_30
v -0.021341 0.017872 0.023618
v -0.005171 0.020000 0.027020
v -0.005171 0.013617 0.027020
v -0.020915 0.020000 0.026595
v -0.013256 0.013617 0.022766
v -0.020915 0.018723 0.022766
v -0.009427 0.013617 0.027020
v -0.005171 0.020000 0.026170
v -0.015383 0.013617 0.023192
v -0.017083 0.017446 0.027020
v -0.005171 0.013617 0.026170
v -0.021341 0.020000 0.024893
f 548 546 552 
f 543 542 547 
f 545 543 547 
f 542 543 548 
f 544 542 548 
f 545 546 548 
f 541 546 549 
f 546 545 549 
f 545 547 549 
f 549 547 550 
f 542 544 550 
f 544 541 550 
f 547 542 550 
f 541 549 550 
f 543 545 551 
f 548 543 551 
f 545 548 551 
f 541 544 552 
f 546 541 552 
f 544 548 552 
o convex_31
v -0.027724 -0.026380 0.007448
v -0.024321 -0.010638 0.019360
v -0.024321 -0.010638 0.018934
v -0.026872 -0.029362 0.019360
v -0.027298 -0.019578 0.018084
v -0.025171 -0.015321 0.007022
v -0.025597 -0.010638 0.012980
v -0.026872 -0.029362 0.007022
v -0.027723 -0.029362 0.019360
v -0.026872 -0.017025 0.008300
v -0.025597 -0.011491 0.018934
v -0.024321 -0.011916 0.018934
v -0.027724 -0.029362 0.007022
v -0.026447 -0.026807 0.007022
v -0.026022 -0.015321 0.007022
v -0.027724 -0.024254 0.008725
v -0.027723 -0.026807 0.019360
v -0.026022 -0.012341 0.017659
v -0.025171 -0.016597 0.007022
f 564 566 571 
f 554 555 559 
f 555 558 559 
f 556 554 561 
f 560 556 561 
f 554 559 563 
f 555 554 564 
f 554 556 564 
f 558 555 564 
f 558 560 565 
f 560 561 565 
f 556 560 566 
f 560 558 566 
f 564 556 566 
f 559 558 567 
f 553 562 567 
f 562 559 567 
f 565 553 567 
f 558 565 567 
f 562 553 568 
f 557 562 568 
f 553 565 568 
f 565 561 568 
f 561 554 569 
f 554 563 569 
f 563 557 569 
f 557 568 569 
f 568 561 569 
f 562 557 570 
f 559 562 570 
f 563 559 570 
f 557 563 570 
f 558 564 571 
f 566 558 571 
o convex_32
v -0.026021 -0.013190 0.007873
v -0.020490 0.002979 0.019360
v -0.020490 0.002979 0.018934
v -0.024744 -0.014465 0.007022
v -0.020916 0.002975 0.007022
v -0.025170 -0.008508 0.018084
v -0.024319 -0.010638 0.019360
v -0.021768 0.002975 0.008300
v -0.021767 0.002979 0.018509
v -0.020490 0.001700 0.007022
v -0.026447 -0.015317 0.012979
v -0.020490 0.002124 0.019360
v -0.024319 -0.005109 0.009150
v -0.025170 -0.010211 0.019360
v -0.024319 -0.007231 0.007022
v -0.023893 -0.009785 0.019360
v -0.023469 -0.002129 0.017659
v -0.026021 -0.015317 0.007022
v -0.025596 -0.015317 0.011277
v -0.025596 -0.010211 0.009150
f 584 586 591 
f 573 574 580 
f 574 576 580 
f 576 579 580 
f 574 573 581 
f 575 576 581 
f 576 574 581 
f 573 578 583 
f 581 573 583 
f 575 581 583 
f 578 573 585 
f 580 577 585 
f 573 580 585 
f 577 582 585 
f 582 578 585 
f 576 575 586 
f 579 576 586 
f 584 579 586 
f 583 578 587 
f 575 583 587 
f 577 580 588 
f 580 579 588 
f 584 577 588 
f 579 584 588 
f 582 572 589 
f 572 586 589 
f 586 575 589 
f 578 582 590 
f 575 587 590 
f 587 578 590 
f 582 589 590 
f 589 575 590 
f 572 582 591 
f 582 577 591 
f 577 584 591 
f 586 572 591 
o convex_33
v -0.011979 -0.014040 0.006596
v -0.017937 -0.029359 0.003618
v -0.017937 -0.029359 0.004043
v -0.017937 0.002976 0.006170
v -0.011979 0.002976 0.004894
v -0.014958 -0.029359 0.006596
v -0.015383 -0.027655 0.003618
v -0.014958 0.002976 0.004894
v -0.011979 -0.011067 0.004469
v -0.014108 -0.029359 0.006170
v -0.017937 -0.017446 0.004043
v -0.011979 0.002976 0.005319
v -0.017937 -0.002558 0.006170
v -0.017937 -0.000852 0.005319
v -0.011979 -0.017870 0.006170
v -0.016234 0.002976 0.006170
v -0.017937 -0.027655 0.004469
f 597 604 608 
f 593 594 595 
f 594 593 597 
f 592 595 597 
f 595 596 599 
f 596 598 599 
f 596 592 600 
f 598 596 600 
f 597 593 601 
f 592 597 601 
f 593 598 601 
f 593 595 602 
f 598 593 602 
f 599 598 602 
f 592 596 603 
f 596 595 603 
f 595 594 604 
f 597 595 604 
f 595 599 605 
f 602 595 605 
f 599 602 605 
f 600 592 606 
f 598 600 606 
f 601 598 606 
f 592 601 606 
f 595 592 607 
f 592 603 607 
f 603 595 607 
f 594 597 608 
f 604 594 608 
o convex_34
v -0.001341 0.014044 0.021490
v -0.004319 0.019999 0.027021
v -0.005171 0.019999 0.027021
v -0.001341 0.024680 0.021490
v -0.005171 0.024680 0.023192
v -0.005171 0.013618 0.025744
v -0.001341 0.017873 0.024893
v -0.004745 0.013618 0.027021
v -0.002192 0.013618 0.021490
v -0.001767 0.024254 0.023618
v -0.002192 0.013618 0.024467
v -0.003468 0.019573 0.027021
v -0.000915 0.017022 0.024043
f 615 619 621 
f 611 613 614 
f 610 611 616 
f 611 614 616 
f 612 609 617 
f 613 612 617 
f 614 613 617 
f 616 614 617 
f 611 610 618 
f 612 613 618 
f 613 611 618 
f 615 616 619 
f 617 609 619 
f 616 617 619 
f 610 616 620 
f 616 615 620 
f 618 610 620 
f 615 618 620 
f 609 612 621 
f 612 618 621 
f 618 615 621 
f 619 609 621 
o convex_35
v -0.016661 -0.053613 0.023191
v -0.024744 -0.060420 0.021064
v -0.024744 -0.060420 0.021490
v -0.024318 -0.029372 0.021490
v -0.015809 -0.037449 0.021490
v -0.017937 -0.082976 0.021064
v -0.020066 -0.034473 0.023191
v -0.015809 -0.029362 0.022766
v -0.022616 -0.051493 0.022765
v -0.022616 -0.075314 0.021490
v -0.015809 -0.067657 0.022340
v -0.024318 -0.035759 0.022340
v -0.018789 -0.077440 0.021915
v -0.020066 -0.053193 0.023191
v -0.021340 -0.029372 0.022765
v -0.015809 -0.030217 0.021915
v -0.016235 -0.033198 0.023191
v -0.023893 -0.056589 0.021064
v -0.024318 -0.051493 0.022340
v -0.015809 -0.067657 0.021915
v -0.023041 -0.073609 0.021064
v -0.017937 -0.082976 0.021490
v -0.020915 -0.038730 0.023191
f 633 640 644 
f 623 624 625 
f 626 629 632 
f 625 624 633 
f 632 622 634 
f 630 631 635 
f 634 622 635 
f 631 634 635 
f 629 625 636 
f 625 633 636 
f 626 625 637 
f 629 626 637 
f 625 629 637 
f 622 632 638 
f 632 629 638 
f 635 622 638 
f 628 635 638 
f 629 636 638 
f 636 628 638 
f 623 625 639 
f 625 626 639 
f 626 627 639 
f 624 631 640 
f 631 630 640 
f 633 624 640 
f 627 626 641 
f 626 632 641 
f 632 627 641 
f 624 623 642 
f 631 624 642 
f 627 631 642 
f 623 639 642 
f 639 627 642 
f 631 627 643 
f 627 632 643 
f 634 631 643 
f 632 634 643 
f 635 628 644 
f 630 635 644 
f 628 636 644 
f 636 633 644 
f 640 630 644 
o convex_36
v -0.021341 0.026809 0.007449
v -0.012830 0.031489 0.021064
v -0.012830 0.031063 0.021064
v -0.012830 0.031063 0.007449
v -0.014534 0.031915 0.007449
v -0.021341 0.026383 0.021064
v -0.014534 0.031915 0.021064
v -0.018787 0.027235 0.007449
v -0.018787 0.027235 0.021064
v -0.020914 0.027235 0.021064
v -0.016661 0.030638 0.010427
v -0.020489 0.026383 0.007449
v -0.012830 0.031915 0.012129
f 651 646 657 
f 646 647 648 
f 648 645 649 
f 647 646 650 
f 650 646 651 
f 648 647 652 
f 645 648 652 
f 647 650 653 
f 652 647 653 
f 645 650 654 
f 650 651 654 
f 654 651 655 
f 649 645 655 
f 651 649 655 
f 645 654 655 
f 650 645 656 
f 645 652 656 
f 653 650 656 
f 652 653 656 
f 646 648 657 
f 648 649 657 
f 649 651 657 
o convex_37
v -0.020064 0.002124 0.020638
v -0.027298 -0.029357 0.019362
v -0.027298 -0.029357 0.020213
v -0.017937 -0.029360 0.022340
v -0.020064 0.002124 0.019362
v -0.023043 -0.027230 0.022340
v -0.025596 -0.014465 0.020213
v -0.017937 -0.014468 0.022340
v -0.017937 0.002976 0.020213
v -0.024319 -0.017443 0.021489
v -0.023042 -0.002981 0.019362
v -0.020917 -0.029360 0.022766
v -0.018363 0.002976 0.021063
v -0.026872 -0.029357 0.019362
v -0.025170 -0.028932 0.021915
v -0.018789 -0.021273 0.022766
v -0.026447 -0.017443 0.019362
v -0.020916 0.002548 0.020213
v -0.026447 -0.018718 0.020213
f 664 674 676 
f 661 662 666 
f 665 661 666 
f 662 659 668 
f 660 659 669 
f 659 661 669 
f 665 666 670 
f 658 667 670 
f 661 659 671 
f 662 661 671 
f 659 662 671 
f 663 667 672 
f 660 669 672 
f 669 663 672 
f 661 665 673 
f 667 663 673 
f 669 661 673 
f 663 669 673 
f 665 670 673 
f 670 667 673 
f 659 660 674 
f 668 659 674 
f 664 668 674 
f 666 662 675 
f 664 667 675 
f 667 658 675 
f 662 668 675 
f 668 664 675 
f 658 670 675 
f 670 666 675 
f 667 664 676 
f 660 672 676 
f 672 667 676 
f 674 660 676 
o convex_38
v -0.011980 0.011490 0.004469
v -0.021341 0.019148 0.001065
v -0.021341 0.018722 0.001491
v -0.020488 0.013617 0.012553
v -0.020063 0.010213 0.007021
v -0.009426 0.014044 0.001065
v -0.020488 0.010213 0.012553
v -0.015383 0.010213 0.004469
v -0.020913 0.020000 0.001491
v -0.011980 0.010213 0.004469
v -0.011129 0.013618 0.001065
v -0.021341 0.013618 0.007870
v -0.009852 0.014044 0.001917
v -0.019637 0.010639 0.012553
v -0.020913 0.018297 0.004895
v -0.021341 0.014895 0.009148
f 680 691 692 
f 679 678 681 
f 683 681 684 
f 681 678 684 
f 682 678 685 
f 683 684 686 
f 686 684 687 
f 678 682 687 
f 684 678 687 
f 682 686 687 
f 678 679 688 
f 679 681 688 
f 681 683 688 
f 682 685 689 
f 677 686 689 
f 686 682 689 
f 680 683 690 
f 686 677 690 
f 683 686 690 
f 677 689 690 
f 689 680 690 
f 685 678 691 
f 680 689 691 
f 689 685 691 
f 683 680 692 
f 678 688 692 
f 688 683 692 
f 691 678 692 
o convex_39
v -0.011979 0.002979 0.021489
v -0.017937 -0.029360 0.022340
v -0.014958 -0.029360 0.020213
v -0.017937 0.002979 0.020639
v -0.014108 -0.020848 0.022766
v -0.011979 -0.017021 0.020213
v -0.017937 -0.020000 0.022766
v -0.014108 0.002979 0.021915
v -0.015383 -0.029360 0.022766
v -0.012405 -0.012770 0.022340
v -0.017937 0.002979 0.021064
v -0.017937 -0.004254 0.020639
v -0.015809 0.002979 0.020639
v -0.014108 -0.029360 0.020639
v -0.011979 0.002979 0.021915
v -0.011979 -0.013618 0.020213
v -0.011979 -0.014045 0.021489
f 707 702 709 
f 696 694 699 
f 693 696 700 
f 694 695 701 
f 699 694 701 
f 697 699 701 
f 697 701 702 
f 696 699 703 
f 699 700 703 
f 700 696 703 
f 695 694 704 
f 696 695 704 
f 694 696 704 
f 696 693 705 
f 695 698 706 
f 701 695 706 
f 698 693 707 
f 699 697 707 
f 700 699 707 
f 693 700 707 
f 697 702 707 
f 695 696 708 
f 698 695 708 
f 693 698 708 
f 705 693 708 
f 696 705 708 
f 702 701 709 
f 706 698 709 
f 701 706 709 
f 698 707 709 
o convex_40
v 0.008447 0.072338 0.010000
v 0.002489 0.055745 0.008724
v 0.006320 0.057873 0.008723
v 0.002489 0.075745 0.008724
v 0.010999 0.057873 0.008723
v 0.011425 0.057873 0.010000
v 0.002489 0.055745 0.009149
v 0.007170 0.075316 0.008723
v 0.006745 0.075745 0.010000
v 0.002489 0.075745 0.009149
v 0.011425 0.059578 0.009574
f 714 717 720 
f 712 711 713 
f 711 712 714 
f 711 714 715 
f 713 711 716 
f 711 715 716 
f 712 713 717 
f 714 712 717 
f 715 710 718 
f 716 715 718 
f 717 713 718 
f 710 717 718 
f 713 716 719 
f 718 713 719 
f 716 718 719 
f 710 715 720 
f 715 714 720 
f 717 710 720 
o convex_41
v -0.026872 0.022978 0.022765
v -0.023895 0.017021 0.012554
v -0.027297 0.020425 0.012554
v -0.021341 0.023404 0.025744
v -0.026872 0.023404 0.012554
v -0.023895 0.017021 0.019362
v -0.021341 0.019575 0.026169
v -0.026446 0.021700 0.024893
v -0.023043 0.017448 0.012554
v -0.021341 0.017021 0.020213
v -0.025595 0.023404 0.025744
v -0.027297 0.020425 0.016809
v -0.027723 0.022978 0.013831
v -0.023470 0.020425 0.026169
f 731 728 734 
f 722 723 725 
f 723 722 726 
f 725 724 729 
f 722 725 729 
f 726 722 730 
f 724 727 730 
f 727 726 730 
f 729 724 730 
f 722 729 730 
f 725 721 731 
f 724 725 731 
f 721 728 731 
f 723 726 732 
f 726 728 732 
f 728 721 732 
f 721 725 733 
f 725 723 733 
f 732 721 733 
f 723 732 733 
f 727 724 734 
f 726 727 734 
f 728 726 734 
f 724 731 734 
o convex_42
v -0.002617 0.014469 0.001916
v -0.000490 0.024680 0.009148
v -0.000490 0.024680 0.007020
v -0.002617 0.024680 0.003192
v -0.001766 0.013618 0.009148
v -0.000915 0.017448 0.002342
v -0.000490 0.015746 0.009148
v -0.001766 0.013618 0.003192
v -0.002192 0.019999 0.001065
v -0.000915 0.024680 0.009148
v -0.002617 0.013618 0.004469
v -0.002617 0.024680 0.004043
v -0.001766 0.024254 0.003192
v -0.000490 0.016597 0.005744
f 742 740 748 
f 736 737 738 
f 737 736 741 
f 736 739 741 
f 741 739 742 
f 735 740 742 
f 735 738 743 
f 740 735 743 
f 736 738 744 
f 739 736 744 
f 738 735 745 
f 742 739 745 
f 735 742 745 
f 744 738 746 
f 739 744 746 
f 738 745 746 
f 745 739 746 
f 738 737 747 
f 737 740 747 
f 743 738 747 
f 740 743 747 
f 740 737 748 
f 737 741 748 
f 741 742 748 
o convex_43
v -0.020064 0.002979 0.006170
v -0.007724 0.010213 0.004043
v -0.007724 0.009361 0.004469
v -0.020064 0.010213 0.007872
v -0.007724 0.002979 0.006170
v -0.008576 0.009786 0.003192
v -0.021341 0.002979 0.007872
v -0.011555 0.003404 0.004469
v -0.019211 0.010213 0.006170
v -0.007724 0.002979 0.004894
v -0.014956 0.010213 0.004469
v -0.014956 0.002979 0.004894
f 749 759 760 
f 751 750 752 
f 750 751 753 
f 751 752 753 
f 749 753 755 
f 753 752 755 
f 752 750 757 
f 749 755 757 
f 755 752 757 
f 753 749 758 
f 750 753 758 
f 754 750 758 
f 756 754 758 
f 750 754 759 
f 757 750 759 
f 749 757 759 
f 754 756 760 
f 758 749 760 
f 756 758 760 
f 759 754 760 
o convex_44
v -0.007298 0.003831 0.004894
v -0.003043 0.010213 0.007872
v -0.003469 0.010213 0.007872
v -0.006447 0.010213 0.002766
v -0.007724 0.010213 0.004043
v -0.006873 0.003831 0.007872
v -0.003469 0.009786 0.004894
v -0.006022 0.002979 0.007446
v -0.007724 0.002979 0.006595
f 761 768 769 
f 763 762 764 
f 764 761 765 
f 763 764 765 
f 763 765 766 
f 762 763 766 
f 764 762 767 
f 761 764 767 
f 762 766 768 
f 761 767 768 
f 767 762 768 
f 765 761 769 
f 766 765 769 
f 768 766 769 
o convex_45
v -0.004745 0.010213 0.021914
v -0.006873 0.002979 0.007872
v -0.006022 0.002979 0.007872
v -0.003043 0.010213 0.007872
v -0.006022 0.002979 0.019360
v -0.007724 0.006808 0.021487
v -0.003043 0.009361 0.019360
v -0.007724 0.002979 0.021061
v -0.003894 0.009786 0.007872
v -0.003469 0.010213 0.021487
v -0.006447 0.004682 0.007872
v -0.003043 0.009361 0.007872
v -0.007298 0.004255 0.021914
f 774 779 782 
f 772 771 773 
f 771 772 774 
f 774 772 776 
f 771 774 777 
f 775 771 777 
f 773 771 778 
f 770 773 778 
f 775 770 778 
f 773 770 779 
f 776 773 779 
f 774 776 779 
f 771 775 780 
f 778 771 780 
f 775 778 780 
f 772 773 781 
f 776 772 781 
f 773 776 781 
f 770 775 782 
f 777 774 782 
f 775 777 782 
f 779 770 782 
o convex_46
v -0.014107 -0.054036 0.018936
v -0.015383 -0.029362 0.022766
v -0.014533 -0.029362 0.021489
v -0.013682 -0.067660 0.021063
v -0.015809 -0.067660 0.021489
v -0.015809 -0.033197 0.021063
v -0.013682 -0.029362 0.018936
v -0.015809 -0.067660 0.022340
v -0.014533 -0.035746 0.018936
v -0.013682 -0.067660 0.020213
v -0.014958 -0.064252 0.022340
v -0.015809 -0.029362 0.022766
v -0.013682 -0.055315 0.021063
v -0.013682 -0.029362 0.019788
f 785 795 796 
f 784 785 789 
f 787 786 790 
f 788 787 790 
f 783 787 791 
f 787 788 791 
f 789 783 791 
f 788 789 791 
f 787 783 792 
f 786 787 792 
f 789 786 792 
f 783 789 792 
f 786 784 793 
f 784 790 793 
f 790 786 793 
f 784 789 794 
f 789 788 794 
f 790 784 794 
f 788 790 794 
f 785 784 795 
f 784 786 795 
f 786 789 795 
f 795 789 796 
f 789 785 796 
o convex_47
v -0.020489 0.010213 0.012555
v -0.011980 0.013617 0.024041
v -0.012831 0.013617 0.024041
v -0.020914 0.014894 0.009149
v -0.021339 0.018298 0.022765
v -0.019637 0.010213 0.020211
v -0.011980 0.010213 0.021913
v -0.021339 0.013618 0.018933
v -0.020489 0.018298 0.022338
v -0.021339 0.013618 0.009149
v -0.014959 0.010213 0.022338
v -0.011980 0.013617 0.023190
v -0.020489 0.013618 0.009149
v -0.021339 0.017446 0.022765
v -0.019637 0.010213 0.012555
f 809 803 811 
f 799 798 801 
f 802 797 803 
f 797 802 804 
f 800 801 805 
f 801 798 805 
f 801 800 806 
f 797 804 806 
f 804 801 806 
f 798 799 807 
f 803 798 807 
f 802 803 807 
f 798 803 808 
f 805 798 808 
f 800 805 808 
f 806 800 809 
f 797 806 809 
f 808 803 809 
f 800 808 809 
f 799 801 810 
f 801 804 810 
f 804 802 810 
f 807 799 810 
f 802 807 810 
f 803 797 811 
f 797 809 811 
o convex_48
v 0.010999 0.047232 0.013404
v -0.000064 0.032767 0.008723
v 0.002490 0.031489 0.008723
v 0.010148 0.048936 0.008723
v -0.000064 0.048936 0.013404
v 0.011851 0.031489 0.013404
v -0.000064 0.032767 0.013404
v 0.011851 0.031489 0.008723
v -0.000064 0.048936 0.008723
v 0.011851 0.040423 0.008723
v 0.010148 0.048936 0.013404
v 0.002490 0.031489 0.013404
v 0.011851 0.040423 0.013404
v 0.011425 0.045106 0.008723
f 812 824 825 
f 814 813 815 
f 812 816 817 
f 813 814 818 
f 816 813 818 
f 817 816 818 
f 814 815 819 
f 817 814 819 
f 815 813 820 
f 816 815 820 
f 813 816 820 
f 819 815 821 
f 817 819 821 
f 812 815 822 
f 816 812 822 
f 815 816 822 
f 814 817 823 
f 818 814 823 
f 817 818 823 
f 812 817 824 
f 817 821 824 
f 824 821 825 
f 815 812 825 
f 821 815 825 
o convex_49
v 0.001638 0.075745 0.015532
v -0.000064 0.048936 0.017659
v -0.000064 0.048936 0.018085
v 0.005893 0.048936 0.017659
v 0.005893 0.075745 0.018085
v 0.000787 0.073191 0.018085
v -0.000064 0.054471 0.015532
v -0.000064 0.071488 0.015958
v 0.001638 0.054898 0.015532
v 0.005893 0.048936 0.018085
v 0.005893 0.075745 0.017659
v 0.002064 0.075745 0.015532
v 0.001638 0.075745 0.018085
f 826 833 838 
f 828 827 829 
f 828 830 831 
f 827 828 832 
f 829 827 832 
f 828 831 833 
f 826 832 833 
f 832 828 833 
f 832 826 834 
f 829 832 834 
f 828 829 835 
f 829 830 835 
f 830 828 835 
f 826 830 836 
f 830 829 836 
f 834 826 837 
f 829 834 837 
f 826 836 837 
f 836 829 837 
f 830 826 838 
f 831 830 838 
f 833 831 838 
o convex_50
v -0.015809 -0.068938 0.022340
v -0.017937 -0.087660 0.018936
v -0.014533 -0.087660 0.018936
v -0.013682 -0.067660 0.020213
v -0.014533 -0.084678 0.021063
v -0.017937 -0.067660 0.022340
v -0.017937 -0.083404 0.021489
v -0.013682 -0.080422 0.021063
v -0.017937 -0.069788 0.021489
v -0.013682 -0.084678 0.018936
v -0.014533 -0.067660 0.021915
v -0.014958 -0.076174 0.021915
f 849 839 850 
f 840 841 843 
f 840 843 845 
f 844 840 845 
f 839 844 845 
f 842 840 847 
f 840 844 847 
f 844 842 847 
f 841 840 848 
f 840 842 848 
f 843 841 848 
f 842 846 848 
f 846 843 848 
f 842 844 849 
f 844 839 849 
f 846 842 849 
f 846 849 850 
f 839 845 850 
f 845 843 850 
f 843 846 850 
o convex_51
v -0.019213 0.010213 0.020211
v -0.021341 0.002979 0.007874
v -0.020490 0.002979 0.007874
v -0.019213 0.002979 0.020638
v -0.021341 0.003404 0.019360
v -0.019639 0.010213 0.007874
v -0.020064 0.010213 0.019785
v -0.019639 0.005958 0.007874
v -0.020064 0.010213 0.007874
v -0.021341 0.004255 0.008300
f 859 852 860 
f 852 853 854 
f 852 854 855 
f 853 852 856 
f 851 856 857 
f 854 851 857 
f 855 854 857 
f 854 853 858 
f 851 854 858 
f 853 856 858 
f 856 851 858 
f 856 852 859 
f 857 856 859 
f 857 859 860 
f 852 855 860 
f 855 857 860 
o convex_52
v -0.017936 0.006808 0.019787
v -0.014106 0.010213 0.021915
v -0.014106 0.010213 0.021489
v -0.007724 0.002979 0.020638
v -0.018361 0.002979 0.021064
v -0.007724 0.002979 0.021915
v -0.019213 0.010213 0.019787
v -0.008151 0.007233 0.021489
v -0.019213 0.002979 0.019787
v -0.014106 0.002979 0.021915
v -0.015382 0.010213 0.021915
v -0.018786 0.010213 0.020638
f 865 871 872 
f 865 864 866 
f 862 863 867 
f 864 861 867 
f 863 862 868 
f 862 866 868 
f 866 864 868 
f 867 863 868 
f 864 867 868 
f 861 864 869 
f 864 865 869 
f 867 861 869 
f 866 862 870 
f 865 866 870 
f 862 867 871 
f 870 862 871 
f 865 870 871 
f 869 865 872 
f 867 869 872 
f 871 867 872 
o convex_53
v -0.011979 0.013191 0.003616
v -0.005596 0.013191 -0.000213
v -0.007724 0.010213 0.002766
v -0.004745 0.011064 0.004042
v -0.011979 0.010213 0.004042
v -0.009851 0.013191 0.000639
v -0.004745 0.013617 0.001065
v -0.004745 0.010213 0.003191
f 874 879 880 
f 876 873 877 
f 875 877 878 
f 874 875 878 
f 877 873 878 
f 878 873 879 
f 873 876 879 
f 874 878 879 
f 879 876 880 
f 875 874 880 
f 876 877 880 
f 877 875 880 
o convex_54
v -0.005170 0.010213 0.022337
v -0.001341 0.013617 0.013828
v -0.001341 0.013191 0.013828
v -0.004745 0.013617 0.000213
v -0.005170 0.013617 0.026596
v -0.003468 0.010213 0.004045
v -0.002618 0.010213 0.019362
v -0.002192 0.013191 0.024039
v -0.001341 0.013191 0.006597
v -0.004745 0.010213 0.003619
v -0.002192 0.013617 0.002343
v -0.002618 0.010213 0.007023
v -0.004744 0.010213 0.023616
v -0.001342 0.013617 0.020212
f 888 887 894 
f 884 881 885 
f 882 884 885 
f 881 886 887 
f 882 883 889 
f 881 884 890 
f 886 881 890 
f 884 886 890 
f 884 882 891 
f 886 884 891 
f 882 889 891 
f 891 889 892 
f 883 887 892 
f 887 886 892 
f 889 883 892 
f 886 891 892 
f 885 881 893 
f 881 887 893 
f 888 885 893 
f 887 888 893 
f 883 882 894 
f 882 885 894 
f 887 883 894 
f 885 888 894 
o convex_55
v -0.020489 0.021277 0.026595
v -0.005171 0.024681 0.023618
v -0.005171 0.024681 0.023192
v -0.005171 0.020000 0.025744
v -0.021341 0.020000 0.025744
v -0.021341 0.024681 0.024468
v -0.013680 0.022128 0.027021
v -0.006448 0.020000 0.027021
v -0.021341 0.023830 0.026170
v -0.006022 0.023830 0.023192
v -0.011128 0.024681 0.024894
v -0.016659 0.020000 0.027021
v -0.005596 0.020851 0.026595
f 905 901 907 
f 897 896 898 
f 896 897 900 
f 899 898 902 
f 899 895 903 
f 900 899 903 
f 895 901 903 
f 897 898 904 
f 898 899 904 
f 900 897 904 
f 899 900 904 
f 896 900 905 
f 900 903 905 
f 903 901 905 
f 895 899 906 
f 901 895 906 
f 899 902 906 
f 902 901 906 
f 898 896 907 
f 902 898 907 
f 901 902 907 
f 896 905 907 
o convex_56
v -0.000915 0.024680 0.021063
v -0.001766 0.013618 0.009149
v -0.001341 0.013618 0.009149
v -0.002192 0.013618 0.021489
v -0.000490 0.016171 0.020211
v -0.000915 0.024680 0.009149
v -0.001766 0.024680 0.020637
v -0.000490 0.024680 0.009149
v -0.000490 0.015746 0.009149
v -0.000490 0.024680 0.019785
v -0.001341 0.013618 0.021063
v -0.001766 0.014895 0.009149
f 911 914 919 
f 909 910 911 
f 910 909 913 
f 908 913 914 
f 911 908 914 
f 910 913 915 
f 913 908 915 
f 915 912 916 
f 910 915 916 
f 908 912 917 
f 915 908 917 
f 912 915 917 
f 911 910 918 
f 908 911 918 
f 912 908 918 
f 910 916 918 
f 916 912 918 
f 909 911 919 
f 913 909 919 
f 914 913 919 
o convex_57
v -0.021341 0.024681 0.002341
v -0.013257 0.031915 0.007447
v -0.012406 0.031489 0.007447
v -0.021341 0.026384 0.007447
v -0.012406 0.024681 0.002767
v -0.014108 0.031915 0.005319
v -0.021341 0.025107 0.001491
v -0.012406 0.025107 0.001916
v -0.021341 0.026809 0.003618
v -0.015810 0.031064 0.007447
v -0.012406 0.031064 0.004893
v -0.018787 0.027234 0.007447
f 924 922 931 
f 922 921 923 
f 923 920 924 
f 920 923 926 
f 924 920 927 
f 922 924 927 
f 920 926 927 
f 926 923 928 
f 925 926 928 
f 923 921 929 
f 921 925 929 
f 928 923 929 
f 925 928 929 
f 921 922 930 
f 925 921 930 
f 926 925 930 
f 927 926 930 
f 922 927 930 
f 922 923 931 
f 923 924 931 
o convex_58
v -0.001341 0.024682 0.004043
v -0.011553 0.031489 0.007446
v -0.011553 0.031489 0.005318
v -0.012405 0.024682 0.002767
v -0.000490 0.024682 0.007446
v -0.000490 0.028510 0.005318
v -0.011979 0.025107 0.001915
v -0.000915 0.028936 0.007446
v -0.011979 0.030638 0.007446
v -0.003469 0.027660 0.004043
v -0.012405 0.031063 0.004893
v -0.001341 0.024682 0.007446
v -0.001767 0.025532 0.003618
f 938 941 944 
f 935 932 936 
f 936 932 937 
f 932 935 938 
f 934 933 939 
f 933 936 939 
f 936 937 939 
f 937 934 939 
f 936 933 940 
f 934 937 941 
f 941 938 942 
f 933 934 942 
f 938 935 942 
f 940 933 942 
f 935 940 942 
f 934 941 942 
f 935 936 943 
f 940 935 943 
f 936 940 943 
f 937 932 944 
f 932 938 944 
f 941 937 944 
o convex_59
v -0.011979 0.040429 0.008723
v -0.009000 0.049787 0.017233
v -0.009852 0.049787 0.017233
v -0.011553 0.031915 0.017233
v -0.008575 0.031915 0.008723
v -0.008575 0.049787 0.008723
v -0.011979 0.031915 0.008723
v -0.011979 0.040429 0.017233
v -0.008575 0.037025 0.013404
v -0.010702 0.048082 0.008723
v -0.011128 0.046379 0.017233
v -0.011979 0.031915 0.017233
v -0.008575 0.049787 0.013404
v -0.009852 0.049787 0.008723
f 954 947 958 
f 946 947 948 
f 947 946 950 
f 949 945 950 
f 945 949 951 
f 949 948 951 
f 948 947 952 
f 945 951 952 
f 946 948 953 
f 948 949 953 
f 949 950 953 
f 950 945 954 
f 945 952 955 
f 952 947 955 
f 954 945 955 
f 947 954 955 
f 951 948 956 
f 948 952 956 
f 952 951 956 
f 950 946 957 
f 946 953 957 
f 953 950 957 
f 947 950 958 
f 950 954 958 
o convex_60
v 0.000787 0.072338 0.008723
v 0.002063 0.075745 0.015532
v 0.001638 0.075745 0.015532
v 0.001638 0.055745 0.015532
v 0.002489 0.055745 0.008723
v 0.002489 0.075745 0.008723
v 0.001212 0.055745 0.008723
v 0.000787 0.072338 0.015532
v 0.001212 0.055745 0.015532
v 0.001212 0.075316 0.008723
f 966 961 968 
f 960 961 962 
f 960 962 963 
f 960 963 964 
f 961 960 964 
f 963 959 964 
f 959 963 965 
f 963 962 965 
f 962 961 966 
f 959 965 966 
f 966 965 967 
f 965 962 967 
f 962 966 967 
f 964 959 968 
f 961 964 968 
f 959 966 968 
o convex_61
v -0.000064 0.033191 0.017234
v -0.008575 0.031915 0.008723
v -0.008575 0.034043 0.008723
v -0.000064 0.034043 0.008723
v -0.002618 0.031915 0.008723
v -0.003043 0.031915 0.017234
v -0.003043 0.033617 0.017234
v -0.000064 0.032766 0.008723
v -0.000064 0.034043 0.013829
f 975 969 977 
f 970 971 972 
f 970 972 973 
f 970 973 974 
f 971 970 974 
f 971 974 975 
f 974 969 975 
f 972 969 976 
f 973 972 976 
f 974 973 976 
f 969 974 976 
f 972 971 977 
f 969 972 977 
f 971 975 977 
o convex_62
v -0.000916 0.038299 0.013830
v -0.008575 0.034043 0.008723
v -0.000064 0.034043 0.008723
v -0.000064 0.049787 0.008723
v -0.008575 0.049787 0.013404
v -0.008575 0.049787 0.008723
v -0.006447 0.034469 0.013404
v -0.000064 0.049787 0.013404
v -0.000064 0.034043 0.013404
v -0.008575 0.036596 0.013404
v -0.003896 0.045957 0.013830
v -0.002618 0.034043 0.013830
f 978 988 989 
f 980 979 981 
f 979 982 983 
f 981 979 983 
f 982 981 983 
f 980 981 985 
f 981 982 985 
f 979 980 986 
f 985 978 986 
f 980 985 986 
f 982 979 987 
f 979 984 987 
f 978 985 988 
f 985 982 988 
f 982 987 988 
f 988 987 989 
f 984 979 989 
f 979 986 989 
f 986 978 989 
f 987 984 989 
o convex_63
v -0.000064 0.032767 0.013404
v 0.009297 0.038298 0.016383
v 0.009297 0.038298 0.013404
v 0.009297 0.031489 0.016383
v -0.000064 0.033193 0.016383
v 0.009297 0.031489 0.013404
v 0.002491 0.031489 0.016383
v 0.002491 0.031489 0.013404
f 996 990 997 
f 992 991 993 
f 992 990 994 
f 991 992 994 
f 993 991 994 
f 990 992 995 
f 992 993 995 
f 995 993 996 
f 994 990 996 
f 993 994 996 
f 990 995 997 
f 995 996 997 
o convex_64
v 0.011851 0.040423 0.013404
v 0.010149 0.048936 0.016383
v 0.009723 0.048936 0.016383
v 0.011851 0.031489 0.016383
v 0.009297 0.031489 0.013404
v 0.009297 0.031489 0.016383
v 0.009723 0.048936 0.013404
v 0.011851 0.031489 0.013404
v 0.011425 0.045529 0.016383
v 0.010999 0.047232 0.013404
v 0.009297 0.039152 0.016383
f 1004 1002 1008 
f 999 1000 1001 
f 1001 1000 1003 
f 1002 1001 1003 
f 1000 999 1004 
f 998 1002 1004 
f 998 1001 1005 
f 1002 998 1005 
f 1001 1002 1005 
f 999 1001 1006 
f 1001 998 1006 
f 1004 999 1007 
f 998 1004 1007 
f 999 1006 1007 
f 1006 998 1007 
f 1003 1000 1008 
f 1002 1003 1008 
f 1000 1004 1008 
o convex_65
v -0.000064 0.048936 0.008723
v 0.001638 0.055745 0.015532
v 0.001213 0.055745 0.015532
v 0.001213 0.055745 0.008723
v 0.006319 0.048936 0.013403
v 0.006319 0.055745 0.008723
v -0.000064 0.048936 0.013403
v 0.006319 0.048936 0.008723
v 0.006319 0.053617 0.013403
v -0.000064 0.055319 0.015532
v -0.000064 0.055319 0.008723
f 1009 1018 1019 
f 1011 1010 1012 
f 1012 1010 1014 
f 1009 1012 1014 
f 1009 1013 1015 
f 1013 1009 1016 
f 1014 1013 1016 
f 1009 1014 1016 
f 1010 1013 1017 
f 1014 1010 1017 
f 1013 1014 1017 
f 1010 1011 1018 
f 1011 1012 1018 
f 1013 1010 1018 
f 1009 1015 1018 
f 1015 1013 1018 
f 1012 1009 1019 
f 1018 1012 1019 
o convex_66
v 0.010999 0.064256 0.015532
v 0.005893 0.048936 0.017659
v 0.009296 0.048936 0.015532
v 0.011849 0.051064 0.018085
v 0.005893 0.075745 0.018085
v 0.006745 0.075745 0.015532
v 0.007171 0.074889 0.018085
v 0.011849 0.051064 0.015532
v 0.005893 0.048936 0.018085
v 0.012276 0.057874 0.016383
v 0.011849 0.055321 0.018085
v 0.007596 0.075745 0.016809
v 0.010148 0.048936 0.018085
f 1023 1028 1032 
f 1021 1024 1025 
f 1020 1022 1025 
f 1022 1021 1025 
f 1024 1023 1026 
f 1022 1020 1027 
f 1021 1022 1028 
f 1023 1024 1028 
f 1024 1021 1028 
f 1027 1020 1029 
f 1023 1027 1029 
f 1026 1023 1030 
f 1029 1026 1030 
f 1023 1029 1030 
f 1025 1024 1031 
f 1020 1025 1031 
f 1024 1026 1031 
f 1029 1020 1031 
f 1026 1029 1031 
f 1022 1027 1032 
f 1027 1023 1032 
f 1028 1022 1032 
o convex_67
v 0.010148 0.048936 0.008723
v 0.012275 0.057871 0.015532
v 0.011850 0.057871 0.015532
v 0.010574 0.057872 0.008723
v 0.006319 0.053192 0.013403
v 0.006319 0.057872 0.008723
v 0.010148 0.048936 0.015532
v 0.006319 0.048936 0.008723
v 0.011850 0.051065 0.008723
v 0.006319 0.048936 0.013403
v 0.011850 0.051065 0.015532
v 0.012275 0.057871 0.010426
v 0.009297 0.049787 0.015532
f 1042 1039 1045 
f 1035 1034 1036 
f 1037 1035 1038 
f 1035 1036 1038 
f 1036 1033 1038 
f 1034 1035 1039 
f 1037 1038 1040 
f 1038 1033 1040 
f 1033 1039 1040 
f 1033 1036 1041 
f 1039 1033 1041 
f 1037 1040 1042 
f 1040 1039 1042 
f 1034 1039 1043 
f 1041 1034 1043 
f 1039 1041 1043 
f 1036 1034 1044 
f 1034 1041 1044 
f 1041 1036 1044 
f 1035 1037 1045 
f 1039 1035 1045 
f 1037 1042 1045 
o convex_68
v -0.018788 -0.086805 0.006595
v -0.027298 -0.054898 0.007021
v -0.027298 -0.054898 0.007446
v -0.017937 -0.063832 0.004894
v -0.023042 -0.075317 0.005320
v -0.024745 -0.051915 0.004468
v -0.017937 -0.086380 0.007446
v -0.022191 -0.084679 0.007446
v -0.017937 -0.073616 0.004468
v -0.026447 -0.052772 0.007446
v -0.022191 -0.051915 0.004468
v -0.018363 -0.084679 0.005320
v -0.024320 -0.075739 0.007021
v -0.021766 -0.084679 0.006170
v -0.026872 -0.054898 0.006170
v -0.022191 -0.051915 0.004894
v -0.020066 -0.070204 0.004468
v -0.027298 -0.051915 0.006595
v -0.017937 -0.063832 0.004468
f 1056 1049 1064 
f 1046 1052 1053 
f 1052 1048 1053 
f 1049 1052 1054 
f 1048 1052 1055 
f 1052 1049 1055 
f 1054 1051 1056 
f 1052 1046 1057 
f 1054 1052 1057 
f 1048 1047 1058 
f 1053 1048 1058 
f 1053 1058 1059 
f 1046 1053 1059 
f 1057 1046 1059 
f 1050 1057 1059 
f 1058 1050 1059 
f 1051 1050 1060 
f 1058 1047 1060 
f 1050 1058 1060 
f 1055 1049 1061 
f 1056 1051 1061 
f 1049 1056 1061 
f 1050 1051 1062 
f 1051 1054 1062 
f 1057 1050 1062 
f 1054 1057 1062 
f 1047 1048 1063 
f 1048 1055 1063 
f 1060 1047 1063 
f 1051 1060 1063 
f 1061 1051 1063 
f 1055 1061 1063 
f 1049 1054 1064 
f 1054 1056 1064 
o convex_69
v -0.017936 0.017872 -0.000213
v -0.002617 0.024680 0.004043
v -0.002617 0.024680 0.003191
v -0.002617 0.013618 0.002766
v -0.003044 0.019572 -0.000213
v -0.021341 0.024680 0.001915
v -0.004745 0.013618 -0.000213
v -0.014530 0.022551 -0.000212
v -0.017507 0.017022 0.001064
v -0.010705 0.013618 0.000639
v -0.019638 0.024253 0.002340
v -0.021341 0.024253 0.000639
v -0.021341 0.019149 0.001064
v -0.003895 0.024254 0.004043
v -0.021341 0.023402 0.000213
v -0.014105 0.024680 0.001490
v -0.002617 0.018726 0.000213
v -0.003044 0.013618 0.002766
f 1078 1075 1082 
f 1067 1066 1068 
f 1066 1067 1070 
f 1065 1069 1071 
f 1069 1065 1072 
f 1067 1069 1072 
f 1065 1071 1074 
f 1071 1068 1074 
f 1073 1065 1074 
f 1066 1070 1075 
f 1065 1073 1077 
f 1075 1070 1077 
f 1070 1076 1077 
f 1068 1066 1078 
f 1066 1075 1078 
f 1072 1065 1079 
f 1076 1072 1079 
f 1065 1077 1079 
f 1077 1076 1079 
f 1070 1067 1080 
f 1067 1072 1080 
f 1076 1070 1080 
f 1072 1076 1080 
f 1067 1068 1081 
f 1069 1067 1081 
f 1068 1071 1081 
f 1071 1069 1081 
f 1074 1068 1082 
f 1073 1074 1082 
f 1077 1073 1082 
f 1075 1077 1082 
f 1068 1078 1082 
o convex_70
v -0.014532 -0.044253 0.007874
v -0.013681 -0.029362 0.018936
v -0.013681 -0.029362 0.007448
v -0.013681 -0.054043 0.007874
v -0.014107 -0.053615 0.018936
v -0.014532 -0.035749 0.018936
v -0.013681 -0.053615 0.018936
v -0.014107 -0.029362 0.007448
v -0.014107 -0.054043 0.007448
v -0.014532 -0.035749 0.007448
v -0.014532 -0.043828 0.018936
v -0.014107 -0.029362 0.018936
f 1090 1088 1094 
f 1085 1084 1086 
f 1087 1084 1088 
f 1086 1084 1089 
f 1087 1086 1089 
f 1084 1087 1089 
f 1084 1085 1090 
f 1085 1086 1091 
f 1087 1083 1091 
f 1086 1087 1091 
f 1090 1085 1091 
f 1090 1091 1092 
f 1083 1088 1092 
f 1088 1090 1092 
f 1091 1083 1092 
f 1083 1087 1093 
f 1087 1088 1093 
f 1088 1083 1093 
f 1088 1084 1094 
f 1084 1090 1094 
o convex_71
v -0.021766 -0.085107 0.018510
v -0.018363 -0.090212 0.010852
v -0.017937 -0.090212 0.010852
v -0.021340 -0.084256 0.007447
v -0.021766 -0.088510 0.010852
v -0.017937 -0.087659 0.018510
v -0.020064 -0.089361 0.017233
v -0.017937 -0.086809 0.007447
v -0.020915 -0.088084 0.008299
v -0.017937 -0.090212 0.015956
v -0.021766 -0.088084 0.016807
v -0.021766 -0.085958 0.007447
v -0.017937 -0.088084 0.007447
f 1106 1102 1107 
f 1098 1095 1100 
f 1100 1095 1101 
f 1099 1096 1101 
f 1100 1097 1102 
f 1098 1100 1102 
f 1096 1099 1103 
f 1096 1097 1104 
f 1097 1100 1104 
f 1100 1101 1104 
f 1101 1096 1104 
f 1095 1099 1105 
f 1101 1095 1105 
f 1099 1101 1105 
f 1095 1098 1106 
f 1099 1095 1106 
f 1098 1102 1106 
f 1103 1099 1106 
f 1103 1106 1107 
f 1097 1096 1107 
f 1102 1097 1107 
f 1096 1103 1107 
o convex_72
v -0.021341 -0.029362 0.004468
v -0.028149 -0.044680 0.007021
v -0.028149 -0.044680 0.007446
v -0.022618 -0.051915 0.004894
v -0.026021 -0.034896 0.004894
v -0.026872 -0.029362 0.007446
v -0.024745 -0.051915 0.004468
v -0.026872 -0.051915 0.007446
v -0.021341 -0.030214 0.004894
v -0.027298 -0.029362 0.006170
v -0.023895 -0.029362 0.004468
v -0.027298 -0.051489 0.006170
v -0.026872 -0.040850 0.005319
v -0.022618 -0.051915 0.004468
v -0.028149 -0.034896 0.007021
f 1117 1120 1122 
f 1113 1110 1115 
f 1114 1111 1115 
f 1108 1113 1116 
f 1115 1111 1116 
f 1113 1115 1116 
f 1113 1108 1117 
f 1108 1114 1118 
f 1114 1112 1118 
f 1117 1108 1118 
f 1112 1117 1118 
f 1110 1109 1119 
f 1115 1110 1119 
f 1114 1115 1119 
f 1112 1114 1120 
f 1117 1112 1120 
f 1119 1109 1120 
f 1114 1119 1120 
f 1111 1114 1121 
f 1114 1108 1121 
f 1108 1116 1121 
f 1116 1111 1121 
f 1109 1110 1122 
f 1110 1113 1122 
f 1113 1117 1122 
f 1120 1109 1122 
o convex_73
v -0.018363 -0.085952 0.020638
v -0.026872 -0.060854 0.018511
v -0.026872 -0.060854 0.018936
v -0.022617 -0.084678 0.018936
v -0.017937 -0.087230 0.018511
v -0.024319 -0.059152 0.021064
v -0.022193 -0.080421 0.021064
v -0.017937 -0.082123 0.021064
v -0.026021 -0.059579 0.018511
v -0.026446 -0.060004 0.020212
v -0.024744 -0.075743 0.018511
v -0.023893 -0.060004 0.020638
v -0.020916 -0.087230 0.018511
v -0.021767 -0.084250 0.020638
v -0.024744 -0.075743 0.018936
v -0.025170 -0.061282 0.021064
f 1132 1129 1138 
f 1123 1127 1130 
f 1129 1123 1130 
f 1128 1129 1130 
f 1127 1124 1131 
f 1128 1131 1132 
f 1124 1125 1132 
f 1131 1124 1132 
f 1125 1124 1133 
f 1124 1127 1133 
f 1130 1127 1134 
f 1128 1130 1134 
f 1127 1131 1134 
f 1131 1128 1134 
f 1127 1123 1135 
f 1126 1133 1135 
f 1133 1127 1135 
f 1123 1129 1136 
f 1135 1123 1136 
f 1126 1135 1136 
f 1132 1125 1137 
f 1129 1132 1137 
f 1125 1133 1137 
f 1133 1126 1137 
f 1136 1129 1137 
f 1126 1136 1137 
f 1129 1128 1138 
f 1128 1132 1138 
o convex_74
v -0.017085 -0.088510 0.018935
v -0.017937 -0.090213 0.010852
v -0.017937 -0.089361 0.010852
v -0.013682 -0.088936 0.010852
v -0.014107 -0.085532 0.018510
v -0.014107 -0.089787 0.015957
v -0.017937 -0.087235 0.018935
v -0.017937 -0.090213 0.015957
v -0.013682 -0.087235 0.018935
f 1143 1145 1147 
f 1140 1141 1142 
f 1142 1141 1143 
f 1140 1142 1144 
f 1141 1140 1145 
f 1143 1141 1145 
f 1140 1144 1146 
f 1144 1139 1146 
f 1145 1140 1146 
f 1139 1145 1146 
f 1142 1143 1147 
f 1139 1144 1147 
f 1144 1142 1147 
f 1145 1139 1147 
o convex_75
v -0.027723 -0.053187 0.018511
v -0.024320 -0.039152 0.022340
v -0.024746 -0.039152 0.022340
v -0.027723 -0.029362 0.018511
v -0.024320 -0.059146 0.020638
v -0.027723 -0.042131 0.020638
v -0.024320 -0.029362 0.021489
v -0.024746 -0.057018 0.021914
v -0.026447 -0.059146 0.018511
v -0.026447 -0.029362 0.021063
v -0.026447 -0.059146 0.020213
v -0.028149 -0.032770 0.019362
v -0.027298 -0.029362 0.018511
v -0.026022 -0.043408 0.021914
v -0.027298 -0.049784 0.020638
v -0.028149 -0.048082 0.018937
v -0.025597 -0.031919 0.021914
f 1153 1161 1164 
f 1149 1152 1154 
f 1149 1150 1155 
f 1152 1149 1155 
f 1148 1151 1156 
f 1154 1151 1157 
f 1152 1155 1158 
f 1148 1156 1158 
f 1156 1152 1158 
f 1153 1157 1159 
f 1157 1151 1159 
f 1151 1154 1160 
f 1154 1152 1160 
f 1156 1151 1160 
f 1152 1156 1160 
f 1155 1150 1161 
f 1158 1155 1162 
f 1155 1161 1162 
f 1161 1153 1162 
f 1151 1148 1163 
f 1148 1158 1163 
f 1159 1151 1163 
f 1153 1159 1163 
f 1162 1153 1163 
f 1158 1162 1163 
f 1150 1149 1164 
f 1149 1154 1164 
f 1157 1153 1164 
f 1154 1157 1164 
f 1161 1150 1164 
o convex_76
v -0.014958 -0.057447 0.004468
v -0.017937 -0.083402 0.005319
v -0.014958 -0.083402 0.005319
v -0.014107 -0.057447 0.006595
v -0.013682 -0.083402 0.007021
v -0.017937 -0.063834 0.004468
v -0.017937 -0.079146 0.005745
v -0.013682 -0.077017 0.005319
v -0.015384 -0.071486 0.004468
v -0.013682 -0.057447 0.005745
v -0.017937 -0.063834 0.004894
v -0.017937 -0.073188 0.004468
f 1170 1173 1176 
f 1166 1167 1169 
f 1169 1168 1171 
f 1166 1169 1171 
f 1170 1166 1171 
f 1169 1167 1172 
f 1170 1165 1173 
f 1165 1172 1173 
f 1172 1167 1173 
f 1165 1168 1174 
f 1168 1169 1174 
f 1172 1165 1174 
f 1169 1172 1174 
f 1168 1165 1175 
f 1165 1170 1175 
f 1171 1168 1175 
f 1170 1171 1175 
f 1167 1166 1176 
f 1166 1170 1176 
f 1173 1167 1176 
o convex_77
v -0.014107 -0.085958 0.006596
v -0.013682 -0.088510 0.010851
v -0.014107 -0.088510 0.010851
v -0.014107 -0.083404 0.007022
v -0.017937 -0.089361 0.008723
v -0.017937 -0.083404 0.005745
v -0.017937 -0.089361 0.010851
v -0.014533 -0.089787 0.009999
v -0.016234 -0.084681 0.005319
v -0.014533 -0.088936 0.008297
f 1181 1185 1186 
f 1179 1178 1180 
f 1178 1177 1180 
f 1178 1179 1183 
f 1179 1180 1183 
f 1182 1181 1183 
f 1180 1182 1183 
f 1178 1183 1184 
f 1183 1181 1184 
f 1180 1177 1185 
f 1181 1182 1185 
f 1182 1180 1185 
f 1177 1178 1186 
f 1178 1184 1186 
f 1184 1181 1186 
f 1185 1177 1186 
