o convex_0
v -0.009631 -0.089268 0.020410
v -0.031760 -0.058287 0.000249
v -0.031760 -0.058287 0.019916
v -0.015040 -0.053365 0.000249
v -0.019958 -0.089264 -0.000244
v -0.015533 -0.053365 0.020410
v -0.007171 -0.081401 0.000249
v -0.021924 -0.087299 0.019916
v -0.031269 -0.053369 0.020410
v -0.007171 -0.081401 0.019916
v -0.007664 -0.087793 -0.000244
v -0.031269 -0.053369 -0.000244
v -0.023893 -0.083366 0.000249
v -0.028809 -0.069601 0.019916
v -0.016515 -0.090746 0.019916
v -0.012582 -0.090746 0.000249
v -0.014055 -0.055828 0.019916
v -0.007171 -0.087299 0.019916
v -0.028809 -0.069601 0.000249
v -0.015533 -0.053365 -0.000244
v -0.019467 -0.089264 0.020410
v -0.014055 -0.055828 0.000249
v -0.023893 -0.083366 0.019916
v -0.009631 -0.089762 0.019916
v -0.016515 -0.090746 0.000249
v -0.031760 -0.053369 0.000249
v -0.021433 -0.087789 -0.000244
v -0.012582 -0.090746 0.019916
v -0.008155 -0.077460 0.000249
v -0.009631 -0.089762 0.000249
v -0.019467 -0.089758 0.019916
v -0.007664 -0.081401 0.020410
v -0.028318 -0.069601 0.020410
v -0.007171 -0.087299 0.000249
v -0.031760 -0.053369 0.019916
v -0.008155 -0.077460 0.019916
v -0.028318 -0.069601 -0.000244
v -0.007664 -0.081401 -0.000244
v -0.015040 -0.053365 0.019916
v -0.019467 -0.089758 0.000249
v -0.021924 -0.087299 0.000249
v -0.030775 -0.062220 0.000249
f 37 19 42 
f 1 6 9 
f 11 5 12 
f 5 11 16 
f 7 10 18 
f 13 14 19 
f 6 4 20 
f 11 12 20 
f 1 9 21 
f 15 1 21 
f 4 17 22 
f 20 4 22 
f 13 8 23 
f 14 13 23 
f 8 21 23 
f 18 1 24 
f 11 18 24 
f 5 16 25 
f 16 15 25 
f 2 3 26 
f 12 2 26 
f 6 20 26 
f 20 12 26 
f 12 5 27 
f 1 15 28 
f 15 16 28 
f 24 1 28 
f 16 24 28 
f 10 7 29 
f 22 17 29 
f 16 11 30 
f 11 24 30 
f 24 16 30 
f 21 8 31 
f 15 21 31 
f 25 15 31 
f 6 1 32 
f 17 6 32 
f 1 18 32 
f 18 10 32 
f 9 3 33 
f 3 14 33 
f 21 9 33 
f 14 23 33 
f 23 21 33 
f 11 7 34 
f 7 18 34 
f 18 11 34 
f 3 9 35 
f 9 6 35 
f 26 3 35 
f 6 26 35 
f 10 29 36 
f 29 17 36 
f 17 32 36 
f 32 10 36 
f 2 12 37 
f 13 19 37 
f 12 27 37 
f 27 13 37 
f 7 11 38 
f 11 20 38 
f 20 22 38 
f 29 7 38 
f 22 29 38 
f 4 6 39 
f 17 4 39 
f 6 17 39 
f 5 25 40 
f 27 5 40 
f 31 8 40 
f 25 31 40 
f 8 13 41 
f 13 27 41 
f 27 40 41 
f 40 8 41 
f 3 2 42 
f 14 3 42 
f 19 14 42 
f 2 37 42 
o convex_1
v -0.027333 -0.016969 0.019916
v -0.032745 -0.052379 0.000249
v -0.032745 -0.052379 0.019916
v -0.015040 -0.053365 0.000249
v -0.011598 -0.016969 -0.000244
v -0.011105 -0.020414 0.019916
v -0.015534 -0.053365 0.020410
v -0.028809 -0.019431 0.000249
v -0.032745 -0.036642 0.019916
v -0.011598 -0.016969 0.020410
v -0.032253 -0.036147 -0.000244
v -0.031268 -0.053365 0.020410
v -0.026841 -0.016969 -0.000244
v -0.031762 -0.053365 -0.000244
v -0.011105 -0.020414 0.000249
v -0.030285 -0.025330 0.020410
v -0.030777 -0.025330 0.000249
v -0.015040 -0.053365 0.019916
v -0.015534 -0.053365 -0.000244
v -0.030777 -0.025330 0.019916
v -0.032745 -0.036642 0.000249
v -0.028809 -0.019431 0.019916
v -0.011105 -0.016969 0.000249
v -0.026841 -0.016969 0.020410
v -0.027826 -0.017464 0.000249
v -0.011105 -0.016969 0.019916
v -0.032253 -0.036642 0.020410
v -0.031762 -0.030746 0.019916
f 51 69 70 
f 44 45 51 
f 47 43 52 
f 49 48 52 
f 46 49 54 
f 49 52 54 
f 43 47 55 
f 47 53 55 
f 45 44 56 
f 44 53 56 
f 53 47 56 
f 54 45 56 
f 46 54 56 
f 48 46 57 
f 54 52 58 
f 50 55 59 
f 55 53 59 
f 46 48 60 
f 49 46 60 
f 48 49 60 
f 46 56 61 
f 56 47 61 
f 57 46 61 
f 47 57 61 
f 50 59 62 
f 44 51 63 
f 53 44 63 
f 59 53 63 
f 50 62 64 
f 62 58 64 
f 47 52 65 
f 57 47 65 
f 48 57 65 
f 52 43 66 
f 58 52 66 
f 43 64 66 
f 64 58 66 
f 43 55 67 
f 55 50 67 
f 64 43 67 
f 50 64 67 
f 52 48 68 
f 65 52 68 
f 48 65 68 
f 51 45 69 
f 45 54 69 
f 54 58 69 
f 69 58 70 
f 58 62 70 
f 62 59 70 
f 63 51 70 
f 59 63 70 
o convex_2
v 0.000208 0.025822 0.020410
v -0.026842 -0.016969 0.000249
v -0.026350 -0.016969 -0.000244
v -0.010614 -0.016969 0.019916
v 0.000208 -0.003687 -0.000244
v -0.014546 0.025822 -0.000244
v -0.021923 0.017457 0.019916
v -0.026350 -0.016969 0.020410
v 0.000208 0.025822 -0.000244
v 0.000208 -0.003197 0.020410
v -0.021923 0.017457 0.000249
v -0.010614 -0.016969 0.000249
v -0.014546 0.025822 0.020410
v -0.026842 -0.014506 0.019916
v -0.026842 -0.014506 0.000249
v 0.000208 -0.003687 0.019916
v -0.011106 -0.016969 0.020410
v -0.021430 0.017457 -0.000244
v -0.021430 0.017457 0.020410
v -0.011106 -0.016969 -0.000244
v -0.010121 -0.016474 0.019916
v -0.015531 0.024833 0.019916
v -0.010121 -0.016474 0.000249
v -0.026842 -0.016969 0.019916
v -0.015531 0.024833 0.000249
f 81 92 95 
f 72 73 74 
f 75 73 76 
f 72 74 78 
f 71 75 79 
f 75 76 79 
f 76 71 79 
f 75 71 80 
f 71 78 80 
f 74 73 82 
f 71 76 83 
f 78 71 83 
f 77 81 84 
f 84 81 85 
f 73 72 85 
f 72 84 85 
f 75 80 86 
f 78 74 87 
f 80 78 87 
f 76 73 88 
f 81 76 88 
f 85 81 88 
f 73 85 88 
f 83 77 89 
f 78 83 89 
f 84 78 89 
f 77 84 89 
f 73 75 90 
f 82 73 90 
f 74 82 91 
f 75 86 91 
f 86 80 91 
f 87 74 91 
f 80 87 91 
f 81 77 92 
f 83 76 92 
f 77 83 92 
f 90 75 93 
f 82 90 93 
f 91 82 93 
f 75 91 93 
f 72 78 94 
f 84 72 94 
f 78 84 94 
f 76 81 95 
f 92 76 95 
o convex_3
v -0.016514 0.065656 -0.000244
v 0.000208 0.090244 0.020410
v 0.000208 0.090746 0.019916
v 0.000208 0.025822 -0.000244
v -0.014547 0.025822 0.020410
v 0.000208 0.090244 -0.000244
v 0.000208 0.025822 0.020410
v -0.013564 0.076479 0.020410
v -0.014547 0.025822 -0.000244
v -0.017990 0.046978 0.019916
v -0.005696 0.090746 0.000249
v -0.017990 0.046978 0.000249
v -0.005696 0.090746 0.019916
v -0.017990 0.060241 0.019916
v -0.013564 0.076479 -0.000244
v -0.017990 0.060241 0.000249
v -0.015530 0.070575 -0.000244
v -0.007662 0.087784 0.000249
v -0.015530 0.070085 0.020410
v -0.007662 0.087784 0.019916
v -0.017497 0.046489 0.020410
v 0.000208 0.090746 0.000249
v -0.011595 0.080412 -0.000244
v -0.017497 0.046489 -0.000244
v -0.015530 0.070575 0.019916
v -0.005204 0.090244 0.020410
v -0.005696 0.090244 -0.000244
v -0.011595 0.080412 0.019916
f 115 118 123 
f 98 97 99 
f 98 99 101 
f 99 96 101 
f 99 97 102 
f 100 99 102 
f 97 100 102 
f 100 97 103 
f 96 99 104 
f 99 100 104 
f 104 100 105 
f 104 105 107 
f 97 98 108 
f 98 106 108 
f 107 105 109 
f 101 96 110 
f 107 109 111 
f 110 96 112 
f 103 110 112 
f 111 109 112 
f 96 111 112 
f 108 106 113 
f 100 103 114 
f 108 113 115 
f 105 100 116 
f 109 105 116 
f 100 114 116 
f 114 109 116 
f 98 101 117 
f 101 106 117 
f 106 98 117 
f 101 110 118 
f 110 103 118 
f 115 113 118 
f 96 104 119 
f 104 107 119 
f 111 96 119 
f 107 111 119 
f 103 112 120 
f 112 109 120 
f 114 103 120 
f 109 114 120 
f 103 97 121 
f 97 108 121 
f 115 103 121 
f 108 115 121 
f 106 101 122 
f 113 106 122 
f 101 118 122 
f 118 113 122 
f 103 115 123 
f 118 103 123 
o convex_4
v 0.025292 -0.081398 0.020410
v 0.008077 -0.084347 0.000249
v 0.008077 -0.084347 0.019916
v 0.015456 -0.053864 0.020410
v 0.031686 -0.053861 -0.000244
v 0.021846 -0.088283 -0.000244
v 0.015456 -0.053864 -0.000244
v 0.031686 -0.053861 0.020410
v 0.012505 -0.089759 0.019916
v 0.031686 -0.061729 0.000249
v 0.021356 -0.088283 0.020410
v 0.012505 -0.089267 -0.000244
v 0.031686 -0.061729 0.019916
v 0.024800 -0.084347 0.000249
v 0.019390 -0.089759 0.000249
v 0.009554 -0.087299 0.020410
v 0.024800 -0.084347 0.019916
v 0.009062 -0.087299 0.000249
v 0.019390 -0.089759 0.019916
v 0.011031 -0.071569 0.019916
v 0.029717 -0.068617 0.000249
v 0.008077 -0.083855 0.000249
v 0.012505 -0.089759 0.000249
v 0.023815 -0.086315 0.019916
v 0.008572 -0.083363 -0.000244
v 0.025784 -0.081398 0.019916
v 0.023325 -0.086807 -0.000244
v 0.021356 -0.088775 0.019916
v 0.009062 -0.087299 0.019916
v 0.011031 -0.071569 0.000249
v 0.029717 -0.068617 0.019916
v 0.031686 -0.061237 -0.000244
v 0.008077 -0.083855 0.019916
v 0.008572 -0.083363 0.020410
v 0.025784 -0.081398 0.000249
v 0.009554 -0.087791 0.000249
v 0.031194 -0.061729 0.020410
f 154 136 160 
f 127 128 130 
f 128 129 130 
f 127 124 131 
f 128 127 131 
f 128 131 133 
f 124 127 134 
f 130 129 135 
f 133 131 136 
f 135 129 138 
f 134 127 139 
f 132 134 139 
f 126 125 141 
f 134 132 142 
f 132 138 142 
f 127 130 143 
f 133 136 144 
f 125 126 145 
f 138 132 146 
f 135 138 146 
f 124 134 147 
f 140 124 147 
f 137 140 147 
f 130 135 148 
f 141 125 148 
f 135 141 148 
f 125 145 148 
f 145 130 148 
f 124 140 149 
f 140 137 149 
f 129 128 150 
f 137 147 150 
f 150 147 151 
f 138 129 151 
f 134 142 151 
f 142 138 151 
f 147 134 151 
f 129 150 151 
f 139 126 152 
f 132 139 152 
f 126 141 152 
f 143 130 153 
f 130 145 153 
f 145 143 153 
f 144 136 154 
f 124 149 154 
f 149 144 154 
f 128 133 155 
f 133 144 155 
f 150 128 155 
f 127 143 156 
f 145 126 156 
f 143 145 156 
f 126 139 157 
f 139 127 157 
f 156 126 157 
f 127 156 157 
f 149 137 158 
f 144 149 158 
f 137 150 158 
f 155 144 158 
f 150 155 158 
f 141 135 159 
f 146 132 159 
f 135 146 159 
f 132 152 159 
f 152 141 159 
f 131 124 160 
f 136 131 160 
f 124 154 160 
o convex_5
v 0.029226 -0.023368 0.020410
v 0.010045 -0.018450 0.000249
v 0.010045 -0.018450 0.019916
v 0.015457 -0.053854 -0.000244
v 0.026768 -0.016482 0.000249
v 0.032176 -0.053854 0.020410
v 0.032670 -0.053361 -0.000244
v 0.015457 -0.053854 0.020410
v 0.031684 -0.030744 -0.000244
v 0.025784 -0.015992 0.020410
v 0.010539 -0.015992 -0.000244
v 0.032670 -0.037623 0.019916
v 0.010539 -0.015992 0.020410
v 0.030701 -0.026319 0.019916
v 0.032670 -0.037623 -0.000244
v 0.025784 -0.015992 -0.000244
v 0.028734 -0.020418 0.019916
v 0.028734 -0.020418 0.000249
v 0.032176 -0.053854 -0.000244
v 0.032670 -0.053361 0.019916
v 0.031684 -0.030251 0.019916
v 0.030701 -0.026319 0.000249
v 0.026768 -0.016482 0.019916
v 0.010045 -0.015992 0.000249
v 0.032176 -0.037134 0.020410
v 0.010045 -0.015992 0.019916
v 0.031684 -0.030251 0.000249
f 182 181 187 
f 163 162 164 
f 163 164 168 
f 166 161 168 
f 164 166 168 
f 167 164 169 
f 168 161 170 
f 164 162 171 
f 169 164 171 
f 163 168 173 
f 168 170 173 
f 170 171 173 
f 167 169 175 
f 172 167 175 
f 170 165 176 
f 169 171 176 
f 171 170 176 
f 170 161 177 
f 161 174 177 
f 177 174 178 
f 176 165 178 
f 169 176 178 
f 165 177 178 
f 166 164 179 
f 164 167 179 
f 167 166 179 
f 166 167 180 
f 172 166 180 
f 167 172 180 
f 174 161 181 
f 172 175 181 
f 178 174 182 
f 169 178 182 
f 174 181 182 
f 165 170 183 
f 177 165 183 
f 170 177 183 
f 162 163 184 
f 171 162 184 
f 173 171 184 
f 161 166 185 
f 166 172 185 
f 181 161 185 
f 172 181 185 
f 163 173 186 
f 184 163 186 
f 173 184 186 
f 175 169 187 
f 181 175 187 
f 169 182 187 
o convex_6
v 0.025784 -0.013525 0.019916
v 0.000208 -0.003687 -0.000244
v 0.009554 -0.015493 -0.000244
v 0.019881 0.017460 0.000249
v 0.000208 0.018444 0.020410
v 0.009063 -0.015493 0.019916
v 0.019390 0.017460 0.020410
v 0.025784 -0.015985 0.000249
v 0.000208 0.018444 -0.000244
v 0.000208 -0.003195 0.020410
v 0.025291 -0.015985 0.020410
v 0.013487 0.018444 -0.000244
v 0.009554 -0.015985 0.000249
v 0.025291 -0.015985 -0.000244
v 0.019881 0.017460 0.019916
v 0.025784 -0.013525 0.000249
v 0.013980 0.018444 0.019916
v 0.010047 -0.015985 0.020410
v 0.019390 0.017460 -0.000244
v 0.019390 0.017952 0.000249
v 0.000208 -0.003687 0.019916
v 0.019390 0.017952 0.019916
v 0.009063 -0.015493 0.000249
v 0.025784 -0.015985 0.019916
f 198 195 211 
f 190 189 196 
f 189 192 196 
f 192 189 197 
f 194 192 197 
f 194 197 198 
f 188 194 198 
f 190 196 199 
f 196 192 199 
f 195 198 200 
f 190 199 201 
f 200 190 201 
f 195 200 201 
f 188 191 202 
f 194 188 202 
f 191 188 203 
f 188 195 203 
f 195 201 203 
f 192 194 204 
f 199 192 204 
f 197 193 205 
f 198 197 205 
f 193 200 205 
f 200 198 205 
f 201 199 206 
f 191 203 206 
f 203 201 206 
f 202 191 207 
f 199 204 207 
f 191 206 207 
f 206 199 207 
f 189 193 208 
f 197 189 208 
f 193 197 208 
f 194 202 209 
f 204 194 209 
f 202 207 209 
f 207 204 209 
f 189 190 210 
f 193 189 210 
f 190 200 210 
f 200 193 210 
f 195 188 211 
f 188 198 211 
o convex_7
v 0.016931 0.063194 0.000249
v 0.004636 0.090251 0.020410
v 0.004636 0.090746 0.019916
v 0.000208 0.018444 -0.000244
v 0.013487 0.018444 0.020410
v 0.000208 0.090251 -0.000244
v 0.000208 0.018444 0.020410
v 0.016931 0.063194 0.019916
v 0.013979 0.018444 0.000249
v 0.000208 0.090251 0.020410
v 0.009551 0.083364 -0.000244
v 0.016931 0.046485 0.019916
v 0.011519 0.079429 0.020410
v 0.016438 0.046485 -0.000244
v 0.004636 0.090746 0.000249
v 0.013979 0.074015 0.000249
v 0.016931 0.046485 0.000249
v 0.015945 0.068113 0.019916
v 0.013979 0.018444 0.019916
v 0.009551 0.083860 0.019916
v 0.013487 0.018444 -0.000244
v 0.016438 0.063194 0.020410
v 0.009551 0.083860 0.000249
v 0.011519 0.079925 0.019916
v 0.000208 0.090746 0.019916
v 0.015945 0.068113 0.000249
v 0.005620 0.089762 0.000249
v 0.015454 0.068608 -0.000244
v 0.013979 0.074015 0.019916
v 0.000208 0.090746 0.000249
v 0.011519 0.079925 0.000249
v 0.005620 0.089762 0.019916
v 0.016438 0.046485 0.020410
f 233 216 244 
f 217 215 218 
f 215 216 218 
f 216 213 218 
f 216 215 220 
f 213 214 221 
f 217 218 221 
f 218 213 221 
f 215 217 222 
f 212 219 223 
f 213 216 224 
f 215 222 225 
f 222 217 226 
f 212 223 228 
f 223 220 228 
f 220 225 228 
f 225 212 228 
f 219 212 229 
f 216 220 230 
f 223 216 230 
f 220 223 230 
f 213 224 231 
f 220 215 232 
f 215 225 232 
f 225 220 232 
f 223 219 233 
f 224 216 233 
f 219 229 233 
f 229 224 233 
f 234 231 235 
f 231 224 235 
f 221 214 236 
f 217 221 236 
f 214 226 236 
f 229 212 237 
f 227 229 237 
f 226 214 238 
f 222 226 238 
f 234 222 238 
f 231 234 238 
f 225 222 239 
f 212 225 239 
f 222 227 239 
f 237 212 239 
f 227 237 239 
f 224 229 240 
f 229 227 240 
f 235 224 240 
f 227 235 240 
f 226 217 241 
f 217 236 241 
f 236 226 241 
f 227 222 242 
f 222 234 242 
f 234 235 242 
f 235 227 242 
f 214 213 243 
f 213 231 243 
f 238 214 243 
f 231 238 243 
f 216 223 244 
f 223 233 244 
