o convex_0
v 0.001408 0.090197 0.016776
v -0.009247 0.012829 0.008488
v -0.009247 0.012829 0.016776
v 0.009302 0.012829 0.008488
v -0.001353 0.090197 0.008488
v 0.009302 0.012829 0.016776
v -0.007275 0.044016 0.016380
v 0.008908 0.030596 0.008883
v 0.001804 0.088615 0.008488
v -0.001748 0.089001 0.016776
v -0.008853 0.030997 0.008883
v 0.008908 0.030596 0.015986
v -0.008853 0.030202 0.016380
v -0.002537 0.082692 0.008488
v 0.002198 0.085457 0.016776
v 0.008908 0.027044 0.016776
v -0.009247 0.017570 0.008488
v 0.001408 0.090197 0.008488
v 0.009302 0.016782 0.008488
v -0.008853 0.027438 0.016776
v -0.001353 0.090197 0.016776
v -0.009247 0.018751 0.016380
v 0.008514 0.030997 0.008488
v -0.008459 0.031391 0.008488
v 0.009302 0.017176 0.016380
f 19 8 25 
f 3 2 4 
f 4 2 5 
f 1 3 6 
f 3 4 6 
f 4 5 9 
f 3 1 10 
f 7 11 13 
f 5 2 14 
f 10 5 14 
f 7 10 14 
f 11 7 14 
f 1 6 15 
f 9 1 15 
f 8 9 15 
f 12 8 15 
f 12 15 16 
f 15 6 16 
f 2 3 17 
f 14 2 17 
f 5 1 18 
f 1 9 18 
f 9 5 18 
f 6 4 19 
f 4 9 19 
f 3 10 20 
f 10 7 20 
f 7 13 20 
f 1 5 21 
f 10 1 21 
f 5 10 21 
f 13 11 22 
f 17 3 22 
f 11 17 22 
f 3 20 22 
f 20 13 22 
f 9 8 23 
f 19 9 23 
f 8 19 23 
f 11 14 24 
f 17 11 24 
f 14 17 24 
f 8 12 25 
f 12 16 25 
f 16 6 25 
f 6 19 25 
o convex_1
v -0.012408 -0.075581 0.017170
v -0.024643 -0.057825 0.008488
v -0.024643 -0.057825 0.016380
v -0.006486 -0.014013 0.007305
v -0.015170 -0.089004 0.006514
v -0.014381 -0.014013 0.018354
v -0.023063 -0.089012 0.017565
v -0.016354 -0.014408 0.007305
v -0.006882 -0.014013 0.018354
v -0.022669 -0.089012 0.007304
v -0.014775 -0.089802 0.018354
v -0.023458 -0.039674 0.017171
v -0.023458 -0.044409 0.007304
v -0.013986 -0.089399 0.007305
v -0.012802 -0.014013 0.006514
v -0.021880 -0.045200 0.018354
v -0.017143 -0.014013 0.016774
v -0.023852 -0.040464 0.008488
v -0.019905 -0.047579 0.006514
v -0.023458 -0.089399 0.008488
v -0.007276 -0.014811 0.006514
v -0.006486 -0.014811 0.017564
v -0.024643 -0.049152 0.017171
v -0.017143 -0.014013 0.008094
v -0.021090 -0.088609 0.018354
v -0.012408 -0.075581 0.007699
v -0.013986 -0.089004 0.017959
v -0.023458 -0.089399 0.016774
v -0.018327 -0.090197 0.007699
v -0.018721 -0.089004 0.006514
v -0.024643 -0.046781 0.008093
v -0.022669 -0.046385 0.006910
v -0.023852 -0.040464 0.016380
v -0.023458 -0.055066 0.017959
v -0.014775 -0.090197 0.017959
v -0.015959 -0.014408 0.017959
v -0.006486 -0.014811 0.007699
v -0.023063 -0.089802 0.016380
v -0.013197 -0.080324 0.006910
v -0.017537 -0.015199 0.016380
v -0.014775 -0.090197 0.007305
v -0.023852 -0.054671 0.007304
v -0.024643 -0.045602 0.016380
v -0.022669 -0.041650 0.017959
v -0.021485 -0.089012 0.006910
v -0.023063 -0.038883 0.007699
v -0.021880 -0.040860 0.006910
v -0.013592 -0.086640 0.017170
v -0.024643 -0.056244 0.008093
v -0.017537 -0.015199 0.008883
v -0.006486 -0.014416 0.017959
v -0.013197 -0.078743 0.018354
v -0.017932 -0.090197 0.017564
v -0.023063 -0.089802 0.008488
v -0.022669 -0.057035 0.006910
v -0.015170 -0.014013 0.006910
v -0.024643 -0.054275 0.017171
f 59 48 82 
f 29 31 34 
f 34 31 36 
f 31 29 40 
f 36 31 41 
f 31 40 42 
f 40 30 44 
f 28 27 45 
f 40 29 46 
f 30 40 46 
f 27 28 48 
f 42 40 49 
f 36 41 50 
f 47 26 51 
f 28 45 53 
f 44 30 55 
f 27 48 56 
f 32 50 59 
f 50 41 59 
f 52 36 60 
f 39 52 60 
f 31 42 61 
f 42 37 61 
f 29 47 62 
f 51 29 62 
f 47 51 62 
f 32 53 63 
f 53 45 63 
f 39 30 64 
f 46 29 64 
f 30 46 64 
f 51 39 64 
f 29 51 64 
f 37 42 65 
f 42 49 65 
f 58 37 65 
f 43 58 65 
f 30 39 66 
f 55 30 66 
f 54 55 66 
f 39 60 66 
f 60 54 66 
f 56 38 67 
f 38 57 67 
f 48 37 68 
f 43 56 68 
f 56 48 68 
f 37 58 68 
f 58 43 68 
f 41 31 69 
f 37 48 69 
f 48 59 69 
f 59 41 69 
f 31 61 69 
f 61 37 69 
f 55 54 70 
f 49 33 71 
f 43 49 71 
f 38 56 71 
f 56 43 71 
f 40 44 72 
f 57 38 72 
f 44 57 72 
f 71 33 72 
f 38 71 72 
f 51 26 73 
f 39 51 73 
f 26 52 73 
f 52 39 73 
f 45 27 74 
f 35 45 74 
f 27 56 74 
f 67 35 74 
f 56 67 74 
f 49 43 75 
f 65 49 75 
f 43 65 75 
f 29 34 76 
f 26 47 76 
f 47 29 76 
f 52 26 76 
f 52 76 77 
f 34 36 77 
f 36 52 77 
f 76 34 77 
f 50 32 78 
f 36 50 78 
f 60 36 78 
f 54 60 78 
f 32 63 78 
f 63 54 78 
f 45 35 79 
f 63 45 79 
f 54 63 79 
f 35 70 79 
f 70 54 79 
f 44 55 80 
f 57 44 80 
f 35 67 80 
f 67 57 80 
f 70 35 80 
f 55 70 80 
f 33 49 81 
f 49 40 81 
f 72 33 81 
f 40 72 81 
f 48 28 82 
f 53 32 82 
f 28 53 82 
f 32 59 82 
o convex_2
v 0.023908 -0.058220 0.017565
v 0.006541 -0.014811 0.007305
v 0.006541 -0.014811 0.017564
v 0.014041 -0.089399 0.017959
v 0.021540 -0.089012 0.006910
v 0.017198 -0.014013 0.008094
v 0.014041 -0.089399 0.007305
v 0.014436 -0.014013 0.018354
v 0.024699 -0.046393 0.008488
v 0.023513 -0.089407 0.016774
v 0.023513 -0.039279 0.016774
v 0.012858 -0.014013 0.006514
v 0.021146 -0.088609 0.018354
v 0.022724 -0.046781 0.006910
v 0.014831 -0.087826 0.006514
v 0.006937 -0.014013 0.018354
v 0.023513 -0.089004 0.008093
v 0.017198 -0.014013 0.016774
v 0.024699 -0.056244 0.016774
v 0.021935 -0.045602 0.018354
v 0.007332 -0.014013 0.006514
v 0.012858 -0.079929 0.017564
v 0.019960 -0.048764 0.006514
v 0.014831 -0.089802 0.018354
v 0.023513 -0.038891 0.008488
v 0.018382 -0.090197 0.007699
v 0.012463 -0.075984 0.007699
v 0.024699 -0.055461 0.008093
v 0.024699 -0.046781 0.016774
v 0.023119 -0.040069 0.017565
v 0.022724 -0.040069 0.007304
v 0.018776 -0.089004 0.006514
v 0.015227 -0.014013 0.006910
v 0.014831 -0.090197 0.017959
v 0.023908 -0.051524 0.007305
v 0.012858 -0.077162 0.006910
v 0.023119 -0.088609 0.017565
v 0.023513 -0.049547 0.017960
v 0.023119 -0.089795 0.016380
v 0.014831 -0.090197 0.007305
v 0.016013 -0.014804 0.017959
v 0.023119 -0.089795 0.008882
v 0.024699 -0.057035 0.008488
v 0.024302 -0.042836 0.016380
v 0.022724 -0.088609 0.007304
v 0.013647 -0.087028 0.007699
v 0.022724 -0.035729 0.016380
v 0.006541 -0.014013 0.017959
v 0.013252 -0.079138 0.018354
v 0.021540 -0.039279 0.006910
v 0.017987 -0.090197 0.017564
v 0.022329 -0.040069 0.017959
v 0.022724 -0.056252 0.006910
f 117 127 135 
f 90 88 94 
f 90 94 98 
f 95 90 98 
f 88 90 100 
f 90 95 102 
f 94 97 103 
f 98 94 103 
f 97 94 105 
f 95 98 106 
f 85 84 109 
f 104 85 109 
f 91 101 110 
f 101 91 111 
f 93 100 112 
f 111 93 112 
f 107 91 113 
f 88 107 113 
f 97 105 114 
f 87 108 114 
f 94 88 115 
f 88 113 115 
f 86 89 116 
f 106 86 116 
f 91 110 117 
f 113 91 117 
f 96 113 117 
f 97 89 118 
f 84 103 118 
f 103 97 118 
f 109 84 118 
f 95 92 119 
f 101 83 119 
f 92 101 119 
f 83 101 120 
f 102 95 120 
f 101 111 120 
f 111 112 120 
f 119 83 120 
f 95 119 120 
f 89 97 122 
f 97 114 122 
f 114 108 122 
f 116 89 122 
f 108 116 122 
f 100 90 123 
f 112 100 123 
f 87 99 124 
f 99 92 124 
f 108 87 124 
f 92 121 124 
f 121 108 124 
f 92 99 125 
f 101 92 125 
f 99 110 125 
f 110 101 125 
f 91 107 126 
f 107 93 126 
f 111 91 126 
f 93 111 126 
f 99 87 127 
f 110 99 127 
f 117 110 127 
f 89 86 128 
f 86 104 128 
f 104 109 128 
f 118 89 128 
f 109 118 128 
f 88 100 129 
f 100 93 129 
f 93 107 129 
f 107 88 129 
f 84 85 130 
f 103 84 130 
f 98 103 130 
f 85 104 130 
f 130 104 131 
f 104 86 131 
f 86 106 131 
f 106 98 131 
f 98 130 131 
f 96 105 132 
f 105 94 132 
f 113 96 132 
f 94 115 132 
f 115 113 132 
f 92 95 133 
f 95 106 133 
f 106 116 133 
f 116 108 133 
f 121 92 133 
f 108 121 133 
f 90 102 134 
f 102 120 134 
f 120 112 134 
f 123 90 134 
f 112 123 134 
f 105 96 135 
f 87 114 135 
f 114 105 135 
f 96 117 135 
f 127 87 135 
o convex_3
v -0.010827 0.002171 0.019539
v -0.012010 0.001776 0.005726
v -0.013985 0.001776 0.006120
v -0.009250 0.012829 0.008489
v -0.003328 0.001776 0.006515
v -0.002143 0.011644 0.017959
v -0.017143 0.002171 0.017169
v -0.002538 0.012039 0.006910
v -0.003723 0.001776 0.019143
v -0.009643 0.012433 0.017564
v -0.017143 0.002171 0.008094
v -0.010430 0.012433 0.008094
v -0.003328 0.012829 0.016774
v -0.014774 0.001776 0.018748
v -0.010827 0.012039 0.016774
v -0.008460 0.012039 0.006910
v -0.002933 0.012039 0.018354
v -0.002143 0.009275 0.007699
v -0.002933 0.003356 0.017564
v -0.004513 0.002171 0.005726
v -0.005697 0.011644 0.006515
v -0.007670 0.012039 0.018354
v -0.003328 0.012829 0.008489
v -0.015959 0.001776 0.006910
v -0.009250 0.012829 0.016774
v -0.006487 0.001776 0.019539
v -0.002143 0.012039 0.007699
v -0.002143 0.009275 0.017169
v -0.017143 0.001776 0.017169
f 159 149 164 
f 138 137 140 
f 138 140 144 
f 138 144 149 
f 145 142 149 
f 142 145 150 
f 146 142 150 
f 147 146 150 
f 137 138 151 
f 139 143 151 
f 147 139 151 
f 144 141 152 
f 141 148 152 
f 140 143 153 
f 144 140 154 
f 141 144 154 
f 140 153 154 
f 140 137 155 
f 143 140 155 
f 137 151 156 
f 151 143 156 
f 155 137 156 
f 143 155 156 
f 149 136 157 
f 145 149 157 
f 136 152 157 
f 152 148 157 
f 143 139 158 
f 139 148 158 
f 146 147 159 
f 138 149 159 
f 151 138 159 
f 147 151 159 
f 139 147 160 
f 148 139 160 
f 150 145 160 
f 147 150 160 
f 145 157 160 
f 157 148 160 
f 149 144 161 
f 136 149 161 
f 152 136 161 
f 144 152 161 
f 148 141 162 
f 153 143 162 
f 141 153 162 
f 143 158 162 
f 158 148 162 
f 153 141 163 
f 141 154 163 
f 154 153 163 
f 142 146 164 
f 149 142 164 
f 146 159 164 
o convex_4
v 0.015619 0.001777 0.018748
v 0.004172 0.001382 0.005726
v 0.003778 0.001382 0.006120
v 0.003384 0.012829 0.008489
v 0.017988 0.001777 0.007699
v 0.003384 0.001382 0.018748
v 0.009699 0.012433 0.017564
v 0.002199 0.011645 0.017959
v 0.009699 0.012039 0.007304
v 0.017988 0.001382 0.017169
v 0.002199 0.011645 0.007304
v 0.013644 0.001382 0.005726
v 0.010488 0.012433 0.008094
v 0.010882 0.002172 0.019539
v 0.004172 0.011645 0.006515
v 0.010882 0.012039 0.016379
v 0.002594 0.005725 0.007699
v 0.002988 0.012039 0.018354
v 0.004568 0.001382 0.019539
v 0.007727 0.012039 0.018354
v 0.009305 0.012829 0.016774
v 0.002199 0.008881 0.017564
v 0.003384 0.012829 0.016774
v 0.017988 0.001777 0.017169
v 0.003384 0.001382 0.006515
v 0.009305 0.012829 0.008489
v 0.017592 0.001382 0.007304
v 0.012460 0.001382 0.019539
v 0.008515 0.012039 0.006910
v 0.015225 0.001777 0.006120
v 0.002988 0.002962 0.017564
f 181 189 195 
f 167 166 170 
f 170 166 174 
f 166 167 175 
f 172 168 175 
f 174 166 176 
f 169 173 177 
f 166 175 179 
f 175 168 179 
f 176 166 179 
f 169 177 180 
f 178 182 183 
f 172 170 183 
f 170 174 183 
f 182 172 183 
f 165 171 184 
f 182 178 184 
f 182 184 185 
f 171 180 185 
f 180 177 185 
f 184 171 185 
f 170 172 186 
f 172 175 186 
f 175 181 186 
f 168 172 187 
f 172 182 187 
f 182 185 187 
f 185 168 187 
f 171 165 188 
f 174 169 188 
f 165 174 188 
f 169 180 188 
f 180 171 188 
f 167 170 189 
f 175 167 189 
f 181 175 189 
f 168 185 190 
f 185 177 190 
f 173 169 191 
f 169 174 191 
f 174 176 191 
f 174 165 192 
f 178 183 192 
f 183 174 192 
f 165 184 192 
f 184 178 192 
f 177 173 193 
f 179 168 193 
f 176 179 193 
f 190 177 193 
f 168 190 193 
f 173 191 194 
f 191 176 194 
f 193 173 194 
f 176 193 194 
f 170 186 195 
f 186 181 195 
f 189 170 195 
o convex_5
v -0.017931 -0.006513 0.006121
v -0.004908 -0.006513 0.021116
v -0.005304 -0.006513 0.021906
v -0.013195 -0.014013 0.006515
v -0.004908 -0.006513 0.003753
v -0.017142 -0.014013 0.016775
v -0.006487 -0.014013 0.017959
v -0.019510 -0.006513 0.017565
v -0.006487 -0.014013 0.006910
v -0.017142 -0.014013 0.008094
v -0.014379 -0.014013 0.018353
v -0.015958 -0.006909 0.019932
v -0.019510 -0.006909 0.007698
v -0.008460 -0.006909 0.003357
v -0.005304 -0.009671 0.006515
v -0.014379 -0.006909 0.004543
v -0.007671 -0.014013 0.018749
v -0.007276 -0.006909 0.021906
v -0.004908 -0.007698 0.019932
v -0.006882 -0.014013 0.006515
v -0.006093 -0.013223 0.017565
v -0.012012 -0.006513 0.021116
v -0.015168 -0.014013 0.006910
v -0.018325 -0.006909 0.018749
f 206 207 219 
f 198 197 196 
f 196 197 200 
f 201 199 202 
f 197 198 202 
f 198 196 203 
f 202 199 204 
f 199 201 205 
f 201 202 206 
f 203 196 208 
f 201 203 208 
f 196 205 208 
f 205 201 208 
f 196 200 209 
f 204 200 210 
f 196 209 211 
f 209 199 211 
f 202 198 212 
f 206 202 212 
f 206 212 213 
f 212 198 213 
f 200 197 214 
f 197 202 214 
f 210 200 214 
f 204 199 215 
f 200 204 215 
f 199 209 215 
f 209 200 215 
f 202 204 216 
f 204 210 216 
f 214 202 216 
f 210 214 216 
f 198 203 217 
f 203 207 217 
f 207 206 217 
f 206 213 217 
f 213 198 217 
f 205 196 218 
f 199 205 218 
f 196 211 218 
f 211 199 218 
f 203 201 219 
f 201 206 219 
f 207 203 219 
o convex_6
v -0.028982 0.000197 0.020327
v -0.014382 -0.003355 -0.000195
v -0.014382 -0.002565 -0.000195
v -0.004515 -0.004934 0.024667
v -0.003328 0.001776 0.006515
v -0.019905 -0.006513 0.017563
v -0.005302 -0.006513 0.002570
v -0.030169 0.000987 0.006515
v -0.004515 0.001776 0.019536
v -0.019905 -0.006513 0.007701
v -0.030169 -0.001777 0.006910
v -0.018720 -0.001777 0.024667
v -0.029772 0.001381 0.018354
v -0.005700 -0.006513 0.022693
v -0.030169 -0.001777 0.018354
v -0.004515 -0.004934 0.000202
v -0.023456 0.000197 0.002173
v -0.018720 -0.003749 0.024273
v -0.021090 -0.003355 0.001385
v -0.015961 -0.000592 0.024273
v -0.015169 0.001776 0.006121
v -0.006882 -0.002172 0.000202
v -0.005302 -0.002565 0.025061
v -0.008066 -0.005724 0.000202
v -0.007671 -0.005724 0.025061
v -0.024246 0.000592 0.022299
v -0.003328 0.000986 0.018354
v -0.025826 -0.002172 0.022299
v -0.026221 -0.002565 0.003359
v -0.029380 0.001381 0.006515
v -0.018328 0.001776 0.016380
v -0.013197 -0.000987 0.000596
v -0.030959 0.000197 0.017563
v -0.004117 0.001776 0.005727
v -0.017933 -0.006513 0.005727
v -0.004515 -0.005724 0.022299
v -0.018328 -0.006513 0.019142
v -0.004907 -0.003355 -0.000195
v -0.004515 -0.005724 0.002964
v -0.010828 -0.003355 0.025458
v -0.027010 0.000987 0.004147
v -0.030959 -0.000987 0.008095
v -0.012407 0.001776 0.019536
v -0.014382 -0.004539 0.000202
v -0.027010 -0.001382 0.003359
v -0.020695 -0.000987 0.000990
v -0.025826 -0.002565 0.021905
v -0.010038 -0.001777 0.025061
v -0.004907 -0.006513 0.021905
v -0.003328 0.001776 0.018354
v -0.023851 -0.000198 0.023090
v -0.030959 0.000592 0.008095
v -0.004120 -0.003749 0.003359
v -0.017933 -0.000198 0.001385
v -0.005302 -0.005328 -0.000195
f 243 263 274 
f 226 225 229 
f 229 225 230 
f 225 226 233 
f 230 225 234 
f 228 224 240 
f 233 223 244 
f 223 242 244 
f 232 220 245 
f 239 228 245 
f 220 234 247 
f 237 231 247 
f 229 230 248 
f 227 232 249 
f 240 249 250 
f 228 240 250 
f 249 232 250 
f 241 222 251 
f 220 232 252 
f 234 220 252 
f 240 224 253 
f 241 251 253 
f 226 229 254 
f 243 226 254 
f 229 248 254 
f 248 238 254 
f 246 223 255 
f 225 233 256 
f 233 244 256 
f 244 237 256 
f 221 222 257 
f 224 235 257 
f 222 241 257 
f 253 224 257 
f 241 253 257 
f 226 235 258 
f 231 237 259 
f 237 244 259 
f 244 242 259 
f 227 249 260 
f 249 240 260 
f 240 253 260 
f 253 236 260 
f 227 230 261 
f 230 234 261 
f 234 252 261 
f 245 228 262 
f 232 245 262 
f 228 250 262 
f 250 232 262 
f 238 221 263 
f 243 254 263 
f 254 238 263 
f 230 227 264 
f 248 230 264 
f 238 248 264 
f 227 260 264 
f 260 236 264 
f 222 221 265 
f 221 238 265 
f 251 222 265 
f 264 236 265 
f 238 264 265 
f 234 225 266 
f 247 234 266 
f 237 247 266 
f 225 256 266 
f 256 237 266 
f 228 239 267 
f 239 231 267 
f 242 228 267 
f 231 259 267 
f 259 242 267 
f 223 233 268 
f 233 226 268 
f 255 223 268 
f 226 258 268 
f 258 255 268 
f 224 228 269 
f 242 223 269 
f 228 242 269 
f 246 224 269 
f 223 246 269 
f 231 239 270 
f 245 220 270 
f 239 245 270 
f 220 247 270 
f 247 231 270 
f 232 227 271 
f 252 232 271 
f 227 261 271 
f 261 252 271 
f 235 224 272 
f 224 246 272 
f 246 255 272 
f 258 235 272 
f 255 258 272 
f 236 253 273 
f 253 251 273 
f 251 265 273 
f 265 236 273 
f 235 226 274 
f 226 243 274 
f 221 257 274 
f 257 235 274 
f 263 221 274 
o convex_7
v 0.005752 -0.011643 0.006910
v 0.019567 -0.006513 0.017169
v 0.019171 -0.006513 0.017959
v 0.017197 -0.014013 0.016775
v 0.005358 -0.006513 0.021906
v 0.012856 -0.006513 0.004147
v 0.016804 -0.014013 0.007698
v 0.006542 -0.014013 0.017959
v 0.005358 -0.006513 0.003357
v 0.019567 -0.006513 0.007698
v 0.006936 -0.014013 0.006515
v 0.014435 -0.014013 0.018353
v 0.013646 -0.006909 0.020720
v 0.004962 -0.007698 0.020326
v 0.013251 -0.014013 0.006515
v 0.004962 -0.006909 0.003753
v 0.007725 -0.014013 0.018749
v 0.016409 -0.006909 0.005331
v 0.007331 -0.006909 0.021906
v 0.008515 -0.006909 0.003357
v 0.018382 -0.006909 0.018749
v 0.017197 -0.014013 0.008488
v 0.019567 -0.006909 0.007698
v 0.006147 -0.013223 0.017959
v 0.006542 -0.014013 0.006910
f 298 275 299 
f 276 277 278 
f 277 276 279 
f 279 276 280 
f 281 278 282 
f 279 280 283 
f 280 276 284 
f 281 282 285 
f 282 278 286 
f 277 279 287 
f 281 285 289 
f 279 283 290 
f 283 285 290 
f 275 288 290 
f 288 279 290 
f 279 282 291 
f 282 286 291 
f 280 284 292 
f 289 280 292 
f 281 289 292 
f 287 279 293 
f 286 287 293 
f 279 291 293 
f 291 286 293 
f 283 280 294 
f 285 283 294 
f 280 289 294 
f 289 285 294 
f 278 277 295 
f 286 278 295 
f 277 287 295 
f 287 286 295 
f 278 281 296 
f 276 278 297 
f 284 276 297 
f 292 284 297 
f 281 292 297 
f 278 296 297 
f 296 281 297 
f 282 279 298 
f 288 275 298 
f 279 288 298 
f 285 282 299 
f 275 290 299 
f 290 285 299 
f 282 298 299 
o convex_8
v 0.028642 -0.000987 0.020722
v 0.004962 -0.004934 -0.000195
v 0.004962 -0.003354 -0.000195
v 0.004568 -0.003354 0.025061
v 0.003383 0.001382 0.006515
v 0.029040 0.000592 0.004936
v 0.019963 -0.006513 0.017168
v 0.008911 0.001382 0.019931
v 0.005357 -0.006118 0.024273
v 0.019963 -0.006513 0.007701
v 0.028250 0.001382 0.019142
v 0.028642 -0.002172 0.005333
v 0.004962 -0.006513 0.002964
v 0.018776 -0.000592 0.024273
v 0.021145 -0.000198 0.001385
v 0.014437 -0.004539 0.000202
v 0.018776 -0.003750 0.024273
v 0.030225 -0.001777 0.017959
v 0.029830 0.001382 0.006910
v 0.003383 0.001382 0.018351
v 0.004962 -0.006513 0.021905
v 0.023512 -0.002959 0.002173
v 0.005752 0.001382 0.005333
v 0.031014 0.000592 0.016774
v 0.030225 -0.001777 0.007304
v 0.012068 -0.001382 0.000202
v 0.004568 -0.006118 0.021510
v 0.025881 -0.002566 0.021905
v 0.010093 -0.001778 0.025061
v 0.007727 -0.005723 0.025061
v 0.017594 -0.006513 0.019536
v 0.006147 -0.006118 0.000596
v 0.024301 0.000592 0.022299
v 0.017199 -0.006513 0.005333
v 0.026671 0.000987 0.004147
v 0.004173 -0.003750 0.002176
v 0.004173 0.001382 0.019536
v 0.031014 -0.000592 0.007698
v 0.014437 -0.002959 -0.000195
v 0.010883 -0.003750 0.025458
v 0.023119 -0.000987 0.023484
v 0.003383 0.000592 0.018351
v 0.023512 -0.002172 0.001779
v 0.004962 -0.002566 0.000202
v 0.015622 -0.000592 0.024273
v 0.028250 0.000592 0.020722
v 0.005357 -0.002566 0.025061
v 0.004568 -0.006118 0.003753
v 0.030225 0.001382 0.016774
v 0.016017 -0.002566 0.025064
v 0.026276 -0.000198 0.002964
v 0.031014 -0.000987 0.016774
v 0.028642 -0.001382 0.004541
v 0.028642 -0.002172 0.019931
v 0.004568 -0.005328 0.024667
v 0.031014 0.000592 0.008489
f 348 323 355 
f 304 307 310 
f 309 306 312 
f 306 309 317 
f 304 310 318 
f 307 304 319 
f 312 306 320 
f 311 309 321 
f 304 318 322 
f 309 311 324 
f 317 309 324 
f 322 314 325 
f 312 320 326 
f 308 320 330 
f 320 306 330 
f 306 327 330 
f 327 316 330 
f 329 308 330 
f 316 329 330 
f 312 301 331 
f 301 315 331 
f 310 307 332 
f 309 312 333 
f 321 309 333 
f 315 321 333 
f 312 331 333 
f 331 315 333 
f 318 305 334 
f 314 322 334 
f 322 318 334 
f 302 301 335 
f 304 302 335 
f 319 303 336 
f 307 319 336 
f 301 302 338 
f 315 301 338 
f 325 314 338 
f 302 325 338 
f 303 329 339 
f 329 316 339 
f 327 300 340 
f 316 327 340 
f 332 313 340 
f 303 319 341 
f 319 304 341 
f 304 335 341 
f 321 315 342 
f 315 338 342 
f 338 314 342 
f 302 304 343 
f 304 322 343 
f 325 302 343 
f 322 325 343 
f 328 313 344 
f 332 307 344 
f 313 332 344 
f 307 336 344 
f 336 328 344 
f 300 323 345 
f 310 332 345 
f 340 300 345 
f 332 340 345 
f 336 303 346 
f 328 336 346 
f 339 328 346 
f 303 339 346 
f 301 312 347 
f 312 326 347 
f 335 301 347 
f 326 341 347 
f 341 335 347 
f 318 310 348 
f 345 323 348 
f 310 345 348 
f 313 328 349 
f 339 316 349 
f 328 339 349 
f 340 313 349 
f 316 340 349 
f 334 305 350 
f 314 334 350 
f 342 314 350 
f 300 317 351 
f 323 300 351 
f 317 324 351 
f 337 323 351 
f 324 337 351 
f 311 321 352 
f 324 311 352 
f 305 337 352 
f 337 324 352 
f 321 342 352 
f 350 305 352 
f 342 350 352 
f 306 317 353 
f 317 300 353 
f 300 327 353 
f 327 306 353 
f 320 308 354 
f 326 320 354 
f 329 303 354 
f 308 329 354 
f 303 341 354 
f 341 326 354 
f 305 318 355 
f 337 305 355 
f 323 337 355 
f 318 348 355 
