o convex_0
v -0.019108 -0.090185 0.006483
v -0.027997 -0.060559 0.006853
v -0.027997 -0.060559 0.012776
v -0.015776 -0.057969 0.015370
v -0.015776 -0.057969 0.003889
v -0.010220 -0.087959 0.015370
v -0.022072 -0.087590 0.014999
v -0.010220 -0.087590 0.003889
v -0.022072 -0.086848 0.004260
v -0.026144 -0.057969 0.015370
v -0.025404 -0.057969 0.003889
v -0.025773 -0.077220 0.006483
v -0.023182 -0.087959 0.012776
v -0.012812 -0.090185 0.013146
v -0.010220 -0.085366 0.009813
v -0.025773 -0.076107 0.013887
v -0.010590 -0.089441 0.005000
v -0.027625 -0.057969 0.005372
v -0.020589 -0.087590 0.003889
v -0.020219 -0.089810 0.013887
v -0.023182 -0.087959 0.006853
v -0.021331 -0.087590 0.015370
v -0.026144 -0.066484 0.004260
v -0.010220 -0.085366 0.003889
v -0.026144 -0.067967 0.014999
v -0.010220 -0.085735 0.015370
v -0.027254 -0.067967 0.006483
v -0.027997 -0.057969 0.013518
v -0.022072 -0.089441 0.006483
v -0.026144 -0.075366 0.012776
v -0.010590 -0.089441 0.014629
v -0.025404 -0.076479 0.005000
v -0.019479 -0.089441 0.004631
v -0.012812 -0.090185 0.006483
v -0.020589 -0.090185 0.010925
v -0.027625 -0.065005 0.012776
v -0.022812 -0.087959 0.005372
v -0.019479 -0.089069 0.014999
v -0.027254 -0.065374 0.005372
v -0.022072 -0.089441 0.012776
v -0.027254 -0.064264 0.014259
v -0.025032 -0.080550 0.012776
v -0.023551 -0.074997 0.003889
v -0.023922 -0.076848 0.015370
v -0.025404 -0.077220 0.014259
v -0.010220 -0.089069 0.004631
f 17 33 46 
f 4 5 10 
f 6 4 10 
f 5 8 11 
f 10 5 11 
f 5 4 15 
f 6 8 15 
f 10 11 18 
f 11 8 19 
f 6 10 22 
f 18 11 23 
f 8 5 24 
f 5 15 24 
f 15 8 24 
f 4 6 26 
f 15 4 26 
f 6 15 26 
f 2 3 28 
f 18 2 28 
f 10 18 28 
f 13 21 29 
f 27 12 30 
f 14 17 31 
f 20 14 31 
f 23 9 32 
f 12 27 32 
f 19 8 33 
f 1 29 33 
f 14 1 34 
f 17 14 34 
f 33 17 34 
f 1 33 34 
f 1 14 35 
f 14 20 35 
f 29 1 35 
f 3 2 36 
f 2 27 36 
f 30 16 36 
f 27 30 36 
f 9 19 37 
f 21 12 37 
f 29 21 37 
f 32 9 37 
f 12 32 37 
f 19 33 37 
f 33 29 37 
f 7 20 38 
f 6 22 38 
f 22 7 38 
f 31 6 38 
f 20 31 38 
f 2 18 39 
f 18 23 39 
f 27 2 39 
f 23 32 39 
f 32 27 39 
f 7 13 40 
f 20 7 40 
f 13 29 40 
f 35 20 40 
f 29 35 40 
f 25 10 41 
f 28 3 41 
f 10 28 41 
f 3 36 41 
f 36 16 41 
f 12 21 42 
f 21 13 42 
f 30 12 42 
f 16 30 42 
f 19 9 43 
f 11 19 43 
f 9 23 43 
f 23 11 43 
f 22 10 44 
f 7 22 44 
f 10 25 44 
f 44 25 45 
f 13 7 45 
f 25 41 45 
f 41 16 45 
f 42 13 45 
f 16 42 45 
f 7 44 45 
f 8 6 46 
f 6 31 46 
f 31 17 46 
f 33 8 46 
o convex_1
v -0.022072 -0.012407 0.014259
v -0.027997 -0.057963 0.006112
v -0.027997 -0.057963 0.013518
v -0.015776 -0.057963 0.015370
v -0.010220 -0.012407 0.003889
v -0.015776 -0.057963 0.003889
v -0.010220 -0.012407 0.015370
v -0.021330 -0.012782 0.004260
v -0.027255 -0.039814 0.005000
v -0.025774 -0.039069 0.015370
v -0.025404 -0.057963 0.003889
v -0.025774 -0.025375 0.012776
v -0.027626 -0.038329 0.012776
v -0.025774 -0.025375 0.006483
v -0.026143 -0.057963 0.015370
v -0.020589 -0.012407 0.015370
v -0.023182 -0.025749 0.003889
v -0.022440 -0.012407 0.006112
v -0.010220 -0.013522 0.015370
v -0.025404 -0.025375 0.014259
v -0.027626 -0.038329 0.006853
v -0.027255 -0.038699 0.014259
v -0.010220 -0.013522 0.003889
v -0.022811 -0.013152 0.012776
v -0.027997 -0.046480 0.006853
v -0.024663 -0.026855 0.004260
v -0.019848 -0.012407 0.003889
v -0.026514 -0.040184 0.004260
v -0.025404 -0.025000 0.005372
v -0.026514 -0.057963 0.004260
v -0.024663 -0.025375 0.014999
v -0.027997 -0.046480 0.012776
v -0.026885 -0.048701 0.014999
v -0.023552 -0.016113 0.006483
f 75 60 80 
f 49 48 50 
f 50 48 52 
f 51 47 53 
f 50 53 56 
f 52 48 57 
f 51 52 57 
f 59 58 60 
f 49 50 61 
f 50 56 61 
f 53 47 62 
f 56 53 62 
f 51 57 63 
f 47 51 64 
f 50 52 65 
f 53 50 65 
f 51 53 65 
f 58 59 66 
f 59 60 67 
f 66 59 68 
f 52 51 69 
f 51 65 69 
f 65 52 69 
f 47 64 70 
f 66 47 70 
f 58 66 70 
f 48 49 71 
f 55 48 71 
f 67 55 71 
f 59 67 71 
f 54 63 72 
f 51 63 73 
f 63 54 73 
f 64 51 73 
f 54 64 73 
f 63 57 74 
f 55 72 74 
f 72 63 74 
f 64 54 75 
f 55 67 75 
f 67 60 75 
f 72 55 75 
f 54 72 75 
f 48 55 76 
f 57 48 76 
f 55 74 76 
f 74 57 76 
f 62 47 77 
f 56 62 77 
f 47 66 77 
f 68 56 77 
f 66 68 77 
f 49 68 78 
f 68 59 78 
f 71 49 78 
f 59 71 78 
f 49 61 79 
f 61 56 79 
f 68 49 79 
f 56 68 79 
f 60 58 80 
f 58 70 80 
f 70 64 80 
f 64 75 80 
o convex_2
v 0.027929 -0.061300 0.006853
v 0.010151 -0.088700 0.004631
v 0.010523 -0.089440 0.005000
v 0.015707 -0.050563 0.015370
v 0.021262 -0.087586 0.015370
v 0.015707 -0.050563 0.003889
v 0.027556 -0.050563 0.014259
v 0.022003 -0.087218 0.004260
v 0.010151 -0.086105 0.015370
v 0.026446 -0.050563 0.004260
v 0.026075 -0.075737 0.012776
v 0.021631 -0.089809 0.011665
v 0.010151 -0.085736 0.003889
v 0.010523 -0.089440 0.014629
v 0.026075 -0.059450 0.015370
v 0.024594 -0.067967 0.003889
v 0.025705 -0.077218 0.006112
v 0.027187 -0.066854 0.013887
v 0.023113 -0.087959 0.012776
v 0.019409 -0.090185 0.006483
v 0.027929 -0.050563 0.006112
v 0.026817 -0.066854 0.005000
v 0.023113 -0.087959 0.006483
v 0.020521 -0.087586 0.003889
v 0.026075 -0.050563 0.015370
v 0.012745 -0.090185 0.013146
v 0.027929 -0.059077 0.013518
v 0.024594 -0.077218 0.014999
v 0.020150 -0.089440 0.014629
v 0.025334 -0.050563 0.003889
v 0.027187 -0.068708 0.006853
v 0.020891 -0.089440 0.005000
v 0.026817 -0.058340 0.004260
v 0.024594 -0.076478 0.004260
v 0.027556 -0.065745 0.012776
v 0.012745 -0.090185 0.006483
v 0.023113 -0.086477 0.014259
v 0.019409 -0.090185 0.012776
v 0.010151 -0.087959 0.015370
v 0.026817 -0.060559 0.014999
v 0.027929 -0.050563 0.013146
v 0.027556 -0.058340 0.005000
v 0.024224 -0.083882 0.012776
v 0.025705 -0.076478 0.013887
v 0.010151 -0.087586 0.003889
v 0.019409 -0.089440 0.004631
v 0.024965 -0.079441 0.005372
v 0.025705 -0.077587 0.006483
v 0.022003 -0.089440 0.006483
f 112 88 129 
f 86 84 87 
f 85 84 89 
f 86 87 90 
f 84 86 93 
f 82 89 93 
f 89 84 93 
f 82 83 94 
f 84 85 95 
f 93 86 96 
f 90 87 101 
f 93 96 104 
f 87 84 105 
f 84 95 105 
f 94 83 106 
f 81 101 107 
f 95 85 108 
f 99 85 109 
f 92 99 109 
f 94 106 109 
f 86 90 110 
f 96 86 110 
f 102 81 111 
f 97 102 111 
f 104 88 112 
f 110 90 113 
f 96 110 113 
f 88 104 114 
f 104 96 114 
f 96 113 114 
f 113 102 114 
f 98 91 115 
f 81 107 115 
f 107 98 115 
f 91 111 115 
f 111 81 115 
f 106 83 116 
f 100 106 116 
f 85 99 117 
f 108 85 117 
f 100 92 118 
f 106 100 118 
f 92 109 118 
f 109 106 118 
f 89 82 119 
f 85 89 119 
f 82 94 119 
f 109 85 119 
f 94 109 119 
f 87 105 120 
f 105 95 120 
f 107 87 120 
f 98 107 120 
f 95 108 120 
f 108 98 120 
f 101 87 121 
f 87 107 121 
f 107 101 121 
f 101 81 122 
f 90 101 122 
f 81 102 122 
f 113 90 122 
f 102 113 122 
f 99 103 123 
f 117 99 123 
f 117 123 124 
f 91 98 124 
f 98 108 124 
f 108 117 124 
f 123 91 124 
f 83 82 125 
f 82 93 125 
f 93 104 125 
f 125 104 126 
f 112 100 126 
f 104 112 126 
f 116 83 126 
f 100 116 126 
f 83 125 126 
f 102 97 127 
f 97 103 127 
f 103 88 127 
f 88 114 127 
f 114 102 127 
f 103 97 128 
f 111 91 128 
f 97 111 128 
f 91 123 128 
f 123 103 128 
f 99 92 129 
f 92 100 129 
f 88 103 129 
f 103 99 129 
f 100 112 129 
o convex_3
v 0.026075 -0.027227 0.012776
v 0.010151 -0.013153 0.003889
v 0.010151 -0.013153 0.015370
v 0.015707 -0.050556 0.003889
v 0.015707 -0.050556 0.015370
v 0.027556 -0.050556 0.005372
v 0.020891 -0.012041 0.004260
v 0.026075 -0.050556 0.015370
v 0.021262 -0.012041 0.014999
v 0.026446 -0.039811 0.004260
v 0.025705 -0.025006 0.006483
v 0.027556 -0.039811 0.013887
v 0.025334 -0.050556 0.003889
v 0.022743 -0.012784 0.012776
v 0.010151 -0.012041 0.015370
v 0.027556 -0.038699 0.006112
v 0.023853 -0.025745 0.015370
v 0.027929 -0.050556 0.013146
v 0.019409 -0.012041 0.003889
v 0.022372 -0.012041 0.006112
v 0.010151 -0.012041 0.003889
v 0.024594 -0.026484 0.004260
v 0.025334 -0.025375 0.014259
v 0.027929 -0.042401 0.006853
v 0.020150 -0.012041 0.015370
v 0.026446 -0.038329 0.014999
v 0.023113 -0.025375 0.003889
v 0.025334 -0.025006 0.005372
v 0.027556 -0.037960 0.012776
v 0.027556 -0.040180 0.005372
v 0.027929 -0.050556 0.006483
v 0.027929 -0.042401 0.012776
v 0.027556 -0.050556 0.014259
v 0.025705 -0.025006 0.012776
v 0.022002 -0.012414 0.005000
v 0.023484 -0.015747 0.006853
v 0.027556 -0.037960 0.006853
v 0.022002 -0.012041 0.014259
f 138 152 167 
f 132 131 133 
f 132 133 134 
f 134 133 135 
f 132 134 137 
f 134 135 137 
f 133 131 142 
f 135 133 142 
f 139 135 142 
f 131 132 144 
f 132 137 144 
f 138 136 144 
f 144 137 146 
f 137 135 147 
f 142 131 148 
f 144 136 148 
f 136 138 149 
f 131 144 150 
f 148 131 150 
f 144 148 150 
f 141 130 152 
f 138 146 152 
f 138 144 154 
f 146 138 154 
f 144 146 154 
f 146 137 155 
f 141 152 155 
f 152 146 155 
f 139 142 156 
f 148 136 156 
f 142 148 156 
f 151 139 156 
f 136 151 156 
f 149 140 157 
f 130 141 158 
f 135 139 159 
f 140 145 159 
f 139 151 159 
f 145 153 159 
f 157 140 159 
f 151 157 159 
f 147 135 160 
f 153 147 160 
f 135 159 160 
f 159 153 160 
f 141 147 161 
f 147 153 161 
f 158 141 161 
f 153 158 161 
f 137 147 162 
f 147 141 162 
f 155 137 162 
f 141 155 162 
f 130 140 163 
f 152 130 163 
f 143 152 163 
f 136 149 164 
f 151 136 164 
f 149 157 164 
f 157 151 164 
f 140 149 165 
f 149 143 165 
f 163 140 165 
f 143 163 165 
f 140 130 166 
f 145 140 166 
f 153 145 166 
f 130 158 166 
f 158 153 166 
f 149 138 167 
f 143 149 167 
f 152 143 167 
o convex_4
v 0.010150 0.059811 0.003519
v 0.000151 0.018706 0.003519
v 0.002003 0.013148 0.003519
v 0.000151 0.090185 0.015741
v 0.013854 0.013148 0.015369
v 0.000151 0.019083 0.015741
v 0.000151 0.090185 0.003519
v 0.015336 0.051667 0.012777
v 0.013854 0.013148 0.003519
v 0.003485 0.090185 0.003519
v 0.003485 0.090185 0.015741
v 0.015336 0.050928 0.006112
v 0.014224 0.037226 0.015741
v 0.002003 0.013148 0.015369
v 0.014224 0.037595 0.003519
v 0.014964 0.053145 0.006482
v 0.011260 0.054253 0.015741
v 0.015336 0.049450 0.013147
v 0.014594 0.054253 0.013147
v 0.011632 0.025749 0.015741
v 0.014594 0.036487 0.015369
v 0.015336 0.049450 0.006112
v 0.014594 0.036487 0.003889
v 0.004225 0.087591 0.003519
v 0.004595 0.085729 0.015741
v 0.012002 0.050928 0.003519
f 179 182 193 
f 170 169 168 
f 171 169 173 
f 168 169 174 
f 169 171 174 
f 170 168 176 
f 172 170 176 
f 168 174 177 
f 174 171 177 
f 171 173 178 
f 177 171 178 
f 178 173 180 
f 169 170 181 
f 170 172 181 
f 173 169 181 
f 172 173 181 
f 176 168 182 
f 177 178 183 
f 175 179 183 
f 178 180 184 
f 172 176 185 
f 179 175 185 
f 175 183 186 
f 183 178 186 
f 184 180 186 
f 180 185 186 
f 185 175 186 
f 173 172 187 
f 172 180 187 
f 180 173 187 
f 180 172 188 
f 185 180 188 
f 172 185 188 
f 185 176 189 
f 179 185 189 
f 176 182 190 
f 182 179 190 
f 189 176 190 
f 179 189 190 
f 168 177 191 
f 179 168 191 
f 177 183 191 
f 183 179 191 
f 178 184 192 
f 186 178 192 
f 184 186 192 
f 168 179 193 
f 182 168 193 
o convex_5
v -0.021329 -0.008332 0.006854
v -0.005775 0.000183 0.015741
v -0.005775 -0.000187 0.015741
v -0.005775 0.000183 0.003890
v -0.009850 -0.012405 0.003890
v -0.020218 -0.012405 0.015368
v -0.018366 0.000183 0.013887
v -0.010221 -0.012405 0.015368
v -0.016885 0.000183 0.003890
v -0.020959 -0.012405 0.004261
v -0.022442 -0.012035 0.013147
v -0.016515 0.000183 0.015741
v -0.018366 0.000183 0.005743
v -0.022070 -0.011666 0.005373
v -0.019477 -0.012405 0.003890
v -0.009850 -0.012405 0.013147
v -0.005775 -0.000557 0.003890
v -0.022070 -0.012405 0.014258
v -0.005775 -0.000557 0.014998
v -0.022442 -0.012405 0.006483
v -0.019848 -0.003890 0.012777
f 200 206 214 
f 195 196 197 
f 195 197 200 
f 196 199 201 
f 199 198 201 
f 197 198 202 
f 200 197 202 
f 198 199 203 
f 196 195 205 
f 199 196 205 
f 195 200 205 
f 200 202 206 
f 202 203 207 
f 194 206 207 
f 206 202 207 
f 202 198 208 
f 198 203 208 
f 203 202 208 
f 201 198 209 
f 197 196 210 
f 198 197 210 
f 209 198 210 
f 203 199 211 
f 200 204 211 
f 199 205 211 
f 205 200 211 
f 196 201 212 
f 201 209 212 
f 210 196 212 
f 209 210 212 
f 204 194 213 
f 207 203 213 
f 194 207 213 
f 203 211 213 
f 211 204 213 
f 194 204 214 
f 204 200 214 
f 206 194 214 
o convex_6
v -0.021328 0.002408 0.019444
v -0.022440 0.000556 -0.000185
v -0.016146 0.000185 0.003149
v -0.002812 0.013148 0.003890
v -0.005777 0.000556 0.019074
v -0.016516 0.012778 0.014998
v -0.005037 0.000926 -0.000185
v -0.002812 0.013148 0.015740
v -0.015404 0.012778 0.003519
v -0.024663 0.000556 0.016480
v -0.021328 0.005742 0.000186
v -0.003184 0.005742 -0.000185
v -0.003554 0.005001 0.018703
v -0.022810 0.005372 0.002038
v -0.021328 0.005742 0.019074
v -0.022810 0.005372 0.017219
v -0.005777 0.000185 0.016109
v -0.024663 0.000556 0.002409
v -0.016886 0.012778 0.005744
v -0.003924 0.005742 0.019074
v -0.014664 0.013148 0.015367
v -0.023180 0.000556 0.019074
v -0.005407 0.000185 0.003519
v -0.003184 0.005372 0.017592
v -0.014664 0.012778 0.016109
v -0.018736 0.000185 0.014257
v -0.020218 0.005742 -0.000185
v -0.014664 0.013148 0.003890
v -0.002812 0.008702 0.003890
v -0.006147 0.000556 0.019444
v -0.024293 0.002038 0.016850
v -0.005407 0.000556 -0.000185
v -0.016886 0.012778 0.013888
v -0.002812 0.008702 0.015367
v -0.005407 0.000556 0.017219
v -0.022440 0.005742 0.001298
v -0.003924 0.012778 0.016109
v -0.023550 0.003889 0.002409
v -0.023923 0.001667 0.000927
v -0.005407 0.002779 0.019444
v -0.003184 0.005372 -0.000185
v -0.003924 0.012778 0.003519
v -0.022440 0.005742 0.017961
v -0.021700 0.000556 0.019444
f 244 215 258 
f 221 216 226 
f 216 217 232 
f 228 230 233 
f 227 222 234 
f 222 218 235 
f 215 229 236 
f 231 217 237 
f 222 227 238 
f 237 221 238 
f 220 229 239 
f 229 234 239 
f 222 235 239 
f 235 220 239 
f 217 231 240 
f 232 217 240 
f 224 232 240 
f 236 224 240 
f 216 225 241 
f 225 223 241 
f 226 216 241 
f 223 226 241 
f 218 223 242 
f 223 233 242 
f 235 218 242 
f 233 235 242 
f 218 222 243 
f 226 218 243 
f 219 227 244 
f 231 219 244 
f 232 224 245 
f 224 236 245 
f 217 216 246 
f 216 221 246 
f 237 217 246 
f 221 237 246 
f 233 230 247 
f 220 235 247 
f 235 233 247 
f 222 238 248 
f 243 222 248 
f 238 243 248 
f 227 219 249 
f 219 231 249 
f 231 237 249 
f 237 238 249 
f 238 227 249 
f 223 225 250 
f 233 223 250 
f 228 233 250 
f 234 222 251 
f 222 239 251 
f 239 234 251 
f 230 228 252 
f 245 230 252 
f 232 245 252 
f 228 250 252 
f 252 250 253 
f 225 216 253 
f 216 232 253 
f 250 225 253 
f 232 252 253 
f 229 215 254 
f 227 234 254 
f 234 229 254 
f 244 227 254 
f 215 244 254 
f 221 226 255 
f 238 221 255 
f 226 243 255 
f 243 238 255 
f 223 218 256 
f 218 226 256 
f 226 223 256 
f 229 220 257 
f 236 229 257 
f 230 245 257 
f 245 236 257 
f 220 247 257 
f 247 230 257 
f 215 236 258 
f 240 231 258 
f 236 240 258 
f 231 244 258 
o convex_7
v 0.000149 0.019074 0.015741
v -0.009478 0.023148 0.003519
v -0.014663 0.013148 0.003889
v -0.014663 0.021666 0.015369
v 0.000149 0.023889 0.003519
v -0.002814 0.013148 0.015741
v -0.002814 0.013148 0.003889
v -0.014663 0.013148 0.015369
v 0.000149 0.023889 0.015741
v -0.012440 0.023889 0.003889
v -0.012070 0.023889 0.015741
v -0.014663 0.021666 0.003889
v 0.000149 0.019074 0.003519
v 0.000149 0.018703 0.008335
v -0.013922 0.020925 0.015741
f 264 269 273 
f 264 261 265 
f 262 261 266 
f 261 264 266 
f 259 263 267 
f 264 259 267 
f 263 260 268 
f 267 263 268 
f 267 268 269 
f 264 267 269 
f 268 262 269 
f 260 261 270 
f 261 262 270 
f 268 260 270 
f 262 268 270 
f 261 260 271 
f 263 259 271 
f 260 263 271 
f 265 261 271 
f 265 271 272 
f 259 264 272 
f 264 265 272 
f 271 259 272 
f 262 266 273 
f 266 264 273 
f 269 262 273 
o convex_8
v 0.000151 0.090185 0.015741
v -0.016516 0.050554 0.006482
v -0.016144 0.044266 0.007223
v 0.000151 0.023902 0.003519
v -0.010219 0.023889 0.015741
v 0.000151 0.090185 0.003519
v 0.000151 0.023902 0.015741
v -0.012813 0.028334 0.003519
v -0.005035 0.088699 0.015741
v -0.015774 0.037595 0.015369
v -0.004665 0.089809 0.003519
v -0.016516 0.051664 0.012777
v -0.015403 0.035745 0.003519
v -0.009848 0.023889 0.003519
v -0.012441 0.026485 0.015741
v -0.013181 0.050184 0.015741
v -0.015774 0.053890 0.006112
v -0.013922 0.046855 0.003519
v -0.004295 0.090179 0.015741
v -0.006887 0.082774 0.003889
v -0.015403 0.035745 0.015741
v -0.013181 0.028334 0.005741
v -0.015774 0.038711 0.003889
v -0.015403 0.053520 0.013518
v -0.012441 0.026485 0.009445
v -0.004295 0.090179 0.003519
v -0.016516 0.051664 0.006482
v -0.013552 0.061294 0.013518
v -0.015774 0.052040 0.005741
f 296 300 302 
f 274 277 279 
f 277 274 280 
f 274 278 280 
f 279 277 281 
f 278 274 282 
f 275 276 283 
f 279 281 284 
f 275 283 285 
f 284 281 286 
f 277 280 287 
f 280 278 287 
f 281 277 287 
f 278 282 288 
f 288 282 289 
f 284 286 291 
f 274 279 292 
f 282 274 292 
f 284 282 292 
f 282 284 293 
f 284 291 293 
f 283 286 294 
f 289 283 294 
f 288 289 294 
f 286 281 295 
f 281 287 295 
f 294 286 295 
f 288 294 295 
f 276 275 296 
f 283 276 296 
f 286 283 296 
f 291 286 296 
f 282 285 297 
f 285 283 297 
f 289 282 297 
f 283 289 297 
f 287 278 298 
f 278 288 298 
f 295 287 298 
f 288 295 298 
f 279 284 299 
f 292 279 299 
f 284 292 299 
f 275 285 300 
f 293 290 300 
f 296 275 300 
f 285 282 301 
f 282 293 301 
f 300 285 301 
f 293 300 301 
f 290 293 302 
f 293 291 302 
f 291 296 302 
f 300 290 302 
o convex_9
v 0.014224 -0.000557 0.015741
v 0.018296 0.000185 0.013887
v 0.018296 0.000185 0.005373
v 0.022373 -0.012037 0.012777
v 0.009783 -0.012037 0.003890
v 0.005706 0.000185 0.015741
v 0.009783 -0.012037 0.015368
v 0.005706 0.000185 0.003890
v 0.020890 -0.012037 0.004261
v 0.020149 -0.012037 0.015368
v 0.017187 0.000185 0.003890
v 0.022373 -0.011666 0.006483
v 0.016446 0.000185 0.015741
v 0.019409 -0.012037 0.003890
v 0.021631 -0.010924 0.014258
v 0.005706 -0.000186 0.015741
v 0.006078 -0.001297 0.003890
v 0.021631 -0.011294 0.005001
v 0.019409 -0.002778 0.012777
f 306 314 321 
f 304 305 308 
f 307 306 309 
f 308 305 310 
f 306 307 311 
f 303 309 312 
f 309 306 312 
f 310 305 313 
f 307 310 313 
f 306 311 314 
f 304 308 315 
f 308 303 315 
f 303 312 315 
f 311 307 316 
f 307 313 316 
f 313 311 316 
f 306 304 317 
f 312 306 317 
f 304 315 317 
f 315 312 317 
f 303 308 318 
f 309 303 318 
f 308 310 318 
f 318 310 319 
f 307 309 319 
f 310 307 319 
f 309 318 319 
f 313 305 320 
f 311 313 320 
f 305 314 320 
f 314 311 320 
f 305 304 321 
f 304 306 321 
f 314 305 321 
o convex_10
v 0.023853 0.003148 0.010923
v 0.003486 0.004630 -0.000185
v 0.003486 0.005740 -0.000185
v 0.003856 0.005740 0.019074
v 0.005709 0.000185 0.016109
v 0.023113 0.000927 0.000188
v 0.022371 0.005740 0.001298
v 0.023113 0.000556 0.019074
v 0.021259 0.005740 0.019074
v 0.005337 0.000556 -0.000185
v 0.018298 0.000185 0.004261
v 0.003114 0.006111 0.017219
v 0.005709 0.000556 0.019074
v 0.017556 0.006111 0.003519
v 0.020520 0.005740 -0.000185
v 0.022743 0.005740 0.016850
v 0.024225 0.000927 0.001298
v 0.003114 0.006111 0.002038
v 0.024225 0.000556 0.017592
v 0.017556 0.006111 0.016109
v 0.013483 0.000556 0.019444
v 0.005709 0.000185 0.003519
v 0.017556 0.000185 0.015740
v 0.003486 0.004630 0.017592
v 0.022001 0.000927 -0.000185
v 0.022743 0.005740 0.002411
v 0.020890 0.002407 0.019444
v 0.024225 0.002037 0.002038
v 0.024225 0.002037 0.016480
v 0.016075 0.000185 0.003149
f 331 346 351 
f 323 324 331 
f 325 330 333 
f 328 327 336 
f 331 324 336 
f 335 328 336 
f 327 328 338 
f 332 327 338 
f 324 323 339 
f 323 333 339 
f 333 335 339 
f 336 324 339 
f 335 336 339 
f 330 329 340 
f 337 330 340 
f 332 338 340 
f 333 330 341 
f 335 333 341 
f 330 337 341 
f 337 335 341 
f 325 334 342 
f 334 326 342 
f 326 331 343 
f 332 326 343 
f 326 332 344 
f 340 329 344 
f 332 340 344 
f 342 326 344 
f 329 342 344 
f 323 331 345 
f 331 326 345 
f 333 323 345 
f 325 333 345 
f 334 325 345 
f 326 334 345 
f 336 327 346 
f 331 336 346 
f 328 335 347 
f 337 322 347 
f 335 337 347 
f 330 325 348 
f 329 330 348 
f 342 329 348 
f 325 342 348 
f 338 328 349 
f 340 338 349 
f 328 347 349 
f 347 322 349 
f 322 337 350 
f 337 340 350 
f 349 322 350 
f 340 349 350 
f 327 332 351 
f 343 331 351 
f 332 343 351 
f 346 327 351 
o convex_11
v 0.017188 0.006482 0.013887
v 0.003115 0.006111 0.003148
v 0.003115 0.007223 0.003148
v 0.003115 0.006111 0.016481
v 0.002003 0.013148 0.015368
v 0.015336 0.012777 0.003519
v 0.015704 0.012777 0.015739
v 0.016076 0.006111 0.003519
v 0.002003 0.013148 0.003519
v 0.014964 0.006111 0.016481
v 0.016816 0.012777 0.005371
v 0.002003 0.008704 0.015368
v 0.013852 0.013148 0.003519
v 0.003855 0.012777 0.016111
v 0.017188 0.006111 0.005371
v 0.016816 0.012777 0.013887
v 0.013852 0.013148 0.015368
v 0.002003 0.008704 0.003889
v 0.015336 0.006482 0.003148
v 0.014594 0.012777 0.016111
v 0.016816 0.006111 0.014999
f 367 358 372 
f 355 353 359 
f 354 353 360 
f 355 359 361 
f 359 357 362 
f 353 355 363 
f 355 356 363 
f 356 360 363 
f 354 360 364 
f 360 356 364 
f 362 357 364 
f 356 355 365 
f 355 361 365 
f 361 359 366 
f 362 352 366 
f 359 362 366 
f 352 362 367 
f 362 364 367 
f 367 364 368 
f 364 356 368 
f 356 365 368 
f 358 367 368 
f 360 353 369 
f 353 363 369 
f 363 360 369 
f 353 354 370 
f 359 353 370 
f 357 359 370 
f 354 364 370 
f 364 357 370 
f 361 358 371 
f 365 361 371 
f 368 365 371 
f 358 368 371 
f 358 361 372 
f 366 352 372 
f 361 366 372 
f 352 367 372 
