# https://github.com/mikedh/trimesh
v -0.01570988 0.00599463 0.01591191
v 0.02008714 -0.08744597 0.00423463
v -0.01357779 0.00687438 0.00355943
v 0.01929467 0.00565234 0.00000000
v 0.01929467 0.00565234 0.00000000
v 0.01770733 -0.00061667 0.01379924
v 0.01770733 -0.00061667 0.01379924
v 0.01770733 -0.00061667 0.01379924
v 0.02504716 -0.02549855 0.00560982
v 0.02504716 -0.02549855 0.01383113
v 0.02268298 0.00087499 0.01876238
v 0.02268298 0.00087499 0.01876238
v 0.02118342 0.00087133 0.01912700
v 0.02118342 0.00087133 0.01912700
v -0.00403655 0.00542841 0.01894254
v -0.00403655 0.00542841 0.01894254
v -0.00403655 0.00542841 0.01894254
v -0.01092947 -0.08716031 0.01520634
v -0.01570594 -0.04046256 0.01520634
v -0.01570594 -0.04046256 0.01520634
v -0.01952278 -0.09000000 0.00831935
v 0.01072215 -0.08913241 0.01436838
v 0.01072215 -0.08913241 0.01436838
v 0.01072215 -0.08913241 0.01436838
v -0.02645298 -0.05790826 0.00459856
v -0.02645298 -0.05790826 0.01484241
v 0.02289256 -0.08751130 0.00697616
v 0.02148920 -0.08748204 0.00460185
v 0.01527090 0.01244247 0.01551304
v 0.01527090 0.01244247 0.01551304
v -0.02013049 -0.08740878 0.01520634
v 0.01492096 0.00687836 0.01550979
v 0.01627940 0.01244247 0.01450632
v 0.01627940 0.01244247 0.01450632
v 0.01627940 0.01244247 0.01450632
v -0.02674486 -0.06644261 0.01384812
v -0.02674486 -0.06644261 0.00559285
v -0.01798801 0.00087133 0.00320797
v -0.01798801 0.00087133 0.00320797
v 0.01389357 0.01244247 0.00355943
v 0.01389357 0.01244247 0.00355943
v 0.01717047 -0.09000000 0.00693618
v 0.01809402 -0.00061115 0.01239764
v 0.01809402 -0.00061115 0.01239764
v -0.01628402 0.01244247 0.00491765
v -0.01628402 0.01244247 0.00491765
v 0.01389314 0.01244247 0.01588153
v 0.01389314 0.01244247 0.01588153
v -0.02198807 -0.01302461 0.01384812
v -0.02198807 -0.01302461 0.00559285
v 0.01069319 -0.08914517 0.00506022
v 0.01069319 -0.08914517 0.00506022
v 0.01069319 -0.08914517 0.00506022
v -0.01267444 -0.07647506 0.01520634
v -0.01267444 -0.07647506 0.01520634
v 0.01642447 0.00086851 0.01663852
v 0.01765586 0.00565234 0.00359839
v -0.01854444 -0.09000000 0.00730690
v 0.01951816 -0.09000000 0.00833662
v -0.01563792 0.00042188 0.00379724
v 0.01666214 -0.00061397 0.01482136
v 0.01666214 -0.00061397 0.01482136
v -0.01359241 -0.02542876 0.01520634
v -0.01359241 -0.02542876 0.01520634
v -0.01972413 -0.01366990 0.00423463
v -0.01972413 -0.01366990 0.01520634
v -0.01803697 0.00565234 0.01444762
v 0.02177411 -0.08928947 0.01164427
v 0.02177411 -0.08928947 0.01164427
v -0.01631254 0.00685200 0.01314029
v 0.02079645 0.00565234 0.01876813
v 0.02079645 0.00565234 0.01876813
v -0.01813000 -0.00062107 0.01246244
v -0.01813000 -0.00062107 0.01246244
v -0.01720405 -0.09000000 0.00693618
v -0.01392715 0.01244247 0.01588153
v -0.01392715 0.01244247 0.01588153
v 0.02198369 -0.01302587 0.00560982
v 0.02198369 -0.01302587 0.01383113
v 0.00555708 0.00087133 0.00000000
v 0.00555708 0.00087133 0.00000000
v 0.00555708 0.00087133 0.00000000
v -0.01793562 0.00040362 0.01423073
v -0.01793562 0.00040362 0.01423073
v -0.01392758 0.01244247 0.00355943
v -0.01392758 0.01244247 0.00355943
v -0.01530491 0.00565234 0.01733554
v -0.01668181 0.00598879 0.01487976
v -0.01668181 0.00598879 0.01487976
v 0.02573997 -0.06632414 0.01483786
v 0.02573997 -0.06632412 0.00460311
v 0.01831673 -0.00499424 0.00464870
v -0.02290733 -0.07594747 0.00423463
v -0.02290733 -0.07594747 0.01520634
v -0.01695719 0.00041610 0.00417569
v -0.01695719 0.00041610 0.00417569
v 0.02040510 -0.08927643 0.00538247
v 0.02040510 -0.08927643 0.00538247
v -0.02252055 -0.08750611 0.00558831
v 0.01825257 0.00040482 0.01277722
v 0.02418948 0.00089857 0.01635352
v 0.02418948 0.00089857 0.01635352
v 0.01665440 0.00565234 0.01694812
v 0.01903421 -0.08925683 0.00501631
v 0.01903421 -0.08925683 0.00501631
v 0.00333711 0.00606060 0.00315115
v 0.00333711 0.00606060 0.00315115
v 0.00333711 0.00606060 0.01628977
v 0.00333711 0.00606060 0.01628977
v -0.01893382 0.00087133 0.00427176
v 0.02378379 0.00088497 0.01774667
v 0.02378379 0.00088497 0.01774667
v 0.02378379 0.00088497 0.01774667
v 0.02378379 0.00088497 0.01774667
v -0.01328792 -0.09000000 0.00693691
v 0.02039943 -0.08926642 0.01404740
v 0.02039943 -0.08926642 0.01404740
v 0.01139562 -0.08913241 0.01436838
v 0.01139562 -0.08913241 0.01436838
v 0.01091942 -0.08720210 0.00423463
v 0.01832102 -0.00501956 0.01483786
v 0.02557470 -0.07647506 0.01245592
v 0.02557470 -0.07647506 0.00698501
v 0.02382622 0.00104057 0.00138301
v 0.02382622 0.00104057 0.00138301
v -0.01933195 0.00565234 0.00000000
v -0.01933195 0.00565234 0.00000000
v 0.01969147 -0.01367918 0.00423463
v 0.01969147 -0.01367918 0.01520634
v 0.01569064 0.00598732 0.00354298
v 0.01569064 0.00598732 0.00354298
v -0.01767246 0.00565234 0.01589515
v -0.01767246 0.00565234 0.01589515
v -0.01812384 -0.00060450 0.00697667
v -0.01812384 -0.00060450 0.00697667
v 0.01694806 0.00042145 0.00417125
v 0.01694806 0.00042145 0.00417125
v -0.01052142 -0.01292480 0.01520634
v -0.01052142 -0.01292480 0.01520634
v -0.02440708 -0.06616702 0.00423463
v -0.02440708 -0.06616702 0.01520634
v -0.02041630 -0.08926666 0.01405213
v -0.02041630 -0.08926666 0.01405213
v 0.02505992 -0.05786226 0.00423463
v 0.02505992 -0.05786226 0.01520634
v -0.01774307 -0.00059805 0.00560539
v -0.01774307 -0.00059805 0.00560539
v -0.01356546 0.00689911 0.01588153
v -0.01703718 0.00598597 0.01346998
v -0.01704800 -0.00544257 0.00423463
v 0.01051287 -0.01292480 0.01520634
v 0.01051287 -0.01292480 0.01520634
v 0.01353123 0.00689961 0.01588153
v -0.02012168 -0.08744691 0.00423463
v -0.02103123 -0.01329734 0.00459856
v -0.02103123 -0.01329734 0.01484241
v 0.02140499 -0.08928248 0.01303338
v 0.02140499 -0.08928248 0.01303338
v -0.02252718 -0.08747808 0.01385212
v -0.01528956 -0.06648520 0.01520634
v -0.01528956 -0.06648520 0.01520634
v 0.02149715 -0.08744691 0.01483891
v 0.02643596 -0.05790770 0.01483786
v 0.02643596 -0.05790770 0.00460311
v -0.00621567 -0.00052252 0.00423463
v -0.00621567 -0.00052252 0.00423463
v -0.00621567 -0.00052252 0.00423463
v 0.01434886 0.00600213 0.01628971
v -0.02273849 -0.02594313 0.00423463
v -0.02273849 -0.02594313 0.01520634
v 0.01927805 0.00542841 0.01894254
v 0.01927805 0.00542841 0.01894254
v -0.02190994 0.00565234 0.01775226
v -0.02190994 0.00565234 0.01775226
v -0.02190994 0.00565234 0.01775226
v -0.02190994 0.00565234 0.01775226
v 0.01526760 -0.06648520 0.00423463
v 0.01526760 -0.06648520 0.00423463
v 0.01888842 0.00087095 0.01524120
v 0.01888842 0.00087095 0.01524120
v -0.01696873 0.00040749 0.01527333
v -0.01594340 0.00686087 0.01451116
v -0.01594340 0.00686087 0.01451116
v 0.01027424 -0.08720210 0.00423463
v 0.01027424 -0.08720210 0.00423463
v -0.01595422 0.00683733 0.00493180
v 0.01703729 0.00598595 0.01343473
v -0.00590345 0.00046309 0.01561458
v -0.00590345 0.00046309 0.01561458
v 0.01333349 -0.09000000 0.01246366
v -0.01495011 0.00685191 0.00392717
v -0.01495011 0.00685191 0.00392717
v -0.01669859 0.00087133 0.00282034
v 0.01801813 0.00565234 0.00506515
v 0.01354350 0.00687496 0.00355943
v 0.01527111 0.01244247 0.00392791
v 0.01527111 0.01244247 0.00392791
v 0.01527111 0.01244247 0.00392791
v 0.01827744 0.00041313 0.00667679
v -0.01766028 0.00565234 0.00358026
v 0.01927074 0.00087133 0.01383297
v 0.01987441 -0.09000000 0.00973453
v -0.02135129 0.00087133 0.00000000
v -0.02135129 0.00087133 0.00000000
v -0.02424098 -0.07621128 0.01484241
v -0.02424098 -0.07621126 0.00459856
v 0.02674044 -0.06644204 0.00560982
v 0.02674044 -0.06644204 0.01383113
v 0.02752286 -0.04046256 0.01245592
v 0.02752286 -0.04046256 0.00698501
v 0.01594968 0.00683744 0.00494893
v 0.01667240 0.00565234 0.00252628
v 0.01667240 0.00565234 0.00252628
v 0.01528107 -0.06648520 0.01520634
v 0.01528107 -0.06648520 0.01520634
v -0.02132613 0.00087133 0.01914708
v -0.02132613 0.00087133 0.01914708
v -0.02390797 0.00087133 0.01777120
v -0.02390797 0.00087133 0.01777120
v -0.02390797 0.00087133 0.01777120
v -0.02390797 0.00087133 0.01777120
v 0.01961293 -0.00454563 0.00703262
v -0.01832985 -0.00499221 0.00459856
v -0.01832985 -0.00499221 0.01484241
v -0.02289707 -0.08749270 0.01249820
v 0.02781215 -0.05795311 0.01245592
v 0.02781215 -0.05795311 0.00698501
v 0.02140986 -0.08928998 0.00639772
v 0.02140986 -0.08928998 0.00639772
v 0.01493301 0.00685221 0.00393178
v 0.01493301 0.00685221 0.00393178
v -0.02233832 -0.01292480 0.00695108
v -0.02233832 -0.01292480 0.01248985
v 0.01664859 0.01244247 0.00630983
v 0.01664859 0.01244247 0.00630983
v 0.01664859 0.01244247 0.01313114
v 0.01664859 0.01244247 0.01313114
v 0.01850049 -0.09000000 0.01209492
v 0.01523922 -0.00060378 0.01518941
v 0.01523922 -0.00060378 0.01518941
v -0.01801805 0.00565234 0.00502892
v -0.02575679 -0.06632613 0.00459856
v -0.02575679 -0.06632613 0.01484241
v 0.02273659 0.00103952 0.00037062
v 0.02273659 0.00103952 0.00037062
v 0.02273659 0.00103952 0.00037062
v 0.02273659 0.00103952 0.00037062
v -0.01671614 -0.00061572 0.01483861
v -0.01671614 -0.00061572 0.01483861
v 0.01631265 0.00685191 0.01310604
v -0.02177400 -0.08928945 0.01167861
v -0.02177400 -0.08928945 0.01167861
v 0.01766791 0.00565234 0.01587696
v 0.01766791 0.00565234 0.01587696
v -0.02141444 -0.08929004 0.00638048
v -0.02141444 -0.08929004 0.00638048
v 0.01357044 -0.02542876 0.00423463
v 0.01357044 -0.02542876 0.00423463
v -0.02521728 -0.07640438 0.01384812
v -0.02521728 -0.07640438 0.00559285
v -0.02391133 0.00087133 0.00136429
v -0.02391133 0.00087133 0.00136429
v -0.01775195 -0.00062186 0.01383416
v -0.01775195 -0.00062186 0.01383416
v -0.01775195 -0.00062186 0.01383416
v -0.00626054 0.00087133 0.01914708
v -0.00626054 0.00087133 0.01914708
v -0.00626054 0.00087133 0.01914708
v -0.01668891 0.00565234 0.00252139
v -0.01668891 0.00565234 0.00252139
v 0.01690627 0.00040255 0.01526750
v 0.00626746 -0.00052252 0.01513464
v 0.00626746 -0.00052252 0.01513464
v 0.00626746 -0.00052252 0.01513464
v 0.02477565 -0.04067755 0.00423463
v 0.02477565 -0.04067755 0.01520634
v -0.02509386 -0.05786339 0.00423463
v -0.02509386 -0.05786339 0.01520634
v 0.02231484 0.00565234 0.01631848
v 0.02231484 0.00565234 0.01631848
v 0.02231484 0.00565234 0.00278777
v 0.02231484 0.00565234 0.00278777
v 0.00352525 0.00565234 0.00000000
v 0.00352525 0.00565234 0.00000000
v 0.00352525 0.00565234 0.00000000
v 0.00352525 0.00565234 0.00216554
v 0.00352525 0.00565234 0.00216554
v 0.00352525 0.00565234 0.01727538
v 0.00352525 0.00565234 0.01727538
v 0.01265248 -0.07647506 0.00423463
v 0.01265248 -0.07647506 0.00423463
v -0.02042201 -0.08927668 0.00537775
v -0.02042201 -0.08927668 0.00537775
v 0.02405731 -0.02568915 0.01483786
v 0.02405731 -0.02568919 0.00460311
v -0.00352521 0.00565234 0.00000000
v -0.00352521 0.00565234 0.00000000
v -0.00352521 0.00565234 0.00000000
v -0.00352521 0.00565234 0.00216554
v -0.00352521 0.00565234 0.00216554
v -0.00352521 0.00565234 0.01727538
v -0.00352521 0.00565234 0.01727538
v 0.01137856 -0.08914517 0.00506022
v 0.01137856 -0.08914517 0.00506022
v 0.00629305 -0.00052276 0.00423463
v 0.00629305 -0.00052276 0.00423463
v 0.00629305 -0.00052276 0.00423463
v -0.01930529 0.00087133 0.01374737
v -0.01906238 -0.08924616 0.01441314
v -0.01906238 -0.08924616 0.01441314
v -0.02616618 -0.04056876 0.00459856
v -0.02616618 -0.04056876 0.01484241
v -0.01666977 0.00087133 0.01664636
v -0.01528806 0.01244247 0.00392334
v -0.01528806 0.01244247 0.00392334
v -0.01528806 0.01244247 0.00392334
v -0.01827996 0.00040850 0.00664193
v 0.01092959 -0.08716031 0.01520634
v -0.01593502 -0.05795311 0.00423463
v -0.01593502 -0.05795311 0.00423463
v -0.01536425 0.00565234 0.00213619
v -0.01792444 0.00041121 0.00521710
v 0.00602763 0.00087133 0.01902204
v 0.00602763 0.00087133 0.01902204
v 0.00602763 0.00087133 0.01902204
v 0.01568397 -0.04046256 0.00423463
v 0.01568397 -0.04046256 0.00423463
v -0.01664855 0.01244247 0.01316506
v -0.01664855 0.01244247 0.01316506
v -0.01664855 0.01244247 0.00627589
v -0.01664855 0.01244247 0.00627589
v 0.01669848 -0.00055745 0.00459809
v 0.01669848 -0.00055745 0.00459809
v 0.01669848 -0.00055745 0.00459809
v 0.02233836 -0.01292480 0.01245592
v 0.02233836 -0.01292480 0.00698501
v 0.02422273 0.00103108 0.00276487
v 0.02422273 0.00103108 0.00276487
v 0.01358392 -0.02542876 0.01520634
v 0.01358392 -0.02542876 0.01520634
v 0.01803690 0.00565234 0.01441137
v -0.02151444 -0.08744740 0.01484344
v -0.01987461 -0.09000000 0.00970003
v -0.02557463 -0.07647506 0.00695108
v -0.02557463 -0.07647506 0.01248985
v -0.00413224 0.01244247 0.01588153
v -0.00413224 0.01244247 0.01588153
v -0.00413224 0.01244247 0.01588153
v -0.00413224 0.01244247 0.00355943
v -0.00413224 0.01244247 0.00355943
v -0.00413224 0.01244247 0.00355943
v 0.01266595 -0.07647506 0.01520634
v 0.01266595 -0.07647506 0.01520634
v -0.02505152 -0.02549768 0.01384812
v -0.02505152 -0.02549768 0.00559285
v -0.01667150 0.00565234 0.01695306
v 0.02437339 -0.06616304 0.00423463
v 0.02437339 -0.06616304 0.01520634
v -0.01564574 -0.04046256 0.00423463
v -0.01564574 -0.04046256 0.00423463
v 0.02177712 -0.08929377 0.00778780
v 0.02177712 -0.08929377 0.00778780
v 0.02744346 -0.05794094 0.00560982
v 0.02744346 -0.05794094 0.01383113
v 0.01667433 0.00598217 0.00458789
v 0.01597326 -0.05795311 0.00423463
v 0.01597326 -0.05795311 0.00423463
v -0.01926820 -0.00466251 0.00559285
v -0.01926820 -0.00466252 0.01384812
v -0.02282933 0.00087133 0.00036555
v -0.02282933 0.00087133 0.00036555
v -0.02282933 0.00087133 0.00036555
v -0.02282933 0.00087133 0.00036555
v 0.00572724 0.00087133 0.00282203
v 0.00572724 0.00087133 0.00282203
v 0.01926536 -0.00466476 0.00565751
v -0.01628394 0.01244247 0.01452330
v -0.01628394 0.01244247 0.01452330
v -0.01628394 0.01244247 0.01452330
v -0.01065488 -0.08914517 0.00506022
v -0.01065488 -0.08914517 0.00506022
v -0.01065488 -0.08914517 0.00506022
v 0.01889859 0.00087133 0.00424438
v 0.01569744 -0.04046256 0.01520634
v 0.01569744 -0.04046256 0.01520634
v -0.02752282 -0.04046256 0.00695108
v -0.02752282 -0.04046256 0.01248985
v 0.01811531 -0.00057724 0.00703492
v 0.01811531 -0.00057724 0.00703492
v -0.01570716 0.00598723 0.00353827
v -0.01570716 0.00598723 0.00353827
v -0.01261424 -0.07647506 0.00423463
v -0.01261424 -0.07647506 0.00423463
v 0.01950183 -0.09000000 0.01108404
v 0.02009588 -0.08740783 0.01520634
v 0.01987461 -0.09000000 0.00970060
v -0.01987437 -0.09000000 0.00973472
v -0.01353221 -0.02542876 0.00423463
v -0.01353221 -0.02542876 0.00423463
v -0.01564867 0.00041369 0.01565165
v -0.02715932 -0.04049102 0.01384812
v -0.02715932 -0.04049102 0.00559285
v -0.01137847 -0.08914517 0.00506022
v -0.01137847 -0.08914517 0.00506022
v 0.01667742 0.00598881 0.01486215
v 0.01667742 0.00598881 0.01486215
v 0.01646817 0.00087133 0.00284471
v 0.02287407 -0.07594088 0.00423463
v 0.02287407 -0.07594088 0.01520634
v 0.01926888 -0.00467915 0.01383121
v -0.00551775 0.00087133 0.00000000
v -0.00551775 0.00087133 0.00000000
v -0.00551775 0.00087133 0.00000000
v -0.00551775 0.00087133 0.00284074
v -0.00551775 0.00087133 0.00284074
v -0.01030547 -0.08716031 0.01520634
v -0.01030547 -0.08716031 0.01520634
v 0.02190801 0.00565234 0.01773281
v 0.02190801 0.00565234 0.01773281
v 0.02190801 0.00565234 0.01773281
v 0.02190801 0.00565234 0.01773281
v -0.01333345 -0.09000000 0.01246366
v 0.01598673 -0.05795311 0.01520634
v 0.01598673 -0.05795311 0.01520634
v 0.02710656 -0.06648520 0.01245592
v 0.02710656 -0.06648520 0.00698501
v -0.01704808 -0.00544259 0.01520634
v 0.01632060 0.00683464 0.00633795
v -0.02710650 -0.06648520 0.00695108
v -0.02710650 -0.06648520 0.01248985
v -0.01493806 0.00687810 0.01551438
v 0.01561351 0.00042684 0.00378721
v -0.01530046 -0.00060433 0.01520634
v -0.01530046 -0.00060433 0.01520634
v -0.01906800 -0.08925734 0.00501611
v -0.01906800 -0.08925734 0.00501611
v -0.01369748 -0.07647506 0.00423463
v -0.01369748 -0.07647506 0.00423463
v 0.00403508 0.00542841 0.01894254
v 0.00403508 0.00542841 0.01894254
v 0.00403508 0.00542841 0.01894254
v -0.02231484 0.00565234 0.01635743
v -0.02231484 0.00565234 0.01635743
v -0.02231484 0.00565234 0.00275337
v -0.02231484 0.00565234 0.00275337
v 0.01533125 0.00565234 0.00213628
v 0.00590219 0.00046299 0.00382629
v 0.00590219 0.00046299 0.00382629
v -0.00627587 -0.00052252 0.01520634
v -0.00627587 -0.00052252 0.01520634
v -0.00627587 -0.00052252 0.01520634
v 0.02614925 -0.04057007 0.01483786
v 0.02614925 -0.04057007 0.00460311
v 0.01852759 -0.09000000 0.00731154
v 0.00574586 0.00085767 0.01656718
v 0.00574586 0.00085767 0.01656718
v -0.01632064 0.00683454 0.00630364
v 0.02270519 -0.02594955 0.00423463
v 0.02270519 -0.02594955 0.01520634
v 0.01902861 -0.08924569 0.01441295
v 0.01902861 -0.08924569 0.01441295
v 0.02251596 -0.08750594 0.00560522
v 0.02080476 0.00565234 0.00037348
v 0.02080476 0.00565234 0.00037348
v 0.02080476 0.00565234 0.00037348
v 0.02080476 0.00565234 0.00037348
v -0.01961164 -0.00454184 0.00695108
v -0.01961164 -0.00454184 0.01248985
v 0.00350347 0.00704621 0.01588153
v 0.00350347 0.00704621 0.01588153
v 0.00350347 0.00704621 0.00355943
v 0.00350347 0.00704621 0.00355943
v -0.01667866 0.00598214 0.00457032
v -0.01703461 0.00598097 0.00597977
v -0.01375770 -0.07647506 0.01520634
v -0.01375770 -0.07647506 0.01520634
v 0.01701952 -0.00544624 0.00427503
v -0.01437984 0.00599488 0.00315983
v 0.02191022 0.00565234 0.00139389
v 0.02191022 0.00565234 0.00139389
v -0.02781215 -0.05795311 0.00695108
v -0.02781215 -0.05795311 0.01248985
v 0.01527584 -0.00055072 0.00422217
v 0.01527584 -0.00055072 0.00422217
v 0.01049938 -0.01292480 0.00423463
v 0.01049938 -0.01292480 0.00423463
v 0.01627953 0.01244247 0.00493464
v 0.01627953 0.01244247 0.00493464
v -0.01798908 0.00087133 0.01626126
v 0.00777280 -0.00454184 0.00423463
v 0.00777280 -0.00454184 0.00423463
v -0.01091938 -0.08720210 0.00423463
v -0.01929263 0.00542841 0.01894254
v -0.01929263 0.00542841 0.01894254
v -0.01670598 -0.00058870 0.00460187
v -0.01670598 -0.00058870 0.00460187
v -0.01670598 -0.00058870 0.00460187
v 0.01703472 0.00598099 0.00601498
v 0.02289707 -0.08749277 0.01246438
v -0.01046122 -0.01292480 0.00423463
v -0.01046122 -0.01292480 0.00423463
v -0.00350336 0.00704621 0.01588153
v -0.00350336 0.00704621 0.01588153
v -0.00350336 0.00704621 0.00355943
v -0.00350336 0.00704621 0.00355943
v -0.01073059 -0.08913241 0.01436838
v -0.01073059 -0.08913241 0.01436838
v -0.01073059 -0.08913241 0.01436838
v 0.01713693 -0.09000000 0.01246445
v 0.01961536 -0.00455317 0.01245603
v -0.02407390 -0.02568593 0.00459856
v -0.02407390 -0.02568593 0.01484241
v 0.02715481 -0.04049136 0.00560982
v 0.02715481 -0.04049136 0.01383113
v 0.00591446 0.00041174 0.01559329
v 0.00591446 0.00041174 0.01559329
v 0.01373574 -0.07647506 0.00423463
v 0.01373574 -0.07647506 0.00423463
v 0.01328796 -0.09000000 0.00693691
v -0.02480951 -0.04067492 0.00423463
v -0.02480951 -0.04067492 0.01520634
v -0.01528785 0.01244247 0.01551759
v -0.01528785 0.01244247 0.01551759
v -0.01023601 -0.08720210 0.00423463
v -0.01023601 -0.08720210 0.00423463
v -0.00333707 0.00606060 0.00315115
v -0.00333707 0.00606060 0.00315115
v -0.00333707 0.00606060 0.01628977
v -0.00333707 0.00606060 0.01628977
v -0.01522936 -0.06648520 0.00423463
v -0.01522936 -0.06648520 0.00423463
v -0.02177716 -0.08929383 0.00775341
v -0.02177716 -0.08929383 0.00775341
v 0.02252256 -0.08747802 0.01383521
v -0.01438200 0.00600194 0.01628971
v -0.01528992 -0.00057894 0.00423463
v -0.01528992 -0.00057894 0.00423463
v 0.01569337 0.00599473 0.01590716
v 0.00778628 -0.00454184 0.01520634
v 0.00778628 -0.00454184 0.01520634
v 0.01556907 0.00040319 0.01564679
v 0.02540941 -0.02542876 0.01245592
v 0.02540941 -0.02542876 0.00698501
v -0.00584324 0.00046309 0.00382635
v -0.00584324 0.00046309 0.00382635
v 0.01773845 -0.00056716 0.00562829
v 0.01773845 -0.00056716 0.00562829
v -0.01828827 0.00040311 0.01280482
v -0.02744797 -0.05794107 0.01384812
v -0.02744797 -0.05794107 0.00559285
v -0.02430738 0.00087133 0.00272861
v -0.02430738 0.00087133 0.00272861
v -0.02430738 0.00087133 0.01639527
v -0.02430738 0.00087133 0.01639527
v 0.01374921 -0.07647506 0.01520634
v 0.01374921 -0.07647506 0.01520634
v 0.02101492 -0.01330198 0.01483786
v 0.02101492 -0.01330198 0.00460311
v 0.01784581 0.00086992 0.01626885
v 0.02124657 0.00102822 0.00000000
v 0.02124657 0.00102822 0.00000000
v -0.02540933 -0.02542876 0.00695108
v -0.02540933 -0.02542876 0.01248985
v 0.01702568 -0.00548320 0.01520634
v -0.00773449 -0.00454184 0.00423463
v -0.00773449 -0.00454184 0.00423463
v 0.01527075 0.00565234 0.01733537
v -0.02191520 0.00565234 0.00137668
v -0.02191520 0.00565234 0.00137668
v 0.01787183 0.00087133 0.00322123
v 0.01787183 0.00087133 0.00322123
v 0.01788867 0.00040315 0.01421701
v 0.01788867 0.00040315 0.01421701
v -0.01895456 0.00087133 0.01519933
v -0.01895456 0.00087133 0.01519933
v 0.01434677 0.00599506 0.00315977
v 0.02422439 -0.07620797 0.00460311
v 0.02422439 -0.07620799 0.01483786
v -0.01851727 -0.09000000 0.01209948
v 0.01593893 0.00686091 0.01449405
v 0.01593893 0.00686091 0.01449405
v 0.02521287 -0.07640349 0.00560982
v 0.02521287 -0.07640349 0.01383113
v -0.01717044 -0.09000000 0.01246445
v -0.02281676 0.00087133 0.01877841
v -0.02281676 0.00087133 0.01877841
v -0.00574920 0.00087133 0.01660021
v -0.00574920 0.00087133 0.01660021
v -0.02080372 0.00565234 0.01877334
v -0.02080372 0.00565234 0.01877334
v -0.02289252 -0.08751143 0.00694230
v -0.01950619 -0.09000000 0.01110108
v -0.00779471 -0.00454184 0.01520634
v -0.00779471 -0.00454184 0.01520634
v -0.01599522 -0.05795311 0.01520634
v -0.01599522 -0.05795311 0.01520634
v -0.01928295 0.00087133 0.00572705
v 0.01029698 -0.08716031 0.01520634
v 0.01029698 -0.08716031 0.01520634
v 0.01927389 0.00087133 0.00564056
v -0.02150643 -0.08748251 0.00459731
v -0.01139553 -0.08913241 0.01436838
v -0.01139553 -0.08913241 0.01436838
v -0.02082340 0.00565234 0.00036886
v -0.02082340 0.00565234 0.00036886
v -0.02082340 0.00565234 0.00036886
v -0.02082340 0.00565234 0.00036886
v -0.02140946 -0.08928252 0.01305059
v -0.02140946 -0.08928252 0.01305059
v 0.00413236 0.01244247 0.01588153
v 0.00413236 0.01244247 0.01588153
v 0.00413236 0.01244247 0.01588153
v 0.00413236 0.01244247 0.00355943
v 0.00413236 0.01244247 0.00355943
v 0.00413236 0.01244247 0.00355943
v 0.01792422 0.00041641 0.00522989
v -0.00357030 0.06944778 0.01552456
v -0.00357030 0.06944778 0.01552456
v -0.00357030 0.06944778 0.01552456
v -0.00357030 0.06712134 0.00365903
v -0.00357030 0.06712134 0.00365903
v -0.00357030 0.06712134 0.00365903
v -0.00357030 0.06711625 0.01552456
v -0.00357030 0.06711625 0.01552456
v -0.00357030 0.06711625 0.01552456
v -0.00650088 0.03007306 0.01516966
v -0.00650088 0.03007306 0.01516966
v -0.00230163 0.07396290 0.00365903
v -0.00230163 0.07396290 0.00365903
v -0.00230163 0.07396290 0.00365903
v 0.00022970 0.04344792 0.00365632
v 0.00022970 0.04344792 0.00365632
v 0.00316586 0.03664976 0.00934072
v 0.00316586 0.03664976 0.00934072
v 0.00090389 0.02507948 0.00363545
v 0.00673815 0.04214064 0.00365878
v 0.00673815 0.04214064 0.00365878
v -0.00744857 0.02050363 0.00956807
v -0.00744857 0.02050363 0.00956807
v 0.01145526 0.02373937 0.01525972
v 0.01145526 0.02373937 0.01525972
v -0.00866313 0.03499015 0.00368423
v -0.00866313 0.03499015 0.00368423
v -0.00866313 0.03499015 0.00368423
v -0.01528548 0.03580402 0.01539458
v -0.01528548 0.03580402 0.01539458
v -0.01528548 0.03580402 0.01539458
v -0.00732952 0.02074365 0.00376453
v -0.00732952 0.02074365 0.00376453
v -0.00156457 0.06329178 0.01514875
v -0.00156457 0.06329178 0.01514875
v -0.00156457 0.06329178 0.01514875
v -0.00156457 0.06329178 0.00401791
v -0.00156457 0.06329178 0.00401791
v -0.00156457 0.06329178 0.00401791
v -0.00156457 0.07327225 0.01514875
v -0.00156457 0.07327225 0.01514875
v -0.00156457 0.07327225 0.01514875
v -0.00156457 0.07327225 0.00401791
v -0.00156457 0.07327225 0.00401791
v -0.00156457 0.07327225 0.00401791
v -0.01526427 0.03587281 0.00978522
v -0.01526427 0.03587281 0.00978522
v -0.01526427 0.03587281 0.00978522
v -0.01526427 0.03587281 0.00978522
v -0.01510193 0.03594101 0.01551532
v -0.01510193 0.03594101 0.01551532
v -0.00101554 0.04365386 0.01551532
v -0.00101554 0.04365386 0.01551532
v -0.00101554 0.04365386 0.01551532
v -0.00101554 0.04365386 0.00978522
v -0.00101554 0.04365386 0.00978522
v -0.00101554 0.04365386 0.00978522
v -0.00101554 0.04365386 0.00978522
v -0.00090250 0.06046303 0.01552456
v -0.00090250 0.06046303 0.01552456
v -0.00090250 0.06046303 0.01552456
v -0.00925333 0.03302233 0.00369954
v -0.00925333 0.03302233 0.00369954
v -0.00925333 0.03302233 0.00369954
v -0.00100077 0.05284501 0.00506569
v -0.00376583 0.02604499 0.01515835
v -0.00376583 0.02604499 0.01515835
v -0.00924457 0.03310230 0.00949930
v -0.00924457 0.03310230 0.00949930
v -0.00924457 0.03310230 0.00949930
v 0.00225285 0.01861073 0.00949831
v 0.00225285 0.01861073 0.00949831
v 0.00225285 0.01861073 0.00949831
v -0.00088379 0.07612954 0.00365903
v -0.00088379 0.07612954 0.00365903
v 0.00101622 0.02513061 0.01510320
v 0.00101622 0.02513061 0.01510320
v -0.00661189 0.03002150 0.00370189
v 0.00498689 0.02783952 0.00936858
v 0.00498689 0.02783952 0.00936858
v 0.00498689 0.02783952 0.00936858
v -0.01241541 0.03325012 0.00373165
v -0.01241541 0.03325012 0.00373165
v -0.01241541 0.03325012 0.00373165
v -0.00098499 0.05866535 0.01552456
v -0.00098499 0.05866535 0.01552456
v -0.00098499 0.05866535 0.01552456
v -0.00098499 0.05866535 0.00521902
v -0.00098499 0.05866535 0.00521902
v -0.00098499 0.05866535 0.00521902
v -0.00417016 0.08997037 0.00365901
v -0.00417016 0.08997037 0.00365901
v -0.00417016 0.08997037 0.00365901
v 0.00221048 0.02373937 0.00941717
v 0.00221048 0.02373937 0.00941717
v 0.00221048 0.02373937 0.00941717
v 0.00221048 0.02373937 0.01525972
v 0.00221048 0.02373937 0.01525972
v 0.00221048 0.02373937 0.01525972
v 0.00221048 0.00917633 0.01525972
v 0.00221048 0.00917633 0.01525972
v 0.00221048 0.00917633 0.01525972
v -0.00155912 0.03759017 0.01506382
v -0.00155912 0.03759017 0.01506382
v 0.01102900 0.02722627 0.00365935
v 0.01102900 0.02722627 0.00365935
v 0.01102900 0.02722627 0.00365935
v 0.01108268 0.02725083 0.00929493
v 0.01108268 0.02725083 0.00929493
v 0.01108268 0.02725083 0.00929493
v 0.00590097 0.03262170 0.00932941
v 0.00590097 0.03262170 0.00932941
v -0.00087892 0.07613698 0.01552456
v -0.00087892 0.07613698 0.01552456
v -0.00417189 0.09000000 0.01552456
v -0.00417189 0.09000000 0.01552456
v -0.00417189 0.09000000 0.01552456
v -0.01617198 0.05132550 0.00664811
v -0.01617198 0.05132550 0.00664811
v -0.01617198 0.05132550 0.01256612
v -0.01617198 0.05132550 0.01256612
v 0.00742612 0.02619352 0.00365796
v 0.00742612 0.02619352 0.00365796
v 0.00742612 0.02619352 0.00365796
v -0.01235677 0.05132894 0.00364578
v 0.01144739 0.02374288 0.00365903
v 0.01144739 0.02374288 0.00365903
v 0.00584478 0.03259628 0.00352964
v 0.00787423 0.02836723 0.00365769
v 0.00787423 0.02836723 0.00365769
v 0.00787423 0.02836723 0.00365769
v -0.00382282 0.02601894 0.00949042
v -0.00382282 0.02601894 0.00949042
v -0.00357510 0.06943795 0.00365901
v -0.00357510 0.06943795 0.00365901
v -0.00357510 0.06943795 0.00365901
v -0.00115723 0.04371646 0.00504803
v -0.00115723 0.04371646 0.00504803
v 0.01050210 0.02421326 0.00931981
v 0.01050210 0.02421326 0.00931981
v -0.00289138 0.04671630 0.01552456
v -0.00289138 0.04671630 0.01552456
v -0.00289138 0.04671630 0.00521902
v -0.00289138 0.04671630 0.00521902
v -0.00289138 0.05801187 0.01552456
v -0.00289138 0.05801187 0.01552456
v -0.00289138 0.05801187 0.00521902
v -0.00289138 0.05801187 0.00521902
v 0.00224180 0.00920897 0.00365901
v 0.00224180 0.00920897 0.00365901
v 0.00224180 0.00920897 0.00365901
v -0.00529491 0.04910335 0.01552456
v -0.00529491 0.04910335 0.01552456
v -0.00529491 0.04910335 0.00521902
v -0.00529491 0.04910335 0.00521902
v -0.00529491 0.05562484 0.01552456
v -0.00529491 0.05562484 0.01552456
v -0.00529491 0.05562484 0.00521902
v -0.00529491 0.05562484 0.00521902
v -0.01523746 0.03597111 0.00365893
v -0.01523746 0.03597111 0.00365893
v -0.01523746 0.03597111 0.00365893
v -0.00229983 0.06259670 0.01552456
v -0.00229983 0.06259670 0.01552456
v -0.00229983 0.06259670 0.01552456
v -0.00229983 0.07396733 0.01552456
v -0.00229983 0.07396733 0.01552456
v -0.00229983 0.07396733 0.01552456
v 0.01379128 0.02129096 0.00365901
v 0.01379128 0.02129096 0.00365901
v 0.01379128 0.02129096 0.00365901
v -0.00558678 0.03485524 0.01513053
v -0.00558678 0.03485524 0.01513053
v -0.00315767 0.07179933 0.01552456
v -0.00315767 0.07179933 0.01552456
v -0.00315767 0.07179933 0.01552456
v -0.00315767 0.06476466 0.01552456
v -0.00315767 0.06476466 0.01552456
v -0.00315767 0.06476466 0.01552456
v -0.00094063 0.05866535 0.00506776
v 0.01231130 0.03393312 0.00365869
v 0.01231130 0.03393312 0.00365869
v 0.01044814 0.02418859 0.00365860
v 0.01044814 0.02418859 0.00365860
v 0.00595788 0.03264774 0.01499736
v 0.00595788 0.03264774 0.01499736
v 0.01236455 0.03395745 0.00924003
v 0.01236455 0.03395745 0.00924003
v -0.00161611 0.03756413 0.00939587
v -0.00161611 0.03756413 0.00939587
v -0.00564383 0.03482919 0.00946255
v -0.00564383 0.03482919 0.00946255
v 0.00504386 0.02786557 0.01503652
v 0.00504386 0.02786557 0.01503652
v 0.00504386 0.02786557 0.01503652
v -0.00864021 0.03498291 0.00948437
v -0.00864021 0.03498291 0.00948437
v -0.00864021 0.03498291 0.00948437
v -0.00608285 0.05236409 0.01552456
v -0.00608285 0.05236409 0.01552456
v -0.00608285 0.05236409 0.00521902
v -0.00608285 0.05236409 0.00521902
v -0.00655785 0.03004702 0.00950171
v -0.00655785 0.03004702 0.00950171
v 0.00310932 0.03662473 0.00354095
v -0.00091676 0.09000000 0.01552456
v -0.00091676 0.09000000 0.01552456
v -0.00091676 0.09000000 0.01552456
v -0.00241796 0.05264778 0.00365715
v -0.00241796 0.05264778 0.00365715
v -0.01236094 0.05132777 0.01552456
v -0.01243232 0.03328024 0.00953220
v -0.01243232 0.03328024 0.00953220
v -0.01243232 0.03328024 0.00953220
v 0.00750165 0.02622191 0.00934615
v 0.00750165 0.02622191 0.00934615
v 0.00750165 0.02622191 0.00934615
v -0.00569866 0.03480424 0.00366275
v 0.00686138 0.00452544 0.01525972
v 0.00686138 0.00452544 0.01525972
v 0.00686138 0.00452544 0.01525972
v 0.00679163 0.04216506 0.00926310
v 0.00679163 0.04216506 0.00926310
v -0.00130984 0.04376240 0.00364176
v -0.00130984 0.04376240 0.00364176
v -0.00315573 0.06475979 0.00365903
v -0.00315573 0.06475979 0.00365903
v -0.00315573 0.06475979 0.00365903
v 0.00225764 0.01862729 0.00365901
v 0.00225764 0.01862729 0.00365901
v 0.00225764 0.01862729 0.00365901
v -0.00092229 0.06044726 0.00506840
v -0.00092229 0.06044726 0.00506840
v -0.01271674 0.02876042 0.00378631
v -0.01271674 0.02876042 0.00378631
v 0.00322285 0.03667580 0.01500867
v 0.00322285 0.03667580 0.01500867
v -0.00315823 0.07180967 0.00365901
v -0.00315823 0.07180967 0.00365901
v -0.00315823 0.07180967 0.00365901
v -0.00262430 0.04354529 0.00366121
v -0.00262430 0.04354529 0.00366121
v -0.00262430 0.04354529 0.00366121
v -0.00387701 0.02599346 0.00369060
v 0.00792827 0.02839192 0.00932821
v 0.00792827 0.02839192 0.00932821
v 0.00792827 0.02839192 0.00932821
v 0.00684796 0.00453881 0.00365903
v 0.00684796 0.00453881 0.00365903
v 0.00684796 0.00453881 0.00365903
v -0.00091921 0.08997161 0.00365903
v -0.00091921 0.08997161 0.00365903
v -0.00091921 0.08997161 0.00365903
v -0.01302151 0.02871127 0.00959109
v -0.01302151 0.02871127 0.00959109
v -0.00230693 0.06258862 0.00365897
v -0.00230693 0.06258862 0.00365897
v -0.00230693 0.06258862 0.00365897
v -0.00230693 0.06258862 0.00365897
v -0.00214579 0.06476088 0.01514875
v -0.00214579 0.06476088 0.01514875
v -0.00214579 0.06476088 0.01514875
v -0.00214579 0.06476088 0.00401791
v -0.00214579 0.06476088 0.00401791
v -0.00214579 0.06476088 0.00401791
v -0.00214579 0.07180315 0.01514875
v -0.00214579 0.07180315 0.01514875
v -0.00214579 0.07180315 0.01514875
v -0.00214579 0.07180315 0.00401791
v -0.00214579 0.07180315 0.00401791
v -0.00214579 0.07180315 0.00401791
v 0.00095915 0.02510457 0.00943525
v 0.00095915 0.02510457 0.00943525
v -0.01211523 0.03598618 0.00978522
v -0.01211523 0.03598618 0.00978522
v -0.00263084 0.06907197 0.01514875
v -0.00263084 0.06907197 0.01514875
v -0.00263084 0.06907197 0.01514875
v -0.00263084 0.06907197 0.00401791
v -0.00263084 0.06907197 0.00401791
v -0.00263084 0.06907197 0.00401791
v -0.00263084 0.06749204 0.01514875
v -0.00263084 0.06749204 0.01514875
v -0.00263084 0.06749204 0.01514875
v -0.00263084 0.06749204 0.00401791
v -0.00263084 0.06749204 0.00401791
v -0.00263084 0.06749204 0.00401791
v 0.00493069 0.02781367 0.00356878
v -0.00167209 0.03753845 0.00359610
v -0.00101396 0.04607057 0.01552456
v -0.00101396 0.04607057 0.01552456
v -0.00101396 0.04607057 0.01552456
v -0.00101396 0.04607057 0.00521902
v -0.00101396 0.04607057 0.00521902
v -0.00101396 0.04607057 0.00521902
v -0.00099833 0.05284631 0.00521902
v -0.00099833 0.05284631 0.00521902
v 0.01383887 0.00456555 0.00365901
v 0.01383887 0.00456555 0.00365901
v 0.01383887 0.00456555 0.00365901
v 0.01383887 0.00452544 0.01525972
v 0.01383887 0.00452544 0.01525972
v 0.01383887 0.00452544 0.01525972
v 0.01383887 0.02130197 0.01525972
v 0.01383887 0.02130197 0.01525972
v 0.01383887 0.02130197 0.01525972
v -0.01192628 0.03599419 0.00365880
v -0.01192628 0.03599419 0.00365880
v -0.00679747 0.04359743 0.01551532
v -0.00679747 0.04359743 0.01551532
v -0.00679747 0.04359743 0.00978522
v -0.00679747 0.04359743 0.00978522
v -0.00009979 0.04607057 0.01552456
v -0.00009979 0.04607057 0.01552456
v -0.00009979 0.04607057 0.01552456
v -0.00009979 0.04607057 0.00521902
v -0.00009979 0.04607057 0.00521902
v -0.00009979 0.04607057 0.00521902
v 0.01174834 0.03488545 0.01566650
v 0.01174834 0.03488545 0.01566650
v 0.01174834 0.03488545 0.01566650
v 0.01267670 0.03436261 0.00368971
v 0.01267670 0.03436261 0.00368971
v 0.01267670 0.03436261 0.00368971
v -0.00903428 0.02797682 0.01566650
v -0.00903428 0.02797682 0.01566650
v -0.00903428 0.02797682 0.01566650
v 0.00103213 0.06476088 0.01514875
v 0.00103213 0.06476088 0.01514875
v 0.00103213 0.06476088 0.01514875
v 0.00103213 0.06476088 0.00406549
v 0.00103213 0.06476088 0.00406549
v 0.00103213 0.06476088 0.00406549
v 0.00103213 0.07180315 0.01514875
v 0.00103213 0.07180315 0.01514875
v 0.00103213 0.07180315 0.01514875
v 0.00103213 0.07180315 0.00406549
v 0.00103213 0.07180315 0.00406549
v 0.00103213 0.07180315 0.00406549
v -0.00654667 0.03001369 0.01566650
v -0.00654667 0.03001369 0.01566650
v -0.00654667 0.03001369 0.00972341
v -0.00654667 0.03001369 0.00972341
v -0.00012875 0.05866535 0.00543953
v -0.00012875 0.05866535 0.00543953
v -0.00012875 0.05866535 0.00543953
v -0.00012875 0.05866535 0.01552456
v -0.00012875 0.05866535 0.01552456
v -0.00012875 0.05866535 0.01552456
v 0.00151709 0.06907197 0.01514875
v 0.00151709 0.06907197 0.01514875
v 0.00151709 0.06907197 0.01514875
v 0.00151709 0.06907197 0.00406549
v 0.00151709 0.06907197 0.00406549
v 0.00151709 0.06907197 0.00406549
v 0.00151709 0.06749204 0.01514875
v 0.00151709 0.06749204 0.01514875
v 0.00151709 0.06749204 0.01514875
v 0.00151709 0.06749204 0.00406549
v 0.00151709 0.06749204 0.00406549
v 0.00151709 0.06749204 0.00406549
v -0.00753000 0.02634481 0.01566650
v -0.00753000 0.02634481 0.01566650
v -0.00753000 0.02634481 0.01566650
v -0.00753000 0.02634481 0.00972341
v -0.00753000 0.02634481 0.00972341
v -0.00753000 0.02634481 0.00972341
v -0.01242552 0.02669108 0.01566650
v -0.01242552 0.02669108 0.01566650
v -0.01242552 0.02669108 0.01566650
v -0.01242552 0.02669108 0.00972341
v -0.01242552 0.02669108 0.00972341
v -0.01242552 0.02669108 0.00972341
v -0.00285138 0.00938931 0.01534706
v -0.00285138 0.00938931 0.01534706
v -0.00285138 0.00938946 0.00401295
v -0.00285138 0.00938946 0.00401295
v -0.00285138 0.02352722 0.00401295
v -0.00285138 0.02352722 0.00401295
v -0.00285138 0.02352722 0.00401295
v -0.00285138 0.02352722 0.00972341
v -0.00285138 0.02352722 0.00972341
v -0.00285138 0.02352722 0.00972341
v -0.00285138 0.01942288 0.00972341
v -0.00285138 0.01942288 0.00972341
v -0.00285138 0.01942288 0.00972341
v 0.00589826 0.03265894 0.01566650
v 0.00589826 0.03265894 0.01566650
v 0.00589826 0.03265894 0.00972341
v 0.00589826 0.03265894 0.00972341
v 0.00130415 0.05236890 0.00368971
v 0.00130415 0.05236890 0.00368971
v -0.00565939 0.03480103 0.01566650
v -0.00565939 0.03480103 0.01566650
v -0.00565939 0.03480103 0.00972341
v -0.00565939 0.03480103 0.00972341
v -0.00018838 0.05866535 0.00511351
v -0.01448213 0.00473755 0.01534706
v -0.01448213 0.00473755 0.01534706
v -0.01448213 0.00473755 0.01534706
v -0.01448213 0.00473761 0.00401295
v -0.01448213 0.00473761 0.00401295
v -0.01448213 0.00473761 0.00401295
v -0.01448213 0.02114365 0.01534706
v -0.01448213 0.02114365 0.01534706
v -0.01448213 0.02114365 0.01534706
v -0.01448213 0.02114365 0.00401295
v -0.01448213 0.02114365 0.00401295
v -0.01448213 0.02114365 0.00401295
v 0.00314057 0.03667151 0.00972341
v 0.00314057 0.03667151 0.00972341
v 0.00246595 0.05801187 0.00514194
v 0.00246595 0.05801187 0.00514194
v 0.01151742 0.02606411 0.01566650
v 0.01151742 0.02606411 0.01566650
v 0.01151742 0.02606411 0.00972341
v 0.01151742 0.02606411 0.00972341
v 0.00118602 0.06259658 0.00368971
v 0.00118602 0.06259658 0.00368971
v 0.00118602 0.06259658 0.00368971
v 0.00118602 0.06259658 0.00368971
v -0.00018006 0.04378693 0.00972341
v -0.00018006 0.04378693 0.00972341
v -0.00018006 0.04378693 0.00972341
v -0.00939869 0.02350148 0.01566650
v -0.00939869 0.02350148 0.01566650
v -0.00939869 0.02350148 0.01566650
v 0.01124719 0.05132777 0.01552456
v 0.01124719 0.05132777 0.00368971
v 0.00045084 0.06329178 0.01514875
v 0.00045084 0.06329178 0.01514875
v 0.00045084 0.06329178 0.01514875
v 0.00045084 0.06329178 0.00406549
v 0.00045084 0.06329178 0.00406549
v 0.00045084 0.06329178 0.00406549
v 0.00045084 0.07327225 0.01514875
v 0.00045084 0.07327225 0.01514875
v 0.00045084 0.07327225 0.01514875
v 0.00045084 0.07327225 0.00406549
v 0.00045084 0.07327225 0.00406549
v 0.00045084 0.07327225 0.00406549
v -0.01029664 0.02444776 0.00972341
v -0.01029664 0.02444776 0.00972341
v -0.01029664 0.02444776 0.00972341
v -0.01029664 0.02444772 0.01566650
v -0.01029664 0.02444772 0.01566650
v -0.01029664 0.02444772 0.01566650
v -0.00019699 0.09000000 0.01552456
v -0.00019699 0.09000000 0.01552456
v -0.00019699 0.09000000 0.01552456
v -0.00019699 0.09000000 0.00368971
v -0.00019699 0.09000000 0.00368971
v -0.00019699 0.09000000 0.00368971
v 0.00909403 0.04222403 0.00968902
v 0.00909403 0.04222403 0.00968902
v -0.00021118 0.06046303 0.00511225
v -0.00021118 0.06046303 0.00511225
v -0.00021118 0.06046303 0.01552456
v -0.00021118 0.06046303 0.01552456
v -0.00021118 0.06046303 0.01552456
v -0.00011464 0.05249485 0.00511757
v 0.00204391 0.07179933 0.01552456
v 0.00204391 0.07179933 0.01552456
v 0.00204391 0.07179933 0.01552456
v 0.00204391 0.07179933 0.00368971
v 0.00204391 0.07179933 0.00368971
v 0.00204391 0.07179933 0.00368971
v 0.00204391 0.06476466 0.01552456
v 0.00204391 0.06476466 0.01552456
v 0.00204391 0.06476466 0.01552456
v 0.00204391 0.06476466 0.00368971
v 0.00204391 0.06476466 0.00368971
v 0.00204391 0.06476466 0.00368971
v -0.00904388 0.02795703 0.00972341
v -0.00904388 0.02795703 0.00972341
v -0.00904388 0.02795703 0.00972341
v 0.00432108 0.01923505 0.01566650
v 0.00432108 0.01923505 0.01566650
v 0.00432108 0.01923505 0.00972341
v 0.00432108 0.01923505 0.00972341
v 0.00501090 0.02787160 0.01566650
v 0.00501090 0.02787160 0.01566650
v 0.00501090 0.02787160 0.00972341
v 0.00501090 0.02787160 0.00972341
v 0.00177763 0.04671630 0.01552456
v 0.00177763 0.04671630 0.01552456
v 0.00177763 0.05801187 0.01552456
v 0.00177763 0.05801187 0.01552456
v 0.00245663 0.06944778 0.01552456
v 0.00245663 0.06944778 0.01552456
v 0.00245663 0.06944778 0.01552456
v 0.00245663 0.06944778 0.00368971
v 0.00245663 0.06944778 0.00368971
v 0.00245663 0.06944778 0.00368971
v 0.00245663 0.06711625 0.01552456
v 0.00245663 0.06711625 0.01552456
v 0.00245663 0.06711625 0.01552456
v 0.00245663 0.06711625 0.00368971
v 0.00245663 0.06711625 0.00368971
v 0.00245663 0.06711625 0.00368971
v -0.00164685 0.03755880 0.01566650
v -0.00164685 0.03755880 0.01566650
v -0.00164685 0.03755880 0.00972341
v -0.00164685 0.03755880 0.00972341
v 0.00131533 0.04344860 0.00368971
v 0.00131533 0.04344860 0.00368971
v 0.00131533 0.04344860 0.00368971
v 0.00305814 0.09000000 0.01552456
v 0.00305814 0.09000000 0.01552456
v 0.00305814 0.09000000 0.01552456
v 0.00305814 0.09000000 0.00368971
v 0.00305814 0.09000000 0.00368971
v 0.00305814 0.09000000 0.00368971
v -0.00017548 0.04331204 0.00972341
v -0.00017548 0.04331204 0.00972341
v -0.00017548 0.04331204 0.00972341
v -0.00023483 0.07613698 0.01552456
v -0.00023483 0.07613698 0.01552456
v -0.00023483 0.07613698 0.00368971
v -0.00023483 0.07613698 0.00368971
v -0.00009577 0.04330995 0.01566650
v -0.00009577 0.04330995 0.01566650
v -0.00009577 0.04330995 0.01566650
v -0.00011742 0.04375885 0.00510256
v -0.00011742 0.04375885 0.00510256
v 0.00315949 0.03673993 0.01566650
v 0.00315949 0.03673993 0.01566650
v -0.00942306 0.02352722 0.00972341
v -0.00942306 0.02352722 0.00972341
v -0.00942306 0.02352722 0.00972341
v 0.00099844 0.02511385 0.01566650
v 0.00099844 0.02511385 0.01566650
v 0.00099844 0.02511385 0.01566650
v 0.00099844 0.02511385 0.00972341
v 0.00099844 0.02511385 0.00972341
v 0.00099844 0.02511385 0.00972341
v 0.01174549 0.03477675 0.00972341
v 0.01174549 0.03477675 0.00972341
v 0.01174549 0.03477675 0.00972341
v 0.00202858 0.04671630 0.00521902
v 0.00202858 0.04671630 0.00521902
v -0.00283971 0.01942257 0.01566650
v -0.00283971 0.01942257 0.01566650
v -0.00283971 0.01942257 0.01566650
v -0.01209802 0.02352722 0.00401295
v -0.01209802 0.02352722 0.00401295
v -0.01209802 0.02352722 0.00401295
v -0.01209802 0.02352718 0.01534706
v -0.01209802 0.02352718 0.01534706
v -0.01209802 0.02352718 0.01534706
v 0.00778579 0.04206764 0.00368971
v 0.00778579 0.04206764 0.00368971
v -0.00496949 0.04343751 0.01566650
v -0.00496949 0.04343751 0.01566650
v -0.00496949 0.04343757 0.00972341
v -0.00496949 0.04343757 0.00972341
v 0.00118609 0.06259670 0.01552456
v 0.00118609 0.06259670 0.01552456
v 0.00118609 0.06259670 0.01552456
v 0.00118609 0.07396733 0.01552456
v 0.00118609 0.07396733 0.01552456
v 0.00118609 0.07396733 0.01552456
v 0.00118609 0.07396733 0.00368971
v 0.00118609 0.07396733 0.00368971
v 0.00118609 0.07396733 0.00368971
v 0.01409125 0.03436184 0.01552456
v 0.01409125 0.03436184 0.01552456
v 0.01409125 0.03436184 0.01552456
v 0.01409125 0.03436184 0.00368971
v 0.01409125 0.03436184 0.00368971
v 0.01409125 0.03436184 0.00368971
v 0.00418117 0.04910335 0.01552456
v 0.00418117 0.04910335 0.01552456
v 0.00418117 0.04910335 0.00521902
v 0.00418117 0.04910335 0.00521902
v 0.00418117 0.05562484 0.01552456
v 0.00418117 0.05562484 0.01552456
v 0.00418117 0.05562484 0.00521902
v 0.00418117 0.05562484 0.00521902
v 0.00496917 0.05236409 0.01552456
v 0.00496917 0.05236409 0.01552456
v 0.00496917 0.05236409 0.00521902
v 0.00496917 0.05236409 0.00521902
v -0.01216583 0.03660851 0.00972341
v -0.01216583 0.03660851 0.00972341
v -0.01216583 0.03660847 0.01566650
v -0.01216583 0.03660847 0.01566650
v -0.00378898 0.02600117 0.01566650
v -0.00378898 0.02600117 0.01566650
v -0.00378898 0.02600113 0.00972341
v -0.00378898 0.02600113 0.00972341
v 0.01326733 0.03436423 0.00967692
v 0.01326733 0.03436423 0.00967692
v 0.01326733 0.03436423 0.00967692
v -0.00750327 0.00473755 0.01534706
v -0.00750327 0.00473755 0.01534706
v -0.00750327 0.00473761 0.00401295
v -0.00750327 0.00473761 0.00401295
v 0.01505824 0.05132550 0.00664811
v 0.01505824 0.05132550 0.00664811
v 0.01505824 0.05132550 0.01256612
v 0.01505824 0.05132550 0.01256612
v -0.00011456 0.05249321 0.00521902
v -0.00011456 0.05249321 0.00521902
f 491 540 486
f 486 540 152
f 486 152 258
f 258 152 340
f 258 340 327
f 327 340 385
f 327 385 366
f 366 385 423
f 178 215 517
f 517 215 555
f 366 423 178
f 178 423 215
f 612 470 614
f 614 470 471
f 470 108 471
f 471 108 106
f 307 273 491
f 491 273 540
f 352 599 290
f 290 599 185
f 599 24 185
f 185 24 53
f 119 190 304
f 304 190 519
f 545 527 415
f 412 415 299
f 299 415 527
f 412 299 297
f 566 501 594
f 594 501 139
f 501 398 139
f 139 398 63
f 398 359 63
f 63 359 19
f 359 320 19
f 19 320 596
f 438 476 531
f 531 476 161
f 320 531 596
f 596 531 161
f 502 347 505
f 505 347 351
f 529 188 301
f 16 301 587
f 587 301 188
f 587 267 16
f 167 566 450
f 450 566 594
f 502 505 529
f 529 505 527
f 527 545 529
f 529 545 188
f 450 188 167
f 167 188 545
f 524 416 393
f 393 416 55
f 416 524 508
f 508 524 382
f 603 404 422
f 422 404 115
f 517 555 290
f 290 555 352
f 556 318 353
f 353 318 598
f 518 291 120
f 120 291 184
f 118 22 318
f 318 22 598
f 119 304 23
f 23 304 52
f 303 120 51
f 51 120 184
f 437 492 392
f 392 492 525
f 475 54 18
f 18 54 417
f 476 438 55
f 55 438 393
f 403 381 492
f 492 381 525
f 603 506 404
f 404 506 380
f 602 18 507
f 507 18 417
f 289 286 108
f 108 286 106
f 307 447 273
f 273 447 516
f 516 447 456
f 456 447 375
f 375 81 286
f 286 81 285
f 289 440 456
f 456 440 323
f 375 286 456
f 456 286 289
f 173 218 443
f 443 218 554
f 589 585 174
f 174 585 220
f 493 217 589
f 589 217 585
f 127 604 203
f 203 604 371
f 605 568 373
f 373 568 261
f 568 444 261
f 261 444 551
f 369 49 468
f 468 49 233
f 224 156 369
f 369 156 49
f 427 66 224
f 224 66 156
f 150 223 65
f 65 223 155
f 223 368 155
f 155 368 50
f 368 467 50
f 50 467 232
f 205 243 94
f 94 243 141
f 259 36 205
f 205 36 243
f 259 345 36
f 36 345 430
f 344 260 429
f 429 260 37
f 260 206 37
f 37 206 242
f 206 93 242
f 242 93 140
f 317 322 597
f 597 322 110
f 322 95 110
f 110 95 38
f 60 193 96
f 96 193 39
f 314 191 86
f 86 191 3
f 46 186 316
f 316 186 192
f 331 457 46
f 46 457 186
f 343 21 533
f 533 21 256
f 21 58 256
f 256 58 293
f 75 435 58
f 58 435 293
f 298 127 411
f 411 127 203
f 15 266 493
f 493 266 217
f 444 443 551
f 551 443 554
f 593 138 427
f 427 138 66
f 468 233 467
f 467 233 232
f 65 500 150
f 150 500 565
f 138 64 66
f 66 64 170
f 169 399 65
f 65 399 500
f 233 563 232
f 232 563 562
f 64 20 170
f 170 20 521
f 520 360 169
f 169 360 399
f 563 387 562
f 562 387 386
f 20 595 521
f 521 595 278
f 277 319 520
f 520 319 360
f 387 482 386
f 386 482 481
f 475 94 160
f 160 94 141
f 140 93 530
f 530 93 437
f 430 345 429
f 429 345 344
f 482 430 481
f 481 430 429
f 277 140 319
f 319 140 530
f 160 141 595
f 595 141 278
f 503 528 148
f 148 528 535
f 528 302 535
f 535 302 87
f 537 166 60
f 60 166 544
f 544 414 60
f 60 414 193
f 588 313 268
f 268 313 216
f 302 17 87
f 87 17 494
f 445 241 442
f 442 241 67
f 552 553 597
f 597 553 308
f 300 321 296
f 296 321 126
f 414 413 193
f 193 413 204
f 504 349 3
f 3 349 86
f 457 331 70
f 70 331 329
f 77 348 148
f 148 348 503
f 468 467 74
f 74 467 135
f 150 565 536
f 536 565 165
f 449 593 434
f 434 593 427
f 67 241 149
f 149 241 474
f 149 474 70
f 70 474 457
f 321 300 478
f 478 300 526
f 478 526 3
f 3 526 504
f 313 588 400
f 400 588 189
f 189 451 400
f 400 451 433
f 134 317 73
f 73 317 548
f 317 597 548
f 548 597 308
f 18 31 475
f 475 31 94
f 93 154 437
f 437 154 492
f 345 225 344
f 344 225 591
f 252 397 533
f 397 343 533
f 532 591 251
f 251 591 225
f 31 18 310
f 310 18 602
f 603 422 309
f 309 422 584
f 75 115 435
f 435 115 404
f 403 492 436
f 436 492 154
f 522 315 76
f 76 315 85
f 58 422 75
f 422 115 75
f 422 58 584
f 584 58 21
f 579 584 592
f 592 584 21
f 592 21 397
f 397 21 343
f 176 442 133
f 133 442 67
f 590 356 494
f 494 356 87
f 175 132 590
f 590 132 356
f 586 216 489
f 489 216 313
f 221 575 553
f 553 575 308
f 219 586 574
f 574 586 489
f 607 126 270
f 270 126 321
f 569 200 445
f 445 200 241
f 569 606 200
f 200 606 269
f 468 74 369
f 369 74 264
f 224 248 427
f 427 248 434
f 369 264 224
f 224 264 248
f 66 170 156
f 156 170 512
f 233 49 563
f 563 49 354
f 156 512 49
f 49 512 354
f 50 232 355
f 355 232 562
f 65 155 169
f 169 155 511
f 155 50 511
f 511 50 355
f 170 521 512
f 512 521 312
f 563 354 387
f 387 354 401
f 512 312 354
f 354 312 401
f 355 562 402
f 402 562 386
f 169 511 520
f 520 511 311
f 511 355 311
f 311 355 402
f 312 521 26
f 26 521 278
f 387 401 482
f 482 401 549
f 401 312 549
f 549 312 26
f 402 386 550
f 550 386 481
f 311 25 520
f 520 25 277
f 402 550 311
f 311 550 25
f 205 94 342
f 342 94 31
f 345 259 225
f 225 259 159
f 259 205 159
f 159 205 342
f 482 549 430
f 430 549 36
f 549 26 36
f 36 26 243
f 26 278 243
f 243 278 141
f 344 591 260
f 260 591 99
f 206 601 93
f 93 601 154
f 260 99 206
f 206 99 601
f 25 242 277
f 277 242 140
f 550 37 25
f 25 37 242
f 481 429 550
f 550 429 37
f 89 149 183
f 183 149 70
f 1 431 535
f 535 431 148
f 88 182 1
f 1 182 431
f 183 70 379
f 379 70 329
f 148 431 77
f 77 431 523
f 431 182 523
f 523 182 378
f 149 89 67
f 67 89 133
f 88 1 132
f 132 1 356
f 535 87 1
f 1 87 356
f 322 317 146
f 146 317 134
f 96 497 60
f 60 497 537
f 95 322 495
f 495 322 146
f 467 368 135
f 135 368 147
f 368 223 147
f 147 223 496
f 223 150 496
f 496 150 536
f 372 39 204
f 204 39 193
f 262 110 370
f 370 110 38
f 262 552 110
f 110 552 597
f 270 321 391
f 391 321 478
f 200 473 241
f 241 473 474
f 269 390 200
f 200 390 473
f 73 548 263
f 263 548 83
f 433 249 400
f 400 249 181
f 265 84 249
f 249 84 181
f 3 191 478
f 478 191 391
f 192 186 390
f 390 186 473
f 457 474 186
f 186 474 473
f 575 83 308
f 308 83 548
f 489 181 574
f 574 181 84
f 489 313 181
f 181 313 400
f 342 31 142
f 142 31 310
f 159 608 225
f 225 608 251
f 159 342 608
f 608 342 142
f 601 292 154
f 154 292 436
f 99 255 601
f 601 255 292
f 99 591 255
f 255 591 532
f 584 579 309
f 309 579 143
f 592 609 579
f 579 609 143
f 397 252 592
f 592 252 609
f 172 72 14
f 14 72 11
f 72 418 11
f 11 418 112
f 421 280 114
f 114 280 102
f 480 125 282
f 282 125 338
f 464 246 480
f 480 246 125
f 4 560 463
f 463 560 247
f 564 121 129
f 129 121 557
f 121 410 557
f 557 410 79
f 410 510 79
f 79 510 335
f 222 376 336
f 336 376 78
f 92 558 376
f 376 558 78
f 477 128 92
f 92 128 558
f 122 583 425
f 425 583 208
f 583 578 208
f 208 578 90
f 578 409 90
f 90 409 358
f 577 91 408
f 408 91 357
f 582 207 577
f 577 207 91
f 582 123 207
f 207 123 426
f 406 581 187
f 187 581 250
f 405 538 580
f 580 538 32
f 538 168 32
f 32 168 153
f 616 546 199
f 199 546 388
f 136 334 616
f 616 334 546
f 137 432 332
f 332 432 484
f 234 487 428
f 428 487 211
f 487 196 211
f 211 196 230
f 197 41 231
f 231 41 195
f 396 394 68
f 68 394 157
f 394 238 157
f 157 238 116
f 509 460 238
f 238 460 116
f 560 4 82
f 82 4 283
f 441 172 325
f 325 172 14
f 282 338 280
f 280 338 102
f 539 564 151
f 151 564 129
f 510 222 335
f 335 222 336
f 490 485 477
f 477 485 128
f 151 129 339
f 339 129 459
f 485 257 128
f 128 257 458
f 335 336 542
f 542 336 543
f 339 459 384
f 384 459 276
f 257 326 458
f 458 326 275
f 542 543 209
f 209 543 210
f 384 276 424
f 424 276 145
f 326 367 275
f 275 367 144
f 209 210 226
f 226 210 227
f 358 409 214
f 214 409 556
f 357 177 408
f 408 177 518
f 425 426 122
f 122 426 123
f 226 227 425
f 425 227 426
f 144 367 357
f 357 367 177
f 145 358 424
f 424 358 214
f 168 109 153
f 153 109 469
f 567 288 168
f 168 288 109
f 484 432 305
f 305 432 448
f 407 374 432
f 432 374 448
f 13 56 324
f 324 56 455
f 288 567 439
f 439 567 171
f 341 194 279
f 279 194 281
f 337 600 101
f 101 600 201
f 5 446 284
f 284 446 287
f 374 407 80
f 80 407 561
f 472 195 615
f 615 195 41
f 428 250 234
f 234 250 236
f 469 611 153
f 153 611 48
f 389 222 44
f 44 222 510
f 306 490 483
f 483 490 477
f 274 239 539
f 539 239 564
f 341 187 194
f 194 187 498
f 187 250 498
f 498 250 428
f 446 576 287
f 287 576 107
f 576 195 107
f 107 195 472
f 56 541 455
f 455 541 515
f 240 272 541
f 541 272 515
f 100 199 43
f 43 199 388
f 201 600 100
f 100 600 199
f 409 395 556
f 556 395 318
f 408 518 2
f 2 518 120
f 122 123 499
f 499 123 27
f 68 361 396
f 396 361 202
f 499 27 69
f 69 27 362
f 395 461 318
f 318 461 118
f 509 190 460
f 460 190 119
f 42 105 519
f 519 105 304
f 2 120 104
f 104 120 303
f 40 47 613
f 613 47 610
f 454 42 190
f 42 519 190
f 59 454 509
f 509 454 190
f 59 509 394
f 394 509 238
f 59 394 202
f 394 396 202
f 111 101 179
f 179 101 201
f 12 559 13
f 13 559 56
f 113 180 12
f 12 180 559
f 479 281 57
f 57 281 194
f 466 213 5
f 5 213 446
f 479 57 465
f 465 57 212
f 121 564 62
f 62 564 239
f 510 410 44
f 44 410 7
f 410 121 7
f 7 121 62
f 79 335 10
f 10 335 542
f 129 557 459
f 459 557 294
f 557 79 294
f 294 79 10
f 128 458 558
f 558 458 295
f 336 78 543
f 543 78 9
f 558 295 78
f 78 295 9
f 10 542 514
f 514 542 209
f 459 294 276
f 276 294 452
f 294 10 452
f 452 10 514
f 458 275 295
f 295 275 453
f 543 9 210
f 210 9 513
f 295 453 9
f 9 453 513
f 514 209 364
f 364 209 226
f 452 163 276
f 276 163 145
f 514 364 452
f 452 364 163
f 453 275 164
f 164 275 144
f 210 513 227
f 227 513 363
f 513 453 363
f 363 453 164
f 122 499 583
f 583 499 534
f 578 162 409
f 409 162 395
f 583 534 578
f 578 534 162
f 163 90 145
f 145 90 358
f 364 208 163
f 163 208 90
f 226 425 364
f 364 425 208
f 577 408 28
f 28 408 2
f 123 582 27
f 27 582 462
f 582 577 462
f 462 577 28
f 227 363 426
f 426 363 207
f 363 164 207
f 207 164 91
f 164 144 91
f 91 144 357
f 187 341 406
f 406 341 253
f 168 538 567
f 567 538 103
f 405 254 538
f 538 254 103
f 153 48 32
f 32 48 29
f 581 34 250
f 250 34 236
f 32 29 580
f 580 29 33
f 420 253 279
f 279 253 341
f 419 71 254
f 254 71 103
f 71 171 103
f 103 171 567
f 199 600 616
f 616 600 383
f 432 137 407
f 407 137 571
f 616 383 136
f 136 383 570
f 92 333 477
f 477 333 483
f 376 547 92
f 92 547 333
f 222 389 376
f 376 389 547
f 124 383 337
f 337 383 600
f 124 244 383
f 383 244 570
f 245 561 571
f 571 561 407
f 179 201 572
f 572 201 100
f 559 271 56
f 56 271 541
f 559 180 271
f 271 180 573
f 195 576 231
f 231 576 130
f 428 211 498
f 498 211 365
f 230 131 211
f 211 131 365
f 213 130 446
f 446 130 576
f 212 57 131
f 131 57 365
f 57 194 365
f 365 194 498
f 43 6 100
f 100 6 572
f 8 61 573
f 573 61 271
f 240 541 61
f 61 541 271
f 28 2 98
f 98 2 104
f 462 229 27
f 27 229 362
f 462 28 229
f 229 28 98
f 162 117 395
f 395 117 461
f 534 158 162
f 162 158 117
f 534 499 158
f 158 499 69
f 42 454 105
f 105 454 97
f 59 228 454
f 454 228 97
f 202 361 59
f 59 361 228
f 45 377 330
f 330 377 328
f 522 377 315
f 315 377 45
f 76 85 346
f 346 85 350
f 198 30 40
f 40 30 47
f 35 488 237
f 237 488 235
f 35 30 488
f 488 30 198
f 714 640 718
f 640 921 718
f 718 921 836
f 919 836 921
f 864 835 916
f 916 835 918
f 786 914 920
f 920 914 917
f 711 715 687
f 687 715 716
f 742 785 641
f 641 785 922
f 837 866 717
f 717 866 767
f 697 888 811
f 811 888 692
f 888 748 692
f 692 748 682
f 748 820 682
f 682 820 627
f 627 820 789
f 789 820 808
f 805 719 808
f 808 719 789
f 633 852 805
f 805 852 719
f 633 728 852
f 852 728 801
f 809 801 696
f 696 801 728
f 744 821 834
f 834 821 905
f 904 744 694
f 694 744 834
f 904 694 635
f 635 694 860
f 683 626 720
f 720 626 788
f 693 683 853
f 853 683 720
f 693 853 810
f 810 853 802
f 638 689 648
f 648 689 847
f 870 638 851
f 851 638 648
f 814 685 644
f 644 685 679
f 803 839 798
f 798 839 636
f 861 745 833
f 833 745 740
f 744 747 797
f 797 747 723
f 845 635 649
f 649 635 860
f 694 850 860
f 860 850 649
f 694 680 850
f 850 680 698
f 821 744 637
f 637 744 797
f 722 725 798
f 798 725 803
f 699 828 851
f 851 828 870
f 829 700 684
f 684 700 678
f 891 812 923
f 923 812 642
f 724 721 862
f 862 721 746
f 756 832 800
f 800 832 739
f 727 634 804
f 804 634 838
f 806 672 634
f 634 672 838
f 819 749 871
f 871 749 639
f 688 639 889
f 889 639 749
f 889 712 688
f 904 635 738
f 738 635 845
f 813 807 686
f 686 807 819
f 831 695 863
f 863 695 727
f 744 904 747
f 747 904 738
f 694 834 680
f 680 834 643
f 819 871 686
f 686 871 830
f 727 804 863
f 863 804 726
f 734 776 741
f 645 736 666
f 666 736 827
f 909 760 912
f 912 764 705
f 709 734 741
f 732 827 736
f 912 760 770
f 912 770 818
f 769 771 758
f 758 771 759
f 670 673 926
f 926 673 928
f 759 911 758
f 758 911 908
f 815 817 769
f 769 817 771
f 912 818 774
f 762 763 772
f 772 763 775
f 706 763 703
f 703 763 762
f 874 849 780
f 780 849 677
f 844 795 620
f 620 795 623
f 707 731 735
f 735 731 737
f 751 619 856
f 856 619 792
f 630 784 690
f 690 784 729
f 690 729 869
f 869 729 823
f 867 822 708
f 708 822 733
f 647 667 665
f 926 928 667
f 667 928 665
f 774 764 912
f 775 817 772
f 772 817 815
f 735 664 778
f 855 628 709
f 709 628 868
f 816 827 773
f 773 827 625
f 793 781 761
f 781 675 761
f 761 675 702
f 668 907 671
f 671 907 910
f 925 666 827
f 768 757 925
f 906 669 757
f 757 669 925
f 618 732 791
f 791 732 782
f 782 732 824
f 621 741 843
f 741 872 843
f 741 621 752
f 868 628 691
f 925 827 768
f 768 827 816
f 646 664 737
f 737 664 735
f 637 631 821
f 821 631 841
f 821 841 905
f 776 924 741
f 923 777 891
f 891 777 663
f 839 674 632
f 632 674 754
f 632 636 839
f 662 927 890
f 890 927 813
f 807 813 806
f 806 813 927
f 806 927 672
f 641 756 742
f 742 756 800
f 831 712 695
f 695 712 889
f 755 712 831
f 641 713 756
f 756 713 710
f 787 766 915
f 915 766 865
f 845 787 799
f 787 743 799
f 787 845 766
f 716 765 687
f 687 765 846
f 643 834 858
f 841 858 905
f 905 858 834
f 625 793 773
f 793 761 773
f 732 618 827
f 618 625 827
f 782 824 730
f 651 876 654
f 654 876 879
f 898 894 901
f 901 894 897
f 884 657 887
f 887 657 661
f 781 793 650
f 650 793 877
f 794 842 878
f 878 842 880
f 872 653 843
f 843 653 881
f 779 652 873
f 873 652 655
f 625 618 900
f 900 618 892
f 617 750 893
f 893 750 895
f 621 903 752
f 752 903 896
f 624 899 622
f 622 899 902
f 791 782 882
f 882 782 658
f 783 629 656
f 656 629 660
f 628 855 659
f 659 855 885
f 790 883 854
f 854 883 886
f 741 752 709
f 752 855 709
f 738 845 799
f 681 825 753
f 753 825 857
f 848 875 796
f 796 875 825
f 825 681 796
f 704 796 913
f 913 796 681
f 741 826 872
f 913 681 910
f 910 681 753
f 753 671 910
f 826 741 858
f 858 741 643
f 741 924 643
f 632 754 840
f 701 676 704
f 796 704 848
f 676 848 704
f 840 754 859
f 1204 979 957
f 957 979 943
f 1010 957 943
f 1070 1167 1039
f 1167 1122 1039
f 1039 1122 1140
f 939 1209 1187
f 1187 1209 1184
f 933 1219 1156
f 1167 1070 938
f 938 1070 1208
f 1157 1102 932
f 932 1102 929
f 1219 1190 1156
f 1219 1198 1190
f 1191 1188 1157
f 1157 1188 1102
f 1219 960 1029
f 1219 1195 1198
f 1195 1219 1029
f 1215 1045 1185
f 1028 962 1103
f 1103 962 965
f 1194 1028 1192
f 1192 1028 1103
f 1196 1044 1183
f 1044 1218 1183
f 1127 1045 1215
f 1124 1218 1044
f 1212 1214 1014
f 1014 1214 1017
f 1020 1015 1023
f 1023 1015 1018
f 1212 991 1214
f 1214 991 993
f 1061 1058 980
f 980 1058 982
f 989 986 1090
f 1090 986 941
f 942 978 1091
f 1091 978 981
f 1203 984 1201
f 1201 984 987
f 1063 979 1042
f 1042 979 1204
f 959 1206 956
f 956 1206 1205
f 1147 1205 1150
f 1150 1205 1206
f 1010 943 1202
f 1202 943 985
f 956 1009 959
f 959 1009 1012
f 1097 1149 1099
f 1099 1149 1152
f 1094 1031 1096
f 1096 1031 1033
f 1170 1203 1172
f 1172 1203 1201
f 1009 1118 1012
f 1012 1118 1120
f 1148 1098 1093
f 1093 1098 1030
f 1117 1010 1169
f 1169 1010 1202
f 1143 1027 1118
f 1118 1027 1120
f 1006 1027 1004
f 1004 1027 1143
f 1185 1045 940
f 940 1045 1168
f 1003 1142 937
f 1197 1188 1199
f 1199 1188 1191
f 1089 1045 1115
f 1217 1216 1182
f 1182 1216 1186
f 1194 1192 1199
f 1199 1192 1197
f 1036 1175 1072
f 1072 1175 1074
f 1085 1088 1113
f 1113 1088 1116
f 1107 1110 1078
f 1078 1110 1081
f 1176 1179 1133
f 1133 1179 1135
f 1128 1216 1125
f 1125 1216 1217
f 1135 1069 1133
f 1133 1069 1066
f 1177 1124 1080
f 1067 1129 1064
f 1064 1129 1126
f 1139 1170 1132
f 1132 1170 1172
f 994 1161 992
f 1161 1024 992
f 992 1024 1213
f 1019 1213 1024
f 1160 1002 991
f 991 1002 993
f 999 996 1002
f 1002 996 993
f 1094 1096 1158
f 1158 1096 1001
f 1117 1169 1137
f 1033 1031 1154
f 1154 1031 935
f 1098 1003 1030
f 1030 1003 937
f 1099 1006 1097
f 1097 1006 1004
f 931 1138 1038
f 1038 1138 1130
f 1060 1062 1144
f 1144 1062 1041
f 1151 1095 1100
f 1100 1095 1032
f 1100 1032 1005
f 1005 1032 1153
f 1005 1153 1026
f 1026 1153 1071
f 1071 1153 1210
f 1026 1131 1119
f 988 1092 1200
f 1200 1092 1011
f 1011 1092 958
f 1162 1146 1164
f 1164 1146 1043
f 997 1000 1151
f 1151 1000 1095
f 1151 1207 997
f 997 1207 983
f 997 983 1145
f 1145 983 1059
f 1207 958 983
f 983 958 1092
f 1200 1011 1171
f 1171 1011 1119
f 1171 1119 1131
f 1040 1131 1071
f 1026 1071 1131
f 998 1146 995
f 995 1146 1162
f 1184 1209 936
f 936 1209 1155
f 937 1189 1183
f 1183 1189 1196
f 1142 1117 1137
f 1101 1189 1142
f 1142 1189 937
f 930 1101 1137
f 1137 1101 1142
f 1204 1159 1042
f 1211 1016 990
f 990 1016 1021
f 990 1021 1159
f 1159 1021 1165
f 1042 1159 1165
f 1204 1148 1159
f 1159 1148 1093
f 1086 1104 1174
f 1174 1104 1075
f 1075 1104 963
f 1083 1127 1180
f 1180 1127 1068
f 1045 1127 1108
f 1108 1127 1083
f 1112 1044 1193
f 1193 1044 1196
f 1112 1193 1086
f 1193 1104 1086
f 1124 1044 1105
f 1112 1105 1044
f 1180 1068 1136
f 1080 1124 1105
f 1051 949 1048
f 1048 949 945
f 977 971 974
f 974 971 968
f 954 1055 950
f 950 1055 1052
f 1035 1089 1049
f 1049 1089 947
f 1087 1084 948
f 948 1084 944
f 1086 1174 946
f 946 1174 1046
f 1173 1034 1047
f 1047 1034 1050
f 1115 1108 975
f 975 1108 969
f 1109 1106 970
f 970 1106 967
f 1105 1112 966
f 966 1112 973
f 1111 1114 972
f 972 1114 976
f 1083 1180 955
f 955 1180 1057
f 1181 1178 1056
f 1056 1178 1053
f 1177 1080 1054
f 1054 1080 952
f 1079 1082 951
f 951 1082 953
f 1108 1115 1045
f 1065 1124 1134
f 1134 1124 1177
f 1022 1025 1166
f 1166 1025 1163
f 1121 1008 1141
f 1141 1008 1077
f 1008 1037 1013
f 1013 1037 1073
f 1077 1008 1013
f 931 1038 934
f 934 1038 1141
f 1141 1077 934
f 934 1077 1220
f 1013 1073 961
f 1073 1076 961
f 961 1076 964
f 1089 1035 1045
f 1035 1007 1045
f 1045 1007 1168
f 1168 1007 1123
f 1077 1013 1220
f 1220 1013 961