o convex_0
v -0.022283 -0.088845 -0.000236
v -0.016142 -0.031191 0.020085
v -0.016142 -0.031191 0.000237
v -0.031736 -0.032613 0.020085
v -0.012362 -0.084588 0.020085
v -0.031262 -0.032143 -0.000236
v -0.026538 -0.081749 0.020085
v -0.012362 -0.084112 -0.000236
v -0.030790 -0.062378 0.000237
v -0.031736 -0.054353 0.020085
v -0.016614 -0.089791 0.020085
v -0.026538 -0.081279 -0.000236
v -0.014724 -0.088845 0.000237
v -0.021341 -0.089791 0.020085
v -0.012362 -0.079391 0.020085
v -0.031736 -0.054353 0.000237
v -0.030790 -0.031191 0.020085
v -0.016614 -0.031191 -0.000236
v -0.012362 -0.079391 0.000237
v -0.030790 -0.062378 0.020085
v -0.030790 -0.031191 0.000237
v -0.016614 -0.089791 0.000237
v -0.031736 -0.032613 0.000237
v -0.023700 -0.087428 0.020085
v -0.014251 -0.088369 0.020085
v -0.023700 -0.087428 -0.000236
v -0.021341 -0.089791 0.000237
v -0.026538 -0.081749 0.000237
v -0.031262 -0.054824 -0.000236
v -0.013307 -0.086476 -0.000236
f 25 13 30 
f 2 4 5 
f 5 4 7 
f 1 6 8 
f 7 4 10 
f 5 7 11 
f 6 1 12 
f 11 7 14 
f 3 2 15 
f 2 5 15 
f 5 8 15 
f 9 10 16 
f 10 4 16 
f 2 3 17 
f 4 2 17 
f 3 8 18 
f 8 6 18 
f 17 3 18 
f 8 3 19 
f 3 15 19 
f 15 8 19 
f 9 7 20 
f 7 10 20 
f 10 9 20 
f 4 17 21 
f 18 6 21 
f 17 18 21 
f 13 11 22 
f 11 14 22 
f 16 4 23 
f 6 16 23 
f 4 21 23 
f 21 6 23 
f 14 7 24 
f 5 11 25 
f 11 13 25 
f 12 1 26 
f 24 7 26 
f 14 24 26 
f 1 22 27 
f 22 14 27 
f 26 1 27 
f 14 26 27 
f 7 9 28 
f 9 12 28 
f 12 26 28 
f 26 7 28 
f 6 12 29 
f 12 9 29 
f 16 6 29 
f 9 16 29 
f 1 8 30 
f 8 5 30 
f 22 1 30 
f 13 22 30 
f 5 25 30 
o convex_1
v 0.019776 -0.090261 -0.000236
v 0.031116 -0.034974 0.020085
v 0.031116 -0.034974 -0.000236
v 0.016468 -0.034980 0.020085
v 0.024500 -0.085529 0.020085
v 0.012214 -0.077494 0.000237
v 0.012214 -0.085529 0.020085
v 0.016468 -0.034980 -0.000236
v 0.029699 -0.065688 0.000237
v 0.031590 -0.052457 0.020085
v 0.024500 -0.085529 -0.000236
v 0.013633 -0.087418 -0.000236
v 0.018831 -0.090736 0.020085
v 0.026864 -0.079388 0.019611
v 0.031590 -0.052457 -0.000236
v 0.012214 -0.077494 0.020085
v 0.031590 -0.035449 -0.000236
v 0.015524 -0.089781 0.000237
v 0.026864 -0.079388 0.000237
v 0.021195 -0.089787 0.020085
v 0.012214 -0.085529 0.000237
v 0.029699 -0.065688 0.019611
v 0.015524 -0.089781 0.020085
v 0.031590 -0.035449 0.020085
v 0.023556 -0.087423 -0.000236
v 0.013161 -0.087418 0.020085
v 0.019304 -0.090736 0.000237
v 0.030644 -0.059548 0.020085
v 0.023556 -0.087423 0.020085
v 0.021195 -0.089787 0.000237
v 0.012688 -0.077494 -0.000236
v 0.013161 -0.087418 0.000237
v 0.025917 -0.082221 0.019611
v 0.018357 -0.090736 0.000237
v 0.029699 -0.065213 -0.000236
v 0.030644 -0.059548 0.000237
f 65 45 66 
f 32 33 34 
f 32 34 35 
f 35 34 37 
f 33 31 38 
f 34 33 38 
f 36 34 38 
f 32 35 40 
f 31 33 41 
f 38 31 42 
f 35 37 43 
f 41 33 45 
f 34 36 46 
f 37 34 46 
f 36 37 46 
f 33 32 47 
f 40 45 47 
f 45 33 47 
f 42 31 48 
f 39 44 49 
f 35 43 50 
f 37 36 51 
f 44 39 52 
f 43 37 53 
f 32 40 54 
f 47 32 54 
f 40 47 54 
f 31 41 55 
f 41 35 55 
f 37 51 56 
f 53 37 56 
f 48 53 56 
f 50 43 57 
f 40 35 58 
f 35 44 58 
f 45 40 58 
f 52 39 58 
f 44 52 58 
f 35 50 59 
f 55 35 59 
f 50 55 59 
f 31 55 60 
f 55 50 60 
f 57 31 60 
f 50 57 60 
f 36 38 61 
f 38 42 61 
f 51 36 61 
f 42 51 61 
f 42 48 62 
f 51 42 62 
f 48 56 62 
f 56 51 62 
f 35 41 63 
f 44 35 63 
f 49 44 63 
f 41 49 63 
f 48 31 64 
f 43 53 64 
f 53 48 64 
f 31 57 64 
f 57 43 64 
f 41 45 65 
f 39 49 65 
f 49 41 65 
f 58 39 66 
f 45 58 66 
f 39 65 66 
o convex_2
v -0.014723 0.025048 -0.000236
v -0.001018 0.090736 0.020085
v -0.001018 0.090736 0.000237
v -0.001018 0.008048 0.019611
v -0.014723 0.058598 0.020085
v -0.014250 -0.027410 0.000237
v -0.014723 -0.027410 0.020085
v -0.001018 0.008522 -0.000236
v -0.013777 0.063316 0.000237
v -0.004800 0.090251 0.020085
v -0.004328 0.090251 -0.000236
v -0.014723 -0.024091 -0.000236
v -0.014723 0.058598 0.000237
v -0.001018 0.008522 0.020085
v -0.011887 0.069469 0.019611
v -0.004800 0.090251 0.000237
v -0.014250 -0.027410 0.020085
v -0.014250 0.058598 -0.000236
v -0.001018 0.090262 -0.000236
v -0.001018 0.008048 0.000237
v -0.011887 0.069469 0.000237
v -0.013777 0.063316 0.020085
v -0.004328 0.090736 0.000237
v -0.004328 0.090736 0.020085
v -0.014723 -0.027410 0.000237
f 78 72 91 
f 69 68 70 
f 71 67 73 
f 68 71 73 
f 69 70 74 
f 71 68 76 
f 74 67 77 
f 73 67 78 
f 67 74 78 
f 74 72 78 
f 67 71 79 
f 71 75 79 
f 70 68 80 
f 68 73 80 
f 81 76 82 
f 72 70 83 
f 73 72 83 
f 70 80 83 
f 80 73 83 
f 77 67 84 
f 67 79 84 
f 79 75 84 
f 69 74 85 
f 74 77 85 
f 70 72 86 
f 74 70 86 
f 72 74 86 
f 75 81 87 
f 81 82 87 
f 82 77 87 
f 77 84 87 
f 84 75 87 
f 75 71 88 
f 71 76 88 
f 81 75 88 
f 76 81 88 
f 68 69 89 
f 82 76 89 
f 77 82 89 
f 69 85 89 
f 85 77 89 
f 76 68 90 
f 68 89 90 
f 89 76 90 
f 72 73 91 
f 73 78 91 
o convex_3
v -0.030791 -0.031191 0.000237
v -0.014723 0.003308 0.020085
v -0.014723 0.003308 -0.000236
v -0.015197 -0.030245 0.020085
v -0.024646 0.000471 0.020085
v -0.014723 -0.027881 -0.000236
v -0.030791 -0.031191 0.020085
v -0.023702 0.003308 -0.000236
v -0.016142 -0.031191 -0.000236
v -0.030791 -0.026460 0.000237
v -0.030791 -0.026460 0.020085
v -0.023702 0.003308 0.020085
v -0.014723 -0.027881 0.020085
v -0.016142 -0.031191 0.020085
v -0.030318 -0.031191 -0.000236
v -0.028899 -0.017480 0.000237
v -0.024646 0.000471 -0.000236
v -0.028899 -0.017480 0.019611
v -0.015197 -0.030245 0.000237
f 95 100 110 
f 95 93 96 
f 94 93 97 
f 95 96 98 
f 93 94 99 
f 94 97 99 
f 99 97 100 
f 98 92 100 
f 92 98 101 
f 98 96 102 
f 101 98 102 
f 96 93 103 
f 93 99 103 
f 99 96 103 
f 93 95 104 
f 97 93 104 
f 95 97 104 
f 95 98 105 
f 100 95 105 
f 98 100 105 
f 99 100 106 
f 100 92 106 
f 92 101 106 
f 101 102 107 
f 96 99 108 
f 99 106 108 
f 106 101 108 
f 107 96 108 
f 101 107 108 
f 102 96 109 
f 96 107 109 
f 107 102 109 
f 97 95 110 
f 100 97 110 
o convex_4
v -0.026538 0.017484 -0.000236
v -0.014723 0.025047 0.020085
v -0.014723 0.025047 0.000237
v -0.014723 0.003308 0.020085
v -0.014723 0.003308 -0.000236
v -0.023701 0.003308 0.020085
v -0.025591 0.019848 0.019611
v -0.023701 0.003308 -0.000236
v -0.019451 0.024572 -0.000236
v -0.026538 0.013233 0.020085
v -0.019451 0.024572 0.020085
v -0.026538 0.013233 0.000237
v -0.025591 0.019848 0.000237
v -0.026538 0.017484 0.020085
v -0.014723 0.024572 -0.000236
f 115 119 125 
f 113 112 114 
f 113 114 115 
f 114 112 116 
f 115 114 116 
f 111 115 118 
f 115 116 118 
f 112 113 119 
f 115 111 119 
f 116 112 120 
f 118 116 120 
f 112 119 121 
f 119 117 121 
f 120 112 121 
f 111 118 122 
f 120 111 122 
f 118 120 122 
f 111 117 123 
f 119 111 123 
f 117 119 123 
f 117 111 124 
f 111 120 124 
f 121 117 124 
f 120 121 124 
f 113 115 125 
f 119 113 125 
o convex_5
v 0.005125 0.003308 -0.000236
v 0.003235 0.090736 0.020085
v 0.003707 0.090736 0.019611
v -0.001018 0.090257 -0.000236
v -0.001018 0.008520 0.020085
v 0.005125 0.003308 0.020085
v 0.005125 0.086954 -0.000236
v -0.001018 0.008520 -0.000236
v -0.001018 0.090736 0.020085
v 0.005125 0.086954 0.020085
v 0.003707 0.090736 0.000237
v -0.001018 0.008041 0.019611
v 0.004652 0.003308 -0.000236
v 0.004652 0.089778 0.019611
v -0.001018 0.008041 0.000237
v 0.004652 0.003308 0.020085
v -0.001018 0.090736 0.000237
v 0.004652 0.089778 0.000237
f 136 139 143 
f 127 130 131 
f 126 129 132 
f 131 126 132 
f 129 126 133 
f 130 129 133 
f 127 128 134 
f 129 130 134 
f 130 127 134 
f 127 131 135 
f 131 132 135 
f 132 129 136 
f 134 128 136 
f 130 133 137 
f 126 131 138 
f 133 126 138 
f 128 127 139 
f 127 135 139 
f 135 132 139 
f 136 128 139 
f 137 133 140 
f 133 138 140 
f 138 137 140 
f 131 130 141 
f 130 137 141 
f 137 138 141 
f 138 131 141 
f 129 134 142 
f 136 129 142 
f 134 136 142 
f 132 136 143 
f 139 132 143 
o convex_6
v 0.013631 -0.024567 -0.000236
v 0.005598 0.086475 0.020085
v 0.005598 0.086475 -0.000236
v 0.014577 0.057655 0.000237
v 0.014577 -0.025039 0.020085
v 0.005125 0.000476 0.019611
v 0.014577 0.057655 0.020085
v 0.005125 0.000476 0.000237
v 0.014577 -0.028355 0.000237
v 0.005125 0.086475 0.020085
v 0.014104 -0.028355 0.019611
v 0.013631 0.062376 -0.000236
v 0.005125 0.086475 -0.000236
v 0.011741 0.068524 0.020085
v 0.005125 0.002836 0.020085
v 0.005125 0.002836 -0.000236
v 0.006071 -0.003301 0.000237
v 0.014104 -0.028355 0.000237
v 0.006071 -0.003301 0.019611
v 0.014577 -0.025039 -0.000236
v 0.011741 0.068524 0.000237
v 0.013631 0.062376 0.020085
v 0.014577 0.057171 -0.000236
v 0.014577 -0.028355 0.019611
v 0.013159 -0.024095 0.020085
f 162 154 168 
f 148 147 150 
f 145 148 150 
f 147 148 152 
f 145 146 153 
f 148 145 153 
f 151 149 153 
f 144 146 155 
f 150 147 155 
f 146 144 156 
f 153 146 156 
f 151 153 156 
f 146 145 157 
f 145 150 157 
f 148 153 158 
f 153 149 158 
f 156 144 159 
f 151 156 159 
f 149 151 160 
f 159 144 160 
f 151 159 160 
f 152 154 161 
f 160 144 161 
f 154 160 161 
f 158 149 162 
f 149 160 162 
f 160 154 162 
f 147 152 163 
f 144 155 163 
f 161 144 163 
f 152 161 163 
f 155 146 164 
f 146 157 164 
f 157 155 164 
f 150 155 165 
f 157 150 165 
f 155 157 165 
f 155 147 166 
f 147 163 166 
f 163 155 166 
f 152 148 167 
f 148 154 167 
f 154 152 167 
f 154 148 168 
f 148 158 168 
f 158 162 168 
o convex_7
v 0.016469 -0.034971 -0.000236
v 0.022611 0.008979 0.020085
v 0.014577 0.008979 0.020085
v 0.022611 0.008979 -0.000236
v 0.030645 -0.034971 0.020085
v 0.030645 -0.027881 -0.000236
v 0.015522 -0.032605 0.020085
v 0.014577 0.008979 -0.000236
v 0.014577 -0.028824 0.000237
v 0.030645 -0.034971 -0.000236
v 0.030645 -0.027408 0.020085
v 0.014577 -0.028824 0.020085
v 0.016469 -0.034971 0.020085
v 0.023556 0.005671 0.000237
v 0.023556 0.005671 0.020085
v 0.015050 -0.032132 0.000237
v 0.030645 -0.027408 0.000237
v 0.015050 -0.032132 0.019611
v 0.014577 -0.028350 -0.000236
f 184 177 187 
f 171 170 172 
f 170 171 173 
f 169 172 174 
f 173 171 175 
f 171 172 176 
f 172 169 176 
f 171 176 177 
f 173 169 178 
f 174 173 178 
f 169 174 178 
f 170 173 179 
f 173 174 179 
f 175 171 180 
f 171 177 180 
f 169 173 181 
f 173 175 181 
f 172 170 182 
f 174 172 182 
f 179 182 183 
f 170 179 183 
f 182 170 183 
f 180 177 184 
f 169 181 184 
f 179 174 185 
f 174 182 185 
f 182 179 185 
f 175 180 186 
f 181 175 186 
f 180 184 186 
f 184 181 186 
f 176 169 187 
f 177 176 187 
f 169 184 187 
o convex_8
v 0.025919 0.019373 0.019611
v 0.014577 0.008979 -0.000236
v 0.014577 0.024574 -0.000236
v 0.026864 0.013707 0.000237
v 0.014577 0.008979 0.020085
v 0.014577 0.024574 0.020085
v 0.022609 0.008979 0.020085
v 0.019778 0.024574 0.000237
v 0.022609 0.008979 -0.000236
v 0.025919 0.019373 0.000237
v 0.026864 0.013707 0.019611
v 0.019778 0.024574 0.019611
v 0.025445 0.019848 0.020085
v 0.026864 0.016543 0.000237
v 0.025445 0.019373 -0.000236
v 0.026864 0.016543 0.019611
f 198 201 203 
f 190 189 192 
f 190 192 193 
f 193 192 194 
f 192 189 194 
f 190 193 195 
f 189 190 196 
f 194 189 196 
f 191 194 196 
f 194 191 198 
f 195 193 199 
f 195 199 200 
f 193 194 200 
f 188 197 200 
f 197 195 200 
f 194 198 200 
f 199 193 200 
f 197 188 201 
f 198 191 201 
f 190 195 202 
f 196 190 202 
f 191 196 202 
f 195 197 202 
f 201 191 202 
f 197 201 202 
f 188 200 203 
f 200 198 203 
f 201 188 203 
