o convex_0
v -0.008772 0.004895 0.023083
v -0.031154 -0.048733 0.010959
v -0.031154 -0.048733 0.020751
v -0.017631 -0.089297 0.021683
v -0.008772 0.005353 0.008627
v -0.018564 -0.089765 0.008627
v -0.021827 0.005363 0.021216
v -0.028356 -0.088362 0.022616
v -0.020427 0.004427 0.009094
v -0.028356 -0.088362 0.009094
v -0.029289 -0.027753 0.022149
v -0.030221 -0.030093 0.010026
v -0.027889 -0.033349 0.008627
v -0.015766 -0.072510 0.010026
v -0.029754 -0.088820 0.021216
v -0.018564 -0.089765 0.023083
v -0.026491 -0.025423 0.023083
v -0.008305 0.004895 0.022149
v -0.021827 0.005363 0.010493
v -0.030221 -0.028221 0.020751
v -0.029754 -0.088820 0.010493
v -0.018564 0.005363 0.023083
v -0.008305 0.004895 0.009561
v -0.031154 -0.035679 0.021216
v -0.026023 -0.089288 0.023083
v -0.015766 -0.072033 0.022149
v -0.023225 -0.090233 0.010026
v -0.029754 -0.043605 0.022616
v -0.029754 -0.025891 0.010959
v -0.017631 -0.088362 0.009094
v -0.026956 -0.088352 0.008627
v -0.031154 -0.035679 0.010493
v -0.018564 0.005363 0.008627
v -0.029754 -0.044999 0.009094
v -0.028821 -0.089765 0.020751
v -0.018564 -0.090233 0.022149
v -0.008305 0.005353 0.022149
v -0.027889 -0.049659 0.023083
v -0.020427 0.003959 0.022616
v -0.015766 -0.072510 0.021683
v -0.027423 -0.089765 0.009561
v -0.028821 -0.025423 0.009561
v -0.017631 -0.085096 0.023083
v -0.028821 -0.022158 0.020751
v -0.030687 -0.049659 0.021683
v -0.018564 -0.090233 0.009561
v -0.030687 -0.049659 0.010026
v -0.017166 -0.085564 0.010026
v -0.022760 -0.090233 0.022149
v -0.016234 -0.075767 0.009094
v -0.030687 -0.031019 0.010959
v -0.028821 -0.029616 0.009094
v -0.017166 -0.080904 0.008627
f 50 30 53 
f 5 6 13 
f 3 2 15 
f 16 1 17 
f 15 2 21 
f 17 1 22 
f 19 7 22 
f 18 14 23 
f 2 3 24 
f 11 20 24 
f 8 15 25 
f 16 17 25 
f 18 1 26 
f 17 11 28 
f 11 24 28 
f 13 6 31 
f 2 24 32 
f 5 13 33 
f 9 19 33 
f 19 22 33 
f 13 31 34 
f 31 10 34 
f 32 12 34 
f 15 21 35 
f 25 15 35 
f 4 16 36 
f 1 18 37 
f 22 1 37 
f 23 5 37 
f 18 23 37 
f 5 33 37 
f 33 22 37 
f 8 25 38 
f 25 17 38 
f 28 8 38 
f 17 28 38 
f 7 11 39 
f 11 17 39 
f 22 7 39 
f 17 22 39 
f 14 18 40 
f 26 4 40 
f 18 26 40 
f 21 10 41 
f 6 27 41 
f 31 6 41 
f 10 31 41 
f 35 21 41 
f 27 35 41 
f 19 9 42 
f 29 19 42 
f 12 29 42 
f 1 16 43 
f 16 4 43 
f 4 26 43 
f 26 1 43 
f 11 7 44 
f 7 19 44 
f 20 11 44 
f 19 29 44 
f 29 20 44 
f 3 15 45 
f 15 8 45 
f 24 3 45 
f 8 28 45 
f 28 24 45 
f 27 6 46 
f 6 30 46 
f 30 4 46 
f 36 27 46 
f 4 36 46 
f 21 2 47 
f 10 21 47 
f 2 32 47 
f 34 10 47 
f 32 34 47 
f 4 30 48 
f 40 4 48 
f 14 40 48 
f 16 25 49 
f 25 35 49 
f 35 27 49 
f 27 36 49 
f 36 16 49 
f 5 23 50 
f 23 14 50 
f 48 30 50 
f 14 48 50 
f 24 20 51 
f 29 12 51 
f 20 29 51 
f 12 32 51 
f 32 24 51 
f 33 13 52 
f 9 33 52 
f 34 12 52 
f 13 34 52 
f 42 9 52 
f 12 42 52 
f 6 5 53 
f 30 6 53 
f 5 50 53 
o convex_1
v 0.031333 -0.044999 0.021216
v 0.008483 0.003950 0.009561
v 0.008483 0.003950 0.022149
v 0.017810 -0.089765 0.010026
v 0.029000 -0.024029 0.010026
v 0.018277 -0.089297 0.023083
v 0.029000 -0.088820 0.009561
v 0.021073 0.005363 0.022149
v 0.018743 0.005363 0.008627
v 0.028067 -0.088820 0.022616
v 0.018277 -0.089297 0.008627
v 0.026667 -0.026350 0.023083
v 0.008950 0.005363 0.023083
v 0.031333 -0.038945 0.010493
v 0.028067 -0.034743 0.008627
v 0.030398 -0.029148 0.020751
v 0.022006 0.004895 0.010959
v 0.029933 -0.088820 0.020751
v 0.015944 -0.074372 0.021683
v 0.008950 0.005363 0.008627
v 0.029933 -0.088820 0.010959
v 0.026667 -0.088830 0.008627
v 0.015944 -0.074372 0.010026
v 0.025734 -0.089297 0.023083
v 0.018743 0.005363 0.023083
v 0.022006 0.004895 0.020751
v 0.029465 -0.034743 0.022616
v 0.022938 -0.090233 0.010026
v 0.029933 -0.026818 0.010959
v 0.017810 -0.089765 0.021683
v 0.029000 -0.089765 0.020751
v 0.031333 -0.045935 0.010959
v 0.018743 -0.090233 0.022616
v 0.029465 -0.049191 0.009094
v 0.029465 -0.024955 0.021216
v 0.021073 0.005363 0.009561
v 0.029000 -0.030551 0.009094
v 0.031333 -0.037073 0.020750
v 0.028067 -0.047797 0.023083
v 0.016412 -0.077161 0.009094
v 0.016412 -0.077161 0.022616
v 0.029000 -0.089765 0.010959
v 0.030865 -0.032423 0.010959
v 0.028067 -0.025891 0.022616
v 0.029000 -0.088820 0.022149
v 0.030398 -0.047329 0.022149
v 0.017345 -0.086958 0.010026
v 0.018743 -0.090233 0.009094
v 0.030865 -0.048265 0.010026
v 0.030398 -0.035211 0.009561
v 0.008483 0.005363 0.009094
v 0.030865 -0.035211 0.021683
v 0.008483 0.004418 0.022616
v 0.017345 -0.086958 0.021683
v 0.022471 -0.090233 0.022149
v 0.029933 -0.088362 0.010493
f 102 67 109 
f 61 62 66 
f 59 65 66 
f 64 62 68 
f 56 55 72 
f 62 64 73 
f 66 62 73 
f 64 68 75 
f 72 55 76 
f 65 59 77 
f 61 66 78 
f 66 65 78 
f 70 61 79 
f 58 70 82 
f 70 79 82 
f 74 71 84 
f 67 54 85 
f 54 71 85 
f 71 74 85 
f 77 59 86 
f 83 57 86 
f 59 83 86 
f 60 75 87 
f 75 68 87 
f 79 61 88 
f 69 82 88 
f 82 79 88 
f 62 61 89 
f 70 58 89 
f 61 70 89 
f 68 62 90 
f 62 89 90 
f 89 58 90 
f 54 67 91 
f 65 77 92 
f 77 63 92 
f 80 65 92 
f 73 64 93 
f 76 55 93 
f 59 66 94 
f 60 74 95 
f 75 60 95 
f 81 75 95 
f 84 81 95 
f 74 84 95 
f 58 82 96 
f 82 69 96 
f 91 67 96 
f 69 91 96 
f 61 78 97 
f 78 65 97 
f 65 80 97 
f 88 61 97 
f 71 54 98 
f 63 77 98 
f 84 71 98 
f 77 84 98 
f 92 63 99 
f 80 92 99 
f 98 54 99 
f 63 98 99 
f 64 57 100 
f 72 76 100 
f 57 83 100 
f 93 64 100 
f 76 93 100 
f 57 64 101 
f 64 75 101 
f 75 81 101 
f 86 57 101 
f 81 86 101 
f 60 87 102 
f 87 68 103 
f 90 58 103 
f 68 90 103 
f 58 96 103 
f 96 67 103 
f 67 102 103 
f 102 87 103 
f 55 56 104 
f 66 73 104 
f 93 55 104 
f 73 93 104 
f 69 88 105 
f 54 91 105 
f 91 69 105 
f 97 80 105 
f 88 97 105 
f 99 54 105 
f 80 99 105 
f 56 72 106 
f 94 66 106 
f 72 94 106 
f 104 56 106 
f 66 104 106 
f 83 59 107 
f 59 94 107 
f 94 72 107 
f 72 100 107 
f 100 83 107 
f 81 84 108 
f 84 77 108 
f 77 86 108 
f 86 81 108 
f 74 60 109 
f 67 85 109 
f 85 74 109 
f 60 102 109 
o convex_2
v 0.001487 0.089765 0.015622
v -0.012502 0.039870 0.010960
v -0.012502 0.039870 0.020749
v 0.012680 0.039870 0.011427
v 0.012212 0.064588 0.021216
v -0.012033 0.073906 0.021216
v -0.012502 0.068310 0.010492
v 0.012212 0.068310 0.010492
v 0.011746 0.039870 0.021216
v 0.010346 0.079506 0.020283
v -0.006438 0.085101 0.013292
v 0.011746 0.039870 0.010492
v 0.010346 0.079506 0.012359
v -0.009701 0.080901 0.019817
v 0.012212 0.073437 0.021216
v -0.012033 0.039870 0.021216
v -0.011567 0.076242 0.011893
v -0.012033 0.039870 0.010492
v 0.012680 0.039870 0.020283
v 0.003819 0.087901 0.013758
v -0.005506 0.086496 0.017486
v -0.012502 0.071111 0.021216
v 0.007085 0.084633 0.018418
v 0.012212 0.073437 0.011427
v -0.000377 0.090233 0.014690
v -0.011101 0.077638 0.020749
v -0.008304 0.083233 0.013292
v 0.012680 0.046402 0.011427
v 0.007550 0.084170 0.013292
v 0.011280 0.077174 0.020749
v -0.012502 0.071111 0.010960
v -0.004574 0.087433 0.013758
v 0.012680 0.046402 0.020283
f 137 124 142 
f 112 111 113 
f 111 112 116 
f 112 113 118 
f 114 115 118 
f 113 111 121 
f 117 113 121 
f 116 117 121 
f 115 114 124 
f 112 118 125 
f 118 115 125 
f 111 116 127 
f 121 111 127 
f 116 121 127 
f 118 113 128 
f 114 118 128 
f 124 114 128 
f 117 116 129 
f 116 120 129 
f 122 117 129 
f 116 112 131 
f 112 125 131 
f 125 115 131 
f 123 119 132 
f 129 110 132 
f 110 130 132 
f 130 123 132 
f 117 122 133 
f 110 129 134 
f 130 110 134 
f 119 123 135 
f 115 124 135 
f 126 115 135 
f 123 126 135 
f 120 126 136 
f 126 123 136 
f 123 130 136 
f 113 117 137 
f 128 113 137 
f 117 133 137 
f 133 124 137 
f 119 122 138 
f 122 129 138 
f 132 119 138 
f 129 132 138 
f 122 119 139 
f 133 122 139 
f 124 133 139 
f 119 135 139 
f 135 124 139 
f 120 116 140 
f 115 126 140 
f 126 120 140 
f 116 131 140 
f 131 115 140 
f 129 120 141 
f 134 129 141 
f 130 134 141 
f 120 136 141 
f 136 130 141 
f 124 128 142 
f 128 137 142 
o convex_3
v -0.023693 0.015155 0.009093
v -0.006439 0.015155 0.026812
v -0.006906 0.015155 0.027280
v -0.020895 0.005364 0.009561
v -0.006439 0.015155 0.004898
v -0.009704 0.005364 0.023549
v -0.024158 0.014689 0.022149
v -0.008307 0.005364 0.009093
v -0.020895 0.005364 0.022149
v -0.019029 0.015155 0.025414
v -0.013436 0.014689 0.004898
v -0.007839 0.006763 0.022616
v -0.021827 0.005364 0.010959
v -0.012971 0.005364 0.008161
v -0.010171 0.014689 0.027280
v -0.006439 0.012822 0.007228
v -0.024626 0.014689 0.010496
v -0.021827 0.005364 0.020751
v -0.020426 0.015155 0.006763
v -0.018563 0.005364 0.023079
v -0.024626 0.015155 0.021214
v -0.006906 0.014689 0.004430
v -0.018563 0.005364 0.008628
v -0.006439 0.012822 0.024482
v -0.022294 0.014689 0.024014
v -0.008307 0.005364 0.022616
v -0.009704 0.005364 0.008161
v -0.015762 0.014689 0.026347
v -0.010171 0.014689 0.004430
f 165 153 171 
f 145 144 143 
f 143 144 147 
f 148 146 150 
f 146 148 151 
f 145 143 152 
f 146 151 155 
f 150 146 156 
f 148 145 157 
f 145 152 157 
f 147 144 158 
f 150 147 158 
f 154 150 158 
f 143 146 159 
f 146 155 159 
f 159 155 160 
f 151 149 160 
f 155 151 160 
f 146 143 161 
f 143 147 161 
f 151 148 162 
f 148 157 162 
f 152 143 163 
f 143 159 163 
f 159 160 163 
f 160 149 163 
f 147 150 164 
f 156 146 165 
f 146 161 165 
f 161 153 165 
f 144 154 166 
f 158 144 166 
f 154 158 166 
f 149 151 167 
f 151 162 167 
f 162 152 167 
f 163 149 167 
f 152 163 167 
f 144 145 168 
f 145 148 168 
f 148 150 168 
f 154 144 168 
f 150 154 168 
f 150 156 169 
f 164 150 169 
f 156 164 169 
f 157 152 170 
f 152 162 170 
f 162 157 170 
f 161 147 171 
f 153 161 171 
f 147 164 171 
f 164 156 171 
f 156 165 171 
o convex_4
v -0.033951 0.024015 0.027275
v -0.017632 0.019352 -0.000233
v -0.020897 0.019819 0.000236
v -0.003641 0.029611 0.009096
v -0.006441 0.016089 0.031008
v -0.038613 0.022150 0.008630
v -0.006441 0.015155 0.004431
v -0.025091 0.015157 0.021216
v -0.004575 0.029611 0.023546
v -0.037680 0.025413 0.009099
v -0.024158 0.015157 0.008630
v -0.017164 0.029611 0.021682
v -0.017632 0.020286 0.031943
v -0.036279 0.021217 0.025411
v -0.014836 0.029611 0.008630
v -0.006906 0.019819 -0.000233
v -0.027890 0.023548 0.002101
v -0.037680 0.025413 0.022148
v -0.005976 0.015155 0.026343
v -0.023693 0.018887 0.030541
v -0.005508 0.019819 0.031008
v -0.033018 0.020752 0.003968
v -0.005976 0.016555 0.000702
v -0.027890 0.023548 0.029609
v -0.020432 0.022615 0.000702
v -0.013438 0.017022 0.000236
v -0.038613 0.021684 0.021682
v -0.013903 0.021684 0.031474
v -0.003641 0.028677 0.022145
v -0.022760 0.015157 0.024012
v -0.037680 0.021217 0.008630
v -0.004575 0.029611 0.008164
v -0.034881 0.024947 0.005830
v -0.005508 0.017487 0.001168
v -0.012970 0.029611 0.023546
v -0.026024 0.019354 0.001635
v -0.039082 0.024480 0.021216
v -0.017164 0.029611 0.010028
v -0.006906 0.019819 0.031943
v -0.013438 0.017022 0.031474
v -0.034881 0.024947 0.025880
v -0.021362 0.022615 0.031008
v -0.033018 0.020752 0.027741
v -0.019964 0.015155 0.006296
v -0.005508 0.017487 0.030541
v -0.025091 0.015157 0.010494
v -0.013903 0.021684 0.000236
v -0.008772 0.016089 0.000702
v -0.012970 0.029611 0.008164
v -0.004110 0.025414 0.009096
v -0.035817 0.023548 0.005364
v -0.029289 0.021217 0.029609
v -0.039082 0.023548 0.009562
v -0.038145 0.024015 0.024012
v -0.015301 0.015155 0.026812
v -0.032085 0.024480 0.003968
v -0.006906 0.017022 -0.000233
v -0.005508 0.019819 0.000702
v -0.029289 0.022150 0.002101
v -0.006906 0.017022 0.031943
v -0.032085 0.024480 0.027741
v -0.005976 0.015155 0.005367
f 194 205 233 
f 180 175 183 
f 183 175 186 
f 183 181 189 
f 173 174 196 
f 174 188 196 
f 179 185 198 
f 175 180 200 
f 180 192 200 
f 185 179 201 
f 177 193 202 
f 193 182 202 
f 198 177 202 
f 179 198 202 
f 186 175 203 
f 180 183 206 
f 174 173 207 
f 182 193 207 
f 173 197 207 
f 189 181 208 
f 181 183 209 
f 183 186 209 
f 204 181 209 
f 186 204 209 
f 192 180 210 
f 180 199 210 
f 199 184 210 
f 184 191 211 
f 191 201 211 
f 183 189 212 
f 206 183 212 
f 199 180 213 
f 184 199 213 
f 180 206 213 
f 206 195 213 
f 172 185 214 
f 185 201 214 
f 201 191 214 
f 178 190 215 
f 182 207 215 
f 207 197 215 
f 176 190 216 
f 200 192 216 
f 190 205 216 
f 179 202 217 
f 202 182 217 
f 215 179 217 
f 182 215 217 
f 187 173 218 
f 173 196 218 
f 203 187 218 
f 196 203 218 
f 194 178 219 
f 178 215 219 
f 215 197 219 
f 196 188 220 
f 186 203 220 
f 203 196 220 
f 175 200 221 
f 205 175 221 
f 200 216 221 
f 216 205 221 
f 193 177 222 
f 181 204 222 
f 191 184 223 
f 195 172 223 
f 184 213 223 
f 213 195 223 
f 172 214 223 
f 214 191 223 
f 177 198 224 
f 208 181 224 
f 198 208 224 
f 222 177 224 
f 181 222 224 
f 185 172 225 
f 198 185 225 
f 189 208 225 
f 208 198 225 
f 212 189 225 
f 172 212 225 
f 190 176 226 
f 201 179 226 
f 176 211 226 
f 211 201 226 
f 179 215 226 
f 215 190 226 
f 204 186 227 
f 220 188 227 
f 186 220 227 
f 222 204 227 
f 173 187 228 
f 197 173 228 
f 194 219 228 
f 219 197 228 
f 203 175 229 
f 187 203 229 
f 175 205 229 
f 205 194 229 
f 228 187 229 
f 194 228 229 
f 188 174 230 
f 174 207 230 
f 207 193 230 
f 193 222 230 
f 227 188 230 
f 222 227 230 
f 210 184 231 
f 192 210 231 
f 184 211 231 
f 211 176 231 
f 176 216 231 
f 216 192 231 
f 172 195 232 
f 195 206 232 
f 212 172 232 
f 206 212 232 
f 190 178 233 
f 178 194 233 
f 205 190 233 
o convex_5
v 0.007551 0.007696 0.009561
v 0.024338 0.015155 0.022149
v 0.022939 0.015155 0.023549
v 0.021539 0.005364 0.021684
v 0.006618 0.015155 0.026812
v 0.019207 0.015155 0.006295
v 0.021539 0.005364 0.010026
v 0.007084 0.015155 0.004430
v 0.008483 0.005364 0.022616
v 0.009416 0.005364 0.008161
v 0.024338 0.014689 0.009561
v 0.009884 0.014689 0.027280
v 0.018739 0.005364 0.008628
v 0.018739 0.005364 0.023079
v 0.006151 0.014223 0.025414
v 0.006151 0.014689 0.005363
v 0.019207 0.014689 0.025414
v 0.009416 0.005364 0.023549
v 0.009884 0.014689 0.004430
v 0.022472 0.015155 0.007696
v 0.008483 0.005364 0.008628
v 0.008017 0.005830 0.022149
v 0.015942 0.014689 0.005363
f 246 252 256 
f 235 236 237 
f 236 235 238 
f 238 235 239 
f 238 239 241 
f 240 237 242 
f 240 242 243 
f 235 237 244 
f 237 240 244 
f 236 238 245 
f 240 243 246 
f 242 237 247 
f 242 238 248 
f 238 241 249 
f 234 248 249 
f 248 238 249 
f 237 236 250 
f 236 245 250 
f 247 237 250 
f 245 247 250 
f 238 242 251 
f 245 238 251 
f 242 247 251 
f 247 245 251 
f 241 239 252 
f 243 241 252 
f 246 243 252 
f 239 235 253 
f 235 244 253 
f 244 240 253 
f 246 239 253 
f 240 246 253 
f 243 242 254 
f 241 243 254 
f 249 241 254 
f 234 249 254 
f 248 234 255 
f 242 248 255 
f 234 254 255 
f 254 242 255 
f 239 246 256 
f 252 239 256 
o convex_6
v 0.039260 0.023082 0.021212
v 0.006154 0.017954 -0.000233
v 0.005686 0.017954 0.000236
v 0.003820 0.029611 0.008630
v 0.006619 0.016555 0.031474
v 0.034129 0.020752 0.004901
v 0.004753 0.029611 0.023546
v 0.024801 0.015155 0.022145
v 0.035063 0.024947 0.005833
v 0.028534 0.023082 0.029609
v 0.017346 0.029611 0.021216
v 0.008017 0.015155 0.003499
v 0.021540 0.022615 0.000702
v 0.024801 0.015155 0.009565
v 0.037394 0.025414 0.023080
v 0.006154 0.015155 0.026812
v 0.015948 0.029611 0.009096
v 0.029002 0.019819 0.029143
v 0.011750 0.020753 0.031943
v 0.021075 0.018421 0.000702
v 0.037859 0.021219 0.009096
v 0.037859 0.025414 0.010028
v 0.003820 0.027279 0.022145
v 0.036925 0.021219 0.024478
v 0.017811 0.017954 0.031474
v 0.032263 0.024480 0.027741
v 0.006619 0.019819 -0.000233
v 0.005686 0.019352 0.031474
v 0.021540 0.022615 0.031008
v 0.013148 0.029611 0.023546
v 0.028069 0.023548 0.002101
v 0.005686 0.016555 0.003499
v 0.018744 0.015155 0.025880
v 0.013148 0.029611 0.008164
v 0.010349 0.016555 0.000236
v 0.022938 0.015155 0.007697
v 0.038792 0.024015 0.008630
v 0.037859 0.021219 0.022614
v 0.004288 0.029611 0.008164
v 0.017811 0.019352 -0.000233
v 0.005686 0.016555 0.027741
v 0.028069 0.019819 0.002101
v 0.036461 0.023548 0.025877
v 0.003820 0.027279 0.009565
v 0.014081 0.021684 0.000236
v 0.017346 0.029611 0.010494
v 0.006154 0.015155 0.004898
v 0.017811 0.019352 0.031943
v 0.033661 0.023082 0.003968
v 0.006619 0.019819 0.031943
v 0.008486 0.016089 0.031008
v 0.003820 0.029611 0.022611
v 0.038792 0.024947 0.021212
v 0.032263 0.020286 0.027741
v 0.032263 0.024480 0.003968
v 0.022938 0.015155 0.024012
v 0.038792 0.022151 0.009096
v 0.023868 0.018888 0.030541
v 0.035063 0.024947 0.025877
v 0.037394 0.025414 0.008630
v 0.006619 0.016089 0.000702
v 0.027600 0.023548 0.029609
v 0.032731 0.021684 0.028211
v 0.023868 0.019819 0.000702
f 298 276 320 
f 260 263 267 
f 264 268 270 
f 268 264 272 
f 260 267 273 
f 270 262 277 
f 264 270 277 
f 267 271 278 
f 258 259 283 
f 259 260 283 
f 263 275 285 
f 267 263 286 
f 263 285 286 
f 272 264 289 
f 260 273 290 
f 273 265 290 
f 287 269 290 
f 291 276 292 
f 262 270 292 
f 270 268 292 
f 268 291 292 
f 264 277 294 
f 257 280 294 
f 280 264 294 
f 283 260 295 
f 260 290 295 
f 290 269 295 
f 258 283 296 
f 291 258 296 
f 276 291 296 
f 272 261 297 
f 261 284 297 
f 284 279 297 
f 288 272 297 
f 279 288 297 
f 292 276 298 
f 262 292 298 
f 280 257 299 
f 260 259 300 
f 279 260 300 
f 259 288 300 
f 288 279 300 
f 283 295 301 
f 295 269 301 
f 296 283 301 
f 269 296 301 
f 273 267 302 
f 267 278 302 
f 268 272 303 
f 272 288 303 
f 261 281 304 
f 285 275 304 
f 266 285 304 
f 293 262 305 
f 265 293 305 
f 262 298 305 
f 298 287 305 
f 275 263 306 
f 284 261 306 
f 263 284 306 
f 261 304 306 
f 304 275 306 
f 261 272 307 
f 281 261 307 
f 272 289 307 
f 289 281 307 
f 263 260 308 
f 260 279 308 
f 284 263 308 
f 279 284 308 
f 278 271 309 
f 257 293 309 
f 293 278 309 
f 299 257 309 
f 271 299 309 
f 264 280 310 
f 290 265 311 
f 287 290 311 
f 265 305 311 
f 305 287 311 
f 289 264 312 
f 264 310 312 
f 310 274 312 
f 277 262 313 
f 262 293 313 
f 293 257 313 
f 257 294 313 
f 294 277 313 
f 274 266 314 
f 281 289 314 
f 266 304 314 
f 304 281 314 
f 312 274 314 
f 289 312 314 
f 271 267 315 
f 286 282 315 
f 267 286 315 
f 299 271 315 
f 282 299 315 
f 265 273 316 
f 293 265 316 
f 278 293 316 
f 273 302 316 
f 302 278 316 
f 259 258 317 
f 288 259 317 
f 258 291 317 
f 291 268 317 
f 268 303 317 
f 303 288 317 
f 266 282 318 
f 285 266 318 
f 282 286 318 
f 286 285 318 
f 266 274 319 
f 282 266 319 
f 280 299 319 
f 299 282 319 
f 274 310 319 
f 310 280 319 
f 269 287 320 
f 296 269 320 
f 276 296 320 
f 287 298 320 
o convex_7
v -0.016698 0.029611 0.010027
v -0.002709 0.038471 0.022615
v -0.003176 0.038938 0.022615
v -0.003176 0.038471 0.008628
v -0.003643 0.029611 0.022615
v -0.013432 0.038938 0.021216
v -0.003643 0.029611 0.009095
v -0.016230 0.029611 0.022150
v -0.012501 0.039870 0.010959
v -0.012501 0.030079 0.008161
v -0.012501 0.030079 0.023549
v -0.003176 0.039870 0.020282
v -0.010635 0.038471 0.008628
v -0.010169 0.038938 0.023082
v -0.003176 0.039870 0.011426
v -0.002709 0.035673 0.010027
v -0.004577 0.029611 0.023549
v -0.012033 0.039870 0.021216
v -0.013432 0.038938 0.010494
v -0.016698 0.030545 0.020749
v -0.004577 0.029611 0.008161
v -0.004108 0.038938 0.023082
v -0.003176 0.031943 0.022150
v -0.016698 0.030545 0.010959
v -0.008305 0.039403 0.009095
v -0.002709 0.038471 0.009095
f 336 327 346 
f 325 321 327 
f 321 325 328 
f 323 322 332 
f 324 330 333 
f 330 321 333 
f 326 328 334 
f 328 331 334 
f 332 322 335 
f 329 332 335 
f 325 322 337 
f 328 325 337 
f 331 328 337 
f 329 326 338 
f 332 329 338 
f 326 334 338 
f 326 329 339 
f 329 333 339 
f 333 321 339 
f 321 328 340 
f 328 326 340 
f 326 339 340 
f 324 327 341 
f 327 321 341 
f 330 324 341 
f 321 330 341 
f 322 323 342 
f 323 332 342 
f 334 331 342 
f 337 322 342 
f 331 337 342 
f 332 338 342 
f 338 334 342 
f 322 325 343 
f 325 327 343 
f 336 322 343 
f 327 336 343 
f 339 321 344 
f 321 340 344 
f 340 339 344 
f 324 333 345 
f 333 329 345 
f 335 324 345 
f 329 335 345 
f 327 324 346 
f 335 322 346 
f 324 335 346 
f 322 336 346 
o convex_8
v 0.002887 0.034276 0.009560
v 0.016877 0.030079 0.021216
v 0.013612 0.038938 0.021216
v 0.003821 0.029611 0.023082
v 0.015477 0.029611 0.009095
v 0.003354 0.039870 0.010959
v 0.003354 0.038471 0.023082
v 0.013612 0.038938 0.010494
v 0.004754 0.029611 0.008161
v 0.012213 0.029611 0.023549
v 0.009882 0.038938 0.008628
v 0.011746 0.039870 0.021216
v 0.016877 0.029611 0.010494
v 0.003354 0.038471 0.008628
v 0.011746 0.038938 0.022615
v 0.002887 0.038938 0.022150
v 0.012680 0.039870 0.011426
v 0.003821 0.039870 0.021216
v 0.012680 0.030079 0.008161
v 0.003821 0.029611 0.008628
v 0.003354 0.030545 0.022150
v 0.015477 0.029611 0.022615
v 0.009882 0.038938 0.023082
v 0.004754 0.032410 0.023549
v 0.002887 0.038938 0.009560
v 0.002887 0.034276 0.022150
f 367 350 372 
f 349 348 354 
f 351 350 355 
f 350 351 356 
f 354 351 357 
f 354 348 359 
f 351 354 359 
f 356 351 359 
f 352 357 360 
f 357 355 360 
f 349 358 361 
f 349 354 363 
f 357 352 363 
f 354 357 363 
f 358 349 363 
f 352 358 363 
f 358 352 364 
f 352 362 364 
f 362 353 364 
f 351 355 365 
f 357 351 365 
f 355 357 365 
f 355 350 366 
f 347 360 366 
f 360 355 366 
f 347 366 367 
f 366 350 367 
f 348 349 368 
f 359 348 368 
f 356 359 368 
f 349 361 368 
f 361 356 368 
f 356 361 369 
f 361 358 369 
f 358 364 369 
f 364 353 369 
f 353 350 370 
f 350 356 370 
f 369 353 370 
f 356 369 370 
f 360 347 371 
f 352 360 371 
f 347 362 371 
f 362 352 371 
f 350 353 372 
f 362 347 372 
f 353 362 372 
f 347 367 372 
