o convex_0
v -0.004548 0.090199 0.017721
v -0.014501 0.055145 0.010156
v -0.014104 0.053554 0.007368
v 0.000231 0.026891 0.017721
v 0.000231 0.090199 0.004978
v -0.004548 0.014934 0.006173
v -0.013306 0.014934 0.016525
v -0.012908 0.073070 0.004978
v -0.012908 0.073070 0.017721
v 0.000231 0.026891 0.004978
v -0.013306 0.014934 0.006173
v 0.000231 0.090199 0.017721
v -0.004548 0.014934 0.016525
v -0.004548 0.090199 0.004978
v -0.013704 0.040027 0.017721
v -0.013704 0.040027 0.004978
v -0.014104 0.068694 0.011747
v -0.014501 0.056346 0.012543
v -0.010120 0.029676 0.004978
v -0.009324 0.030074 0.017721
v -0.013704 0.054349 0.017721
v -0.013704 0.055145 0.004978
v -0.002954 0.026088 0.004978
v -0.014104 0.067493 0.010554
v -0.012510 0.034059 0.017721
v -0.012510 0.032859 0.004978
f 16 19 26 
f 4 1 9 
f 1 8 9 
f 5 4 10 
f 4 6 10 
f 8 5 10 
f 6 7 11 
f 7 2 11 
f 1 4 12 
f 5 1 12 
f 4 5 12 
f 6 4 13 
f 4 7 13 
f 7 6 13 
f 1 5 14 
f 8 1 14 
f 5 8 14 
f 4 9 15 
f 2 3 16 
f 8 10 16 
f 11 2 16 
f 9 8 17 
f 2 7 18 
f 7 15 18 
f 17 2 18 
f 9 17 18 
f 16 10 19 
f 7 4 20 
f 4 15 20 
f 15 9 21 
f 18 15 21 
f 9 18 21 
f 3 2 22 
f 16 3 22 
f 8 16 22 
f 10 6 23 
f 6 11 23 
f 19 10 23 
f 11 19 23 
f 2 17 24 
f 17 8 24 
f 22 2 24 
f 8 22 24 
f 15 7 25 
f 7 20 25 
f 20 15 25 
f 11 16 26 
f 19 11 26 
o convex_1
v 0.014169 0.068287 0.015729
v 0.000232 0.027680 0.004978
v 0.000631 0.026489 0.004978
v 0.000232 0.027680 0.017721
v 0.000232 0.090199 0.004978
v 0.014169 0.014137 0.006173
v 0.000232 0.090199 0.017721
v 0.013374 0.073469 0.004978
v 0.014169 0.014137 0.016128
v 0.013374 0.073469 0.017721
v 0.005808 0.014137 0.016128
v 0.005409 0.089790 0.004978
v 0.015365 0.055950 0.010952
v 0.014568 0.041618 0.017721
v 0.005409 0.014539 0.006173
v 0.005012 0.090199 0.017721
v 0.014568 0.041223 0.004978
v 0.014568 0.069881 0.009758
v 0.008992 0.029676 0.017721
v 0.011381 0.029676 0.004978
v 0.005409 0.014539 0.016525
v 0.014169 0.061520 0.004978
v 0.014568 0.052756 0.017321
v 0.013771 0.016535 0.016525
v 0.006604 0.087407 0.017721
v 0.005808 0.014137 0.006173
v 0.014966 0.065101 0.011747
v 0.013374 0.034850 0.017721
v 0.005012 0.090199 0.004978
v 0.004614 0.026087 0.004978
v 0.003418 0.027286 0.017721
v 0.015365 0.055541 0.011350
v 0.013771 0.072665 0.005775
v 0.013374 0.032460 0.004978
f 46 43 60 
f 28 29 30 
f 29 28 31 
f 28 30 31 
f 31 30 33 
f 29 31 34 
f 33 30 36 
f 32 35 37 
f 34 31 38 
f 36 30 40 
f 31 33 42 
f 33 36 42 
f 29 34 43 
f 39 32 43 
f 40 30 45 
f 29 43 46 
f 30 29 47 
f 37 35 47 
f 29 41 47 
f 41 37 47 
f 43 34 48 
f 39 43 48 
f 44 39 48 
f 27 36 49 
f 36 40 49 
f 35 40 50 
f 47 35 50 
f 42 36 51 
f 38 42 51 
f 32 37 52 
f 41 29 52 
f 37 41 52 
f 36 27 53 
f 44 36 53 
f 39 44 53 
f 27 49 53 
f 40 45 54 
f 50 40 54 
f 45 50 54 
f 38 31 55 
f 31 42 55 
f 42 38 55 
f 29 46 56 
f 46 32 56 
f 52 29 56 
f 32 52 56 
f 45 30 57 
f 30 47 57 
f 50 45 57 
f 47 50 57 
f 35 32 58 
f 32 39 58 
f 40 35 58 
f 49 40 58 
f 39 53 58 
f 53 49 58 
f 34 38 59 
f 36 44 59 
f 48 34 59 
f 44 48 59 
f 51 36 59 
f 38 51 59 
f 43 32 60 
f 32 46 60 
o convex_2
v -0.012113 -0.085419 0.010953
v -0.029235 -0.057151 0.011350
v -0.029235 -0.057151 0.011748
v -0.014902 -0.047991 0.008166
v -0.016892 -0.047991 0.018914
v -0.020874 -0.085415 0.018117
v -0.021272 -0.085018 0.004980
v -0.027643 -0.047991 0.005776
v -0.027643 -0.047991 0.017321
v -0.014503 -0.072673 0.004183
v -0.012512 -0.076656 0.016925
v -0.025253 -0.085415 0.012146
v -0.016892 -0.047991 0.004183
v -0.014104 -0.088600 0.006970
v -0.026050 -0.074268 0.006174
v -0.014104 -0.085018 0.018117
v -0.026050 -0.074268 0.016923
v -0.024458 -0.058345 0.004183
v -0.020476 -0.090195 0.012146
v -0.023660 -0.065112 0.018914
v -0.012512 -0.076259 0.006173
v -0.015299 -0.047991 0.017321
v -0.014104 -0.088600 0.016127
v -0.014503 -0.075858 0.018914
v -0.012113 -0.075065 0.011746
v -0.023263 -0.087410 0.007368
v -0.013707 -0.084221 0.004980
v -0.024059 -0.085816 0.016525
v -0.024458 -0.047991 0.018914
v -0.029235 -0.047991 0.010952
v -0.028040 -0.054763 0.005776
v -0.022068 -0.076255 0.004183
v -0.027643 -0.059142 0.017321
v -0.024458 -0.047991 0.004183
v -0.020476 -0.088997 0.016127
v -0.027643 -0.071082 0.011350
v -0.023660 -0.089001 0.012146
v -0.020476 -0.088997 0.006970
v -0.022068 -0.075858 0.018914
v -0.015299 -0.047991 0.005776
v -0.014104 -0.089794 0.010952
v -0.012514 -0.085018 0.016525
v -0.014902 -0.047991 0.014932
v -0.024059 -0.085816 0.006572
v -0.012514 -0.085018 0.006572
v -0.028439 -0.049586 0.016127
v -0.012514 -0.087803 0.012146
v -0.027246 -0.063521 0.005776
v -0.025652 -0.083427 0.010952
v -0.014104 -0.082229 0.004582
v -0.028040 -0.059935 0.016127
v -0.025253 -0.077052 0.005776
v -0.025652 -0.074664 0.017321
v -0.014503 -0.072673 0.018914
v -0.021272 -0.082229 0.018515
v -0.028439 -0.060733 0.008962
v -0.027246 -0.073070 0.012544
v -0.012113 -0.080639 0.014534
v -0.017291 -0.085415 0.004980
v -0.012113 -0.079445 0.008564
v -0.023660 -0.089001 0.010952
v -0.028439 -0.049586 0.006970
v -0.014104 -0.081833 0.018515
v -0.024855 -0.081432 0.016923
f 77 117 124 
f 65 64 68 
f 65 68 69 
f 68 64 73 
f 73 70 78 
f 64 65 82 
f 65 80 84 
f 81 64 85 
f 65 69 89 
f 80 65 89 
f 62 63 90 
f 69 68 90 
f 78 70 92 
f 89 69 93 
f 80 89 93 
f 68 73 94 
f 73 78 94 
f 91 68 94 
f 78 91 94 
f 76 66 95 
f 83 76 95 
f 79 83 95 
f 66 88 95 
f 63 62 96 
f 88 72 97 
f 79 95 97 
f 95 88 97 
f 84 80 99 
f 73 64 100 
f 70 73 100 
f 64 81 100 
f 81 70 100 
f 83 79 101 
f 98 74 101 
f 79 98 101 
f 76 83 102 
f 64 82 103 
f 82 71 103 
f 71 85 103 
f 85 64 103 
f 67 98 104 
f 98 86 104 
f 74 87 105 
f 87 81 105 
f 90 63 106 
f 69 90 106 
f 93 69 106 
f 101 74 107 
f 83 101 107 
f 102 83 107 
f 61 102 107 
f 105 61 107 
f 74 105 107 
f 91 78 108 
f 78 92 108 
f 96 75 109 
f 104 72 109 
f 75 104 109 
f 70 81 110 
f 81 87 110 
f 67 92 110 
f 92 70 110 
f 77 93 111 
f 106 63 111 
f 93 106 111 
f 92 67 112 
f 104 75 112 
f 67 104 112 
f 75 108 112 
f 108 92 112 
f 93 77 113 
f 80 93 113 
f 99 80 113 
f 82 65 114 
f 71 82 114 
f 84 71 114 
f 65 84 114 
f 88 66 115 
f 84 99 115 
f 62 91 116 
f 96 62 116 
f 75 96 116 
f 91 108 116 
f 108 75 116 
f 63 96 117 
f 96 109 117 
f 109 72 117 
f 77 111 117 
f 111 63 117 
f 61 85 118 
f 85 71 118 
f 71 102 118 
f 102 61 118 
f 87 74 119 
f 98 67 119 
f 74 98 119 
f 67 110 119 
f 110 87 119 
f 85 61 120 
f 81 85 120 
f 61 105 120 
f 105 81 120 
f 97 72 121 
f 79 97 121 
f 98 79 121 
f 86 98 121 
f 72 104 121 
f 104 86 121 
f 62 90 122 
f 90 68 122 
f 91 62 122 
f 68 91 122 
f 66 76 123 
f 71 84 123 
f 102 71 123 
f 76 102 123 
f 115 66 123 
f 84 115 123 
f 72 88 124 
f 113 77 124 
f 99 113 124 
f 88 115 124 
f 115 99 124 
f 117 72 124 
o convex_3
v -0.019280 -0.017327 0.018914
v -0.029236 -0.047984 0.010952
v -0.028439 -0.047984 0.007368
v -0.015298 -0.047984 0.017321
v -0.010919 -0.016530 0.004183
v -0.022864 -0.016530 0.006572
v -0.016893 -0.047984 0.004183
v -0.009327 -0.016530 0.017321
v -0.027641 -0.043602 0.017321
v -0.024059 -0.040415 0.004183
v -0.023660 -0.016530 0.013340
v -0.014901 -0.047984 0.007766
v -0.016893 -0.047984 0.018914
v -0.008927 -0.018125 0.010952
v -0.024457 -0.047984 0.018914
v -0.028041 -0.035239 0.011350
v -0.019280 -0.016930 0.004183
v -0.010919 -0.016530 0.018914
v -0.026449 -0.034044 0.005776
v -0.022467 -0.016530 0.017321
v -0.009327 -0.016930 0.005776
v -0.024457 -0.047984 0.004183
v -0.026449 -0.034444 0.017321
v -0.014503 -0.047186 0.012146
v -0.028041 -0.047984 0.016923
v -0.027641 -0.042804 0.005776
v -0.015298 -0.047984 0.005776
v -0.024854 -0.020514 0.010952
v -0.008927 -0.016930 0.014534
v -0.023660 -0.038029 0.018914
v -0.028836 -0.042407 0.012544
v -0.026049 -0.030866 0.016923
v -0.022467 -0.016530 0.005776
v -0.014901 -0.047984 0.015331
v -0.026049 -0.030866 0.006174
v -0.026846 -0.029274 0.012146
v -0.027244 -0.037628 0.016923
v -0.028836 -0.041610 0.010952
v -0.027641 -0.047984 0.005776
v -0.010919 -0.017724 0.004183
v -0.009327 -0.016930 0.017321
v -0.027244 -0.037628 0.006174
v -0.024059 -0.016930 0.011350
f 152 160 167 
f 126 127 128 
f 128 127 131 
f 129 130 132 
f 129 131 134 
f 132 130 135 
f 128 131 136 
f 126 128 137 
f 126 137 139 
f 137 125 139 
f 129 134 141 
f 132 135 142 
f 125 137 142 
f 141 134 143 
f 125 142 144 
f 142 135 144 
f 129 132 145 
f 138 136 145 
f 131 127 146 
f 134 131 146 
f 125 144 147 
f 136 138 148 
f 126 139 149 
f 139 133 149 
f 143 134 150 
f 134 146 150 
f 136 131 151 
f 145 136 151 
f 145 132 153 
f 138 145 153 
f 148 138 153 
f 133 139 154 
f 139 125 154 
f 147 133 154 
f 125 147 154 
f 126 149 155 
f 149 133 155 
f 144 135 156 
f 147 144 156 
f 130 129 157 
f 129 141 157 
f 141 143 157 
f 128 136 158 
f 136 148 158 
f 148 153 158 
f 152 130 159 
f 140 152 159 
f 130 157 159 
f 157 143 159 
f 152 140 160 
f 156 135 160 
f 156 160 161 
f 133 147 161 
f 140 155 161 
f 155 133 161 
f 147 156 161 
f 160 140 161 
f 127 126 162 
f 150 127 162 
f 126 155 162 
f 155 140 162 
f 146 127 163 
f 127 150 163 
f 150 146 163 
f 131 129 164 
f 129 145 164 
f 151 131 164 
f 145 151 164 
f 137 128 165 
f 132 142 165 
f 142 137 165 
f 153 132 165 
f 128 158 165 
f 158 153 165 
f 143 150 166 
f 140 159 166 
f 159 143 166 
f 162 140 166 
f 150 162 166 
f 135 130 167 
f 130 152 167 
f 160 135 167 
o convex_4
v -0.014898 0.002987 0.018914
v -0.014898 0.002987 0.004183
v -0.014898 0.003386 0.004183
v -0.003750 0.012146 0.012144
v -0.018086 0.012942 0.012146
v -0.004548 0.002987 0.009758
v -0.004946 0.014934 0.006174
v -0.005742 0.011348 0.018914
v -0.013706 0.014934 0.016525
v -0.013706 0.014934 0.006174
v -0.020078 0.002987 0.010952
v -0.004946 0.002987 0.016923
v -0.006539 0.002987 0.004183
v -0.016889 0.011747 0.017321
v -0.004946 0.014934 0.016525
v -0.016889 0.012146 0.005776
v -0.013306 0.012146 0.004183
v -0.013306 0.012146 0.018914
v -0.018484 0.003386 0.016923
v -0.004150 0.009357 0.005776
v -0.005742 0.011348 0.004183
v -0.006539 0.002987 0.018914
v -0.018484 0.002987 0.006174
v -0.003750 0.010553 0.015729
v -0.003750 0.007766 0.012146
v -0.020078 0.003386 0.012146
v -0.016889 0.012942 0.016923
v -0.004946 0.003386 0.005776
v -0.004150 0.009357 0.017321
v -0.017287 0.012942 0.007368
v -0.003750 0.010552 0.007368
f 195 187 198 
f 168 169 173 
f 172 176 177 
f 176 174 177 
f 169 168 178 
f 168 173 179 
f 169 170 180 
f 173 169 180 
f 171 174 182 
f 174 176 182 
f 177 174 184 
f 180 170 184 
f 170 183 184 
f 183 177 184 
f 168 175 185 
f 181 168 185 
f 182 176 185 
f 175 182 185 
f 178 168 186 
f 168 181 186 
f 187 180 188 
f 184 174 188 
f 180 184 188 
f 174 187 188 
f 175 168 189 
f 168 179 189 
f 170 169 190 
f 169 178 190 
f 183 170 190 
f 178 183 190 
f 171 182 191 
f 179 173 192 
f 191 179 192 
f 171 191 192 
f 172 178 193 
f 178 186 193 
f 193 186 194 
f 176 172 194 
f 181 185 194 
f 185 176 194 
f 186 181 194 
f 172 193 194 
f 173 180 195 
f 180 187 195 
f 182 175 196 
f 175 189 196 
f 189 179 196 
f 179 191 196 
f 191 182 196 
f 172 177 197 
f 178 172 197 
f 177 183 197 
f 183 178 197 
f 174 171 198 
f 187 174 198 
f 192 173 198 
f 171 192 198 
f 173 195 198 
o convex_5
v 0.028505 -0.062725 0.011351
v 0.011383 -0.085019 0.010952
v 0.011383 -0.085019 0.012146
v 0.014968 -0.047588 0.007766
v 0.016957 -0.047588 0.018914
v 0.021337 -0.085415 0.017719
v 0.020541 -0.085415 0.004980
v 0.027708 -0.047588 0.005776
v 0.027708 -0.047588 0.017321
v 0.013773 -0.075063 0.004183
v 0.011783 -0.079446 0.016923
v 0.022930 -0.089002 0.010952
v 0.016957 -0.047588 0.004183
v 0.024921 -0.078249 0.006174
v 0.013375 -0.085019 0.018117
v 0.013375 -0.088606 0.006970
v 0.024523 -0.056352 0.004183
v 0.024921 -0.078249 0.016923
v 0.022134 -0.073069 0.018914
v 0.013375 -0.088606 0.016127
v 0.014968 -0.047588 0.015331
v 0.011783 -0.079446 0.006174
v 0.011783 -0.073866 0.011350
v 0.024523 -0.047588 0.018914
v 0.024523 -0.085815 0.012146
v 0.029303 -0.047588 0.010953
v 0.028107 -0.055960 0.016923
v 0.028107 -0.055960 0.006174
v 0.013773 -0.075859 0.018914
v 0.019746 -0.090199 0.012544
v 0.021337 -0.077453 0.004183
v 0.013375 -0.085019 0.004980
v 0.021337 -0.088606 0.007368
v 0.020145 -0.089002 0.016127
v 0.023328 -0.085815 0.016525
v 0.024523 -0.047588 0.004183
v 0.023328 -0.085815 0.006572
v 0.015366 -0.047588 0.005776
v 0.015366 -0.047588 0.017321
v 0.013375 -0.089799 0.010952
v 0.027310 -0.071084 0.011748
v 0.026116 -0.069886 0.005776
v 0.020541 -0.082228 0.018515
v 0.029303 -0.055555 0.011351
v 0.027310 -0.061132 0.017321
v 0.020145 -0.089002 0.006970
v 0.012181 -0.087409 0.015331
v 0.012181 -0.087409 0.007766
v 0.024523 -0.055960 0.018914
v 0.024523 -0.085815 0.010952
v 0.011383 -0.078249 0.012146
v 0.028505 -0.047989 0.015729
v 0.027708 -0.061532 0.016127
v 0.019746 -0.090199 0.010554
v 0.013375 -0.082228 0.004582
v 0.011783 -0.084618 0.006572
v 0.022532 -0.089002 0.013340
v 0.011783 -0.084618 0.016525
v 0.011783 -0.087809 0.011748
v 0.026514 -0.068698 0.006174
v 0.026116 -0.077453 0.010554
v 0.027708 -0.057949 0.005776
v 0.024921 -0.076256 0.017321
v 0.020145 -0.085415 0.018117
f 241 213 262 
f 202 203 206 
f 206 203 207 
f 202 206 211 
f 208 211 215 
f 203 202 219 
f 219 202 221 
f 202 220 221 
f 207 203 222 
f 203 217 222 
f 206 207 224 
f 206 224 226 
f 209 213 227 
f 217 203 227 
f 212 205 229 
f 208 215 229 
f 213 218 232 
f 218 228 232 
f 223 216 233 
f 204 232 233 
f 211 206 234 
f 206 215 234 
f 215 211 234 
f 205 212 235 
f 210 231 235 
f 202 211 236 
f 211 208 236 
f 220 202 236 
f 208 220 236 
f 203 219 237 
f 219 209 237 
f 227 203 237 
f 209 227 237 
f 228 218 238 
f 216 223 239 
f 212 229 240 
f 229 215 240 
f 227 213 241 
f 217 227 241 
f 199 226 242 
f 226 224 242 
f 225 207 243 
f 230 205 244 
f 214 230 244 
f 231 210 244 
f 205 235 244 
f 235 231 244 
f 214 238 246 
f 207 222 247 
f 222 217 247 
f 217 243 247 
f 243 207 247 
f 223 210 248 
f 235 212 248 
f 210 235 248 
f 200 201 249 
f 201 209 249 
f 209 219 249 
f 220 200 249 
f 219 221 249 
f 221 220 249 
f 224 207 250 
f 207 225 250 
f 242 224 250 
f 225 242 250 
f 239 199 251 
f 216 239 251 
f 242 225 251 
f 199 242 251 
f 243 216 251 
f 225 243 251 
f 210 228 252 
f 238 214 252 
f 228 238 252 
f 244 210 252 
f 214 244 252 
f 220 208 253 
f 229 205 253 
f 208 229 253 
f 205 230 253 
f 253 230 254 
f 200 220 254 
f 230 214 254 
f 214 246 254 
f 220 253 254 
f 210 223 255 
f 228 210 255 
f 232 228 255 
f 223 233 255 
f 233 232 255 
f 209 201 256 
f 213 209 256 
f 218 213 256 
f 245 218 256 
f 245 256 257 
f 201 200 257 
f 238 218 257 
f 218 245 257 
f 246 238 257 
f 200 254 257 
f 254 246 257 
f 256 201 257 
f 226 199 258 
f 212 240 258 
f 199 239 259 
f 239 223 259 
f 223 248 259 
f 248 212 259 
f 258 199 259 
f 212 258 259 
f 215 206 260 
f 206 226 260 
f 240 215 260 
f 226 258 260 
f 258 240 260 
f 204 233 261 
f 233 216 261 
f 241 204 261 
f 217 241 261 
f 216 243 261 
f 243 217 261 
f 232 204 262 
f 213 232 262 
f 204 241 262 
o convex_6
v 0.025716 -0.021708 0.011748
v 0.007798 -0.009360 0.010554
v 0.007798 -0.009360 0.012544
v 0.014967 -0.047585 0.007368
v 0.016961 -0.047585 0.018914
v 0.027708 -0.047585 0.005776
v 0.018152 -0.007765 0.004183
v 0.018152 -0.007765 0.018914
v 0.028105 -0.047585 0.016923
v 0.009794 -0.007765 0.004183
v 0.009794 -0.007765 0.018914
v 0.016961 -0.047585 0.004183
v 0.021732 -0.007765 0.006572
v 0.021732 -0.008167 0.016923
v 0.014967 -0.047585 0.015729
v 0.024523 -0.044397 0.018914
v 0.028505 -0.036831 0.011350
v 0.024523 -0.047585 0.004183
v 0.026114 -0.030462 0.005776
v 0.026912 -0.035638 0.017320
v 0.008198 -0.008565 0.005776
v 0.008198 -0.008167 0.017320
v 0.029301 -0.047585 0.010952
v 0.022930 -0.008167 0.011350
v 0.014572 -0.047184 0.011350
v 0.027708 -0.042007 0.005776
v 0.023725 -0.036434 0.004183
v 0.015365 -0.047585 0.017320
v 0.015365 -0.047585 0.005776
v 0.026512 -0.031655 0.016923
v 0.021732 -0.008962 0.005776
v 0.024523 -0.047585 0.018914
v 0.026912 -0.029667 0.009360
v 0.021334 -0.007765 0.017320
v 0.028903 -0.042803 0.012940
v 0.007798 -0.007765 0.008166
v 0.022930 -0.032056 0.018914
v 0.027708 -0.038823 0.016525
v 0.027708 -0.031655 0.011748
v 0.027708 -0.039618 0.006174
v 0.016561 -0.046389 0.004183
v 0.009794 -0.008962 0.018914
v 0.007798 -0.008167 0.014932
v 0.022530 -0.007765 0.013338
v 0.027708 -0.042803 0.017320
v 0.026114 -0.030860 0.017320
f 299 282 308 
f 267 266 268 
f 267 268 271 
f 270 269 272 
f 270 272 273 
f 267 270 273 
f 268 266 274 
f 272 269 274 
f 269 270 275 
f 266 267 277 
f 270 267 278 
f 268 274 280 
f 274 269 280 
f 266 264 283 
f 271 268 285 
f 265 264 287 
f 264 266 287 
f 277 265 287 
f 266 277 287 
f 268 280 288 
f 285 268 288 
f 280 269 289 
f 269 281 289 
f 288 280 289 
f 281 288 289 
f 277 267 290 
f 284 277 290 
f 274 266 291 
f 266 283 291 
f 269 275 293 
f 275 281 293 
f 281 269 293 
f 267 271 294 
f 278 267 294 
f 281 275 295 
f 275 286 295 
f 286 263 295 
f 275 270 296 
f 271 285 297 
f 285 279 297 
f 264 265 298 
f 273 272 298 
f 283 264 298 
f 272 283 298 
f 284 273 298 
f 270 278 299 
f 278 282 299 
f 292 282 300 
f 271 297 300 
f 297 279 300 
f 263 292 301 
f 295 263 301 
f 279 295 301 
f 300 279 301 
f 292 300 301 
f 279 285 302 
f 288 281 302 
f 285 288 302 
f 295 279 302 
f 281 295 302 
f 272 274 303 
f 283 272 303 
f 274 291 303 
f 291 283 303 
f 267 273 304 
f 273 284 304 
f 290 267 304 
f 284 290 304 
f 265 277 305 
f 277 284 305 
f 298 265 305 
f 284 298 305 
f 286 275 306 
f 263 286 306 
f 292 263 306 
f 276 292 306 
f 275 296 306 
f 296 276 306 
f 282 278 307 
f 294 271 307 
f 278 294 307 
f 271 300 307 
f 300 282 307 
f 292 276 308 
f 282 292 308 
f 296 270 308 
f 276 296 308 
f 270 299 308 
o convex_7
v 0.019745 0.002987 0.015729
v 0.007003 0.007767 0.004183
v 0.007003 0.011747 0.004183
v 0.007003 0.011747 0.018914
v 0.018549 0.012941 0.007766
v 0.006206 0.002987 0.017321
v 0.015761 0.002987 0.004183
v 0.017754 0.012941 0.016923
v 0.005809 0.014137 0.006174
v 0.006206 0.002987 0.005776
v 0.015761 0.002987 0.018914
v 0.005809 0.014137 0.016127
v 0.019346 0.002987 0.005776
v 0.014568 0.012543 0.004183
v 0.004613 0.010552 0.010952
v 0.014568 0.014137 0.006174
v 0.019346 0.012941 0.012146
v 0.014169 0.012543 0.018914
v 0.014568 0.014137 0.016127
v 0.020542 0.003385 0.010554
v 0.007800 0.002987 0.018914
v 0.019346 0.003385 0.017321
v 0.005409 0.008959 0.017321
v 0.005409 0.003783 0.012146
v 0.007800 0.002987 0.004183
v 0.018152 0.011747 0.005776
v 0.005409 0.008959 0.005776
v 0.017754 0.013739 0.011748
v 0.018152 0.011347 0.017321
v 0.004613 0.011347 0.012146
v 0.020542 0.002987 0.012544
f 325 330 339 
f 310 311 315 
f 309 314 315 
f 315 314 318 
f 314 309 319 
f 309 315 321 
f 321 315 322 
f 315 311 322 
f 311 317 322 
f 317 320 324 
f 322 317 324 
f 312 319 326 
f 320 312 326 
f 320 326 327 
f 324 320 327 
f 326 316 327 
f 321 313 328 
f 313 325 328 
f 314 319 329 
f 319 312 329 
f 319 309 330 
f 312 320 331 
f 329 312 331 
f 314 329 331 
f 318 314 332 
f 323 318 332 
f 314 331 332 
f 310 315 333 
f 318 310 333 
f 315 318 333 
f 313 321 334 
f 321 322 334 
f 324 313 334 
f 322 324 334 
f 311 310 335 
f 317 311 335 
f 310 318 335 
f 318 323 335 
f 323 317 335 
f 313 324 336 
f 316 325 336 
f 325 313 336 
f 324 327 336 
f 327 316 336 
f 325 316 337 
f 326 319 337 
f 316 326 337 
f 319 330 337 
f 330 325 337 
f 320 317 338 
f 317 323 338 
f 331 320 338 
f 323 332 338 
f 332 331 338 
f 309 321 339 
f 321 328 339 
f 328 325 339 
f 330 309 339 
o convex_8
v -0.008929 -0.007765 0.018914
v -0.018883 -0.016527 0.004183
v -0.018883 -0.015331 0.004183
v -0.022465 -0.016527 0.016923
v -0.022067 -0.007765 0.011350
v -0.008929 -0.007765 0.004183
v -0.008929 -0.016527 0.015331
v -0.009326 -0.016527 0.005776
v -0.020476 -0.007765 0.017321
v -0.020874 -0.008562 0.005776
v -0.022863 -0.016527 0.006970
v -0.018883 -0.016527 0.018914
v -0.006936 -0.008164 0.008166
v -0.010919 -0.016527 0.018914
v -0.007336 -0.007765 0.017321
v -0.017288 -0.007765 0.004183
v -0.017288 -0.007765 0.018914
v -0.010919 -0.016527 0.004183
v -0.023662 -0.016127 0.012942
v -0.007733 -0.012941 0.012146
v -0.007336 -0.007765 0.005776
v -0.022465 -0.016127 0.005776
v -0.023662 -0.016127 0.010156
v -0.008929 -0.015331 0.017321
v -0.020874 -0.007765 0.016923
v -0.008529 -0.016127 0.010554
v -0.006936 -0.008164 0.014932
v -0.022067 -0.014534 0.017321
v -0.020874 -0.007765 0.006174
f 362 344 368 
f 341 342 345 
f 344 340 345 
f 343 341 346 
f 346 341 347 
f 340 344 348 
f 341 343 350 
f 343 346 351 
f 351 346 353 
f 340 351 353 
f 345 340 354 
f 345 342 355 
f 344 345 355 
f 342 349 355 
f 340 348 356 
f 351 340 356 
f 341 345 357 
f 345 347 357 
f 347 341 357 
f 350 343 358 
f 347 345 360 
f 352 347 360 
f 345 354 360 
f 354 352 360 
f 342 341 361 
f 349 342 361 
f 341 350 361 
f 361 350 362 
f 358 344 362 
f 350 358 362 
f 340 353 363 
f 353 346 363 
f 354 340 363 
f 348 344 364 
f 344 358 364 
f 346 347 365 
f 347 352 365 
f 359 346 365 
f 352 359 365 
f 352 354 366 
f 346 359 366 
f 359 352 366 
f 363 346 366 
f 354 363 366 
f 343 351 367 
f 356 348 367 
f 351 356 367 
f 358 343 367 
f 348 364 367 
f 364 358 367 
f 344 355 368 
f 355 349 368 
f 349 361 368 
f 361 362 368 
o convex_9
v -0.026449 -0.003783 0.010955
v -0.004547 0.002987 0.012940
v -0.004945 0.002987 0.016526
v -0.006538 -0.007765 0.012142
v -0.009726 -0.002985 -0.000199
v -0.019278 -0.006570 0.022498
v -0.023261 0.002588 0.013340
v -0.022466 -0.006570 0.002190
v -0.021270 0.002190 0.002989
v -0.009328 -0.000997 0.022896
v -0.021270 0.002190 0.020109
v -0.006538 0.002987 0.004184
v -0.007336 -0.007765 0.005778
v -0.021668 -0.007765 0.012940
v -0.007336 -0.007765 0.017319
v -0.024854 -0.005773 0.019709
v -0.017288 0.000199 0.000201
v -0.017288 -0.006969 0.000599
v -0.016493 0.001393 0.022498
v -0.024854 -0.005773 0.003386
v -0.010918 -0.006171 0.022896
v -0.023660 -0.000997 0.020507
v -0.005344 0.000597 0.005778
v -0.022065 0.002987 0.012542
v -0.023660 -0.000997 0.002591
v -0.006937 0.002987 0.018913
v -0.018086 -0.001794 0.023296
v -0.020474 -0.007765 0.005776
v -0.018482 -0.004181 -0.000199
v -0.010918 -0.006171 0.000201
v -0.013311 -0.007765 0.020109
v -0.026449 -0.005773 0.010555
v -0.024458 0.001393 0.011351
v -0.014902 0.001393 0.000599
v -0.019278 0.002987 0.004978
v -0.008929 -0.002192 0.022896
v -0.020474 -0.007765 0.017321
v -0.019278 0.002987 0.018119
v -0.008929 -0.001395 0.000201
v -0.012514 -0.007765 0.002989
v -0.005743 -0.001395 0.017319
v -0.026048 -0.001794 0.011746
v -0.022466 0.002588 0.006572
v -0.005344 -0.002587 0.011353
v -0.024854 -0.006171 0.019311
v -0.025253 -0.006171 0.005378
v -0.009726 -0.003783 0.023296
v -0.019278 -0.004977 0.022896
v -0.019677 -0.006969 0.022101
v -0.004945 0.002987 0.006572
v -0.016892 0.001791 0.000997
v -0.009726 -0.004181 -0.000199
v -0.010918 0.000597 0.022498
v -0.012514 -0.006969 0.022498
v -0.015697 0.001791 0.022101
v -0.017288 -0.000997 -0.000199
v -0.010918 0.000597 0.000599
v -0.006142 -0.003383 0.005778
v -0.024458 -0.002985 0.002989
v -0.024057 -0.002192 0.020507
f 416 395 428 
f 371 370 380 
f 381 372 382 
f 382 372 383 
f 379 375 390 
f 371 380 392 
f 377 385 393 
f 371 392 394 
f 378 387 395 
f 387 379 395 
f 379 390 395 
f 381 382 396 
f 376 386 396 
f 386 376 397 
f 376 388 397 
f 386 397 398 
f 382 383 399 
f 384 369 400 
f 369 388 400 
f 390 375 401 
f 392 380 403 
f 371 394 404 
f 394 378 404 
f 382 399 405 
f 375 379 406 
f 392 375 406 
f 394 392 406 
f 381 396 408 
f 396 386 408 
f 398 381 408 
f 386 398 408 
f 370 371 409 
f 383 372 409 
f 371 404 409 
f 404 383 409 
f 369 384 410 
f 390 401 410 
f 401 393 410 
f 375 392 411 
f 377 393 411 
f 401 375 411 
f 393 401 411 
f 403 377 411 
f 392 403 411 
f 370 409 412 
f 409 372 412 
f 384 400 413 
f 400 382 413 
f 382 405 413 
f 388 376 414 
f 396 382 414 
f 376 396 414 
f 382 400 414 
f 400 388 414 
f 389 383 415 
f 378 395 415 
f 383 404 415 
f 404 378 415 
f 384 374 416 
f 374 389 416 
f 389 415 416 
f 415 395 416 
f 374 384 417 
f 405 399 417 
f 384 413 417 
f 413 405 417 
f 380 370 418 
f 407 380 418 
f 391 407 418 
f 370 412 418 
f 412 391 418 
f 385 377 419 
f 380 402 419 
f 402 385 419 
f 377 403 419 
f 403 380 419 
f 397 373 420 
f 381 398 420 
f 398 397 420 
f 373 407 420 
f 387 378 421 
f 378 394 421 
f 389 374 422 
f 383 389 422 
f 399 383 422 
f 374 417 422 
f 417 399 422 
f 379 387 423 
f 406 379 423 
f 394 406 423 
f 387 421 423 
f 421 394 423 
f 393 385 424 
f 373 397 424 
f 397 393 424 
f 385 402 424 
f 407 373 424 
f 407 424 425 
f 402 380 425 
f 380 407 425 
f 424 402 425 
f 372 381 426 
f 407 391 426 
f 412 372 426 
f 391 412 426 
f 381 420 426 
f 420 407 426 
f 388 369 427 
f 397 388 427 
f 393 397 427 
f 369 410 427 
f 410 393 427 
f 395 390 428 
f 410 384 428 
f 390 410 428 
f 384 416 428 
o convex_10
v 0.005807 0.000597 0.010955
v 0.027312 -0.004977 0.012940
v 0.027312 -0.005375 0.012940
v 0.019347 -0.004181 -0.000199
v 0.008199 -0.007765 0.017321
v 0.022134 0.002190 0.020109
v 0.022134 0.002190 0.002989
v 0.007799 0.002987 0.018915
v 0.020142 -0.006570 0.022498
v 0.009792 -0.007765 0.004182
v 0.007799 0.002987 0.004182
v 0.024523 -0.006570 0.002989
v 0.010588 -0.003383 0.023296
v 0.022531 -0.007765 0.012940
v 0.010190 -0.000997 0.000201
v 0.024125 0.002588 0.012940
v 0.025718 -0.006171 0.019711
v 0.018151 0.000199 0.022896
v 0.024921 -0.001793 0.002591
v 0.007799 -0.007367 0.006572
v 0.011783 -0.006171 0.000201
v 0.024921 -0.001793 0.020507
v 0.017753 0.001393 0.000599
v 0.006207 0.002987 0.017321
v 0.022531 0.002987 0.012142
v 0.013775 -0.007367 0.021703
v 0.006207 0.002987 0.005776
v 0.020938 -0.006969 0.000997
v 0.026514 -0.000997 0.010555
v 0.027312 -0.006171 0.010555
v 0.013775 0.000995 0.022498
v 0.021338 -0.007765 0.005776
v 0.021338 -0.007765 0.017321
v 0.010588 -0.004181 -0.000199
v 0.007401 -0.007765 0.011746
v 0.019347 -0.003783 0.023296
v 0.011783 -0.006171 0.022896
v 0.020142 0.002987 0.005378
v 0.020142 0.002987 0.017719
v 0.007003 -0.003383 0.016923
v 0.022929 0.002190 0.003784
v 0.025718 -0.006171 0.003386
v 0.017753 0.001791 0.022101
v 0.018549 -0.001395 -0.000199
v 0.010190 -0.000997 0.022896
v 0.007003 -0.002985 0.005776
v 0.027312 -0.003384 0.010953
v 0.013775 -0.007367 0.001395
v 0.025318 0.001393 0.010953
v 0.020938 -0.006969 0.022101
v 0.013375 0.000995 0.000599
v 0.023727 0.000994 0.019711
v 0.026116 -0.000200 0.012542
v 0.015366 -0.007765 0.019709
v 0.016162 0.002987 0.004182
v 0.018549 -0.001395 0.023296
v 0.005807 0.002588 0.014532
v 0.023329 0.001393 0.002989
v 0.016162 0.002987 0.018915
f 436 471 487 
f 433 438 442 
f 431 430 445 
f 445 430 450 
f 434 446 450 
f 436 439 452 
f 439 436 453 
f 439 443 455 
f 452 439 455 
f 449 432 456 
f 430 431 458 
f 431 445 458 
f 445 442 458 
f 442 438 460 
f 456 440 460 
f 440 458 460 
f 458 442 460 
f 433 442 461 
f 442 445 461 
f 438 448 462 
f 432 449 462 
f 449 438 462 
f 455 443 462 
f 438 433 463 
f 429 448 463 
f 448 438 463 
f 445 450 464 
f 441 433 465 
f 433 454 465 
f 437 464 465 
f 464 441 465 
f 439 453 466 
f 434 444 467 
f 453 436 467 
f 444 453 467 
f 433 441 468 
f 441 452 468 
f 463 433 468 
f 429 463 468 
f 453 444 469 
f 435 466 469 
f 466 453 469 
f 432 447 470 
f 440 456 470 
f 456 432 470 
f 458 440 470 
f 446 434 471 
f 436 459 471 
f 459 446 471 
f 447 432 472 
f 432 462 472 
f 462 443 472 
f 436 452 473 
f 452 441 473 
f 459 436 473 
f 446 459 473 
f 448 429 474 
f 429 455 474 
f 462 448 474 
f 455 462 474 
f 450 430 475 
f 447 457 475 
f 430 458 475 
f 470 447 475 
f 458 470 475 
f 438 449 476 
f 449 456 476 
f 460 438 476 
f 456 460 476 
f 469 444 477 
f 461 445 478 
f 464 437 478 
f 445 464 478 
f 465 454 478 
f 437 465 478 
f 443 439 479 
f 439 451 479 
f 472 443 479 
f 451 472 479 
f 444 434 480 
f 434 450 480 
f 450 475 481 
f 475 457 481 
f 477 444 481 
f 457 477 481 
f 444 480 481 
f 480 450 481 
f 454 433 482 
f 433 461 482 
f 461 478 482 
f 478 454 482 
f 435 451 483 
f 451 439 483 
f 466 435 483 
f 439 466 483 
f 450 446 484 
f 441 464 484 
f 464 450 484 
f 473 441 484 
f 446 473 484 
f 455 429 485 
f 452 455 485 
f 429 468 485 
f 468 452 485 
f 451 435 486 
f 457 447 486 
f 435 469 486 
f 447 472 486 
f 472 451 486 
f 477 457 486 
f 469 477 486 
f 434 467 487 
f 467 436 487 
f 471 434 487 
